<svg width="128" height="128" viewBox="0 0 128 128" fill="none" xmlns="http://www.w3.org/2000/svg">
<path fill-rule="evenodd" clip-rule="evenodd" d="M75.5189 96.2592C75.4697 95.9061 75.167 95.643 74.8106 95.6468L70.1411 95.6972C69.7193 95.7017 69.3962 96.0732 69.4558 96.4907C70.089 100.922 71.23 106.108 70.6733 110.504C69.8126 117.302 58.3987 117.079 57.3885 110.426C56.728 106.076 57.7506 100.889 58.3598 96.4851C58.4176 96.0673 58.0937 95.6965 57.672 95.6928L53.001 95.6515C52.6445 95.6484 52.3422 95.9121 52.2945 96.2654C51.6219 101.237 50.5587 106.338 51.3197 111.35C52.3376 118.054 57.4917 121.599 64.087 121.526C70.7116 121.598 75.9027 118.072 76.7632 111.277C77.3981 106.263 76.2089 101.215 75.5189 96.2592Z" fill="#3381FF"/>
<path d="M51.0562 107.667C51.0567 108.898 51.1338 110.126 51.3195 111.35C52.333 118.024 57.4462 121.568 63.9998 121.527V115.507C60.9413 115.439 57.8887 113.721 57.3884 110.426C56.915 107.308 57.3061 103.761 57.7899 100.38L51.6986 100.38C51.353 102.792 51.0573 105.22 51.0562 107.639C51.0562 107.648 51.0562 107.657 51.0562 107.667Z" fill="#F44034"/>
<path d="M74.867 95.6406C75.1921 95.6406 75.4665 95.8818 75.5111 96.2038C75.658 97.2644 75.8282 98.3293 75.9988 99.3972C76.0512 99.7247 76.1036 100.053 76.1553 100.381L70.0632 100.381C69.9976 99.9625 69.9311 99.547 69.8652 99.1351C69.7139 98.1895 69.5656 97.2633 69.4387 96.3702C69.3837 95.9834 69.6855 95.6406 70.0761 95.6406L74.867 95.6406Z" fill="white"/>
<path d="M57.7909 100.381L51.6987 100.381C51.7736 99.8579 51.8509 99.3359 51.928 98.8148C52.0569 97.9438 52.1854 97.0755 52.3019 96.2111C52.3453 95.8884 52.62 95.6466 52.9456 95.6466L57.7381 95.6466C58.1282 95.6466 58.4297 95.9885 58.3765 96.375C58.2768 97.0986 58.1655 97.8448 58.0519 98.6059C57.9648 99.1898 57.8764 99.7825 57.7909 100.381Z" fill="white"/>
<path d="M53.8235 90.4561L54.8345 89.6221L53.3844 88.2194L54.232 87.556L51.0562 84.1348L53.027 87.4234L51.9139 88.3332L53.4253 89.6979L52.6185 90.3139L55.8658 93.7541L53.8235 90.4561Z" fill="#66A1FF"/>
<path d="M59.4236 91.1157L58.6148 90.4485L59.7749 89.3264L59.0968 88.7957L61.6375 86.0586L60.0608 88.6895L60.9513 89.4174L59.7422 90.5091L60.3876 91.002L57.7897 93.7541L59.4236 91.1157Z" fill="#66A1FF"/>
<path d="M68.6611 91.1157L69.4698 90.4485L68.3098 89.3264L68.9878 88.7957L66.4472 86.0586L68.0238 88.6895L67.1334 89.4174L68.3425 90.5091L67.6971 91.002L70.2949 93.7541L68.6611 91.1157Z" fill="#66A1FF"/>
<path d="M74.2611 90.4561L73.2502 89.6221L74.7002 88.2194L73.8527 87.556L77.0285 84.1348L75.0576 87.4234L76.1707 88.3332L74.6594 89.6979L75.4661 90.3139L72.2188 93.7541L74.2611 90.4561Z" fill="#66A1FF"/>
<rect x="39.5503" y="12.2246" width="23.0112" height="23.0112" rx="11.5056" fill="white"/>
<path d="M48.2341 21.214C48.2341 22.7248 49.4588 23.9496 50.9696 23.9496C52.4804 23.9496 53.7051 22.7248 53.7051 21.214C53.7051 19.7033 52.4804 18.4785 50.9696 18.4785C49.4588 18.4785 48.2341 19.7033 48.2341 21.214Z" fill="#99C0FF"/>
<path d="M56.6361 30.2019C56.5769 27.1704 54.0626 24.7308 50.9697 24.7308C47.8767 24.7308 45.3624 27.1704 45.3032 30.2019H56.6361Z" fill="#99C0FF"/>
<rect x="93.4829" y="51.0566" width="23.0112" height="23.0112" rx="11.5056" fill="white"/>
<path d="M102.167 60.0461C102.167 61.5569 103.391 62.7816 104.902 62.7816C106.413 62.7816 107.638 61.5569 107.638 60.0461C107.638 58.5353 106.413 57.3105 104.902 57.3105C103.391 57.3105 102.167 58.5353 102.167 60.0461Z" fill="#99C0FF"/>
<path d="M110.569 69.0339C110.51 66.0024 107.995 63.5628 104.902 63.5628C101.809 63.5628 99.2951 66.0024 99.2358 69.0339H110.569Z" fill="#99C0FF"/>
<rect x="77.6626" y="22.292" width="17.9775" height="17.9775" rx="8.98876" fill="white"/>
<path d="M84.4469 29.3149C84.4469 30.4952 85.4038 31.452 86.5841 31.452C87.7644 31.452 88.7212 30.4952 88.7212 29.3149C88.7212 28.1346 87.7644 27.1777 86.5841 27.1777C85.4038 27.1777 84.4469 28.1346 84.4469 29.3149Z" fill="#99C0FF"/>
<path d="M91.011 36.3366C90.9648 33.9682 89.0005 32.0623 86.5841 32.0623C84.1678 32.0623 82.2035 33.9682 82.1572 36.3366H91.011Z" fill="#99C0FF"/>
<rect x="14.3818" y="48.1797" width="17.9775" height="17.9775" rx="8.98876" fill="white"/>
<path d="M21.1657 55.2026C21.1657 56.3829 22.1225 57.3397 23.3028 57.3397C24.4831 57.3397 25.4399 56.3829 25.4399 55.2026C25.4399 54.0223 24.4831 53.0654 23.3028 53.0654C22.1225 53.0654 21.1657 54.0223 21.1657 55.2026Z" fill="#99C0FF"/>
<path d="M27.7298 62.2243C27.6835 59.8559 25.7192 57.95 23.3029 57.95C20.8865 57.95 18.9222 59.8559 18.876 62.2243H27.7298Z" fill="#99C0FF"/>
<rect x="39.5503" y="43.8652" width="8.62921" height="8.62921" rx="4.31461" fill="white"/>
<path d="M42.8066 47.2358C42.8066 47.8023 43.2658 48.2616 43.8324 48.2616C44.3989 48.2616 44.8582 47.8023 44.8582 47.2358C44.8582 46.6692 44.3989 46.21 43.8324 46.21C43.2658 46.21 42.8066 46.6692 42.8066 47.2358Z" fill="#99C0FF"/>
<path d="M45.9573 50.6063C45.9351 49.4695 44.9923 48.5547 43.8324 48.5547C42.6726 48.5547 41.7297 49.4695 41.7075 50.6063H45.9573Z" fill="#99C0FF"/>
<rect x="28.0449" y="33.0791" width="8.62921" height="8.62921" rx="4.31461" fill="white"/>
<path d="M31.3012 36.4496C31.3012 37.0162 31.7605 37.4755 32.327 37.4755C32.8936 37.4755 33.3528 37.0162 33.3528 36.4496C33.3528 35.8831 32.8936 35.4238 32.327 35.4238C31.7605 35.4238 31.3012 35.8831 31.3012 36.4496Z" fill="#99C0FF"/>
<path d="M34.452 39.8202C34.4298 38.6834 33.4869 37.7686 32.3271 37.7686C31.1672 37.7686 30.2244 38.6834 30.2021 39.8202H34.452Z" fill="#99C0FF"/>
<rect x="42.4268" y="68.3145" width="8.62921" height="8.62921" rx="4.31461" fill="white"/>
<path d="M45.683 71.686C45.683 72.2525 46.1423 72.7118 46.7088 72.7118C47.2754 72.7118 47.7347 72.2525 47.7347 71.686C47.7347 71.1194 47.2754 70.6602 46.7088 70.6602C46.1423 70.6602 45.683 71.1194 45.683 71.686Z" fill="#99C0FF"/>
<path d="M48.8338 75.0565C48.8116 73.9197 47.8688 73.0049 46.7089 73.0049C45.549 73.0049 44.6062 73.9197 44.584 75.0565H48.8338Z" fill="#99C0FF"/>
<rect x="81.9771" y="66.1572" width="8.62921" height="8.62921" rx="4.31461" fill="white"/>
<path d="M85.2333 69.5288C85.2333 70.0953 85.6926 70.5546 86.2591 70.5546C86.8257 70.5546 87.285 70.0953 87.285 69.5288C87.285 68.9622 86.8257 68.5029 86.2591 68.5029C85.6926 68.5029 85.2333 68.9622 85.2333 69.5288Z" fill="#99C0FF"/>
<path d="M88.3841 72.8993C88.3619 71.7625 87.419 70.8477 86.2592 70.8477C85.0993 70.8477 84.1565 71.7625 84.1343 72.8993H88.3841Z" fill="#99C0FF"/>
<rect x="81.9771" y="47.4609" width="8.62921" height="8.62921" rx="4.31461" fill="white"/>
<path d="M85.2333 50.8325C85.2333 51.399 85.6926 51.8583 86.2591 51.8583C86.8257 51.8583 87.285 51.399 87.285 50.8325C87.285 50.2659 86.8257 49.8066 86.2591 49.8066C85.6926 49.8066 85.2333 50.2659 85.2333 50.8325Z" fill="#99C0FF"/>
<path d="M88.3841 54.203C88.3619 53.0662 87.419 52.1514 86.2592 52.1514C85.0993 52.1514 84.1565 53.0662 84.1343 54.203H88.3841Z" fill="#99C0FF"/>
<rect x="63.2808" y="41.708" width="8.62921" height="8.62921" rx="4.31461" fill="white"/>
<path d="M66.537 45.0786C66.537 45.6451 66.9963 46.1044 67.5629 46.1044C68.1294 46.1044 68.5887 45.6451 68.5887 45.0786C68.5887 44.512 68.1294 44.0527 67.5629 44.0527C66.9963 44.0527 66.537 44.512 66.537 45.0786Z" fill="#99C0FF"/>
<path d="M69.6878 48.4491C69.6656 47.3123 68.7228 46.3975 67.5629 46.3975C66.403 46.3975 65.4602 47.3123 65.438 48.4491H69.6878Z" fill="#99C0FF"/>
<rect x="102.831" y="37.3936" width="8.62921" height="8.62921" rx="4.31461" fill="white"/>
<path d="M106.087 40.7651C106.087 41.3316 106.547 41.7909 107.113 41.7909C107.68 41.7909 108.139 41.3316 108.139 40.7651C108.139 40.1985 107.68 39.7393 107.113 39.7393C106.547 39.7393 106.087 40.1985 106.087 40.7651Z" fill="#99C0FF"/>
<path d="M109.238 44.1356C109.216 42.9988 108.273 42.084 107.113 42.084C105.953 42.084 105.01 42.9988 104.988 44.1356H109.238Z" fill="#99C0FF"/>
<rect x="66.1572" y="13.6631" width="8.62921" height="8.62921" rx="4.31461" fill="white"/>
<path d="M69.4135 17.0336C69.4135 17.6002 69.8728 18.0595 70.4393 18.0595C71.0059 18.0595 71.4651 17.6002 71.4651 17.0336C71.4651 16.4671 71.0059 16.0078 70.4393 16.0078C69.8728 16.0078 69.4135 16.4671 69.4135 17.0336Z" fill="#99C0FF"/>
<path d="M72.5643 20.4042C72.5421 19.2674 71.5992 18.3525 70.4394 18.3525C69.2795 18.3525 68.3367 19.2674 68.3145 20.4042H72.5643Z" fill="#99C0FF"/>
<rect x="53.9321" y="61.124" width="17.9775" height="17.9775" rx="8.98876" fill="white"/>
<path d="M60.716 68.1469C60.716 69.3272 61.6728 70.284 62.8531 70.284C64.0334 70.284 64.9902 69.3272 64.9902 68.1469C64.9902 66.9666 64.0334 66.0098 62.8531 66.0098C61.6728 66.0098 60.716 66.9666 60.716 68.1469Z" fill="#99C0FF"/>
<path d="M67.2801 75.1686C67.2338 72.8003 65.2695 70.8944 62.8532 70.8944C60.4368 70.8944 58.4725 72.8003 58.4263 75.1686H67.2801Z" fill="#99C0FF"/>
</svg>
