<svg width="266" height="307" viewBox="0 0 266 307" fill="none" xmlns="http://www.w3.org/2000/svg">
    <path opacity="0.5" d="M172.214 294.778L114.521 303.001C95.9103 305.654 77.018 305.669 58.4026 303.047L0.589448 294.903L86.4078 144.151L177.883 166.935L172.214 294.778Z" fill="#FFE4AD"/>
    <g clip-path="url(#clip0)">
        <circle cx="111.502" cy="220.953" r="7.5" transform="rotate(-25 111.502 220.953)" stroke="#FF9102" stroke-width="2" stroke-miterlimit="16" stroke-linecap="square" stroke-linejoin="round" stroke-dasharray="8 8"/>
        <path d="M84.6995 252.208L91.6999 234.048L121.838 247.077L125.055 236.775L139.345 241.622" stroke="#FF9102" stroke-width="2" stroke-miterlimit="16" stroke-linecap="square" stroke-linejoin="round" stroke-dasharray="8 8"/>
    </g>
    <rect x="71.4481" y="221.424" width="52" height="52" rx="3" transform="rotate(-25 71.4481 221.424)" stroke="#FF9102" stroke-width="2" stroke-miterlimit="16" stroke-linecap="square" stroke-linejoin="round" stroke-dasharray="8 8"/>
    <path d="M95.5851 75.8688C98.8484 41.9659 131.492 18.895 164.54 27.1347C197.587 35.3745 215.579 71.07 202.544 102.536L187.053 139.932L91.707 116.159L95.5851 75.8688Z" fill="#BEEEFC" stroke="white" stroke-width="4"/>
    <path d="M130.659 60.8478C127.776 44.6839 142.51 30.9173 158.441 34.8894L166.283 36.8447C182.214 40.8168 188.76 59.8889 178.626 72.8073L159.505 97.1817C156.289 101.28 150.966 103.107 145.911 101.847C140.857 100.587 137.014 96.4745 136.099 91.3461L130.659 60.8478Z" fill="#45CEF7"/>
    <path d="M129.466 71.9912C125.54 64.8784 131.978 56.5038 139.861 58.4692C145.951 59.9875 149.657 66.1548 148.138 72.2443L146.531 78.6896C145.998 80.8298 143.83 82.1322 141.69 81.5986C136.572 80.3226 132.216 76.9739 129.667 72.3561L129.466 71.9912Z" fill="#09A0CE" stroke="#45CEF7" stroke-width="2"/>
    <path d="M174.447 83.2059C181.253 78.7687 179.5 68.3519 171.617 66.3864C165.527 64.8681 159.36 68.5738 157.842 74.6633L156.235 81.1086C155.701 83.2488 157.003 85.4164 159.144 85.95C164.262 87.226 169.68 86.3143 174.098 83.4335L174.447 83.2059Z" fill="#09A0CE" stroke="#45CEF7" stroke-width="2"/>
    <path d="M86.2578 117.893L191.05 144.02L177.694 167.589C176.21 170.208 173.381 171.772 170.373 171.637L133.011 169.95C130.349 169.83 127.737 169.179 125.329 168.035L91.5488 151.983C88.8296 150.691 87.066 147.982 86.9852 144.973L86.2578 117.893Z" fill="#FFE4AD"/>
    <path d="M239.081 158.057C236.892 166.834 228.558 172.647 219.565 171.667L210.005 170.625C157.52 164.905 106.058 152.074 57.0316 132.484L48.1018 128.916C39.7014 125.559 35.0709 116.514 37.2594 107.737L239.081 158.057Z" fill="#E6E9F0"/>
    <path d="M37.2589 107.737C39.4474 98.9593 47.7823 93.1469 56.7753 94.1269L66.335 95.1687C118.819 100.888 170.282 113.719 219.308 133.309L228.238 136.877C236.638 140.234 241.269 149.279 239.08 158.057L37.2589 107.737Z" fill="white"/>
    <circle cx="89.6551" cy="120.801" r="8" transform="rotate(14 89.6551 120.801)" fill="#B6C1D3"/>
    <circle cx="138.169" cy="132.897" r="10" transform="rotate(14 138.169 132.897)" fill="#8698B6"/>
    <circle cx="186.684" cy="144.993" r="8" transform="rotate(14 186.684 144.993)" fill="#B6C1D3"/>
    <ellipse cx="87" cy="293.981" rx="86" ry="12" fill="#FFE4AD"/>
    <path opacity="0.2" d="M27.4063 302.043L12.6963 299.152C9.10671 298.446 5.76313 296.816 2.99548 294.424C2.23535 293.767 2.04586 292.664 2.54306 291.791L86.9999 143.481L103.25 148.731L27.4063 302.043Z" fill="#FFE4AD"/>
    <path opacity="0.2" d="M144.062 302.731L163.034 298.976C166.332 298.324 169.407 296.839 171.969 294.663C172.387 294.308 172.639 293.795 172.663 293.247L178.25 166.231L164 163.793L144.062 302.731Z" fill="#FFE4AD"/>
    <defs>
        <clipPath id="clip0">
        </clipPath>
    </defs>
</svg>