<svg width="24" height="24" viewBox="0 0 24 24" fill="none" xmlns="http://www.w3.org/2000/svg">
<path fill-rule="evenodd" clip-rule="evenodd" d="M11.9867 1.85938C16.9117 1.85938 21.0867 5.4592 21.8617 10.1592C22.2617 12.5342 21.8121 14.7846 20.7621 16.6846L21.4623 19.6592C21.8122 21.1841 20.3119 22.4844 19.0619 22.0596L15.4867 21.2344C13.5369 21.9343 11.4621 22.059 9.46231 21.5342C5.58739 20.5342 2.6124 17.2093 2.08731 13.2344C1.26232 7.08442 6.01179 1.85946 11.9867 1.85938ZM7.98672 10.8096C7.43679 10.8097 6.98672 11.2596 6.98672 11.8096C6.98693 12.3593 7.43692 12.8095 7.98672 12.8096C8.5366 12.8096 8.98652 12.3594 8.98672 11.8096C8.98672 11.2596 8.53673 10.8096 7.98672 10.8096ZM11.9867 10.8096C11.4368 10.8097 10.9867 11.2596 10.9867 11.8096C10.9869 12.3593 11.4369 12.8095 11.9867 12.8096C12.5366 12.8096 12.9865 12.3594 12.9867 11.8096C12.9867 11.2596 12.5367 10.8096 11.9867 10.8096ZM15.9867 10.8096C15.4368 10.8097 14.9867 11.2596 14.9867 11.8096C14.9869 12.3593 15.4369 12.8095 15.9867 12.8096C16.5366 12.8096 16.9865 12.3594 16.9867 11.8096C16.9867 11.2596 16.5367 10.8096 15.9867 10.8096Z" fill="#2A3546"/>
</svg>
