<svg width="24" height="24" viewBox="0 0 24 24" fill="none" xmlns="http://www.w3.org/2000/svg">
<path d="M19 8V6C19 3.8 17.225 2 15 2H9C6.8 2 5 3.8 5 6V8C3.9 8 3 8.9 3 10V20C3 21.1 3.9 22 5 22H19C20.125 22 21 21.1 21 20V10C21 8.9 20.125 8 19 8ZM7 6C7 4.9 7.9 4 9 4H15C16.1 4 17 4.9 17 6V8H7V6ZM19 20H5V10H19V20ZM11 15.725V17C11 17.55 11.45 18 12 18C12.55 18 13 17.55 13 17V15.725C13.6 15.375 14 14.75 14 14C14 12.9 13.125 12 12 12C10.9 12 10 12.9 10 14C10 14.75 10.425 15.375 11 15.725Z" fill="#2A3546"/>
</svg>
