<svg width="16" height="16" viewBox="0 0 16 16" fill="none" xmlns="http://www.w3.org/2000/svg">
<path fill-rule="evenodd" clip-rule="evenodd" d="M14 1C14.5523 1 15 1.44772 15 2V9.42871C14.9999 11.709 13.75 13.2712 12.3242 14.2715C10.9207 15.2561 9.27466 15.7582 8.20215 15.9795C8.06883 16.007 7.93117 16.007 7.79785 15.9795C6.72534 15.7582 5.07928 15.2561 3.67578 14.2715C2.25005 13.2712 1.00005 11.709 1 9.42871V2C1 1.44772 1.44772 1 2 1H14ZM7.29004 8.49805L5.71777 6.875L4.28223 8.26758L6.68164 10.7432C6.88711 10.9552 7.17621 11.0657 7.4707 11.0449C7.76512 11.024 8.03543 10.8745 8.20898 10.6357L11.8086 5.68359L10.1914 4.50684L7.29004 8.49805Z" fill="#2A3546"/>
</svg>
