<svg width="24" height="24" viewBox="0 0 24 24" fill="none" xmlns="http://www.w3.org/2000/svg">
<path d="M4.4 2C3.075 2 2 3.075 2 4.425C2 5.775 3.075 6.85 4.4 6.85C5.75 6.85 6.85 5.775 6.85 4.425C6.85 3.075 5.75 2 4.4 2ZM22 14.6C22 11.9 21.525 9.625 19.575 8.775C17.225 7.75 14.5 8.15 13.1 10.425V8.925C13.1 8.675 13.025 8.625 12.775 8.625H9.375C9.1 8.625 9.05 8.7 9.05 8.95V21.625C9.05 21.9 9.125 22 9.375 22H12.9C13.175 22 13.25 21.9 13.25 21.65V15.275C13.25 13.625 13.625 12.4 14.875 12.075C17.05 11.5 17.8 12.775 17.8 15.075V21.625C17.8 21.9 17.875 22 18.125 22H21.675C21.925 22 22 21.9 22 21.65V14.6ZM6.225 8.625H2.625C2.375 8.625 2.325 8.675 2.325 8.925V21.675C2.325 21.875 2.375 22 2.6 22H6.25C6.45 22 6.525 21.9 6.525 21.7V8.9C6.525 8.65 6.425 8.625 6.225 8.625Z" fill="#2A3546"/>
</svg>
