<svg width="24" height="24" viewBox="0 0 24 24" fill="none" xmlns="http://www.w3.org/2000/svg">
<path d="M21.5741 16.2241L15.5741 4.22415C14.8741 2.82415 13.4491 1.99915 11.9991 1.99915C10.4491 1.99915 8.99915 2.84915 8.29915 4.47415L2.42415 16.2241C2.17415 16.7491 1.99915 17.3491 1.99915 17.9991C1.99915 20.2241 3.79915 21.9991 5.99915 21.9991C7.57415 21.9991 8.92415 21.0991 9.57415 19.7991L11.9991 14.9741L14.4241 19.7991C15.3991 21.7491 17.8741 22.5741 19.7991 21.5741C21.7491 20.5491 22.5741 18.1991 21.5741 16.2241ZM19.7991 17.0991C20.2991 18.0991 19.8741 19.2741 18.8991 19.7991C18.0491 20.2491 16.7491 19.9491 16.2241 18.8991L10.1991 6.89915C9.69915 5.92415 10.1491 4.69915 11.1241 4.24915C12.1741 3.77415 13.2741 4.07415 13.7241 4.99915L19.7991 17.0991ZM9.34915 15.7991C8.92415 15.1741 8.34915 14.6741 7.67415 14.3741C6.94915 14.0491 6.57415 14.0241 5.77415 14.0241L8.64915 8.27415L10.8991 12.7241L9.34915 15.7991ZM5.99915 19.9991C4.89915 19.9991 3.99915 19.0991 3.99915 17.9991C3.99915 16.8991 4.89915 15.9991 5.99915 15.9991C7.09915 15.9991 7.99915 16.8991 7.99915 17.9991C7.99915 19.0991 7.09915 19.9991 5.99915 19.9991Z" fill="#2A3546"/>
</svg>
