<svg width="24" height="24" viewBox="0 0 24 24" fill="none" xmlns="http://www.w3.org/2000/svg">
<path d="M13.0125 8.8678C14.6625 8.8678 16.0125 7.5178 16.0125 5.8678C16.0125 4.1928 14.6625 2.8678 13.0125 2.8678C11.3375 2.8678 10.0125 4.1928 10.0125 5.8678C10.0125 7.5178 11.3375 8.8678 13.0125 8.8678ZM13.0125 4.8678C13.5625 4.8678 14.0125 5.2928 14.0125 5.8678C14.0125 6.4178 13.5625 6.8678 13.0125 6.8678C12.4375 6.8678 12.0125 6.4178 12.0125 5.8678C12.0125 5.2928 12.4375 4.8678 13.0125 4.8678ZM16.2125 17.8928L14.8875 18.0428L15.4875 11.7178C15.5625 11.1178 15.3375 10.5178 14.8875 10.0928C14.4125 9.6928 13.8125 9.5428 13.1375 9.7178L7.53748 11.5428L8.13748 13.4428L9.21248 13.0928L8.56248 19.0678C8.48748 19.6678 8.71248 20.2678 9.16247 20.6928C9.61247 21.1178 10.2125 21.1928 10.8625 21.0928L13.9875 20.1678L16.4625 19.8678L16.2125 17.8928ZM10.5625 19.0928L11.3125 12.4178L13.4875 11.6928L12.8375 18.4428L10.5625 19.0928Z" fill="#2A3546"/>
</svg>
