<svg width="17" height="16" viewBox="0 0 17 16" fill="none" xmlns="http://www.w3.org/2000/svg">
<path d="M4.5 0C5.32843 0 6 0.671573 6 1.5V2H10V1.5C10 0.671573 10.6716 0 11.5 0C12.3284 0 13 0.671573 13 1.5V2H14C15.1046 2 16 2.89543 16 4V7.00584H14V5H2V14H5V16H2C0.89543 16 0 15.1046 0 14V4C0 2.89543 0.895431 2 2 2H3V1.5C3 0.671573 3.67157 0 4.5 0Z" fill="#2A3546"/>
<path d="M10.4746 7.23212C10.6865 6.59214 11.5917 6.59214 11.8036 7.23212L12.4137 9.07468C12.5492 9.484 12.9318 9.76037 13.363 9.76037H15.3125C15.9938 9.76037 16.2736 10.6348 15.7189 11.0303L14.1694 12.1351C13.8123 12.3897 13.6628 12.8473 13.8006 13.2636L14.3971 15.0651C14.6098 15.7077 13.8773 16.248 13.3261 15.8551L11.7197 14.7096C11.3723 14.4619 10.906 14.4619 10.5586 14.7096L8.95208 15.8551C8.40092 16.248 7.66842 15.7077 7.88118 15.0651L8.47761 13.2636C8.61546 12.8473 8.46594 12.3897 8.10884 12.1351L6.55937 11.0303C6.00464 10.6348 6.28446 9.76037 6.96575 9.76037H8.91522C9.34639 9.76037 9.72902 9.484 9.86454 9.07468L10.4746 7.23212Z" fill="#2A3546"/>
</svg>
