<svg width="16" height="16" viewBox="0 0 16 16" fill="none" xmlns="http://www.w3.org/2000/svg">
<path fill-rule="evenodd" clip-rule="evenodd" d="M9.56641 2.2168C10.0664 2.35012 10.55 2.54977 11 2.81641L12.9502 1.63379L14.3662 3.0498L13.2002 5C13.4668 5.44998 13.6665 5.93356 13.7998 6.4502L16 7V9L13.7998 9.5498C13.6665 10.0664 13.4668 10.55 13.2002 11L14.3662 12.9502L12.9502 14.3662L11 13.2002C10.55 13.4502 10.0664 13.6498 9.56641 13.7998L9 16H7L6.4502 13.7998C5.95021 13.6498 5.46659 13.4502 5.0166 13.2002L3.0498 14.3662L1.65039 12.9502L2.81641 11C2.54977 10.55 2.35012 10.0664 2.2168 9.5498L0 9V7L2.2168 6.4502C2.35012 5.93357 2.54977 5.44997 2.81641 5L1.65039 3.0498L3.0498 1.63379L5.0166 2.81641C5.46658 2.54976 5.95022 2.35012 6.4502 2.2168L7 0H9L9.56641 2.2168ZM8 6C6.9 6 6 6.9 6 8C6 9.1 6.9 10 8 10C9.11667 10 10 9.1 10 8C10 6.9 9.11667 6 8 6Z" fill="#2A3546"/>
</svg>
