<svg width="24" height="25" viewBox="0 0 24 25" fill="none" xmlns="http://www.w3.org/2000/svg">
<path fill-rule="evenodd" clip-rule="evenodd" d="M17.4454 18.282C19.4926 16.2459 21 13.7906 21 11C21 6.60457 17.3954 2.5 12 2.5C6.60457 2.5 3 6.60457 3 11C3 13.7906 4.50736 16.2459 6.5546 18.282C8.51556 20.2323 10.7765 21.5972 12 22.2579C13.2235 21.5972 15.4844 20.2323 17.4454 18.282ZM12.8074 24.0942C15.3462 22.7452 23 18.0902 23 11C23 5.5 18.5 0.5 12 0.5C5.5 0.5 1 5.5 1 11C1 18.0902 8.65381 22.7452 11.1926 24.0942C11.7027 24.3653 12.2973 24.3653 12.8074 24.0942Z" fill="#2A3546"/>
<path fill-rule="evenodd" clip-rule="evenodd" d="M6.10557 6.05279C6.27496 5.71401 6.62122 5.5 6.99999 5.5H11C11.2652 5.5 11.5196 5.60536 11.7071 5.79289C11.8946 5.98043 12 6.23478 12 6.5V8.5C12 8.51153 12.0001 8.52499 12.0003 8.54021C12.0023 8.73822 12.0073 9.23399 11.7557 9.66427C11.6322 9.87554 11.4839 10.0468 11.3757 10.166C11.3374 10.2081 11.2953 10.2532 11.26 10.291C11.2466 10.3053 11.2342 10.3185 11.2234 10.3301C11.1988 10.3567 11.1778 10.3795 11.1595 10.4C11.4911 11.2947 12.3082 11.9792 13.1318 12.3056C13.1543 12.2856 13.1774 12.2644 13.205 12.239C13.2401 12.2068 13.2825 12.1678 13.3404 12.1161C13.4581 12.0109 13.6276 11.8659 13.8357 11.7443C14.266 11.4927 14.7618 11.4977 14.9598 11.4997C14.975 11.4999 14.9885 11.5 15 11.5H17C17.5523 11.5 18 11.9477 18 12.5V16.5C18 16.8788 17.786 17.225 17.4472 17.3944L15.4472 18.3944C15.3084 18.4639 15.1552 18.5 15 18.5C10.5979 18.5 5 15.1914 5 8.5C5 8.34475 5.03615 8.19164 5.10558 8.05278L6.10557 6.05279ZM7.61803 7.5L7.00279 8.73049C7.12548 13.7761 11.2711 16.3869 14.7711 16.4964L16 15.882V13.5H15C14.938 13.5 14.893 13.5001 14.8512 13.5013C14.8287 13.5019 14.8109 13.5028 14.7967 13.5038C14.7673 13.526 14.7277 13.5586 14.6729 13.6075C14.657 13.6217 14.6356 13.6414 14.6104 13.6644C14.5339 13.7344 14.423 13.8358 14.3287 13.9125C14.0507 14.1384 13.4738 14.5279 12.7092 14.2784C11.3225 13.8259 9.70802 12.6314 9.17514 10.762C8.95604 9.99335 9.36371 9.42691 9.58742 9.16042C9.66105 9.07269 9.76279 8.96365 9.83342 8.88795C9.85912 8.86041 9.8807 8.83728 9.89531 8.82119C9.94304 8.76865 9.97483 8.7306 9.99625 8.70259C9.99722 8.68854 9.9981 8.67093 9.99873 8.64884C9.99993 8.607 10 8.56199 10 8.5V7.5H7.61803Z" fill="#2A3546"/>
</svg>
