<svg width="16" height="16" viewBox="0 0 16 16" fill="none" xmlns="http://www.w3.org/2000/svg">
<path d="M8.99898 1.54812C9.35881 1.12274 9.94532 0.917884 10.4838 1.03055C10.8206 1.09656 11.1333 1.27984 11.3627 1.54112C11.593 1.7952 11.7729 2.09705 11.8873 2.42342C12.1217 3.08353 12.0759 3.84284 11.7576 4.4657C11.5798 4.83835 11.3967 5.20842 11.2162 5.57978C11.7218 5.58107 12.2275 5.57867 12.7331 5.58107C13.2356 5.58365 13.7352 5.76306 14.1287 6.08371C14.636 6.49121 14.9611 7.12477 15 7.78451V8.05464C14.9903 8.20916 14.9687 8.36331 14.9297 8.51321C14.618 9.71174 14.3061 10.9103 13.9945 12.109C13.9011 12.4565 13.8289 12.8141 13.6704 13.1388C13.4333 13.6532 13.0629 14.1024 12.6071 14.4273C12.1748 14.7376 11.6673 14.9358 11.1432 15H6.46615C6.05649 14.9469 5.65762 14.7998 5.31237 14.5672C5.18175 14.7846 4.96531 14.9463 4.72117 15H1.72255C1.39781 14.9297 1.12344 14.6652 1.03528 14.3373C0.988323 14.1819 1.00254 14.0179 1.00056 13.8579C1.00038 11.2637 1.00056 8.66958 1.00038 6.07541C0.999837 5.86798 1.07144 5.66202 1.19612 5.49902C1.36308 5.27886 1.62918 5.14075 1.90174 5.13761C2.77774 5.13743 3.65392 5.13761 4.52992 5.13761C4.78756 5.13706 5.04106 5.25673 5.2118 5.45384C5.79112 5.05077 6.32402 4.57781 6.79899 4.05083C7.53286 3.21684 8.26547 2.38211 8.99898 1.54812ZM8.19836 5.28254C7.41808 6.15876 6.5034 6.91014 5.49678 7.49631C5.47825 7.51088 5.43975 7.51715 5.44442 7.54849C5.44388 9.12649 5.44496 10.7045 5.44388 12.2825C5.73139 12.5139 6.02051 12.7431 6.30801 12.9743C6.38951 13.0407 6.48918 13.0783 6.58868 13.1058C6.72127 13.1419 6.85909 13.1318 6.99474 13.1331C8.25396 13.1329 9.51317 13.1334 10.7724 13.1327C11.2414 13.1323 11.6989 12.8663 11.9382 12.4525C12.0154 12.3218 12.0706 12.1781 12.1048 12.0295C12.4353 10.7596 12.7658 9.48955 13.096 8.21948C13.1143 8.1437 13.1386 8.06921 13.1516 7.99213C13.1755 7.83356 13.1098 7.6654 12.9853 7.56822C12.9 7.49557 12.7869 7.46736 12.6779 7.46994C11.6887 7.47013 10.6995 7.46994 9.71054 7.47013C9.42016 7.47031 9.13733 7.31506 8.97127 7.07203C8.81619 6.8504 8.76311 6.55814 8.82968 6.2941C8.86009 6.16687 8.92449 6.05273 8.98027 5.9362C9.3624 5.15347 9.74382 4.37037 10.1261 3.58783C10.2037 3.42446 10.2116 3.22938 10.1511 3.059C9.50022 3.80006 8.84929 4.54149 8.19836 5.28254ZM2.84413 13.1331C3.09601 13.1329 3.34789 13.1333 3.59977 13.1329C3.60067 11.0978 3.60013 9.06269 3.59995 7.0276C3.34825 7.02723 3.09637 7.02796 2.84467 7.02723C2.84413 9.06251 2.84521 11.0978 2.84413 13.1331Z" fill="#8699B6"/>
</svg>
