<svg width="24" height="24" viewBox="0 0 24 24" fill="none" xmlns="http://www.w3.org/2000/svg">
<path fill-rule="evenodd" clip-rule="evenodd" d="M7.40914 2.5L7.40914 3H16.4091L16.4091 2.5C16.4091 1.67157 17.0807 1 17.9091 1C18.7376 1 19.4091 1.67157 19.4091 2.5L19.4091 3H20.4091C21.5137 3 22.4091 3.89543 22.4091 5V12H20.4091V9H3.40912V21H9.40912V23H3.40912C2.30455 23 1.40912 22.1046 1.40912 21V5C1.40912 3.89543 2.30455 3 3.40912 3H4.40914L4.40914 2.5C4.40914 1.67157 5.08072 1 5.90914 1C6.73757 1 7.40914 1.67157 7.40914 2.5ZM3.40912 5L20.4091 5V7H3.40912V5Z" fill="#2A3546"/>
<path fill-rule="evenodd" clip-rule="evenodd" d="M17.2759 11.7399C16.767 10.1737 14.5512 10.1737 14.0423 11.7399L13.3048 14.0096H10.9183C9.27151 14.0096 8.58678 16.117 9.9191 17.085L11.8498 18.4877L11.1124 20.7574C10.6035 22.3236 12.3961 23.6261 13.7284 22.6581L15.6591 21.2553L17.5898 22.6581C18.9222 23.6261 20.7148 22.3237 20.2059 20.7574L19.4684 18.4877L21.3991 17.085C22.7314 16.117 22.0467 14.0096 20.3999 14.0096H18.0134L17.2759 11.7399ZM15.1396 14.835L15.6591 13.2361L16.1786 14.835C16.4062 15.5354 17.0589 16.0096 17.7954 16.0096H19.4766L18.1165 16.9978C17.5207 17.4307 17.2714 18.198 17.4989 18.8985L18.0184 20.4973L16.6584 19.5092C16.0625 19.0763 15.2557 19.0763 14.6599 19.5092L13.2998 20.4973L13.8193 18.8985C14.0469 18.198 13.7976 17.4307 13.2017 16.9978L11.8416 16.0096H13.5228C14.2593 16.0096 14.912 15.5354 15.1396 14.835Z" fill="#2A3546"/>
</svg>
