<svg width="16" height="16" viewBox="0 0 16 16" fill="none" xmlns="http://www.w3.org/2000/svg">
<path d="M14 10V9.01667C14 7.91667 13.1 7.01667 12 7.01667H9V6C10.1 5.98333 10.9833 5.1 10.9833 4V2C10.9833 0.900001 10.0833 0 8.98333 0H6.98333C5.86667 0 4.98333 0.900001 4.98333 2V4C4.98333 5.1 5.86667 6 6.98333 6H7V7.01667H4C2.9 7.01667 2 7.91667 2 9.01667V10C0.9 10 0 10.9 0 12V14C0 15.1 0.9 16 2 16H4C5.1 16 6 15.1 6 14V12C6 10.9 5.1 10 4 10V9.01667H12V10C10.9 10 10 10.9 10 12V14C10 15.1 10.9 16 12 16H14C15.1 16 16 15.1 16 14V12C16 10.9 15.1 10 14 10ZM6.98333 2H8.98333V4H6.98333V2ZM2 14V12.0167H4V14H2ZM12 14V12.0167H14V14H12Z" fill="#2A3546"/>
</svg>
