<svg width="18" height="16" viewBox="0 0 18 16" fill="none" xmlns="http://www.w3.org/2000/svg">
<path d="M16.9936 6.83333L15.9936 0.833334C15.9102 0.35 15.4936 0 14.9936 0H2.99357C2.51024 0 2.09357 0.35 2.01024 0.833334L1.01024 6.86667C0.876905 7.86667 1.29357 8.76667 2.04357 9.35V14C2.04357 15.1 2.94357 16 4.04357 16H14.0436C15.1436 16 16.0436 15.1 16.0436 14V9.26667C16.7269 8.68333 17.1102 7.81667 16.9936 6.83333ZM3.84357 2H5.87691L5.24357 7.18333C5.16024 7.65 4.77691 8.13333 3.86024 8.01667C3.39357 7.95 2.92691 7.63333 2.99357 7.16667L3.84357 2ZM7.52691 6.2L7.91024 2H10.1102L10.5602 6.2C10.6436 6.65 10.5102 7.11667 10.2269 7.45C9.62691 8.15 8.46024 8.15 7.86024 7.45C7.57691 7.11667 7.44357 6.65 7.52691 6.2ZM14.1602 2L15.0102 7.11667C15.0769 7.63333 14.5936 7.95 14.1269 8.01667C13.2436 8.13333 12.8436 7.65 12.7602 7.2L12.1269 2H14.1602ZM4.04357 14V10.0167C5.02691 10.0167 5.86024 9.76667 6.54357 8.93333C7.21024 9.6 8.09357 10 9.04357 10C9.96024 10 10.8269 9.63333 11.4936 9C12.2102 9.8 12.9936 10.0167 14.0436 10.0167V14H4.04357Z" fill="#2A3546"/>
</svg>
