<svg width="16" height="16" viewBox="0 0 16 16" fill="none" xmlns="http://www.w3.org/2000/svg">
<path d="M5 4C5 4.55228 4.55228 5 4 5C3.44772 5 3 4.55228 3 4C3 3.44772 3.44772 3 4 3C4.55228 3 5 3.44772 5 4Z" fill="#2A3546"/>
<path fill-rule="evenodd" clip-rule="evenodd" d="M0 2C0 0.895431 0.89543 0 2 0H10C11.1046 0 12 0.89543 12 2V10C12 11.1046 11.1046 12 10 12H2C0.895431 12 0 11.1046 0 10V2ZM10 2L2 2V6H4.62426L7.77007 3.24742C8.13064 2.93192 8.66432 2.9165 9.04251 3.21065L10 3.95536V2ZM9.37118 6L8.46603 5.29599L7.66145 6H9.37118ZM2 10V8H10V10H2Z" fill="#2A3546"/>
<path d="M3 14V13H5V14H14V6H13V4H14C15.1046 4 16 4.89543 16 6V14C16 15.1046 15.1046 16 14 16H5C3.89543 16 3 15.1046 3 14Z" fill="#2A3546"/>
</svg>
