<svg width="16" height="17" viewBox="0 0 16 17" fill="none" xmlns="http://www.w3.org/2000/svg">
<path d="M6.28867 4.224C6.02529 4.12118 5.72613 4.12669 5.48366 4.27214C4.92165 4.60926 4.37499 5.16318 4.37499 6.5625C4.37499 7.5625 4.74218 8.47656 5.87499 9.60938C7.05468 10.7891 8.17187 11.1094 9.17187 11.1094C10.5284 11.1094 11.0904 10.5957 11.4306 10.0523C11.599 9.7833 11.5869 9.44252 11.4429 9.15974L11.1863 8.65566C11.0156 8.32046 10.6713 8.10938 10.2952 8.10938H10.0625C9.69651 8.10938 9.35972 8.30936 9.18453 8.63075L9.16311 8.67004C8.98792 8.99142 8.64334 9.21933 8.29217 9.11608C7.98009 9.02431 7.59289 8.82109 7.14324 8.37144C6.72524 7.95344 6.51216 7.60574 6.40398 7.32144C6.26531 6.95704 6.52045 6.59088 6.87438 6.42734L6.98196 6.37763C7.33589 6.21408 7.56249 5.85975 7.56249 5.46986V5.40441C7.56249 4.99247 7.30989 4.62269 6.92616 4.47288L6.28867 4.224Z" fill="#2A3546"/>
<path fill-rule="evenodd" clip-rule="evenodd" d="M15.5 7.5C15.5 13.5 8.01231 16.5 8.01231 16.5C8.01231 16.5 0.5 13.5 0.5 7.5C0.5 3.5 3.5857 0.5 8.01231 0.5C12.4389 0.5 15.5 3.5 15.5 7.5ZM13.5 7.5C13.5 9.60497 12.1869 11.342 10.5055 12.6893C9.69114 13.3418 8.866 13.839 8.23988 14.1734C8.15969 14.2163 8.08318 14.2562 8.01082 14.2933C7.93748 14.2559 7.85987 14.2155 7.77849 14.1722C7.14996 13.8375 6.32171 13.3401 5.5043 12.6873C3.81594 11.3388 2.5 9.60213 2.5 7.5C2.5 4.71242 4.57924 2.5 8.01231 2.5C11.4364 2.5 13.5 4.7039 13.5 7.5Z" fill="#2A3546"/>
</svg>
