<svg width="24" height="24" viewBox="0 0 24 24" fill="none" xmlns="http://www.w3.org/2000/svg">
<path d="M21.9299 7.87498C21.7549 4.32498 19.8549 2.24998 16.1299 2.07498C15.0299 2.02498 8.95493 2.02498 7.87993 2.07498C4.15493 2.24998 2.25493 4.27498 2.07993 7.87498C2.02993 8.94998 2.00493 15.025 2.07993 16.125C2.32993 19.775 4.22993 21.75 7.87993 21.925C8.95493 21.975 15.0299 21.975 16.1299 21.925C19.7549 21.75 21.7549 19.75 21.9299 16.125C21.9799 15.025 21.9799 8.94998 21.9299 7.87498ZM20.1299 16.025C20.0549 18.7 18.7799 20 16.0299 20.125C14.9799 20.175 9.02993 20.15 7.95493 20.125C5.35493 20.075 3.92993 18.8 3.85493 16.025C3.82993 15 3.82993 9.02498 3.85493 7.94998C3.90493 5.34998 5.20493 3.99998 7.95493 3.87497C9.02993 3.82498 14.9799 3.82498 16.0299 3.87497C18.8049 3.99998 20.0049 5.24998 20.1299 7.94998C20.1799 9.02498 20.1549 15 20.1299 16.025ZM17.3299 5.44998C16.7299 5.44998 16.1299 6.02497 16.1299 6.64998C16.1299 7.34998 16.6549 7.87498 17.3299 7.87498C17.9799 7.87498 18.5299 7.34998 18.5299 6.64998C18.5299 5.99998 17.9799 5.44998 17.3299 5.44998ZM12.0049 6.87498C9.17993 6.87498 6.85493 9.14998 6.85493 11.975C6.85493 14.85 9.17993 17.125 12.0049 17.125C14.8549 17.125 17.1049 14.85 17.1049 11.975C17.1049 9.14998 14.8549 6.87498 12.0049 6.87498ZM12.0049 15.325C10.1549 15.325 8.65493 13.85 8.65493 11.975C8.65493 10.15 10.1549 8.64998 12.0049 8.64998C13.8299 8.64998 15.3299 10.15 15.3299 11.975C15.3299 13.85 13.8299 15.325 12.0049 15.325Z" fill="#2A3546"/>
</svg>
