<svg width="24" height="24" viewBox="0 0 24 24" fill="none" xmlns="http://www.w3.org/2000/svg">
<path d="M4 4H10V8C10 9.1 10.875 10 12 10H16V11H18V8L12 2H4C2.875 2 2 2.9 2 4V20C2 21.1 2.875 22 4 22H7V20H4V4ZM14.5 12C8.45 12 6.85 16.925 7 17C7 17 8.5 22 14.5 22C20.5 22 22 17 22 17C22 17 20.5 12 14.5 12ZM14.5 20C11.125 20 9.675 18.05 9.15 17C9.675 16 11.15 14 14.5 14C17.85 14 19.3 15.975 19.825 17C19.3 18 17.85 20 14.5 20ZM14.5 15C13.375 15 12.5 15.9 12.5 17C12.5 18.1 13.375 19 14.5 19C15.6 19 16.5 18.1 16.5 17C16.5 15.9 15.6 15 14.5 15Z" fill="#2A3546"/>
</svg>
