<svg width="24" height="24" viewBox="0 0 24 24" fill="none" xmlns="http://www.w3.org/2000/svg">
<g id="pictogram-directions">
<path id="picto-vector" fill-rule="evenodd" clip-rule="evenodd" d="M10.2102 2.7418C11.1994 1.75263 12.8007 1.75281 13.7898 2.74176L21.2581 10.2101C21.2582 10.2101 21.2581 10.2101 21.2581 10.2101C22.2473 11.1992 22.2472 12.8008 21.2582 13.7899C21.2582 13.7899 21.2582 13.7898 21.2582 13.7899L13.7898 21.2582C12.8006 22.2474 11.1993 22.2472 10.2102 21.2582L2.74183 13.7899C2.74183 13.7899 2.74184 13.7899 2.74183 13.7899C1.75272 12.8008 1.75272 11.1992 2.74181 10.2101C2.74181 10.2101 2.7418 10.2101 2.74181 10.2101L10.2102 2.7418ZM11.6243 4.15604L4.15602 11.6244C3.948 11.8324 3.94798 12.1676 4.15601 12.3756L11.6243 19.8439C11.6243 19.8439 11.6243 19.8439 11.6243 19.8439C11.8324 20.052 12.1676 20.052 12.3756 19.844C12.3756 19.844 12.3756 19.844 12.3756 19.844L19.844 12.3756C20.052 12.1676 20.052 11.8324 19.844 11.6244L12.3757 4.15606C12.3756 4.15605 12.3757 4.15608 12.3757 4.15606C12.1675 3.948 11.8324 3.94799 11.6243 4.15604ZM13.2929 8.29289C13.6834 7.90237 14.3166 7.90237 14.7071 8.29289L16.7071 10.2929C17.0976 10.6834 17.0976 11.3166 16.7071 11.7071L14.7071 13.7071C14.3166 14.0976 13.6834 14.0976 13.2929 13.7071C12.9024 13.3166 12.9024 12.6834 13.2929 12.2929L13.5858 12H11C10.4477 12 10 12.4477 10 13V14C10 14.5523 9.55228 15 9 15C8.44771 15 8 14.5523 8 14V13C8 11.3431 9.34314 10 11 10H13.5858L13.2929 9.70711C12.9024 9.31658 12.9024 8.68342 13.2929 8.29289Z" fill="#2A3546"/>
</g>
</svg>
