<svg width="16" height="16" viewBox="0 0 16 16" fill="none" xmlns="http://www.w3.org/2000/svg">
<path d="M9 11C9 10.4477 8.55228 10 8 10C7.44772 10 7 10.4477 7 11C7 11.5523 7.44772 12 8 12C8.55228 12 9 11.5523 9 11Z" fill="#2A3546"/>
<path fill-rule="evenodd" clip-rule="evenodd" d="M8 3C7.51863 3 7.07698 3.17006 6.73185 3.45338C6.30462 3.8041 5.72906 4.08313 5.21681 3.87545V3.87545C4.70528 3.66806 4.44996 3.07451 4.77732 2.6301C5.50558 1.64144 6.67788 1 8 1C10.2091 1 12 2.79086 12 5V7C13.1046 7 14 7.89543 14 9V13C14 14.1046 13.1046 15 12 15H4C2.89543 15 2 14.1046 2 13V9C2 7.89543 2.89543 7 4 7L10 7V5C10 3.89543 9.10457 3 8 3ZM4 13V9H12V13H4Z" fill="#2A3546"/>
<path fill-rule="evenodd" clip-rule="evenodd" d="M8 10C8.55228 10 9 10.4477 9 11C9 11.5523 8.55228 12 8 12C7.44772 12 7 11.5523 7 11C7 10.4477 7.44772 10 8 10Z" fill="#2A3546"/>
</svg>
