<svg width="24" height="24" viewBox="0 0 24 24" fill="none" xmlns="http://www.w3.org/2000/svg">
<path fill-rule="evenodd" clip-rule="evenodd" d="M11.8318 2.8229C12.1783 2.83328 12.4946 3.0223 12.6679 3.32245L19.4254 15.0268C19.5987 15.3269 19.6042 15.6954 19.44 16.0006C19.2758 16.3058 18.9652 16.5042 18.6193 16.525L9.90495 17.048C10.1512 17.4197 10.414 17.7855 10.6878 18.1247C11.2252 18.7903 11.7566 19.2925 12.238 19.5632C12.5511 19.7393 12.7458 20.0698 12.7478 20.4291C12.7498 20.7884 12.559 21.1212 12.2478 21.3008L9.24046 23.0371C8.93457 23.2137 8.55821 23.2159 8.25033 23.0427C7.43337 22.5834 6.72958 21.8316 6.14912 21.0737C5.77219 20.5815 5.42347 20.0547 5.10903 19.5448C4.20284 19.902 3.14749 19.5519 2.64579 18.683L1.11173 16.0259C0.559443 15.0693 0.887194 13.8461 1.84378 13.2938L5.89395 10.9555L10.9674 3.27146C11.1583 2.98223 11.4854 2.81251 11.8318 2.8229ZM6.8535 18.563L8.05386 17.87C8.37883 18.3789 8.74129 18.8974 9.13167 19.381C9.38978 19.7007 9.66903 20.0164 9.96683 20.3084L8.78696 20.9896C8.4492 20.7106 8.09631 20.3268 7.73695 19.8576C7.42647 19.4522 7.131 19.0097 6.8535 18.563ZM11.7449 5.72371L7.56297 12.0575C7.3919 12.3166 7.16284 12.5323 6.89395 12.6875L2.84378 15.0259L4.37784 17.683L8.42801 15.3446C8.6969 15.1894 8.99824 15.0988 9.30818 15.0802L16.8843 14.6255L11.7449 5.72371Z" fill="#2A3546"/>
<path d="M17.4548 3.81602C17.8057 3.38952 17.7444 2.75933 17.3179 2.40845C16.8914 2.05757 16.2612 2.11887 15.9103 2.54537L14.8515 3.8324C14.5006 4.2589 14.5619 4.88909 14.9884 5.23997C15.4149 5.59085 16.0451 5.52955 16.396 5.10305L17.4548 3.81602Z" fill="#2A3546"/>
<path d="M17.2985 7.2972C16.8202 7.57334 16.6563 8.18493 16.9324 8.66322C17.2086 9.14151 17.8202 9.30539 18.2985 9.02925L20.8013 7.58423C21.2796 7.30809 21.4435 6.6965 21.1673 6.21821C20.8912 5.73991 20.2796 5.57604 19.8013 5.85218L17.2985 7.2972Z" fill="#2A3546"/>
<path d="M19.7556 10.9065C19.2108 10.9972 18.8426 11.5123 18.9332 12.0571C19.0238 12.6019 19.5389 12.97 20.0837 12.8794L21.8499 12.5856C22.3947 12.495 22.7628 11.9799 22.6722 11.4351C22.5816 10.8903 22.0665 10.5221 21.5217 10.6128L19.7556 10.9065Z" fill="#2A3546"/>
</svg>
