<svg width="16" height="16" viewBox="0 0 16 16" fill="none" xmlns="http://www.w3.org/2000/svg">
<path d="M5.39166 13.6667C10.675 13.6667 13.5417 9.30004 13.5417 5.51671C13.5417 5.40004 13.5417 5.26671 13.525 5.15004C14.0917 4.75004 14.575 4.23337 14.975 3.66671C14.4417 3.90004 13.8917 4.05004 13.3083 4.11671C13.9083 3.76671 14.3583 3.20004 14.575 2.53337C14.025 2.86671 13.4083 3.10004 12.7583 3.23337C12.2417 2.66671 11.4917 2.33337 10.675 2.33337C9.09166 2.33337 7.80833 3.61671 7.80833 5.18337C7.80833 5.41671 7.84166 5.63337 7.87499 5.83337C5.50833 5.71671 3.40833 4.58337 1.99166 2.86671C1.74166 3.28337 1.60833 3.76671 1.60833 4.30004C1.60833 5.28337 2.10833 6.15004 2.87499 6.68337C2.40833 6.66671 1.97499 6.53337 1.57499 6.31671V6.35004C1.57499 7.73337 2.55833 8.88337 3.87499 9.15004C3.55833 9.25004 3.02499 9.28337 2.57499 9.20004C2.94166 10.3334 4.00833 11.1667 5.25833 11.2C4.07499 12.1167 2.49166 12.5667 1.02499 12.3667C2.29166 13.1834 3.79166 13.6667 5.39166 13.6667Z" fill="#2A3546"/>
</svg>
