<svg width="10" height="14" viewBox="0 0 10 14" fill="none" xmlns="http://www.w3.org/2000/svg">
<path fill-rule="evenodd" clip-rule="evenodd" d="M7.5 4.49999C7.50001 3.16794 6.34089 1.99999 5.00001 2C3.6628 2.00001 2.5 3.15123 2.5 4.5H0.5C0.5 2.03987 2.56502 1.66426e-05 4.99999 1.02602e-10C7.45061 -1.68205e-05 9.50002 2.06854 9.5 4.50001C9.49999 6.39469 8.2876 8.0211 6.64224 8.68147C6.32785 8.80765 6.20939 8.95141 6.14213 9.08436C6.05659 9.25346 6 9.51774 6 9.95708V11H4L4 9.95708C4 9.3915 4.06486 8.76003 4.35748 8.18157C4.6684 7.56696 5.18481 7.11134 5.8973 6.82539C6.83332 6.44971 7.49999 5.52635 7.5 4.49999Z" fill="white"/>
<path d="M6 13C6 13.5523 5.55229 14 5 14C4.44772 14 4 13.5523 4 13C4 12.4477 4.44772 12 5 12C5.55229 12 6 12.4477 6 13Z" fill="white"/>
</svg>
