<svg width="24" height="24" viewBox="0 0 24 24" fill="none" xmlns="http://www.w3.org/2000/svg">
<path d="M12 5.98748H12.1L11.3 6.78748L12.7 8.21248L15.925 4.98748L12.7 1.78748L11.3 3.21248L12.1 3.98747H12C7.575 3.98747 4 7.58748 4 11.9875C4 14.2125 4.9 16.2125 6.35 17.6625L7.75 16.2375C6.625 15.1125 6 13.6125 6 11.9875C6 8.68748 8.7 5.98748 12 5.98748ZM20 11.9875C20 9.78748 19.1 7.78748 17.65 6.33748L16.25 7.76248C17.375 8.88748 18 10.3875 18 11.9875C18 15.1625 15.55 17.7625 12.45 17.9875L13.2 17.2125L11.8 15.7875L8.6 18.9875L11.8 22.2125L13.2 20.7875L12.4 19.9875C16.625 19.7625 20 16.2875 20 11.9875Z" fill="#2A3546"/>
</svg>
