<svg width="16" height="16" viewBox="0 0 16 16" fill="none" xmlns="http://www.w3.org/2000/svg">
<path d="M8.00828 0C5.02494 0 2.60828 2.4 2.60828 5.38333C2.60828 10 8.00828 16 8.00828 16C8.00828 16 13.3916 10 13.3916 5.38333C13.3916 2.4 10.9916 0 8.00828 0ZM8.00828 12.8C6.47494 10.7167 4.60828 7.66667 4.60828 5.38333C4.60828 3.51667 6.14161 2 8.00828 2C9.87494 2 11.3916 3.51667 11.3916 5.38333C11.3916 7.66667 9.54161 10.7167 8.00828 12.8ZM8.00828 4C7.17494 4 6.50828 4.66667 6.50828 5.5C6.50828 6.31667 7.17494 7 8.00828 7C8.84161 7 9.50828 6.31667 9.50828 5.5C9.50828 4.66667 8.84161 4 8.00828 4Z" fill="#2A3546"/>
</svg>
