<svg width="24" height="24" viewBox="0 0 24 24" fill="none" xmlns="http://www.w3.org/2000/svg">
<path d="M22 11H19.925C19.475 7.4 16.625 4.525 13 4.075V2H11V4.075C7.375 4.525 4.525 7.4 4.075 11H2V13H4.075C4.525 16.625 7.375 19.475 11 19.95V22H13V19.95C16.625 19.475 19.475 16.625 19.925 13H22V11ZM12 18C8.7 18 6 15.325 6 12C6 8.7 8.7 6 12 6C15.3 6 18 8.7 18 12C18 15.325 15.3 18 12 18ZM12 8C9.775 8 8 9.8 8 12C8 14.225 9.775 16 12 16C14.2 16 16 14.225 16 12C16 9.8 14.2 8 12 8ZM12 14C10.9 14 10 13.1 10 12C10 10.9 10.9 10 12 10C13.1 10 14 10.9 14 12C14 13.1 13.1 14 12 14Z" fill="#2A3546"/>
</svg>
