<svg width="16" height="16" viewBox="0 0 16 16" fill="none" xmlns="http://www.w3.org/2000/svg">
<path d="M9.26667 0.506201C8.55 -0.110466 7.45 -0.110466 6.73333 0.506201L0.8 5.3562C0.3 5.73953 0 6.32287 0 6.9562V13.9562C0 15.0729 0.9 15.9562 2 15.9562H6V10.9562C6 10.4062 6.45 9.9562 7 9.9562H9C9.55 9.9562 10 10.4062 10 10.9562V15.9562H14C15.1 15.9562 16 15.0729 16 13.9562V6.9562C16 6.32287 15.7 5.73953 15.2 5.3562L9.26667 0.506201ZM8 2.03954L14 6.9562V13.9562H12V10.9562C12 9.3062 10.65 7.9562 9 7.9562H7C5.33333 7.9562 4 9.32287 4 10.9562V13.9562H2V6.9562L8 2.03954Z" fill="#2A3546"/>
</svg>
