<svg width="24" height="24" viewBox="0 0 24 24" fill="none" xmlns="http://www.w3.org/2000/svg">
<path d="M22 1.5H8C6.9 1.5 6 2.4 6 3.5V5.025C2.5 6.25 0 9.575 0 13.5C0 18.475 4.025 22.5 9 22.5C10.475 22.5 11.875 22.125 13.1 21.5H22C23.1 21.5 24 20.6 24 19.5V3.5C24 2.4 23.1 1.5 22 1.5ZM22 7.5H15.7C14.05 5.675 11.65 4.5 9 4.5C8.65 4.5 8.325 4.525 8 4.55V3.5H22V7.5ZM2 13.5C2 9.65 5.15 6.5 9 6.5C12.85 6.5 16 9.65 16 13.5C16 17.35 12.85 20.5 9 20.5C5.15 20.5 2 17.35 2 13.5ZM12 16.5H10V9.5H8L6 11.5H8V16.5H6V18.5H12V16.5ZM22 13.5H18C18 12.05 17.65 10.7 17.05 9.5H22V13.5ZM22 19.5H15.7C16.7 18.375 17.425 17.025 17.775 15.5H22V19.5Z" fill="#2A3546"/>
</svg>
