<svg width="16" height="16" viewBox="0 0 16 16" fill="none" xmlns="http://www.w3.org/2000/svg">
<path d="M15.5854 0.414551H7.58538L1.00205 6.99788C0.218717 7.78122 0.218717 9.04788 1.00205 9.83122L6.16872 14.9979C6.95205 15.7812 8.25205 15.7812 9.00205 14.9979L15.5854 8.41455V0.414551ZM13.5854 2.41455V7.58122L7.58538 13.5812L2.41872 8.41455L8.41872 2.41455H13.5854ZM10.0854 4.41455C9.25205 4.41455 8.58538 5.08122 8.58538 5.91455C8.58538 6.74788 9.25205 7.41455 10.0854 7.41455C10.9187 7.41455 11.5854 6.74788 11.5854 5.91455C11.5854 5.08122 10.9187 4.41455 10.0854 4.41455Z" fill="#2A3546"/>
</svg>
