<svg width="24" height="25" viewBox="0 0 24 25" fill="none" xmlns="http://www.w3.org/2000/svg">
<path fill-rule="evenodd" clip-rule="evenodd" d="M21.2351 13.6792C21.6331 13.2814 22.0625 12.8558 22.0625 12.25C22.0625 11.6442 21.6331 11.2186 21.2351 10.8208L19.6792 9.26494C19.2813 8.86687 18.8558 8.43751 18.25 8.43751C17.6442 8.43751 17.2187 8.86685 16.8209 9.26492C14.2055 11.8803 8.22134 17.8644 8 18.0858V22.5L12.4142 22.5C12.6353 22.2789 18.6198 16.2944 21.2351 13.6792ZM18.25 10.6642L16.9142 12L18.5 13.5858L19.8358 12.25L18.25 10.6642ZM17.0858 15L15.5 13.4142L10 18.9142V20.5L11.5858 20.5L17.0858 15Z" fill="#2A3546"/>
<path fill-rule="evenodd" clip-rule="evenodd" d="M7 2.5H6C6 5 4.5 6.5 2 6.5V7.5C4.5 7.5 6 9 6 11.5H7C7 9 8.5 7.5 11 7.5V6.5C8.5 6.5 7 5 7 2.5ZM6.5 7.47867C6.64847 7.30621 6.80621 7.14848 6.97867 7C6.80621 6.85153 6.64848 6.69379 6.5 6.52133C6.35153 6.69379 6.19379 6.85153 6.02133 7C6.19379 7.14848 6.35153 7.30621 6.5 7.47867Z" fill="#2A3546"/>
<path d="M18 4.5V5.5C16.4439 5.5 16 5.94386 16 7.5H15C15 5.94386 14.5561 5.5 13 5.5V4.5C14.5561 4.5 15 4.05614 15 2.5H16C16 4.05614 16.4439 4.5 18 4.5Z" fill="#2A3546"/>
</svg>
