<svg width="16" height="16" viewBox="0 0 16 16" fill="none" xmlns="http://www.w3.org/2000/svg">
<path d="M15 4C15 2.9 14.15 2 12.9 2C12.7 1.41667 12.15 1 11.5 1H10C10 0.45 9.55 0 9 0H7C6.45 0 6 0.45 6 1H4.5C3.85 1 3.3 1.41667 3.08333 2C1.88333 2 1 2.86667 1 4V14C1 15.1 1.88333 16 3 16H13C14.1 16 15 15.1 15 14V4ZM13 14H3V4H5V5H11V4H13V14ZM6 6C5.45 6 5 6.45 5 7C5 7.55 5.45 8 6 8C6.55 8 7 7.55 7 7C7 6.45 6.55 6 6 6ZM8 8H11V6H8V8ZM6 10C5.45 10 5 10.45 5 11C5 11.55 5.45 12 6 12C6.55 12 7 11.55 7 11C7 10.45 6.55 10 6 10ZM8 12H11V10H8V12Z" fill="#2A3546"/>
</svg>
