<svg width="24" height="25" viewBox="0 0 24 25" fill="none" xmlns="http://www.w3.org/2000/svg">
<path fill-rule="evenodd" clip-rule="evenodd" d="M4.17071 6.5H2V4.5H4.17071C4.58254 3.33481 5.69378 2.5 7 2.5C8.30622 2.5 9.41746 3.33481 9.82929 4.5L22 4.5V6.5L9.82929 6.5C9.41746 7.66519 8.30622 8.5 7 8.5C5.69378 8.5 4.58254 7.66519 4.17071 6.5ZM6 5.5C6 4.94772 6.44772 4.5 7 4.5C7.55228 4.5 8 4.94772 8 5.5C8 6.05228 7.55228 6.5 7 6.5C6.44772 6.5 6 6.05228 6 5.5Z" fill="#2A3546"/>
<path fill-rule="evenodd" clip-rule="evenodd" d="M2 13.5L14.1707 13.5C14.5825 14.6652 15.6938 15.5 17 15.5C18.3062 15.5 19.4175 14.6652 19.8293 13.5H22V11.5H19.8293C19.4175 10.3348 18.3062 9.5 17 9.5C15.6938 9.5 14.5825 10.3348 14.1707 11.5L2 11.5V13.5ZM17 11.5C17.5523 11.5 18 11.9477 18 12.5C18 13.0523 17.5523 13.5 17 13.5C16.4477 13.5 16 13.0523 16 12.5C16 11.9477 16.4477 11.5 17 11.5Z" fill="#2A3546"/>
<path fill-rule="evenodd" clip-rule="evenodd" d="M9.82929 20.5L22 20.5V18.5L9.82929 18.5C9.41746 17.3348 8.30622 16.5 7 16.5C5.69378 16.5 4.58254 17.3348 4.17071 18.5H2V20.5H4.17071C4.58254 21.6652 5.69378 22.5 7 22.5C8.30622 22.5 9.41746 21.6652 9.82929 20.5ZM6 19.5C6 18.9477 6.44772 18.5 7 18.5C7.55228 18.5 8 18.9477 8 19.5C8 20.0523 7.55228 20.5 7 20.5C6.44772 20.5 6 20.0523 6 19.5Z" fill="#2A3546"/>
</svg>
