<svg width="16" height="16" viewBox="0 0 16 16" fill="none" xmlns="http://www.w3.org/2000/svg">
<path d="M15.6083 14.2063L11.2916 9.87293C12.9583 7.52293 12.7583 4.25627 10.6416 2.15627C8.32494 -0.160401 4.55827 -0.227068 2.1416 2.15627C-0.191732 4.50627 -0.191732 8.30627 2.1416 10.6563C4.20827 12.7229 7.40827 13.0396 9.87494 11.2896L14.1916 15.6063L15.6083 14.2063ZM9.2416 9.2396C7.65827 10.8229 5.1416 10.8229 3.55827 9.2396C1.9916 7.67293 1.9916 5.1396 3.55827 3.57293C5.17494 1.9896 7.65827 1.9896 9.2416 3.57293C10.7916 5.1396 10.7916 7.67293 9.2416 9.2396Z" fill="#2A3546"/>
</svg>
