<svg width="16" height="16" viewBox="0 0 16 16" fill="none" xmlns="http://www.w3.org/2000/svg">
<path fill-rule="evenodd" clip-rule="evenodd" d="M8 0C4.87634 0 2.78812 0.947172 1.52315 2.57356C0.29772 4.14911 0 6.17233 0 8C0 9.82767 0.29772 11.8509 1.52315 13.4264C2.78812 15.0528 4.87634 16 8 16C9.81415 16 11.2846 15.6829 12.4554 15.0839L11.5446 13.3034C10.7269 13.7216 9.58858 14 8 14C5.29033 14 3.87855 13.1972 3.10185 12.1986C2.28561 11.1491 2 9.67233 2 8C2 6.32767 2.28561 4.85089 3.10185 3.80144C3.87855 2.80283 5.29033 2 8 2C10.7097 2 12.1214 2.80283 12.8981 3.80144C13.7144 4.85089 14 6.32767 14 8C14 8.99037 13.7785 9.53497 13.575 9.80625C13.3889 10.0544 13.1852 10.125 13 10.125C12.5523 10.125 12 9.69772 12 9V4H10V4.37406C9.44065 4.12558 8.7721 4 8 4C6.543 4 5.45478 4.44717 4.77315 5.32356C4.13105 6.14911 4 7.17233 4 8C4 8.82767 4.13105 9.85089 4.77315 10.6764C5.45478 11.5528 6.543 12 8 12C9.18657 12 10.1285 11.7034 10.8055 11.12C11.3704 11.7471 12.1702 12.125 13 12.125C13.8148 12.125 14.6111 11.7581 15.175 11.0063C15.7215 10.2775 16 9.25963 16 8C16 6.17233 15.7023 4.14911 14.4769 2.57356C13.2119 0.947172 11.1237 0 8 0ZM9.64815 6.55144C9.88105 6.85089 10 7.32767 10 8C10 8.67233 9.88105 9.14911 9.64815 9.44856C9.45478 9.69717 9.043 10 8 10C6.957 10 6.54522 9.69717 6.35185 9.44856C6.11895 9.14911 6 8.67233 6 8C6 7.32767 6.11895 6.85089 6.35185 6.55144C6.54522 6.30283 6.957 6 8 6C9.043 6 9.45478 6.30283 9.64815 6.55144Z" fill="#2A3546"/>
</svg>
