<svg width="24" height="24" viewBox="0 0 24 24" fill="none" xmlns="http://www.w3.org/2000/svg">
<path d="M5.60042 21.9062C4.62542 22.4312 3.65042 21.5062 4.07542 20.5562L6.75042 14.6062L2.05042 10.7312C1.25042 10.0562 1.72542 8.80621 2.70042 8.80621L8.77542 8.83121L10.9754 2.68121C11.3004 1.78121 12.6254 1.60621 13.0004 2.65621L15.1754 8.83121L21.2504 8.80621C22.2504 8.80621 22.7504 10.0562 21.9754 10.7062L17.2004 14.6062L19.9004 20.5062C20.3254 21.4312 19.3754 22.4312 18.4504 21.9312L11.9754 18.4562L5.60042 21.9062ZM5.30042 10.8312L9.20042 14.0312L7.02542 18.8562L11.9754 16.1812L16.9504 18.8562L14.7254 14.0312L18.6754 10.8312H13.7504L11.9754 5.80621L10.1754 10.8312H5.30042Z" fill="#2A3546"/>
</svg>
