<svg width="24" height="25" viewBox="0 0 24 25" fill="none" xmlns="http://www.w3.org/2000/svg">
<path d="M12 13.5C14.75 13.5 17 11.25 17 8.5C17 5.75 14.75 3.5 12 3.5C9.25 3.5 7 5.75 7 8.5C7 11.25 9.25 13.5 12 13.5ZM12 5.5C13.65 5.5 15 6.85 15 8.5C15 10.15 13.65 11.5 12 11.5C10.35 11.5 9 10.15 9 8.5C9 6.85 10.35 5.5 12 5.5Z" fill="#2A3546"/>
<path d="M12 14.5C18.6274 14.5 22.5 19 24 24.5H21.9178C21.2237 22.2467 20.0976 20.3061 18.5739 18.9141C16.9636 17.4431 14.8216 16.5 12 16.5C9.17839 16.5 7.03644 17.4431 5.42615 18.9141C3.90237 20.3061 2.77628 22.2467 2.08223 24.5H0C1.5 19 5.37258 14.5 12 14.5Z" fill="#2A3546"/>
</svg>
