<svg width="24" height="24" viewBox="0 0 24 24" fill="none" xmlns="http://www.w3.org/2000/svg">
<path d="M11.5907 2.42188L2.99067 10.9969C2.21567 11.7719 2.21567 13.0469 2.99067 13.8219L10.1657 20.9969C10.9407 21.7719 12.2657 21.7719 12.9907 20.9969L21.5907 12.4219V2.42188H11.5907ZM19.5907 11.5719L11.5907 19.5719L4.41567 12.4219L12.4157 4.42188H19.5907V11.5719ZM15.5907 10.4219C16.6907 10.4219 17.5907 9.52188 17.5907 8.42188C17.5907 7.29688 16.6907 6.42188 15.5907 6.42188C14.4657 6.42188 13.5907 7.29688 13.5907 8.42188C13.5907 9.52188 14.4657 10.4219 15.5907 10.4219Z" fill="#2A3546"/>
</svg>
