<svg width="16" height="18" viewBox="0 0 16 18" fill="none" xmlns="http://www.w3.org/2000/svg">
<path d="M2 0.983276C0.9 0.983276 0 1.88328 0 2.98328C0 4.09994 0.9 4.98328 2 4.98328C3.1 4.98328 4 4.09994 4 2.98328C4 1.88328 3.1 0.983276 2 0.983276ZM6 1.98328V3.98328H16V1.98328H6ZM2 6.99994C0.9 6.99994 0 7.88328 0 8.99994C0 10.0999 0.9 10.9999 2 10.9999C3.1 10.9999 4 10.0999 4 8.99994C4 7.88328 3.1 6.99994 2 6.99994ZM6 9.99994H16V7.99994H6V9.99994ZM2 12.9999C0.9 12.9999 0 13.8833 0 15.0166C0 16.1166 0.9 17.0166 2 17.0166C3.1 17.0166 4 16.1166 4 15.0166C4 13.8833 3.1 12.9999 2 12.9999ZM6 16.0166H16V14.0166H6V16.0166Z" fill="#2A3546"/>
</svg>
