<svg width="16" height="16" viewBox="0 0 16 16" fill="none" xmlns="http://www.w3.org/2000/svg">
<path d="M14.3075 6.44896C14.136 6.22415 13.9147 6.04212 13.6611 5.91716C13.4075 5.79219 13.1284 5.72768 12.8456 5.72868H10.5065L11.4352 3.87079C11.63 3.48238 11.6974 3.04248 11.6279 2.61358C11.5584 2.18468 11.3555 1.78859 11.048 1.48156C10.9407 1.37453 10.8127 1.29047 10.6718 1.2345C10.531 1.17852 10.3802 1.15179 10.2287 1.15594C10.0771 1.16009 9.92803 1.19503 9.79044 1.25863C9.65285 1.32223 9.52964 1.41317 9.42832 1.52591L7.23822 3.95772C6.56271 4.70619 5.77782 5.34814 4.9102 5.86174V5.72868C4.9102 5.61105 4.86347 5.49824 4.7803 5.41507C4.69712 5.33189 4.58431 5.28516 4.46668 5.28516H1.80558C1.68795 5.28516 1.57514 5.33189 1.49196 5.41507C1.40879 5.49824 1.36206 5.61105 1.36206 5.72868V13.712C1.36206 13.8296 1.40879 13.9424 1.49196 14.0256C1.57514 14.1088 1.68795 14.1555 1.80558 14.1555H4.46668C4.58431 14.1555 4.69712 14.1088 4.7803 14.0256C4.86347 13.9424 4.9102 13.8296 4.9102 13.712V13.2893L5.52004 13.7648C5.90227 14.0199 6.35158 14.1559 6.81112 14.1555H10.8533C11.4689 14.1554 12.0671 13.9521 12.5552 13.5771C13.0433 13.202 13.3939 12.6764 13.5526 12.0816L14.6286 8.04562C14.7019 7.77275 14.7111 7.48661 14.6554 7.20961C14.5997 6.9326 14.4806 6.67225 14.3075 6.44896ZM4.02317 13.2685H2.2491V6.1722H4.02317V13.2685ZM13.7695 7.81809L12.6935 11.8541C12.5851 12.2595 12.346 12.6177 12.0133 12.8734C11.6807 13.1291 11.2729 13.268 10.8533 13.2685H6.81289C6.53952 13.2705 6.27139 13.1935 6.04073 13.0467L4.9102 12.165V6.87518C6.03425 6.2813 7.04529 5.49468 7.89729 4.55114L10.0874 2.11756C10.1083 2.09445 10.1336 2.07582 10.1619 2.0628C10.1902 2.04978 10.2209 2.04263 10.252 2.04181C10.2832 2.04098 10.3142 2.04648 10.3431 2.05797C10.3721 2.06947 10.3984 2.08672 10.4205 2.10869C10.5963 2.28409 10.7124 2.51046 10.7522 2.75562C10.792 3.00078 10.7535 3.25225 10.6422 3.47428L9.39239 5.97395C9.35861 6.04155 9.34266 6.11666 9.34606 6.19216C9.34946 6.26765 9.3721 6.34102 9.41182 6.40532C9.45154 6.46961 9.50703 6.52268 9.57302 6.5595C9.63902 6.59633 9.71332 6.61568 9.78889 6.61572H12.8456C12.9922 6.61574 13.1367 6.64945 13.2682 6.71423C13.3996 6.77901 13.5144 6.87314 13.6037 6.98934C13.693 7.10554 13.7544 7.24071 13.7831 7.38441C13.8119 7.52811 13.8072 7.67649 13.7695 7.81809Z" fill="#8699B6" stroke="#8699B6"/>
</svg>
