<svg width="24" height="24" viewBox="0 0 24 24" fill="none" xmlns="http://www.w3.org/2000/svg">
<path fill-rule="evenodd" clip-rule="evenodd" d="M11.876 2.50772C11.9583 2.49743 12.0417 2.49743 12.124 2.50772L20.124 3.50772C20.6245 3.57028 21 3.99568 21 4.5V13.7857C21 16.7634 19.4348 18.8205 17.5889 20.1654C15.7677 21.4922 13.6189 22.1758 12.2095 22.4778C12.0714 22.5074 11.9286 22.5074 11.7905 22.4778C10.3811 22.1758 8.23233 21.4922 6.41114 20.1654C4.56523 18.8205 3 16.7634 3 13.7857V4.5C3 3.99568 3.37554 3.57028 3.87597 3.50772L11.876 2.50772ZM5 5.38278V13.7857C5 15.9508 6.10144 17.4652 7.58886 18.5489C9.01904 19.5909 10.7525 20.186 12 20.4754C13.2475 20.186 14.981 19.5909 16.4111 18.5489C17.8986 17.4652 19 15.9508 19 13.7857V5.38278L12 4.50778L5 5.38278ZM17.7071 9.20711L11.7071 15.2071C11.3166 15.5976 10.6834 15.5976 10.2929 15.2071L7.29289 12.2071L8.70711 10.7929L11 13.0858L16.2929 7.79289L17.7071 9.20711Z" fill="#2A3546"/>
</svg>
