<svg width="24" height="24" viewBox="0 0 24 24" fill="none" xmlns="http://www.w3.org/2000/svg">
<path d="M7.5125 22.0126C6.4875 22.0126 5.4625 21.6126 4.6875 20.8376C3.1125 19.2876 3.1125 16.7375 4.6875 15.1875L14.1625 5.71255C15.1375 4.73755 16.7125 4.73755 17.6875 5.71255C18.6625 6.68755 18.6625 8.26255 17.6875 9.23755L10.3375 16.5876L8.9125 15.1875L16.2875 7.83755C16.4875 7.63755 16.4875 7.31255 16.2875 7.11255C16.0875 6.93755 15.7625 6.93755 15.5625 7.11255L6.0875 16.5876C5.3125 17.3876 5.3125 18.6376 6.0875 19.4376C6.8625 20.2126 8.1375 20.2126 8.9125 19.4376L18.4125 9.96255C19.0625 9.28755 19.4375 8.41255 19.4375 7.48755C19.4375 6.53755 19.0625 5.66255 18.4125 5.01255C17.0875 3.68755 14.7875 3.68755 13.4625 5.01255L3.9625 14.4876L2.5625 13.0625L12.0375 3.58755C13.0875 2.56255 14.4625 1.98755 15.9375 1.98755C17.3875 1.98755 18.7875 2.56255 19.8125 3.58755C20.8625 4.63755 21.4375 6.01255 21.4375 7.48755C21.4375 8.93755 20.8625 10.3375 19.8125 11.3625L10.3375 20.8376C9.5625 21.6126 8.5375 22.0126 7.5125 22.0126Z" fill="#2A3546"/>
</svg>
