<svg width="24" height="24" viewBox="0 0 24 24" fill="none" xmlns="http://www.w3.org/2000/svg">
<path d="M12 2C6.475 2 2 6.475 2 12C2 17.525 6.475 22 12 22C17.525 22 22 17.525 22 12C22 6.475 17.5 2 12 2ZM12 4.2C13.2 5.375 14.075 6.95 14.55 8.725C12.875 9.075 11.125 9.075 9.45 8.725C9.925 6.95 10.8 5.375 12 4.2ZM9.175 4.525C8.45 5.6 7.9 6.825 7.55 8.125C6.875 7.85 6.25 7.5 5.675 7.1C6.575 5.95 7.775 5.05 9.175 4.525ZM18.325 7.1C17.75 7.5 17.125 7.85 16.45 8.125C16.1 6.825 15.55 5.6 14.825 4.525C16.225 5.05 17.425 5.95 18.325 7.1ZM4.675 15.225C3.8 13.2 3.775 10.825 4.65 8.825C5.4 9.35 6.25 9.775 7.125 10.125C6.975 11.4 6.975 12.75 7.15 13.975C6.25 14.3 5.425 14.725 4.675 15.225ZM19.35 8.825C20.225 10.825 20.2 13.2 19.325 15.225C18.575 14.725 17.75 14.3 16.85 13.975C17.025 12.75 17.025 11.4 16.875 10.125C17.75 9.775 18.6 9.35 19.35 8.825ZM14.925 13.4C12.9 12.975 11.1 12.975 9.075 13.4C8.975 12.6 8.975 11.475 9.075 10.675C11.1 11.1 12.9 11.1 14.925 10.675C15.025 11.475 15 12.625 14.925 13.4ZM12 19.8C10.825 18.65 9.95 17.1 9.475 15.35C11.1 15 12.9 15 14.525 15.35C14.05 17.1 13.175 18.65 12 19.8ZM5.725 16.95C6.275 16.55 6.9 16.225 7.55 15.95C7.925 17.225 8.475 18.425 9.175 19.475C7.8 18.95 6.625 18.075 5.725 16.95ZM14.825 19.475C15.525 18.425 16.075 17.225 16.45 15.95C17.1 16.225 17.725 16.55 18.275 16.95C17.375 18.075 16.2 18.95 14.825 19.475Z" fill="#2A3546"/>
</svg>
