<svg width="24" height="24" viewBox="0 0 24 24" fill="none" xmlns="http://www.w3.org/2000/svg">
<path d="M14.5 2H9.5L9.025 4.45L8.775 4.525L6.7 3.15L3.175 6.675L4.55 8.75C4.525 8.825 4.5 8.925 4.45 9L2 9.5V14.5L4.45 14.975C4.5 15.05 4.525 15.15 4.55 15.225L3.175 17.3L6.7 20.825L8.775 19.45L9.025 19.525L9.5 22H14.5L14.975 19.525L15.25 19.45L17.3 20.825L20.85 17.3L19.45 15.225C19.5 15.15 19.525 15.05 19.55 14.975L22 14.5V9.5L19.55 9C19.525 8.925 19.5 8.825 19.45 8.75L20.85 6.675L17.3 3.15L15.25 4.525L14.975 4.45L14.5 2ZM4 12.65V11.325L5.9 11.05C6.05 10.05 6.45 9.1 7.025 8.325L5.875 6.8L6.825 5.875L8.35 7.025C9.125 6.45 10.075 6.05 11.075 5.875L11.35 4H12.675L12.95 5.9C13.95 6.05 14.875 6.45 15.65 7.025L17.2 5.875L18.125 6.8L16.975 8.325C17.55 9.1 17.95 10.05 18.1 11.05L20 11.325V12.65L18.125 12.925C17.95 13.925 17.55 14.875 16.975 15.65L18.125 17.175L17.2 18.1L15.65 16.975C14.875 17.55 13.95 17.95 12.95 18.1L12.675 20H11.35L11.075 18.125C10.075 17.95 9.125 17.55 8.35 16.975L6.825 18.1L5.875 17.175L7.025 15.65C6.45 14.875 6.05 13.925 5.875 12.925L4 12.65ZM12 8C9.8 8 8 9.775 8 12C8 14.2 9.8 16 12 16C14.225 16 16 14.2 16 12C16 9.775 14.225 8 12 8ZM12 10C13.1 10 14 10.875 14 12C14 13.1 13.1 14 12 14C10.9 14 10 13.1 10 12C10 10.875 10.9 10 12 10Z" fill="#2A3546"/>
</svg>
