<svg width="24" height="24" viewBox="0 0 24 24" fill="none" xmlns="http://www.w3.org/2000/svg">
<path d="M20 1.48755H4C2.9 1.48755 2 2.38755 2 3.48755V20.5126C2 21.6126 2.9 22.5126 4 22.5126H16.8L14.775 20.5126H4V7.48755H20V17.2376L22 19.2126V3.48755C22 2.38755 21.1 1.48755 20 1.48755ZM4 5.48755V3.48755H20V5.48755H4ZM16.175 16.2375C17.45 14.3125 17.25 11.6625 15.525 9.96255C13.55 7.98755 10.375 8.01255 8.45 9.98755C6.5 11.9375 6.525 15.1126 8.475 17.0375C10.15 18.7126 12.775 18.9625 14.775 17.6625L19.325 22.1875C20.225 23.1375 21.675 21.7126 20.725 20.7626L16.175 16.2375ZM14.125 15.6125C12.95 16.7876 11.05 16.7626 9.875 15.6376C8.725 14.4626 8.7 12.5626 9.875 11.3876C11.075 10.1876 12.9 10.1875 14.125 11.3625C15.3 12.5375 15.3 14.4375 14.125 15.6125Z" fill="#2A3546"/>
</svg>
