<svg width="24" height="24" viewBox="0 0 24 24" fill="none" xmlns="http://www.w3.org/2000/svg">
<path d="M24 11V6.425C24 5.575 23.45 4.8 22.625 4.525L12 1L1.375 4.525C0.55 4.8 0 5.575 0 6.425V11H1V18H0V21C0 22.1 0.9 23 2 23H22C23.1 23 24 22.1 24 21V18H23V11H24ZM2 6.425L12 3.1L22 6.425V9H2V6.425ZM12 8C12.825 8 13.5 7.325 13.5 6.5C13.5 5.65 12.825 5 12 5C11.175 5 10.5 5.65 10.5 6.5C10.5 7.325 11.175 8 12 8ZM3 11H5V18H3V11ZM9 18H7V11H9V18ZM11 11H13V18H11V11ZM15 11H17V18H15V11ZM21 18H19V11H21V18ZM22 21H2V20H22V21Z" fill="#2A3546"/>
</svg>
