<svg width="24" height="24" viewBox="0 0 24 24" fill="none" xmlns="http://www.w3.org/2000/svg">
<path d="M19.5 15C18.25 15 17.175 15.6 16.425 16.475L8.425 12.75C8.5 12.375 8.525 11.8 8.425 11.275L16.425 7.55C17.175 8.425 18.25 9 19.5 9C21.7 9 23.5 7.225 23.5 5C23.5 2.8 21.7 1 19.5 1C17 1 15.075 3.3 15.575 5.75L7.575 9.475C6.825 8.6 5.75 8 4.5 8C2.3 8 0.5 9.8 0.5 12C0.5 14.225 2.3 16 4.5 16C5.75 16 6.825 15.425 7.575 14.55L15.575 18.275C15.075 20.725 17 23 19.5 23C21.7 23 23.5 21.225 23.5 19C23.5 16.8 21.7 15 19.5 15ZM17.5 5C17.5 2.375 21.5 2.35 21.5 5C21.5 7.625 17.5 7.65 17.5 5ZM6.5 12C6.5 14.625 2.5 14.65 2.5 12C2.5 9.375 6.5 9.35 6.5 12ZM21.5 19C21.5 21.625 17.5 21.65 17.5 19C17.5 16.375 21.5 16.35 21.5 19Z" fill="#2A3546"/>
</svg>
