<svg width="16" height="16" viewBox="0 0 16 16" fill="none" xmlns="http://www.w3.org/2000/svg">
<path d="M8 2C2 2 0 8 0 8C0 8 2 14 8 14C14 14 16 8 16 8C16 8 14 2 8 2ZM8 12C4.51667 12 2.78333 9.26667 2.16667 8C2.78333 6.71667 4.51667 4 8 4C11.4833 4 13.2167 6.73333 13.8333 8C13.2 9.28333 11.4667 12 8 12ZM8 5C6.33333 5 5 6.35 5 8C5 9.66667 6.33333 11 8 11C9.65 11 11 9.66667 11 8C11 6.35 9.65 5 8 5ZM8 9C7.45 9 7 8.55 7 8C7 7.45 7.45 7 8 7C8.55 7 9 7.45 9 8C9 8.55 8.55 9 8 9Z" fill="#2A3546"/>
</svg>
