<svg width="24" height="24" viewBox="0 0 24 24" fill="none" xmlns="http://www.w3.org/2000/svg">
<path d="M22.3499 20.925L15.0999 13.7C16.0749 12.425 16.6499 10.85 16.6499 9.15002C16.6499 5.00002 13.2999 1.65002 9.1499 1.65002C4.9999 1.65002 1.6499 5.00002 1.6499 9.15002C1.6499 13.275 4.9999 16.65 9.1499 16.65C10.8499 16.65 12.4249 16.075 13.6999 15.1L20.9249 22.35L22.3499 20.925ZM3.6499 9.15002C3.6499 6.10002 6.0999 3.65003 9.1499 3.65003C12.1749 3.65003 14.6499 6.10002 14.6499 9.15002C14.6499 12.175 12.1749 14.65 9.1499 14.65C6.0999 14.65 3.6499 12.175 3.6499 9.15002Z" fill="#2A3546"/>
</svg>
