<svg width="24" height="25" viewBox="0 0 24 25" fill="none" xmlns="http://www.w3.org/2000/svg">
<path d="M8.79289 8.73836L10.5858 10.5312L8.79289 12.3241L10.2071 13.7384L12 11.9455L13.7929 13.7384L15.2071 12.3241L13.4142 10.5312L15.2071 8.73836L13.7929 7.32414L12 9.11704L10.2071 7.32414L8.79289 8.73836Z" fill="#2A3546"/>
<path d="M4 2.75H20C21.1 2.75 22 3.65 22 4.75V16.75C22 17.85 21.1 18.75 20 18.75H12L9 21.75C8.65 22.1 8.2 22.25 7.775 22.25C6.875 22.25 6 21.55 6 20.5V18.75H4C2.9 18.75 2 17.85 2 16.75V4.75C2 3.65 2.9 2.75 4 2.75ZM4 4.75V16.75H8V19.925L10.575 17.325L11.175 16.75H20V4.75H4Z" fill="#2A3546"/>
</svg>
