<svg width="16" height="16" viewBox="0 0 16 16" fill="none" xmlns="http://www.w3.org/2000/svg">
<path d="M14.9667 7.95011C14.9667 4.13345 11.9333 1.03345 8.03333 1.03345C4.21666 1.03345 1.08333 4.11678 1.08333 7.95011C1.08333 9.15011 1.41666 10.3334 2.01666 11.3834L1.03333 14.9668L4.71666 14.0168C5.73333 14.5668 6.86666 14.8501 8.03333 14.8501C11.8667 14.8501 14.9667 11.7501 14.9667 7.95011ZM8.03333 13.6668C6.99999 13.6668 5.98333 13.3834 5.09999 12.8834L4.89999 12.7668L2.69999 13.3334L3.28333 11.2001L3.14999 10.9834C2.59999 10.0668 2.26666 9.01678 2.26666 7.95011C2.26666 4.78345 4.84999 2.20011 8.04999 2.20011C11.2167 2.20011 13.8 4.78345 13.8 7.95011C13.8 11.1001 11.2 13.6668 8.03333 13.6668ZM11.2 9.38345C11.0167 9.30011 10.1833 8.86678 10.0167 8.81678C9.84999 8.75011 9.73333 8.73345 9.63333 8.90011C9.49999 9.06678 9.18332 9.46678 9.06666 9.58345C8.96666 9.70011 8.86666 9.71678 8.69999 9.63345C8.51666 9.53345 7.96666 9.35011 7.29999 8.76678C6.78333 8.31678 6.44999 7.75011 6.34999 7.58345C6.24999 7.40011 6.33333 7.30011 6.41666 7.21678C6.59999 7.03345 6.73333 6.86678 6.84999 6.63345C6.91666 6.51678 6.88333 6.41678 6.83333 6.33345C6.79999 6.25011 6.44999 5.38345 6.29999 5.05011C6.14999 4.70011 6.01666 4.75011 5.91666 4.75011H5.58333C5.46666 4.75011 5.26666 4.80011 5.11666 4.96678C4.94999 5.13345 4.51666 5.55011 4.51666 6.40011C4.51666 7.25011 5.13333 8.06678 5.21666 8.18345C5.29999 8.30011 6.46666 10.0168 8.16666 10.7834C8.59999 10.9834 8.91666 11.0668 9.16666 11.1501C9.58333 11.2668 9.96666 11.2668 10.2667 11.2168C10.6 11.1668 11.2833 10.8001 11.4333 10.4168C11.5833 10.0001 11.5667 9.65011 11.5333 9.58345C11.4833 9.51678 11.3667 9.46678 11.2 9.38345Z" fill="#2A3546"/>
</svg>
