<svg width="24" height="24" viewBox="0 0 24 24" fill="none" xmlns="http://www.w3.org/2000/svg">
<path d="M7.3 13.3625C7.725 13.8125 8.475 13.7375 8.825 13.2375L15.05 4.33745L20.025 10.6375H24V8.63745H21L15.8 2.03745C15.375 1.51245 14.575 1.51245 14.2 2.06245L7.875 11.1125L5.425 8.63745H2.1C2.575 5.81245 5.05 3.63745 8 3.63745C8.825 3.63745 9.6 3.81245 10.325 4.11245L11.475 2.46245C10.425 1.93745 9.25 1.63745 8 1.63745C3.6 1.63745 0 5.23745 0 9.63745C0 14.0625 3.6 17.6375 8 17.6375C9.85 17.6375 11.55 17.0125 12.9 15.9625L19.3 22.3625L20.725 20.9375L14.325 14.5375C15.375 13.1875 16 11.4875 16 9.63745C16 9.33745 15.975 9.01245 15.95 8.71245L15.15 7.68745L14 9.33745V9.63745C14 12.9625 11.325 15.6375 8 15.6375C5.05 15.6375 2.575 13.4875 2.1 10.6375H4.6L7.3 13.3625Z" fill="#2A3546"/>
</svg>
