<svg width="24" height="24" viewBox="0 0 24 24" fill="none" xmlns="http://www.w3.org/2000/svg">
<rect width="24" height="24" rx="12" fill="white"/>
<g clip-path="url(#clip0_14272_302290)">
<path d="M13.7404 4.01822C13.1915 3.84481 12.6076 3.75 12.0013 3.75C10.2323 3.75 8.64917 4.54967 7.59375 5.80595L10.3134 8.09394L13.7404 4.01822Z" fill="#1A73E8"/>
<path d="M7.59078 5.80566C6.74994 6.80619 6.24219 8.0974 6.24219 9.50588C6.24219 10.5887 6.45801 11.4658 6.81231 12.2517L10.3104 8.09366L7.59078 5.80566Z" fill="#EA4335"/>
<path d="M12.0017 7.30583C13.218 7.30583 14.2036 8.29139 14.2036 9.50774C14.2036 10.0492 14.0077 10.5457 13.6834 10.9287C13.6834 10.9287 15.4224 8.86027 17.1104 6.85422C16.413 5.51311 15.2041 4.48139 13.742 4.01855L10.3125 8.09428C10.7167 7.61148 11.323 7.30583 12.0017 7.30583Z" fill="#4285F4"/>
<path d="M11.9998 11.7082C10.7834 11.7082 9.79787 10.7226 9.79787 9.50624C9.79787 8.96855 9.99124 8.47577 10.3106 8.09277L6.8125 12.2521C7.41007 13.5782 8.40436 14.6424 9.4286 15.9835L13.6802 10.9284C13.2773 11.405 12.6735 11.7082 11.9998 11.7082Z" fill="#FBBC04"/>
<path d="M13.5965 17.3628C15.5164 14.36 17.7558 12.9964 17.7558 9.50579C17.7558 8.54893 17.5212 7.64695 17.1083 6.85352L9.42969 15.983C9.7553 16.4097 10.0834 16.8638 10.404 17.3641C11.5717 19.168 11.2474 20.2496 12.0009 20.2496C12.7519 20.2496 12.4288 19.1668 13.5965 17.3628Z" fill="#34A853"/>
</g>
<defs>
<clipPath id="clip0_14272_302290">
<rect width="16.5" height="16.5" fill="white" transform="translate(3.75 3.75)"/>
</clipPath>
</defs>
</svg>
