<svg width="24" height="24" viewBox="0 0 24 24" fill="none" xmlns="http://www.w3.org/2000/svg">
<path d="M6.97244 21.3917C6.17244 22.1917 4.87244 22.1917 4.07244 21.3917L2.59744 19.8917C1.79744 19.0917 1.79744 17.7917 2.59744 16.9917L9.64744 9.91667C8.27244 4.81667 13.4474 0.341673 18.3974 2.61667L19.6974 3.21667L15.8724 7.04167L16.9474 8.09167L20.7474 4.29167L21.3724 5.56667C23.6724 10.2667 19.3224 15.7167 14.0474 14.3167L6.97244 21.3917ZM16.0724 4.01667C12.8474 3.79167 10.5724 6.96667 11.7224 9.81667L11.9724 10.4417L3.99744 18.3917L5.49744 19.9667L13.5474 11.9917L14.1474 12.2417C17.0474 13.4417 20.2224 11.0417 19.9724 7.91667L18.2724 9.59167C17.4974 10.3417 16.3724 10.3417 15.6224 9.59167L14.3724 8.36667C13.6224 7.64167 13.6224 6.41667 14.3724 5.69167L16.0724 4.01667Z" fill="#2A3546"/>
</svg>
