<svg width="24" height="24" viewBox="0 0 24 24" fill="none" xmlns="http://www.w3.org/2000/svg">
<path d="M20.7619 16.6843C21.8119 14.7843 22.2619 12.5343 21.8619 10.1593C21.0869 5.45925 16.9119 1.85925 11.9869 1.85925C6.01194 1.85925 1.26194 7.08425 2.08694 13.2343C2.61194 17.2093 5.58694 20.5343 9.46194 21.5343C11.4619 22.0593 13.5369 21.9343 15.4869 21.2343L19.0619 22.0593C20.3119 22.4843 21.8119 21.1843 21.4619 19.6593L20.7619 16.6843ZM19.8869 10.4843C20.2369 12.5843 19.8619 14.1593 18.6619 16.3843L19.5119 20.1093L15.3369 19.1593C13.3869 19.8843 11.7619 20.0843 9.96194 19.6093C6.86194 18.7843 4.48694 16.1343 4.06194 12.9593C3.38694 8.13425 7.13694 3.85925 11.9869 3.85925C15.8869 3.85925 19.2369 6.65925 19.8869 10.4843ZM7.98694 10.8093C7.43694 10.8093 6.98694 11.2593 6.98694 11.8093C6.98694 12.3593 7.43694 12.8093 7.98694 12.8093C8.53694 12.8093 8.98694 12.3593 8.98694 11.8093C8.98694 11.2593 8.53694 10.8093 7.98694 10.8093ZM11.9869 10.8093C11.4369 10.8093 10.9869 11.2593 10.9869 11.8093C10.9869 12.3593 11.4369 12.8093 11.9869 12.8093C12.5369 12.8093 12.9869 12.3593 12.9869 11.8093C12.9869 11.2593 12.5369 10.8093 11.9869 10.8093ZM15.9869 10.8093C15.4369 10.8093 14.9869 11.2593 14.9869 11.8093C14.9869 12.3593 15.4369 12.8093 15.9869 12.8093C16.5369 12.8093 16.9869 12.3593 16.9869 11.8093C16.9869 11.2593 16.5369 10.8093 15.9869 10.8093Z" fill="#2A3546"/>
</svg>
