<svg width="24" height="24" viewBox="0 0 24 24" fill="none" xmlns="http://www.w3.org/2000/svg">
<path d="M21.5 20.5L3.09995 2.09998L1.69995 3.52498L4.82495 6.67498C2.92495 8.84998 2.29995 11.3 2.29995 11.3C2.29995 11.3 4.29995 19.3 12.3 19.3C13.975 19.3 15.375 18.95 16.575 18.4L20.075 21.9L21.5 20.5ZM12.3 5.29998C17.65 5.29998 19.675 9.77498 20.2 11.3C19.975 12 19.4 13.3 18.35 14.525L19.775 15.95C21.675 13.75 22.3 11.3 22.3 11.3C22.3 11.3 20.3 3.29998 12.3 3.29998C10.625 3.29998 9.22495 3.67498 8.04995 4.22498L9.57495 5.74998C10.375 5.47498 11.275 5.29998 12.3 5.29998ZM16.15 12.325C16.25 12 16.3 11.65 16.3 11.3C16.3 9.09998 14.525 7.29998 12.3 7.29998C11.95 7.29998 11.625 7.37498 11.275 7.44998L16.15 12.325ZM12.3 17.3C6.94995 17.3 4.92495 12.825 4.39995 11.3C4.64995 10.6 5.19995 9.29998 6.24995 8.07498L8.44995 10.275C8.37495 10.6 8.29995 10.95 8.29995 11.3C8.29995 13.5 10.1 15.3 12.3 15.3C12.65 15.3 13 15.25 13.325 15.15L15.025 16.85C14.225 17.125 13.325 17.3 12.3 17.3Z" fill="#2A3546"/>
</svg>
