<svg width="16" height="16" viewBox="0 0 16 16" fill="none" xmlns="http://www.w3.org/2000/svg">
<path d="M2 1.46667L0.583333 2.86668L1.95 4.25001C0.55 5.81668 0 7.46668 0 7.46668C0 7.46668 2 13.4667 8 13.4667C9.01667 13.4667 9.91667 13.2833 10.7167 13L12.2333 14.5333L13.65 13.1167L2 1.46667ZM8 1.46667C6.98333 1.46667 6.1 1.65001 5.3 1.93334L6.93333 3.56668C9.9 2.96667 12.5 4.73334 13.8333 7.46668C13.6 7.95001 13.2167 8.61668 12.6333 9.28334L14.05 10.6833C15.4333 9.11668 16 7.46668 16 7.46668C16 7.46668 14 1.46667 8 1.46667ZM8 4.46668L7.86667 4.48334L10.9833 7.60001C10.9833 5.78334 9.71667 4.46668 8 4.46668ZM8.15 10.45L9.06667 11.3667C6.1 11.9667 3.5 10.2 2.16667 7.46668C2.4 7.00001 2.78333 6.31668 3.36667 5.65001L5.01667 7.31668C5.01667 9.13334 6.18333 10.45 8.15 10.45Z" fill="#2A3546"/>
</svg>
