<svg width="16" height="16" viewBox="0 0 16 16" fill="none" xmlns="http://www.w3.org/2000/svg">
<path d="M14 0H2C0.9 0 0 0.900001 0 2V14C0 15.1 0.9 16 2 16H11.5L9.5 14H2V4H14V11.4L16 13.2V2C16 0.900001 15.1 0 14 0ZM11.45 11C11.7833 10.4167 12 9.73333 12 9C12 6.78333 10.2167 5 8 5C5.8 5 4 6.78333 4 9C4 11.2167 5.8 13 8 13C8.75 13 9.43333 12.7833 10.0333 12.4333L13.2833 15.7C14.1833 16.6 15.6833 15.2667 14.7 14.2833L11.45 11ZM8 11C6.9 11 6 10.1 6 9C6 7.9 6.9 7 8 7C9.1 7 10 7.9 10 9C10 10.1 9.1 11 8 11Z" fill="#2A3546"/>
</svg>
