<svg width="24" height="25" viewBox="0 0 24 25" fill="none" xmlns="http://www.w3.org/2000/svg">
<path fill-rule="evenodd" clip-rule="evenodd" d="M19.5075 3.56446L20.8133 4.87023C20.3635 5.95984 19.4982 7.18891 19.6966 8.41482C19.8808 9.55313 21.1565 10.6113 21.8675 11.4455L21.0291 13.0909C19.9422 13.0066 18.3332 12.5973 17.3091 13.119C16.285 13.6408 15.6704 15.1831 15.0997 16.112L13.2758 15.8231C13.2076 15.5406 13.1397 15.258 13.0711 14.9756L6.15572 21.891C5.82535 22.2218 5.47035 22.5367 4.97081 22.5367C4.47128 22.5367 4.11629 22.2218 3.78592 21.891L2.62015 20.7252C2.28935 20.3949 1.97449 20.0399 1.97449 19.5403C1.97449 19.0408 2.28936 18.6858 2.62016 18.3554L9.60715 11.3685C9.26173 11.2838 8.91589 11.201 8.57018 11.1175L8.2813 9.29363C9.21021 8.72294 10.7525 8.10835 11.2743 7.08427C11.7961 6.06019 11.3868 4.45116 11.3025 3.36424L12.9479 2.52588C13.7767 3.23223 14.8346 4.50916 15.9673 4.68844C17.1001 4.86775 18.5006 3.98023 19.5075 3.56446ZM18.0945 6.28492C17.315 6.56576 16.4888 6.79588 15.6546 6.66385C14.821 6.5319 14.1068 6.0584 13.4525 5.55089C13.4781 6.3805 13.4404 7.23855 13.0563 7.99225C12.6722 8.74622 11.9999 9.28121 11.3134 9.74823C12.1106 9.98026 12.9153 10.2813 13.5137 10.8797C14.112 11.478 14.4131 12.2827 14.6451 13.08C15.1121 12.3935 15.6471 11.7212 16.4011 11.337C17.1547 10.9531 18.0126 10.9153 18.8421 10.9409C18.3329 10.2851 17.8574 9.56952 17.7222 8.73435C17.5868 7.89768 17.8142 7.06785 18.0945 6.28492ZM11.7577 12.0464L4.2637 19.5403L4.97081 20.2475L12.4254 12.7928C12.3139 12.5506 12.2082 12.4026 12.0994 12.2939C12.0165 12.2109 11.9107 12.1297 11.7577 12.0464Z" fill="#2A3546"/>
</svg>
