<svg width="16" height="18" viewBox="0 0 16 18" fill="none" xmlns="http://www.w3.org/2000/svg">
<path d="M8 4.98328V6.98328L11 3.98328L8 0.983276V2.98328C4.68333 2.98328 2 5.68328 2 8.98328C2 10.2833 2.41667 11.4833 3.1 12.4666L4.56667 11.0166C4.2 10.4166 4 9.73328 4 8.98328C4 6.78328 5.78333 4.98328 8 4.98328ZM12.8833 5.51661L11.4333 6.96661C11.7833 7.56661 12 8.24994 12 8.98328C12 11.1999 10.2 12.9999 8 12.9999V10.9833L5 14.0166L8 17.0166V15.0166C11.3 15.0166 14 12.2999 14 8.98328C14 7.69994 13.5833 6.49994 12.8833 5.51661Z" fill="#2A3546"/>
</svg>
