<svg width="24" height="24" viewBox="0 0 24 24" fill="none" xmlns="http://www.w3.org/2000/svg">
<path d="M6.5 8C7.32843 8 8 7.32843 8 6.5C8 5.67157 7.32843 5 6.5 5C5.67157 5 5 5.67157 5 6.5C5 7.32843 5.67157 8 6.5 8Z" fill="#2A3546"/>
<path d="M6 18H13V16H6V18Z" fill="#2A3546"/>
<path d="M17 15H6V13H17V15Z" fill="#2A3546"/>
<path fill-rule="evenodd" clip-rule="evenodd" d="M4 2C2.89543 2 2 2.89543 2 4V20C2 21.1046 2.89543 22 4 22H20C21.1046 22 22 21.1046 22 20V4C22 2.89543 21.1046 2 20 2H4ZM4 4L20 4V7.23381L16.5145 5.14251C16.1831 4.94368 15.7668 4.95359 15.4453 5.16795L9.69722 9H4V4ZM16.0282 7.18308L19.0563 9H13.3028L16.0282 7.18308ZM4 11V20H20V11H4Z" fill="#2A3546"/>
</svg>
