<svg width="16" height="18" viewBox="0 0 16 18" fill="none" xmlns="http://www.w3.org/2000/svg">
<path d="M12.8668 4.81862C12.0501 1.25196 7.71679 -0.198045 4.90012 2.06862C3.70012 3.03529 3.00012 4.45196 3.00012 5.98529H5.00012C5.00012 5.06862 5.41679 4.21862 6.13346 3.63529C7.86679 2.25196 10.4501 3.16862 10.9335 5.26862C11.3168 7.00196 10.2668 8.36862 9.01679 8.81862C7.80012 9.25196 7.00012 10.3186 7.00012 11.552V14.002H9.00012V11.552C9.00012 11.1853 9.26679 10.852 9.68346 10.702C12.0668 9.85196 13.4501 7.31862 12.8668 4.81862ZM8.00012 15.0186C7.45012 15.0186 7.00012 15.4686 7.00012 16.0186C7.00012 16.5686 7.45012 17.0186 8.00012 17.0186C8.56679 17.0186 9.00012 16.5686 9.00012 16.0186C9.00012 15.4686 8.56679 15.0186 8.00012 15.0186Z" fill="#2A3546"/>
</svg>
