<svg width="24" height="24" viewBox="0 0 24 24" fill="none" xmlns="http://www.w3.org/2000/svg">
<path d="M20 1.5H4C2.9 1.5 2 2.4 2 3.5V20.5C2 21.6 2.9 22.5 4 22.5H8V20.5H4V7.5H20V8.5H22V3.5C22 2.4 21.1 1.5 20 1.5ZM20 5.5H4V3.5H20V5.5ZM19.05 12.575L20.3 10.9L18.9 9.5L17 10.925C16.775 10.825 16.55 10.75 16.325 10.7L16 8.5H14L13.7 10.7C13.275 10.8 12.9 10.975 12.55 11.175L10.775 9.85L9.35 11.25L10.675 13.025C10.575 13.25 10.45 13.45 10.375 13.675L8 14V16L10.075 16.3C10.15 16.725 10.25 17.125 10.425 17.5L9 19.4L10.4 20.8L12.1 19.55C12.575 19.9 13.1 20.15 13.7 20.3L14 22.5H16L16.325 20.3C16.725 20.2 17.1 20.025 17.475 19.825L19.25 21.15L20.675 19.75L19.325 17.975C19.625 17.45 19.825 16.9 19.925 16.3L22 16V14L19.65 13.675C19.5 13.275 19.3 12.925 19.05 12.575ZM12 15.5C12 13.85 13.35 12.5 15 12.5C16.65 12.5 18 13.85 18 15.5C18 17.15 16.65 18.5 15 18.5C13.35 18.5 12 17.15 12 15.5ZM16 15.5C16 14.95 15.55 14.5 15 14.5C14.45 14.5 14 14.95 14 15.5C14 16.05 14.45 16.5 15 16.5C15.55 16.5 16 16.05 16 15.5Z" fill="#2A3546"/>
</svg>
