<svg width="24" height="22" viewBox="0 0 24 22" fill="none" xmlns="http://www.w3.org/2000/svg">
<path fill-rule="evenodd" clip-rule="evenodd" d="M23.7272 18.2441L13.8042 1.05023C13.4355 0.401066 12.7465 0 12 0C11.2535 0 10.5645 0.401066 10.1958 1.05023L0.272795 18.2441C-0.0938836 18.8866 -0.0907107 19.6758 0.281122 20.3153C0.652955 20.9549 1.33719 21.3481 2.07698 21.3473H21.923C22.6628 21.3481 23.347 20.9549 23.7189 20.3153C24.0907 19.6758 24.0939 18.8866 23.7272 18.2441ZM12.2526 19.1282C11.1167 19.1282 10.1958 18.2073 10.1958 17.0714C10.1958 15.9355 11.1167 15.0146 12.2526 15.0146C13.3885 15.0146 14.3094 15.9355 14.3094 17.0714C14.2995 18.2003 13.3815 19.1102 12.2526 19.1101V19.1282ZM12.9743 14.1486H11.4768L10.0876 7.96026C10.075 6.73872 11.016 5.71869 12.2345 5.63286C13.4517 5.68154 14.4103 6.68802 14.3996 7.90614L12.9743 14.1486Z" fill="#4A4A4A"/>
</svg>
