<svg width="24" height="24" viewBox="0 0 24 24" fill="none" xmlns="http://www.w3.org/2000/svg">
<g id="pictogram-queries-target">
<path id="picto-vector" fill-rule="evenodd" clip-rule="evenodd" d="M13 2V4.06189C16.6187 4.51314 19.4869 7.38128 19.9381 11H22V13H19.9381C19.4869 16.6187 16.6187 19.4869 13 19.9381V22H11V19.9381C7.38128 19.4869 4.51314 16.6187 4.06189 13H2V11H4.06189C4.51314 7.38128 7.38128 4.51314 11 4.06189V2H13ZM11 6.08296C8.4875 6.50448 6.50448 8.4875 6.08296 11H8V13H6.08296C6.50448 15.5125 8.4875 17.4955 11 17.917V16H13V17.917C15.5125 17.4955 17.4955 15.5125 17.917 13H16V11H17.917C17.4955 8.4875 15.5125 6.50448 13 6.08296V8H11V6.08296ZM10 12C10 10.8954 10.8954 10 12 10C13.1046 10 14 10.8954 14 12C14 13.1046 13.1046 14 12 14C10.8954 14 10 13.1046 10 12Z" fill="#2A3546"/>
</g>
</svg>
