<svg width="24" height="25" viewBox="0 0 24 25" fill="none" xmlns="http://www.w3.org/2000/svg">
<path fill-rule="evenodd" clip-rule="evenodd" d="M12 2.5C8.043 2.5 5.45478 3.69717 3.89815 5.69856C2.38105 7.64911 2 10.1723 2 12.5C2 14.8277 2.38105 17.3509 3.89815 19.3014C5.45478 21.3028 8.043 22.5 12 22.5C14.3003 22.5 16.1434 22.0978 17.5983 21.3535L16.6874 19.573C15.5857 20.1366 14.0747 20.5 12 20.5C8.457 20.5 6.54522 19.4472 5.47685 18.0736C4.36895 16.6491 4 14.6723 4 12.5C4 10.3277 4.36895 8.35089 5.47685 6.92644C6.54522 5.55283 8.457 4.5 12 4.5C15.543 4.5 17.4548 5.55283 18.5231 6.92644C19.6311 8.35089 20 10.3277 20 12.5V13.3766C20 14.1311 19.765 14.6165 19.4826 14.9237C19.19 15.2419 18.7895 15.4305 18.3722 15.4843C17.9457 15.5392 17.5695 15.4457 17.331 15.2887C17.1222 15.1513 17 14.9617 17 14.6654V7.5H15V8.2141C14.2252 7.74557 13.2275 7.5 12 7.5C10.1263 7.5 8.78812 8.07217 7.96065 9.13606C7.17272 10.1491 7 11.4223 7 12.5C7 13.5777 7.17272 14.8509 7.96065 15.8639C8.78812 16.9278 10.1263 17.5 12 17.5C13.5566 17.5 14.7436 17.1051 15.5753 16.3614C15.7604 16.5951 15.9828 16.7957 16.2315 16.9594C16.9305 17.4195 17.8043 17.574 18.6278 17.4679C19.4605 17.3606 20.31 16.9788 20.9549 16.2773C21.5875 15.5893 21.9729 14.6483 21.9986 13.5H22V12.5C22 10.1723 21.6189 7.64911 20.1019 5.69856C18.5452 3.69717 15.957 2.5 12 2.5ZM14.4606 10.3639C14.8394 10.8509 15 11.5777 15 12.5C15 13.4223 14.8394 14.1491 14.4606 14.6361C14.1214 15.0722 13.4597 15.5 12 15.5C10.5403 15.5 9.87855 15.0722 9.53935 14.6361C9.16061 14.1491 9 13.4223 9 12.5C9 11.5777 9.16061 10.8509 9.53935 10.3639C9.87855 9.92783 10.5403 9.5 12 9.5C13.4597 9.5 14.1214 9.92783 14.4606 10.3639Z" fill="#2A3546"/>
</svg>
