<svg width="24" height="24" viewBox="0 0 24 24" fill="none" xmlns="http://www.w3.org/2000/svg">
<path d="M19.5 2.49071C19.5 0.490709 16.5 0.540708 16.5 2.49071V2.99071H7.5V2.49071C7.5 0.490709 4.5 0.540708 4.5 2.49071V2.99071H3.5C2.4 2.99071 1.5 3.89071 1.5 4.99071V20.9907C1.5 22.1157 2.4 22.9907 3.5 22.9907H20.5C21.625 22.9907 22.5 22.1157 22.5 20.9907V4.99071C22.5 3.89071 21.625 2.99071 20.5 2.99071H19.5V2.49071ZM3.5 6.99071V4.99071H20.5V6.99071H3.5ZM3.5 20.9907V8.99071H20.5V20.9907H3.5ZM13.5 10.9907H10.5V13.9907H13.5V10.9907ZM18.5 10.9907H15.5V13.9907H18.5V10.9907ZM8.5 15.9907H5.5V18.9907H8.5V15.9907ZM13.5 15.9907H10.5V18.9907H13.5V15.9907ZM18.5 15.9907H15.5V18.9907H18.5V15.9907Z" fill="#2A3546"/>
</svg>
