<svg width="16" height="16" viewBox="0 0 16 16" fill="none" xmlns="http://www.w3.org/2000/svg">
<path d="M15.6833 11.6667L10.6833 1.66667C10.1833 0.683333 9.18333 0 8 0C6.83333 0 5.81667 0.683333 5.33333 1.66667L0.333333 11.6667C0.133333 12.0667 0 12.5167 0 13C0 14.65 1.35 16 3 16C4.18333 16 5.18333 15.3167 5.68333 14.3333L8.01667 9.7L10.3333 14.3333C10.8333 15.3167 11.8333 16 13 16C14.6667 16 16 14.65 16 13C16 12.5167 15.8833 12.0667 15.6833 11.6667ZM13 14C12.5667 14 12.25 13.7167 12.1167 13.45L7.11667 3.43333C7.05 3.28333 7 3.13333 7 3C7 2.45 7.45 2 8 2C8.45 2 8.75 2.28333 8.88333 2.55L13.9 12.5667C13.9667 12.7167 14 12.8667 14 13C14 13.55 13.5667 14 13 14ZM5.16667 10.9167C4.7 10.4333 4.06667 10.1167 3.36667 10.0333L5.78333 5.23333L6.9 7.46667L5.16667 10.9167ZM3 14C2.45 14 2 13.55 2 13C2 12.45 2.45 12 3 12C3.56667 12 4 12.45 4 13C4 13.55 3.56667 14 3 14Z" fill="#2A3546"/>
</svg>
