<svg width="24" height="24" viewBox="0 0 24 24" fill="none" xmlns="http://www.w3.org/2000/svg">
<path d="M18 5.99847H17C17 4.89847 16.2 3.99847 14.825 3.99847C13.85 1.32347 10.125 1.34847 9.175 3.99847C7.85 3.99847 7 4.84847 7 5.99847H6C4.9 5.99847 4 6.87347 4 7.99847V19.9985C4 21.0985 4.9 21.9985 6 21.9985H18C19.1 21.9985 20 21.0985 20 19.9985V7.99847C20 6.87347 19.1 5.99847 18 5.99847ZM9 5.99847H12C10.675 5.99847 10.675 3.99847 12 3.99847C13.325 3.99847 13.325 5.99847 12 5.99847H15V7.99847H9V5.99847ZM18 19.9985H6V7.99847H7V9.99847H17V7.99847H18V19.9985ZM12 13.9985H16V11.9985H12V13.9985ZM10 12.9985C10 11.6735 8 11.6735 8 12.9985C8 14.3235 10 14.3235 10 12.9985ZM12 17.9985H16V15.9985H12V17.9985ZM10 16.9985C10 15.6735 8 15.6735 8 16.9985C8 18.3235 10 18.3235 10 16.9985Z" fill="#2A3546"/>
</svg>
