<svg width="24" height="24" viewBox="0 0 24 24" fill="none" xmlns="http://www.w3.org/2000/svg">
<path fill-rule="evenodd" clip-rule="evenodd" d="M18.558 5.55395C18.8256 5.83001 18.9113 6.23508 18.7783 6.59587L13.8283 20.0259C13.6952 20.387 13.3667 20.6397 12.9835 20.6756C12.6003 20.7116 12.2305 20.5245 12.0325 20.1945L8.97621 15.1007L3.53012 11.6981C3.20175 11.493 3.02133 11.1167 3.06696 10.7322C3.11259 10.3477 3.37608 10.0241 3.74335 9.90148L17.5233 5.30148C17.8881 5.17973 18.2903 5.27788 18.558 5.55395ZM10.9692 14.535L12.6736 17.3757L15.3266 10.1776L10.9692 14.535ZM14.1346 8.54119L6.38983 11.1265L9.5653 13.1105L14.1346 8.54119Z" fill="#2A3546"/>
</svg>
