<svg width="16" height="18" viewBox="0 0 16 18" fill="none" xmlns="http://www.w3.org/2000/svg">
<path d="M14 2.98542H13V2.48542C13 0.502091 10 0.502091 10 2.48542V2.98542H6V2.48542C6 0.502091 3 0.502091 3 2.48542V2.98542H2C0.9 2.98542 0 3.88543 0 4.98542V15.0021C0 16.1021 0.9 17.0021 2 17.0021H14C15.1 17.0021 16 16.1021 16 15.0021V4.98542C16 3.88543 15.1 2.98542 14 2.98542ZM2 15.0021V5.98543H14V15.0021H2ZM7 9.98543H9V7.98543H7V9.98543ZM10 7.98543V9.98543H12V7.98543H10ZM4 12.9854H6V10.9854H4V12.9854ZM7 12.9854H9V10.9854H7V12.9854ZM10 12.9854H12V10.9854H10V12.9854Z" fill="#2A3546"/>
</svg>
