<svg width="16" height="16" viewBox="0 0 16 16" fill="none" xmlns="http://www.w3.org/2000/svg">
<path d="M8 0C3.58333 0 0 3.58333 0 8C0 12.4167 3.58333 16 8 16C12.4167 16 16 12.4167 16 8C16 3.58333 12.4167 0 8 0ZM5.68333 2.46667C5.16667 3.25 4.75 4.1 4.46667 5H2.81667C3.46667 3.86667 4.46667 2.96667 5.68333 2.46667ZM13.1833 5H11.5333C11.25 4.1 10.8333 3.25 10.3167 2.46667C11.5167 2.96667 12.5333 3.86667 13.1833 5ZM6.6 5C6.93333 4.16667 7.4 3.38333 8 2.71667C8.6 3.38333 9.06667 4.16667 9.4 5H6.6ZM2.08333 7H4.05C4 7.58333 4 8.41667 4.05 9H2.08333C1.98333 8.38333 1.96667 7.71667 2.08333 7ZM9.93333 7C10.0167 7.78333 10.0167 8.21667 9.93333 9H6.06667C5.98333 8.21667 5.98333 7.78333 6.06667 7H9.93333ZM13.9 9H11.95C12 8.41667 12 7.58333 11.95 7H13.9C14.0333 7.61667 14.0167 8.38333 13.9 9ZM2.81667 11H4.46667C4.75 11.9 5.16667 12.75 5.68333 13.5333C4.46667 13.0167 3.46667 12.1167 2.81667 11ZM8 13.2833C7.4 12.6 6.93333 11.8167 6.6 11H9.4C9.06667 11.8167 8.6 12.6 8 13.2833ZM10.3167 13.5333C10.8333 12.75 11.25 11.9 11.5333 11H13.1833C12.5333 12.1167 11.5167 13.0167 10.3167 13.5333Z" fill="#2A3546"/>
</svg>
