<svg width="16" height="16" viewBox="0 0 16 16" fill="none" xmlns="http://www.w3.org/2000/svg">
<path d="M14.1371 11.0483C15.4871 8.56492 15.2371 5.39825 13.2538 3.13158C10.6871 0.181583 6.17042 -0.0850834 3.30376 2.53158C0.520424 5.03158 0.237091 9.48158 2.68709 12.2983C4.58709 14.5316 7.72042 15.3316 10.4371 14.2816L13.3871 15.2316C14.0538 15.4149 14.8371 14.8983 14.6871 14.0983L14.1371 11.0483ZM12.0371 10.7149L12.4204 12.8149L10.3871 12.1649L9.73709 12.3983C7.77042 13.1483 5.55376 12.5983 4.20376 10.9983C2.45376 8.98158 2.67042 5.78158 4.63709 4.01492C6.68709 2.14825 9.93709 2.34825 11.7538 4.44825C13.1038 5.99825 13.3538 8.28158 12.3704 10.0983L12.0371 10.7149ZM4.98709 6.73158C4.43709 6.73158 3.98709 7.18158 3.98709 7.73158C3.98709 8.28158 4.43709 8.73158 4.98709 8.73158C5.53709 8.73158 5.98709 8.28158 5.98709 7.73158C5.98709 7.18158 5.53709 6.73158 4.98709 6.73158ZM7.98709 6.73158C7.43709 6.73158 6.98709 7.18158 6.98709 7.73158C6.98709 8.28158 7.43709 8.73158 7.98709 8.73158C8.53709 8.73158 8.98709 8.28158 8.98709 7.73158C8.98709 7.18158 8.53709 6.73158 7.98709 6.73158ZM10.9704 6.73158C10.4204 6.73158 9.97042 7.18158 9.97042 7.73158C9.97042 8.28158 10.4204 8.73158 10.9704 8.73158C11.5204 8.73158 11.9704 8.28158 11.9704 7.73158C11.9704 7.18158 11.5204 6.73158 10.9704 6.73158Z" fill="#2A3546"/>
</svg>
