<svg width="16" height="16" viewBox="0 0 16 16" fill="none" xmlns="http://www.w3.org/2000/svg">
<path d="M6.4 8.95324C6.86667 9.30324 7.55 9.16991 7.85 8.66991L10.9833 3.56991L13.4333 7.65324H16V5.65324H14.5667L11.85 1.13658C11.4667 0.486576 10.5333 0.486576 10.15 1.11991L6.71667 6.68658L5.33333 5.65324H2.15C2.58333 3.91991 4.13333 2.65324 6 2.65324C6.28333 2.65324 6.55 2.66991 6.81667 2.73658L7.9 0.953243C7.3 0.753243 6.66667 0.653242 6 0.653242C2.68333 0.653242 0 3.33658 0 6.65324C0 9.95324 2.68333 12.6532 6 12.6532C7.3 12.6532 8.5 12.2366 9.46667 11.5366L13.3 15.3532L14.7 13.9366L10.8833 10.1199C11.2 9.66991 11.4667 9.16991 11.65 8.65324L11 7.65324H9.85C9.41667 9.36991 7.85 10.6532 6 10.6532C4.13333 10.6532 2.58333 9.36991 2.15 7.65324H4.66667L6.4 8.95324Z" fill="#2A3546"/>
</svg>
