<svg width="16" height="16" viewBox="0 0 16 16" fill="none" xmlns="http://www.w3.org/2000/svg">
<path d="M15.0478 11.4927L13.9978 9.75935V7.75935C13.9978 5.10935 12.3478 2.72602 9.98116 1.85935C9.78116 -0.590649 6.21449 -0.590649 6.01449 1.85935C3.66449 2.67602 1.99783 4.89268 1.99783 7.50935V9.75935L0.947826 11.4927C0.547826 12.1594 0.997826 13.0094 1.78116 13.0094H4.76449C5.08116 16.9594 10.8978 16.976 11.2145 13.0094H14.1978C14.9812 13.0094 15.4645 12.1594 15.0478 11.4927ZM3.56449 11.0094C3.86449 10.5427 3.99783 10.2594 3.99783 9.75935V7.50935C3.99783 5.30935 5.78116 3.50935 7.99783 3.50935C10.2812 3.57602 11.9978 5.45935 11.9978 7.75935V9.75935C11.9978 10.2594 12.1145 10.5094 12.4145 11.0094H3.56449ZM9.19783 13.0094C8.88116 14.3594 7.06449 14.3094 6.79783 13.0094H9.19783Z" fill="#2A3546"/>
</svg>
