<svg width="16" height="16" viewBox="0 0 16 16" fill="none" xmlns="http://www.w3.org/2000/svg">
<path d="M4.5142 15.4526C3.93087 16.0359 2.98087 16.0359 2.39753 15.4526L0.597534 13.6526C0.0142008 13.0526 0.0142008 12.1026 0.597534 11.5193L4.99753 7.11926C4.49753 5.31926 5.03087 3.3026 6.4142 1.8026C7.9642 0.119262 10.4475 -0.330738 12.4475 0.552596L13.6975 1.2526L10.1642 4.78593L11.1975 5.9026L14.7142 2.28593L15.3809 3.58593C16.2809 5.7026 15.8309 8.01926 14.2642 9.58593C12.8309 11.0193 10.7642 11.5526 8.9142 11.0359L4.5142 15.4526ZM2.3642 12.5693L3.44753 13.6693L8.43087 8.68593C10.2142 9.4526 11.6142 9.4026 12.8475 8.16926C13.4309 7.58593 13.7642 6.83593 13.8142 6.03593L12.5642 7.28593C11.7975 8.0526 10.4809 8.08593 9.74753 7.28593L8.7142 6.1526C7.98087 5.3526 7.94753 4.16926 8.74753 3.36926L9.94753 2.16926C9.18087 2.2526 8.43087 2.6026 7.8642 3.18593C6.63087 4.46926 6.5142 5.73593 7.34753 7.6026L2.3642 12.5693Z" fill="#2A3546"/>
</svg>
