<svg width="16" height="17" viewBox="0 0 16 17" fill="none" xmlns="http://www.w3.org/2000/svg">
<path fill-rule="evenodd" clip-rule="evenodd" d="M8.48367 1.41089C9.03749 1.89214 9.78557 2.82938 10.5495 2.95364C11.3087 3.07713 12.3093 2.42498 12.9817 2.14407L14.2929 3.44438C14.0077 4.14351 13.365 5.1535 13.4861 5.93883C13.6065 6.71958 14.5221 7.48349 15.0031 8.05924L14.1556 9.69699C13.4291 9.63855 12.2796 9.33054 11.5959 9.68327C10.9012 10.0417 10.473 11.1654 10.0883 11.7996L8.31003 11.5184C8.06412 11.7717 7.79896 12.0448 7.52978 12.3219C6.47136 13.4114 5.33879 14.5755 5.08211 14.8322C4.74438 15.1702 4.38733 15.5001 3.875 15.5001C3.37546 15.5001 3.02048 15.1852 2.6901 14.8544L1.64567 13.81C1.31487 13.4796 1 13.1246 1 12.6251C1 12.1128 1.32987 11.7557 1.66789 11.418C1.91121 11.1747 3.02864 10.0262 4.09522 8.92829C4.41014 8.6041 4.71958 8.28541 4.9991 7.99743L4.74478 6.3935C5.3749 6.00136 6.48035 5.5641 6.83196 4.86538C7.22279 4.08874 6.89247 3.06669 6.83073 2.24011L8.48367 1.41089ZM11.5095 6.24362C11.433 5.74756 11.5055 5.27609 11.6394 4.80602C11.1812 4.93714 10.7172 5.0072 10.2284 4.9277C9.74373 4.84886 9.32793 4.63808 8.93636 4.37161C8.91826 4.85471 8.84169 5.32091 8.61851 5.76441C8.3905 6.21751 8.05343 6.55973 7.66743 6.86338C8.12453 7.03242 8.5481 7.25392 8.90181 7.61462C9.24622 7.96584 9.45927 8.38275 9.62142 8.8323C9.91294 8.45839 10.2437 8.13043 10.6789 7.90586C11.1238 7.67637 11.5912 7.59946 12.0727 7.58282C11.8004 7.17344 11.5866 6.74369 11.5095 6.24362ZM7.04112 8.76503C5.79174 10.0529 4.54485 11.3433 3.28789 12.6238L3.87363 13.2095C5.14202 11.9169 6.40058 10.6146 7.66157 9.31476C7.58881 9.15224 7.52697 9.06912 7.47382 9.01492C7.40758 8.94737 7.29724 8.86594 7.04112 8.76503Z" fill="#2A3546"/>
</svg>
