<svg width="16" height="16" viewBox="0 0 16 16" fill="none" xmlns="http://www.w3.org/2000/svg">
<path d="M16 9V7L13.8 6.45C13.6667 5.93333 13.4667 5.45 13.2 5L14.3667 3.05L12.95 1.63333L11 2.81667C10.55 2.55 10.0667 2.35 9.56667 2.21667L9 0H7L6.45 2.21667C5.95 2.35 5.46667 2.55 5.01667 2.81667L3.05 1.63333L1.65 3.05L2.81667 5C2.55 5.45 2.35 5.93333 2.21667 6.45L0 7V9L2.21667 9.55C2.35 10.0667 2.55 10.55 2.81667 11L1.65 12.95L3.05 14.3667L5.01667 13.2C5.46667 13.45 5.95 13.65 6.45 13.8L7 16H9L9.56667 13.8C10.0667 13.65 10.55 13.45 11 13.2L12.95 14.3667L14.3667 12.95L13.2 11C13.4667 10.55 13.6667 10.0667 13.8 9.55L16 9ZM4 8C4.01667 5.8 6 4 8 4C10.2167 4 12 5.8 12 8C12 10.2 10.2167 12 8 12C5.8 12 4.01667 10.2167 4 8ZM8 6C6.9 6 6 6.9 6 8C6 9.1 6.9 10 8 10C9.11667 10 10 9.1 10 8C10 6.9 9.11667 6 8 6Z" fill="#2A3546"/>
</svg>
