<svg width="16" height="17" viewBox="0 0 16 17" fill="none" xmlns="http://www.w3.org/2000/svg">
<path fill-rule="evenodd" clip-rule="evenodd" d="M3 2.5C3 1.39543 3.89543 0.5 5 0.5H11C12.1046 0.5 13 1.39543 13 2.5V4.5H14C15.1046 4.5 16 5.39543 16 6.5V10.5C16 11.6046 15.1046 12.5 14 12.5H13V14.5C13 15.6046 12.1046 16.5 11 16.5H5C3.89543 16.5 3 15.6046 3 14.5V12.5H2C0.89543 12.5 0 11.6046 0 10.5V6.5C0 5.39543 0.89543 4.5 2 4.5H3V2.5ZM3 10.5V9.5C3 8.39543 3.89543 7.5 5 7.5H11C12.1046 7.5 13 8.39543 13 9.5V10.5H14V6.5H2V10.5H3ZM11 2.5V4.5H5V2.5H11ZM5 9.5H11V14.5H5V9.5Z" fill="#2A3546"/>
</svg>
