<svg width="24" height="24" viewBox="0 0 24 24" fill="none" xmlns="http://www.w3.org/2000/svg">
<path fill-rule="evenodd" clip-rule="evenodd" d="M12.124 2.50791L20.124 3.50791C20.6244 3.57046 21 3.99577 21 4.50009V13.7852C21 16.7629 19.4347 18.8203 17.5889 20.1651C15.7679 21.4919 13.6193 22.1756 12.21 22.4776C12.0718 22.5072 11.9282 22.5072 11.79 22.4776C10.3807 22.1756 8.23213 21.4919 6.41113 20.1651C4.56527 18.8202 3 16.7629 3 13.7852V4.50009C3 3.99577 3.37555 3.57046 3.87598 3.50791L11.876 2.50791C11.9583 2.49761 12.0417 2.49761 12.124 2.50791ZM11 13.086L8.70703 10.7931L7.29297 12.2071L10.293 15.2071C10.6835 15.5976 11.3165 15.5976 11.707 15.2071L17.707 9.20712L16.293 7.79306L11 13.086Z" fill="#2A3546"/>
</svg>
