<svg width="16" height="16" viewBox="0 0 16 16" fill="none" xmlns="http://www.w3.org/2000/svg">
<path d="M14.2 0.182129H1.80002C1.01668 0.182129 0.533351 1.0488 0.950017 1.71546L4.85002 7.93213C4.95002 8.0988 5.00002 8.28213 5.00002 8.46546V14.8155C5.00002 15.4988 5.68335 15.9821 6.31668 15.7655L10.3167 14.4321C10.7167 14.2821 11 13.9155 11 13.4821V8.46546C11 8.28213 11.05 8.0988 11.15 7.93213L15.05 1.71546C15.4667 1.0488 14.9834 0.182129 14.2 0.182129ZM12.3834 2.18213L9.45002 6.88213C9.15002 7.3488 9.00002 7.8988 9.00002 8.46546V12.7321L7.00002 13.4155V8.46546C7.00002 7.8988 6.83335 7.3488 6.55002 6.88213L3.60002 2.18213H12.3834Z" fill="#2A3546"/>
</svg>
