<svg width="16" height="16" viewBox="0 0 16 16" fill="none" xmlns="http://www.w3.org/2000/svg">
<path fill-rule="evenodd" clip-rule="evenodd" d="M1 2C1 1.44772 1.44772 1 2 1H14C14.5523 1 15 1.44772 15 2V9.42857C15 11.709 13.7501 13.2707 12.3243 14.271C10.9208 15.2557 9.27468 15.758 8.20209 15.9794C8.06877 16.0069 7.93123 16.0069 7.79791 15.9794C6.72532 15.758 5.07924 15.2557 3.67567 14.271C2.24991 13.2707 1 11.709 1 9.42857V2ZM3 3V9.42857C3 10.8625 3.75009 11.8801 4.82433 12.6338C5.84353 13.3488 7.08522 13.7675 8 13.9767C8.91478 13.7675 10.1565 13.3488 11.1757 12.6338C12.2499 11.8801 13 10.8625 13 9.42857V3H3ZM11.8089 5.68322L8.20887 10.6356C8.03528 10.8744 7.76504 11.0243 7.47054 11.0451C7.17605 11.066 6.8874 10.9556 6.68193 10.7436L4.28193 8.2674L5.71807 6.87546L7.29039 8.49769L10.1911 4.50725L11.8089 5.68322Z" fill="#2A3546"/>
</svg>
