<svg width="16" height="16" viewBox="0 0 16 16" fill="none" xmlns="http://www.w3.org/2000/svg">
<path d="M8.41667 5C9.80001 5 10.9167 3.88333 10.9167 2.5C10.9167 1.11667 9.80001 0 8.41667 0C7.03334 0 5.91667 1.11667 5.91667 2.5C5.91667 3.88333 7.03334 5 8.41667 5ZM8.41667 2C8.70001 2 8.91667 2.23333 8.91667 2.5C8.91667 2.78333 8.70001 3 8.41667 3C8.13334 3 7.91667 2.78333 7.91667 2.5C7.91667 2.23333 8.13334 2 8.41667 2ZM12.2833 12.7333L10.9333 12.9L11.4167 7.9C11.5 7.28333 11.2667 6.68333 10.8167 6.28333C10.3667 5.86667 9.73334 5.71667 9.06668 5.88333L3.46667 7.71667L4.08334 9.61667L5.13334 9.26667L4.61667 13.9333C4.53334 14.5333 4.76667 15.1333 5.21668 15.5333C5.70001 15.95 6.30001 16.0833 6.93334 15.95L10.0667 15.0333L12.5333 14.7167L12.2833 12.7333ZM6.61668 13.95L7.21668 8.58333L9.41667 7.86667L8.90001 13.3L6.61668 13.95Z" fill="#2A3546"/>
</svg>
