<svg width="24" height="24" viewBox="0 0 24 24" fill="none" xmlns="http://www.w3.org/2000/svg">
<path d="M18 2H6C4.9 2 4 2.9 4 4V20C4 21.125 4.9 22 6 22H18C19.125 22 20 21.125 20 20V4C20 2.9 19.125 2 18 2ZM18 20H14.825C15.55 18.25 14.15 16 12 16C9.925 16 8.425 18.125 9.2 20H6V4H9.2C8.45 5.95 9.95 8 12 8C14.125 8 15.55 5.875 14.825 4H18V20ZM12 9C10.35 9 9 10.35 9 12C9 13.675 10.35 15 12 15C13.675 15 15 13.675 15 12C15 10.35 13.675 9 12 9ZM11 19C11 18.45 11.45 18 12 18C12.575 18 13 18.45 13 19C13 19.55 12.575 20 12 20C11.45 20 11 19.55 11 19Z" fill="#2A3546"/>
</svg>
