<svg width="24" height="24" viewBox="0 0 24 24" fill="none" xmlns="http://www.w3.org/2000/svg">
<path d="M11.9875 5.0374C11.9875 5.0374 5.73748 4.9874 4.18748 5.4624C3.36248 5.7124 2.66248 6.3624 2.46248 7.2124C2.08748 8.7624 2.03748 12.0124 2.03748 12.0124C2.03748 12.0124 2.06248 15.2624 2.46248 16.7874C2.68748 17.6374 3.36248 18.3374 4.18748 18.5374C5.78748 18.9374 11.9875 18.9624 11.9875 18.9624C11.9875 18.9624 18.2375 19.0124 19.7875 18.5374C20.6125 18.2874 21.3125 17.6624 21.5375 16.8124C21.9375 15.2624 21.9625 12.0124 21.9625 12.0124C21.9625 12.0124 21.9375 8.7624 21.5375 7.2124C21.3125 6.3624 20.6125 5.6624 19.7875 5.4874C18.2125 5.1624 11.9875 5.0374 11.9875 5.0374ZM10.0125 9.0124L15.1875 12.0124L10.0125 14.9874V9.0124Z" fill="#2A3546"/>
</svg>
