<svg width="24" height="25" viewBox="0 0 24 25" fill="none" xmlns="http://www.w3.org/2000/svg">
<path fill-rule="evenodd" clip-rule="evenodd" d="M12 2.5C9.79086 2.5 8 4.29086 8 6.5V11.5C8 13.7091 9.79086 15.5 12 15.5C14.2091 15.5 16 13.7091 16 11.5V6.5C16 4.29086 14.2091 2.5 12 2.5ZM10 6.5C10 5.39543 10.8954 4.5 12 4.5C13.1046 4.5 14 5.39543 14 6.5V11.5C14 12.6046 13.1046 13.5 12 13.5C10.8954 13.5 10 12.6046 10 11.5V6.5Z" fill="#2A3546"/>
<path d="M5.93335 10.4333C6.48563 10.4333 6.93335 10.8811 6.93335 11.4333C6.93335 14.1855 9.24788 16.5 12 16.5C14.7522 16.5 17.0667 14.1855 17.0667 11.4333C17.0667 10.8811 17.5144 10.4333 18.0667 10.4333C18.619 10.4333 19.0667 10.8811 19.0667 11.4333C19.0667 14.9511 16.3961 17.9309 13 18.4274V20.5H16V22.5H8V20.5H11V18.4274C7.60394 17.9308 4.93335 14.9511 4.93335 11.4333C4.93335 10.881 5.38106 10.4333 5.93335 10.4333Z" fill="#2A3546"/>
</svg>
