<svg width="16" height="17" viewBox="0 0 16 17" fill="none" xmlns="http://www.w3.org/2000/svg">
<path d="M8 10.5C10.2167 10.5 12 8.71667 12 6.5C12 4.28333 10.2167 2.5 8 2.5C5.8 2.5 4 4.28333 4 6.5C4 8.71667 5.8 10.5 8 10.5ZM8 4.5C9.1 4.5 10 5.4 10 6.5C10 7.6 9.1 8.5 8 8.5C6.9 8.5 6 7.6 6 6.5C6 5.4 6.9 4.5 8 4.5Z" fill="#2A3546"/>
<path d="M2.25469 16.5C3.51963 14.6865 5.62125 13.5 8 13.5C10.3787 13.5 12.4804 14.6865 13.7453 16.5H16C14.5273 13.5366 11.5337 11.5 8 11.5C4.46627 11.5 1.4727 13.5366 0 16.5H2.25469Z" fill="#2A3546"/>
</svg>
