<svg width="24" height="25" viewBox="0 0 24 25" fill="none" xmlns="http://www.w3.org/2000/svg">
<path d="M9 14.5C9 13.9477 9.44771 13.5 10 13.5H14C14.5523 13.5 15 13.9477 15 14.5C15 15.0523 14.5523 15.5 14 15.5H10C9.44771 15.5 9 15.0523 9 14.5Z" fill="#2A3546"/>
<path d="M10 17.5C9.44771 17.5 9 17.9477 9 18.5C9 19.0523 9.44771 19.5 10 19.5H14C14.5523 19.5 15 19.0523 15 18.5C15 17.9477 14.5523 17.5 14 17.5H10Z" fill="#2A3546"/>
<path fill-rule="evenodd" clip-rule="evenodd" d="M5 3.5C5 2.39543 5.89543 1.5 7 1.5H17C18.1046 1.5 19 2.39543 19 3.5V5.5H21C22.1046 5.5 23 6.39543 23 7.5V15.5C23 16.6046 22.1046 17.5 21 17.5H19V21.5C19 22.6046 18.1046 23.5 17 23.5H7C5.89543 23.5 5 22.6046 5 21.5V17.5H3C1.89543 17.5 1 16.6046 1 15.5V7.5C1 6.39543 1.89543 5.5 3 5.5H5V3.5ZM5 15.5V11.5C5 10.3954 5.89543 9.5 7 9.5H17C18.1046 9.5 19 10.3954 19 11.5V15.5H21V7.5H3V15.5H5ZM17 3.5V5.5H7V3.5H17ZM7 11.5H17V21.5H7V11.5Z" fill="#2A3546"/>
</svg>
