<svg width="24" height="24" viewBox="0 0 24 24" fill="none" xmlns="http://www.w3.org/2000/svg">
<path d="M12 2C8.32495 2 5.32495 4.975 5.32495 8.675C5.32495 15.325 12 22 12 22C12 22 18.675 15.325 18.675 8.675C18.675 4.975 15.675 2 12 2ZM12 18.975C10.2 16.775 7.32495 12.625 7.32495 8.675C7.32495 6.1 9.42495 4 12 4C14.575 4 16.6749 6.1 16.6749 8.675C16.6749 12.625 13.8 16.775 12 18.975ZM12 6C10.9 6 9.99995 6.9 9.99995 8C9.99995 9.1 10.9 10 12 10C13.1 10 14 9.1 14 8C14 6.9 13.1 6 12 6Z" fill="#2A3546"/>
</svg>
