<svg width="24" height="24" viewBox="0 0 24 24" fill="none" xmlns="http://www.w3.org/2000/svg">
<g id="pictogram-queries-brand">
<path id="picto-vector" fill-rule="evenodd" clip-rule="evenodd" d="M5.82782 5.3646C6.01777 5.13375 6.30105 5 6.6 5H17.4C17.6921 5 17.9696 5.12771 18.1596 5.34956L21.7596 9.55355C21.9147 9.73475 22 9.96544 22 10.204V11.25C22 11.5201 21.8907 11.7787 21.6971 11.967L12.6971 20.717C12.309 21.0943 11.691 21.0943 11.3029 20.717L2.30292 11.967C2.10926 11.7787 2 11.5201 2 11.25V10.375C2 10.1432 2.08053 9.9186 2.22782 9.7396L5.82782 5.3646ZM6.20061 8.05919L4.76479 9.80411L6.74769 9.79469L6.20061 8.05919ZM7.44754 11.7914L5.00335 11.803L9.15872 15.8429L7.44754 11.7914ZM14.8401 15.844L16.5695 11.7481L19.0654 11.7362L14.8401 15.844ZM19.282 9.73514L17.8128 8.01953L17.27 9.7447L19.282 9.73514ZM15.5052 8.68993L16.037 7H14.1163L15.5052 8.68993ZM9.89897 7H7.96374L8.50467 8.71599L9.89897 7ZM9.61426 11.7811L11.9998 17.4294L14.3942 11.7584L9.61426 11.7811ZM13.7968 9.7612L12.0044 7.58032L10.2186 9.7782L13.7968 9.7612Z" fill="#2A3546"/>
</g>
</svg>
