<svg width="16" height="17" viewBox="0 0 16 17" fill="none" xmlns="http://www.w3.org/2000/svg">
<path d="M4.79289 5.31045L6.58579 7.10334L4.79289 8.89623L6.20711 10.3104L8 8.51756L9.79289 10.3104L11.2071 8.89623L9.41421 7.10334L11.2071 5.31045L9.79289 3.89623L8 5.68913L6.20711 3.89623L4.79289 5.31045Z" fill="#2A3546"/>
<path d="M2 1.03491H14C15.1167 1.03491 16 1.93491 16 3.03491V11.0349C16 12.1349 15.1167 13.0349 14 13.0349H8L4.63333 15.7516C3.95 16.2682 3 15.7849 3 14.9682V13.0349H2C0.9 13.0349 0 12.1349 0 11.0349V3.03491C0 1.93491 0.9 1.03491 2 1.03491ZM2 3.03491V11.0349H5V12.8682L7.3 11.0349H14V3.03491H2Z" fill="#2A3546"/>
</svg>
