<svg width="24" height="24" viewBox="0 0 24 24" fill="none" xmlns="http://www.w3.org/2000/svg">
<path d="M22.7 9.2L22.075 3.675C21.975 2.725 21.175 2 20.2 2H3.79997C2.82497 2 2.02497 2.725 1.92497 3.675L1.29997 9.2C1.19997 10.075 1.47497 10.95 1.99997 11.65V20C1.99997 21.1 2.89997 22 3.99997 22H20C21.1 22 22 21.1 22 20V11.65C22.525 10.95 22.8 10.075 22.7 9.2ZM3.29997 9.425L3.89997 4H6.44997L6.12497 9.65C6.07497 10.4 5.44997 11 4.69997 11C3.87497 11 3.19997 10.25 3.29997 9.425ZM11 9.575C11 10.35 10.35 11 9.57497 11C8.82497 11 8.09997 10.4 8.14997 9.5L8.44997 4H11V9.575ZM13 4H15.55L15.85 9.5C15.9 10.325 15.25 11 14.425 11C13.65 11 13 10.35 13 9.575V4ZM20.7 9.425C20.8 10.275 20.125 11 19.3 11C18.525 11 17.925 10.4 17.875 9.65L17.55 4H20.1L20.7 9.425ZM3.99997 20V12.925C4.22497 12.975 4.47497 13 4.69997 13C5.64997 13 6.49997 12.6 7.12497 11.975C7.77497 12.625 8.64997 13 9.57497 13C10.525 13 11.375 12.6 12 11.975C12.625 12.6 13.475 13 14.425 13C15.35 13 16.225 12.625 16.875 11.975C17.475 12.6 18.35 13 19.3 13C19.525 13 19.775 12.975 20 12.925V20H3.99997Z" fill="#2A3546"/>
</svg>
