<svg width="24" height="24" viewBox="0 0 24 24" fill="none" xmlns="http://www.w3.org/2000/svg">
<path d="M21.2698 17.55L19.9948 15V11.5C19.9948 7.875 17.4698 4.975 13.9698 4.25C13.9698 2.775 13.2448 2 11.9948 2C10.8698 2 9.99478 2.775 10.0198 4.25C6.56978 5.125 3.99478 8.275 3.99478 12V15L2.71978 17.55C2.39478 18.225 2.86978 19 3.61978 19H8.14478C8.59478 20.725 10.1448 22 11.9948 22C13.8698 22 15.4198 20.725 15.8698 19H20.3948C21.1198 19 21.6198 18.225 21.2698 17.55ZM5.24478 17L5.79478 15.9C5.91978 15.625 5.99478 15.3 5.99478 15V12C5.99478 8.7 8.69478 6 11.9948 6C15.1698 6 17.9948 8.2 17.9948 11.5V15C17.9948 15.3 18.0698 15.625 18.2198 15.9L18.7698 17H5.24478ZM11.9948 20C11.2698 20 10.6198 19.6 10.2698 19H13.7198C13.3698 19.6 12.7448 20 11.9948 20Z" fill="#2A3546"/>
</svg>
