<svg width="24" height="24" viewBox="0 0 24 24" fill="none" xmlns="http://www.w3.org/2000/svg">
<path d="M20 20.5H4V14.5H8.15C8.6 16.225 10.15 17.5 12 17.5C13.85 17.5 15.4 16.225 15.85 14.5H18.175L16.35 16.325L17.75 17.75L22 13.5L17.75 9.25L16.35 10.675L18.175 12.5H15.85C15.4 10.775 13.85 9.5 12 9.5C10.15 9.5 8.6 10.775 8.15 12.5H4V7.5H20V9.5H22V3.5C22 2.4 21.1 1.5 20 1.5H4C2.9 1.5 2 2.4 2 3.5V20.5C2 21.6 2.9 22.5 4 22.5H20C21.1 22.5 22 21.6 22 20.5V18.5H20V20.5ZM4 3.5H20V5.5H4V3.5ZM12 11.5C13.1 11.5 14 12.4 14 13.5C14 14.6 13.1 15.5 12 15.5C10.9 15.5 10 14.6 10 13.5C10 12.4 10.9 11.5 12 11.5Z" fill="#2A3546"/>
</svg>
