<svg width="24" height="24" viewBox="0 0 24 24" fill="none" xmlns="http://www.w3.org/2000/svg">
    <path fill-rule="evenodd" clip-rule="evenodd" d="M20 1.48486C21.1 1.48486 22 2.38555 22 3.48584V20.5142C22 20.7283 21.9644 20.9346 21.9014 21.1284L18.0674 17.3071C19.3422 15.3817 19.1417 12.7312 17.417 11.0308C15.442 9.05533 12.2668 9.08066 10.3418 11.0562C8.39221 13.0067 8.41732 16.1825 10.3672 18.1079C12.0422 19.783 14.6671 20.0331 16.667 18.7329L20.416 22.4692C20.2816 22.498 20.1427 22.5151 20 22.5151H4C2.9 22.5151 2 21.6145 2 20.5142V3.48584C2 2.38555 2.9 1.48486 4 1.48486H20ZM4.4834 4V6.49365H19.4238V4H4.4834Z" fill="#2A3546"/>
    <path d="M11.7666 12.4556C12.9666 11.2553 14.7916 11.2559 16.0166 12.4312C17.1916 13.6064 17.1915 15.5068 16.0166 16.6821C14.8416 17.8571 12.9415 17.8317 11.7666 16.7065C10.6171 15.5312 10.5918 13.6307 11.7666 12.4556Z" fill="#2A3546"/>
</svg>
