<svg width="16" height="16" viewBox="0 0 16 16" fill="none" xmlns="http://www.w3.org/2000/svg">
<path fill-rule="evenodd" clip-rule="evenodd" d="M6.88177 1.1757L14.7993 11.7324L7.07501 12.9325L8.40295 13.9949C8.83421 14.3399 8.90413 14.9692 8.55912 15.4005C8.21411 15.8317 7.58482 15.9016 7.15356 15.5566L5.12152 13.931L4.94911 14.0517C4.0443 14.6853 2.79721 14.4654 2.16365 13.5606L1.0165 11.9223C0.382945 11.0175 0.602841 9.77037 1.50765 9.13681L2.96026 8.11968L6.88177 1.1757ZM7.11819 4.82426L4.4788 9.49794L2.6548 10.7751L3.80196 12.4134L5.63065 11.133L11.2007 10.2676L7.11819 4.82426Z" fill="#2A3546"/>
<path d="M11.0231 2.53135C11.3714 2.10272 11.3062 1.47291 10.8776 1.12464C10.449 0.776378 9.81915 0.84153 9.47088 1.27017L9.06463 1.77017C8.71637 2.1988 8.78152 2.82861 9.21016 3.17687C9.63879 3.52514 10.2686 3.45999 10.6169 3.03135L11.0231 2.53135Z" fill="#2A3546"/>
<path d="M13.9063 5.25674C14.3618 4.9444 14.4778 4.32197 14.1655 3.86648C13.8531 3.41099 13.2307 3.29495 12.7752 3.60728L11.6815 4.35728C11.226 4.66961 11.1099 5.29205 11.4223 5.74754C11.7346 6.20302 12.357 6.31907 12.8125 6.00674L13.9063 5.25674Z" fill="#2A3546"/>
<path d="M14.7065 9.00993C15.2327 8.84248 15.5236 8.28009 15.3562 7.7538C15.1887 7.22752 14.6263 6.93663 14.1 7.10408L13.4125 7.32283C12.8863 7.49029 12.5954 8.05268 12.7628 8.57896C12.9303 9.10525 13.4927 9.39614 14.019 9.22868L14.7065 9.00993Z" fill="#2A3546"/>
</svg>
