<svg width="24" height="24" viewBox="0 0 24 24" fill="none" xmlns="http://www.w3.org/2000/svg">
<path d="M13.25 2.72034C12.525 2.12034 11.475 2.14534 10.75 2.72034L2.75 9.12034C2.275 9.49534 2 10.0703 2 10.6703V19.7203C2 20.8203 2.9 21.7203 4 21.7203H10V14.7203C10 14.1703 10.45 13.7203 11 13.7203H13C13.55 13.7203 14 14.1703 14 14.7203V21.7203H20C21.1 21.7203 22 20.8203 22 19.7203V10.6703C22 10.0703 21.725 9.49534 21.25 9.12034L13.25 2.72034ZM12 4.27034L20 10.6703V19.7203H16V14.7203C16 13.0703 14.65 11.7203 13 11.7203H11C9.35 11.7203 8 13.0703 8 14.7203V19.7203H4V10.6703L12 4.27034Z" fill="#2A3546"/>
</svg>
