<svg width="24" height="24" viewBox="0 0 24 24" fill="none" xmlns="http://www.w3.org/2000/svg">
<path d="M20 16V13C20 11.35 18.65 10 17 10H13V8C14.1 8 15 7.1 15 6V4C15 2.9 14.1 2 13 2H11C9.9 2 9 2.9 9 4V6C9 7.1 9.9 8 11 8V10H7C5.35 10 4 11.35 4 13V16C2.9 16 2 16.9 2 18V20C2 21.1 2.9 22 4 22H6C7.1 22 8 21.1 8 20V18C8 16.9 7.1 16 6 16V13C6 12.45 6.45 12 7 12H11V16C9.9 16 9 16.9 9 18V20C9 21.1 9.9 22 11 22H13C14.1 22 15 21.1 15 20V18C15 16.9 14.1 16 13 16V12H17C17.55 12 18 12.45 18 13V16C16.9 16 16 16.9 16 18V20C16 21.1 16.9 22 18 22H20C21.1 22 22 21.1 22 20V18C22 16.9 21.1 16 20 16ZM11 4H13V6H11V4ZM6 20H4V18H6V20ZM13 20H11V18H13V20ZM20 20H18V18H20V20Z" fill="#2A3546"/>
</svg>
