<svg width="24" height="24" viewBox="0 0 24 24" fill="none" xmlns="http://www.w3.org/2000/svg">
<g id="pictogram-queries-discovery">
<g id="picto-vector">
<path fill-rule="evenodd" clip-rule="evenodd" d="M19.8944 2.55279C19.725 2.214 19.3788 2 19 2C18.6212 2 18.275 2.214 18.1056 2.55279L17.2546 4.25464L15.5528 5.10557C15.214 5.27496 15 5.62123 15 6C15 6.37877 15.214 6.72504 15.5528 6.89443L17.2546 7.74536L18.1056 9.44721C18.275 9.786 18.6212 10 19 10C19.3788 10 19.725 9.786 19.8944 9.44721L20.7454 7.74536L22.4472 6.89443C22.786 6.72504 23 6.37877 23 6C23 5.62123 22.786 5.27496 22.4472 5.10557L20.7454 4.25464L19.8944 2.55279ZM18.8944 5.44721L19 5.23607L19.1056 5.44721C19.2023 5.64074 19.3593 5.79766 19.5528 5.89443L19.7639 6L19.5528 6.10557C19.3593 6.20234 19.2023 6.35926 19.1056 6.55279L19 6.76393L18.8944 6.55279C18.7977 6.35926 18.6407 6.20234 18.4472 6.10557L18.2361 6L18.4472 5.89443C18.6407 5.79766 18.7977 5.64074 18.8944 5.44721Z" fill="#2A3546"/>
<path fill-rule="evenodd" clip-rule="evenodd" d="M17.6118 12.8653L12.8425 5.23287L11.1464 6.29271L11.6765 7.14096L4.37926 11.7008C4.15434 11.8413 3.99447 12.0655 3.93481 12.3239C3.87515 12.5823 3.92059 12.8538 4.06113 13.0787L4.1747 13.2605L2.42614 14.3531C1.95777 14.6458 1.81534 15.2627 2.10801 15.7311L3.69776 18.2752C3.83831 18.5002 4.06244 18.66 4.32086 18.7197C4.57928 18.7793 4.85082 18.7339 5.07573 18.5934L6.84382 17.4885C7.16511 17.8176 7.68272 17.8908 8.0887 17.6371L8.51732 17.3693L6.94385 22H9.05615L11.199 15.6936L11.9454 15.2272L14.9085 22H17.0915L13.6597 14.1559L15.3859 13.0773L15.9157 13.9251L17.6118 12.8653ZM6.28715 12.867L12.7361 8.83721L14.3258 11.3814L7.87691 15.4111L6.28715 12.867ZM4.33402 15.5193L5.18207 14.9894L5.71199 15.8374L4.86394 16.3673L4.33402 15.5193Z" fill="#2A3546"/>
</g>
</g>
</svg>
