<svg width="24" height="24" viewBox="0 0 24 24" fill="none" xmlns="http://www.w3.org/2000/svg">
<g clip-path="url(#clip0_1445_63094)">
<path fill-rule="evenodd" clip-rule="evenodd" d="M21.2351 13.1792C21.6331 12.7814 22.0625 12.3558 22.0625 11.75C22.0625 11.1442 21.6331 10.7186 21.2351 10.3208L19.6792 8.76494C19.2813 8.36687 18.8558 7.93751 18.25 7.93751C17.6442 7.93751 17.2187 8.36685 16.8209 8.76492C14.2055 11.3803 8.22134 17.3644 8 17.5858V22L12.4142 22C12.6353 21.7789 18.6198 15.7944 21.2351 13.1792ZM18.25 10.1642L16.9142 11.5L18.5 13.0858L19.8358 11.75L18.25 10.1642ZM17.0858 14.5L15.5 12.9142L10 18.4142V20L11.5858 20L17.0858 14.5Z" fill="#8699B6"/>
<path fill-rule="evenodd" clip-rule="evenodd" d="M7 2H6C6 4.5 4.5 6 2 6V7C4.5 7 6 8.5 6 11H7C7 8.5 8.5 7 11 7V6C8.5 6 7 4.5 7 2ZM6.5 6.97867C6.64847 6.80621 6.80621 6.64848 6.97867 6.5C6.80621 6.35153 6.64848 6.19379 6.5 6.02133C6.35153 6.19379 6.19379 6.35153 6.02133 6.5C6.19379 6.64848 6.35153 6.80621 6.5 6.97867Z" fill="#8699B6"/>
<path d="M18 4V5C16.4439 5 16 5.44386 16 7H15C15 5.44386 14.5561 5 13 5V4C14.5561 4 15 3.55614 15 2H16C16 3.55614 16.4439 4 18 4Z" fill="#8699B6"/>
</g>
<defs>
<clipPath id="clip0_1445_63094">
<rect width="24" height="24" fill="white"/>
</clipPath>
</defs>
</svg>
