<svg width="16" height="16" viewBox="0 0 16 16" fill="none" xmlns="http://www.w3.org/2000/svg">
<path d="M8 11C6.35 11 5 9.65 5 8C5 6.35 6.35 5 8 5C8.83333 5 9.58333 5.33333 10.1167 5.88333L11.5333 4.46667C10.6333 3.56667 9.38333 3 8 3C5.58333 3 3.56667 4.71667 3.1 7H0V9H3.1C3.56667 11.2833 5.58333 13 8 13C9.38333 13 10.6333 12.45 11.5333 11.5333L10.1167 10.1167C9.58333 10.6667 8.83333 11 8 11ZM9.71667 7C9.38333 6.4 8.73333 6 8 6C6.9 6 6 6.9 6 8C6 9.1 6.9 10 8 10C8.73333 10 9.38333 9.6 9.71667 9H16V7H9.71667Z" fill="#2A3546"/>
</svg>
