<svg width="16" height="16" viewBox="0 0 16 16" fill="none" xmlns="http://www.w3.org/2000/svg">
<path d="M2.69163 1C1.74163 1 1.0083 1.73333 1.0083 2.68333C1.0083 3.63333 1.74163 4.36667 2.67497 4.36667C3.62497 4.36667 4.37497 3.63333 4.37497 2.7C4.37497 1.75 3.62497 1 2.69163 1ZM14.9916 9.81667C14.9916 7.93333 14.6416 6.36667 13.2916 5.73333C11.6583 5 9.77497 5.3 8.7583 6.9V5.83333C8.7583 5.68333 8.72497 5.61667 8.54163 5.61667H6.14163C5.9583 5.61667 5.92497 5.68333 5.92497 5.86667V14.75C5.92497 14.9167 5.97497 15 6.14163 15H8.64163C8.82497 15 8.87497 14.9333 8.87497 14.75V10.2833C8.87497 9.1 9.1083 8.28333 10.0083 8.03333C11.5416 7.65 12.0416 8.55 12.0416 10.1333V14.75C12.0416 14.9167 12.0916 15 12.275 15H14.7583C14.925 15 14.9916 14.9333 14.9916 14.7667V9.81667ZM3.9583 5.61667H1.4583C1.2583 5.61667 1.22497 5.68333 1.22497 5.85V14.7833C1.22497 14.9167 1.2583 15 1.42497 15L3.97497 14.9833C4.12497 15 4.17497 14.9333 4.17497 14.7833V5.81667C4.17497 5.66667 4.1083 5.61667 3.9583 5.61667Z" fill="#2A3546"/>
</svg>
