<svg width="16" height="16" viewBox="0 0 16 16" fill="none" xmlns="http://www.w3.org/2000/svg">
<path d="M13 10C12.1833 10 11.45 10.3167 10.9167 10.85L5.95 8.36667C5.96667 8.25 5.96667 7.75 5.95 7.63333L10.9167 5.15C11.45 5.68333 12.1833 6 13 6C14.65 6 16 4.65 16 3C16 1.35 14.65 0 13 0C11.3333 0 10 1.35 10 3C10 3.11667 10.0167 3.25 10.0333 3.36667L5.06667 5.85C4.53333 5.31667 3.8 5 3 5C1.33333 5 0 6.35 0 8C0 9.65 1.33333 11 3 11C3.8 11 4.53333 10.6833 5.06667 10.15L10.0333 12.6333C9.78333 14.4 11.2 16 13 16C14.65 16 16 14.65 16 13C16 11.35 14.65 10 13 10ZM13 2C13.55 2 14 2.45 14 3C14 3.55 13.55 4 13 4C12.4333 4 12 3.55 12 3C12 2.45 12.4333 2 13 2ZM3 9C2.45 9 2 8.55 2 8C2 7.45 2.45 7 3 7C3.55 7 4 7.45 4 8C4 8.55 3.55 9 3 9ZM13 14C12.4333 14 12 13.55 12 13C12 12.45 12.4333 12 13 12C13.55 12 14 12.45 14 13C14 13.55 13.55 14 13 14Z" fill="#2A3546"/>
</svg>
