<svg width="16" height="16" viewBox="0 0 16 16" fill="none" xmlns="http://www.w3.org/2000/svg">
<path d="M13.6646 3.75015L12.2479 2.35016C11.1146 1.21682 9.23125 1.13349 8.01459 2.35016L7.68125 2.68349L9.08125 4.08349L9.41459 3.75015C9.81459 3.38349 10.4479 3.36682 10.8313 3.75015L12.2479 5.16682C12.6479 5.56682 12.6479 6.20016 12.2479 6.58349L9.83125 9.00016C9.46459 9.38349 8.79792 9.38349 8.41459 9.00016L7.01459 7.58349L5.59792 9.00016L7.01459 10.4168C8.19792 11.6002 10.0646 11.6002 11.2479 10.4168L13.6646 8.00016C14.8313 6.83349 14.8313 4.93349 13.6646 3.75015ZM6.59792 12.2502C6.19792 12.6335 5.56459 12.6335 5.18125 12.2502L3.76459 10.8335C3.36459 10.4002 3.36459 9.81682 3.76459 9.41682L6.18125 7.00016C6.56459 6.61682 7.21459 6.61682 7.59792 7.00016L9.01459 8.41682L10.4146 7.00016L9.01459 5.58349C7.88125 4.45015 5.89792 4.45015 4.76459 5.58349L2.34792 8.00016C1.16459 9.18349 1.16459 11.0668 2.34792 12.2502L3.76459 13.6502C4.91459 14.8335 6.84792 14.8168 8.01459 13.6502L8.34792 13.3168L6.93125 11.9168L6.59792 12.2502Z" fill="#2A3546"/>
</svg>
