<svg width="16" height="17" viewBox="0 0 16 17" fill="none" xmlns="http://www.w3.org/2000/svg">
<path fill-rule="evenodd" clip-rule="evenodd" d="M11 2.5H10C10 5 8.5 6.5 6 6.5V7.5C8.5 7.5 10 9 10 11.5H11C11 9 12.5 7.5 15 7.5V6.5C12.5 6.5 11 5 11 2.5ZM10.5 7.47867C10.6485 7.30621 10.8062 7.14848 10.9787 7C10.8062 6.85153 10.6485 6.69379 10.5 6.52133C10.3515 6.69379 10.1938 6.85153 10.0213 7C10.1938 7.14848 10.3515 7.30621 10.5 7.47867Z" fill="#2A3546"/>
<path d="M6 3.5V4.5C4.44386 4.5 4 4.94386 4 6.5H3C3 4.94386 2.55614 4.5 1 4.5V3.5C2.55614 3.5 3 3.05614 3 1.5H4C4 3.05614 4.44386 3.5 6 3.5Z" fill="#2A3546"/>
<path d="M8 11.5V12.5C6 12.5 5 13.5 5 15.5H4C4 13.5 3 12.5 1 12.5V11.5C3 11.5 4 10.5 4 8.5H5C5 10.5 6 11.5 8 11.5Z" fill="#2A3546"/>
</svg>
