<svg width="24" height="24" viewBox="0 0 24 24" fill="none" xmlns="http://www.w3.org/2000/svg">
<path d="M22 11.925C22 6.475 17.6 2 12.025 2C6.55 2 2.1 6.45 2.1 11.925C2.1 13.65 2.55 15.375 3.425 16.85L2 22L7.275 20.625C8.725 21.4 10.375 21.825 12.025 21.825C17.525 21.825 22 17.375 22 11.925ZM12.025 20.125C10.575 20.125 9.125 19.7 7.85 19L7.525 18.825L4.375 19.65L5.225 16.6L5 16.275C4.175 15.025 3.775 13.45 3.775 11.925C3.775 7.375 7.5 3.675 12.025 3.675C16.6 3.675 20.3 7.35 20.3 11.925C20.3 16.45 16.6 20.125 12.025 20.125ZM16.575 13.975C16.325 13.85 15.1 13.25 14.875 13.175C14.65 13.1 14.475 13.025 14.3 13.3C14.15 13.55 13.7 14.1 13.55 14.275C13.4 14.475 13.25 14.45 13 14.325C12.75 14.225 11.95 13.925 11.025 13.1C10.25 12.45 9.725 11.625 9.6 11.375C9.475 11.15 9.575 11 9.725 10.875C9.825 10.775 9.95 10.6 10.1 10.45C10.225 10.3 10.25 10.225 10.325 10.05C10.4 9.875 10.375 9.725 10.3 9.6C10.25 9.5 9.725 8.275 9.55 7.75C9.375 7.275 9.15 7.35 9 7.35H8.5C8.35 7.35 8.1 7.4 7.875 7.65C7.625 7.9 7 8.475 7 9.725C7 10.925 7.9 12.075 8 12.275C8.1 12.45 9.725 14.95 12.25 16C13.35 16.475 14.2 16.775 15.225 16.625C15.725 16.55 16.7 16.025 16.9 15.45C17.125 14.875 17.125 14.375 17.05 14.275C16.975 14.2 16.825 14.1 16.575 13.975Z" fill="#2A3546"/>
</svg>
