<svg width="16" height="16" viewBox="0 0 16 16" fill="none" xmlns="http://www.w3.org/2000/svg">
<path fill-rule="evenodd" clip-rule="evenodd" d="M3.30359 2.53129C6.17026 -0.0853145 10.6871 0.1819 13.2538 3.13188C15.2368 5.39839 15.4872 8.5647 14.1376 11.0479L14.6874 14.0987C14.837 14.8983 14.054 15.4145 13.3876 15.2315L10.4374 14.2813C7.72071 15.3313 4.58738 14.5312 2.68738 12.2979C0.237442 9.48123 0.520278 5.03127 3.30359 2.53129ZM4.98718 6.73149C4.43722 6.73149 3.98724 7.18154 3.98718 7.73149C3.98718 8.28149 4.43718 8.73149 4.98718 8.73149C5.53714 8.73144 5.98718 8.28146 5.98718 7.73149C5.98712 7.18157 5.53711 6.73154 4.98718 6.73149ZM7.98718 6.73149C7.43722 6.73149 6.98724 7.18154 6.98718 7.73149C6.98718 8.28149 7.43718 8.73149 7.98718 8.73149C8.53714 8.73144 8.98718 8.28146 8.98718 7.73149C8.98712 7.18157 8.53711 6.73154 7.98718 6.73149ZM10.9706 6.73149C10.4206 6.73149 9.97064 7.18154 9.97058 7.73149C9.97058 8.28149 10.4206 8.73149 10.9706 8.73149C11.5205 8.7314 11.9706 8.28144 11.9706 7.73149C11.9705 7.18159 11.5205 6.73158 10.9706 6.73149Z" fill="#2A3546"/>
</svg>
