<svg width="24" height="24" viewBox="0 0 24 24" fill="none" xmlns="http://www.w3.org/2000/svg">
<path d="M8 6.5C8 7.32843 7.32843 8 6.5 8C5.67157 8 5 7.32843 5 6.5C5 5.67157 5.67157 5 6.5 5C7.32843 5 8 5.67157 8 6.5Z" fill="#2A3546"/>
<path d="M11 14V12H5V14H11Z" fill="#2A3546"/>
<path fill-rule="evenodd" clip-rule="evenodd" d="M4 2C2.89543 2 2 2.89543 2 4V16C2 17.1046 2.89543 18 4 18H16C17.1046 18 18 17.1046 18 16V4C18 2.89543 17.1046 2 16 2H4ZM14.5858 9L13 7.41421L11.4142 9H14.5858ZM16 7.58579V4L4 4V9H8.58579L12.2929 5.29289C12.6834 4.90237 13.3166 4.90237 13.7071 5.29289L16 7.58579ZM16 11H4V16H16V11Z" fill="#2A3546"/>
<path d="M6 20V19H8V20H20V8H19V6H20C21.1046 6 22 6.89543 22 8V20C22 21.1046 21.1046 22 20 22H8C6.89543 22 6 21.1046 6 20Z" fill="#2A3546"/>
</svg>
