<svg width="24" height="24" viewBox="0 0 24 24" fill="none" xmlns="http://www.w3.org/2000/svg">
<path d="M8.28751 20.1125C15.8375 20.1125 19.9625 13.8625 19.9625 8.43745C19.9625 8.26245 19.9625 8.08745 19.9375 7.91245C20.7375 7.33745 21.4375 6.61245 21.9875 5.81245C21.2375 6.13745 20.4375 6.33745 19.6375 6.46245C20.4625 5.93745 21.0875 5.13745 21.4375 4.16245C20.6375 4.66245 19.7375 4.98745 18.8375 5.16245C18.0875 4.38745 17.0125 3.88745 15.8375 3.88745C13.5625 3.88745 11.7125 5.73745 11.7125 7.96245C11.7125 8.28745 11.7625 8.61245 11.8375 8.91245C8.43751 8.73745 5.41251 7.11245 3.38751 4.63745C3.03751 5.23745 2.86251 5.93745 2.86251 6.68745C2.86251 8.11245 3.56251 9.36245 4.66251 10.1125C3.96251 10.0875 3.36251 9.88745 2.81251 9.58745V9.63745C2.81251 11.6375 4.23751 13.2625 6.08751 13.6375C5.63751 13.8125 4.88751 13.8625 4.26251 13.7375C4.73751 15.3625 6.28751 16.5375 8.06251 16.5875C6.38751 17.9125 4.11251 18.5375 2.01251 18.2625C3.83751 19.4375 5.96251 20.1125 8.28751 20.1125Z" fill="#2A3546"/>
</svg>
