<svg width="24" height="24" viewBox="0 0 24 24" fill="none" xmlns="http://www.w3.org/2000/svg">
<path fill-rule="evenodd" clip-rule="evenodd" d="M15.3539 4.08315L21.6039 16.5832C21.8539 17.0832 21.9998 17.6457 21.9998 18.2498C21.9998 20.3123 20.3331 21.9998 18.2498 21.9998C16.7914 21.9998 15.5414 21.1457 14.9164 19.9165L7.83185 5.7523L8.66642 4.08315C9.27059 2.85398 10.5414 1.99982 11.9998 1.99982C13.4789 1.99982 14.7289 2.85398 15.3539 4.08315ZM6.43441 8.54718L2.41642 16.5832C2.16642 17.0832 1.99976 17.6457 1.99976 18.2498C1.99976 20.3123 3.68726 21.9998 5.74976 21.9998C7.22892 21.9998 8.47892 21.1457 9.10392 19.9165L10.6182 16.9096L6.43441 8.54718ZM4.49976 18.2498C4.49976 18.9373 5.06226 19.4998 5.74976 19.4998C6.45809 19.4998 6.99976 18.9373 6.99976 18.2498C6.99976 17.5623 6.45809 16.9998 5.74976 16.9998C5.06226 16.9998 4.49976 17.5623 4.49976 18.2498Z" fill="#2A3546"/>
</svg>
