<svg width="16" height="16" viewBox="0 0 16 16" fill="none" xmlns="http://www.w3.org/2000/svg">
<path d="M16 7H14.4167C13.9833 4.21667 11.7833 2.01667 9 1.58333V0H7V1.58333C4.2 2.01667 2.01667 4.21667 1.58333 7H0V9H1.58333C2.01667 11.7833 4.2 13.9833 7 14.4167V16H9V14.4167C11.7833 13.9833 13.9833 11.7833 14.4167 9H16V7ZM8 12.5C5.51667 12.5 3.5 10.4833 3.5 8C3.5 5.51667 5.51667 3.5 8 3.5C10.4833 3.5 12.5 5.51667 12.5 8C12.5 10.4833 10.4833 12.5 8 12.5ZM8 6C6.88333 6 6 6.9 6 8C6 9.1 6.88333 10 8 10C9.1 10 10 9.1 10 8C10 6.9 9.1 6 8 6Z" fill="#2A3546"/>
</svg>
