<svg width="16" height="17" viewBox="0 0 16 17" fill="none" xmlns="http://www.w3.org/2000/svg">
<path fill-rule="evenodd" clip-rule="evenodd" d="M14.2293 9.68489C14.5601 9.35452 14.875 8.99953 14.875 8.5C14.875 8.00046 14.5601 7.64548 14.2293 7.31511L13.1849 6.27067C12.8545 5.93987 12.4995 5.625 12 5.625C11.5005 5.625 11.1455 5.93987 10.8151 6.27067L5 12.0858V15.5L8.41421 15.5L14.2293 9.68489ZM12 7.91422L7 12.9142V13.5H7.58579L12.5858 8.5L12 7.91422Z" fill="#2A3546"/>
<path d="M8 4.5V5.5C6 5.5 5 6.5 5 8.5H4C4 6.5 3 5.5 1 5.5V4.5C3 4.5 4 3.5 4 1.5H5C5 3.5 6 4.5 8 4.5Z" fill="#2A3546"/>
</svg>
