<svg width="16" height="16" viewBox="0 0 16 16" fill="none" xmlns="http://www.w3.org/2000/svg">
<path d="M8.5 10.5V12.5H3.5V10.5H8.5Z" fill="#2A3546"/>
<path d="M4.5 3C3.67157 3 3 3.67157 3 4.5C3 5.32843 3.67157 6 4.5 6C5.32843 6 6 5.32843 6 4.5C6 3.67157 5.32843 3 4.5 3Z" fill="#2A3546"/>
<path fill-rule="evenodd" clip-rule="evenodd" d="M16 1V5.98312C16.0002 5.99499 16.0002 6.00687 16 6.01876V15C16 15.5523 15.5523 16 15 16H1C0.447715 16 0 15.5523 0 15V1C0 0.447715 0.447715 0 1 0H15C15.5523 0 16 0.447715 16 1ZM2 9V14H14V9H6.01335C6.00501 9.0001 5.99667 9.0001 5.98834 9H2ZM14 7H9.12047L11.6528 5.19122L14 6.57195V7ZM12.107 3.13807L14 4.25158V2H2V7H5.67953L11.0188 3.18627C11.3402 2.95669 11.7666 2.93781 12.107 3.13807Z" fill="#2A3546"/>
</svg>
