<svg width="16" height="16" viewBox="0 0 16 16" fill="none" xmlns="http://www.w3.org/2000/svg">
<path d="M4.30472 15.3736C3.43805 16.0569 2.27139 15.2403 2.60472 14.2403L4.08805 9.79028L0.588054 7.19028C-0.278613 6.55695 0.154721 5.24028 1.17139 5.24028L5.58805 5.25695L6.97139 1.12361C7.30472 0.106947 8.65472 0.0736136 9.00472 1.07361L10.3881 5.25695L14.7547 5.24028C15.7547 5.24028 16.3214 6.50695 15.4381 7.15695L11.9047 9.79028L13.3547 14.1903C13.6881 15.1736 12.6047 16.1069 11.7214 15.4236L7.98805 12.5069L4.30472 15.3736ZM7.98805 9.97361L10.5047 11.9403L9.53805 9.05695L11.9714 7.25695H8.93806L7.98805 4.37361L7.02139 7.25695H4.00472L6.43805 9.05695L5.48805 11.9403L7.98805 9.97361Z" fill="#2A3546"/>
</svg>
