<svg width="16" height="17" viewBox="0 0 16 17" fill="none" xmlns="http://www.w3.org/2000/svg">
<path fill-rule="evenodd" clip-rule="evenodd" d="M8 0.5C4.87634 0.5 2.78812 1.44717 1.52315 3.07356C0.29772 4.64911 0 6.67233 0 8.5C0 10.3277 0.29772 12.3509 1.52315 13.9264C2.78812 15.5528 4.87634 16.5 8 16.5C9.81415 16.5 11.2846 16.1829 12.4554 15.5839L11.5446 13.8034C10.7269 14.2216 9.58858 14.5 8 14.5C5.29033 14.5 3.87855 13.6972 3.10185 12.6986C2.28561 11.6491 2 10.1723 2 8.5C2 6.82767 2.28561 5.35089 3.10185 4.30144C3.87855 3.30283 5.29033 2.5 8 2.5C10.7097 2.5 12.1214 3.30283 12.8981 4.30144C13.7144 5.35089 14 6.82767 14 8.5C14 9.49037 13.7785 10.035 13.575 10.3062C13.3889 10.5544 13.1852 10.625 13 10.625C12.5523 10.625 12 10.1977 12 9.5V4.5H10V4.87406C9.44065 4.62558 8.7721 4.5 8 4.5C6.543 4.5 5.45478 4.94717 4.77315 5.82356C4.13105 6.64911 4 7.67233 4 8.5C4 9.32767 4.13105 10.3509 4.77315 11.1764C5.45478 12.0528 6.543 12.5 8 12.5C9.18657 12.5 10.1285 12.2034 10.8055 11.62C11.3704 12.2471 12.1702 12.625 13 12.625C13.8148 12.625 14.6111 12.2581 15.175 11.5063C15.7215 10.7775 16 9.75963 16 8.5C16 6.67233 15.7023 4.64911 14.4769 3.07356C13.2119 1.44717 11.1237 0.5 8 0.5ZM9.64815 7.05144C9.88105 7.35089 10 7.82767 10 8.5C10 9.17233 9.88105 9.64911 9.64815 9.94856C9.45478 10.1972 9.043 10.5 8 10.5C6.957 10.5 6.54522 10.1972 6.35185 9.94856C6.11895 9.64911 6 9.17233 6 8.5C6 7.82767 6.11895 7.35089 6.35185 7.05144C6.54522 6.80283 6.957 6.5 8 6.5C9.043 6.5 9.45478 6.80283 9.64815 7.05144Z" fill="#2A3546"/>
</svg>
