<svg width="24" height="24" viewBox="0 0 24 24" fill="none" xmlns="http://www.w3.org/2000/svg">
<path fill-rule="evenodd" clip-rule="evenodd" d="M19 9V6C19 3.8 17.225 2 15 2H9C7.14126 2 5.56804 3.28489 5.1247 5.01034C4.98726 5.54525 5.44772 6 6 6V6C6.55229 6 6.97995 5.52543 7.24622 5.04157C7.58709 4.42215 8.24664 4 9 4H15C16.1 4 17 4.9 17 6V9H7H5C3.9 9 3 9.9 3 11V20C3 21.1 3.9 22 5 22H19C20.125 22 21 21.1 21 20V11C21 9.9 20.125 9 19 9ZM5 20H19V11H5V20Z" fill="#2A3546"/>
<path d="M11 16.225V17.5C11 18.05 11.45 18.5 12 18.5C12.55 18.5 13 18.05 13 17.5V16.225C13.6 15.875 14 15.25 14 14.5C14 13.4 13.125 12.5 12 12.5C10.9 12.5 10 13.4 10 14.5C10 15.25 10.425 15.875 11 16.225Z" fill="#2A3546"/>
</svg>
