<svg width="16" height="16" viewBox="0 0 16 16" fill="none" xmlns="http://www.w3.org/2000/svg">
<path fill-rule="evenodd" clip-rule="evenodd" d="M12.2472 3.75288C12.515 4.02071 12.6085 4.41688 12.4887 4.77622L9.65874 13.2662C9.53692 13.6317 9.216 13.8946 8.83372 13.9423C8.45145 13.9899 8.0758 13.8138 7.868 13.4894L5.77617 10.2238L2.5107 8.13201C2.18631 7.92422 2.01014 7.54857 2.05778 7.16629C2.10542 6.78402 2.36841 6.4631 2.73387 6.34128L11.2238 3.5113C11.5832 3.39153 11.9793 3.48505 12.2472 3.75288ZM7.77612 9.63811L8.4232 10.6483L9.95891 6.04113L5.3518 7.57683L6.36192 8.22389L6.42295 8.16286C6.81347 7.77234 7.44664 7.77234 7.83716 8.16286C8.22769 8.55339 8.22768 9.18655 7.83716 9.57708L7.77612 9.63811Z" fill="#2A3546"/>
</svg>
