<svg width="24" height="24" viewBox="0 0 24 24" fill="none" xmlns="http://www.w3.org/2000/svg">
<path d="M23.2594 4.39375L22.0844 3.21875C21.3094 2.46875 20.0094 2.46875 19.2594 3.21875L9.15936 13.3188V17.3188H13.1594L23.2594 7.21875C24.0344 6.44375 24.0344 5.16875 23.2594 4.39375ZM20.4344 7.21875L19.2594 6.04375L20.6594 4.64375L21.8344 5.81875L20.4344 7.21875ZM18.1594 19.3188H2.15936V13.3188H6.15936L10.3094 9.31875H2.15936V7.31875H12.3094L14.3094 5.31875H2.15936C1.05936 5.31875 0.159363 6.21875 0.159363 7.31875V19.3188C0.159363 20.4438 1.05936 21.3438 2.15936 21.3438H18.1594C19.2594 21.3438 20.1594 20.4438 20.1594 19.3188V13.3188L18.1594 15.3188V19.3188ZM12.3344 15.3188H11.1594V14.1438L17.8594 7.44375L19.0344 8.61875L12.3344 15.3188Z" fill="#2A3546"/>
</svg>
