<svg width="19" height="25" viewBox="0 0 19 25" fill="none" xmlns="http://www.w3.org/2000/svg">
<path d="M8.93916 22.625C8.87145 22.625 8.80309 22.6152 8.7362 22.5943C8.44079 22.5028 8.23912 22.2252 8.23912 21.9107V14.768H3.33914C3.08084 14.768 2.84351 14.623 2.72181 14.3906C2.6001 14.1583 2.61373 13.8766 2.75664 13.6576L9.75661 2.94349C9.92735 2.68108 10.2475 2.564 10.5419 2.65617C10.8375 2.74718 11.0392 3.02487 11.0392 3.33958V10.4823H15.9392C16.1975 10.4823 16.4348 10.6273 16.5565 10.8596C16.6782 11.092 16.6646 11.3737 16.5217 11.5927L9.5217 22.3068C9.38954 22.5089 9.1688 22.625 8.93916 22.625Z" fill="#3C28CC"/>
<path d="M1.91947 13.1106L1.91912 13.1112C1.57834 13.6335 1.5463 14.3017 1.83598 14.8547C2.12707 15.4104 2.70196 15.768 3.33914 15.768H7.23912V21.9107C7.23912 22.6522 7.7153 23.3243 8.43898 23.5491C8.60632 23.6013 8.77518 23.625 8.93916 23.625C9.50601 23.625 10.0416 23.3389 10.3587 22.8541L10.3589 22.8537L17.3588 12.1397L17.3592 12.1391C17.6999 11.6169 17.7321 10.9487 17.4423 10.3955C17.1512 9.83987 16.5763 9.4823 15.9392 9.4823H12.0392V3.33958C12.0392 2.5996 11.5647 1.92693 10.8407 1.70184C10.1102 1.47316 9.32944 1.76729 8.91902 2.39719C8.91882 2.3975 8.91862 2.3978 8.91842 2.39811L1.91947 13.1106Z" stroke="#8377E4" stroke-opacity="0.2" stroke-width="2"/>
</svg>