<svg width="24" height="25" viewBox="0 0 24 25" fill="none" xmlns="http://www.w3.org/2000/svg">
<path fill-rule="evenodd" clip-rule="evenodd" d="M7.55556 12.5H6.44444C6.44444 15.2778 4.77778 16.9444 2 16.9444V18.0556C4.77778 18.0556 6.44444 19.7222 6.44444 22.5H7.55556C7.55556 19.7222 9.22222 18.0556 12 18.0556V16.9444C9.22222 16.9444 7.55556 15.2778 7.55556 12.5ZM7 18.0319C7.16497 17.8402 7.34024 17.665 7.53186 17.5C7.34024 17.335 7.16497 17.1598 7 16.9681C6.83503 17.1598 6.65976 17.335 6.46815 17.5C6.65976 17.665 6.83503 17.8402 7 18.0319Z" fill="#2A3546"/>
<path d="M9 5.5V6.5C7 6.5 6 7.5 6 9.5H5C5 7.5 4 6.5 2 6.5V5.5C4 5.5 5 4.5 5 2.5H6C6 4.5 7 5.5 9 5.5Z" fill="#2A3546"/>
<path fill-rule="evenodd" clip-rule="evenodd" d="M16.5 3.5H14.5C14.5 7.5 13 9 9 9V11C13 11 14.5 12.5 14.5 16.5H16.5C16.5 12.5 18 11 22 11V9C18 9 16.5 7.5 16.5 3.5ZM15.5 11.2924C15.8758 10.8037 16.3037 10.3758 16.7924 10C16.3037 9.62425 15.8758 9.1963 15.5 8.70761C15.1242 9.1963 14.6963 9.62425 14.2076 10C14.6963 10.3758 15.1242 10.8037 15.5 11.2924Z" fill="#2A3546"/>
</svg>
