<svg width="16" height="16" viewBox="0 0 16 16" fill="none" xmlns="http://www.w3.org/2000/svg">
<path fill-rule="evenodd" clip-rule="evenodd" d="M10.6833 1.66667L15.6833 11.6667C15.8833 12.0667 16 12.5167 16 13C16 14.65 14.6667 16 13 16C11.8333 16 10.8333 15.3167 10.3333 14.3333L4.66567 3.00198L5.33333 1.66667C5.81667 0.683333 6.83333 0 8 0C9.18333 0 10.1833 0.683333 10.6833 1.66667ZM3.54772 5.23789L0.333333 11.6667C0.133333 12.0667 0 12.5167 0 13C0 14.65 1.35 16 3 16C4.18333 16 5.18333 15.3167 5.68333 14.3333L6.89476 11.9278L3.54772 5.23789ZM2 13C2 13.55 2.45 14 3 14C3.56667 14 4 13.55 4 13C4 12.45 3.56667 12 3 12C2.45 12 2 12.45 2 13Z" fill="#2A3546"/>
</svg>
