<svg width="16" height="16" viewBox="0 0 16 16" fill="none" xmlns="http://www.w3.org/2000/svg">
<path d="M12 0H4C2.9 0 2 0.900001 2 2V14C2 15.1 2.9 16 4 16H12C13.1 16 14 15.1 14 14V2C14 0.900001 13.1 0 12 0ZM12 14H10.8167C10.9333 13.6833 11 13.35 11 13C11 11.35 9.65 10 8 10C6.35 10 5 11.35 5 13C5 13.35 5.06667 13.6833 5.18333 14H4V2H6.28333C6.1 2.3 6 2.63333 6 3C6 4.1 6.9 5 8 5C9.1 5 10 4.1 10 3C10 2.63333 9.9 2.3 9.71667 2H12V14ZM8 5.5C6.9 5.5 6 6.4 6 7.5C6 8.6 6.9 9.5 8 9.5C9.1 9.5 10 8.6 10 7.5C10 6.4 9.1 5.5 8 5.5ZM7 13C7 12.45 7.45 12 8 12C8.55 12 9 12.45 9 13C9 13.55 8.55 14 8 14C7.45 14 7 13.55 7 13Z" fill="#2A3546"/>
</svg>
