<svg width="16" height="16" viewBox="0 0 16 16" fill="none" xmlns="http://www.w3.org/2000/svg">
<path d="M14.2 2.5H13L12 0.5H4L3 2.5H1.81667C0.816667 2.5 0 3.31667 0 4.31667V13.5C0 14.6 0.9 15.5 2 15.5H14C15.1167 15.5 16 14.6 16 13.5V4.31667C16 3.31667 15.2 2.5 14.2 2.5ZM14 13.5H2V4.5H4.25L5.25 2.5H10.7667L11.7667 4.5H14V13.5ZM8 4.5C5.8 4.5 4 6.28333 4 8.5C4 10.7167 5.8 12.5 8 12.5C10.2167 12.5 12 10.7167 12 8.5C12 6.28333 10.2167 4.5 8 4.5ZM8 10.5C6.9 10.5 6 9.6 6 8.5C6 7.4 6.9 6.5 8 6.5C9.11667 6.5 10 7.4 10 8.5C10 9.6 9.11667 10.5 8 10.5Z" fill="#2A3546"/>
</svg>
