<svg width="16" height="17" viewBox="0 0 16 17" fill="none" xmlns="http://www.w3.org/2000/svg">
<path d="M7 7.17517V3.98075H9V7.17517H7Z" fill="#2A3546"/>
<path d="M8 10.1752C8.55228 10.1752 9 9.72745 9 9.17517C9 8.62288 8.55228 8.17517 8 8.17517C7.44772 8.17517 7 8.62288 7 9.17517C7 9.72745 7.44772 10.1752 8 10.1752Z" fill="#2A3546"/>
<path d="M2 1.03491H14C15.1167 1.03491 16 1.93491 16 3.03491V11.0349C16 12.1349 15.1167 13.0349 14 13.0349H8L4.63333 15.7516C3.95 16.2682 3 15.7849 3 14.9682V13.0349H2C0.9 13.0349 0 12.1349 0 11.0349V3.03491C0 1.93491 0.9 1.03491 2 1.03491ZM2 3.03491V11.0349H5V12.8682L7.3 11.0349H14V3.03491H2Z" fill="#2A3546"/>
</svg>
