<svg width="16" height="16" viewBox="0 0 16 16" fill="none" xmlns="http://www.w3.org/2000/svg">
    <path d="M9 7.5C10.1001 7.5 11 8.40002 11 9.5C11 10.6 10.1001 11.5 9 11.5C7.8999 11.5 7 10.6 7 9.5C7 8.40002 7.8999 7.5 9 7.5Z" fill="#2A3546"/>
    <path fill-rule="evenodd" clip-rule="evenodd" d="M16 14C16 14.1742 15.978 14.3435 15.9355 14.5049L12.4502 11.5C12.7837 10.9167 13 10.2333 13 9.5C13 7.28333 11.2166 5.5 9 5.5C6.80005 5.5 5 7.28333 5 9.5C5 11.7167 6.80005 13.5 9 13.5C9.74988 13.5 10.4332 13.2835 11.0332 12.9336L14.5215 15.9307C14.3552 15.9758 14.1799 16 14 16H2C0.899902 16 0 15.1 0 14V2C0 0.900024 0.899902 0 2 0H14C15.0913 0 16 0.908813 16 2V14ZM14 4V2H2V4H14Z" fill="#2A3546"/>
</svg>
