<svg width="16" height="17" viewBox="0 0 16 17" fill="none" xmlns="http://www.w3.org/2000/svg">
<path fill-rule="evenodd" clip-rule="evenodd" d="M7.99988 0.5C6.34302 0.5 4.99988 1.84315 4.99988 3.5V7.5C4.99988 9.15685 6.34302 10.5 7.99988 10.5C9.65673 10.5 10.9999 9.15685 10.9999 7.5V3.5C10.9999 1.84315 9.65673 0.5 7.99988 0.5ZM6.99988 3.5C6.99988 2.94772 7.44759 2.5 7.99988 2.5C8.55216 2.5 8.99988 2.94772 8.99988 3.5V7.5C8.99988 8.05229 8.55216 8.5 7.99988 8.5C7.44759 8.5 6.99988 8.05229 6.99988 7.5V3.5Z" fill="#2A3546"/>
<path d="M4 7.49934C4 6.94706 3.55228 6.49934 3 6.49934C2.44772 6.49934 2 6.94706 2 7.49934C2 9.22659 2.58011 10.7437 3.66788 11.8314C4.54018 12.7038 5.68853 13.2496 6.99995 13.4316L6.99998 14.4993H5V16.4993H11V14.4993H8.99998L8.99995 13.4316C10.3114 13.2496 11.4598 12.7038 12.3321 11.8315C13.4199 10.7437 14 9.22659 14 7.49934C14 6.94706 13.5523 6.49934 13 6.49934C12.4477 6.49934 12 6.94706 12 7.49934C12 8.7721 11.5801 9.75501 10.9179 10.4172C10.2557 11.0795 9.27272 11.4993 7.99993 11.4993C6.72722 11.4993 5.74432 11.0795 5.0821 10.4172C4.41989 9.75502 4 8.7721 4 7.49934Z" fill="#2A3546"/>
</svg>
