<svg width="24" height="24" viewBox="0 0 24 24" fill="none" xmlns="http://www.w3.org/2000/svg">
<path d="M12 10C13.1 10 14 10.875 14 12C14 13.1 13.1 14 12 14C10.9 14 10 13.1 10 12C10 10.875 10.9 10 12 10Z" fill="#2A3546"/>
<path fill-rule="evenodd" clip-rule="evenodd" d="M14.9746 4.4502L15.25 4.52539L17.2998 3.15039L20.8496 6.6748L19.4502 8.75C19.4905 8.81048 19.5142 8.88735 19.5352 8.9541C19.5401 8.97002 19.545 8.98557 19.5498 9L22 9.5V14.5L19.5498 14.9746C19.545 14.989 19.5401 15.0046 19.5352 15.0205C19.5143 15.0872 19.4904 15.1641 19.4502 15.2246L20.8496 17.2998L17.2998 20.8252L15.25 19.4502L14.9746 19.5254L14.5 22H9.5L9.02539 19.5254L8.77539 19.4502L6.7002 20.8252L3.1748 17.2998L4.5498 15.2246C4.54507 15.2104 4.54006 15.1954 4.53516 15.1797C4.51422 15.1129 4.49057 15.0352 4.4502 14.9746L2 14.5V9.5L4.4502 9C4.49049 8.93952 4.51425 8.86265 4.53516 8.7959C4.54014 8.77998 4.545 8.76443 4.5498 8.75L3.1748 6.6748L6.7002 3.15039L8.77539 4.52539L9.02539 4.4502L9.5 2H14.5L14.9746 4.4502ZM12 8C9.8 8 8 9.775 8 12C8 14.2 9.8 16 12 16C14.225 16 16 14.2 16 12C16 9.775 14.225 8 12 8Z" fill="#2A3546"/>
</svg>
