<svg width="16" height="16" viewBox="0 0 16 16" fill="none" xmlns="http://www.w3.org/2000/svg">
<path d="M7.53544 14.3812C6.3521 15.5645 4.48544 15.5645 3.3021 14.3812L1.88544 12.9645C0.71877 11.7979 0.71877 9.89787 1.88544 8.71453L6.48544 4.1312C8.76877 1.81453 12.3521 5.2812 10.0188 7.66453L5.41877 12.2645L4.0021 10.8479L8.6021 6.24787C9.08544 5.76453 8.31877 5.0812 7.9021 5.54787L3.3021 10.1312C2.9021 10.5312 2.9021 11.1645 3.3021 11.5479L4.71877 12.9645C5.08544 13.3479 5.7521 13.3479 6.11877 12.9645L12.8521 6.24787C13.0354 6.04787 13.0354 5.7312 12.8354 5.54787L9.4521 2.14787L10.8688 0.731201L14.2521 4.1312C15.2354 5.09787 15.2354 6.6812 14.2521 7.66453L7.53544 14.3812Z" fill="#2A3546"/>
</svg>
