<svg width="24" height="24" viewBox="0 0 24 24" fill="none" xmlns="http://www.w3.org/2000/svg">
<path d="M20.25 3.75005C17.925 1.40005 14.1 1.40005 11.775 3.75005L9.49999 6.10005C10.525 6.10005 11 6.10005 11.975 6.37505L13.175 5.15005C14.75 3.60005 17.275 3.60005 18.85 5.15005C20.4 6.72505 20.4 9.25005 18.85 10.825L16.925 12.75C15.35 14.3 12.825 14.3 11.25 12.75C11.15 12.625 11.075 12.5 10.975 12.4C10.65 12.2 10.3 12.075 9.92499 12.075C9.47499 12.075 9.04999 12.225 8.69999 12.5C8.99999 13.1 9.34999 13.675 9.84999 14.15C12.175 16.5 16 16.5 18.325 14.15L20.25 12.225C22.6 9.90005 22.6 6.10005 20.25 3.75005ZM12.025 17.625L10.825 18.85C9.24999 20.4001 6.72499 20.4001 5.17499 18.85C3.59999 17.275 3.59999 14.75 5.17499 13.175L7.07499 11.25C8.64999 9.70005 11.175 9.70005 12.75 11.25L13.025 11.6C13.35 11.8 13.7 11.925 14.1 11.925C14.525 11.925 14.95 11.75 15.3 11.5C15.025 10.9 14.65 10.325 14.15 9.85005C11.825 7.50005 8.02499 7.50005 5.67499 9.85005L3.74999 11.775C1.39999 14.1 1.39999 17.9 3.74999 20.25C6.09999 22.6 9.89999 22.6 12.225 20.25C13.975 18.525 13.8 18.75 14.525 17.9C13.475 17.9 13 17.9 12.025 17.625Z" fill="#2A3546"/>
</svg>
