<svg width="16" height="16" viewBox="0 0 16 16" fill="none" xmlns="http://www.w3.org/2000/svg">
<path d="M7.99987 3.12491C7.99987 3.12491 3.6332 3.10824 2.54987 3.42491C1.96654 3.59157 1.4832 4.05824 1.3332 4.65824C1.06654 5.74157 1.0332 8.00824 1.0332 8.00824C1.0332 8.00824 1.0332 10.2749 1.3332 11.3416C1.49987 11.9416 1.96654 12.4249 2.54987 12.5749C3.66654 12.8582 7.99987 12.8749 7.99987 12.8749C7.99987 12.8749 12.3665 12.8916 13.4499 12.5749C14.0332 12.4082 14.5165 11.9582 14.6832 11.3582C14.9832 10.2749 14.9665 8.00824 14.9665 8.00824C14.9665 8.00824 14.9499 5.74157 14.6832 4.65824C14.5332 4.05824 14.0332 3.57491 13.4499 3.44157C12.3499 3.19157 7.99987 3.12491 7.99987 3.12491ZM6.61654 5.90824L10.2332 8.00824L6.61654 10.0916V5.90824Z" fill="#2A3546"/>
</svg>
