<svg width="16" height="16" viewBox="0 0 16 16" fill="none" xmlns="http://www.w3.org/2000/svg">
<path d="M14.9366 5.11663C14.8366 2.63329 13.4866 1.23329 10.8866 1.06663C10.1366 1.03329 5.86995 1.03329 5.11995 1.06663C2.53661 1.16663 1.16995 2.61663 1.06995 5.11663C1.03661 5.88329 1.01995 10.1333 1.06995 10.8833C1.21995 13.4166 2.58661 14.8333 5.11995 14.9333C5.86995 14.9666 10.1366 14.9666 10.8866 14.9333C13.4033 14.7833 14.8366 13.4 14.9366 10.8833C14.9699 10.1333 14.9699 5.88329 14.9366 5.11663ZM13.6866 10.8166C13.6033 12.6666 12.7366 13.6 10.8199 13.6833C10.0866 13.7166 5.91995 13.7166 5.18661 13.6833C3.36995 13.6 2.38661 12.75 2.31995 10.8166C2.28661 10.1 2.28661 5.91663 2.31995 5.18329C2.38661 3.36663 3.26995 2.39996 5.18661 2.33329C5.91995 2.29996 10.0866 2.28329 10.8199 2.33329C12.7533 2.44996 13.5699 3.29996 13.6866 5.18329C13.7199 5.91663 13.7199 10.1 13.6866 10.8166ZM11.7199 3.43329C11.2699 3.43329 10.8866 3.81663 10.8866 4.28329C10.8866 4.74996 11.2533 5.11663 11.7199 5.11663C12.1866 5.11663 12.5699 4.74996 12.5699 4.28329C12.5699 3.81663 12.1866 3.43329 11.7199 3.43329ZM8.00328 4.43329C6.01995 4.43329 4.41995 6.01663 4.41995 7.99996C4.41995 9.98329 6.01995 11.5833 8.00328 11.5833C9.96995 11.5833 11.5699 9.98329 11.5699 7.99996C11.5699 6.01663 9.96995 4.43329 8.00328 4.43329ZM8.00328 10.3166C6.71995 10.3166 5.66995 9.29996 5.66995 7.99996C5.66995 6.71663 6.71995 5.68329 8.00328 5.68329C9.28661 5.68329 10.3199 6.71663 10.3199 7.99996C10.3199 9.29996 9.28661 10.3166 8.00328 10.3166Z" fill="#2A3546"/>
</svg>
