<svg width="24" height="24" viewBox="0 0 24 24" fill="none" xmlns="http://www.w3.org/2000/svg">
<path d="M12.5 18C9.2 18 6.5 15.3 6.5 12C6.5 8.675 9.2 6 12.5 6C14.175 6 15.675 6.675 16.75 7.75L18.175 6.35C16.725 4.9 14.725 4 12.5 4C8.425 4 5.075 7.05 4.575 11H2V10H0V14H2V13H4.575C5.075 16.925 8.425 20 12.5 20C14.725 20 16.725 19.1 18.175 17.65L16.75 16.225C15.675 17.325 14.175 18 12.5 18ZM22 10V11H16.375C15.925 9.275 14.375 8 12.5 8C10.3 8 8.5 9.775 8.5 12C8.5 14.2 10.3 16 12.5 16C14.375 16 15.925 14.725 16.375 13H22V14H24V10H22ZM12.5 14C11.4 14 10.5 13.1 10.5 12C10.5 10.9 11.4 10 12.5 10C13.625 10 14.5 10.9 14.5 12C14.5 13.1 13.625 14 12.5 14Z" fill="#2A3546"/>
</svg>
