<svg width="128" height="128" viewBox="0 0 128 128" fill="none" xmlns="http://www.w3.org/2000/svg">
<rect width="128" height="128" rx="4" fill="#F5F7F9"/>
<path d="M36.1192 86.3152C36.1192 87.4666 36.5213 88.4453 37.3256 89.2513C38.1299 90.0572 39.1066 90.4602 40.2556 90.4602H88.539C89.688 90.4602 90.6647 90.0572 91.469 89.2513C92.2733 88.4453 92.6755 87.4666 92.6755 86.3152V54.6111H36.1192V86.3152Z" fill="#E6E9F0"/>
<path fill-rule="evenodd" clip-rule="evenodd" d="M64.3973 90.4602L36.3786 54.6111H92.6754V86.3152C92.6754 87.4666 92.2732 88.4453 91.4689 89.2513C90.6646 90.0572 89.6879 90.4602 88.5389 90.4602L64.3973 90.4602Z" fill="#B6C1D3"/>
<path d="M48.2384 54.4573V53.8145H32.0794V54.1818C32.0794 56.2786 32.8673 58.0694 34.443 59.554C36.0187 61.0386 37.924 61.7809 40.1589 61.7809C42.3456 61.7809 44.2187 61.0692 45.7783 59.6458C47.354 58.2224 48.174 56.4929 48.2384 54.4573Z" fill="#506586"/>
<path d="M32.0795 53.8145L37.1504 36.8144C37.737 34.8478 39.5456 33.5 41.5978 33.5H51.4702L48.2384 53.8145H32.0795Z" fill="#8698B6"/>
<path d="M64.3973 54.4573V53.8145H48.2384V54.1818C48.2384 56.2786 49.0262 58.0694 50.6019 59.554C52.1776 61.0386 54.0829 61.7809 56.3178 61.7809C58.5045 61.7809 60.3777 61.0692 61.9373 59.6458C63.513 58.2224 64.333 56.4929 64.3973 54.4573Z" fill="#E6E9F0"/>
<path d="M48.2384 53.8145L51.4701 33.5H64.3973V53.8145H48.2384Z" fill="white"/>
<path d="M80.5563 54.4573V53.8145H64.3973V54.1818C64.3973 56.2786 65.1852 58.0694 66.7609 59.554C68.3366 61.0386 70.2419 61.7809 72.4768 61.7809C74.6635 61.7809 76.5366 61.0692 78.0962 59.6458C79.6719 58.2224 80.4919 56.4929 80.5563 54.4573Z" fill="#506586"/>
<path d="M80.5563 53.8145L77.3245 33.5H64.3973V53.8145H80.5563Z" fill="#8698B6"/>
<path d="M80.5563 54.4573V53.8145H96.7152V54.1818C96.7152 56.2786 95.9274 58.0694 94.3517 59.554C92.776 61.0386 90.8707 61.7809 88.6357 61.7809C86.4491 61.7809 84.5759 61.0692 83.0163 59.6458C81.4406 58.2224 80.6206 56.4929 80.5563 54.4573Z" fill="#E6E9F0"/>
<path d="M96.7152 53.8145L91.6443 36.8144C91.0576 34.8478 89.2491 33.5 87.1968 33.5H77.3245L80.5563 53.8145H96.7152Z" fill="white"/>
<rect x="44.1986" y="64.9675" width="40.3973" height="17.5262" rx="1.01987" fill="#F5F7F9" stroke="#8698B6" stroke-width="2.03974"/>
<path d="M53.086 65.7642H61.1655L74.0927 81.6971H66.0132L53.086 65.7642Z" fill="#E6E9F0"/>
<path d="M65.2052 65.7642H83.6821C83.9637 65.7642 84.192 65.9925 84.192 66.2741V81.1872C84.192 81.4688 83.9637 81.6971 83.6821 81.6971H78.6183C78.3109 81.6971 78.0199 81.5585 77.8263 81.3198L65.2052 65.7642Z" fill="#E6E9F0"/>
</svg>
