<svg width="141" height="128" viewBox="0 0 141 128" fill="none" xmlns="http://www.w3.org/2000/svg">
<path d="M1.00477 99.8307C2.47089 107.152 18.8776 114.879 34.3973 119.369C49.8929 123.852 82.6483 104.081 94.7581 99.9549L94.768 99.9516C94.8016 99.9401 94.8238 99.9326 94.8596 99.9196C96.0818 99.4792 121.604 90.0488 131.122 67.3167C140.87 44.0213 118.973 24.6311 104.754 16.4217C66.6918 -8.90081 44.629 10.6722 37.0955 30.5286C34.5314 37.2832 34.5814 45.1251 36.2648 52.3033C37.4682 57.4342 36.0857 63.0935 31.7957 66.1546L5.83029 84.6816C2.58836 87.0459 -0.459343 92.5119 1.00477 99.8307Z" fill="#E5E9F0"/>
<path d="M41.7457 29.3575C41.7457 27.4429 43.2978 25.8909 45.2124 25.8909H103.831C105.745 25.8909 107.297 27.4429 107.297 29.3575V95.5394C107.297 97.4539 105.745 99.006 103.831 99.006H37.9639V91.7575C37.9639 89.843 39.5159 88.2909 41.4305 88.2909H41.7457V29.3575Z" fill="white"/>
<rect x="77.0425" y="35.9758" width="22.6909" height="5.04242" rx="2.52121" fill="#8698B6"/>
<rect x="77.0425" y="48.5818" width="22.6909" height="5.04242" rx="2.52121" fill="#8698B6"/>
<path d="M55.2969 40.8607C55.2969 43.2104 57.2017 45.1152 59.5514 45.1152C61.9011 45.1152 63.806 43.2104 63.806 40.8607C63.806 38.511 61.9011 36.6061 59.5514 36.6061C57.2017 36.6061 55.2969 38.511 55.2969 40.8607Z" fill="#8698B6"/>
<path d="M67.5848 53.6244C67.5009 49.2588 63.9357 45.7456 59.55 45.7456C55.1643 45.7456 51.5991 49.2588 51.5151 53.6244H67.5848Z" fill="#8698B6"/>
<rect x="49.3091" y="61.1877" width="50.4242" height="5.04242" rx="2.52121" fill="#8698B6"/>
<rect x="49.3091" y="73.7939" width="50.4242" height="5.04242" rx="2.52121" fill="#8698B6"/>
<rect x="69.4785" y="68.7515" width="40.3394" height="40.3394" rx="20.1697" fill="#21C445"/>
<path d="M78.2384 87.7397L86.7956 96.297L101.058 82.0348" stroke="white" stroke-width="2" stroke-linecap="round" stroke-linejoin="round"/>
<path d="M34.1816 68.7515H41.7453V95.2242C41.7453 97.3128 40.0521 99.006 37.9635 99.006C35.8748 99.006 34.1816 97.3128 34.1816 95.2242V68.7515Z" fill="#B6C1D3"/>
</svg>
