<svg width="256" height="227" viewBox="0 0 256 227" fill="none" xmlns="http://www.w3.org/2000/svg">
<path d="M57.0048 146.831C58.4709 154.152 74.8776 161.879 90.3973 166.369C105.893 170.852 138.648 151.081 150.758 146.955L150.768 146.952C150.802 146.94 150.824 146.933 150.86 146.92C152.082 146.479 177.604 137.049 187.122 114.317C196.87 91.0213 174.973 71.6311 160.754 63.4217C122.692 38.0992 100.629 57.6722 93.0955 77.5286C90.5314 84.2832 90.5814 92.1251 92.2648 99.3033C93.4682 104.434 92.0857 110.094 87.7957 113.155L61.8303 131.682C58.5884 134.046 55.5407 139.512 57.0048 146.831Z" fill="#E5E9F0"/>
<g filter="url(#filter0_ddd_5245_138362)">
<path d="M71.564 68.3578C71.564 66.4432 73.1161 64.8911 75.0307 64.8911H133.649C135.563 64.8911 137.116 66.4432 137.116 68.3578V134.54C137.116 136.454 135.563 138.006 133.649 138.006H67.7822V130.758C67.7822 128.843 69.3343 127.291 71.2489 127.291H71.564V68.3578Z" fill="white"/>
<rect x="106.861" y="74.9761" width="22.6909" height="5.04242" rx="2.52121" fill="#8698B6"/>
<rect x="106.861" y="87.5818" width="22.6909" height="5.04242" rx="2.52121" fill="#8698B6"/>
<path d="M85.1157 79.8609C85.1157 82.2107 87.0205 84.1155 89.3703 84.1155C91.72 84.1155 93.6248 82.2107 93.6248 79.8609C93.6248 77.5112 91.72 75.6064 89.3703 75.6064C87.0205 75.6064 85.1157 77.5112 85.1157 79.8609Z" fill="#8698B6"/>
<path d="M97.4032 92.6246C97.3192 88.259 93.7541 84.7458 89.3683 84.7458C84.9826 84.7458 81.4175 88.259 81.3335 92.6246H97.4032Z" fill="#8698B6"/>
<rect x="79.1274" y="100.188" width="50.4242" height="5.04242" rx="2.52121" fill="#8698B6"/>
<rect x="79.1274" y="112.794" width="50.4242" height="5.04242" rx="2.52121" fill="#8698B6"/>
<path d="M64 107.751H71.5636V134.224C71.5636 136.313 69.8705 138.006 67.7818 138.006C65.6932 138.006 64 136.313 64 134.224V107.751Z" fill="#B6C1D3"/>
</g>
<g filter="url(#filter1_ddd_5245_138362)">
<path d="M125.746 92.3578C125.746 90.4432 127.298 88.8911 129.212 88.8911H187.831C189.745 88.8911 191.297 90.4432 191.297 92.3578V158.54C191.297 160.454 189.745 162.006 187.831 162.006H121.964V154.758C121.964 152.843 123.516 151.291 125.431 151.291H125.746V92.3578Z" fill="#FEEDEC"/>
<rect x="161.042" y="98.9761" width="22.6909" height="5.04242" rx="2.52121" fill="#8698B6"/>
<rect x="161.042" y="111.582" width="22.6909" height="5.04242" rx="2.52121" fill="#8698B6"/>
<path d="M139.297 103.861C139.297 106.211 141.202 108.115 143.552 108.115C145.902 108.115 147.806 106.211 147.806 103.861C147.806 101.511 145.902 99.6064 143.552 99.6064C141.202 99.6064 139.297 101.511 139.297 103.861Z" fill="#8698B6"/>
<path d="M151.585 116.625C151.501 112.259 147.936 108.746 143.55 108.746C139.164 108.746 135.599 112.259 135.515 116.625H151.585Z" fill="#8698B6"/>
<rect x="133.309" y="124.188" width="50.4242" height="5.04242" rx="2.52121" fill="#8698B6"/>
<rect x="133.309" y="136.794" width="50.4242" height="5.04242" rx="2.52121" fill="#8698B6"/>
<path d="M118.182 131.751H125.745V158.224C125.745 160.313 124.052 162.006 121.963 162.006C119.875 162.006 118.182 160.313 118.182 158.224V131.751Z" fill="#F76E64"/>
</g>
<rect x="140.479" y="107.751" width="40.3394" height="40.3394" rx="20.1697" fill="#F76E64"/>
<path fill-rule="evenodd" clip-rule="evenodd" d="M153.346 119.358C152.853 118.866 152.055 118.866 151.563 119.358C151.07 119.85 151.07 120.648 151.563 121.141L158.865 128.443L152.085 135.224C151.593 135.716 151.593 136.514 152.085 137.007C152.577 137.499 153.375 137.499 153.868 137.007L160.648 130.226L167.608 137.186C168.1 137.678 168.898 137.678 169.39 137.186C169.883 136.693 169.883 135.895 169.39 135.403L162.431 128.443L169.913 120.962C170.405 120.469 170.405 119.671 169.913 119.179C169.42 118.687 168.622 118.687 168.13 119.179L160.648 126.66L153.346 119.358Z" fill="white"/>
<defs>
<filter id="filter0_ddd_5245_138362" x="0" y="0.891113" width="201.116" height="201.115" filterUnits="userSpaceOnUse" color-interpolation-filters="sRGB">
<feFlood flood-opacity="0" result="BackgroundImageFix"/>
<feColorMatrix in="SourceAlpha" type="matrix" values="0 0 0 0 0 0 0 0 0 0 0 0 0 0 0 0 0 0 127 0" result="hardAlpha"/>
<feOffset/>
<feGaussianBlur stdDeviation="32"/>
<feColorMatrix type="matrix" values="0 0 0 0 0.0156863 0 0 0 0 0.0196078 0 0 0 0 0.0235294 0 0 0 0.03 0"/>
<feBlend mode="normal" in2="BackgroundImageFix" result="effect1_dropShadow_5245_138362"/>
<feColorMatrix in="SourceAlpha" type="matrix" values="0 0 0 0 0 0 0 0 0 0 0 0 0 0 0 0 0 0 127 0" result="hardAlpha"/>
<feOffset/>
<feGaussianBlur stdDeviation="10"/>
<feColorMatrix type="matrix" values="0 0 0 0 0.0156863 0 0 0 0 0.0196078 0 0 0 0 0.0235294 0 0 0 0.05 0"/>
<feBlend mode="normal" in2="effect1_dropShadow_5245_138362" result="effect2_dropShadow_5245_138362"/>
<feColorMatrix in="SourceAlpha" type="matrix" values="0 0 0 0 0 0 0 0 0 0 0 0 0 0 0 0 0 0 127 0" result="hardAlpha"/>
<feOffset/>
<feGaussianBlur stdDeviation="4"/>
<feColorMatrix type="matrix" values="0 0 0 0 0.0156863 0 0 0 0 0.0196078 0 0 0 0 0.0235294 0 0 0 0.08 0"/>
<feBlend mode="normal" in2="effect2_dropShadow_5245_138362" result="effect3_dropShadow_5245_138362"/>
<feBlend mode="normal" in="SourceGraphic" in2="effect3_dropShadow_5245_138362" result="shape"/>
</filter>
<filter id="filter1_ddd_5245_138362" x="54.1816" y="24.8911" width="201.116" height="201.115" filterUnits="userSpaceOnUse" color-interpolation-filters="sRGB">
<feFlood flood-opacity="0" result="BackgroundImageFix"/>
<feColorMatrix in="SourceAlpha" type="matrix" values="0 0 0 0 0 0 0 0 0 0 0 0 0 0 0 0 0 0 127 0" result="hardAlpha"/>
<feOffset/>
<feGaussianBlur stdDeviation="32"/>
<feColorMatrix type="matrix" values="0 0 0 0 0.0156863 0 0 0 0 0.0196078 0 0 0 0 0.0235294 0 0 0 0.03 0"/>
<feBlend mode="normal" in2="BackgroundImageFix" result="effect1_dropShadow_5245_138362"/>
<feColorMatrix in="SourceAlpha" type="matrix" values="0 0 0 0 0 0 0 0 0 0 0 0 0 0 0 0 0 0 127 0" result="hardAlpha"/>
<feOffset/>
<feGaussianBlur stdDeviation="10"/>
<feColorMatrix type="matrix" values="0 0 0 0 0.0156863 0 0 0 0 0.0196078 0 0 0 0 0.0235294 0 0 0 0.05 0"/>
<feBlend mode="normal" in2="effect1_dropShadow_5245_138362" result="effect2_dropShadow_5245_138362"/>
<feColorMatrix in="SourceAlpha" type="matrix" values="0 0 0 0 0 0 0 0 0 0 0 0 0 0 0 0 0 0 127 0" result="hardAlpha"/>
<feOffset/>
<feGaussianBlur stdDeviation="4"/>
<feColorMatrix type="matrix" values="0 0 0 0 0.0156863 0 0 0 0 0.0196078 0 0 0 0 0.0235294 0 0 0 0.08 0"/>
<feBlend mode="normal" in2="effect2_dropShadow_5245_138362" result="effect3_dropShadow_5245_138362"/>
<feBlend mode="normal" in="SourceGraphic" in2="effect3_dropShadow_5245_138362" result="shape"/>
</filter>
</defs>
</svg>
