<svg width="148" height="148" viewBox="0 0 148 148" fill="none" xmlns="http://www.w3.org/2000/svg">
<path d="M71.9307 83.9762L93.9645 98.8382L45.3574 133.157C43.3714 134.559 40.7254 134.588 38.7099 133.228C36.6944 131.869 35.7294 129.405 36.2855 127.038L49.897 69.1143L71.9307 83.9762Z" fill="#1BA138"/>
<path d="M71.9307 83.9762L93.9645 98.8382L45.3574 133.157C43.3714 134.559 40.7254 134.588 38.7099 133.228C36.6944 131.869 35.7294 129.405 36.2855 127.038L49.897 69.1143L71.9307 83.9762Z" fill="#3381FF"/>
<path fill-rule="evenodd" clip-rule="evenodd" d="M71.9307 83.9762L93.9645 98.8382L89.0713 102.293C84.9814 101.106 76.659 96.5944 67.5589 90.4563C58.4601 84.3191 51.16 78.2937 48.5266 74.9459L49.897 69.1143L71.9307 83.9762ZM65.2278 93.9126C73.1934 99.2854 80.5629 103.412 85.0197 105.154L81.0807 107.935C76.5696 105.926 69.968 102.138 62.8967 97.3688C55.8259 92.5996 49.8414 87.8978 46.2891 84.4677L47.3921 79.7738C50.6766 83.2537 57.2631 88.5403 65.2278 93.9126ZM45.2033 89.0883L44.1291 93.6597C47.6992 96.757 52.6248 100.498 58.234 104.281C63.8437 108.065 69.1579 111.231 73.3672 113.381L77.2033 110.672C72.7948 108.546 66.8667 105.075 60.5656 100.825C54.2649 96.5752 48.8266 92.3789 45.2033 89.0883ZM42.0053 102.697L43.0637 98.1935C46.4939 101.062 50.9297 104.383 55.9029 107.738C60.8764 111.092 65.6177 113.961 69.5626 116.067L65.7831 118.736C62.1493 116.724 57.9506 114.147 53.5718 111.194C49.1932 108.241 45.2312 105.313 42.0053 102.697ZM40.9528 107.176L39.9054 111.634C42.5834 113.697 45.6294 115.894 48.909 118.106C52.189 120.319 55.368 122.32 58.2842 124.03L62.0246 121.389C58.7366 119.512 55.0571 117.224 51.2407 114.65C47.4244 112.076 43.9246 109.522 40.9528 107.176ZM37.8239 120.492L38.8626 116.071C41.2147 117.843 43.8133 119.698 46.578 121.563C49.3428 123.428 52.0359 125.142 54.5603 126.659L50.851 129.278C48.7334 127.977 46.514 126.549 44.2463 125.019C41.979 123.49 39.8234 121.967 37.8239 120.492ZM36.7891 124.895L36.2855 127.038C35.7294 129.405 36.6944 131.869 38.7099 133.228C40.7254 134.588 43.3714 134.559 45.3574 133.157L47.1557 131.887C45.4562 130.821 43.7007 129.68 41.9153 128.475C40.1301 127.271 38.4141 126.071 36.7891 124.895Z" fill="#0062FF"/>
<path fill-rule="evenodd" clip-rule="evenodd" d="M93.964 98.8382L71.9302 83.9762L49.8965 69.1143L49.8965 69.1144L67.6098 81.0622L89.6436 95.9241L41.0365 130.243C39.8059 131.112 38.3219 131.453 36.8915 131.264C37.3282 132.034 37.9428 132.711 38.7094 133.228C40.7249 134.588 43.3709 134.559 45.3569 133.157L93.964 98.8382Z" fill="#0062FF"/>
<path fill-rule="evenodd" clip-rule="evenodd" d="M93.964 98.8382L71.9302 83.9762L49.8965 69.1143L49.8965 69.1144L67.6098 81.0622L89.6436 95.9241L83.7491 100.086C85.9025 101.144 87.7181 101.9 89.0707 102.293L93.964 98.8382ZM85.0192 105.154C83.5934 104.596 81.8695 103.795 79.9233 102.787L76.1266 105.468C77.9584 106.457 79.6277 107.288 81.0802 107.935L85.0192 105.154ZM77.2028 110.672C75.7398 109.967 74.1094 109.113 72.3536 108.132L68.6006 110.782C70.3005 111.76 71.9006 112.632 73.3667 113.381L77.2028 110.672ZM69.5621 116.067C68.0968 115.285 66.5215 114.397 64.8654 113.419L61.146 116.045C62.7663 117.025 64.3202 117.926 65.7826 118.736L69.5621 116.067ZM62.0241 121.389C60.566 120.557 59.031 119.644 57.4411 118.661L53.7494 121.267C55.3127 122.254 56.8308 123.178 58.2837 124.03L62.0241 121.389ZM54.5598 126.659C53.1128 125.79 51.6103 124.855 50.0706 123.865L46.4036 126.454C47.9218 127.449 49.4097 128.393 50.8505 129.278L54.5598 126.659ZM47.1552 131.887C45.721 130.988 44.2468 130.034 42.7484 129.034L41.0365 130.243C39.8059 131.112 38.3219 131.453 36.8915 131.264C37.3282 132.034 37.9428 132.711 38.7094 133.228C40.7249 134.588 43.371 134.559 45.3569 133.157L47.1552 131.887Z" fill="#004ECC"/>
<ellipse cx="71.9304" cy="83.976" rx="26.5775" ry="3.64789" transform="rotate(34 71.9304 83.976)" fill="#003B99"/>
<path d="M130.503 66.4526C130.267 66.1374 129.874 65.9821 129.486 66.0513L122.045 67.3791C121.281 67.5154 120.929 68.4087 121.394 69.0298L122.093 69.9638C122.33 70.279 122.723 70.4343 123.111 70.3651L130.551 69.0373C131.315 68.901 131.668 68.0077 131.203 67.3866L130.503 66.4526Z" fill="#FF528E"/>
<path d="M57.9808 17C58.3586 17.1115 58.6412 17.4263 58.7115 17.8138L60.0591 25.2508C60.1975 26.0143 59.4829 26.6559 58.7387 26.4363L57.6196 26.1062C57.2419 25.9947 56.9592 25.6799 56.889 25.2924L55.5413 17.8554C55.4029 17.0919 56.1176 16.4503 56.8618 16.6699L57.9808 17Z" fill="#3381FF"/>
<path d="M81.7321 31.0898C81.3477 31.1756 81.0445 31.4707 80.9484 31.8526L79.1031 39.182C78.9137 39.9345 79.5835 40.6227 80.3408 40.4537L81.4796 40.1996C81.8639 40.1139 82.1671 39.8188 82.2633 39.4368L84.1085 32.1074C84.298 31.355 83.6282 30.6668 82.8708 30.8357L81.7321 31.0898Z" fill="#FFD37A"/>
<path d="M119.182 104.002C119.178 103.608 118.952 103.25 118.598 103.077L111.808 99.7571C111.111 99.4162 110.3 99.9293 110.308 100.705L110.322 101.872C110.326 102.266 110.552 102.623 110.906 102.796L117.696 106.117C118.393 106.458 119.204 105.945 119.196 105.169L119.182 104.002Z" fill="#FFD37A"/>
<path d="M49.5913 44.5543C49.962 44.4213 50.376 44.5086 50.6614 44.7799L56.1393 49.9874C56.7016 50.5221 56.5035 51.4618 55.7732 51.7238L54.675 52.1179C54.3043 52.2509 53.8903 52.1636 53.6049 51.8923L48.127 46.6848C47.5646 46.1502 47.7628 45.2105 48.4931 44.9484L49.5913 44.5543Z" fill="#FF1F6D"/>
<path d="M113.067 61.1406C112.773 60.8841 112.36 60.8136 111.997 60.958L101.644 65.0784C100.919 65.3669 100.756 66.3201 101.344 66.8326L103.112 68.3727C103.406 68.6292 103.819 68.6997 104.182 68.5553L114.535 64.4349C115.26 64.1465 115.422 63.1933 114.834 62.6808L113.067 61.1406Z" fill="#6723CD"/>
<path d="M70.1012 31.3451C70.4442 31.5316 70.6542 31.8942 70.6453 32.2846L70.3899 43.4245C70.372 44.2044 69.5352 44.6889 68.85 44.3162L66.7906 43.1962C66.4476 43.0097 66.2376 42.6471 66.2466 42.2567L66.5019 31.1168C66.5198 30.3369 67.3566 29.8524 68.0418 30.2251L70.1012 31.3451Z" fill="#36E2C3"/>
<path d="M88.6482 93.6545C95.2888 92.4325 104.967 91.1976 115.747 91.1976C116.61 91.1976 117.31 90.4976 117.31 89.6342C117.31 88.7708 116.61 88.0708 115.747 88.0708C104.251 88.0708 93.9691 89.4454 87.1234 90.7597C87.1234 90.7597 87.1234 90.7597 87.1234 90.7597C84.1969 91.3215 81.8983 91.8723 80.4015 92.3C79.9874 92.4183 79.6603 92.6928 79.4658 93.0413C80.6104 93.7101 81.7136 94.3334 82.7655 94.9064C84.2764 94.5291 86.267 94.0927 88.6482 93.6545Z" fill="#FFC247"/>
<path d="M65.4579 79.8573C64.7193 73.9409 63.4754 66.8109 61.4609 59.2926C61.2374 58.4586 61.7324 57.6014 62.5664 57.3779C63.4004 57.1544 64.2576 57.6493 64.4811 58.4834C66.2885 65.2285 67.49 71.6724 68.2673 77.2505C68.2672 77.2504 68.2674 77.2505 68.2673 77.2505C68.7548 80.7481 69.0758 83.9055 69.2745 86.5832C68.1316 85.806 67.0186 85.0315 65.9415 84.265C65.8122 82.89 65.6524 81.4158 65.4579 79.8573Z" fill="#8FEFDE"/>
<path fill-rule="evenodd" clip-rule="evenodd" d="M104.675 35.7244C105.379 35.2252 106.355 35.3916 106.854 36.0961C107.871 37.5314 108.764 39.4931 109.4 41.3492C110.029 43.1833 110.479 45.1214 110.479 46.5189C110.479 47.2515 110.068 47.7528 109.72 48.0224C109.401 48.2687 109.046 48.4016 108.784 48.4809C108.245 48.6438 107.572 48.7294 106.91 48.7861C105.994 48.8644 104.843 48.904 103.655 48.9449C103.111 48.9636 102.558 48.9826 102.017 49.0058C100.23 49.0822 98.4973 49.2042 97.1363 49.481C96.4557 49.6194 95.9408 49.7827 95.5859 49.9575C95.2566 50.1197 95.1815 50.2337 95.1794 50.2358C95.0221 50.5508 94.9437 51.129 95.094 52.0369C95.239 52.9126 95.5631 53.8947 95.9587 54.8493C96.3505 55.7945 96.7903 56.6603 97.1348 57.2932C97.3062 57.6082 97.4521 57.862 97.5539 58.035C97.6048 58.1215 97.6445 58.1875 97.6707 58.2307C97.6838 58.2523 97.6936 58.2682 97.6996 58.2781L97.7065 58.2891C98.0991 58.9188 97.9953 59.7382 97.4575 60.2496C96.9197 60.7612 96.0962 60.824 95.487 60.3999C95.0431 60.0909 94.5431 59.7229 93.9992 59.3225C92.3498 58.1084 90.297 56.5973 88.1822 55.5369C86.7895 54.8386 85.5476 54.4351 84.5416 54.4059C83.628 54.3794 82.9447 54.6518 82.3927 55.3684C82.1487 55.7014 81.9344 56.3112 81.8526 57.2751C81.7727 58.2177 81.8324 59.3361 81.9867 60.5238C82.295 62.8965 82.9515 65.3329 83.3844 66.7764C83.6324 67.6035 83.1629 68.475 82.3359 68.7229C81.5088 68.9709 80.6373 68.5015 80.3893 67.6745C79.9377 66.1683 79.2263 63.5455 78.886 60.9267C78.716 59.6186 78.6312 58.2582 78.737 57.0109C78.8404 55.7923 79.1394 54.5032 79.8895 53.4948L79.902 53.4782C81.1568 51.8372 82.8685 51.2294 84.6322 51.2805C86.3074 51.329 88.0311 51.9634 89.5837 52.7418C90.5612 53.232 91.5417 53.8187 92.4728 54.4248C92.277 53.81 92.1132 53.1756 92.0092 52.5477C91.8158 51.3797 91.7908 50.0097 92.3901 48.8227C92.8038 48.0033 93.5254 47.4869 94.2044 47.1525C94.8956 46.812 95.7003 46.5822 96.5131 46.4169C98.1389 46.0863 100.089 45.9586 101.884 45.8819C102.501 45.8555 103.094 45.8352 103.657 45.8159C104.793 45.7769 105.807 45.7422 106.643 45.6707C106.888 45.6498 107.097 45.627 107.274 45.6033C107.146 44.7298 106.863 43.5894 106.443 42.3635C105.86 40.6647 105.084 39.0069 104.303 37.9039C103.804 37.1994 103.97 36.2236 104.675 35.7244Z" fill="#3381FF"/>
</svg>
