<svg width="328" height="143" viewBox="0 0 328 143" fill="none" xmlns="http://www.w3.org/2000/svg">
<path d="M-0.999992 143.391L-0.999991 144.391H8.24841e-06H328H329V143.391V7.60734C329 3.57465 325.124 0.670653 321.253 1.71966C307.934 5.32928 276.436 12.9641 248.404 12.9641C230.469 12.9641 219.83 19.8655 208.96 26.9166C208.461 27.24 207.962 27.5636 207.462 27.887C196.102 35.2307 184.013 42.4895 162.397 42.4895C140.786 42.4895 124.827 49.7407 108.695 57.0702C108.295 57.2518 107.895 57.4335 107.495 57.615C90.9477 65.1274 74.0228 72.5617 50.215 72.5617C26.714 72.5617 13.9031 81.4597 6.97564 90.8016C0.0898492 100.087 -0.884092 109.676 -0.987361 110.972C-0.99773 111.102 -1 111.216 -1 111.325L-0.999992 143.391Z" fill="#0062FF" fill-opacity="0.1" stroke="#0062FF" stroke-width="2"/>
</svg>
