<svg width="48" height="32" viewBox="0 0 48 32" fill="none" xmlns="http://www.w3.org/2000/svg">
<path d="M0 21.3333C0 21.4765 0.0099365 21.6199 0.00533439 21.763C0.00178748 21.8733 0 21.9841 0 22.0952C0 27.5566 4.31348 32 9.6151 32C14.9167 32 19.2302 27.5566 19.2302 22.0952C19.2302 16.6339 14.9167 12.1905 9.6151 12.1905C8.04092 12.1905 6.40613 10.3999 7.43173 9.20935C10.6859 5.43176 15.4324 3.04762 20.7094 3.04762C21.5275 3.04762 22.1887 2.36648 22.1887 1.52381C22.1887 0.681143 21.5275 0 20.7094 0C9.28966 0 0 9.56952 0 21.3333Z" fill="#FFFFFF"/>
<path d="M25.8113 21.3333C25.8113 21.4765 25.8213 21.6199 25.8167 21.763C25.8131 21.8733 25.8113 21.9841 25.8113 22.0952C25.8113 27.5566 30.1248 32 35.4264 32C40.728 32 45.0415 27.5566 45.0415 22.0952C45.0415 16.6339 40.728 12.1905 35.4264 12.1905C33.8522 12.1905 32.2174 10.3999 33.243 9.20935C36.4972 5.43176 41.2437 3.04762 46.5208 3.04762C47.3388 3.04762 48 2.36648 48 1.52381C48 0.681143 47.3388 0 46.5208 0C35.101 0 25.8113 9.56952 25.8113 21.3333Z" fill="#FFFFFF"/>
</svg>
