<svg width="178" height="178" viewBox="0 0 178 178" fill="none" xmlns="http://www.w3.org/2000/svg">
<path d="M57.5928 130.121C57.5928 132.43 59.4643 134.301 61.773 134.301H117.714C120.023 134.301 121.894 132.43 121.894 130.121V92.9648H57.5928V130.121Z" fill="#FFE4AD"/>
<path d="M117.963 134.294H89.528L57.8232 92.9648H121.894V130.121C121.894 132.347 120.156 134.166 117.963 134.294Z" fill="#FFD37A"/>
<path d="M53 92.9648H71.3718C71.3718 98.0381 67.2592 102.151 62.1859 102.151C57.1127 102.151 53 98.0381 53 92.9648Z" fill="#B8150A"/>
<path d="M89.7437 92.9648H108.115C108.115 98.0381 104.003 102.151 98.9296 102.151C93.8563 102.151 89.7437 98.0381 89.7437 92.9648Z" fill="#B8150A"/>
<path d="M71.3721 92.9648H89.7439C89.7439 98.0381 85.6312 102.151 80.558 102.151C75.4847 102.151 71.3721 98.0381 71.3721 92.9648Z" fill="#E6E9F0"/>
<path d="M108.116 92.9648H126.488C126.488 98.0381 122.375 102.151 117.302 102.151C112.228 102.151 108.116 98.0381 108.116 92.9648Z" fill="#E6E9F0"/>
<path d="M53 92.9648L58.9957 72.979C59.5262 71.2109 61.1536 70 62.9996 70H75.0462L71.3718 92.9648H53Z" fill="#F44034"/>
<path d="M108.115 92.9648L104.441 70H89.7437V92.9648H108.115Z" fill="#F44034"/>
<path d="M71.3721 92.9648L75.0464 70H89.7439V92.9648H71.3721Z" fill="white"/>
<path d="M126.488 92.9648L120.492 72.979C119.961 71.2109 118.334 70 116.488 70H104.441L108.116 92.9648H126.488Z" fill="white"/>
<path fill-rule="evenodd" clip-rule="evenodd" d="M105.018 31.861C104.95 31.37 104.529 31.004 104.033 31.0094L97.5399 31.0794C96.9534 31.0857 96.504 31.6023 96.5869 32.1829C97.4675 38.3457 99.0541 45.5576 98.2801 51.6702C97.0831 61.1232 81.2106 60.8131 79.8059 51.5618C78.8873 45.5122 80.3093 38.2989 81.1566 32.1752C81.2369 31.5942 80.7866 31.0785 80.2001 31.0733L73.7044 31.016C73.2088 31.0116 72.7884 31.3784 72.7219 31.8696C71.7867 38.7835 70.3082 45.8773 71.3664 52.8466C72.7819 62.169 79.9493 67.0992 89.1209 66.998C98.3332 67.0984 105.552 62.1947 106.749 52.7454C107.632 45.7724 105.978 38.7521 105.018 31.861Z" fill="#3381FF"/>
<path d="M71 47.7246C71.0008 49.4364 71.1079 51.1452 71.3663 52.8466C72.7755 62.128 79.8862 67.0557 88.9998 66.999V58.628C84.7466 58.5327 80.5015 56.144 79.8058 51.5619C79.1475 47.2263 79.6913 42.2931 80.3642 37.5916L71.8934 37.5916C71.4128 40.9456 71.0015 44.3218 71 47.6866C71 47.6993 71 47.7119 71 47.7246Z" fill="#F44034"/>
<path d="M104.112 31C104.564 31 104.946 31.3354 105.008 31.7832C105.212 33.2581 105.449 34.739 105.686 36.224C105.759 36.6795 105.832 37.1353 105.904 37.5915L97.4316 37.5915C97.3404 37.0101 97.2479 36.4323 97.1563 35.8596C96.9458 34.5445 96.7397 33.2565 96.5632 32.0145C96.4868 31.4767 96.9063 31 97.4495 31L104.112 31Z" fill="white"/>
<path d="M80.3655 37.5915L71.8936 37.5915C71.9977 36.8646 72.1052 36.1387 72.2124 35.4142C72.3916 34.2028 72.5703 32.9953 72.7323 31.7933C72.7927 31.3446 73.1747 31.0083 73.6275 31.0083L80.292 31.0083C80.8345 31.0083 81.2538 31.4838 81.1798 32.0212C81.0411 33.0276 80.8863 34.0652 80.7285 35.1236C80.6073 35.9356 80.4844 36.7599 80.3655 37.5915Z" fill="white"/>
<path d="M74.8484 23.7906L76.2542 22.6308L74.2377 20.6803L75.4164 19.7577L71 15L73.7407 19.5732L72.1929 20.8384L74.2945 22.7362L73.1727 23.5929L77.6885 28.3769L74.8484 23.7906Z" fill="#66A1FF"/>
<path d="M82.636 24.7078L81.5113 23.78L83.1245 22.2196L82.1816 21.4816L85.7147 17.6754L83.5221 21.3339L84.7604 22.3461L83.079 23.8644L83.9765 24.5497L80.3639 28.3769L82.636 24.7078Z" fill="#66A1FF"/>
<path d="M95.4818 24.7078L96.6065 23.78L94.9933 22.2196L95.9362 21.4816L92.4031 17.6754L94.5957 21.3339L93.3574 22.3461L95.0388 23.8644L94.1413 24.5497L97.7539 28.3769L95.4818 24.7078Z" fill="#66A1FF"/>
<path d="M103.269 23.7906L101.864 22.6308L103.88 20.6803L102.701 19.7577L107.118 15L104.377 19.5732L105.925 20.8384L103.823 22.7362L104.945 23.5929L100.429 28.3769L103.269 23.7906Z" fill="#66A1FF"/>
<rect x="25" y="17" width="32" height="32" rx="16" fill="white"/>
<path d="M37.0757 29.5011C37.0757 31.602 38.7788 33.3052 40.8798 33.3052C42.9807 33.3052 44.6839 31.602 44.6839 29.5011C44.6839 27.4002 42.9807 25.697 40.8798 25.697C38.7788 25.697 37.0757 27.4002 37.0757 29.5011Z" fill="#99C0FF"/>
<path d="M48.7598 41.9998C48.6774 37.7841 45.181 34.3916 40.8799 34.3916C36.5788 34.3916 33.0823 37.7841 33 41.9998H48.7598Z" fill="#99C0FF"/>
<rect x="134" y="31" width="25" height="25" rx="12.5" fill="white"/>
<path d="M143.434 40.7664C143.434 42.4077 144.765 43.7383 146.406 43.7383C148.047 43.7383 149.378 42.4077 149.378 40.7664C149.378 39.125 148.047 37.7944 146.406 37.7944C144.765 37.7944 143.434 39.125 143.434 40.7664Z" fill="#99C0FF"/>
<path d="M152.562 50.531C152.498 47.2375 149.766 44.5871 146.406 44.5871C143.046 44.5871 140.314 47.2375 140.25 50.531H152.562Z" fill="#99C0FF"/>
<rect x="20" y="112" width="25" height="25" rx="12.5" fill="white"/>
<path d="M29.4341 121.766C29.4341 123.408 30.7647 124.738 32.4061 124.738C34.0474 124.738 35.378 123.408 35.378 121.766C35.378 120.125 34.0474 118.794 32.4061 118.794C30.7647 118.794 29.4341 120.125 29.4341 121.766Z" fill="#99C0FF"/>
<path d="M38.5623 131.531C38.498 128.237 35.7664 125.587 32.4062 125.587C29.0459 125.587 26.3143 128.237 26.25 131.531H38.5623Z" fill="#99C0FF"/>
<rect x="151" y="77" width="25" height="25" rx="12.5" fill="white"/>
<path d="M160.434 86.7664C160.434 88.4077 161.765 89.7383 163.406 89.7383C165.047 89.7383 166.378 88.4077 166.378 86.7664C166.378 85.125 165.047 83.7944 163.406 83.7944C161.765 83.7944 160.434 85.125 160.434 86.7664Z" fill="#99C0FF"/>
<path d="M169.562 96.531C169.498 93.2375 166.766 90.5871 163.406 90.5871C160.046 90.5871 157.314 93.2375 157.25 96.531H169.562Z" fill="#99C0FF"/>
<rect x="134" y="113" width="25" height="25" rx="12.5" fill="white"/>
<path d="M143.434 122.766C143.434 124.408 144.765 125.738 146.406 125.738C148.047 125.738 149.378 124.408 149.378 122.766C149.378 121.125 148.047 119.794 146.406 119.794C144.765 119.794 143.434 121.125 143.434 122.766Z" fill="#99C0FF"/>
<path d="M152.562 132.531C152.498 129.237 149.766 126.587 146.406 126.587C143.046 126.587 140.314 129.237 140.25 132.531H152.562Z" fill="#99C0FF"/>
<rect x="2" y="70" width="25" height="25" rx="12.5" fill="white"/>
<path d="M11.4341 79.7664C11.4341 81.4077 12.7647 82.7383 14.4061 82.7383C16.0474 82.7383 17.378 81.4077 17.378 79.7664C17.378 78.125 16.0474 76.7944 14.4061 76.7944C12.7647 76.7944 11.4341 78.125 11.4341 79.7664Z" fill="#99C0FF"/>
<path d="M20.5623 89.531C20.498 86.2375 17.7664 83.5871 14.4062 83.5871C11.0459 83.5871 8.31433 86.2375 8.25 89.531H20.5623Z" fill="#99C0FF"/>
<g opacity="0.7">
<rect x="33" y="60" width="12" height="12" rx="6" fill="white"/>
<path d="M37.5284 64.6878C37.5284 65.4756 38.167 66.1143 38.9549 66.1143C39.7427 66.1143 40.3814 65.4756 40.3814 64.6878C40.3814 63.8999 39.7427 63.2612 38.9549 63.2612C38.167 63.2612 37.5284 63.8999 37.5284 64.6878Z" fill="#99C0FF"/>
<path d="M41.9099 69.3749C41.879 67.7941 40.5679 66.5219 38.955 66.5219C37.342 66.5219 36.0309 67.7941 36 69.3749H41.9099Z" fill="#99C0FF"/>
</g>
<g opacity="0.7">
<rect x="9" y="46" width="12" height="12" rx="6" fill="white"/>
<path d="M13.5284 50.6878C13.5284 51.4756 14.167 52.1143 14.9549 52.1143C15.7427 52.1143 16.3814 51.4756 16.3814 50.6878C16.3814 49.8999 15.7427 49.2612 14.9549 49.2612C14.167 49.2612 13.5284 49.8999 13.5284 50.6878Z" fill="#99C0FF"/>
<path d="M17.9099 55.3749C17.879 53.7941 16.5679 52.5219 14.955 52.5219C13.342 52.5219 12.0309 53.7941 12 55.3749H17.9099Z" fill="#99C0FF"/>
</g>
<g opacity="0.7">
<rect x="30" y="91" width="12" height="12" rx="6" fill="white"/>
<path d="M34.5284 95.6878C34.5284 96.4756 35.167 97.1143 35.9549 97.1143C36.7427 97.1143 37.3814 96.4756 37.3814 95.6878C37.3814 94.8999 36.7427 94.2612 35.9549 94.2612C35.167 94.2612 34.5284 94.8999 34.5284 95.6878Z" fill="#99C0FF"/>
<path d="M38.9099 100.375C38.879 98.7941 37.5679 97.5219 35.955 97.5219C34.342 97.5219 33.0309 98.7941 33 100.375H38.9099Z" fill="#99C0FF"/>
</g>
<g opacity="0.7">
<rect x="51" y="142" width="12" height="12" rx="6" fill="white"/>
<path d="M55.5284 146.688C55.5284 147.476 56.167 148.114 56.9549 148.114C57.7427 148.114 58.3814 147.476 58.3814 146.688C58.3814 145.9 57.7427 145.261 56.9549 145.261C56.167 145.261 55.5284 145.9 55.5284 146.688Z" fill="#99C0FF"/>
<path d="M59.9099 150.853C59.879 149.272 58.5679 148 56.955 148C55.342 148 54.0309 149.272 54 150.853H59.9099Z" fill="#99C0FF"/>
</g>
<g opacity="0.7">
<rect x="113" y="144" width="12" height="12" rx="6" fill="white"/>
<path d="M117.528 148.688C117.528 149.476 118.167 150.114 118.955 150.114C119.743 150.114 120.381 149.476 120.381 148.688C120.381 147.9 119.743 147.261 118.955 147.261C118.167 147.261 117.528 147.9 117.528 148.688Z" fill="#99C0FF"/>
<path d="M121.91 153.375C121.879 151.794 120.568 150.522 118.955 150.522C117.342 150.522 116.031 151.794 116 153.375H121.91Z" fill="#99C0FF"/>
</g>
<rect x="80" y="144" width="19" height="19" rx="9.5" fill="white"/>
<path d="M87.1698 151.422C87.1698 152.67 88.1811 153.681 89.4285 153.681C90.6759 153.681 91.6872 152.67 91.6872 151.422C91.6872 150.175 90.6759 149.164 89.4285 149.164C88.1811 149.164 87.1698 150.175 87.1698 151.422Z" fill="#99C0FF"/>
<path d="M94.1074 158.844C94.0585 156.341 91.9825 154.326 89.4287 154.326C86.8749 154.326 84.7989 156.341 84.75 158.844H94.1074Z" fill="#99C0FF"/>
<g opacity="0.7">
<rect x="135" y="92" width="12" height="12" rx="6" fill="white"/>
<path d="M139.528 96.6878C139.528 97.4756 140.167 98.1143 140.955 98.1143C141.743 98.1143 142.381 97.4756 142.381 96.6878C142.381 95.8999 141.743 95.2612 140.955 95.2612C140.167 95.2612 139.528 95.8999 139.528 96.6878Z" fill="#99C0FF"/>
<path d="M143.91 101.375C143.879 99.7941 142.568 98.5219 140.955 98.5219C139.342 98.5219 138.031 99.7941 138 101.375H143.91Z" fill="#99C0FF"/>
</g>
<g opacity="0.7">
<rect x="135" y="66" width="12" height="12" rx="6" fill="white"/>
<path d="M139.528 70.6878C139.528 71.4756 140.167 72.1143 140.955 72.1143C141.743 72.1143 142.381 71.4756 142.381 70.6878C142.381 69.8999 141.743 69.2612 140.955 69.2612C140.167 69.2612 139.528 69.8999 139.528 70.6878Z" fill="#99C0FF"/>
<path d="M143.91 75.3749C143.879 73.7941 142.568 72.5219 140.955 72.5219C139.342 72.5219 138.031 73.7941 138 75.3749H143.91Z" fill="#99C0FF"/>
</g>
<g opacity="0.7">
<rect x="117" y="52" width="12" height="12" rx="6" fill="white"/>
<path d="M121.528 56.6878C121.528 57.4756 122.167 58.1143 122.955 58.1143C123.743 58.1143 124.381 57.4756 124.381 56.6878C124.381 55.8999 123.743 55.2612 122.955 55.2612C122.167 55.2612 121.528 55.8999 121.528 56.6878Z" fill="#99C0FF"/>
<path d="M125.91 61.3749C125.879 59.7941 124.568 58.5219 122.955 58.5219C121.342 58.5219 120.031 59.7941 120 61.3749H125.91Z" fill="#99C0FF"/>
</g>
<g opacity="0.7">
<rect x="164" y="52" width="12" height="12" rx="6" fill="white"/>
<path d="M168.528 56.6878C168.528 57.4756 169.167 58.1143 169.955 58.1143C170.743 58.1143 171.381 57.4756 171.381 56.6878C171.381 55.8999 170.743 55.2612 169.955 55.2612C169.167 55.2612 168.528 55.8999 168.528 56.6878Z" fill="#99C0FF"/>
<path d="M172.91 61.3749C172.879 59.7941 171.568 58.5219 169.955 58.5219C168.342 58.5219 167.031 59.7941 167 61.3749H172.91Z" fill="#99C0FF"/>
</g>
<g opacity="0.7">
<rect x="115" y="19" width="12" height="12" rx="6" fill="white"/>
<path d="M119.528 23.6878C119.528 24.4756 120.167 25.1143 120.955 25.1143C121.743 25.1143 122.381 24.4756 122.381 23.6878C122.381 22.8999 121.743 22.2612 120.955 22.2612C120.167 22.2612 119.528 22.8999 119.528 23.6878Z" fill="#99C0FF"/>
<path d="M123.91 28.3749C123.879 26.7941 122.568 25.5219 120.955 25.5219C119.342 25.5219 118.031 26.7941 118 28.3749H123.91Z" fill="#99C0FF"/>
</g>
</svg>
