<svg width="74" height="48" viewBox="0 0 74 48" fill="none" xmlns="http://www.w3.org/2000/svg">
<g opacity="0.5">
<path d="M0 2C0 0.895431 0.895431 0 2 0H72C73.1046 0 74 0.895431 74 2V46C74 47.1046 73.1046 48 72 48H2C0.895429 48 0 47.1046 0 46V2Z" fill="white"/>
<rect x="18.3334" y="15.592" width="29.3333" height="18.6667" rx="1" transform="rotate(-15 18.3334 15.592)" fill="#B6C1D3"/>
<rect x="18.9154" y="17.7379" width="29.3333" height="2.66667" transform="rotate(-15 18.9154 17.7379)" fill="#8698B6"/>
<rect x="26.3334" y="21.3333" width="29.3333" height="18.6667" rx="1" fill="#0062FF"/>
<path d="M29 35.3333C29 34.9651 29.2985 34.6666 29.6667 34.6666H33.6667C34.0349 34.6666 34.3333 34.9651 34.3333 35.3333V36.6666C34.3333 37.0348 34.0349 37.3333 33.6667 37.3333H29.6667C29.2985 37.3333 29 37.0348 29 36.6666V35.3333Z" fill="#66A1FF"/>
<path d="M35.6667 35.3333C35.6667 34.9651 35.9651 34.6666 36.3333 34.6666H40.3333C40.7015 34.6666 41 34.9651 41 35.3333V36.6666C41 37.0348 40.7015 37.3333 40.3333 37.3333H36.3333C35.9651 37.3333 35.6667 37.0348 35.6667 36.6666V35.3333Z" fill="#66A1FF"/>
<path d="M42.3333 35.3333C42.3333 34.9651 42.6318 34.6666 43 34.6666H47C47.3682 34.6666 47.6667 34.9651 47.6667 35.3333V36.6666C47.6667 37.0348 47.3682 37.3333 47 37.3333H43C42.6318 37.3333 42.3333 37.0348 42.3333 36.6666V35.3333Z" fill="#66A1FF"/>
<path d="M49 35.3333C49 34.9651 49.2985 34.6666 49.6667 34.6666H52.3333C52.7015 34.6666 53 34.9651 53 35.3333V36.6666C53 37.0348 52.7015 37.3333 52.3333 37.3333H49.6667C49.2985 37.3333 49 37.0348 49 36.6666V35.3333Z" fill="#66A1FF"/>
<rect x="34.3334" y="24" width="2.66667" height="5.33333" rx="0.5" transform="rotate(90 34.3334 24)" fill="#E7EFFF"/>
<path d="M2 1H72V-1H2V1ZM73 2V46H75V2H73ZM72 47H2V49H72V47ZM1 46V2H-1V46H1ZM2 47C1.44771 47 1 46.5523 1 46H-1C-1 47.6569 0.343144 49 2 49V47ZM73 46C73 46.5523 72.5523 47 72 47V49C73.6569 49 75 47.6569 75 46H73ZM72 1C72.5523 1 73 1.44771 73 2H75C75 0.343147 73.6569 -1 72 -1V1ZM2 -1C0.343145 -1 -1 0.343147 -1 2H1C1 1.44772 1.44772 1 2 1V-1Z" fill="#B6C1D3"/>
</g>
</svg>
