<svg width="74" height="48" viewBox="0 0 74 48" fill="none" xmlns="http://www.w3.org/2000/svg">
<g opacity="0.5">
<g clip-path="url(#clip0_10_7997)">
<rect width="74" height="48" fill="white"/>
<path d="M74 41.4188H-3.8147e-05V48H74V41.4188Z" fill="#FCB316"/>
<path d="M74 41.4188H-3.8147e-05V48H74V41.4188Z" fill="black" style="mix-blend-mode:color"/>
<path d="M74 2.28882e-05H-3.8147e-05V6.58125H74V2.28882e-05Z" fill="#10357F"/>
<path d="M74 2.28882e-05H-3.8147e-05V6.58125H74V2.28882e-05Z" fill="black" style="mix-blend-mode:color"/>
<path d="M29.8317 15.0224L22.3205 32.9776H17.3846L13.6647 18.6706C13.4501 17.8122 13.2355 17.4545 12.5917 17.0969C11.4472 16.5246 9.65878 15.9523 8.01347 15.5946L8.15654 15.0939H16.0969C17.0984 15.0939 18.0284 15.7377 18.243 16.9538L20.1029 27.2548L24.9673 15.0224H29.8317ZM49.1461 27.1118C49.1461 22.3905 42.5649 22.1043 42.6364 19.9583C42.6364 19.3145 43.2802 18.5991 44.6394 18.456C45.2832 18.3845 47.1431 18.313 49.2176 19.2429L50.0045 15.4516C48.86 15.0224 47.4293 14.6647 45.6409 14.6647C41.0627 14.6647 37.772 17.0969 37.772 20.6021C37.772 23.1773 40.0612 24.608 41.8495 25.4665C43.6379 26.3249 44.2817 26.8972 44.2817 27.6841C44.2817 28.9002 42.851 29.4009 41.4919 29.4724C39.1312 29.544 37.772 28.8286 36.699 28.3279L35.8406 32.3338C36.9136 32.8346 38.9166 33.2638 40.9911 33.2638C45.927 33.2638 49.0746 30.9031 49.1461 27.1118ZM61.3071 32.9776H65.5992L61.8078 15.0224H57.8019C56.9434 15.0224 56.1565 15.5231 55.7989 16.31L48.7884 32.9776H53.6528L54.6543 30.2593H60.5917L61.3071 32.9776ZM56.085 26.611L58.5172 19.8867L59.9479 26.611H56.085ZM36.4844 15.0224L32.6215 33.0492H27.9717L31.8346 15.0224H36.4844Z" fill="#10357F"/>
<path d="M29.8317 15.0224L22.3205 32.9776H17.3846L13.6647 18.6706C13.4501 17.8122 13.2355 17.4545 12.5917 17.0969C11.4472 16.5246 9.65878 15.9523 8.01347 15.5946L8.15654 15.0939H16.0969C17.0984 15.0939 18.0284 15.7377 18.243 16.9538L20.1029 27.2548L24.9673 15.0224H29.8317ZM49.1461 27.1118C49.1461 22.3905 42.5649 22.1043 42.6364 19.9583C42.6364 19.3145 43.2802 18.5991 44.6394 18.456C45.2832 18.3845 47.1431 18.313 49.2176 19.2429L50.0045 15.4516C48.86 15.0224 47.4293 14.6647 45.6409 14.6647C41.0627 14.6647 37.772 17.0969 37.772 20.6021C37.772 23.1773 40.0612 24.608 41.8495 25.4665C43.6379 26.3249 44.2817 26.8972 44.2817 27.6841C44.2817 28.9002 42.851 29.4009 41.4919 29.4724C39.1312 29.544 37.772 28.8286 36.699 28.3279L35.8406 32.3338C36.9136 32.8346 38.9166 33.2638 40.9911 33.2638C45.927 33.2638 49.0746 30.9031 49.1461 27.1118ZM61.3071 32.9776H65.5992L61.8078 15.0224H57.8019C56.9434 15.0224 56.1565 15.5231 55.7989 16.31L48.7884 32.9776H53.6528L54.6543 30.2593H60.5917L61.3071 32.9776ZM56.085 26.611L58.5172 19.8867L59.9479 26.611H56.085ZM36.4844 15.0224L32.6215 33.0492H27.9717L31.8346 15.0224H36.4844Z" fill="black" style="mix-blend-mode:color"/>
</g>
<path d="M2 1H72V-1H2V1ZM73 2V46H75V2H73ZM72 47H2V49H72V47ZM1 46V2H-1V46H1ZM2 47C1.44771 47 1 46.5523 1 46H-1C-1 47.6569 0.343144 49 2 49V47ZM73 46C73 46.5523 72.5523 47 72 47V49C73.6569 49 75 47.6569 75 46H73ZM72 1C72.5523 1 73 1.44771 73 2H75C75 0.343147 73.6569 -1 72 -1V1ZM2 -1C0.343145 -1 -1 0.343147 -1 2H1C1 1.44772 1.44772 1 2 1V-1Z" fill="#B6C1D3"/>
</g>
<defs>
<clipPath id="clip0_10_7997">
<path d="M0 2C0 0.895431 0.895431 0 2 0H72C73.1046 0 74 0.895431 74 2V46C74 47.1046 73.1046 48 72 48H2C0.895429 48 0 47.1046 0 46V2Z" fill="white"/>
</clipPath>
</defs>
</svg>
