<svg width="74" height="48" viewBox="0 0 74 48" fill="none" xmlns="http://www.w3.org/2000/svg">
<g opacity="0.5">
<path d="M0 2C0 0.895431 0.895431 0 2 0H72C73.1046 0 74 0.895431 74 2V46C74 47.1046 73.1046 48 72 48H2C0.895429 48 0 47.1046 0 46V2Z" fill="#016FD0"/>
<path d="M0 2C0 0.895431 0.895431 0 2 0H72C73.1046 0 74 0.895431 74 2V46C74 47.1046 73.1046 48 72 48H2C0.895429 48 0 47.1046 0 46V2Z" fill="black" style="mix-blend-mode:color"/>
<path d="M14.3294 37.3874V25.7983H26.6001L27.9166 27.5145L29.2766 25.7983H73.8162V36.5882C73.8162 36.5882 72.6515 37.3758 71.3043 37.3874H46.6418L45.1575 35.5605V37.3874H40.2935V34.2689C40.2935 34.2689 39.6291 34.7042 38.1926 34.7042H36.537V37.3874H29.1725L27.8579 35.6343L26.5231 37.3874H14.3294Z" fill="white"/>
<path d="M0 17.0637L2.76709 10.6126H7.55249L9.12284 14.2262V10.6126H15.0715L16.0064 13.2244L16.9127 10.6126H43.6161V11.9257C43.6161 11.9257 45.0199 10.6126 47.3269 10.6126L55.9912 10.6429L57.5344 14.2092V10.6126H62.5126L63.8827 12.6612V10.6126H68.9066V22.2017H63.8827L62.5697 20.1465V22.2017H55.2556L54.5201 20.3748H52.5539L51.8303 22.2017H46.8702C44.8851 22.2017 43.6161 20.9154 43.6161 20.9154V22.2017H36.1374L34.6531 20.3748V22.2017H6.84356L6.10854 20.3748H4.14855L3.41872 22.2017H0V17.0637Z" fill="white"/>
<path d="M3.74647 12.0413L0.0142708 20.7188H2.44413L3.13276 18.9812H7.13614L7.82121 20.7188H10.3046L6.57595 12.0413H3.74647ZM5.12732 14.0608L6.3476 17.0973H3.90347L5.12732 14.0608Z" fill="#016FD0"/>
<path d="M3.74647 12.0413L0.0142708 20.7188H2.44413L3.13276 18.9812H7.13614L7.82121 20.7188H10.3046L6.57595 12.0413H3.74647ZM5.12732 14.0608L6.3476 17.0973H3.90347L5.12732 14.0608Z" fill="black" style="mix-blend-mode:color"/>
<path d="M10.5615 20.7174V12.0398L14.0144 12.0527L16.0228 17.6474L17.9831 12.0398H21.4084V20.7174H19.239V14.3234L16.9394 20.7174H15.0369L12.7309 14.3234V20.7174H10.5615Z" fill="#016FD0"/>
<path d="M10.5615 20.7174V12.0398L14.0144 12.0527L16.0228 17.6474L17.9831 12.0398H21.4084V20.7174H19.239V14.3234L16.9394 20.7174H15.0369L12.7309 14.3234V20.7174H10.5615Z" fill="black" style="mix-blend-mode:color"/>
<path d="M22.8927 20.7174V12.0398H29.9718V13.9809H25.085V15.4652H29.8576V17.292H25.085V18.8334H29.9718V20.7174H22.8927Z" fill="#016FD0"/>
<path d="M22.8927 20.7174V12.0398H29.9718V13.9809H25.085V15.4652H29.8576V17.292H25.085V18.8334H29.9718V20.7174H22.8927Z" fill="black" style="mix-blend-mode:color"/>
<path d="M31.2278 12.0413V20.7188H33.3971V17.636H34.3106L36.9117 20.7188H39.5628L36.7083 17.5219C37.8798 17.423 39.0882 16.4175 39.0882 14.8565C39.0882 13.0305 37.655 12.0413 36.0554 12.0413H31.2278ZM33.3971 13.9823H35.877C36.4718 13.9823 36.9046 14.4477 36.9046 14.8958C36.9046 15.4722 36.3439 15.8092 35.9091 15.8092H33.3971V13.9823Z" fill="#016FD0"/>
<path d="M31.2278 12.0413V20.7188H33.3971V17.636H34.3106L36.9117 20.7188H39.5628L36.7083 17.5219C37.8798 17.423 39.0882 16.4175 39.0882 14.8565C39.0882 13.0305 37.655 12.0413 36.0554 12.0413H31.2278ZM33.3971 13.9823H35.877C36.4718 13.9823 36.9046 14.4477 36.9046 14.8958C36.9046 15.4722 36.3439 15.8092 35.9091 15.8092H33.3971V13.9823Z" fill="black" style="mix-blend-mode:color"/>
<path d="M42.1889 20.7174H39.9738V12.0398H42.1889V20.7174Z" fill="#016FD0"/>
<path d="M42.1889 20.7174H39.9738V12.0398H42.1889V20.7174Z" fill="black" style="mix-blend-mode:color"/>
<path d="M47.4411 20.7174H46.9629C44.6496 20.7174 43.245 18.8948 43.245 16.4143C43.245 13.8725 44.6338 12.0398 47.5552 12.0398H49.953V14.095H47.4676C46.2817 14.095 45.4429 15.0205 45.4429 16.4357C45.4429 18.1162 46.402 18.822 47.7836 18.822H48.3545L47.4411 20.7174Z" fill="#016FD0"/>
<path d="M47.4411 20.7174H46.9629C44.6496 20.7174 43.245 18.8948 43.245 16.4143C43.245 13.8725 44.6338 12.0398 47.5552 12.0398H49.953V14.095H47.4676C46.2817 14.095 45.4429 15.0205 45.4429 16.4357C45.4429 18.1162 46.402 18.822 47.7836 18.822H48.3545L47.4411 20.7174Z" fill="black" style="mix-blend-mode:color"/>
<path d="M52.1616 12.0413L48.4294 20.7188H50.8593L51.5479 18.9812H55.5513L56.2364 20.7188H58.7197L54.9911 12.0413H52.1616ZM53.5425 14.0608L54.7627 17.0973H52.3186L53.5425 14.0608Z" fill="#016FD0"/>
<path d="M52.1616 12.0413L48.4294 20.7188H50.8593L51.5479 18.9812H55.5513L56.2364 20.7188H58.7197L54.9911 12.0413H52.1616ZM53.5425 14.0608L54.7627 17.0973H52.3186L53.5425 14.0608Z" fill="black" style="mix-blend-mode:color"/>
<path d="M58.9731 20.7174V12.0398H61.7312L65.2529 17.4918V12.0398H67.4223V20.7174H64.7533L61.1425 15.1226V20.7174H58.9731Z" fill="#016FD0"/>
<path d="M58.9731 20.7174V12.0398H61.7312L65.2529 17.4918V12.0398H67.4223V20.7174H64.7533L61.1425 15.1226V20.7174H58.9731Z" fill="black" style="mix-blend-mode:color"/>
<path d="M15.8137 35.9031V27.2255H22.8927V29.1666H18.0059V30.6509H22.7786V32.4777H18.0059V34.0192H22.8927V35.9031H15.8137Z" fill="#016FD0"/>
<path d="M15.8137 35.9031V27.2255H22.8927V29.1666H18.0059V30.6509H22.7786V32.4777H18.0059V34.0192H22.8927V35.9031H15.8137Z" fill="black" style="mix-blend-mode:color"/>
<path d="M50.501 35.9031V27.2255H57.5801V29.1666H52.6933V30.6509H57.4431V32.4777H52.6933V34.0192H57.5801V35.9031H50.501Z" fill="#016FD0"/>
<path d="M50.501 35.9031V27.2255H57.5801V29.1666H52.6933V30.6509H57.4431V32.4777H52.6933V34.0192H57.5801V35.9031H50.501Z" fill="black" style="mix-blend-mode:color"/>
<path d="M23.1675 35.9031L26.6142 31.6178L23.0854 27.2255H25.8186L27.9202 29.9408L30.0289 27.2255H32.655L29.1725 31.5643L32.6256 35.9031H29.8929L27.8524 33.2306L25.8614 35.9031H23.1675Z" fill="#016FD0"/>
<path d="M23.1675 35.9031L26.6142 31.6178L23.0854 27.2255H25.8186L27.9202 29.9408L30.0289 27.2255H32.655L29.1725 31.5643L32.6256 35.9031H29.8929L27.8524 33.2306L25.8614 35.9031H23.1675Z" fill="black" style="mix-blend-mode:color"/>
<path d="M32.8833 27.227V35.9046H35.1098V33.1643H37.3934C39.3256 33.1643 40.7902 32.1392 40.7902 30.1457C40.7902 28.4943 39.6415 27.227 37.6753 27.227H32.8833ZM35.1098 29.1894H37.5147C38.1389 29.1894 38.5851 29.572 38.5851 30.1885C38.5851 30.7676 38.1412 31.1876 37.5076 31.1876H35.1098V29.1894Z" fill="#016FD0"/>
<path d="M32.8833 27.227V35.9046H35.1098V33.1643H37.3934C39.3256 33.1643 40.7902 32.1392 40.7902 30.1457C40.7902 28.4943 39.6415 27.227 37.6753 27.227H32.8833ZM35.1098 29.1894H37.5147C38.1389 29.1894 38.5851 29.572 38.5851 30.1885C38.5851 30.7676 38.1412 31.1876 37.5076 31.1876H35.1098V29.1894Z" fill="black" style="mix-blend-mode:color"/>
<path d="M41.7322 27.2255V35.9031H43.9015V32.8203H44.815L47.4161 35.9031H50.0672L47.2127 32.7061C48.3842 32.6072 49.5926 31.6018 49.5926 30.0407C49.5926 28.2147 48.1594 27.2255 46.5598 27.2255H41.7322ZM43.9015 29.1666H46.3813C46.9762 29.1666 47.409 29.6319 47.409 30.08C47.409 30.6565 46.8483 30.9934 46.4135 30.9934H43.9015V29.1666Z" fill="#016FD0"/>
<path d="M41.7322 27.2255V35.9031H43.9015V32.8203H44.815L47.4161 35.9031H50.0672L47.2127 32.7061C48.3842 32.6072 49.5926 31.6018 49.5926 30.0407C49.5926 28.2147 48.1594 27.2255 46.5598 27.2255H41.7322ZM43.9015 29.1666H46.3813C46.9762 29.1666 47.409 29.6319 47.409 30.08C47.409 30.6565 46.8483 30.9934 46.4135 30.9934H43.9015V29.1666Z" fill="black" style="mix-blend-mode:color"/>
<path d="M58.5849 35.9031V34.0192H62.9265C63.5689 34.0192 63.8471 33.672 63.8471 33.2913C63.8471 32.9265 63.5698 32.5577 62.9265 32.5577H60.9646C59.2592 32.5577 58.3094 31.5186 58.3094 29.9587C58.3094 28.5673 59.1792 27.2255 61.7133 27.2255H65.9379L65.0245 29.178H61.3708C60.6724 29.178 60.4574 29.5445 60.4574 29.8945C60.4574 30.2542 60.7231 30.6509 61.2566 30.6509H63.3118C65.2129 30.6509 66.0378 31.7292 66.0378 33.1414C66.0378 34.6596 65.1186 35.9031 63.2084 35.9031H58.5849Z" fill="#016FD0"/>
<path d="M58.5849 35.9031V34.0192H62.9265C63.5689 34.0192 63.8471 33.672 63.8471 33.2913C63.8471 32.9265 63.5698 32.5577 62.9265 32.5577H60.9646C59.2592 32.5577 58.3094 31.5186 58.3094 29.9587C58.3094 28.5673 59.1792 27.2255 61.7133 27.2255H65.9379L65.0245 29.178H61.3708C60.6724 29.178 60.4574 29.5445 60.4574 29.8945C60.4574 30.2542 60.7231 30.6509 61.2566 30.6509H63.3118C65.2129 30.6509 66.0378 31.7292 66.0378 33.1414C66.0378 34.6596 65.1186 35.9031 63.2084 35.9031H58.5849Z" fill="black" style="mix-blend-mode:color"/>
<path d="M66.547 35.9031V34.0192H70.8886C71.531 34.0192 71.8092 33.672 71.8092 33.2913C71.8092 32.9265 71.5319 32.5577 70.8886 32.5577H68.9267C67.2213 32.5577 66.2716 31.5186 66.2716 29.9587C66.2716 28.5673 67.1413 27.2255 69.6755 27.2255H73.9001L72.9867 29.178H69.333C68.6345 29.178 68.4195 29.5445 68.4195 29.8945C68.4195 30.2542 68.6852 30.6509 69.2188 30.6509H71.274C73.1751 30.6509 74 31.7292 74 33.1414C74 34.6596 73.0808 35.9031 71.1705 35.9031H66.547Z" fill="#016FD0"/>
<path d="M66.547 35.9031V34.0192H70.8886C71.531 34.0192 71.8092 33.672 71.8092 33.2913C71.8092 32.9265 71.5319 32.5577 70.8886 32.5577H68.9267C67.2213 32.5577 66.2716 31.5186 66.2716 29.9587C66.2716 28.5673 67.1413 27.2255 69.6755 27.2255H73.9001L72.9867 29.178H69.333C68.6345 29.178 68.4195 29.5445 68.4195 29.8945C68.4195 30.2542 68.6852 30.6509 69.2188 30.6509H71.274C73.1751 30.6509 74 31.7292 74 33.1414C74 34.6596 73.0808 35.9031 71.1705 35.9031H66.547Z" fill="black" style="mix-blend-mode:color"/>
</g>
</svg>
