<svg width="74" height="48" viewBox="0 0 74 48" fill="none" xmlns="http://www.w3.org/2000/svg">
<g opacity="0.5">
<path d="M0 2C0 0.895431 0.895431 0 2 0H72C73.1046 0 74 0.895431 74 2V46C74 47.1046 73.1046 48 72 48H2C0.895429 48 0 47.1046 0 46V2Z" fill="white"/>
<g clip-path="url(#clip0_10_7997)">
<path d="M60.4971 27.0152C60.4971 26.5944 60.4971 15.0375 60.4971 15.0375C60.4971 12.9952 58.922 11.3353 56.9818 11.3353H13.25C11.3089 11.3353 9.7255 12.9952 9.7255 15.0375V28.4077C9.7255 30.4504 11.3089 32.1112 13.25 32.1112H16.3033V33.2697C16.3033 35.1407 17.7356 36.6651 19.4994 36.6651H61.0658C62.8338 36.6651 64.2744 35.1407 64.2744 33.2697V30.423C64.2744 28.5488 62.8448 27.0152 61.0814 27.0152H60.4971" fill="#184285"/>
<path d="M60.4971 27.0152C60.4971 26.5944 60.4971 15.0375 60.4971 15.0375C60.4971 12.9952 58.922 11.3353 56.9818 11.3353H13.25C11.3089 11.3353 9.7255 12.9952 9.7255 15.0375V28.4077C9.7255 30.4504 11.3089 32.1112 13.25 32.1112H16.3033V33.2697C16.3033 35.1407 17.7356 36.6651 19.4994 36.6651H61.0658C62.8338 36.6651 64.2744 35.1407 64.2744 33.2697V30.423C64.2744 28.5488 62.8448 27.0152 61.0814 27.0152H60.4971" fill="black" style="mix-blend-mode:color"/>
<path d="M61.0814 27.4168C62.6204 27.4168 63.8728 28.7654 63.8728 30.423V33.2697C63.8728 34.9205 62.6136 36.2635 61.0659 36.2635H19.4994C17.9586 36.2635 16.7049 34.9205 16.7049 33.2697V31.7097H13.25C11.5283 31.7097 10.1276 30.2284 10.1276 28.4078V15.0375C10.1276 13.2178 11.5283 11.7369 13.25 11.7369H56.9818C58.6985 11.7369 60.0956 13.2178 60.0956 15.0375V27.4168H61.0814ZM60.8987 26.6132V15.0375C60.8987 12.7745 59.1418 10.9333 56.9818 10.9333H13.25C11.085 10.9333 9.32394 12.7745 9.32394 15.0375V28.4078C9.32394 30.6712 11.085 32.5128 13.25 32.5128H15.9017V33.2697C15.9017 35.3633 17.5153 37.0666 19.4994 37.0666H61.0659C63.0568 37.0666 64.676 35.3633 64.676 33.2697V30.423C64.676 28.3221 63.0637 26.6132 61.0814 26.6132H60.8987Z" fill="white"/>
<path d="M61.0814 27.4168C62.6204 27.4168 63.8728 28.7654 63.8728 30.423V33.2697C63.8728 34.9205 62.6136 36.2635 61.0659 36.2635H19.4994C17.9586 36.2635 16.7049 34.9205 16.7049 33.2697V31.7097H13.25C11.5283 31.7097 10.1276 30.2284 10.1276 28.4078V15.0375C10.1276 13.2178 11.5283 11.7369 13.25 11.7369H56.9818C58.6985 11.7369 60.0956 13.2178 60.0956 15.0375V27.4168H61.0814ZM60.8987 26.6132V15.0375C60.8987 12.7745 59.1418 10.9333 56.9818 10.9333H13.25C11.085 10.9333 9.32394 12.7745 9.32394 15.0375V28.4078C9.32394 30.6712 11.085 32.5128 13.25 32.5128H15.9017V33.2697C15.9017 35.3633 17.5153 37.0666 19.4994 37.0666H61.0659C63.0568 37.0666 64.676 35.3633 64.676 33.2697V30.423C64.676 28.3221 63.0637 26.6132 61.0814 26.6132H60.8987Z" fill="black" style="mix-blend-mode:color"/>
<path d="M13.9122 15.1561C13.8723 14.9125 13.6137 14.7289 13.3165 14.7289C12.7739 14.7289 12.5742 15.1391 12.5742 15.5696C12.5742 15.9785 12.7739 16.3924 13.3165 16.3924C13.6833 16.3924 13.8893 16.1639 13.9328 15.8411H14.5148C14.453 16.4533 13.9855 16.848 13.3165 16.848C12.4716 16.848 11.9739 16.2789 11.9739 15.5696C11.9739 14.8392 12.4716 14.2723 13.3165 14.2723C13.9163 14.2723 14.4205 14.5883 14.4942 15.1561H13.9122Z" fill="white"/>
<path d="M13.9122 15.1561C13.8723 14.9125 13.6137 14.7289 13.3165 14.7289C12.7739 14.7289 12.5742 15.1391 12.5742 15.5696C12.5742 15.9785 12.7739 16.3924 13.3165 16.3924C13.6833 16.3924 13.8893 16.1639 13.9328 15.8411H14.5148C14.453 16.4533 13.9855 16.848 13.3165 16.848C12.4716 16.848 11.9739 16.2789 11.9739 15.5696C11.9739 14.8392 12.4716 14.2723 13.3165 14.2723C13.9163 14.2723 14.4205 14.5883 14.4942 15.1561H13.9122Z" fill="black" style="mix-blend-mode:color"/>
<path d="M12.8528 19.0594H13.5617L13.2164 18.1619H13.2079L12.8528 19.0594ZM12.9106 17.5557H13.5278L14.5462 20.0114H13.9267L13.7169 19.4647H12.6967L12.4843 20.0114H11.8771L12.9106 17.5557Z" fill="white"/>
<path d="M12.8528 19.0594H13.5617L13.2164 18.1619H13.2079L12.8528 19.0594ZM12.9106 17.5557H13.5278L14.5462 20.0114H13.9267L13.7169 19.4647H12.6967L12.4843 20.0114H11.8771L12.9106 17.5557Z" fill="black" style="mix-blend-mode:color"/>
<path d="M12.686 21.8304H13.344C13.6118 21.8304 13.7561 21.727 13.7561 21.4801C13.7561 21.2439 13.6118 21.1399 13.344 21.1399H12.686V21.8304ZM12.0875 20.7191H13.5573C14.0477 20.7191 14.3559 21.025 14.3559 21.3986C14.3559 21.6866 14.2286 21.9009 13.9269 22.0104V22.0203C14.2199 22.0872 14.3046 22.3486 14.323 22.5963C14.3342 22.747 14.33 23.0391 14.4374 23.1774H13.8357C13.7629 23.0199 13.7725 22.7845 13.7405 22.589C13.7005 22.3289 13.5875 22.2167 13.2871 22.2167H12.6859V23.1774H12.0874L12.0875 20.7191Z" fill="white"/>
<path d="M12.686 21.8304H13.344C13.6118 21.8304 13.7561 21.727 13.7561 21.4801C13.7561 21.2439 13.6118 21.1399 13.344 21.1399H12.686V21.8304ZM12.0875 20.7191H13.5573C14.0477 20.7191 14.3559 21.025 14.3559 21.3986C14.3559 21.6866 14.2286 21.9009 13.9269 22.0104V22.0203C14.2199 22.0872 14.3046 22.3486 14.323 22.5963C14.3342 22.747 14.33 23.0391 14.4374 23.1774H13.8357C13.7629 23.0199 13.7725 22.7845 13.7405 22.589C13.7005 22.3289 13.5875 22.2167 13.2871 22.2167H12.6859V23.1774H12.0874L12.0875 20.7191Z" fill="black" style="mix-blend-mode:color"/>
<path d="M12.9126 24.3677H12.093V23.912H14.3303V24.3677H13.5102V26.3728H12.9126V24.3677Z" fill="white"/>
<path d="M12.9126 24.3677H12.093V23.912H14.3303V24.3677H13.5102V26.3728H12.9126V24.3677Z" fill="black" style="mix-blend-mode:color"/>
<path d="M12.196 29.4747H14.2703V29.0209H12.7963V28.4188H14.1187V27.9979H12.7963V27.4718H14.2378V27.018H12.196V29.4747Z" fill="white"/>
<path d="M12.196 29.4747H14.2703V29.0209H12.7963V28.4188H14.1187V27.9979H12.7963V27.4718H14.2378V27.018H12.196V29.4747Z" fill="black" style="mix-blend-mode:color"/>
<path d="M16.6833 31.7692V30.4573C16.6833 28.7759 18.0025 27.4123 19.5773 27.4123H60.107V28.7786C60.107 30.3758 58.933 31.674 57.6005 31.7582L16.6833 31.7695" fill="#68BCEB"/>
<path d="M16.6833 31.7692V30.4573C16.6833 28.7759 18.0025 27.4123 19.5773 27.4123H60.107V28.7786C60.107 30.3758 58.933 31.674 57.6005 31.7582L16.6833 31.7695" fill="black" style="mix-blend-mode:color"/>
<path d="M63.8688 30.4188C63.8688 28.7356 62.5999 27.4027 61.0206 27.4027H60.1085V28.7191C60.1085 30.2622 59.0273 31.5219 57.6266 31.7028H16.693L16.692 33.2367C16.692 34.9195 17.9815 36.2832 19.5589 36.2832H60.9995C62.5829 36.2832 63.8687 34.9195 63.8687 33.2367V30.4188" fill="#B3DCF5"/>
<path d="M63.8688 30.4188C63.8688 28.7356 62.5999 27.4027 61.0206 27.4027H60.1085V28.7191C60.1085 30.2622 59.0273 31.5219 57.6266 31.7028H16.693L16.692 33.2367C16.692 34.9195 17.9815 36.2832 19.5589 36.2832H60.9995C62.5829 36.2832 63.8687 34.9195 63.8687 33.2367V30.4188" fill="black" style="mix-blend-mode:color"/>
<path fill-rule="evenodd" clip-rule="evenodd" d="M47.088 14.1817V19.1774C47.088 20.1019 47.2611 21.0694 45.0727 21.0694C43.0131 21.0694 43.0653 20.2003 43.0653 19.1774V14.1331H41.1064V19.1774C41.1064 21.2049 42.2026 22.7815 45.0572 22.7815C48.2116 22.7815 49.0414 20.9723 49.0414 19.1774V14.1817H47.088Z" fill="white"/>
<path fill-rule="evenodd" clip-rule="evenodd" d="M47.088 14.1817V19.1774C47.088 20.1019 47.2611 21.0694 45.0727 21.0694C43.0131 21.0694 43.0653 20.2003 43.0653 19.1774V14.1331H41.1064V19.1774C41.1064 21.2049 42.2026 22.7815 45.0572 22.7815C48.2116 22.7815 49.0414 20.9723 49.0414 19.1774V14.1817H47.088Z" fill="black" style="mix-blend-mode:color"/>
<path fill-rule="evenodd" clip-rule="evenodd" d="M31.9946 22.6817V21.1024H28.456C28.1762 21.0982 27.9491 20.9128 27.9271 20.6678V14.1372H25.7443V20.9893H25.7499C25.7499 21.9275 26.6012 22.6789 27.6543 22.6817H31.9946Z" fill="white"/>
<path fill-rule="evenodd" clip-rule="evenodd" d="M31.9946 22.6817V21.1024H28.456C28.1762 21.0982 27.9491 20.9128 27.9271 20.6678V14.1372H25.7443V20.9893H25.7499C25.7499 21.9275 26.6012 22.6789 27.6543 22.6817H31.9946Z" fill="black" style="mix-blend-mode:color"/>
<path d="M39.4511 15.7857V14.1331H33.1302V20.9613C33.1302 21.8968 33.9934 22.6583 35.052 22.6583H39.43V21.1482H35.3135V19.0281H39.43V17.5463H35.3135V15.7857H39.4511Z" fill="white"/>
<path d="M39.4511 15.7857V14.1331H33.1302V20.9613C33.1302 21.8968 33.9934 22.6583 35.052 22.6583H39.43V21.1482H35.3135V19.0281H39.43V17.5463H35.3135V15.7857H39.4511Z" fill="black" style="mix-blend-mode:color"/>
<path d="M57.062 15.7857V14.1331H50.7324V20.9613C50.7324 21.8968 51.5992 22.6583 52.6597 22.6583H57.0441V21.1482H52.917V19.0281H57.0441V17.5463H52.917V15.7857H57.062Z" fill="white"/>
<path d="M57.062 15.7857V14.1331H50.7324V20.9613C50.7324 21.8968 51.5992 22.6583 52.6597 22.6583H57.0441V21.1482H52.917V19.0281H57.0441V17.5463H52.917V15.7857H57.062Z" fill="black" style="mix-blend-mode:color"/>
<path fill-rule="evenodd" clip-rule="evenodd" d="M18.0405 19.0459V21.0428H21.1543C21.8892 21.0428 22.4662 20.7328 22.4662 19.9897C22.4662 19.1815 21.8118 19.0459 21.1543 19.0459H18.0405ZM18.0405 17.3274H21.1543C21.6282 17.3274 22.0366 17.0696 22.0366 16.5673C22.0366 15.9899 21.6126 15.8429 21.1543 15.8429H18.0405V17.3274ZM21.1543 14.1221C22.7597 14.1221 23.741 14.8996 23.741 16.4844C23.741 17.0165 23.5436 17.626 23.1709 18.0051C23.6274 18.3715 24.1686 18.9145 24.1686 20.0061C24.1686 21.7251 22.9405 22.6844 21.1543 22.6844H16.3344V14.1221H21.1543Z" fill="white"/>
<path fill-rule="evenodd" clip-rule="evenodd" d="M18.0405 19.0459V21.0428H21.1543C21.8892 21.0428 22.4662 20.7328 22.4662 19.9897C22.4662 19.1815 21.8118 19.0459 21.1543 19.0459H18.0405ZM18.0405 17.3274H21.1543C21.6282 17.3274 22.0366 17.0696 22.0366 16.5673C22.0366 15.9899 21.6126 15.8429 21.1543 15.8429H18.0405V17.3274ZM21.1543 14.1221C22.7597 14.1221 23.741 14.8996 23.741 16.4844C23.741 17.0165 23.5436 17.626 23.1709 18.0051C23.6274 18.3715 24.1686 18.9145 24.1686 20.0061C24.1686 21.7251 22.9405 22.6844 21.1543 22.6844H16.3344V14.1221H21.1543Z" fill="black" style="mix-blend-mode:color"/>
</g>
<path d="M2 1H72V-1H2V1ZM73 2V46H75V2H73ZM72 47H2V49H72V47ZM1 46V2H-1V46H1ZM2 47C1.44771 47 1 46.5523 1 46H-1C-1 47.6569 0.343144 49 2 49V47ZM73 46C73 46.5523 72.5523 47 72 47V49C73.6569 49 75 47.6569 75 46H73ZM72 1C72.5523 1 73 1.44771 73 2H75C75 0.343147 73.6569 -1 72 -1V1ZM2 -1C0.343145 -1 -1 0.343147 -1 2H1C1 1.44772 1.44772 1 2 1V-1Z" fill="#B6C1D3"/>
</g>
<defs>
<clipPath id="clip0_10_7997">
<rect width="56" height="26.1333" fill="white" transform="translate(9 10.9333)"/>
</clipPath>
</defs>
</svg>
