<svg width="58" height="38" viewBox="0 0 58 38" fill="none" xmlns="http://www.w3.org/2000/svg">
<g clip-path="url(#clip0_2974_17281)">
<rect width="55.5" height="36" transform="translate(1.25 1)" fill="white"/>
<path d="M56.75 32.0645H1.25V37.0004H56.75V32.0645Z" fill="#FCB316"/>
<path d="M56.75 1H1.25V5.93592H56.75V1Z" fill="#10357F"/>
<path d="M23.6234 12.2673L17.99 25.7337H14.2881L11.4982 15.0035C11.3373 14.3597 11.1763 14.0914 10.6934 13.8232C9.83503 13.394 8.49374 12.9647 7.25977 12.6965L7.36707 12.3209H13.3224C14.0735 12.3209 14.7709 12.8038 14.9319 13.7159L16.3268 21.4416L19.9751 12.2673H23.6234ZM38.1092 21.3343C38.1092 17.7934 33.1733 17.5788 33.227 15.9692C33.227 15.4864 33.7098 14.9498 34.7292 14.8425C35.2121 14.7889 36.607 14.7352 38.1629 15.4327L38.7531 12.5892C37.8946 12.2673 36.8216 11.999 35.4803 11.999C32.0466 11.999 29.5787 13.8232 29.5787 16.4521C29.5787 18.3835 31.2955 19.4565 32.6368 20.1004C33.9781 20.7442 34.461 21.1734 34.461 21.7636C34.461 22.6756 33.3879 23.0512 32.3686 23.1048C30.5981 23.1585 29.5787 22.622 28.7739 22.2464L28.1301 25.2509C28.9349 25.6264 30.4371 25.9484 31.993 25.9484C35.6949 25.9484 38.0556 24.1779 38.1092 21.3343ZM47.23 25.7337H50.449L47.6055 12.2673H44.601C43.9572 12.2673 43.3671 12.6428 43.0988 13.233L37.841 25.7337H41.4893L42.2404 23.695H46.6934L47.23 25.7337ZM43.3134 20.9588L45.1376 15.9156L46.2106 20.9588H43.3134ZM28.613 12.2673L25.7158 25.7874H22.2285L25.1256 12.2673H28.613Z" fill="#10357F"/>
</g>
<path d="M2.5 2H55V0H2.5V2ZM55.5 2.5V35.5H57.5V2.5H55.5ZM55 36H2.5V38H55V36ZM2 35.5V2.5H0V35.5H2ZM2.5 36C2.22386 36 2 35.7761 2 35.5H0C0 36.8807 1.11929 38 2.5 38V36ZM55.5 35.5C55.5 35.7761 55.2761 36 55 36V38C56.3807 38 57.5 36.8807 57.5 35.5H55.5ZM55 2C55.2761 2 55.5 2.22386 55.5 2.5H57.5C57.5 1.11929 56.3807 0 55 0V2ZM2.5 0C1.11929 0 0 1.11929 0 2.5H2C2 2.22386 2.22386 2 2.5 2V0Z" fill="#E5E9F0"/>
<defs>
<clipPath id="clip0_2974_17281">
<path d="M1 2.5C1 1.67157 1.67157 1 2.5 1H55C55.8284 1 56.5 1.67157 56.5 2.5V35.5C56.5 36.3284 55.8284 37 55 37H2.5C1.67157 37 1 36.3284 1 35.5V2.5Z" fill="white"/>
</clipPath>
</defs>
</svg>
