<svg width="74" height="48" viewBox="0 0 74 48" fill="none" xmlns="http://www.w3.org/2000/svg">
<path d="M0 2C0 0.895431 0.895431 0 2 0H72C73.1046 0 74 0.895431 74 2V46C74 47.1046 73.1046 48 72 48H2C0.895429 48 0 47.1046 0 46V2Z" fill="white"/>
<path d="M23.9143 39.8234V37.7044C23.9266 37.5262 23.9009 37.3474 23.8387 37.1799C23.7765 37.0125 23.6794 36.8602 23.5537 36.7332C23.4281 36.6062 23.2768 36.5075 23.11 36.4435C22.9432 36.3796 22.7647 36.3519 22.5864 36.3624C22.353 36.3471 22.1197 36.3947 21.911 36.5003C21.7023 36.6059 21.5257 36.7657 21.3998 36.9628C21.285 36.7716 21.1207 36.6149 20.9243 36.5092C20.7279 36.4035 20.5066 36.3528 20.2838 36.3624C20.0895 36.3526 19.8961 36.3937 19.7226 36.4817C19.5492 36.5696 19.4017 36.7014 19.2949 36.8639V36.4472H18.5603V39.8234H19.302V37.9658C19.2862 37.8503 19.2961 37.7328 19.331 37.6216C19.3659 37.5104 19.425 37.4084 19.5039 37.3227C19.5829 37.237 19.6798 37.1698 19.7878 37.1259C19.8957 37.082 20.012 37.0625 20.1284 37.0687C20.6157 37.0687 20.8629 37.3866 20.8629 37.9587V39.8375H21.6046V37.9658C21.5895 37.8504 21.5998 37.7332 21.635 37.6223C21.6701 37.5114 21.7292 37.4096 21.808 37.324C21.8869 37.2385 21.9835 37.1712 22.0911 37.1271C22.1988 37.083 22.3148 37.0631 22.431 37.0687C22.9325 37.0687 23.1726 37.3866 23.1726 37.9587V39.8375L23.9143 39.8234ZM34.8871 36.4472H33.6793V35.423H32.9377V36.4472H32.2666V37.1182H32.9518V38.6721C32.9518 39.4561 33.2555 39.9223 34.1243 39.9223C34.4489 39.9234 34.7672 39.8328 35.0425 39.661L34.8306 39.0323C34.6336 39.1498 34.41 39.2154 34.1808 39.223C33.8276 39.223 33.6934 38.997 33.6934 38.658V37.1182H34.8942L34.8871 36.4472ZM41.1523 36.3624C40.9732 36.3571 40.796 36.4003 40.6393 36.4873C40.4827 36.5743 40.3524 36.702 40.2623 36.8568V36.4472H39.5348V39.8234H40.2694V37.9304C40.2694 37.3724 40.5095 37.0617 40.9757 37.0617C41.1328 37.0595 41.2888 37.0883 41.4348 37.1464L41.6608 36.4401C41.4931 36.3801 41.3163 36.349 41.1381 36.3483L41.1523 36.3624ZM31.6804 36.7156C31.2646 36.4683 30.7865 36.3458 30.303 36.3624C29.4484 36.3624 28.8904 36.7721 28.8904 37.4431C28.8904 37.994 29.3001 38.3331 30.0558 38.439L30.409 38.4885C30.8116 38.545 31.0023 38.6509 31.0023 38.8416C31.0023 39.103 30.7339 39.2513 30.2324 39.2513C29.829 39.263 29.4334 39.1386 29.1093 38.8981L28.7562 39.4702C29.1841 39.769 29.6966 39.9225 30.2183 39.9082C31.193 39.9082 31.7581 39.4491 31.7581 38.8063C31.7581 38.1635 31.3131 37.9022 30.5785 37.7962L30.2253 37.7468C29.9075 37.7044 29.6532 37.6409 29.6532 37.4148C29.6532 37.1888 29.8934 37.0193 30.296 37.0193C30.6681 37.0236 31.0329 37.1233 31.3555 37.3089L31.6804 36.7156ZM51.3552 36.3624C51.1761 36.3571 50.9989 36.4003 50.8423 36.4873C50.6856 36.5743 50.5554 36.702 50.4652 36.8568V36.4472H49.7377V39.8234H50.4723V37.9304C50.4723 37.3724 50.7124 37.0617 51.1786 37.0617C51.3357 37.0595 51.4917 37.0883 51.6377 37.1464L51.8638 36.4401C51.696 36.3801 51.5192 36.349 51.3411 36.3483L51.3552 36.3624ZM41.8904 38.1282C41.8816 38.3655 41.9225 38.602 42.0104 38.8225C42.0983 39.0431 42.2313 39.2428 42.4008 39.409C42.5704 39.5753 42.7727 39.7043 42.995 39.7878C43.2172 39.8713 43.4545 39.9075 43.6915 39.894C44.1326 39.9165 44.566 39.7728 44.9064 39.4914L44.5532 38.8981C44.2993 39.0918 43.9897 39.1983 43.6703 39.2018C43.3988 39.1799 43.1455 39.0565 42.9608 38.8562C42.7761 38.656 42.6736 38.3936 42.6736 38.1212C42.6736 37.8487 42.7761 37.5863 42.9608 37.3861C43.1455 37.1858 43.3988 37.0624 43.6703 37.0405C43.9897 37.044 44.2993 37.1506 44.5532 37.3442L44.9064 36.7509C44.566 36.4695 44.1326 36.3258 43.6915 36.3483C43.4545 36.3348 43.2172 36.371 42.995 36.4546C42.7727 36.5381 42.5704 36.6671 42.4008 36.8333C42.2313 36.9995 42.0983 37.1993 42.0104 37.4198C41.9225 37.6404 41.8816 37.8768 41.8904 38.1141V38.1282ZM48.77 38.1282V36.4472H48.0355V36.8568C47.9107 36.6963 47.7496 36.5678 47.5654 36.4818C47.3811 36.3958 47.1791 36.3549 46.976 36.3624C46.5076 36.3624 46.0585 36.5484 45.7273 36.8796C45.3962 37.2108 45.2101 37.6599 45.2101 38.1282C45.2101 38.5965 45.3962 39.0457 45.7273 39.3768C46.0585 39.708 46.5076 39.894 46.976 39.894C47.1791 39.9015 47.3811 39.8606 47.5654 39.7746C47.7496 39.6887 47.9107 39.5601 48.0355 39.3996V39.8093H48.77V38.1282ZM46.0365 38.1282C46.0482 37.9295 46.1178 37.7385 46.2367 37.5788C46.3556 37.4191 46.5186 37.2977 46.7056 37.2295C46.8926 37.1612 47.0955 37.1492 47.2893 37.1948C47.4831 37.2404 47.6593 37.3417 47.7962 37.4862C47.9332 37.6307 48.0249 37.8121 48.06 38.008C48.0952 38.204 48.0723 38.4059 47.9941 38.589C47.9159 38.7721 47.7859 38.9284 47.6201 39.0385C47.4542 39.1486 47.2598 39.2079 47.0607 39.2089C46.9209 39.2107 46.7822 39.1835 46.6534 39.1291C46.5246 39.0746 46.4084 38.9941 46.3122 38.8926C46.216 38.7911 46.1419 38.6708 46.0944 38.5393C46.047 38.4077 46.0273 38.2678 46.0365 38.1282V38.1282ZM37.1721 36.3624C36.7038 36.369 36.2572 36.5613 35.9307 36.8971C35.6042 37.2329 35.4244 37.6846 35.431 38.1529C35.4376 38.6213 35.6299 39.0678 35.9657 39.3943C36.3015 39.7208 36.7532 39.9006 37.2215 39.894C37.7297 39.9201 38.2293 39.7565 38.6236 39.4349L38.2704 38.8911C37.9916 39.1147 37.6461 39.239 37.2886 39.2442C37.0458 39.2651 36.8044 39.1904 36.6158 39.0361C36.4272 38.8818 36.3062 38.66 36.2786 38.4178H38.7861C38.7861 38.326 38.7861 38.2342 38.7861 38.1353C38.7861 37.0758 38.1292 36.3695 37.1827 36.3695L37.1721 36.3624ZM37.1721 37.0193C37.282 37.0169 37.3913 37.0363 37.4938 37.0762C37.5962 37.1161 37.6898 37.1758 37.7692 37.2519C37.8485 37.328 37.9121 37.419 37.9563 37.5196C38.0005 37.6203 38.0245 37.7287 38.0268 37.8386H36.2609C36.2737 37.6119 36.3748 37.3992 36.5424 37.2461C36.7101 37.093 36.931 37.0115 37.158 37.0193H37.1721ZM55.5755 38.1353V35.091H54.8692V36.8568C54.7444 36.6963 54.5833 36.5678 54.3991 36.4818C54.2149 36.3958 54.0128 36.3549 53.8097 36.3624C53.3414 36.3624 52.8922 36.5484 52.5611 36.8796C52.2299 37.2108 52.0439 37.6599 52.0439 38.1282C52.0439 38.5965 52.2299 39.0457 52.5611 39.3768C52.8922 39.708 53.3414 39.894 53.8097 39.894C54.0128 39.9015 54.2149 39.8606 54.3991 39.7746C54.5833 39.6887 54.7444 39.5601 54.8692 39.3996V39.8093H55.5755V38.1353ZM56.801 39.3325C56.8469 39.332 56.8925 39.3403 56.9352 39.3572C56.9758 39.3738 57.0129 39.3977 57.0447 39.4279C57.0757 39.4583 57.1009 39.4942 57.1188 39.5338C57.1367 39.5751 57.146 39.6195 57.146 39.6645C57.146 39.7094 57.1367 39.7539 57.1188 39.7952C57.1009 39.8347 57.0757 39.8707 57.0447 39.9011C57.0129 39.9312 56.9758 39.9552 56.9352 39.9717C56.8929 39.9904 56.8472 40 56.801 40C56.7341 39.9995 56.6686 39.98 56.6124 39.9437C56.5561 39.9074 56.5113 39.8559 56.4832 39.7952C56.4655 39.7539 56.4564 39.7094 56.4564 39.6645C56.4564 39.6196 56.4655 39.5751 56.4832 39.5338C56.5011 39.4942 56.5263 39.4583 56.5573 39.4279C56.5891 39.3977 56.6262 39.3738 56.6668 39.3572C56.7128 39.3389 56.7621 39.3305 56.8116 39.3325H56.801ZM56.801 39.9294C56.8363 39.9296 56.8711 39.9224 56.9034 39.9082C56.9338 39.8946 56.9614 39.8754 56.9847 39.8517C57.0288 39.8035 57.0533 39.7405 57.0533 39.6751C57.0533 39.6097 57.0288 39.5467 56.9847 39.4985C56.9614 39.4747 56.9338 39.4555 56.9034 39.442C56.8711 39.4279 56.8362 39.4207 56.801 39.4208C56.7658 39.421 56.731 39.4282 56.6986 39.442C56.6669 39.455 56.638 39.4742 56.6138 39.4985C56.5697 39.5467 56.5451 39.6097 56.5451 39.6751C56.5451 39.7405 56.5697 39.8035 56.6138 39.8517C56.6381 39.8759 56.6669 39.8951 56.6986 39.9082C56.7342 39.9235 56.7728 39.9308 56.8116 39.9294H56.801ZM56.8222 39.5091C56.8552 39.5075 56.8876 39.5175 56.914 39.5373C56.9248 39.5463 56.9333 39.5577 56.9389 39.5706C56.9444 39.5835 56.9468 39.5975 56.9458 39.6115C56.9463 39.6232 56.9444 39.635 56.9401 39.6459C56.9359 39.6568 56.9294 39.6668 56.9211 39.6751C56.9006 39.6937 56.8745 39.7049 56.8469 39.7069L56.9493 39.8234H56.8681L56.7727 39.7069H56.741V39.8234H56.6739V39.5126L56.8222 39.5091ZM56.7445 39.5691V39.6539H56.8222C56.836 39.658 56.8507 39.658 56.8646 39.6539C56.8671 39.649 56.8683 39.6435 56.8683 39.638C56.8683 39.6325 56.8671 39.627 56.8646 39.6221C56.8671 39.6172 56.8683 39.6117 56.8683 39.6062C56.8683 39.6007 56.8671 39.5953 56.8646 39.5903C56.8507 39.5862 56.836 39.5862 56.8222 39.5903L56.7445 39.5691ZM52.8597 38.1353C52.8714 37.9365 52.941 37.7456 53.0599 37.5859C53.1787 37.4262 53.3417 37.3047 53.5287 37.2365C53.7158 37.1683 53.9187 37.1562 54.1124 37.2018C54.3062 37.2475 54.4824 37.3488 54.6194 37.4933C54.7563 37.6378 54.848 37.8192 54.8832 38.0151C54.9183 38.2111 54.8954 38.413 54.8172 38.5961C54.7391 38.7792 54.6091 38.9354 54.4432 39.0456C54.2774 39.1557 54.0829 39.2149 53.8839 39.216C53.744 39.2177 53.6053 39.1906 53.4765 39.1361C53.3477 39.0817 53.2315 39.0012 53.1353 38.8997C53.0392 38.7982 52.965 38.6779 52.9176 38.5463C52.8701 38.4148 52.8504 38.2748 52.8597 38.1353V38.1353ZM28.0569 38.1353V36.4472H27.3223V36.8568C27.1976 36.6963 27.0364 36.5678 26.8522 36.4818C26.668 36.3958 26.466 36.3549 26.2628 36.3624C25.7945 36.3624 25.3454 36.5484 25.0142 36.8796C24.6831 37.2108 24.497 37.6599 24.497 38.1282C24.497 38.5965 24.6831 39.0457 25.0142 39.3768C25.3454 39.708 25.7945 39.894 26.2628 39.894C26.466 39.9015 26.668 39.8606 26.8522 39.7746C27.0364 39.6887 27.1976 39.5601 27.3223 39.3996V39.8093H28.0569V38.1353ZM25.3234 38.1353C25.3351 37.9365 25.4047 37.7456 25.5236 37.5859C25.6425 37.4262 25.8054 37.3047 25.9925 37.2365C26.1795 37.1683 26.3824 37.1562 26.5762 37.2018C26.77 37.2475 26.9462 37.3488 27.0831 37.4933C27.2201 37.6378 27.3117 37.8192 27.3469 38.0151C27.3821 38.2111 27.3591 38.413 27.281 38.5961C27.2028 38.7792 27.0728 38.9354 26.9069 39.0456C26.7411 39.1557 26.5467 39.2149 26.3476 39.216C26.2072 39.2187 26.0677 39.1923 25.9381 39.1383C25.8084 39.0843 25.6914 39.0039 25.5944 38.9023C25.4975 38.8007 25.4227 38.6801 25.3748 38.548C25.3269 38.416 25.307 38.2754 25.3164 38.1353H25.3234Z" fill="#231F20"/>
<path d="M42.5615 10.7191H31.4368V30.7118H42.5615V10.7191Z" fill="#FF5F00"/>
<path d="M32.143 20.7172C32.141 18.7915 32.5771 16.8905 33.4185 15.1583C34.2598 13.4261 35.4842 11.908 36.9991 10.7191C35.1234 9.24504 32.871 8.32843 30.4991 8.07399C28.1271 7.81956 25.7315 8.23757 23.5859 9.28025C21.4403 10.3229 19.6314 11.9482 18.3658 13.9704C17.1002 15.9925 16.4291 18.3299 16.4291 20.7154C16.4291 23.1009 17.1002 25.4383 18.3658 27.4605C19.6314 29.4826 21.4403 31.1079 23.5859 32.1506C25.7315 33.1932 28.1271 33.6113 30.4991 33.3568C32.871 33.1024 35.1234 32.1858 36.9991 30.7117C35.4847 29.5231 34.2605 28.0056 33.4192 26.2741C32.5779 24.5425 32.1415 22.6423 32.143 20.7172V20.7172Z" fill="#EB001B"/>
<path d="M57.571 20.7172C57.571 23.1029 56.8997 25.4404 55.6339 27.4626C54.3681 29.4848 52.5588 31.1101 50.413 32.1526C48.2671 33.1952 45.8712 33.6129 43.4992 33.3581C41.1271 33.1033 38.8746 32.1862 36.9992 30.7117C38.5129 29.5221 39.7367 28.0042 40.5783 26.2725C41.4198 24.5409 41.857 22.6407 41.857 20.7154C41.857 18.7901 41.4198 16.89 40.5783 15.1583C39.7367 13.4267 38.5129 11.9087 36.9992 10.7191C38.8746 9.24459 41.1271 8.32753 43.4992 8.07273C45.8712 7.81793 48.2671 8.23567 50.413 9.2782C52.5588 10.3207 54.3681 11.946 55.6339 13.9682C56.8997 15.9904 57.571 18.328 57.571 20.7136V20.7172Z" fill="#F79E1B"/>
<path d="M56.356 28.5928V28.1831H56.522V28.0983H56.1018V28.1831H56.2819V28.5928H56.356ZM57.1719 28.5928V28.0983H57.0447L56.8964 28.4515L56.7481 28.0983H56.635V28.5928H56.7269V28.2219L56.8646 28.5433H56.96L57.0977 28.2219V28.5963L57.1719 28.5928Z" fill="#F79E1B"/>
<path d="M2 1H72V-1H2V1ZM73 2V46H75V2H73ZM72 47H2V49H72V47ZM1 46V2H-1V46H1ZM2 47C1.44771 47 1 46.5523 1 46H-1C-1 47.6569 0.343144 49 2 49V47ZM73 46C73 46.5523 72.5523 47 72 47V49C73.6569 49 75 47.6569 75 46H73ZM72 1C72.5523 1 73 1.44771 73 2H75C75 0.343147 73.6569 -1 72 -1V1ZM2 -1C0.343145 -1 -1 0.343147 -1 2H1C1 1.44772 1.44772 1 2 1V-1Z" fill="#B6C1D3"/>
</svg>
