<svg width="74" height="48" viewBox="0 0 74 48" fill="none" xmlns="http://www.w3.org/2000/svg">
<g clip-path="url(#clip0_4_6875)">
<path d="M0 2C0 0.895431 0.895431 0 2 0H72C73.1046 0 74 0.895431 74 2V46C74 47.1046 73.1046 48 72 48H2C0.895429 48 0 47.1046 0 46V2Z" fill="white"/>
<path d="M74.0001 27.114C74.0001 27.114 53.5505 41.5339 16.1025 48H74.0001V27.114Z" fill="#F48120"/>
<path d="M38.6575 25.1132C41.6378 25.1132 44.0538 22.6972 44.0538 19.7169C44.0538 16.7367 41.6378 14.3207 38.6575 14.3207C35.6773 14.3207 33.2613 16.7367 33.2613 19.7169C33.2613 22.6972 35.6773 25.1132 38.6575 25.1132Z" fill="url(#paint0_linear_4_6875)"/>
<path opacity="0.65" d="M38.6575 25.1132C41.6378 25.1132 44.0538 22.6972 44.0538 19.7169C44.0538 16.7367 41.6378 14.3207 38.6575 14.3207C35.6773 14.3207 33.2613 16.7367 33.2613 19.7169C33.2613 22.6972 35.6773 25.1132 38.6575 25.1132Z" fill="url(#paint1_linear_4_6875)"/>
<path d="M7.89157 14.6154H5.00006V24.7448H7.89157C9.4202 24.7448 10.5252 24.3765 11.5014 23.5846C12.6616 22.6269 13.3431 21.1903 13.3431 19.6985C13.3247 16.6965 11.0962 14.6154 7.89157 14.6154ZM10.2121 22.2401C9.58596 22.7926 8.79402 23.0505 7.50481 23.0505H6.97071V16.3466H7.50481C8.7756 16.3466 9.54913 16.5676 10.2121 17.1569C10.8936 17.7647 11.2988 18.704 11.2988 19.6801C11.2988 20.6562 10.8936 21.6323 10.2121 22.2401Z" fill="#231F20"/>
<path d="M16.2162 14.6154H14.2455V24.7448H16.2162V14.6154Z" fill="#231F20"/>
<path d="M21.0415 18.5014C19.8628 18.0594 19.5129 17.7647 19.5129 17.2306C19.5129 16.586 20.1391 16.1072 20.9862 16.1072C21.5756 16.1072 22.0729 16.3466 22.5701 16.9359L23.6015 15.5915C22.7543 14.8548 21.7414 14.468 20.6179 14.468C18.8314 14.468 17.4501 15.7204 17.4501 17.3779C17.4501 18.7777 18.0947 19.4959 19.9365 20.159C20.71 20.4352 21.0968 20.6194 21.2993 20.7299C21.6861 20.9877 21.8887 21.3561 21.8887 21.7797C21.8887 22.6084 21.2441 23.2162 20.3601 23.2162C19.4208 23.2162 18.6657 22.7374 18.2052 21.8718L16.9344 23.1057C17.8369 24.4502 18.9419 25.0395 20.4337 25.0395C22.478 25.0395 23.933 23.6766 23.933 21.706C23.9698 20.0669 23.2884 19.3302 21.0415 18.5014Z" fill="#231F20"/>
<path d="M24.5776 19.6985C24.5776 22.6821 26.9166 24.9843 29.9186 24.9843C30.7658 24.9843 31.5025 24.8185 32.3865 24.3949V22.0743C31.5946 22.8663 30.8947 23.1794 30.0107 23.1794C28.0216 23.1794 26.6035 21.7428 26.6035 19.6801C26.6035 17.7279 28.0585 16.1992 29.9186 16.1992C30.8579 16.1992 31.5762 16.5308 32.3865 17.3411V15.0205C31.5209 14.5785 30.8027 14.3943 29.9555 14.3943C26.9903 14.3943 24.5776 16.7518 24.5776 19.6985Z" fill="#231F20"/>
<path d="M48.078 21.4297L45.3707 14.6154H43.2159L47.5071 25.0027H48.5753L52.9402 14.6154H50.8038L48.078 21.4297Z" fill="#231F20"/>
<path d="M53.8427 24.7448H59.4415V23.032H55.8133V20.3063H59.3126V18.5935H55.8133V16.3466H59.4415V14.6154H53.8427V24.7448Z" fill="#231F20"/>
<path d="M67.2688 17.6174C67.2688 15.7204 65.9612 14.6338 63.6775 14.6338H60.7491V24.7633H62.7198V20.6931H62.9776L65.7034 24.7633H68.1344L64.9483 20.4905C66.4401 20.1774 67.2688 19.1644 67.2688 17.6174ZM63.2907 19.2933H62.7198V16.2177H63.3275C64.5615 16.2177 65.2245 16.7333 65.2245 17.7279C65.2245 18.7408 64.5615 19.2933 63.2907 19.2933Z" fill="#231F20"/>
<path d="M68.5212 15.0021C68.5212 14.8179 68.3923 14.7259 68.1897 14.7259H67.895V15.6099H68.116V15.26L68.3739 15.6099H68.6317L68.337 15.2415C68.4475 15.2231 68.5212 15.131 68.5212 15.0021ZM68.1529 15.131H68.116V14.8916H68.1529C68.2634 14.8916 68.3186 14.9284 68.3186 15.0021C68.3186 15.0942 68.2634 15.131 68.1529 15.131Z" fill="#231F20"/>
<path d="M68.2265 14.3943C67.8029 14.3943 67.453 14.7443 67.453 15.1679C67.453 15.5915 67.8029 15.9414 68.2265 15.9414C68.6501 15.9414 69.0001 15.5915 69.0001 15.1679C69.0001 14.7443 68.6501 14.3943 68.2265 14.3943ZM68.2265 15.8125C67.895 15.8125 67.6003 15.5362 67.6003 15.1679C67.6003 14.8179 67.8766 14.5233 68.2265 14.5233C68.558 14.5233 68.8343 14.8179 68.8343 15.1679C68.8343 15.5178 68.558 15.8125 68.2265 15.8125Z" fill="#231F20"/>
</g>
<path d="M2 1H72V-1H2V1ZM73 2V46H75V2H73ZM72 47H2V49H72V47ZM1 46V2H-1V46H1ZM2 47C1.44771 47 1 46.5523 1 46H-1C-1 47.6569 0.343144 49 2 49V47ZM73 46C73 46.5523 72.5523 47 72 47V49C73.6569 49 75 47.6569 75 46H73ZM72 1C72.5523 1 73 1.44771 73 2H75C75 0.343147 73.6569 -1 72 -1V1ZM2 -1C0.343145 -1 -1 0.343147 -1 2H1C1 1.44772 1.44772 1 2 1V-1Z" fill="#B6C1D3"/>
<defs>
<linearGradient id="paint0_linear_4_6875" x1="41.4156" y1="24.0352" x2="37.6854" y2="18.1948" gradientUnits="userSpaceOnUse">
<stop stop-color="#F89F20"/>
<stop offset="0.2502" stop-color="#F79A20"/>
<stop offset="0.5331" stop-color="#F68D20"/>
<stop offset="0.6196" stop-color="#F58720"/>
<stop offset="0.7232" stop-color="#F48120"/>
<stop offset="1" stop-color="#F37521"/>
</linearGradient>
<linearGradient id="paint1_linear_4_6875" x1="40.8267" y1="23.9566" x2="35.3748" y2="13.3007" gradientUnits="userSpaceOnUse">
<stop stop-color="#F58720"/>
<stop offset="0.3587" stop-color="#E16F27"/>
<stop offset="0.703" stop-color="#D4602C"/>
<stop offset="0.9816" stop-color="#D05B2E"/>
</linearGradient>
<clipPath id="clip0_4_6875">
<path d="M0 2C0 0.895431 0.895431 0 2 0H72C73.1046 0 74 0.895431 74 2V46C74 47.1046 73.1046 48 72 48H2C0.895429 48 0 47.1046 0 46V2Z" fill="white"/>
</clipPath>
</defs>
</svg>
