<svg width="56" height="56" viewBox="0 0 56 56" fill="none" xmlns="http://www.w3.org/2000/svg">
<path d="M0 28C0 12.536 12.536 0 28 0C43.464 0 56 12.536 56 28C56 43.464 43.464 56 28 56C12.536 56 0 43.464 0 28Z" fill="#E5EFFF"/>
<path fill-rule="evenodd" clip-rule="evenodd" d="M35.269 32.138L44.8007 41.709L41.6725 44.8012L32.1409 35.267C26.6942 39.1322 19.6283 38.4328 15.0649 33.8681C9.91262 28.6777 9.91262 20.2846 15.0649 15.0942C20.4011 9.83013 28.7183 9.97738 33.8338 15.0942C38.5076 19.7325 38.9492 26.9475 35.269 32.138ZM18.193 30.7391C21.6892 34.2362 27.2462 34.2362 30.7424 30.7391C34.165 27.2788 34.165 21.6835 30.7424 18.2232C27.2462 14.7261 21.7628 14.7261 18.193 18.2232C14.7337 21.6835 14.7337 27.2788 18.193 30.7391ZM21.6697 23.3193H18.3647V28.2767H21.6697V23.3193ZM22.7671 18.9129H26.072V28.2768H22.7671V18.9129ZM30.4802 21.1159H27.1753V28.2766H30.4802V21.1159Z" fill="#0062FF"/>
</svg>