<svg xmlns="http://www.w3.org/2000/svg" viewBox="0 0 32 40" x="0px" y="0px"><g><path fill="rgb(80, 101, 134)" d="M5,19a3,3,0,1,1,3-3A3.0033,3.0033,0,0,1,5,19Zm0-4a1,1,0,1,0,1,1A1.0013,1.0013,0,0,0,5,15Zm0-4A3,3,0,1,1,8,8,3.0033,3.0033,0,0,1,5,11ZM5,7A1,1,0,1,0,6,8,1.0013,1.0013,0,0,0,5,7ZM5,27a3,3,0,1,1,3-3A3.0033,3.0033,0,0,1,5,27Zm0-4a1,1,0,1,0,1,1A1.0013,1.0013,0,0,0,5,23ZM29,7H10a1,1,0,0,0,0,2H29A1,1,0,0,0,29,7Zm0,8H10a1,1,0,0,0,0,2H29A1,1,0,0,0,29,15Zm0,8H10a1,1,0,0,0,0,2H29A1,1,0,0,0,29,23Z"/></g><text x="0" y="47" fill="rgb(80, 101, 134)" font-size="5px" font-weight="bold" font-family="'Helvetica Neue', Helvetica, Arial-Unicode, Arial, Sans-serif">Created by Anconer Design</text><text x="0" y="52" font-size="5px" font-weight="bold" font-family="'Helvetica Neue', Helvetica, Arial-Unicode, Arial, Sans-serif" fill="rgb(80, 101, 134)">from the Noun Project</text></svg>