<?xml version="1.0" encoding="UTF-8"?>
<svg width="1200pt" height="1200pt" version="1.1" viewBox="0 0 1200 1200" xmlns="http://www.w3.org/2000/svg">
 <path d="m1157.1 1079.7h-595.51l605.64-605.72c43.738-43.738 43.738-114.9 0-158.64l-214.2-214.19c-17.039-17.039-38.23-26.988-60.336-30.742 0.035156 0.011719-98.004 5.1719-192.68 15.938-29.102 3.2891-53.387 19.777-70.32 36.695l-596.87 596.9c-43.738 43.738-43.738 114.86 0 158.61l214.19 214.2c21.035 21.07 49.164 32.688 79.043 32.688 2.3281 0 144.59-2.8086 146.06-2.8789 7.1758-0.67188 24.395-2.6289 24.395-2.6289h660.57c11.09 0 20.113-9.0234 20.113-20.113 0.027344-11.09-8.9961-20.113-20.098-20.113zm-637.73-21.301c-26.242 26.207-68.914 26.207-95.195 0l-214.19-214.16c-26.258-26.293-26.258-68.988 0-95.207l305.09-305.07 308.45 310.25zm263.86-940.02 60.551-4.957-329.63 329.64-50.496-5.1016zm-718.67 728.48c-26.27-26.258-26.27-68.953 0-95.242l322.23-322.23 71.652 7.6914-280.2 280.2c-43.738 43.738-43.738 114.95 0 158.64l203.59 203.59c-3.2539 0.070312-6.1797 0.10938-9.3125 0.17969h-55.164c-14.605-1.8828-28.141-8.1719-38.641-18.707z" fill="rgb(80, 101, 134)"/>
</svg>
