<svg xmlns="http://www.w3.org/2000/svg" viewBox="0 0 36 45" fill="none" x="0px" y="0px"><path d="M34.1071 14.2857H21.8929C21.7161 14.2857 21.5714 14.4304 21.5714 14.6071V19.1071C21.5714 19.2839 21.7161 19.4286 21.8929 19.4286H23.8214C23.9982 19.4286 24.1429 19.2839 24.1429 19.1071V16.8571H26.5536V29.7143H24.7054C24.5286 29.7143 24.3839 29.8589 24.3839 30.0357V31.9643C24.3839 32.1411 24.5286 32.2857 24.7054 32.2857H31.2946C31.4714 32.2857 31.6161 32.1411 31.6161 31.9643V30.0357C31.6161 29.8589 31.4714 29.7143 31.2946 29.7143H29.4464V16.8571H31.8571V19.1071C31.8571 19.2839 32.0018 19.4286 32.1786 19.4286H34.1071C34.2839 19.4286 34.4286 19.2839 34.4286 19.1071V14.6071C34.4286 14.4304 34.2839 14.2857 34.1071 14.2857ZM23.5 9.46428V4.32143C23.5 4.14464 23.3554 4 23.1786 4H1.32143C1.14464 4 1 4.14464 1 4.32143V9.46428C1 9.64107 1.14464 9.78571 1.32143 9.78571H3.57143C3.74821 9.78571 3.89286 9.64107 3.89286 9.46428V6.89286H10.6429V29.3929H6.94643C6.76964 29.3929 6.625 29.5375 6.625 29.7143V31.9643C6.625 32.1411 6.76964 32.2857 6.94643 32.2857H17.5536C17.7304 32.2857 17.875 32.1411 17.875 31.9643V29.7143C17.875 29.5375 17.7304 29.3929 17.5536 29.3929H13.8571V6.89286H20.6071V9.46428C20.6071 9.64107 20.7518 9.78571 20.9286 9.78571H23.1786C23.3554 9.78571 23.5 9.64107 23.5 9.46428Z" fill="rgb(80, 101, 134)" /><text x="0" y="51" fill="rgb(80, 101, 134)" font-size="5px" font-weight="bold" font-family="'Helvetica Neue', Helvetica, Arial-Unicode, Arial, Sans-serif">Created by Lourenchyus</text><text x="0" y="56" fill="rgb(80, 101, 134)" font-size="5px" font-weight="bold" font-family="'Helvetica Neue', Helvetica, Arial-Unicode, Arial, Sans-serif">from the Noun Project</text></svg>