<svg xmlns="http://www.w3.org/2000/svg" data-name="Layer 2" viewBox="0 0 32 40" x="0px" y="0px"><title>text-editor-link-anchor</title><path d="M16.69,20.93a1,1,0,0,0-1.41,0L9.7,26.5A3.08,3.08,0,0,1,5.84,27a3,3,0,0,1-.47-4.62l7.07-7.07a3,3,0,0,1,4.24,0,1,1,0,0,0,1.41-1.41,4.71,4.71,0,0,0-.78-.64,5,5,0,0,0-6.29.64L4.11,20.78a5.15,5.15,0,0,0-.48,6.86A5,5,0,0,0,11,28l5.66-5.66A1,1,0,0,0,16.69,20.93Z" fill="rgb(80, 101, 134)" /><path d="M27.64,3.63a5.15,5.15,0,0,0-6.86.48L15.27,9.62A1,1,0,1,0,16.69,11l5.57-5.57A3.08,3.08,0,0,1,26.12,5a3,3,0,0,1,.47,4.62l-7.07,7.07a3,3,0,0,1-4.24,0,1,1,0,0,0-1.41,1.41,4.71,4.71,0,0,0,.78.64,5,5,0,0,0,6.29-.64L28,11A5,5,0,0,0,27.64,3.63Z"  fill="rgb(80, 101, 134)" /><text x="0" y="47" fill="rgb(80, 101, 134)" font-size="5px" font-weight="bold" font-family="'Helvetica Neue', Helvetica, Arial-Unicode, Arial, Sans-serif">Created by Jae Deasigner</text><text x="0" y="52" fill="rgb(80, 101, 134)" font-size="5px" font-weight="bold" font-family="'Helvetica Neue', Helvetica, Arial-Unicode, Arial, Sans-serif">from the Noun Project</text></svg>