<svg xmlns="http://www.w3.org/2000/svg" viewBox="0 0 32 40" x="0px" y="0px"><g><path d="M28,9H9A1,1,0,0,1,9,7H28A1,1,0,0,1,28,9Zm0,6H9a1,1,0,0,0,0,2H28A1,1,0,0,0,28,15Zm0,8H9a1,1,0,0,0,0,2H28A1,1,0,0,0,28,23ZM5.8594,5.4555v5.0884c-.0434.5231-1.2052.5234-1.2481,0V6.4716l-.2319.1441c-.5208.3134-.8259-.6222-.36-.856l1.0562-.64C5.3322,4.9756,5.8526,5.1175,5.8594,5.4555ZM3.6953,18.9241c-.1947.0021-.5571-.14-.5439-.3837V17.764a1.06,1.06,0,0,1,.18-.5879c.5219-.7826,1.5779-1.1928,2.1562-1.916.764-.9572-.9573-1.5995-1.0239-.4561-.086.6538-1.3432.6258-1.2163-.1919A1.6566,1.6566,0,0,1,5.0552,13.076a1.7331,1.7331,0,0,1,1.8642,1.6563,2.4213,2.4213,0,0,1-1.2363,1.8959c-.4256.3775-1.2129.6045-1.2358,1.2081H6.5435c.5042.0423.4942,1.039,0,1.0878ZM6.7236,24.22a1.34,1.34,0,0,0-.584-.4077,1.698,1.698,0,0,0,.38-2.1719,1.8442,1.8442,0,0,0-1.5483-.5884,1.5818,1.5818,0,0,0-1.8237,1.4322c-.03.4373.2273.5176.6479.5038.3943.0013.57-.1125.584-.456-.0217-.3414.3073-.4161.5918-.4077.3692.01.6022.1375.5923.5757-.005.33-.0558.5622-.3281.6523a1.2156,1.2156,0,0,1-.2959.0357c-.4911-.0121-.4887.9687,0,.96a1.1309,1.1309,0,0,1,.5478.12c.3188.1561.2764,1.0171.0562,1.228-.2684.25-1.296.2864-1.2842-.3-.0164-.398-.2209-.4-.64-.416-.3965.0123-.5863.0464-.5923.456a1.6827,1.6827,0,0,0,1.9043,1.5117,2.0269,2.0269,0,0,0,1.752-.7558A2.0063,2.0063,0,0,0,6.7236,24.22Z" fill="rgb(80, 101, 134)" /></g><text x="0" y="47" fill="rgb(80, 101, 134)" font-size="5px" font-weight="bold" font-family="'Helvetica Neue', Helvetica, Arial-Unicode, Arial, Sans-serif">Created by Anconer Design</text><text x="0" y="52" fill="rgb(80, 101, 134)" font-size="5px" font-weight="bold" font-family="'Helvetica Neue', Helvetica, Arial-Unicode, Arial, Sans-serif">from the Noun Project</text></svg>