<svg xmlns="http://www.w3.org/2000/svg" data-name="Layer 2" viewBox="0 0 32 40" x="0px" y="0px"><title>text-editor-unlink-anchor</title><path fill="rgb(80, 101, 134)" d="M9.7,26.5A3.08,3.08,0,0,1,5.83,27a3,3,0,0,1-.45-4.62l4.95-4.95a1,1,0,0,0,0-1.41h0a1,1,0,0,0-1.41,0l-4.8,4.8a5.15,5.15,0,0,0-.48,6.86A5,5,0,0,0,11,28L16,23.05a1,1,0,0,0,0-1.41h0a1,1,0,0,0-1.41,0Z"/><path fill="rgb(80, 101, 134)" d="M22.26,5.46A3.08,3.08,0,0,1,26.13,5a3,3,0,0,1,.45,4.62l-4.95,4.95a1,1,0,0,0,0,1.41h0a1,1,0,0,0,1.41,0L28,11a5,5,0,0,0-.36-7.4,5.15,5.15,0,0,0-6.86.48L16,8.91a1,1,0,0,0,0,1.41h0a1,1,0,0,0,1.41,0Z"/><rect fill="rgb(80, 101, 134)" x="7.93" y="6.93" width="2" height="4" rx="1" ry="1" transform="translate(-3.7 8.93) rotate(-45)"/><rect fill="rgb(80, 101, 134)" x="5.87" y="10.11" width="2" height="4" rx="1" ry="1" transform="translate(-5.24 18.97) rotate(-90)"/><rect fill="rgb(80, 101, 134)" x="11.11" y="4.87" width="2" height="4" rx="1" ry="1" transform="translate(24.22 13.73) rotate(-180)"/><rect fill="rgb(80, 101, 134)" x="22.07" y="21.07" width="2" height="4" rx="1" ry="1" transform="translate(-9.56 23.07) rotate(-45)"/><rect fill="rgb(80, 101, 134)" x="18.89" y="23.13" width="2" height="4" rx="1" ry="1"/><rect fill="rgb(80, 101, 134)" x="24.13" y="17.89" width="2" height="4" rx="1" ry="1" transform="translate(45.03 -5.24) rotate(90)"/><text x="0" y="47" fill="rgb(80, 101, 134)" font-size="5px" font-weight="bold" font-family="'Helvetica Neue', Helvetica, Arial-Unicode, Arial, Sans-serif">Created by Jae Deasigner</text><text x="0" y="52" fill="rgb(80, 101, 134)" font-size="5px" font-weight="bold" font-family="'Helvetica Neue', Helvetica, Arial-Unicode, Arial, Sans-serif">from the Noun Project</text></svg>