<svg width="59" height="24" viewBox="0 0 59 24" fill="none" xmlns="http://www.w3.org/2000/svg">
<g opacity="0.8">
<rect width="59" height="24" rx="5.33333" fill="#10298E"/>
<path fill-rule="evenodd" clip-rule="evenodd" d="M41.4327 8.79109C41.5176 10.0557 41.4584 11.345 41.3177 12.6064C41.1657 13.9704 40.1072 14.9515 38.725 15.051C37.7726 15.1197 36.8155 15.1216 35.8584 15.1235C35.4475 15.1243 35.0366 15.1252 34.6261 15.1313C34.4814 15.1334 34.3368 15.1329 34.1764 15.1323C34.097 15.132 34.0136 15.1317 33.9245 15.1317V18.5498H30.4816V5.3718C30.5242 5.36868 30.5685 5.36453 30.614 5.36027C30.7175 5.35058 30.8271 5.34031 30.9367 5.34021C31.4272 5.33963 31.9177 5.33819 32.4083 5.33674C33.9344 5.33224 35.4605 5.32774 36.9862 5.34941C37.6097 5.35831 38.2426 5.44315 38.8517 5.5817C40.4834 5.95269 41.3062 6.90649 41.4327 8.79109ZM36.6491 12.0929C37.5189 12.0508 37.8089 11.7562 37.8553 10.8923C37.8766 10.4943 37.8533 10.094 37.8301 9.69368C37.8196 9.51413 37.8092 9.33458 37.8028 9.15526C37.7812 8.55435 37.3932 8.2421 36.8844 8.21184C36.2019 8.17116 35.5166 8.17951 34.8218 8.18798C34.531 8.19152 34.2386 8.19508 33.944 8.19508V12.1024C34.2328 12.1024 34.5168 12.1055 34.7972 12.1087C35.4268 12.1157 36.0388 12.1225 36.6491 12.0929Z" fill="white"/>
<path d="M17.7066 9.50427H19.0384C21.224 4.54362 27.1309 4.23968 29.9042 7.47756C29.7086 7.8971 29.5092 8.32497 29.2919 8.79119L29.1994 8.9897C27.9093 7.52443 26.3675 6.87027 24.4732 7.27909C23.2756 7.53749 22.1502 8.38523 21.57 9.49908H28.9319L27.9627 11.4485H20.9277V12.5766H27.466L26.5529 14.5419H21.7831C22.8918 17.0488 26.5306 17.2103 29.1482 14.8911V17.2096C26.7156 19.5224 21.2733 19.3909 19.0502 14.5438H16.8668C17.0897 14.0348 17.2937 13.5686 17.4921 13.1153L17.712 12.6128C17.9008 12.6016 18.0742 12.5913 18.2466 12.581L18.5984 12.5601V11.4865H16.7343C16.9395 11.0683 17.1288 10.6824 17.3132 10.3063L17.3509 10.2295C17.4702 9.98621 17.5878 9.74651 17.7066 9.50427Z" fill="white"/>
<path d="M11.4042 10.5664C12.0849 10.6203 12.7655 10.6742 13.4448 10.7416C15.3746 10.9332 16.2719 11.8639 16.361 13.8022C16.3935 14.5107 16.3543 15.2295 16.2729 15.9347C16.1087 17.3597 15.2115 18.2784 13.8983 18.3803C11.8831 18.5366 9.83037 18.5611 7.82365 18.3484C6.09928 18.1657 5.39058 17.0775 5.33752 15.2948C5.33124 15.0816 5.33283 14.8681 5.33453 14.6386C5.33536 14.5273 5.33621 14.4123 5.33621 14.2917H8.54343C8.54843 14.3562 8.55198 14.4189 8.55545 14.4802C8.56279 14.61 8.56979 14.7335 8.58949 14.8548C8.67272 15.3669 8.93437 15.7806 9.46494 15.7991C10.3493 15.83 11.2418 15.8222 12.1212 15.7321C12.8501 15.6574 12.9625 15.3513 12.922 14.2932C12.8981 13.6666 12.54 13.4349 11.9993 13.3912C11.5692 13.3564 11.1385 13.3271 10.7079 13.2977C10.0127 13.2504 9.31764 13.203 8.62477 13.1328C6.12012 12.879 5.58532 12.0114 5.39787 10.1804C5.29321 9.15841 5.28636 8.15833 5.66972 7.1848C6.07552 6.15401 6.90681 5.65234 7.90674 5.58737C7.99691 5.5815 8.08714 5.57559 8.17742 5.56968C9.85331 5.45986 11.5463 5.34893 13.2096 5.49629C15.3774 5.68839 16.1342 6.93871 15.9107 9.52999H12.6983C12.6939 9.45846 12.6908 9.3909 12.6879 9.32614C12.6819 9.19219 12.6764 9.07008 12.6608 8.9494C12.6058 8.52338 12.4142 8.13133 11.9732 8.11042C11.1486 8.0714 10.3153 8.08223 9.49424 8.16263C8.88233 8.22256 8.70785 8.72749 8.73832 9.28791C8.78175 10.0891 9.00273 10.3583 9.68679 10.4222C10.2587 10.4756 10.8315 10.521 11.4042 10.5664Z" fill="white"/>
<path fill-rule="evenodd" clip-rule="evenodd" d="M49.3591 5.36212H43.9992C42.6964 9.76636 41.4017 14.1427 40.0945 18.5613H43.6775C43.9013 17.8134 44.1246 17.0669 44.3467 16.3241H49.0708C49.1727 16.6684 49.2742 17.011 49.3745 17.3498L49.3928 17.4116C49.5059 17.7936 49.6176 18.1707 49.7271 18.5403H53.333L52.0299 14.2191C51.1368 11.2575 50.2486 8.312 49.3591 5.36212ZM45.1075 13.6467C45.6337 11.8057 46.1481 10.0058 46.716 8.01823L48.3176 13.6467H45.1075Z" fill="white"/>
</g>
</svg>
