<svg width="84" height="36" viewBox="0 0 84 36" fill="none" xmlns="http://www.w3.org/2000/svg">
<rect width="84" height="36" rx="4" fill="#F7C652"/>
<g opacity="0.8">
<path d="M60.0918 12.6812H56.3408C56.0847 12.6812 55.8665 12.8667 55.8264 13.1187L54.3096 22.6843C54.2794 22.873 54.4264 23.0432 54.6178 23.0432H56.5426C56.7214 23.0432 56.8744 22.9134 56.9024 22.7367L57.3329 20.0252C57.3723 19.7727 57.5912 19.5872 57.8472 19.5872H59.034C61.505 19.5872 62.9302 18.3981 63.3032 16.0417C63.4715 15.0108 63.3097 14.2008 62.8244 13.6336C62.2919 13.0107 61.3471 12.6812 60.0918 12.6812ZM60.5245 16.1748C60.3199 17.5134 59.2917 17.5134 58.2969 17.5134H57.7315L58.1291 15.0136C58.1527 14.8625 58.2832 14.7512 58.4373 14.7512H58.6967C59.3734 14.7512 60.0128 14.7512 60.343 15.1352C60.5398 15.3643 60.5996 15.7047 60.5245 16.1748Z" fill="#179BD7"/>
<path d="M71.3021 16.1317H69.5072C69.3531 16.1317 69.2221 16.243 69.199 16.3941L69.1195 16.8937L68.9934 16.7126C68.6046 16.1513 67.7381 15.9637 66.8728 15.9637C64.8882 15.9637 63.1937 17.4588 62.8635 19.5561C62.6924 20.6023 62.9354 21.6026 63.532 22.3003C64.0804 22.9417 64.8624 23.209 65.7941 23.209C67.3932 23.209 68.2799 22.1863 68.2799 22.1863L68.1999 22.6826C68.1697 22.8724 68.3167 23.0426 68.5092 23.0426H70.1264C70.3825 23.0426 70.6007 22.8572 70.6408 22.6046L71.6119 16.4906C71.6416 16.3024 71.4946 16.1317 71.3021 16.1317ZM68.7987 19.6084C68.6265 20.629 67.8111 21.3141 66.7724 21.3141C66.252 21.3141 65.8341 21.1477 65.5665 20.8324C65.3011 20.5193 65.2013 20.0737 65.2847 19.5773C65.4475 18.5655 66.2745 17.8581 67.2972 17.8581C67.8072 17.8581 68.2218 18.0266 68.4949 18.3446C68.7697 18.6659 68.8782 19.1143 68.7987 19.6084Z" fill="#179BD7"/>
<path d="M73.4193 12.9436L71.8799 22.6843C71.8498 22.873 71.9968 23.0432 72.1881 23.0432H73.7357C73.9929 23.0432 74.2111 22.8578 74.2506 22.6052L75.7686 13.0401C75.7987 12.8514 75.6518 12.6807 75.4604 12.6807H73.7275C73.5745 12.6812 73.4429 12.7925 73.4193 12.9436Z" fill="#179BD7"/>
<path d="M33.3418 12.6816H29.5914C29.3347 12.6816 29.1165 12.8671 29.0764 13.1191L27.5596 22.6847C27.5294 22.8735 27.6764 23.0436 27.8689 23.0436H29.6594C29.916 23.0436 30.1343 22.8582 30.1743 22.6056L30.5834 20.0256C30.6229 19.7731 30.8417 19.5876 31.0978 19.5876H32.2851C34.7555 19.5876 36.1813 18.3985 36.5537 16.0422C36.7215 15.0113 36.5608 14.2013 36.0755 13.634C35.5425 13.0111 34.5971 12.6816 33.3418 12.6816ZM33.7745 16.1753C33.5694 17.5138 32.5411 17.5138 31.5469 17.5138H30.981L31.378 15.014C31.4016 14.8629 31.5332 14.7516 31.6868 14.7516H31.9461C32.6234 14.7516 33.2623 14.7516 33.5924 15.1356C33.7893 15.3647 33.8496 15.7051 33.7745 16.1753Z" fill="#253B80"/>
<path d="M44.5523 16.1322H42.7563C42.6033 16.1322 42.4712 16.2434 42.4476 16.3945L42.3681 16.8942L42.2425 16.7131C41.8537 16.1518 40.9867 15.9642 40.1213 15.9642C38.1367 15.9642 36.4417 17.4592 36.1115 19.5565C35.9399 20.6027 36.1839 21.6031 36.7806 22.3007C37.3279 22.9422 38.111 23.2094 39.0427 23.2094C40.6418 23.2094 41.5285 22.1867 41.5285 22.1867L41.4484 22.6831C41.4183 22.8729 41.5652 23.0431 41.7566 23.0431H43.3744C43.6316 23.0431 43.8487 22.8576 43.8893 22.6051L44.86 16.4911C44.8907 16.3029 44.7442 16.1322 44.5523 16.1322ZM42.0489 19.6089C41.8756 20.6294 41.0613 21.3145 40.0226 21.3145C39.5011 21.3145 39.0843 21.1482 38.8167 20.8329C38.5513 20.5198 38.4504 20.0742 38.5349 19.5778C38.6966 18.566 39.5247 17.8585 40.5474 17.8585C41.0574 17.8585 41.472 18.0271 41.7451 18.3451C42.0188 18.6663 42.1273 19.1147 42.0489 19.6089Z" fill="#253B80"/>
<path d="M54.117 16.1321H52.3123C52.1401 16.1321 51.9783 16.2172 51.8807 16.3596L49.3916 20.0065L48.3365 16.502C48.2701 16.2827 48.0666 16.1321 47.8363 16.1321H46.0628C45.8473 16.1321 45.6976 16.3416 45.7662 16.5434L47.7541 22.346L45.8852 24.9701C45.7382 25.1769 45.8863 25.4611 46.1402 25.4611H47.9427C48.1138 25.4611 48.2739 25.3781 48.371 25.2385L54.3737 16.6203C54.5173 16.4141 54.3698 16.1321 54.117 16.1321Z" fill="#253B80"/>
<path d="M20.6392 13.1816C20.6238 13.2793 20.6063 13.3791 20.5865 13.4816C19.9082 16.9458 17.5874 18.1425 14.6234 18.1425H13.1142C12.7517 18.1425 12.4463 18.4044 12.3898 18.76L11.6171 23.6342L11.3983 25.0158C11.3616 25.2493 11.5425 25.4598 11.7794 25.4598H14.4561C14.7731 25.4598 15.0423 25.2307 15.0922 24.9198L15.1186 24.7846L15.6225 21.6035L15.6549 21.4289C15.7042 21.1169 15.974 20.8878 16.291 20.8878H16.6913C19.2847 20.8878 21.3148 19.8406 21.9081 16.81C22.156 15.544 22.0277 14.4869 21.3718 13.7435C21.1733 13.5193 20.9271 13.3333 20.6392 13.1816Z" fill="#179BD7"/>
<path d="M19.9294 12.9004C19.8258 12.8704 19.7188 12.8431 19.6092 12.8186C19.4989 12.7946 19.386 12.7733 19.2697 12.7547C18.8628 12.6893 18.417 12.6582 17.9393 12.6582H13.9076C13.8083 12.6582 13.714 12.6806 13.6296 12.7209C13.4436 12.8098 13.3055 12.9849 13.272 13.1993L12.4143 18.6026L12.3896 18.7602C12.4461 18.4046 12.7516 18.1427 13.1141 18.1427H14.6232C17.5873 18.1427 19.908 16.9455 20.5864 13.4818C20.6067 13.3793 20.6237 13.2795 20.639 13.1818C20.4674 13.0913 20.2815 13.0138 20.0813 12.9478C20.032 12.9315 19.981 12.9157 19.9294 12.9004Z" fill="#222D65"/>
<path d="M13.2722 13.1995C13.3056 12.9851 13.4438 12.81 13.6297 12.7216C13.7147 12.6813 13.8085 12.6589 13.9078 12.6589H17.9395C18.4172 12.6589 18.863 12.69 19.2699 12.7555C19.3862 12.774 19.4991 12.7953 19.6094 12.8193C19.719 12.8438 19.826 12.8711 19.9296 12.9011C19.9812 12.9164 20.0322 12.9322 20.0821 12.948C20.2822 13.014 20.4681 13.092 20.6398 13.182C20.8416 11.9018 20.6381 11.0302 19.9422 10.2409C19.175 9.372 17.7903 9 16.0185 9H10.8746C10.5127 9 10.204 9.26182 10.148 9.618L8.00548 23.1262C7.96325 23.3935 8.17054 23.6345 8.44145 23.6345H11.6172L12.4145 18.6027L13.2722 13.1995Z" fill="#253B80"/>
</g>
</svg>
