<svg width="40" height="24" viewBox="0 0 40 24" fill="none" xmlns="http://www.w3.org/2000/svg">
<path d="M0 2C0 0.89543 0.895431 0 2 0H38C39.1046 0 40 0.895431 40 2V22C40 23.1046 39.1046 24 38 24H2C0.895431 24 0 23.1046 0 22V2Z" fill="#016FD0"/>
<g clip-path="url(#clip0_10_7997)">
<path d="M27.1382 2.13007H22.6504L18.0162 12.6179H21.7723V21.9187L33.3496 21.9512L35.1707 19.9187L36.9918 21.9349H40.439V18.9756L38.2764 16.6504L40.439 14.3415L40.439 2.13007H36.1951L35.2357 4.81299L34.2764 2.13007H28.7317V5.7073L27.1382 2.13007Z" fill="white"/>
<path fill-rule="evenodd" clip-rule="evenodd" d="M23.0243 20.7642V12.5854H29.9512V14.4716H25.2682V15.7561H29.8536V17.6098H25.2682V18.8618H29.9512V20.7642H23.0243Z" fill="#016FD0"/>
<path fill-rule="evenodd" clip-rule="evenodd" d="M29.9187 20.7642L33.7561 16.6829L29.9187 12.5854H32.8943L35.2357 15.187L37.5934 12.5854H40.439V12.6504L36.6829 16.6829L40.439 20.6504V20.7642H37.5609L35.1707 18.1464L32.813 20.7642H29.9187Z" fill="#016FD0"/>
<path fill-rule="evenodd" clip-rule="evenodd" d="M23.4959 3.26831L19.8699 11.4472H22.3577L23.0406 9.8049H26.7479L27.4308 11.4472H29.9837L26.3739 3.26831H23.4959ZM23.8048 7.9675L24.8943 5.36587L25.9837 7.9675H23.8048Z" fill="#016FD0"/>
<path fill-rule="evenodd" clip-rule="evenodd" d="M29.9512 11.4472V3.26831H33.4634L35.252 8.30896L37.0731 3.26831H40.439V11.4472L38.2764 11.4634V5.83742L36.2276 11.4472H34.2439L32.1626 5.82116V11.4472H29.9512Z" fill="#016FD0"/>
</g>
<defs>
<clipPath id="clip0_10_7997">
<rect width="24" height="20" fill="white" transform="translate(16 2)"/>
</clipPath>
</defs>
</svg>
