<svg width="40" height="24" viewBox="0 0 40 24" fill="none" xmlns="http://www.w3.org/2000/svg">
<path d="M0 2C0 0.89543 0.895431 0 2 0H38C39.1046 0 40 0.895431 40 2V22C40 23.1046 39.1046 24 38 24H2C0.895431 24 0 23.1046 0 22V2Z" fill="white"/>
<rect width="38" height="14" transform="translate(1 5)" fill="white"/>
<path d="M20.5042 10.1773C20.4727 11.5951 21.7645 12.3828 22.7413 12.8555C23.718 13.3281 24.0646 13.6432 24.0646 14.0843C24.0646 14.746 23.2769 15.0295 22.5522 15.061C21.2604 15.0925 20.5357 14.7145 19.937 14.4309L19.4644 16.5734C20.0631 16.857 21.1658 17.0776 22.3001 17.1091C24.9783 17.1091 26.7113 15.7857 26.7428 13.7377C26.7428 11.154 23.1509 10.9965 23.1824 9.83069C23.1824 9.4841 23.529 9.106 24.2536 9.01148C24.6317 8.94846 25.6085 8.91695 26.7743 9.45259L27.2154 7.37306C26.6167 7.1525 25.829 6.93194 24.8208 6.93194C22.3001 6.93194 20.5042 8.28679 20.5042 10.1773ZM31.469 7.12099C30.9964 7.12099 30.5553 7.40457 30.3977 7.84568L26.5852 16.9515H29.2634L29.7991 15.4706H33.0759L33.391 16.9515H35.7541L33.7061 7.12099H31.469V7.12099ZM31.8471 9.76767L32.6033 13.4541H30.4922L31.8471 9.76767ZM17.2588 7.12099L15.1478 16.9515H17.6999L19.811 7.12099H17.2588ZM13.5094 7.12099L10.8627 13.8007L9.79141 8.09775C9.66537 7.46758 9.16124 7.08948 8.6256 7.08948H4.30899L4.24597 7.37306C5.1282 7.56211 6.13646 7.87719 6.76662 8.22378C7.14472 8.41283 7.23924 8.60187 7.36528 9.0745L9.38179 16.92H12.06L16.1876 7.08948L13.5094 7.12099Z" fill="#1A1F71"/>
</svg>
