<svg width="40" height="24" viewBox="0 0 40 24" fill="none" xmlns="http://www.w3.org/2000/svg">
<path d="M0 2C0 0.89543 0.895431 0 2 0H38C39.1046 0 40 0.895431 40 2V22C40 23.1046 39.1046 24 38 24H2C0.895431 24 0 23.1046 0 22V2Z" fill="white"/>
<path d="M34.5289 13.846C34.5289 13.5883 34.5289 6.51263 34.5289 6.51263C34.5289 5.26229 33.5645 4.24603 32.3767 4.24603H5.60207C4.41369 4.24603 3.44424 5.26229 3.44424 6.51263V14.6985C3.44424 15.9491 4.41369 16.966 5.60207 16.966H7.47143V17.6752C7.47143 18.8207 8.34836 19.754 9.42826 19.754H34.8771C35.9595 19.754 36.8415 18.8207 36.8415 17.6752V15.9323C36.8415 14.7849 35.9662 13.846 34.8866 13.846H34.5289" fill="#184285"/>
<path d="M34.8866 14.0919C35.8289 14.0919 36.5956 14.9176 36.5956 15.9324V17.6753C36.5956 18.686 35.8246 19.5083 34.8771 19.5083H9.42824C8.48487 19.5083 7.71727 18.686 7.71727 17.6753V16.7202H5.60205C4.54795 16.7202 3.69036 15.8133 3.69036 14.6986V6.51274C3.69036 5.39864 4.54795 4.492 5.60205 4.492H32.3766C33.4277 4.492 34.283 5.39864 34.283 6.51274V14.0919H34.8866ZM34.7747 13.5999V6.51274C34.7747 5.12727 33.6991 4 32.3766 4H5.60205C4.27657 4 3.19835 5.12727 3.19835 6.51274V14.6986C3.19835 16.0844 4.27657 17.2119 5.60205 17.2119H7.22555V17.6753C7.22555 18.9571 8.21349 20 9.42824 20H34.8771C36.096 20 37.0873 18.9571 37.0873 17.6753V15.9324C37.0873 14.6462 36.1002 13.5999 34.8866 13.5999H34.7747Z" fill="white"/>
<path d="M6.00745 6.58544C5.983 6.4363 5.82467 6.32388 5.64271 6.32388C5.3105 6.32388 5.18827 6.57508 5.18827 6.83861C5.18827 7.08897 5.3105 7.3424 5.64271 7.3424C5.86727 7.3424 5.99344 7.20249 6.02007 7.00484H6.37639C6.33855 7.37966 6.0523 7.62133 5.64271 7.62133C5.12548 7.62133 4.82074 7.27287 4.82074 6.83861C4.82074 6.39146 5.12548 6.04437 5.64271 6.04437C6.00997 6.04437 6.31864 6.23781 6.36378 6.58544H6.00745Z" fill="white"/>
<path d="M5.35886 8.97524H5.79284L5.58145 8.42577H5.57627L5.35886 8.97524ZM5.3942 8.05459H5.77211L6.3956 9.5581H6.01629L5.88789 9.22335H5.26328L5.1332 9.5581H4.76146L5.3942 8.05459Z" fill="white"/>
<path d="M5.25668 10.6718H5.65954C5.82354 10.6718 5.91185 10.6085 5.91185 10.4573C5.91185 10.3127 5.82354 10.249 5.65954 10.249H5.25668V10.6718ZM4.89026 9.99139H5.79018C6.09043 9.99139 6.27911 10.1787 6.27911 10.4074C6.27911 10.5837 6.20118 10.715 6.01642 10.782V10.788C6.19585 10.829 6.24771 10.989 6.25893 11.1407C6.26584 11.2329 6.26325 11.4118 6.32899 11.4964H5.96062C5.91604 11.4 5.92191 11.2559 5.9023 11.1362C5.87786 10.977 5.80867 10.9083 5.62476 10.9083H5.25667V11.4964H4.89025L4.89026 9.99139Z" fill="white"/>
<path d="M5.39545 12.2252H4.89363V11.9462H6.26341V12.2252H5.76131V13.4528H5.39545V12.2252Z" fill="white"/>
<path d="M4.95671 15.3519H6.22669V15.0741H5.32424V14.7055H6.13389V14.4478H5.32424V14.1257H6.20677V13.8479H4.95671V15.3519Z" fill="white"/>
<path d="M7.7041 16.7567V15.9535C7.7041 14.9241 8.51178 14.0892 9.4759 14.0892H34.29V14.9258C34.29 15.9036 33.5712 16.6984 32.7554 16.75L7.7041 16.7569" fill="#68BCEB"/>
<path d="M36.5931 15.9299C36.5931 14.8993 35.8162 14.0833 34.8493 14.0833H34.2909V14.8893C34.2909 15.834 33.629 16.6052 32.7714 16.716H7.70998L7.70936 17.6551C7.70936 18.6854 8.49882 19.5203 9.46462 19.5203H34.8364C35.8058 19.5203 36.593 18.6854 36.593 17.6551V15.9299" fill="#B3DCF5"/>
<path fill-rule="evenodd" clip-rule="evenodd" d="M26.3192 5.98887V9.04745C26.3192 9.61347 26.4252 10.2059 25.0854 10.2059C23.8244 10.2059 23.8564 9.67375 23.8564 9.04745V5.95913H22.657V9.04745C22.657 10.2888 23.3282 11.2541 25.0759 11.2541C27.0072 11.2541 27.5152 10.1464 27.5152 9.04745V5.98887H26.3192Z" fill="white"/>
<path fill-rule="evenodd" clip-rule="evenodd" d="M17.0784 11.193V10.2261H14.9119C14.7406 10.2235 14.6015 10.11 14.5881 9.95999V5.96167H13.2516V10.1568H13.2551C13.2551 10.7312 13.7763 11.1913 14.4211 11.193H17.0784Z" fill="white"/>
<path d="M21.6436 6.97093V5.95913H17.7737V10.1397C17.7737 10.7124 18.3021 11.1787 18.9503 11.1787H21.6307V10.2541H19.1104V8.95607H21.6307V8.04887H19.1104V6.97093H21.6436Z" fill="white"/>
<path d="M32.4257 6.97093V5.95913H28.5505V10.1397C28.5505 10.7124 29.0812 11.1787 29.7305 11.1787H32.4148V10.2541H29.888V8.95607H32.4148V8.04887H29.888V6.97093H32.4257Z" fill="white"/>
<path fill-rule="evenodd" clip-rule="evenodd" d="M8.53508 8.96699V10.1896H10.4414C10.8914 10.1896 11.2446 9.99979 11.2446 9.54478C11.2446 9.04997 10.844 8.96699 10.4414 8.96699H8.53508ZM8.53508 7.91486H10.4414C10.7316 7.91486 10.9817 7.757 10.9817 7.44945C10.9817 7.09594 10.7221 7.00596 10.4414 7.00596H8.53508V7.91486ZM10.4414 5.95241C11.4243 5.95241 12.0251 6.42844 12.0251 7.39873C12.0251 7.7245 11.9043 8.09764 11.6761 8.32977C11.9556 8.55405 12.287 8.88653 12.287 9.55488C12.287 10.6073 11.5351 11.1946 10.4414 11.1946H7.49051V5.95241H10.4414Z" fill="white"/>
</svg>
