<svg width="40" height="24" viewBox="0 0 40 24" fill="none" xmlns="http://www.w3.org/2000/svg">
<g opacity="0.5">
<path d="M0 2C0 0.89543 0.895431 0 2 0H38C39.1046 0 40 0.895431 40 2V22C40 23.1046 39.1046 24 38 24H2C0.895431 24 0 23.1046 0 22V2Z" fill="white"/>
<path d="M40 14.7173C40 14.7173 30.9113 21.1262 14.2678 24H40V14.7173Z" fill="#F48120"/>
<path d="M40 14.7173C40 14.7173 30.9113 21.1262 14.2678 24H40V14.7173Z" fill="black" style="mix-blend-mode:color"/>
<path d="M20.6921 14.1973C22.1186 14.1973 23.275 13.0409 23.275 11.6144C23.275 10.1879 22.1186 9.03149 20.6921 9.03149C19.2655 9.03149 18.1091 10.1879 18.1091 11.6144C18.1091 13.0409 19.2655 14.1973 20.6921 14.1973Z" fill="url(#paint0_linear_10_7997)"/>
<path d="M20.6921 14.1973C22.1186 14.1973 23.275 13.0409 23.275 11.6144C23.275 10.1879 22.1186 9.03149 20.6921 9.03149C19.2655 9.03149 18.1091 10.1879 18.1091 11.6144C18.1091 13.0409 19.2655 14.1973 20.6921 14.1973Z" fill="black" style="mix-blend-mode:color"/>
<g opacity="0.65">
<path d="M20.6921 14.1973C22.1186 14.1973 23.275 13.0409 23.275 11.6144C23.275 10.1879 22.1186 9.03149 20.6921 9.03149C19.2655 9.03149 18.1091 10.1879 18.1091 11.6144C18.1091 13.0409 19.2655 14.1973 20.6921 14.1973Z" fill="url(#paint1_linear_10_7997)"/>
<path d="M20.6921 14.1973C22.1186 14.1973 23.275 13.0409 23.275 11.6144C23.275 10.1879 22.1186 9.03149 20.6921 9.03149C19.2655 9.03149 18.1091 10.1879 18.1091 11.6144C18.1091 13.0409 19.2655 14.1973 20.6921 14.1973Z" fill="black" style="mix-blend-mode:color"/>
</g>
<path d="M6.06725 9.17237H4.68323V14.0209H6.06725C6.79893 14.0209 7.32786 13.8445 7.79507 13.4655C8.35045 13.0071 8.67662 12.3195 8.67662 11.6054C8.6678 10.1685 7.60113 9.17237 6.06725 9.17237ZM7.17799 12.822C6.87827 13.0864 6.49921 13.2098 5.88213 13.2098H5.62648V10.001H5.88213C6.49039 10.001 6.86064 10.1068 7.17799 10.3889C7.50416 10.6798 7.6981 11.1294 7.6981 11.5966C7.6981 12.0638 7.50416 12.5311 7.17799 12.822Z" fill="#231F20"/>
<path d="M6.06725 9.17237H4.68323V14.0209H6.06725C6.79893 14.0209 7.32786 13.8445 7.79507 13.4655C8.35045 13.0071 8.67662 12.3195 8.67662 11.6054C8.6678 10.1685 7.60113 9.17237 6.06725 9.17237ZM7.17799 12.822C6.87827 13.0864 6.49921 13.2098 5.88213 13.2098H5.62648V10.001H5.88213C6.49039 10.001 6.86064 10.1068 7.17799 10.3889C7.50416 10.6798 7.6981 11.1294 7.6981 11.5966C7.6981 12.0638 7.50416 12.5311 7.17799 12.822Z" fill="black" style="mix-blend-mode:color"/>
<path d="M10.0518 9.17237H9.10857V14.0209H10.0518V9.17237Z" fill="#231F20"/>
<path d="M10.0518 9.17237H9.10857V14.0209H10.0518V9.17237Z" fill="black" style="mix-blend-mode:color"/>
<path d="M12.3615 11.0324C11.7973 10.8209 11.6298 10.6798 11.6298 10.4242C11.6298 10.1156 11.9295 9.88642 12.335 9.88642C12.6171 9.88642 12.8551 10.001 13.0931 10.2831L13.5868 9.63959C13.1813 9.28697 12.6965 9.10185 12.1587 9.10185C11.3036 9.10185 10.6425 9.7013 10.6425 10.4947C10.6425 11.1647 10.951 11.5085 11.8325 11.8258C12.2028 11.958 12.3879 12.0462 12.4849 12.0991C12.67 12.2225 12.767 12.3988 12.767 12.6016C12.767 12.9983 12.4584 13.2892 12.0353 13.2892C11.5857 13.2892 11.2243 13.06 11.0039 12.6457L10.3956 13.2363C10.8276 13.8798 11.3565 14.1619 12.0706 14.1619C13.0491 14.1619 13.7455 13.5096 13.7455 12.5663C13.7631 11.7817 13.4369 11.4291 12.3615 11.0324Z" fill="#231F20"/>
<path d="M12.3615 11.0324C11.7973 10.8209 11.6298 10.6798 11.6298 10.4242C11.6298 10.1156 11.9295 9.88642 12.335 9.88642C12.6171 9.88642 12.8551 10.001 13.0931 10.2831L13.5868 9.63959C13.1813 9.28697 12.6965 9.10185 12.1587 9.10185C11.3036 9.10185 10.6425 9.7013 10.6425 10.4947C10.6425 11.1647 10.951 11.5085 11.8325 11.8258C12.2028 11.958 12.3879 12.0462 12.4849 12.0991C12.67 12.2225 12.767 12.3988 12.767 12.6016C12.767 12.9983 12.4584 13.2892 12.0353 13.2892C11.5857 13.2892 11.2243 13.06 11.0039 12.6457L10.3956 13.2363C10.8276 13.8798 11.3565 14.1619 12.0706 14.1619C13.0491 14.1619 13.7455 13.5096 13.7455 12.5663C13.7631 11.7817 13.4369 11.4291 12.3615 11.0324Z" fill="black" style="mix-blend-mode:color"/>
<path d="M14.054 11.6054C14.054 13.0335 15.1736 14.1355 16.6105 14.1355C17.016 14.1355 17.3686 14.0561 17.7918 13.8534V12.7426C17.4127 13.1217 17.0777 13.2715 16.6546 13.2715C15.7025 13.2715 15.0237 12.5839 15.0237 11.5966C15.0237 10.6622 15.7201 9.9305 16.6105 9.9305C17.0601 9.9305 17.4039 10.0892 17.7918 10.4771V9.36631C17.3774 9.15474 17.0336 9.06659 16.6281 9.06659C15.2088 9.06659 14.054 10.195 14.054 11.6054Z" fill="#231F20"/>
<path d="M14.054 11.6054C14.054 13.0335 15.1736 14.1355 16.6105 14.1355C17.016 14.1355 17.3686 14.0561 17.7918 13.8534V12.7426C17.4127 13.1217 17.0777 13.2715 16.6546 13.2715C15.7025 13.2715 15.0237 12.5839 15.0237 11.5966C15.0237 10.6622 15.7201 9.9305 16.6105 9.9305C17.0601 9.9305 17.4039 10.0892 17.7918 10.4771V9.36631C17.3774 9.15474 17.0336 9.06659 16.6281 9.06659C15.2088 9.06659 14.054 10.195 14.054 11.6054Z" fill="black" style="mix-blend-mode:color"/>
<path d="M25.3025 12.4341L24.0066 9.17237H22.9752L25.0292 14.1443H25.5405L27.6298 9.17237H26.6072L25.3025 12.4341Z" fill="#231F20"/>
<path d="M25.3025 12.4341L24.0066 9.17237H22.9752L25.0292 14.1443H25.5405L27.6298 9.17237H26.6072L25.3025 12.4341Z" fill="black" style="mix-blend-mode:color"/>
<path d="M28.0617 14.0209H30.7416V13.201H29.005V11.8963H30.6799V11.0765H29.005V10.001H30.7416V9.17237H28.0617V14.0209Z" fill="#231F20"/>
<path d="M28.0617 14.0209H30.7416V13.201H29.005V11.8963H30.6799V11.0765H29.005V10.001H30.7416V9.17237H28.0617V14.0209Z" fill="black" style="mix-blend-mode:color"/>
<path d="M34.4882 10.6093C34.4882 9.7013 33.8623 9.18119 32.7692 9.18119H31.3675V14.0297H32.3108V12.0815H32.4342L33.7389 14.0297H34.9025L33.3774 11.9845C34.0915 11.8346 34.4882 11.3498 34.4882 10.6093ZM32.5841 11.4115H32.3108V9.93932H32.6017C33.1923 9.93932 33.5097 10.1861 33.5097 10.6622C33.5097 11.147 33.1923 11.4115 32.5841 11.4115Z" fill="#231F20"/>
<path d="M34.4882 10.6093C34.4882 9.7013 33.8623 9.18119 32.7692 9.18119H31.3675V14.0297H32.3108V12.0815H32.4342L33.7389 14.0297H34.9025L33.3774 11.9845C34.0915 11.8346 34.4882 11.3498 34.4882 10.6093ZM32.5841 11.4115H32.3108V9.93932H32.6017C33.1923 9.93932 33.5097 10.1861 33.5097 10.6622C33.5097 11.147 33.1923 11.4115 32.5841 11.4115Z" fill="black" style="mix-blend-mode:color"/>
<path d="M35.0876 9.3575C35.0876 9.26934 35.0259 9.22527 34.929 9.22527H34.7879V9.64841H34.8937V9.48091L35.0171 9.64841H35.1405L34.9995 9.4721C35.0524 9.46328 35.0876 9.41921 35.0876 9.3575ZM34.9113 9.41921H34.8937V9.30461H34.9113C34.9642 9.30461 34.9907 9.32224 34.9907 9.3575C34.9907 9.40157 34.9642 9.41921 34.9113 9.41921Z" fill="#231F20"/>
<path d="M35.0876 9.3575C35.0876 9.26934 35.0259 9.22527 34.929 9.22527H34.7879V9.64841H34.8937V9.48091L35.0171 9.64841H35.1405L34.9995 9.4721C35.0524 9.46328 35.0876 9.41921 35.0876 9.3575ZM34.9113 9.41921H34.8937V9.30461H34.9113C34.9642 9.30461 34.9907 9.32224 34.9907 9.3575C34.9907 9.40157 34.9642 9.41921 34.9113 9.41921Z" fill="black" style="mix-blend-mode:color"/>
<path d="M34.9466 9.06659C34.7438 9.06659 34.5763 9.23408 34.5763 9.43684C34.5763 9.63959 34.7438 9.80708 34.9466 9.80708C35.1493 9.80708 35.3168 9.63959 35.3168 9.43684C35.3168 9.23408 35.1493 9.06659 34.9466 9.06659ZM34.9466 9.74538C34.7879 9.74538 34.6469 9.61315 34.6469 9.43684C34.6469 9.26934 34.7791 9.1283 34.9466 9.1283C35.1053 9.1283 35.2375 9.26934 35.2375 9.43684C35.2375 9.60433 35.1053 9.74538 34.9466 9.74538Z" fill="#231F20"/>
<path d="M34.9466 9.06659C34.7438 9.06659 34.5763 9.23408 34.5763 9.43684C34.5763 9.63959 34.7438 9.80708 34.9466 9.80708C35.1493 9.80708 35.3168 9.63959 35.3168 9.43684C35.3168 9.23408 35.1493 9.06659 34.9466 9.06659ZM34.9466 9.74538C34.7879 9.74538 34.6469 9.61315 34.6469 9.43684C34.6469 9.26934 34.7791 9.1283 34.9466 9.1283C35.1053 9.1283 35.2375 9.26934 35.2375 9.43684C35.2375 9.60433 35.1053 9.74538 34.9466 9.74538Z" fill="black" style="mix-blend-mode:color"/>
</g>
<defs>
<linearGradient id="paint0_linear_10_7997" x1="22.0122" y1="13.6814" x2="20.2267" y2="10.8858" gradientUnits="userSpaceOnUse">
<stop stop-color="#F89F20"/>
<stop offset="0.2502" stop-color="#F79A20"/>
<stop offset="0.5331" stop-color="#F68D20"/>
<stop offset="0.6196" stop-color="#F58720"/>
<stop offset="0.7232" stop-color="#F48120"/>
<stop offset="1" stop-color="#F37521"/>
</linearGradient>
<linearGradient id="paint1_linear_10_7997" x1="21.7303" y1="13.6437" x2="19.1208" y2="8.5433" gradientUnits="userSpaceOnUse">
<stop stop-color="#F58720"/>
<stop offset="0.3587" stop-color="#E16F27"/>
<stop offset="0.703" stop-color="#D4602C"/>
<stop offset="0.9816" stop-color="#D05B2E"/>
</linearGradient>
</defs>
</svg>
