<svg width="40" height="24" viewBox="0 0 40 24" fill="none" xmlns="http://www.w3.org/2000/svg">
<g opacity="0.5">
<path d="M0 2C0 0.89543 0.895431 0 2 0H38C39.1046 0 40 0.895431 40 2V22C40 23.1046 39.1046 24 38 24H2C0.895431 24 0 23.1046 0 22V2Z" fill="white"/>
<rect x="8.33333" y="6.74501" width="18.3333" height="11.6667" rx="1" transform="rotate(-15 8.33333 6.74501)" fill="#B6C1D3"/>
<rect x="8.6971" y="8.08616" width="18.3333" height="1.66667" transform="rotate(-15 8.6971 8.08616)" fill="#8698B6"/>
<rect x="13.3333" y="10.3333" width="18.3333" height="11.6667" rx="1" fill="#0062FF"/>
<path d="M15 19.0833C15 18.8532 15.1865 18.6666 15.4167 18.6666H17.9167C18.1468 18.6666 18.3333 18.8532 18.3333 19.0833V19.9166C18.3333 20.1468 18.1468 20.3333 17.9167 20.3333H15.4167C15.1865 20.3333 15 20.1468 15 19.9166V19.0833Z" fill="#66A1FF"/>
<path d="M19.1667 19.0833C19.1667 18.8532 19.3532 18.6666 19.5833 18.6666H22.0833C22.3135 18.6666 22.5 18.8532 22.5 19.0833V19.9166C22.5 20.1468 22.3135 20.3333 22.0833 20.3333H19.5833C19.3532 20.3333 19.1667 20.1468 19.1667 19.9166V19.0833Z" fill="#66A1FF"/>
<path d="M23.3333 19.0833C23.3333 18.8532 23.5199 18.6666 23.75 18.6666H26.25C26.4801 18.6666 26.6667 18.8532 26.6667 19.0833V19.9166C26.6667 20.1468 26.4801 20.3333 26.25 20.3333H23.75C23.5199 20.3333 23.3333 20.1468 23.3333 19.9166V19.0833Z" fill="#66A1FF"/>
<path d="M27.5 19.0833C27.5 18.8532 27.6865 18.6666 27.9167 18.6666H29.5833C29.8135 18.6666 30 18.8532 30 19.0833V19.9166C30 20.1468 29.8135 20.3333 29.5833 20.3333H27.9167C27.6865 20.3333 27.5 20.1468 27.5 19.9166V19.0833Z" fill="#66A1FF"/>
<rect x="18.3333" y="12" width="1.66667" height="3.33333" rx="0.5" transform="rotate(90 18.3333 12)" fill="#E7EFFF"/>
</g>
</svg>
