<svg width="40" height="24" viewBox="0 0 40 24" fill="none" xmlns="http://www.w3.org/2000/svg">
<g opacity="0.5">
<path d="M0 2C0 0.89543 0.895431 0 2 0H38C39.1046 0 40 0.895431 40 2V22C40 23.1046 39.1046 24 38 24H2C0.895431 24 0 23.1046 0 22V2Z" fill="white"/>
<path d="M22.4474 6.85956H16.885V16.8559H22.4474V6.85956Z" fill="#FF5F00"/>
<path d="M22.4474 6.85956H16.885V16.8559H22.4474V6.85956Z" fill="black" style="mix-blend-mode:color"/>
<path d="M17.2382 11.8584C17.2372 10.8955 17.4553 9.94508 17.8759 9.07898C18.2966 8.21287 18.9088 7.45384 19.6662 6.85935C18.7284 6.12234 17.6022 5.66403 16.4162 5.53681C15.2303 5.4096 14.0324 5.6186 12.9596 6.13994C11.8869 6.66128 10.9824 7.47393 10.3496 8.48499C9.7168 9.49606 9.38123 10.6648 9.38123 11.8575C9.38123 13.0503 9.7168 14.219 10.3496 15.23C10.9824 16.2411 11.8869 17.0538 12.9596 17.5751C14.0324 18.0964 15.2303 18.3054 16.4162 18.1782C17.6022 18.051 18.7284 17.5927 19.6662 16.8557C18.909 16.2614 18.297 15.5026 17.8763 14.6369C17.4557 13.7711 17.2375 12.821 17.2382 11.8584V11.8584Z" fill="#EB001B"/>
<path d="M17.2382 11.8584C17.2372 10.8955 17.4553 9.94508 17.8759 9.07898C18.2966 8.21287 18.9088 7.45384 19.6662 6.85935C18.7284 6.12234 17.6022 5.66403 16.4162 5.53681C15.2303 5.4096 14.0324 5.6186 12.9596 6.13994C11.8869 6.66128 10.9824 7.47393 10.3496 8.48499C9.7168 9.49606 9.38123 10.6648 9.38123 11.8575C9.38123 13.0503 9.7168 14.219 10.3496 15.23C10.9824 16.2411 11.8869 17.0538 12.9596 17.5751C14.0324 18.0964 15.2303 18.3054 16.4162 18.1782C17.6022 18.051 18.7284 17.5927 19.6662 16.8557C18.909 16.2614 18.297 15.5026 17.8763 14.6369C17.4557 13.7711 17.2375 12.821 17.2382 11.8584V11.8584Z" fill="black" style="mix-blend-mode:color"/>
<path d="M29.9522 11.8586C29.9522 13.0514 29.6165 14.2202 28.9836 15.2313C28.3507 16.2424 27.4461 17.055 26.3732 17.5763C25.3002 18.0976 24.1023 18.3064 22.9163 18.179C21.7303 18.0516 20.604 17.5931 19.6663 16.8559C20.4231 16.261 21.035 15.5021 21.4558 14.6363C21.8766 13.7704 22.0952 12.8204 22.0952 11.8577C22.0952 10.8951 21.8766 9.94498 21.4558 9.07915C21.035 8.21333 20.4231 7.45437 19.6663 6.85954C20.604 6.12229 21.7303 5.66376 22.9163 5.53636C24.1023 5.40896 25.3002 5.61784 26.3732 6.1391C27.4461 6.66037 28.3507 7.473 28.9836 8.4841C29.6165 9.4952 29.9522 10.664 29.9522 11.8568V11.8586Z" fill="#F79E1B"/>
<path d="M29.9522 11.8586C29.9522 13.0514 29.6165 14.2202 28.9836 15.2313C28.3507 16.2424 27.4461 17.055 26.3732 17.5763C25.3002 18.0976 24.1023 18.3064 22.9163 18.179C21.7303 18.0516 20.604 17.5931 19.6663 16.8559C20.4231 16.261 21.035 15.5021 21.4558 14.6363C21.8766 13.7704 22.0952 12.8204 22.0952 11.8577C22.0952 10.8951 21.8766 9.94498 21.4558 9.07915C21.035 8.21333 20.4231 7.45437 19.6663 6.85954C20.604 6.12229 21.7303 5.66376 22.9163 5.53636C24.1023 5.40896 25.3002 5.61784 26.3732 6.1391C27.4461 6.66037 28.3507 7.473 28.9836 8.4841C29.6165 9.4952 29.9522 10.664 29.9522 11.8568V11.8586Z" fill="black" style="mix-blend-mode:color"/>
<path d="M29.3447 15.7964V15.5915H29.4277V15.5491H29.2175V15.5915H29.3076V15.7964H29.3447ZM29.7526 15.7964V15.5491H29.689L29.6148 15.7257L29.5407 15.5491H29.4842V15.7964H29.5301V15.6109L29.5989 15.7716H29.6466L29.7155 15.6109V15.7981L29.7526 15.7964Z" fill="#F79E1B"/>
<path d="M29.3447 15.7964V15.5915H29.4277V15.5491H29.2175V15.5915H29.3076V15.7964H29.3447ZM29.7526 15.7964V15.5491H29.689L29.6148 15.7257L29.5407 15.5491H29.4842V15.7964H29.5301V15.6109L29.5989 15.7716H29.6466L29.7155 15.6109V15.7981L29.7526 15.7964Z" fill="black" style="mix-blend-mode:color"/>
</g>
</svg>
