<svg width="178" height="178" viewBox="0 0 178 178" fill="none" xmlns="http://www.w3.org/2000/svg">
<path d="M57.5928 130.121C57.5928 132.43 59.4643 134.301 61.773 134.301H117.714C120.023 134.301 121.894 132.43 121.894 130.121V92.9648H57.5928V130.121Z" fill="#FFE4AD"/>
<path d="M117.963 134.294H89.5285L57.8237 92.9648H121.895V130.121C121.895 132.347 120.156 134.166 117.963 134.294Z" fill="#FFD37A"/>
<path d="M53 92.9648H71.3718C71.3718 98.0381 67.2592 102.151 62.1859 102.151C57.1127 102.151 53 98.0381 53 92.9648Z" fill="#6F0D06"/>
<path d="M89.7437 92.9648H108.115C108.115 98.0381 104.003 102.151 98.9296 102.151C93.8563 102.151 89.7437 98.0381 89.7437 92.9648Z" fill="#6F0D06"/>
<path d="M71.3721 92.9648H89.7439C89.7439 98.0381 85.6312 102.151 80.558 102.151C75.4847 102.151 71.3721 98.0381 71.3721 92.9648Z" fill="#E5E9F0"/>
<path d="M108.116 92.9648H126.488C126.488 98.0381 122.375 102.151 117.302 102.151C112.228 102.151 108.116 98.0381 108.116 92.9648Z" fill="#E5E9F0"/>
<path d="M53 92.9648L58.9957 72.979C59.5262 71.2109 61.1536 70 62.9996 70H75.0462L71.3718 92.9648H53Z" fill="#F44034"/>
<path d="M108.115 92.9648L104.441 70H89.7437V92.9648H108.115Z" fill="#F44034"/>
<path d="M71.3721 92.9648L75.0464 70H89.7439V92.9648H71.3721Z" fill="white"/>
<path d="M126.488 92.9648L120.492 72.979C119.961 71.2109 118.334 70 116.488 70H104.441L108.116 92.9648H126.488Z" fill="white"/>
<path fill-rule="evenodd" clip-rule="evenodd" d="M105.018 31.8615C104.95 31.3705 104.529 31.0045 104.033 31.0099L97.5399 31.0799C96.9534 31.0862 96.504 31.6028 96.5869 32.1834C97.4675 38.3462 99.0541 45.5581 98.2801 51.6707C97.0831 61.1237 81.2106 60.8136 79.8059 51.5623C78.8873 45.5127 80.3093 38.2994 81.1566 32.1757C81.2369 31.5947 80.7866 31.079 80.2001 31.0738L73.7044 31.0165C73.2088 31.0121 72.7884 31.3789 72.7219 31.8701C71.7867 38.784 70.3082 45.8778 71.3664 52.8471C72.7819 62.1695 79.9493 67.0997 89.1209 66.9985C98.3332 67.0989 105.552 62.1952 106.749 52.7459C107.632 45.7729 105.978 38.7526 105.018 31.8615Z" fill="#3381FF"/>
<path d="M71 47.7229C71.0008 49.4347 71.1079 51.1435 71.3663 52.8449C72.7755 62.1262 79.8862 67.054 88.9998 66.9973V58.6263C84.7466 58.531 80.5015 56.1423 79.8058 51.5601C79.1475 47.2246 79.6913 42.2914 80.3642 37.5898L71.8934 37.5898C71.4128 40.9439 71.0015 44.3201 71 47.6849C71 47.6976 71 47.7102 71 47.7229Z" fill="#F44034"/>
<path d="M104.112 31C104.564 31 104.946 31.3354 105.008 31.7832C105.212 33.2581 105.449 34.739 105.686 36.224C105.759 36.6795 105.832 37.1353 105.904 37.5915L97.4316 37.5915C97.3404 37.0101 97.2479 36.4323 97.1563 35.8596C96.9458 34.5445 96.7397 33.2565 96.5632 32.0145C96.4868 31.4767 96.9063 31 97.4495 31L104.112 31Z" fill="white"/>
<path d="M80.3655 37.5915L71.8936 37.5915C71.9977 36.8646 72.1052 36.1387 72.2124 35.4142C72.3916 34.2028 72.5703 32.9953 72.7323 31.7933C72.7927 31.3446 73.1747 31.0083 73.6275 31.0083L80.292 31.0083C80.8345 31.0083 81.2538 31.4838 81.1798 32.0212C81.0411 33.0276 80.8863 34.0652 80.7285 35.1236C80.6073 35.9356 80.4844 36.7599 80.3655 37.5915Z" fill="white"/>
<path d="M74.8484 23.7906L76.2542 22.6308L74.2377 20.6803L75.4164 19.7577L71 15L73.7407 19.5732L72.1929 20.8384L74.2945 22.7362L73.1727 23.5929L77.6885 28.3769L74.8484 23.7906Z" fill="#66A1FF"/>
<path d="M82.636 24.7078L81.5113 23.78L83.1245 22.2196L82.1816 21.4816L85.7147 17.6754L83.5221 21.3339L84.7604 22.3461L83.079 23.8644L83.9765 24.5497L80.3639 28.3769L82.636 24.7078Z" fill="#66A1FF"/>
<path d="M95.4818 24.7078L96.6065 23.78L94.9933 22.2196L95.9362 21.4816L92.4031 17.6754L94.5957 21.3339L93.3574 22.3461L95.0388 23.8644L94.1413 24.5497L97.7539 28.3769L95.4818 24.7078Z" fill="#66A1FF"/>
<path d="M103.269 23.7906L101.864 22.6308L103.88 20.6803L102.701 19.7577L107.118 15L104.377 19.5732L105.925 20.8384L103.823 22.7362L104.945 23.5929L100.429 28.3769L103.269 23.7906Z" fill="#66A1FF"/>
<rect x="25" y="17" width="32" height="32" rx="16" fill="white"/>
<path d="M37.0757 29.4994C37.0757 31.6003 38.7788 33.3035 40.8798 33.3035C42.9807 33.3035 44.6839 31.6003 44.6839 29.4994C44.6839 27.3985 42.9807 25.6953 40.8798 25.6953C38.7788 25.6953 37.0757 27.3985 37.0757 29.4994Z" fill="#99C0FF"/>
<path d="M48.7598 41.9981C48.6774 37.7824 45.181 34.3899 40.8799 34.3899C36.5788 34.3899 33.0823 37.7824 33 41.9981H48.7598Z" fill="#99C0FF"/>
<rect x="134" y="31" width="25" height="25" rx="12.5" fill="white"/>
<path d="M143.434 40.7649C143.434 42.4063 144.765 43.7369 146.406 43.7369C148.047 43.7369 149.378 42.4063 149.378 40.7649C149.378 39.1236 148.047 37.793 146.406 37.793C144.765 37.793 143.434 39.1236 143.434 40.7649Z" fill="#99C0FF"/>
<path d="M152.562 50.5295C152.498 47.236 149.766 44.5856 146.406 44.5856C143.046 44.5856 140.314 47.236 140.25 50.5295H152.562Z" fill="#99C0FF"/>
<rect x="20" y="112" width="25" height="25" rx="12.5" fill="white"/>
<path d="M29.4341 121.765C29.4341 123.406 30.7647 124.737 32.4061 124.737C34.0474 124.737 35.378 123.406 35.378 121.765C35.378 120.124 34.0474 118.793 32.4061 118.793C30.7647 118.793 29.4341 120.124 29.4341 121.765Z" fill="#99C0FF"/>
<path d="M38.5623 131.53C38.498 128.236 35.7664 125.586 32.4062 125.586C29.0459 125.586 26.3143 128.236 26.25 131.53H38.5623Z" fill="#99C0FF"/>
<rect x="151" y="77" width="25" height="25" rx="12.5" fill="white"/>
<path d="M160.434 86.7649C160.434 88.4063 161.765 89.7369 163.406 89.7369C165.047 89.7369 166.378 88.4063 166.378 86.7649C166.378 85.1236 165.047 83.793 163.406 83.793C161.765 83.793 160.434 85.1236 160.434 86.7649Z" fill="#99C0FF"/>
<path d="M169.562 96.5295C169.498 93.236 166.766 90.5856 163.406 90.5856C160.046 90.5856 157.314 93.236 157.25 96.5295H169.562Z" fill="#99C0FF"/>
<rect x="134" y="113" width="25" height="25" rx="12.5" fill="white"/>
<path d="M143.434 122.765C143.434 124.406 144.765 125.737 146.406 125.737C148.047 125.737 149.378 124.406 149.378 122.765C149.378 121.124 148.047 119.793 146.406 119.793C144.765 119.793 143.434 121.124 143.434 122.765Z" fill="#99C0FF"/>
<path d="M152.562 132.53C152.498 129.236 149.766 126.586 146.406 126.586C143.046 126.586 140.314 129.236 140.25 132.53H152.562Z" fill="#99C0FF"/>
<rect x="2" y="70" width="25" height="25" rx="12.5" fill="white"/>
<path d="M11.4341 79.7649C11.4341 81.4063 12.7647 82.7369 14.4061 82.7369C16.0474 82.7369 17.378 81.4063 17.378 79.7649C17.378 78.1236 16.0474 76.793 14.4061 76.793C12.7647 76.793 11.4341 78.1236 11.4341 79.7649Z" fill="#99C0FF"/>
<path d="M20.5623 89.5295C20.498 86.236 17.7664 83.5856 14.4062 83.5856C11.0459 83.5856 8.31433 86.236 8.25 89.5295H20.5623Z" fill="#99C0FF"/>
<g opacity="0.7">
<rect x="33" y="60" width="12" height="12" rx="6" fill="white"/>
<path d="M37.5284 64.6883C37.5284 65.4761 38.167 66.1148 38.9549 66.1148C39.7427 66.1148 40.3814 65.4761 40.3814 64.6883C40.3814 63.9004 39.7427 63.2617 38.9549 63.2617C38.167 63.2617 37.5284 63.9004 37.5284 64.6883Z" fill="#99C0FF"/>
<path d="M41.9099 69.3754C41.879 67.7945 40.5679 66.5224 38.955 66.5224C37.342 66.5224 36.0309 67.7945 36 69.3754H41.9099Z" fill="#99C0FF"/>
</g>
<g opacity="0.7">
<rect x="9" y="46" width="12" height="12" rx="6" fill="white"/>
<path d="M13.5284 50.6883C13.5284 51.4761 14.167 52.1148 14.9549 52.1148C15.7427 52.1148 16.3814 51.4761 16.3814 50.6883C16.3814 49.9004 15.7427 49.2617 14.9549 49.2617C14.167 49.2617 13.5284 49.9004 13.5284 50.6883Z" fill="#99C0FF"/>
<path d="M17.9099 55.3754C17.879 53.7945 16.5679 52.5224 14.955 52.5224C13.342 52.5224 12.0309 53.7945 12 55.3754H17.9099Z" fill="#99C0FF"/>
</g>
<g opacity="0.7">
<rect x="30" y="91" width="12" height="12" rx="6" fill="white"/>
<path d="M34.5284 95.6883C34.5284 96.4761 35.167 97.1148 35.9549 97.1148C36.7427 97.1148 37.3814 96.4761 37.3814 95.6883C37.3814 94.9004 36.7427 94.2617 35.9549 94.2617C35.167 94.2617 34.5284 94.9004 34.5284 95.6883Z" fill="#99C0FF"/>
<path d="M38.9099 100.375C38.879 98.7945 37.5679 97.5224 35.955 97.5224C34.342 97.5224 33.0309 98.7945 33 100.375H38.9099Z" fill="#99C0FF"/>
</g>
<g opacity="0.7">
<rect x="51" y="142" width="12" height="12" rx="6" fill="white"/>
<path d="M55.5284 146.688C55.5284 147.476 56.167 148.115 56.9549 148.115C57.7427 148.115 58.3814 147.476 58.3814 146.688C58.3814 145.9 57.7427 145.262 56.9549 145.262C56.167 145.262 55.5284 145.9 55.5284 146.688Z" fill="#99C0FF"/>
<path d="M59.9099 150.853C59.879 149.273 58.5679 148 56.955 148C55.342 148 54.0309 149.273 54 150.853H59.9099Z" fill="#99C0FF"/>
</g>
<g opacity="0.7">
<rect x="113" y="144" width="12" height="12" rx="6" fill="white"/>
<path d="M117.528 148.688C117.528 149.476 118.167 150.115 118.955 150.115C119.743 150.115 120.381 149.476 120.381 148.688C120.381 147.9 119.743 147.262 118.955 147.262C118.167 147.262 117.528 147.9 117.528 148.688Z" fill="#99C0FF"/>
<path d="M121.91 153.375C121.879 151.795 120.568 150.522 118.955 150.522C117.342 150.522 116.031 151.795 116 153.375H121.91Z" fill="#99C0FF"/>
</g>
<rect x="80" y="144" width="19" height="19" rx="9.5" fill="white"/>
<path d="M87.1698 151.423C87.1698 152.67 88.1811 153.681 89.4285 153.681C90.6759 153.681 91.6872 152.67 91.6872 151.423C91.6872 150.175 90.6759 149.164 89.4285 149.164C88.1811 149.164 87.1698 150.175 87.1698 151.423Z" fill="#99C0FF"/>
<path d="M94.1074 158.844C94.0585 156.341 91.9825 154.327 89.4287 154.327C86.8749 154.327 84.7989 156.341 84.75 158.844H94.1074Z" fill="#99C0FF"/>
<g opacity="0.7">
<rect x="135" y="92" width="12" height="12" rx="6" fill="white"/>
<path d="M139.528 96.6883C139.528 97.4761 140.167 98.1148 140.955 98.1148C141.743 98.1148 142.381 97.4761 142.381 96.6883C142.381 95.9004 141.743 95.2617 140.955 95.2617C140.167 95.2617 139.528 95.9004 139.528 96.6883Z" fill="#99C0FF"/>
<path d="M143.91 101.375C143.879 99.7945 142.568 98.5224 140.955 98.5224C139.342 98.5224 138.031 99.7945 138 101.375H143.91Z" fill="#99C0FF"/>
</g>
<g opacity="0.7">
<rect x="135" y="66" width="12" height="12" rx="6" fill="white"/>
<path d="M139.528 70.6883C139.528 71.4761 140.167 72.1148 140.955 72.1148C141.743 72.1148 142.381 71.4761 142.381 70.6883C142.381 69.9004 141.743 69.2617 140.955 69.2617C140.167 69.2617 139.528 69.9004 139.528 70.6883Z" fill="#99C0FF"/>
<path d="M143.91 75.3754C143.879 73.7945 142.568 72.5224 140.955 72.5224C139.342 72.5224 138.031 73.7945 138 75.3754H143.91Z" fill="#99C0FF"/>
</g>
<g opacity="0.7">
<rect x="117" y="52" width="12" height="12" rx="6" fill="white"/>
<path d="M121.528 56.6883C121.528 57.4761 122.167 58.1148 122.955 58.1148C123.743 58.1148 124.381 57.4761 124.381 56.6883C124.381 55.9004 123.743 55.2617 122.955 55.2617C122.167 55.2617 121.528 55.9004 121.528 56.6883Z" fill="#99C0FF"/>
<path d="M125.91 61.3754C125.879 59.7945 124.568 58.5224 122.955 58.5224C121.342 58.5224 120.031 59.7945 120 61.3754H125.91Z" fill="#99C0FF"/>
</g>
<g opacity="0.7">
<rect x="164" y="52" width="12" height="12" rx="6" fill="white"/>
<path d="M168.528 56.6883C168.528 57.4761 169.167 58.1148 169.955 58.1148C170.743 58.1148 171.381 57.4761 171.381 56.6883C171.381 55.9004 170.743 55.2617 169.955 55.2617C169.167 55.2617 168.528 55.9004 168.528 56.6883Z" fill="#99C0FF"/>
<path d="M172.91 61.3754C172.879 59.7945 171.568 58.5224 169.955 58.5224C168.342 58.5224 167.031 59.7945 167 61.3754H172.91Z" fill="#99C0FF"/>
</g>
<g opacity="0.7">
<rect x="115" y="19" width="12" height="12" rx="6" fill="white"/>
<path d="M119.528 23.6883C119.528 24.4761 120.167 25.1148 120.955 25.1148C121.743 25.1148 122.381 24.4761 122.381 23.6883C122.381 22.9004 121.743 22.2617 120.955 22.2617C120.167 22.2617 119.528 22.9004 119.528 23.6883Z" fill="#99C0FF"/>
<path d="M123.91 28.3754C123.879 26.7945 122.568 25.5224 120.955 25.5224C119.342 25.5224 118.031 26.7945 118 28.3754H123.91Z" fill="#99C0FF"/>
</g>
</svg>
