<svg width="13" height="16" viewBox="0 0 13 16" fill="none" xmlns="http://www.w3.org/2000/svg">
<path fill-rule="evenodd" clip-rule="evenodd" d="M1.95285 6.43857L6.74941 0.95854C6.81391 0.885063 6.94686 0.813018 7.04277 0.798587C7.04277 0.798587 11.0756 0.153158 11.6646 0.825466C12.2532 1.49766 12.2644 2.24797 12.0702 2.68784C11.8989 3.07593 10.4078 6.34108 10.041 7.1588C11.0005 7.844 11.8739 8.9705 12.0702 10.1855C12.4769 12.699 11.3634 16.0541 5.91293 15.7066C3.95147 15.7066 0.527849 15.0058 0.144911 12.0024C-0.237463 8.99914 1.95285 6.43857 1.95285 6.43857ZM8.93232 14.645C9.87808 14.645 11.6172 13.3339 11.5554 10.8226C11.4936 8.31197 9.27616 7.2879 9.27616 7.2879L11.5837 2.21917C11.6235 2.13089 11.6444 1.96103 11.6276 1.86647C11.5944 1.68242 11.4779 1.37045 11.3781 1.23043C11.2435 1.0411 10.9624 0.978461 10.8052 1.22207C10.8052 1.22207 6.41596 7.80153 6.41596 10.916C6.41607 14.0307 7.98666 14.645 8.93232 14.645ZM7.75116 2.27669H6.89141C6.79685 2.27669 6.76645 2.21943 6.82295 2.14878L7.21059 1.66413C7.24765 1.6178 7.32901 1.57435 7.3914 1.56822C7.3914 1.56822 7.70893 1.53578 8.13898 1.50304C8.56902 1.4703 9.1913 1.496 9.1913 1.496C9.31689 1.49959 9.36488 1.58395 9.29892 1.68375L8.94564 2.21823C8.9129 2.26778 8.83533 2.30622 8.77265 2.3037C8.77265 2.3037 7.89904 2.27669 7.75116 2.27669Z" fill="#8699B6"/>
</svg>
