<svg width="300" height="175" viewBox="0 0 300 175" fill="none" xmlns="http://www.w3.org/2000/svg">
<g clip-path="url(#clip0_1865_55534)">
<rect width="300" height="175" fill="white"/>
<g filter="url(#filter0_ddd_1865_55534)">
<path d="M64.3887 146.388C64.3887 139.76 69.7613 134.388 76.3887 134.388C83.0161 134.388 88.3887 139.76 88.3887 146.388C88.3887 153.015 83.0161 158.388 76.3887 158.388C69.7613 158.388 64.3887 153.015 64.3887 146.388Z" fill="white"/>
<g clip-path="url(#clip1_1865_55534)">
<path d="M66.8555 146.388C66.8555 141.123 71.1232 136.855 76.3877 136.855C81.6523 136.855 85.92 141.123 85.92 146.388C85.92 151.652 81.6523 155.92 76.3877 155.92C71.1232 155.92 66.8555 151.652 66.8555 146.388Z" fill="#F5F7F9"/>
<path d="M76.3877 136.855C71.1232 136.855 66.8555 141.123 66.8555 146.388C66.8555 150.426 69.368 153.878 72.9139 155.267C72.8306 154.513 72.7553 153.353 72.947 152.53C73.1202 151.786 74.0648 147.792 74.0648 147.792C74.0648 147.792 73.7796 147.221 73.7796 146.376C73.7796 145.051 74.5479 144.061 75.5045 144.061C76.3177 144.061 76.7105 144.672 76.7105 145.404C76.7105 146.222 76.1898 147.445 75.9211 148.578C75.6965 149.527 76.3969 150.3 77.3327 150.3C79.0269 150.3 80.3292 148.514 80.3292 145.935C80.3292 143.653 78.6892 142.057 76.3475 142.057C73.6352 142.057 72.0432 144.092 72.0432 146.194C72.0432 147.013 72.3588 147.892 72.7527 148.369C72.8306 148.464 72.842 148.546 72.8188 148.643C72.7464 148.944 72.5856 149.591 72.554 149.724C72.5125 149.898 72.4159 149.935 72.2352 149.851C71.0447 149.297 70.3004 147.557 70.3004 146.158C70.3004 143.152 72.4851 140.39 76.5987 140.39C79.9055 140.39 82.4752 142.746 82.4752 145.895C82.4752 149.181 80.4039 151.825 77.5288 151.825C76.5628 151.825 75.6548 151.323 75.344 150.73C75.344 150.73 74.866 152.55 74.7501 152.996C74.5349 153.824 73.954 154.862 73.5654 155.495C74.4572 155.771 75.4051 155.92 76.3877 155.92C81.6523 155.92 85.92 151.652 85.92 146.388C85.92 141.123 81.6523 136.855 76.3877 136.855Z" fill="#E60023"/>
</g>
</g>
<g filter="url(#filter1_ddd_1865_55534)">
<path d="M210.572 142.571C210.572 132.63 218.631 124.571 228.572 124.571C238.513 124.571 246.572 132.63 246.572 142.571C246.572 152.512 238.513 160.571 228.572 160.571C218.631 160.571 210.572 152.512 210.572 142.571Z" fill="white"/>
<path d="M214.51 142.571C214.51 134.805 220.806 128.509 228.572 128.509C236.339 128.509 242.635 134.805 242.635 142.571C242.635 150.338 236.339 156.634 228.572 156.634C220.806 156.634 214.51 150.338 214.51 142.571Z" fill="white"/>
<path d="M214.51 142.571C214.51 134.805 220.806 128.509 228.572 128.509C236.339 128.509 242.635 134.805 242.635 142.571C242.635 150.338 236.339 156.634 228.572 156.634C220.806 156.634 214.51 150.338 214.51 142.571Z" fill="url(#paint0_radial_1865_55534)"/>
<g clip-path="url(#clip2_1865_55534)">
<path d="M228.58 137.665C228.41 137.665 228.242 137.673 228.076 137.69C227.911 137.707 227.747 137.732 227.587 137.766C227.426 137.799 227.268 137.84 227.114 137.888L226.66 138.055L226.228 138.264L225.82 138.512L225.439 138.798L225.088 139.118L224.768 139.47L224.483 139.851L224.234 140.259L224.026 140.691C223.963 140.839 223.907 140.991 223.859 141.145C223.81 141.3 223.77 141.458 223.737 141.619C223.703 141.78 223.678 141.943 223.661 142.109C223.644 142.275 223.636 142.443 223.636 142.613C223.636 142.784 223.644 142.952 223.661 143.118C223.678 143.282 223.703 143.446 223.737 143.608C223.77 143.769 223.81 143.927 223.859 144.081C223.907 144.236 223.963 144.388 224.026 144.536L224.234 144.968L224.483 145.376L224.768 145.757L225.088 146.109L225.439 146.429L225.82 146.715L226.228 146.963L226.66 147.172L227.114 147.339L227.587 147.461C227.749 147.495 227.912 147.52 228.076 147.537C228.244 147.554 228.412 147.562 228.58 147.562C228.75 147.562 228.919 147.554 229.084 147.537C229.249 147.52 229.412 147.495 229.574 147.461L230.047 147.339L230.501 147.172L230.933 146.963L231.341 146.715L231.722 146.429L232.073 146.109L232.393 145.757L232.678 145.376L232.926 144.968L233.135 144.536L233.302 144.081C233.35 143.927 233.391 143.769 233.424 143.608L233.5 143.118C233.517 142.952 233.525 142.784 233.525 142.613C233.525 142.443 233.517 142.275 233.5 142.109C233.483 141.944 233.458 141.781 233.424 141.619C233.391 141.458 233.35 141.3 233.302 141.145L233.135 140.691L232.926 140.259L232.678 139.851L232.393 139.47L232.073 139.118L231.722 138.798L231.341 138.512L230.933 138.264L230.501 138.055L230.047 137.888L229.574 137.765L229.084 137.69C228.917 137.673 228.749 137.665 228.58 137.665ZM228.58 139.373C228.693 139.373 228.804 139.378 228.913 139.389L229.235 139.438L229.546 139.518L229.844 139.626L230.127 139.762L230.394 139.924L230.643 140.11L230.872 140.318L231.081 140.548L231.267 140.797L231.428 141.064L231.564 141.348C231.605 141.445 231.641 141.544 231.672 141.646C231.704 141.748 231.73 141.852 231.752 141.958C231.773 142.064 231.789 142.171 231.8 142.281L231.817 142.614C231.817 142.726 231.811 142.837 231.8 142.947C231.789 143.056 231.773 143.164 231.752 143.27C231.73 143.376 231.704 143.48 231.672 143.581L231.564 143.88L231.428 144.163L231.267 144.43L231.081 144.68L230.872 144.909L230.643 145.118L230.394 145.304L230.127 145.466L229.844 145.601L229.546 145.71L229.235 145.789L228.913 145.838C228.802 145.849 228.691 145.855 228.58 145.855C228.469 145.855 228.358 145.849 228.248 145.838L227.925 145.789C227.82 145.768 227.716 145.741 227.614 145.71L227.316 145.601L227.033 145.466L226.767 145.304L226.518 145.118L226.288 144.909L226.08 144.68L225.894 144.43L225.732 144.163L225.597 143.88L225.488 143.581L225.409 143.27L225.36 142.947C225.349 142.836 225.344 142.725 225.344 142.614C225.344 142.503 225.349 142.391 225.36 142.281C225.371 142.171 225.387 142.064 225.409 141.958C225.43 141.853 225.457 141.749 225.488 141.646L225.597 141.348L225.732 141.064L225.894 140.797L226.08 140.548L226.288 140.318L226.518 140.11L226.767 139.924L227.033 139.762L227.316 139.626C227.414 139.585 227.513 139.549 227.614 139.518L227.926 139.438C228.031 139.417 228.139 139.4 228.248 139.389C228.358 139.378 228.469 139.373 228.58 139.373Z" fill="white"/>
<path d="M233.726 136.257C233.686 136.257 233.647 136.259 233.608 136.263C233.569 136.267 233.53 136.273 233.492 136.28C233.453 136.288 233.415 136.298 233.378 136.31C233.34 136.322 233.303 136.335 233.267 136.351C233.231 136.366 233.196 136.383 233.161 136.402C233.127 136.421 233.093 136.442 233.061 136.464C233.028 136.487 232.997 136.511 232.967 136.536C232.937 136.562 232.908 136.589 232.881 136.617C232.854 136.645 232.828 136.675 232.803 136.706C232.779 136.737 232.756 136.769 232.735 136.803C232.714 136.836 232.694 136.87 232.676 136.906C232.659 136.941 232.642 136.977 232.628 137.014C232.614 137.051 232.602 137.088 232.591 137.127C232.581 137.165 232.572 137.203 232.565 137.242C232.559 137.281 232.554 137.321 232.551 137.36C232.549 137.388 232.548 137.416 232.548 137.444C232.548 137.484 232.55 137.523 232.554 137.563C232.558 137.602 232.564 137.641 232.572 137.68C232.579 137.719 232.589 137.757 232.601 137.795C232.612 137.833 232.626 137.87 232.641 137.907C232.656 137.943 232.673 137.979 232.692 138.014C232.711 138.048 232.732 138.082 232.754 138.115C232.776 138.147 232.8 138.179 232.825 138.209C232.85 138.239 232.877 138.268 232.905 138.296C232.934 138.324 232.963 138.35 232.994 138.374C233.025 138.399 233.057 138.422 233.09 138.443C233.123 138.465 233.157 138.485 233.192 138.503C233.227 138.52 233.263 138.537 233.299 138.551C233.336 138.565 233.373 138.578 233.411 138.588C233.449 138.599 233.487 138.608 233.526 138.614C233.564 138.621 233.603 138.626 233.642 138.629C233.67 138.631 233.698 138.632 233.726 138.632C233.765 138.632 233.804 138.63 233.843 138.626C233.882 138.622 233.921 138.616 233.96 138.608C233.998 138.6 234.036 138.59 234.074 138.579C234.111 138.567 234.148 138.553 234.184 138.538C234.22 138.523 234.256 138.505 234.29 138.486C234.325 138.467 234.358 138.447 234.391 138.424C234.423 138.402 234.454 138.378 234.484 138.353C234.514 138.327 234.543 138.3 234.57 138.272C234.598 138.243 234.624 138.213 234.648 138.182C234.673 138.151 234.695 138.119 234.717 138.086C234.738 138.053 234.757 138.018 234.775 137.983C234.793 137.948 234.809 137.911 234.823 137.875C234.838 137.838 234.85 137.8 234.86 137.762C234.871 137.724 234.879 137.685 234.886 137.646C234.893 137.607 234.898 137.568 234.9 137.528C234.902 137.5 234.903 137.472 234.903 137.444C234.903 137.405 234.901 137.365 234.897 137.326C234.894 137.286 234.888 137.247 234.88 137.208C234.872 137.17 234.862 137.131 234.851 137.093C234.839 137.056 234.826 137.018 234.81 136.982C234.795 136.945 234.778 136.91 234.759 136.875C234.74 136.84 234.72 136.807 234.698 136.774C234.675 136.741 234.652 136.71 234.626 136.679C234.601 136.649 234.574 136.62 234.546 136.592C234.518 136.565 234.488 136.539 234.458 136.514C234.427 136.49 234.395 136.466 234.362 136.445C234.329 136.424 234.295 136.404 234.26 136.386C234.225 136.368 234.189 136.352 234.152 136.338C234.116 136.323 234.078 136.311 234.041 136.3C234.003 136.289 233.965 136.281 233.926 136.274C233.887 136.267 233.848 136.263 233.809 136.26C233.781 136.258 233.753 136.257 233.726 136.257Z" fill="white"/>
<path d="M227.643 132.932C227.105 132.931 226.625 132.933 226.194 132.939L225.038 132.97C224.696 132.985 224.393 133.005 224.121 133.03C223.986 133.042 223.858 133.056 223.736 133.072C223.621 133.086 223.505 133.103 223.391 133.123C223.281 133.141 223.178 133.161 223.078 133.183C222.979 133.205 222.884 133.229 222.792 133.254C222.702 133.279 222.613 133.306 222.525 133.336C222.439 133.365 222.355 133.396 222.271 133.429C222.105 133.495 221.943 133.569 221.776 133.652C221.647 133.716 221.528 133.781 221.415 133.849C221.303 133.918 221.196 133.99 221.091 134.069C220.983 134.15 220.879 134.237 220.78 134.328C220.675 134.423 220.569 134.528 220.458 134.645C220.319 134.791 220.199 134.927 220.092 135.061C220.038 135.127 219.988 135.193 219.94 135.26C219.894 135.325 219.849 135.392 219.807 135.46C219.764 135.528 219.724 135.597 219.686 135.668C219.648 135.74 219.611 135.813 219.577 135.887C219.506 136.039 219.44 136.202 219.375 136.385C219.326 136.519 219.282 136.656 219.244 136.794C219.205 136.935 219.17 137.083 219.139 137.242C219.108 137.402 219.08 137.574 219.057 137.764C219.031 137.972 219.01 138.181 218.995 138.39C218.978 138.62 218.963 138.873 218.951 139.154L218.924 140.091L218.909 141.233L218.904 142.613L218.917 144.619L218.957 146.14L218.987 146.734L219.025 147.226C219.038 147.358 219.053 147.491 219.071 147.623C219.088 147.74 219.106 147.842 219.125 147.931C219.164 148.111 219.211 148.29 219.264 148.467C219.315 148.636 219.374 148.803 219.44 148.967C219.504 149.128 219.575 149.283 219.652 149.432C219.728 149.581 219.811 149.725 219.901 149.862C219.99 150 220.085 150.132 220.187 150.258C220.289 150.385 220.397 150.506 220.511 150.621C220.626 150.736 220.746 150.846 220.873 150.951C221.002 151.056 221.136 151.156 221.274 151.248C221.403 151.334 221.53 151.413 221.658 151.485C221.786 151.557 221.915 151.623 222.047 151.683C222.18 151.742 222.316 151.796 222.458 151.844C222.6 151.892 222.748 151.935 222.905 151.973C223.061 152.012 223.227 152.045 223.402 152.074C223.577 152.103 223.765 152.128 223.965 152.15C224.165 152.171 224.379 152.189 224.608 152.204C224.838 152.219 225.083 152.231 225.347 152.24C225.754 152.255 226.37 152.264 227.081 152.267L229.382 152.262L231.561 152.232L232.389 152.209L232.929 152.181C233.045 152.171 233.158 152.16 233.267 152.147C233.377 152.134 233.485 152.119 233.59 152.102C233.695 152.085 233.797 152.066 233.898 152.045C233.998 152.024 234.097 152.001 234.196 151.975C234.293 151.95 234.39 151.922 234.485 151.892C234.58 151.862 234.675 151.83 234.768 151.795C234.863 151.76 234.956 151.723 235.049 151.683C235.142 151.644 235.234 151.601 235.328 151.556C235.471 151.487 235.586 151.429 235.688 151.373C235.783 151.321 235.875 151.262 235.962 151.198C236.049 151.134 236.135 151.061 236.234 150.97C236.333 150.878 236.445 150.768 236.584 150.629C236.707 150.506 236.81 150.4 236.899 150.303C236.987 150.207 237.062 150.12 237.128 150.036C237.191 149.956 237.249 149.873 237.303 149.787C237.355 149.704 237.404 149.616 237.453 149.52C237.527 149.375 237.593 149.24 237.652 149.111C237.709 148.986 237.761 148.858 237.809 148.729C237.855 148.601 237.896 148.471 237.93 148.338C237.965 148.203 237.995 148.059 238.021 147.902C238.047 147.744 238.069 147.573 238.088 147.382C238.107 147.191 238.123 146.979 238.137 146.742L238.175 145.944L238.207 144.953L238.231 143.848L238.24 142.693L238.219 140.425L238.191 139.409L238.153 138.537L238.106 137.856C238.089 137.667 238.071 137.518 238.051 137.417C238.03 137.306 238.005 137.195 237.979 137.085C237.953 136.978 237.924 136.871 237.893 136.765C237.862 136.662 237.829 136.56 237.794 136.458C237.759 136.358 237.721 136.26 237.682 136.164C237.643 136.068 237.601 135.974 237.557 135.882C237.513 135.79 237.467 135.701 237.419 135.613C237.37 135.526 237.32 135.441 237.267 135.357C237.214 135.274 237.16 135.193 237.102 135.114C237.046 135.035 236.986 134.959 236.925 134.884C236.863 134.809 236.8 134.736 236.734 134.666C236.668 134.595 236.6 134.527 236.53 134.461C236.459 134.395 236.387 134.331 236.313 134.269C236.238 134.207 236.161 134.147 236.082 134.09C236.003 134.032 235.922 133.976 235.839 133.923C235.755 133.869 235.67 133.818 235.583 133.769C235.494 133.72 235.404 133.673 235.313 133.629C235.162 133.555 235.022 133.49 234.885 133.432C234.75 133.374 234.612 133.323 234.472 133.279C234.332 133.234 234.186 133.196 234.025 133.163C233.863 133.131 233.688 133.103 233.489 133.08C233.29 133.057 233.068 133.038 232.814 133.022C232.561 133.007 232.275 132.994 231.949 132.984L230.841 132.96L229.439 132.943L227.643 132.932L227.643 132.932ZM228.575 134.638L231.165 134.653L232.142 134.672C232.411 134.68 232.616 134.689 232.736 134.699C232.893 134.712 233.042 134.729 233.185 134.748C233.322 134.767 233.458 134.791 233.594 134.819C233.724 134.846 233.848 134.877 233.967 134.912C234.085 134.947 234.199 134.987 234.308 135.03C234.417 135.073 234.521 135.121 234.621 135.173C234.72 135.225 234.817 135.282 234.91 135.344C235.003 135.406 235.093 135.473 235.18 135.544C235.266 135.616 235.351 135.693 235.433 135.775C235.52 135.862 235.6 135.95 235.674 136.041C235.748 136.132 235.816 136.226 235.878 136.325C235.941 136.425 235.998 136.529 236.048 136.636C236.099 136.746 236.145 136.861 236.187 136.984C236.228 137.106 236.265 137.237 236.298 137.376C236.332 137.524 236.36 137.673 236.383 137.823C236.408 137.982 236.429 138.151 236.447 138.332C236.465 138.514 236.48 138.707 236.492 138.914C236.502 139.08 236.511 139.299 236.518 139.558L236.536 140.44L236.55 142.601L236.534 144.759L236.515 145.639L236.489 146.279C236.471 146.578 236.452 146.83 236.429 147.049C236.418 147.159 236.405 147.26 236.392 147.356C236.379 147.445 236.363 147.535 236.346 147.624C236.33 147.705 236.311 147.786 236.29 147.866C236.269 147.942 236.246 148.018 236.221 148.093C236.195 148.168 236.168 148.243 236.138 148.316C236.106 148.394 236.072 148.471 236.037 148.547C236.005 148.615 235.972 148.681 235.938 148.745C235.903 148.809 235.866 148.871 235.828 148.932C235.789 148.993 235.749 149.052 235.707 149.109C235.665 149.166 235.621 149.221 235.575 149.275C235.529 149.328 235.482 149.38 235.432 149.43C235.383 149.48 235.331 149.528 235.278 149.575C235.225 149.621 235.169 149.666 235.112 149.709C235.055 149.752 234.996 149.793 234.935 149.833C234.874 149.873 234.811 149.911 234.745 149.947C234.68 149.983 234.613 150.018 234.544 150.051C234.474 150.084 234.403 150.115 234.33 150.145C234.256 150.175 234.181 150.203 234.104 150.229C233.949 150.282 233.786 150.328 233.614 150.368C233.435 150.409 233.254 150.443 233.072 150.47C233.002 150.48 232.841 150.49 232.611 150.498L231.733 150.523L229.243 150.555L226.637 150.559L225.614 150.548L224.95 150.528L224.46 150.493C224.308 150.48 224.166 150.466 224.034 150.45C223.901 150.434 223.778 150.416 223.661 150.395C223.551 150.376 223.442 150.353 223.333 150.327C223.234 150.303 223.136 150.275 223.04 150.243C222.947 150.212 222.857 150.178 222.771 150.14C222.684 150.103 222.6 150.061 222.516 150.016C222.433 149.971 222.35 149.923 222.267 149.87C222.204 149.829 222.143 149.789 222.084 149.746C222.026 149.703 221.969 149.66 221.915 149.615C221.86 149.57 221.808 149.524 221.757 149.476C221.707 149.429 221.659 149.379 221.612 149.329C221.566 149.278 221.521 149.226 221.479 149.172C221.436 149.117 221.395 149.061 221.356 149.004C221.317 148.946 221.28 148.886 221.245 148.825C221.21 148.764 221.176 148.7 221.144 148.635C221.112 148.568 221.082 148.5 221.053 148.431C221.025 148.361 220.998 148.289 220.973 148.215C220.922 148.065 220.877 147.906 220.838 147.737C220.8 147.568 220.767 147.388 220.739 147.196C220.711 147.004 220.688 146.801 220.67 146.585C220.657 146.426 220.646 146.178 220.638 145.865L220.621 144.753L220.628 141.917L220.676 139.207L220.713 138.253L220.735 137.937C220.742 137.853 220.749 137.79 220.757 137.753C220.783 137.63 220.808 137.515 220.835 137.407C220.86 137.306 220.887 137.205 220.918 137.106C220.947 137.011 220.977 136.923 221.01 136.84C221.041 136.759 221.076 136.679 221.114 136.601C221.152 136.526 221.192 136.453 221.236 136.382C221.28 136.312 221.327 136.244 221.379 136.175C221.43 136.107 221.486 136.04 221.546 135.972C221.606 135.904 221.672 135.835 221.742 135.764C221.825 135.681 221.911 135.601 222 135.526C222.084 135.454 222.171 135.387 222.262 135.324C222.352 135.262 222.443 135.207 222.539 135.156C222.634 135.105 222.734 135.059 222.838 135.018C222.942 134.977 223.052 134.94 223.168 134.906C223.29 134.872 223.413 134.843 223.538 134.819C223.669 134.793 223.808 134.77 223.956 134.751C224.104 134.731 224.262 134.714 224.431 134.7C224.549 134.69 224.751 134.681 225.018 134.673L225.99 134.654L228.576 134.638L228.575 134.638Z" fill="white"/>
</g>
</g>
<g filter="url(#filter2_ddd_1865_55534)">
<path d="M214.572 33.5713C214.572 23.6302 222.631 15.5713 232.572 15.5713C242.513 15.5713 250.572 23.6302 250.572 33.5713C250.572 43.5124 242.513 51.5713 232.572 51.5713C222.631 51.5713 214.572 43.5124 214.572 33.5713Z" fill="white"/>
<path d="M218.51 33.5713C218.51 25.8048 224.806 19.5088 232.572 19.5088C240.339 19.5088 246.635 25.8048 246.635 33.5713C246.635 41.3378 240.339 47.6338 232.572 47.6338C224.806 47.6338 218.51 41.3378 218.51 33.5713Z" fill="white"/>
<path d="M239.595 41.4814H225.54C224.816 41.4814 224.223 40.8883 224.223 40.1633V26.1004C224.223 25.3754 224.816 24.7822 225.54 24.7822H239.595C240.319 24.7822 240.912 25.3754 240.912 26.1004V40.1628C240.912 40.8877 240.319 41.4812 239.595 41.4812V41.4814Z" fill="#4285F4"/>
<path opacity="0.2" d="M239.593 41.3702H225.538C224.814 41.3702 224.221 40.777 224.221 40.052V40.1617C224.221 40.8867 224.814 41.4801 225.538 41.4801H239.593C240.317 41.4801 240.91 40.8869 240.91 40.162V40.0518C240.91 40.7767 240.317 41.3702 239.593 41.3702Z" fill="#1A237E"/>
<g filter="url(#filter3_d_1865_55534)">
<path d="M236.596 24.7822L236.607 24.8688V24.7822H239.604C239.887 24.7827 240.162 24.8736 240.389 25.0416C240.616 25.2096 240.784 25.4459 240.867 25.716L242.24 30.9348C242.24 31.2525 242.178 31.5673 242.057 31.861C241.936 32.1548 241.758 32.4216 241.534 32.6462C241.309 32.8708 241.043 33.0488 240.749 33.1699C240.456 33.2909 240.141 33.3527 239.824 33.3517C239.507 33.3527 239.192 33.2909 238.899 33.1699C238.605 33.0488 238.339 32.8708 238.114 32.6462C237.89 32.4216 237.712 32.1548 237.591 31.861C237.47 31.5673 237.408 31.2525 237.408 30.9348L237.385 30.8429L237.397 30.9348C237.398 31.2525 237.336 31.5673 237.215 31.861C237.094 32.1548 236.916 32.4216 236.691 32.6462C236.467 32.8708 236.2 33.0488 235.907 33.1699C235.613 33.2909 235.299 33.3527 234.981 33.3517C233.709 33.3517 232.658 32.3534 232.572 31.1009C232.486 32.363 231.435 33.3519 230.162 33.3519C229.844 33.353 229.53 33.2912 229.237 33.1701C228.943 33.0491 228.676 32.8711 228.452 32.6465C228.228 32.4219 228.05 32.155 227.928 31.8613C227.819 31.5953 227.758 31.3121 227.748 31.025C227.7 32.323 226.632 33.3517 225.334 33.3517C225.016 33.3528 224.702 33.291 224.408 33.17C224.115 33.0489 223.848 32.871 223.624 32.6463C223.399 32.4217 223.221 32.1549 223.1 31.8611C222.979 31.5674 222.917 31.2526 222.918 30.9348L224.291 25.7163C224.374 25.4461 224.542 25.2098 224.769 25.0417C224.996 24.8737 225.271 24.7828 225.553 24.7823L236.596 24.7822Z" fill="#7BAAF7"/>
</g>
<path d="M240.867 25.716C240.783 25.4459 240.616 25.2096 240.389 25.0416C240.162 24.8736 239.887 24.7827 239.604 24.7822H236.607L237.408 30.9348C237.408 31.2525 237.47 31.5673 237.591 31.861C237.712 32.1548 237.89 32.4216 238.114 32.6462C238.339 32.8708 238.605 33.0488 238.899 33.1699C239.192 33.2909 239.507 33.3527 239.824 33.3517C240.141 33.3527 240.456 33.2909 240.749 33.1699C241.043 33.0488 241.309 32.8708 241.534 32.6462C241.758 32.4216 241.936 32.1548 242.057 31.861C242.178 31.5673 242.24 31.2525 242.239 30.9348L240.867 25.716ZM232.577 24.7825H228.547L227.746 30.935C227.745 31.2528 227.807 31.5676 227.928 31.8613C228.05 32.155 228.227 32.4219 228.452 32.6465C228.676 32.8711 228.943 33.0491 229.236 33.1701C229.53 33.2912 229.844 33.353 230.162 33.3519C231.49 33.3519 232.577 32.2753 232.577 30.935V24.7825Z" fill="#3F51B5"/>
<path opacity="0.1" d="M242.229 30.9346C242.23 31.2523 242.168 31.5671 242.047 31.8609C241.926 32.1546 241.748 32.4214 241.523 32.646C241.299 32.8707 241.032 33.0486 240.739 33.1697C240.445 33.2908 240.131 33.3525 239.813 33.3515C239.496 33.3525 239.182 33.2908 238.888 33.1697C238.595 33.0486 238.328 32.8707 238.104 32.646C237.879 32.4214 237.701 32.1546 237.58 31.8609C237.459 31.5671 237.397 31.2523 237.398 30.9346H242.229ZM227.736 30.9346C227.736 31.2523 227.674 31.5671 227.553 31.8609C227.432 32.1546 227.254 32.4214 227.03 32.646C226.805 32.8707 226.539 33.0486 226.245 33.1697C225.952 33.2908 225.637 33.3525 225.32 33.3515C225.003 33.3526 224.688 33.2908 224.395 33.1698C224.101 33.0487 223.835 32.8708 223.61 32.6461C223.386 32.4215 223.208 32.1547 223.087 31.8609C222.965 31.5672 222.904 31.2524 222.904 30.9346H227.736H227.736ZM232.567 30.9346C232.567 31.2523 232.505 31.5671 232.384 31.8609C232.263 32.1546 232.085 32.4214 231.861 32.646C231.636 32.8707 231.37 33.0486 231.076 33.1697C230.783 33.2908 230.468 33.3525 230.151 33.3515C229.834 33.3525 229.519 33.2908 229.226 33.1697C228.933 33.0486 228.666 32.8707 228.441 32.646C228.217 32.4214 228.039 32.1546 227.918 31.8609C227.797 31.5671 227.735 31.2523 227.736 30.9346H232.567ZM237.398 30.9346C237.399 31.2523 237.337 31.5671 237.216 31.8609C237.095 32.1546 236.917 32.4214 236.692 32.646C236.468 32.8707 236.201 33.0486 235.908 33.1697C235.614 33.2908 235.3 33.3525 234.982 33.3515C234.665 33.3526 234.351 33.2908 234.057 33.1698C233.764 33.0487 233.497 32.8708 233.273 32.6461C233.048 32.4215 232.87 32.1547 232.749 31.8609C232.628 31.5672 232.566 31.2524 232.567 30.9346H237.398Z" fill="#231F20"/>
<path d="M237.277 37.1952V38.1303H238.577C238.473 38.6861 237.987 39.0905 237.277 39.0905C236.489 39.0905 235.85 38.4235 235.85 37.6347C235.85 36.8459 236.489 36.1792 237.277 36.1792C237.632 36.1792 237.95 36.301 238.2 36.5404L238.893 35.8473C238.475 35.4571 237.928 35.2178 237.277 35.2178C235.943 35.2178 234.861 36.3 234.861 37.6347C234.861 38.9697 235.943 40.0516 237.277 40.0516C238.672 40.0516 239.596 39.0707 239.596 37.6895C239.596 37.5182 239.58 37.3534 239.552 37.1952H237.277Z" fill="#EEEEEE"/>
</g>
<g filter="url(#filter4_ddd_1865_55534)">
<path d="M42.918 32.918C42.918 21.32 52.32 11.918 63.918 11.918C75.5159 11.918 84.918 21.32 84.918 32.918C84.918 44.5159 75.5159 53.918 63.918 53.918C52.32 53.918 42.918 44.5159 42.918 32.918Z" fill="white"/>
<path d="M47.1172 32.9182C47.1172 23.6398 54.6388 16.1182 63.9172 16.1182C73.1956 16.1182 80.7172 23.6398 80.7172 32.9182C80.7172 42.1965 73.1956 49.7182 63.9172 49.7182C54.6388 49.7182 47.1172 42.1965 47.1172 32.9182Z" fill="white"/>
<g clip-path="url(#clip3_1865_55534)">
<path d="M66.3514 21.7437C65.5829 21.5009 64.7655 21.3682 63.9167 21.3682C61.4401 21.3682 59.2237 22.4877 57.7461 24.2465L61.5536 27.4497L66.3514 21.7437Z" fill="#1A73E8"/>
<path d="M57.7474 24.2471C56.5702 25.6478 55.8594 27.4555 55.8594 29.4274C55.8594 30.9434 56.1615 32.1712 56.6576 33.2715L61.5549 27.4503L57.7474 24.2471Z" fill="#EA4335"/>
<path d="M63.9176 26.3463C65.6205 26.3463 67.0003 27.7261 67.0003 29.429C67.0003 30.187 66.726 30.8821 66.2719 31.4183C66.2719 31.4183 68.7066 28.5225 71.0697 25.7141C70.0934 23.8365 68.401 22.3921 66.354 21.7441L61.5527 27.4502C62.1186 26.7742 62.9674 26.3463 63.9176 26.3463Z" fill="#4285F4"/>
<path d="M63.9184 32.5098C62.2155 32.5098 60.8358 31.13 60.8358 29.4271C60.8358 28.6743 61.1065 27.9844 61.5536 27.4482L56.6562 33.2713C57.4929 35.1279 58.8849 36.6177 60.3188 38.4952L66.2711 31.4182C65.7069 32.0854 64.8616 32.5098 63.9184 32.5098Z" fill="#FBBC04"/>
<path d="M66.1538 40.4269C68.8418 36.2229 71.9769 34.3139 71.9769 29.4271C71.9769 28.0874 71.6485 26.8247 71.0704 25.7139L60.3203 38.4952C60.7762 39.0925 61.2355 39.7283 61.6844 40.4286C63.3192 42.9542 62.865 44.4684 63.92 44.4684C64.9714 44.4684 64.519 42.9524 66.1538 40.4269Z" fill="#34A853"/>
</g>
</g>
<g filter="url(#filter5_ddd_1865_55534)">
<path d="M22 97C22 85.402 31.402 76 43 76C54.598 76 64 85.402 64 97C64 108.598 54.598 118 43 118C31.402 118 22 108.598 22 97Z" fill="white"/>
<path d="M26.1992 97.0002C26.1992 87.7218 33.7208 80.2002 42.9992 80.2002C52.2776 80.2002 59.7992 87.7218 59.7992 97.0002C59.7992 106.279 52.2776 113.8 42.9992 113.8C33.7208 113.8 26.1992 106.279 26.1992 97.0002Z" fill="#34E0A1"/>
<path d="M42.9988 111.7C51.1174 111.7 57.6988 105.118 57.6988 96.9998C57.6988 88.8812 51.1174 82.2998 42.9988 82.2998C34.8802 82.2998 28.2988 88.8812 28.2988 96.9998C28.2988 105.118 34.8802 111.7 42.9988 111.7Z" fill="#34E0A1"/>
<path d="M52.0779 94.1311L53.8524 92.2006H49.9189C47.8803 90.8132 45.4715 90.0713 43.0056 90.0713C40.5397 90.0713 38.1308 90.8132 36.0923 92.2006H32.1484L33.923 94.1311C33.3976 94.6127 32.9724 95.1932 32.6715 95.8392C32.3707 96.4853 32.2002 97.1844 32.1697 97.8964C32.1393 98.6085 32.2495 99.3195 32.494 99.9889C32.7386 100.658 33.1127 101.273 33.595 101.798C34.0773 102.322 34.6582 102.747 35.3047 103.047C35.9512 103.347 36.6504 103.517 37.3625 103.546C38.0746 103.576 38.7855 103.465 39.4546 103.219C40.1237 102.974 40.7379 102.599 41.262 102.116L43.0006 104.007L44.7379 102.117C45.7391 103.047 47.0555 103.563 48.422 103.561C51.4168 103.561 53.8468 101.134 53.8468 98.1387C53.8477 97.3843 53.6908 96.638 53.3862 95.9478C53.0815 95.2576 52.6359 94.6388 52.0779 94.1311ZM37.5767 101.808C36.8509 101.808 36.1414 101.593 35.5379 101.19C34.9345 100.787 34.4641 100.214 34.1863 99.543C33.9086 98.8725 33.8359 98.1346 33.9775 97.4228C34.1191 96.7109 34.4686 96.057 34.9818 95.5438C35.4951 95.0306 36.1489 94.6811 36.8608 94.5395C37.5726 94.3979 38.3105 94.4706 38.981 94.7483C39.6516 95.0261 40.2247 95.4964 40.6279 96.0999C41.0312 96.7034 41.2464 97.4129 41.2464 98.1387C41.2464 98.6206 41.1515 99.0978 40.967 99.543C40.7826 99.9882 40.5123 100.393 40.1716 100.734C39.8308 101.074 39.4263 101.345 38.981 101.529C38.5358 101.713 38.0586 101.808 37.5767 101.808ZM43.0006 98.033C43.0006 95.618 41.2439 93.546 38.9274 92.6598C40.2179 92.1222 41.6021 91.8454 43.0001 91.8454C44.3981 91.8454 45.7823 92.1222 47.0729 92.6598C44.7567 93.5463 43.0006 95.6184 43.0006 98.033ZM48.422 101.808C47.6962 101.808 46.9867 101.593 46.3832 101.19C45.7797 100.787 45.3094 100.214 45.0316 99.543C44.7539 98.8725 44.6812 98.1346 44.8228 97.4228C44.9644 96.7109 45.3139 96.057 45.8271 95.5438C46.3403 95.0306 46.9942 94.6811 47.706 94.5395C48.4179 94.3979 49.1557 94.4706 49.8263 94.7483C50.4968 95.0261 51.07 95.4964 51.4732 96.0999C51.8764 96.7034 52.0917 97.4129 52.0917 98.1387C52.0917 99.1119 51.705 100.045 51.0168 100.734C50.3286 101.422 49.3952 101.808 48.422 101.808ZM48.422 96.2151C48.0414 96.2151 47.6694 96.3279 47.3531 96.5393C47.0367 96.7507 46.7901 97.0512 46.6445 97.4028C46.4988 97.7544 46.4608 98.1412 46.535 98.5145C46.6093 98.8877 46.7926 99.2305 47.0617 99.4995C47.3308 99.7686 47.6736 99.9518 48.0468 100.026C48.42 100.1 48.8069 100.062 49.1584 99.9164C49.51 99.7707 49.8104 99.5241 50.0218 99.2076C50.2332 98.8912 50.346 98.5192 50.3459 98.1387C50.3459 97.886 50.2961 97.6359 50.1994 97.4025C50.1027 97.1691 49.961 96.957 49.7824 96.7784C49.6037 96.5997 49.3916 96.4581 49.1582 96.3614C48.9248 96.2648 48.6746 96.215 48.422 96.2151ZM39.5006 98.1387C39.5007 98.5192 39.3879 98.8912 39.1765 99.2076C38.9652 99.5241 38.6647 99.7707 38.3132 99.9164C37.9616 100.062 37.5748 100.1 37.2015 100.026C36.8283 99.9518 36.4855 99.7686 36.2164 99.4995C35.9473 99.2305 35.764 98.8877 35.6898 98.5145C35.6155 98.1412 35.6536 97.7544 35.7992 97.4028C35.9448 97.0512 36.1914 96.7507 36.5078 96.5393C36.8242 96.3279 37.1962 96.2151 37.5767 96.2151C38.0869 96.2151 38.5762 96.4177 38.937 96.7785C39.2978 97.1392 39.5005 97.6285 39.5006 98.1387Z" fill="black"/>
</g>
<circle cx="273.184" cy="96.5509" r="4.18367" fill="#FFB114"/>
<circle cx="267.929" cy="89.2958" r="2.92857" fill="#21C445"/>
<circle cx="251.133" cy="86.1327" r="12.1327" fill="#3381FF"/>
<circle cx="262.857" cy="102.224" r="5.85714" fill="#F76E64"/>
<g filter="url(#filter6_ddd_1865_55534)">
<circle cx="150.437" cy="87.437" r="60.437" fill="white"/>
</g>
<mask id="mask0_1865_55534" style="mask-type:alpha" maskUnits="userSpaceOnUse" x="92" y="29" width="117" height="117">
<circle cx="150.438" cy="87.4375" r="58" fill="#C4C4C4"/>
</mask>
<g mask="url(#mask0_1865_55534)">
<mask id="mask1_1865_55534" style="mask-type:alpha" maskUnits="userSpaceOnUse" x="-180" y="-123" width="651" height="291">
<rect x="-179.215" y="-122.136" width="649.6" height="290" fill="#E7EFFF"/>
</mask>
<g mask="url(#mask1_1865_55534)">
</g>
<g clip-path="url(#clip4_1865_55534)">
<path d="M203.254 -130.562H-288.562V256.438H203.254V-130.562Z" fill="#E5EFFF"/>
<path d="M203.253 126.708L200.745 126.731L194.827 128.674L188.404 131.837L183.582 136.197L181.126 139.692L178.849 144.522L177.389 150.344L179.123 153.168L181.171 158.718L185.424 165.123L187.982 167.316L189.415 166.651L188.404 154.983L191.697 144.005L199.854 135.794L203.253 133.628V126.708Z" fill="#99C0FF"/>
<path d="M101.984 148.453L111.052 147.24C111.861 147.132 112.392 146.335 112.179 145.546L110.296 138.565L100.156 141.189L101.983 148.453H101.984Z" fill="#99C0FF"/>
<path d="M125.278 116.252L117.695 126.731L129.754 125.478L136.513 144.523L144.523 128.492L125.278 116.252Z" fill="#99C0FF"/>
<path d="M128.179 67.6623L96.777 72.8467L68.8914 73.418H64.0725L63.3906 -9.28132L66.431 -17.458L86.2954 -14.2556L93.3634 -12.8197L97.7621 -12.7508L128.66 -7.43497L127.034 -1.01052L125.125 6.54014L125.562 14.0076L128.179 67.6623Z" fill="#99C0FF"/>
<path d="M167.207 161.835C166.801 161.835 166.412 161.608 166.221 161.22L164.506 157.706C164.191 157.06 163.715 156.497 163.131 156.079L150.567 147.096C149.844 146.578 148.879 146.556 148.108 147.039C144.885 149.057 141.42 149.877 137.517 149.545C136.914 149.494 136.466 148.964 136.518 148.36C136.569 147.757 137.096 147.315 137.703 147.361C141.113 147.651 144.138 146.937 146.946 145.18C148.472 144.225 150.394 144.276 151.844 145.313L164.407 154.296C165.287 154.924 166.003 155.771 166.478 156.744L168.193 160.258C168.459 160.802 168.233 161.458 167.689 161.724C167.534 161.8 167.37 161.836 167.208 161.836L167.207 161.835Z" fill="white"/>
<path d="M156.021 150.746C155.842 150.746 155.659 150.701 155.49 150.608C154.961 150.315 154.77 149.647 155.063 149.118L160.218 139.83C160.512 139.301 161.179 139.11 161.709 139.403C162.239 139.696 162.429 140.364 162.136 140.894L156.981 150.181C156.781 150.542 156.406 150.746 156.021 150.746Z" fill="white"/>
<path d="M104.882 155.188C102.33 155.188 99.955 153.559 99.1156 151.045L96.1431 142.145L81.6875 145.535C80.083 145.911 78.4347 146.102 76.7887 146.102H49.6943C49.089 146.102 48.5977 145.611 48.5977 145.005C48.5977 144.399 49.0879 143.908 49.6943 143.908H76.7887C78.2662 143.908 79.747 143.738 81.1873 143.399L121.48 133.952C123.45 133.49 125.452 134.713 125.941 136.676L128.078 145.263C128.624 147.459 127.286 149.698 125.091 150.254L106.358 155.002C105.865 155.127 105.37 155.187 104.882 155.187V155.188ZM98.2871 141.643L101.195 150.351C101.834 152.263 103.868 153.373 105.819 152.878L124.553 148.131C125.58 147.87 126.207 146.823 125.951 145.795L123.813 137.208C123.612 136.401 122.792 135.899 121.98 136.088L98.2871 141.644V141.643Z" fill="white"/>
<path d="M85.9645 127.747C84.2462 127.747 82.6275 127.01 81.4947 125.707L81.1007 125.254C80.6115 124.69 79.8782 124.38 79.1296 124.431L55.6874 125.956C54.3226 126.043 53.0126 125.52 52.0877 124.515L48.8897 121.043C48.4793 120.598 48.5078 119.905 48.9532 119.495C49.3987 119.085 50.0915 119.113 50.5019 119.558L53.6999 123.03C54.1738 123.544 54.8458 123.816 55.544 123.769L78.9862 122.243C80.4101 122.155 81.8198 122.739 82.7555 123.817L83.1484 124.27C83.8916 125.126 84.9641 125.6 86.1013 125.553L103.846 124.913C103.859 124.913 103.873 124.913 103.886 124.913C104.474 124.913 104.96 125.379 104.981 125.97C105.003 126.575 104.53 127.083 103.924 127.105L86.179 127.744C86.1067 127.746 86.0345 127.748 85.9623 127.748L85.9645 127.747Z" fill="white"/>
<path d="M106.609 139.663C106.104 139.663 105.65 139.311 105.539 138.798L100.447 115.325L107.287 105.193C107.625 104.692 108.307 104.559 108.809 104.897C109.31 105.235 109.443 105.917 109.104 106.42L102.789 115.775L107.683 138.333C107.811 138.925 107.435 139.508 106.843 139.636C106.766 139.654 106.687 139.662 106.61 139.662L106.609 139.663Z" fill="white"/>
<path d="M82.373 116.89C81.7743 116.89 81.2851 116.409 81.2774 115.808C81.2698 115.203 81.7546 114.706 82.3599 114.698L101.605 114.454C102.212 114.445 102.707 114.931 102.715 115.537C102.722 116.142 102.237 116.639 101.632 116.646L82.3872 116.89H82.373Z" fill="white"/>
<path d="M194.941 140.788C194.59 140.788 194.244 140.62 194.032 140.305L188.284 131.799C187.945 131.298 188.077 130.616 188.578 130.277C189.079 129.938 189.761 130.07 190.101 130.571L195.849 139.078C196.188 139.579 196.056 140.261 195.554 140.6C195.366 140.727 195.153 140.788 194.941 140.788Z" fill="white"/>
<path d="M190.247 131.675C189.809 131.675 189.395 131.412 189.227 130.98L184.28 118.393L182.007 116.4L178.375 102.779C178.046 101.547 178.171 100.247 178.723 99.1174C179.661 97.2021 181.109 95.591 183.15 94.1912C184.449 93.2993 184.999 91.6586 184.484 90.2008C183.688 87.9397 182.084 85.3174 180.228 82.2802C178.058 78.7287 175.597 74.7022 173.684 70.0497L173.642 69.926L170.597 58.9639C170.435 58.3806 170.776 57.7764 171.36 57.6145C171.942 57.4525 172.547 57.794 172.709 58.3773L175.736 69.2759C177.58 73.7424 179.98 77.6693 182.099 81.1365C184.019 84.2787 185.679 86.9941 186.552 89.4719C187.395 91.8633 186.507 94.5469 184.39 95.9993C182.646 97.1966 181.47 98.4946 180.692 100.083C180.372 100.736 180.301 101.493 180.493 102.215L183.954 115.191L186.126 117.095L191.268 130.177C191.489 130.741 191.212 131.377 190.648 131.599C190.517 131.65 190.381 131.675 190.248 131.675H190.247Z" fill="white"/>
<path d="M179.197 79.5518C179.037 79.5518 178.874 79.5156 178.719 79.4412C178.174 79.1764 177.948 78.5208 178.212 77.9768C180.216 73.8518 178.464 66.044 176.328 57.7261C176.177 57.1395 176.53 56.543 177.117 56.3919C177.702 56.242 178.3 56.5944 178.451 57.181C180.779 66.2432 182.516 74.1353 180.185 78.9345C179.995 79.3252 179.605 79.5518 179.199 79.5518H179.197Z" fill="white"/>
<path d="M135.111 82.9093C134.59 82.9093 134.127 82.5349 134.033 82.0041C133.927 81.4088 134.325 80.8385 134.921 80.7335L146.127 78.747C146.722 78.6431 147.292 79.0393 147.397 79.6357C147.503 80.2311 147.105 80.8013 146.508 80.9064L135.303 82.8928C135.239 82.9038 135.174 82.9104 135.111 82.9104V82.9093Z" fill="white"/>
<path d="M154.964 113.868C154.812 113.868 154.659 113.836 154.511 113.769L152.535 112.872H142.784C142.179 112.872 141.688 112.382 141.688 111.775C141.688 111.169 142.178 110.679 142.784 110.679H153.009L155.417 111.773C155.968 112.024 156.212 112.674 155.963 113.224C155.779 113.628 155.38 113.868 154.963 113.868H154.964Z" fill="white"/>
<path d="M128.533 65.8569C127.957 65.8569 127.474 65.407 127.44 64.8248L124.02 6.43549L128.2 -10.0919L139.456 -9.23603L151.629 -50.751C151.8 -51.3321 152.41 -51.6627 152.99 -51.4941C153.571 -51.3234 153.904 -50.7149 153.733 -50.1337L141.059 -6.91469L129.873 -7.76509L126.228 6.64563L129.629 64.6967C129.664 65.3009 129.203 65.8196 128.599 65.8558C128.577 65.8558 128.555 65.8579 128.533 65.8579V65.8569Z" fill="white"/>
<path d="M150.581 60.741C150.114 60.741 149.682 60.4411 149.535 59.9727L130.953 0.854521C130.516 -0.534345 129.356 -1.56642 127.925 -1.83894L127.341 -1.94948C126.746 -2.06221 126.356 -2.6357 126.469 -3.23108C126.581 -3.82537 127.154 -4.2172 127.75 -4.10337L128.335 -3.99283C130.561 -3.56928 132.366 -1.96371 133.044 0.196752L151.627 59.3149C151.809 59.8928 151.488 60.5079 150.91 60.6896C150.801 60.7235 150.69 60.7399 150.581 60.7399V60.741Z" fill="white"/>
<path d="M190.247 50.8754C189.773 50.8754 189.335 50.5656 189.195 50.0874L166.717 -26.529L166.862 -26.8847L192.342 -88.901C192.572 -89.4614 193.213 -89.7284 193.773 -89.4986C194.333 -89.2688 194.6 -88.6285 194.37 -88.0682L169.037 -26.4075L191.299 49.4701C191.47 50.0512 191.137 50.6598 190.556 50.8305C190.453 50.86 190.349 50.8754 190.248 50.8754H190.247Z" fill="white"/>
<path d="M147.973 52.4423C147.507 52.4423 147.075 52.1424 146.927 51.6729C146.747 51.095 147.068 50.4799 147.646 50.2994L182.661 39.334H187.505C188.11 39.334 188.602 39.8243 188.602 40.4306C188.602 41.037 188.112 41.5273 187.505 41.5273H182.996L148.301 52.3931C148.192 52.427 148.081 52.4434 147.972 52.4434L147.973 52.4423Z" fill="white"/>
<path d="M182.827 41.5274C182.346 41.5274 181.905 41.209 181.771 40.723L174.557 14.6651L169.705 10.7929L145.636 17.7164L144.823 23.9373L139.454 24.7866C138.854 24.8818 138.295 24.4736 138.199 23.8749C138.104 23.2763 138.512 22.7159 139.111 22.6207L142.862 22.0275L143.649 16.0069L170.188 8.37305L176.481 13.3944L183.884 40.1375C184.045 40.7208 183.704 41.325 183.12 41.4869C183.022 41.5143 182.924 41.5274 182.827 41.5274Z" fill="white"/>
<path d="M152.976 50.8757C152.519 50.8757 152.094 50.5889 151.938 50.1325L142.805 23.337C142.61 22.7635 142.915 22.1407 143.489 21.9459C144.062 21.75 144.685 22.0564 144.88 22.6299L154.013 49.4255C154.208 49.999 153.903 50.6218 153.329 50.8166C153.212 50.8571 153.093 50.8757 152.976 50.8757Z" fill="white"/>
<path d="M177.387 43.2292C177.195 43.2292 176.999 43.1778 176.822 43.0716L166.955 37.1046L162.232 22.1248C162.051 21.5469 162.371 20.9319 162.948 20.7491C163.527 20.5674 164.141 20.8881 164.324 21.4649L168.797 35.6556L177.957 41.1946C178.474 41.5076 178.641 42.1818 178.328 42.7006C178.122 43.041 177.76 43.2292 177.389 43.2292H177.387Z" fill="white"/>
<path d="M109.001 68.5257C108.441 68.5257 107.964 68.0989 107.911 67.5297L106.296 50.0119C106.24 49.4088 106.684 48.8758 107.286 48.82C107.886 48.7653 108.422 49.2075 108.478 49.8105L110.094 67.3284C110.149 67.9314 109.705 68.4644 109.103 68.5202C109.069 68.5235 109.035 68.5246 109.001 68.5246V68.5257Z" fill="white"/>
<path d="M203.254 125.789C188.715 127.18 179.886 134.53 176.329 148.177C176.176 148.763 176.527 149.361 177.114 149.515C177.207 149.539 177.3 149.551 177.391 149.551C177.878 149.551 178.322 149.224 178.451 148.731C181.774 135.982 189.702 129.319 203.254 127.987V125.79V125.789Z" fill="white"/>
<path d="M191.831 145.881C192.257 144.72 192.87 143.655 193.653 142.716C196.233 139.619 199.452 136.974 203.253 134.811V132.31C198.749 134.703 194.963 137.719 191.969 141.311C191.025 142.444 190.286 143.728 189.774 145.125C184.72 158.907 186.8 170.686 195.956 180.135C196.171 180.357 196.458 180.469 196.743 180.469C197.029 180.469 197.293 180.366 197.506 180.16C197.941 179.739 197.952 179.045 197.53 178.611C188.89 169.693 187.026 158.987 191.831 145.881Z" fill="white"/>
<path d="M203.253 111.25L202.6 111.474C200.779 112.101 198.777 111.197 198.044 109.416L195.057 102.16C194.692 101.272 195.114 100.247 196.001 99.8774L203.139 96.8884L203.252 97.2321V90.1947L191.287 53.7001C191.099 53.1244 190.478 52.8125 189.904 52.9996C189.328 53.1879 189.015 53.8073 189.203 54.383L202.454 94.7991L195.154 97.8559C193.16 98.691 192.206 100.996 193.029 102.997L196.016 110.252C196.939 112.493 199.113 113.867 201.417 113.867C202.027 113.867 202.645 113.768 203.252 113.567V111.251L203.253 111.25Z" fill="white"/>
<path d="M203.254 71.6173L196.542 72.691C195.945 72.7862 195.538 73.3487 195.633 73.9463C195.719 74.4859 196.185 74.8689 196.714 74.8689C196.771 74.8689 196.83 74.8646 196.888 74.8547L203.253 73.8358V71.6162L203.254 71.6173Z" fill="white"/>
<path d="M203.254 26.7979L184.899 31.3935C184.311 31.5401 183.954 32.1355 184.102 32.7232C184.226 33.2212 184.673 33.5539 185.164 33.5539C185.253 33.5539 185.342 33.543 185.431 33.5211L203.255 29.059V26.7989L203.254 26.7979Z" fill="white"/>
<path d="M203.254 52.7777V44.8713L202.883 44.9621C154.437 57.0701 104.774 68.9712 76.4816 69.9366C52.7636 69.6859 28.598 64.3986 2.60574 53.7714C-1.93079 51.9163 -6.24182 49.5654 -10.2092 46.7822C-76.8562 0.022644 -159.581 -58.0164 -246.825 -130.562H-258.704L-255.323 -127.655L-255.279 -127.617C-204.665 -85.3614 -155.541 -47.9967 -110.12 -14.8828C-120.558 -1.92439 -132.077 24.5505 -143.059 51.5759C-144.784 55.8203 -147.548 59.4506 -151.055 62.0762C-167.19 74.1568 -202.823 83.7409 -247.934 95.8752C-260.899 99.361 -274.304 102.967 -288.562 106.973V114.918L-287.022 114.509L-286.966 114.494C-272.568 110.446 -259.032 106.806 -245.942 103.284C-198.24 90.4532 -163.775 81.1821 -146.457 68.2172C-141.834 64.7554 -138.202 60 -135.951 54.4631C-125.566 28.9054 -113.768 1.61398 -103.912 -10.3659C-71.9738 12.8212 -41.9463 33.8895 -14.6177 53.0622C-13.8231 53.6193 -13.0165 54.16 -12.1989 54.6864C-2.39807 61.7358 3.70023 66.9673 7.56693 71.6406C11.1327 75.9517 11.1644 82.2328 7.64246 86.5778C2.13513 93.3722 -5.73291 101.754 -14.0617 110.626C-20.3614 117.337 -26.8614 124.262 -33.3625 131.545C-41.1167 129.174 -48.2799 127.434 -55.106 126.256C-66.4162 124.307 -78.0875 125.463 -88.8591 129.602C-109.744 137.628 -130.455 149.098 -150.419 163.693C-155.226 167.208 -160.494 170.323 -166.075 172.955C-178.376 178.753 -195.135 185.014 -211.247 190.93C-214.374 192.078 -217.417 193.38 -220.292 194.801C-243.521 206.276 -266.491 221.093 -288.562 238.838V249.183L-286.986 247.667C-285.943 246.662 -284.879 245.722 -283.822 244.871C-262.165 227.451 -239.647 212.92 -216.893 201.682C-214.262 200.383 -211.472 199.189 -208.6 198.135C-192.327 192.159 -175.386 185.83 -162.802 179.897C-156.779 177.058 -151.089 173.69 -145.888 169.889C-126.471 155.693 -106.356 144.549 -86.1044 136.765C-76.6242 133.122 -66.3549 132.103 -56.4085 133.819C-48.0972 135.253 -39.2211 137.574 -29.2714 140.918C-23.9403 142.709 -18.4012 143.703 -12.8075 143.874L29.2853 145.154C30.4794 145.191 31.6559 145.069 32.792 144.804C33.6281 145.978 34.0988 147.252 34.2191 148.664L35.5774 163.436C35.7306 165.095 35.7766 166.759 35.7186 168.417C35.5336 169.67 35.4231 170.928 35.4034 172.194C35.2775 173.146 35.1166 174.095 34.9207 175.038L33.8591 180.146C33.0711 183.936 31.1404 187.409 28.274 190.19C23.5613 194.763 19.1091 199.888 15.041 205.426C11.1524 210.719 8.42172 216.585 6.9245 222.862C4.48932 233.069 2.97571 243.982 2.29822 256.222V256.434H9.97253C10.6303 244.742 12.075 234.339 14.3887 224.642C15.6473 219.367 17.9479 214.43 21.2258 209.969C25.041 204.776 29.2109 199.974 33.6183 195.698C37.5901 191.845 40.2726 187.007 41.3725 181.709L42.4341 176.601C42.942 174.16 43.2506 171.688 43.3655 169.207C44.0452 165.023 45.8171 160.536 47.6711 155.843C49.744 150.595 51.8881 145.168 53.0438 139.136C53.625 136.103 53.6906 133.127 53.2419 130.294C52.791 127.451 51.9077 124.92 50.543 122.554C56.2013 112.335 62.014 101.372 66.9325 92.0118C67.2871 91.3365 67.5968 90.659 67.854 89.9969C69.6019 85.4724 69.7212 81.1996 68.2524 77.3329C68.4844 77.346 68.7165 77.3581 68.9496 77.3701C89.1412 95.4166 114.736 112.213 137.355 127.056C149.851 135.256 161.652 143 171.785 150.4C173.79 151.864 175.253 153.887 176.016 156.25C180.404 169.844 188.527 181.519 200.159 190.951L203.257 193.672V183.539C193.61 175.253 187.074 165.534 183.317 153.892C182.054 149.979 179.63 146.627 176.309 144.202C167.577 137.825 157.696 131.243 147.215 124.35L133.713 69.1256C155.425 64.5814 179.467 58.714 203.257 52.7744L203.254 52.7777ZM89.9741 76.5865C89.058 78.4296 88.1781 80.5802 87.5521 82.9354C85.234 81.1066 82.9575 79.2635 80.7347 77.4084C83.6426 77.2245 86.729 76.9476 89.9752 76.5865H89.9741ZM16.7954 72.5819C16.0533 70.5024 14.949 68.5247 13.4803 66.7495C13.2187 66.4332 12.9473 66.1136 12.6682 65.794C15.586 66.8141 18.4853 67.7673 21.3669 68.6539C19.8358 69.837 18.3134 71.1448 16.7943 72.5819H16.7954ZM-19.696 127.914L-17.6811 135.779C-20.2728 135.428 -22.8371 134.872 -25.3532 134.112C-23.4653 132.021 -21.5774 129.955 -19.696 127.915V127.914ZM45.6595 131.496C45.9692 133.45 45.9167 135.535 45.5041 137.693C44.7391 141.689 43.4159 145.551 41.9821 149.31L41.8607 147.989C41.6451 145.461 40.8527 143.129 39.4966 141.017C40.2244 140.269 40.8713 139.43 41.4185 138.512C42.7767 136.234 44.1853 133.815 45.6256 131.295C45.6365 131.362 45.6486 131.429 45.6595 131.496ZM60.6919 87.2312C60.542 87.6186 60.3559 88.0268 60.1359 88.4427C52.5262 102.925 42.7712 121.257 34.8266 134.583C33.7201 136.439 31.6888 137.546 29.5163 137.484L-9.62915 136.292L-13.4871 121.233C-11.8028 119.431 -10.1282 117.647 -8.46686 115.879C-0.0395508 106.901 7.92044 98.4209 13.6039 91.4098C15.6725 88.8575 16.9979 85.9014 17.5823 82.8304C22.1199 77.6722 26.5492 73.916 31.0616 71.402C40.4269 73.8263 49.6269 75.5336 58.7306 76.5372C61.736 79.6302 62.3358 82.9726 60.6908 87.2312H60.6919ZM137.802 118.174C123.599 108.844 108.429 98.7777 94.3771 88.1932C94.8083 83.3272 97.3693 78.4131 99.7115 75.3246C107.86 74.1382 116.761 72.549 126.186 70.6677L137.802 118.174Z" fill="white"/>
</g>
</g>
<path d="M123.307 104.201C123.307 104.96 123.568 105.605 124.09 106.136C124.613 106.667 125.247 106.932 125.994 106.932H157.361C158.108 106.932 158.742 106.667 159.265 106.136C159.787 105.605 160.048 104.96 160.048 104.201V83.3125H123.307V104.201Z" fill="#FFE4AD"/>
<path opacity="0.4" d="M141.679 106.933L123.477 83.3135H160.05V104.202C160.05 104.961 159.789 105.606 159.266 106.137C158.744 106.668 158.109 106.933 157.363 106.933H141.679Z" fill="#FFD37A"/>
<path d="M131.179 83.2106V82.7871H120.682V83.0291C120.682 84.4107 121.193 85.5905 122.217 86.5687C123.241 87.5468 124.479 88.0359 125.93 88.0359C127.351 88.0359 128.568 87.567 129.581 86.6292C130.605 85.6914 131.137 84.5518 131.179 83.2106Z" fill="#F44034"/>
<path d="M120.682 82.7878L124.212 70.7848C124.453 69.9658 125.205 69.4033 126.058 69.4033H133.279L131.179 82.7878H120.682Z" fill="#F76E64"/>
<path d="M141.677 83.2106V82.7871H131.18V83.0291C131.18 84.4107 131.692 85.5905 132.715 86.5687C133.739 87.5468 134.977 88.0359 136.429 88.0359C137.849 88.0359 139.066 87.567 140.079 86.6292C141.103 85.6914 141.636 84.5518 141.677 83.2106Z" fill="#F5F7F9"/>
<path d="M131.18 82.7878L133.279 69.4033H141.677V82.7878H131.18Z" fill="white"/>
<path d="M152.175 83.2106V82.7871H141.678V83.0291C141.678 84.4107 142.19 85.5905 143.213 86.5687C144.237 87.5468 145.475 88.0359 146.927 88.0359C148.347 88.0359 149.564 87.567 150.577 86.6292C151.601 85.6914 152.134 84.5518 152.175 83.2106Z" fill="#F44034"/>
<path d="M152.174 82.7878L150.074 69.4033H141.676V82.7878H152.174Z" fill="#F76E64"/>
<path d="M152.174 83.2106V82.7871H162.672V83.0291C162.672 84.4107 162.16 85.5905 161.136 86.5687C160.113 87.5468 158.875 88.0359 157.423 88.0359C156.002 88.0359 154.786 87.567 153.772 86.6292C152.749 85.6914 152.216 84.5518 152.174 83.2106Z" fill="#F5F7F9"/>
<path d="M162.672 82.7878L159.142 70.7848C158.901 69.9658 158.149 69.4033 157.295 69.4033H150.075L152.174 82.7878H162.672Z" fill="white"/>
<rect x="128.555" y="90.1367" width="26.2441" height="11.5474" rx="0.422901" fill="white"/>
<path d="M134.328 90.6611H139.577L147.975 101.159H142.726L134.328 90.6611Z" fill="#E5EFFF"/>
<path d="M142.201 90.6611H154.324C154.441 90.6611 154.536 90.7558 154.536 90.8726V100.947C154.536 101.064 154.441 101.159 154.324 101.159H150.803C150.674 101.159 150.553 101.1 150.472 101L142.201 90.6611Z" fill="#E5EFFF"/>
<path d="M180.266 82.0435C180.266 74.8163 174.405 68.958 167.175 68.958C159.945 68.958 154.083 74.8163 154.083 82.0435C154.083 83.6805 154.73 85.795 155.69 88.0523C156.656 90.3244 157.965 92.7977 159.341 95.1713C162.093 99.9195 165.134 104.305 166.296 105.947C166.729 106.557 167.621 106.557 168.053 105.947C169.216 104.305 172.256 99.9195 175.008 95.1713C176.384 92.7977 177.693 90.3244 178.659 88.0523C179.619 85.795 180.266 83.6805 180.266 82.0435Z" fill="#3381FF" stroke="white" stroke-width="0.959091"/>
<circle cx="167.175" cy="80.5253" r="5.70893" fill="#B8150A" stroke="white" stroke-width="0.959091"/>
<path fill-rule="evenodd" clip-rule="evenodd" d="M167.175 90.4516C171.815 90.4516 175.578 86.6894 175.578 82.0485C175.578 77.4077 171.815 73.6455 167.175 73.6455C162.534 73.6455 158.771 77.4077 158.771 82.0485C158.771 86.6894 162.534 90.4516 167.175 90.4516Z" fill="#0062FF"/>
<path fill-rule="evenodd" clip-rule="evenodd" d="M163.113 83.5097C162.767 83.1657 162.767 82.6496 163.113 82.3056C163.459 81.9616 163.977 81.9616 164.323 82.3056L165.446 83.4237L170.027 78.8654C170.373 78.5214 170.892 78.5214 171.237 78.8654C171.583 79.2095 171.583 79.7255 171.237 80.0695L166.051 85.2298C165.706 85.5738 165.187 85.5738 164.841 85.2298L163.113 83.5097Z" fill="white"/>
</g>
<defs>
<filter id="filter0_ddd_1865_55534" x="32.864" y="110.744" width="87.0493" height="87.0493" filterUnits="userSpaceOnUse" color-interpolation-filters="sRGB">
<feFlood flood-opacity="0" result="BackgroundImageFix"/>
<feColorMatrix in="SourceAlpha" type="matrix" values="0 0 0 0 0 0 0 0 0 0 0 0 0 0 0 0 0 0 127 0" result="hardAlpha"/>
<feOffset dy="7.88116"/>
<feGaussianBlur stdDeviation="15.7623"/>
<feColorMatrix type="matrix" values="0 0 0 0 0.0156863 0 0 0 0 0.0196078 0 0 0 0 0.0235294 0 0 0 0.03 0"/>
<feBlend mode="normal" in2="BackgroundImageFix" result="effect1_dropShadow_1865_55534"/>
<feColorMatrix in="SourceAlpha" type="matrix" values="0 0 0 0 0 0 0 0 0 0 0 0 0 0 0 0 0 0 127 0" result="hardAlpha"/>
<feOffset dy="5.91087"/>
<feGaussianBlur stdDeviation="4.92572"/>
<feColorMatrix type="matrix" values="0 0 0 0 0.0156863 0 0 0 0 0.0196078 0 0 0 0 0.0235294 0 0 0 0.05 0"/>
<feBlend mode="normal" in2="effect1_dropShadow_1865_55534" result="effect2_dropShadow_1865_55534"/>
<feColorMatrix in="SourceAlpha" type="matrix" values="0 0 0 0 0 0 0 0 0 0 0 0 0 0 0 0 0 0 127 0" result="hardAlpha"/>
<feOffset dy="2.95543"/>
<feGaussianBlur stdDeviation="1.97029"/>
<feColorMatrix type="matrix" values="0 0 0 0 0.0156863 0 0 0 0 0.0196078 0 0 0 0 0.0235294 0 0 0 0.08 0"/>
<feBlend mode="normal" in2="effect2_dropShadow_1865_55534" result="effect3_dropShadow_1865_55534"/>
<feBlend mode="normal" in="SourceGraphic" in2="effect3_dropShadow_1865_55534" result="shape"/>
</filter>
<filter id="filter1_ddd_1865_55534" x="163.285" y="89.1061" width="130.574" height="130.574" filterUnits="userSpaceOnUse" color-interpolation-filters="sRGB">
<feFlood flood-opacity="0" result="BackgroundImageFix"/>
<feColorMatrix in="SourceAlpha" type="matrix" values="0 0 0 0 0 0 0 0 0 0 0 0 0 0 0 0 0 0 127 0" result="hardAlpha"/>
<feOffset dy="11.8217"/>
<feGaussianBlur stdDeviation="23.6435"/>
<feColorMatrix type="matrix" values="0 0 0 0 0.0156863 0 0 0 0 0.0196078 0 0 0 0 0.0235294 0 0 0 0.03 0"/>
<feBlend mode="normal" in2="BackgroundImageFix" result="effect1_dropShadow_1865_55534"/>
<feColorMatrix in="SourceAlpha" type="matrix" values="0 0 0 0 0 0 0 0 0 0 0 0 0 0 0 0 0 0 127 0" result="hardAlpha"/>
<feOffset dy="8.8663"/>
<feGaussianBlur stdDeviation="7.38859"/>
<feColorMatrix type="matrix" values="0 0 0 0 0.0156863 0 0 0 0 0.0196078 0 0 0 0 0.0235294 0 0 0 0.05 0"/>
<feBlend mode="normal" in2="effect1_dropShadow_1865_55534" result="effect2_dropShadow_1865_55534"/>
<feColorMatrix in="SourceAlpha" type="matrix" values="0 0 0 0 0 0 0 0 0 0 0 0 0 0 0 0 0 0 127 0" result="hardAlpha"/>
<feOffset dy="4.43315"/>
<feGaussianBlur stdDeviation="2.95543"/>
<feColorMatrix type="matrix" values="0 0 0 0 0.0156863 0 0 0 0 0.0196078 0 0 0 0 0.0235294 0 0 0 0.08 0"/>
<feBlend mode="normal" in2="effect2_dropShadow_1865_55534" result="effect3_dropShadow_1865_55534"/>
<feBlend mode="normal" in="SourceGraphic" in2="effect3_dropShadow_1865_55534" result="shape"/>
</filter>
<filter id="filter2_ddd_1865_55534" x="167.285" y="-19.8939" width="130.574" height="130.574" filterUnits="userSpaceOnUse" color-interpolation-filters="sRGB">
<feFlood flood-opacity="0" result="BackgroundImageFix"/>
<feColorMatrix in="SourceAlpha" type="matrix" values="0 0 0 0 0 0 0 0 0 0 0 0 0 0 0 0 0 0 127 0" result="hardAlpha"/>
<feOffset dy="11.8217"/>
<feGaussianBlur stdDeviation="23.6435"/>
<feColorMatrix type="matrix" values="0 0 0 0 0.0156863 0 0 0 0 0.0196078 0 0 0 0 0.0235294 0 0 0 0.03 0"/>
<feBlend mode="normal" in2="BackgroundImageFix" result="effect1_dropShadow_1865_55534"/>
<feColorMatrix in="SourceAlpha" type="matrix" values="0 0 0 0 0 0 0 0 0 0 0 0 0 0 0 0 0 0 127 0" result="hardAlpha"/>
<feOffset dy="8.8663"/>
<feGaussianBlur stdDeviation="7.38859"/>
<feColorMatrix type="matrix" values="0 0 0 0 0.0156863 0 0 0 0 0.0196078 0 0 0 0 0.0235294 0 0 0 0.05 0"/>
<feBlend mode="normal" in2="effect1_dropShadow_1865_55534" result="effect2_dropShadow_1865_55534"/>
<feColorMatrix in="SourceAlpha" type="matrix" values="0 0 0 0 0 0 0 0 0 0 0 0 0 0 0 0 0 0 127 0" result="hardAlpha"/>
<feOffset dy="4.43315"/>
<feGaussianBlur stdDeviation="2.95543"/>
<feColorMatrix type="matrix" values="0 0 0 0 0.0156863 0 0 0 0 0.0196078 0 0 0 0 0.0235294 0 0 0 0.08 0"/>
<feBlend mode="normal" in2="effect2_dropShadow_1865_55534" result="effect3_dropShadow_1865_55534"/>
<feBlend mode="normal" in="SourceGraphic" in2="effect3_dropShadow_1865_55534" result="shape"/>
</filter>
<filter id="filter3_d_1865_55534" x="222.473" y="24.7822" width="21.1019" height="10.5714" filterUnits="userSpaceOnUse" color-interpolation-filters="sRGB">
<feFlood flood-opacity="0" result="BackgroundImageFix"/>
<feColorMatrix in="SourceAlpha" type="matrix" values="0 0 0 0 0 0 0 0 0 0 0 0 0 0 0 0 0 0 127 0" result="hardAlpha"/>
<feOffset dx="0.444912" dy="1.11228"/>
<feGaussianBlur stdDeviation="0.444912"/>
<feComposite in2="hardAlpha" operator="out"/>
<feColorMatrix type="matrix" values="0 0 0 0 0.0980392 0 0 0 0 0.133333 0 0 0 0 0.490196 0 0 0 0.25 0"/>
<feBlend mode="normal" in2="BackgroundImageFix" result="effect1_dropShadow_1865_55534"/>
<feBlend mode="normal" in="SourceGraphic" in2="effect1_dropShadow_1865_55534" result="shape"/>
</filter>
<filter id="filter4_ddd_1865_55534" x="-12.2501" y="-29.4581" width="152.336" height="152.336" filterUnits="userSpaceOnUse" color-interpolation-filters="sRGB">
<feFlood flood-opacity="0" result="BackgroundImageFix"/>
<feColorMatrix in="SourceAlpha" type="matrix" values="0 0 0 0 0 0 0 0 0 0 0 0 0 0 0 0 0 0 127 0" result="hardAlpha"/>
<feOffset dy="13.792"/>
<feGaussianBlur stdDeviation="27.5841"/>
<feColorMatrix type="matrix" values="0 0 0 0 0.0156863 0 0 0 0 0.0196078 0 0 0 0 0.0235294 0 0 0 0.03 0"/>
<feBlend mode="normal" in2="BackgroundImageFix" result="effect1_dropShadow_1865_55534"/>
<feColorMatrix in="SourceAlpha" type="matrix" values="0 0 0 0 0 0 0 0 0 0 0 0 0 0 0 0 0 0 127 0" result="hardAlpha"/>
<feOffset dy="10.344"/>
<feGaussianBlur stdDeviation="8.62002"/>
<feColorMatrix type="matrix" values="0 0 0 0 0.0156863 0 0 0 0 0.0196078 0 0 0 0 0.0235294 0 0 0 0.05 0"/>
<feBlend mode="normal" in2="effect1_dropShadow_1865_55534" result="effect2_dropShadow_1865_55534"/>
<feColorMatrix in="SourceAlpha" type="matrix" values="0 0 0 0 0 0 0 0 0 0 0 0 0 0 0 0 0 0 127 0" result="hardAlpha"/>
<feOffset dy="5.17201"/>
<feGaussianBlur stdDeviation="3.44801"/>
<feColorMatrix type="matrix" values="0 0 0 0 0.0156863 0 0 0 0 0.0196078 0 0 0 0 0.0235294 0 0 0 0.08 0"/>
<feBlend mode="normal" in2="effect2_dropShadow_1865_55534" result="effect3_dropShadow_1865_55534"/>
<feBlend mode="normal" in="SourceGraphic" in2="effect3_dropShadow_1865_55534" result="shape"/>
</filter>
<filter id="filter5_ddd_1865_55534" x="-33.1681" y="34.6239" width="152.336" height="152.336" filterUnits="userSpaceOnUse" color-interpolation-filters="sRGB">
<feFlood flood-opacity="0" result="BackgroundImageFix"/>
<feColorMatrix in="SourceAlpha" type="matrix" values="0 0 0 0 0 0 0 0 0 0 0 0 0 0 0 0 0 0 127 0" result="hardAlpha"/>
<feOffset dy="13.792"/>
<feGaussianBlur stdDeviation="27.5841"/>
<feColorMatrix type="matrix" values="0 0 0 0 0.0156863 0 0 0 0 0.0196078 0 0 0 0 0.0235294 0 0 0 0.03 0"/>
<feBlend mode="normal" in2="BackgroundImageFix" result="effect1_dropShadow_1865_55534"/>
<feColorMatrix in="SourceAlpha" type="matrix" values="0 0 0 0 0 0 0 0 0 0 0 0 0 0 0 0 0 0 127 0" result="hardAlpha"/>
<feOffset dy="10.344"/>
<feGaussianBlur stdDeviation="8.62002"/>
<feColorMatrix type="matrix" values="0 0 0 0 0.0156863 0 0 0 0 0.0196078 0 0 0 0 0.0235294 0 0 0 0.05 0"/>
<feBlend mode="normal" in2="effect1_dropShadow_1865_55534" result="effect2_dropShadow_1865_55534"/>
<feColorMatrix in="SourceAlpha" type="matrix" values="0 0 0 0 0 0 0 0 0 0 0 0 0 0 0 0 0 0 127 0" result="hardAlpha"/>
<feOffset dy="5.17201"/>
<feGaussianBlur stdDeviation="3.44801"/>
<feColorMatrix type="matrix" values="0 0 0 0 0.0156863 0 0 0 0 0.0196078 0 0 0 0 0.0235294 0 0 0 0.08 0"/>
<feBlend mode="normal" in2="effect2_dropShadow_1865_55534" result="effect3_dropShadow_1865_55534"/>
<feBlend mode="normal" in="SourceGraphic" in2="effect3_dropShadow_1865_55534" result="shape"/>
</filter>
<filter id="filter6_ddd_1865_55534" x="24.3237" y="-22.2572" width="252.226" height="252.227" filterUnits="userSpaceOnUse" color-interpolation-filters="sRGB">
<feFlood flood-opacity="0" result="BackgroundImageFix"/>
<feColorMatrix in="SourceAlpha" type="matrix" values="0 0 0 0 0 0 0 0 0 0 0 0 0 0 0 0 0 0 127 0" result="hardAlpha"/>
<feOffset dy="16.4191"/>
<feGaussianBlur stdDeviation="32.8382"/>
<feColorMatrix type="matrix" values="0 0 0 0 0.0156863 0 0 0 0 0.0196078 0 0 0 0 0.0235294 0 0 0 0.03 0"/>
<feBlend mode="normal" in2="BackgroundImageFix" result="effect1_dropShadow_1865_55534"/>
<feColorMatrix in="SourceAlpha" type="matrix" values="0 0 0 0 0 0 0 0 0 0 0 0 0 0 0 0 0 0 127 0" result="hardAlpha"/>
<feOffset dy="12.3143"/>
<feGaussianBlur stdDeviation="10.2619"/>
<feColorMatrix type="matrix" values="0 0 0 0 0.0156863 0 0 0 0 0.0196078 0 0 0 0 0.0235294 0 0 0 0.05 0"/>
<feBlend mode="normal" in2="effect1_dropShadow_1865_55534" result="effect2_dropShadow_1865_55534"/>
<feColorMatrix in="SourceAlpha" type="matrix" values="0 0 0 0 0 0 0 0 0 0 0 0 0 0 0 0 0 0 127 0" result="hardAlpha"/>
<feOffset dy="6.15716"/>
<feGaussianBlur stdDeviation="4.10477"/>
<feColorMatrix type="matrix" values="0 0 0 0 0.0156863 0 0 0 0 0.0196078 0 0 0 0 0.0235294 0 0 0 0.08 0"/>
<feBlend mode="normal" in2="effect2_dropShadow_1865_55534" result="effect3_dropShadow_1865_55534"/>
<feBlend mode="normal" in="SourceGraphic" in2="effect3_dropShadow_1865_55534" result="shape"/>
</filter>
<radialGradient id="paint0_radial_1865_55534" cx="0" cy="0" r="1" gradientUnits="userSpaceOnUse" gradientTransform="translate(218.991 158.684) rotate(-9.54784) scale(59.4449 36.144)">
<stop stop-color="#FED576"/>
<stop offset="0.263" stop-color="#F47133"/>
<stop offset="0.609" stop-color="#BC3081"/>
<stop offset="1" stop-color="#4C63D2"/>
</radialGradient>
<clipPath id="clip0_1865_55534">
<rect width="300" height="175" fill="white"/>
</clipPath>
<clipPath id="clip1_1865_55534">
<path d="M66.8555 146.388C66.8555 141.123 71.1232 136.855 76.3877 136.855C81.6523 136.855 85.92 141.123 85.92 146.388C85.92 151.652 81.6523 155.92 76.3877 155.92C71.1232 155.92 66.8555 151.652 66.8555 146.388Z" fill="white"/>
</clipPath>
<clipPath id="clip2_1865_55534">
<rect width="19.3361" height="19.3355" fill="white" transform="translate(218.904 132.903)"/>
</clipPath>
<clipPath id="clip3_1865_55534">
<rect width="23.1" height="23.1" fill="white" transform="translate(52.3672 21.3682)"/>
</clipPath>
<clipPath id="clip4_1865_55534">
<rect width="491.816" height="387" fill="white" transform="translate(-288.562 -130.562)"/>
</clipPath>
</defs>
</svg>
