<svg width="284" height="284" viewBox="0 0 284 284" fill="none" xmlns="http://www.w3.org/2000/svg">
<path d="M24 142C24 76.8304 76.8304 24 142 24C207.17 24 260 76.8304 260 142C260 207.17 207.17 260 142 260C76.8304 260 24 207.17 24 142Z" fill="#F5F7F9"/>
<path fill-rule="evenodd" clip-rule="evenodd" d="M104.294 124L91 124L99.5 152H99.6606C82.2673 164.941 71 185.655 71 209V224H213V209C213 185.655 201.733 164.941 184.339 152H184.5L193 124L173.706 124C162.434 125.972 150.837 127.001 139 127.001C127.163 127.001 115.566 125.972 104.294 124Z" fill="#F5F7F9"/>
<path d="M104 108.001C104 99.1642 111.163 92.0007 120 92.0007H164C172.837 92.0007 180 99.1642 180 108.001C180 116.837 172.837 124.001 164 124.001H120C111.163 124.001 104 116.837 104 108.001Z" fill="#8698B6"/>
<circle cx="120" cy="108" r="12" fill="#F5F7F9"/>
<circle cx="164" cy="108" r="12" fill="#F5F7F9"/>
<path d="M106 81.4204C106 80.6362 106.636 80.0004 107.42 80.0004H176.58C177.364 80.0004 178 80.6362 178 81.4204V86.5804C178 87.3646 177.364 88.0004 176.58 88.0004H107.42C106.636 88.0004 106 87.3646 106 86.5804V81.4204Z" fill="#8698B6"/>
<path fill-rule="evenodd" clip-rule="evenodd" d="M110 80.0004H173.511C167.046 69.2174 155.243 62.0004 141.756 62.0004C128.268 62.0004 116.466 69.2174 110 80.0004Z" fill="#8698B6"/>
<path fill-rule="evenodd" clip-rule="evenodd" d="M99.5 152L93.12 130.984C108.763 134.913 125.138 137 142 137C158.862 137 175.237 134.913 190.88 130.984L184.5 152H184.339C192.555 158.113 199.404 165.96 204.345 175H79.6551C84.5956 165.96 91.445 158.113 99.6613 152H99.5ZM74.4744 187C73.6266 189.604 72.9252 192.274 72.38 195H211.62C211.075 192.274 210.373 189.604 209.526 187H74.4744ZM71 209.001C71 208.332 71.0093 207.665 71.0276 207H212.972C212.991 207.665 213 208.332 213 209.001V215H71V209.001Z" fill="#8698B6"/>
<rect x="195" y="24" width="56" height="56" rx="28" fill="white"/>
<path d="M217 42C217 38.6863 219.686 36 223 36C226.314 36 229 38.6863 229 42V48H217V42Z" stroke="#FFC247" stroke-width="4"/>
<rect x="209" y="46" width="28" height="24" rx="4" fill="#FFC247"/>
<path fill-rule="evenodd" clip-rule="evenodd" d="M225 59.6319C226.196 58.9402 227 57.6476 227 56.167C227 53.9579 225.209 52.167 223 52.167C220.791 52.167 219 53.9579 219 56.167C219 57.6476 219.804 58.9402 221 59.6319V62.167C221 63.2716 221.895 64.167 223 64.167C224.105 64.167 225 63.2716 225 62.167V59.6319Z" fill="#DB7D0A"/>
<rect x="195" y="24" width="56" height="56" rx="28" stroke="#FFC247" stroke-width="4"/>
</svg>
