<svg width="300" height="175" viewBox="0 0 300 175" fill="none" xmlns="http://www.w3.org/2000/svg">
<g clip-path="url(#clip0_1865_55046)">
<rect width="300" height="175" fill="white"/>
<g filter="url(#filter0_ddd_1865_55046)">
<mask id="path-1-inside-1_1865_55046" fill="white">
<path d="M198 83C198 80.7909 199.791 79 202 79H276C278.209 79 280 80.7909 280 83V154.041C280 156.251 278.209 158.041 276 158.041H202C199.791 158.041 198 156.251 198 154.041V83Z"/>
</mask>
<path d="M198 83C198 80.7909 199.791 79 202 79H276C278.209 79 280 80.7909 280 83V154.041C280 156.251 278.209 158.041 276 158.041H202C199.791 158.041 198 156.251 198 154.041V83Z" fill="white"/>
<path d="M198 83C198 80.2473 200.231 78.0158 202.984 78.0158H275.016C277.769 78.0158 280 80.2473 280 83C280 81.3344 278.209 79.9842 276 79.9842H202C199.791 79.9842 198 81.3344 198 83ZM280 158.041H198H280ZM198 158.041V79V158.041ZM280 79V158.041V79Z" fill="#21C445" mask="url(#path-1-inside-1_1865_55046)"/>
<g clip-path="url(#clip1_1865_55046)">
<path d="M205.873 90.3877C205.873 86.2725 209.209 82.9365 213.324 82.9365C217.439 82.9365 220.775 86.2725 220.775 90.3877C220.775 94.5028 217.439 97.8388 213.324 97.8388C209.209 97.8388 205.873 94.5028 205.873 90.3877Z" fill="#F5F7F9"/>
<g clip-path="url(#clip2_1865_55046)">
<path d="M220.775 90.3877C220.775 86.2725 217.439 82.9365 213.324 82.9365C209.209 82.9365 205.873 86.2725 205.873 90.3877C205.873 94.1067 208.598 97.1893 212.16 97.7483V92.5415H210.268V90.3877H212.16V88.7461C212.16 86.8786 213.272 85.8471 214.974 85.8471C215.789 85.8471 216.642 85.9927 216.642 85.9927V87.8263H215.703C214.777 87.8263 214.488 88.4007 214.488 88.9906V90.3877H216.555L216.225 92.5415H214.488V97.7483C218.051 97.1893 220.775 94.1067 220.775 90.3877Z" fill="#1877F2"/>
<path d="M216.224 92.5411L216.554 90.3872H214.488V88.9901C214.488 88.4009 214.777 87.8259 215.702 87.8259H216.642V85.9922C216.642 85.9922 215.789 85.8467 214.974 85.8467C213.272 85.8467 212.159 86.8782 212.159 88.7456V90.3872H210.268V92.5411H212.159V97.7478C212.931 97.8685 213.716 97.8685 214.488 97.7478V92.5411H216.224Z" fill="white"/>
</g>
</g>
<path d="M206.059 90.3877C206.059 86.3754 209.312 83.1228 213.324 83.1228C217.336 83.1228 220.589 86.3754 220.589 90.3877C220.589 94.3999 217.336 97.6525 213.324 97.6525C209.312 97.6525 206.059 94.3999 206.059 90.3877Z" stroke="#E5E9F0" stroke-width="0.372557"/>
<rect x="224.713" y="85.6562" width="19.6837" height="1.89262" rx="0.946311" fill="#F59B2E"/>
<rect x="224.713" y="89.4414" width="47.414" height="1.89262" rx="0.946311" fill="#E5E9F0"/>
<rect x="224.713" y="93.2266" width="38.3832" height="1.89262" rx="0.946311" fill="#E5E9F0"/>
<rect x="206.365" y="102.267" width="65.2689" height="49.3764" rx="1.47628" stroke="#E5E9F0" stroke-width="0.984185"/>
<circle cx="216.782" cy="112.685" r="5.00451" fill="#FFD37A"/>
<rect x="223.754" y="109.809" width="38.3832" height="1.96837" rx="0.984185" fill="#E5E9F0"/>
<rect x="223.754" y="113.67" width="42.4654" height="1.89262" rx="0.946311" fill="#E5E9F0"/>
<rect width="54.4428" height="26.573" transform="translate(211.777 119.658)" fill="#FFD37A"/>
<rect opacity="0.5" x="230.477" y="129.193" width="13.3453" height="13.3453" fill="white"/>
<path d="M248.366 130.178L255.428 142.411H241.303L248.366 130.178Z" fill="white"/>
<circle cx="227.032" cy="130.67" r="6.3972" fill="white"/>
</g>
<g opacity="0.9" filter="url(#filter1_ddd_1865_55046)">
<mask id="path-17-inside-2_1865_55046" fill="white">
<path d="M17 96C17 93.7909 18.7909 92 21 92H95C97.2091 92 99 93.7909 99 96V153.734C99 155.943 97.2091 157.734 95 157.734H21C18.7909 157.734 17 155.943 17 153.734V96Z"/>
</mask>
<path d="M17 96C17 93.7909 18.7909 92 21 92H95C97.2091 92 99 93.7909 99 96V153.734C99 155.943 97.2091 157.734 95 157.734H21C18.7909 157.734 17 155.943 17 153.734V96Z" fill="white"/>
<path d="M17 96C17 93.0784 19.3684 90.71 22.29 90.71H93.7101C96.6316 90.71 99 93.0784 99 96C99 94.5033 97.2091 93.29 95 93.29H21C18.7909 93.29 17 94.5033 17 96ZM99 157.734H17H99ZM17 157.734V92V157.734ZM99 92V157.734V92Z" fill="#FFB114" mask="url(#path-17-inside-2_1865_55046)"/>
<rect x="24.2891" y="99.2891" width="14.9023" height="14.9023" rx="7.45114" fill="#F44034"/>
<path fill-rule="evenodd" clip-rule="evenodd" d="M34.7179 106.551V109.288L35.7042 110.284V110.782H27.3203V110.284L28.3067 109.288V106.551C28.3067 105.007 29.3423 103.763 30.7725 103.414V103.066C30.7725 102.668 31.1177 102.319 31.5123 102.319C31.9068 102.319 32.252 102.668 32.252 103.066V103.414C33.6822 103.763 34.7179 105.007 34.7179 106.551ZM32.4986 111.28C32.4986 111.827 32.0548 112.275 31.5123 112.275C30.9698 112.275 30.526 111.827 30.526 111.28H32.4986Z" fill="white"/>
<rect x="43.0605" y="103.02" width="25.799" height="2.48062" rx="1.24031" fill="#21C445"/>
<rect x="43.0605" y="107.98" width="48.6501" height="2.48062" rx="1.24031" fill="#E5E9F0"/>
<rect x="24.2891" y="117.836" width="67.4222" height="32.6093" rx="2.5799" fill="#F5F7F9"/>
<path fill-rule="evenodd" clip-rule="evenodd" d="M57.3935 127.639C57.3935 126.443 56.434 125.473 55.2504 125.473C55.1361 125.473 55.0239 125.482 54.9145 125.499C55.0061 125.373 55.1077 125.254 55.219 125.141C55.7973 124.556 56.5662 124.234 57.3839 124.234V122.996C55.0167 122.996 53.0977 124.936 53.0977 127.33L53.1072 127.639C53.1072 128.836 54.0667 129.806 55.2504 129.806C56.434 129.806 57.3935 128.836 57.3935 127.639ZM62.9044 127.639C62.9044 126.443 61.9449 125.473 60.7613 125.473C60.647 125.473 60.5349 125.482 60.4254 125.499C60.5171 125.373 60.6186 125.254 60.73 125.141C61.3082 124.556 62.0771 124.234 62.8949 124.234V122.996C60.5276 122.996 58.6086 124.936 58.6086 127.33L58.6182 127.639C58.6182 128.836 59.5777 129.806 60.7613 129.806C61.9449 129.806 62.9044 128.836 62.9044 127.639Z" fill="#B6C1D3"/>
<rect x="32.8457" y="132.386" width="50.3081" height="2.5799" rx="1.28995" fill="#B6C1D3"/>
<rect opacity="0.6" x="29.4492" y="137.546" width="57.1026" height="2.48062" rx="1.24031" fill="#B6C1D3"/>
<rect opacity="0.6" x="32.8457" y="142.705" width="50.3081" height="2.48062" rx="1.24031" fill="#B6C1D3"/>
</g>
<g opacity="0.9" filter="url(#filter2_ddd_1865_55046)">
<mask id="path-28-inside-3_1865_55046" fill="white">
<path d="M20 32C20 30.8954 20.8954 30 22 30H74C75.1046 30 76 30.8954 76 32V73.1232C76 74.2277 75.1046 75.1232 74 75.1232H22C20.8954 75.1232 20 74.2277 20 73.1232V32Z"/>
</mask>
<path d="M20 32C20 30.8954 20.8954 30 22 30H74C75.1046 30 76 30.8954 76 32V73.1232C76 74.2277 75.1046 75.1232 74 75.1232H22C20.8954 75.1232 20 74.2277 20 73.1232V32Z" fill="white"/>
<path d="M20 32C20 30.4089 21.2898 29.1191 22.8809 29.1191H73.1191C74.7102 29.1191 76 30.4089 76 32C76 31.382 75.1046 30.8809 74 30.8809H22C20.8954 30.8809 20 31.382 20 32ZM76 75.1232H20H76ZM20 75.1232V30V75.1232ZM76 30V75.1232V30Z" fill="#FFB114" mask="url(#path-28-inside-3_1865_55046)"/>
<path d="M24.9785 40.0675C24.9785 37.2564 27.2574 34.9775 30.0685 34.9775C32.8796 34.9775 35.1585 37.2564 35.1585 40.0675C35.1585 42.8787 32.8796 45.1575 30.0685 45.1575C27.2574 45.1575 24.9785 42.8787 24.9785 40.0675Z" fill="#F5F7F9"/>
<path d="M33.4932 40.1463C33.4932 39.916 33.4728 39.6973 33.4378 39.4844H30.1426V40.7996H32.0293C31.9448 41.2311 31.6969 41.5957 31.3294 41.8435V42.7184H32.4551C33.1141 42.1089 33.4932 41.2107 33.4932 40.1463Z" fill="#4285F4"/>
<path d="M30.1427 43.5669C31.0876 43.5669 31.8778 43.252 32.4552 42.7183L31.3296 41.8435C31.0147 42.0534 30.6151 42.1818 30.1427 42.1818C29.23 42.1818 28.4572 41.5665 28.1802 40.7354H27.0195V41.6364C27.594 42.7796 28.7751 43.5669 30.1427 43.5669Z" fill="#34A853"/>
<path d="M28.1813 40.7357C28.1084 40.5257 28.0705 40.3012 28.0705 40.0679C28.0705 39.8346 28.1114 39.6101 28.1813 39.4001V38.499H27.0207C26.7816 38.9714 26.6445 39.5022 26.6445 40.0679C26.6445 40.6336 26.7816 41.1644 27.0207 41.6368L28.1813 40.7357Z" fill="#FBBC05"/>
<path d="M30.1427 37.9535C30.6589 37.9535 31.1196 38.1314 31.4842 38.4784L32.4815 37.4811C31.8778 36.9154 31.0876 36.5684 30.1427 36.5684C28.7751 36.5684 27.594 37.3557 27.0195 38.4988L28.1802 39.3999C28.4572 38.5688 29.23 37.9535 30.1427 37.9535Z" fill="#EA4335"/>
<rect x="37.8008" y="37.5264" width="17.6188" height="1.69408" rx="0.847042" fill="#21C445"/>
<rect x="37.8008" y="40.9141" width="33.2244" height="1.69408" rx="0.847042" fill="#E5E9F0"/>
<rect x="24.9785" y="47.6465" width="46.0444" height="22.4987" rx="1.76188" fill="white"/>
<path fill-rule="evenodd" clip-rule="evenodd" d="M41.631 54.0951H38.6872V54.9766H40.7899C40.6898 56.1988 39.6685 56.7197 38.7072 56.7197C37.4655 56.7197 36.4041 55.758 36.4041 54.3956C36.4041 53.0733 37.4255 52.0515 38.7272 52.0515C39.7285 52.0515 40.3093 52.6926 40.3093 52.6926L40.9301 52.0515C40.9301 52.0515 40.1491 51.1699 38.7072 51.1699C36.8848 51.1699 35.4629 52.7126 35.4629 54.3756C35.4629 56.0184 36.7846 57.6012 38.7472 57.6012C40.4695 57.6012 41.7312 56.4191 41.7312 54.6761C41.6911 54.3154 41.631 54.0951 41.631 54.0951Z" fill="#4285F4"/>
<path fill-rule="evenodd" clip-rule="evenodd" d="M43.7453 53.4668C42.5829 53.4668 41.7305 54.4101 41.7305 55.5139C41.7305 56.6378 42.5441 57.6012 43.7646 57.6012C44.8689 57.6012 45.7601 56.7382 45.7601 55.534C45.7601 54.1893 44.7139 53.4668 43.7453 53.4668ZM43.7647 54.2896C44.3459 54.2896 44.8883 54.7713 44.8883 55.554C44.8883 56.3167 44.3459 56.8184 43.7647 56.8184C43.1254 56.8184 42.6217 56.2966 42.6217 55.554C42.6217 54.8315 43.106 54.2896 43.7647 54.2896Z" fill="#EA4335"/>
<path fill-rule="evenodd" clip-rule="evenodd" d="M48.2238 53.4668C47.0614 53.4668 46.209 54.4101 46.209 55.5139C46.209 56.6378 47.0227 57.6012 48.2432 57.6012C49.3474 57.6012 50.2386 56.7382 50.2386 55.534C50.2386 54.1893 49.1924 53.4668 48.2238 53.4668ZM48.2432 54.2896C48.8244 54.2896 49.3668 54.7713 49.3668 55.554C49.3668 56.3167 48.8244 56.8184 48.2432 56.8184C47.6039 56.8184 47.1002 56.2966 47.1002 55.554C47.0808 54.8315 47.5845 54.2896 48.2432 54.2896Z" fill="#FBBC05"/>
<path fill-rule="evenodd" clip-rule="evenodd" d="M53.1476 53.4668C52.0079 53.4668 51.1328 54.4455 51.1328 55.524C51.1328 56.7623 52.1707 57.5812 53.1273 57.5812C53.7175 57.5812 54.0431 57.3416 54.2873 57.0819V57.4814C54.2873 58.2004 53.8396 58.6198 53.1883 58.6198C52.5371 58.6198 52.2318 58.1604 52.1097 57.8808L51.2956 58.2204C51.5805 58.8195 52.1504 59.4387 53.1883 59.4387C54.3077 59.4387 55.1624 58.7397 55.1624 57.2816V53.5667H54.2873V53.9062C54.0227 53.6466 53.6564 53.4668 53.1476 53.4668ZM53.2291 54.2658C53.7786 54.2658 54.3484 54.7251 54.3484 55.5241C54.3484 56.323 53.7786 56.7824 53.2087 56.7824C52.5982 56.7824 52.0487 56.303 52.0487 55.544C52.069 54.7451 52.6389 54.2658 53.2291 54.2658Z" fill="#4285F4"/>
<path fill-rule="evenodd" clip-rule="evenodd" d="M58.7841 53.4668C57.7934 53.4668 56.9551 54.3057 56.9551 55.524C56.9551 56.8223 57.8887 57.6012 58.8794 57.6012C59.7177 57.6012 60.2321 57.1218 60.537 56.7024L59.8511 56.2231C59.6796 56.5027 59.3748 56.7823 58.8794 56.7823C58.3269 56.7823 58.0792 56.4627 57.9077 56.1631L60.537 55.0247L60.4036 54.6851C60.1559 54.026 59.5653 53.4668 58.7841 53.4668ZM58.8222 54.2658C59.1842 54.2658 59.4319 54.4655 59.5462 54.7052L57.7934 55.4841C57.6981 54.8849 58.2506 54.2658 58.8222 54.2658Z" fill="#EA4335"/>
<path fill-rule="evenodd" clip-rule="evenodd" d="M55.6113 57.1418H56.5068V51.1699H55.6113V57.1418Z" fill="#34A853"/>
<path fill-rule="evenodd" clip-rule="evenodd" d="M32.8224 65.5646L30.7896 66.6206L31.1778 64.3839L29.5332 62.7998L31.806 62.4735L32.8224 60.4385L33.8388 62.4735L36.1116 62.7998L34.467 64.3839L34.8552 66.6206L32.8224 65.5646Z" fill="#FFB114"/>
<path fill-rule="evenodd" clip-rule="evenodd" d="M40.2013 65.5646L38.1685 66.6206L38.5567 64.3839L36.9121 62.7998L39.1849 62.4735L40.2013 60.4385L41.2177 62.4735L43.4905 62.7998L41.8459 64.3839L42.2341 66.6206L40.2013 65.5646Z" fill="#FFB114"/>
<path fill-rule="evenodd" clip-rule="evenodd" d="M48.0392 65.5646L46.0064 66.6206L46.3946 64.3839L44.75 62.7998L47.0228 62.4735L48.0392 60.4385L49.0556 62.4735L51.3284 62.7998L49.6838 64.3839L50.072 66.6206L48.0392 65.5646Z" fill="#FFB114"/>
<path fill-rule="evenodd" clip-rule="evenodd" d="M55.4181 65.5646L53.3853 66.6206L53.7735 64.3839L52.1289 62.7998L54.4017 62.4735L55.4181 60.4385L56.4345 62.4735L58.7073 62.7998L57.0627 64.3839L57.4509 66.6206L55.4181 65.5646Z" fill="#FFB114"/>
<path fill-rule="evenodd" clip-rule="evenodd" d="M63.1779 65.5646L61.145 66.6206L61.5333 64.3839L59.8887 62.7998L62.1614 62.4735L63.1779 60.4385L64.1943 62.4735L66.467 62.7998L64.8224 64.3839L65.2107 66.6206L63.1779 65.5646Z" fill="#FFB114"/>
</g>
<g filter="url(#filter3_ddd_1865_55046)">
<mask id="path-49-inside-4_1865_55046" fill="white">
<path d="M92.6582 42C92.6582 38.6863 95.3445 36 98.6582 36H200.658C203.972 36 206.658 38.6863 206.658 42V132.579C206.658 135.893 203.972 138.579 200.658 138.579H98.6582C95.3445 138.579 92.6582 135.893 92.6582 132.579V42Z"/>
</mask>
<path d="M92.6582 42C92.6582 38.6863 95.3445 36 98.6582 36H200.658C203.972 36 206.658 38.6863 206.658 42V132.579C206.658 135.893 203.972 138.579 200.658 138.579H98.6582C95.3445 138.579 92.6582 135.893 92.6582 132.579V42Z" fill="white"/>
<path d="M92.6582 42C92.6582 37.9306 95.9571 34.6317 100.026 34.6317H199.29C203.359 34.6317 206.658 37.9306 206.658 42C206.658 39.442 203.972 37.3683 200.658 37.3683H98.6582C95.3445 37.3683 92.6582 39.442 92.6582 42ZM206.658 138.579H92.6582H206.658ZM92.6582 138.579V36V138.579ZM206.658 36V138.579V36Z" fill="#0062FF" mask="url(#path-49-inside-4_1865_55046)"/>
<path d="M103.604 51.8316C103.604 46.1105 108.241 41.4727 113.962 41.4727C119.683 41.4727 124.321 46.1105 124.321 51.8316C124.321 57.5526 119.683 62.1905 113.962 62.1905C108.241 62.1905 103.604 57.5526 103.604 51.8316Z" fill="#F5F7F9"/>
<path d="M120.932 51.9917C120.932 51.5229 120.891 51.0778 120.82 50.6445H114.113V53.3211H117.953C117.781 54.1995 117.277 54.9413 116.529 55.4458V57.2262H118.82C120.161 55.9858 120.932 54.1579 120.932 51.9917Z" fill="#4285F4"/>
<path d="M114.114 58.9531C116.037 58.9531 117.645 58.3122 118.82 57.2261L116.529 55.4456C115.888 55.873 115.075 56.1341 114.114 56.1341C112.256 56.1341 110.684 54.8818 110.12 53.1904H107.758V55.0243C108.927 57.3507 111.331 58.9531 114.114 58.9531Z" fill="#34A853"/>
<path d="M110.12 53.1907C109.971 52.7633 109.894 52.3064 109.894 51.8316C109.894 51.3568 109.977 50.8998 110.12 50.4725V48.6387H107.758C107.271 49.6001 106.992 50.6802 106.992 51.8316C106.992 52.9829 107.271 54.0631 107.758 55.0245L110.12 53.1907Z" fill="#FBBC05"/>
<path d="M114.114 47.529C115.164 47.529 116.102 47.891 116.844 48.5972L118.874 46.5676C117.645 45.4162 116.037 44.71 114.114 44.71C111.331 44.71 108.927 46.3124 107.758 48.6388L110.12 50.4726C110.684 48.7812 112.256 47.529 114.114 47.529Z" fill="#EA4335"/>
<rect x="129.795" y="45.2539" width="27.3651" height="2.63121" rx="1.3156" fill="#21C445"/>
<rect x="129.795" y="50.5166" width="65.9171" height="2.63121" rx="1.3156" fill="#E5E9F0"/>
<rect x="129.795" y="55.7783" width="53.362" height="2.63121" rx="1.3156" fill="#E5E9F0"/>
<rect x="103.604" y="67.6641" width="53.362" height="2.73651" rx="1.36826" fill="#8884CE"/>
<rect x="103.604" y="73.0322" width="92.1079" height="2.63121" rx="1.3156" fill="#E5E9F0"/>
<rect x="103.604" y="78.2939" width="53.362" height="2.63121" rx="1.3156" fill="#E5E9F0"/>
<rect x="103.604" y="86.3984" width="27.3651" height="2.63121" rx="1.3156" fill="#8884CE"/>
<rect x="103.604" y="91.6611" width="92.1079" height="2.63121" rx="1.3156" fill="#E5E9F0"/>
<rect x="103.604" y="96.9229" width="53.362" height="2.63121" rx="1.3156" fill="#E5E9F0"/>
<mask id="mask0_1865_55046" style="mask-type:luminance" maskUnits="userSpaceOnUse" x="103" y="107" width="88" height="20">
<rect width="87.0211" height="19.3043" transform="matrix(-1 0 0 1 190.625 107.66)" fill="white"/>
</mask>
<g mask="url(#mask0_1865_55046)">
<path d="M123.58 122.358L123.72 122.774L123.651 122.797H123.58C121.083 122.797 115.846 123.395 111.202 124C108.887 124.301 106.73 124.602 105.151 124.828C104.362 124.941 103.717 125.036 103.27 125.101C103.147 125.12 103.039 125.136 102.947 125.149V128.28L196.206 128.143V118.629V110.125L161.018 114.015L143.403 119.051L143.344 119.068L143.283 119.068C139.025 119.068 134.139 119.99 130.302 120.92C128.387 121.384 126.739 121.848 125.571 122.196C124.987 122.37 124.523 122.515 124.206 122.616C124.047 122.666 123.925 122.706 123.843 122.733L123.75 122.764L123.727 122.771L123.721 122.773L123.72 122.774L123.72 122.774L123.58 122.358Z" fill="#D8EAFE" stroke="#3381FF" stroke-width="0.877469"/>
<path d="M105.682 124.184C105.682 124.818 106.196 125.333 106.831 125.333C107.465 125.333 107.98 124.818 107.98 124.184C107.98 123.549 107.465 123.035 106.831 123.035C106.196 123.035 105.682 123.549 105.682 124.184Z" fill="#3381FF" stroke="white" stroke-width="0.438735"/>
<path d="M117.997 122.816C117.997 123.45 118.511 123.964 119.145 123.964C119.78 123.964 120.294 123.45 120.294 122.816C120.294 122.181 119.78 121.667 119.145 121.667C118.511 121.667 117.997 122.181 117.997 122.816Z" fill="#3381FF" stroke="white" stroke-width="0.438735"/>
<path d="M130.309 120.078C130.309 120.713 130.823 121.227 131.458 121.227C132.092 121.227 132.607 120.713 132.607 120.078C132.607 119.444 132.092 118.929 131.458 118.929C130.823 118.929 130.309 119.444 130.309 120.078Z" fill="#3381FF" stroke="white" stroke-width="0.438735"/>
<path d="M142.623 118.71C142.623 119.345 143.138 119.859 143.772 119.859C144.407 119.859 144.921 119.345 144.921 118.71C144.921 118.076 144.407 117.561 143.772 117.561C143.138 117.561 142.623 118.076 142.623 118.71Z" fill="#3381FF" stroke="white" stroke-width="0.438735"/>
<path d="M154.938 114.606C154.938 115.24 155.452 115.754 156.087 115.754C156.721 115.754 157.236 115.24 157.236 114.606C157.236 113.971 156.721 113.457 156.087 113.457C155.452 113.457 154.938 113.971 154.938 114.606Z" fill="#3381FF" stroke="white" stroke-width="0.438735"/>
<path d="M167.252 113.237C167.252 113.872 167.767 114.386 168.401 114.386C169.036 114.386 169.55 113.872 169.55 113.237C169.55 112.603 169.036 112.089 168.401 112.089C167.767 112.089 167.252 112.603 167.252 113.237Z" fill="#3381FF" stroke="white" stroke-width="0.438735"/>
<path d="M179.567 111.869C179.567 112.504 180.081 113.018 180.716 113.018C181.35 113.018 181.865 112.504 181.865 111.869C181.865 111.235 181.35 110.72 180.716 110.72C180.081 110.72 179.567 111.235 179.567 111.869Z" fill="#3381FF" stroke="white" stroke-width="0.438735"/>
</g>
<g clip-path="url(#clip3_1865_55046)">
<g clip-path="url(#clip4_1865_55046)">
<g clip-path="url(#clip5_1865_55046)">
<rect opacity="0.5" x="105.467" y="128.719" width="5.70355" height="1.3162" rx="0.658102" fill="#B6C1D3"/>
<rect opacity="0.5" x="119.945" y="128.719" width="5.70355" height="1.3162" rx="0.658102" fill="#B6C1D3"/>
<rect opacity="0.5" x="134.424" y="128.719" width="5.70355" height="1.3162" rx="0.658102" fill="#B6C1D3"/>
<rect opacity="0.5" x="148.9" y="128.719" width="5.70355" height="1.3162" rx="0.658102" fill="#B6C1D3"/>
<rect opacity="0.5" x="163.379" y="128.719" width="5.70355" height="1.3162" rx="0.658102" fill="#B6C1D3"/>
<rect opacity="0.5" x="177.857" y="128.719" width="5.70355" height="1.3162" rx="0.658102" fill="#B6C1D3"/>
</g>
</g>
</g>
<g clip-path="url(#clip6_1865_55046)">
<g clip-path="url(#clip7_1865_55046)">
<rect opacity="0.5" x="190.232" y="112.486" width="5.70355" height="1.3162" rx="0.658102" fill="#B6C1D3"/>
<rect opacity="0.5" x="190.232" y="122.577" width="5.70355" height="1.3162" rx="0.658102" fill="#B6C1D3"/>
</g>
</g>
<rect x="103.604" y="105.027" width="33.9328" height="2.63241" rx="1.3162" fill="#E6E9F0"/>
</g>
<g opacity="0.9" filter="url(#filter4_ddd_1865_55046)">
<mask id="path-83-inside-5_1865_55046" fill="white">
<path d="M220 19C220 17.3431 221.343 16 223 16H280.568C282.225 16 283.568 17.3431 283.568 19V56.371C283.568 58.0279 282.225 59.371 280.568 59.371H223C221.343 59.371 220 58.0279 220 56.371V19Z"/>
</mask>
<path d="M220 19C220 17.3431 221.343 16 223 16H280.568C282.225 16 283.568 17.3431 283.568 19V56.371C283.568 58.0279 282.225 59.371 280.568 59.371H223C221.343 59.371 220 58.0279 220 56.371V19Z" fill="white"/>
<path d="M220 19C220 16.7909 221.791 15 224 15H279.568C281.777 15 283.568 16.7909 283.568 19C283.568 17.8954 282.225 17 280.568 17H223C221.343 17 220 17.8954 220 19ZM283.568 59.371H220H283.568ZM220 59.371V16V59.371ZM283.568 16V59.371V16Z" fill="#FFB114" mask="url(#path-83-inside-5_1865_55046)"/>
<path d="M225.65 27.4267C225.65 24.2365 228.237 21.6504 231.427 21.6504C234.617 21.6504 237.203 24.2365 237.203 27.4267C237.203 30.6169 234.617 33.203 231.427 33.203C228.237 33.203 225.65 30.6169 225.65 27.4267Z" fill="#F5F7F9"/>
<path fill-rule="evenodd" clip-rule="evenodd" d="M227.619 29.107L230.261 24.5303L232.551 25.8521L229.909 30.4293L227.619 29.107Z" fill="#FBBC04"/>
<path fill-rule="evenodd" clip-rule="evenodd" d="M235.215 29.0902L232.571 24.5122C232.249 23.8571 231.456 23.5872 230.801 23.9094C230.146 24.2316 229.876 25.0238 230.198 25.679C230.202 25.6868 230.206 25.6946 230.21 25.7023C230.218 25.7175 230.226 25.7326 230.234 25.7474C230.249 25.7756 230.265 25.8034 230.282 25.8307L232.926 30.4091C233.288 31.0435 234.095 31.2644 234.73 30.9027C235.357 30.545 235.581 29.7502 235.234 29.1175C235.228 29.1071 235.222 29.097 235.216 29.087V29.0899L235.215 29.0902Z" fill="#4285F4"/>
<path fill-rule="evenodd" clip-rule="evenodd" d="M227.842 28.8227C228.358 28.3065 229.195 28.3065 229.712 28.8227C230.228 29.3389 230.228 30.1758 229.712 30.6921C229.195 31.2083 228.358 31.2083 227.842 30.6921C227.326 30.1758 227.326 29.3389 227.842 28.8227Z" fill="#34A853"/>
<rect x="240.203" y="22.6191" width="20" height="1.92304" rx="0.961518" fill="#F59B2E"/>
<rect x="240.203" y="26.4648" width="37.7147" height="1.92304" rx="0.961518" fill="#E5E9F0"/>
<rect x="240.203" y="30.3115" width="39" height="1.92304" rx="0.961518" fill="#E5E9F0"/>
<rect x="225.65" y="36.0283" width="52.2673" height="17.6921" rx="2" fill="#FFE4AD"/>
<rect x="229.65" y="40.0283" width="39" height="2" rx="1" fill="#8884CE"/>
<rect opacity="0.6" x="229.65" y="43.9512" width="44.2673" height="1.92304" rx="0.961518" fill="#8699B6"/>
<rect opacity="0.6" x="229.65" y="47.7979" width="39" height="1.92304" rx="0.961518" fill="#8699B6"/>
</g>
</g>
<defs>
<filter id="filter0_ddd_1865_55046" x="150.759" y="43.5693" width="176.482" height="173.523" filterUnits="userSpaceOnUse" color-interpolation-filters="sRGB">
<feFlood flood-opacity="0" result="BackgroundImageFix"/>
<feColorMatrix in="SourceAlpha" type="matrix" values="0 0 0 0 0 0 0 0 0 0 0 0 0 0 0 0 0 0 127 0" result="hardAlpha"/>
<feOffset dy="11.8102"/>
<feGaussianBlur stdDeviation="23.6204"/>
<feColorMatrix type="matrix" values="0 0 0 0 0.0156863 0 0 0 0 0.0196078 0 0 0 0 0.0235294 0 0 0 0.03 0"/>
<feBlend mode="normal" in2="BackgroundImageFix" result="effect1_dropShadow_1865_55046"/>
<feColorMatrix in="SourceAlpha" type="matrix" values="0 0 0 0 0 0 0 0 0 0 0 0 0 0 0 0 0 0 127 0" result="hardAlpha"/>
<feOffset dy="8.85766"/>
<feGaussianBlur stdDeviation="7.38139"/>
<feColorMatrix type="matrix" values="0 0 0 0 0.0156863 0 0 0 0 0.0196078 0 0 0 0 0.0235294 0 0 0 0.05 0"/>
<feBlend mode="normal" in2="effect1_dropShadow_1865_55046" result="effect2_dropShadow_1865_55046"/>
<feColorMatrix in="SourceAlpha" type="matrix" values="0 0 0 0 0 0 0 0 0 0 0 0 0 0 0 0 0 0 127 0" result="hardAlpha"/>
<feOffset dy="4.42883"/>
<feGaussianBlur stdDeviation="2.95255"/>
<feColorMatrix type="matrix" values="0 0 0 0 0.0156863 0 0 0 0 0.0196078 0 0 0 0 0.0235294 0 0 0 0.08 0"/>
<feBlend mode="normal" in2="effect2_dropShadow_1865_55046" result="effect3_dropShadow_1865_55046"/>
<feBlend mode="normal" in="SourceGraphic" in2="effect3_dropShadow_1865_55046" result="shape"/>
</filter>
<filter id="filter1_ddd_1865_55046" x="-44.9176" y="45.5618" width="205.835" height="189.569" filterUnits="userSpaceOnUse" color-interpolation-filters="sRGB">
<feFlood flood-opacity="0" result="BackgroundImageFix"/>
<feColorMatrix in="SourceAlpha" type="matrix" values="0 0 0 0 0 0 0 0 0 0 0 0 0 0 0 0 0 0 127 0" result="hardAlpha"/>
<feOffset dy="15.4794"/>
<feGaussianBlur stdDeviation="30.9588"/>
<feColorMatrix type="matrix" values="0 0 0 0 0.0156863 0 0 0 0 0.0196078 0 0 0 0 0.0235294 0 0 0 0.03 0"/>
<feBlend mode="normal" in2="BackgroundImageFix" result="effect1_dropShadow_1865_55046"/>
<feColorMatrix in="SourceAlpha" type="matrix" values="0 0 0 0 0 0 0 0 0 0 0 0 0 0 0 0 0 0 127 0" result="hardAlpha"/>
<feOffset dy="11.6096"/>
<feGaussianBlur stdDeviation="9.67463"/>
<feColorMatrix type="matrix" values="0 0 0 0 0.0156863 0 0 0 0 0.0196078 0 0 0 0 0.0235294 0 0 0 0.05 0"/>
<feBlend mode="normal" in2="effect1_dropShadow_1865_55046" result="effect2_dropShadow_1865_55046"/>
<feColorMatrix in="SourceAlpha" type="matrix" values="0 0 0 0 0 0 0 0 0 0 0 0 0 0 0 0 0 0 127 0" result="hardAlpha"/>
<feOffset dy="5.80478"/>
<feGaussianBlur stdDeviation="3.86985"/>
<feColorMatrix type="matrix" values="0 0 0 0 0.0156863 0 0 0 0 0.0196078 0 0 0 0 0.0235294 0 0 0 0.08 0"/>
<feBlend mode="normal" in2="effect2_dropShadow_1865_55046" result="effect3_dropShadow_1865_55046"/>
<feBlend mode="normal" in="SourceGraphic" in2="effect3_dropShadow_1865_55046" result="shape"/>
</filter>
<filter id="filter2_ddd_1865_55046" x="-22.2852" y="-1.71391" width="140.57" height="129.693" filterUnits="userSpaceOnUse" color-interpolation-filters="sRGB">
<feFlood flood-opacity="0" result="BackgroundImageFix"/>
<feColorMatrix in="SourceAlpha" type="matrix" values="0 0 0 0 0 0 0 0 0 0 0 0 0 0 0 0 0 0 127 0" result="hardAlpha"/>
<feOffset dy="10.5713"/>
<feGaussianBlur stdDeviation="21.1426"/>
<feColorMatrix type="matrix" values="0 0 0 0 0.0156863 0 0 0 0 0.0196078 0 0 0 0 0.0235294 0 0 0 0.03 0"/>
<feBlend mode="normal" in2="BackgroundImageFix" result="effect1_dropShadow_1865_55046"/>
<feColorMatrix in="SourceAlpha" type="matrix" values="0 0 0 0 0 0 0 0 0 0 0 0 0 0 0 0 0 0 127 0" result="hardAlpha"/>
<feOffset dy="7.92848"/>
<feGaussianBlur stdDeviation="6.60707"/>
<feColorMatrix type="matrix" values="0 0 0 0 0.0156863 0 0 0 0 0.0196078 0 0 0 0 0.0235294 0 0 0 0.05 0"/>
<feBlend mode="normal" in2="effect1_dropShadow_1865_55046" result="effect2_dropShadow_1865_55046"/>
<feColorMatrix in="SourceAlpha" type="matrix" values="0 0 0 0 0 0 0 0 0 0 0 0 0 0 0 0 0 0 127 0" result="hardAlpha"/>
<feOffset dy="3.96424"/>
<feGaussianBlur stdDeviation="2.64283"/>
<feColorMatrix type="matrix" values="0 0 0 0 0.0156863 0 0 0 0 0.0196078 0 0 0 0 0.0235294 0 0 0 0.08 0"/>
<feBlend mode="normal" in2="effect2_dropShadow_1865_55046" result="effect3_dropShadow_1865_55046"/>
<feBlend mode="normal" in="SourceGraphic" in2="effect3_dropShadow_1865_55046" result="shape"/>
</filter>
<filter id="filter3_ddd_1865_55046" x="26.9819" y="-13.2572" width="245.353" height="233.932" filterUnits="userSpaceOnUse" color-interpolation-filters="sRGB">
<feFlood flood-opacity="0" result="BackgroundImageFix"/>
<feColorMatrix in="SourceAlpha" type="matrix" values="0 0 0 0 0 0 0 0 0 0 0 0 0 0 0 0 0 0 127 0" result="hardAlpha"/>
<feOffset dy="16.4191"/>
<feGaussianBlur stdDeviation="32.8382"/>
<feColorMatrix type="matrix" values="0 0 0 0 0.0156863 0 0 0 0 0.0196078 0 0 0 0 0.0235294 0 0 0 0.03 0"/>
<feBlend mode="normal" in2="BackgroundImageFix" result="effect1_dropShadow_1865_55046"/>
<feColorMatrix in="SourceAlpha" type="matrix" values="0 0 0 0 0 0 0 0 0 0 0 0 0 0 0 0 0 0 127 0" result="hardAlpha"/>
<feOffset dy="12.3143"/>
<feGaussianBlur stdDeviation="10.2619"/>
<feColorMatrix type="matrix" values="0 0 0 0 0.0156863 0 0 0 0 0.0196078 0 0 0 0 0.0235294 0 0 0 0.05 0"/>
<feBlend mode="normal" in2="effect1_dropShadow_1865_55046" result="effect2_dropShadow_1865_55046"/>
<feColorMatrix in="SourceAlpha" type="matrix" values="0 0 0 0 0 0 0 0 0 0 0 0 0 0 0 0 0 0 127 0" result="hardAlpha"/>
<feOffset dy="6.15716"/>
<feGaussianBlur stdDeviation="4.10477"/>
<feColorMatrix type="matrix" values="0 0 0 0 0.0156863 0 0 0 0 0.0196078 0 0 0 0 0.0235294 0 0 0 0.08 0"/>
<feBlend mode="normal" in2="effect2_dropShadow_1865_55046" result="effect3_dropShadow_1865_55046"/>
<feBlend mode="normal" in="SourceGraphic" in2="effect3_dropShadow_1865_55046" result="shape"/>
</filter>
<filter id="filter4_ddd_1865_55046" x="172" y="-20" width="159.568" height="139.371" filterUnits="userSpaceOnUse" color-interpolation-filters="sRGB">
<feFlood flood-opacity="0" result="BackgroundImageFix"/>
<feColorMatrix in="SourceAlpha" type="matrix" values="0 0 0 0 0 0 0 0 0 0 0 0 0 0 0 0 0 0 127 0" result="hardAlpha"/>
<feOffset dy="12"/>
<feGaussianBlur stdDeviation="24"/>
<feColorMatrix type="matrix" values="0 0 0 0 0.0156863 0 0 0 0 0.0196078 0 0 0 0 0.0235294 0 0 0 0.03 0"/>
<feBlend mode="normal" in2="BackgroundImageFix" result="effect1_dropShadow_1865_55046"/>
<feColorMatrix in="SourceAlpha" type="matrix" values="0 0 0 0 0 0 0 0 0 0 0 0 0 0 0 0 0 0 127 0" result="hardAlpha"/>
<feOffset dy="9"/>
<feGaussianBlur stdDeviation="7.5"/>
<feColorMatrix type="matrix" values="0 0 0 0 0.0156863 0 0 0 0 0.0196078 0 0 0 0 0.0235294 0 0 0 0.05 0"/>
<feBlend mode="normal" in2="effect1_dropShadow_1865_55046" result="effect2_dropShadow_1865_55046"/>
<feColorMatrix in="SourceAlpha" type="matrix" values="0 0 0 0 0 0 0 0 0 0 0 0 0 0 0 0 0 0 127 0" result="hardAlpha"/>
<feOffset dy="4.5"/>
<feGaussianBlur stdDeviation="3"/>
<feColorMatrix type="matrix" values="0 0 0 0 0.0156863 0 0 0 0 0.0196078 0 0 0 0 0.0235294 0 0 0 0.08 0"/>
<feBlend mode="normal" in2="effect2_dropShadow_1865_55046" result="effect3_dropShadow_1865_55046"/>
<feBlend mode="normal" in="SourceGraphic" in2="effect3_dropShadow_1865_55046" result="shape"/>
</filter>
<clipPath id="clip0_1865_55046">
<rect width="300" height="175" fill="white"/>
</clipPath>
<clipPath id="clip1_1865_55046">
<path d="M205.873 90.3877C205.873 86.2725 209.209 82.9365 213.324 82.9365C217.439 82.9365 220.775 86.2725 220.775 90.3877C220.775 94.5028 217.439 97.8388 213.324 97.8388C209.209 97.8388 205.873 94.5028 205.873 90.3877Z" fill="white"/>
</clipPath>
<clipPath id="clip2_1865_55046">
<rect width="14.9023" height="14.9023" fill="white" transform="translate(205.873 82.9365)"/>
</clipPath>
<clipPath id="clip3_1865_55046">
<rect width="86.4738" height="4.38735" fill="white" transform="translate(104.15 128.719)"/>
</clipPath>
<clipPath id="clip4_1865_55046">
<rect width="138.64" height="4.38735" fill="white" transform="translate(104.15 128.719)"/>
</clipPath>
<clipPath id="clip5_1865_55046">
<rect width="138.64" height="4.38735" fill="white" transform="translate(104.15 128.719)"/>
</clipPath>
<clipPath id="clip6_1865_55046">
<rect width="4.92572" height="17.5494" fill="white" transform="translate(191.719 109.415)"/>
</clipPath>
<clipPath id="clip7_1865_55046">
<rect width="7.89722" height="17.5494" fill="white" transform="translate(190.232 109.415)"/>
</clipPath>
</defs>
</svg>
