<svg width="300" height="175" viewBox="0 0 300 175" fill="none" xmlns="http://www.w3.org/2000/svg">
<g clip-path="url(#clip0_1865_55029)">
<rect width="300" height="175" fill="white"/>
<path d="M124.088 64.4096H112.592V67.8481H120.803C120.412 72.6152 116.424 74.647 112.67 74.647C107.821 74.647 103.676 70.8959 103.676 65.5818C103.676 60.4241 107.664 56.4385 112.748 56.4385C116.658 56.4385 118.926 58.9393 118.926 58.9393L121.351 56.4385C121.351 56.4385 118.301 53 112.67 53C105.553 53 100 59.0174 100 65.5037C100 71.9118 105.162 78.0855 112.826 78.0855C119.552 78.0855 124.479 73.4748 124.479 66.6759C124.323 65.2692 124.088 64.4096 124.088 64.4096Z" fill="#4285F4"/>
<path d="M133.552 61.9082C128.859 61.9082 125.418 65.5812 125.418 69.8793C125.418 74.2556 128.703 78.0067 133.63 78.0067C138.088 78.0067 141.685 74.6463 141.685 69.9575C141.685 64.7215 137.462 61.9082 133.552 61.9082ZM133.63 65.1123C135.976 65.1123 138.166 66.9878 138.166 70.0356C138.166 73.0052 135.976 74.9589 133.63 74.9589C131.049 74.9589 129.016 72.9271 129.016 70.0356C129.016 67.2223 130.971 65.1123 133.63 65.1123Z" fill="#EA4335"/>
<path d="M151.227 61.9082C146.535 61.9082 143.094 65.5812 143.094 69.8793C143.094 74.2556 146.378 78.0067 151.306 78.0067C155.763 78.0067 159.361 74.6463 159.361 69.9575C159.361 64.7215 155.138 61.9082 151.227 61.9082ZM151.306 65.1123C153.652 65.1123 155.842 66.9878 155.842 70.0356C155.842 73.0052 153.652 74.9589 151.306 74.9589C148.725 74.9589 146.691 72.9271 146.691 70.0356C146.613 67.2223 148.647 65.1123 151.306 65.1123Z" fill="#FBBC05"/>
<path d="M168.891 61.8975C164.511 61.8975 161.148 65.7267 161.148 69.9467C161.148 74.7919 165.137 77.996 168.813 77.996C171.081 77.996 172.332 77.0582 173.271 76.0423V77.6052C173.271 80.4185 171.55 82.0597 169.047 82.0597C166.545 82.0597 165.372 80.2623 164.902 79.1682L161.774 80.4967C162.869 82.8411 165.059 85.2637 169.047 85.2637C173.349 85.2637 176.634 82.5285 176.634 76.8237V62.2882H173.271V63.6167C172.254 62.6008 170.846 61.8975 168.891 61.8975ZM169.204 65.0234C171.316 65.0234 173.505 66.8208 173.505 69.9467C173.505 73.0726 171.316 74.87 169.126 74.87C166.779 74.87 164.668 72.9945 164.668 70.0249C164.746 66.8989 166.936 65.0234 169.204 65.0234Z" fill="#4285F4"/>
<path d="M192.436 61.8975C188.369 61.8975 184.928 65.1797 184.928 69.9467C184.928 75.0263 188.76 78.0741 192.827 78.0741C196.268 78.0741 198.38 76.1986 199.631 74.5574L196.815 72.6819C196.112 73.776 194.86 74.87 192.827 74.87C190.559 74.87 189.542 73.6197 188.838 72.4474L199.631 67.993L199.083 66.6645C198.067 64.0856 195.642 61.8975 192.436 61.8975ZM192.592 65.0234C194.078 65.0234 195.095 65.8049 195.564 66.7426L188.369 69.7904C187.978 67.446 190.246 65.0234 192.592 65.0234Z" fill="#EA4335"/>
<path d="M179.266 77.5656H182.785V53.8086H179.266V77.5656Z" fill="#34A853"/>
<rect opacity="0.9" x="36.5" y="100.5" width="226.961" height="20" rx="10" fill="white" stroke="#E5E9F0"/>
<rect opacity="0.7" x="43" y="107" width="72" height="7" rx="3.5" fill="#B6C1D3"/>
<g opacity="0.9" filter="url(#filter0_ddd_1865_55029)">
<path fill-rule="evenodd" clip-rule="evenodd" d="M228.696 97.254C235.661 106.011 235.669 118.066 229.478 126.743C228.223 128.502 228.061 130.909 229.406 132.6C230.295 133.719 231.754 134.189 233.063 134.764C233.724 135.055 234.326 135.506 234.807 136.11L243.708 147.3C245.288 149.287 244.959 152.178 242.972 153.758C240.986 155.338 238.095 155.009 236.514 153.022L227.614 141.832C227.111 141.2 226.802 140.477 226.677 139.733C226.452 138.383 226.322 136.927 225.47 135.856C224.142 134.187 221.767 133.852 219.833 134.752C209.802 139.417 197.52 136.811 190.329 127.771C181.902 117.176 183.659 101.756 194.254 93.3293C204.849 84.9023 220.269 86.6594 228.696 97.254ZM220.956 126.9C228.903 120.579 230.22 109.014 223.9 101.069C217.58 93.1229 206.015 91.8047 198.069 98.1251C190.122 104.446 188.805 116.011 195.125 123.956C201.445 131.902 213.01 133.22 220.956 126.9Z" fill="#66A1FF"/>
<path d="M229.885 127.033C236.202 118.18 236.195 105.879 229.087 96.9428C220.488 86.132 204.754 84.3391 193.943 92.938C183.132 101.537 181.339 117.272 189.938 128.082C197.276 137.307 209.808 139.966 220.044 135.205C221.812 134.383 223.922 134.713 225.079 136.167C225.443 136.626 225.666 137.181 225.824 137.811C225.943 138.287 226.019 138.774 226.098 139.28C226.126 139.456 226.154 139.634 226.184 139.815C226.322 140.64 226.665 141.443 227.222 142.143L236.123 153.334C237.875 155.536 241.081 155.902 243.283 154.15C245.486 152.398 245.851 149.192 244.099 146.989L235.199 135.799C234.666 135.129 233.998 134.629 233.264 134.306C233.038 134.207 232.817 134.115 232.6 134.024C232.154 133.837 231.725 133.657 231.306 133.442C230.698 133.129 230.18 132.771 229.797 132.289C228.618 130.807 228.733 128.649 229.885 127.033ZM223.509 101.38C229.657 109.11 228.375 120.36 220.645 126.509C212.915 132.657 201.665 131.375 195.516 123.645C189.368 115.915 190.65 104.665 198.38 98.5164C206.11 92.3679 217.36 93.6502 223.509 101.38Z" stroke="white"/>
</g>
<circle cx="209.27" cy="112.271" r="19.2329" fill="white"/>
<path d="M218.095 102.418V119.585H214.122V106.898L210.207 108.042V105.024L217.73 102.418H218.095Z" fill="#0062FF"/>
<path d="M199.73 119.585L201.762 107.26H203.438L201.415 119.585H199.73ZM202.778 119.585L204.809 107.26H206.494L204.462 119.585H202.778ZM207.865 112.33H199.053V110.781H207.865V112.33ZM207.222 116.114H198.418V114.565H207.222V116.114Z" fill="#66A1FF"/>
</g>
<defs>
<filter id="filter0_ddd_1865_55029" x="141.715" y="55.2861" width="146.277" height="153.328" filterUnits="userSpaceOnUse" color-interpolation-filters="sRGB">
<feFlood flood-opacity="0" result="BackgroundImageFix"/>
<feColorMatrix in="SourceAlpha" type="matrix" values="0 0 0 0 0 0 0 0 0 0 0 0 0 0 0 0 0 0 127 0" result="hardAlpha"/>
<feOffset dy="10.5713"/>
<feGaussianBlur stdDeviation="21.1426"/>
<feColorMatrix type="matrix" values="0 0 0 0 0.0156863 0 0 0 0 0.0196078 0 0 0 0 0.0235294 0 0 0 0.03 0"/>
<feBlend mode="normal" in2="BackgroundImageFix" result="effect1_dropShadow_1865_55029"/>
<feColorMatrix in="SourceAlpha" type="matrix" values="0 0 0 0 0 0 0 0 0 0 0 0 0 0 0 0 0 0 127 0" result="hardAlpha"/>
<feOffset dy="7.92848"/>
<feGaussianBlur stdDeviation="6.60707"/>
<feColorMatrix type="matrix" values="0 0 0 0 0.0156863 0 0 0 0 0.0196078 0 0 0 0 0.0235294 0 0 0 0.05 0"/>
<feBlend mode="normal" in2="effect1_dropShadow_1865_55029" result="effect2_dropShadow_1865_55029"/>
<feColorMatrix in="SourceAlpha" type="matrix" values="0 0 0 0 0 0 0 0 0 0 0 0 0 0 0 0 0 0 127 0" result="hardAlpha"/>
<feOffset dy="3.96424"/>
<feGaussianBlur stdDeviation="2.64283"/>
<feColorMatrix type="matrix" values="0 0 0 0 0.0156863 0 0 0 0 0.0196078 0 0 0 0 0.0235294 0 0 0 0.08 0"/>
<feBlend mode="normal" in2="effect2_dropShadow_1865_55029" result="effect3_dropShadow_1865_55029"/>
<feBlend mode="normal" in="SourceGraphic" in2="effect3_dropShadow_1865_55029" result="shape"/>
</filter>
<clipPath id="clip0_1865_55029">
<rect width="300" height="175" fill="white"/>
</clipPath>
</defs>
</svg>
