<svg width="128" height="128" viewBox="0 0 128 128" fill="none" xmlns="http://www.w3.org/2000/svg">
<rect width="128" height="128" fill="white"/>
<path fill-rule="evenodd" clip-rule="evenodd" d="M50.2172 72.0662C49.3344 72.139 48.4549 72.265 47.5711 72.3174C46.6629 72.3707 45.7512 72.336 44.843 72.3859C43.8036 72.4425 42.7677 72.5745 41.7275 72.6261C41.0662 72.659 40.4007 72.6117 39.7368 72.588C39.6835 72.5863 39.6006 72.5026 39.588 72.4434C39.4171 71.6527 39.2556 70.8586 39.0848 70.0332C39.6598 70.0028 40.1884 69.9799 40.7161 69.9453C41.4417 69.8971 42.1673 69.8421 42.892 69.7821C43.1043 69.7635 43.2244 69.6425 43.2328 69.4125C43.265 68.4687 43.2844 67.5241 43.3461 66.5829C43.3867 65.9579 43.4907 65.338 43.5643 64.7165C43.6337 64.1287 43.7428 63.5418 43.7597 62.9532C43.791 61.8378 43.774 60.7207 43.7664 59.6044C43.7656 59.4192 43.7199 59.2314 43.676 59.0496C43.588 58.686 43.3571 58.5549 43.0299 58.7316C42.7415 58.8864 42.4793 59.0961 42.2265 59.3067C41.8814 59.5942 41.5558 59.9063 41.2074 60.2209C40.6806 59.535 40.1639 58.8636 39.6768 58.2301C40.1791 57.5409 40.6713 56.894 41.133 56.2259C41.544 55.6288 41.9127 55.0047 42.3178 54.4043C42.3922 54.2935 42.5402 54.1904 42.6696 54.1667C43.8197 53.9586 44.98 53.8538 46.1495 53.8918C46.2916 53.8961 46.4328 53.9282 46.5724 53.9561C46.6316 53.9679 46.6849 54.0018 46.6849 54.0018C46.6849 55.0326 46.6959 56.0314 46.6823 57.0293C46.6578 58.8576 46.5978 60.6851 46.5901 62.5135C46.5825 64.4137 46.6155 66.3139 46.6434 68.2133C46.646 68.4214 46.7145 68.6345 46.7847 68.8349C46.8827 69.1131 47.0773 69.2603 47.3969 69.2493C48.2595 69.2197 49.1221 69.2078 49.9847 69.1909C50.0997 69.1884 50.2147 69.1909 50.3517 69.1909C50.3585 69.3169 50.3627 69.4226 50.3678 69.5284C50.4024 70.2649 50.432 71.0015 50.4743 71.7373C50.4862 71.9394 50.4616 72.0468 50.2172 72.0662ZM50.2925 68.3233C49.8519 68.3453 49.4105 68.363 48.9707 68.3935C48.8219 68.4036 48.7568 68.3588 48.7432 68.2083C48.7136 67.8674 48.6384 67.5275 48.6443 67.1884C48.657 66.4695 48.7179 65.7507 48.7432 65.0319C48.8024 63.3575 48.8642 61.6839 48.9005 60.0086C48.9268 58.839 48.9073 57.6686 48.9141 56.4974C48.9217 55.261 48.3306 54.2775 47.5957 53.354C47.3927 53.0969 47.1339 52.9827 46.7948 53.0022C45.3022 53.0876 43.8087 53.1544 42.3161 53.2415C42.196 53.2491 42.0421 53.3362 41.9719 53.4352C41.5203 54.0745 41.089 54.7274 40.6493 55.3751C40.1334 56.1346 39.6311 56.9041 39.0941 57.6483C38.8006 58.0542 38.8336 58.4111 39.0848 58.8103C39.8002 59.9477 40.6256 60.9566 41.9153 61.4944C42.558 61.7617 42.3466 61.8606 42.9554 61.376C43.0882 62.2158 42.9656 63.0209 42.8776 63.8243C42.7381 65.1038 42.5216 66.3757 42.6265 67.6721C42.6485 67.9478 42.6087 68.2285 42.5986 68.5068C42.5901 68.7207 42.4785 68.7799 42.2679 68.7952C41.1457 68.8738 40.0235 68.9617 38.9038 69.0658C38.4742 69.1055 38.24 69.377 38.2087 69.8108C38.1968 69.9799 38.1875 70.1592 38.2264 70.3216C38.4083 71.0726 38.6061 71.8193 38.8023 72.566C38.8201 72.6328 38.8607 72.6996 38.908 72.7512C39.4738 73.3677 40.0438 73.9817 40.6112 74.5965C40.7685 74.7665 40.9512 74.8316 41.188 74.8231C43.1043 74.7546 45.0223 74.709 46.9386 74.6311C47.8544 74.5939 48.7669 74.4967 49.6819 74.435C50.2469 74.3961 50.8135 74.3859 51.3775 74.3394C51.9966 74.2887 52.29 73.9935 52.3196 73.3753C52.3534 72.6743 52.3593 71.9715 52.367 71.2696C52.3771 70.3131 52.0211 69.503 51.3894 68.7952C51.09 68.4594 50.734 68.303 50.2925 68.3233Z" fill="#FF6500"/>
<path fill-rule="evenodd" clip-rule="evenodd" d="M84.4947 58.9889C82.6875 61.9301 80.8837 64.8731 79.0722 67.8118C78.2139 69.2046 77.3395 70.5882 76.4549 72.0021C75.6109 71.4118 74.7788 70.83 73.9297 70.2364C74.5158 69.1674 75.0773 68.101 75.6786 67.0566C76.7627 65.175 77.879 63.3111 78.9632 61.4295C79.4452 60.5931 79.8858 59.7339 80.3399 58.8832C80.4482 58.6794 80.5869 58.4637 80.4118 58.2328C80.2139 57.9741 79.9458 57.81 79.616 57.8971C78.3957 58.2193 77.1441 58.2827 75.8959 58.3817C74.6688 58.4781 73.4409 58.5601 72.2138 58.6447C72.0447 58.6557 71.8747 58.6464 71.7259 58.6464C71.6455 57.4794 71.5686 56.3732 71.4891 55.2273C75.8401 54.8721 80.2164 54.8561 84.6241 54.8265C84.7611 55.5529 84.8651 56.2481 85.0292 56.9288C85.2195 57.7229 84.8837 58.3563 84.4947 58.9889ZM86.6453 56.5592C86.6478 55.963 86.4761 55.4488 86.0305 55.0345C85.8664 54.8814 85.7218 54.7072 85.5746 54.5364C85.3759 54.3046 85.1247 54.1736 84.8245 54.1592C83.7725 54.1093 82.7197 54.0146 81.6693 54.0357C79.2837 54.0839 76.898 54.1753 74.5124 54.2801C73.4248 54.3283 72.3407 54.4425 71.2557 54.5414C70.8667 54.5769 70.7364 54.7216 70.7483 55.0996C70.7906 56.3782 70.8354 57.656 70.909 58.9322C70.9208 59.1444 71.0324 59.3973 71.183 59.5453C71.6946 60.0502 72.2384 60.5237 72.7838 60.9931C72.8853 61.0802 73.0595 61.1445 73.1897 61.1292C74.0743 61.0261 74.9547 60.8891 75.8392 60.7825C76.6579 60.6836 77.4807 60.61 78.3027 60.5246C78.3128 60.5584 78.3247 60.5922 78.3365 60.6269C78.2917 60.7022 78.246 60.7766 78.2029 60.8527C76.52 63.7677 74.8464 66.687 73.1517 69.5944C72.772 70.2456 72.6595 70.9154 72.6908 71.657C72.7136 72.1957 72.8929 72.5382 73.3724 72.7835C74.3805 73.301 75.3716 73.8524 76.3703 74.3886C76.7509 74.5932 76.9868 74.5763 77.3133 74.2938C77.4122 74.2076 77.4875 74.0883 77.5543 73.9733C78.2807 72.7099 78.9945 71.4389 79.731 70.1796C81.359 67.3991 82.997 64.6236 84.8677 61.9944C85.2956 61.3939 85.7159 60.7859 86.1032 60.1584C86.5683 59.4083 86.8296 58.5973 86.7087 57.6916C86.6596 57.3178 86.6436 56.9372 86.6453 56.5592Z" fill="#FF6500"/>
<path fill-rule="evenodd" clip-rule="evenodd" d="M34.9914 71.5724C34.2168 71.6561 33.4455 71.7813 32.6692 71.8303C31.7804 71.8853 30.8856 71.8548 29.9952 71.8997C29.2518 71.9369 28.5118 72.0553 27.7685 72.0899C27.0074 72.1263 26.2437 72.1035 25.4809 72.1094C25.3017 72.1111 25.2568 71.9961 25.2298 71.854C25.0902 71.1352 24.9507 70.418 24.8129 69.7034C25.4691 69.6578 26.122 69.6146 26.7748 69.5681C27.267 69.5335 27.7609 69.5039 28.2522 69.4557C28.4476 69.4362 28.571 69.317 28.5786 69.0996C28.6133 68.21 28.6378 67.3195 28.6937 66.4307C28.7266 65.8945 28.8129 65.3626 28.8704 64.8281C28.9389 64.1871 29.0378 63.5461 29.0581 62.9025C29.0903 61.9046 29.07 60.905 29.0641 59.9055C29.0624 59.7101 29.037 59.5114 28.9998 59.3186C28.9406 59.0209 28.7148 58.8907 28.445 59.0327C28.1863 59.1689 27.9452 59.3482 27.7228 59.5393C27.3947 59.8192 27.0894 60.1262 26.7486 60.4467C26.2733 59.8091 25.804 59.1799 25.3245 58.5363C26.3089 57.4539 26.9761 56.1701 27.766 54.9684C27.8488 54.8416 28.0425 54.7299 28.1947 54.7156C29.2036 54.6225 30.2142 54.5498 31.2256 54.4906C31.4201 54.4796 31.6205 54.5566 31.7931 54.5887C31.766 55.8395 31.7262 57.0445 31.7169 58.2505C31.6916 61.4395 31.678 64.6286 31.6645 67.8184C31.6637 67.996 31.6933 68.1762 31.7355 68.3495C31.8489 68.8155 31.996 68.9584 32.4814 68.955C33.2535 68.9491 34.0256 68.9017 34.7986 68.873C34.8696 68.8705 34.9415 68.873 35.0675 68.873C35.0675 69.0472 35.0624 69.1977 35.0684 69.3491C35.0971 70.0231 35.1225 70.698 35.1614 71.3711C35.1698 71.5157 35.1301 71.5572 34.9914 71.5724ZM36.1948 68.7452C35.8218 68.2082 35.3381 67.9858 34.6903 68.0712C34.3445 68.1177 33.9935 68.1186 33.602 68.1423C33.5656 67.749 33.4912 67.3752 33.5039 67.004C33.5495 65.6898 33.6502 64.3782 33.6823 63.0648C33.7313 61.0479 33.7423 59.0301 33.7669 57.0123C33.7821 55.8309 33.2578 54.8618 32.5525 53.9671C32.4045 53.7793 32.2227 53.6373 31.9571 53.6516C30.5634 53.726 29.1689 53.7945 27.7761 53.88C27.6577 53.8867 27.5063 53.9814 27.437 54.0821C27.07 54.6149 26.7249 55.1637 26.3697 55.7058C25.8564 56.488 25.3516 57.277 24.8205 58.0474C24.5702 58.4102 24.5854 58.7341 24.8036 59.0952C25.4505 60.1659 26.1913 61.1282 27.3905 61.6475C27.9985 61.9105 27.7786 61.9722 28.3106 61.5638L28.4053 61.5798C28.3647 62.2767 28.3461 62.976 28.2776 63.6712C28.1507 64.9608 27.9317 66.242 28.0315 67.5461C28.0493 67.7778 28.0137 68.0129 28.0027 68.2463C27.9943 68.4306 27.9089 68.4983 27.7144 68.5127C26.7173 68.5845 25.722 68.681 24.7258 68.7554C24.2632 68.79 24.116 68.982 24.0238 69.4251C23.9968 69.5537 23.99 69.6991 24.0179 69.8268C24.1845 70.571 24.3621 71.3127 24.5397 72.0552C24.5541 72.1152 24.5837 72.1778 24.6243 72.2226C25.1697 72.8332 25.7143 73.4455 26.2733 74.0442C26.3537 74.1296 26.5093 74.188 26.6294 74.1871C27.7194 74.177 28.8112 74.1821 29.8987 74.1229C31.9284 74.0138 33.9554 73.8649 35.9842 73.7313C36.5035 73.6966 36.8164 73.3939 36.84 72.8358C36.8713 72.0806 36.8781 71.3228 36.8646 70.5677C36.8519 69.8894 36.5779 69.2991 36.1948 68.7452Z" fill="#FF6500"/>
<path fill-rule="evenodd" clip-rule="evenodd" d="M100.914 68.634C100.626 69.7714 100.147 70.8057 99.2704 71.6226C98.5634 72.2806 97.727 72.6763 96.7908 72.8801C95.7261 73.1119 94.6564 73.1643 93.5925 72.9064C92.362 72.607 91.3641 71.9313 90.6487 70.8869C89.7616 69.5913 88.9844 68.2272 88.6377 66.678C88.461 65.889 88.4204 65.0678 88.3214 64.261C88.3011 64.091 88.3087 63.9185 88.2927 63.7486C88.2275 63.0627 88.2994 62.3946 88.4762 61.7265C88.718 60.8056 88.9142 59.872 89.1307 58.9443C89.4081 57.7646 89.8521 56.6593 90.669 55.7426C91.48 54.8309 92.5151 54.337 93.7185 54.1544C94.9185 53.9734 96.0932 54.036 97.1705 54.6144C99.201 55.7037 100.519 57.3612 100.913 59.6639C101.089 60.6948 101.18 61.7409 101.293 62.7819C101.352 63.3266 101.374 63.8746 101.413 64.4217C101.358 65.8416 101.264 67.253 100.914 68.634ZM103.999 65.6124C103.852 64.0894 103.725 62.5646 103.552 61.0441C103.395 59.6555 102.894 58.3963 101.972 57.324C101.409 56.6686 100.833 56.0233 100.283 55.3569C99.848 54.8326 99.327 54.4123 98.7114 54.1518C98.0272 53.8635 97.3219 53.5996 96.5997 53.4347C95.7261 53.2343 94.8289 53.1286 93.9232 53.2935C91.1992 53.7907 89.3895 55.3814 88.3578 57.9168C87.8064 59.2732 87.5299 60.6881 87.4275 62.1409C87.2694 64.382 87.403 66.5926 88.2707 68.6966C89.4047 71.4493 91.294 73.4239 94.2242 74.2518C95.5866 74.6366 96.9879 74.8007 98.3909 74.5064C100.49 74.0666 101.955 72.7541 102.853 70.8734C103.638 69.2311 104.027 67.4619 103.999 65.6124Z" fill="#FF6500"/>
<path fill-rule="evenodd" clip-rule="evenodd" d="M67.1262 69.3763C67.0822 70.0224 66.8141 70.5974 66.5655 71.1818C65.8991 72.7446 64.5925 73.4863 63.045 73.8812C62.3997 74.0453 61.724 74.0892 61.0619 74.1873C61.0593 74.1662 61.0559 74.1442 61.0534 74.1214C59.6614 74.1366 58.3439 73.8592 57.187 73.0541C55.8796 72.1442 55.0669 70.8774 54.7134 69.3374C54.3633 67.8126 54.365 66.2794 54.7996 64.764C54.9688 64.1779 55.2411 63.6604 55.7527 63.2781C56.1772 62.9618 56.1891 62.6828 55.8356 62.2608C55.3214 61.6477 54.9975 60.9551 54.8994 60.161C54.7252 58.7563 54.9426 57.4278 55.7045 56.2167C56.4039 55.1064 57.3417 54.2945 58.6508 53.9994C60.2399 53.6425 61.7485 53.9081 63.1549 54.7013C64.6213 55.5284 65.757 56.6734 66.2839 58.3106C66.8175 59.9707 66.5993 61.536 65.5033 62.9238C65.2293 63.2697 64.8665 63.5538 64.5156 63.8312C64.1376 64.1297 64.1164 64.232 64.4471 64.5923C65.1887 65.3982 65.9532 66.1864 66.5165 67.1378C66.9258 67.827 67.1812 68.5602 67.1262 69.3763ZM67.089 64.5475C68.0953 63.6883 68.47 63.1133 68.6602 61.8177C68.7659 61.0938 68.7845 60.3429 68.7372 59.6113C68.6087 57.6071 67.7063 56.0536 65.9397 55.0244C64.6619 54.2802 63.2691 53.8278 61.8889 53.3347C61.0509 53.0345 60.2196 52.9474 59.3443 53.076C57.7147 53.3145 56.3311 53.9741 55.2546 55.2603C53.7848 57.0177 53.4271 60.9061 55.0449 62.6964C54.3709 63.5243 54.0842 64.0528 53.8888 64.8858C53.5404 66.3734 53.5379 67.871 53.8406 69.3628C54.1688 70.9814 54.9248 72.3776 56.299 73.329C58.6407 74.951 61.2115 75.5117 64.0234 74.8428C65.6556 74.4546 67.0602 73.7459 68.026 72.3108C68.5816 71.4863 69.0636 70.6322 69.1194 69.6191C69.2048 68.0799 68.7761 66.6812 67.845 65.4482C67.6082 65.1361 67.3418 64.8469 67.089 64.5475Z" fill="#FF6500"/>
<path fill-rule="evenodd" clip-rule="evenodd" d="M98.047 66.7344C98.025 67.5885 97.7941 68.3927 97.3857 69.1479C96.5924 70.6118 94.8385 70.1763 94.2085 69.2959C93.8321 68.7691 93.6444 68.1729 93.57 67.5462C93.285 65.1259 93.7772 62.8367 94.7988 60.6472C95.033 60.1474 95.3417 59.6933 95.7687 59.3322C96.0487 59.0962 96.3599 58.9322 96.7345 58.9043C97.2081 58.8696 97.5091 59.0768 97.6174 59.5275C98.0529 61.3432 98.0529 61.3432 98.0521 64.2219C98.0521 65.0591 98.069 65.8972 98.047 66.7344ZM98.0673 57.9597C97.0846 56.6675 95.6707 56.3969 94.3844 56.5661C93.57 56.6735 92.9704 57.1851 92.5222 57.8591C91.6275 59.2012 91.2681 60.7116 91.192 62.2955C91.1395 63.3644 91.2216 64.43 91.3992 65.4879C91.5928 66.6465 91.9074 67.767 92.4368 68.8165C92.8393 69.6148 93.3789 70.2981 94.2237 70.6804C94.9129 70.9924 95.6343 70.9654 96.3599 70.8656C97.3155 70.7336 98.0681 70.3218 98.3185 69.3188C98.5612 68.3438 98.8047 67.3653 98.9646 66.375C99.1472 65.2452 99.2386 64.1002 99.3561 63.0854C99.2724 62.1999 99.2352 61.4456 99.1236 60.7023C98.9764 59.7162 98.6855 58.7716 98.0673 57.9597Z" fill="#FF6500"/>
<path fill-rule="evenodd" clip-rule="evenodd" d="M62.6897 70.896C62.2871 71.1641 61.926 71.2647 61.3899 71.2732C61.1235 71.241 60.8529 71.2292 60.5907 71.1742C59.8778 71.0237 59.5387 70.5552 59.4152 69.8491C59.2173 68.7201 59.7873 67.4955 60.8097 67.0034C61.5117 66.6659 62.2347 66.6913 62.9518 66.9568C63.4195 67.1294 63.6199 67.5209 63.7383 67.9759C64.0588 69.2063 63.6977 70.2211 62.6897 70.896ZM62.0191 64.5661C61.3155 64.276 60.5806 64.1484 59.8203 64.1357C59.5886 64.1534 59.3518 64.1484 59.1252 64.1915C58.4275 64.3259 57.9438 64.7699 57.581 65.3467C56.9425 66.3657 56.6972 67.4795 56.7945 68.6786C56.8867 69.8093 57.3907 70.6829 58.3395 71.3011C59.0922 71.7932 59.9319 71.9708 60.8123 72.0723C61.8263 72.1899 62.7379 72.0165 63.5176 71.3425C64.2466 70.7133 64.7083 69.9438 64.6973 68.9416C64.6863 67.986 64.3455 67.1251 63.9244 66.2947C63.5151 65.4837 62.8605 64.9128 62.0191 64.5661Z" fill="#FF6500"/>
<path fill-rule="evenodd" clip-rule="evenodd" d="M60.0643 58.5982C60.6216 58.0494 61.5654 57.8887 62.269 58.2253C62.8449 58.5018 62.9396 59.0219 62.9286 59.5885C62.9159 60.3623 62.7214 61.0786 62.2411 61.6993C61.7091 62.3869 60.4888 62.5332 59.803 61.9953C59.5484 61.7957 59.4359 61.515 59.3751 61.2088C59.1772 60.2262 59.3218 59.3306 60.0643 58.5982ZM60.8745 63.1632C61.5231 63.2004 62.0998 63.0405 62.57 62.5796C63.4461 61.7238 63.803 60.6557 63.8419 59.3788C63.8259 59.2308 63.7988 59.0084 63.7776 58.786C63.611 57.0303 62.3079 55.5149 60.2309 55.5512C59.0605 55.5724 58.1894 56.0646 57.5687 57.0363C57.1865 57.635 57.0148 58.3014 56.9353 59.0024C56.8254 59.9707 57.0435 60.8367 57.6989 61.5691C58.5463 62.5154 59.584 63.0896 60.8745 63.1632Z" fill="#FF6500"/>
</svg>
