<svg width="128" height="128" viewBox="0 0 128 128" fill="none" xmlns="http://www.w3.org/2000/svg">
<rect width="128" height="128" fill="white"/>
<path fill-rule="evenodd" clip-rule="evenodd" d="M78.5058 65.56C78.675 65.4769 78.675 65.2283 78.5904 65.0611L74.7825 60.5713L74.444 61.2364L78.0827 65.56C78.1673 65.7272 78.3365 65.7272 78.5058 65.56Z" fill="#A6BF3E"/>
<path fill-rule="evenodd" clip-rule="evenodd" d="M62.0895 45.7713C62.6819 45.1062 62.5972 44.0253 61.8357 43.4433C61.1587 42.8612 60.0586 42.9444 59.4663 43.6927C58.874 44.3579 58.9586 45.4388 59.7202 46.0208C60.2279 46.4365 60.9048 46.5197 61.4972 46.1871L65.6436 51.0927C65.7282 51.259 65.9821 51.259 66.1513 51.1758C66.3205 51.0927 66.3205 50.8432 66.2359 50.6769V50.5938L62.0895 45.7713Z" fill="#A6BF3E"/>
<path fill-rule="evenodd" clip-rule="evenodd" d="M58.9585 75.5373L44.9961 81.9404C43.9807 80.4438 41.9498 80.1103 40.4266 81.1081C38.9035 82.1058 38.565 84.1022 39.5804 85.5988C40.5959 87.0955 42.6268 87.4271 44.1499 86.4294C45.4192 85.5988 45.927 83.9359 45.3346 82.5225L59.297 76.1202C59.4662 76.1202 59.6354 75.8699 59.5508 75.7045C59.5508 75.5373 59.297 75.371 59.1277 75.4541C59.0431 75.5373 59.0431 75.5373 58.9585 75.5373Z" fill="#A6BF3E"/>
<path fill-rule="evenodd" clip-rule="evenodd" d="M86.4601 40.2008C84.0061 39.4525 81.3838 40.8659 80.7059 43.2772C79.9443 45.6884 81.3838 48.2659 83.8368 48.9311L78.675 66.6411L72.5823 69.3849C72.414 69.3849 72.2439 69.6343 72.3285 69.8006C72.3285 69.9669 72.5823 70.1332 72.7516 70.0501C72.8362 70.0501 72.8362 70.0501 72.9218 69.9669L79.1827 67.14C79.352 67.0568 79.4366 66.9737 79.352 66.8074L84.5138 49.0974C87.0524 49.5131 89.4218 47.9333 89.9295 45.4389C90.3526 43.0277 88.8304 40.7828 86.4601 40.2008Z" fill="#A6BF3E"/>
<path fill-rule="evenodd" clip-rule="evenodd" d="M84.8523 75.3713L79.7751 66.641L79.6905 66.725L79.352 67.3071L84.3446 75.7038C83.4993 76.369 83.3291 77.6162 84.0907 78.4476C84.7677 79.2791 86.037 79.4454 86.8832 78.698C87.7303 77.9488 87.8986 76.7847 87.137 75.9533C86.4601 75.3713 85.6148 75.1218 84.8523 75.3713Z" fill="#A6BF3E"/>
<path fill-rule="evenodd" clip-rule="evenodd" d="M23.5206 52.5891V56.0395H25.7768V68.1581H29.7042V52.5891H23.5206Z" fill="#0C7EC1"/>
<path fill-rule="evenodd" clip-rule="evenodd" d="M16 52.5891V56.0395H18.1726V68.1581H22.1835V52.5891H16Z" fill="#0C7EC1"/>
<path fill-rule="evenodd" clip-rule="evenodd" d="M41.1519 65.3811C40.9012 65.4652 40.6505 65.4652 40.3998 65.3811C39.3971 65.1286 38.8122 64.2029 38.9793 63.193C39.1464 62.1831 40.1491 61.594 41.1519 61.7623C42.1546 62.0148 42.7395 62.9405 42.5724 63.9504C42.4053 64.7078 41.9039 65.2969 41.1519 65.3811ZM40.8176 54.7773C41.8204 54.7773 42.5724 55.5347 42.5724 56.4604C42.5724 57.4703 41.8204 58.2277 40.9012 58.2277C39.982 58.2277 39.1464 57.4703 39.1464 56.5446V56.4604C39.0628 55.5347 39.8149 54.7773 40.8176 54.7773ZM45.3299 61.0049C44.8286 60.5841 44.2436 60.2475 43.6587 60.0792V59.995C45.1628 59.4901 46.082 58.0594 46.082 56.4604C46.082 53.5149 43.4916 52.0001 40.8176 52.0001C38.1437 52.0001 35.5533 53.4308 35.5533 56.4604C35.5533 58.0594 36.556 59.4901 37.9765 59.995V60.0792C37.3916 60.3316 36.8067 60.5841 36.3053 61.0891C35.3861 61.8465 34.8848 63.0247 34.9683 64.2029C34.9683 64.6236 35.0519 65.1286 35.1355 65.5494C35.8875 67.8216 38.5615 68.9157 40.8176 68.9157C43.0738 68.9157 45.7478 67.8216 46.4998 65.5494C46.6669 65.1286 46.7505 64.6236 46.6669 64.2029C46.6669 62.9405 46.1656 61.7623 45.3299 61.0049Z" fill="#0C7EC1"/>
<path fill-rule="evenodd" clip-rule="evenodd" d="M54.0202 65.4651C53.7695 65.5493 53.5188 65.5493 53.2681 65.4651C52.2654 65.2127 51.6804 64.2869 51.8476 63.277C52.0982 62.2672 53.0174 61.6781 54.0202 61.8464C55.0229 62.0988 55.6078 63.0246 55.4407 64.0345C55.2736 64.7077 54.7722 65.2968 54.0202 65.4651ZM53.6859 54.7772C54.6886 54.7772 55.4407 55.5346 55.4407 56.4603C55.4407 57.4702 54.6886 58.2276 53.7695 58.2276C52.7667 58.2276 52.0147 57.4702 52.0147 56.5445V56.4603C51.9311 55.5346 52.7667 54.7772 53.6859 54.7772ZM58.1982 61.0048C57.6969 60.584 57.1119 60.2474 56.527 60.0791V59.9949C58.0311 59.49 58.9503 58.0593 58.9503 56.4603C58.9503 53.5148 56.3599 52 53.6859 52C51.0119 52 48.4215 53.4307 48.4215 56.4603C48.4215 58.0593 49.4243 59.49 50.8448 59.9949V60.0791C50.2599 60.3315 49.675 60.6682 49.1736 61.089C48.2544 61.8464 47.7531 63.0246 47.8366 64.2028C47.8366 64.6236 47.9202 65.1285 48.0037 65.5493C48.7558 67.8225 51.4298 68.9156 53.6859 68.9156C55.9421 68.9156 58.616 67.8225 59.3681 65.5493C59.5352 65.1285 59.6188 64.6236 59.5352 64.2028C59.6188 62.9404 59.1174 61.7622 58.1982 61.0048Z" fill="#0C7EC1"/>
<path fill-rule="evenodd" clip-rule="evenodd" d="M77 60.5001C77 56.3764 74.9945 52.0003 70.3151 52.0003H69.4785L69.1452 52.0844H69.0607L68.811 52.1686H68.7274C65.384 53.0102 63.7973 56.4606 63.6302 59.911V60.5001C63.6302 64.6238 65.6357 69 70.3151 69H71.1498L71.485 68.9158H71.5676L71.8192 68.8317H71.9028C75.2443 67.9901 76.832 64.5397 77 61.0892V60.5001ZM67.7247 60.5001C67.7247 58.9853 68.2261 55.5349 70.3151 55.5349C72.4041 55.5349 72.9055 58.7328 72.9055 60.3318V60.5001C72.9055 62.015 72.4041 65.4654 70.3151 65.4654C68.2261 65.4654 67.7247 62.2674 67.7247 60.6684V60.5001Z" fill="#0C7EC1"/>
<path fill-rule="evenodd" clip-rule="evenodd" d="M18.9207 70.5412C19.9252 70.5412 20.4274 70.8646 20.4274 72.2439C20.4274 73.6223 19.7578 73.9457 18.9207 73.9457H18.0837C18 73.9457 18 73.9457 18 73.8647V70.7034C18 70.6223 18 70.6223 18.0837 70.6223H18.9207V70.5412ZM18.8371 73.3782C19.423 73.3782 19.5904 73.1358 19.5904 72.1628C19.5904 71.1899 19.3393 71.0277 18.8371 71.0277H18.6696V73.298L18.8371 73.3782Z" fill="#31307C"/>
<path fill-rule="evenodd" clip-rule="evenodd" d="M22.6873 74.0269C22.6036 74.0269 22.5198 73.8648 22.4361 73.7035C22.2687 73.8648 22.0176 74.0269 21.7665 74.0269C21.348 74.0269 21.0132 73.7837 21.0132 73.3783V73.2972C21.0132 72.4864 21.9339 72.4864 22.3524 72.4864V72.3242C22.3524 72.0819 22.2687 71.9999 22.0176 71.9999C21.7665 71.9999 21.5991 72.0819 21.4317 72.163C21.4317 72.163 21.348 72.163 21.348 72.0819L21.2643 71.7566V71.6765C21.2643 71.5954 21.7665 71.4323 22.185 71.4323C22.771 71.4323 23.0221 71.6765 23.0221 72.244V73.1359C23.0221 73.3783 23.1058 73.5404 23.1895 73.7837L23.1058 73.8648L22.6873 74.0269ZM22.4361 72.8107C22.2687 72.8107 21.6828 72.7305 21.6828 73.217C21.6828 73.3783 21.8502 73.5405 22.0176 73.5405C22.185 73.5405 22.2687 73.4594 22.4361 73.3783V72.8107Z" fill="#31307C"/>
<path fill-rule="evenodd" clip-rule="evenodd" d="M26.4538 72.6492C26.5375 72.8924 26.5375 73.2167 26.5375 73.4591C26.5375 73.2167 26.6212 72.9726 26.6212 72.7303L26.8723 71.5951C26.8723 71.5131 26.8723 71.5131 26.956 71.5131H27.3745C27.4582 71.5131 27.4582 71.5131 27.4582 71.5951L27.7093 72.7303C27.793 72.9726 27.793 73.2167 27.793 73.4591C27.793 73.2167 27.8767 72.8924 27.8767 72.6492L28.1278 71.5951C28.1278 71.5131 28.1278 71.5131 28.2115 71.5131H28.379L28.7138 71.5951C28.7975 71.5951 28.7975 71.5951 28.7975 71.6762V71.7573L28.1278 73.9456C28.1278 74.0267 28.1278 74.0267 28.0441 74.0267H27.6256C27.5419 73.9456 27.5419 73.9456 27.5419 73.8654L27.2908 72.6492C27.2908 72.4861 27.2071 72.2438 27.2071 72.0816C27.2071 72.2438 27.1234 72.4861 27.1234 72.6492L26.7886 73.8654C26.7886 73.9456 26.7886 73.9456 26.7049 73.9456H26.2863C26.2026 73.9456 26.2026 73.9456 26.2026 73.8654L25.6167 71.5951V71.5131C25.6167 71.5131 25.6167 71.432 25.7004 71.432L26.1189 71.3519H26.2026L26.2863 71.432L26.4538 72.6492Z" fill="#31307C"/>
<path fill-rule="evenodd" clip-rule="evenodd" d="M31.3924 73.7032C31.3924 73.8653 30.8902 74.0266 30.4717 74.0266C29.802 74.0266 29.2998 73.6221 29.2998 72.7302C29.2998 71.9194 29.7183 71.432 30.388 71.432C31.225 71.432 31.3924 72.1626 31.3924 72.8113C31.3924 72.8923 31.3924 72.9725 31.3087 72.9725H29.9694C29.9694 73.2167 30.0531 73.5401 30.5554 73.5401C30.8065 73.5401 30.9739 73.459 31.225 73.3788C31.225 73.3788 31.3087 73.3788 31.3087 73.459L31.3924 73.7032ZM30.7228 72.4059C30.7228 72.2437 30.7228 71.8383 30.3879 71.8383C30.0531 71.8383 29.9694 72.2437 29.9694 72.4059H30.7228Z" fill="#31307C"/>
<path fill-rule="evenodd" clip-rule="evenodd" d="M32.9827 73.865C32.9827 73.9461 32.9827 73.9461 32.9827 73.865L32.3968 73.9461C32.3131 73.9461 32.3131 73.9461 32.3131 73.865V72.4056C32.3131 72.1623 32.2293 71.9191 32.1456 71.6758L32.2293 71.5948L32.6479 71.4326H32.7316C32.8153 71.4326 32.899 71.6758 32.899 71.838C33.0664 71.5948 33.2338 71.5137 33.4849 71.4326C33.6523 71.4326 33.8197 71.5137 33.8197 71.5137V71.5948L33.6523 72.0002C33.6523 72.0002 33.6523 72.0822 33.5686 72.0822C33.4849 72.0822 33.4012 72.0002 33.3175 72.0002C33.1501 72.0002 32.9827 72.1623 32.899 72.2434L32.9827 73.865Z" fill="#31307C"/>
<path fill-rule="evenodd" clip-rule="evenodd" d="M35.9127 74.0269C35.829 74.0269 35.7453 73.8648 35.6616 73.7035C35.4942 73.8648 35.2431 74.0269 34.992 74.0269C34.406 74.0269 34.1549 73.5405 34.1549 72.8107C34.1549 71.9188 34.4897 71.4323 35.1594 71.4323C35.3268 71.4323 35.4942 71.5134 35.6616 71.5954V70.6224C35.6616 70.5413 35.6616 70.5413 35.7453 70.5413L36.1638 70.4594H36.2475C36.3312 70.4594 36.3312 70.4594 36.3312 70.5413V73.136C36.3312 73.3783 36.3312 73.5405 36.4149 73.7837L36.3312 73.8648L35.9127 74.0269ZM35.6616 71.9999C35.5779 71.9188 35.4105 71.9188 35.3268 71.9188C34.9082 71.9188 34.9082 72.163 34.9082 72.7305C34.9082 73.2972 34.9919 73.5405 35.3268 73.5405C35.4942 73.5405 35.5779 73.4594 35.7453 73.3783V71.9999H35.6616Z" fill="#31307C"/>
<path fill-rule="evenodd" clip-rule="evenodd" d="M39.177 73.7032C39.177 73.8653 38.6747 74.0266 38.2562 74.0266C37.5866 74.0266 37.0844 73.6221 37.0844 72.7302C37.0844 71.9194 37.5029 71.432 38.1725 71.432C39.0096 71.432 39.177 72.1626 39.177 72.8113C39.177 72.8923 39.177 72.9725 39.0933 72.9725H37.754C37.754 73.2167 37.8377 73.5401 38.3399 73.5401C38.591 73.5401 38.7585 73.459 39.0096 73.3788C39.0096 73.3788 39.0933 73.3788 39.0933 73.459L39.177 73.7032ZM38.5911 72.4059C38.5911 72.2437 38.5911 71.8383 38.2562 71.8383C37.9214 71.8383 37.8377 72.2437 37.8377 72.4059H38.5911Z" fill="#31307C"/>
<path fill-rule="evenodd" clip-rule="evenodd" d="M42.1905 73.8651C42.1905 73.9461 42.1905 73.9461 42.1905 73.8651L41.6046 73.9461C41.5209 73.9461 41.5209 73.9461 41.5209 73.8651V72.3245C41.5209 72.1623 41.5209 71.9191 41.2698 71.9191C41.1024 71.9191 40.9349 72.0002 40.8512 72.0822V73.784C40.8512 73.8651 40.8512 73.8651 40.7675 73.8651H40.2653C40.1816 73.8651 40.1816 73.8651 40.1816 73.784V72.3245C40.1816 72.0822 40.1816 71.838 40.0979 71.5137C40.0979 71.5137 40.0979 71.4326 40.1816 71.4326L40.6001 71.2704H40.6838C40.7675 71.2704 40.7675 71.3515 40.8512 71.5948C41.0187 71.3515 41.3535 71.2704 41.6046 71.2704C41.8557 71.2704 42.2742 71.4326 42.2742 72.0002L42.1905 73.8651Z" fill="#31307C"/>
<path fill-rule="evenodd" clip-rule="evenodd" d="M46.7105 71.1896C46.4593 71.1085 46.2082 71.0274 45.9571 71.0274C45.706 71.0274 45.4549 71.1085 45.4549 71.4329C45.4549 71.7572 46.0408 71.8383 46.4593 72.1626C46.7105 72.3247 46.8779 72.6491 46.8779 72.9725C46.8779 73.5401 46.4593 74.0266 45.8734 74.0266H45.7897C45.3712 74.0266 45.0364 73.9464 44.7016 73.7031V73.6221L44.7853 73.2977C44.7853 73.2977 44.7853 73.2166 44.869 73.2166C45.1201 73.3788 45.4549 73.3788 45.706 73.4599C45.9571 73.4599 46.1245 73.2977 46.1245 73.1356V73.0545C46.1245 72.6491 45.6223 72.568 45.1201 72.2437C44.7853 72.0815 44.6179 71.7572 44.7016 71.513C44.7016 70.9455 45.1201 70.541 45.706 70.541H45.8734C46.2082 70.541 46.543 70.622 46.8779 70.8653V70.9455L46.7105 71.1896Z" fill="#31307C"/>
<path fill-rule="evenodd" clip-rule="evenodd" d="M48.6355 73.865C48.6355 73.9461 48.6355 73.9461 48.6355 73.865L48.0495 73.9461C47.9658 73.9461 47.9658 73.9461 47.9658 73.865V72.0002H47.5473C47.4636 72.0002 47.4636 72.0002 47.4636 71.9191V71.5948C47.4636 71.5137 47.4636 71.5137 47.5473 71.5137H48.5518C48.6355 71.5137 48.6355 71.5137 48.6355 71.5948V73.865ZM48.3006 71.1894C48.0495 71.1894 47.8821 71.0281 47.8821 70.7839C47.8821 70.5416 48.0495 70.3785 48.3006 70.3785C48.5518 70.3785 48.7192 70.5416 48.7192 70.7839C48.7192 71.0281 48.5518 71.1894 48.3006 71.1894Z" fill="#31307C"/>
<path fill-rule="evenodd" clip-rule="evenodd" d="M51.565 73.7032C51.565 73.8653 51.0628 74.0266 50.6443 74.0266C49.9746 74.0266 49.4724 73.6221 49.4724 72.7302C49.4724 71.9194 49.8909 71.432 50.5606 71.432C51.3976 71.432 51.565 72.1626 51.565 72.8113C51.565 72.8923 51.565 72.9725 51.4813 72.9725H50.0583C50.0583 73.2167 50.142 73.5401 50.6443 73.5401C50.8954 73.5401 51.0628 73.459 51.3139 73.3788C51.3139 73.3788 51.3976 73.3788 51.3976 73.459L51.565 73.7032ZM50.9791 72.4059C50.9791 72.2437 50.9791 71.8383 50.6443 71.8383C50.3095 71.8383 50.2257 72.2437 50.2257 72.4059H50.9791Z" fill="#31307C"/>
<path fill-rule="evenodd" clip-rule="evenodd" d="M56.2525 74.109C56.2525 74.6766 56.0013 75 55.248 75C54.8295 75 54.1599 74.8378 54.1599 74.7568V74.6766L54.2436 74.3513C54.2436 74.3513 54.2436 74.2703 54.3273 74.2703C54.5784 74.3513 54.8295 74.4324 55.1643 74.4324C55.4991 74.4324 55.5828 74.2703 55.5828 74.027V73.7036C55.4154 73.8649 55.1643 73.8649 54.9969 73.8649C54.411 73.8649 54.1599 73.3784 54.1599 72.6495C54.1599 71.9189 54.4947 71.3513 55.0806 71.3513C55.3317 71.3513 55.4991 71.4324 55.6665 71.5955C55.6665 71.5135 55.7502 71.3513 55.8339 71.3513H55.9176L56.3362 71.5135C56.3362 71.5135 56.4199 71.5135 56.4199 71.5955C56.3362 71.7567 56.2525 72 56.2525 72.2432V74.109ZM55.6665 72.082C55.5828 72 55.4154 71.9189 55.248 71.9189C54.9132 71.9189 54.8295 72.163 54.8295 72.6495C54.8295 73.136 54.9132 73.3784 55.248 73.3784C55.4154 73.3784 55.5828 73.2973 55.6665 73.2171V72.082Z" fill="#31307C"/>
<path fill-rule="evenodd" clip-rule="evenodd" d="M59.0985 73.7032C59.1822 73.7032 59.1822 73.7032 59.0985 73.7032C59.0985 73.8653 58.5963 74.0266 58.1777 74.0266C57.5081 74.0266 57.0059 73.6221 57.0059 72.7302C57.0059 71.9194 57.4244 71.432 58.094 71.432C58.9311 71.432 59.0985 72.1626 59.0985 72.8113C59.0985 72.8923 59.0985 72.9725 59.0148 72.9725H57.6755C57.6755 73.2167 57.7592 73.5401 58.2614 73.5401C58.5126 73.5401 58.68 73.459 58.9311 73.3788C58.9311 73.3788 59.0148 73.3788 59.0148 73.459L59.0985 73.7032ZM58.5126 72.4059C58.5126 72.2437 58.5125 71.8383 58.1777 71.8383C57.8429 71.8383 57.7592 72.2437 57.7592 72.4059H58.5126Z" fill="#31307C"/>
<path fill-rule="evenodd" clip-rule="evenodd" d="M62.112 73.865C62.112 73.9461 62.112 73.9461 62.112 73.865L61.5261 73.9461C61.4424 73.9461 61.4424 73.9461 61.4424 73.865V72.3245C61.4424 72.1623 61.4424 71.9191 61.1913 71.9191C61.0239 71.9191 60.8565 72.0002 60.7727 72.1623V73.865C60.7727 73.9461 60.7727 73.9461 60.689 73.9461H60.1868C60.1031 73.9461 60.1031 73.9461 60.1031 73.865V70.5416C60.1031 70.4596 60.1031 70.4596 60.1868 70.4596L60.6053 70.3785H60.689C60.7727 70.3785 60.7727 70.3785 60.7727 70.4596V71.6758C60.9402 71.5137 61.1913 71.4326 61.4424 71.4326C61.9446 71.4326 62.112 71.7569 62.112 72.2434V73.865Z" fill="#31307C"/>
<path fill-rule="evenodd" clip-rule="evenodd" d="M64.1206 74.0269C63.451 74.0269 63.0325 73.5404 63.0325 72.7305C63.0325 71.9188 63.451 71.4323 64.1206 71.4323C64.7903 71.4323 65.2088 71.9188 65.2088 72.7305C65.2088 73.5404 64.7903 74.0269 64.1206 74.0269ZM64.5392 72.7305C64.5392 72.244 64.4555 71.9188 64.1206 71.9188C63.7858 71.9188 63.7021 72.244 63.7021 72.7305C63.7021 73.217 63.7858 73.5404 64.1206 73.5404C64.4555 73.5404 64.5392 73.1359 64.5392 72.7305Z" fill="#31307C"/>
<path fill-rule="evenodd" clip-rule="evenodd" d="M67.2178 73.865C67.2178 73.9461 66.9667 74.0272 66.7156 74.0272C66.1296 74.0272 66.1296 73.5407 66.1296 73.0551V70.5416C66.1296 70.4596 66.1296 70.4596 66.2133 70.4596L66.6319 70.3785H66.7156C66.7993 70.3785 66.7993 70.3785 66.7993 70.4596V73.1353C66.7993 73.2975 66.7993 73.4596 66.9667 73.4596C67.0504 73.4596 67.1341 73.4596 67.1341 73.3786H67.2178V73.865Z" fill="#31307C"/>
<path fill-rule="evenodd" clip-rule="evenodd" d="M68.7246 73.7841C68.7246 73.8652 68.7246 73.8652 68.6409 73.8652H68.2223C68.1386 73.8652 68.1386 73.8652 68.1386 73.7841V71.9193H67.7201C67.6364 71.9193 67.6364 71.9193 67.6364 71.8382V71.5949C67.6364 71.513 67.6364 71.513 67.7201 71.513H68.0549V71.3517C68.0549 70.7841 68.2223 70.4598 68.892 70.4598C69.1431 70.4598 69.4779 70.5409 69.4779 70.622V70.703L69.3942 70.9463C69.3942 70.9463 69.3942 71.0274 69.3105 71.0274C69.2268 70.9463 69.0594 70.9463 68.9757 70.9463C68.7246 70.9463 68.7246 71.1085 68.7246 71.3517V71.513H69.3942V71.5949L69.3105 71.9193C69.3105 72.0004 69.2268 72.0004 69.2268 72.0004H68.7246V73.7841Z" fill="#31307C"/>
<path fill-rule="evenodd" clip-rule="evenodd" d="M71.9888 73.7032C71.9888 73.8653 71.4866 74.0266 71.0681 74.0266C70.3985 74.0266 69.8962 73.6221 69.8962 72.7302C69.8962 71.9194 70.3148 71.432 70.9844 71.432C71.8214 71.432 71.9888 72.1626 71.9888 72.8113C71.9888 72.8923 71.9888 72.9725 71.9051 72.9725H70.5668C70.5668 73.2167 70.6505 73.5401 71.1527 73.5401C71.4029 73.5401 71.5703 73.459 71.8214 73.3788C71.8214 73.3788 71.9051 73.3788 71.9051 73.459L71.9888 73.7032ZM71.4029 72.4059C71.4029 72.2437 71.4029 71.8383 71.0681 71.8383C70.7333 71.8383 70.6505 72.2437 70.6505 72.4059H71.4029Z" fill="#31307C"/>
<path fill-rule="evenodd" clip-rule="evenodd" d="M75.0024 73.8651C75.0024 73.9461 75.0024 73.9461 75.0024 73.8651L74.4165 73.9461C74.3327 73.9461 74.3327 73.9461 74.3327 73.8651V72.3245C74.3327 72.1623 74.3327 71.9191 74.0816 71.9191C73.9142 71.9191 73.7468 72.0002 73.6631 72.0822V73.784C73.6631 73.8651 73.6631 73.8651 73.5794 73.8651H73.0772C72.9935 73.8651 72.9935 73.8651 72.9935 73.784V72.3245C72.9935 72.0822 72.9935 71.838 72.9098 71.5137C72.9098 71.5137 72.9098 71.4326 72.9935 71.4326L73.412 71.2704H73.4957C73.5794 71.2704 73.5794 71.3515 73.6631 71.5948C73.8305 71.3515 74.1653 71.2704 74.4165 71.2704C74.6676 71.2704 75.0861 71.4326 75.0861 72.0002L75.0024 73.8651Z" fill="#31307C"/>
<path fill-rule="evenodd" clip-rule="evenodd" d="M76.4256 74.0269C76.1736 74.0269 75.9234 73.7837 75.9234 73.5404C75.9234 73.2972 76.1736 73.0548 76.4256 73.0548C76.6768 73.0548 76.9279 73.2972 76.9279 73.5404C76.9279 73.7837 76.6768 74.0269 76.4256 74.0269Z" fill="#31307C"/>
<path fill-rule="evenodd" clip-rule="evenodd" d="M80.4428 66.8918C80.4428 67.8648 79.6894 68.5955 78.685 68.5955C77.6805 68.5955 76.9281 67.7837 76.9281 66.8918C76.9281 65.9189 77.6805 65.1891 78.685 65.1891C79.6894 65.1891 80.4428 65.9189 80.4428 66.8918Z" fill="#31307C"/>
<path fill-rule="evenodd" clip-rule="evenodd" d="M97.9375 64.2973C97.9375 67.055 95.7612 68.5955 93.1664 68.5955C90.5715 68.5955 88.3952 67.055 88.3952 64.2973C88.3952 61.5405 90.5715 60 93.1664 60C95.7612 60 97.9375 61.5405 97.9375 64.2973ZM91.3249 64.2973C91.3249 65.2703 92.1619 66.0811 93.1664 66.0811C94.1708 66.0811 95.0079 65.2703 95.0079 64.2973C95.0079 63.3243 94.1708 62.5135 93.1664 62.5135C92.1619 62.5946 91.3249 63.3243 91.3249 64.2973Z" fill="#31307C"/>
<path fill-rule="evenodd" clip-rule="evenodd" d="M101.453 61.2977C102.457 59.9193 104.382 59.5949 105.722 60.5679C106.141 60.8112 106.392 61.1355 106.642 61.5409C107.144 60.5679 108.233 60.0004 109.321 60.0004C111.329 60.0004 112 61.2977 112 63.1625V68.2707H109.153V64.4598C109.153 63.649 109.153 62.2706 107.982 62.2706C106.727 62.2706 106.642 63.4869 106.642 64.4598V68.2707H103.797V64.4598C103.797 63.5679 103.797 62.1896 102.541 62.1896C101.285 62.1896 101.285 63.5679 101.285 64.4598V68.2707H98.6901V60.2436H101.537L101.453 61.2977Z" fill="#31307C"/>
<path fill-rule="evenodd" clip-rule="evenodd" d="M85.9676 60.0813C84.1261 60.0813 82.452 61.2165 81.8661 63.0003L81.7824 63.3246C81.7824 63.4868 81.6987 63.6489 81.6987 63.8111C81.6987 63.9733 81.6987 64.1354 81.615 64.2976V64.3787C81.615 64.5408 81.615 64.703 81.6987 64.8652C81.6987 65.0273 81.7824 65.3516 81.7824 65.4318C81.7824 65.4318 81.8661 65.5949 81.8661 65.676C82.6195 67.8652 85.1306 69.0814 87.3906 68.3517C87.558 68.2706 87.7254 68.1895 87.8928 68.1084V65.676C87.4743 66.0003 86.9721 66.2435 86.4699 66.2435C86.2187 66.2435 86.0513 66.1625 85.8002 66.1625C85.1306 65.9183 84.6284 65.2706 84.5447 64.5408V64.0543C84.6284 63.3246 85.1306 62.6759 85.8002 62.4327C86.0513 62.3516 86.2187 62.3516 86.4699 62.3516C86.9721 62.3516 87.4743 62.5949 87.8928 62.9192V60.5678C87.3069 60.2435 86.6373 60.0813 85.9676 60.0813Z" fill="#31307C"/>
</svg>
