<svg width="128" height="128" viewBox="0 0 128 128" fill="none" xmlns="http://www.w3.org/2000/svg">
<rect width="128" height="128" fill="white"/>
<path fill-rule="evenodd" clip-rule="evenodd" d="M56.3762 87.1651H52.3355L51.1665 90.0114H50.0992L54.3431 79.9987L58.5871 90.0114H57.5198L56.3762 87.1651ZM54.3686 82.0317L52.6659 86.3011H56.0712L54.3686 82.0317Z" fill="#5A5A5A"/>
<path d="M24.4829 85.2591C24.4829 87.9783 26.7193 90.1893 29.4639 90.1893C30.887 90.1893 32.2593 89.6302 33.1741 88.5882C34.0382 87.5971 34.2161 86.5044 34.1907 85.2337H29.9213V86.0978H33.0725C33.0471 87.038 32.7675 87.7496 32.0306 88.3595C31.319 88.944 30.4295 89.2998 29.4893 89.2998C27.2529 89.2998 25.4994 87.4192 25.4994 85.2337C25.4994 83.099 27.3037 81.1677 29.4893 81.1677C30.9378 81.1677 32.1068 81.9046 32.8692 83.1245L33.7586 82.5908C32.7929 81.1168 31.3444 80.2528 29.5401 80.2528C26.7193 80.2528 24.4829 82.4383 24.4829 85.2591Z" fill="#5A5A5A"/>
<path d="M42.6278 80.4053H41.6112V90.0368H42.6278V80.4053Z" fill="#5A5A5A"/>
<path fill-rule="evenodd" clip-rule="evenodd" d="M64.9912 85.1067C64.9912 88.08 67.2783 90.2655 70.2008 90.2655C73.1233 90.2655 75.3851 88.0546 75.3851 85.0813C75.3851 82.2604 72.92 80.1512 70.1754 80.1512C67.4308 80.1512 64.9912 82.2858 64.9912 85.1067ZM66.8209 85.1067C66.8209 83.3786 68.3457 81.8538 70.2008 81.8538C72.0306 81.8538 73.5553 83.3786 73.5807 85.1067C73.5807 87.0381 72.056 88.5629 70.2008 88.5629C68.3457 88.5629 66.8209 87.0381 66.8209 85.1067Z" fill="#5A5A5A"/>
<path d="M82.7802 90.0368V80.4053H84.5337V88.512H88.5998V90.0368H82.7802Z" fill="#5A5A5A"/>
<path fill-rule="evenodd" clip-rule="evenodd" d="M100.773 87.775L101.662 90.0368H103.517L99.6544 80.3799H98.1297L94.2415 90.0368H96.0966L97.0115 87.775H100.773ZM97.5198 86.3519L98.8921 82.6924L100.239 86.3519H97.5198Z" fill="#5A5A5A"/>
<path d="M94.3684 74.5858H48.803V75.7548H94.3684V74.5858Z" fill="#DE1C99"/>
<path d="M48.803 74.5858H33.6061V75.7547H48.803V74.5858Z" fill="#007BCC"/>
<path d="M24 47.4701V42.1842L32.8183 37V70.1131H28.3456V44.8526L24 47.4701Z" fill="#007BCC"/>
<path d="M34.7751 47.4701V42.1842L43.5934 37V70.1131H39.1207V44.8526L34.7751 47.4701Z" fill="#007BCC"/>
<path d="M56.0687 51.5023C56.5864 51.6247 57.0845 51.7425 57.4688 51.8413C61.6365 52.8324 64.5336 56.5427 64.5336 60.8375C64.5336 65.9455 60.3913 70.0878 55.2833 70.0878C50.1753 70.0878 46.033 65.9455 46.033 60.8375C46.033 58.4232 46.9732 56.1869 48.5234 54.5351C49.7178 55.5262 51.141 56.2885 52.742 56.6697C52.7674 56.6697 52.7928 56.6761 52.8182 56.6824C52.8436 56.6888 52.869 56.6952 52.8945 56.6952C51.4459 57.5338 50.5056 59.084 50.5056 60.8375C50.5056 63.4804 52.6403 65.6151 55.2833 65.6151C57.9262 65.6151 60.0609 63.4804 60.0609 60.8375C60.0609 58.6265 58.5615 56.6952 56.4014 56.1869C55.7663 56.0137 54.7814 55.7822 53.8771 55.5696C53.5874 55.5015 53.3059 55.4353 53.0469 55.3737C48.93 54.3572 46.033 50.6723 46.033 46.4029C46.033 41.2949 50.1753 37.1526 55.2833 37.1526C60.3913 37.1526 64.5336 41.2949 64.5336 46.4029C64.5336 48.8171 63.6187 51.0281 62.0685 52.7053C60.8487 51.6888 59.4002 50.9264 57.7737 50.5452C57.761 50.5452 57.742 50.5389 57.7229 50.5325C57.7039 50.5262 57.6848 50.5198 57.6721 50.5198C59.1206 49.6812 60.0609 48.131 60.0609 46.3775C60.0609 43.7345 57.9262 41.5999 55.2833 41.5999C52.6403 41.5999 50.5056 43.7345 50.5056 46.3775C50.5056 48.5884 52.005 50.4944 54.1397 51.0281C54.6737 51.1724 55.3881 51.3413 56.0687 51.5023Z" fill="#DE1C99"/>
<path d="M75.7892 51.5023C75.1086 51.3413 74.3942 51.1724 73.8601 51.0281C71.7255 50.4944 70.2261 48.5884 70.2261 46.3775C70.2261 43.7345 72.3608 41.5999 75.0037 41.5999C77.6467 41.5999 79.7814 43.7345 79.7814 46.3775C79.7814 48.131 78.8411 49.6812 77.3925 50.5198C77.4053 50.5198 77.4243 50.5262 77.4434 50.5325C77.4624 50.5389 77.4815 50.5452 77.4942 50.5452C79.1206 50.9264 80.5692 51.6888 81.789 52.7053C83.3392 51.0281 84.2541 48.8171 84.2541 46.4029C84.2541 41.2949 80.1117 37.1526 75.0037 37.1526C69.8957 37.1526 65.7534 41.2949 65.7534 46.4029C65.7534 50.6723 68.6505 54.3572 72.7674 55.3737C73.0264 55.4353 73.3078 55.5015 73.5975 55.5696C74.5018 55.7822 75.4868 56.0137 76.1219 56.1869C78.282 56.6952 79.7814 58.6265 79.7814 60.8375C79.7814 63.4804 77.6467 65.6151 75.0037 65.6151C72.3608 65.6151 70.2261 63.4804 70.2261 60.8375C70.2261 59.084 71.1664 57.5338 72.6149 56.6952C72.5895 56.6952 72.5641 56.6888 72.5387 56.6824C72.5133 56.6761 72.4878 56.6697 72.4624 56.6697C70.8614 56.2885 69.4383 55.5262 68.2439 54.5351C66.6937 56.2123 65.7788 58.4232 65.7788 60.8375C65.7788 65.9455 69.9211 70.0878 75.0291 70.0878C80.1371 70.0878 84.2795 65.9455 84.2795 60.8375C84.2795 56.5427 81.357 52.8324 77.1892 51.8413C76.805 51.7425 76.3068 51.6247 75.7892 51.5023Z" fill="#DE1C99"/>
<path d="M96.9097 51.8413C96.5254 51.7425 96.0273 51.6247 95.5096 51.5023C94.829 51.3413 94.1146 51.1724 93.5806 51.0281C91.4459 50.4944 89.9466 48.5884 89.9466 46.3775C89.9466 43.7345 92.0812 41.5999 94.7242 41.5999C97.3671 41.5999 99.5018 43.7345 99.5018 46.3775C99.5018 48.131 98.5615 49.6812 97.113 50.5198C97.1257 50.5198 97.1448 50.5262 97.1638 50.5325C97.1829 50.5389 97.202 50.5452 97.2147 50.5452C98.8411 50.9264 100.29 51.6888 101.509 52.7053C103.06 51.0281 103.975 48.8171 103.975 46.4029C103.975 41.2949 99.8322 37.1526 94.7242 37.1526C89.6162 37.1526 85.4739 41.2949 85.4739 46.4029C85.4739 50.6723 88.371 54.3572 92.4879 55.3737C92.7463 55.4352 93.0271 55.5012 93.3162 55.5692L93.3179 55.5696C94.2221 55.7821 95.2072 56.0137 95.8424 56.1869C98.0025 56.6952 99.5018 58.6265 99.5018 60.8375C99.5018 63.4804 97.3671 65.6151 94.7242 65.6151C92.0812 65.6151 89.9466 63.4804 89.9466 60.8375C89.9466 59.084 90.8868 57.5338 92.3354 56.6952C92.31 56.6952 92.2845 56.6888 92.2591 56.6824C92.2337 56.6761 92.2083 56.6697 92.1829 56.6697C90.5819 56.2885 89.1588 55.5262 87.9643 54.5351C86.4142 56.2123 85.4993 58.4232 85.4993 60.8375C85.4993 65.9455 89.6416 70.0878 94.7496 70.0878C99.8576 70.0878 104 65.9455 104 60.8375C104 56.5427 101.077 52.8324 96.9097 51.8413Z" fill="#DE1C99"/>
</svg>
