<svg width="128" height="128" viewBox="0 0 128 128" fill="none" xmlns="http://www.w3.org/2000/svg">
<rect width="128" height="128" fill="#0072BD"/>
<path d="M107 64.4697C106.932 67.8512 106.201 71.4645 103.848 74.5543C101.191 78.0597 97.604 79.4667 93.2536 78.8551C88.5317 78.1916 85.6633 75.2817 84.1133 70.9809C82.1678 65.6048 82.3716 60.2807 84.9563 55.1485C86.9976 51.0955 90.4212 49.041 94.9235 49.045C99.7413 49.045 103.173 51.4033 105.234 55.7521C106.481 58.3701 107 61.1641 107 64.4697ZM99.8292 63.8781C99.7373 62.0914 99.5855 60.0809 98.6307 58.2263C97.8317 56.6914 96.6333 55.7121 94.8675 55.7361C93.1018 55.7601 91.9273 56.7194 91.2322 58.2542C89.6342 61.8236 89.6342 65.4769 90.9406 69.1103C91.5278 70.7611 92.5865 72.1041 94.536 72.26C96.4855 72.4158 98.1314 71.2807 98.9543 69.0943C99.5502 67.4205 99.8464 65.6548 99.8292 63.8781Z" fill="white"/>
<path d="M81.4887 59.3134C81.5486 62.639 80.1744 65.7087 78.3967 68.6346C76.3107 71.9515 73.8422 75.0116 71.0421 77.7519C68.9448 79.8623 66.1723 79.1988 65.1616 76.4968C64.7621 75.3736 65.1616 74.4623 65.8448 73.6549C66.9034 72.3838 68.0379 71.1727 69.1445 69.9376C69.3597 69.7307 69.5587 69.5075 69.7398 69.2701C69.9395 68.9503 70.4628 68.6745 70.2431 68.2788C70.0234 67.8831 69.524 68.1509 69.1405 68.1589C66.6397 68.2029 64.4665 67.3395 62.8726 65.4409C59.7126 61.6717 59.6767 56.6913 62.6808 52.7982C63.8971 51.2481 65.5768 50.1277 67.4747 49.6005C70.7545 48.6053 73.9703 48.8051 76.9226 50.5159C80.1704 52.3985 81.5606 55.4003 81.4887 59.3134ZM70.9822 62.3152C71.4126 62.3354 71.8427 62.2673 72.2459 62.1153C72.6492 61.9632 73.0172 61.7304 73.3272 61.4309C73.6373 61.1315 73.883 60.7719 74.0493 60.3741C74.2155 59.9763 74.2987 59.5487 74.2939 59.1175C74.3031 58.6845 74.2269 58.2539 74.0698 57.8503C73.9127 57.4467 73.6776 57.078 73.378 56.7653C73.0785 56.4526 72.7203 56.202 72.324 56.0278C71.9276 55.8536 71.5009 55.7592 71.0681 55.75C70.6353 55.7408 70.2049 55.817 69.8015 55.9743C69.3981 56.1315 69.0296 56.3667 68.7171 56.6664C68.0859 57.2717 67.7209 58.1031 67.7024 58.9776C67.6781 59.4175 67.746 59.8576 67.9015 60.2698C68.057 60.682 68.2967 61.0571 68.6054 61.3713C68.9142 61.6854 69.285 61.9317 69.6943 62.0942C70.1035 62.2567 70.5422 62.332 70.9822 62.3152Z" fill="white"/>
<path d="M51.3873 78.8391C47.3924 78.8391 44.4402 77.1243 43.2577 74.2464C42.0752 71.3686 42.5746 68.7185 44.8556 66.5401C45.339 66.0764 45.3111 65.7647 44.9235 65.297C42.227 62.0474 43.7451 56.5035 48.7586 55.4323C51.7548 54.8087 54.4673 55.1684 56.7484 57.2549C59.0295 59.3414 59.1453 62.8508 57.2717 65.2251C56.8283 65.7927 56.7724 66.1044 57.3276 66.5921C60.8551 69.6698 59.8125 76.185 54.8788 78.1196C53.7645 78.557 52.5836 78.8004 51.3873 78.8391ZM51.0557 68.2668C50.7063 68.2505 50.3573 68.307 50.0309 68.4327C49.7045 68.5585 49.4077 68.7507 49.1594 68.9972C48.9112 69.2437 48.7168 69.5392 48.5887 69.8648C48.4605 70.1905 48.4014 70.5392 48.4151 70.8889C48.414 71.2294 48.4807 71.5668 48.6114 71.8812C48.7421 72.1956 48.9342 72.4808 49.1763 72.7201C49.4184 72.9594 49.7058 73.148 50.0217 73.2748C50.3375 73.4017 50.6754 73.4643 51.0157 73.459C51.3655 73.4719 51.7143 73.4144 52.0416 73.2902C52.3688 73.1659 52.6679 72.9773 52.9211 72.7355C53.1743 72.4937 53.3765 72.2036 53.5159 71.8824C53.6552 71.5611 53.7288 71.2151 53.7323 70.8649C53.7352 70.5161 53.6674 70.1703 53.5329 69.8485C53.3984 69.5267 53.2001 69.2355 52.9498 68.9926C52.6996 68.7497 52.4027 68.5601 52.0771 68.4354C51.7516 68.3106 51.4041 68.2533 51.0557 68.2668ZM52.9213 62.1074C52.9224 61.8574 52.8737 61.6098 52.7781 61.3789C52.6825 61.148 52.542 60.9384 52.3646 60.7624C52.1872 60.5864 51.9766 60.4475 51.745 60.3539C51.5134 60.2602 51.2655 60.2136 51.0157 60.2167C50.6589 60.2309 50.314 60.3491 50.0233 60.5566C49.7326 60.7642 49.5089 61.0522 49.3795 61.3853C49.2501 61.7183 49.2207 62.0819 49.295 62.4314C49.3692 62.7809 49.5438 63.1011 49.7974 63.3527C50.051 63.6043 50.3725 63.7763 50.7224 63.8477C51.0724 63.919 51.4355 63.8866 51.7672 63.7543C52.099 63.622 52.3849 63.3957 52.59 63.1032C52.795 62.8106 52.9101 62.4645 52.9213 62.1074Z" fill="white"/>
<path d="M40.3934 67.1836C40.3934 70.0055 40.3934 72.8274 40.3934 75.6454C40.3934 77.3961 39.4985 78.4433 37.9285 78.6032C36.4984 78.7511 35.252 77.7318 34.9643 76.137C34.8659 75.5828 34.8151 75.0212 34.8125 74.4583C34.8125 70.3413 34.8125 66.2283 34.8125 62.1113C34.8125 60.7763 34.8125 60.7683 33.5102 60.7243C32.124 60.6764 31.2451 59.9649 31.0533 58.7258C30.8416 57.3708 31.4289 56.1677 32.7152 55.8199C34.6486 55.3138 36.6788 55.3069 38.6156 55.7999C39.9619 56.1277 40.3894 56.8592 40.3974 58.3181C40.4133 61.2759 40.3934 64.2298 40.3934 67.1836Z" fill="white"/>
<path d="M29.4274 67.0517C29.4274 69.9736 29.4714 72.8994 29.4274 75.8173C29.3835 78.0516 27.3061 79.2268 25.3207 78.2155C24.9616 78.0663 24.6501 77.8217 24.4199 77.5082C24.1897 77.1947 24.0494 76.8243 24.0144 76.4368C23.9425 75.6094 23.8466 74.782 23.8466 73.9586C23.8466 69.9616 23.8146 65.9885 23.8466 62.0034C23.8466 61.0841 23.6029 60.6844 22.6122 60.7044C21.0941 60.7363 20.2152 60.0009 20.0355 58.7778C19.8317 57.1789 20.5069 55.9798 22.0329 55.724C24.0144 55.4003 26.0118 55.2963 27.9613 55.9159C29.2037 56.3156 29.4114 57.3908 29.4234 58.486C29.4554 61.3399 29.4234 64.1978 29.4234 67.0517H29.4274Z" fill="white"/>
</svg>
