<svg width="128" height="128" viewBox="0 0 128 128" fill="none" xmlns="http://www.w3.org/2000/svg">
<rect width="128" height="128" fill="#2C3C48"/>
<path d="M105.607 59.4323C106.809 58.3145 107.978 58.348 109.011 59.5281C109.424 59.0711 109.913 58.7497 110.54 58.7014C111.609 58.6189 112.919 59.0828 112.972 60.705C113.014 62.0104 113.001 63.319 112.983 64.6259C112.976 65.1934 112.679 65.4627 112.178 65.4721C111.676 65.4814 111.313 65.17 111.299 64.6384C111.269 63.5268 111.278 62.4137 111.272 61.3013C111.272 60.5758 110.977 60.1905 110.413 60.1687C109.751 60.1422 109.333 60.5361 109.315 61.2733C109.289 62.2852 109.321 63.3042 109.289 64.3185C109.279 64.6057 109.197 64.9412 109.032 65.1623C108.804 65.4736 108.424 65.4954 108.062 65.3545C107.72 65.223 107.606 64.9342 107.6 64.594C107.59 63.4536 107.6 62.3125 107.584 61.169C107.574 60.3672 106.963 59.9297 106.253 60.2574C106.013 60.3672 105.814 60.6552 105.688 60.9098C105.584 61.1184 105.594 61.3963 105.59 61.6446C105.581 62.6044 105.59 63.5642 105.583 64.5247C105.578 65.0696 105.259 65.4067 104.767 65.4184C104.275 65.43 103.918 65.065 103.916 64.5138C103.91 62.9414 103.916 61.3698 103.916 59.7982C103.916 59.1062 104.094 58.8166 104.571 58.7193C105.084 58.6165 105.312 58.7683 105.607 59.4323Z" fill="white"/>
<path d="M96.2348 62.014C96.2051 60.6447 96.643 59.5059 97.9306 58.9229C99.2722 58.3157 101.416 58.5415 102.187 60.4291C102.691 61.6614 102.63 63.7833 101.346 64.7532C100.295 65.5457 99.124 65.6289 97.9504 65.1308C96.8102 64.6458 96.3017 63.6658 96.234 62.4296C96.2287 62.2919 96.2348 62.1525 96.2348 62.014ZM100.789 62.0762C100.699 61.6271 100.666 61.2628 100.549 60.9281C100.384 60.4532 100.045 60.1372 99.5337 60.0804C98.9849 60.0197 98.4878 60.1411 98.2058 60.6767C97.7558 61.5329 97.7664 62.4234 98.1746 63.2766C98.5615 64.0877 100.013 64.2426 100.423 63.3046C100.601 62.8967 100.682 62.4444 100.789 62.0762Z" fill="white"/>
<path d="M92.3529 58.6381C93.0842 58.6778 93.8678 58.7697 94.4273 59.45C94.5804 59.6436 94.703 59.8606 94.7906 60.093C94.9237 60.4301 94.9601 60.7726 94.6242 61.0349C94.4687 61.1491 94.2819 61.2097 94.0906 61.208C93.8993 61.2063 93.7135 61.1424 93.56 61.0256C93.3662 60.8699 93.1997 60.6869 93.0104 60.5289C92.2359 59.8859 91.1709 60.2261 90.9923 61.2202C90.905 61.7794 90.8978 62.3487 90.971 62.9101C90.992 63.1566 91.0886 63.3901 91.2469 63.577C91.4053 63.7639 91.6174 63.8948 91.8528 63.9508C92.3415 64.0793 92.7961 63.9828 93.145 63.5663C93.2689 63.4192 93.4065 63.2837 93.5425 63.1475C93.8914 62.7972 94.3642 62.7342 94.6918 62.9918C94.9792 63.216 95.0673 63.6831 94.8507 64.0995C94.4858 64.8001 93.8625 65.1364 93.1328 65.31C91.6886 65.6548 90.3872 65.2119 89.6362 64.1501C88.8761 63.0751 88.7347 60.3219 90.2443 59.2562C90.8707 58.8141 91.5518 58.6599 92.3529 58.6381Z" fill="white"/>
<path d="M47.7113 70.1236C48.6516 70.7401 48.7937 71.5761 48.0716 72.2183C47.8383 72.4032 47.5559 72.5118 47.2613 72.5297C46.6532 72.5764 46.039 72.553 45.4271 72.5421C44.9604 72.5336 44.819 72.3864 44.819 71.9069C44.8145 70.7946 44.8282 69.6822 44.8122 68.5698C44.8069 68.1456 44.9954 67.937 45.3846 67.9347C45.9927 67.9347 46.6069 67.9487 47.2165 67.9798C47.7873 68.0086 48.1689 68.3449 48.3035 68.8874C48.4327 69.4098 48.2176 69.8387 47.7113 70.1236ZM45.7472 71.8711C46.2458 71.8322 46.7019 71.8213 47.1496 71.7528C47.4491 71.7069 47.6057 71.4772 47.6057 71.1558C47.6057 70.8343 47.4255 70.6428 47.1496 70.607C46.6935 70.547 46.2245 70.5455 45.7472 70.519V71.8711ZM45.7472 69.7857C46.1561 69.7857 46.5179 69.8044 46.8775 69.7795C47.1678 69.7593 47.3419 69.5888 47.3457 69.265C47.3495 68.9412 47.2294 68.6991 46.9109 68.6679C46.5308 68.6298 46.1439 68.6586 45.7472 68.6586V69.7857Z" fill="white"/>
<path d="M90.3781 67.9536C90.7794 68.0034 91.1937 68.0073 91.5798 68.1147C92.2153 68.2922 92.5452 68.8698 92.4783 69.5594C92.4091 70.2701 92.001 70.7006 91.3039 70.7652C90.9797 70.7948 90.6539 70.8026 90.3287 70.7886C90.0497 70.7777 89.9349 70.8757 89.9486 71.1692C89.96 71.5018 89.9524 71.8347 89.9258 72.1664C89.9076 72.4155 89.8141 72.6389 89.5161 72.6404C89.2181 72.642 89.1284 72.4069 89.0882 72.1734C89.0635 71.9668 89.0564 71.7584 89.0669 71.5506C89.0669 70.6165 89.0623 69.691 89.0669 68.7616C89.0669 68.1217 89.1824 68.0112 89.8057 67.9995C89.995 67.9956 90.1858 67.9995 90.375 67.9995C90.375 67.9793 90.3766 67.9684 90.3781 67.9536ZM89.9494 69.3547C89.9494 70.0133 89.9494 70.0133 90.4936 70.0133C91.2195 70.0133 91.4438 69.8576 91.4453 69.3656C91.4453 68.8371 91.2302 68.6845 90.4822 68.6853C89.9486 68.6845 89.9486 68.6845 89.9486 69.3532L89.9494 69.3547Z" fill="white"/>
<path d="M29.9064 72.0418C29.9064 72.4972 29.9064 72.8669 29.9064 73.2367C29.9064 73.548 29.8213 73.8143 29.4617 73.7995C29.1242 73.7862 29.122 73.5037 29.122 73.2452C29.122 72.0924 29.122 70.9403 29.122 69.7883C29.122 69.5392 29.106 69.2154 29.4207 69.1975C29.6274 69.1858 29.8441 69.3703 30.1147 69.494C30.8269 68.9577 31.5171 68.9756 32.0697 69.6248C32.5577 70.1993 32.6117 71.4985 32.164 72.0091C31.6714 72.5719 30.7486 72.814 29.9064 72.0418ZM31.5278 70.8251L31.6311 70.7598C31.4548 70.471 31.3309 70.1082 31.0816 69.9206C30.9356 69.8109 30.5404 69.9066 30.3465 70.0436C30.1649 70.172 30.0425 70.464 29.9984 70.7045C29.8806 71.3272 30.2523 71.8994 30.7365 71.9196C31.2093 71.9391 31.5323 71.4922 31.5278 70.8251Z" fill="white"/>
<path d="M17.324 70.7923C17.324 71.2593 17.3445 71.6579 17.3141 72.0549C17.3012 72.2339 17.2328 72.4565 17.1096 72.5686C16.8611 72.7951 16.5076 72.5601 16.4894 72.1491C16.4666 71.6228 16.4802 71.0943 16.4795 70.5665C16.4795 69.9002 16.4894 69.2331 16.4795 68.5668C16.4726 68.2196 16.6315 68.0219 16.9485 68.018C17.5976 68.018 18.2559 67.997 18.8936 68.0958C19.5732 68.2025 19.8985 68.7497 19.8681 69.5118C19.8415 70.1804 19.4751 70.6195 18.8184 70.7378C18.5769 70.7727 18.3333 70.7902 18.0894 70.7899C17.8469 70.7993 17.6075 70.7923 17.324 70.7923ZM17.3491 69.9952C17.6926 69.9952 18.0187 70.0349 18.3311 69.9843C18.6435 69.9337 18.9066 69.7329 18.9134 69.3452C18.9202 68.9575 18.6854 68.7544 18.3433 68.7162C18.0164 68.6797 17.6835 68.7085 17.3491 68.7085V69.9952Z" fill="white"/>
<path d="M97.7984 72.1825C97.3682 72.532 96.868 72.732 96.2781 72.5413C96.0908 72.4813 95.9253 72.365 95.8033 72.2074C95.6813 72.0498 95.6084 71.8584 95.594 71.6578C95.5667 71.2414 95.7681 70.9503 96.1375 70.8241C96.6476 70.6498 97.1736 70.5213 97.8037 70.3415C97.6745 70.157 97.581 69.8939 97.4639 69.883C97.1759 69.855 96.8741 69.9266 96.586 69.9944C96.5024 70.0138 96.4484 70.1578 96.3785 70.2427C96.2265 70.4303 96.003 70.5034 95.8525 70.3244C95.7521 70.2053 95.7043 69.8698 95.7841 69.792C96.0379 69.5429 96.339 69.2665 96.6643 69.1918C97.0725 69.0976 97.5278 69.1521 97.9512 69.2167C98.3746 69.2813 98.5897 69.6059 98.6224 70.1337C98.6634 70.7977 98.6984 71.4617 98.7128 72.1257C98.7128 72.2424 98.6368 72.4191 98.5456 72.4651C98.4354 72.5211 98.2621 72.4977 98.1336 72.4549C98.0226 72.416 97.9413 72.3016 97.7984 72.1825ZM97.809 70.9331C97.4609 71.0273 97.1036 71.0888 96.7745 71.2289C96.6537 71.2795 96.5077 71.5255 96.5381 71.6353C96.5702 71.7201 96.6205 71.7965 96.6852 71.8589C96.7499 71.9213 96.8274 71.968 96.9121 71.9957C97.5377 72.1428 97.9352 71.6812 97.809 70.93V70.9331Z" fill="white"/>
<path d="M21.52 71.1163C21.536 71.4954 21.612 71.771 21.9214 71.9274C22.3014 72.1173 22.6336 71.9959 22.9559 71.7873C23.092 71.6986 23.209 71.5647 23.3557 71.5117C23.4644 71.4728 23.6484 71.4876 23.7206 71.56C23.7928 71.6324 23.7966 71.8293 23.7495 71.9251C23.6615 72.1099 23.5311 72.2701 23.3694 72.3921C22.7514 72.8031 21.6857 72.7035 21.1552 72.2146C20.6444 71.7429 20.4787 70.6422 20.8169 69.9627C21.0951 69.403 21.9799 69.0107 22.6481 69.1492C22.944 69.2037 23.2143 69.3565 23.4169 69.584C23.6196 69.8116 23.7434 70.1011 23.7692 70.4079C23.811 70.9131 23.6932 71.0719 23.1984 71.1023C22.7796 71.1288 22.3569 71.1147 21.9366 71.1186L21.52 71.1163ZM22.8981 70.566C22.927 70.1067 22.6944 69.8233 22.29 69.7922C21.9039 69.7619 21.5922 70.0748 21.5459 70.566H22.8981Z" fill="white"/>
<path d="M64.9533 71.1137C64.9487 71.5029 65.0354 71.7683 65.344 71.9248C65.7195 72.1155 66.0554 71.9979 66.3793 71.7917C66.5313 71.6975 66.659 71.5659 66.8179 71.5021C66.9113 71.4639 67.0938 71.4842 67.1439 71.5511C67.1766 71.6059 67.1971 71.6673 67.204 71.731C67.211 71.7948 67.2042 71.8593 67.1842 71.9201C66.9486 72.5288 66.3998 72.5958 65.8707 72.6401C65.0506 72.7086 64.3703 72.261 64.162 71.5262C63.9575 70.8038 63.9993 69.8137 64.8803 69.3575C65.1195 69.2241 65.387 69.1529 65.6594 69.1502C65.9318 69.1474 66.2007 69.2133 66.4424 69.342C66.9349 69.5926 67.1782 70.0176 67.2025 70.5781C67.2192 70.9393 67.0748 71.123 66.7046 71.1168C66.1269 71.1066 65.5484 71.1137 64.9533 71.1137ZM66.3086 70.5618C66.2713 70.0379 66.0098 69.7756 65.5766 69.7927C65.2026 69.8082 64.9593 70.1017 64.9517 70.5618H66.3086Z" fill="white"/>
<path d="M76.8324 71.1154C76.8035 71.4859 76.8666 71.7646 77.1874 71.921C77.575 72.111 77.9239 72.0066 78.2561 71.7755C78.3891 71.6828 78.5107 71.5544 78.6574 71.5053C78.7661 71.4688 78.9524 71.4913 79.0223 71.5661C79.0922 71.6408 79.09 71.8346 79.0405 71.9366C78.961 72.097 78.8469 72.2367 78.7068 72.3453C78.0927 72.8193 76.9586 72.7251 76.4044 72.1709C75.8503 71.6167 75.7492 70.4584 76.1946 69.8138C76.5663 69.2728 77.3667 69.0253 78.063 69.2363C78.343 69.3224 78.5895 69.4965 78.7675 69.734C78.9456 69.9715 79.0461 70.2603 79.055 70.5596C79.0702 70.9488 78.9273 71.1263 78.5389 71.1177C77.9718 71.106 77.4063 71.1154 76.8324 71.1154ZM76.8415 70.5611H78.2257C78.1596 70.0287 77.9361 69.7936 77.5173 69.7882C77.1524 69.7827 76.881 70.0754 76.8415 70.5611Z" fill="white"/>
<path d="M36.3635 71.2283C36.5057 71.4548 36.5999 71.7506 36.7991 71.8931C37.1609 72.1515 37.5516 72.0262 37.8975 71.7763C38.0297 71.6806 38.1468 71.5428 38.2927 71.4945C38.4007 71.4572 38.5884 71.4828 38.6576 71.5591C38.6918 71.614 38.7121 71.6769 38.7165 71.7419C38.7209 71.8069 38.7092 71.872 38.6827 71.9312C38.5757 72.1232 38.4285 72.2885 38.2517 72.4154C37.6345 72.8209 36.549 72.6871 36.0473 72.1717C35.5297 71.6393 35.4042 70.5285 35.7896 69.884C36.1172 69.3391 36.9351 69.0363 37.6314 69.2091C37.9169 69.2816 38.1732 69.4434 38.3646 69.6721C38.5561 69.9008 38.6731 70.1849 38.6994 70.4849C38.742 70.9442 38.6135 71.1076 38.1673 71.1123C37.5995 71.1224 37.0324 71.1123 36.4646 71.1123L36.3635 71.2283ZM36.4487 70.569H37.8344C37.8465 70.091 37.6322 69.8271 37.2263 69.7906C36.847 69.7586 36.5452 70.0443 36.4487 70.569Z" fill="white"/>
<path d="M104.877 71.1147C104.829 71.8285 105.365 72.2185 105.972 71.9461C106.192 71.848 106.369 71.6511 106.587 71.5499C106.715 71.4907 106.887 71.5312 107.039 71.5273C107.039 71.6931 107.093 71.8885 107.025 72.0193C106.77 72.5182 105.922 72.7697 105.201 72.5953C104.887 72.5246 104.602 72.3568 104.385 72.1147C104.167 71.8725 104.028 71.5677 103.985 71.2416C103.866 70.3386 104.145 69.6895 104.807 69.329C105.371 69.0239 106.198 69.0955 106.653 69.603C106.889 69.8654 107.019 70.2701 107.09 70.6329C107.155 70.9653 106.898 71.1171 106.575 71.1155C106.008 71.1132 105.44 71.1147 104.877 71.1147ZM106.245 70.5698C106.233 70.0623 106.003 69.807 105.568 69.7914C105.198 69.7797 104.922 70.0849 104.884 70.5698H106.245Z" fill="white"/>
<path d="M51.7834 72.1234C51.4261 72.4893 51.0415 72.6559 50.5748 72.5905C50.0663 72.5212 49.7516 72.2736 49.7105 71.7521C49.6535 71.0344 49.6687 70.3097 49.6703 69.5873C49.6703 69.3141 49.8344 69.1366 50.1073 69.1374C50.4114 69.1374 50.5186 69.3468 50.5186 69.6387C50.5186 70.1392 50.5186 70.6405 50.5376 71.1403C50.5611 71.675 50.7185 71.8665 51.0765 71.8572C51.5538 71.8455 51.756 71.6237 51.7735 71.0873C51.7895 70.5736 51.7963 70.0598 51.8108 69.5461C51.8176 69.2853 51.9864 69.1281 52.2038 69.1857C52.3748 69.2308 52.6302 69.4246 52.6355 69.5609C52.6674 70.4342 52.6537 71.3115 52.6211 72.1857C52.6165 72.3242 52.4554 72.543 52.3375 72.5663C52.2197 72.5897 52.0464 72.434 51.9096 72.3398C51.8594 72.3071 51.8404 72.2254 51.7834 72.1234Z" fill="white"/>
<path d="M81.4907 72.6139C80.9989 72.5696 80.5595 72.4964 80.2395 72.1134C80.0039 71.8309 79.9681 71.4907 80.1795 71.335C80.4607 71.1279 80.6568 71.3023 80.8339 71.5218C81.0734 71.82 81.3896 71.9313 81.7461 71.8332C81.8783 71.795 82.0501 71.6503 82.0714 71.5319C82.0927 71.4136 81.9445 71.226 81.8259 71.1715C81.531 71.0376 81.2071 70.9691 80.8993 70.8602C80.3969 70.6866 80.1468 70.3931 80.1483 69.9915C80.1497 69.7657 80.2287 69.5477 80.3714 69.3758C80.5142 69.2038 80.7116 69.0888 80.9289 69.0511C81.369 68.985 81.8365 69.0472 82.2835 69.1142C82.4416 69.1375 82.6392 69.3135 82.7015 69.4684C82.7639 69.6233 82.6803 69.8412 82.6605 70.0312C82.488 70.0109 82.2698 70.0514 82.1527 69.958C81.9057 69.761 81.705 69.4824 81.3447 69.6108C81.2071 69.6591 81.0962 69.7891 80.973 69.8817C81.0642 70 81.1319 70.1752 81.2505 70.2265C81.5614 70.3612 81.8958 70.4359 82.2181 70.5441C82.792 70.738 82.9516 70.9606 82.9205 71.5031C82.884 72.1368 82.6476 72.4209 82.0585 72.5291C81.8571 72.5641 81.6556 72.589 81.4907 72.6139Z" fill="white"/>
<path d="M109.578 72.6138C109.058 72.5694 108.603 72.4877 108.292 72.0752C108.115 71.8416 108.003 71.5614 108.271 71.3349C108.511 71.1317 108.727 71.2804 108.896 71.4968C109.14 71.8136 109.463 71.9343 109.835 71.8276C109.967 71.7895 110.145 71.64 110.159 71.524C110.173 71.408 110.024 71.2204 109.903 71.1652C109.608 71.0321 109.284 70.9636 108.976 70.8538C108.476 70.681 108.224 70.3805 108.23 69.9812C108.235 69.5819 108.559 69.1117 109.02 69.0401C109.437 68.9755 109.878 69.0238 110.299 69.0814C110.392 69.0998 110.479 69.1382 110.556 69.194C110.633 69.2499 110.697 69.3219 110.744 69.4052C110.82 69.5702 110.838 69.8582 110.744 69.9921C110.592 70.2069 110.347 70.1205 110.19 69.9259C109.984 69.6698 109.746 69.4955 109.417 69.6076C109.281 69.6543 109.173 69.7905 109.052 69.8862C109.147 70.003 109.219 70.1743 109.34 70.2256C109.652 70.3595 109.987 70.4335 110.309 70.5432C110.875 70.7355 111.038 70.9667 111.008 71.5069C110.974 72.1117 110.73 72.4107 110.172 72.5189C109.96 72.5632 109.745 72.5881 109.578 72.6138Z" fill="white"/>
<path d="M71.0511 71.3831C71.0511 72.128 70.7926 72.4145 70.1055 72.5507C69.6076 72.6472 69.1264 72.6394 68.6909 72.3592C68.5153 72.2471 68.323 72.0774 68.2606 71.8921C68.2059 71.7271 68.3192 71.5029 68.3587 71.3037C68.5388 71.3496 68.7828 71.3371 68.8862 71.4539C69.1454 71.7489 69.4282 71.935 69.8082 71.8431C69.9641 71.805 70.0918 71.6431 70.2324 71.538C70.1214 71.4017 70.037 71.2064 69.8949 71.1418C69.5764 70.9954 69.2252 70.9253 68.8953 70.8016C68.5039 70.6545 68.2561 70.3797 68.2819 69.9251C68.3032 69.5421 68.6719 69.0688 69.0846 69.0369C69.5445 68.9995 70.0173 69.0696 70.4779 69.1389C70.6109 69.1591 70.7402 69.3218 70.8359 69.4502C70.988 69.6495 71.007 69.9087 70.7782 70.0239C70.6459 70.0901 70.3616 70.0341 70.256 69.9235C70.0158 69.6713 69.7718 69.5117 69.435 69.6246C69.3088 69.6666 69.1454 69.7842 69.1234 69.8939C69.1051 69.9827 69.2503 70.1648 69.3613 70.2123C69.7224 70.368 70.0986 70.4887 70.4734 70.6078C70.877 70.7276 71.0974 70.9759 71.0511 71.3831Z" fill="white"/>
<path d="M73.5854 68.9297C73.783 68.9795 74.0582 69.0138 74.3029 69.1212C74.4761 69.1947 74.6178 69.3295 74.702 69.5011C74.7598 69.6451 74.7316 69.9168 74.6328 70.0063C74.5469 70.0841 74.2603 70.046 74.1479 69.9526C73.9016 69.7478 73.6918 69.4855 73.3368 69.6101C73.2 69.6583 73.0913 69.7922 72.9697 69.8864C73.0631 70.0039 73.1331 70.1767 73.2532 70.2281C73.6021 70.3776 73.9753 70.4671 74.3318 70.6002C74.8069 70.7777 74.9194 70.9746 74.8973 71.5242C74.876 72.0496 74.6837 72.3384 74.2588 72.4707C73.7267 72.6365 73.1848 72.684 72.6702 72.4295C72.4683 72.3214 72.2921 72.1691 72.154 71.9835C71.9914 71.7702 71.9617 71.4884 72.1966 71.3125C72.4186 71.1459 72.6466 71.2611 72.7925 71.4783C72.884 71.6274 73.0197 71.7425 73.1798 71.8067C73.3399 71.8709 73.5159 71.8807 73.6819 71.8348C73.8263 71.8029 74.027 71.6565 74.0483 71.5343C74.0696 71.4121 73.913 71.2089 73.7853 71.1451C73.5321 71.0221 73.241 70.9809 72.9712 70.889C72.3448 70.6749 72.1084 70.3885 72.1487 69.9152C72.189 69.4419 72.5729 69.08 73.1513 68.9811C73.2699 68.9647 73.3915 68.9539 73.5854 68.9297Z" fill="white"/>
<path d="M28.0296 70.906C28.0296 71.9304 27.4017 72.6185 26.4827 72.6068C25.398 72.5951 24.7975 71.9732 24.8021 70.8647C24.8059 69.8302 25.4414 69.1522 26.3984 69.1662C27.4488 69.1794 28.0341 69.8037 28.0296 70.906ZM27.1805 70.8126C27.1767 70.2607 27.0224 70.0046 26.6066 69.8855C26.219 69.7741 25.9149 69.9088 25.6945 70.2459C25.4664 70.5969 25.5349 71.4392 25.829 71.7342C25.9193 71.8166 26.0287 71.8739 26.1468 71.9008C26.7495 72.0487 27.1858 71.584 27.1805 70.8126Z" fill="white"/>
<path d="M55.3043 69.101C55.5466 69.1445 55.7852 69.207 56.0181 69.2879C56.1701 69.3486 56.3427 69.4926 56.3867 69.6374C56.411 69.7273 56.4159 69.8216 56.4011 69.9136C56.3863 70.0057 56.3521 70.0934 56.3009 70.1706C56.2416 70.2414 55.9261 70.1986 55.822 70.1005C55.5939 69.8833 55.3826 69.6638 55.0489 69.7689C54.8969 69.8148 54.7776 69.948 54.6438 70.0421C54.7403 70.1597 54.8156 70.3302 54.9387 70.3839C55.2747 70.5302 55.6297 70.6275 55.9786 70.7412C56.3639 70.8673 56.6194 71.0837 56.5935 71.5476C56.5654 72.0427 56.3655 72.3595 55.9307 72.4817C55.3841 72.6374 54.8285 72.6919 54.3086 72.3953C54.1254 72.2902 53.9163 72.1415 53.8411 71.9602C53.7658 71.7788 53.7651 71.4651 53.8783 71.3374C54.057 71.128 54.3215 71.2464 54.4636 71.4643C54.7282 71.8675 55.0961 71.908 55.5042 71.8185C55.5955 71.7983 55.7384 71.6955 55.7323 71.6363C55.7243 71.5787 55.7051 71.5234 55.6759 71.4735C55.6466 71.4236 55.6079 71.3803 55.562 71.346C55.445 71.2764 55.318 71.2262 55.1858 71.1973C55.0178 71.1452 54.8429 71.1117 54.6765 71.0549C54.0615 70.8478 53.7932 70.5395 53.8274 70.092C53.8639 69.6047 54.3124 69.2022 54.8999 69.1291C54.9972 69.1189 55.0923 69.1166 55.3043 69.101Z" fill="white"/>
<path d="M60.8767 69.4863C61.0242 69.339 61.205 69.2313 61.4031 69.1729C61.6011 69.1145 61.8101 69.1072 62.0116 69.1516C62.5178 69.259 62.7991 69.5408 62.8272 70.0942C62.8614 70.773 62.8462 71.4549 62.8355 72.1352C62.831 72.3937 62.717 72.6093 62.4213 72.5937C62.1415 72.5797 62.0275 72.3945 62.0298 72.1142C62.0351 71.5997 62.0496 71.0844 62.0207 70.5722C62.004 70.2733 62.0367 69.8942 61.5836 69.8568C61.1617 69.8226 60.8417 70.0592 60.7938 70.5177C60.7437 70.9988 60.7581 71.4876 60.7566 71.9733C60.7566 72.2676 60.749 72.5525 60.3765 72.5891C60.0862 72.6171 59.9121 72.3711 59.9106 71.9515C59.9106 71.2704 59.8916 70.5893 59.9205 69.9098C59.9303 69.67 60.0558 69.4349 60.128 69.1983L60.8767 69.4863Z" fill="white"/>
<path d="M101.43 72.6062C100.604 72.596 100.034 72.1547 99.8476 71.3809C99.6393 70.5146 99.9578 69.6887 100.653 69.294C101.261 68.9515 102.204 69.1126 102.686 69.6474C102.767 69.7377 102.888 69.8482 102.887 69.9486C102.887 70.1176 102.845 70.3379 102.735 70.4367C102.663 70.5021 102.431 70.4196 102.291 70.3589C102.202 70.32 102.167 70.1549 102.078 70.1168C101.843 70.0133 101.589 69.8763 101.347 69.8833C101.013 69.8949 100.783 70.3581 100.757 70.9139C100.734 71.3856 100.948 71.781 101.3 71.8869C101.702 72.0076 102.019 71.8745 102.25 71.5187C102.287 71.4611 102.31 71.3739 102.362 71.3506C102.515 71.288 102.671 71.2337 102.829 71.1879C102.862 71.3358 102.946 71.493 102.922 71.6308C102.821 72.2014 102.168 72.6147 101.43 72.6062Z" fill="white"/>
<path d="M94.4668 70.3004C94.4668 70.8835 94.4668 71.468 94.4668 72.0495C94.4668 72.3111 94.4258 72.5796 94.0868 72.5788C93.7645 72.5788 93.6056 72.3983 93.6087 72.0487C93.6185 70.8687 93.6087 69.6886 93.614 68.5085C93.614 68.2228 93.6756 67.9636 94.0252 67.9636C94.3749 67.9636 94.4813 68.1785 94.4722 68.5124C94.4585 69.1094 94.4722 69.7065 94.4722 70.3028L94.4668 70.3004Z" fill="white"/>
<path d="M33.5412 70.2654C33.5412 69.6821 33.5412 69.0993 33.5412 68.5171C33.5412 68.2306 33.5906 67.9722 33.9395 67.9621C34.2884 67.9519 34.3955 68.1598 34.3955 68.5015C34.3819 69.6808 34.4001 70.8601 34.3788 72.0386C34.3614 72.2357 34.2718 72.4187 34.128 72.5508C34.0588 72.6123 33.8087 72.5384 33.6977 72.4496C33.6042 72.3718 33.5548 72.192 33.5518 72.0542C33.5328 71.4587 33.5412 70.8593 33.5412 70.2654Z" fill="white"/>
<path d="M58.6314 70.892C58.6314 71.2952 58.6359 71.6992 58.6314 72.1024C58.6268 72.364 58.5364 72.5773 58.2445 72.5967C57.9275 72.6177 57.796 72.3897 57.7884 72.1227C57.7709 71.2882 57.7785 70.4537 57.7884 69.6185C57.7884 69.3445 57.9283 69.1608 58.2163 69.1764C58.4885 69.1904 58.6329 69.3546 58.6329 69.6434L58.6314 70.892Z" fill="white"/>
<path d="M86.7058 64.6967C86.7114 64.8448 86.6743 64.9914 86.5991 65.1181C86.5239 65.2447 86.4139 65.3459 86.2828 65.4089C86.1518 65.4719 86.0055 65.4939 85.8623 65.4723C85.719 65.4507 85.5852 65.3863 85.4775 65.2872C85.3699 65.1881 85.2931 65.0587 85.2568 64.9152C85.2205 64.7717 85.2263 64.6204 85.2735 64.4802C85.3207 64.3401 85.4071 64.2173 85.5221 64.1271C85.6371 64.037 85.7754 63.9836 85.9198 63.9735C86.018 63.9674 86.1164 63.9812 86.2092 64.0143C86.3021 64.0475 86.3876 64.0992 86.4608 64.1665C86.5339 64.2338 86.5932 64.3154 86.6353 64.4064C86.6774 64.4974 86.7013 64.5961 86.7058 64.6967Z" fill="white"/>
<path d="M86.161 70.45C86.161 71.1708 86.1686 71.8924 86.1526 72.614C86.1526 72.7354 86.0394 72.8545 85.9793 72.9744C85.9132 72.8599 85.7908 72.7463 85.79 72.6311C85.7774 71.1884 85.7774 69.7458 85.79 68.3031C85.79 68.1817 85.9025 68.061 85.9626 67.9396C86.0287 68.0688 86.1488 68.1964 86.1526 68.3288C86.1709 69.034 86.161 69.7424 86.161 70.45Z" fill="white"/>
<path d="M41.9027 70.4358C41.9027 71.1294 41.9126 71.8237 41.8951 72.5165C41.8913 72.6543 41.7849 72.7898 41.7256 72.926C41.6587 72.7975 41.5333 72.6707 41.5325 72.5422C41.5178 71.113 41.5178 69.6839 41.5325 68.2547C41.5325 68.1333 41.6435 68.0118 41.7028 67.8904C41.7697 68.0173 41.892 68.1426 41.8951 68.2718C41.9126 68.9911 41.9027 69.7142 41.9027 70.4358Z" fill="white"/>
<path d="M58.696 68.3987C58.5349 68.5217 58.3851 68.7209 58.2103 68.7482C57.9777 68.784 57.7542 68.6556 57.7786 68.3333C57.7983 68.0577 57.9108 67.8803 58.2103 67.9075C58.446 67.9285 58.6405 68.0048 58.696 68.3987Z" fill="white"/>
<path d="M31.2669 54.2012C27.6343 54.2791 24.0001 54.2479 20.3682 54.2106C17.3604 54.1802 14.9835 56.7319 15.0002 59.8269C15.0177 62.9802 17.2654 65.5871 20.6092 65.4992C22.3491 65.4525 24.0913 65.4906 25.8328 65.4906C27.6153 65.4906 29.397 65.4961 31.1795 65.4906C31.9845 65.4867 32.7833 65.4058 33.5245 65.0539C35.4149 64.1587 36.4312 62.6105 36.6805 60.5235C37.0773 57.1927 34.6343 54.1319 31.2669 54.2012Z" fill="white"/>
<path d="M58.6619 56.0491C57.7049 54.9134 56.529 54.2198 55.024 54.2198H49.1482C47.1354 54.2198 45.1195 54.2066 43.1098 54.23C42.6768 54.2365 42.2477 54.3153 41.8396 54.4635C39.24 55.4085 37.7456 58.2349 38.4122 61.1742C39.0203 63.8372 40.9579 65.4555 43.6122 65.4765C47.46 65.5123 51.308 65.4983 55.1562 65.4345C56.7753 65.4096 58.0326 64.5471 58.9386 63.216C60.4847 60.9485 60.278 57.9664 58.6619 56.0491Z" fill="white"/>
<path d="M82.6202 56.681C81.5804 55.0572 80.1529 54.1652 78.1956 54.2103C76.3462 54.2531 74.496 54.2197 72.6466 54.2197C70.6196 54.2197 68.5926 54.2197 66.5656 54.2197C66.3616 54.2152 66.1576 54.2337 65.9575 54.2749C64.4745 54.6174 63.3442 55.4729 62.5841 56.8126C61.4857 58.7469 61.4606 60.7397 62.4967 62.6912C63.516 64.61 65.1731 65.4935 67.2961 65.4935C70.8434 65.4935 74.3929 65.4935 77.9447 65.4935C78.9192 65.4935 79.861 65.3378 80.7275 64.8326C83.4389 63.2423 84.3473 59.379 82.6202 56.681Z" fill="white"/>
<path d="M23.6472 57.6808C24.3853 57.5196 25.0215 57.255 25.5909 56.7467C25.8257 56.5381 26.3365 56.6548 26.7592 56.6213V62.9826H25.0109V58.2981C24.6658 58.3759 24.3739 58.4351 24.0904 58.5199C23.7476 58.6219 23.6016 58.5199 23.6419 58.1463C23.6521 57.9913 23.6539 57.8359 23.6472 57.6808Z" fill="#2C3C48"/>
<path d="M70.3372 58.3386C70.5204 57.5602 70.8495 57.0207 71.5724 56.7927C72.2742 56.5592 73.0316 56.5691 73.7274 56.8207C74.5498 57.1165 74.9793 58.0117 74.6578 58.8383C74.5104 59.2088 74.3004 59.5497 74.0375 59.8456C73.532 60.4162 72.9733 60.9354 72.3485 61.5729H74.841V62.9741H70.3806C70.3806 62.5405 70.2498 62.1178 70.6664 61.7076C71.3908 60.9992 72.0391 60.2099 72.7354 59.4704C73.0509 59.1349 73.1991 58.7582 73.1322 58.3028C73.1147 58.1419 73.0483 57.9907 72.9423 57.8705C72.8363 57.7504 72.6961 57.6674 72.5416 57.6333C72.2223 57.5516 71.8575 57.5936 71.7222 57.9214C71.5413 58.3542 71.2425 58.3689 70.88 58.3409C70.7173 58.3269 70.5577 58.3386 70.3372 58.3386Z" fill="#2C3C48"/>
<path d="M47.066 62.8976C47.082 62.5784 47.0919 62.3737 47.1048 62.1192C47.8984 62.3589 48.6349 62.3083 49.2332 61.7066C49.3944 61.5463 49.5192 61.3516 49.5988 61.1364C49.6784 60.9211 49.7108 60.6906 49.6938 60.4611C49.3943 60.5935 49.1222 60.7601 48.8272 60.8348C47.7866 61.0994 46.708 60.2066 46.6069 59.0226C46.502 57.7943 47.3914 56.7652 48.6593 56.6484C50.0784 56.5177 51.0377 57.2821 51.4033 58.8342C51.8685 60.8106 50.5429 62.8275 48.6372 62.9894C48.1333 63.0315 47.6194 62.9334 47.066 62.8976ZM48.0899 58.6941C48.0899 59.3612 48.4753 59.9521 48.9093 59.9591C49.3981 59.9676 49.8086 59.3721 49.7972 58.6716C49.7865 58.0045 49.3814 57.4339 48.9314 57.4518C48.4677 57.4705 48.0869 58.0317 48.0899 58.6926V58.6941Z" fill="#2C3C48"/>
</svg>
