<svg width="128" height="128" viewBox="0 0 128 128" fill="none" xmlns="http://www.w3.org/2000/svg">
<rect width="128" height="128" fill="#94E9F9"/>
<path d="M42.4536 59.6441C39.8909 57.1125 39.0832 53.8353 38.5862 50.4494C36.6137 37.2165 44.8765 29.2953 54.1023 26.2201C62.1943 23.5176 70.3329 23.4244 78.3161 26.6394C88.6136 30.7864 93.3042 40.0122 90.788 50.8688C90.5551 51.9094 90.3065 52.9345 90.0736 53.9751C84.5598 54.5498 78.9995 54.7672 73.5013 55.5438C69.1835 56.1495 64.8347 56.4602 60.5013 57.0504C54.4751 57.8269 48.4643 58.7588 42.4536 59.6441ZM64.4153 39.5773C61.806 39.686 59.0569 40.7887 57.0378 43.3981C54.8634 46.2248 55.2206 49.8592 57.8765 52.1579C61.076 54.9536 66.6053 55.3885 70.1931 53.1209C72.0724 51.9405 73.1752 50.2475 73.2373 48.0265C73.3771 43.2893 69.7737 39.6083 64.4153 39.5773Z" fill="white"/>
<path d="M42.4536 59.6441C43.7152 55.5569 46.4927 55.7204 52.519 54.9127C56.8368 54.338 69.1835 56.134 73.5013 55.5283C79.015 54.7672 84.5598 54.5342 90.0735 53.9596C89.2038 58.9763 85.4296 61.5856 81.3292 64.2881C88.6757 66.5091 91.0831 71.9297 91.3627 78.7791C90.4463 78.8102 89.5144 78.7791 88.598 78.8723C83.3639 79.3693 78.1452 79.8819 72.9266 80.3944C71.1405 75.9213 67.8012 74.073 62.8621 74.7875C58.4822 75.4243 55.3137 78.7791 54.941 83.1746C53.0772 83.5163 51.1979 83.858 49.3341 84.1997C45.3424 84.9296 41.3353 85.6596 37.3436 86.3896C36.1166 81.7301 36.1166 77.1638 38.6638 72.9082C41.1489 68.7612 45.2182 66.68 49.7534 65.0647C47.0975 63.2785 44.1931 62.2224 42.4536 59.6441Z" fill="white"/>
<path d="M72.9111 80.3789C78.1297 79.8663 83.3639 79.3538 88.5825 78.8568C89.4989 78.7636 90.4308 78.7946 91.3472 78.7636C92.0927 86.9177 88.9864 93.3478 82.4165 98.0383C71.653 105.726 54.9876 105.695 44.7057 98.0228C40.7917 95.1029 38.1203 91.2976 37.3126 86.3741C41.3042 85.6441 45.3114 84.9141 49.303 84.1841C51.1668 83.8424 53.0462 83.5007 54.9099 83.159C55.8574 87.0575 58.9326 88.1291 62.3496 88.6262C68.2516 89.5115 73.0354 85.7217 72.9111 80.3789Z" fill="white"/>
</svg>
