<svg width="128" height="128" viewBox="0 0 128 128" fill="none" xmlns="http://www.w3.org/2000/svg">
<rect width="128" height="128" fill="#306088"/>
<path fill-rule="evenodd" clip-rule="evenodd" d="M24.7166 60.928C24.4921 53.6209 28.6378 48.0003 36.3104 48.0003C42.1555 48.0003 47.271 51.7373 47.271 58.0055C47.271 62.7972 44.7125 65.4536 41.5655 67.6869C38.417 69.9216 34.6657 71.7491 32.3475 75.0371H47.4682V80.6016H24C24.0417 73.2096 28.5673 70.0482 34.0901 66.3098C36.9148 64.3844 40.7511 62.4317 40.8072 58.4976C40.8072 55.4758 38.7969 53.5648 36.0154 53.5648C32.1791 53.5648 30.9416 57.5407 30.9416 60.9136H24.7166V60.928Z" fill="white"/>
<path fill-rule="evenodd" clip-rule="evenodd" d="M52.709 48H75.629V54.0278H59.8895V61.5609H73.5482V67.1254H59.8895V80.6013H52.7234V48H52.709Z" fill="white"/>
<path fill-rule="evenodd" clip-rule="evenodd" d="M80.9405 48H88.1066V74.5735H104V80.6013H80.9405V48Z" fill="white"/>
</svg>
