<svg width="128" height="128" viewBox="0 0 128 128" fill="none" xmlns="http://www.w3.org/2000/svg">
<rect width="128" height="128" fill="#F94F4F"/>
<path fill-rule="evenodd" clip-rule="evenodd" d="M46.457 78.0964C50.3195 76.1872 55.3035 74.5649 60.7883 73.3965C58.2465 70.0816 55.3387 65.9087 53.0809 61.6187C47.9212 51.8118 48.1935 41.0736 60.0533 39.1965C71.913 37.3165 75.4797 47.3753 73.6319 58.257C72.8149 63.0741 71.3244 67.982 69.9217 71.9528C80.6863 70.843 91.2048 71.8532 94.0101 75.9178L86.1212 26.1157L31.2327 34.8099L39.1157 84.5885C39.7834 82.3894 42.2578 80.1755 46.457 78.0964Z" fill="white"/>
<path fill-rule="evenodd" clip-rule="evenodd" d="M64.7535 78.2942C58.3961 79.5651 54.5103 82.0629 54.7094 83.3221C54.9231 84.6779 60.0507 85.9664 67.2865 84.8185C70.6717 84.2826 73.7699 83.3368 76.0071 82.1537C78.0452 81.079 78.871 80.0541 78.7861 79.5094C78.7012 78.9648 77.5972 78.2415 75.3277 77.852C74.2208 77.6587 72.9704 77.565 71.6234 77.565C70.3759 77.565 69.0318 77.6734 67.6643 77.8374C67.0113 79.4128 66.575 80.3616 66.575 80.3616C66.575 80.3616 65.8634 79.5944 64.7535 78.2942Z" fill="white"/>
<path fill-rule="evenodd" clip-rule="evenodd" d="M87.215 85.8494C82.3042 88.2799 75.5983 90.2506 68.3273 91.4015C64.1573 92.0633 59.8527 92.4205 55.8673 92.4205C48.2155 92.4205 41.7732 91.0852 39.6619 88.0368L41.1114 97.182L96 88.4878L94.5534 79.3573C93.8857 81.5564 91.4142 83.7703 87.215 85.8494Z" fill="white"/>
<path fill-rule="evenodd" clip-rule="evenodd" d="M41.0751 86.0522C41.6227 89.5105 52.8118 91.6863 67.9923 89.2821C75.0525 88.1635 81.5387 86.2601 86.2621 83.9233C90.4935 81.8325 92.8625 79.5747 92.5961 77.8939C92.0895 74.702 82.508 72.6112 69.1021 74.1983C68.9235 74.6727 68.7507 75.1266 68.5809 75.557C71.2017 75.3257 73.6615 75.3784 75.6908 75.7357C79.6616 76.4209 80.7188 77.9817 80.9062 79.1706C81.0965 80.3624 80.5724 82.1751 77.0086 84.0521C74.5693 85.3406 71.2339 86.3655 67.6204 86.9395C65.6789 87.244 63.7052 87.4109 61.8574 87.4109C57.0081 87.4109 53.0022 86.2835 52.5893 83.6597C52.0885 80.5001 57.2043 77.7972 63.181 76.4151C62.894 76.0637 62.5983 75.6947 62.2879 75.3081C56.5689 76.4502 51.3564 78.0666 47.409 80.0198C43.1776 82.1165 40.8086 84.3713 41.0751 86.0522Z" fill="white"/>
<path fill-rule="evenodd" clip-rule="evenodd" d="M68.7512 50.5394C68.1743 46.8907 64.7101 44.4075 61.0146 44.9931C57.322 45.5788 54.7948 49.0108 55.3717 52.6566C55.9515 56.3053 59.4157 58.7885 63.1083 58.2028C66.801 57.6171 69.3281 54.1881 68.7512 50.5394Z" fill="white"/>
</svg>
