<svg width="128" height="128" viewBox="0 0 128 128" fill="none" xmlns="http://www.w3.org/2000/svg">
<rect width="128" height="128" fill="#303D4E"/>
<path d="M36.0462 73.8802C33.8942 67.5225 31.7487 61.1582 29.5901 54.8005C29.2292 53.7376 28.6387 52.9568 27.3396 53.1865C26.0471 52.9372 25.45 53.7245 25.0892 54.7808C22.9371 61.1451 20.8245 67.5159 18.6396 73.8539C18.1475 75.2777 18.8102 75.4483 19.9518 75.4745C22.4975 75.5401 21.9464 73.1847 22.714 71.9053C23.2061 71.0917 22.8846 69.5564 24.105 69.4252C26.2374 69.2021 28.4616 69.0906 30.5546 69.4514C32.208 69.7336 31.624 71.82 32.3195 72.9747C32.6541 73.5259 32.7656 74.2082 33.0675 74.7856C33.6514 75.901 34.7077 75.4745 35.5672 75.3761C36.5908 75.258 36.2627 74.5166 36.0462 73.8802ZM24.7611 66.2431C25.1351 63.5136 26.3095 61.1516 27.2281 58.1204C28.619 60.9679 29.2423 63.5005 30.0494 66.2431H24.7611Z" fill="white"/>
<path d="M49.9229 64.8389C49.0109 64.0975 48.6303 63.4545 49.7195 62.3982C51.6222 60.5611 51.2351 58.2188 50.4281 56.093C49.6473 54.0328 47.7315 53.3701 45.6385 53.2914C43.762 53.2192 41.8855 53.2586 40.0156 53.1405C38.4344 53.0421 37.857 53.6391 37.9095 55.24C38.0079 58.2385 37.9358 61.2369 37.9358 64.2419V68.4606C37.9358 75.6647 37.9358 75.6385 45.1727 75.481C47.8955 75.422 49.8966 74.0179 50.9071 71.7674C51.9437 69.4579 52.3767 66.8335 49.9229 64.8324V64.8389ZM43.4536 55.7124C46.5046 55.9486 47.6068 56.7032 47.6134 59.321C47.6199 62.1095 45.7238 62.1882 43.6308 62.4376C40.7111 62.7787 40.967 60.9876 41.072 59.1439C41.1769 57.5561 40.3306 55.4762 43.4471 55.7124H43.4536ZM48.2761 68.933C48.1317 71.3213 46.1962 72.6663 42.9616 72.417C39.3464 72.1349 41.5575 69.3267 41.131 67.7258C40.593 65.7115 41.8462 65.0554 43.2634 65.4097C47.1344 65.541 48.427 66.5382 48.2761 68.933Z" fill="white"/>
<path d="M54.5025 64.1237H54.4894C54.4894 64.9636 54.4369 65.8099 54.496 66.6498C54.6994 69.5104 53.2034 73.3552 55.1324 74.9889C57.1073 76.662 60.8799 75.3629 63.8587 75.4744C64.81 75.5072 65.722 75.5597 65.7351 74.1163C65.7417 72.8434 65.3677 72.1742 64.0096 72.2136C62.8876 72.2464 61.7526 72.1151 60.6437 72.2201C58.5376 72.4235 57.665 71.7674 57.7503 69.4513C57.934 64.6945 57.7896 59.9181 57.8093 55.1547C57.8093 53.9868 57.6256 53.1733 56.1691 53.1667C54.6928 53.1601 54.4894 54.0065 54.496 55.1547C54.5025 58.1466 54.496 61.1384 54.496 64.1303L54.5025 64.1237Z" fill="white"/>
<path d="M77.3418 61.5126C76.292 60.3251 75.2684 59.1375 73.2936 58.8751C69.2191 58.3305 65.6302 62.5165 66.0632 67.2733C65.9714 68.7561 66.1288 70.3767 66.8506 71.807C68.6614 75.409 72.8933 77.3642 76.3379 74.0509C79.3757 71.1312 80.0974 64.6291 77.3483 61.5126H77.3418ZM72.5259 72.5156C71.4433 72.5287 70.6888 72.2597 70.0524 71.1705C68.6024 68.6708 68.8779 66.1776 69.7506 63.6778C70.1902 62.4115 71.3777 61.9325 72.6834 61.9981C73.8841 62.0572 74.796 62.628 75.2488 63.8024C75.6884 64.9506 75.8196 66.1382 75.813 67.352C75.8064 70.7966 74.7239 72.4893 72.5193 72.5156H72.5259Z" fill="white"/>
<path d="M86.7373 58.9667C85.307 58.9404 84.2309 59.3735 83.0106 60.3708C79.8284 62.969 79.7825 69.0249 81.4753 72.3579C83.3846 76.1174 87.8264 76.7341 90.7199 73.8801C91.6778 72.9353 91.3104 72.3251 90.7658 71.505C89.9588 70.2846 89.6832 71.3606 89.1518 71.7936C87.9445 72.7844 86.5208 72.8828 85.2282 72.0955C83.542 71.0654 82.8531 66.4201 84.0472 63.94C85.2085 61.5255 87.1441 61.5255 89.2436 62.6606C89.9916 63.0674 90.5033 62.8115 90.9561 62.2669C91.5072 61.6043 91.0282 61.1843 90.6477 60.5938C89.6832 59.0848 88.266 58.9404 86.7307 58.9601L86.7373 58.9667Z" fill="white"/>
<path d="M103.475 69.1298C103.475 69.1298 103.442 69.1298 103.429 69.1298C103.429 67.3517 103.58 65.554 103.396 63.789C102.969 59.6293 98.1929 57.2607 95.1617 59.7605C94.4662 60.3379 92.6028 60.9612 93.587 62.5293C94.4465 63.8875 95.5684 62.8574 96.5592 62.444C96.9069 62.2997 97.2415 62.0897 97.6024 62.0307C99.177 61.7748 100.109 62.5031 100.456 64.0252C100.824 65.6327 99.7479 65.8755 98.5537 66.0657C97.6352 66.2166 96.6445 66.2954 95.844 66.7087C94.1709 67.5748 92.78 68.7361 92.5831 70.8619C92.3994 72.8696 93.2655 74.5033 94.8402 75.33C96.382 76.137 98.2388 76.1961 99.6691 74.5558C100.233 73.9062 100.85 73.7553 101.211 74.9495C101.447 75.7237 102.313 75.5137 102.923 75.33C103.645 75.1201 103.448 74.4246 103.461 73.9062C103.494 72.3119 103.475 70.7176 103.475 69.1232V69.1298ZM97.4187 72.8696C96.4279 72.9614 95.5881 72.4628 95.5881 71.2293C95.5881 68.8017 97.8386 69.4906 98.6587 68.7755C99.8856 68.6574 100.555 68.7558 100.489 69.8646C100.371 71.8067 99.1574 72.7056 97.4187 72.8696Z" fill="white"/>
<path d="M109.524 63.8482C109.524 60.5808 109.524 57.3068 109.524 54.0394C109.524 53.0552 109.478 52.1892 108.1 52.1236C106.591 52.0514 106.44 52.924 106.44 54.0656C106.453 60.5152 106.44 66.9582 106.466 73.4078C106.466 74.3919 106.342 75.5139 107.982 75.4876C109.563 75.4614 109.504 74.405 109.511 73.3815C109.537 70.2059 109.517 67.0304 109.524 63.8482Z" fill="white"/>
</svg>
