<svg width="129" height="129" viewBox="0 0 129 129" fill="none" xmlns="http://www.w3.org/2000/svg">
<rect width="128" height="128" transform="translate(0.666992 0.555664)" fill="#DCDCDC"/>
<path d="M56.9918 87.5997L56.7842 87.3321L56.4567 87.2458C42.1684 83.4774 31.667 70.6667 31.667 55.464C31.667 37.3054 46.6469 22.5557 65.1655 22.5557C83.6842 22.5557 98.667 37.3055 98.667 55.464C98.667 70.8617 87.8832 83.8097 73.3234 87.3974L72.6013 87.5753L72.564 88.3181L71.6478 106.521C71.5482 106.37 71.4417 106.222 71.3284 106.077C71.3277 106.077 71.3271 106.076 71.3265 106.075L56.9918 87.5997Z" fill="#FE8E26" stroke="white" stroke-width="2"/>
<path d="M69.2049 45.3271H61.2732C60.337 45.3263 59.4393 44.9554 58.7773 44.2957C58.1153 43.6361 57.743 42.7416 57.7422 41.8088V39.9534C57.743 39.0203 58.1152 38.1255 58.7771 37.4654C59.439 36.8052 60.3367 36.4336 61.2732 36.432H69.2049C70.1417 36.4336 71.0397 36.8051 71.7021 37.4652C72.3645 38.1252 72.7374 39.02 72.739 39.9534V41.8088C72.7374 42.7419 72.3644 43.6364 71.7019 44.2959C71.0394 44.9555 70.1414 45.3263 69.2049 45.3271ZM61.2732 38.5681C60.905 38.5689 60.5521 38.7152 60.292 38.9749C60.032 39.2346 59.8859 39.5865 59.8859 39.9534V41.8088C59.8859 42.1754 60.0321 42.527 60.2922 42.7862C60.5524 43.0454 60.9053 43.1911 61.2732 43.1911H69.2049C69.5731 43.1911 69.9263 43.0455 70.187 42.7864C70.4476 42.5272 70.5945 42.1756 70.5953 41.8088V39.9534C70.5945 39.5863 70.4477 39.2344 70.1872 38.9747C69.9266 38.7151 69.5734 38.5689 69.2049 38.5681H61.2732Z" fill="white"/>
<path d="M70.8586 74.8259H60.088C59.7022 74.8259 59.3322 74.6732 59.0594 74.4013C58.7866 74.1295 58.6333 73.7608 58.6333 73.3764V48.409C58.6333 48.0246 58.7866 47.6559 59.0594 47.3841C59.3322 47.1123 59.7022 46.9596 60.088 46.9596H70.8586C71.0499 46.9592 71.2394 46.9964 71.4162 47.069C71.593 47.1417 71.7538 47.2484 71.8892 47.383C72.0246 47.5177 72.132 47.6776 72.2053 47.8536C72.2786 48.0297 72.3163 48.2184 72.3163 48.409V73.3764C72.3163 73.567 72.2786 73.7557 72.2053 73.9318C72.132 74.1079 72.0246 74.2678 71.8892 74.4024C71.7538 74.537 71.593 74.6438 71.4162 74.7164C71.2394 74.7891 71.0499 74.8263 70.8586 74.8259ZM60.777 72.6898H70.1726V49.0956H60.777V72.6898Z" fill="white"/>
</svg>
