<svg width="128" height="128" viewBox="0 0 128 128" fill="none" xmlns="http://www.w3.org/2000/svg">
<rect width="128" height="128" fill="#00A0C6"/>
<path fill-rule="evenodd" clip-rule="evenodd" d="M69.5131 102.963C69.1959 102.963 68.8894 102.818 68.6893 102.556L56.9017 87.1408C56.769 86.9671 56.5855 86.8422 56.3863 86.7904C42.39 83.0893 32.7896 70.3774 33.0415 55.8783C33.3411 38.5839 47.1286 25.0365 64.4309 25.0365L64.8691 25.0394C81.9429 25.2698 95.8349 39.355 95.8349 56.4356C95.8349 71.2109 85.7827 83.8038 71.39 87.0589L70.5487 101.982C70.5252 102.415 70.2344 102.789 69.8186 102.918C69.7181 102.948 69.6146 102.963 69.5131 102.963Z" fill="#00A0C6"/>
<path fill-rule="evenodd" clip-rule="evenodd" d="M64.4299 24C55.8505 24 47.7738 27.2892 41.6863 33.2626C35.5929 39.2428 32.1543 47.2678 32.0049 55.8608C31.7463 70.8381 41.6628 83.9678 56.1219 87.7919L67.8665 103.186C68.2667 103.709 68.8797 104 69.5141 104C69.7181 104 69.924 103.97 70.1261 103.907C70.9567 103.651 71.5374 102.903 71.5833 102.037L72.327 87.9012C79.1066 86.2029 85.241 82.288 89.6654 76.8193C94.3113 71.0763 96.8705 63.836 96.8705 56.4347C96.8705 47.8495 93.549 39.7562 87.5171 33.6472C81.4911 27.544 73.4524 24.1191 64.8828 24.0029C64.7325 24.001 64.5802 24 64.4299 24Z" fill="white"/>
<path fill-rule="evenodd" clip-rule="evenodd" d="M64.4299 26.0721C64.5714 26.0721 64.7129 26.0741 64.8554 26.0751C81.4305 26.2996 94.7983 39.806 94.7983 56.4347C94.7983 70.8918 84.6934 82.9879 71.1607 86.0487C70.6736 86.159 70.3213 86.5807 70.2949 87.0784L69.5131 101.927L57.7245 86.5114C57.4561 86.16 57.0803 85.9013 56.6518 85.7881C43.489 82.3076 33.8291 70.2105 34.0771 55.8969C34.366 39.2487 47.8333 26.0721 64.4299 26.0721Z" fill="#00A0C6"/>
<path fill-rule="evenodd" clip-rule="evenodd" d="M69.6571 75.3989H59.6293C58.6777 75.3989 57.9066 74.6278 57.9066 73.6771V50.178C57.9066 49.2274 58.6777 48.4563 59.6293 48.4563H69.6571C70.6078 48.4563 71.3789 49.2274 71.3789 50.178V73.6771C71.3789 74.6278 70.6078 75.3989 69.6571 75.3989Z" fill="white"/>
<path fill-rule="evenodd" clip-rule="evenodd" d="M60.1871 73.1188H69.0984V50.7354H60.1871V73.1188Z" fill="#00A0C6"/>
<path fill-rule="evenodd" clip-rule="evenodd" d="M67.786 47.0051H61.0855C58.8718 47.0051 57.0779 45.2111 57.0779 42.9984V42.5143C57.0779 40.3016 58.8718 38.5077 61.0855 38.5077H67.786C69.9996 38.5077 71.7926 40.3016 71.7926 42.5143V42.9984C71.7926 45.2111 69.9996 47.0051 67.786 47.0051Z" fill="white"/>
<path fill-rule="evenodd" clip-rule="evenodd" d="M67.4887 44.9324H61.5905C60.4719 44.9324 59.5652 44.0256 59.5652 42.9081V42.6045C59.5652 41.4869 60.4719 40.5802 61.5905 40.5802H67.4887C68.6072 40.5802 69.513 41.4869 69.513 42.6045V42.9081C69.513 44.0256 68.6072 44.9324 67.4887 44.9324Z" fill="#00A0C6"/>
</svg>
