<svg width="128" height="128" viewBox="0 0 128 128" fill="none" xmlns="http://www.w3.org/2000/svg">
<rect width="128" height="128" fill="white"/>
<path d="M83.2227 28H44.7773C34.4069 28 26 36.4395 26 46.8501V80.1499C26 90.5605 34.4069 99 44.7773 99H83.2227C93.5931 99 102 90.5605 102 80.1499V46.8501C102 36.4395 93.5931 28 83.2227 28Z" fill="#FFC529"/>
<path d="M64.0994 76.8237L60.4401 70.0879L39.6312 81.0698L47.328 86.0108L64.0994 76.8237Z" fill="#4E4E4E"/>
<path d="M76.295 85.6441L60.1324 47.0817L68.8866 47.294L83.9854 85.6441H76.295Z" fill="#4E4E4E"/>
<path d="M60.0748 47.2104L64.0674 56.0371L46.4821 84.7241L39.4902 80.9155L60.0748 47.2104Z" fill="black"/>
<path d="M76.6603 53.0327L84.0494 52.8268L84.2545 85.6441H76.2565L76.6603 53.0327Z" fill="black"/>
<path d="M82.1269 50.2598C85.2415 50.2598 87.7665 48.3127 87.7665 45.9108C87.7665 43.5089 85.2415 41.5618 82.1269 41.5618C79.0122 41.5618 76.4873 43.5089 76.4873 45.9108C76.4873 48.3127 79.0122 50.2598 82.1269 50.2598Z" fill="black"/>
</svg>
