<svg width="128" height="128" viewBox="0 0 128 128" fill="none" xmlns="http://www.w3.org/2000/svg">
<rect width="128" height="128" fill="white"/>
<path d="M33.1887 63.8694C33.1887 60.929 33.1887 58.0586 33.1887 55.1182C33.1887 54.3481 33.3988 54.1381 34.1689 54.1381C36.4092 54.1381 36.4092 54.1381 36.4092 56.4484C36.4092 61.8392 36.4092 67.1599 36.4092 72.5507C36.4092 73.4608 36.1991 73.6708 35.289 73.6708C33.1887 73.6008 33.1887 73.6708 33.1887 71.6406C33.1887 68.9802 33.1887 66.3898 33.1887 63.8694Z" fill="black"/>
<path d="M49.9211 65.5497C49.9211 67.93 49.9211 70.3804 49.9211 72.7607C49.9211 73.3908 49.7811 73.6008 49.081 73.6008C46.7007 73.6008 46.7007 73.6709 46.7007 71.2905C46.7007 66.9499 46.7007 62.6093 46.7007 58.2687C46.7007 57.4285 46.8407 57.1485 47.7508 57.1485C49.9211 57.2185 49.9211 57.1485 49.9211 59.3188C49.9211 61.4191 49.9211 63.4494 49.9211 65.5497Z" fill="black"/>
<path d="M58.9524 65.8297C58.9524 63.6594 58.9524 61.4891 58.9524 59.3188C58.9524 57.4986 58.2523 56.5884 56.432 56.3784C55.5919 56.2384 54.7518 56.2384 53.9117 56.3784C52.0214 56.5884 51.3213 57.4986 51.2513 59.3888C51.2513 60.1589 51.2513 60.859 51.2513 61.6292C51.2513 62.1892 51.3913 62.4693 52.0214 62.4693C54.4017 62.5393 54.4017 62.5393 54.4017 60.1589C54.4017 59.8089 54.4017 59.5289 54.4017 59.1788C54.4017 58.6887 54.5418 58.2687 55.1018 58.2687C55.6619 58.2687 55.8019 58.6887 55.7319 59.1788C55.7319 60.229 55.6619 61.2791 55.7319 62.3993C55.8019 63.3794 55.5919 63.7995 54.4017 63.7995C52.4415 63.7295 51.3213 64.6396 51.2513 66.1098C51.1113 67.86 51.1113 69.6803 51.2513 71.4305C51.3913 73.3208 53.1416 74.2309 54.8918 73.5308C55.1718 73.3908 55.5219 73.1808 55.5919 73.2508C56.362 74.0909 57.2721 73.3908 58.1123 73.6009C58.7424 73.7409 58.8824 73.3908 58.8824 72.8307C58.9524 70.4504 58.9524 68.1401 58.9524 65.8297ZM55.8019 68.7002C55.8019 69.4703 55.8019 70.1704 55.8019 70.9405C55.8019 71.4305 55.6619 71.7106 55.1018 71.7106C54.6118 71.7106 54.4017 71.3605 54.4017 70.9405C54.4017 69.4703 54.4017 68.0001 54.4017 66.5999C54.4017 66.0398 54.6818 65.7597 55.3119 65.7597C56.012 65.7597 55.7319 66.2498 55.8019 66.5999C55.8019 67.3 55.8019 68.0001 55.8019 68.7002Z" fill="black"/>
<path d="M31.7886 65.8997C31.7886 63.6593 31.7886 61.489 31.7886 59.2487C31.7886 58.3386 31.6486 57.3584 30.7385 56.8684C29.0582 55.9582 27.238 55.9582 25.4877 56.7283C23.9475 57.3584 24.0875 58.8287 24.0875 60.1588C24.0875 62.4692 24.0875 62.4692 26.4679 62.3291C27.0979 62.3291 27.308 62.1191 27.308 61.489C27.238 60.6489 27.308 59.8088 27.308 59.0387C27.308 58.6186 27.448 58.2686 27.9381 58.1986C28.5682 58.1986 28.6382 58.6186 28.6382 59.0387C28.6382 60.1588 28.5682 61.279 28.6382 62.3291C28.7082 63.3793 28.4281 63.6593 27.378 63.6593C25.4177 63.6593 24.3676 64.4294 24.1575 65.9697C23.9475 67.7899 23.9475 69.6102 24.1575 71.4304C24.4376 73.3907 26.0478 74.1608 27.8681 73.3907C28.0781 73.3207 28.4281 73.1107 28.4981 73.1107C29.1282 73.9508 29.9683 73.3207 30.6684 73.4607C31.5086 73.6708 31.8586 73.3207 31.7886 72.4106C31.7886 70.3103 31.7886 68.14 31.7886 65.8997ZM28.6382 68.7001C28.6382 69.4702 28.6382 70.1703 28.6382 70.9404C28.6382 71.4304 28.4981 71.7105 28.0081 71.7105C27.448 71.7105 27.308 71.3604 27.308 70.9404C27.308 69.4702 27.308 68 27.308 66.5297C27.308 66.0397 27.588 65.7596 28.1481 65.6896C28.8482 65.6896 28.6382 66.1097 28.6382 66.4597C28.6382 67.2298 28.6382 67.9299 28.6382 68.7001Z" fill="#00B085"/>
<path d="M82.8259 63.8694C82.8259 60.929 82.8259 58.0586 82.8259 55.1182C82.8259 54.3481 83.0359 54.1381 83.806 54.1381C86.0463 54.1381 86.0463 54.1381 86.0463 56.3084C86.0463 61.6991 86.0463 67.0899 86.0463 72.4807C86.0463 73.3908 85.7663 73.6008 84.9262 73.6008C82.7559 73.5308 82.7559 73.6008 82.7559 71.5005C82.8259 68.9802 82.8259 66.3898 82.8259 63.8694Z" fill="#D0222A"/>
<path d="M46.4907 55.8182C47.4709 53.8579 47.5409 53.7879 50.4113 54.208C49.2911 56.2383 49.9212 55.8882 46.4907 55.8182Z" fill="#D0222A"/>
<path d="M103.969 67.6499C103.969 68.7701 104.039 69.8902 103.969 70.9404C103.899 72.4806 103.129 73.3207 101.589 73.6008C101.028 73.6708 100.468 73.7408 99.9083 73.7408C97.1079 73.6708 96.1978 72.7606 96.1978 70.0302C96.1978 69.6802 96.1978 69.3301 96.1978 68.9801C96.1978 67.1598 96.1978 67.2298 98.018 67.1598C99.1382 67.0898 99.6283 67.3699 99.4182 68.56C99.2782 69.3301 99.4182 70.1003 99.4182 70.9404C99.4182 71.3604 99.5583 71.6405 99.9783 71.7105C100.398 71.7105 100.678 71.5005 100.678 71.0804C100.678 69.4702 100.678 67.8599 100.678 66.2497C100.678 65.7596 100.258 65.8296 99.9783 65.8296C98.9982 65.8296 98.088 65.7596 97.1079 65.8296C96.4078 65.8997 96.1278 65.6896 96.1278 64.9195C96.1978 63.4493 96.1978 61.9091 96.1278 60.4389C95.9177 56.4483 98.6481 56.0283 101.238 56.4483C102.709 56.6583 103.549 57.5685 103.759 59.0387C103.829 59.4587 103.829 59.8788 103.829 60.2989C103.899 62.8192 103.829 62.8192 101.308 62.6092C100.818 62.5392 100.608 62.3992 100.608 61.9091C100.608 61.139 100.608 60.2989 100.608 59.5288C100.608 59.0387 100.608 58.4786 99.9783 58.4786C99.2782 58.4786 99.2782 58.9687 99.2782 59.4587C99.2782 60.6489 99.2782 61.8391 99.2782 63.0293C99.2782 63.6593 99.4882 63.7994 100.118 63.8694C101.309 63.8694 103.059 63.3093 103.619 64.0794C104.249 64.9195 103.759 66.4597 103.759 67.7199C103.899 67.6499 103.969 67.6499 103.969 67.6499Z" fill="#D0222A"/>
<path d="M78.2052 63.7994C78.2052 60.929 78.2052 58.0586 78.2052 55.1882C78.2052 54.4181 78.3452 54.1381 79.2554 54.1381C81.4257 54.2081 81.4257 54.1381 81.4257 56.3084C81.4257 61.6991 81.4257 67.0199 81.4257 72.4107C81.4257 73.3208 81.2857 73.7409 80.2355 73.6708C78.2752 73.6008 78.2752 73.6708 78.2752 71.6406C78.2052 69.0502 78.2052 66.4598 78.2052 63.7994Z" fill="#D0222A"/>
<path d="M67.9138 54.8381C67.9138 54.3481 67.7738 54.138 67.2837 54.138C64.7633 53.928 64.7633 53.928 64.6933 56.3784C64.6933 56.5184 64.6233 56.6584 64.6233 56.8684C61.7529 55.3982 60.0026 57.1485 60.1427 59.8088C60.1427 60.1589 60.1427 60.5089 60.1427 60.859C60.1427 64.2195 60.1427 67.5799 60.1427 70.9404C60.1427 73.4608 61.8929 74.4409 64.1332 73.3908C64.2733 73.3208 64.4833 73.1807 64.5533 73.1807C65.3234 74.1609 66.3035 73.3908 67.2137 73.6008C67.7738 73.7408 67.9138 73.3908 67.9138 72.8307C67.9138 66.8798 67.9138 60.859 67.9138 54.8381ZM64.6933 70.8004C64.6933 71.2205 64.6933 71.7105 64.0632 71.7105C63.4331 71.7105 63.4331 71.2905 63.4331 70.8004C63.4331 68.8401 63.4331 66.8798 63.4331 64.9196C63.4331 63.0293 63.4331 61.139 63.4331 59.2488C63.4331 58.7587 63.4331 58.3386 64.0632 58.3386C64.6933 58.3386 64.6933 58.7587 64.6933 59.2488C64.6933 63.0293 64.6933 66.9499 64.6933 70.8004Z" fill="#D0222A"/>
<path d="M44.5304 54.138C42.2201 54.138 42.2201 54.0679 42.2201 56.3783C42.2201 56.5183 42.2201 56.6583 42.2201 56.8683C39.2097 55.6782 37.7394 56.5883 37.6694 59.8088C37.6694 63.5893 37.6694 67.2998 37.6694 71.0804C37.6694 73.4607 39.5597 74.5109 41.66 73.3907C41.8 73.3207 42.0101 73.0407 42.1501 73.1807C42.7802 74.3008 43.7603 73.4607 44.6004 73.6707C45.3005 73.8808 45.4405 73.4607 45.4405 72.8306C45.4405 66.8798 45.4405 60.9989 45.4405 55.0481C45.4405 54.278 45.1605 54.138 44.5304 54.138ZM41.52 71.5704C40.8199 71.5704 40.8199 70.9404 40.8199 70.3803C40.8199 66.7398 40.8199 63.0992 40.8199 59.5287C40.8199 59.0387 40.8199 58.4086 41.52 58.3386C42.2901 58.3386 42.2201 59.0387 42.2201 59.5287C42.2201 61.349 42.2201 63.1692 42.2201 64.9895C42.2201 66.7398 42.2201 68.56 42.2201 70.3103C42.2201 70.9404 42.2901 71.6405 41.52 71.5704Z" fill="#D0222A"/>
<path d="M76.805 65.8997C76.805 63.5894 76.805 61.349 76.805 59.0387C76.805 58.1286 76.595 57.3585 75.8249 56.8684C74.1446 55.9583 72.3244 55.9583 70.5741 56.6584C69.0339 57.2885 69.1739 58.7587 69.1739 60.0889C69.1739 62.3992 69.1739 62.3992 71.5543 62.3292C72.1844 62.3292 72.3944 62.1892 72.3944 61.5591C72.3244 60.7189 72.3944 59.8788 72.3944 59.1087C72.3944 58.6187 72.6044 58.1986 73.1645 58.2686C73.6546 58.3386 73.7946 58.6887 73.7946 59.1087C73.7946 60.2289 73.7246 61.349 73.7946 62.3992C73.8646 63.3793 73.5846 63.7294 72.5344 63.7294C70.5741 63.7294 69.454 64.4995 69.3139 66.0397C69.1739 67.86 69.1739 69.6802 69.3139 71.5005C69.454 73.3908 71.1342 74.2309 72.8845 73.5308C73.1645 73.4608 73.5145 73.1807 73.5846 73.2507C74.2847 73.9508 75.1248 73.4608 75.8949 73.6008C76.665 73.7408 76.945 73.4608 76.875 72.6206C76.805 70.3803 76.805 68.14 76.805 65.8997ZM73.6546 68.7001C73.6546 69.4702 73.6546 70.1703 73.6546 70.9404C73.6546 71.3605 73.5145 71.7105 73.0245 71.7105C72.5344 71.7105 72.3244 71.3605 72.3244 70.9404C72.3244 69.4702 72.3244 67.93 72.3244 66.4598C72.3244 65.9697 72.6744 65.6897 73.1645 65.6897C73.8646 65.6897 73.6546 66.1797 73.6546 66.5298C73.6546 67.2999 73.6546 68 73.6546 68.7001Z" fill="#D0222A"/>
<path d="M95.0076 65.9697C95.0076 63.7293 95.0076 61.489 95.0076 59.2487C95.0076 58.3386 94.8676 57.4284 94.0275 56.9384C92.2772 55.9582 90.4569 55.9582 88.6367 56.7283C87.1665 57.3584 87.2365 58.7586 87.2365 60.0888C87.2365 62.4692 87.2365 62.4692 89.6168 62.3992C90.2469 62.3992 90.4569 62.1191 90.3869 61.559C90.3869 60.7189 90.3869 59.8788 90.3869 59.1087C90.3869 58.6886 90.527 58.3386 91.087 58.3386C91.5771 58.3386 91.7171 58.6886 91.7171 59.1087C91.7171 60.2288 91.6471 61.349 91.7171 62.3992C91.7871 63.3793 91.5771 63.7994 90.3869 63.7994C88.4967 63.7293 87.4465 64.4995 87.2365 66.0397C87.0265 67.8599 86.9564 69.7502 87.2365 71.5705C87.5165 73.5307 89.1268 74.2308 91.017 73.4607C91.2271 73.3907 91.5071 73.0407 91.6471 73.2507C92.3472 74.0208 93.2573 73.4607 94.0275 73.6008C94.7276 73.7408 94.8676 73.3907 94.8676 72.7606C95.0076 70.5203 95.0076 68.21 95.0076 65.9697ZM91.8571 68.7701C91.8571 69.5402 91.8571 70.2403 91.8571 71.0104C91.8571 71.4304 91.6471 71.6405 91.2271 71.7105C90.807 71.7105 90.527 71.4304 90.527 71.0804C90.527 69.5402 90.527 67.9299 90.527 66.3897C90.527 65.8997 90.877 65.7596 91.3671 65.7596C91.9272 65.7596 91.8571 66.1097 91.8571 66.4597C91.8571 67.2298 91.8571 68 91.8571 68.7701Z" fill="#D0222A"/>
</svg>
