<svg width="128" height="128" viewBox="0 0 128 128" fill="none" xmlns="http://www.w3.org/2000/svg">
<rect width="128" height="128" fill="black"/>
<circle cx="64" cy="64" r="46" fill="white"/>
<path fill-rule="evenodd" clip-rule="evenodd" d="M62.5544 28.996L65.6992 28.7462L62.3434 25.1962C63.7039 24.8552 64.364 23.6904 64.2627 22.4143C64.1074 20.4376 62.5814 19.6813 60.6604 19.8349L56.8859 20.1337L57.6202 29.3842L60.1455 29.1851L59.8636 25.6283L59.8889 25.6266L62.5544 28.996ZM59.9852 24.0618L59.7404 24.0821L59.5581 21.7728L59.8029 21.7559C60.6266 21.6901 61.5669 21.7627 61.6462 22.7688C61.7256 23.7765 60.8089 23.9977 59.9852 24.0618Z" fill="black"/>
<path fill-rule="evenodd" clip-rule="evenodd" d="M45.419 32.3687L45.5726 34.1091L43.1908 35.3566L42.2033 25.3954L44.6543 24.1108L52.2134 30.63L49.8198 31.8842L48.5098 30.7482L45.419 32.3687ZM44.759 27.2944L44.737 27.3063L45.1793 30.4089L47.0463 29.4298L44.759 27.2944Z" fill="black"/>
<path d="M92.9461 30.4325L91.1297 28.7242L83.206 34.1142L85.0629 35.8208L89.6527 32.7435L89.6713 32.7603L87.6355 38.184L88.3698 38.8745L93.7378 36.5905L93.7563 36.6074L91.0031 41.4504L92.8161 43.2178L97.7452 34.9548L95.9103 33.2262L90.9846 35.4021L92.9461 30.4325Z" fill="black"/>
<path d="M30.9069 46.8809L29.7404 49.6864L23.0574 46.9062L22.0834 49.2458L30.6536 52.811L32.7941 47.6675L30.9069 46.8809Z" fill="black"/>
<path d="M32.6151 35.652L33.7596 36.6986L35.6351 34.6459L37.1442 36.025L35.2688 38.0777L37.9595 40.5355L36.2495 42.4059L29.3977 36.1449L33.1722 32.0125L34.6813 33.39L32.6151 35.652Z" fill="black"/>
<path fill-rule="evenodd" clip-rule="evenodd" d="M104.02 68.0794C101.018 68.1841 98.8239 65.9964 98.7141 62.8684C98.6095 59.7421 100.647 57.4076 103.65 57.3029C106.454 57.2084 108.512 59.7236 108.608 62.5274C108.706 65.3296 106.825 67.9815 104.02 68.0794ZM103.728 59.9413C103.364 59.9475 103.005 60.0266 102.672 60.174C102.339 60.3214 102.039 60.5341 101.789 60.7994C101.54 61.0648 101.347 61.3774 101.22 61.7189C101.094 62.0603 101.037 62.4237 101.054 62.7874C101.062 63.1515 101.143 63.5103 101.292 63.8424C101.442 64.1745 101.656 64.4733 101.923 64.721C102.19 64.9686 102.504 65.1601 102.847 65.2841C103.189 65.4081 103.553 65.462 103.917 65.4427C105.196 65.3988 106.324 64.1193 106.272 62.6085C106.219 61.096 105.007 59.8958 103.728 59.9413Z" fill="black"/>
<path fill-rule="evenodd" clip-rule="evenodd" d="M74.6375 30.9744C77.6169 31.9332 80.4207 30.6115 81.3407 27.7502C82.2 25.0797 80.3448 22.4109 77.6743 21.5517C75.0038 20.6925 71.9383 21.7745 71.0774 24.4467C70.1574 27.3063 71.6598 30.0139 74.6375 30.9744ZM73.4434 26.3395C73.4175 25.9763 73.4648 25.6117 73.5824 25.2671C73.9757 24.0483 75.5152 23.314 76.9568 23.7782C78.3967 24.2424 79.2188 25.7364 78.8272 26.9551C78.7215 27.3038 78.5468 27.6277 78.3137 27.9076C78.0805 28.1875 77.7935 28.4178 77.4697 28.5848C77.1459 28.7518 76.7919 28.8522 76.4287 28.8799C76.0654 28.9076 75.7002 28.8621 75.3549 28.7462C75.007 28.6388 74.6842 28.4626 74.4056 28.2282C74.127 27.9938 73.8983 27.7058 73.7331 27.3814C73.5678 27.057 73.4693 26.7027 73.4434 26.3395Z" fill="black"/>
<path fill-rule="evenodd" clip-rule="evenodd" d="M27.259 65.3212L28.8643 66.0133L28.8322 68.7023L19.5952 64.8417L19.629 62.075L28.9538 58.5166L28.9217 61.2192L27.3012 61.832L27.259 65.3212ZM22.4801 63.493V63.52L25.4207 64.602L25.4477 62.4937L22.4801 63.493Z" fill="black"/>
<path d="M101.559 48.3191L102.992 47.7249L104.146 50.5051L106.034 49.7236L103.908 44.602L95.3364 48.1587L97.4599 53.2803L99.3472 52.4987L98.1926 49.7151L99.6713 49.1024L100.767 51.7408L102.654 50.9575L101.559 48.3191Z" fill="black"/>
<path d="M85.5153 44.9498H73.5369V43.7023H85.5153V44.9498Z" fill="black"/>
<path d="M85.5153 42.6624H73.5369V41.707H85.5153V42.6624Z" fill="black"/>
<path d="M82.5366 40.9998C82.372 41.1098 82.1785 41.1685 81.9805 41.1685C81.7152 41.1681 81.4608 41.0625 81.2732 40.8748C81.0855 40.6872 80.9799 40.4329 80.9795 40.1675C80.9795 39.9695 81.0382 39.776 81.1482 39.6114C81.2582 39.4468 81.4145 39.3185 81.5974 39.2427C81.7803 39.1669 81.9816 39.1471 82.1758 39.1857C82.37 39.2244 82.5483 39.3197 82.6883 39.4597C82.8283 39.5997 82.9237 39.778 82.9623 39.9722C83.0009 40.1664 82.9811 40.3677 82.9053 40.5506C82.8296 40.7335 82.7012 40.8898 82.5366 40.9998Z" fill="black"/>
<path d="M75.1405 87.541C75.1405 88.9066 76.2462 89.9296 77.6135 89.9296C77.6135 89.9296 79.3184 89.9329 80.4157 89.9312C81.518 89.9312 81.6024 90.6807 81.5804 91.2006C84.2205 90.2013 82.8482 88.3934 81.6209 88.3884H78.1064C77.9036 88.3884 77.7091 88.3078 77.5657 88.1644C77.4223 88.021 77.3417 87.8265 77.3417 87.6237C77.3417 87.4209 77.4223 87.2264 77.5657 87.083C77.7091 86.9396 77.9036 86.859 78.1064 86.859L82.6827 86.8455C84.4687 86.8455 85.917 85.4208 85.917 83.6314C85.917 81.8438 84.4687 80.3954 82.6827 80.3954L75.1118 80.3887C74.8466 80.3887 74.5922 80.2833 74.4046 80.0957C74.217 79.9082 74.1116 79.6538 74.1116 79.3885C74.1116 79.1233 74.217 78.8689 74.4046 78.6813C74.5922 78.4937 74.8466 78.3883 75.1118 78.3883L85.0949 78.4002C88.4086 78.4002 91.0943 75.7972 91.0943 72.4835C91.0943 69.1716 88.4086 66.3796 85.0949 66.3796L74.6138 66.388C74.3331 66.388 74.0639 66.2765 73.8654 66.078C73.6669 65.8795 73.5554 65.6103 73.5554 65.3296C73.5554 65.0489 73.6669 64.7797 73.8654 64.5812C74.0639 64.3827 74.3331 64.2712 74.6138 64.2712H85.76C89.0889 64.2475 94.4113 61.1702 94.4113 55.181C94.4113 49.1918 89.9211 45.6148 88.6736 45.0325C88.5065 45.5321 87.7587 46.6969 85.9288 46.6969H80.6047C79.6898 46.6969 78.8576 47.362 78.4423 48.6938H73.4508C73.5352 49.6898 74.5328 51.5196 76.6108 51.5196H81.4353C81.9889 51.5196 82.4363 51.8843 82.4363 52.4346C82.4365 52.5661 82.4108 52.6964 82.3605 52.8179C82.3103 52.9395 82.2366 53.0499 82.1436 53.1429C82.0506 53.2359 81.9401 53.3096 81.8186 53.3598C81.697 53.4101 81.5668 53.4358 81.4353 53.4356H76.6108C75.365 53.4339 73.9504 53.7681 73.4508 55.9305L83.8087 55.9255C84.5227 55.9255 85.1017 56.4623 85.1017 57.178C85.1017 57.892 84.5227 58.5132 83.8087 58.5132L74.6172 58.5065C73.7084 58.4863 72.8048 58.6478 71.9592 58.9816C71.1137 59.3154 70.3434 59.8148 69.6936 60.4504C69.0437 61.0859 68.5273 61.845 68.1748 62.6828C67.8222 63.5207 67.6406 64.4206 67.6406 65.3296C67.6406 66.2386 67.8222 67.1385 68.1748 67.9763C68.5273 68.8142 69.0437 69.5732 69.6936 70.2088C70.3434 70.8444 71.1137 71.3438 71.9592 71.6776C72.8048 72.0114 73.7084 72.1729 74.6172 72.1527H84.1817C84.4653 72.1571 84.7357 72.2732 84.9341 72.4758C85.1326 72.6784 85.2432 72.9511 85.2418 73.2347C85.2418 73.8171 84.7675 74.1243 84.1817 74.1243L74.6999 74.1311C72.1982 74.1311 70.1709 76.0571 70.1709 78.5572C70.1709 79.7585 70.648 80.9106 71.4973 81.7603C72.3466 82.6099 73.4986 83.0874 74.6999 83.0879H82.4363C82.6879 83.0914 82.928 83.1941 83.1043 83.3736C83.2807 83.5532 83.3791 83.795 83.3782 84.0467C83.3782 84.5683 82.9579 84.9903 82.4363 84.9903L77.6135 84.9886C76.2462 84.9886 75.1405 86.1787 75.1405 87.541Z" fill="black"/>
<path d="M71.9754 57.0953C71.8741 56.1381 72.3519 53.3951 74.3066 52.4801C72.3519 51.5652 71.81 48.6955 71.9754 47.9022L69.2323 46.0098C69.1422 45.9197 69.0353 45.8483 68.9175 45.7995C68.7998 45.7507 68.6736 45.7256 68.5462 45.7256C68.4187 45.7256 68.2925 45.7507 68.1748 45.7995C68.0571 45.8483 67.9501 45.9197 67.86 46.0098C67.7698 46.1 67.6984 46.2069 67.6496 46.3247C67.6008 46.4424 67.5757 46.5686 67.5757 46.696C67.5757 46.8235 67.6008 46.9497 67.6496 47.0674C67.6984 47.1851 67.7698 47.2921 67.86 47.3822L69.6273 48.6094C70.4877 49.1836 70.3391 50.122 70.215 50.9053L70.2097 50.939C70.0865 51.7307 69.2526 51.3559 69.0028 51.0639C68.7147 50.7762 68.3478 50.5804 67.9484 50.5012C67.5491 50.422 67.1352 50.4629 66.7591 50.6188C66.383 50.7747 66.0615 51.0385 65.8353 51.3771C65.6091 51.7156 65.4884 52.1135 65.4883 52.5207C65.4883 53.6584 66.4099 54.5396 67.5477 54.5396C68.1165 54.5396 68.6314 54.3083 69.0028 53.9352C69.2543 53.6432 70.0865 53.2702 70.2097 54.0602L70.2151 54.0944C70.3392 54.8776 70.4875 55.814 69.6273 56.388L67.86 57.6169C67.7639 57.7056 67.6867 57.8128 67.633 57.9321C67.5794 58.0514 67.5504 58.1803 67.5478 58.311C67.5452 58.4418 67.5691 58.5717 67.618 58.693C67.6669 58.8143 67.7398 58.9245 67.8323 59.0169C67.9249 59.1093 68.0351 59.1821 68.1565 59.2309C68.2779 59.2796 68.4078 59.3033 68.5386 59.3006C68.6694 59.2978 68.7982 59.2687 68.9174 59.2149C69.0366 59.1611 69.1438 59.0838 69.2323 58.9876L71.9754 57.0953Z" fill="black"/>
<path fill-rule="evenodd" clip-rule="evenodd" d="M97.7957 64.0003C97.7957 82.6652 82.6647 97.7962 63.9998 97.7962C46.7202 97.7962 32.4695 84.828 30.4492 68.0933C30.2872 66.7516 30.2039 65.3857 30.2039 64.0003C30.2039 62.1046 30.3599 60.2454 30.6599 58.4348C30.672 58.3622 30.6842 58.2898 30.6967 58.2174C33.4399 42.3075 47.3064 30.2043 63.9998 30.2043C82.6647 30.2043 97.7957 45.3353 97.7957 64.0003ZM43.6096 89.671C37.0652 84.4659 32.5566 76.8109 31.4708 68.0933H43.6096V89.671ZM63.4928 96.7785C59.9832 96.7252 56.6073 96.1205 53.4479 95.0471V68.0933H63.4928V96.7785ZM63.4928 31.2221V58.2174H53.4479V32.9534C56.6073 31.88 59.9832 31.2753 63.4928 31.2221ZM31.7262 58.2174C33.1526 50.2026 37.4916 43.1956 43.6096 38.3295V58.2174H31.7262ZM96.7818 64.0003C96.7818 81.936 82.378 96.5075 64.5067 96.7785V31.2221C82.378 31.493 96.7818 46.0645 96.7818 64.0003Z" fill="black"/>
</svg>
