<svg width="129" height="129" viewBox="0 0 129 129" fill="none" xmlns="http://www.w3.org/2000/svg">
<rect width="128" height="128" transform="translate(0.666504 0.111328)" fill="#30363E"/>
<path d="M106.928 64.6356C106.928 70.9 106.928 77.1645 106.928 83.429C106.928 84.0762 107.052 84.7723 106.285 85.1669C106.144 85.2378 106.042 85.5703 106.073 85.7565C106.308 87.3127 105.079 88.0309 104.361 89.1038C103.395 90.5491 101.772 91.2318 100.828 92.6284C100.77 92.7126 100.668 92.8101 100.575 92.819C98.9436 93.0362 97.6446 94.0338 96.5229 95.0224C95.685 95.7584 94.6077 95.8648 93.7919 96.6495C93.2643 97.1549 92.2624 97.3988 91.4821 97.7667C90.489 98.2323 89.62 98.7598 88.8797 99.5401C88.3388 100.108 87.5142 100.152 86.8624 100.48C85.9181 100.954 85.0891 101.699 84.0605 101.979C83.2802 102.191 82.8324 102.825 82.2206 103.238C81.8704 103.473 81.5334 103.685 81.1522 103.889C79.7556 104.634 78.2261 105.175 77.0822 106.345C76.9581 106.474 76.8251 106.744 76.7276 106.731C75.464 106.545 74.5951 107.543 73.7572 108.079C72.8394 108.664 71.4473 108.505 70.9153 109.724C70.8665 109.839 70.5961 109.875 70.4188 109.914C70.2015 109.959 69.9267 109.892 69.7715 110.008C67.4883 111.67 64.8902 110.562 62.4563 110.854C62.0927 110.899 61.7203 110.85 61.3524 110.837C60.9046 110.823 60.4701 110.81 60.2218 110.322C60.0223 109.928 59.6144 109.959 59.2465 109.941C58.781 109.919 58.3642 109.861 58.2135 109.311C58.178 109.187 58.0184 108.983 57.9475 108.997C56.7637 109.192 56.1652 108.021 55.1278 107.831C54.2899 107.676 53.8244 106.882 53.1771 106.394C52.8978 106.186 52.6628 106.009 52.3258 105.982C51.8027 105.942 51.2795 105.933 51.1244 105.259C51.0978 105.144 50.9249 104.984 50.814 104.984C49.9761 104.967 49.4086 104.386 48.7259 104.089C47.6397 103.614 46.8683 102.59 45.8929 102.311C44.7624 101.983 44.0708 101.096 42.9668 100.724C41.6545 100.281 40.2447 99.5712 39.2206 98.4362C39.1009 98.3032 38.9501 98.086 38.8215 98.0948C37.5802 98.148 36.791 97.1106 35.758 96.6894C34.4901 96.1751 33.1645 95.3816 32.0118 94.3973C31.2847 93.7766 30.3581 92.9653 29.232 92.9298C28.5492 92.9077 28.5138 92.2604 28.1059 92.0121C26.7138 91.1698 25.4636 90.0525 24.7054 88.7181C24.1956 87.8225 23.2956 86.9624 23.3311 85.761C23.3311 85.6191 23.3311 85.4018 23.2468 85.3398C22.0365 84.4398 22.4754 83.1319 22.471 81.9881C22.4399 70.1197 22.4532 58.2558 22.471 46.3875C22.471 45.5407 22.236 44.6008 23.1848 43.9978C23.3355 43.9047 23.3976 43.4969 23.3355 43.2752C22.9454 41.8653 24.0094 41.0629 24.732 40.2427C25.9202 38.8905 27.2502 37.6358 28.6512 36.5053C29.232 36.0354 30.1054 35.9112 30.6418 35.2772C31.4132 34.3684 32.6546 34.2398 33.5812 33.5083C34.193 33.025 35.1196 32.7369 35.9043 32.3733C36.9019 31.9122 37.7664 31.3802 38.5156 30.6088C38.591 30.5334 38.693 30.4182 38.7772 30.4226C39.9698 30.4802 40.5905 29.2876 41.7787 29.1059C42.488 28.9995 43.3038 28.2901 44.0442 27.8113C44.8998 27.2527 45.7732 26.6941 46.5978 26.1222C47.8747 25.2355 49.7012 25.1468 50.486 23.5419C50.5126 23.4842 50.6101 23.4089 50.6589 23.4177C51.9357 23.6616 52.6717 22.5488 53.6426 22.1054C54.915 21.5247 56.2982 20.935 57.2957 19.8621C57.6017 19.5296 57.8765 19.3345 58.3021 19.3257C58.7632 19.3124 59.1223 19.1882 59.4238 18.7671C59.8671 18.1464 60.612 18.2971 61.2593 18.2439C62.0085 18.1818 62.7932 18.3503 63.3297 17.5346C63.5779 17.1621 65.8213 17.202 66.0651 17.57C66.4907 18.2173 67.0848 18.1996 67.7099 18.2306C68.6498 18.2749 69.4789 18.337 70.3257 19.0597C70.902 19.5518 71.9616 19.6227 72.6133 20.2656C73.7439 21.3828 75.3399 21.6621 76.5857 22.5C77.8359 23.3424 79.5118 23.5951 80.3541 25.0448C80.4029 25.1246 80.5359 25.1778 80.6379 25.2C82.0521 25.4882 83.0984 26.6808 84.3442 27.0354C86.0023 27.5098 86.9555 28.9241 88.556 29.4738C89.3407 29.7399 90.6043 29.9926 91.123 31.0433C91.1629 31.1231 91.3136 31.2162 91.3979 31.2029C92.3599 31.061 92.852 31.7704 93.4905 32.2758C94.7097 33.2423 96.1417 33.8364 97.587 34.3817C97.9594 34.5235 97.9638 34.9181 98.2298 35.0955C99.316 35.8225 100.54 36.3368 101.524 37.2191C102.145 37.7733 102.774 38.3008 103.643 38.4339C103.763 38.4516 103.913 38.691 103.94 38.8506C104.135 39.9457 104.809 40.6816 105.674 41.2934C105.762 41.3555 105.904 41.4619 105.891 41.5195C105.545 43.0624 106.915 44.1619 106.915 45.6249C106.902 51.9647 106.911 58.3002 106.911 64.64C106.915 64.64 106.919 64.64 106.924 64.64L106.928 64.6356ZM81.6797 67.1006C86.357 67.1006 91.0387 67.074 95.716 67.1183C96.9131 67.1316 98.0835 67.1183 98.8416 66.103C99.2938 65.5001 99.9145 65.0257 100.096 64.1656C100.535 62.0819 98.8239 60.4193 99.0855 58.4021C99.0943 58.3445 99.0367 58.2337 98.9835 58.2159C97.9239 57.8745 98.1722 56.9701 98.1012 56.1987C98.0613 55.7554 97.7732 55.4273 97.5958 55.0637C97.2323 54.3012 96.2126 54.0928 96.1328 53.1751C96.0885 52.6431 95.9156 52.2751 95.45 51.8982C94.5057 51.1268 93.6368 50.2401 92.8476 49.3091C91.9831 48.2894 90.724 47.7751 89.6466 47.283C88.6669 46.8352 87.8688 45.687 86.561 45.9752C86.4767 45.9929 86.3171 45.9087 86.2772 45.8289C85.8782 45.0264 85.1201 45.1372 84.4418 45.1372C81.5334 45.1239 78.6207 45.0885 75.7123 45.1594C74.2448 45.1949 72.999 46.1348 71.5582 46.4407C70.9508 46.5692 70.3035 47.1722 69.5276 47.2564C69.4079 47.2697 69.2927 47.416 69.1907 47.518C67.6035 49.0608 65.9144 50.5239 64.4824 52.1997C63.9637 52.8115 62.9174 53.2239 63.0548 54.3411C63.0814 54.5583 62.9484 54.7933 62.6647 54.7711C62.3853 54.749 62.341 54.5096 62.3055 54.2879C62.2257 53.778 61.9819 53.4367 61.6139 53.0199C60.8602 52.1731 60.0711 51.3751 59.242 50.6125C58.1603 49.615 57.4332 48.1387 55.7219 47.9658C55.5889 47.9525 55.4381 47.8638 55.3495 47.7618C54.4317 46.7288 53.4076 45.922 51.9135 46.0195C51.6963 46.0328 51.4259 46.0062 51.3195 45.7978C50.9869 45.1417 50.3884 45.1461 49.7988 45.1461C46.7796 45.1417 43.756 45.1727 40.7368 45.1328C39.4866 45.1151 38.6841 46.3165 37.4383 46.2279C37.4161 46.2279 37.3762 46.2722 37.3629 46.2988C36.8043 47.3451 35.5452 47.2786 34.6807 47.8948C33.7718 48.5421 32.7654 49.0564 31.9807 49.8988C31.3645 50.5593 31.0098 52.0756 31.3467 52.7894C31.8433 53.8445 32.8719 54.3588 34.1177 54.1859C35.2304 54.0307 35.9088 52.8647 37.1058 52.8958C37.128 52.8958 37.1501 52.8381 37.1723 52.8115C38.0546 51.8672 38.8969 50.8697 40.4176 51.1268C40.7501 51.1845 41.0693 51.0293 41.2422 50.6879C41.4195 50.3421 41.7432 50.2313 42.0801 50.2756C44.6205 50.6037 47.2761 49.4643 49.7544 51.0382C50.5702 51.5569 51.9978 50.8342 52.5963 52.1554C54.2411 52.1909 54.946 53.6096 55.9657 54.5229C56.5554 55.0504 57.4376 55.5425 57.247 56.6199C57.2292 56.7218 57.3622 56.8992 57.4686 56.9746C58.6346 57.7947 59.3174 58.8499 59.18 60.3395C59.1534 60.641 59.2642 60.9203 59.5701 61.0755C59.8139 61.1996 60.0401 61.3504 59.9115 61.6651C59.7962 61.9578 59.5036 61.9445 59.2509 61.9533C58.9184 61.9666 58.5859 61.9622 58.2578 61.9622C51.5145 61.9622 44.7712 62.0553 38.0324 61.909C36.2945 61.8735 35.124 63.1016 33.5413 63.208C33.5103 63.208 33.4792 63.2435 33.4526 63.2701C32.7654 63.9306 31.9275 64.4981 31.4443 65.2828C31.1162 65.8193 30.367 65.9035 30.2916 66.5242C30.163 67.6237 29.8083 68.6124 29.4226 69.6631C28.6556 71.7424 29.7108 73.8039 30.367 75.8079C30.4024 75.9231 30.5753 76.0295 30.7039 76.0694C31.196 76.2246 31.2536 76.6147 31.2625 77.0359C31.2714 77.5413 31.6172 77.8384 31.8566 78.233C32.2512 78.8714 32.9384 79.0797 33.3595 79.7004C33.9979 80.6403 34.929 81.5403 36.0196 81.8994C37.0349 82.2364 37.7176 83.3226 38.9324 83.1408C39.021 83.1275 39.1762 83.3004 39.2472 83.4201C39.5797 83.9831 40.1693 84.1029 40.6925 84.0541C44.4432 83.7083 48.318 85.1314 51.9756 83.1896C52.7515 82.7772 53.7002 82.5733 54.5381 82.2763C56.6662 81.5226 57.8943 79.8423 59.4194 78.4724C60.4657 77.5325 61.3568 76.4197 62.2967 75.3645C62.5405 75.0896 62.7533 75.001 63.0282 75.2625C64.407 76.5615 65.6705 78.0024 66.9119 79.3945C67.9804 80.596 69.3813 81.1191 70.5695 81.9172C71.372 82.4536 72.4138 83.3093 73.6463 83.2383C73.766 83.2295 73.9567 83.3403 74.0143 83.4511C74.3734 84.1605 75.0207 84.094 75.6458 84.0984C77.8182 84.1117 79.995 84.1826 82.1674 84.1029C83.6438 84.0496 85.3019 84.6083 86.4812 83.1319C86.5344 83.0654 86.694 83.0565 86.7959 83.0699C88.0018 83.2383 88.627 81.7753 89.855 81.9792C89.9304 81.9925 90.09 81.7221 90.1565 81.558C90.2585 81.292 90.4136 81.0526 90.6974 81.0925C91.6905 81.2344 92.2934 80.4674 92.7944 79.9354C93.3486 79.3457 94.2308 78.8581 94.1555 77.732C94.0978 76.8586 93.8451 76.3177 93.1757 75.7192C92.1915 74.8369 91.0831 74.8192 89.9836 75.5818C89.221 76.1093 88.7733 77.3064 87.5186 77.0359C87.4344 77.0182 87.2659 77.0936 87.2349 77.1689C86.8802 78.0024 86.1265 77.8694 85.4482 77.9448C85.1245 77.9803 84.659 78.0069 84.5171 78.2152C83.8433 79.2172 82.8457 78.9512 81.9324 78.9689C80.4206 78.9999 78.8778 78.7783 77.4103 79.0221C75.7345 79.3014 74.6616 78.1177 73.367 77.6123C72.4848 77.2665 71.3542 76.8852 70.6626 75.9143C69.8735 74.8015 68.3439 74.2606 68.1533 72.6601C68.1355 72.5005 67.9937 72.3276 67.8562 72.2212C66.7878 71.3833 66.0651 70.3946 66.2247 68.9404C66.2691 68.5281 66.1316 68.1823 65.7459 67.8986C65.2272 67.5173 65.4178 67.2114 65.9853 67.1316C66.3489 67.0784 66.7213 67.0961 67.0892 67.0961C71.9527 67.0961 76.8162 67.0961 81.6797 67.0961V67.1006Z" fill="#23C0E8"/>
<path d="M79.6891 61.9622C75.4906 61.9622 71.2966 61.9622 67.0981 61.9622C66.7301 61.9622 66.3577 61.9755 65.9942 61.9179C65.4533 61.8336 65.205 61.5454 65.7503 61.1597C66.1449 60.8804 66.2691 60.5302 66.2292 60.1223C66.0828 58.6903 66.8676 57.7814 67.8961 56.9834C68.0247 56.8815 68.1666 56.6819 68.1621 56.5312C68.1355 55.2854 69.2971 54.913 69.8513 54.115C70.7468 52.8204 72.2719 52.4391 73.2828 51.3707C73.4778 51.1667 73.7616 51.1978 74.0143 51.1933C74.5773 51.1845 75.0916 51.1446 75.433 50.5638C75.6369 50.2091 76.0892 50.2756 76.4483 50.2756C78.6561 50.2623 80.864 50.2623 83.0763 50.2623C83.5241 50.2623 83.963 50.2756 84.2068 50.7677C84.3309 51.0204 84.5925 51.149 84.8541 51.118C86.4235 50.914 87.2792 51.9781 88.3344 52.8514C88.9373 53.3524 89.8417 53.5076 90.4358 54.1859C91.0609 54.8997 91.7836 55.445 92.1516 56.4292C92.4708 57.2893 92.8875 58.2647 93.4949 58.912C94.2885 59.7588 94.018 60.6188 94.0047 61.4745C93.9959 62.073 93.3619 61.9578 92.9407 61.9622C89.8462 61.9755 86.756 61.9711 83.6615 61.9711C82.3359 61.9711 81.0103 61.9711 79.6847 61.9711L79.6891 61.9622Z" fill="#23C0E8"/>
<path d="M45.2545 78.9866C44.554 78.9866 43.8446 78.9024 43.1575 79.0044C41.4594 79.2527 40.1915 78.5876 39.1408 77.3285C39.0344 77.2 38.8393 77.0758 38.6841 77.067C37.2432 77.0182 36.9905 75.6926 36.2014 74.9079C35.2349 73.9502 35.6561 72.4251 34.5433 71.6404C34.5167 71.6227 34.5167 71.5739 34.5034 71.5384C34.2063 70.8202 35.4477 68.3331 36.2102 68.1114C36.6314 67.9872 37.0703 67.9207 37.3009 67.4552C37.5048 67.0474 37.926 67.1183 38.2851 67.1183C45.1747 67.1094 52.0598 67.105 58.9494 67.105C59.2642 67.105 59.6676 67.0075 59.8538 67.3577C60.0933 67.801 59.5967 67.8764 59.4061 68.107C59.3174 68.2178 59.1888 68.3774 59.2154 68.4838C59.5701 70.0178 58.2977 71.0641 58.0494 72.403C57.9342 73.0192 57.3268 73.1567 57.012 73.6044C56.1519 74.8325 54.9682 75.901 53.7667 76.7034C53.0308 77.1911 52.1485 78.0423 51.0091 77.9226C50.8672 77.9093 50.65 77.9093 50.5835 77.9935C49.1958 79.7448 47.254 78.7029 45.5826 78.9999C45.4762 79.0177 45.3609 78.9999 45.2501 78.9999C45.2501 78.9955 45.2501 78.9866 45.2501 78.9822L45.2545 78.9866Z" fill="#23C0E8"/>
</svg>
