<svg width="128" height="128" viewBox="0 0 128 128" fill="none" xmlns="http://www.w3.org/2000/svg">
<rect width="128" height="128" fill="white"/>
<path fill-rule="evenodd" clip-rule="evenodd" d="M24 86.677C27.7538 83.3808 31.3874 80.1578 35.0764 77.0013C35.4056 76.7193 36.1988 76.6462 36.6057 76.8386C43.6056 80.1532 51.0309 81.2913 58.6531 80.7245C70.4876 79.8443 81.294 76.1673 89.9342 67.64C96.4737 61.1864 97.3595 52.5944 92.3677 45.8265C89.7299 42.2493 86.0417 40.0164 82.0383 38.2579C81.552 38.0443 81.0481 37.8687 80.5442 37.6736C82.153 34.9119 83.4871 34.4357 86.2146 35.5785C91.7861 37.913 96.7465 41.0862 100.245 46.1418C105.777 54.1366 105.153 64.2172 98.6631 72.4884C93.5724 78.9753 86.8396 83.2801 79.4948 86.7269C70.1427 91.1158 60.2637 93.3219 49.9482 93.2488C41.4144 93.1897 33.1921 91.4755 25.4969 87.6228C25.1224 87.436 24.7508 87.2419 24.3855 87.0385C24.2848 86.9821 24.2108 86.8776 24 86.677Z" fill="#00325B"/>
<path fill-rule="evenodd" clip-rule="evenodd" d="M75.7987 42.8432C78.431 39.7755 78.4337 39.7699 81.9055 41.5959C86.0892 43.7974 89.2087 46.9002 89.9928 51.7589C90.7102 56.2125 89.0173 60.0449 86.3555 63.4455C81.0364 70.2402 73.7785 73.9144 65.5211 75.6526C57.7926 77.2799 50.1038 77.0737 42.7572 73.7915C36.9342 71.1897 33.9349 66.5724 34.3223 61.0222C34.5747 57.4173 36.1862 54.3532 38.4413 51.6183C38.7593 51.2319 39.4629 50.961 39.9798 50.9739C42.0739 51.0285 44.1662 51.2134 46.5396 51.3687C46.1846 52.0335 45.8822 52.5771 45.5993 53.1309C43.1612 57.9017 44.3308 62.4285 48.8437 65.327C53.4887 68.3106 58.7098 68.6545 63.9614 68.0628C70.3881 67.3389 76.2092 65.0062 80.5954 60.0273C86.2871 53.5683 84.6691 46.743 76.7519 43.2777C76.481 43.1585 76.2138 43.0327 75.7987 42.8432Z" fill="#F74903"/>
<path fill-rule="evenodd" clip-rule="evenodd" d="M71.417 54.8012C71.4254 58.7556 68.145 62.0296 64.1906 62.0129C60.2362 61.9953 56.9835 58.6946 57.0242 54.7411C57.0649 50.8579 60.2778 47.6524 64.16 47.6191C68.1154 47.5868 71.4078 50.8459 71.417 54.8012Z" fill="#A2A4A3"/>
</svg>
