<svg width="128" height="128" viewBox="0 0 128 128" fill="none" xmlns="http://www.w3.org/2000/svg">
<rect width="128" height="128" fill="#008BD6"/>
<g clip-path="url(#clip0_1195_2186)">
<path d="M19.9304 75.8448C19.5118 76.1746 19.4237 76.7239 19.666 77.4933C19.8863 78.1747 20.404 79.0208 21.2191 80.0319C24.5014 84.0762 28.4116 87.4389 32.9497 90.1204C37.4878 92.802 42.3454 94.78 47.5223 96.0548C52.7212 97.3517 58.0303 98 63.4495 98C70.3888 98 76.9977 96.9891 83.276 94.9668C89.5544 92.9667 94.7974 90.1533 99.0052 86.5267C100.481 85.2301 101.219 84.1971 101.219 83.4277C101.219 83.1419 101.098 82.8562 100.856 82.5704C100.525 82.2409 100.129 82.131 99.666 82.2409C99.2034 82.3506 98.5536 82.6254 97.7164 83.0651C93.685 85.1751 88.7725 86.8565 82.9787 88.1094C77.207 89.3841 71.1819 90.0215 64.9036 90.0215C57.1272 90.0215 49.6151 88.9666 42.3674 86.8565C35.1197 84.7464 28.698 81.4496 23.1026 76.9658C22.2875 76.3285 21.6265 75.9217 21.1199 75.7458C20.6353 75.57 20.2388 75.6031 19.9304 75.8448Z" fill="white"/>
<path d="M93.3533 77.4952C92.8907 77.9349 92.7696 78.3964 92.9899 78.8801C93.1442 79.2317 93.4416 79.4294 93.8822 79.4735C94.3227 79.5394 94.9505 79.4953 95.7656 79.3416C97.0874 79.0559 98.4642 78.858 99.8961 78.7481C101.328 78.6603 102.573 78.6822 103.63 78.814C104.688 78.9679 105.348 79.2317 105.613 79.6053C106.009 80.1989 105.866 81.4515 105.183 83.3638C104.522 85.276 103.619 87.1332 102.474 88.9356C102.033 89.6608 101.769 90.2323 101.681 90.65C101.593 91.0676 101.703 91.4192 102.011 91.7049C102.209 91.9027 102.43 92.0016 102.672 92.0016C103.311 92.0016 104.236 91.4411 105.448 90.3203C107.629 88.43 109.16 86.1882 110.041 83.5946C110.525 82.2538 110.823 80.8472 110.933 79.3745C111.043 77.902 110.878 76.8469 110.437 76.2095C110.019 75.594 109.093 75.0884 107.662 74.693C106.252 74.2974 104.831 74.0994 103.399 74.0994C100.601 74.0994 97.9465 74.7589 95.4353 76.0777C94.5101 76.5832 93.8162 77.0558 93.3533 77.4952Z" fill="white"/>
<path d="M18.8603 67.9271C14.1754 67.9271 11 64.6031 11 59.6691C11 53.6964 15.685 49.9569 23.0768 49.9569C24.3782 49.9569 25.159 50.0088 25.7837 50.1647V49.5414C25.7837 46.1136 24.5864 44.5036 22.0878 44.5036C20.1097 44.5036 18.7042 45.6462 18.1836 47.6717C18.0274 48.2949 17.6631 48.6066 17.1425 48.5027L12.5617 47.6717C11.937 47.5678 11.6767 47.1523 11.8329 46.5291C12.9781 41.9067 16.8822 39.3099 22.5563 39.3099C29.2714 39.3099 32.8111 42.9974 32.8111 49.905V66.4728C32.8111 66.9922 32.4467 67.3557 31.9782 67.3557H27.6577C27.1371 67.3557 26.8248 67.0441 26.7207 66.4728L26.044 63.4086H25.7316C24.4823 66.317 22.0357 67.9271 18.8603 67.9271ZM21.5672 62.6814C24.3261 62.6814 25.7837 60.1885 25.7837 55.5661V53.9041C25.2631 53.8002 24.6905 53.7483 24.0659 53.7483C20.474 53.7483 18.2357 55.67 18.2357 58.8381C18.2357 61.1753 19.5371 62.6814 21.5672 62.6814Z" fill="white"/>
<path d="M37.8015 31H43.2152C43.6837 31 44.0481 31.4155 44.0481 31.9349V66.4728C44.0481 66.9922 43.6837 67.3558 43.2152 67.3558H37.8015C37.333 67.3558 37.0206 66.9922 37.0206 66.4728V31.9349C37.0206 31.4155 37.333 31 37.8015 31Z" fill="white"/>
<path d="M59.4043 39.3099C66.1194 39.3099 70.7524 45.1787 70.7524 53.4367V54.787C70.7524 55.3584 70.388 55.67 69.9195 55.67H54.7714C55.0838 60.1365 56.5934 62.4217 59.4043 62.4217C61.4345 62.4217 63.0482 61.4869 63.6208 58.942C63.7249 58.3707 64.0372 58.1629 64.5578 58.2668L69.503 59.3575C70.0236 59.4614 70.2839 59.8249 70.0756 60.3962C68.4099 65.2783 64.5578 67.9271 59.4043 67.9271C52.2728 67.9271 47.4316 62.214 47.4316 53.8002C47.4316 45.3865 52.3769 39.3099 59.4043 39.3099ZM63.6208 51.0476C63.2564 46.9446 61.8509 44.8152 59.4043 44.8152C57.0098 44.8152 55.344 47.0485 54.8235 51.0476H63.6208Z" fill="white"/>
<path d="M77.5818 67.3558C77.8941 67.3558 78.3105 67.0961 78.4146 66.8364L82.3708 58.163H82.5791L86.4832 66.6806C86.6394 67.0442 87.1079 67.3558 87.5243 67.3558H92.938C93.5627 67.3558 93.875 66.8884 93.5627 66.3171L86.9517 53.4367L93.2504 41.0238C93.5627 40.4006 93.2504 39.9332 92.5736 39.9332H87.4202C87.0558 39.9332 86.6914 40.1929 86.5352 40.5045L82.8393 48.5027H82.6311L78.9352 40.4525C78.8311 40.1929 78.4146 39.9332 78.1023 39.9332H72.4803C71.8036 39.9332 71.4913 40.4006 71.8036 41.0238L78.0502 53.3848L71.4913 66.2651C71.179 66.8364 71.4913 67.3558 72.168 67.3558H77.5818Z" fill="white"/>
<path d="M102.049 67.9271C97.3642 67.9271 94.1888 64.6031 94.1888 59.6691C94.1888 53.6964 98.8738 49.9569 106.266 49.9569C107.567 49.9569 108.348 50.0088 108.973 50.1647V49.5414C108.973 46.1136 107.775 44.5036 105.277 44.5036C103.299 44.5036 101.893 45.6462 101.372 47.6717C101.216 48.2949 100.852 48.6066 100.331 48.5027L95.7505 47.6717C95.1258 47.5678 94.8656 47.1523 95.0217 46.5291C96.1669 41.9067 100.071 39.3099 105.745 39.3099C112.46 39.3099 116 42.9974 116 49.905V66.4728C116 66.9922 115.636 67.3557 115.167 67.3557H110.846C110.326 67.3557 110.014 67.0441 109.91 66.4728L109.233 63.4086H108.92C107.671 66.317 105.225 67.9271 102.049 67.9271ZM104.756 62.6814C107.515 62.6814 108.973 60.1885 108.973 55.5661V53.9041C108.452 53.8002 107.879 53.7483 107.255 53.7483C103.663 53.7483 101.425 55.67 101.425 58.8381C101.425 61.1753 102.726 62.6814 104.756 62.6814Z" fill="white"/>
</g>
<defs>
<clipPath id="clip0_1195_2186">
<rect width="105" height="67" fill="white" transform="translate(11 31)"/>
</clipPath>
</defs>
</svg>
