<svg width="128" height="128" viewBox="0 0 128 128" fill="none" xmlns="http://www.w3.org/2000/svg">
<g clip-path="url(#clip0_1195_2208)">
<rect width="128" height="128" fill="#1E617B"/>
<mask id="mask0_1195_2208" style="mask-type:alpha" maskUnits="userSpaceOnUse" x="15" y="21" width="92" height="110">
<path d="M47.4578 38.7747H58.5617V48.7843H47.4578V38.7747Z" fill="white"/>
<path d="M79.6005 130.179C64.6024 130.179 52.444 118.021 52.444 103.023C52.444 88.0247 64.6024 75.8663 79.6005 75.8663C94.5987 75.8663 106.757 88.0247 106.757 103.023C106.757 118.021 94.5987 130.179 79.6005 130.179Z" fill="white"/>
<path d="M58.599 32.4705V37.3572H47.4081L57.8405 21.8889L67.4522 32.4705H58.599Z" fill="white"/>
<path d="M42.6209 71.8376C40.6687 71.8376 38.7787 72.0365 37.1498 72.3971V50.3884H58.3752V76.1896C54.2967 73.3919 47.7936 71.8376 42.6209 71.8376ZM50.181 52.0173H45.2943V56.904H50.181V52.0173ZM50.181 58.5329H45.2943V63.4195H50.181V58.5329ZM56.6965 52.0173H51.8098V56.904H56.6965V52.0173ZM56.6965 58.5329H51.8098V63.4195H56.6965V58.5329Z" fill="white"/>
<path d="M27.7992 76.6869V62.8475L37.9953 56.332V72.9815C32.8973 73.8146 31.7782 75.0705 27.7992 76.6869Z" fill="white"/>
<path d="M42.9815 75.0829C49.0867 75.0829 54.6946 77.1221 59.2331 80.5167C53.0906 86.0872 49.1986 94.0949 49.1986 103.023C49.1986 111.478 52.6803 119.138 58.2757 124.658C53.9237 127.63 48.6515 129.384 42.9815 129.384C27.9857 129.384 15.825 117.223 15.825 102.227C15.825 87.2436 27.9857 75.0829 42.9815 75.0829Z" fill="white"/>
<path d="M92.582 73.9887V55.2502L102.529 63.3946V79.0743C100.54 76.8361 95.3175 75.0829 92.582 73.9887Z" fill="white"/>
<path d="M80.272 72.6209C79.5011 72.6209 77.8597 72.6831 77.8597 72.7328V64.8868C77.8597 62.6362 75.8951 60.8207 73.7937 60.8207C71.6923 60.8207 69.7277 62.6486 69.7277 64.8868V74.4114C66.4699 75.6549 62.7396 77.5076 59.9543 79.8701V34.1118H77.8597V27.5963H82.7464V34.1118H87.6331V73.5286C84.3753 72.9566 82.7713 72.6209 80.272 72.6209ZM68.5464 37.3572H62.0309V42.2439H68.5464V37.3572ZM68.5464 43.8728H62.0309V48.7595H68.5464V43.8728ZM68.5464 50.3883H62.0309V55.275H68.5464V50.3883ZM76.6909 37.3572H70.1753V42.2439H76.6909V37.3572ZM76.6909 43.8728H70.1753V48.7595H76.6909V43.8728ZM76.6909 50.3883H70.1753V55.275H76.6909V50.3883ZM84.8354 37.3572H78.3198V42.2439H84.8354V37.3572ZM84.8354 43.8728H78.3198V48.7595H84.8354V43.8728ZM84.8354 50.3883H78.3198V55.275H84.8354V50.3883Z" fill="white"/>
</mask>
<g mask="url(#mask0_1195_2208)">
<circle cx="49.0613" cy="49.0613" r="49.0613" transform="matrix(-1 0 0 1 113.184 9.99463)" fill="#D9D9D9"/>
</g>
</g>
<defs>
<clipPath id="clip0_1195_2208">
<rect width="128" height="128" fill="white"/>
</clipPath>
</defs>
</svg>
