<svg width="128" height="128" viewBox="0 0 128 128" fill="none" xmlns="http://www.w3.org/2000/svg">
<g clip-path="url(#clip0_1195_2212)">
<path d="M127.716 127.716H0V0H127.716V127.716Z" fill="white"/>
<path d="M127.716 69.1769V0.0568848H0V127.772H127.716V90.5102C127.431 90.5102 127.716 69.1769 127.716 69.1769Z" fill="#006FCF"/>
<path d="M112.071 62.0658H121.742V39.5947H111.218V42.7236L109.227 39.5947H100.124V43.5769L98.4178 39.5947H83.6267C83.0578 39.5947 82.2044 39.5947 81.6356 39.5947C81.0667 39.5947 80.4978 39.8791 79.9289 39.8791C79.36 39.8791 79.0756 40.1636 78.5067 40.448C77.9378 40.7324 77.6533 40.7324 77.0844 41.0169V40.448V39.5947H29.0133L27.5911 43.2924L26.1689 39.5947H14.7911V43.5769L13.0844 39.5947H3.98222L0 49.2658V62.0658H6.54222L7.68 58.9369H9.95556L11.0933 62.0658H61.1556V59.2213L63.1467 62.0658H77.0844V61.4969V60.3591C77.3689 60.6436 77.9378 60.6436 78.2222 60.928C78.5067 61.2124 79.0756 61.2124 79.36 61.4969C79.9289 61.7813 80.4978 61.7813 81.0667 61.7813C81.6356 61.7813 82.4889 61.7813 83.0578 61.7813H91.3067L92.4445 58.6524H94.72L95.8578 61.7813H109.796V58.9369L112.071 62.0658ZM127.716 90.5102V69.4613H49.4933L47.5022 72.3058L45.5111 69.4613H22.7556V91.9324H45.5111L47.5022 89.088L49.4933 91.9324H63.7156V87.0969H63.1467C65.1378 87.0969 66.8444 86.8125 68.2667 86.2436V92.2169H78.5067V89.3724L80.4978 92.2169H122.88C124.587 91.648 126.293 91.3636 127.716 90.5102Z" fill="white"/>
<path d="M122.88 85.1057H115.2V88.2346H122.596C125.724 88.2346 127.716 86.2435 127.716 83.3991C127.716 80.5546 126.009 79.1324 123.164 79.1324H119.751C118.898 79.1324 118.329 78.5635 118.329 77.7102C118.329 76.8569 118.898 76.288 119.751 76.288H126.293L127.716 73.1591H120.036C116.907 73.1591 114.916 75.1502 114.916 77.7102C114.916 80.5546 116.622 81.9769 119.467 81.9769H122.88C123.733 81.9769 124.302 82.5457 124.302 83.3991C124.587 84.5369 124.018 85.1057 122.88 85.1057ZM108.942 85.1057H101.262V88.2346H108.658C111.787 88.2346 113.778 86.2435 113.778 83.3991C113.778 80.5546 112.071 79.1324 109.227 79.1324H105.813C104.96 79.1324 104.391 78.5635 104.391 77.7102C104.391 76.8569 104.96 76.288 105.813 76.288H112.356L113.778 73.1591H106.098C102.969 73.1591 100.978 75.1502 100.978 77.7102C100.978 80.5546 102.684 81.9769 105.529 81.9769H108.942C109.796 81.9769 110.364 82.5457 110.364 83.3991C110.649 84.5369 109.796 85.1057 108.942 85.1057ZM98.9867 76.0035V72.8746H87.04V87.9502H98.9867V84.8213H90.4533V81.6924H98.7022V78.5635H90.4533V75.7191H98.9867V76.0035ZM79.6444 76.0035C81.0667 76.0035 81.6356 76.8569 81.6356 77.7102C81.6356 78.5635 81.0667 79.4169 79.6444 79.4169H75.3778V75.7191L79.6444 76.0035ZM75.3778 82.5457H77.0844L81.6356 87.9502H85.9022L80.7822 82.2613C83.3422 81.6924 84.7644 79.9858 84.7644 77.7102C84.7644 74.8658 82.7733 72.8746 79.6444 72.8746H71.68V87.9502H75.0933L75.3778 82.5457ZM66.2756 77.9946C66.2756 79.1324 65.7067 79.9857 64.2844 79.9857H59.7333V76.0035H64C65.4222 76.0035 66.2756 76.8569 66.2756 77.9946ZM56.32 72.8746V87.9502H59.7333V82.8302H64.2844C67.4133 82.8302 69.6889 80.8391 69.6889 77.7102C69.6889 74.8658 67.6978 72.5902 64.5689 72.5902L56.32 72.8746ZM51.2 87.9502H55.4667L49.4933 80.2702L55.4667 72.8746H51.2L47.5022 77.7102L43.8044 72.8746H39.5378L45.5111 80.2702L39.5378 87.6658H43.8044L47.5022 82.8302L51.2 87.9502ZM38.4 76.0035V72.8746H26.4533V87.9502H38.4V84.8213H29.8667V81.6924H38.1156V78.5635H29.8667V75.7191H38.4V76.0035ZM107.52 49.2658L113.493 58.368H117.76V43.2924H114.347V53.248L113.493 51.8258L108.089 43.2924H103.538V58.368H106.951V48.128L107.52 49.2658ZM92.7289 48.9813L93.8667 45.8524L95.0044 48.9813L96.4267 52.3946H91.3067L92.7289 48.9813ZM98.7022 58.368H102.4L95.8578 43.2924H91.3067L84.7644 58.368H88.4622L89.8844 55.2391H97.28L98.7022 58.368ZM82.7733 58.368L84.1956 55.2391H83.3422C80.7822 55.2391 79.36 53.5324 79.36 50.9724V50.688C79.36 48.128 80.7822 46.4213 83.3422 46.4213H87.04V43.2924H83.0578C78.5067 43.2924 75.9467 46.4213 75.9467 50.688V50.9724C75.9467 55.5235 78.5067 58.368 82.7733 58.368ZM69.9733 58.368H73.3867V51.5413V43.5769H69.9733V51.2569V58.368ZM62.5778 46.4213C64 46.4213 64.5689 47.2746 64.5689 48.128C64.5689 48.9813 64 49.8346 62.5778 49.8346H58.3111V46.1369L62.5778 46.4213ZM58.3111 52.9635H60.0178L64.5689 58.368H68.8356L63.7156 52.6791C66.2756 52.1102 67.6978 50.4035 67.6978 48.128C67.6978 45.2835 65.7067 43.2924 62.5778 43.2924H54.6133V58.368H58.0267L58.3111 52.9635ZM52.0533 46.4213V43.2924H40.1067V58.368H52.0533V55.2391H43.52V52.1102H51.7689V48.9813H43.52V46.1369H52.0533V46.4213ZM26.1689 58.368H29.2978L33.5644 46.1369V58.368H36.9778V43.2924H31.2889L27.8756 53.5324L24.4622 43.2924H18.7733V58.368H22.1867V46.1369L26.1689 58.368ZM7.68 48.9813L8.81778 45.8524L9.95556 48.9813L11.3778 52.3946H6.25778L7.68 48.9813ZM13.6533 58.368H17.3511L10.8089 43.2924H6.54222L0 58.368H3.69778L5.12 55.2391H12.5156L13.6533 58.368Z" fill="#006FCF"/>
</g>
<defs>
<clipPath id="clip0_1195_2212">
<rect width="128" height="128" fill="white"/>
</clipPath>
</defs>
</svg>
