<svg width="128" height="128" viewBox="0 0 128 128" fill="none" xmlns="http://www.w3.org/2000/svg">
<rect width="128" height="128" fill="white"/>
<path fill-rule="evenodd" clip-rule="evenodd" d="M38.2906 54.3328H35.6803C35.6502 54.3328 35.6201 54.3328 35.6201 54.3625C34.5228 55.7243 33.0982 56.5721 31.9416 57.0861C31.3774 57.3277 30.8433 57.51 30.4879 57.6011L29.8945 57.7516C29.8644 57.7516 29.8343 57.7823 29.8343 57.8427V60.2335C29.8343 60.2939 29.8644 60.3236 29.9237 60.3236H34.7898V74.5762C34.7898 74.6356 34.7898 74.6673 34.8782 74.6673H38.2906C38.3799 74.6673 38.3799 74.6673 38.3799 74.6059V54.3932C38.3799 54.3625 38.3498 54.3328 38.2906 54.3328ZM23.4261 54.2724H20.8149C20.7857 54.2724 20.7556 54.2724 20.7556 54.3021C19.6583 55.6946 18.2337 56.5413 17.0772 57.0256C15.9497 57.5099 15.0592 57.6912 15.0592 57.6912C15.0301 57.6912 15 57.7219 15 57.7823V60.1721C15 60.2335 15.0301 60.2632 15.0893 60.2632H19.9555V74.5454C19.9555 74.6059 19.9846 74.6356 20.0438 74.6356H23.4562C23.5155 74.6356 23.5446 74.5761 23.5446 74.485V54.3625C23.5155 54.3328 23.4562 54.2724 23.4261 54.2724ZM51.879 72.4884C49.7727 72.4884 48.0821 70.7938 48.0821 68.7358C48.0821 66.6481 49.7727 64.9833 51.879 64.9833C53.9863 64.9833 55.6769 66.6778 55.6769 68.7358C55.6769 70.7938 53.9863 72.4884 51.879 72.4884ZM51.8198 56.4512C53.5706 56.4512 54.9943 57.8733 54.9943 59.5976C54.9943 61.3228 53.5706 62.745 51.8198 62.745C50.0689 62.745 48.6453 61.3228 48.6453 59.5976C48.6453 57.8426 50.0689 56.4512 51.8198 56.4512ZM55.3507 63.6215C56.9821 62.6846 58.0503 61.0802 58.0503 59.2649C58.0503 56.3601 55.2914 54 51.879 54C48.4666 54 45.7078 56.3601 45.7078 59.2649C45.7078 61.1109 46.806 62.7143 48.4967 63.6522C46.3904 64.711 44.9959 66.6778 44.9959 68.9171C44.9959 72.2765 48.1413 75 51.9975 75C55.8546 75 59 72.2765 59 68.9171C58.9408 66.6481 57.487 64.6505 55.3507 63.6215Z" fill="black"/>
<path fill-rule="evenodd" clip-rule="evenodd" d="M102.699 61.395C102.699 61.395 102.699 56.6367 106.143 56.6367C110.643 56.6367 110.704 61.6396 107.804 63.9269C105.901 65.4215 102.579 67.8615 102.579 67.8615C102.579 67.8615 100.132 69.7225 99.5588 71.5526C99.0151 73.2608 99.0458 73.9627 99.0458 74.7254C99.0458 74.7254 99.0151 74.8772 99.3473 74.8772H112.727C112.727 74.8772 112.999 74.8472 112.999 74.5727V72.1935C112.999 72.1935 113.029 71.9499 112.758 71.9799H103.153C103.153 71.9799 102.911 71.8581 103.092 71.6145C103.274 71.3698 104.542 69.8753 106.113 68.777C107.684 67.6788 109.375 66.6724 110.946 65.117C110.946 65.117 112.938 63.0423 112.938 60.3577C112.938 57.674 111.369 54.1357 106.445 54.0129C106.445 54.0129 102.519 53.6166 100.555 57.2157C100.555 57.2157 99.4382 59.2904 99.4382 61.1514C99.4382 61.5787 99.4985 61.8223 99.8 61.8223H102.338C102.338 61.8223 102.699 61.7913 102.699 61.395Z" fill="#F58220"/>
<path fill-rule="evenodd" clip-rule="evenodd" d="M94.3035 54.4712H91.6463C91.6157 54.4712 91.585 54.4712 91.585 54.5011C90.468 55.8739 89.0178 56.7285 87.8404 57.2467C87.2661 57.4903 86.7224 57.674 86.3606 57.7649L85.7566 57.9176C85.7259 57.9176 85.6953 57.9486 85.6953 58.0095V60.4196C85.6953 60.4495 85.6953 60.4805 85.7259 60.4805C85.7566 60.5104 85.7566 60.5104 85.7862 60.5104H90.7398V74.9081C90.7398 74.969 90.7695 75 90.8298 75H94.3035C94.3648 75 94.3945 74.969 94.3945 74.9081V54.562C94.3945 54.5321 94.3648 54.4712 94.3035 54.4712ZM67.0306 54.5012C67.0306 54.3793 67.0909 54.2875 67.2115 54.2875H80.7427C80.8633 54.2875 80.9543 54.3793 80.9543 54.5012V57.2168C80.9543 57.3386 80.894 57.4903 80.8633 57.6131L73.3425 74.6336C73.3128 74.7255 73.1616 74.8173 73.0706 74.8173H70.021C69.8994 74.8173 69.8697 74.7255 69.8994 74.6336L77.4499 57.5512C77.4805 57.4604 77.4499 57.3685 77.3293 57.3685H67.2115C67.0909 57.3685 67 57.2777 67 57.1549L67.0306 54.5012Z" fill="#F58220"/>
</svg>
