<svg width="128" height="128" viewBox="0 0 128 128" fill="none" xmlns="http://www.w3.org/2000/svg">
<rect width="128" height="128" fill="url(#paint0_linear_75_1586)"/>
<path fill-rule="evenodd" clip-rule="evenodd" d="M13.3012 60.828L12.6395 58.8304C12.5923 58.696 12.5244 58.4853 12.439 58.1983C12.3535 57.9102 12.2954 57.6995 12.2637 57.5651C12.176 57.9774 12.0489 58.4272 11.8824 58.9158L11.2448 60.828H13.3012ZM14.3102 63.8994L13.6057 61.862H10.9063L10.2161 63.8994H9L11.6403 56.5322H12.8958L15.5372 63.8994H14.3102Z" fill="white"/>
<path fill-rule="evenodd" clip-rule="evenodd" d="M20.7294 63.8998H19.59V60.4866C19.59 60.0584 19.5068 59.7395 19.3413 59.5277C19.1748 59.317 18.9119 59.2123 18.5514 59.2123C18.0727 59.2123 17.721 59.3592 17.4997 59.653C17.2773 59.948 17.1667 60.4411 17.1667 61.1346V63.8998H16.0317V58.3479H16.9191L17.079 59.0767H17.1371C17.2981 58.8125 17.5271 58.6087 17.8229 58.464C18.1187 58.3205 18.4474 58.2488 18.8078 58.2488C20.0885 58.2488 20.7294 58.9253 20.7294 60.2805V63.8998Z" fill="white"/>
<path fill-rule="evenodd" clip-rule="evenodd" d="M26.6891 63.8998H25.5497V60.4866C25.5497 60.0584 25.4665 59.7395 25.301 59.5277C25.1356 59.317 24.8716 59.2123 24.5122 59.2123C24.0324 59.2123 23.6807 59.3592 23.4594 59.653C23.237 59.948 23.1264 60.4411 23.1264 61.1346V63.8998H21.9914V58.3479H22.8799L23.0387 59.0767H23.0968C23.2578 58.8125 23.4868 58.6087 23.7826 58.464C24.0784 58.3205 24.4071 58.2488 24.7675 58.2488C26.0493 58.2488 26.6891 58.9253 26.6891 60.2805V63.8998Z" fill="white"/>
<path fill-rule="evenodd" clip-rule="evenodd" d="M31.7176 63.8998L31.5588 63.1721H31.5007C31.343 63.4294 31.1184 63.6322 30.828 63.7791C30.5355 63.926 30.2036 64 29.83 64C29.1836 64 28.7005 63.8326 28.3817 63.4978C28.0628 63.1641 27.904 62.6562 27.904 61.9774V58.3479H29.0478V61.7713C29.0478 62.1961 29.1321 62.5161 29.2986 62.7279C29.4663 62.9409 29.7292 63.0456 30.0863 63.0456C30.5618 63.0456 30.9124 62.8987 31.1359 62.6026C31.3594 62.3065 31.4711 61.81 31.4711 61.1141V58.3479H32.6105V63.8998H31.7176Z" fill="white"/>
<path fill-rule="evenodd" clip-rule="evenodd" d="M35.1856 63.0968C35.5976 63.0968 35.9284 62.9772 36.1782 62.738C36.4269 62.4989 36.5518 62.1629 36.5518 61.7313V61.2496L35.866 61.2792C35.3324 61.2997 34.9424 61.393 34.7003 61.5582C34.4571 61.7245 34.3355 61.9773 34.3355 62.3189C34.3355 62.5661 34.4067 62.7585 34.548 62.8941C34.6893 63.0284 34.9019 63.0968 35.1856 63.0968ZM36.875 63.8997L36.6482 63.1264H36.6099C36.3524 63.4646 36.0939 63.6947 35.832 63.8165C35.5724 63.9395 35.2371 63.9999 34.8285 63.9999C34.3037 63.9999 33.894 63.853 33.5993 63.558C33.3046 63.263 33.1578 62.8474 33.1578 62.3087C33.1578 61.737 33.3615 61.3042 33.7702 61.0138C34.1799 60.7223 34.8022 60.564 35.6392 60.5366L36.5617 60.507V60.2109C36.5617 59.8556 36.4817 59.5914 36.3228 59.416C36.1629 59.2395 35.9164 59.1518 35.5811 59.1518C35.3072 59.1518 35.0454 59.1939 34.7945 59.2771C34.5436 59.3613 34.3015 59.4593 34.0704 59.5732L33.7033 58.7304C33.9926 58.5732 34.3103 58.4537 34.6543 58.3717C34.9994 58.2897 35.3237 58.2487 35.6293 58.2487C36.3086 58.2487 36.8213 58.4024 37.1675 58.7099C37.5137 59.0174 37.6868 59.5014 37.6868 60.1608V63.8997H36.875Z" fill="white"/>
<path fill-rule="evenodd" clip-rule="evenodd" d="M38.7614 63.8992H39.8964V58.3473H38.7614V63.8992ZM38.6935 56.8782C38.6935 56.6675 38.7505 56.5046 38.86 56.3919C38.9718 56.278 39.1306 56.221 39.3366 56.221C39.536 56.221 39.6905 56.278 39.8022 56.3919C39.9129 56.5046 39.9688 56.6675 39.9688 56.8782C39.9688 57.0786 39.9129 57.2369 39.8022 57.3519C39.6905 57.4681 39.536 57.525 39.3366 57.525C39.1306 57.525 38.9718 57.4681 38.86 57.3519C38.7505 57.2369 38.6935 57.0786 38.6935 56.8782Z" fill="white"/>
<path fill-rule="evenodd" clip-rule="evenodd" d="M43.7559 58.2483C43.9838 58.2483 44.1722 58.2654 44.3212 58.2984L44.2094 59.3974C44.0484 59.3576 43.8819 59.3371 43.7077 59.3371C43.2541 59.3371 42.886 59.4908 42.6045 59.7995C42.3218 60.1069 42.1816 60.5067 42.1816 60.9987V63.8993H41.0477V58.3486H41.9351L42.0852 59.3268H42.1432C42.3196 58.9966 42.5519 58.7335 42.8356 58.5387C43.1216 58.3451 43.4272 58.2483 43.7559 58.2483Z" fill="white"/>
<path fill-rule="evenodd" clip-rule="evenodd" d="M47.6123 59.1413C47.2519 59.1413 46.9638 59.2597 46.7458 59.4978C46.5288 59.7346 46.3996 60.082 46.3568 60.5375H48.7813C48.7747 60.0786 48.6685 59.7312 48.4625 59.4955C48.2565 59.2597 47.9728 59.1413 47.6123 59.1413ZM47.8205 63.9997C46.9901 63.9997 46.3404 63.748 45.8726 63.2446C45.4037 62.7412 45.1703 62.0477 45.1703 61.1639C45.1703 60.2574 45.3873 59.5445 45.8211 59.0263C46.2561 58.507 46.8531 58.2484 47.6124 58.2484C48.3179 58.2484 48.8744 58.4705 49.2831 58.9158C49.6917 59.3611 49.8955 59.9727 49.8955 60.7528V61.3905H46.3382C46.3547 61.9292 46.4938 62.3438 46.7578 62.6319C47.0218 62.9223 47.3932 63.0658 47.8731 63.0658C48.1886 63.0658 48.4822 63.0351 48.7539 62.9736C49.0267 62.9121 49.3181 62.8084 49.6304 62.6649V63.6238C49.3543 63.7605 49.0738 63.8573 48.7912 63.9142C48.5074 63.9712 48.1831 63.9997 47.8205 63.9997Z" fill="white"/>
<path fill-rule="evenodd" clip-rule="evenodd" d="M56.732 60.11H57.3455C57.9371 60.11 58.372 60.003 58.6492 59.7888C58.9253 59.5747 59.0633 59.2399 59.0633 58.7855C59.0633 58.3641 58.9395 58.0487 58.6919 57.8414C58.4443 57.6341 58.0576 57.5305 57.5328 57.5305H56.732V60.11ZM60.2509 58.7445C60.2509 59.511 60.0099 60.0986 59.5268 60.5063C59.0447 60.9152 58.3567 61.119 57.466 61.119H56.732V63.8637H55.5784V56.5272H57.6107C58.4926 56.5272 59.1532 56.7139 59.5925 57.0886C60.0318 57.4633 60.2509 58.0157 60.2509 58.7445Z" fill="white"/>
<path fill-rule="evenodd" clip-rule="evenodd" d="M64.4822 58.2133C64.7101 58.2133 64.8985 58.2303 65.0464 58.2634L64.9358 59.3624C64.7747 59.3225 64.6082 59.302 64.434 59.302C63.9805 59.302 63.6124 59.4557 63.3297 59.7644C63.0481 60.0719 62.9079 60.4716 62.9079 60.9636V63.8643H61.7729V58.3135H62.6614L62.8115 59.2918H62.8696C63.0459 58.9615 63.2771 58.6984 63.562 58.5037C63.8468 58.3101 64.1536 58.2133 64.4822 58.2133Z" fill="white"/>
<path fill-rule="evenodd" clip-rule="evenodd" d="M67.1885 61.0787C67.1885 62.3599 67.6442 63.0011 68.5557 63.0011C69.4563 63.0011 69.9066 62.3599 69.9066 61.0787C69.9066 59.8112 69.453 59.1768 68.5448 59.1768C68.0693 59.1768 67.7231 59.3408 67.5095 59.6688C67.2958 59.9968 67.1885 60.466 67.1885 61.0787ZM71.0755 61.0787C71.0755 61.9853 70.852 62.6925 70.405 63.2016C69.9569 63.7106 69.3347 63.9646 68.5349 63.9646C68.0364 63.9646 67.596 63.8473 67.2126 63.6138C66.8302 63.3792 66.5355 63.0433 66.3296 62.6048C66.1236 62.1663 66.0206 61.6573 66.0206 61.0787C66.0206 60.179 66.243 59.4764 66.6867 58.9707C67.1304 58.4662 67.7571 58.2134 68.5656 58.2134C69.338 58.2134 69.9493 58.4719 70.3996 58.9889C70.8509 59.506 71.0755 60.2018 71.0755 61.0787Z" fill="white"/>
<path fill-rule="evenodd" clip-rule="evenodd" d="M75.2393 59.207H73.9356V63.8638H72.7962V59.207H71.9176V58.6547L72.7962 58.2937V57.9315C72.7962 57.2767 72.9441 56.7904 73.241 56.4738C73.5357 56.1583 73.9882 56 74.5973 56C74.9961 56 75.3894 56.0683 75.775 56.2061L75.4759 57.099C75.1955 57.0056 74.9293 56.9578 74.674 56.9578C74.4165 56.9578 74.2292 57.0409 74.112 57.2072C73.9937 57.3723 73.9356 57.6206 73.9356 57.952V58.313H75.2393V59.207Z" fill="white"/>
<path fill-rule="evenodd" clip-rule="evenodd" d="M78.0745 59.1063C77.7141 59.1063 77.4248 59.2248 77.2079 59.4628C76.991 59.6997 76.8617 60.047 76.819 60.5014H79.2424C79.2369 60.0436 79.1306 59.6963 78.9236 59.4605C78.7187 59.2248 78.4349 59.1063 78.0745 59.1063ZM78.2816 63.9647C77.4522 63.9647 76.8026 63.713 76.3348 63.2096C75.8648 62.7063 75.6325 62.0127 75.6325 61.1289C75.6325 60.2224 75.8494 59.5095 76.2833 58.9913C76.7182 58.472 77.3153 58.2135 78.0745 58.2135C78.7801 58.2135 79.3355 58.4356 79.7441 58.8808C80.1539 59.325 80.3588 59.9377 80.3588 60.7178V61.3556H76.8004C76.8168 61.8931 76.9559 62.3088 77.22 62.5969C77.484 62.8862 77.8565 63.0308 78.3353 63.0308C78.6508 63.0308 78.9444 63.0001 79.2161 62.9386C79.4878 62.8771 79.7814 62.7735 80.0925 62.63V63.5889C79.8165 63.7255 79.536 63.8223 79.2522 63.8793C78.9685 63.9362 78.6453 63.9647 78.2816 63.9647Z" fill="white"/>
<path fill-rule="evenodd" clip-rule="evenodd" d="M85.307 62.2832C85.307 62.8253 85.1174 63.241 84.7373 63.5314C84.3582 63.8206 83.8137 63.9653 83.106 63.9653C82.395 63.9653 81.8231 63.8525 81.3925 63.6282V62.61C82.0192 62.9107 82.6031 63.061 83.1443 63.061C83.8422 63.061 84.1917 62.8424 84.1917 62.4039C84.1917 62.2627 84.1533 62.1465 84.0766 62.052C83.9989 61.9586 83.8718 61.8618 83.6943 61.7616C83.5179 61.6614 83.2714 61.5475 82.9559 61.4199C82.3413 61.1728 81.925 60.9257 81.708 60.6774C81.4911 60.4303 81.3816 60.108 81.3816 59.7139C81.3816 59.239 81.5656 58.87 81.9348 58.607C82.3029 58.345 82.8047 58.2129 83.439 58.2129C84.0668 58.2129 84.6606 58.345 85.2204 58.6092L84.8534 59.4975C84.2782 59.2504 83.7929 59.1263 83.4007 59.1263C82.8014 59.1263 82.5012 59.3039 82.5012 59.6581C82.5012 59.8324 82.5801 59.9804 82.7357 60.1C82.8923 60.2207 83.232 60.3858 83.7578 60.5977C84.1982 60.7742 84.5182 60.9371 84.7186 61.084C84.918 61.2309 85.0659 61.4017 85.1623 61.5942C85.2588 61.7855 85.307 62.0155 85.307 62.2832Z" fill="white"/>
<path fill-rule="evenodd" clip-rule="evenodd" d="M90.2402 62.2832C90.2402 62.8253 90.0495 63.241 89.6694 63.5314C89.2903 63.8206 88.7469 63.9653 88.0381 63.9653C87.3271 63.9653 86.7552 63.8525 86.3246 63.6282V62.61C86.9513 62.9107 87.5363 63.061 88.0764 63.061C88.7754 63.061 89.1238 62.8424 89.1238 62.4039C89.1238 62.2627 89.0854 62.1465 89.0088 62.052C88.9321 61.9586 88.8039 61.8618 88.6264 61.7616C88.45 61.6614 88.2046 61.5475 87.8891 61.4199C87.2734 61.1728 86.8571 60.9257 86.6413 60.6774C86.4232 60.4303 86.3148 60.108 86.3148 59.7139C86.3148 59.239 86.4988 58.87 86.8669 58.607C87.2361 58.345 87.7379 58.2129 88.3711 58.2129C88.9989 58.2129 89.5927 58.345 90.1525 58.6092L89.7855 59.4975C89.2103 59.2504 88.725 59.1263 88.3328 59.1263C87.7346 59.1263 87.4344 59.3039 87.4344 59.6581C87.4344 59.8324 87.5122 59.9804 87.6678 60.1C87.8245 60.2207 88.1652 60.3858 88.6899 60.5977C89.1304 60.7742 89.4514 60.9371 89.6508 61.084C89.8512 61.2309 89.998 61.4017 90.0945 61.5942C90.192 61.7855 90.2402 62.0155 90.2402 62.2832Z" fill="white"/>
<path fill-rule="evenodd" clip-rule="evenodd" d="M91.7219 63.8639H92.8558V58.3131H91.7219V63.8639ZM91.6551 56.8429C91.6551 56.6322 91.7098 56.4705 91.8205 56.3554C91.9312 56.2427 92.09 56.1857 92.296 56.1857C92.4954 56.1857 92.6509 56.2427 92.7627 56.3554C92.8733 56.4705 92.9292 56.6322 92.9292 56.8429C92.9292 57.0433 92.8733 57.2016 92.7627 57.3178C92.6509 57.4328 92.4954 57.4909 92.296 57.4909C92.09 57.4909 91.9312 57.4328 91.8205 57.3178C91.7098 57.2016 91.6551 57.0433 91.6551 56.8429Z" fill="white"/>
<path fill-rule="evenodd" clip-rule="evenodd" d="M95.0931 61.0787C95.0931 62.3599 95.5478 63.0011 96.4593 63.0011C97.3599 63.0011 97.8101 62.3599 97.8101 61.0787C97.8101 59.8112 97.3566 59.1768 96.4494 59.1768C95.974 59.1768 95.6278 59.3408 95.4141 59.6688C95.1994 59.9968 95.0931 60.466 95.0931 61.0787ZM98.9791 61.0787C98.9791 61.9853 98.7556 62.6925 98.3086 63.2016C97.8605 63.7106 97.2383 63.9646 96.4396 63.9646C95.94 63.9646 95.4996 63.8473 95.1162 63.6138C94.7338 63.3792 94.4391 63.0433 94.2331 62.6048C94.0272 62.1663 93.9253 61.6573 93.9253 61.0787C93.9253 60.179 94.1466 59.4764 94.5903 58.9707C95.0351 58.4662 95.6618 58.2134 96.4692 58.2134C97.2416 58.2134 97.8529 58.4719 98.3042 58.9889C98.7545 59.506 98.9791 60.2018 98.9791 61.0787Z" fill="white"/>
<path fill-rule="evenodd" clip-rule="evenodd" d="M104.354 63.8641H103.215V60.451C103.215 60.0228 103.132 59.7039 102.966 59.4932C102.801 59.2825 102.538 59.1766 102.177 59.1766C101.697 59.1766 101.347 59.3235 101.124 59.6185C100.903 59.9123 100.791 60.4066 100.791 61.099V63.8641H99.6563V58.3134H100.545L100.705 59.0411H100.763C100.923 58.7769 101.152 58.573 101.449 58.4295C101.743 58.2849 102.072 58.2131 102.432 58.2131C103.714 58.2131 104.354 58.8908 104.354 60.246V63.8641Z" fill="white"/>
<path fill-rule="evenodd" clip-rule="evenodd" d="M110.36 63.8641H109.221V60.451C109.221 60.0228 109.138 59.7039 108.972 59.4932C108.806 59.2825 108.544 59.1766 108.184 59.1766C107.703 59.1766 107.352 59.3235 107.131 59.6185C106.908 59.9123 106.797 60.4066 106.797 61.099V63.8641H105.663V58.3134H106.55L106.71 59.0411H106.768C106.929 58.7769 107.157 58.573 107.454 58.4295C107.75 58.2849 108.078 58.2131 108.439 58.2131C109.72 58.2131 110.36 58.8908 110.36 60.246V63.8641Z" fill="white"/>
<path fill-rule="evenodd" clip-rule="evenodd" d="M113.61 59.1063C113.249 59.1063 112.961 59.2248 112.743 59.4628C112.527 59.6997 112.397 60.047 112.354 60.5014H114.778C114.772 60.0436 114.666 59.6963 114.46 59.4605C114.254 59.2248 113.97 59.1063 113.61 59.1063ZM113.817 63.9647C112.987 63.9647 112.338 63.713 111.87 63.2096C111.401 62.7063 111.168 62.0127 111.168 61.1289C111.168 60.2224 111.385 59.5095 111.818 58.9913C112.253 58.472 112.85 58.2135 113.61 58.2135C114.315 58.2135 114.872 58.4356 115.28 58.8808C115.689 59.325 115.894 59.9377 115.894 60.7178V61.3556H112.336C112.352 61.8931 112.491 62.3088 112.756 62.5969C113.019 62.8862 113.392 63.0308 113.87 63.0308C114.186 63.0308 114.48 63.0001 114.751 62.9386C115.024 62.8771 115.317 62.7735 115.629 62.63V63.5889C115.352 63.7255 115.071 63.8223 114.788 63.8793C114.505 63.9362 114.18 63.9647 113.817 63.9647Z" fill="white"/>
<path fill-rule="evenodd" clip-rule="evenodd" d="M116.866 63.8639H118V56.0548H116.866V63.8639Z" fill="white"/>
<path fill-rule="evenodd" clip-rule="evenodd" d="M102.695 71.9462H102V68H104.422V68.5451H102.695V69.7787H104.313V70.3268H102.695V71.9462Z" fill="white"/>
<path fill-rule="evenodd" clip-rule="evenodd" d="M106.826 68.9067C106.965 68.9067 107.078 68.9157 107.168 68.9337L107.101 69.525C107.004 69.5039 106.901 69.4919 106.796 69.4919C106.521 69.4919 106.298 69.5751 106.125 69.7404C105.954 69.9068 105.868 70.1212 105.868 70.3867V71.946H105.178V68.9608H105.719L105.809 69.4869H105.845C105.952 69.3085 106.093 69.1682 106.266 69.063C106.44 68.9588 106.626 68.9067 106.826 68.9067Z" fill="white"/>
<path fill-rule="evenodd" clip-rule="evenodd" d="M108.337 71.5137C108.587 71.5137 108.789 71.4506 108.94 71.3213C109.091 71.193 109.168 71.0116 109.168 70.7802V70.5206L108.751 70.5367C108.426 70.5477 108.189 70.5978 108.041 70.687C107.894 70.7762 107.82 70.9124 107.82 71.0958C107.82 71.2291 107.864 71.3313 107.95 71.4045C108.036 71.4776 108.165 71.5137 108.337 71.5137ZM109.364 71.9466L109.226 71.5307H109.203C109.046 71.7111 108.889 71.8354 108.73 71.9015C108.572 71.9666 108.368 71.9997 108.12 71.9997C107.801 71.9997 107.552 71.9205 107.372 71.7622C107.193 71.6039 107.104 71.3794 107.104 71.0898C107.104 70.7832 107.228 70.5507 107.478 70.3944C107.725 70.238 108.104 70.1519 108.613 70.1378L109.174 70.1208V69.9625C109.174 69.7721 109.126 69.6288 109.029 69.5346C108.932 69.4404 108.781 69.3933 108.578 69.3933C108.411 69.3933 108.253 69.4153 108.099 69.4594C107.947 69.5055 107.8 69.5586 107.659 69.6188L107.436 69.1658C107.612 69.0816 107.806 69.0175 108.014 68.9734C108.223 68.9293 108.422 68.9063 108.607 68.9063C109.02 68.9063 109.332 68.9895 109.542 69.1548C109.752 69.3211 109.858 69.5807 109.858 69.9354V71.9466H109.364Z" fill="white"/>
<path fill-rule="evenodd" clip-rule="evenodd" d="M113.386 71.9462H112.693V70.1104C112.693 69.8799 112.641 69.7085 112.542 69.5953C112.441 69.4811 112.281 69.425 112.062 69.425C111.771 69.425 111.557 69.5041 111.422 69.6624C111.287 69.8208 111.219 70.0863 111.219 70.4591V71.9462H110.529V68.961H111.07L111.167 69.3518H111.202C111.3 69.2105 111.438 69.1003 111.618 69.0231C111.799 68.946 111.998 68.9069 112.217 68.9069C112.997 68.9069 113.386 69.2716 113.386 70.0001V71.9462Z" fill="white"/>
<path fill-rule="evenodd" clip-rule="evenodd" d="M115.018 72C114.527 72 114.153 71.8677 113.898 71.6042C113.642 71.3406 113.515 70.9628 113.515 70.4698C113.515 69.9678 113.648 69.582 113.915 69.3114C114.182 69.0419 114.569 68.9066 115.073 68.9066C115.415 68.9066 115.724 68.9657 115.997 69.0819L115.789 69.593C115.497 69.4878 115.257 69.4357 115.067 69.4357C114.505 69.4357 114.224 69.7784 114.224 70.4638C114.224 70.7985 114.295 71.05 114.434 71.2184C114.575 71.3867 114.78 71.4709 115.049 71.4709C115.358 71.4709 115.648 71.3998 115.921 71.2605V71.8126C115.798 71.8798 115.667 71.9279 115.527 71.9569C115.387 71.985 115.217 72 115.018 72Z" fill="white"/>
<path fill-rule="evenodd" clip-rule="evenodd" d="M117.611 69.3872C117.392 69.3872 117.217 69.4503 117.085 69.5786C116.953 69.7068 116.874 69.8932 116.849 70.1377H118.322C118.318 69.8912 118.255 69.7038 118.129 69.5776C118.003 69.4503 117.831 69.3872 117.611 69.3872ZM117.738 71.9996C117.232 71.9996 116.839 71.8643 116.553 71.5938C116.27 71.3232 116.127 70.9504 116.127 70.4744C116.127 69.9874 116.259 69.6046 116.523 69.325C116.786 69.0465 117.15 68.9072 117.611 68.9072C118.041 68.9072 118.379 69.0274 118.628 69.2659C118.876 69.5054 119 69.8341 119 70.254V70.5967H116.837C116.846 70.8853 116.932 71.1087 117.092 71.2641C117.253 71.4194 117.478 71.4976 117.771 71.4976C117.961 71.4976 118.14 71.4815 118.307 71.4485C118.471 71.4144 118.649 71.3593 118.839 71.2821V71.7972C118.671 71.8713 118.5 71.9224 118.328 71.9545C118.155 71.9846 117.959 71.9996 117.738 71.9996Z" fill="white"/>
<path fill-rule="evenodd" clip-rule="evenodd" d="M93 72H99V68H93V72Z" fill="#EB2B3A"/>
<path fill-rule="evenodd" clip-rule="evenodd" d="M93 72H97V68H93V72Z" fill="white"/>
<path fill-rule="evenodd" clip-rule="evenodd" d="M93 72H95V68H93V72Z" fill="#293688"/>
<defs>
<linearGradient id="paint0_linear_75_1586" x1="64" y1="0" x2="64" y2="128" gradientUnits="userSpaceOnUse">
<stop stop-color="#F9D60F"/>
<stop offset="1" stop-color="#EFAD21"/>
</linearGradient>
</defs>
</svg>
