<svg width="128" height="128" viewBox="0 0 128 128" fill="none" xmlns="http://www.w3.org/2000/svg">
<rect width="128" height="128" fill="#FFCB38"/>
<path d="M19.1154 53.5106C20.6974 49.0257 25.076 46 29.9978 46C34.9197 46 39.2823 49.0257 40.8483 53.5106L50.9636 82.1706H38.0039L36.3099 77.0714H23.6537L21.9598 82.1706H9L19.1154 53.5106ZM29.9819 58.0415L26.658 68.0556H33.3057L29.9819 58.0415ZM83.4511 50.9456C81.6294 49.3636 79.488 48.1503 77.0272 47.2902C74.5662 46.4301 71.8816 46 69.0051 46C66.1287 46 63.4441 46.4301 60.9831 47.2902C58.5063 48.1503 56.3809 49.3636 54.5751 50.9456C52.7694 52.5276 51.3632 54.4475 50.3245 56.7053C49.3017 58.9631 48.7744 61.4973 48.7744 64.308C48.7744 67.1187 49.2858 69.6683 50.3245 71.9721C51.3471 74.276 52.7694 76.2574 54.5751 77.8855C56.3809 79.5135 58.5063 80.773 60.9831 81.6638C63.4441 82.5546 66.1287 83 69.0051 83C71.8816 83 74.5662 82.5546 77.0272 81.6638C79.488 80.773 81.6454 79.5135 83.4511 77.8855C85.2728 76.2574 86.6951 74.276 87.7177 71.9721C88.7405 69.6683 89.2679 67.1033 89.2679 64.308C89.2679 61.5126 88.7564 58.9784 87.7177 56.7053C86.6951 54.4475 85.2728 52.5276 83.4511 50.9456ZM75.6688 67.472C75.3012 68.4242 74.8059 69.2536 74.1507 69.9448C73.4956 70.636 72.7445 71.1736 71.8656 71.5575C70.9866 71.9414 70.0438 72.1258 69.0051 72.1258C67.9664 72.1258 67.0076 71.9414 66.1287 71.5575C65.2339 71.1736 64.4828 70.636 63.8435 69.9448C63.2044 69.2536 62.709 68.4242 62.3574 67.472C61.9899 66.5197 61.8141 65.4599 61.8141 64.308C61.8141 63.156 61.9899 62.1578 62.3574 61.2208C62.7249 60.284 63.2203 59.4853 63.8435 58.8402C64.4828 58.1951 65.2339 57.6883 66.1287 57.335C67.0236 56.9664 67.9825 56.7974 69.0051 56.7974C70.0278 56.7974 70.9866 56.9817 71.8656 57.335C72.7445 57.7036 73.4956 58.1951 74.1507 58.8402C74.8059 59.4853 75.3012 60.2686 75.6688 61.2208C76.0364 62.1578 76.2121 63.156 76.2121 64.308C76.2121 65.4599 76.0364 66.5197 75.6688 67.472ZM104.337 72.0183V47.1366H91.9845V73.0012C91.9845 78.0697 96.2512 82.186 101.54 82.186H118V72.0336H104.353L104.337 72.0183Z" fill="black"/>
</svg>
