<svg width="129" height="129" viewBox="0 0 129 129" fill="none" xmlns="http://www.w3.org/2000/svg">
<rect width="128" height="128" transform="translate(0.666992 0.277832)" fill="black"/>
<path d="M85.2907 66.6416C85.3976 78.0779 95.3237 81.8829 95.4332 81.9317C94.2197 85.7487 92.4581 89.3691 90.2037 92.6796C87.0541 97.2826 83.7845 101.87 78.6355 101.965C73.5748 102.058 71.9486 98.9642 66.1638 98.9642C60.3791 98.9642 58.5722 101.866 53.7832 102.058C48.8122 102.247 45.0269 97.0808 41.851 92.4936C35.3619 83.1109 30.4015 65.9835 37.0607 54.4192C40.3685 48.6767 46.2812 45.0404 52.6977 44.9481C57.5777 44.8545 62.186 48.2322 65.1694 48.2322C68.1528 48.2322 73.7502 44.1713 79.6352 44.7674C82.099 44.8703 89.0153 45.7632 93.4574 52.2641C93.1 52.4857 85.205 57.0821 85.2907 66.6403M75.7814 38.558C78.4192 35.3636 80.1971 30.9162 79.7117 26.4926C75.908 26.6455 71.3076 29.0275 68.5801 32.2206C66.1348 35.0483 63.9929 39.5735 64.5706 43.9101C68.8109 44.2385 73.1435 41.755 75.7814 38.5593" fill="white"/>
</svg>
