<svg width="128" height="128" viewBox="0 0 128 128" fill="none" xmlns="http://www.w3.org/2000/svg">
<path d="M64.75 97.25H128V97.3689V128H116.787H64.75V97.25Z" fill="#FFCC00"/>
<path d="M0 0H78.5337H81.0355H97.4725H100.058H128V27.7062V30.2909V46.7234V97.25H0V0Z" fill="url(#paint0_linear_915_886)"/>
<rect y="47" width="33" height="81" fill="#F082CA"/>
<path fill-rule="evenodd" clip-rule="evenodd" d="M128 49.2247C101.139 48.386 79.5009 26.828 78.5337 0H100.058C100.992 14.9511 113.016 26.8962 128 27.7062V49.2247Z" fill="white"/>
<path fill-rule="evenodd" clip-rule="evenodd" d="M128 30.2909C111.59 29.4754 98.4126 16.3771 97.4724 0H81.0354C82.0002 25.4471 102.52 45.8867 128 46.7234V30.2909Z" fill="#D2D1D6"/>
<path fill-rule="evenodd" clip-rule="evenodd" d="M28.7002 0V27.6766C28.7002 29.2481 26.9711 30.2057 25.639 29.3719L0 13.5V50.625L116.787 128H128V97.3689L67.9502 57.1012V0H28.7002Z" fill="#F2F1F6"/>
<path fill-rule="evenodd" clip-rule="evenodd" d="M62 64V0H35V64H62Z" fill="url(#paint1_linear_915_886)"/>
<path d="M29.5 64H48.625H67.75V128H29.5V64Z" fill="#EEF0F6"/>
<path d="M78.5 79.25C78.5 95.9566 64.9566 109.5 48.25 109.5C31.5434 109.5 18 95.9566 18 79.25C18 62.5434 31.5434 49 48.25 49C64.9566 49 78.5 62.5434 78.5 79.25Z" fill="url(#paint2_linear_915_886)"/>
<path d="M75.5 79.25C75.5 64.2002 63.2998 52 48.25 52C33.2002 52 21 64.2002 21 79.25C21 94.2998 33.2002 106.5 48.25 106.5V111.5C30.4388 111.5 16 97.0612 16 79.25C16 61.4388 30.4388 47 48.25 47C66.0612 47 80.5 61.4388 80.5 79.25C80.5 97.0612 66.0612 111.5 48.25 111.5V106.5C63.2998 106.5 75.5 94.2998 75.5 79.25Z" fill="white"/>
<path d="M45.1953 61.5432C46.2318 58.8189 50.2684 58.8189 51.3049 61.5432L62.7639 92.8435C63.4935 94.8365 61.0253 96.4441 59.4975 94.9709L48.9441 84.7944C48.5567 84.4209 47.9433 84.4209 47.5559 84.7944L37.0024 94.9709C35.4746 96.4442 33.0064 94.8366 33.7361 92.8435L45.1953 61.5432Z" fill="white"/>
<defs>
<linearGradient id="paint0_linear_915_886" x1="64" y1="-9.36557e-08" x2="64" y2="97.25" gradientUnits="userSpaceOnUse">
<stop stop-color="#7FED7D"/>
<stop offset="1" stop-color="#2ED058"/>
</linearGradient>
<linearGradient id="paint1_linear_915_886" x1="48.5" y1="-3.75" x2="48.5" y2="64" gradientUnits="userSpaceOnUse">
<stop stop-color="#0C91FF"/>
<stop offset="1" stop-color="#0077F7"/>
</linearGradient>
<linearGradient id="paint2_linear_915_886" x1="48.25" y1="49" x2="48.25" y2="109.5" gradientUnits="userSpaceOnUse">
<stop stop-color="#0C91FF"/>
<stop offset="1" stop-color="#017AFF"/>
</linearGradient>
</defs>
</svg>
