<svg width="128" height="128" viewBox="0 0 128 128" fill="none" xmlns="http://www.w3.org/2000/svg">
<g clip-path="url(#clip0_1195_2241)">
<rect width="128" height="128" fill="#047DFA"/>
<path d="M58.8694 73.8066L60.5942 127.988H67.6898L69.4934 73.8991L58.8694 73.8066Z" fill="#959697"/>
<path d="M6.43787 88.7925C4.08519 68.7152 32.2903 48.8438 64.1822 48.8438C96.0741 48.8438 120.572 61.9987 120.572 84.0615C120.572 84.9681 128.001 89.4456 127.996 90.3403C128.093 84.5888 127.994 80.4307 128.004 73.9706C117.171 57.3035 92.2982 44.9705 64.181 44.9705C35.7962 44.9705 10.6299 57.7544 -0.0402832 74.6765C-0.00508766 81.428 0.00506289 86.8357 -0.023845 92.8481C-0.187792 91.6179 6.43789 90.0335 6.43787 88.7925Z" fill="#CED7E2"/>
<path d="M0.0109786 65.1185C13.6347 50.5875 37.2836 40.9734 64.181 40.9734C90.8371 40.9734 114.315 50.4169 127.996 64.7305C127.996 64.488 128 64.2363 128 63.9922C127.992 60.9727 128.016 58.1412 128.004 55.0078C112.067 43.5314 88.9998 36.3188 64.181 36.3188C39.1446 36.3188 15.9409 43.8391 -0.0238335 55.488C-0.0237418 58.3581 -0.000637297 61.063 -0.00027037 63.9937C-0.00027037 64.3686 -0.000270318 64.7436 0.0109786 65.1185Z" fill="#CED7E2"/>
<path d="M64.181 62.3688C49.2774 62.3688 37.1961 70.7267 37.1961 81.037C37.1961 91.3472 49.2774 99.7052 64.181 99.7052C79.0845 99.7052 91.1658 91.3472 91.1658 81.037C91.1658 70.7267 79.0845 62.3688 64.181 62.3688ZM64.181 90.726C53.8595 90.7248 45.4953 84.9366 45.4953 77.7961C45.4953 70.6555 53.8595 64.8686 64.181 64.8686C74.5025 64.8686 82.8667 70.6555 82.8667 77.7961C82.8667 84.9366 74.5025 90.7248 64.181 90.7248V90.726Z" fill="#CED7E2"/>
<path d="M64.1809 54.3558C38.6834 54.3558 18.0192 68.6545 18.0192 86.2915C18.0192 103.929 38.6872 118.228 64.1809 118.228C89.6747 118.228 110.343 103.93 110.343 86.2915C110.343 68.6532 89.6747 54.3558 64.1809 54.3558ZM64.1809 108.397C44.3166 108.397 28.2145 97.2567 28.2145 83.5143C28.2145 69.7718 44.3166 58.6304 64.1809 58.6304C84.0453 58.6304 100.147 69.7706 100.147 83.513C100.147 97.2554 84.0453 108.397 64.1809 108.397Z" fill="#CED7E2"/>
<path d="M63.9526 75.6227C80.0094 75.6227 93.026 62.6061 93.026 46.5492C93.026 30.4924 80.0094 17.4758 63.9526 17.4758C47.8958 17.4758 34.8792 30.4924 34.8792 46.5492C34.8792 62.6061 47.8958 75.6227 63.9526 75.6227Z" fill="#E60304"/>
</g>
<defs>
<clipPath id="clip0_1195_2241">
<rect width="128" height="128" fill="white"/>
</clipPath>
</defs>
</svg>
