<svg width="129" height="129" viewBox="0 0 129 129" fill="none" xmlns="http://www.w3.org/2000/svg">
<rect width="128" height="128" transform="translate(0.333008 0.972656)" fill="#2670CA"/>
<path d="M94.3582 49.5043C94.3402 47.5337 94.5209 45.5722 94.0057 43.5835C93.5899 41.9655 93.2283 40.3474 92.4781 38.8559C91.5832 37.0571 90.399 35.421 88.8262 34.1826C86.6115 32.429 84.1076 31.2177 81.3778 30.368C79.0998 29.6629 76.7677 29.1206 74.4446 28.9127C72.013 28.6867 69.5814 28.2257 67.1137 28.3251C65.4776 28.3884 63.8414 28.3432 62.2144 28.3432C61.8257 28.3432 61.3918 28.2619 61.0573 28.3974C59.1862 29.1567 57.1433 28.4336 55.245 29.1658C54.4767 29.4641 53.5456 29.3918 52.6779 29.5997C50.6259 30.0788 48.574 30.5398 46.6396 31.4256C44.9221 32.212 43.2589 33.1431 41.8216 34.3544C38.8748 36.8402 37.1302 40.1395 36.5698 43.8999C36.2172 46.2863 36.1811 48.745 36.4071 51.1946C36.5698 52.9844 37.4556 53.3641 38.911 53.4274C42.9244 53.5901 46.9469 53.5177 50.9694 53.4635C51.9909 53.4454 52.9039 53.0296 53.3197 51.8907C53.5004 51.3845 53.5818 50.9054 53.5999 50.3811C53.6541 49.0704 53.5547 47.7868 53.9524 46.4671C54.4225 44.9033 55.4168 43.9361 56.7727 43.3937C58.3003 42.779 59.9184 42.4084 61.6087 42.4355C63.6064 42.4717 65.6041 42.4446 67.6018 42.4355C69.5453 42.4355 71.4074 42.77 73.1248 43.701C74.7067 44.5598 75.7282 45.9428 75.8005 47.6874C75.9451 51.1314 75.8457 54.5844 75.8638 58.0374C75.8638 58.634 75.6197 58.869 75.0231 58.86C73.9384 58.8329 72.8446 58.8238 71.7509 58.86C65.3691 59.095 58.9783 58.4351 52.5965 59.2216C50.3819 59.4927 48.2396 59.8634 46.1243 60.5684C43.4849 61.4362 41.225 62.9367 39.2273 64.7717C37.6003 66.2542 36.4342 68.1524 35.5845 70.2044C34.7258 72.3557 34.2105 74.5884 34.2738 76.9658C34.3551 79.7409 34.2919 82.5159 34.3009 85.291C34.3009 85.6526 34.3009 86.0232 34.3732 86.3757C34.8523 88.7892 35.5574 91.1123 36.9042 93.2366C38.4409 95.6591 40.4748 97.5483 42.9606 98.8771C44.7142 99.8082 46.5582 100.586 48.5921 100.911C50.6621 101.245 52.705 101.634 54.8111 101.634C56.1128 101.634 57.3874 101.417 58.6709 101.336C61.1387 101.182 63.507 100.595 65.7939 99.772C68.0628 98.9494 70.2955 97.9732 72.3023 96.563C72.7994 96.2105 73.1158 96.3551 73.2152 96.9789C73.2785 97.3585 73.4322 97.6568 73.6582 97.9461C74.8694 99.4647 76.6321 100.206 78.3857 100.278C82.9687 100.477 87.5697 100.351 92.1617 100.351C92.5413 100.351 92.8487 100.251 93.147 99.989C93.9243 99.311 94.3853 98.5246 94.3853 97.4489C94.3763 88.7802 94.3853 80.1205 94.3853 71.4518C94.3853 64.139 94.4215 56.8171 94.3673 49.5043H94.3582ZM75.24 81.0606C73.5226 82.308 71.7237 83.447 69.8074 84.3148C67.9634 85.1464 66.0561 85.8334 64.0674 86.3305C61.8889 86.8729 59.7466 86.6831 57.5862 86.6559C55.1727 86.6379 53.4552 85.0198 52.714 82.7057C52.2259 81.16 52.253 79.5962 52.4519 78.1047C52.6327 76.7579 52.7321 75.2935 53.7355 74.1274C54.4405 73.3048 55.2812 72.8348 56.2755 72.4642C58.219 71.741 60.2167 72.0574 62.1963 72.0303C66.3725 71.9851 70.5486 72.0122 74.7158 72.0213C75.8366 72.0213 75.8909 72.0845 75.8999 73.2145C75.8999 74.2811 75.8999 75.3387 75.8999 76.4053C75.8999 77.5443 75.8999 78.6832 75.8999 79.8312C75.8999 80.3736 75.7011 80.7352 75.2491 81.0606H75.24Z" fill="white"/>
</svg>
