<svg width="128" height="128" viewBox="0 0 128 128" fill="none" xmlns="http://www.w3.org/2000/svg">
<rect width="128" height="128" fill="black"/>
<path fill-rule="evenodd" clip-rule="evenodd" d="M31.459 47H32.5328L32.5624 47.001C36.2616 47.1244 39.7976 48.4503 42.65 50.7454C45.5025 48.4503 49.0384 47.1244 52.7377 47.001L52.7672 47H53.8411L53.8707 47.001C57.5699 47.1244 61.1059 48.4503 63.9583 50.7454C66.8108 48.4503 70.3467 47.1244 74.0459 47.001L74.0755 47H75.1494L75.179 47.001C78.8782 47.1244 82.4142 48.4503 85.2666 50.7454C88.119 48.4503 91.655 47.1244 95.3542 47.001L95.3838 47H96.4577L96.4873 47.001C100.943 47.1496 105.163 49.0433 108.235 52.2738C111.308 55.5042 112.989 59.8128 112.914 64.2707C112.84 68.7286 111.017 72.9788 107.838 76.1051C104.659 79.2314 100.379 80.9833 95.9208 80.9833C92.0287 80.9833 88.2728 79.6483 85.2666 77.2295C82.2604 79.6483 78.5045 80.9833 74.6125 80.9833C70.7205 80.9833 66.9645 79.6483 63.9583 77.2295C60.9521 79.6483 57.1962 80.9833 53.3042 80.9833C49.4122 80.9833 45.6562 79.6483 42.65 77.2295C39.6439 79.6483 35.8879 80.9833 31.9959 80.9833C27.5374 80.9833 23.2574 79.2314 20.0786 76.1051C16.8997 72.9788 15.0767 68.7286 15.0024 64.2707C14.928 59.8128 16.6084 55.5042 19.6813 52.2738C22.7541 49.0433 26.9733 47.1496 31.4294 47.001L31.459 47ZM45.1868 74.7049C47.5104 76.4649 50.358 77.4319 53.3042 77.4319C56.2504 77.4319 59.098 76.4649 61.4216 74.7049C59.0329 71.765 57.6827 68.0943 57.6189 64.2707C57.552 60.2568 58.9077 56.3638 61.4216 53.27C59.2291 51.6094 56.5641 50.6501 53.781 50.5514H52.8274C50.0443 50.6501 47.3793 51.6094 45.1867 53.27C47.7006 56.3638 49.0563 60.2568 48.9894 64.2707C48.9257 68.0943 47.5755 71.765 45.1868 74.7049ZM42.65 55.7871C44.4978 58.1877 45.4895 61.1552 45.4385 64.2115C45.3901 67.1169 44.4027 69.9108 42.65 72.1878C40.8974 69.9108 39.91 67.1169 39.8615 64.2115C39.8106 61.1552 40.8023 58.1877 42.65 55.7871ZM40.1133 53.27C37.5994 56.3638 36.2437 60.2568 36.3106 64.2707C36.3744 68.0943 37.7246 71.765 40.1133 74.7049C37.7897 76.4649 34.9421 77.4319 31.9959 77.4319C28.469 77.4319 25.0833 76.0461 22.5688 73.573C20.0542 71.1 18.612 67.7379 18.5533 64.2115C18.4945 60.6851 19.8237 57.2769 22.2545 54.7214C24.6786 52.1729 28.0047 50.6761 31.5191 50.5514H32.4727C35.2558 50.6501 37.9208 51.6094 40.1133 53.27ZM63.9583 55.7871C62.1106 58.1877 61.1189 61.1552 61.1698 64.2115C61.2183 67.1169 62.2057 69.9108 63.9583 72.1878C65.7109 69.9108 66.6984 67.1169 66.7468 64.2115C66.7978 61.1552 65.8061 58.1877 63.9583 55.7871ZM66.495 74.7049C68.8187 76.4649 71.6663 77.4319 74.6125 77.4319C77.5586 77.4319 80.4063 76.4649 82.7299 74.7049C80.3412 71.765 78.991 68.0943 78.9272 64.2707C78.8603 60.2568 80.216 56.3638 82.7299 53.27C80.5374 51.6094 77.8724 50.6501 75.0893 50.5514H74.1357C71.3526 50.6501 68.6875 51.6094 66.495 53.27C69.0089 56.3638 70.3646 60.2568 70.2977 64.2707C70.234 68.0943 68.8838 71.765 66.495 74.7049ZM85.2666 55.7871C83.4188 58.1877 82.4271 61.1552 82.4781 64.2115C82.5266 67.1169 83.514 69.9108 85.2666 72.1878C87.0192 69.9108 88.0067 67.1169 88.0551 64.2115C88.1061 61.1552 87.1144 58.1877 85.2666 55.7871ZM87.8033 74.7049C90.127 76.4649 92.9746 77.4319 95.9208 77.4319C99.4476 77.4319 102.833 76.0461 105.348 73.573C107.862 71.1 109.305 67.7379 109.363 64.2115C109.422 60.6851 108.093 57.2769 105.662 54.7214C103.238 52.1729 99.9119 50.6761 96.3976 50.5514H95.4439C92.6608 50.6501 89.9958 51.6094 87.8033 53.27C90.3172 56.3638 91.6729 60.2568 91.606 64.2707C91.5423 68.0943 90.192 71.765 87.8033 74.7049Z" fill="white"/>
</svg>
