<svg width="128" height="128" viewBox="0 0 128 128" fill="none" xmlns="http://www.w3.org/2000/svg">
<rect width="128" height="128" fill="#163875"/>
<path d="M41.9145 64.0056C41.9145 61.8595 41.9145 59.7134 41.9145 57.5673C41.9145 56.8819 42.0531 56.7396 42.7273 56.7283C43.1318 56.7208 43.5363 56.7358 43.9445 56.7283C44.3939 56.7208 44.5737 56.9118 44.57 57.3763C44.555 59.7396 44.5587 62.1029 44.57 64.47C44.57 64.691 44.6898 64.9119 44.7573 65.1329C44.9295 64.9981 45.1355 64.8895 45.2704 64.7247C46.0831 63.6984 46.8958 62.676 47.6674 61.6198C48.0794 61.0542 48.5476 60.7359 49.2667 60.8183C49.5888 60.8557 49.9221 60.8033 50.2479 60.837C50.4127 60.852 50.6712 60.9269 50.7086 61.0355C50.7611 61.189 50.7086 61.4437 50.6 61.5823C49.9258 62.4437 49.2217 63.2864 48.5288 64.1366C48.1393 64.6123 47.7535 65.0955 47.3528 65.5636C47.1505 65.7996 47.1356 65.9794 47.3378 66.2453C48.3753 67.6236 49.3903 69.0168 50.409 70.4064C50.4727 70.4925 50.5363 70.5824 50.5888 70.6723C50.791 71.0206 50.6936 71.2641 50.2966 71.2828C49.7049 71.3128 49.1094 71.324 48.5213 71.2641C48.3004 71.2416 48.0494 71.0319 47.8996 70.8408C47.0007 69.706 46.1355 68.5449 45.2404 67.4063C45.1243 67.2603 44.9071 67.1966 44.7348 67.0917C44.6786 67.2678 44.5737 67.4401 44.57 67.6161C44.555 68.6123 44.5662 69.6086 44.5587 70.6011C44.555 71.2154 44.4763 71.2865 43.8434 71.294C43.4688 71.2978 43.0943 71.2978 42.7198 71.294C42.0718 71.2828 41.9145 71.133 41.9145 70.4925C41.9108 68.3314 41.9145 66.1704 41.9145 64.0056Z" fill="white"/>
<path d="M16.109 66.9194C16.109 68.0843 16.1127 69.2528 16.109 70.4176C16.109 70.9869 15.9629 71.1292 15.3786 71.1367C14.9255 71.1405 14.476 71.1367 14.0228 71.1143C13.8393 71.103 13.5996 71.0843 13.4947 70.9719C13.1202 70.5637 12.7906 70.7435 12.3936 70.927C11.4872 71.3502 10.5322 71.4176 9.56959 71.118C8.51715 70.7921 7.84298 69.8933 7.86171 68.7959C7.87294 68.1367 7.8692 67.455 8.04898 66.8333C8.34861 65.7809 9.21378 65.3015 10.2475 65.2116C11.1764 65.1329 12.1164 65.1704 13.049 65.1779C13.3711 65.1779 13.5022 65.0842 13.4797 64.7546C13.4573 64.4625 13.4797 64.1629 13.4723 63.867C13.4648 63.3426 13.2363 63.0655 12.7119 62.9981C12.4048 62.9569 12.0902 62.9606 11.7794 62.9718C10.873 62.9981 10.6557 63.1179 10.5696 63.9569C10.5209 64.4063 10.2924 64.5224 9.8842 64.4962C9.49469 64.4737 9.10517 64.4737 8.71565 64.4962C8.26621 64.5187 8.07519 64.2677 8.08268 63.882C8.11265 62.5411 8.52838 61.5037 10.0827 61.0842C11.431 60.7209 12.7981 60.7284 14.1502 61.0729C15.3749 61.3875 16.0678 62.1928 16.1015 63.5561C16.1315 64.676 16.109 65.7958 16.109 66.9157V66.9194ZM13.4161 67.1329C12.637 67.1329 11.8767 67.1067 11.1202 67.1442C10.7531 67.1629 10.5059 67.3764 10.476 67.7996C10.3898 68.8858 10.6857 69.1667 11.7868 68.9869C11.8805 68.9719 11.9741 68.9644 12.064 68.9494C13.1801 68.7322 13.5921 68.2041 13.4161 67.1367V67.1329Z" fill="white"/>
<path d="M61.3342 65.9419C61.3342 67.3239 61.3342 68.7097 61.3342 70.0918C61.3342 70.2753 61.2968 70.4588 61.2743 70.6423C61.2256 71.0244 60.9896 71.1554 60.6226 71.1442C60.1881 71.1292 59.7499 71.1517 59.3155 71.1292C59.102 71.118 58.8136 71.1292 58.69 71.0019C58.2555 70.5599 57.8772 70.8146 57.4428 70.9794C56.439 71.3614 55.4091 71.4626 54.3941 71.0206C53.4989 70.6311 52.9484 69.942 52.9296 68.9532C52.8809 66.5599 52.8622 64.1704 52.8585 61.7771C52.8585 60.8932 52.9521 60.837 53.836 60.8295C54.1169 60.8295 54.3978 60.8257 54.6787 60.8295C55.4016 60.8445 55.5476 60.9905 55.5514 61.7246C55.5551 63.5261 55.5514 65.3314 55.5514 67.1329C55.5514 67.4738 55.5664 67.8146 55.5701 68.1592C55.5776 68.53 55.7724 68.7247 56.1319 68.7771C57.0008 68.912 57.7611 68.6461 58.4241 68.1067C58.5477 68.0056 58.5851 67.7509 58.5889 67.5636C58.6001 65.6685 58.5964 63.7696 58.5964 61.8744C58.5964 61.7059 58.6151 61.5336 58.6376 61.3651C58.6937 60.9793 58.9259 60.8145 59.3117 60.8257C59.6863 60.837 60.0608 60.8183 60.4316 60.8257C61.1807 60.837 61.3267 60.9718 61.3305 61.7396C61.338 63.1366 61.3305 64.5374 61.3305 65.9382L61.3342 65.9419Z" fill="white"/>
<path d="M64.765 66.073C64.765 64.6572 64.765 63.2415 64.765 61.8258C64.765 60.9793 64.9035 60.837 65.735 60.8332C66.1882 60.8332 66.6376 60.8445 67.0871 60.8744C67.2519 60.8857 67.4729 60.9194 67.559 61.028C67.8774 61.4175 68.192 61.2977 68.5852 61.1628C69.6976 60.7883 70.8437 60.6422 71.9673 61.0917C72.8175 61.4325 73.3269 62.1141 73.3418 63.0205C73.383 65.5861 73.3568 68.1517 73.3643 70.7172C73.3643 71.118 73.1696 71.2865 72.7988 71.294C72.3306 71.3015 71.8624 71.309 71.398 71.294C70.8736 71.279 70.7126 71.1068 70.7126 70.5712C70.7126 68.455 70.6901 66.3389 70.7201 64.2265C70.7313 63.3763 70.2856 63.1217 69.6227 63.1554C68.9111 63.1928 68.2856 63.4475 67.735 63.867C67.589 63.9793 67.5141 64.264 67.5103 64.47C67.4953 66.3689 67.4991 68.264 67.4991 70.1629C67.4991 70.3165 67.5066 70.4775 67.4841 70.6274C67.4054 71.1817 67.2856 71.2828 66.7275 71.294C66.368 71.3015 66.0122 71.2978 65.6526 71.294C64.9447 71.2865 64.7612 71.1217 64.7575 70.4101C64.7462 68.9644 64.7575 67.5187 64.7575 66.0692L64.765 66.073Z" fill="white"/>
<path d="M24.6035 70.721C23.9967 71.0543 23.1877 71.3015 22.3076 71.2903C20.8581 71.2753 19.9742 70.6611 19.5098 69.309C19.4611 69.1667 19.4573 69.0019 19.4573 68.8483C19.4536 66.3914 19.4573 63.9344 19.4461 61.4812C19.4461 61.043 19.6259 60.852 20.0529 60.8595C20.506 60.8669 20.9555 60.852 21.4087 60.8595C21.9592 60.8707 22.0903 61.0018 22.0903 61.5711C22.0941 63.6385 22.1128 65.7059 22.0828 67.7734C22.0716 68.676 22.551 68.8633 23.2439 68.8109C23.4761 68.7921 23.7158 68.7809 23.933 68.7097C25.0791 68.3277 25.2402 68.0917 25.2402 66.8932C25.2402 65.1067 25.2402 63.3164 25.2402 61.5299C25.2402 60.9568 25.3151 60.8744 25.8806 60.852C26.3488 60.8332 26.8132 60.8482 27.2814 60.852C27.6784 60.8595 27.8807 61.0654 27.8807 61.4625C27.8807 64.4775 27.8807 67.4925 27.8807 70.5075C27.8807 70.8895 27.6934 71.1255 27.2851 71.1292C26.787 71.1292 26.2814 71.1667 25.7907 71.103C25.4312 71.0581 25.0866 70.882 24.596 70.7172L24.6035 70.721Z" fill="white"/>
<path d="M35.1204 60.7696C35.7684 60.9007 36.4987 60.9531 37.1542 61.2003C38.6823 61.7808 38.8733 62.7396 38.7385 64.0318C38.7272 64.1479 38.5062 64.3277 38.3714 64.3351C37.8583 64.3689 37.3452 64.3501 36.8321 64.3464C36.5624 64.3464 36.4688 64.1928 36.4463 63.9306C36.3639 63.028 36.2066 62.8782 35.2965 62.852C34.9407 62.8407 34.5811 62.8745 34.229 62.9194C33.9631 62.9531 33.7047 63.0355 33.6822 63.3838C33.6597 63.7509 33.6485 64.1142 34.0792 64.2752C34.7272 64.5224 35.3826 64.7584 36.0268 65.0168C36.6298 65.2565 37.2478 65.4662 37.8134 65.7771C38.5474 66.1779 38.9931 66.7958 38.9445 67.691C38.907 68.3652 39.0531 69.0618 38.686 69.691C38.3152 70.3202 37.7684 70.7472 37.083 70.9682C35.6448 71.4289 34.1804 71.4813 32.7721 70.9307C31.2253 70.3277 30.9219 69.4476 31.0343 68.0243C31.0567 67.7547 31.1766 67.6311 31.4462 67.6348C31.8657 67.6348 32.2889 67.6311 32.7084 67.6348C33.3189 67.6348 33.4388 67.7097 33.45 68.3202C33.4612 68.8633 33.7084 69.1554 34.2103 69.1779C34.7908 69.2041 35.3826 69.2041 35.9482 69.103C36.1542 69.0655 36.3901 68.7397 36.465 68.4962C36.5924 68.088 36.4238 67.7322 35.9931 67.5636C35.1129 67.2191 34.2328 66.8708 33.3451 66.5449C32.4725 66.2266 31.6485 65.8071 31.3976 64.8558C30.9294 63.0842 31.259 61.6947 33.1242 61.1179C33.7384 60.9269 34.4051 60.8969 35.1279 60.7808L35.1204 60.7696Z" fill="white"/>
<path d="M77.5291 67.043C77.5291 65.9232 77.5217 64.8033 77.5329 63.6872C77.5366 63.2977 77.4168 63.1067 76.9973 63.1516C76.237 63.234 75.9374 63.0505 75.9711 62.0917C75.9748 61.9381 75.9673 61.7808 75.9711 61.6273C75.9936 61.0917 76.1846 60.9044 76.7127 60.8894C77.5179 60.8669 77.5254 60.8669 77.5254 60.0617C77.5254 58.7695 77.8812 57.6796 79.1621 57.1029C80.091 56.6871 81.0723 56.5523 82.0723 56.6534C82.2333 56.6684 82.4655 56.953 82.4917 57.1403C82.5554 57.5486 82.518 57.9755 82.5105 58.395C82.503 58.7508 82.3045 58.9306 81.9562 58.9568C81.8176 58.968 81.6753 58.9643 81.5367 58.9755C80.4206 59.0617 80.076 59.4887 80.267 60.5935C80.2857 60.7059 80.4693 60.8632 80.5891 60.8744C80.9599 60.9119 81.3344 60.8932 81.709 60.8932C82.1247 60.8932 82.3494 61.0654 82.3307 61.5111C82.3157 61.852 82.3195 62.1965 82.3307 62.5374C82.3419 62.9718 82.121 63.1591 81.7052 63.1591C81.3794 63.1591 81.0498 63.1816 80.7239 63.1591C80.3569 63.1329 80.2408 63.264 80.2445 63.6348C80.2595 65.7659 80.252 67.8932 80.252 70.0244C80.252 70.8733 79.83 71.2978 78.9861 71.2978C78.7988 71.2978 78.6116 71.2978 78.4243 71.2978C77.6452 71.294 77.5142 71.1554 77.5142 70.3652C77.5142 69.2603 77.5142 68.1592 77.5142 67.0543C77.5142 67.0543 77.5179 67.0543 77.5217 67.0543L77.5291 67.043Z" fill="white"/>
<path d="M86.4618 65.9644C86.4618 65.1704 86.4506 64.3763 86.4656 63.5861C86.4731 63.264 86.3607 63.1217 86.0349 63.1554C85.8963 63.1666 85.754 63.1591 85.6154 63.1554C85.2858 63.1366 85.0985 62.9831 85.106 62.631C85.1135 62.2415 85.1172 61.852 85.1023 61.4662C85.0873 61.0617 85.3008 60.9081 85.6716 60.8969C85.7802 60.8969 85.8925 60.8857 85.9974 60.8969C86.3345 60.9306 86.4843 60.7958 86.4693 60.4437C86.4506 60.0542 86.4581 59.6647 86.4693 59.2789C86.4881 58.586 86.6454 58.4212 87.327 58.4062C87.7165 58.3988 88.106 58.3913 88.4956 58.41C89.0386 58.4362 89.2034 58.6122 89.2222 59.1628C89.2371 59.5186 89.2222 59.8782 89.2259 60.2377C89.2259 60.6747 89.4531 60.8932 89.9076 60.8932C90.2334 60.8932 90.563 60.9007 90.8888 60.8932C91.2746 60.8894 91.4656 61.0954 91.4844 61.4587C91.5031 61.8295 91.5031 62.2078 91.4844 62.5786C91.4656 62.9344 91.2746 63.1554 90.8926 63.1591C90.4731 63.1628 90.0499 63.1741 89.6304 63.1591C89.3233 63.1479 89.2222 63.2715 89.2259 63.5711C89.2372 65.0018 89.2259 66.4325 89.2372 67.8633C89.2409 68.5749 89.5218 68.8633 90.2447 68.9345C90.5555 68.9644 90.8664 68.9494 91.181 68.9607C91.4994 68.9719 91.6716 69.1517 91.6866 69.4551C91.7053 69.8895 91.7016 70.3277 91.6904 70.7622C91.6829 71.0955 91.4806 71.3015 91.1585 71.2865C90.2746 71.2453 89.3757 71.2491 88.5106 71.0843C87.3457 70.8633 86.724 70.1292 86.6116 68.9906C86.5143 67.9906 86.4768 66.9831 86.4131 65.9794C86.4319 65.9794 86.4543 65.9794 86.4731 65.9794L86.4618 65.9644Z" fill="white"/>
<path d="M107.192 61.867C107.192 60.8332 107.192 59.9044 107.192 58.9755C107.192 58.4175 107.211 57.8557 107.189 57.2976C107.17 56.8856 107.353 56.7321 107.743 56.7545C107.897 56.7658 108.054 56.7545 108.211 56.7583C108.518 56.762 108.657 56.9381 108.687 57.2227C108.698 57.3313 108.694 57.4399 108.694 57.5486C108.694 61.807 108.694 66.0655 108.694 70.324C108.694 71.0731 108.589 71.148 107.863 71.1554C107.249 71.1592 107.234 70.7285 107.177 70.2266C106.93 70.3689 106.728 70.4888 106.522 70.6049C105.425 71.2341 104.256 71.4663 103.016 71.1892C101.908 70.942 101.219 70.0955 101.207 68.9719C101.192 67.0917 101.215 65.2116 101.192 63.3314C101.17 61.5973 102.357 60.822 103.69 60.7546C104.747 60.7021 105.72 60.9868 106.627 61.5186C106.784 61.6123 106.941 61.7096 107.2 61.8707L107.192 61.867ZM107.192 66.043C107.192 65.249 107.204 64.4587 107.181 63.6647C107.177 63.4887 107.091 63.2565 106.96 63.1554C106.136 62.5299 105.219 62.1628 104.151 62.2078C103.005 62.2565 102.612 62.807 102.578 63.7621C102.522 65.2677 102.518 66.7809 102.578 68.2865C102.616 69.2528 102.93 69.8034 104.181 69.867C105.215 69.9195 106.129 69.53 106.945 68.927C107.076 68.8296 107.174 68.5974 107.177 68.4213C107.204 67.6311 107.189 66.837 107.189 66.043H107.192Z" fill="white"/>
<path d="M112.837 66.088C112.837 65.279 112.803 64.47 112.848 63.6647C112.874 63.2153 112.998 62.7621 113.133 62.3239C113.309 61.7546 113.743 61.3801 114.282 61.1853C115.814 60.6347 117.365 60.586 118.878 61.2415C119.676 61.5861 120.069 62.2752 120.11 63.1142C120.159 64.0917 120.129 65.073 120.129 66.0505C120.129 66.6086 120.076 66.6685 119.518 66.6723C117.99 66.6797 116.466 66.6723 114.938 66.6723C114.324 66.6723 114.324 66.6723 114.324 67.2827C114.324 67.6086 114.324 67.9344 114.324 68.2603C114.32 69.4288 114.676 69.897 115.833 70.0019C116.455 70.0581 117.099 69.9569 117.724 69.8858C118.357 69.8146 118.773 69.2753 118.784 68.5749C118.796 67.8745 119.163 67.6236 119.833 67.8595C119.945 67.9007 120.095 68.0318 120.106 68.1329C120.23 69.2416 120.046 70.4401 118.702 70.9644C117.324 71.5038 115.885 71.5075 114.488 71.0281C113.17 70.5712 112.945 69.7622 112.848 68.5487C112.784 67.7284 112.837 66.9007 112.837 66.0767V66.088ZM118.777 65.5524C118.777 64.7921 118.799 64.0954 118.769 63.3988C118.747 62.8745 118.301 62.3951 117.762 62.249C116.949 62.0318 116.129 62.0168 115.316 62.249C114.837 62.3838 114.417 62.6872 114.365 63.1703C114.282 63.9494 114.342 64.7434 114.342 65.5524H118.777Z" fill="white"/>
<path d="M97.1286 70.1217C97.1286 70.2154 97.1286 70.309 97.1286 70.3989C97.1286 71.2603 96.9002 71.4551 96.0425 71.2341C95.8702 71.1892 95.7091 70.9083 95.6455 70.706C95.578 70.4775 95.6267 70.2154 95.6267 69.9682C95.6267 68.9457 95.6979 68.8858 96.6942 68.927C97.0125 68.9419 97.1436 69.0618 97.1249 69.3764C97.1099 69.6236 97.1249 69.8708 97.1249 70.118L97.1286 70.1217Z" fill="white"/>
</svg>
