<svg width="128" height="128" viewBox="0 0 128 128" fill="none" xmlns="http://www.w3.org/2000/svg">
<rect width="128" height="128" fill="white"/>
<path d="M64.0001 113.18C92.5088 113.18 115.62 91.1613 115.62 64C115.62 36.8387 92.5088 14.8201 64.0001 14.8201C35.4913 14.8201 12.3804 36.8387 12.3804 64C12.3804 91.1613 35.4913 113.18 64.0001 113.18Z" fill="#1F363D"/>
<path d="M68.2819 53.1761C68.6258 53.1761 68.7731 56.148 68.7813 56.4836C68.7813 57.0649 68.7813 57.6462 68.7813 58.2275C68.7813 58.5768 68.956 58.7515 69.3053 58.7515C69.4445 58.645 69.4199 58.4977 69.4035 58.3503C69.4035 58.3503 69.4035 58.3421 69.4035 58.3339C70.0667 58.3339 70.7298 58.3339 71.393 58.3339C71.393 58.3503 71.393 58.3585 71.393 58.3749C71.3848 58.514 71.3684 58.6532 71.4994 58.7515C71.5895 58.6287 71.5895 58.4404 71.786 58.4076C71.9825 58.3749 72.0234 58.2439 72.0234 58.0719C72.0234 57.4252 72.0234 56.7866 72.0234 56.1398C71.7123 56.0579 71.614 56.0252 71.5813 55.8778C71.5813 55.5012 71.5813 55.1164 71.5813 54.7398C71.5813 54.4205 71.6386 54.1012 71.7287 53.7901C71.8187 53.6509 71.9497 53.6263 72.0971 53.6182C72.3673 53.5854 72.6292 53.6591 72.8994 53.6591C74.1111 53.6591 75.331 53.6591 76.5427 53.6591C76.6655 53.6591 76.7883 53.6591 76.9029 53.6345C77.0421 53.6018 77.124 53.5281 77.0339 53.3725C77.0339 51.8088 77.0339 50.2369 77.0339 48.6731C77.0339 48.5503 77.0339 48.4275 77.0339 48.3047C77.0093 48.1 76.8374 48.1328 76.7146 48.1328C76.0678 48.1246 75.4129 48.1164 74.7661 48.1328C74.6351 48.1328 74.5123 48.1328 74.3895 48.1737C74.4468 48.0837 74.4468 47.9772 74.4468 47.8708C74.4468 47.4451 74.4468 47.0194 74.4468 46.5936C74.4468 46.3071 74.5205 46.2334 74.7743 46.1843C75.2491 46.1925 75.724 46.1843 76.1988 46.1843C76.4117 46.1843 76.6327 46.1925 76.8456 46.1679C77.0012 46.1515 77.1158 46.0942 77.0257 45.8977V45.5866C77.0257 44.8743 77.0257 44.1621 77.0257 43.4498C76.9602 43.3597 76.862 43.327 76.7555 43.327C76.0269 43.3106 75.3064 43.3106 74.5778 43.327C74.4713 43.327 74.3649 43.327 74.3076 43.4498C74.3076 43.6053 74.3076 43.7609 74.3076 43.9164C74.3076 44.4732 74.3076 45.0299 74.3076 45.5866C73.7509 45.6439 73.1942 45.603 72.6456 45.6112C72.31 45.6194 71.9661 45.5539 71.7041 45.8895C71.6059 46.0205 71.5158 46.1106 71.5158 46.2743C71.5158 46.8474 71.5158 47.4205 71.5158 48.0018C71.5158 48.3293 71.5486 48.3702 71.8679 48.3702C72.5638 48.3784 73.2597 48.3702 73.9556 48.3702C74.0538 48.3702 74.1521 48.3457 74.2339 48.2965C74.1848 48.4275 74.193 48.5585 74.193 48.6977C74.1684 49.148 74.1848 49.5983 74.1766 50.0486C74.1766 50.6872 74.1275 50.7281 73.4971 50.7281C72.0807 50.7281 70.1076 50.7936 68.6994 50.8264C68.6994 50.8264 67.6515 51.4076 68.3883 51.0556" fill="#00843D"/>
<path d="M68.7813 50.769C68.7404 50.769 68.6913 50.7854 68.6503 50.8018C68.4293 50.8755 68.331 50.8182 68.2901 50.5807C68.2737 50.4907 68.2819 50.4088 68.2819 50.3188C68.2819 49.7784 68.2819 49.2381 68.2819 48.7059C68.2819 48.5094 68.2655 48.3211 68.0363 48.2392C67.9626 48.2147 67.9135 48.141 67.8807 48.0755C67.7334 47.8217 67.3977 47.7644 67.2667 47.486C67.2421 47.4287 67.1193 47.4451 67.0456 47.4451C66.841 47.4369 66.6281 47.4451 66.4234 47.4451C66.2515 47.4451 66.1123 47.3878 66.0468 47.2158C65.9977 47.093 65.9158 47.0112 65.793 46.9784C65.7193 46.9539 65.6456 46.9129 65.6129 46.8392C65.5556 46.6837 65.4492 46.5772 65.2854 46.5445C65.2363 46.5363 65.1872 46.4954 65.1626 46.4463C65.0889 46.2498 64.9661 46.1106 64.7614 46.0451C64.7123 46.0287 64.6796 45.9796 64.6632 45.9305C64.6223 45.7995 64.5322 45.7094 64.4094 45.6603C64.3193 45.6194 64.262 45.5457 64.2211 45.4474C64.1883 45.3737 64.1474 45.3082 64.0655 45.2837C63.8281 45.2264 63.7708 45.0544 63.7462 44.8334C63.7217 44.6287 63.6807 44.4404 63.4597 44.3176C63.2796 44.2194 63.2796 43.9901 63.4515 43.8837C63.5989 43.8018 63.6889 43.6954 63.7462 43.5398C63.7708 43.4743 63.8281 43.417 63.8936 43.4007C64.2047 43.3515 64.2293 43.1223 64.2293 42.8767C64.2293 42.6884 64.2784 42.5328 64.4749 42.4591C64.5568 42.4264 64.6141 42.3773 64.6223 42.2872C64.6386 41.9761 64.6959 41.665 64.6059 41.3621C64.4995 41.272 64.3685 41.2474 64.2375 41.2311C63.7544 41.3211 63.2632 41.272 62.7802 41.2802C62.5919 41.2802 62.4363 41.2147 62.3462 41.0428C62.2889 40.9281 62.1907 40.879 62.0761 40.879C61.2492 40.8626 60.4223 40.8626 59.5954 40.879C59.4644 40.879 59.358 40.9281 59.2925 41.051C59.2024 41.2393 59.0468 41.2884 58.8667 41.2884C58.6539 41.2884 58.4492 41.2884 58.2363 41.2966C58.0971 41.2966 57.9825 41.3539 57.9252 41.4931C57.8515 41.6814 57.7042 41.755 57.5159 41.755C57.2784 41.755 57.0656 41.7796 56.9673 42.0416C56.9428 42.1071 56.8691 42.148 56.8036 42.1644C56.5989 42.2135 56.558 42.3609 56.558 42.541C56.558 42.6802 56.5743 42.8521 56.4597 42.934C56.2632 43.0732 56.1322 43.3106 55.9439 43.4088C55.6328 43.5726 55.6083 43.7936 55.6164 44.072C55.6164 44.3094 55.6164 44.5387 55.6164 44.7761C55.6164 45.0217 55.2071 45.6275 54.9778 45.6275C54.503 45.6275 53.9545 45.8977 53.6106 45.3164C53.6024 45.3001 53.586 45.2919 53.5697 45.2837C53.3077 45.1936 53.2586 44.9808 53.2586 44.7433C53.2586 44.5632 53.2013 44.424 53.0129 44.3585C52.8983 44.3176 52.8246 44.2357 52.7837 44.1211C52.7264 43.9574 52.5954 43.9001 52.4398 43.9001C52.3089 43.9001 52.1779 43.9001 52.0469 43.9001C51.613 43.9001 51.5802 43.941 51.5393 44.3749C51.5229 44.5632 51.4738 44.727 51.2773 44.7843C51.1381 44.8252 51.0562 44.8989 51.0071 45.0381C50.9662 45.1445 50.8843 45.21 50.7697 45.2018C50.6551 45.2018 50.5732 45.1281 50.5323 45.0299C50.4913 44.9316 50.4586 44.8334 50.3685 44.7679C50.2048 44.7515 50.0983 44.8006 50.1065 44.9889C50.1065 45.1281 50.0247 45.1854 49.8937 45.1854C49.8118 45.1854 49.7217 45.1854 49.6399 45.1854C49.5007 45.341 49.4024 45.5375 49.2223 45.6521C49.165 45.865 49.1978 46.0778 49.1978 46.2907C49.1978 46.5445 49.0668 46.6919 48.8703 46.831C48.682 46.962 48.4691 46.8965 48.2808 46.9539C48.1907 46.9539 48.1089 46.9539 48.0188 46.9539C47.8714 47.2077 47.6504 47.2732 47.372 47.2486C47.2165 47.2322 47.0445 47.2158 46.9217 47.3714C46.7989 47.4696 46.7662 47.6416 46.6188 47.7153C46.5042 47.7726 46.4796 47.8708 46.4796 47.9936C46.4796 48.2229 46.5124 48.4521 46.4551 48.6813C46.3323 48.8696 46.1767 49.0334 45.9884 49.1562C45.9884 49.2954 45.9884 49.4345 45.9884 49.5737C46.0457 49.6474 46.1112 49.6883 46.2013 49.7129C46.2831 49.7375 46.3405 49.7866 46.3486 49.8767C46.3486 49.9749 46.2913 50.0404 46.2013 50.065C46.1112 50.0895 46.0457 50.1305 45.9884 50.2041C46.0048 50.5398 45.751 50.4497 45.5709 50.4661C45.5709 50.8509 45.4562 51.162 45.096 51.3503C44.6703 51.817 44.2118 52.2509 43.737 52.6521C43.6305 52.6521 43.5323 52.6521 43.4258 52.6521C43.303 52.7749 43.2212 52.9386 43.0165 52.9386C42.7709 52.9386 42.5335 52.9959 42.2878 52.955C42.1323 52.9304 41.9685 52.9223 41.8539 53.0696C41.7147 53.0942 41.4773 52.9878 41.4609 53.1924C41.4364 53.5608 41.2153 53.5445 40.9697 53.5363C40.7978 53.7655 40.5685 53.8392 40.2902 53.831C39.8972 53.8146 39.496 53.831 39.1031 53.831C38.9639 53.831 38.8247 53.831 38.7265 53.9538C38.7101 53.9538 38.6937 53.9538 38.6773 53.9538C38.3662 54.2404 38.1779 54.6415 37.7849 54.838H37.3183C37.1873 54.969 37.1054 55.1491 36.9499 55.2556C36.7779 55.3784 36.8762 55.5667 36.8434 55.7222C36.7206 55.886 36.5814 56.017 36.4259 56.1398C36.3113 56.3199 36.1148 56.4263 35.9592 56.5573C35.9019 56.8439 35.9265 57.1386 35.9428 57.4252C35.9592 57.8018 35.9428 58.1292 35.5335 58.293C35.5171 58.293 35.5089 58.3176 35.5007 58.3257C35.5007 59.038 35.5007 59.7503 35.5007 60.4708C35.6154 60.6263 35.7955 60.5936 35.951 60.6018C36.0902 60.6018 36.2458 60.6018 36.3194 60.7328C36.4586 60.9784 36.6879 61.1421 36.8516 61.3632C36.8516 61.486 36.8516 61.6088 36.8516 61.7234C36.9089 61.7971 36.9171 61.8953 37.0072 61.9444C37.13 62.0099 37.0808 62.0754 36.9826 62.1246C36.9253 62.1491 36.868 62.1655 36.8189 62.1982C36.8025 62.2146 36.7861 62.231 36.7779 62.2556C36.7534 62.5093 36.5241 62.5912 36.3604 62.7304C36.3113 62.8696 36.213 62.9515 36.0738 63.0088C35.7709 63.1234 35.7218 63.3117 35.8937 63.6064C36.0493 63.6883 36.213 63.6801 36.3768 63.6637C36.5651 63.6555 36.6797 63.7456 36.7943 63.9012C36.9253 64.0731 36.8844 64.3023 37.0153 64.4579C37.1873 64.6707 37.3019 64.9 37.3101 65.1702C37.3101 65.4976 37.3101 65.8333 37.3101 66.1608C37.5884 66.3245 37.6949 66.5702 37.6703 66.8895C37.6703 66.9631 37.7031 67.0204 37.7849 67.045C37.9651 67.0696 38.227 66.9631 38.2025 67.307C38.1452 67.3725 38.137 67.4462 38.2025 67.5117C38.2189 67.5772 38.2516 67.6427 38.2516 67.7082C38.2516 67.8555 38.3253 67.9374 38.4727 67.9292C38.6691 67.921 38.7264 68.0275 38.7183 68.2076C38.7183 68.6251 38.7183 69.0345 38.7183 69.452C38.7183 69.5585 38.7183 69.6894 38.8574 69.6894C39.144 69.6894 39.1522 69.8614 39.1358 70.0742C39.1112 70.1807 39.1849 70.2134 39.2586 70.2462C39.4142 70.3117 39.4715 70.4345 39.4797 70.5982C39.4797 70.8766 39.4797 71.1549 39.4797 71.4333C39.4797 71.6052 39.406 71.7362 39.2341 71.7853C39.144 71.8099 39.0703 71.8508 39.0376 71.9409C38.9884 72.0883 38.8902 72.162 38.7592 72.2274C38.5463 72.3339 38.5381 72.7432 38.751 72.8333C38.9639 72.9315 39.013 73.0789 39.0212 73.2836C39.0212 73.4064 38.9884 73.5538 39.144 73.6193C39.365 73.6111 39.5861 73.6029 39.5779 73.9222C39.5779 74.0122 39.6762 74.0286 39.758 74.0368C39.8645 74.0368 39.9791 74.0286 40.0855 74.0859C40.151 74.2333 40.3393 74.266 40.3884 74.4298C40.4212 74.569 40.5358 74.6181 40.6668 74.6181C41.1908 74.6345 41.7147 74.659 42.2305 74.6099C42.4598 74.5853 42.7299 74.5935 42.9019 74.3888C42.9919 74.2742 43.082 74.176 43.2212 74.1432C43.303 74.1187 43.3604 74.0695 43.3849 73.9877C43.434 73.8485 43.5405 73.7584 43.6878 73.7257C43.7615 73.7093 43.8188 73.6684 43.8434 73.6029C43.9253 73.3655 44.1054 73.3327 44.3182 73.3245C44.4329 73.3245 44.572 73.3409 44.6294 73.1935C44.6375 72.7023 44.6785 72.6695 45.1042 72.776C45.4153 72.8988 45.489 72.8742 45.6691 72.5959C45.7264 72.514 45.8001 72.4567 45.8902 72.4321C45.9639 72.4076 46.0539 72.383 46.0785 72.3093C46.1685 72.0391 46.3814 72.0146 46.6188 72.0228C46.7744 72.0228 46.9299 72.0228 47.0855 72.0228C47.1837 72.0228 47.2983 72.0228 47.3475 71.9C47.4048 71.8836 47.4621 71.8508 47.5194 71.8508C47.6995 71.8508 47.8223 71.8099 47.8223 71.597C47.8223 71.4415 47.9533 71.4333 48.0679 71.4333C48.4855 71.4333 48.903 71.4333 49.3206 71.4333C49.4925 71.4333 49.6235 71.4579 49.6644 71.6625C49.6808 71.7608 49.7627 71.8263 49.8691 71.8345C49.9673 71.8427 50.0656 71.8017 50.0738 71.7117C50.1065 71.3596 50.3685 71.4415 50.5814 71.4251C50.7042 71.3924 50.696 71.2859 50.7042 71.1877C50.7124 71.0812 50.6714 70.9339 50.7451 70.8848C51.0071 70.721 51.0972 70.3935 51.3673 70.238C51.4328 70.2052 51.4901 70.1807 51.5229 70.107C51.5229 70.0006 51.5229 69.9023 51.5229 69.7959C51.5229 69.1573 51.482 69.2228 52.0714 69.2228C52.2434 69.2228 52.3662 69.19 52.3662 68.9854C52.3662 68.8544 52.448 68.8052 52.5708 68.8052C52.6773 68.8052 52.7755 68.8052 52.882 68.8052C53.103 68.9608 53.6843 69.0017 53.7743 68.8216C53.9299 68.5023 54.2083 68.4941 54.4948 68.4532C54.6012 68.4368 54.7077 68.4286 54.7568 68.314C54.855 68.0766 55.0433 68.0438 55.2644 68.0438C55.7147 68.0438 56.165 68.0438 56.6153 68.0438C56.7381 68.0438 56.8854 68.0684 56.9591 67.921C56.9837 67.7409 56.8773 67.4789 57.2211 67.5035C57.3603 67.6754 57.5486 67.6263 57.7287 67.6263C57.9498 67.6263 58.1463 67.6509 58.2199 67.9047C58.2445 67.9865 58.3182 68.0193 58.4001 68.0438C58.4737 68.0684 58.5311 68.1175 58.5802 68.183C58.7849 68.4859 58.9077 68.5187 59.2597 68.3877C59.4153 68.3877 59.5708 68.3877 59.7264 68.3877C60.0047 68.3877 60.1466 68.5269 60.1521 68.8052C60.3158 69.0181 60.5533 68.928 60.7579 68.928C61.0936 68.928 61.1509 68.8707 61.1591 68.5269C61.1755 68.1011 61.1591 67.6754 61.1591 67.2497C61.1591 66.8403 61.2655 66.7503 61.6749 66.7421C62.1088 66.7421 62.5427 66.7421 62.9766 66.7421C63.124 66.7421 63.2714 66.7421 63.4106 66.6602C63.5252 66.5538 63.5006 66.4064 63.5006 66.2672C63.5006 65.7023 63.5006 65.1456 63.5006 64.5807C63.5006 64.3842 63.5334 64.2041 63.6562 64.0485C63.6644 64.0158 63.6726 63.983 63.6562 63.9503C63.5252 63.631 63.5334 63.5982 63.8936 63.5737C64.5568 63.5409 65.2281 63.5246 65.8913 63.5819C65.924 63.5819 65.9568 63.5819 65.9895 63.5819C66.0386 63.59 66.0959 63.59 66.1369 63.6064C66.2597 63.6474 66.3907 63.6719 66.2351 63.8357C66.1942 63.8848 66.1942 63.9503 66.2433 63.9994C66.3579 64.0895 66.4971 64.0567 66.6281 64.0731C66.841 64.0731 66.8819 64.2286 66.8819 64.3924C66.8819 64.9819 66.8819 65.5713 66.8819 66.1608C66.8819 66.2181 66.8901 66.2836 66.8082 66.3164C66.7509 66.2672 66.7345 66.1772 66.6527 66.1608C66.5872 66.1608 66.5299 66.1854 66.5053 66.2427C66.407 66.4801 66.2106 66.4965 65.9977 66.4883C65.3591 66.4637 64.7205 66.4801 64.0819 66.4801C63.9673 66.4801 63.8609 66.5047 63.7544 66.5538C63.6234 66.6602 63.6562 66.8076 63.6562 66.9386C63.648 67.5199 63.6562 68.093 63.6562 68.6742C63.6562 68.969 63.5743 69.0508 63.2796 69.0918C62.6246 69.0836 61.9614 69.0754 61.3065 69.0918C61.1755 69.0918 61.0281 69.0918 60.9872 69.2555C60.9544 69.4029 60.9053 69.5666 61.0772 69.6813C61.2574 69.7222 61.5603 69.5585 61.5439 69.9432C61.5603 70.0415 61.6176 70.0988 61.724 70.0988C61.9041 70.0988 61.9696 70.1807 61.9696 70.3526C61.9696 70.4918 62.0433 70.5655 62.1825 70.5655C62.3053 70.5655 62.379 70.6228 62.3872 70.7538C62.3872 70.9339 62.5018 70.9912 62.6655 70.983C62.8457 70.9748 62.9112 71.0649 62.9112 71.2368C62.9112 71.5234 62.9112 71.8099 62.9112 72.0965C62.9112 72.7842 62.862 72.7023 63.5088 72.7023C63.5252 72.7023 63.5416 72.7023 63.5579 72.7023C63.7217 72.7023 63.7954 72.7678 63.7954 72.9397C63.7954 73.1608 63.7954 73.3736 63.7954 73.5947C63.7954 73.7339 63.7954 73.8731 63.7954 74.0122L63.8445 74.0368C64.6714 74.0368 65.4901 74.0368 66.317 74.0368C66.5135 74.0368 66.5708 73.9713 66.5708 73.783C66.5626 73.2017 66.5708 72.6204 66.5708 72.0391C66.5708 71.4169 66.5708 71.4251 67.1766 71.4169C67.7252 71.4169 68.2655 71.4497 68.8141 71.3924C68.8632 71.3924 68.9041 71.3924 68.9532 71.3924C68.9532 71.3924 68.9532 71.4006 68.9532 71.4087C69.1252 71.5479 69.2398 71.7117 69.1661 71.9491C69.2152 72.4812 69.2725 73.0216 69.2644 73.5619C69.2725 73.5947 69.2889 73.6193 69.3135 73.6356C69.4363 73.7093 69.5755 73.7093 69.7146 73.7175C70.1404 73.7175 70.5579 73.7175 70.9836 73.7175C71.1556 73.7175 71.3275 73.7339 71.4994 73.6929C71.8487 73.6165 71.9961 73.753 71.9415 74.1023C71.876 74.7491 71.9088 75.3959 71.9252 76.0426C71.9252 76.0999 71.9415 76.1654 71.9825 76.2146C72.0234 76.2555 72.0725 76.2719 72.1216 76.2719C72.8749 76.2637 73.6281 76.3128 74.3813 76.2391C74.6597 76.2146 74.7661 76.3128 74.7006 76.5748C74.545 77.2625 74.6433 77.9584 74.6351 78.6543C74.6351 78.8017 74.717 78.9163 74.8643 78.9654C75.4947 79.0146 76.1333 78.99 76.7637 78.9818C76.8702 78.9818 76.9684 78.9491 77.0421 78.859C77.0421 78.3514 77.0421 77.852 77.0421 77.3444C77.2386 77.1561 77.1403 76.9105 77.1567 76.6894C77.2058 76.4111 77.2795 76.3374 77.5661 76.3292C78.0164 76.321 78.4666 76.3128 78.9169 76.3292C79.2608 76.3456 79.5555 76.2228 79.8339 76.0426C79.9321 75.4122 79.8912 74.7818 79.8585 74.1514C79.7111 73.8812 79.7766 73.7502 80.0795 73.7175C80.2351 73.7011 80.3906 73.7175 80.5462 73.7175C80.9801 73.7011 81.414 73.7584 81.8479 73.6684C82.0117 73.6356 82.1017 73.5538 82.1345 73.3818C82.2327 72.8005 82.1836 72.2193 82.1754 71.638C82.1754 71.4742 82.0772 71.4087 81.9216 71.4169C81.6187 71.4169 81.3158 71.4169 81.0128 71.4169C80.5953 71.4087 80.1778 71.4497 79.7684 71.3924C79.7684 70.5245 79.7684 69.6485 79.7684 68.7807C79.662 68.6333 79.531 68.6497 79.3836 68.7234C79.2444 68.8871 79.2936 69.0836 79.2608 69.2719C79.2444 69.362 79.2199 69.4438 79.1216 69.4766C79.0234 69.5093 78.9497 69.4602 78.9006 69.3783C78.8023 69.2064 78.655 69.1818 78.4748 69.1737C78.2947 69.1737 78.1064 69.1737 77.9263 69.1737C77.5661 69.1818 77.1977 69.2146 76.9848 68.8298C76.9766 68.8134 76.9602 68.8052 76.9439 68.797C76.6082 68.6988 76.5918 68.4368 76.5918 68.1503C76.5918 67.1105 76.5918 66.0789 76.5918 65.0392C76.5918 64.3924 76.5672 64.3596 75.9123 64.3596C73.7509 64.3596 71.5977 64.3596 69.4363 64.3596C69.1252 64.3596 68.8877 64.286 68.7567 63.983C68.4784 63.8602 68.3801 63.6392 68.3801 63.3362C68.3965 62.7877 68.3883 62.2392 68.3801 61.6906C68.3801 61.3468 68.372 61.0275 68.7322 60.8474C68.7567 60.8392 68.7731 60.8146 68.7813 60.7901C68.9123 60.5117 69.1497 60.4871 69.4117 60.4871C70.6234 60.4871 71.8269 60.4871 73.0386 60.4871C74.1766 60.4871 75.3146 60.4871 76.4526 60.4871C76.8129 60.4871 76.8947 60.5608 76.9193 60.8965C76.9193 61.0275 76.8784 61.1585 76.9684 61.2731C77.3532 61.3959 77.4515 61.6743 77.4105 62.0427C77.3941 62.2556 77.4023 62.4766 77.4105 62.6977C77.4269 63.0006 77.5006 63.0825 77.8035 63.0988C78.09 63.1152 78.3766 63.1234 78.6631 63.0988C79.0234 63.0743 79.2772 63.1807 79.3836 63.5409C79.4737 63.6146 79.5637 63.6146 79.662 63.5655C79.6947 63.5491 79.7111 63.5246 79.7275 63.4918C79.7275 61.1912 79.7275 58.8988 79.7275 56.5983C79.662 56.5164 79.5801 56.4836 79.4819 56.4755C78.9088 56.4591 78.3357 56.4509 77.7708 56.4755C77.5088 56.4836 77.4351 56.5737 77.4187 56.8357C77.4023 57.0813 77.3941 57.3187 77.4187 57.5643C77.4433 57.9164 77.3286 58.1702 76.9766 58.293C76.8784 58.4076 76.9111 58.5386 76.9275 58.6696C76.9602 59.038 76.8865 59.1281 76.5181 59.1281C76.0187 59.1281 75.5275 59.1281 75.0281 59.1281C74.9871 59.1281 74.938 59.1199 74.8971 59.1281C74.4222 59.1526 74.2421 58.7023 73.9146 58.4977C73.8655 58.4731 73.8655 58.3912 73.8573 58.3257C73.8164 58.1538 73.8082 57.9819 73.8082 57.81C73.8082 57.4743 73.8082 57.1304 73.8 56.7948C73.7918 56.5983 73.6854 56.4918 73.4889 56.4836C73.2515 56.4755 73.0222 56.4673 72.7848 56.4836C72.4983 56.5 72.4164 56.5901 72.4082 56.8766C72.3918 57.2778 72.4 57.679 72.4082 58.0801C72.4082 58.3503 72.4082 58.6123 72.0889 58.7269C72.0398 58.7433 72.0152 58.8006 71.9907 58.8415C71.9006 59.0135 71.7532 59.079 71.5649 59.1035C70.8363 59.1854 70.1076 59.1526 69.379 59.1281C69.1252 59.1199 68.8959 59.0462 68.7649 58.8006C68.7486 58.7678 68.7076 58.7269 68.6667 58.7105C68.4211 58.6123 68.3801 58.4076 68.3801 58.1784C68.3801 57.7772 68.3801 57.376 68.3801 56.9749C68.3801 56.5655 68.3065 56.4918 67.8807 56.4836C67.4468 56.4755 67.0129 56.4836 66.579 56.4836C66.3579 56.4836 66.186 56.4263 66.1123 56.1889C66.0877 56.1152 66.0468 56.0661 65.9731 56.0415C65.7111 55.9679 65.662 55.7714 65.662 55.5339C65.662 55.1082 65.6702 54.6825 65.662 54.2567C65.6538 53.9538 65.5802 53.8965 65.2772 53.8801C64.9661 53.8638 64.6468 53.872 64.3357 53.8801C63.8772 53.8883 63.4597 53.8556 63.1486 53.438C63.0421 53.2907 62.9439 53.1679 62.9439 52.9796C62.9439 52.562 62.9439 52.1445 62.9439 51.7269C62.9439 51.5304 63.0094 51.3667 63.1813 51.2603C63.2714 51.0556 63.3696 50.8509 63.5497 50.7117C63.5661 50.8427 63.6644 50.8919 63.7872 50.9164C63.9919 51.031 64.1965 50.9082 64.4012 50.9164C64.9252 50.9655 65.4492 50.9328 65.9731 50.9164C66.1532 50.9164 66.2269 50.9983 66.2924 51.1293C66.3416 51.2439 66.3334 51.3667 66.3416 51.4895C66.3416 52.0462 66.3334 52.603 66.3416 53.1597C66.3497 53.4544 66.407 53.4954 66.7018 53.5035C67.2831 53.5199 67.8644 53.4544 68.4375 53.5772" fill="#00843D"/>
<path d="M73.8164 80.4309C73.8164 80.3572 73.8328 80.2754 73.7918 80.2017C73.7099 80.1034 73.5953 80.0953 73.4807 80.0953C72.0234 80.0871 70.5579 80.0871 69.1006 80.0953C68.9778 80.0953 68.855 80.1116 68.7731 80.2181C68.7731 80.9467 68.7731 81.6754 68.7731 82.4122C69.5345 82.4122 70.3041 82.4122 71.0655 82.4122C71.0655 82.5514 71.0655 82.6906 71.0655 82.8297C71.0655 84.1561 71.0655 85.4742 71.0655 86.8005C71.0655 87.0788 71.2047 87.218 71.4831 87.218C72.2526 87.218 73.014 87.218 73.7836 87.218C73.8246 87.1443 73.8082 87.0625 73.8082 86.9888C73.8082 84.8028 73.8082 82.6169 73.8082 80.4309H73.8164Z" fill="#00843D"/>
<path d="M84.9181 66.2181C84.1158 66.2263 83.3134 66.2181 82.5193 66.2181C82.3965 66.2918 82.3965 66.4228 82.3965 66.5374C82.3883 67.1924 82.3883 67.8473 82.3965 68.5023C82.3965 68.6251 82.4128 68.7479 82.5193 68.8298C83.3707 68.8298 84.2222 68.8298 85.0736 68.8298C85.2456 68.797 85.2292 68.6661 85.2292 68.5432C85.2292 67.8719 85.2292 67.2006 85.2292 66.5292C85.2292 66.2918 85.1555 66.2017 84.9099 66.2099L84.9181 66.2181Z" fill="#00843D"/>
<path d="M83.3707 56.1152C83.0842 56.1152 82.7976 56.0825 82.5111 56.1398C82.4456 56.2462 82.462 56.3608 82.462 56.4673C82.462 57.2287 82.4374 57.9901 82.5111 58.7515C83.2725 58.7515 84.0421 58.7515 84.8035 58.7515C84.8772 58.6942 84.9181 58.6205 84.9181 58.5304C84.9426 57.8018 84.9426 57.0649 84.9181 56.3363C84.9181 56.1807 84.8362 56.107 84.6643 56.1152C84.2304 56.1234 83.7965 56.1152 83.3625 56.1152H83.3707Z" fill="#00843D"/>
<path d="M82.4947 64.1713C82.4947 63.9912 82.421 63.9175 82.2491 63.9012C82.0117 63.8848 81.7824 63.8766 81.545 63.8602C81.0292 63.8275 80.5216 63.8111 80.0058 63.9012C79.8585 63.9257 79.7602 63.9748 79.7684 64.1468C79.7684 64.7772 79.7684 65.3994 79.7684 66.0298C79.7684 66.1772 79.8421 66.2017 79.9567 66.1936C80.4807 66.1936 81.0047 66.1936 81.5204 66.1936C81.676 66.1936 81.8316 66.169 81.9871 66.2181C82.0035 66.2181 82.0199 66.2181 82.0362 66.2181C82.1263 66.3245 82.2409 66.3573 82.3637 66.2918C82.4701 66.2427 82.4783 66.1281 82.4783 66.0216C82.4783 65.4076 82.4783 64.7854 82.4783 64.1713H82.4947Z" fill="#00843D"/>
<path d="M72.2526 43.0895C72.8421 43.1059 73.4316 43.1059 74.0292 43.0895C74.1439 43.0895 74.2585 43.0895 74.324 42.9667C74.324 42.3363 74.324 41.7141 74.324 41.0837C74.324 40.8463 74.2421 40.7644 74.0047 40.7644C73.3415 40.7726 72.6784 40.7644 72.0234 40.7644C71.9252 40.8381 71.9006 40.9527 71.9006 41.0673C71.8924 41.6241 71.8842 42.1808 71.9006 42.7375C71.9088 43.0159 71.9743 43.0732 72.2526 43.0814V43.0895Z" fill="#00843D"/>
<path d="M79.3345 80.2181C78.6631 80.2181 77.9918 80.2181 77.3205 80.2181C77.1076 80.2181 77.0257 80.2999 77.0257 80.5128C77.0339 81.1514 77.0257 81.7818 77.0257 82.4204C76.8538 82.4204 76.6737 82.4204 76.5017 82.4204C75.8795 82.4204 75.2573 82.4204 74.6351 82.4204C74.5205 82.4204 74.4058 82.4122 74.3076 82.4695C74.2503 82.8789 74.283 83.2964 74.283 83.714C74.283 84.1397 74.2503 84.5572 74.3076 84.9829C74.3895 85.0321 74.4877 85.0321 74.586 85.0321C75.2982 85.0321 76.0105 85.0321 76.7146 85.0321C76.9602 85.0321 77.0257 84.9338 77.0257 84.7046C77.0175 84.0824 77.0257 83.4601 77.0257 82.8297C77.1485 82.7151 77.1731 82.5841 77.0667 82.4368C77.1485 82.5104 77.2468 82.5268 77.3532 82.535C77.9017 82.5432 78.4503 82.535 78.9988 82.535C79.1216 82.535 79.2444 82.5186 79.3263 82.4122C79.4327 82.3303 79.4491 82.2075 79.4491 82.0847C79.4491 81.5689 79.4491 81.0613 79.4491 80.5455C79.4491 80.4227 79.4327 80.2999 79.3263 80.2181H79.3345Z" fill="#00843D"/>
<path d="M82.0444 53.4708C82.2 53.4708 82.3637 53.4953 82.5111 53.4135C82.6503 53.3398 82.6339 53.2088 82.6257 53.0942C82.5766 52.6193 82.5766 52.1527 82.6257 51.6778C82.6421 51.5468 82.6257 51.4158 82.5111 51.3258C82.5111 51.0147 82.6694 50.8591 82.9859 50.8591C83.731 50.8591 84.4842 50.8591 85.2292 50.8591C85.3438 50.8018 85.352 50.6954 85.352 50.5889C85.3684 49.8848 85.3684 49.1807 85.352 48.4767C85.352 48.1983 85.2865 48.141 85.0081 48.1328C84.2713 48.1164 83.5263 48.1164 82.7894 48.1328C82.683 48.1328 82.5766 48.1328 82.5193 48.2556C82.4456 48.9843 82.4701 49.7211 82.4701 50.4579C82.4701 50.7308 82.331 50.8673 82.0526 50.8673C81.9789 50.769 81.8643 50.7445 81.7497 50.7445C81.1848 50.7363 80.6117 50.7363 80.0468 50.7445C79.9403 50.7445 79.8175 50.7445 79.7602 50.8673C79.7602 51.6369 79.7602 52.4065 79.7602 53.1761C79.7602 53.2825 79.7602 53.3807 79.8093 53.479C80.5544 53.479 81.3076 53.479 82.0526 53.479L82.0444 53.4708Z" fill="#00843D"/>
<path d="M63.7626 74.0532C62.9603 74.0532 62.1661 74.0532 61.3638 74.0532C61.1264 74.0532 61.0363 74.1269 61.0445 74.3643C61.0527 75.0438 61.0527 75.7233 61.0445 76.4029C61.0445 76.6403 61.1182 76.7304 61.3638 76.7222C62.0597 76.714 62.7556 76.714 63.4515 76.7222C63.6889 76.7222 63.7708 76.6403 63.7708 76.4029C63.7626 75.6415 63.7708 74.8719 63.7708 74.1105C63.8035 74.0941 63.8035 74.0777 63.7708 74.0614L63.7626 74.0532Z" fill="#00843D"/>
<path d="M85.2292 53.5199C85.2292 54.2731 85.2292 55.0345 85.2292 55.7877C85.2292 56.0006 85.3029 56.0825 85.5158 56.0825C86.0807 56.0743 86.6456 56.0743 87.2105 56.0825C87.4479 56.0825 87.5298 56.0006 87.5298 55.7632C87.5216 55.0182 87.5298 54.2649 87.5298 53.5199C86.7602 53.5199 85.9988 53.5199 85.2292 53.5199Z" fill="#00843D"/>
<path d="M92.5485 53.7901C92.5485 53.5854 92.4584 53.5199 92.2619 53.5199C91.5415 53.5199 90.821 53.5199 90.0923 53.5199C89.8877 53.5199 89.8222 53.61 89.8222 53.8065C89.8222 54.4942 89.8222 55.1819 89.8222 55.8696C89.8222 56.0743 89.904 56.148 90.1005 56.1398C90.4608 56.1398 90.8128 56.1398 91.173 56.1398C91.5333 56.1398 91.8853 56.1398 92.2455 56.1398C92.4502 56.1398 92.5485 56.0825 92.5485 55.8614C92.5403 55.1737 92.5485 54.486 92.5485 53.7983V53.7901Z" fill="#00843D"/>
<path d="M82.5193 61.3632C82.5193 61.969 82.5193 62.583 82.5193 63.1889C82.5193 63.5409 82.5275 63.5573 82.8877 63.5573C84.4187 63.5573 85.9497 63.5573 87.4807 63.5573C87.5462 63.4591 87.5298 63.3444 87.5298 63.2298C87.5298 62.6076 87.5298 61.9854 87.5298 61.3632C85.8596 61.3632 84.1894 61.3632 82.5193 61.3632Z" fill="#00843D"/>
</svg>
