<svg width="128" height="128" viewBox="0 0 128 128" fill="none" xmlns="http://www.w3.org/2000/svg">
<rect width="128" height="128" fill="white"/>
<path fill-rule="evenodd" clip-rule="evenodd" d="M38.441 49.2823C36.7164 49.2823 35.3182 50.6805 35.3182 52.4051C35.3182 53.0768 35.5303 53.6982 35.8903 54.207H35.8894L38.4401 58.5279C38.4401 58.5279 39.6624 57.9047 41.562 57.8033L41.5638 52.4051C41.5638 50.6805 40.1657 49.2823 38.441 49.2823Z" fill="#7CBD43"/>
<path fill-rule="evenodd" clip-rule="evenodd" d="M47.7615 49.3941C46.2536 48.556 44.3522 49.0983 43.515 50.6062C43.1884 51.1932 43.0722 51.8388 43.1401 52.4583H43.1391L43.2024 57.6555C43.2024 57.6555 44.5978 57.6425 46.5838 57.7495L48.9736 53.6407C49.8117 52.1337 49.2694 50.2323 47.7615 49.3941Z" fill="#EF982A"/>
<path fill-rule="evenodd" clip-rule="evenodd" d="M29.9054 53.27C28.3965 54.1063 27.8514 56.0067 28.6877 57.5156C29.0133 58.1025 29.4998 58.5425 30.0617 58.8132L30.0607 58.8142L34.3863 61.3565C34.3863 61.3565 35.1538 60.2188 36.7659 59.2095L34.15 54.4877C33.3147 52.9788 31.4142 52.4337 29.9054 53.27Z" fill="#2B7AB9"/>
<path fill-rule="evenodd" clip-rule="evenodd" d="M24.3576 61.6035C23.5567 63.1309 24.1464 65.0184 25.6739 65.8193C26.2683 66.1309 26.9167 66.2314 27.5353 66.1486V66.1495L32.5465 65.8965C32.5465 65.8965 32.5613 64.5244 33.3539 62.7951L28.5734 60.2872C27.046 59.4862 25.1585 60.076 24.3576 61.6035Z" fill="#8852A0"/>
<path fill-rule="evenodd" clip-rule="evenodd" d="M46.9966 72.5264C46.9966 72.665 46.9687 73.1664 46.9333 73.3013C46.738 74.0427 45.9054 76.2297 42.8803 76.2799C39.2356 76.3413 39.5175 73.7236 39.5175 73.7236C39.5175 73.7236 39.4775 71.3683 43.4235 71.0055C45.8533 70.7822 46.6422 70.4678 46.8887 70.2585C46.9529 70.2045 46.9863 70.1227 46.9863 70.0389C46.9863 70.0389 47.0096 70.0752 46.9863 70.1348L46.9966 72.5264ZM52.791 78.9981C52.4626 78.973 52.23 77.3153 52.203 77.1134C52.2012 77.0995 52.2003 77.0864 52.2003 77.0734C52.203 76.5962 52.2524 67.5218 52.2003 65.0129C52.1519 62.719 50.8272 61.8073 50.5379 61.6352C50.5026 61.6148 50.4737 61.5869 50.4486 61.5534C50.2421 61.2725 48.9156 59.919 42.563 59.9673C36.4951 60.0129 35.2895 64.5264 35.0672 65.8232C35.0365 66.0027 35.1751 66.1673 35.3584 66.1673H39.9481C40.0923 66.1673 40.2142 66.0632 40.2393 65.9208C40.6644 63.5069 42.3761 63.4566 42.3761 63.4566C42.3761 63.4566 47.0458 62.732 47.0458 65.2818C47.0458 67.8315 45.6235 67.6706 40.363 68.3962C35.1016 69.1199 34.4839 72.7711 34.4839 72.7711C34.4839 72.7711 33.3565 79.052 39.7184 79.4818C46.0802 79.9106 47.2337 76.5822 47.2877 77.2799C47.3258 77.7757 47.4719 78.4334 47.5537 78.773C47.5854 78.905 47.7035 78.999 47.8393 78.999C48.8793 79.0046 53.097 79.0213 52.791 78.9981Z" fill="#356CB4"/>
<path fill-rule="evenodd" clip-rule="evenodd" d="M54.9322 60.3885H70.9034V64.3345L61.1062 75.1783H71.628V79.0974H54.2345V75.2322L64.0317 64.2806L54.9322 64.2266V60.3885Z" fill="#356CB4"/>
<path fill-rule="evenodd" clip-rule="evenodd" d="M81.8017 63.7761C85.8278 63.6961 86.1496 67.6952 86.1496 67.6952H77.6678C77.6678 67.6952 77.7747 63.8561 81.8017 63.7761ZM90.8743 73.2719V73.2784L86.3915 73.3863C86.3915 73.3863 85.9087 75.7481 81.8017 75.7481C77.6947 75.7481 77.6677 71.0244 77.6677 71.0244H91.4529C91.4873 70.6039 91.505 70.1751 91.505 69.7379C91.505 64.297 87.9347 59.8858 82.0157 59.8858C76.7756 59.8858 72.5273 63.8458 72.5273 69.7379C72.5273 75.5221 76.6073 79.844 82.0157 79.5891C87.2919 79.3398 90.0659 76.8644 91.065 73.2579L90.8743 73.2719Z" fill="#356CB4"/>
<path fill-rule="evenodd" clip-rule="evenodd" d="M94.9813 54.7983H100.27V60.4616H104V63.8439H100.162L100.27 73.6421C100.27 73.6421 100.202 75.2393 101.625 75.2393C103.047 75.2393 104 75.1314 104 75.1314V79.1844L99.9608 79.3054C99.9608 79.3054 95.0882 79.2514 95.0482 75.5602C95.0073 71.87 94.9813 63.8579 94.9813 63.8579L91.8808 63.8709V60.4356L95.0073 60.4486L94.9813 54.7983Z" fill="#356CB4"/>
</svg>
