<svg width="128" height="129" viewBox="0 0 128 129" fill="none" xmlns="http://www.w3.org/2000/svg">
<rect width="128" height="128" transform="translate(0 0.111328)" fill="#0ACA4A"/>
<path d="M98.7983 50.7376C98.8077 51.4864 98.8418 52.2352 98.8418 52.984C98.8449 63.5233 98.8449 74.0626 98.848 84.6019C98.848 85.7049 98.8512 85.7049 99.9666 85.708C101.206 85.7111 102.449 85.7359 103.689 85.708C104.313 85.6955 104.637 85.9099 104.553 86.5562C104.447 87.3765 104.792 87.7027 105.606 87.6033C106.212 87.5287 106.423 87.8301 106.417 88.4236C106.386 91.0553 106.554 93.687 106.271 96.3156C106.215 96.8345 106.038 97.0737 105.516 97.0489C105.258 97.0365 105 97.0489 104.739 97.0489C91.4283 97.0489 78.1175 97.0489 64.8067 97.0489C51.443 97.0489 38.0825 97.0489 24.7189 97.0489C23.5382 97.0489 23.5133 97.0489 23.4357 95.8526C23.3984 95.2747 23.0784 95.2002 22.6123 95.1877C21.5776 95.1598 21.5745 95.1473 21.5714 94.1406C21.5683 92.8761 21.5901 91.6084 21.5621 90.3438C21.5497 89.7317 21.7392 89.3868 22.3979 89.4645C23.1654 89.5577 23.5102 89.2501 23.4263 88.4609C23.3611 87.855 23.7464 87.6872 24.2559 87.7462C25.0886 87.8457 25.3962 87.479 25.2875 86.6774C25.1943 85.9845 25.4801 85.7018 26.2041 85.7235C27.4438 85.7608 28.6867 85.68 29.9233 85.7266C30.7032 85.7546 30.8772 85.4252 30.871 84.7168C30.8461 81.5134 30.8647 78.31 30.8647 75.1066C30.8647 68.0814 30.8741 61.0532 30.8554 54.028C30.8523 52.9157 30.9859 51.8158 31.0294 50.7065C31.045 50.2964 31.2221 50.0975 31.6415 50.0758L63.7907 31.1722L98.7983 50.7376ZM64.931 85.7173V85.7111C72.736 85.7111 80.541 85.708 88.3461 85.7173C88.9737 85.7173 89.359 85.6427 89.3559 84.8504C89.3248 76.0667 89.3186 67.286 89.3217 58.5022C89.3217 57.9181 89.1415 57.6291 88.5263 57.6633C87.7464 57.7099 87.3642 57.3588 87.4761 56.5448C87.5662 55.8798 87.271 55.5691 86.5937 55.653C85.8479 55.7462 85.5341 55.42 85.6273 54.6805C85.7143 53.9814 85.3663 53.7794 84.717 53.8105C84.021 53.8447 83.3219 53.7732 82.6259 53.795C81.992 53.8136 81.6969 53.5433 81.7621 52.9188C81.8429 52.17 81.5198 51.9369 80.7834 51.9462C77.7074 51.9773 74.6313 51.9804 71.5584 51.9462C70.8189 51.94 70.4958 52.1731 70.5859 52.9219C70.6604 53.5433 70.3932 53.826 69.747 53.795C69.1535 53.767 68.5601 53.8105 67.9635 53.8167C66.9071 53.826 66.876 53.826 66.8667 54.8731C66.8605 55.4852 66.615 55.7027 66.0247 55.6748C65.3535 55.6406 64.6793 55.6126 64.0113 55.6623C63.2438 55.7183 62.8834 55.4542 62.9859 54.6587C63.0667 54.0187 62.7684 53.7794 62.1315 53.8105C61.4883 53.8416 60.8389 53.7639 60.1957 53.8012C59.4998 53.8385 59.1611 53.5899 59.2543 52.8722C59.3475 52.1451 59.0026 51.9431 58.3128 51.9494C55.212 51.9773 52.1111 51.9587 49.0102 51.9618C47.988 51.9618 47.9569 51.968 47.9538 52.9809C47.9538 53.5837 47.727 53.8198 47.1273 53.8012C46.4313 53.7794 45.7322 53.8478 45.0362 53.8198C44.4334 53.7981 44.1538 54.0311 44.2284 54.6339C44.3309 55.4479 43.9891 55.7866 43.1751 55.681C42.5909 55.6064 42.333 55.8581 42.3393 56.4733C42.3455 57.1413 42.2057 57.8093 42.2181 58.4774C42.2274 59.133 42.013 59.453 41.3263 59.3877C40.8137 59.338 40.4812 59.4996 40.4936 60.1086C40.5154 61.398 40.3662 62.6906 40.3756 63.9738C40.4191 70.8685 40.1643 77.7631 40.4999 84.6547C40.5527 85.7142 40.5309 85.7204 41.6029 85.7204C49.383 85.7204 57.1632 85.7204 64.9403 85.7204L64.931 85.7173Z" fill="white"/>
<path d="M79.8885 70.7131C79.8885 72.2884 79.8637 73.8606 79.901 75.4359C79.9196 76.1537 79.7052 76.4519 78.9409 76.4426C76.4365 76.4146 73.9322 76.4302 71.4279 76.4675C70.704 76.4799 70.4088 76.2407 70.415 75.4918C70.443 72.2667 70.4243 69.0415 70.4398 65.8163C70.443 65.1235 70.5393 64.4275 70.5579 63.7346C70.5735 63.1256 70.9774 63.0821 71.4093 63.1225C72.155 63.1939 72.5465 62.9485 72.4532 62.1344C72.3942 61.6124 72.6645 61.4291 73.1834 61.3856C74.5474 61.2738 75.9083 61.2675 77.2724 61.3856C77.7788 61.4291 78.015 61.5876 78.0305 62.122C78.0522 62.8677 78.161 63.6072 78.1921 64.3529C78.2169 64.8935 78.5401 65.0023 78.9719 64.965C79.6866 64.9028 79.9227 65.2167 79.9072 65.9158C79.8699 67.5159 79.8947 69.1161 79.8947 70.7162H79.8885V70.7131Z" fill="white"/>
<path d="M59.2885 69.7686C59.2885 71.6794 59.2667 73.5934 59.3009 75.5043C59.3133 76.1909 59.1052 76.4768 58.375 76.4644C55.7899 76.4271 53.2048 76.4271 50.6197 76.4364C50.0293 76.4364 49.787 76.2282 49.7901 75.6223C49.8056 72.3661 49.8056 69.113 49.7901 65.8567C49.7901 65.2415 50.0107 64.9028 50.6476 64.9743C51.4648 65.0644 51.7196 64.6791 51.6264 63.9334C51.5487 63.2903 51.8625 63.0137 52.487 63.0883C53.2483 63.1784 53.6087 62.8988 53.5186 62.0971C53.444 61.4478 53.8044 61.2303 54.4103 61.252C55.1063 61.2738 55.8054 61.2769 56.5045 61.252C57.1228 61.2303 57.4522 61.4757 57.3776 62.1127C57.2875 62.905 57.6324 63.2095 58.403 63.1132C59.1052 63.0262 59.2792 63.3928 59.2698 64.036C59.2419 65.9468 59.2605 67.8608 59.2605 69.7717C59.2698 69.7717 59.2792 69.7717 59.2885 69.7717V69.7686Z" fill="white"/>
</svg>
