<svg width="128" height="128" viewBox="0 0 128 128" fill="none" xmlns="http://www.w3.org/2000/svg">
<rect width="128" height="128" fill="white"/>
<path fill-rule="evenodd" clip-rule="evenodd" d="M64.9832 59.8583H66.5341C67.0404 59.8583 67.4672 59.8146 67.8121 59.7286C68.1583 59.6414 68.435 59.4968 68.6459 59.2961C68.8556 59.0967 69.007 58.8336 69.0988 58.5096C69.1906 58.1855 69.2365 57.7828 69.2365 57.3042C69.2365 56.8717 69.1944 56.5014 69.11 56.1923C69.0256 55.8844 68.868 55.6301 68.6385 55.4295C68.409 55.2288 68.0926 55.0804 67.6893 54.987C67.286 54.8922 66.7637 54.8449 66.121 54.8449H64.9832V59.8583ZM64.9832 54.2116H65.8368C66.4125 54.2116 66.8964 54.1717 67.2873 54.0932C67.6794 54.0134 67.9933 53.8788 68.229 53.6893C68.466 53.4999 68.6348 53.2481 68.7365 52.934C68.837 52.6198 68.8879 52.2284 68.8879 51.7598C68.8879 51.4008 68.8544 51.0891 68.7874 50.8224C68.7204 50.5569 68.5938 50.335 68.4114 50.158C68.2266 49.981 67.9722 49.8501 67.6459 49.7629C67.3195 49.6756 66.8964 49.632 66.3741 49.632H64.9832V54.2116ZM68.1347 54.4721C68.6186 54.5519 69.0305 54.6741 69.3705 54.8398C69.7117 55.0056 69.9884 55.2101 70.2043 55.4531C70.419 55.6962 70.5753 55.9692 70.6709 56.2758C70.7676 56.5812 70.816 56.9115 70.816 57.2643C70.816 57.6756 70.7478 58.0745 70.6138 58.4622C70.4785 58.8498 70.249 59.1939 69.9239 59.4943C69.6013 59.7947 69.1732 60.0365 68.6422 60.2185C68.1111 60.4005 67.4461 60.4915 66.6495 60.4915H62.1207V59.8582H63.5699V49.632H62.1207V49H66.4683C67.2029 49 67.8233 49.0673 68.3308 49.2057C68.837 49.3415 69.2489 49.5323 69.5616 49.7741C69.8768 50.0171 70.1026 50.3013 70.2403 50.6292C70.378 50.9558 70.4463 51.3085 70.4463 51.6887C70.4463 51.9941 70.4029 52.2883 70.316 52.57C70.2304 52.8517 70.0927 53.1147 69.9078 53.3578C69.7204 53.5996 69.4822 53.8127 69.1894 53.9972C68.8965 54.1829 68.5454 54.33 68.1347 54.441V54.4721Z" fill="#347537"/>
<path fill-rule="evenodd" clip-rule="evenodd" d="M75.9175 54.3853H74.8665V53.7521H77.2228V59.8587H78.3097V60.4907H75.9175V59.4785H75.8889C75.6768 59.8999 75.4125 60.2115 75.0986 60.4122C74.7847 60.6129 74.3789 60.7126 73.8814 60.7126C73.1903 60.7126 72.6778 60.5293 72.3416 60.1629C72.0066 59.7964 71.8378 59.2629 71.8378 58.5611V54.3853H70.7869V53.7521H73.1431V58.7992C73.1431 59.2255 73.2324 59.5321 73.4136 59.7204C73.5947 59.9073 73.8553 60.0008 74.1928 60.0008C74.4298 60.0008 74.6519 59.9522 74.8628 59.855C75.0725 59.7565 75.2574 59.597 75.4137 59.3751C75.5713 59.1544 75.6941 58.864 75.7835 58.5063C75.8728 58.1473 75.9175 57.7073 75.9175 57.185V54.3853Z" fill="#347537"/>
<path fill-rule="evenodd" clip-rule="evenodd" d="M83.0217 55.991C82.9969 55.6482 82.946 55.3577 82.8666 55.1209C82.7872 54.8841 82.6792 54.6909 82.544 54.5438C82.4087 54.3954 82.245 54.2895 82.0551 54.2234C81.864 54.1574 81.6457 54.1237 81.3988 54.1237C81.2102 54.1237 81.0364 54.1449 80.8764 54.1835C80.7188 54.2234 80.5798 54.2833 80.4632 54.3655C80.3491 54.4478 80.2572 54.5537 80.1927 54.6859C80.127 54.818 80.0947 54.9763 80.0947 55.1595C80.0947 55.3453 80.1245 55.4973 80.1853 55.6158C80.2461 55.7329 80.3453 55.8389 80.4818 55.9311C80.6195 56.0234 80.7957 56.1119 81.0116 56.1966C81.2263 56.2801 81.4906 56.3811 81.8057 56.497C82.0564 56.5918 82.3045 56.6915 82.5514 56.7974C82.7971 56.9034 83.018 57.0343 83.214 57.1926C83.4088 57.3509 83.5676 57.5429 83.6892 57.766C83.8096 57.9903 83.8704 58.2633 83.8704 58.5849C83.8704 58.9489 83.7947 59.2643 83.6458 59.5335C83.4957 59.8028 83.2984 60.0246 83.0502 60.1979C82.8046 60.3724 82.5254 60.502 82.2115 60.5868C81.8963 60.6703 81.5749 60.7127 81.2461 60.7127C81.0737 60.7127 80.8876 60.7015 80.6927 60.6803C80.4967 60.6603 80.3044 60.6304 80.1121 60.5943C79.9222 60.5569 79.7398 60.5133 79.5698 60.4634C79.3974 60.4135 79.2472 60.3612 79.117 60.3088L79.0661 58.0153H79.5661C79.5897 58.4166 79.6418 58.752 79.7212 59.0237C79.8006 59.2954 79.9123 59.5136 80.0537 59.6769C80.1977 59.8401 80.3714 59.9561 80.5761 60.0246C80.7808 60.0932 81.0228 60.1268 81.297 60.1268C81.5042 60.1268 81.6978 60.1069 81.874 60.0683C82.0502 60.0284 82.204 59.9648 82.3331 59.8788C82.4646 59.7915 82.5676 59.6769 82.6408 59.5335C82.7165 59.3914 82.7537 59.2206 82.7537 59.02C82.7537 58.8467 82.7251 58.7021 82.6668 58.5887C82.6097 58.4752 82.5179 58.3743 82.3914 58.2845C82.2661 58.1948 82.1048 58.11 81.9062 58.0315C81.7077 57.9517 81.472 57.8607 81.1953 57.7548C80.9211 57.6488 80.6568 57.5404 80.4024 57.4257C80.1493 57.3135 79.9259 57.1764 79.7324 57.0156C79.5388 56.8535 79.3837 56.6603 79.2696 56.4335C79.1529 56.2066 79.0946 55.9299 79.0946 55.6033C79.0946 55.2443 79.1629 54.9352 79.2969 54.6734C79.4321 54.4129 79.6133 54.1985 79.8379 54.029C80.0612 53.8607 80.3205 53.736 80.6133 53.6575C80.9049 53.579 81.2077 53.5391 81.5228 53.5391C81.6816 53.5391 81.8492 53.5491 82.0216 53.5665C82.1966 53.5852 82.369 53.6101 82.5403 53.6413C82.7115 53.6737 82.8765 53.7086 83.0329 53.7485C83.1904 53.7884 83.3344 53.827 83.4634 53.8632L83.5143 55.991H83.0217Z" fill="#347537"/>
<path fill-rule="evenodd" clip-rule="evenodd" d="M86.5841 51.5223C86.4575 51.5223 86.3446 51.4998 86.2404 51.4549C86.1362 51.4101 86.0443 51.3452 85.9649 51.2617C85.8855 51.177 85.8235 51.0785 85.7801 50.9651C85.7354 50.8516 85.7143 50.7232 85.7143 50.5811C85.7143 50.444 85.7366 50.3181 85.7825 50.201C85.8297 50.0863 85.8905 49.9853 85.9687 49.9006C86.0456 49.817 86.1374 49.751 86.2441 49.7036C86.3508 49.655 86.4625 49.6313 86.5841 49.6313C86.7057 49.6313 86.8174 49.6538 86.9241 49.6999C87.0308 49.7447 87.1251 49.8083 87.2045 49.8931C87.2826 49.9778 87.3447 50.0763 87.3881 50.1897C87.4328 50.3032 87.4539 50.4316 87.4539 50.5737C87.4539 50.7158 87.4315 50.8454 87.3856 50.9601C87.3385 51.0773 87.2777 51.1757 87.1995 51.258C87.1238 51.339 87.0308 51.4038 86.9241 51.4512C86.8174 51.4986 86.7057 51.5223 86.5841 51.5223ZM87.2355 59.8576H88.3236V60.4908H84.8457V59.8576H85.9327V54.3855H84.8457V53.7523H87.2355V59.8576Z" fill="#347537"/>
<path fill-rule="evenodd" clip-rule="evenodd" d="M90.848 59.8583H91.827V60.4915H88.457V59.8583H89.544V54.3849H88.457V53.7529H90.848V54.8997H90.8766C91.0763 54.4622 91.3406 54.1256 91.6744 53.8913C92.0081 53.6557 92.4375 53.5398 92.9648 53.5398C93.6261 53.5398 94.1187 53.7255 94.4426 54.097C94.7664 54.4684 94.9277 54.9994 94.9277 55.69V59.8583H95.9786V60.4915H92.6447V59.8583H93.6236V55.4694C93.6236 55.053 93.5343 54.7451 93.3556 54.547C93.177 54.35 92.9263 54.2503 92.6025 54.2503C92.3556 54.2503 92.126 54.3076 91.9126 54.4211C91.7004 54.5345 91.5156 54.7102 91.3592 54.9471C91.2016 55.1839 91.0788 55.4881 90.9857 55.857C90.8939 56.2247 90.848 56.6635 90.848 57.1696V59.8583Z" fill="#347537"/>
<path fill-rule="evenodd" clip-rule="evenodd" d="M100.946 56.2363C100.931 55.7988 100.889 55.4435 100.819 55.1718C100.749 54.9013 100.656 54.6881 100.541 54.5361C100.424 54.3828 100.287 54.2793 100.131 54.2232C99.9735 54.1684 99.8011 54.1397 99.6125 54.1397C99.4152 54.1397 99.2291 54.1721 99.0591 54.2357C98.8866 54.298 98.734 54.4089 98.5975 54.5672C98.4623 54.7255 98.3506 54.9387 98.2613 55.2079C98.1719 55.4772 98.1099 55.82 98.0764 56.2363H100.946ZM102.316 58.3479C102.161 59.112 101.861 59.6978 101.417 60.1042C100.972 60.5093 100.395 60.7125 99.6844 60.7125C99.1968 60.7125 98.7613 60.619 98.3816 60.432C97.9995 60.245 97.6744 59.9907 97.4089 59.6679C97.1446 59.3476 96.9398 58.9711 96.8009 58.5411C96.6607 58.111 96.59 57.6548 96.59 57.1699C96.59 56.6738 96.6632 56.2051 96.8083 55.7614C96.9523 55.3189 97.1595 54.9337 97.4275 54.6071C97.6955 54.2805 98.0169 54.02 98.3903 53.8281C98.765 53.6361 99.1844 53.5389 99.6485 53.5389C100.074 53.5389 100.455 53.6211 100.794 53.7844C101.131 53.9477 101.419 54.1758 101.656 54.4688C101.893 54.7604 102.075 55.1107 102.203 55.5158C102.331 55.9222 102.401 56.3672 102.41 56.8533H98.0392C98.0342 56.9431 98.0317 57.0016 98.0317 57.0316V57.0827C98.0317 57.7047 98.0752 58.2107 98.1595 58.6009C98.2439 58.9911 98.363 59.2952 98.5144 59.5146C98.667 59.7327 98.8482 59.8823 99.0591 59.9608C99.2676 60.0406 99.5008 60.0792 99.7577 60.0792C99.9934 60.0792 100.218 60.0456 100.428 59.977C100.637 59.9085 100.827 59.7988 100.996 59.6492C101.166 59.4984 101.315 59.3027 101.441 59.0634C101.57 58.824 101.673 58.5348 101.749 58.197C101.847 58.2083 101.944 58.227 102.041 58.2531C102.136 58.2793 102.228 58.3117 102.316 58.3479Z" fill="#347537"/>
<path fill-rule="evenodd" clip-rule="evenodd" d="M108.311 55.991C108.286 55.6482 108.234 55.3577 108.155 55.1209C108.076 54.8841 107.968 54.6909 107.832 54.5438C107.698 54.3954 107.534 54.2895 107.344 54.2234C107.152 54.1574 106.935 54.1237 106.687 54.1237C106.499 54.1237 106.324 54.1449 106.166 54.1835C106.007 54.2234 105.868 54.2833 105.752 54.3655C105.637 54.4478 105.545 54.5537 105.482 54.6859C105.416 54.818 105.384 54.9763 105.384 55.1595C105.384 55.3453 105.414 55.4973 105.475 55.6158C105.534 55.7329 105.633 55.8389 105.771 55.9311C105.908 56.0234 106.085 56.1119 106.3 56.1966C106.516 56.2801 106.78 56.3811 107.094 56.497C107.344 56.5918 107.594 56.6915 107.839 56.7974C108.086 56.9034 108.307 57.0343 108.502 57.1926C108.698 57.3509 108.856 57.5429 108.977 57.766C109.099 57.9903 109.16 58.2633 109.16 58.5849C109.16 58.9489 109.084 59.2643 108.934 59.5335C108.785 59.8028 108.586 60.0246 108.339 60.1979C108.094 60.3724 107.813 60.502 107.499 60.5868C107.186 60.6703 106.864 60.7127 106.535 60.7127C106.362 60.7127 106.177 60.7015 105.981 60.6803C105.786 60.6603 105.592 60.6304 105.401 60.5943C105.21 60.5569 105.029 60.5133 104.858 60.4634C104.687 60.4135 104.535 60.3612 104.405 60.3088L104.355 58.0153H104.854C104.878 58.4166 104.93 58.752 105.01 59.0237C105.09 59.2954 105.2 59.5136 105.343 59.6769C105.486 59.8401 105.659 59.9561 105.865 60.0246C106.07 60.0932 106.311 60.1268 106.586 60.1268C106.793 60.1268 106.986 60.1069 107.162 60.0683C107.339 60.0284 107.492 59.9648 107.622 59.8788C107.753 59.7915 107.856 59.6769 107.93 59.5335C108.006 59.3914 108.043 59.2206 108.043 59.02C108.043 58.8467 108.014 58.7021 107.956 58.5887C107.898 58.4752 107.806 58.3743 107.681 58.2845C107.555 58.1948 107.393 58.11 107.195 58.0315C106.996 57.9517 106.76 57.8607 106.485 57.7548C106.21 57.6488 105.945 57.5404 105.692 57.4257C105.439 57.3135 105.214 57.1764 105.022 57.0156C104.827 56.8535 104.673 56.6603 104.558 56.4335C104.441 56.2066 104.383 55.9299 104.383 55.6033C104.383 55.2443 104.451 54.9352 104.586 54.6734C104.721 54.4129 104.901 54.1985 105.127 54.029C105.35 53.8607 105.609 53.736 105.901 53.6575C106.194 53.579 106.497 53.5391 106.811 53.5391C106.971 53.5391 107.137 53.5491 107.311 53.5665C107.485 53.5852 107.658 53.6101 107.828 53.6413C108.001 53.6737 108.165 53.7086 108.322 53.7485C108.478 53.7884 108.622 53.827 108.753 53.8632L108.804 55.991H108.311Z" fill="#347537"/>
<path fill-rule="evenodd" clip-rule="evenodd" d="M114.153 55.991C114.128 55.6482 114.076 55.3577 113.996 55.1209C113.917 54.8841 113.81 54.6909 113.674 54.5438C113.538 54.3954 113.376 54.2895 113.185 54.2234C112.994 54.1574 112.775 54.1237 112.528 54.1237C112.341 54.1237 112.166 54.1449 112.007 54.1835C111.848 54.2234 111.709 54.2833 111.594 54.3655C111.479 54.4478 111.387 54.5537 111.322 54.6859C111.258 54.818 111.226 54.9763 111.226 55.1595C111.226 55.3453 111.254 55.4973 111.315 55.6158C111.376 55.7329 111.475 55.8389 111.613 55.9311C111.749 56.0234 111.927 56.1119 112.141 56.1966C112.356 56.2801 112.621 56.3811 112.935 56.497C113.186 56.5918 113.435 56.6915 113.681 56.7974C113.927 56.9034 114.149 57.0343 114.344 57.1926C114.54 57.3509 114.697 57.5429 114.819 57.766C114.94 57.9903 115 58.2633 115 58.5849C115 58.9489 114.926 59.2643 114.775 59.5335C114.625 59.8028 114.428 60.0246 114.181 60.1979C113.934 60.3724 113.655 60.502 113.341 60.5868C113.027 60.6703 112.706 60.7127 112.376 60.7127C112.203 60.7127 112.018 60.7015 111.822 60.6803C111.628 60.6603 111.434 60.6304 111.243 60.5943C111.052 60.5569 110.871 60.5133 110.699 60.4634C110.527 60.4135 110.377 60.3612 110.247 60.3088L110.196 58.0153H110.696C110.719 58.4166 110.771 58.752 110.852 59.0237C110.93 59.2954 111.042 59.5136 111.185 59.6769C111.327 59.8401 111.501 59.9561 111.706 60.0246C111.912 60.0932 112.152 60.1268 112.427 60.1268C112.635 60.1268 112.827 60.1069 113.004 60.0683C113.18 60.0284 113.334 59.9648 113.464 59.8788C113.594 59.7915 113.697 59.6769 113.772 59.5335C113.847 59.3914 113.883 59.2206 113.883 59.02C113.883 58.8467 113.856 58.7021 113.798 58.5887C113.739 58.4752 113.648 58.3743 113.521 58.2845C113.397 58.1948 113.234 58.11 113.037 58.0315C112.837 57.9517 112.602 57.8607 112.326 57.7548C112.051 57.6488 111.786 57.5404 111.533 57.4257C111.279 57.3135 111.056 57.1764 110.863 57.0156C110.668 56.8535 110.515 56.6603 110.399 56.4335C110.283 56.2066 110.224 55.9299 110.224 55.6033C110.224 55.2443 110.292 54.9352 110.428 54.6734C110.562 54.4129 110.743 54.1985 110.967 54.029C111.192 53.8607 111.45 53.736 111.743 53.6575C112.035 53.579 112.339 53.5391 112.652 53.5391C112.811 53.5391 112.979 53.5491 113.151 53.5665C113.326 53.5852 113.5 53.6101 113.67 53.6413C113.842 53.6737 114.006 53.7086 114.164 53.7485C114.32 53.7884 114.464 53.827 114.594 53.8632L114.644 55.991H114.153Z" fill="#347537"/>
<path fill-rule="evenodd" clip-rule="evenodd" d="M27.4527 78.6471H26.3906L14.9147 60.7723L14.8477 60.786V77.3806H17.2361V78.4477H11V77.3806H13.6528V60.1466H11V59.0796H16.9309L26.1921 73.5015L26.2591 73.4878V60.1466H23.6038V59.0796H30.1067V60.1466H27.4527V78.6471Z" fill="#347537"/>
<path fill-rule="evenodd" clip-rule="evenodd" d="M60.0946 63.4438C59.8638 63.4438 59.6554 63.4064 59.4643 63.3304C59.2744 63.2556 59.1069 63.1459 58.9605 63.0038C58.8141 62.8617 58.7012 62.6946 58.6218 62.5039C58.5424 62.3132 58.5027 62.0976 58.5027 61.8582C58.5027 61.6264 58.5436 61.4132 58.628 61.2175C58.7124 61.0218 58.8253 60.8536 58.9667 60.7115C59.1082 60.5694 59.2769 60.4572 59.4717 60.3787C59.6653 60.2976 59.8737 60.2577 60.0946 60.2577C60.3155 60.2577 60.5239 60.2964 60.7175 60.3712C60.9123 60.4472 61.0835 60.5557 61.2299 60.6978C61.3751 60.8399 61.488 61.0069 61.5674 61.1976C61.6468 61.3896 61.6865 61.604 61.6865 61.8445C61.6865 62.0839 61.6456 62.302 61.5612 62.4977C61.4768 62.6922 61.3639 62.8592 61.2225 62.9975C61.081 63.1347 60.9123 63.2431 60.7175 63.3241C60.5239 63.4039 60.3155 63.4438 60.0946 63.4438ZM61.2882 77.493H63.2784V78.5588H56.9107V77.493H58.901V68.269H56.9107V67.202H61.2882V77.493Z" fill="#347537"/>
<path fill-rule="evenodd" clip-rule="evenodd" d="M82.4534 72.781C81.4894 72.8071 80.7102 72.8807 80.1171 73.0016C79.5252 73.1213 79.0661 73.2895 78.7386 73.5077C78.4098 73.7258 78.1889 73.9901 78.0747 74.3017C77.9593 74.6121 77.9023 74.9673 77.9023 75.3674C77.9023 76.0605 78.045 76.5778 78.3341 76.9193C78.6207 77.2621 79.0165 77.4329 79.5215 77.4329C79.7945 77.4329 80.1022 77.3768 80.4434 77.2609C80.7834 77.1449 81.1035 76.9567 81.405 76.6937C81.7053 76.4319 81.9559 76.0867 82.1544 75.6616C82.3542 75.2341 82.4534 74.7055 82.4534 74.0748V72.781ZM78.7844 66.7965C79.3887 66.6145 80.0625 66.5198 80.8479 66.5572C81.4844 66.5871 82.0489 66.6195 82.539 66.7429C83.0304 66.8676 83.4461 67.0745 83.786 67.3624C84.1272 67.6516 84.3841 68.0355 84.5553 68.5154C84.729 68.9966 84.8146 69.5912 84.8146 70.3029C84.8146 70.4799 84.8121 70.7716 84.8072 71.1755C84.8047 71.5793 84.7973 72.0268 84.7886 72.5142C84.7799 73.0041 84.7724 73.4989 84.7675 74.0013C84.7638 74.5036 84.7613 74.9449 84.7613 75.3276C84.7613 75.7177 84.77 76.0443 84.7886 76.3073C84.8059 76.5691 84.8506 76.7785 84.9201 76.933C84.9921 77.0889 85.0975 77.1998 85.239 77.2671C85.3804 77.3332 85.5802 77.3668 85.837 77.3668C86.0566 77.3668 86.3495 77.3394 86.713 77.2871V78.273C86.3408 78.3441 85.9946 78.389 85.6782 78.4064C85.3593 78.4239 85.1075 78.4326 84.9201 78.4326C84.4511 78.4326 84.0652 78.3952 83.76 78.3191C83.4547 78.2444 83.2128 78.1359 83.0366 77.9938C82.8592 77.8505 82.7326 77.6785 82.6519 77.474C82.5725 77.2696 82.5242 77.0427 82.5055 76.7934H82.4398C82.1916 77.14 81.9261 77.4329 81.6444 77.6735C81.3603 77.9128 81.065 78.1048 80.7548 78.2469C80.4446 78.389 80.1295 78.4912 79.8056 78.5535C79.483 78.6158 79.1579 78.6457 78.8304 78.6457C78.2919 78.6457 77.8092 78.5722 77.3849 78.4263C76.9593 78.2793 76.6019 78.0736 76.3103 77.8068C76.0175 77.5401 75.7967 77.2222 75.6465 76.8545C75.4964 76.4855 75.4207 76.0792 75.4207 75.6342C75.4207 74.3989 76.0237 73.4591 77.2322 72.8146C78.4395 72.1714 80.1791 71.8261 82.4534 71.7813C82.4621 71.3824 82.4683 71.0222 82.4733 70.7018C82.4782 70.3815 82.4795 70.0661 82.4795 69.7557C82.4795 68.9467 82.3145 68.3808 81.9819 68.0567C81.6506 67.7314 81.127 67.5694 80.4099 67.5694C80.4099 67.5694 78.4507 67.4671 78.1914 69.9925L75.7768 70.0424C75.7768 70.0424 76.2421 67.5631 78.7844 66.7965Z" fill="#347537"/>
<path fill-rule="evenodd" clip-rule="evenodd" d="M86.8725 65.3403C88.2845 65.4737 88.2584 64.0714 88.2584 64.0714L89.2647 64.0465V67.0331H92.714V68.0988H89.2647V75.6962C89.2647 76.0615 89.2969 76.3581 89.3639 76.59C89.4309 76.8206 89.5252 77.0026 89.6481 77.1359C89.6481 77.1359 89.7449 78.0546 91.6768 77.3329L91.7512 77.9798C91.7512 77.9798 89.9943 78.8985 88.7795 78.5769C88.3726 78.4684 88.0351 78.254 87.7509 77.9823C87.468 77.7118 87.2521 77.3653 87.102 76.9427C86.9506 76.5214 86.8762 76.0079 86.8762 75.4033V68.0988H84.8847V67.0331H86.8762" fill="#347537"/>
<path fill-rule="evenodd" clip-rule="evenodd" d="M95.0842 72.7068C95.0842 73.6741 95.1512 74.4793 95.2827 75.12C95.4167 75.7582 95.6103 76.2693 95.8671 76.652C96.1239 77.0346 96.4465 77.3039 96.8349 77.4585C97.2245 77.6143 97.6799 77.6915 98.2022 77.6915C98.7147 77.6915 99.1713 77.6118 99.5683 77.4522C99.9679 77.2914 100.298 77.0184 100.563 76.6308C100.829 76.2456 101.03 75.7258 101.168 75.0714C101.305 74.4195 101.372 73.5993 101.372 72.6133C101.372 71.6435 101.308 70.8408 101.174 70.2001C101.042 69.5606 100.848 69.0496 100.589 68.6681C100.333 68.2855 100.009 68.0162 99.6143 67.8604C99.2209 67.7046 98.768 67.6286 98.2556 67.6286C97.7332 67.6286 97.2754 67.7071 96.882 67.8679C96.4887 68.0274 96.1587 68.3017 95.8932 68.6868C95.6276 69.0745 95.4266 69.5943 95.2901 70.2462C95.1524 70.9006 95.0842 71.7196 95.0842 72.7068ZM92.4575 72.7591C92.4575 71.9239 92.5865 71.1324 92.8483 70.387C93.1089 69.6404 93.4923 68.9872 93.996 68.4275C94.4998 67.8678 95.1164 67.4266 95.846 67.1012C96.5768 66.7772 97.4057 66.6139 98.335 66.6139C99.2544 66.6139 100.068 66.7722 100.777 67.0875C101.483 67.4029 102.077 67.8329 102.555 68.3739C103.031 68.9161 103.391 69.5469 103.636 70.2673C103.879 70.9866 104 71.7507 104 72.5597C104 73.3948 103.87 74.1863 103.608 74.9317C103.348 75.6784 102.966 76.3316 102.461 76.8912C101.957 77.4522 101.34 77.8934 100.611 78.2175C99.8798 78.5429 99.0509 78.7049 98.1216 78.7049C97.2022 78.7049 96.3895 78.5466 95.681 78.2312C94.9738 77.9159 94.3807 77.4871 93.903 76.9448C93.4253 76.4039 93.0654 75.7719 92.8222 75.0527C92.5778 74.3322 92.4575 73.5681 92.4575 72.7591Z" fill="#347537"/>
<path fill-rule="evenodd" clip-rule="evenodd" d="M110.601 68.8309C110.343 69.1388 110.046 69.4417 109.826 69.8505C109.604 70.2594 109.432 70.7318 109.307 71.2703C109.183 71.8088 109.122 72.4058 109.122 73.064V77.5551H111.245V78.6209H104.743V77.5551H106.734V68.331H104.743V67.264H109.122V69.3307H109.175C109.334 68.9842 109.532 68.6664 109.765 68.3784C110.001 68.0892 110.259 67.8374 110.542 67.6243C110.627 67.5607 110.713 67.5021 110.8 67.4473C111.207 67.1917 111.695 67.0933 112.171 67.1618C112.869 67.2616 113.877 67.6131 114.271 68.7785C114.348 69.0054 114.388 69.2422 114.402 69.4803L114.461 70.4152L112.506 70.4663L112.486 69.0416C112.481 68.7573 112.362 68.4819 112.14 68.3049C111.834 68.0643 111.324 67.9683 110.601 68.8309Z" fill="#347537"/>
<path fill-rule="evenodd" clip-rule="evenodd" d="M37.7079 72.731C36.7438 72.7572 35.9658 72.832 35.3727 72.9517C34.7809 73.0713 34.3206 73.2396 33.993 73.4577C33.6654 73.6759 33.4446 73.9401 33.3292 74.2517C33.2138 74.5621 33.158 74.9174 33.158 75.3175C33.158 76.0106 33.3006 76.5291 33.5885 76.8694C33.8764 77.2134 34.2709 77.383 34.7759 77.383C35.0501 77.383 35.3566 77.3269 35.6978 77.2109C36.0378 77.095 36.3592 76.9068 36.6594 76.6438C36.9597 76.382 37.2103 76.0367 37.4101 75.6117C37.6086 75.1841 37.7079 74.6556 37.7079 74.0249V72.731ZM34.0389 66.7466C34.6431 66.5646 35.3169 66.4699 36.1023 66.5073C36.7388 66.5372 37.3034 66.5696 37.7947 66.693C38.2848 66.8177 38.7005 67.0246 39.0417 67.3125C39.3817 67.603 39.6385 67.9856 39.811 68.4655C39.9834 68.9467 40.0703 69.5413 40.0703 70.253C40.0703 70.43 40.0678 70.7217 40.0628 71.1256C40.0591 71.5294 40.0517 71.9769 40.043 72.4643C40.0343 72.9542 40.0281 73.449 40.0231 73.9514C40.0182 74.4537 40.0169 74.895 40.0169 75.2776C40.0169 75.6678 40.0256 75.9956 40.043 76.2574C40.0604 76.5192 40.105 76.7286 40.1758 76.8844C40.2465 77.0389 40.3532 77.1511 40.4946 77.2172C40.6361 77.2833 40.8346 77.3169 41.0915 77.3169C41.3123 77.3169 41.6051 77.2895 41.9674 77.2371V78.2231C41.5952 78.2942 41.2503 78.339 40.9326 78.3565C40.6138 78.3739 40.3619 78.3827 40.1758 78.3827C39.7067 78.3827 39.3196 78.3453 39.0156 78.2692C38.7104 78.1944 38.4684 78.086 38.2923 77.9439C38.1148 77.8006 37.987 77.6285 37.9076 77.4241C37.827 77.2197 37.7786 76.9928 37.7612 76.7448H37.6942C37.4473 77.09 37.1818 77.383 36.8989 77.6236C36.616 77.8629 36.3194 78.0548 36.0092 78.1969C35.7003 78.339 35.3839 78.4413 35.0613 78.5036C34.7374 78.5659 34.4136 78.5971 34.086 78.5971C33.5463 78.5971 33.0636 78.5223 32.6393 78.3764C32.2149 78.2293 31.8563 78.0237 31.5648 77.7569C31.2732 77.4902 31.0523 77.1723 30.9009 76.8046C30.7508 76.4356 30.6764 76.0293 30.6764 75.5843C30.6764 74.349 31.2794 73.4091 32.4867 72.7647C33.6939 72.1215 35.4347 71.7762 37.7079 71.7314C37.7165 71.3325 37.724 70.9722 37.7277 70.6519C37.7327 70.3315 37.7339 70.0162 37.7339 69.7058C37.7339 68.8981 37.5689 68.3309 37.2376 68.0068C36.9051 67.6815 36.3815 67.5194 35.6655 67.5194C35.6655 67.5194 33.7063 67.4172 33.4458 69.9439L31.0325 69.9925C31.0325 69.9925 31.4978 67.5132 34.0389 66.7466Z" fill="#347537"/>
<path fill-rule="evenodd" clip-rule="evenodd" d="M70.7059 71.8108C70.634 72.2583 70.5161 72.6248 70.3474 72.9102C70.1786 73.1944 69.9515 73.3988 69.6637 73.5235C69.3771 73.6481 69.016 73.7092 68.583 73.7092C68.1574 73.7092 67.8062 73.6506 67.5271 73.5297C67.2491 73.41 67.0258 73.2119 66.857 72.9364C66.6908 72.6622 66.5729 72.3044 66.5059 71.8631C66.4401 71.4231 66.4066 70.8846 66.4066 70.2439C66.4066 69.5958 66.4414 69.0436 66.5133 68.5911C66.5841 68.1386 66.7044 67.7721 66.8781 67.4917C67.0506 67.2125 67.2777 67.0093 67.5618 66.8846C67.8435 66.76 68.202 66.6977 68.6363 66.6977C69.0693 66.6977 69.4255 66.76 69.7034 66.8846C69.9826 67.0093 70.2047 67.2075 70.3684 67.478C70.531 67.7497 70.6464 68.1037 70.7121 68.545C70.7791 68.9837 70.8114 69.5197 70.8114 70.1505C70.8114 70.8086 70.7767 71.3621 70.7059 71.8108ZM74.7769 66.9071L74.8762 65.9448L70.2928 65.9759C70.2158 65.9523 70.1389 65.9298 70.0595 65.9111C69.6426 65.8052 69.1847 65.7516 68.6884 65.7516C67.9378 65.7516 67.2677 65.8725 66.6784 66.1118C66.0902 66.3511 65.5952 66.679 65.1932 67.0916C64.7899 67.5054 64.4822 67.9853 64.27 68.5313C64.0591 69.0785 63.9524 69.6569 63.9524 70.2714C63.9524 70.8572 64.0492 71.4107 64.244 71.9305C64.4388 72.4503 64.7217 72.9102 65.0939 73.3103C64.6162 73.8438 64.27 74.3674 64.0591 74.8834C63.8457 75.3982 63.7402 75.8956 63.7402 76.3755C63.7402 76.722 63.7998 77.0461 63.9189 77.3477C64.038 77.6519 64.2216 77.9137 64.4698 78.1343C64.7167 78.3574 65.0244 78.5307 65.3917 78.6553C65.7589 78.78 66.1945 78.8423 66.6995 78.8423C66.8049 78.8423 66.991 78.8398 67.2566 78.8348C67.5221 78.8311 67.8224 78.8236 68.1574 78.8149C68.4949 78.8062 68.8435 78.7987 69.2071 78.7949C69.5694 78.7912 69.8969 78.7887 70.1885 78.7887C70.5955 78.7887 70.969 78.8124 71.309 78.861C71.6502 78.9096 71.9442 79.0019 72.1911 79.1352C72.4393 79.2674 72.6316 79.4556 72.7693 79.6949C72.9058 79.9355 72.9741 80.2459 72.9741 80.6273C72.9741 81.0985 72.8723 81.5347 72.6701 81.9336C72.4654 82.3337 72.17 82.6853 71.7804 82.9869C71.3908 83.2886 70.9156 83.5241 70.3548 83.6937C69.7927 83.8619 69.1537 83.9467 68.4366 83.9467C67.9154 83.9467 67.4352 83.8993 66.9972 83.8071C66.5828 83.7186 66.223 83.5865 65.9153 83.4145C65.486 83.1028 65.0207 82.6179 64.8631 81.9261C64.8581 81.8675 64.8544 81.809 64.8544 81.7479H64.8308C64.8209 81.6856 64.8135 81.6207 64.811 81.5547C64.7179 79.8894 65.4562 79.9629 65.4562 79.9629L66.1002 79.9828V79.1489L62.6917 79.1863L62.6483 81.0723C62.6384 81.5746 62.7575 82.0745 63.0119 82.5082C63.3469 83.0791 63.9549 83.8146 65.0095 84.3194C65.3371 84.4839 65.7068 84.6248 66.1225 84.7395C66.7454 84.914 67.4638 85 68.2777 85C69.2071 85 70.062 84.8816 70.8449 84.6472C71.6278 84.4104 72.3041 84.0714 72.8748 83.6264C73.4456 83.1826 73.8898 82.6441 74.2086 82.0146C74.5275 81.3839 74.6863 80.6722 74.6863 79.8819C74.6863 79.2325 74.5796 78.6915 74.3675 78.2552C74.1553 77.8189 73.8612 77.4687 73.4853 77.2019C73.1093 76.9352 72.6577 76.7469 72.1316 76.636C71.6067 76.5238 71.0285 76.469 70.4007 76.469C70.2059 76.469 69.9292 76.4715 69.5719 76.4752C69.2133 76.4802 68.8485 76.4852 68.4763 76.4889C68.1053 76.4939 67.7665 76.4989 67.4625 76.5026C67.1573 76.5076 66.9563 76.5101 66.857 76.5101C66.2478 76.5101 65.8173 76.4154 65.5642 76.2296C65.3123 76.0427 65.187 75.8071 65.187 75.5229C65.187 75.2923 65.2465 75.0455 65.3644 74.7837C65.4847 74.5207 65.6547 74.2427 65.8756 73.9498C66.2304 74.1729 66.6275 74.3449 67.0705 74.4696C67.5122 74.593 67.9986 74.6553 68.5296 74.6553C69.2815 74.6553 69.9503 74.5369 70.5335 74.2963C71.1166 74.057 71.6117 73.7292 72.0199 73.3166C72.4269 72.904 72.7358 72.4216 72.948 71.8706C73.1614 71.3184 73.2657 70.7376 73.2657 70.123C73.2657 69.6357 73.1987 69.1695 73.0609 68.7245C72.9232 68.2807 72.7222 67.8719 72.4567 67.4979L71.9256 66.8984C71.8574 66.8348 71.7842 66.775 71.711 66.7164C72.1849 66.5917 73.0833 66.5568 74.7769 66.9071Z" fill="#347537"/>
<path fill-rule="evenodd" clip-rule="evenodd" d="M48.4517 82L43.4616 69.55H41.3549V68.2834H48.2249V69.55H46.2463L49.7522 78.3418H49.8089L53.3 69.55H51.3215V68.2834H56.552V69.55H54.4871L49.5821 82H48.4517Z" fill="#DA6632"/>
<path fill-rule="evenodd" clip-rule="evenodd" d="M57.0422 56.0713C56.4271 58.9454 54.1626 61.2136 51.2755 61.8573L49.5559 64.6494L48.0076 61.8756C45.1513 61.2734 42.8893 59.0846 42.2026 56.2851L42.2002 56.2839L48.3589 54.4957L42.1915 52.6855L42.2125 52.6709C42.9041 49.9227 45.1168 47.7705 47.9151 47.1451L49.5078 44.3896L51.4 47.172C54.1688 47.8389 56.3445 50.0057 57.0028 52.7539L59.6939 54.4591L57.0422 56.0713ZM39.4438 54.4103L42.1656 52.7015L42.194 56.2791L39.4438 54.4103ZM49.5978 44C43.7448 44 39 48.7001 39 54.4994C39 60.2987 43.7448 65 49.5978 65C55.4496 65 60.1943 60.2987 60.1943 54.4994C60.1943 48.7001 55.4496 44 49.5978 44Z" fill="#DA6632"/>
<path fill-rule="evenodd" clip-rule="evenodd" d="M47.993 61.8714L51.2745 61.8458L49.6473 56.3408L47.993 61.8714Z" fill="#DA6632"/>
<path fill-rule="evenodd" clip-rule="evenodd" d="M61.3891 62.8219H117V62.0414H61.3891V62.8219Z" fill="#DA6632"/>
</svg>
