<svg width="128" height="128" viewBox="0 0 128 128" fill="none" xmlns="http://www.w3.org/2000/svg">
<rect width="128" height="128" fill="#0066A4"/>
<path d="M83.4966 67.4532C83.0389 65.4395 82.3066 63.7004 81.1167 62.2358C78.7368 59.1237 74.8925 57.11 69.6751 57.11C61.5286 57.11 56.5858 62.602 55.1213 68.4601C53.8398 64.3411 50.27 61.5951 46.5172 60.4052C49.3547 58.3914 50.8192 55.3708 50.8192 52.0756C50.8192 48.9635 49.5378 46.126 47.341 44.2953C44.1373 41.5493 39.8352 41.0001 34.4348 41.0001C30.3158 41.0001 28.7597 41.0001 24 41.0001V86.2175C26.9291 86.2175 30.0412 86.2175 32.9703 86.2175C35.6247 86.2175 38.1876 86.2175 40.5675 86.126C48.1648 85.8514 53.3822 82.007 55.0298 76.2404C55.579 78.8033 56.6773 80.9086 58.1419 82.4647C61.0709 85.6683 65.373 86.9498 69.5835 86.9498C74.8925 86.9498 78.6453 85.3937 81.2998 83.1054L77.5469 78.7118C75.6247 80.0848 73.2449 81.0001 70.5904 81.0001C65.2815 81.0001 62.9016 77.6134 62.7185 74.4097H83.4966V86.309H91.2769V41.1832H83.4966V67.4532ZM31.8719 47.0413H34.0687C36.1739 47.0413 37.8215 47.2244 39.0114 47.682C41.3913 48.5974 42.4897 50.428 42.4897 52.8079C42.4897 54.7301 41.7574 57.8422 37.6384 58.666C36.9062 58.8491 35.9908 58.8491 34.5263 58.8491C32.5126 58.8491 31.9634 58.8491 31.9634 58.8491V47.0413H31.8719ZM40.659 79.5356C39.6522 79.7187 38.4622 79.7187 37.5469 79.7187C34.6178 79.7187 31.8719 79.7187 31.8719 79.7187V64.9818C31.8719 64.9818 34.8009 64.9818 36.9062 64.9818C38.4622 64.9818 40.2929 65.1649 41.3913 65.4395C44.9611 66.3548 46.9748 68.9177 46.9748 72.3045C46.9748 75.7827 45.1442 78.7118 40.659 79.5356ZM62.9016 68.6431C63.5423 65.3479 66.0137 62.9681 69.5835 62.9681C73.1533 62.9681 75.5332 65.0733 76.1739 68.6431H62.9016Z" fill="white"/>
<path d="M104 41.1832H96.4027V86.126H104V41.1832Z" fill="white"/>
</svg>
