<svg width="128" height="128" viewBox="0 0 128 128" fill="none" xmlns="http://www.w3.org/2000/svg">
<rect width="128" height="128" fill="#015A75"/>
<path d="M74.6741 73.6883H45.3614L44.2968 77.1913H52.108L53.6001 82.0245H66.4417L67.9275 77.1913H75.7387L74.6741 73.6883ZM50.1448 54.0026C49.2869 55.1852 48.8246 56.6095 48.8246 58.0704C48.8246 60.2889 49.8904 62.3776 51.6867 63.6794L58.701 68.7762C59.1512 69.1026 59.418 69.6262 59.418 70.1822C59.418 70.5484 59.3022 70.9056 59.087 71.2021L60.1433 71.9658L63.8497 66.8441C64.7082 65.6666 65.1712 64.2463 65.1716 62.7891C65.1718 62.4193 65.1426 62.0501 65.0845 61.6851C64.7958 59.8709 63.7933 58.2456 62.3016 57.1735L55.2873 52.0767C54.9139 51.8078 54.6632 51.4002 54.5921 50.9457C54.5773 50.8538 54.5696 50.7608 54.5692 50.6676C54.5686 50.3036 54.6842 49.9488 54.8992 49.6549L53.845 48.8892L50.1448 54.0026ZM54.3721 33.5137C53.1269 35.2214 52.456 37.2815 52.4566 39.3949C52.4568 39.9308 52.4992 40.4658 52.5832 40.995C52.9981 43.6272 54.4493 45.9869 56.6113 47.5444L65.429 53.9299C66.5882 54.7656 67.3658 56.0315 67.5872 57.4433C67.6324 57.7262 67.6553 58.0119 67.6557 58.2983C67.653 59.4324 67.2894 60.5366 66.6181 61.4506L67.4689 62.0711L74.4168 52.4689C75.6611 50.7538 76.3314 48.6883 76.3314 46.5695C76.3314 43.3516 74.7854 40.3222 72.1797 38.4341L61.5337 30.6955C60.1591 29.6955 59.8501 27.7421 60.8489 26.3666L59.9981 25.7544L54.3721 33.5137ZM36.3611 84.9506H44.3923C46.37 84.9506 47.9202 85.4943 48.9142 86.4821C49.7005 87.2545 50.1301 88.321 50.0992 89.4227V89.4642C50.0992 91.417 49.0615 92.5045 47.8164 93.1997C49.8169 93.9675 51.0538 95.1276 51.0538 97.4518V97.5016C51.0538 100.664 48.4846 102.246 44.579 102.246H36.3611V84.9506ZM43.5767 91.9442C45.2576 91.9442 46.3202 91.4004 46.3202 90.1159V90.0661C46.3202 88.9288 45.4299 88.2876 43.8299 88.2876H40.0675V91.9442H43.5767ZM44.5894 98.9128C46.2704 98.9128 47.2872 98.3193 47.2872 97.0451V96.9953C47.2872 95.8332 46.4218 95.1276 44.469 95.1276H40.0675V98.9315L44.5894 98.9128ZM52.7181 84.9506H60.7493C62.727 84.9506 64.2772 85.4943 65.2712 86.4821C66.0557 87.2556 66.4836 88.3216 66.4521 89.4227V89.4642C66.4521 91.417 65.4144 92.5045 64.1693 93.1997C66.1719 93.9675 67.4067 95.1276 67.4067 97.4518V97.5016C67.4067 100.664 64.8375 102.246 60.9319 102.246H52.7181V84.9506ZM59.9337 91.9442C61.6147 91.9442 62.6772 91.4004 62.6772 90.1159V90.0661C62.6772 88.9288 61.7869 88.2876 60.1869 88.2876H56.4266V91.9442H59.9337ZM60.9464 98.9128C62.6274 98.9128 63.6443 98.3193 63.6443 97.0451V96.9953C63.6443 95.8332 62.7789 95.1276 60.8282 95.1276H56.4266V98.9315L60.9464 98.9128ZM69.0772 84.9506H77.1084C79.0861 84.9506 80.6363 85.4943 81.6303 86.4821C82.4165 87.2547 82.846 88.321 82.8153 89.4227V89.4642C82.8153 91.417 81.7777 92.5045 80.5326 93.1997C82.5352 93.9675 83.7699 95.1276 83.7699 97.4518V97.5016C83.7699 100.664 81.1987 102.246 77.2952 102.246H69.0772V84.9506ZM76.2928 91.9442C77.9738 91.9442 79.0363 91.4004 79.0363 90.1159V90.0661C79.0363 88.9288 78.146 88.2876 76.546 88.2876H72.7898V91.9442H76.2928ZM77.3056 98.9128C78.9865 98.9128 80.0034 98.3193 80.0034 97.0451V96.9953C80.0034 95.8332 79.138 95.1276 77.1852 95.1276H72.7857V98.9315L77.3056 98.9128ZM84.5834 98.6326V98.614C84.5834 98.6109 84.5834 98.6077 84.5834 98.6046C84.5834 96.6693 86.176 95.0767 88.1113 95.0767C90.0432 95.0767 91.634 96.6635 91.6392 98.5953V98.614V98.6233C91.6392 100.559 90.0467 102.151 88.1113 102.151C86.1795 102.151 84.5886 100.564 84.5834 98.6326ZM91.2242 98.614V98.5953C91.219 96.8911 89.8155 95.4918 88.1113 95.4918C86.4036 95.4918 84.9985 96.8969 84.9985 98.6046V98.614V98.6326C85.0037 100.337 86.4071 101.736 88.1113 101.736C89.819 101.736 91.2242 100.331 91.2242 98.6233C91.2242 98.6202 91.2242 98.6171 91.2242 98.614ZM86.6587 96.6383H88.3188C88.7449 96.6147 89.1628 96.7645 89.4768 97.0534C89.6864 97.2727 89.7987 97.5678 89.7881 97.871V97.8897C89.8101 98.4125 89.4772 98.8887 88.9788 99.0477L89.894 100.39H88.929L88.13 99.1826H87.4784V100.39H86.6483L86.6587 96.6383ZM88.3188 98.4687C88.7339 98.4687 88.9622 98.2446 88.9622 97.9333V97.9146C88.9622 97.5556 88.709 97.3688 88.3002 97.3688H87.4908V98.4687H88.3188Z" fill="white"/>
</svg>
