<svg width="128" height="128" viewBox="0 0 128 128" fill="none" xmlns="http://www.w3.org/2000/svg">
<rect width="128" height="128" fill="white"/>
<path d="M95.2113 77.1211C95.2113 78.0173 95.1632 78.9084 95.0669 79.7865C94.4945 85.1429 92.205 89.9864 88.758 93.7324C89.1922 93.244 89.5835 92.7196 89.9267 92.158C90.1914 91.7312 90.427 91.2863 90.6258 90.8222C90.698 90.6696 90.7638 90.5108 90.8183 90.353C90.8842 90.2004 90.9386 90.0416 90.9867 89.8838C91.0412 89.7376 91.0894 89.5852 91.1311 89.4325C91.1728 89.2735 91.2159 89.1158 91.2513 88.9569C91.2578 88.939 91.264 88.9196 91.2691 88.9017C91.3059 88.7429 91.335 88.5852 91.3654 88.4261C91.3958 88.262 91.4262 88.0966 91.4501 87.9326C91.4501 87.9262 91.4501 87.9262 91.4501 87.921C91.4743 87.7685 91.492 87.6159 91.5047 87.4568C91.5413 87.0967 91.5591 86.7378 91.5591 86.3711C91.5591 84.3096 90.998 82.375 90.0167 80.7289C89.7938 80.3443 89.5469 79.9789 89.2758 79.6314C88.9568 79.2161 88.6136 78.8263 88.24 78.466C87.3118 77.5572 86.2277 76.8123 85.0285 76.2879C84.5105 76.0559 83.9686 75.8673 83.4139 75.7264C83.4075 75.7264 83.3962 75.7199 83.3898 75.7199L83.1972 75.6532L80.3898 74.6777V74.6713L73.0449 72.1149C73.0209 72.1085 72.9905 72.1085 72.9728 72.1034L72.5142 71.9328C71.0376 71.347 69.8144 70.2496 69.0495 68.8521L66.3686 61.9278L63.2952 53.9973L62.7051 52.4665L62.5544 52.155C62.3859 51.7397 62.2947 51.2884 62.2947 50.8192C62.2947 50.6973 62.2947 50.5755 62.3073 50.4653C62.4821 48.7204 63.9461 47.3539 65.7177 47.3539C66.1876 47.3539 66.6397 47.4513 67.0499 47.6282L80.7367 54.7331L83.4366 56.1305C84.8651 56.9909 86.1961 58.0035 87.413 59.1447C91.8237 63.2446 94.7161 68.9906 95.1505 75.4149C95.1873 75.9815 95.2113 76.5481 95.2113 77.1211Z" fill="url(#paint0_linear_1195_2256)"/>
<path d="M91.5535 86.37C91.5535 87.0775 91.4877 87.7608 91.3661 88.4263C91.3294 88.6031 91.294 88.78 91.2522 88.957C91.1737 89.2737 91.0901 89.5788 90.9876 89.8839C90.933 90.0429 90.8786 90.2006 90.819 90.3531C90.7582 90.5121 90.6923 90.6647 90.6266 90.8224C90.4277 91.2865 90.1923 91.7313 89.9276 92.1582C89.5844 92.7198 89.1918 93.2442 88.7587 93.7326C86.7641 95.9659 79.9904 99.9479 77.4945 101.566L71.9528 104.994C67.8928 107.527 64.0533 109.32 59.2144 109.441C58.9852 109.448 58.7624 109.454 58.5395 109.454C58.2267 109.454 57.919 109.448 57.6113 109.436C49.4165 109.119 42.2693 104.666 38.1485 98.0837C36.2629 95.0761 35.0156 91.6237 34.5939 87.9147C35.479 92.9839 39.843 96.8274 45.1034 96.8274C46.9472 96.8274 48.6771 96.3582 50.189 95.5274C50.2005 95.521 50.2132 95.5146 50.2258 95.5095L50.7678 95.18L52.9738 93.862L55.7813 92.1788V92.0993L56.1436 91.8801L81.2656 76.8123L83.1994 75.6534L83.3918 75.7201C83.3982 75.7201 83.4096 75.7266 83.416 75.7266C83.9706 75.8662 84.5126 76.0559 85.0306 76.2881C86.2297 76.8123 87.3138 77.5572 88.242 78.4662C88.6156 78.8265 88.9588 79.2161 89.2778 79.6316C89.5489 79.9789 89.7958 80.3456 90.0188 80.7289C90.9925 82.3739 91.5535 84.3083 91.5535 86.37Z" fill="url(#paint1_linear_1195_2256)"/>
<path d="M55.7878 36.0849L55.7789 92.1762L52.9715 93.8607L50.7641 95.1773L50.2208 95.5107C50.212 95.5107 50.1955 95.5197 50.188 95.5274C48.6734 96.353 46.9435 96.8286 45.0984 96.8286C39.8367 96.8286 35.4805 92.9851 34.5902 87.9159C34.5483 87.6826 34.5168 87.4403 34.4915 87.207C34.4584 86.7647 34.4345 86.3314 34.4255 85.8891V22.762C34.4255 20.7697 36.0238 19.1441 37.9991 19.1441C38.7401 19.1441 39.4315 19.3774 40.0001 19.7608L50.9274 26.9888C50.9858 27.0388 51.0503 27.0811 51.1175 27.1222C53.9427 29.0734 55.7878 32.358 55.7878 36.0849Z" fill="url(#paint2_linear_1195_2256)"/>
<path opacity="0.15" d="M91.5535 86.37C91.5535 87.0775 91.4877 87.7608 91.3661 88.4263C91.3294 88.6031 91.294 88.78 91.2522 88.957C91.1737 89.2737 91.0901 89.5788 90.9876 89.8839C90.933 90.0429 90.8786 90.2006 90.819 90.3531C90.7582 90.5121 90.6923 90.6647 90.6266 90.8224C90.4277 91.2865 90.1923 91.7313 89.9276 92.1582C89.5844 92.7198 89.1931 93.2442 88.7587 93.7326C86.7641 95.9659 79.9904 99.9479 77.4945 101.566L71.9528 104.994C67.8928 107.527 64.0533 109.32 59.2144 109.441C58.9852 109.448 58.7624 109.454 58.5395 109.454C58.2267 109.454 57.919 109.448 57.6113 109.436C49.4165 109.119 42.2693 104.666 38.1485 98.0837C36.2629 95.0761 35.0156 91.6237 34.5939 87.9147C35.479 92.9839 39.843 96.8274 45.1034 96.8274C46.9472 96.8274 48.6771 96.3582 50.189 95.5274C50.2005 95.521 50.2132 95.5146 50.2258 95.5095L50.7678 95.18L52.9738 93.862L55.7813 92.1788V92.0993L56.1436 91.8801L81.2656 76.8123L83.1994 75.6534L83.3918 75.7201C83.3982 75.7201 83.4096 75.7266 83.416 75.7266C83.9706 75.8662 84.5126 76.0559 85.0306 76.2881C86.2297 76.8123 87.3138 77.5572 88.242 78.4662C88.6156 78.8265 88.9588 79.2161 89.2778 79.6316C89.5489 79.9789 89.7958 80.3456 90.0188 80.7289C90.9925 82.3739 91.5535 84.3083 91.5535 86.37Z" fill="url(#paint3_linear_1195_2256)"/>
<path opacity="0.1" d="M55.7878 36.0849L55.7789 92.1762L52.9715 93.8607L50.7641 95.1773L50.2208 95.5107C50.212 95.5107 50.1955 95.5197 50.188 95.5274C48.6734 96.353 46.9435 96.8286 45.0984 96.8286C39.8367 96.8286 35.4805 92.9851 34.5902 87.9159C34.5483 87.6826 34.5168 87.4403 34.4915 87.207C34.4584 86.7647 34.4345 86.3314 34.4255 85.8891V22.762C34.4255 20.7697 36.0238 19.1441 37.9991 19.1441C38.7401 19.1441 39.4315 19.3774 40.0001 19.7608L50.9274 26.9888C50.9858 27.0388 51.0503 27.0811 51.1175 27.1222C53.9427 29.0734 55.7878 32.358 55.7878 36.0849Z" fill="url(#paint4_linear_1195_2256)"/>
<defs>
<linearGradient id="paint0_linear_1195_2256" x1="57.5287" y1="58.2335" x2="96.907" y2="80.6909" gradientUnits="userSpaceOnUse">
<stop stop-color="#37BDFF"/>
<stop offset="0.1832" stop-color="#33BFFD"/>
<stop offset="0.3576" stop-color="#28C5F5"/>
<stop offset="0.528" stop-color="#15D0E9"/>
<stop offset="0.5468" stop-color="#12D1E7"/>
<stop offset="0.5903" stop-color="#1CD2E5"/>
<stop offset="0.7679" stop-color="#42D8DC"/>
<stop offset="0.9107" stop-color="#59DBD6"/>
<stop offset="1" stop-color="#62DCD4"/>
</linearGradient>
<linearGradient id="paint1_linear_1195_2256" x1="34.5912" y1="92.5525" x2="91.5532" y2="92.5525" gradientUnits="userSpaceOnUse">
<stop stop-color="#39D2FF"/>
<stop offset="0.1501" stop-color="#38CEFE"/>
<stop offset="0.2931" stop-color="#35C3FA"/>
<stop offset="0.4327" stop-color="#2FB0F3"/>
<stop offset="0.5468" stop-color="#299AEB"/>
<stop offset="0.5827" stop-color="#2692EC"/>
<stop offset="0.7635" stop-color="#1A6CF1"/>
<stop offset="0.909" stop-color="#1355F4"/>
<stop offset="1" stop-color="#104CF5"/>
</linearGradient>
<linearGradient id="paint2_linear_1195_2256" x1="45.1065" y1="97.6216" x2="45.1065" y2="20.5122" gradientUnits="userSpaceOnUse">
<stop stop-color="#1B48EF"/>
<stop offset="0.1221" stop-color="#1C51F0"/>
<stop offset="0.3212" stop-color="#1E69F5"/>
<stop offset="0.5676" stop-color="#2190FB"/>
<stop offset="1" stop-color="#26B8F4"/>
</linearGradient>
<linearGradient id="paint3_linear_1195_2256" x1="45.9135" y1="106.784" x2="81.4978" y2="71.6352" gradientUnits="userSpaceOnUse">
<stop stop-color="white"/>
<stop offset="0.3726" stop-color="#FDFDFD"/>
<stop offset="0.5069" stop-color="#F6F6F6"/>
<stop offset="0.6026" stop-color="#EBEBEB"/>
<stop offset="0.68" stop-color="#DADADA"/>
<stop offset="0.7463" stop-color="#C4C4C4"/>
<stop offset="0.805" stop-color="#A8A8A8"/>
<stop offset="0.8581" stop-color="#888888"/>
<stop offset="0.9069" stop-color="#626262"/>
<stop offset="0.9523" stop-color="#373737"/>
<stop offset="0.9926" stop-color="#090909"/>
<stop offset="1"/>
</linearGradient>
<linearGradient id="paint4_linear_1195_2256" x1="45.1065" y1="19.1441" x2="45.1065" y2="96.8279" gradientUnits="userSpaceOnUse">
<stop stop-color="white"/>
<stop offset="0.3726" stop-color="#FDFDFD"/>
<stop offset="0.5069" stop-color="#F6F6F6"/>
<stop offset="0.6026" stop-color="#EBEBEB"/>
<stop offset="0.68" stop-color="#DADADA"/>
<stop offset="0.7463" stop-color="#C4C4C4"/>
<stop offset="0.805" stop-color="#A8A8A8"/>
<stop offset="0.8581" stop-color="#888888"/>
<stop offset="0.9069" stop-color="#626262"/>
<stop offset="0.9523" stop-color="#373737"/>
<stop offset="0.9926" stop-color="#090909"/>
<stop offset="1"/>
</linearGradient>
</defs>
</svg>
