<svg width="128" height="128" viewBox="0 0 128 128" fill="none" xmlns="http://www.w3.org/2000/svg">
<rect width="128" height="128" fill="white"/>
<path d="M54.2335 51.0197C58.8861 51.1891 62.2174 53.4215 64.1155 57.6057C64.8778 59.2895 65.2844 61.1452 64.8956 63.0515C64.611 64.4395 64.3315 65.8326 63.5235 67.0436C63.2694 67.4405 63.3202 67.7363 63.6632 68.0852C65.1777 69.6342 66.6743 71.2017 68.1532 72.7877C68.7427 73.4223 69.444 74.0013 69.3551 75.0353C69.2865 75.8165 68.9994 76.441 68.293 76.7621C67.5866 77.0832 66.7684 77.1337 66.0823 76.57C65.5969 76.168 65.1218 75.7483 64.6644 75.3058C63.2329 73.9507 61.8024 72.5855 60.3726 71.2101C60.0931 70.9371 59.8644 70.8637 59.496 71.0812C58.0171 71.961 56.3603 72.277 54.6884 72.5223C54.4369 72.5672 54.1806 72.5791 53.926 72.5577C51.568 72.2871 49.3522 71.6677 47.4642 70.1331C46.8698 69.5961 46.3286 69.0034 45.8482 68.3633C45.7491 68.242 45.5483 68.0878 45.7109 67.9386C45.8736 67.7894 46.0006 68.017 46.115 68.1181C46.8773 68.8108 47.6192 69.5263 48.5365 70.0294C50.3559 71.0407 52.2896 71.6045 54.358 71.2758C56.5102 70.9597 58.4758 69.8826 59.8949 68.242C61.5339 66.3584 62.3749 64.1538 62.2072 61.6686C62.1392 60.4733 61.8349 59.3031 61.3117 58.225C60.7884 57.1469 60.0566 56.1822 59.158 55.3859C57.8837 54.2474 56.3219 53.4756 54.6401 53.1535C53.5374 52.9323 52.4014 52.9323 51.2986 53.1535C49.6076 53.4477 48.0275 54.19 46.7248 55.3025C45.9092 56.063 45.2083 56.9367 44.6437 57.8965C44.5522 58.0406 44.5192 58.3288 44.2651 58.2049C44.011 58.081 44.1279 57.856 44.2143 57.6538C45.1471 55.4014 46.8194 53.5299 48.9584 52.3445C50.5744 51.447 52.3125 50.8857 54.2335 51.0197Z" fill="#ED6719"/>
<path d="M96.999 60.4121C96.999 62.2662 96.999 64.1126 96.999 65.9515C96.999 66.7099 96.9075 66.7934 96.1554 66.7883C95.4998 66.7883 94.7985 66.9602 94.3233 66.2498C94.1327 65.9641 93.8761 66.227 93.6626 66.3484C92.4709 67.0234 91.2182 67.1069 90.0696 66.3838C89.0151 65.7239 88.5577 64.5685 88.4103 63.3954C88.2325 61.9948 88.3392 60.6144 89.1498 59.3503C90.0086 58.0179 91.8 57.1229 93.4034 57.8156C93.8456 58.0053 93.9345 57.755 93.9396 57.4111C93.9396 56.549 93.9396 55.6894 93.9396 54.8298C93.9396 54.1497 94.1225 53.9753 94.8061 53.9525C95.2711 53.9348 95.7361 53.9525 96.2011 53.9525C96.8236 53.9348 96.9964 54.2711 96.9939 54.8247C96.9913 56.6779 96.999 58.5463 96.999 60.4121ZM93.9498 62.1111C93.9498 61.6712 93.9498 61.2313 93.9498 60.7914C93.9639 60.611 93.9113 60.4317 93.8017 60.2874C93.6922 60.143 93.5333 60.0435 93.3551 60.0076C93.1567 59.9554 92.9492 59.9466 92.7469 59.9817C92.5447 60.0169 92.3525 60.0951 92.1835 60.2111C92.0145 60.3271 91.8728 60.4781 91.768 60.6538C91.6632 60.8295 91.5979 61.0256 91.5764 61.2287C91.5231 61.961 91.5231 62.6961 91.5764 63.4283C91.6247 64.1236 92.0669 64.4219 92.8469 64.3966C93.5559 64.3739 93.8989 64.0629 93.9396 63.3676C93.9599 62.9505 93.9396 62.5308 93.9396 62.1237L93.9498 62.1111Z" fill="#0C4271"/>
<path d="M65.8914 60.541C65.8914 58.7358 65.9066 56.9306 65.8914 55.1255C65.8914 54.5339 66.0997 54.2962 66.707 54.3038C68.8821 54.324 71.0589 54.324 73.2374 54.3038C73.8346 54.3038 74.0963 54.5415 74.1243 55.1002C74.1243 55.1634 74.1395 55.2266 74.1446 55.2898C74.2513 56.7082 74.0277 56.9483 72.5844 56.9534C71.6341 56.9534 70.6812 56.966 69.7308 56.9534C69.2811 56.9534 69.0625 57.1177 69.0829 57.5829C69.1019 57.9602 69.1019 58.3383 69.0829 58.7156C69.0549 59.2212 69.2989 59.378 69.7715 59.3679C70.5948 59.3502 71.4206 59.3552 72.2439 59.3679C73.0672 59.3805 73.2603 59.6207 73.2806 60.3791C73.3213 62.1135 73.3213 62.1135 71.5731 62.1135H69.924C69.1261 62.1135 69.0905 62.1514 69.0854 62.92C69.0854 63.9313 69.0854 64.9426 69.0854 65.9539C69.0854 66.6719 68.9533 66.7806 68.2189 66.7907C67.7336 66.7907 67.2483 66.7907 66.7604 66.7907C65.9981 66.7907 65.9117 66.6921 65.9091 65.9564C65.8888 64.1462 65.8939 62.3436 65.8914 60.541Z" fill="#0C4271"/>
<path d="M79.349 62.2552C79.349 61.0593 79.349 59.8635 79.349 58.6651C79.349 57.9547 79.5193 57.7777 80.2333 57.7271C80.8052 57.6404 81.3883 57.7832 81.8545 58.124C82.1086 58.3389 82.3169 58.2707 82.5939 58.124C83.5265 57.6184 84.4717 57.3656 85.5517 57.808C86.9441 58.3668 87.5032 59.4539 87.5667 60.8065C87.6455 62.5029 87.6048 64.2044 87.5819 65.9059C87.5819 66.6315 87.3837 66.7782 86.6595 66.7883C86.2352 66.7883 85.8134 66.7883 85.389 66.7883C84.708 66.7706 84.4565 66.5355 84.4463 65.8048C84.4285 64.2727 84.4463 62.7406 84.4463 61.2085C84.4463 60.7888 84.4946 60.3362 84.0423 60.091C83.59 59.8458 83.2012 60.0758 82.7946 60.2756C82.4313 60.4525 82.4135 60.7357 82.4135 61.0593C82.4135 62.5914 82.4135 64.1244 82.4135 65.6582C82.4135 66.7048 82.3271 66.7883 81.2421 66.7908C80.8635 66.7908 80.4798 66.7756 80.1012 66.7908C79.5549 66.8136 79.3389 66.5582 79.3389 66.0323C79.3541 64.7682 79.3389 63.5041 79.3389 62.2526L79.349 62.2552Z" fill="#0C4271"/>
<path d="M103.526 62.8821C102.851 62.8821 102.175 62.8821 101.494 62.8821C100.985 62.8821 100.836 63.135 101.079 63.5622C101.192 63.8119 101.375 64.0245 101.604 64.1749C101.834 64.3253 102.103 64.4075 102.378 64.4117C103.094 64.439 103.806 64.2823 104.444 63.9566C104.985 63.6811 105.595 64.0173 106.042 64.7732C106.347 65.2789 106.042 65.6328 105.674 65.8882C104.911 66.4141 104.111 66.8995 103.112 66.8034C102.2 66.7276 101.28 66.9425 100.383 66.4874C98.7773 65.6733 98.0048 64.3839 97.8727 62.6445C97.7388 61.4069 98.081 60.1648 98.8306 59.1682C99.7098 58.0027 102.134 57.3125 103.582 57.765C105.409 58.3389 106.515 60.2604 106.395 61.9846C106.355 62.5686 106.088 62.8796 105.488 62.8796H103.524L103.526 62.8821ZM102.317 60.9885C102.571 60.9885 102.825 60.9885 103.079 60.9885C103.542 60.9885 103.641 60.7963 103.379 60.407C103.067 59.9418 101.887 59.7699 101.45 60.1542C101.267 60.3135 101.026 60.5056 101.138 60.7862C101.25 61.0669 101.532 60.9708 101.755 60.9834C101.979 60.9961 102.126 60.991 102.317 60.991V60.9885Z" fill="#0C4271"/>
<path d="M107.277 62.2855C107.277 61.0492 107.277 59.8104 107.277 58.5741C107.277 57.8763 107.442 57.7221 108.146 57.7221C108.786 57.7221 109.417 57.7575 109.866 58.3213C110.064 58.5741 110.227 58.3921 110.392 58.253C110.9 57.8257 111.442 57.4945 112.171 57.5856C112.697 57.6513 112.987 57.894 112.994 58.4275C112.994 58.8269 113.007 59.2264 112.994 59.6233C112.966 60.2402 112.623 60.5132 111.993 60.4526C110.873 60.3439 110.214 60.9051 110.214 62.0175C110.214 63.2538 110.214 64.4927 110.214 65.729C110.202 66.6493 110.047 66.7959 109.14 66.7883C107.086 66.7731 107.313 67.0411 107.3 64.9907C107.272 64.0907 107.277 63.1881 107.277 62.2855Z" fill="#0C4271"/>
<path d="M78.0831 62.3209C78.0831 63.5143 78.0831 64.7076 78.0831 65.9034C78.0831 66.6366 77.9281 66.7757 77.181 66.7883C76.6957 66.7883 76.2104 66.7757 75.725 66.7883C75.2397 66.801 74.9958 66.5355 74.95 66.0754C74.95 65.9313 74.9297 65.7846 74.9297 65.638C74.9297 63.3525 74.9297 61.0686 74.9297 58.7865C74.9297 57.9648 75.1508 57.7398 75.974 57.717C78.3829 57.6564 78.0831 57.8485 78.0856 59.7396C78.0856 60.6068 78.0831 61.4614 78.0831 62.3209Z" fill="#0C4271"/>
<path d="M78.1848 55.6135C78.1849 56.075 78.0038 56.5184 77.6801 56.849C77.3563 57.1797 76.9156 57.3713 76.4518 57.3832C75.6488 57.3706 74.6248 56.3719 74.701 55.6135C74.7318 55.1392 74.949 54.6961 75.3057 54.38C75.6624 54.064 76.1298 53.9003 76.6068 53.9246C76.8223 53.9311 77.0343 53.9801 77.2306 54.0687C77.4269 54.1574 77.6036 54.2839 77.7504 54.441C77.8972 54.5981 78.0112 54.7827 78.0857 54.9839C78.1603 55.1852 78.194 55.3992 78.1848 55.6135Z" fill="#0C4271"/>
<path d="M21.6295 60.3742C22.1758 60.7559 22.7679 60.9152 23.0779 61.4259C24.0943 63.1148 23.6039 65.7239 21.1975 66.4495C19.3375 67.0082 17.4648 66.672 15.6073 66.7756C15.1118 66.8035 15 66.4798 15 66.0753C15 65.0034 15 63.9339 15 62.862C15 60.4045 15 57.9479 15 55.4922C15 54.5593 15.1194 54.4809 16.0647 54.4379C17.5865 54.3851 19.1098 54.48 20.6131 54.7211C21.8836 54.9183 23.1211 55.8057 23.1745 57.4566C23.2246 58.039 23.1056 58.6235 22.8318 59.1407C22.5579 59.6579 22.1407 60.086 21.6295 60.3742ZM16.9261 63.2538C16.9261 63.714 16.9261 64.1741 16.9261 64.6342C16.9261 64.9199 17.0277 65.1399 17.3555 65.1399C18.3948 65.0969 19.4493 65.3219 20.4657 64.8542C21.3043 64.4699 21.7057 63.8429 21.5762 62.9075C21.5398 62.5061 21.3587 62.1315 21.0663 61.8526C20.7739 61.5738 20.39 61.4097 19.9855 61.3905C19.1647 61.345 18.3414 61.3905 17.5207 61.3703C17.0862 61.3703 16.9159 61.5877 16.921 61.9948C16.9261 62.4018 16.9261 62.8341 16.9261 63.2538ZM16.9261 57.9698C16.9261 58.3693 16.9261 58.7662 16.9261 59.1657C16.9261 59.5651 17.0938 59.7447 17.4953 59.7371C18.1077 59.7371 18.7201 59.7143 19.3324 59.7371C19.7779 59.7514 20.215 59.6151 20.5725 59.3502C21.223 58.9028 21.2763 58.2353 21.1798 57.5527C21.1466 57.2676 21.0254 56.9998 20.8329 56.7861C20.6404 56.5724 20.3861 56.4233 20.1049 56.3594C19.6745 56.2531 19.2321 56.2021 18.7887 56.2077C16.6415 56.2051 16.949 55.9902 16.9261 57.9698Z" fill="#3373AD"/>
<path d="M36.4666 62.3236C36.4666 61.169 36.4666 60.0145 36.4666 58.8599C36.4666 58.468 36.4666 58.0559 36.9748 57.9953C37.4296 57.9422 37.9226 57.8638 38.103 58.5009C38.225 58.9256 38.4969 58.7006 38.6925 58.5692C39.3513 58.1537 40.1157 57.9344 40.8956 57.9371C42.7759 57.836 43.5433 59.0824 43.8254 60.4451C44.0083 61.3401 43.9118 62.2452 43.927 63.1478C43.927 63.9871 43.927 64.8265 43.927 65.676C43.927 66.6266 43.7644 66.7985 42.9767 66.7985C42.189 66.7985 41.9349 66.5457 41.9349 65.6634C41.9349 64.1464 41.9349 62.6295 41.9349 61.1303C41.9349 60.5715 41.9526 59.9673 41.3885 59.679C41.0618 59.5242 40.7027 59.4487 40.341 59.4588C39.9792 59.4689 39.625 59.5643 39.3074 59.7372C38.7052 60.0279 38.446 60.4957 38.474 61.2061C38.5299 62.6927 38.4994 64.1869 38.4867 65.676C38.4867 66.7025 37.887 67.0893 36.8935 66.7429C36.5174 66.6114 36.4742 66.3081 36.4742 65.9844C36.4641 64.7583 36.4666 63.5422 36.4666 62.3236Z" fill="#3373AD"/>
<path d="M49.977 62.5005C49.2376 62.5005 48.4981 62.5005 47.7587 62.5005C47.187 62.5005 47.0396 62.6952 47.1997 63.259C47.7714 65.2386 48.9352 65.5875 50.9934 65.011C51.2139 64.9391 51.4241 64.8388 51.6185 64.7127C52.086 64.4245 52.3961 64.5813 52.6705 65.0035C52.9957 65.5091 52.7315 65.7822 52.3351 66.0148C50.5386 67.0842 48.7294 67.1828 46.9151 66.0501C46.1909 65.6001 45.8275 64.8745 45.5658 64.1287C45.0576 62.6649 45.0754 61.2035 45.886 59.8307C46.5771 58.6576 47.5376 57.9345 49.0013 57.9396C50.0863 57.9396 51.1001 58.0205 51.9336 58.8144C52.8712 59.7094 53.0923 60.8142 52.95 62.0379C52.9068 62.4221 52.6375 62.4955 52.3147 62.4955H49.9694L49.977 62.5005ZM49.2706 61.2364C49.7559 61.2364 50.2413 61.249 50.7241 61.2364C51.2882 61.2187 51.4432 60.9482 51.1865 60.4779C50.7876 59.7195 50.1142 59.2644 49.3113 59.3048C48.9071 59.3157 48.5146 59.4418 48.1804 59.6682C47.8462 59.8945 47.5843 60.2115 47.4258 60.5816C47.2149 61.0468 47.2911 61.2516 47.8171 61.2465L49.2706 61.2364Z" fill="#3373AD"/>
<path d="M31.9664 57.9673H34.1873C35.1808 57.9673 35.5289 58.5665 35.0004 59.4236C34.6802 59.9292 34.294 60.4172 33.9255 60.9026C32.9879 62.1439 32.0401 63.3878 31.0999 64.6165C31.0034 64.7429 30.8229 64.8694 30.9348 65.0514C31.0211 65.193 31.1889 65.15 31.3439 65.15C32.2967 65.15 33.2471 65.1652 34.2 65.15C34.7615 65.15 35.0842 65.3371 35.0741 65.9489C35.0639 66.5607 34.8835 66.7782 34.1745 66.7807C32.6296 66.7807 31.0872 66.7807 29.5423 66.7807C29.1865 66.7807 28.6961 66.9551 28.5259 66.49C28.4311 66.2546 28.4001 65.9986 28.4357 65.7475C28.4714 65.4964 28.5726 65.259 28.7291 65.059C29.6439 63.8808 30.5384 62.6875 31.4404 61.4967C31.7809 61.0442 32.1265 60.5941 32.4568 60.134C32.5483 60.0076 32.7414 59.8812 32.6144 59.7017C32.5331 59.5651 32.3552 59.5955 32.2103 59.5955C31.2803 59.5955 30.3503 59.5955 29.4152 59.5955C28.7673 59.5803 28.5843 59.3578 28.5869 58.746C28.5869 58.2227 28.841 57.9724 29.3492 57.9749C30.2182 57.9749 31.0847 57.9749 31.9512 57.9749L31.9664 57.9673Z" fill="#3373AD"/>
<path d="M57.2875 57.9801C58.0252 57.8685 58.7786 58.0256 59.4092 58.4225C59.8209 58.6551 60.1029 58.9636 59.8386 59.4338C59.5744 59.9041 59.2542 60.0102 58.7308 59.7498C58.0904 59.4338 57.4044 59.1785 56.6624 59.497C56.2761 59.6588 55.9306 59.851 55.9001 60.3237C55.8696 60.7965 56.2736 61.0064 56.6344 61.1581C57.2748 61.4286 57.9329 61.6637 58.5859 61.8887C59.5744 62.2427 60.1817 63.0011 60.202 63.9113C60.2274 65.0743 59.6557 66.0451 58.6926 66.4395C57.2671 67.0261 55.8747 67.016 54.5228 66.1867C54.1214 65.9339 53.8139 65.7089 54.1163 65.1956C54.1676 65.0907 54.2413 64.9982 54.3323 64.9245C54.4232 64.8508 54.5292 64.7976 54.6428 64.7688C54.7564 64.7399 54.875 64.736 54.9904 64.7573C55.1057 64.7786 55.2149 64.8247 55.3106 64.8923C55.6813 65.094 56.069 65.2632 56.4693 65.3979C57.0994 65.633 57.6686 65.3827 58.1082 64.9934C58.7206 64.4523 58.3623 63.5826 57.4323 63.2615C56.7793 63.034 56.1288 62.7913 55.4808 62.5486C53.8215 61.9317 53.8977 59.492 54.9396 58.6551C55.2553 58.3751 55.6301 58.1691 56.0364 58.0522C56.4428 57.9354 56.8703 57.9108 57.2875 57.9801Z" fill="#3373AD"/>
<path d="M25.1642 62.3134C25.1642 61.1606 25.1642 60.0052 25.1642 58.8498C25.1642 58.066 25.2506 57.9801 25.9596 57.9674C26.8413 57.9497 27.0522 58.1014 27.0598 58.87C27.0725 60.799 27.0598 62.7306 27.0598 64.6622C27.0598 65.0186 27.0598 65.3751 27.0598 65.7316C27.0598 66.576 26.7879 66.7985 25.9392 66.7884C25.365 66.7884 25.1515 66.5052 25.1541 65.9667C25.1642 64.7481 25.1642 63.532 25.1642 62.3134Z" fill="#3373AD"/>
<path d="M26.0052 56.7058C25.6939 56.6836 25.4014 56.5496 25.1821 56.3286C24.9628 56.1077 24.8318 55.8149 24.8135 55.5049C24.8363 54.9234 25.5453 54.2989 26.1526 54.3242C26.826 54.352 27.2249 54.8299 27.2046 55.6035C27.1842 56.3771 26.8158 56.7235 26.0052 56.7058Z" fill="#3373AD"/>
</svg>
