<svg width="128" height="128" viewBox="0 0 128 128" fill="none" xmlns="http://www.w3.org/2000/svg">
<rect width="128" height="128" fill="#F1EFFA"/>
<path d="M13.4364 61.0751C14.1117 61.0751 14.787 61.0677 15.4611 61.0751C15.9634 61.0825 16.4023 61.2472 16.7152 61.6943C16.8768 61.9161 16.9639 62.1881 16.9626 62.4677C16.9613 62.7472 16.8718 63.0184 16.7081 63.2385C16.6234 63.3623 16.5517 63.454 16.674 63.61C17.3234 64.4372 16.8693 65.8613 15.5787 65.9257C14.1435 65.9975 12.7023 65.943 11.2635 65.9455C11.0788 65.9455 11 65.8588 11 65.6657C11 64.2292 11 62.7927 11 61.3562C11 61.1098 11.1318 61.0726 11.3223 61.0739C12.027 61.0776 12.7317 61.0751 13.4364 61.0751ZM13.7976 65.0861C14.3858 65.0861 14.974 65.096 15.5623 65.0861C15.9293 65.0725 16.1764 64.8186 16.1764 64.4768C16.1764 64.1351 15.9411 63.8762 15.5552 63.849C15.5164 63.849 15.4764 63.849 15.4376 63.849C14.3317 63.849 13.227 63.849 12.1212 63.849C11.8765 63.849 11.7529 63.9208 11.7741 64.1982C11.787 64.3825 11.787 64.5675 11.7741 64.7518C11.7576 64.9994 11.8506 65.101 12.0953 65.096C12.6623 65.0787 13.2353 65.0861 13.7976 65.0861ZM13.8447 61.9345C13.3952 61.9345 12.9447 61.9345 12.4941 61.9345C11.6847 61.942 11.7882 61.8218 11.7718 62.6887C11.7718 62.9636 11.867 63.0404 12.1164 63.0379C13.1823 63.0267 14.2494 63.0379 15.3164 63.0305C15.4432 63.0314 15.5696 63.0134 15.6917 62.9772C16.0376 62.867 16.1999 62.6763 16.1764 62.4162C16.1528 62.1562 15.9199 61.9655 15.5764 61.9395C15.5082 61.9395 15.4399 61.9395 15.3717 61.9395L13.8447 61.9345Z" fill="#8E9094"/>
<path d="M113.485 63.9135C112.77 63.9135 112.055 63.9135 111.339 63.9135C111.033 63.9135 110.998 63.9729 111.091 64.285C111.166 64.5211 111.31 64.7261 111.502 64.8702C111.695 65.0143 111.926 65.0899 112.163 65.0862C113.29 65.0862 114.416 65.0862 115.543 65.0862C115.68 65.0862 115.873 65.0193 115.932 65.21C115.994 65.4176 115.992 65.6403 115.926 65.8465C115.893 65.9493 115.784 65.9431 115.697 65.9431C114.492 65.9431 113.286 65.9729 112.082 65.9332C111.023 65.8973 110.251 64.9958 110.249 63.8862C110.249 63.6386 110.249 63.3909 110.249 63.1432C110.249 61.9705 111.072 61.0888 112.186 61.0764C113.332 61.0628 114.479 61.0764 115.625 61.0665C115.945 61.0665 115.97 61.2337 115.964 61.4913C115.953 61.8863 115.932 61.9297 115.605 61.9309C114.45 61.9309 113.293 61.9309 112.137 61.9309C111.901 61.9292 111.671 62.0082 111.481 62.156C111.291 62.3039 111.152 62.5126 111.085 62.7507C111.004 63.0442 111.038 63.0974 111.33 63.0987C112.721 63.0987 114.113 63.0987 115.504 63.0987C115.932 63.0987 116.092 63.3339 115.949 63.7599C115.891 63.9345 115.751 63.9036 115.63 63.9048C114.915 63.9147 114.2 63.9135 113.485 63.9135Z" fill="#8E9094"/>
<path d="M40.4489 63.9134C39.743 63.9134 39.0371 63.9134 38.3312 63.9134C38.0007 63.9134 37.9466 63.9989 38.0571 64.3196C38.139 64.5474 38.2856 64.743 38.477 64.8797C38.6684 65.0165 38.8952 65.0877 39.1265 65.0837C40.243 65.0837 41.3618 65.0837 42.4747 65.0837C42.89 65.0837 43.0853 65.4118 42.9147 65.8155C42.8653 65.9332 42.7688 65.9394 42.67 65.9394C41.4653 65.9394 40.2594 65.9691 39.0571 65.9282C37.9842 65.8911 37.2242 65.0069 37.2195 63.8887C37.2195 63.6228 37.2195 63.3558 37.2195 63.0875C37.2172 62.8246 37.2644 62.5638 37.3583 62.3202C37.4523 62.0766 37.5912 61.855 37.767 61.6683C37.9427 61.4815 38.1519 61.3333 38.3825 61.2321C38.613 61.1309 38.8603 61.0789 39.1101 61.0789C40.2759 61.064 41.4406 61.0789 42.6065 61.0702C42.9029 61.0702 42.9453 61.2163 42.9382 61.4702C42.9312 61.724 42.9488 61.942 42.6018 61.9383C41.4371 61.9271 40.2712 61.9383 39.1065 61.9383C38.8755 61.9291 38.648 61.9998 38.4587 62.1396C38.2694 62.2793 38.1288 62.4805 38.0583 62.7122C37.9571 63.0194 38.0101 63.1036 38.3207 63.1048C39.7112 63.1048 41.1018 63.1048 42.4923 63.1048C42.9029 63.1048 43.0747 63.3748 42.9229 63.7772C42.8653 63.9308 42.7394 63.9097 42.6265 63.911C41.8982 63.9147 41.1735 63.9134 40.4489 63.9134Z" fill="#8E9094"/>
<path d="M105.526 61.0752C106.152 61.0752 106.779 61.0752 107.409 61.0752C108.585 61.0752 109.373 61.8182 109.477 63.0454C109.512 63.424 109.504 63.8057 109.452 64.1822C109.305 65.184 108.546 65.927 107.588 65.9394C106.197 65.9592 104.808 65.9394 103.417 65.948C103.182 65.948 103.082 65.8576 103.083 65.605C103.088 64.2098 103.088 62.8142 103.083 61.4182C103.083 61.1705 103.177 61.0702 103.416 61.0727C104.117 61.0814 104.822 61.0752 105.526 61.0752ZM105.923 61.9346C105.365 61.9346 104.808 61.9432 104.249 61.9346C104.005 61.9346 103.896 62.0052 103.896 62.2838C103.908 63.1044 103.908 63.9254 103.896 64.7469C103.896 65.0255 104.005 65.0961 104.249 65.0936C105.345 65.0849 106.442 65.0936 107.543 65.0936C107.695 65.1 107.847 65.0738 107.989 65.0167C108.131 64.9596 108.26 64.8727 108.37 64.7614C108.479 64.65 108.566 64.5164 108.625 64.3688C108.684 64.2211 108.713 64.0624 108.712 63.9023C108.722 63.646 108.722 63.3884 108.712 63.1321C108.685 62.4225 108.219 61.9494 107.543 61.9445C106.998 61.9321 106.462 61.9346 105.923 61.9346Z" fill="#8E9094"/>
<path d="M26.9833 63.8577H25.2186C24.7739 63.8577 24.7739 63.8577 24.7727 64.3109C24.7715 64.7642 24.7609 65.1939 24.7727 65.6347C24.7833 65.9703 24.5798 65.9505 24.3657 65.9542C24.1515 65.9579 23.9857 65.9369 23.9892 65.6335C24.0021 64.7914 23.981 63.9506 23.9986 63.1085C24.028 61.9358 24.8739 61.0813 25.988 61.0751C26.6538 61.0751 27.3185 61.0751 27.9879 61.0751C29.135 61.0826 29.9503 61.942 29.9514 63.1333C29.9514 63.9543 29.9408 64.7753 29.9573 65.5951C29.9573 65.9035 29.8244 65.9505 29.5809 65.9493C29.3373 65.948 29.1632 65.9109 29.1738 65.5852C29.1891 65.1134 29.1738 64.6416 29.1797 64.1698C29.1856 63.9221 29.0903 63.8441 28.8656 63.8478C28.2362 63.8577 27.6103 63.8577 26.9833 63.8577ZM26.9974 63.0491C27.6244 63.0491 28.2503 63.0491 28.8797 63.0491C29.162 63.0491 29.2056 62.9723 29.1079 62.6924C29.0335 62.479 28.8998 62.294 28.7242 62.1615C28.5486 62.029 28.3392 61.9551 28.1232 61.9494C27.3703 61.942 26.6166 61.942 25.8621 61.9494C25.3998 61.9494 25.0927 62.2194 24.9009 62.6392C24.7621 62.9438 24.8304 63.0515 25.1492 63.054C25.7645 63.0466 26.3809 63.0441 26.9997 63.0429L26.9974 63.0491Z" fill="#8E9094"/>
<path d="M30.7055 62.6875C30.7055 62.2466 30.7138 61.8045 30.7055 61.3637C30.6973 61.0653 30.882 61.0714 31.0773 61.0739C31.2726 61.0764 31.482 61.043 31.4796 61.3662C31.4726 62.1463 31.4702 62.9277 31.4796 63.7079C31.4879 64.2614 31.6455 64.7407 32.1737 64.9933C32.2792 65.0486 32.3948 65.079 32.5126 65.0824C33.169 65.0824 33.8255 65.0973 34.4807 65.0824C34.7636 65.0759 35.0323 64.9515 35.228 64.7365C35.4237 64.5214 35.5303 64.2334 35.5243 63.9357C35.5337 63.1246 35.5243 62.3135 35.5243 61.5024C35.5243 61.3649 35.4784 61.1817 35.6348 61.1173C35.8299 61.0436 36.0433 61.0436 36.2384 61.1173C36.3231 61.147 36.3372 61.2411 36.336 61.3253C36.3266 62.2689 36.4089 63.2175 36.2984 64.1562C36.176 65.205 35.4137 65.9097 34.4113 65.9406C33.8055 65.9604 33.1972 65.9617 32.5902 65.9406C32.0905 65.9208 31.617 65.7003 31.267 65.3244C30.9169 64.9486 30.7168 64.4459 30.7079 63.9196C30.6996 63.5085 30.7055 63.0986 30.7055 62.6875Z" fill="#8E9094"/>
<path d="M21.3315 65.9455C20.7927 65.9455 20.2551 65.9455 19.7163 65.9455C18.5563 65.9356 17.7163 65.049 17.7104 63.8403C17.7104 63.0391 17.7222 62.2379 17.7104 61.4367C17.6987 61.1135 17.8457 61.0714 18.101 61.0689C18.3563 61.0664 18.4869 61.1358 18.4892 61.4466C18.4951 62.3135 18.4245 63.1927 18.5304 64.062C18.6081 64.6935 19.0422 65.0824 19.6551 65.0849C20.7916 65.0849 21.928 65.0849 23.0668 65.0849C23.1845 65.0849 23.3586 65.0428 23.3962 65.2087C23.4637 65.4252 23.4545 65.6601 23.3703 65.87C23.3221 65.969 23.195 65.9418 23.0986 65.9418C22.5068 65.9468 21.9198 65.9455 21.3315 65.9455Z" fill="#8E9094"/>
<path d="M45.4593 63.7945C44.9711 63.7945 44.4829 63.7859 43.9947 63.7945C43.7594 63.7945 43.6923 63.6856 43.6923 63.459C43.6923 63.2323 43.7347 63.0874 43.997 63.0936C44.975 63.1035 45.9519 63.1035 46.9276 63.0936C47.1934 63.0936 47.2275 63.2373 47.2299 63.4651C47.2323 63.693 47.1593 63.8032 46.9252 63.7983C46.437 63.7871 45.9476 63.7945 45.4593 63.7945Z" fill="#8E9094"/>
<path d="M50.4475 65.9518C49.7522 65.9518 49.057 65.9444 48.3617 65.9518C48.1264 65.9518 48.0323 65.8676 48.0335 65.6113C48.0413 64.2078 48.0413 62.801 48.0335 61.391C48.0335 61.1532 48.1135 61.0628 48.3417 61.0641C49.7617 61.0641 51.1828 61.0566 52.6028 61.0727C53.1463 61.0802 53.5969 61.3266 53.8545 61.8492C54.1122 62.3717 54.0475 62.8671 53.7051 63.3191C53.6876 63.3361 53.6736 63.3568 53.664 63.3798C53.6544 63.4028 53.6495 63.4277 53.6495 63.4528C53.6495 63.4779 53.6544 63.5028 53.664 63.5258C53.6736 63.5488 53.6876 63.5695 53.7051 63.5866C54.058 64.0819 54.1157 64.6082 53.8369 65.1456C53.5439 65.7116 53.051 65.9506 52.4463 65.9518H50.4475ZM50.8816 63.8578C50.4699 63.8578 50.0581 63.8516 49.6475 63.8578C48.6817 63.8739 48.8429 63.6918 48.824 64.7432C48.8181 64.9908 48.8934 65.0912 49.1417 65.0899C50.2581 65.08 51.3769 65.0899 52.4898 65.0899C52.9228 65.0899 53.1957 64.8422 53.2016 64.4831C53.2075 64.124 52.9145 63.864 52.4722 63.864C51.9322 63.8491 51.404 63.8578 50.8816 63.8578ZM50.8816 61.9458C50.4028 61.9458 49.924 61.9458 49.4452 61.9458C48.7617 61.9458 48.8417 61.8702 48.8217 62.6182C48.8146 62.9179 48.9217 63.0058 49.197 63.0021C50.2722 62.9897 51.3475 63.0021 52.424 63.0021C52.5214 63.004 52.6188 62.9953 52.7145 62.9761C52.9992 62.9129 53.2216 62.6677 53.2051 62.4448C53.1875 62.1971 52.9698 61.9978 52.671 61.9606C52.5928 61.9534 52.5142 61.9505 52.4357 61.9519L50.8816 61.9458Z" fill="#54488A"/>
<path d="M91.1056 63.9208C90.3903 63.9208 89.6762 63.9208 88.9609 63.9208C88.6597 63.9208 88.6197 63.9852 88.7174 64.2861C88.7972 64.5203 88.9445 64.7225 89.1388 64.8643C89.333 65.0062 89.5645 65.0807 89.8009 65.0774C90.9268 65.0774 92.0526 65.0774 93.1785 65.0774C93.3173 65.0774 93.5079 65.0068 93.5773 65.1814C93.6495 65.3957 93.6495 65.6296 93.5773 65.8439C93.5467 65.9492 93.4373 65.943 93.3491 65.943C92.1056 65.943 90.8609 65.9715 89.6185 65.9294C88.688 65.8972 87.9362 65.0712 87.8703 64.0496C87.8256 63.3685 87.7656 62.6688 88.1409 62.0422C88.5162 61.4156 89.0374 61.0887 89.7209 61.0763C90.915 61.054 92.1103 61.0763 93.3044 61.0652C93.5879 61.0652 93.6302 61.2138 93.6173 61.4515C93.6044 61.6893 93.6702 61.9469 93.3067 61.9469C92.1409 61.9469 90.9762 61.9469 89.8103 61.9469C89.3233 61.9469 88.9644 62.1673 88.7586 62.6379C88.6009 62.9982 88.6621 63.1022 89.0362 63.1022H93.1538C93.602 63.1022 93.7279 63.2868 93.6138 63.7549C93.5691 63.9369 93.4396 63.9245 93.3138 63.9245C92.5738 63.922 91.8397 63.9208 91.1056 63.9208Z" fill="#54488A"/>
<path d="M57.3085 61.069C57.9944 61.069 58.6802 61.069 59.3661 61.069C60.1226 61.069 60.6978 61.5098 60.8955 62.2207C61.0814 62.9067 60.8061 63.5729 60.1402 63.9828C59.9449 64.1067 59.9532 64.1847 60.0814 64.3543C60.3955 64.7741 60.692 65.2075 60.9931 65.6385C61.0414 65.7091 61.1261 65.7834 61.0661 65.8862C61.019 65.9666 60.9261 65.9406 60.8508 65.9518C60.4131 66.0162 60.0849 65.8862 59.8437 65.4564C59.6296 65.0788 59.3426 64.7469 59.0979 64.3878C59.0521 64.3152 58.989 64.2566 58.9148 64.2179C58.8407 64.1792 58.7581 64.1617 58.6755 64.1673C57.745 64.1735 56.8144 64.1748 55.8838 64.1673C55.6556 64.1673 55.5662 64.2503 55.5744 64.4905C55.585 64.862 55.565 65.2335 55.5744 65.6051C55.5838 65.9766 55.3662 65.953 55.1285 65.9555C54.8909 65.958 54.7344 65.9394 54.7368 65.6187C54.7485 64.2119 54.7462 62.8039 54.7368 61.3972C54.7368 61.1322 54.8438 61.064 55.0744 61.0665C55.8226 61.074 56.5638 61.069 57.3085 61.069ZM57.6344 63.3451C58.2308 63.3451 58.8273 63.3537 59.4238 63.3451C59.6072 63.3482 59.7846 63.276 59.9184 63.1437C60.0521 63.0115 60.1317 62.8297 60.1402 62.6367C60.1473 62.2851 59.8343 61.9544 59.4426 61.9507C58.2402 61.9383 57.0367 61.9507 55.8332 61.9433C55.6462 61.9433 55.5685 62.03 55.5721 62.2231C55.5721 62.4708 55.5862 62.7185 55.5721 62.9661C55.5509 63.2547 55.6474 63.3698 55.9356 63.3599C56.4991 63.3327 57.0662 63.3451 57.6344 63.3451Z" fill="#54488A"/>
<path d="M64.452 63.8577C63.8355 63.8577 63.2179 63.8663 62.6014 63.8577C62.3661 63.8577 62.2673 63.9369 62.2744 64.1945C62.2873 64.6762 62.2744 65.1592 62.2803 65.6421C62.2803 65.8898 62.1755 65.9789 61.9579 65.9529C61.7579 65.9282 61.4556 66.0631 61.4591 65.6706C61.4685 64.727 61.4026 63.7821 61.4991 62.841C61.5481 62.365 61.7592 61.9238 62.0933 61.5989C62.4274 61.274 62.862 61.0875 63.3167 61.0739C64.0708 61.0565 64.8249 61.0578 65.579 61.0739C66.0736 61.0859 66.5447 61.2989 66.8935 61.6682C67.2424 62.0375 67.4421 62.5345 67.4507 63.0552C67.4731 63.9221 67.4507 64.7802 67.459 65.6421C67.459 65.9542 67.2837 65.9579 67.0731 65.9505C66.8625 65.943 66.6213 65.9963 66.6272 65.6372C66.6343 65.1542 66.6178 64.6712 66.6272 64.1895C66.6343 63.932 66.5366 63.8502 66.299 63.8539C65.6861 63.8676 65.0684 63.8577 64.452 63.8577ZM64.452 63.0329C65.0884 63.0329 65.7249 63.0329 66.3602 63.0329C66.5955 63.0329 66.6484 62.9326 66.5731 62.7085C66.4982 62.4833 66.3587 62.2883 66.1739 62.1503C65.989 62.0123 65.768 61.9382 65.5414 61.9382C64.8182 61.9308 64.0943 61.9308 63.3696 61.9382C63.148 61.941 62.9325 62.0154 62.7524 62.1514C62.5722 62.2874 62.4362 62.4784 62.3626 62.6986C62.2661 62.971 62.2991 63.028 62.5744 63.0292C63.1967 63.0366 63.8226 63.0342 64.4485 63.0342L64.452 63.0329Z" fill="#54488A"/>
<path d="M100.492 63.1543C100.492 63.7091 100.492 64.2688 100.492 64.8174C100.492 65.366 100.257 65.7227 99.7936 65.9146C99.3654 66.0917 98.9925 66 98.6407 65.5753C97.6937 64.4273 96.7584 63.267 95.8172 62.1079C95.7137 61.9779 95.6208 61.8355 95.4325 61.9024C95.2443 61.9692 95.2702 62.1612 95.2702 62.3209C95.2702 63.3983 95.2619 64.4769 95.2702 65.5542C95.2702 65.8391 95.1996 65.9654 94.9078 65.9542C94.4925 65.9381 94.4372 65.9195 94.4372 65.5604C94.4372 64.4719 94.4267 63.3834 94.4372 62.2949C94.4455 61.6014 94.6996 61.2114 95.2055 61.0566C95.3973 60.9868 95.605 60.9814 95.7999 61.041C95.9948 61.1007 96.1673 61.2225 96.2937 61.3897C97.0043 62.264 97.7133 63.1399 98.4207 64.0175C98.6619 64.3147 98.8983 64.6156 99.1419 64.9103C99.2371 65.0255 99.3371 65.1654 99.5101 65.0948C99.683 65.0242 99.6513 64.8657 99.6513 64.7233C99.6513 63.6344 99.6513 62.5463 99.6513 61.459C99.6513 61.0702 99.6642 61.0615 100.063 61.0615C100.462 61.0615 100.479 61.0739 100.481 61.4553C100.494 62.025 100.492 62.5896 100.492 63.1543Z" fill="#54488A"/>
<path d="M74.1624 63.1865C74.1624 63.7512 74.1624 64.3159 74.1624 64.8806C74.1726 65.1087 74.1114 65.334 73.9884 65.522C73.8654 65.7101 73.6873 65.8506 73.4813 65.922C73.0401 66.0855 72.6142 65.948 72.2989 65.5505C71.3774 64.4096 70.4539 63.2674 69.5284 62.124C69.5025 62.0931 69.4755 62.0633 69.4484 62.0336C69.3578 61.9296 69.2578 61.8503 69.1143 61.9098C68.9708 61.9692 68.9802 62.0993 68.9802 62.2243C68.9802 63.2918 68.9802 64.3596 68.9802 65.4279C68.9802 65.9233 68.7919 66.0706 68.3272 65.9356C68.2756 65.9229 68.2301 65.8907 68.1995 65.845C68.1689 65.7994 68.1554 65.7435 68.1614 65.688C68.1614 64.4756 68.1496 63.2645 68.1743 62.0534C68.1837 61.5581 68.4461 61.2064 68.919 61.0628C69.3625 60.9278 69.7613 61.0826 70.0884 61.49C71.0092 62.6359 71.9327 63.7785 72.8589 64.9177C72.9448 65.023 73.0307 65.1654 73.1966 65.1022C73.3624 65.0391 73.3295 64.8682 73.3307 64.7307C73.3307 63.6422 73.3307 62.5537 73.3307 61.4652C73.3307 61.0813 73.3495 61.0677 73.7471 61.0677C74.1448 61.0677 74.1589 61.0764 74.1601 61.4627C74.1636 62.0361 74.1624 62.6119 74.1624 63.1865Z" fill="#54488A"/>
<path d="M78.7058 65.9518C78.1482 65.9518 77.5893 65.9518 77.0305 65.9518C76.7753 65.9521 76.5226 65.8994 76.2867 65.7968C76.0508 65.6942 75.8365 65.5436 75.656 65.3537C75.4755 65.1638 75.3323 64.9383 75.2347 64.6901C75.1371 64.4419 75.0869 64.1759 75.087 63.9072C75.087 63.6199 75.087 63.3327 75.087 63.0404C75.1037 62.5207 75.3086 62.0274 75.6596 61.6615C76.0107 61.2957 76.4814 61.085 76.9752 61.0727C78.1517 61.0578 79.3281 61.0727 80.5046 61.0727C80.8269 61.0727 80.8575 61.116 80.8575 61.5148C80.8575 61.9135 80.8246 61.9395 80.4881 61.9408C79.3717 61.9408 78.2529 61.9408 77.1376 61.9408C76.3552 61.9408 75.9223 62.3965 75.9188 63.2175C75.9188 63.4528 75.9188 63.6893 75.9188 63.9258C75.9172 64.0784 75.9447 64.2297 75.9997 64.3708C76.0547 64.512 76.1361 64.64 76.239 64.7475C76.3419 64.8549 76.4643 64.9394 76.5988 64.9961C76.7334 65.0528 76.8774 65.0805 77.0223 65.0775C78.1587 65.0861 79.2952 65.0775 80.434 65.0775C80.5728 65.0775 80.7599 65.0156 80.8234 65.2013C80.8945 65.406 80.8924 65.6309 80.8175 65.8341C80.7646 65.9753 80.6187 65.9418 80.5046 65.9418C79.9011 65.953 79.3034 65.9518 78.7058 65.9518Z" fill="#54488A"/>
<path d="M87.1539 63.537C87.1539 64.2144 87.1539 64.8917 87.1539 65.5691C87.1539 65.9406 87.1339 65.9517 86.755 65.9517C86.3762 65.9517 86.3315 65.9233 86.3292 65.5555C86.3292 65.0527 86.3221 64.5487 86.3292 64.0459C86.3292 63.823 86.2527 63.7364 86.0362 63.7376C84.8998 63.7434 83.7625 63.7434 82.6245 63.7376C82.3892 63.7376 82.3222 63.8416 82.3269 64.0695C82.3363 64.5834 82.3151 65.0973 82.3339 65.61C82.3469 65.9567 82.1539 65.953 81.9198 65.9567C81.6857 65.9604 81.5375 65.9171 81.541 65.605C81.5543 64.209 81.5543 62.8125 81.541 61.4157C81.541 61.1036 81.6787 61.0628 81.9198 61.0665C82.161 61.0702 82.3504 61.0665 82.3339 61.412C82.3139 61.812 82.3339 62.2132 82.3269 62.6132C82.3269 62.8386 82.4057 62.9228 82.621 62.9215C83.7574 62.9157 84.8947 62.9157 86.0327 62.9215C86.2456 62.9215 86.3339 62.8398 86.3303 62.6144C86.3221 62.2033 86.3303 61.7922 86.3303 61.3761C86.3303 60.9909 86.595 61.0801 86.8092 61.064C87.0233 61.0479 87.1621 61.0962 87.1621 61.3761C87.1456 62.098 87.1539 62.8175 87.1539 63.537Z" fill="#54488A"/>
<path d="M102.264 65.496C102.264 65.9493 102.264 65.953 101.819 65.9518C101.396 65.9518 101.378 65.9319 101.378 65.4812C101.378 65.0304 101.392 65.0119 101.849 65.0131C102.265 65.0131 102.265 65.0131 102.264 65.496Z" fill="#54488A"/>
</svg>
