<svg width="128" height="128" viewBox="0 0 128 128" fill="none" xmlns="http://www.w3.org/2000/svg">
<rect width="128" height="128" fill="#103E60"/>
<path d="M67.8503 30.2909L65.5027 35.5503H63.3645L61.0161 30.2909L60.8664 29.8243L60.9095 30.3109L60.6618 37.3392C60.1335 37.3905 59.5943 37.4552 59.0534 37.5318C58.7517 37.5747 58.4499 37.6212 58.1497 37.6711L58.5314 27.262C59.0817 27.2012 59.6303 27.1485 60.1782 27.1046C60.799 27.0549 61.419 27.0165 62.039 26.99L64.3497 32.7309L64.432 33.1577L64.5143 32.7309L66.8274 26.99C67.9953 27.04 69.1624 27.1323 70.335 27.262L70.7167 37.6711C69.8788 37.5314 69.0276 37.4166 68.2046 37.3392L67.9576 30.3109L68 29.8243L67.8503 30.2909Z" fill="white"/>
<path d="M85.3749 46.8456C85.2432 46.696 85.1163 46.5557 85.0003 46.4309L87.6621 41.2912L87.9043 40.9618L87.5751 41.2038L82.4403 43.8686C82.3227 43.7612 82.1918 43.6436 82.0523 43.52C81.8728 43.3611 81.6784 43.192 81.4786 43.0215C81.2748 42.8481 81.0663 42.6735 80.8625 42.5067L80.5301 42.2381C80.4369 42.1636 80.3452 42.0921 80.2574 42.0247L85.7112 33.4395C86.2081 33.823 86.6369 34.1635 87.0468 34.5004C87.2773 34.6895 87.5022 34.8774 87.7295 35.0712L84.1294 40.5103L83.8081 40.882L84.2117 40.6052L89.0095 38.2024L90.7088 39.9015L88.3064 44.6969L88.0289 45.101L88.4013 44.7818L93.8425 41.1838C94.3544 41.7852 95.0379 42.6384 95.4666 43.1998L86.8744 48.6538C86.7592 48.5043 86.622 48.3311 86.4715 48.1455L86.263 47.8904L86.0631 47.6484L85.7943 47.3284C85.6524 47.1624 85.5105 46.9992 85.3749 46.8456Z" fill="white"/>
<path fill-rule="evenodd" clip-rule="evenodd" d="M47.2812 39.188C48.6388 40.7649 47.8699 42.4166 46.5131 43.8463L45.3773 45.0379C44.1021 46.3751 43.0823 47.4456 41.1761 49.5548L33.8434 42.5988C34.2071 42.1238 34.697 41.5156 35.1963 40.9146L35.4259 40.6398L35.7669 40.237C36.0365 39.9199 36.296 39.6213 36.5256 39.3652C39.1953 36.3886 40.1759 35.518 41.4504 35.3882C42.1339 35.3183 42.8103 35.4805 43.3496 35.9171C44.4548 36.8128 44.3576 38.1103 44.2047 38.5169L44.1726 38.6068L44.2753 38.5668C45.3029 38.1451 46.5429 38.3323 47.2812 39.188ZM40.7018 38.0503C40.3609 38.3611 39.8232 38.8992 39.1938 39.574C38.5087 40.3079 37.7139 41.2036 36.945 42.1446L38.3668 43.4994C38.3668 43.4994 41.2309 40.5029 42.0116 39.6223C42.3588 39.2329 42.6708 38.7614 42.5587 38.2649C42.5023 38.0193 42.3518 37.8114 42.155 37.6807C41.956 37.5483 41.7106 37.4948 41.4684 37.5614C41.1714 37.6411 40.9268 37.8457 40.7018 38.0503ZM43.5165 40.9769C42.6057 41.92 39.8161 44.8692 39.8161 44.8692L41.303 46.2789L45.0011 42.3217C45.1696 42.1397 45.3593 41.9243 45.5051 41.6913C45.6054 41.5314 45.6846 41.3631 45.7222 41.1915C45.799 40.8372 45.6572 40.4805 45.3475 40.2734C45.0332 40.0637 44.6813 40.0963 44.3599 40.2534C44.1099 40.3757 43.8779 40.6028 43.5165 40.9769Z" fill="white"/>
<path d="M89.5989 64.4347H64.4344V39.2703C78.3417 39.2703 89.5989 50.5278 89.5989 64.4347Z" fill="white"/>
<path d="M64.4344 64.4347V89.5991C50.527 89.5991 39.2698 78.3418 39.2698 64.4347H64.4344Z" fill="white"/>
<path fill-rule="evenodd" clip-rule="evenodd" d="M64.4344 22C40.9989 22 21.9999 40.9992 21.9999 64.4347C21.9999 87.8702 40.9989 106.869 64.4344 106.869C87.8698 106.869 106.87 87.8702 106.87 64.4347C106.87 40.9992 87.8698 22 64.4344 22ZM104.11 64.4347C104.11 86.3456 86.3484 104.11 64.4344 104.11C42.5211 104.11 24.7597 86.3456 24.7597 64.4347C24.7597 42.5238 42.5234 24.7594 64.4344 24.7594C86.3453 24.7594 104.11 42.5238 104.11 64.4347Z" fill="white"/>
<path d="M64.4345 64.4346V39.2703C50.5271 39.2703 39.2699 50.5277 39.2699 64.4346H64.4345Z" fill="#0066B1"/>
<path d="M64.4345 64.4346H89.599C89.599 78.3418 78.3418 89.599 64.4345 89.599V64.4346Z" fill="#0066B1"/>
</svg>
