<svg width="128" height="128" viewBox="0 0 128 128" fill="none" xmlns="http://www.w3.org/2000/svg">
<rect width="128" height="128" fill="white"/>
<rect width="128" height="128" fill="#0C3B7C"/>
<path d="M53.2527 87.05L41.5475 87.0383V73.0193C41.5475 70.024 42.7075 68.465 45.2666 68.1088H53.2528C58.948 68.1088 62.6322 71.7056 62.6322 77.5268C62.6322 83.5058 59.0412 87.0442 53.2527 87.05ZM41.5475 49.2378V45.5477C41.5475 42.3188 42.9115 40.7832 45.902 40.5847H51.8945C57.0302 40.5847 60.1081 43.6617 60.1081 48.8174C60.1081 52.7411 57.9978 57.3246 52.0811 57.3246H41.5475V49.2378ZM68.1991 63.2276L66.0831 62.0365L67.9311 60.4542C70.082 58.6032 73.6846 54.4402 73.6846 47.2584C73.6846 36.2581 65.1679 29.1639 51.9878 29.1639H36.9481V29.1581H35.2343C31.3287 29.3041 28.1983 32.4862 28.1575 36.4216V98.8386H52.2851C66.9342 98.8386 76.3894 90.851 76.3894 78.4786C76.3894 71.8165 73.3348 66.1236 68.1991 63.2276Z" fill="white"/>
<path d="M82.6731 90.2163C82.6731 85.4482 86.5125 81.5907 91.2429 81.5907C95.9853 81.5907 99.8425 85.4482 99.8425 90.2163C99.8425 94.9784 95.9852 98.842 91.2428 98.842C86.5125 98.842 82.6731 94.9784 82.6731 90.2163Z" fill="#00BAFC"/>
</svg>
