<svg width="128" height="128" viewBox="0 0 128 128" fill="none" xmlns="http://www.w3.org/2000/svg">
<rect width="128" height="128" fill="#EC1B24"/>
<path fill-rule="evenodd" clip-rule="evenodd" d="M53.8295 63.9889C53.8295 70.5313 50.0801 75.6603 43.596 75.6603C37.1407 75.6603 33.3589 70.5313 33.3589 63.9889C33.3589 57.479 37.1407 52.3176 43.5924 52.3176C50.0801 52.3176 53.8295 57.479 53.8295 63.9889ZM48.3529 63.9889C48.3529 60.5037 46.7553 57.6762 43.596 57.6762C40.4331 57.6762 38.8679 60.5037 38.8679 63.9889C38.8679 67.5066 40.4331 70.3338 43.596 70.3338C46.7553 70.3338 48.3529 67.5066 48.3529 63.9889Z" fill="white"/>
<path fill-rule="evenodd" clip-rule="evenodd" d="M31.3224 68.9196C31.3224 72.6683 27.868 75.1342 24.3777 75.1342H13V52.8753H23.4314C27.4434 52.8753 30.3436 54.8796 30.3436 58.9909C30.3436 62.5093 27.2815 63.5611 27.2815 63.5611C27.2815 63.5637 27.3072 63.572 27.3546 63.5873C27.9005 63.7633 31.3224 64.8664 31.3224 68.9196ZM25.3888 68.2953C25.3888 67.0129 24.4425 66.1256 22.4562 66.1256H18.4766V70.4985H22.5534C24.2158 70.4985 25.3888 69.9066 25.3888 68.2953ZM24.6728 59.6163C24.6728 58.3666 23.8236 57.5117 22.5534 57.5117H18.4766V61.6544H22.4562C23.8883 61.6544 24.6728 60.6026 24.6728 59.6163Z" fill="white"/>
<path d="M64.3437 75.6603C68.5141 75.6603 72.9471 73.293 72.9471 68.3939C72.9471 63.2657 69.115 62.288 65.9413 61.622L65.1569 61.4572C63.2606 61.0585 61.7673 60.5695 61.7673 59.2216C61.7673 57.742 63.203 57.1501 64.4732 57.1501C66.3299 57.1501 67.9599 58.0705 69.0358 59.2216L72.4937 55.8007C70.9285 54.0268 68.3521 52.3176 64.376 52.3176C59.6803 52.3176 56.1252 54.948 56.1252 59.3202C56.1252 63.2984 59.0074 65.2901 62.5157 66.027L63.2966 66.1911C66.2112 66.8031 67.2762 67.2436 67.2762 68.657C67.2762 69.9725 66.0708 70.8602 64.2789 70.8602C62.0947 70.8602 60.1373 69.9066 58.6368 67.9992L55.0853 71.4848C57.0392 73.819 59.5184 75.6603 64.3437 75.6603Z" fill="white"/>
<path d="M94.1191 70.8271C91.8378 74.1148 89.7185 75.6603 85.3178 75.6603C79.0604 75.6603 75.016 70.4655 75.016 63.8572C75.016 57.5776 78.6682 52.35 85.3826 52.35C89.0672 52.35 91.7083 53.7965 93.9572 57.1832L89.4594 60.1751C88.5454 58.5966 87.3724 57.6762 85.4149 57.6762C82.9393 57.6762 80.5573 59.8909 80.5573 63.8572C80.5573 68.3018 83.1337 70.3338 85.5805 70.3338C87.6962 70.3338 88.675 69.2816 89.5889 67.7693L94.1191 70.8271Z" fill="white"/>
<path d="M109.131 75.1342H115V52.8753H109.131V61.0625H102.381V52.8753H96.5481V75.1342H102.381V66.3559H109.131V75.1342Z" fill="white"/>
</svg>
