<svg width="128" height="128" viewBox="0 0 128 128" fill="none" xmlns="http://www.w3.org/2000/svg">
<rect width="128" height="128" fill="#94263B"/>
<path fill-rule="evenodd" clip-rule="evenodd" d="M95.7238 61.6606C102.488 62.9155 101.502 69.0057 97.4717 69.3192C96.2168 69.7229 92.6791 68.9164 92.7675 64.8857H89.5424C89.0503 68.6485 92.1852 72.5443 97.2029 72.2755C103.473 72.5443 106.43 64.3927 101.593 60.5862C99.1731 59.4215 100.338 59.8243 95.2317 57.9424C91.8717 56.8234 93.081 51.9415 96.6205 52.1201C98.4568 52.0308 99.8456 52.9266 100.159 55.6587H103.473C103.966 49.881 96.1275 46.4317 91.2894 51.3592C89.6326 53.5982 88.2438 59.4662 95.7238 61.6606Z" fill="white"/>
<path fill-rule="evenodd" clip-rule="evenodd" d="M42.5374 75.8457H24.0983V79.1174H44.2602L46.9309 74.2857L45.2546 70.6885L42.5374 75.8457Z" fill="white"/>
<path fill-rule="evenodd" clip-rule="evenodd" d="M50.7174 72.0085L46.4942 63.1155C52.4514 62.4894 53.8756 50.5527 45.8133 49.7918H37.7509L37.7946 71.7388H41.1546V52.7471H44.603C48.6793 52.6132 50.4263 59.5108 45.0514 60.362H41.4681L50.47 79.1248H52.4337V79.1174H103.999V75.8457H52.7388L50.7174 72.0085Z" fill="white"/>
<path fill-rule="evenodd" clip-rule="evenodd" d="M57.5861 55.0026L57.5926 62.2426L53.5656 62.2445L57.5861 55.0026ZM50.12 68.3979L51.9489 65.1728L57.5926 65.1989V71.7831H60.7284V49.7914H56.921L48.5135 64.9579L50.12 68.3979Z" fill="white"/>
<path fill-rule="evenodd" clip-rule="evenodd" d="M30.6288 68.9161H27.2242V61.9747C27.2242 61.9747 28.7916 62.0185 30.2707 61.9747C35.9144 61.7506 35.5107 69.2306 30.6288 68.9161ZM27.2242 52.6576C27.2242 52.6576 28.7916 52.7478 30.2707 52.6576C33.8986 52.3887 35.0186 58.839 30.1358 59.0632H27.2242V52.6576ZM34.3014 60.1822C38.6465 57.0473 36.6307 49.9255 31.1665 49.7915H24V71.7832H31.0763C36.6754 72.4557 40.7963 64.2585 34.3014 60.1822Z" fill="white"/>
<path fill-rule="evenodd" clip-rule="evenodd" d="M69.3275 68.9161H65.9237V61.9747C65.9237 61.9747 67.4912 62.0185 68.9693 61.9747C74.614 61.7506 74.2103 69.2306 69.3275 68.9161ZM65.9237 52.6576C65.9237 52.6576 67.4912 52.7478 68.9693 52.6576C72.5982 52.3887 73.7172 58.839 68.8354 59.0632H65.9237V52.6576ZM73.0001 60.1822C77.3452 57.0473 75.3294 49.9255 69.8652 49.7915H62.6987V71.7832H69.7749C75.3749 72.4557 79.4959 64.2585 73.0001 60.1822Z" fill="white"/>
<path fill-rule="evenodd" clip-rule="evenodd" d="M80.3913 71.7832H83.5262V62.6464L89.7969 49.7915H86.3029L81.9597 58.9283L77.3457 49.7915H73.8071L80.3913 62.6464V71.7832Z" fill="white"/>
</svg>
