<svg width="128" height="128" viewBox="0 0 128 128" fill="none" xmlns="http://www.w3.org/2000/svg">
<rect width="128" height="128" fill="black"/>
<path d="M72.1941 59.0149V61.7715C72.7788 61.565 73.3811 61.4103 73.9937 61.3094C75.4056 61.1979 76.2877 61.7715 76.5558 63.145C76.7348 64.0688 76.7194 65.019 76.5106 65.9366C76.1875 67.3133 74.8758 68.0463 73.4348 67.9443C72.4655 67.8774 71.4962 67.8455 70.5269 67.7945C70.3718 67.7945 70.2038 67.7722 69.9583 67.7531V66.0928C69.9583 63.9831 69.9809 61.8735 69.9583 59.7638C69.9583 59.1647 70.136 58.9544 70.7337 59.0086C71.1731 59.0468 71.6287 59.0149 72.1941 59.0149ZM72.1941 64.7193C72.2135 65.0079 72.2135 65.2975 72.1941 65.5861C72.0874 66.335 72.5172 66.4242 73.1149 66.3637C73.7611 66.2936 74.291 65.9749 74.4073 65.3598C74.5462 64.63 74.7497 63.7664 74.0357 63.2342C73.69 62.9825 73.0374 63.0335 72.5559 63.1227C72.3847 63.1514 72.2845 63.6899 72.207 64.0118C72.1717 64.2514 72.1652 64.4942 72.1876 64.7352L72.1941 64.7193Z" fill="white"/>
<path d="M9 67.6962V59.0217C9.59239 58.9996 10.1855 59.0081 10.777 59.0472C10.9386 59.0632 11.1389 59.3882 11.1518 59.5794C11.1938 60.3092 11.1518 61.0453 11.1518 61.8102C11.6794 61.601 12.2256 61.4409 12.7834 61.3321C14.3537 61.1728 15.3004 61.7751 15.5427 63.2984C15.6893 64.2725 15.6254 65.2662 15.3553 66.2143C15.0322 67.3711 13.8658 68.0116 12.6736 67.9575C11.4814 67.9033 10.2924 67.7822 9 67.6962ZM11.168 64.6878C11.1857 64.9754 11.1857 65.2638 11.168 65.5515C11.0613 66.3386 11.5169 66.4374 12.1373 66.3545C12.4346 66.3408 12.719 66.2306 12.9463 66.041C13.1736 65.8514 13.331 65.593 13.3941 65.3061C13.5556 64.5827 13.6849 63.7573 13.0387 63.2538C12.7156 62.9925 12.0468 63.0307 11.5621 63.1072C11.3877 63.1422 11.2617 63.6649 11.1809 63.9804C11.1474 64.2148 11.1431 64.4524 11.168 64.6878Z" fill="white"/>
<path d="M99.7411 67.7563H97.5279C97.5279 66.5454 97.5279 65.3663 97.5279 64.1871C97.5118 63.1865 96.9431 62.8105 95.9932 63.1164C95.8104 63.1499 95.6477 63.2519 95.5393 63.4009C95.4309 63.55 95.3852 63.7347 95.4117 63.9163C95.444 65.175 95.4117 66.437 95.4117 67.7404H93.1855V66.574C93.1855 64.3051 93.2082 62.0361 93.1855 59.7703C93.1855 59.1775 93.3503 58.9513 93.9577 59.0086C94.4036 59.05 94.8624 59.0086 95.3858 59.0086V61.7971C96.1257 61.6122 96.801 61.3445 97.4892 61.2999C98.8009 61.2298 99.6184 61.8672 99.7153 63.1419C99.8251 64.6652 99.7411 66.1948 99.7411 67.7563Z" fill="white"/>
<path d="M45.8003 59.0213C46.3678 58.9928 46.9366 59.0014 47.503 59.0468C47.6742 59.0692 47.9166 59.4006 47.9295 59.6045C47.9844 60.3375 47.9521 61.0768 47.9521 61.7556C48.6839 61.5475 49.4316 61.3982 50.1879 61.3095C51.3608 61.2585 52.1265 61.8767 52.1879 63.0176C52.2848 64.5632 52.2137 66.1183 52.2137 67.7308H50.0975C50.0975 67.0935 50.0975 66.4051 50.0975 65.7327C50.0975 65.1527 50.0975 64.5695 50.0619 63.9927C50.007 63.3554 49.6904 62.973 48.9602 63.0367C48.23 63.1004 47.9004 63.3554 47.9392 64.117C48.0006 65.2993 47.9392 66.4848 47.9392 67.7308H45.8003V59.0213Z" fill="white"/>
<path d="M112.594 59.0183C113.15 59.0183 113.68 59.0183 114.209 59.0183C114.649 59.0183 114.755 59.2191 114.746 59.6047C114.73 60.3408 114.746 61.077 114.746 61.7143C115.56 61.5322 116.386 61.4034 117.217 61.3287C117.642 61.297 118.062 61.4318 118.386 61.7039C118.711 61.9761 118.913 62.3635 118.949 62.7819C119.043 64.4263 118.978 66.0802 118.978 67.766H116.891C116.891 67.0936 116.891 66.4212 116.891 65.7456C116.891 65.1656 116.891 64.5856 116.859 64.0088C116.804 63.3715 116.497 62.9795 115.763 63.0528C115.03 63.1261 114.694 63.346 114.733 64.1267C114.794 65.3281 114.733 66.5359 114.733 67.7756H112.584L112.594 59.0183Z" fill="white"/>
<path d="M28.8865 67.7434C27.1289 67.8996 26.9189 67.8645 26.7379 67.5427C25.955 67.7172 25.1619 67.8439 24.3632 67.9219C23.9169 67.9392 23.4792 67.7973 23.1303 67.5222C22.7814 67.2472 22.5446 66.8573 22.4634 66.4241C22.2275 65.4681 22.5797 64.5566 23.4779 64.1742C24.1261 63.946 24.7962 63.7837 25.4779 63.6898C25.8623 63.6102 26.2598 63.6006 26.7702 63.5496C26.3567 62.6892 25.6297 62.7497 25.0158 62.7848C24.3594 62.8697 23.7111 63.0072 23.0773 63.1959C23.0449 63.1394 23.0189 63.0795 22.9997 63.0174C22.864 61.5228 22.9997 61.3507 24.5215 61.322C25.4282 61.2954 26.3357 61.339 27.2355 61.4527C27.686 61.4813 28.108 61.6801 28.4137 62.0078C28.7193 62.3354 28.8852 62.7666 28.8768 63.2118C28.9253 64.7032 28.8865 66.1978 28.8865 67.7434ZM26.6248 64.8976C26.1369 64.9333 25.6546 65.0231 25.1871 65.1653C25.0469 65.2403 24.9267 65.347 24.8363 65.4766C24.7459 65.6062 24.6878 65.7551 24.6669 65.911C24.6669 66.0959 25.0578 66.3922 25.3131 66.456C26.2791 66.6918 26.7929 66.1022 26.6248 64.8976Z" fill="white"/>
<path d="M60.3527 65.0889H55.8907C55.8552 65.8601 56.3657 66.1692 56.9085 66.2903C57.4581 66.408 58.0262 66.4155 58.5789 66.3126C59.1652 66.1492 59.7359 65.936 60.2848 65.6752C60.3049 66.1883 60.2984 66.702 60.2654 67.2144C60.2333 67.3042 60.1812 67.3856 60.113 67.4529C60.0448 67.5202 59.9622 67.5716 59.8713 67.6032C58.4976 68.0923 56.9977 68.1147 55.6096 67.667C54.1299 67.1666 53.377 65.8824 53.5741 64.2954C53.7938 62.549 54.776 61.4942 56.3624 61.2998C56.4949 61.2998 56.6306 61.2998 56.7631 61.2743C59.4318 61.0735 60.6564 62.3291 60.3527 65.0889ZM55.8293 63.6867H58.133C58.1912 62.9633 57.7776 62.7051 57.1831 62.6733C56.524 62.635 55.9844 62.8231 55.8487 63.6867H55.8293Z" fill="white"/>
<path d="M32.9091 61.762C33.5543 61.5511 34.2171 61.3964 34.8897 61.3C36.2338 61.2235 37.0544 61.8927 37.1514 63.212C37.2483 64.7003 37.174 66.2012 37.174 67.7405H34.9349C34.9349 66.5199 34.9349 65.3153 34.9349 64.1139C34.9349 63.2248 34.4309 62.8647 33.5715 63.0527C33.0868 63.161 32.7896 63.3714 32.8122 63.9609C32.8639 65.1942 32.8122 66.4307 32.8122 67.7245H30.6475V61.4561C31.4261 61.6027 32.2629 61.096 32.9091 61.762Z" fill="white"/>
<path d="M64.0102 61.8352C64.4682 61.6213 64.9451 61.4496 65.4351 61.3222C67.1669 61.0449 68.1362 61.7588 68.2395 63.4796C68.3268 64.8882 68.2589 66.3063 68.2589 67.7595H66.0683C66.0683 67.1221 66.0683 66.4848 66.0683 65.8283C66.0683 65.1718 66.0683 64.5536 66.0199 63.9353C65.9714 63.3171 65.5675 62.9634 64.8697 63.0398C64.1718 63.1163 63.8713 63.3585 63.9004 64.0947C63.9618 65.2961 63.9165 66.5039 63.9165 67.7531H61.7744V61.5707C62.8342 61.2807 63.7227 61.3923 64.0102 61.8352Z" fill="white"/>
<path d="M82.4201 61.4816C82.7206 61.4816 82.8789 61.4497 83.0405 61.4497C83.5219 61.4497 84.0098 61.4497 84.5526 61.4497V67.6862C83.412 67.9603 82.614 67.8551 82.4007 67.5428C81.609 67.7224 80.8059 67.8491 79.9969 67.9221C79.7734 67.9394 79.5487 67.9122 79.336 67.8422C79.1233 67.7722 78.9271 67.6608 78.759 67.5146C78.5908 67.3683 78.4541 67.1903 78.3571 66.9909C78.2601 66.7916 78.2046 66.575 78.194 66.3542C78.1068 64.7608 78.1682 63.1674 78.1682 61.4911H80.2683C80.2683 62.6607 80.2425 63.8143 80.2683 64.9647C80.2942 65.9208 80.7077 66.3064 81.5187 66.1885C82.1197 66.0992 82.4654 65.8698 82.4298 65.1559C82.3749 63.9641 82.4201 62.7531 82.4201 61.4816Z" fill="white"/>
<path d="M111.224 63.6932C110.112 63.0973 109.017 62.1827 107.899 63.4415C107.35 64.0597 107.343 65.2356 107.899 65.8029C109.017 66.9756 110.122 66.249 111.172 65.5989C111.76 66.9501 111.418 67.7372 110.083 67.8838C109.182 67.9864 108.27 67.9248 107.392 67.7022C105.809 67.2847 105.053 65.822 105.305 63.9991C105.41 63.2744 105.769 62.6089 106.32 62.1178C106.87 61.6266 107.578 61.3407 108.319 61.3095C108.75 61.2837 109.181 61.2837 109.612 61.3095C111.25 61.3796 111.644 61.9086 111.224 63.6932Z" fill="white"/>
<path d="M92.0354 65.4682C92.0666 65.9906 92.0602 66.5145 92.016 67.0361C91.9893 67.1615 91.9353 67.2798 91.8578 67.3827C91.7803 67.4855 91.681 67.5706 91.5669 67.632C90.958 67.8802 90.3048 68.0052 89.646 67.9998C88.9873 67.9943 88.3363 67.8584 87.7318 67.6001C86.4232 67.0807 85.7318 65.6594 85.9612 64.1233C86.1971 62.5299 87.2536 61.4592 88.869 61.3317C89.6694 61.3088 90.47 61.3621 91.2599 61.491C91.3864 61.4906 91.5113 61.5195 91.6244 61.5753C91.7375 61.6312 91.8358 61.7124 91.9112 61.8126C91.9866 61.9127 92.0372 62.0289 92.0588 62.1519C92.0803 62.2748 92.0723 62.401 92.0354 62.5204C92.0084 62.9162 92.0084 63.3133 92.0354 63.709C91.638 63.5019 91.3698 63.3904 91.1146 63.231C90.3553 62.7817 89.3569 62.7307 88.8529 63.1291C88.3489 63.5274 88.0904 64.5217 88.3295 65.3152C88.6526 66.3732 89.9191 66.7333 91.0564 66.0832C91.3084 65.9302 91.5637 65.7613 92.0354 65.4682Z" fill="white"/>
<path d="M44.5081 63.7473C43.2933 63.094 42.2303 62.2368 41.106 63.3872C40.5729 63.9385 40.5341 65.1909 41.0219 65.7518C42.1399 67.0265 43.2836 66.1916 44.4985 65.5415C44.4985 66.2107 44.5308 66.727 44.4791 67.24C44.4791 67.3866 44.24 67.5587 44.072 67.6352C43.4383 67.8916 42.7575 68.0152 42.0728 67.9982C41.3881 67.9812 40.7145 67.8239 40.0947 67.5364C38.7506 66.9309 38.1561 65.4299 38.505 63.7473C38.6545 63.0852 39.0197 62.4897 39.5449 62.0517C40.07 61.6137 40.7261 61.3575 41.4129 61.3222C42.1324 61.308 42.8518 61.3495 43.5647 61.4465C44.3111 61.5198 44.6406 61.9213 44.5081 62.6766C44.4842 63.0331 44.4842 63.3908 44.5081 63.7473Z" fill="white"/>
<path d="M21.8042 63.3872C21.1063 63.4255 20.4731 63.4701 19.8398 63.4988C19.3875 63.5179 19.2647 63.7473 19.2744 64.1648C19.297 65.3439 19.2744 66.523 19.2744 67.7499H17.1775V61.507H19.2388L19.3261 62.1444C19.696 61.9246 20.084 61.7359 20.486 61.5803C20.9199 61.4867 21.3607 61.427 21.8042 61.4019V63.3872Z" fill="white"/>
<path d="M101.618 67.7499V65.5415H103.786V67.7499H101.618Z" fill="white"/>
</svg>
