<svg width="128" height="128" viewBox="0 0 128 128" fill="none" xmlns="http://www.w3.org/2000/svg">
<rect width="128" height="128" fill="#1A426B"/>
<path d="M41.4621 58.9402V58.7207C42.011 58.6109 42.1208 58.6109 42.1208 57.9522V54.9881L40.474 58.9402H40.2544L38.7175 55.0978L38.4979 56.9641C38.4979 57.6228 38.4979 57.9522 38.4979 58.1718C38.4979 58.5011 38.7175 58.6109 39.1566 58.6109V58.8305H37.2903V58.6109C37.7294 58.6109 37.8392 58.3913 37.949 58.1718C37.949 57.9522 38.0588 57.5131 38.0588 56.7446L38.1686 55.2076C38.2783 54.3294 38.1686 54.2196 37.5099 54.2196V54H39.0468L40.474 57.2935L42.011 54H43.5479V54.2196C42.8892 54.3294 42.8892 54.3294 42.8892 54.9881L42.999 57.8424C42.999 58.5011 42.999 58.6109 43.6577 58.6109V58.8305H41.4621V58.9402Z" fill="white"/>
<path d="M46.9511 58.7207C47.3902 58.6109 47.3902 58.6109 47.2804 58.2816C47.1707 58.062 47.0609 57.7326 46.9511 57.4033H45.5239C45.4141 57.6229 45.3043 57.9522 45.3043 58.1718C45.1946 58.5011 45.1946 58.6109 45.7435 58.7207V58.9403H44.0967V58.7207C44.6456 58.6109 44.6456 58.6109 44.975 57.9522L46.512 54.1098L46.9511 54C47.3902 55.3174 47.9391 56.6348 48.3783 57.9522C48.5978 58.6109 48.7076 58.7207 49.2565 58.8305V59.05H46.9511V58.7207ZM46.2924 55.3174C46.0728 55.8663 45.8533 56.4152 45.6337 56.9642H46.8413L46.2924 55.3174Z" fill="white"/>
<path d="M54.7457 54.329C54.3066 54.329 54.1968 54.4388 54.087 54.7681C54.087 54.9877 53.9772 55.317 53.9772 55.9757V58.9399H53.6479L50.574 55.2073V56.9638C50.574 57.6225 50.574 57.9518 50.6837 58.1714C50.6837 58.5008 50.9033 58.6105 51.4522 58.7203V58.9399H49.4761V58.7203C49.9153 58.7203 50.025 58.6105 50.1348 58.2812C50.1348 58.0616 50.2446 57.7323 50.2446 57.0736V55.5366C50.2446 55.0975 50.2446 54.8779 50.1348 54.7681C50.025 54.5486 49.8055 54.5486 49.4761 54.5486V54.329H50.9033L53.7577 57.6225V56.3051C53.7577 55.6464 53.7577 55.317 53.6479 55.0975C53.6479 54.7681 53.4283 54.6583 52.8794 54.6583V54.4388H54.7457V54.329Z" fill="white"/>
<path d="M60.3449 54.329C59.9057 54.329 59.7959 54.4388 59.6862 54.7681C59.6862 54.9877 59.5764 55.317 59.5764 55.9757V58.9399H59.3568L56.1731 55.2073V56.9638C56.1731 57.6225 56.1731 57.9518 56.2829 58.1714C56.2829 58.5008 56.5025 58.6105 57.0514 58.7203V58.9399H55.1851V58.7203C55.6242 58.7203 55.734 58.6105 55.8438 58.2812C55.8438 58.0616 55.9535 57.7323 55.9535 57.0736V55.5366C55.9535 55.0975 55.9535 54.8779 55.8438 54.7681C55.734 54.5486 55.5144 54.5486 55.1851 54.5486V54.329H56.6122L59.4666 57.6225V56.3051C59.4666 55.6464 59.4666 55.317 59.3568 55.0975C59.3568 54.7681 59.1372 54.6583 58.5883 54.6583V54.4388H60.4547V54.329H60.3449Z" fill="white"/>
<path d="M66.1632 54.3294C65.6142 54.3294 65.5045 54.4392 65.5045 55.0979V58.062C65.5045 58.7207 65.6142 58.7207 66.1632 58.8305V59.0501H63.7479V58.8305C64.4066 58.8305 64.4066 58.7207 64.4066 58.062V56.6348H62.3207V58.062C62.3207 58.7207 62.4305 58.7207 62.9794 58.8305V59.0501H60.674V58.8305C61.2229 58.8305 61.3327 58.7207 61.3327 58.062V55.2076C61.3327 54.5489 61.2229 54.5489 60.674 54.4392V54.2196H62.9794V54.4392C62.4305 54.4392 62.3207 54.5489 62.3207 55.2076V56.3055H64.4066V55.2076C64.4066 54.5489 64.2968 54.5489 63.7479 54.4392V54.2196H66.0534V54.3294H66.1632Z" fill="white"/>
<path d="M70.6643 57.7326C70.6643 58.062 70.4447 58.7207 70.4447 58.9403H66.6023V58.7207C67.261 58.7207 67.3708 58.6109 67.3708 57.9522V55.0978C67.3708 54.4391 67.261 54.4391 66.7121 54.3294V54.1098H70.2252C70.2252 54.2196 70.2252 54.7685 70.3349 55.2076H70.1154C70.0056 54.9881 69.8958 54.6587 69.786 54.5489C69.6762 54.4391 69.4567 54.3294 69.0175 54.3294H68.6882C68.3588 54.3294 68.3588 54.3294 68.3588 54.5489V56.1957H68.9077C69.5664 56.1957 69.6762 56.1957 69.786 55.6468H70.0056V57.1837H69.786C69.6762 56.6348 69.5664 56.6348 68.9077 56.6348H68.3588V57.9522C68.3588 58.2816 68.3588 58.5011 68.5784 58.6109C68.6882 58.7207 69.0175 58.7207 69.2371 58.7207C69.6762 58.7207 69.8958 58.7207 70.1154 58.5011C70.2252 58.2816 70.4447 58.062 70.5545 57.7326H70.6643Z" fill="white"/>
<path d="M71.1035 58.9403V58.7207C71.6524 58.7207 71.7622 58.6109 71.7622 57.9522V55.0978C71.7622 54.4391 71.6524 54.4391 71.1035 54.3294V54.1098H73.409V54.3294C72.86 54.3294 72.7503 54.4391 72.7503 55.0978V57.9522C72.7503 58.6109 72.86 58.6109 73.409 58.7207V58.9403H71.1035Z" fill="white"/>
<path d="M77.9102 58.9403V58.7207C78.4591 58.6109 78.5689 58.6109 78.5689 57.9522V54.9881L76.9221 58.9403H76.7025L75.1656 55.0978L74.946 56.9642C74.946 57.6229 74.946 57.9522 74.946 58.1718C74.946 58.5011 75.1656 58.6109 75.6047 58.6109V58.8305H73.7384V58.6109C74.1775 58.6109 74.2873 58.3913 74.3971 58.1718C74.3971 57.9522 74.5069 57.5131 74.5069 56.7446L74.6166 55.2076C74.7264 54.3294 74.6166 54.2196 73.958 54.2196V54H75.4949L76.9221 57.2935L78.4591 54H79.996V54.2196C79.3373 54.3294 79.3373 54.3294 79.3373 54.9881L79.4471 57.8424C79.4471 58.5011 79.4471 58.6109 80.1058 58.6109V58.8305H77.9102V58.9403Z" fill="white"/>
<path d="M84.7167 57.7326C84.7167 58.062 84.4971 58.7207 84.4971 58.9403H80.6547V58.7207C81.3134 58.7207 81.4232 58.6109 81.4232 57.9522V55.0978C81.4232 54.4391 81.3134 54.4391 80.7645 54.3294V54.1098H84.2775C84.2775 54.2196 84.2775 54.7685 84.3873 55.2076H84.1677C84.058 54.9881 83.9482 54.6587 83.8384 54.5489C83.7286 54.4391 83.509 54.3294 83.0699 54.3294H82.7406C82.4112 54.3294 82.4112 54.3294 82.4112 54.5489V56.1957H82.9601C83.6188 56.1957 83.7286 56.1957 83.8384 55.6468H84.058V57.1837H83.8384C83.7286 56.6348 83.6188 56.6348 82.9601 56.6348H82.4112V57.9522C82.4112 58.2816 82.4112 58.5011 82.6308 58.6109C82.7406 58.7207 83.0699 58.7207 83.2895 58.7207C83.7286 58.7207 83.9482 58.7207 84.1677 58.5011C84.2775 58.2816 84.4971 58.062 84.6069 57.7326H84.7167Z" fill="white"/>
<path d="M89.7668 59.05C89.7668 59.05 89.657 59.05 89.5472 59.05C88.5592 59.05 88.3396 58.8305 88.0103 58.2816C87.7907 57.9522 87.5711 57.5131 87.3516 57.1837C87.2418 56.9642 87.132 56.8544 86.8026 56.8544H86.6929V57.9522C86.6929 58.6109 86.8026 58.6109 87.3516 58.7207V58.9403H85.0461V58.7207C85.595 58.7207 85.7048 58.6109 85.7048 57.9522V55.0978C85.7048 54.4391 85.595 54.4391 85.0461 54.3294V54.1098H87.132C87.7907 54.1098 88.2298 54.2196 88.4494 54.4391C88.7787 54.6587 88.9983 54.9881 88.9983 55.4272C88.9983 56.0859 88.5592 56.4152 88.0103 56.6348C88.12 56.8544 88.4494 57.4033 88.669 57.7326C88.8885 58.1718 89.1081 58.3913 89.2179 58.5011C89.4374 58.7207 89.5472 58.7207 89.657 58.8305L89.7668 59.05ZM86.9124 56.525C87.2418 56.525 87.4613 56.525 87.6809 56.3055C87.9005 56.0859 88.0103 55.7565 88.0103 55.4272C88.0103 54.6587 87.5711 54.3294 87.132 54.3294C86.9124 54.3294 86.8026 54.3294 86.8026 54.4391C86.8026 54.4391 86.6929 54.5489 86.6929 54.7685V56.6348H86.9124V56.525Z" fill="white"/>
<path d="M31.943 74.3474V73.6842C33.4352 73.5184 33.601 73.3526 33.5181 71.5287V63.8189H33.4352L28.9585 74.2645H28.3782L24.3161 63.9847H24.2332L23.9845 69.2075C23.9016 70.8655 23.9016 71.8604 23.9845 72.4407C24.0674 73.3526 24.4819 73.5184 25.8083 73.6842V74.3474H21V73.6842C22.1606 73.6013 22.4922 73.1868 22.658 72.5236C22.7409 71.8604 22.9067 70.8655 23.0725 68.7101L23.4041 64.7308C23.5699 62.4096 23.4041 62.1609 21.6632 61.9951V61.3319H25.8083L29.7047 70.1194L33.6839 61.3319H37.7461V61.9951C36.171 62.1609 36.0881 62.3267 36.0881 63.9847L36.2539 71.5287C36.2539 73.3526 36.4197 73.5184 37.9948 73.6842V74.3474H31.943Z" fill="white"/>
<path d="M52.9171 67.7152C52.9171 72.0261 49.7668 74.679 46.0363 74.679C41.9741 74.679 39.2383 71.6945 39.2383 67.881C39.2383 64.3992 41.7254 61.0002 46.285 61.0002C49.9326 61.0002 52.9171 63.6531 52.9171 67.7152ZM42.3057 67.4665C42.3057 70.8655 43.7979 73.85 46.3679 73.85C48.2746 73.85 49.8497 71.9432 49.8497 68.2956C49.8497 64.3163 48.1917 61.9121 45.8705 61.9121C43.8808 61.8292 42.3057 63.9847 42.3057 67.4665Z" fill="white"/>
<path d="M66.6787 74.5132C66.5958 74.5132 66.3471 74.5132 66.0984 74.5132C63.5284 74.4303 62.7823 73.85 61.9533 72.5235C61.4559 71.6945 60.8756 70.6168 60.2953 69.5391C59.9637 68.8759 59.6321 68.7101 58.9688 68.6272H58.5543V71.5287C58.5543 73.1868 58.7201 73.3526 60.2953 73.5184V74.1816H54.2435V73.5184C55.7357 73.3526 55.9844 73.1868 55.9844 71.5287V63.8189C55.9844 62.2438 55.8186 61.995 54.3264 61.8292V61.166H59.9637C61.7046 61.166 62.6994 61.3318 63.5284 61.9121C64.3574 62.4096 64.8549 63.3215 64.8549 64.565C64.8549 66.3059 63.6942 67.3008 62.3678 67.8811C62.6165 68.4614 63.4455 69.7878 64.0258 70.6997C64.772 71.7774 65.1865 72.4406 65.601 72.8552C66.0155 73.3526 66.3471 73.5184 66.8445 73.6842L66.6787 74.5132ZM59.0518 67.964C59.8808 67.964 60.544 67.7982 61.0414 67.3836C61.7046 66.8033 62.0362 66.0572 62.0362 64.9795C62.0362 62.8241 60.7927 62.078 59.6321 62.078C59.1346 62.078 58.8859 62.1609 58.7201 62.2438C58.5543 62.3267 58.5543 62.5754 58.5543 62.9899V67.8811H59.0518V67.964Z" fill="white"/>
<path d="M80.6062 68.793C79.6114 68.9588 79.4456 69.0417 79.4456 70.451V72.0261C79.4456 72.7722 79.4456 73.3525 79.5285 73.9329C78.285 74.2645 76.544 74.679 74.9689 74.679C70.3264 74.679 67.3419 72.0261 67.3419 67.9639C67.3419 63.4044 71.0725 61.0002 75.3005 61.0002C76.9585 61.0002 78.5337 61.4147 79.1969 61.5805C79.2798 62.2437 79.3627 63.3215 79.5285 64.8966L78.7824 65.0624C78.2849 62.824 76.7927 61.8292 74.886 61.8292C72.4818 61.8292 70.4093 63.9847 70.4093 67.6323C70.4093 70.6997 71.9015 73.85 75.2176 73.85C75.6321 73.85 76.0466 73.7671 76.3782 73.6012C76.7098 73.4354 76.8756 73.1038 76.8756 72.5235V70.6168C76.8756 69.2075 76.7927 69.0417 74.6373 68.8759V68.2126H80.6891V68.793H80.6062Z" fill="white"/>
<path d="M92.544 71.0313C92.4611 71.9433 91.9637 73.7671 91.8808 74.3474H81.601V73.6842C83.342 73.5184 83.5078 73.4355 83.5078 71.6945V63.9847C83.5078 62.2438 83.342 62.1609 81.8497 61.9951V61.3319H91.3005C91.3005 61.6635 91.3834 63.0728 91.4663 64.3163L90.7202 64.3992C90.5544 63.736 90.2228 63.0728 89.8912 62.6583C89.5596 62.3267 88.9793 62.1609 87.9015 62.1609H86.9067C86.1606 62.1609 86.0777 62.1609 86.0777 62.8241V67.0521H87.4041C89.0622 67.0521 89.3938 66.9692 89.6425 65.5598H90.3886V69.622H89.6425C89.3938 68.2127 89.1451 68.1298 87.4041 68.1298H86.0777V71.6116C86.0777 72.5236 86.1606 73.021 86.5751 73.2697C86.9067 73.4355 87.6528 73.4355 88.3989 73.4355C89.3938 73.4355 90.1399 73.2697 90.6373 72.7723C91.0518 72.3578 91.3834 71.6946 91.7979 70.7826L92.544 71.0313Z" fill="white"/>
<path d="M107.301 61.9951C106.223 62.078 105.808 62.3267 105.725 63.2386C105.642 63.9018 105.56 64.8137 105.56 66.5546V74.5132H104.565L96.1917 64.565H96.1088V69.1246C96.1088 70.8655 96.1917 71.7774 96.2746 72.3577C96.3575 73.2697 96.6891 73.6013 98.1813 73.6842V74.3474H93.2902V73.6842C94.4508 73.6013 94.8653 73.2697 94.9482 72.4407C95.0311 71.7774 95.114 70.8655 95.114 69.1246V64.8966C95.114 63.5702 95.114 63.2386 94.6995 62.7412C94.3679 62.2438 93.8705 62.078 93.0415 61.9951V61.3318H96.772L104.482 70.1194H104.565V66.5546C104.565 64.8137 104.482 63.8189 104.399 63.2386C104.316 62.4096 103.902 61.9951 102.409 61.9122V61.2489H107.301V61.9951Z" fill="white"/>
</svg>
