<svg width="128" height="128" viewBox="0 0 128 128" fill="none" xmlns="http://www.w3.org/2000/svg">
<rect width="128" height="128" fill="white"/>
<path fill-rule="evenodd" clip-rule="evenodd" d="M112 74.8606C107.314 73.1418 98.616 71.7264 88.6121 71.2536C78.6102 70.7807 69.8217 71.3686 65 72.6376V74.5594C69.8883 73.3511 78.4997 72.7998 88.2691 73.2632C98.5229 73.7476 107.405 75.2226 112 77V74.8606Z" fill="#70B6D0"/>
<path fill-rule="evenodd" clip-rule="evenodd" d="M112 70.3084C107.314 68.5896 98.616 67.1741 88.6121 66.7013C78.6102 66.2284 69.8217 66.8164 65 68.0853V70.0071C69.8883 68.7988 78.4997 68.2475 88.2691 68.7109C98.5229 69.1953 107.405 70.6703 112 72.4477V70.3084Z" fill="#70B6D0"/>
<path fill-rule="evenodd" clip-rule="evenodd" d="M112 65.3781C107.314 63.6593 98.616 62.2439 88.6121 61.771C78.6102 61.2971 69.8217 61.8861 65 63.1551V65.0758C69.8883 63.8685 78.4997 63.3172 88.2691 63.7796C98.5229 64.265 107.405 65.7401 112 67.5164V65.3781Z" fill="#70B6D0"/>
<path fill-rule="evenodd" clip-rule="evenodd" d="M112 60.5749C107.314 58.8561 98.616 57.4406 88.6121 56.9678C78.6102 56.4949 69.8217 57.0829 65 58.3518V60.2736C69.8883 59.0653 78.4997 58.514 88.2691 58.9764C98.5229 59.4618 107.405 60.9368 112 62.7132V60.5749Z" fill="#70B6D0"/>
<path fill-rule="evenodd" clip-rule="evenodd" d="M112 55.8637C107.377 54.103 98.5474 52.6437 88.3633 52.1625C78.5324 51.698 69.8709 52.2577 65 53.4816V55.4086C69.9272 54.2422 78.4126 53.717 88.0203 54.171C98.3969 54.6627 107.371 56.1671 111.917 57.9727L112 57.208V55.8637Z" fill="#70B6D0"/>
<path fill-rule="evenodd" clip-rule="evenodd" d="M65 68.2828V70C67.8974 69.3796 72.0655 68.9536 77 68.7817V67C72.018 67.1869 67.8404 67.6363 65 68.2828Z" fill="#E5B93C"/>
<path fill-rule="evenodd" clip-rule="evenodd" d="M63.1515 53.3323C58.4444 52.1037 49.5092 51.6421 39.3215 52.2988C29.2707 52.9463 20.565 54.5171 16 56.3094V58.2489C20.5965 56.4759 29.2362 54.9276 39.1986 54.2852C49.4757 53.6234 58.4789 54.0983 63.1515 55.3525V53.3323Z" fill="black"/>
<path fill-rule="evenodd" clip-rule="evenodd" d="M63.1515 57.9274C58.4444 56.6988 49.5092 56.2371 39.3215 56.8938C29.2707 57.5413 20.565 59.1121 16 60.9045V62.8439C20.5965 61.071 29.2362 59.5227 39.1986 58.8803C49.4757 58.2185 58.4789 58.6934 63.1515 59.9475V57.9274Z" fill="black"/>
<path fill-rule="evenodd" clip-rule="evenodd" d="M63.1515 62.8947C58.4444 61.666 49.5092 61.2044 39.3215 61.8611C29.2707 62.5086 20.565 64.0794 16 65.8718V67.8102C20.5965 66.0382 29.2362 64.4899 39.1986 63.8475C49.4757 63.1857 58.4789 63.6606 63.1515 64.9148V62.8947Z" fill="black"/>
<path fill-rule="evenodd" clip-rule="evenodd" d="M63.1515 67.7378C58.4444 66.5092 49.5092 66.0476 39.3215 66.7033C29.2707 67.3518 20.565 68.9215 16 70.7149V72.6534C20.5965 70.8814 29.2362 69.3331 39.1986 68.6917C49.4757 68.0289 58.4789 68.5048 63.1515 69.758V67.7378Z" fill="black"/>
<path fill-rule="evenodd" clip-rule="evenodd" d="M63.1515 72.0845C58.4444 70.8558 49.5092 70.3942 39.3215 71.0499C29.2707 71.6984 20.565 73.2682 16 75.0616V77C20.5965 75.228 29.2362 73.6797 39.1986 73.0373C49.4757 72.3755 58.4789 72.8504 63.1515 74.1046V72.0845Z" fill="black"/>
<path fill-rule="evenodd" clip-rule="evenodd" d="M88.8445 71.2307C84.6591 71.0366 80.69 71.0264 77.1381 71.1724V72.9168H89.548C91.0361 72.9168 92.6959 72.7279 94.5282 72.349C95.1575 72.2203 95.7666 72.0273 96.3574 71.776C93.9759 71.5381 91.4554 71.3522 88.8445 71.2307Z" fill="black"/>
<path fill-rule="evenodd" clip-rule="evenodd" d="M92.3794 66.9938C92.0607 67.3145 91.6891 67.5637 91.2628 67.7363C90.5258 68.0356 89.2833 68.1836 87.5383 68.1836H85.4918V66.6691C82.5368 66.5976 79.7259 66.6221 77.1373 66.7283V68.6749C80.6009 68.5442 84.4523 68.5585 88.5047 68.7484C92.421 68.9302 96.1354 69.257 99.4833 69.688C100.028 69.1427 100.492 68.536 100.879 67.867C98.2641 67.5055 95.4035 67.2073 92.3794 66.9938Z" fill="black"/>
<path fill-rule="evenodd" clip-rule="evenodd" d="M77.1378 63.8615C79.7314 63.7624 82.5423 63.7471 85.4912 63.8247V61.8547C82.5362 61.7842 79.7263 61.8077 77.1378 61.9139V63.8615Z" fill="black"/>
<path fill-rule="evenodd" clip-rule="evenodd" d="M101.802 65.1975C101.907 64.5949 101.973 63.9341 102 63.2151C99.4399 62.8311 96.6178 62.5104 93.6191 62.2724C93.6212 62.3664 93.6232 62.4583 93.6232 62.5553C93.6232 63.1886 93.5938 63.7544 93.5328 64.2548C96.493 64.4948 99.2774 64.8155 101.802 65.1975Z" fill="black"/>
<path fill-rule="evenodd" clip-rule="evenodd" d="M76.8909 59.1724C79.4845 59.0734 82.5421 59.058 85.492 59.1357V57.1666C82.537 57.0951 79.4794 57.1186 76.8909 57.2258V59.1724Z" fill="black"/>
<path fill-rule="evenodd" clip-rule="evenodd" d="M101.365 58.4334C98.3013 57.9942 94.8844 57.645 91.2553 57.4162C91.6289 57.5837 91.9527 57.7849 92.2227 58.0208C92.641 58.3864 92.9658 58.893 93.1962 59.5384C96.3096 59.7836 99.2322 60.1185 101.873 60.5189C101.766 59.803 101.597 59.1075 101.365 58.4334Z" fill="black"/>
<path fill-rule="evenodd" clip-rule="evenodd" d="M77.1378 52.5241V54.4727C80.5384 54.3512 84.3015 54.3696 88.2574 54.5544C92.3504 54.7444 96.2231 55.0927 99.6867 55.5533C99.5345 55.3807 99.3791 55.2122 99.2116 55.0498C98.4097 54.2695 97.4311 53.6394 96.282 53.1553C93.8498 52.9091 91.2713 52.7171 88.5975 52.5925C84.5096 52.4026 80.6257 52.3883 77.1378 52.5241Z" fill="black"/>
<path fill-rule="evenodd" clip-rule="evenodd" d="M65.4351 58.6343V60.5115C68.2216 59.8323 72.2303 59.3666 76.976 59.1797V57.232C72.1846 57.4363 68.1668 57.9265 65.4351 58.6343Z" fill="black"/>
<path fill-rule="evenodd" clip-rule="evenodd" d="M39.5102 70.6052C36.1547 70.8219 32.9498 71.1413 30.0006 71.5391V72.9857H34.4598C36.0567 72.8291 37.7021 72.6938 39.3869 72.5839C42.3563 72.3936 45.2176 72.298 47.899 72.2878C48.1587 72.2054 48.3861 72.1129 48.5822 72.0132C49.419 71.5828 50.1033 71.0202 50.6389 70.3295C47.2359 70.2654 43.4691 70.3498 39.5102 70.6052Z" fill="#70B5D4"/>
<path fill-rule="evenodd" clip-rule="evenodd" d="M44.4551 66.0411C44.4642 66.1204 44.4703 66.2018 44.4703 66.2862C44.4703 66.9536 44.2135 67.4867 43.6991 67.8835C43.6203 67.9435 43.5323 67.9994 43.4363 68.0503C46.3562 67.9425 49.1296 67.9313 51.6745 68.0066C51.7301 67.6861 51.7614 67.3575 51.7614 67.0167C51.7614 66.6698 51.7341 66.3391 51.6805 66.0228C49.4297 65.9597 47.0031 65.9638 44.4551 66.0411Z" fill="#70B5D4"/>
<path fill-rule="evenodd" clip-rule="evenodd" d="M30.0004 69.1715C32.3089 68.8633 34.7719 68.6028 37.3401 68.4014V66.4328C34.7709 66.6363 32.3079 66.8988 30.0004 67.2091V69.1715Z" fill="#70B5D4"/>
<path fill-rule="evenodd" clip-rule="evenodd" d="M49.9735 63.1451C49.1973 62.5459 48.1512 62.1034 46.8312 61.8205C47.4316 61.6354 47.9521 61.4126 48.3968 61.1542C45.6083 61.1562 42.6187 61.2508 39.5098 61.4512C36.1543 61.6679 32.9504 61.9884 30.0001 62.3841V64.3476C32.916 63.9579 36.0774 63.6446 39.3875 63.431C43.1361 63.1888 46.714 63.1003 49.9735 63.1451Z" fill="#70B5D4"/>
<path fill-rule="evenodd" clip-rule="evenodd" d="M41.9037 56.3693C42.3161 56.4548 42.6405 56.587 42.872 56.7671C43.3167 57.111 43.539 57.5881 43.539 58.1985C43.539 58.2249 43.536 58.2483 43.536 58.2748C46.0031 58.1853 48.3641 58.1649 50.5704 58.2066C50.6351 57.8933 50.6695 57.5657 50.6695 57.2249C50.6695 56.878 50.6351 56.5453 50.5684 56.2249C47.8779 56.1771 44.9611 56.2218 41.9037 56.3693Z" fill="#70B5D4"/>
<path fill-rule="evenodd" clip-rule="evenodd" d="M30.0004 59.3995C32.3089 59.0913 34.7719 58.8298 37.3401 58.6294V56.6598C34.7709 56.8633 32.3079 57.1268 30.0004 57.4371V59.3995Z" fill="#70B5D4"/>
<path fill-rule="evenodd" clip-rule="evenodd" d="M43.6191 52H38.4363C35.4699 52.2126 32.6339 52.5056 30 52.8596V54.8221C32.9159 54.4335 36.0783 54.1191 39.3873 53.9055C42.756 53.6888 45.9861 53.5952 48.9707 53.6104C48.9293 53.5748 48.8888 53.5382 48.8464 53.5036C47.6315 52.5015 45.8891 52 43.6191 52Z" fill="#70B5D4"/>
<path fill-rule="evenodd" clip-rule="evenodd" d="M65.5094 72.1301V74C68.2838 73.3245 72.275 72.8606 77 72.6734V70.7333C72.2295 70.9368 68.2292 71.4261 65.5094 72.1301Z" fill="#70B5D4"/>
<path fill-rule="evenodd" clip-rule="evenodd" d="M65 63.2832V65C67.8974 64.3794 72.0655 63.9533 77 63.7813V62C72.018 62.1869 67.8404 62.6355 65 63.2832Z" fill="#CC5633"/>
</svg>
