<svg width="128" height="128" viewBox="0 0 128 128" fill="none" xmlns="http://www.w3.org/2000/svg">
<rect width="128" height="128" fill="#FFF9D0"/>
<path fill-rule="evenodd" clip-rule="evenodd" d="M103.986 36.8036C103.986 41.66 103.971 46.0381 104 50.4311C104 51.5544 103.256 52.1856 102.596 52.8869C99.1436 56.5637 95.7198 60.2979 92.1821 63.9046C90.9899 65.1256 91.06 65.9108 92.1971 67.1031C95.6773 70.7523 99.031 74.5417 102.498 78.2185C103.453 79.2291 103.915 80.2684 103.887 81.686C103.803 85.096 103.86 88.5072 103.86 91.8885C102.863 92.2679 102.611 91.454 102.218 91.0332C94.9334 83.1174 87.6776 75.174 80.3804 67.2721C78.8926 65.659 78.4569 64.0724 80.0435 62.3329C87.635 54.0378 95.2427 45.7437 102.849 37.4635C103.004 37.3233 103.242 37.2531 103.986 36.8036Z" fill="#8C8E92"/>
<path fill-rule="evenodd" clip-rule="evenodd" d="M37.0975 65.5043C33.1678 61.2378 29.4623 57.1252 25.659 53.1254C24.5082 51.9193 24.0034 50.6696 24.0448 49.0002C24.1437 45.0981 24.0736 41.196 24.0736 37.2387C25.2946 37.1122 25.6314 38.1228 26.1649 38.7126C33.1816 46.3191 40.1569 53.9543 47.1322 61.5884C49.3914 64.0591 49.3914 65.1951 47.1747 67.6233C40.1994 75.2435 33.2103 82.865 26.1925 90.4853C25.659 91.0613 25.2808 91.8327 24.0034 92.2259C24.0034 88.0709 23.9897 84.0722 24.0172 80.0585C24.0172 79.2445 24.7749 78.8364 25.252 78.3029C29.1254 74.1076 32.9999 69.9388 37.0975 65.5043Z" fill="#8C8E92"/>
<path fill-rule="evenodd" clip-rule="evenodd" d="M101.305 29.8565C93.1513 39.1197 84.9964 48.368 76.8438 57.6312C76.5196 57.3507 76.2115 57.069 75.8895 56.7885C84.0421 47.5264 92.197 38.2632 100.366 28.9999C100.674 29.2816 100.983 29.5621 101.305 29.8565Z" fill="#565352"/>
<path fill-rule="evenodd" clip-rule="evenodd" d="M26.8383 99.1306C34.992 89.8674 43.1469 80.6053 51.5674 71.034C51.6939 73.1253 29.7436 98.5133 27.3855 99.6354L26.8383 99.1306Z" fill="#565352"/>
<path fill-rule="evenodd" clip-rule="evenodd" d="M27.7785 29.0004C35.9322 38.2636 44.0722 47.5394 52.2271 56.8027C51.9178 57.0694 51.6097 57.3499 51.3004 57.6167C43.1467 48.3534 34.978 39.0914 26.8242 29.8282C27.1323 29.5476 27.4554 29.2809 27.7785 29.0004Z" fill="#565352"/>
<path fill-rule="evenodd" clip-rule="evenodd" d="M100.337 99.9872C92.1823 90.724 84.0286 81.4619 75.5943 71.8757C77.727 72.0435 100.211 97.2222 100.842 99.5377C100.674 99.678 100.505 99.832 100.337 99.9872Z" fill="#565352"/>
<path d="M75.8922 65.1831C75.8922 58.4123 70.4027 52.9227 63.6319 52.9227C56.861 52.9227 51.3715 58.4123 51.3715 65.1831C51.3715 71.9551 56.861 77.4447 63.6319 77.4447C70.4027 77.4447 75.8922 71.9551 75.8922 65.1831Z" fill="#64769E" stroke="#383C4D"/>
</svg>
