<svg width="128" height="128" viewBox="0 0 128 128" fill="none" xmlns="http://www.w3.org/2000/svg">
<rect width="128" height="128" fill="#452AB9"/>
<path d="M100.284 48.9796L97.6594 41.8523L99.4845 37.7608C99.5992 37.5027 99.6332 37.216 99.5821 36.9382C99.531 36.6604 99.3972 36.4045 99.1982 36.2041L94.2359 31.1882C93.1707 30.1072 91.8203 29.3512 90.342 29.008C88.8638 28.6648 87.3184 28.7487 85.8859 29.2498L84.4963 29.7329L76.9157 21.5201L64.0567 21.4485H63.9732L51.0307 21.5499L43.456 29.8283L42.1081 29.3512C40.6664 28.8441 39.1099 28.7589 37.6214 29.1054C36.1329 29.4519 34.7741 30.2158 33.7044 31.3074L28.6527 36.4188C28.4942 36.5786 28.3877 36.7826 28.3472 37.004C28.3068 37.2254 28.3342 37.4539 28.4261 37.6594L30.3287 41.906L27.7163 49.0273L29.4042 55.4508L37.1041 84.7235C37.9911 88.0956 40.0319 91.0502 42.8715 93.0735C42.8715 93.0735 52.2176 99.6641 61.4383 105.652C62.1675 106.234 63.0729 106.551 64.006 106.551C64.939 106.551 65.8444 106.234 66.5736 105.652C76.9335 98.8649 85.1285 93.0497 85.1285 93.0497C87.9659 91.0253 90.0045 88.0709 90.89 84.6997L98.5481 55.4151L100.284 48.9796Z" fill="url(#paint0_linear_1195_2270)"/>
<path d="M66.1205 74.2027C65.6297 73.9829 65.1233 73.7995 64.6056 73.654H63.6931C63.1753 73.7995 62.669 73.9829 62.1781 74.2027L59.8819 75.157C59.1542 75.4612 57.9852 76.0039 57.2874 76.3498L53.0647 78.5506C52.9118 78.6003 52.7772 78.6945 52.6783 78.8213C52.5794 78.948 52.5208 79.1015 52.5099 79.2619C52.499 79.4223 52.5363 79.5823 52.6171 79.7213C52.6979 79.8603 52.8185 79.9719 52.9633 80.0417L56.6313 82.6302C57.2755 83.0835 58.2894 83.8827 58.8858 84.4195L59.9177 85.3082C60.5141 85.8211 61.4863 86.674 62.0767 87.1988L63.0549 88.0637C63.3571 88.3155 63.738 88.4534 64.1314 88.4534C64.5248 88.4534 64.9057 88.3155 65.208 88.0637L69.4307 84.3777C70.0271 83.8589 71.0351 83.0596 71.6792 82.5885L75.3473 79.9642C75.4924 79.8945 75.6131 79.7827 75.6935 79.6433C75.774 79.5038 75.8105 79.3434 75.7983 79.1829C75.786 79.0224 75.7256 78.8693 75.6249 78.7437C75.5242 78.6182 75.3879 78.5259 75.2339 78.4791L71.0172 76.3379C70.3134 75.98 69.1444 75.4433 68.4108 75.145L66.1205 74.2027Z" fill="white"/>
<path d="M92.1248 50.5718L92.2441 50.1901C92.2512 49.6794 92.2193 49.169 92.1487 48.6632C91.7936 47.7598 91.3374 46.8994 90.7888 46.0986L88.4031 42.5975C87.9618 41.9415 87.2103 40.9037 86.7033 40.2894L83.5064 36.2873C83.2148 35.8973 82.8981 35.5267 82.5581 35.178H82.4925C82.4925 35.178 81.8484 35.2913 81.073 35.4404L74.0471 36.7943C73.3362 36.8277 72.6256 36.7244 71.9536 36.4901L68.0947 35.2436C67.3432 34.9991 66.1027 34.6472 65.3333 34.4802C64.5224 34.394 63.7047 34.394 62.8939 34.4802C62.1245 34.6591 60.8839 35.005 60.1324 35.2496L56.2735 36.5021C55.6016 36.7364 54.8909 36.8396 54.1801 36.8062L52.0389 36.4007L47.1482 35.4643C46.3728 35.3152 45.7346 35.1959 45.7287 35.2018H45.6631C45.3231 35.5506 45.0064 35.9211 44.7148 36.3112L41.5239 40.3132C41.0348 40.9097 40.2654 41.9713 39.8241 42.6214L37.4383 46.1224C37.0263 46.7262 36.6499 47.3535 36.3111 48.0012C36.1067 48.7234 35.9984 49.4694 35.989 50.2199L36.1083 50.6016C36.1657 50.8468 36.2394 51.0879 36.329 51.3233C36.824 51.9197 37.6709 52.9098 38.2137 53.4883L46.5637 62.3632C46.8409 62.6868 47.0264 63.0787 47.1008 63.4983C47.1753 63.9178 47.136 64.3496 46.9871 64.7489L45.6213 67.9875C45.3108 68.8455 45.2877 69.7813 45.5557 70.6535L45.8301 71.405C46.2784 72.6256 47.0468 73.703 48.0548 74.5243L49.3669 75.592C49.7078 75.8378 50.1055 75.9931 50.5228 76.0432C50.9401 76.0932 51.3633 76.0365 51.7526 75.8782L56.4167 73.6536C57.2728 73.225 58.0739 72.6943 58.8024 72.073L62.536 68.7032C62.6848 68.5689 62.805 68.4062 62.8897 68.2246C62.9743 68.043 63.0217 67.8463 63.0289 67.646C63.0361 67.4458 63.0031 67.2462 62.9318 67.0589C62.8604 66.8717 62.7522 66.7007 62.6136 66.5561L54.186 60.8781C53.8669 60.6516 53.6397 60.3182 53.5455 59.9384C53.4514 59.5587 53.4967 59.1577 53.6731 58.8085L56.9415 52.6653C57.1274 52.2892 57.2373 51.8802 57.2649 51.4616C57.2926 51.043 57.2374 50.6231 57.1026 50.2259C56.6967 49.4681 56.0414 48.8739 55.2477 48.5439L45.001 44.6731C44.2615 44.3928 44.3032 44.0767 45.0845 44.029L51.1025 43.4326C52.0462 43.3725 52.9935 43.457 53.9117 43.6831L59.1483 45.1443C59.5201 45.2564 59.8386 45.4994 60.0448 45.8285C60.251 46.1575 60.3309 46.5501 60.2696 46.9336L58.2119 58.1703C58.0743 58.7927 58.04 59.4334 58.1105 60.0669C58.194 60.3353 58.8978 60.6634 59.6672 60.8542L62.8581 61.5341C63.7847 61.7045 64.7347 61.7045 65.6613 61.5341L68.5301 60.884C69.2995 60.7111 69.9973 60.3473 70.0868 60.0789C70.1554 59.445 70.1192 58.8042 69.9795 58.1822L67.9098 46.9455C67.8486 46.5621 67.9284 46.1694 68.1346 45.8404C68.3408 45.5114 68.6594 45.2683 69.0311 45.1562L74.2678 43.689C75.1859 43.4629 76.1333 43.3784 77.0769 43.4385L83.0949 43.9992C83.8822 44.0707 83.918 44.363 83.1844 44.6433L72.9437 48.526C72.15 48.856 71.4947 49.4502 71.0888 50.208C70.8172 51.0103 70.8751 51.8877 71.2498 52.6474L74.5242 58.7906C74.7007 59.1398 74.7459 59.5408 74.6518 59.9206C74.5577 60.3003 74.3304 60.6337 74.0113 60.8602L65.5897 66.5501C65.4511 66.6947 65.3429 66.8657 65.2715 67.053C65.2002 67.2402 65.1672 67.4398 65.1744 67.6401C65.1816 67.8403 65.229 68.037 65.3136 68.2186C65.3983 68.4002 65.5186 68.563 65.6673 68.6972L69.4069 72.0671C70.1357 72.6862 70.9368 73.2149 71.7926 73.6416L76.4567 75.8603C76.8465 76.0177 77.27 76.0735 77.6873 76.0224C78.1046 75.9713 78.502 75.8149 78.8424 75.5681L80.1545 74.4945C81.1636 73.6717 81.9321 72.5921 82.3792 71.3692L82.6535 70.6177C82.9215 69.7455 82.8985 68.8097 82.5879 67.9517L81.2162 64.7131C81.0673 64.3139 81.028 63.882 81.1025 63.4625C81.1769 63.0429 81.3624 62.651 81.6396 62.3274L89.9896 53.4406C90.5324 52.8442 91.3733 51.8899 91.8684 51.2756C91.9693 51.0469 92.055 50.8118 92.1248 50.5718Z" fill="white"/>
<defs>
<linearGradient id="paint0_linear_1195_2270" x1="27.7402" y1="64.0036" x2="100.26" y2="64.0036" gradientUnits="userSpaceOnUse">
<stop stop-color="#F1562B"/>
<stop offset="0.3" stop-color="#F1542B"/>
<stop offset="0.41" stop-color="#F04D2A"/>
<stop offset="0.49" stop-color="#EF4229"/>
<stop offset="0.5" stop-color="#EF4029"/>
<stop offset="0.56" stop-color="#E83E28"/>
<stop offset="0.67" stop-color="#E13C26"/>
<stop offset="1" stop-color="#DF3C26"/>
</linearGradient>
</defs>
</svg>
