<svg width="128" height="128" viewBox="0 0 128 128" fill="none" xmlns="http://www.w3.org/2000/svg">
<rect width="128" height="128" fill="#272727"/>
<path d="M59.4175 64.6182C59.4175 63.4489 59.4175 62.2796 59.4175 61.1084C59.4175 60.5283 59.7334 60.1847 60.3023 60.1699C61.1779 60.1515 62.0554 60.1385 62.931 60.1699C63.9692 60.1995 65.0813 61.0511 65.4009 62.0172C65.5856 62.5714 65.2771 63.3935 64.7155 63.8645C64.3996 64.1305 64.3738 64.3799 64.734 64.5702C66.0936 65.2906 65.9883 67.803 64.2888 68.516C63.6018 68.7788 62.8722 68.9128 62.1367 68.9113C61.431 68.939 60.7235 68.891 60.016 68.8855C59.5727 68.8855 59.3584 68.6841 59.4156 68.2278C59.4166 68.2125 59.4166 68.197 59.4156 68.1816L59.4175 64.6182ZM61.4144 66.2383H61.3996C61.4162 66.5302 61.4144 66.822 61.4569 67.1084C61.4661 67.1744 61.4883 67.238 61.5222 67.2953C61.5562 67.3527 61.6011 67.4028 61.6545 67.4427C62.024 67.6626 63.2617 67.2783 63.4298 66.8719C63.7457 66.1053 63.5813 65.4957 62.7057 65.2094C61.6989 64.8768 61.4126 65.1004 61.4126 66.1496L61.4144 66.2383ZM62.1404 61.657C61.891 61.803 61.4827 61.9212 61.4698 62.0708C61.431 62.5566 61.5363 63.0554 61.5862 63.5486C62.0129 63.5117 62.4396 63.4748 62.8664 63.4341C62.8962 63.4283 62.9245 63.4164 62.9495 63.399C63.5037 63.1053 63.6201 62.4643 63.1453 62.0727C62.8959 61.8584 62.5265 61.7993 62.1404 61.6478V61.657Z" fill="white"/>
<path d="M86.7112 64.5628C86.7518 66.0129 86.2679 67.234 85.1355 68.1743C84.3153 68.8559 83.3381 69 82.3239 68.9612C80.8904 68.9076 79.7876 68.2555 79.1484 66.9606C78.5942 65.8522 78.3799 64.6792 78.7309 63.4341C78.9729 62.5733 79.3036 61.7882 79.9982 61.1915C80.7943 60.508 81.6607 60.0961 82.7691 60.1071C83.7812 60.1042 84.7531 60.5028 85.4717 61.2155C86.4101 62.1207 86.7666 63.2734 86.7112 64.5628ZM84.6219 64.5628L84.7475 64.524C84.5628 63.9181 84.4446 63.2734 84.1564 62.7192C83.822 62.08 83.2531 61.694 82.4532 61.7863C81.7401 61.8676 81.3227 62.3405 81.0548 62.9095C80.5505 63.9957 80.5782 65.1004 81.0252 66.2235C81.4852 67.3818 82.9963 67.7364 83.8479 66.8424C84.4575 66.2087 84.6348 65.4199 84.6219 64.5683V64.5628Z" fill="white"/>
<path d="M72.282 60.1404C73.915 60.1884 75.1361 60.8941 75.7919 62.4273C76.1137 63.1449 76.2697 63.9257 76.2483 64.7118C76.2269 65.4979 76.0286 66.2691 75.6681 66.968C75.4321 67.4548 75.0849 67.8794 74.6546 68.2073C74.2243 68.5353 73.7229 68.7575 73.1909 68.8559C72.3916 69.041 71.5581 69.0168 70.7709 68.7857C70.3431 68.659 69.9445 68.4488 69.5983 68.1672C69.2521 67.8857 68.965 67.5384 68.7537 67.1453C67.9982 65.7857 67.9316 64.343 68.399 62.9076C68.7685 61.766 69.5074 60.8627 70.7044 60.4526C70.9441 60.3366 71.1909 60.236 71.4434 60.1515C71.7219 60.1212 72.0027 60.1174 72.282 60.1404ZM74.0924 65.1724C74.1145 64.0917 74.0813 63.3251 73.6305 62.6195C72.9711 61.5813 71.5634 61.4778 70.819 62.4938C70.434 63.0568 70.2339 63.7257 70.2463 64.4076C70.2223 65.3073 70.3128 66.2254 71.0628 66.9107C71.7592 67.5462 72.6589 67.5462 73.3276 66.883C73.8855 66.327 74.1219 65.6546 74.0924 65.1724Z" fill="white"/>
<path d="M96.3448 68.7118C95.9514 68.7672 95.6761 68.7968 95.4046 68.8467C94.4255 69.0314 93.8418 68.6305 93.4705 67.7051C93.1934 67.0142 92.7408 66.3953 92.3621 65.7451C92.1921 65.4495 91.9187 65.4107 91.7192 65.7007C91.5827 65.9027 91.5024 66.1373 91.4865 66.3805C91.4532 66.9938 91.4532 67.6127 91.4735 68.2278C91.4883 68.6527 91.274 68.8301 90.899 68.8356C89.2365 68.8633 89.4748 68.9815 89.4692 67.5684C89.4692 65.4587 89.4692 63.351 89.4692 61.2414C89.4631 61.0874 89.4661 60.9332 89.4785 60.7796C89.532 60.3768 89.6724 60.0665 90.1767 60.1515C90.3304 60.1644 90.4849 60.1644 90.6386 60.1515C91.141 60.1515 91.407 60.3824 91.4329 60.8904C91.4661 61.5647 91.4532 62.2445 91.4828 62.9224C91.5124 63.0806 91.5647 63.2336 91.6379 63.3768C91.7589 63.2855 91.8698 63.1815 91.9686 63.0665C92.5228 62.2592 93.0511 61.4298 93.6312 60.6392C93.851 60.3381 94.1558 60.085 94.6028 60.1459C94.8596 60.1792 95.1275 60.133 95.3861 60.1589C95.5708 60.1755 95.8867 60.2438 95.8904 60.3048C95.9165 60.5372 95.8666 60.7718 95.7482 60.9735C95.1275 61.8307 94.4772 62.6656 93.8233 63.4969C93.5665 63.8239 93.5794 64.1195 93.7919 64.4668C94.4403 65.5234 95.0665 66.5948 95.702 67.6589C95.8867 67.9618 96.0714 68.2592 96.3448 68.7118Z" fill="white"/>
<path d="M42.0936 62.359C41.9495 62.7931 41.7851 63.2217 41.6687 63.6632C41.3381 64.9083 41.0314 66.1589 40.7044 67.4039C40.6028 67.79 40.4735 68.1687 40.335 68.5474C40.1964 68.9261 39.8695 68.8227 39.5961 68.8393C39.3227 68.8559 39.1047 68.7986 39.0253 68.4957C38.7654 67.4858 38.5037 66.476 38.2402 65.4661C38.024 64.6349 37.8042 63.8036 37.5899 62.9723C37.4181 62.3036 37.2205 61.6385 37.0911 60.9643C37.0302 60.6632 36.9969 60.2826 37.4033 60.1663C37.4983 60.1425 37.5972 60.1387 37.6937 60.1551C37.7902 60.1715 37.8823 60.2078 37.9641 60.2616C38.0458 60.3154 38.1156 60.3857 38.1688 60.4678C38.2221 60.55 38.2577 60.6423 38.2734 60.7389C38.5745 62.032 38.8553 63.3122 39.149 64.5998C39.3208 65.3553 39.5019 66.109 39.7032 66.9883C39.8879 66.4821 40.056 66.0942 40.1724 65.6952C40.3572 65.093 40.4828 64.476 40.6416 63.8682C40.9261 62.8171 41.1903 61.7771 41.4803 60.7389C41.5764 60.3842 41.7205 60.1164 42.1989 60.133C42.3359 60.1228 42.4717 60.1653 42.5785 60.2518C42.6852 60.3383 42.755 60.4624 42.7734 60.5985C43.0542 61.6496 43.3276 62.7044 43.5844 63.7629C43.7968 64.6404 43.9797 65.5252 44.1792 66.4193C44.5006 66.4323 44.6262 66.2494 44.6872 65.9852C44.9994 64.657 45.3079 63.327 45.6312 62.0006C45.7365 61.5365 45.8741 61.0804 46.0431 60.6355C46.128 60.4316 46.29 60.2696 46.4939 60.1847C46.9945 60.0388 47.2808 60.3972 47.133 60.9236C46.6047 62.8301 46.0751 64.7352 45.5443 66.6392C45.4113 67.1121 45.2808 67.5856 45.1527 68.0597C44.9865 68.6786 44.7833 68.8467 44.2494 68.8448C43.8153 68.8448 43.6084 68.6823 43.5234 68.2131C43.3627 67.3245 43.1004 66.4526 42.8935 65.5714C42.694 64.7198 42.5111 63.8645 42.3245 63.0092C42.2783 62.7913 42.2488 62.5696 42.21 62.3498L42.0936 62.359Z" fill="white"/>
<path d="M50.9754 62.359C50.934 62.6228 50.9062 62.8885 50.8922 63.1552C50.8922 64.8325 50.9033 66.5117 50.9163 68.1909C50.9163 68.5437 50.8941 68.8448 50.4212 68.8393C49.9483 68.8337 49.758 68.6786 49.7562 68.1817C49.7562 65.8097 49.7562 63.4384 49.7562 61.0677C49.7562 60.4138 50.0979 60.0462 50.617 60.1718C50.8668 60.2394 51.0851 60.3924 51.234 60.6041C51.9563 61.7124 52.6527 62.8208 53.3381 63.9495C53.7851 64.6884 54.1971 65.4273 54.6312 66.1663C54.6829 66.2531 54.8159 66.2919 54.9083 66.351C54.9674 66.2383 55.0782 66.1256 55.0764 66.0148C55.0764 65.2592 55.0339 64.5055 55.0246 63.7519C55.0148 62.8282 55.0148 61.9046 55.0246 60.9809C55.0246 60.4895 55.3294 60.1293 55.7007 60.1644C55.7694 60.173 55.8353 60.1967 55.8938 60.2337C55.9522 60.2707 56.0017 60.3203 56.0388 60.3787C56.1279 60.5899 56.1756 60.8163 56.1792 61.0456C56.189 63.4323 56.189 65.819 56.1792 68.2057C56.1792 68.4033 56.0665 68.7358 55.939 68.7728C55.6028 68.8688 55.178 68.9926 54.9175 68.625C54.4926 68.0246 54.1028 67.4002 53.7149 66.7777C53.0991 65.7925 52.4951 64.7974 51.9027 63.7925C51.6219 63.3233 51.3615 62.8411 51.0918 62.3645L50.9754 62.359Z" fill="white"/>
<path d="M11 64.657C11 63.4415 11 62.226 11 61.0105C11 60.4563 11.2956 60.1718 11.8553 60.157C12.3777 60.1284 12.9013 60.1284 13.4236 60.157C14.2845 60.2254 15.064 60.508 15.6182 61.2118C15.911 61.6077 16.0427 62.0999 15.9869 62.5892C15.931 63.0784 15.6916 63.5282 15.3171 63.8479C14.9698 64.1305 14.968 64.343 15.3337 64.5868C15.6713 64.8034 15.9438 65.1075 16.1222 65.4667C16.3006 65.8259 16.3782 66.2268 16.3467 66.6266C16.3152 67.0264 16.1759 67.4102 15.9435 67.7371C15.7111 68.064 15.3944 68.3217 15.0271 68.4828C14.6425 68.6636 14.2304 68.7791 13.8079 68.8245C13.1024 68.8794 12.3943 68.8936 11.6872 68.867C11.0536 68.8541 11 68.7857 11 68.165C11 66.9957 11 65.8264 11 64.6552V64.657ZM12.1878 66.4507C12.1878 66.8036 12.1878 67.1564 12.1878 67.5111C12.1878 67.7882 12.3171 67.9618 12.5942 67.96C13.0266 67.9852 13.4604 67.961 13.8873 67.8879C15.0548 67.6053 15.524 66.2365 14.7204 65.4181C14.1829 64.8639 13.4643 64.7789 12.7328 64.7549C12.4021 64.7438 12.2377 64.8972 12.2266 65.2075C12.2007 65.6213 12.2118 66.0351 12.2118 66.4507H12.1878ZM12.1841 62.5585C12.2081 63.8516 11.9292 63.9107 13.5197 63.8128C13.8541 63.8086 14.1738 63.6751 14.4119 63.4401C14.6499 63.2052 14.7876 62.8873 14.7962 62.553C14.8571 61.9009 14.5413 61.4908 13.8042 61.2839C13.5986 61.2217 13.3877 61.1784 13.1743 61.1546C12.3541 61.0807 12.1878 61.2358 12.1841 62.0523V62.5585Z" fill="white"/>
<path d="M31.008 60C32.569 60.1533 33.6293 60.8978 34.311 62.2167C34.9926 63.5357 34.9538 64.9692 34.54 66.3085C33.9692 68.1558 32.5413 69.0924 30.476 68.939C28.6712 68.806 27.3615 67.2599 27.2377 65.6583C27.1693 64.7808 27.1453 63.8534 27.3522 63.0092C27.6256 61.8565 28.3368 60.9126 29.532 60.4748C30.0271 60.2974 30.5148 60.157 31.008 60ZM30.9508 67.9766C32.303 68.0542 33.0474 67.04 33.3522 65.9557C33.592 65.1389 33.6156 64.2738 33.4206 63.4452C33.1509 62.3368 32.6355 61.4982 31.4495 61.1933C30.6367 60.9846 29.4175 61.415 29.0259 62.1502C28.2371 63.6151 28.1189 65.1151 28.8596 66.6447C29.2882 67.5314 29.9643 68.0154 30.9508 67.9766Z" fill="white"/>
<path d="M19.2574 64.6182C19.2574 63.4637 19.2574 62.3091 19.2574 61.1546C19.2524 61.025 19.2737 60.8958 19.32 60.7747C19.3662 60.6536 19.4365 60.5432 19.5266 60.45C19.6167 60.3568 19.7247 60.2828 19.8442 60.2324C19.9636 60.1821 20.0921 60.1564 20.2217 60.157C20.8682 60.1422 21.5296 60.0647 22.1576 60.1718C22.8522 60.29 23.5357 60.5413 24.0234 61.1305C24.561 61.7697 24.5905 62.5326 24.3929 63.2697C24.2931 63.6558 23.9717 64.0086 23.678 64.3097C23.2402 64.7586 23.218 64.7346 23.5967 65.2186C24.125 65.8984 24.2211 66.7389 24.4446 67.5332C24.5379 67.8095 24.6132 68.0915 24.67 68.3775C24.6774 68.4476 24.6684 68.5185 24.6437 68.5845C24.619 68.6506 24.5793 68.71 24.5277 68.758C24.0825 68.9926 23.6706 68.8374 23.5099 68.3608C23.2716 67.6515 23.0351 66.9366 22.867 66.2069C22.6823 65.4273 21.5203 64.9729 20.6927 65.202C20.5764 65.2334 20.4655 65.5123 20.46 65.6804C20.4341 66.5117 20.4397 67.343 20.4452 68.1743C20.4452 68.5437 20.4156 68.8596 19.9187 68.843C19.4218 68.8264 19.2666 68.6897 19.2648 68.178C19.2555 66.992 19.2574 65.806 19.2574 64.6182ZM20.4397 62.7469C20.4231 63.1164 20.428 63.4864 20.4544 63.8553C20.4692 63.992 20.6392 64.2137 20.7482 64.2248C21.476 64.2691 22.2075 64.3467 22.8411 63.8036C23.4748 63.2605 23.4692 61.827 22.7063 61.4908C22.1706 61.2562 21.5296 61.234 20.9255 61.1915C20.593 61.1693 20.423 61.4316 20.436 61.7845C20.4489 62.1059 20.4397 62.4273 20.4397 62.7488V62.7469Z" fill="white"/>
<path d="M110.879 66.7537C110.541 66.7537 110.203 66.7445 109.865 66.7537C109.459 66.7703 109.353 66.9218 109.451 67.319C109.599 67.9286 110.458 68.3608 111.225 68.2094C111.374 68.1798 111.537 68.0819 111.668 68.1151C111.833 68.1633 111.974 68.2723 112.062 68.4199C112.095 68.4809 111.938 68.7211 111.821 68.7728C110.833 69.1958 109.405 68.8337 108.818 67.9563C108.621 67.6143 108.512 67.2292 108.5 66.835C108.434 65.9113 108.6 65.0579 109.444 64.4852C110.403 63.835 111.942 64.0973 112.317 65.431C112.632 66.5579 112.461 66.7555 111.295 66.7555L110.879 66.7537ZM110.491 66.0148C110.643 66.0331 110.797 66.03 110.948 66.0055C111.132 65.9483 111.441 65.8393 111.446 65.7377C111.452 65.6227 111.434 65.5078 111.393 65.4001C111.352 65.2924 111.29 65.1941 111.21 65.1114C110.656 64.6459 110.183 64.6792 109.68 65.2038C109.614 65.2814 109.565 65.3723 109.537 65.4705C109.508 65.5686 109.501 65.6717 109.516 65.7728C109.542 65.8836 109.815 65.9575 109.989 66.0074C110.155 66.0318 110.324 66.0367 110.491 66.0222V66.0148Z" fill="white"/>
<path d="M102.025 66.4988C102.025 65.9298 102.025 65.3608 102.025 64.7937C102.025 64.2562 102.245 64.1065 102.709 64.3651C102.984 64.5185 103.159 64.4631 103.448 64.3411C104.473 63.9089 105.637 64.1564 105.821 65.4975C105.953 66.4489 105.884 67.4298 105.897 68.3978C105.905 68.4558 105.9 68.515 105.882 68.5706C105.863 68.6263 105.832 68.6769 105.791 68.7184C105.749 68.76 105.699 68.7913 105.643 68.8101C105.588 68.8288 105.529 68.8344 105.47 68.8264C105.188 68.8264 104.999 68.7081 104.996 68.3885C104.996 67.5591 104.979 66.726 104.972 65.8984C104.983 65.6904 104.921 65.4851 104.796 65.3185C104.671 65.1519 104.491 65.0348 104.288 64.9877C104.079 64.9313 103.857 64.9411 103.653 65.0159C103.449 65.0906 103.274 65.2266 103.15 65.4052C103.033 65.6174 102.969 65.8553 102.966 66.0979C102.94 66.8202 102.945 67.5425 102.954 68.2648C102.954 68.6121 102.857 68.8411 102.469 68.8337C102.081 68.8264 102.04 68.5622 102.04 68.2592C102.04 67.6755 102.04 67.0918 102.04 66.5062L102.025 66.4988Z" fill="white"/>
<path d="M116.517 69C115.645 68.9649 115.208 68.3867 115.165 67.6792C115.124 67.0049 115.137 66.327 115.143 65.6472C115.143 65.3017 115.089 65.0172 114.736 64.8454C114.671 64.8105 114.615 64.761 114.573 64.7007C114.53 64.6405 114.502 64.5711 114.491 64.4982C114.491 64.4113 114.712 64.343 114.805 64.2377C114.938 64.0976 115.047 63.9374 115.13 63.7629C115.187 63.6281 115.113 63.4156 115.195 63.3177C115.32 63.1625 115.495 63.0554 115.69 63.0148C115.78 63.0018 115.915 63.2328 116.007 63.3676C116.044 63.4212 116.026 63.5191 116.007 63.5948C115.956 64.0585 116.166 64.2284 116.621 64.2174C116.805 64.2174 117.103 64.2894 117.145 64.4021C117.243 64.6718 117.195 64.9304 116.776 64.947C116.037 64.9748 116.013 65.032 116.013 65.7783C116.013 66.3159 116.028 66.8534 116.026 67.3929C116.026 67.814 116.286 68.032 116.634 68.1669C116.87 68.2611 117.289 68.2001 117.143 68.6121C117.084 68.7968 116.735 68.8762 116.517 69Z" fill="white"/>
<path d="M98.9162 68.867C98.5671 68.867 98.4156 68.6933 98.4193 68.3553C98.423 68.0172 98.5652 67.8251 98.907 67.8196C99.2487 67.814 99.4021 68.0265 99.4058 68.3442C99.4095 68.6619 99.2672 68.867 98.9162 68.867Z" fill="white"/>
</svg>
