<svg width="128" height="128" viewBox="0 0 128 128" fill="none" xmlns="http://www.w3.org/2000/svg">
<rect width="128" height="128" fill="#FF9301"/>
<path d="M20.0666 88.8981H19.3025C19.1702 88.8981 19.0438 88.8981 18.9114 88.862C18.7937 88.848 18.6771 88.8259 18.5625 88.7959V83.381C18.6773 83.3531 18.7939 83.333 18.9114 83.3208L19.3025 83.2787H20.0546C20.3589 83.2772 20.6628 83.3013 20.9631 83.3509C21.219 83.3946 21.4667 83.4778 21.6971 83.5976C21.8943 83.706 22.0601 83.8635 22.1784 84.0548C22.3028 84.2765 22.365 84.5277 22.3587 84.7818C22.3523 85.0359 22.2776 85.2836 22.1423 85.4988C21.9884 85.7003 21.7795 85.8528 21.5407 85.938C21.839 86.0144 22.1099 86.1728 22.3228 86.3953C22.5281 86.6426 22.6314 86.9589 22.6116 87.2797C22.6272 87.5241 22.5801 87.7684 22.4749 87.9895C22.3696 88.2107 22.2095 88.4012 22.01 88.5432C21.4088 88.843 20.7349 88.9661 20.0666 88.8981ZM19.3326 85.6251H20.1509C20.3341 85.6242 20.5171 85.6102 20.6984 85.583C20.8554 85.5586 21.0076 85.5099 21.1496 85.4386C21.2695 85.3725 21.3708 85.2773 21.4444 85.1619C21.5217 85.0332 21.5593 84.8846 21.5527 84.7347C21.5571 84.5926 21.5194 84.4524 21.4444 84.3316C21.3651 84.2175 21.2572 84.1262 21.1315 84.0669C20.9856 83.9935 20.8294 83.9428 20.6683 83.9164C20.4815 83.8845 20.2923 83.8684 20.1027 83.8683H19.3567V85.5951L19.3326 85.6251ZM19.3326 86.2268V88.1882H20.1148C20.3342 88.1878 20.5534 88.1717 20.7706 88.1401C20.9581 88.1166 21.1409 88.0638 21.312 87.9836C21.4625 87.9152 21.5915 87.807 21.6851 87.6708C21.7863 87.5222 21.8369 87.345 21.8295 87.1654C21.8352 87.0041 21.7978 86.8442 21.7212 86.7021C21.6534 86.5739 21.5486 86.4691 21.4203 86.4013C21.2753 86.3186 21.1162 86.2636 20.9511 86.2388C20.7525 86.2039 20.551 86.1878 20.3494 86.1907L19.3326 86.2268Z" fill="white"/>
<path d="M26.4622 86.5396L26.7871 86.9608C26.9195 87.1353 27.0578 87.3278 27.1962 87.5625C27.3346 87.7971 27.473 87.9957 27.6114 88.2303C27.7393 88.4466 27.8558 88.6695 27.9603 88.8981H27.106C26.9977 88.6936 26.8834 88.489 26.757 88.2965C26.6307 88.104 26.5043 87.8874 26.372 87.6948C26.2396 87.5023 26.1193 87.3278 25.9929 87.1594L25.68 86.66H24.5128V88.838H23.7367V83.3509C23.9783 83.2962 24.2237 83.26 24.4707 83.2426C24.7415 83.2426 24.9881 83.2426 25.2168 83.2426C25.8497 83.1949 26.4815 83.3486 27.0217 83.6818C27.2244 83.8334 27.3857 84.0335 27.4908 84.2638C27.596 84.494 27.6416 84.747 27.6234 84.9994C27.6321 85.3401 27.5285 85.6741 27.3286 85.95C27.1076 86.2313 26.8049 86.4372 26.4622 86.5396ZM25.2589 83.9225C24.928 83.9225 24.6572 83.9225 24.4948 83.9225V86.0222H25.0784C25.3195 86.0234 25.5606 86.0114 25.8004 85.9861C25.9887 85.9664 26.172 85.9135 26.3419 85.8297C26.485 85.7622 26.6045 85.6532 26.6848 85.5168C26.7742 85.3488 26.8159 85.1594 26.8051 84.9693C26.8139 84.7871 26.7723 84.606 26.6848 84.4459C26.6072 84.3092 26.4952 84.1951 26.3599 84.115C26.2098 84.0329 26.0472 83.976 25.8786 83.9465C25.6797 83.9143 25.4785 83.8982 25.2769 83.8984L25.2589 83.9225Z" fill="white"/>
<path d="M30.8723 88.9463C30.5473 88.9549 30.2239 88.8976 29.9217 88.7778C29.6817 88.6818 29.466 88.5339 29.29 88.3446C29.1133 88.1421 28.982 87.9041 28.9049 87.6467C28.8184 87.3661 28.7757 87.0739 28.7786 86.7803V83.2787H29.5607V86.6901C29.5254 87.1242 29.659 87.5553 29.9337 87.8934C30.059 88.02 30.2094 88.1191 30.3751 88.1844C30.5409 88.2496 30.7184 88.2796 30.8964 88.2724C31.0808 88.2749 31.2642 88.2443 31.4379 88.1822C31.6011 88.1211 31.7475 88.0221 31.865 87.8934C31.9881 87.7492 32.0803 87.5813 32.1358 87.4C32.2051 87.1658 32.2375 86.9222 32.2321 86.678V83.2667H33.0142V86.7683C33.0166 87.0618 32.974 87.354 32.8879 87.6347C32.8052 87.8985 32.6656 88.1409 32.4787 88.3446C32.296 88.5471 32.0697 88.7054 31.8169 88.8079C31.5147 88.9178 31.1933 88.9648 30.8723 88.9463Z" fill="white"/>
<path d="M38.1583 88.85C38.038 88.6515 37.9056 88.4288 37.7492 88.1822C37.5928 87.9355 37.4303 87.6768 37.2559 87.412C37.0814 87.1473 36.8949 86.8766 36.7023 86.6058C36.5098 86.3351 36.3233 86.0643 36.1368 85.8116C35.9503 85.559 35.7638 85.3183 35.5893 85.0897C35.4148 84.861 35.2463 84.6685 35.0959 84.488V88.844H34.3318V83.2667H34.9335C35.1862 83.5394 35.4569 83.8523 35.7457 84.2052C36.0285 84.5602 36.3474 84.9272 36.6001 85.3063C36.8528 85.6853 37.1416 86.0583 37.3942 86.4193C37.6469 86.7803 37.8515 87.1112 37.9959 87.394V83.2667H38.76V88.844L38.1583 88.85Z" fill="white"/>
<path d="M42.5925 88.9463C42.2266 88.9502 41.8632 88.8849 41.5216 88.7537C41.2052 88.6311 40.9212 88.4377 40.6913 88.1882C40.4503 87.9245 40.2678 87.6129 40.1558 87.2737C40.0247 86.8739 39.9616 86.4549 39.9693 86.0343C39.9596 85.6095 40.0311 85.1868 40.1799 84.7888C40.3174 84.4469 40.522 84.136 40.7816 83.8743C41.0195 83.6303 41.3066 83.4395 41.6239 83.3148C41.9509 83.184 42.3005 83.1186 42.6527 83.1223C42.8543 83.1199 43.0557 83.136 43.2543 83.1704C43.5378 83.2083 43.8138 83.2895 44.0726 83.4111C44.1333 83.4383 44.1917 83.4705 44.2471 83.5073L44.0245 84.1511C43.9573 84.1111 43.8868 84.0769 43.8139 84.0488C43.7125 84.0032 43.6079 83.965 43.501 83.9345C43.3788 83.8946 43.2542 83.8624 43.128 83.8382C42.9909 83.8142 42.852 83.8021 42.7129 83.8021C42.4382 83.7987 42.1658 83.852 41.9127 83.9586C41.6816 84.0579 41.476 84.208 41.311 84.3978C41.1373 84.6046 41.0064 84.8439 40.9259 85.1017C40.8361 85.4043 40.7915 85.7186 40.7936 86.0343C40.791 86.3412 40.8316 86.647 40.9139 86.9428C40.9808 87.1988 41.0996 87.4384 41.2629 87.6467C41.4229 87.8462 41.6295 88.0032 41.8645 88.104C42.1221 88.2173 42.4014 88.2727 42.6828 88.2664C42.9836 88.272 43.2836 88.2335 43.5732 88.1521C43.7544 88.0967 43.9313 88.0283 44.1027 87.9475L44.3072 88.5913C44.243 88.6328 44.1744 88.6671 44.1027 88.6936C43.9849 88.7409 43.8643 88.7811 43.7417 88.8139C43.5973 88.85 43.4288 88.8801 43.2363 88.9102C43.0227 88.9358 42.8077 88.9479 42.5925 88.9463Z" fill="white"/>
<path d="M48.6933 83.2727H49.4694V88.85H48.6933V86.2749H45.9618V88.85H45.1796V83.2727H45.9618V85.6011H48.6933V83.2727Z" fill="white"/>
<path d="M56.0696 88.1762V88.85H52.7123V83.2727H53.4945V88.1762H56.0696Z" fill="white"/>
<path d="M58.8251 88.9463C58.5001 88.9549 58.1768 88.8976 57.8745 88.7778C57.6218 88.6754 57.3955 88.517 57.2127 88.3145C57.0379 88.1117 56.9086 87.8737 56.8337 87.6166C56.7471 87.3361 56.7045 87.0438 56.7073 86.7502V83.2486H57.4895V86.66C57.4525 87.0934 57.5839 87.5243 57.8565 87.8633C57.9829 87.9901 58.1343 88.0892 58.301 88.1545C58.4678 88.2197 58.6462 88.2496 58.8251 88.2423C59.0096 88.2448 59.193 88.2142 59.3666 88.1521C59.5281 88.091 59.6726 87.9919 59.7878 87.8633C59.915 87.721 60.0095 87.5526 60.0645 87.3699C60.1309 87.1351 60.1633 86.892 60.1608 86.6479V83.2366H60.9369V86.7382C60.9412 87.0314 60.9007 87.3236 60.8166 87.6046C60.7372 87.8611 60.6062 88.0986 60.4316 88.3025C60.2472 88.5031 60.0214 88.6612 59.7697 88.7658C59.4702 88.8889 59.1489 88.9503 58.8251 88.9463Z" fill="white"/>
<path d="M66.1052 88.85C65.9908 88.6515 65.8525 88.4288 65.702 88.1822C65.5516 87.9355 65.3832 87.6768 65.2027 87.412C65.0222 87.1473 64.8417 86.8766 64.6552 86.6058C64.4687 86.3351 64.2761 86.0643 64.0535 85.8116C63.8309 85.559 63.6865 85.3183 63.506 85.0897C63.3255 84.861 63.1691 84.6685 63.0187 84.488V88.844H62.2846V83.2667H62.8863C63.139 83.5374 63.4097 83.8683 63.6925 84.2052C63.9753 84.5422 64.2942 84.9272 64.5469 85.3063C64.7996 85.6853 65.0944 86.0583 65.341 86.4193C65.5877 86.7803 65.8043 87.1112 65.9427 87.394V83.2667H66.7128V88.844L66.1052 88.85Z" fill="white"/>
<path d="M70.5393 88.9463C70.1735 88.9497 69.8102 88.8843 69.4684 88.7537C69.1549 88.6257 68.872 88.433 68.6381 88.1882C68.397 87.9256 68.2163 87.6135 68.1087 87.2737C67.9753 86.8743 67.9102 86.4553 67.9161 86.0343C67.9082 85.6091 67.9817 85.1864 68.1327 84.7888C68.2677 84.4456 68.4726 84.1341 68.7344 83.8743C68.9734 83.6287 69.2628 83.4378 69.5827 83.3148C69.9095 83.1829 70.2592 83.1175 70.6115 83.1223C70.8131 83.1196 71.0146 83.1357 71.2132 83.1704C71.3779 83.1956 71.5407 83.2317 71.7005 83.2787C71.8131 83.317 71.9235 83.3612 72.0314 83.411L72.2119 83.5073L71.9833 84.1511C71.9168 84.1099 71.8462 84.0756 71.7727 84.0488C71.673 84.0042 71.5705 83.966 71.4659 83.9345C71.3418 83.8939 71.2152 83.8617 71.0868 83.8382C70.9498 83.8142 70.8109 83.8021 70.6717 83.8021C70.399 83.7987 70.1285 83.8519 69.8775 83.9586C69.646 84.0569 69.4401 84.2072 69.2759 84.3978C69.1063 84.6065 68.9777 84.8453 68.8968 85.1017C68.804 85.4037 68.7593 85.7184 68.7645 86.0343C68.7601 86.3409 68.7986 86.6467 68.8788 86.9428C68.9456 87.1988 69.0644 87.4384 69.2277 87.6467C69.3891 87.8448 69.5953 88.0015 69.8294 88.104C70.087 88.2172 70.3663 88.2727 70.6476 88.2664C70.9504 88.272 71.2524 88.2334 71.5441 88.1521C71.7249 88.0956 71.9017 88.0272 72.0736 87.9475L72.2721 88.5913C72.2102 88.6331 72.1435 88.6674 72.0736 88.6936C71.9558 88.7409 71.8352 88.7811 71.7126 88.8139C71.5682 88.85 71.3997 88.8801 71.2012 88.9102C70.9816 88.9368 70.7605 88.9488 70.5393 88.9463Z" fill="white"/>
<path d="M76.6401 83.2727H77.4223V88.85H76.6401V86.2749H73.9146V88.85H73.1325V83.2727H73.9146V85.6011H76.6401V83.2727Z" fill="white"/>
<path d="M85.2438 86.0583C85.2554 86.4888 85.1776 86.917 85.0151 87.3158C84.8779 87.6566 84.6613 87.9598 84.3834 88.2002C84.0964 88.4409 83.7624 88.6192 83.4027 88.7237C82.9942 88.8426 82.5706 88.9013 82.1452 88.8981C81.9226 88.8981 81.6699 88.8981 81.3992 88.8981C81.1518 88.8833 80.9063 88.847 80.6652 88.7898V83.375C80.9063 83.3178 81.1518 83.2815 81.3992 83.2667C81.6699 83.2667 81.9226 83.2366 82.1452 83.2366C82.5706 83.2333 82.9942 83.2921 83.4027 83.411C83.7624 83.5155 84.0964 83.6938 84.3834 83.9345C84.6613 84.1749 84.8779 84.4781 85.0151 84.8189C85.1743 85.2124 85.2521 85.634 85.2438 86.0583ZM82.2355 88.2122C82.5353 88.2397 82.8376 88.2043 83.123 88.1084C83.4084 88.0125 83.6707 87.8582 83.8931 87.6552C84.1155 87.4522 84.2931 87.2051 84.4146 86.9297C84.5362 86.6542 84.599 86.3564 84.599 86.0553C84.599 85.7542 84.5362 85.4564 84.4146 85.181C84.2931 84.9055 84.1155 84.6584 83.8931 84.4554C83.6707 84.2525 83.4084 84.0981 83.123 84.0022C82.8376 83.9063 82.5353 83.8709 82.2355 83.8984H81.4714V88.1641H81.7241L82.2355 88.2122Z" fill="white"/>
<path d="M86.4049 83.2727H87.1811V88.85H86.4049V83.2727Z" fill="white"/>
<path d="M92.3914 88.85C92.2711 88.6515 92.1387 88.4288 91.9823 88.1822C91.8258 87.9355 91.6634 87.6768 91.4889 87.412C91.3144 87.1473 91.1279 86.8766 90.9354 86.6058C90.7429 86.3351 90.5564 86.0643 90.3698 85.8116C90.1833 85.559 89.9968 85.3183 89.8223 85.0897C89.6479 84.861 89.4794 84.6685 89.329 84.488V88.844H88.5649V83.2667H89.1665C89.4192 83.5394 89.69 83.8523 89.9788 84.2052C90.2615 84.5602 90.5503 84.9272 90.8331 85.3063C91.1159 85.6853 91.3746 86.0583 91.6273 86.4193C91.88 86.7803 92.0846 87.1112 92.259 87.394V83.2667H93.0652V88.844L92.3914 88.85Z" fill="white"/>
<path d="M98.2515 88.85C98.1312 88.6515 97.9988 88.4288 97.8424 88.1822C97.686 87.9355 97.5235 87.6768 97.349 87.412C97.1745 87.1473 96.988 86.8766 96.7955 86.6058C96.603 86.3351 96.4165 86.0643 96.2299 85.8116C96.0434 85.559 95.8569 85.3183 95.6824 85.0897C95.508 84.861 95.3395 84.6685 95.1891 84.488V88.844H94.425V83.2667H95.0266C95.2793 83.5394 95.5501 83.8523 95.8389 84.2052C96.1217 84.5602 96.4405 84.9272 96.6872 85.3063C96.9339 85.6853 97.2347 86.0583 97.4874 86.4193C97.7401 86.7803 97.9447 87.1112 98.1191 87.394V83.2667H98.8832V88.844L98.2515 88.85Z" fill="white"/>
<path d="M100.285 88.85V83.2727H103.69V83.9405H101.067V85.6011H103.402V86.2509H101.067V88.1822H103.895V88.85H100.285Z" fill="white"/>
<path d="M107.607 86.5396C107.697 86.6479 107.806 86.7863 107.932 86.9608C108.058 87.1353 108.203 87.3278 108.341 87.5625C108.48 87.7971 108.618 87.9956 108.756 88.2303C108.887 88.4453 109.003 88.6684 109.105 88.8981H108.251C108.143 88.6936 108.028 88.489 107.902 88.2965C107.776 88.1039 107.649 87.8873 107.523 87.6948C107.397 87.5023 107.264 87.3278 107.138 87.1593L106.795 86.7262H105.664V88.9041H104.882V83.3509C105.123 83.2962 105.369 83.26 105.616 83.2426C105.886 83.2426 106.133 83.2426 106.362 83.2426C106.994 83.199 107.625 83.3524 108.167 83.6818C108.492 83.9525 108.706 84.3349 108.765 84.7543C108.824 85.1737 108.724 85.6 108.486 85.95C108.264 86.2361 107.956 86.4429 107.607 86.5396ZM106.404 83.9225C106.067 83.9225 105.802 83.9225 105.64 83.9225V86.0222H106.193C106.434 86.0234 106.675 86.0114 106.915 85.9861C107.104 85.9664 107.287 85.9135 107.457 85.8297C107.6 85.7622 107.719 85.6532 107.8 85.5168C107.889 85.3488 107.931 85.1594 107.92 84.9693C107.929 84.7871 107.887 84.606 107.8 84.4459C107.728 84.3194 107.627 84.2121 107.505 84.133C107.355 84.0509 107.192 83.994 107.024 83.9646C106.827 83.9265 106.628 83.9044 106.428 83.8984L106.404 83.9225Z" fill="white"/>
<path d="M78.4511 70.1025H69.8655V39.0511H48.0916V72.1962L51.0999 67.1784C49.2167 63.4783 50.5464 59.8623 53.0794 56.3968C55.486 53.0757 59.0357 49.8989 61.9297 46.9087C67.1761 41.4938 68.3854 45.3745 67.4047 47.1133L54.2526 68.9533L48.5309 79.7831H75.0878L80.6291 71.739C80.9634 71.2484 81.2135 70.7055 81.3691 70.1326L78.4511 70.1025Z" fill="white"/>
<path d="M44.572 61.92C44.0723 60.7719 43.4251 59.6939 42.6467 58.7132C42.5685 58.6229 42.4963 58.5267 42.4241 58.4364C42.5023 58.3101 42.5685 58.1837 42.6467 58.0574C43.7992 56.2435 44.5026 54.181 44.6983 52.0408C44.6983 51.7821 44.6983 51.5294 44.6983 51.2767C44.7469 48.8342 44.0294 46.4379 42.6467 44.4239C42.1982 43.7749 41.6885 43.1705 41.1245 42.6189C39.9914 41.4636 38.6327 40.5538 37.1329 39.9462C35.6331 39.3386 34.0242 39.0462 32.4065 39.0872L18.4602 39.0511V74.1035L20.7886 70.7162C21.2729 70.0557 21.5821 69.2834 21.6874 68.4712C21.7926 67.659 21.6903 66.8334 21.3903 66.0714C20.554 64.1882 21.8535 61.8057 21.8535 61.8057C22.8786 59.9221 24.0033 58.0945 25.2228 56.3306C25.289 56.2283 25.7522 56.3306 25.289 56.2344C25.3491 56.1381 25.4153 56.0418 25.4815 55.9456C29.4163 50.1998 34.4221 43.9125 34.4221 43.9125C34.7109 43.5154 35.5592 42.7092 35.842 42.8957C36.1248 43.0822 35.7577 44.1411 35.5111 44.5803L27.485 57.0225C27.4131 57.0918 27.3579 57.1764 27.3234 57.2701C27.2888 57.3637 27.2759 57.464 27.2856 57.5633C27.2953 57.6626 27.3273 57.7585 27.3793 57.8437C27.4313 57.9289 27.5019 58.0013 27.5858 58.0553C27.6697 58.1094 27.7647 58.1438 27.8638 58.1559C27.9629 58.1681 28.0634 58.1576 28.1579 58.1254C28.2524 58.0932 28.3383 58.0401 28.4093 57.9699C28.4804 57.8998 28.5346 57.8145 28.568 57.7204L36.6121 45.2843C36.9129 44.8812 37.7372 44.1171 38.0139 44.2915C38.2907 44.466 37.9297 45.537 37.6891 45.9762L29.6449 58.4184C29.5711 58.4869 29.514 58.5714 29.4777 58.6653C29.4415 58.7593 29.4272 58.8603 29.4359 58.9606C29.4447 59.061 29.4762 59.158 29.5281 59.2443C29.5799 59.3306 29.6508 59.404 29.7354 59.4587C29.8199 59.5135 29.9158 59.5483 30.0158 59.5604C30.1157 59.5725 30.2172 59.5616 30.3123 59.5286C30.4075 59.4955 30.4938 59.4412 30.5648 59.3698C30.6358 59.2983 30.6895 59.2116 30.7219 59.1163L38.772 46.6801C39.0729 46.277 39.8971 45.4768 40.1739 45.6874C40.4506 45.8979 40.0897 46.9328 39.843 47.372L31.7748 59.8142C31.7144 59.8877 31.6704 59.9733 31.6458 60.0652C31.6212 60.1571 31.6165 60.2532 31.632 60.3471C31.6475 60.441 31.6829 60.5304 31.7359 60.6095C31.7888 60.6886 31.858 60.7554 31.9388 60.8056C32.0197 60.8557 32.1103 60.8881 32.2047 60.9003C32.299 60.9126 32.3949 60.9046 32.4859 60.8768C32.5769 60.849 32.6609 60.8021 32.7323 60.7392C32.8037 60.6763 32.8608 60.5989 32.8999 60.5121L40.9259 48.0759C41.2328 47.6668 42.051 46.9027 42.3278 47.0832C42.6046 47.2637 42.2376 48.3587 41.9909 48.7859C41.9909 48.7859 39.3195 53.9902 36.2631 59.2366C34.6343 62.1325 32.8258 64.9237 30.8483 67.5936C30.8483 67.5936 29.2057 69.7595 27.1421 69.7655C26.3242 69.8022 25.5292 70.0469 24.8323 70.4764C24.1353 70.906 23.5595 71.5062 23.1591 72.2203L18.5745 79.759H28.5138L32.7675 79.6868C34.461 79.7089 36.1421 79.3955 37.7137 78.7645C39.2854 78.1336 40.7166 77.1976 41.9247 76.0107C42.1774 75.764 42.4181 75.5053 42.6527 75.2406C44.1512 73.4035 45.122 71.1935 45.4611 68.8471C45.8002 66.5007 45.495 64.1062 44.578 61.92H44.572Z" fill="white"/>
<path d="M81.4894 68.5502C81.4737 68.4288 81.4516 68.3083 81.4232 68.1892C81.358 67.8737 81.2465 67.5696 81.0923 67.2867C78.8482 64.1341 79.4318 59.9345 81.4774 56.0418C85.2197 48.9002 93.8594 42.8055 98.8832 46.0363C102.571 48.4429 102.457 54.652 100.165 60.3076C97.6378 66.5527 92.4516 72.1 86.796 70.9749C85.695 70.9027 84.1427 71.3298 82.9515 73.213L78.9745 79.759H89.1485C94.9123 79.759 99.7396 77.8137 103.63 73.923C105.515 72.0964 107.009 69.9063 108.022 67.4853C108.686 65.8648 109.131 64.1632 109.346 62.4254C109.476 61.4279 109.541 60.423 109.539 59.4171C109.568 56.6835 109.052 53.9715 108.022 51.4392C107.005 49.0273 105.511 46.8457 103.63 45.0256C101.751 43.1073 99.5027 41.5891 97.0211 40.5624C94.5396 39.5356 91.876 39.0216 89.1906 39.0511H75.3526V68.5322L81.4894 68.5502Z" fill="white"/>
</svg>
