<svg width="128" height="128" viewBox="0 0 128 128" fill="none" xmlns="http://www.w3.org/2000/svg">
<rect width="128" height="128" fill="#DCDCDC"/>
<path d="M99 54.9083C99 36.1812 83.553 21 64.4985 21C45.4439 21 30 36.1812 30 54.9083C30 70.5869 40.8288 83.7785 55.5347 87.657L69.8731 106.137C69.9833 106.277 70.0854 106.421 70.1793 106.567C70.2947 106.738 70.4611 106.868 70.655 106.94C70.849 107.011 71.0605 107.019 71.2595 106.964C71.4586 106.908 71.6351 106.792 71.7638 106.631C71.8926 106.47 71.9672 106.272 71.977 106.067L72.8957 87.8126C87.8803 84.1203 99 70.7883 99 54.9083Z" fill="#FCBE0E"/>
<path d="M68.5381 44.7715H60.6063C59.6701 44.7707 58.7724 44.3997 58.1104 43.7401C57.4484 43.0804 57.0761 42.186 57.0753 41.2531V39.3978C57.0761 38.4646 57.4483 37.5698 58.1102 36.9097C58.7722 36.2496 59.6698 35.878 60.6063 35.8763H68.5381C69.4748 35.878 70.3728 36.2495 71.0352 36.9095C71.6976 37.5696 72.0705 38.4643 72.0721 39.3978V41.2531C72.0705 42.1863 71.6975 43.0807 71.035 43.7403C70.3725 44.3998 69.4746 44.7707 68.5381 44.7715ZM60.6063 38.0124C60.2381 38.0132 59.8852 38.1595 59.6252 38.4192C59.3651 38.679 59.219 39.0309 59.219 39.3978V41.2531C59.219 41.6197 59.3652 41.9713 59.6254 42.2305C59.8855 42.4898 60.2384 42.6354 60.6063 42.6354H68.5381C68.9063 42.6354 69.2594 42.4899 69.5201 42.2307C69.7808 41.9716 69.9276 41.62 69.9284 41.2531V39.3978C69.9276 39.0306 69.7809 38.6787 69.5203 38.4191C69.2597 38.1594 68.9065 38.0132 68.5381 38.0124H60.6063Z" fill="white"/>
<path d="M70.1917 74.2702H59.4211C59.0353 74.2702 58.6653 74.1175 58.3925 73.8457C58.1197 73.5738 57.9664 73.2052 57.9664 72.8207V47.8534C57.9664 47.4689 58.1197 47.1003 58.3925 46.8284C58.6653 46.5566 59.0353 46.4039 59.4211 46.4039H70.1917C70.383 46.4035 70.5725 46.4407 70.7493 46.5134C70.9262 46.586 71.0869 46.6927 71.2223 46.8274C71.3577 46.962 71.4651 47.1219 71.5384 47.298C71.6117 47.474 71.6494 47.6628 71.6494 47.8534V72.8207C71.6494 73.0114 71.6117 73.2001 71.5384 73.3761C71.4651 73.5522 71.3577 73.7121 71.2223 73.8467C71.0869 73.9814 70.9262 74.0881 70.7493 74.1608C70.5725 74.2334 70.383 74.2706 70.1917 74.2702ZM60.1101 72.1342H69.5057V48.54H60.1101V72.1342Z" fill="white"/>
</svg>
