<svg width="128" height="128" viewBox="0 0 128 128" fill="none" xmlns="http://www.w3.org/2000/svg">
<rect width="128" height="128" fill="white"/>
<path d="M100.133 54.1454C100.133 82.6109 67.4793 108.892 63.9999 108.892C60.5206 108.892 27.8672 82.6109 27.8672 54.1454H100.133Z" fill="#3C28CC"/>
<rect x="27.8672" y="19.1079" width="72.2655" height="72.2655" rx="36.1328" fill="#3C28CC"/>
<path d="M54.1455 41.0067C54.1455 38.5878 56.1064 36.627 58.5252 36.627H69.4746C71.8934 36.627 73.8543 38.5878 73.8543 41.0067V45.3864H69.4746V41.0067L58.5252 40.9858V45.3447H54.1455V41.0067Z" fill="#B6C1D3"/>
<rect x="43.1963" y="43.1967" width="41.6074" height="32.848" rx="2.18986" fill="white"/>
<rect x="43.1963" y="54.1454" width="41.6074" height="2.18986" fill="#E5E9F0"/>
<path d="M54.124 51.9559V56.3148C54.124 57.5184 53.1482 58.4942 51.9446 58.4942C50.7409 58.4942 49.7651 57.5184 49.7651 56.3148L49.7651 51.9559L54.124 51.9559Z" fill="#B6C1D3"/>
<path d="M78.2125 51.9559V56.3148C78.2125 57.5184 77.2367 58.4942 76.0331 58.4942C74.8294 58.4942 73.8536 57.5184 73.8536 56.3148V51.9559L78.2125 51.9559Z" fill="#B6C1D3"/>
</svg>
