<svg width="128" height="128" viewBox="0 0 128 128" fill="none" xmlns="http://www.w3.org/2000/svg">
<rect width="128" height="128" fill="white"/>
<path fill-rule="evenodd" clip-rule="evenodd" d="M64.0001 45.3635C74.2922 45.3635 82.6364 53.7077 82.6364 63.9998C82.6364 74.2928 74.2922 82.636 64.0001 82.636C53.7081 82.636 45.3639 74.2928 45.3639 63.9998C45.3639 53.7077 53.7081 45.3635 64.0001 45.3635Z" fill="#DF7C2F"/>
<path fill-rule="evenodd" clip-rule="evenodd" d="M42.7497 63.9999C42.7497 57.5999 45.6037 51.8631 50.0967 47.9636H27.3488C25.2009 52.8659 24 58.292 24 63.9999C24 69.7087 25.2009 75.1198 27.3488 80.0361H50.1116C45.6176 76.1366 42.7497 70.4008 42.7497 63.9999Z" fill="#45443B"/>
<path fill-rule="evenodd" clip-rule="evenodd" d="M64.0001 24C49.7155 24 37.1825 31.5023 30.1044 42.7637H64.0001C75.7136 42.7637 85.2363 52.2864 85.2363 63.9999C85.2363 75.7134 75.7136 85.2361 64.0001 85.2361H30.1044C37.1825 96.4975 49.7155 104 64.0001 104C86.0987 104 104 86.0836 104 63.9999C104 41.9162 86.0838 24 64.0001 24Z" fill="#45443B"/>
<path fill-rule="evenodd" clip-rule="evenodd" d="M47.9636 63.9999C47.9636 55.1553 55.1552 47.9637 63.9998 47.9637C72.8454 47.9637 80.037 55.1553 80.037 63.9999C80.037 72.8445 72.8445 80.0361 63.9998 80.0361C55.1552 80.0361 47.9636 72.8455 47.9636 63.9999ZM85.2361 63.9999C85.2361 52.2864 75.7133 42.7637 63.9998 42.7637H30.1041C29.0585 44.4167 28.1395 46.1692 27.3488 47.9776H50.1115C45.6185 51.8771 42.7636 57.6139 42.7636 64.0139C42.7636 70.4148 45.6185 76.1515 50.1115 80.051H27.3488C28.1395 81.8594 29.0725 83.5971 30.1041 85.264H63.9998C75.7133 85.2501 85.2361 75.7134 85.2361 63.9999Z" fill="white"/>
</svg>
