<svg width="128" height="128" viewBox="0 0 128 128" fill="none" xmlns="http://www.w3.org/2000/svg">
<rect width="128" height="128" fill="#FFC42B"/>
<path d="M58.3019 21.7427C58.7992 20.6231 60.1456 21.137 61.0918 21.0147C61.2798 22.4279 61.0675 23.8534 60.2002 25.0158C56.7735 30.4364 53.8017 36.1567 50.1263 41.4181C47.112 40.4821 44.7164 38.3286 42.2661 36.4259C42.1388 39.8642 42.2237 43.3086 42.2965 46.7469C44.9893 48.6985 48.4585 50.0751 49.9262 53.2809C51.0543 56.6886 47.2879 60.2615 43.9886 59.3071C40.7438 57.4411 40.3011 53.3849 39.4763 50.0873C39.2701 48.3131 37.2808 47.9705 36.0071 47.1935C35.1459 49.7692 34.6486 52.5284 33.0413 54.7798C28.9778 54.8104 25.2418 52.9994 21.3845 51.9716C22.0395 55.4895 23.4223 58.7932 24.7869 62.0785C25.5693 63.6998 25.3813 65.529 25.3025 67.2727C23.6589 68.1231 21.8879 68.6859 20.0684 69.0041C23.4041 72.8706 27.595 75.8134 31.6221 78.8907C34.6122 81.1666 38.0813 82.794 40.762 85.4859C39.7977 88.3919 38.1784 91.0165 37.1655 93.9042C42.9757 92.6317 48.8102 91.4203 54.4628 89.536C55.7243 89.0649 57.0646 88.9058 58.4111 88.9854C58.5627 93.1456 59.6241 97.2752 59.0479 101.442C58.7204 103.546 58.593 105.663 58.4899 107.786C57.5438 107.89 56.5916 107.957 55.6454 108C55.4696 102.959 55.8274 97.9053 55.5727 92.858C51.5941 93.8247 47.7064 95.1645 43.6793 95.9415C40.4467 96.5533 37.2929 97.7279 33.9572 97.6239C33.5993 96.7062 32.9746 95.8008 33.2172 94.7668C34.0481 91.8792 35.7645 89.3402 36.5712 86.4342C30.0998 81.7355 23.1009 77.5264 17.7637 71.4574C16.4173 70.0625 15.8957 68.1965 16.017 66.2877C18.1701 65.8227 20.3171 65.3333 22.4762 64.8622C20.0381 59.2826 17.3452 53.4399 17.4908 47.218C18.8615 47.1629 20.3171 47.0895 21.5543 47.8114C24.6171 49.396 27.9043 50.4299 31.2461 51.2008C32.1923 48.1234 32.9261 44.936 34.5758 42.14C36.0496 42.7151 37.4202 43.5044 38.7606 44.3364C38.6939 40.9287 38.6211 37.5271 38.6818 34.1194C38.6272 32.7122 39.2458 31.4275 39.7916 30.1672C40.1434 30.1549 40.853 30.1243 41.2048 30.1121C43.6793 32.5777 45.8748 35.3858 48.9012 37.209C52.2187 32.1678 54.9844 26.7839 58.3019 21.7427ZM43.3578 51.6841C43.7642 53.1769 44.2918 54.6391 44.9044 56.0645C45.5715 55.6485 46.2387 55.2264 46.8998 54.8042C46.178 53.3053 44.8559 52.3265 43.3578 51.6841Z" fill="#040301"/>
<path d="M87.0134 51.3048C89.6941 49.8915 92.3263 47.9827 95.4376 47.7747C96.8265 50.8092 96.1654 54.2169 96.2382 57.4411C95.0677 68.9123 93.0662 80.3468 89.7608 91.3958C89.494 92.803 88.5964 93.8614 87.4804 94.6873C86.9164 94.2285 86.3705 93.7513 85.8489 93.2557C85.5214 90.8758 86.7829 88.6733 87.3167 86.4097C90.2036 75.434 92.3445 64.177 92.6295 52.8037C91.0769 53.3788 89.5122 53.9294 87.8807 54.2169C87.5714 53.2503 87.2742 52.2836 87.0134 51.3048Z" fill="#040301"/>
<path d="M102.34 51.1212C104.153 49.8303 106.215 48.9371 108.241 48.0622C109.175 47.6462 110.782 47.7441 110.849 49.0472C111.116 52.9321 110.976 56.8476 110.837 60.7448C109.436 71.0903 107.677 81.4297 104.717 91.457C104.353 92.6806 103.553 93.6901 102.77 94.6689C101.951 94.1183 101.133 93.5616 100.32 92.9987C103.759 81.8273 106.197 70.3317 107.264 58.6769C107.361 56.8232 107.325 54.9633 107.319 53.1096C105.712 53.5195 104.098 53.9355 102.443 54.1129C102.34 53.1279 101.933 52.0879 102.34 51.1212Z" fill="#040301"/>
<path d="M78.9106 50.4544C79.6991 50.3504 80.4936 50.2525 81.2881 50.1485C81.6398 50.7174 81.9613 51.2986 82.2585 51.8921C80.2024 61.6686 78.2253 71.4696 76.1329 81.2461C75.0351 85.4369 74.7743 89.848 73.1732 93.9042C72.1664 93.8981 71.1596 93.8553 70.1589 93.788C70.4257 87.774 72.3483 81.9803 73.3672 76.0642C66.5624 77.0859 59.3875 78.2667 52.6979 76.052C50.7571 75.2505 50.4842 72.889 51.2847 71.1453C53.274 65.9451 56.5673 61.3872 59.2541 56.5479C60.0061 55.2447 60.643 53.8376 61.7165 52.7608C62.4988 52.7241 63.2691 52.8281 64.0454 52.8954C64.0636 53.9906 64.3123 55.1713 63.7725 56.1869C60.9462 61.7971 56.8463 66.7526 54.7357 72.7177C58.4838 73.6415 62.4018 73.8984 66.2167 73.2071C68.861 72.7727 71.8631 73.2805 74.186 71.6898C76.1147 64.697 76.9941 57.4533 78.9106 50.4544Z" fill="#040301"/>
</svg>
