<svg width="129" height="129" viewBox="0 0 129 129" fill="none" xmlns="http://www.w3.org/2000/svg">
<rect width="128" height="128" transform="translate(0.333496 0.555664)" fill="black"/>
<path d="M28.6276 102.158V26.9528H100.04V102.158H28.6276Z" fill="black" stroke="white" stroke-width="0.670252"/>
<path d="M66.0911 90.8647C51.235 90.8647 43.3159 79.8793 43.3159 65.0566C43.3159 48.9538 52.7363 39.262 66.1581 39.262C78.4472 39.262 83.3032 44.5436 86.7349 53.9673L74.1609 58.9171C72.3747 54.2555 70.6622 51.3165 66.0911 51.3165C60.3001 51.3165 57.8001 57.1242 57.8001 65.06C57.8001 72.9958 60.2297 78.8136 66.2352 78.8136C70.5885 78.8136 72.4484 76.4509 75.163 71.7189L86.8723 77.9623C83.5244 84.5174 77.9479 90.868 66.0911 90.868V90.8647Z" fill="white"/>
</svg>
