<svg width="128" height="128" viewBox="0 0 128 128" fill="none" xmlns="http://www.w3.org/2000/svg">
<rect width="128" height="128" fill="white"/>
<path d="M91.5347 85.9108C89.9125 87.4476 87.9488 88.8137 85.5582 90.0943C79.667 93.168 74.3735 93.3387 72.5806 93.3387C65.3234 93.3387 60.1153 90.5212 56.7001 88.6429C53.7972 87.0207 48.6745 83.7763 38.9413 71.5671C34.8431 66.4444 29.5496 59.3579 24 50.137C27.3298 47.8318 30.4888 45.8681 33.3917 44.3313C33.5624 44.502 33.6478 44.6728 33.8186 44.8435C41.7588 54.2352 44.2348 57.7357 48.7599 62.8585C51.8335 66.359 56.3586 71.0548 62.5059 76.1776C63.0181 76.6045 63.7865 76.6899 64.3842 76.263C64.8111 75.9214 64.9819 75.4945 64.9819 75.0677C64.9819 74.7261 64.8965 74.3846 64.6403 74.0431C60.5422 69.3473 56.5293 64.5661 52.4312 59.7848C47.3938 53.8937 42.4418 48.0879 37.4899 42.2822C38.8559 41.5991 40.1366 41.0869 41.3319 40.5746C43.6371 39.6354 45.857 38.6963 48.1622 37.8425C54.5656 43.9044 61.9082 50.3078 68.5678 57.565C77.5325 67.2128 85.1313 76.5191 91.5347 85.9108Z" fill="url(#paint0_linear_54_3387)"/>
<path d="M98.4504 77.4583C96.0598 72.9332 92.6446 67.6397 88.3757 62.1755C84.1067 56.7966 79.8378 52.613 76.0811 49.3686C75.825 49.1125 75.7396 48.8564 75.7396 48.5148C75.7396 48.1733 75.9104 47.9172 76.1665 47.6611C76.5934 47.3195 77.191 47.3195 77.5326 47.6611C81.6307 51.0762 86.1558 55.3452 90.7663 60.6386C94.7791 65.3345 98.0235 69.8596 100.67 74.0431C102.207 71.311 103.232 68.835 104 66.7005C102.549 63.5415 100.158 59.0164 96.4013 53.9791C91.7054 47.7464 86.6681 40.9161 77.6179 37.3302C71.556 34.9396 66.2625 34.9396 62.762 35.025C58.2369 35.1104 54.3949 35.8788 50.809 36.9887C57.0416 42.0261 63.7012 48.088 70.4461 55.3452C80.0939 65.676 87.4365 75.8361 92.9861 84.7155L98.4504 77.4583Z" fill="url(#paint1_linear_54_3387)"/>
<defs>
<linearGradient id="paint0_linear_54_3387" x1="23.9816" y1="65.5643" x2="91.5205" y2="65.5643" gradientUnits="userSpaceOnUse">
<stop stop-color="#35839D"/>
<stop offset="1" stop-color="#213865"/>
</linearGradient>
<linearGradient id="paint1_linear_54_3387" x1="50.6089" y1="59.8896" x2="103.886" y2="59.8896" gradientUnits="userSpaceOnUse">
<stop stop-color="#AA222D"/>
<stop offset="1" stop-color="#8A191F"/>
</linearGradient>
</defs>
</svg>
