<svg width="129" height="129" viewBox="0 0 129 129" fill="none" xmlns="http://www.w3.org/2000/svg">
<rect width="128" height="128" transform="translate(0.666504 0.416748)" fill="#0C0F0D"/>
<path d="M45.7241 40.3187C49.9173 34.8135 60.4716 32.0083 70.9105 36.4186C68.1241 34.0438 64.5377 32.293 60.4561 31.5542C48.4242 29.3763 39.5646 34.1494 37.9635 43.0287C37.0592 48.037 38.8165 54.0388 43.1103 57.8625C41.7195 51.763 41.9108 45.326 45.7241 40.3187Z" fill="url(#paint0_linear_527_1124)"/>
<path d="M27.7432 80.0828C29.8595 79.6914 32.6432 78.0048 33.586 74.7441C34.4825 71.6421 34.1599 67.9096 31.2767 62.1553C29.743 59.094 28.2445 56.6945 26.6987 54.4753C24.1168 56.1262 22.306 59.1149 24.1454 64.0204C26.0143 69.0035 30.7621 73.2609 27.7432 80.0828Z" fill="#3A2D90"/>
<path d="M46.1933 90.7059C40.6611 86.9366 38.4347 82.2915 37.4381 78.4628C37.2743 79.3435 37.0874 80.2962 36.8631 81.3763C36.1557 84.79 34.9408 90.4464 40.0916 94.3576C44.9784 98.0681 54.2607 98.6068 62.2502 95.6164C57.0731 95.5048 51.394 94.2487 46.1933 90.7059Z" fill="#282C76"/>
<path d="M66.5714 93.5559C59.8864 91.9893 52.8886 85.4549 49.5025 77.0115C46.1163 68.568 45.4457 59.0709 46.688 51.7827C47.7109 45.7806 49.9092 44.6366 51.8969 44.6366C54.0842 44.6366 55.5998 46.9987 55.0787 52.7217C54.6554 57.3646 53.799 65.0978 55.3386 73.8216C56.7409 81.7664 59.9644 89.0912 66.5714 93.5559Z" fill="url(#paint1_linear_527_1124)"/>
<path d="M73.1831 37.893C78.7279 41.0483 84.5142 48.2567 85.6395 65.785C86.7652 83.3305 84.4206 90.0644 79.3305 93.9574C76.5034 96.1205 73.989 95.6879 73.3974 94.683C72.7114 93.5176 73.906 92.4913 75.3363 90.1589C77.3267 86.9146 78.65 81.2939 76.998 74.7425C75.405 68.4253 74.3297 65.3936 74.6898 57.3873C75.0592 49.1714 78.1866 43.8013 73.1831 37.893Z" fill="url(#paint2_linear_527_1124)"/>
<path d="M93.8648 62.6232C92.6075 62.6232 91.5878 63.6429 91.5878 64.8999C91.5878 66.1577 92.6075 67.1774 93.8648 67.1774C95.123 67.1774 96.1427 66.1577 96.1427 64.8999C96.1427 63.6429 95.123 62.6232 93.8648 62.6232ZM106.716 72.3859C106.694 72.6937 106.567 72.9229 106.188 73.1775C105.809 73.4304 104.806 73.6485 103.571 73.9691C102.978 74.1229 102.978 74.6506 103.747 74.5407C104.542 74.4264 104.93 74.3247 105.704 74.1889C105.748 74.5187 105.44 74.8925 104.882 75.13C103.18 75.8545 95.0042 78.3281 88.9548 84.0654C90.3208 76.8891 90.4566 70.0937 89.6892 63.236C88.9669 56.7837 87.2182 49.4369 83.2412 43.3428C87.8257 45.761 91.6401 50.1564 94.0127 55.129C96.9261 61.2356 97.9529 65.0281 99.6884 67.6722C101.313 70.147 103.082 70.2667 104.442 70.5344C106.003 70.8423 106.788 71.37 106.716 72.3859Z" fill="url(#paint3_linear_527_1124)"/>
<path d="M30.1392 53.1604C34.3235 53.1016 37.8983 56.214 40.2796 61.6918C42.6835 67.2196 42.6614 72.4692 45.2324 78.1906C47.7225 83.7316 51.3386 88.2144 53.8726 90.1038C48.3898 88.4453 43.4007 84.1037 40.4538 76.5002C38.5007 71.4606 37.6295 66.6259 35.159 61.5114C32.6579 56.3328 30.1392 53.1604 30.1392 53.1604Z" fill="#2B3085"/>
<path d="M72.8121 79.4889C69.7129 80.2184 67.1551 82.1335 66.0656 83.1241C65.2048 80.0826 66.5411 74.6576 70.814 71.3825C70.4292 70.0384 70.0647 68.6516 69.7915 67.0656C69.018 62.5844 69.1236 58.0109 70.0477 52.4678C71.279 45.0803 70.9047 41.1383 66.5769 38.928C62.6591 36.927 56.133 37.3212 51.8667 39.6804C58.4758 39.4529 61.2958 44.8439 60.7544 52.5831C60.2805 59.3506 57.957 68.3289 61.2661 78.898C63.3809 85.6528 67.3299 89.2517 69.7349 90.908C72.0211 88.4409 73.336 85.3175 73.0705 81.8214C73.0073 80.9913 72.9182 80.2211 72.8121 79.4889Z" fill="url(#paint4_linear_527_1124)"/>
<path d="M61.291 78.9684C63.4117 85.6748 67.3384 89.2572 69.7345 90.908C72.0207 88.4409 73.3356 85.3175 73.0701 81.8214C73.0069 80.9913 72.9178 80.2217 72.8117 79.4889C69.7125 80.219 67.1541 82.133 66.0652 83.1241C65.2044 80.0826 66.5407 74.657 70.813 71.3825C70.4288 70.0384 70.0643 68.6516 69.791 67.0656C69.5548 65.6958 69.4101 64.3117 69.3365 62.8999C64.5305 66.6423 61.4092 72.4324 61.291 78.9684Z" fill="url(#paint5_linear_527_1124)"/>
<path d="M74.6238 59.9065C74.581 66.111 75.5841 69.1372 76.9979 74.7425C78.6499 81.2939 77.3266 86.9146 75.3362 90.1589C73.9059 92.4913 72.7113 93.5176 73.3973 94.683C73.9889 95.6879 76.5033 96.1205 79.3304 93.9574C84.4206 90.0644 86.7652 83.3305 85.6394 65.785C85.4727 63.1921 85.1941 60.8504 84.8389 58.6884C83.9495 58.5729 83.0485 58.4927 82.1273 58.4927C79.4782 58.4927 76.9551 59.0062 74.6238 59.9065Z" fill="url(#paint6_linear_527_1124)"/>
<path d="M49.7141 70.624C49.7141 65.0033 51.6276 59.8399 54.8115 55.7061C54.9038 54.6206 54.9978 53.6003 55.0787 52.7218C55.5998 46.9988 54.0842 44.6368 51.8969 44.6368C49.9092 44.6368 47.7109 45.7807 46.688 51.7829C45.4457 59.071 46.1163 68.5682 49.5025 77.0116C51.3093 81.5192 54.1508 85.4715 57.4192 88.4246C52.6853 83.9599 49.7141 77.6449 49.7141 70.624Z" fill="url(#paint7_linear_527_1124)"/>
<path d="M60.8027 50.1387C63.7151 48.2295 67.0606 46.9416 70.6579 46.4188C70.6397 42.7529 69.5293 40.4364 66.5769 38.928C62.6591 36.9271 56.133 37.3212 51.8667 39.6805C57.7531 39.4777 60.6264 43.738 60.8027 50.1387Z" fill="url(#paint8_linear_527_1124)"/>
<path d="M75.9711 46.2227C77.859 46.3574 79.6933 46.6827 81.438 47.2214C79.0979 42.3753 76.1103 39.5586 73.1831 37.893C75.5347 40.6707 76.0817 43.3318 75.9711 46.2227Z" fill="url(#paint9_linear_527_1124)"/>
<path d="M38.3159 49.8681C39.1005 52.8447 40.6863 55.7033 43.1105 57.8625C41.7198 51.763 41.911 45.326 45.7243 40.3187C47.9903 37.3437 52.1201 35.1713 57.0785 34.4853C48.1787 35.3609 40.8485 41.5671 38.3159 49.8681Z" fill="url(#paint10_linear_527_1124)"/>
<path d="M37.4379 78.4627C37.2741 79.3434 37.0872 80.2961 36.8629 81.3761C36.8288 81.5422 36.7926 81.7169 36.7568 81.8929C38.1559 88.8807 44.0305 94.7021 52.0501 97.532C55.4028 97.4809 58.9363 96.8569 62.25 95.6163C57.0729 95.5047 51.3938 94.2486 46.1931 90.7058C40.6609 86.9364 38.4345 82.2914 37.4379 78.4627Z" fill="url(#paint11_linear_527_1124)"/>
<path d="M105.704 74.1889C104.93 74.3247 104.541 74.4264 103.747 74.5407C103.008 74.6462 102.994 74.1697 103.52 73.9948C100.015 74.8441 94.4005 76.3669 89.683 79.2929C89.4961 80.8689 89.2608 82.4564 88.9546 84.0654C95.004 78.3281 103.18 75.8545 104.882 75.13C105.44 74.8925 105.747 74.5187 105.704 74.1889Z" fill="url(#paint12_linear_527_1124)"/>
<defs>
<linearGradient id="paint0_linear_527_1124" x1="55.2382" y1="45.3116" x2="34.3235" y2="41.6568" gradientUnits="userSpaceOnUse">
<stop stop-color="#5692D4"/>
<stop offset="1" stop-color="#4474C3"/>
</linearGradient>
<linearGradient id="paint1_linear_527_1124" x1="52.2866" y1="63.2602" x2="60.2057" y2="92.5002" gradientUnits="userSpaceOnUse">
<stop stop-color="#5692D4"/>
<stop offset="1" stop-color="#4474C3"/>
</linearGradient>
<linearGradient id="paint2_linear_527_1124" x1="79.9156" y1="85.9807" x2="77.073" y2="50.8522" gradientUnits="userSpaceOnUse">
<stop stop-color="#F8EA10"/>
<stop offset="1" stop-color="#F5F014"/>
</linearGradient>
<linearGradient id="paint3_linear_527_1124" x1="95.4623" y1="62.1522" x2="97.395" y2="75.133" gradientUnits="userSpaceOnUse">
<stop stop-color="#ED1D24"/>
<stop offset="0.523998" stop-color="#ED1C24"/>
<stop offset="1" stop-color="#E31D25"/>
</linearGradient>
<linearGradient id="paint4_linear_527_1124" x1="64.9556" y1="58.5203" x2="69.4226" y2="72.5309" gradientUnits="userSpaceOnUse">
<stop stop-color="#41B93C"/>
<stop offset="1" stop-color="#30AD41"/>
</linearGradient>
<linearGradient id="paint5_linear_527_1124" x1="73.499" y1="74.9508" x2="56.6906" y2="83.2334" gradientUnits="userSpaceOnUse">
<stop stop-color="#299540"/>
<stop offset="1" stop-color="#30AD41"/>
</linearGradient>
<linearGradient id="paint6_linear_527_1124" x1="76.2077" y1="57.8657" x2="79.1308" y2="77.1098" gradientUnits="userSpaceOnUse">
<stop stop-color="#FBC813"/>
<stop offset="1" stop-color="#F8EA10"/>
</linearGradient>
<linearGradient id="paint7_linear_527_1124" x1="46.7371" y1="49.5551" x2="53.8832" y2="66.1502" gradientUnits="userSpaceOnUse">
<stop stop-color="#406FC0"/>
<stop offset="1" stop-color="#4878C5"/>
</linearGradient>
<linearGradient id="paint8_linear_527_1124" x1="60.4651" y1="40.1962" x2="63.9833" y2="46.3531" gradientUnits="userSpaceOnUse">
<stop stop-color="#299540"/>
<stop offset="1" stop-color="#30AD41"/>
</linearGradient>
<linearGradient id="paint9_linear_527_1124" x1="77.9064" y1="52.4859" x2="77.2852" y2="42.1369" gradientUnits="userSpaceOnUse">
<stop stop-color="#FBC813"/>
<stop offset="1" stop-color="#F8EA10"/>
</linearGradient>
<linearGradient id="paint10_linear_527_1124" x1="46.6019" y1="45.832" x2="40.0103" y2="53.0833" gradientUnits="userSpaceOnUse">
<stop stop-color="#406FC0"/>
<stop offset="1" stop-color="#4474C3"/>
</linearGradient>
<linearGradient id="paint11_linear_527_1124" x1="35.0993" y1="84.1059" x2="58.7259" y2="93.6806" gradientUnits="userSpaceOnUse">
<stop stop-color="#282C76"/>
<stop offset="1" stop-color="#405EB4"/>
</linearGradient>
<linearGradient id="paint12_linear_527_1124" x1="106.75" y1="76.0837" x2="89.151" y2="80.9723" gradientUnits="userSpaceOnUse">
<stop stop-color="#E31D25"/>
<stop offset="1" stop-color="#B71D23"/>
</linearGradient>
</defs>
</svg>
