<svg width="128" height="128" viewBox="0 0 128 128" fill="none" xmlns="http://www.w3.org/2000/svg">
<rect width="128" height="128" fill="black"/>
<path d="M69.3655 62.1747C69.3655 61.6559 70.7389 61.6801 71.2887 61.6898H71.2903C71.3491 61.6908 71.3984 61.6917 71.4355 61.6917C71.8184 61.6917 74.1508 61.7878 75.1723 62.1396L75.3969 61.0572C75.3969 61.0572 74.1184 60.6094 70.8929 60.6094C67.2522 60.6094 66.3578 61.4712 66.3578 62.4616C66.3578 63.973 68.6671 64.187 70.5872 64.365C71.9535 64.4916 73.1226 64.6 73.1226 65.1445C73.1226 65.8373 71.3622 65.825 70.8395 65.8214L70.7934 65.821L70.759 65.8209C69.3464 65.8 67.9416 65.6069 66.5757 65.2459L66.2889 66.4636C66.2889 66.4636 68.62 66.9101 70.7536 66.9101C72.8872 66.9101 76.2154 66.6232 76.2154 64.8657C76.2217 63.4376 73.9265 63.1993 71.9916 62.9985C70.5831 62.8523 69.3655 62.7259 69.3655 62.1747Z" fill="white"/>
<path d="M21.7728 62.1098C20.7464 61.964 19.7124 61.8791 18.6759 61.8554C17.3338 61.8554 14.8106 62.0773 14.8106 63.7387C14.8106 65.4002 16.9185 65.6559 18.6435 65.6559C19.6803 65.6562 20.7158 65.5812 21.7417 65.4313L21.5185 66.6137C21.5185 66.6137 18.9939 66.9006 17.9724 66.9006C16.9509 66.9006 12.0005 66.7396 12.0005 63.8023C12.0005 60.8651 16.2798 60.6418 18.1009 60.6418C19.2549 60.6462 20.4071 60.7298 21.5496 60.8922L21.7728 62.1098Z" fill="white"/>
<path d="M44.9734 60.769C46.5173 60.7685 51.1237 60.7669 51.1237 62.6212C51.1237 64.2177 48.2798 64.2501 48.2798 64.2501L51.6229 66.6449H47.9172L44.639 63.6427C45.0094 63.6956 45.3825 63.7276 45.7565 63.7387C46.2044 63.7387 48.3123 63.6751 48.3123 62.6848C48.3123 61.7579 46.0461 61.8395 45.6505 61.8538L45.613 61.8551L45.5969 61.8554C45.0557 61.8554 43.9733 61.919 43.9733 61.919V66.6449H41.0889V60.8651C41.0889 60.8651 43.4349 60.769 44.9001 60.769H44.9734Z" fill="white"/>
<path d="M113.657 64.2501C113.657 64.2501 116.498 64.2177 116.498 62.6266C116.498 60.7723 111.892 60.7739 110.348 60.7744H110.275C108.809 60.7744 106.463 60.8705 106.463 60.8705V66.6449H109.345V61.919C109.345 61.919 110.427 61.8554 110.969 61.8554C110.974 61.8554 110.982 61.8552 110.993 61.8548L111.025 61.8538C111.429 61.8393 113.684 61.759 113.684 62.6848C113.684 63.6751 111.577 63.7387 111.134 63.7387C110.76 63.7276 110.387 63.6956 110.016 63.6427L113.294 66.6449H117L113.657 64.2501Z" fill="white"/>
<path d="M56.5423 60.8651L59.3321 63.2922L62.0353 60.8651H63.9835L60.1303 64.2501V66.6449H57.277V64.3137L53.1572 60.8651H56.5423Z" fill="white"/>
<path d="M80.3352 60.8651H83.2413V65.5598H89.7883V66.6449H80.3352V60.8651Z" fill="white"/>
<path d="M33.7383 63.2287H28.7243V60.8651H25.8181V66.6449H28.7243V64.3137H33.7383V66.6449H36.6457V60.8651H33.7383V63.2287Z" fill="white"/>
<path d="M102.415 64.2163H95.9211V65.6558H102.638V66.6449H93.015V60.8651H102.511V61.8554H95.9211V63.2909H102.415V64.2163Z" fill="white"/>
</svg>
