<svg width="128" height="128" viewBox="0 0 128 128" fill="none" xmlns="http://www.w3.org/2000/svg">
<rect width="128" height="128" fill="white"/>
<path fill-rule="evenodd" clip-rule="evenodd" d="M25.9143 69.1133C24.8989 69.7041 23.6942 70 22.2992 70C20.415 70 18.8938 69.4063 17.7357 68.2199C16.5786 67.0326 16 65.494 16 63.604C16 61.498 16.6242 59.8044 17.8716 58.526C19.119 57.2484 20.7849 56.6088 22.8671 56.6088C24.0291 56.6088 25.0533 56.8173 25.9396 57.2334V59.3319C24.9591 58.6659 23.9088 58.3324 22.7904 58.3324C21.4392 58.3324 20.3315 58.8012 19.4656 59.7377C18.6007 60.6752 18.1687 61.9057 18.1687 63.4293C18.1687 64.9285 18.5754 66.1111 19.3889 66.9772C20.2014 67.8423 21.2926 68.2754 22.6613 68.2754C23.8136 68.2754 24.8989 67.9053 25.9143 67.1651V69.1133Z" fill="#A12229"/>
<path fill-rule="evenodd" clip-rule="evenodd" d="M29.6203 69.7004H31.7375V56.9085H29.6203V69.7004ZM30.7046 53.6612C30.326 53.6612 30.0037 53.5362 29.7368 53.2854C29.4698 53.0365 29.3368 52.7199 29.3368 52.3367C29.3368 51.9544 29.4698 51.6359 29.7368 51.3814C30.0037 51.1278 30.326 51 30.7046 51C31.092 51 31.4211 51.1278 31.6929 51.3814C31.9637 51.6359 32.0986 51.9544 32.0986 52.3367C32.0986 52.703 31.9637 53.0149 31.6929 53.2741C31.4211 53.5325 31.092 53.6612 30.7046 53.6612Z" fill="#A12229"/>
<path fill-rule="evenodd" clip-rule="evenodd" d="M41.0829 69.5748C40.5839 69.8415 39.9248 69.9749 39.1074 69.9749C36.7931 69.9749 35.635 68.7256 35.635 66.2279V58.6568H33.3625V56.9087H35.635V53.7863L37.7522 53.1231V56.9087H41.0829V58.6568H37.7522V65.8653C37.7522 66.7229 37.9027 67.3344 38.2046 67.7017C38.5055 68.0681 39.0045 68.2512 39.7015 68.2512C40.2345 68.2512 40.6956 68.1085 41.0829 67.8267V69.5748Z" fill="#A12229"/>
<path fill-rule="evenodd" clip-rule="evenodd" d="M42.5217 69.7004H44.6389V56.9085H42.5217V69.7004ZM43.606 53.6612C43.2264 53.6612 42.9041 53.5362 42.6372 53.2854C42.3712 53.0365 42.2372 52.7199 42.2372 52.3367C42.2372 51.9544 42.3712 51.6359 42.6372 51.3814C42.9041 51.1278 43.2264 51 43.606 51C43.9933 51 44.3224 51.1278 44.5933 51.3814C44.8641 51.6359 45 51.9544 45 52.3367C45 52.703 44.8641 53.0149 44.5933 53.2741C44.3224 53.5325 43.9933 53.6612 43.606 53.6612Z" fill="#A12229"/>
<path fill-rule="evenodd" clip-rule="evenodd" d="M49.0858 63.0474V64.8235C49.0858 65.8749 49.4358 66.7658 50.1349 67.4998C50.834 68.2319 51.7224 68.5979 52.7992 68.5979C54.0625 68.5979 55.0523 68.1264 55.7686 67.1832C56.4849 66.2391 56.8436 64.9271 56.8436 63.2463C56.8436 61.8306 56.5088 60.7222 55.8394 59.9182C55.169 59.116 54.2624 58.7135 53.1177 58.7135C51.9041 58.7135 50.9296 59.1254 50.1923 59.949C49.4549 60.7726 49.0858 61.8054 49.0858 63.0474ZM49.1365 68.1768H49.0858V75.8639H47V57.2979H49.0858V59.5325H49.1365C50.1626 57.8451 51.6631 57 53.6389 57C55.3182 57 56.6274 57.5696 57.5685 58.7079C58.5095 59.8463 58.98 61.3712 58.98 63.2836C58.98 65.4108 58.4502 67.1141 57.3906 68.3944C56.331 69.6727 54.8812 70.3124 53.0412 70.3124C51.3542 70.3124 50.0526 69.6008 49.1365 68.1768Z" fill="#4879AD"/>
<path fill-rule="evenodd" clip-rule="evenodd" d="M68.6458 63.5818L65.5042 64.0038C64.5383 64.1365 63.8087 64.3699 63.3171 64.7061C62.8255 65.0404 62.5798 65.6343 62.5798 66.4878C62.5798 67.1078 62.8064 67.6149 63.2597 68.009C63.713 68.4021 64.3174 68.5982 65.072 68.5982C66.1058 68.5982 66.9598 68.2452 67.634 67.5365C68.3082 66.8296 68.6458 65.9331 68.6458 64.848V63.5818ZM70.7316 70.0149H68.6458V68.0277H68.5941C67.6875 69.5508 66.3525 70.3127 64.589 70.3127C63.2913 70.3127 62.2756 69.9775 61.5431 69.3061C60.8096 68.6356 60.4423 67.7466 60.4423 66.6363C60.4423 64.2607 61.8749 62.8787 64.7411 62.4893L68.6458 61.9542C68.6458 59.7943 67.7507 58.7139 65.9623 58.7139C64.3939 58.7139 62.9776 59.2359 61.7143 60.2789V58.1919C62.9948 57.3972 64.4695 57.0003 66.1402 57.0003C69.2005 57.0003 70.7316 58.5813 70.7316 61.7441V70.0149Z" fill="#4879AD"/>
<path fill-rule="evenodd" clip-rule="evenodd" d="M83.8762 64.2648V62.3897C83.8762 61.3803 83.5271 60.5137 82.8271 59.7937C82.128 59.0737 81.2568 58.7133 80.2134 58.7133C78.9243 58.7133 77.9163 59.1718 77.1866 60.086C76.4569 61.0002 76.0926 62.2814 76.0926 63.9296C76.0926 65.3452 76.4436 66.477 77.1426 67.3258C77.8408 68.1747 78.7684 68.5986 79.9208 68.5986C81.0913 68.5986 82.0429 68.1933 82.7764 67.3809C83.5099 66.5704 83.8762 65.531 83.8762 64.2648ZM85.9629 68.9955C85.9629 73.6645 83.6725 76 79.0945 76C77.4831 76 76.0763 75.7021 74.8723 75.1054V73.0697C76.3393 73.8634 77.7384 74.2612 79.0696 74.2612C82.2743 74.2612 83.8762 72.5972 83.8762 69.2691V67.8786H83.8255C82.8338 69.5007 81.3409 70.3131 79.3489 70.3131C77.7289 70.3131 76.4263 69.7472 75.4384 68.6173C74.4515 67.4874 73.9571 65.9699 73.9571 64.0659C73.9571 61.906 74.4888 60.1878 75.5522 58.9131C76.6166 57.6375 78.0731 57.0007 79.9208 57.0007C81.6757 57.0007 82.9772 57.688 83.8255 59.0616H83.8762V57.2976H85.9629V68.9955Z" fill="#4879AD"/>
<path fill-rule="evenodd" clip-rule="evenodd" d="M97.5824 62.4391C97.5728 61.2634 97.284 60.3492 96.7112 59.6946C96.1383 59.041 95.3436 58.7132 94.326 58.7132C93.342 58.7132 92.5071 59.0568 91.8214 59.7441C91.1348 60.4314 90.7102 61.3307 90.5495 62.4391H97.5824ZM99.7188 64.1648H90.5237C90.5581 65.5804 90.9483 66.673 91.6942 67.4434C92.4402 68.2138 93.4654 68.5985 94.7717 68.5985C96.2378 68.5985 97.5862 68.1269 98.8151 67.1828V69.0953C97.6713 69.9068 96.1584 70.313 94.2763 70.313C92.4354 70.313 90.9894 69.734 89.9393 68.5798C88.8874 67.4256 88.3614 65.8008 88.3614 63.7063C88.3614 61.7266 88.9362 60.1148 90.0847 58.8691C91.2342 57.6225 92.6611 57.0006 94.3653 57.0006C96.0685 57.0006 97.3873 57.5375 98.3197 58.6142C99.2521 59.6909 99.7188 61.185 99.7188 63.0974V64.1648Z" fill="#4879AD"/>
<path fill-rule="evenodd" clip-rule="evenodd" d="M103.364 69.5548V67.3688C104.5 68.1887 105.751 68.5986 107.117 68.5986C108.947 68.5986 109.864 68.0028 109.864 66.8104C109.864 66.4705 109.785 66.1838 109.628 65.9475C109.471 65.7122 109.259 65.5021 108.992 65.32C108.725 65.1388 108.411 64.9745 108.051 64.8288C107.691 64.685 107.303 64.5337 106.888 64.3759C106.311 64.1527 105.805 63.9277 105.369 63.6998C104.932 63.472 104.566 63.2152 104.274 62.9304C103.982 62.6437 103.761 62.3197 103.613 61.9545C103.464 61.5904 103.39 61.1645 103.39 60.6752C103.39 60.0804 103.53 59.5528 103.81 59.0924C104.089 58.633 104.462 58.2483 104.929 57.9373C105.395 57.6273 105.928 57.3929 106.525 57.236C107.124 57.0791 107.74 57.0007 108.375 57.0007C109.503 57.0007 110.512 57.1902 111.402 57.5712V59.6331C110.444 59.0196 109.341 58.7133 108.095 58.7133C107.705 58.7133 107.353 58.7572 107.04 58.844C106.727 58.9309 106.457 59.0532 106.233 59.211C106.009 59.3679 105.834 59.5565 105.711 59.775C105.588 59.9945 105.528 60.2373 105.528 60.5015C105.528 60.834 105.588 61.1104 105.711 61.3345C105.834 61.5577 106.014 61.7556 106.252 61.9293C106.489 62.104 106.776 62.2608 107.117 62.4018C107.455 62.5428 107.842 62.696 108.274 62.8622C108.85 63.077 109.367 63.2983 109.825 63.5252C110.282 63.754 110.674 64.0099 110.995 64.2956C111.317 64.5814 111.565 64.9101 111.74 65.2827C111.912 65.6552 112 66.0988 112 66.6115C112 67.2409 111.858 67.7871 111.574 68.2512C111.289 68.7144 110.911 69.0991 110.436 69.4064C109.96 69.7117 109.414 69.9396 108.795 70.089C108.176 70.2375 107.528 70.3131 106.85 70.3131C105.509 70.3131 104.347 70.06 103.364 69.5548Z" fill="#4879AD"/>
</svg>
