<svg width="128" height="128" viewBox="0 0 128 128" fill="none" xmlns="http://www.w3.org/2000/svg">
<rect width="128" height="128" fill="#1294D2"/>
<path fill-rule="evenodd" clip-rule="evenodd" d="M66.5174 40.4439C71.0589 40.4439 74.7399 36.7629 74.7399 32.2224C74.7399 27.681 71.0589 23.9999 66.5174 23.9999C61.9769 23.9999 58.2959 27.681 58.2959 32.2224C58.2959 36.7629 61.9769 40.4439 66.5174 40.4439Z" fill="white"/>
<path fill-rule="evenodd" clip-rule="evenodd" d="M96.4766 93.4906C95.9148 92.5048 93.6634 91.3561 92.5345 91.2381C91.5999 91.141 89.6377 91.3415 88.818 91.802C88.016 92.251 86.4527 94.6173 86.4527 94.6173L83.5246 97.5454L79.0187 98.4466L78.7941 81.7771L68.4163 71.5475C68.4163 71.5475 68.7651 65.7091 68.5447 63.7803C68.387 62.3904 67.1934 58.3512 67.1934 58.3512C67.1934 58.3512 69.1086 48.5529 68.3202 43.5979C68.1907 42.7886 66.192 42.3051 65.3911 42.1328C64.7029 41.9855 63.243 42.02 62.5757 42.2456C61.9251 42.4659 60.3379 43.1353 60.3233 43.8224C60.2105 49.1157 59.0002 61.1697 59.0002 61.1697L56.4887 66.817L54.5913 68.2393L53.239 72.362L53.2056 77.8695L33.9306 80.9532L31.3784 95.1802C31.3784 95.1802 30.707 99.3917 31.1529 100.698C31.4494 101.569 32.7172 103.064 33.5181 103.514C34.1645 103.878 35.7163 104.088 36.4462 103.965C36.9809 103.875 37.9667 103.322 38.3614 102.952C38.9128 102.433 39.7701 101.1 39.9382 100.361C40.1889 99.257 39.4871 95.8558 39.4871 95.8558L37.573 88.4217L37.6962 83.2756L55.976 82.2282L58.2065 79.4578L65.5853 79.0589L75.5277 84.4807L76.3161 103.853L87.4667 101.712L96.3638 100.698C96.3638 100.698 97.3684 95.057 96.4766 93.4906Z" fill="white"/>
</svg>
