<svg width="129" height="129" viewBox="0 0 129 129" fill="none" xmlns="http://www.w3.org/2000/svg">
<rect width="128" height="128" transform="translate(0.333008 0.111328)" fill="#D3772C"/>
<path d="M106.791 69.6556C106.76 69.5443 106.699 69.412 106.588 69.4078C106.266 69.3973 105.985 69.2566 105.685 69.1894C104.79 68.992 103.944 68.6519 103.066 68.4041C102.499 68.2445 101.932 68.0828 101.372 67.9044C100.983 67.7805 100.614 67.6083 100.32 67.3143C99.7486 66.7411 99.8347 66.0965 100.341 65.5085C100.998 64.7442 101.769 64.0786 102.451 63.3332C103.761 61.897 105.181 60.5699 106.531 59.1736C106.745 58.951 107.047 58.825 107.215 58.5437C106.991 58.4072 106.888 58.6318 106.739 58.6843C106.067 58.9258 105.416 59.2429 104.731 59.4361C104.03 59.6334 103.366 59.9295 102.699 60.1962C101.939 60.5027 101.16 60.7547 100.404 61.0655C99.8032 61.3111 99.1943 61.5799 98.5203 61.6324C97.7517 61.6912 97.168 61.1096 96.9853 60.3767C96.8257 59.7426 96.9181 59.1526 96.9811 58.529C97.0609 57.7457 97.0042 56.9478 97.0105 56.1562C97.0126 55.8896 97.0273 55.6208 97.0378 55.3541C97.0399 55.2743 97.0819 55.1735 96.9811 55.14C96.8677 55.1022 96.8615 55.2281 96.8258 55.289C96.5801 55.7027 96.3596 56.1331 96.0929 56.5321C95.4294 57.5316 94.8961 58.6087 94.2137 59.5998C93.9638 59.9631 93.7937 60.383 93.5039 60.7316C92.9181 61.4413 92.0572 61.7437 91.2761 61.034C90.7365 60.5426 90.3438 59.9421 89.9302 59.3542C89.7097 59.0413 89.4871 58.7305 89.2519 58.4282C89.0819 58.2098 88.9937 58.4597 88.9517 58.5332C88.7753 58.8418 88.6388 59.1715 88.475 59.4885C88.2042 60.0093 87.9207 60.5258 87.6456 61.0445C87.6057 61.118 87.57 61.2019 87.4671 61.1746C87.3727 61.1495 87.3622 61.0592 87.3559 60.9773C87.3517 60.8954 87.3517 60.8135 87.3517 60.7337C87.3517 58.1363 87.3517 55.541 87.3496 52.9436C87.3496 52.8974 87.3496 52.8512 87.3496 52.8029C87.3538 52.6874 87.3391 52.5405 87.4629 52.4943C87.5994 52.4439 87.612 52.6055 87.6708 52.6811C88.5275 53.7709 89.3653 54.8733 90.18 55.9946C90.4425 56.3557 90.6777 56.7505 91.0052 57.0633C91.8409 57.8654 92.5863 57.731 93.2079 56.8219C93.8525 55.877 94.4152 54.8775 95.0137 53.9032C95.862 52.5237 96.6956 51.1357 97.5628 49.7667C97.9386 49.1745 98.3208 48.5761 98.6504 47.9525C98.726 47.8076 98.8163 47.69 99.0032 47.7488C99.1964 47.8097 99.1208 47.963 99.1229 48.0974C99.1418 48.7945 99.1607 49.4895 99.1523 50.1866C99.1334 51.7803 99.0956 53.3825 99.2153 54.9678C99.2804 55.8308 99.3581 56.6938 99.3959 57.561C99.4084 57.8339 99.8641 58.151 100.141 58.1279C101.017 58.0544 101.825 57.7415 102.636 57.435C103.1 57.2586 103.579 57.12 104.047 56.9583C104.75 56.7148 105.447 56.4607 106.151 56.2192C106.684 56.0365 107.226 55.8791 107.755 55.6838C108.456 55.4255 109.183 55.2428 109.865 54.9321C110.115 54.8187 110.386 54.7578 110.644 54.6675C111.415 54.4008 112.173 54.0922 112.956 53.8717C113.487 53.7226 113.962 53.4161 114.527 53.3594C114.747 53.3363 114.966 53.2124 115.173 53.1242C115.545 52.9688 115.934 52.8701 116.305 52.721C116.387 52.6874 116.479 52.6013 116.549 52.721C116.614 52.8344 116.578 52.9394 116.482 53.0339C116.225 53.2859 115.976 53.5441 115.721 53.7982C112.177 57.3342 108.631 60.8723 105.086 64.4083C104.593 64.8996 104.456 65.7521 104.815 66.212C105.008 66.4597 105.277 66.613 105.536 66.7453C106.178 67.0792 106.879 67.2849 107.52 67.6251C108.087 67.9254 108.696 68.1458 109.286 68.3957C110.019 68.7044 110.72 69.0844 111.474 69.349C111.996 69.5317 112.49 69.7962 112.985 70.0461C113.103 70.1049 113.219 70.1427 113.342 70.1721C113.479 70.2036 113.586 70.2813 113.588 70.4283C113.59 70.6026 113.433 70.5858 113.33 70.5879C112.641 70.6046 111.978 70.7936 111.304 70.8944C110.632 70.9931 109.958 71.138 109.284 71.2094C108.19 71.327 107.121 71.581 106.031 71.7238C105.256 71.8267 104.469 71.9149 103.702 72.1123C103.215 72.2362 103.012 72.7233 103.287 73.1412C103.912 74.0923 104.815 74.7832 105.578 75.6042C105.735 75.7743 105.916 75.9233 106.071 76.0934C106.136 76.1648 106.228 76.2614 106.174 76.3706C106.121 76.4777 106.002 76.4714 105.895 76.4714C103.646 76.4609 101.395 76.4504 99.146 76.4441C98.936 76.4441 98.726 76.4714 98.5182 76.4609C98.4132 76.4567 98.2326 76.4945 98.2179 76.3601C98.2053 76.2341 98.3166 76.0976 98.4573 76.0514C99.4651 75.7155 100.41 75.2367 101.37 74.7937C101.559 74.7055 101.59 74.6341 101.458 74.506C100.763 73.8383 100.07 73.1685 99.3581 72.5196C99.1145 72.2971 98.9171 72.0388 98.7533 71.7679C98.5664 71.4592 98.6861 71.0687 99.0011 70.8923C99.3014 70.7243 99.61 70.5732 99.9817 70.569C100.685 70.5585 101.372 70.3737 102.075 70.3107C102.522 70.2708 103.018 70.2729 103.434 70.1259C104.106 69.8865 104.817 70.0524 105.483 69.7941C105.811 69.6661 106.22 69.7479 106.592 69.7312C106.659 69.7291 106.735 69.7395 106.785 69.6619L106.791 69.6556Z" fill="white"/>
<path d="M52.5587 76.717C52.1156 76.717 51.6684 76.7611 51.2316 76.7086C49.5623 76.5071 48.1723 75.8036 47.3324 74.2876C47.0699 73.8131 46.8621 73.2797 46.8537 72.7086C46.8537 72.6624 46.8453 72.6162 46.8348 72.57C46.7088 72.0829 46.7424 72.0325 47.24 72.0304C47.8216 72.0262 48.4054 72.0283 48.987 72.0283C49.6442 72.0283 49.7051 72.0346 49.8458 72.6666C50.0159 73.4309 51.0721 74.1427 51.7713 74.128C52.187 74.1196 52.544 74.4388 52.9597 74.3275C53.6065 74.1532 54.3099 74.1595 54.8789 73.727C55.2947 73.4099 55.4941 72.36 55.0847 71.9212C54.6962 71.5033 54.1902 71.3081 53.7031 71.075C53.0899 70.781 52.4117 70.6655 51.765 70.4892C51.3555 70.3779 50.9146 70.2876 50.4967 70.1889C49.7534 70.0146 49.0164 69.7857 48.3697 69.3175C47.5823 68.7464 47.2169 67.9715 47.0573 67.0477C47.0027 66.7306 46.8914 66.424 46.9208 66.0923C47.0594 64.5384 47.6999 63.3038 49.1445 62.5815C49.9508 62.1783 50.8096 61.9809 51.7104 61.9746C52.2584 61.9704 52.8086 61.9431 53.3524 61.9851C54.5178 62.0775 55.6096 62.4156 56.4306 63.2849C57.0732 63.9673 57.6254 64.7337 57.638 65.7416C57.638 65.7647 57.6422 65.7878 57.6464 65.8109C57.7787 66.4345 57.7724 66.4429 57.1299 66.445C56.7687 66.445 56.4075 66.4324 56.0464 66.4471C55.4963 66.4702 55.1057 66.1994 54.8453 65.7584C54.2847 64.8072 53.4385 64.402 52.3697 64.3537C51.7062 64.3222 51.0742 64.4041 50.5135 64.7799C49.9739 65.1411 49.703 65.7626 49.8878 66.3841C50.0159 66.8188 50.4232 67.0309 50.8243 67.2009C51.3219 67.4109 51.8595 67.4991 52.3655 67.6671C52.9618 67.8666 53.5939 67.9421 54.1755 68.2151C54.4422 68.339 54.7718 68.3684 55.07 68.4335C55.8259 68.5994 56.502 68.9038 57.0627 69.412C57.5393 69.8445 57.869 70.3737 58.0894 71.0141C58.3204 71.6881 58.2637 72.3453 58.2301 73.0005C58.2049 73.4792 57.9908 73.9516 57.7514 74.3821C57.3125 75.1674 56.7162 75.8057 55.8742 76.1585C55.2065 76.4399 54.5304 76.7212 53.7828 76.717C53.3755 76.7149 52.9681 76.717 52.5587 76.717Z" fill="white"/>
<path d="M62.0307 75.3018C62.0307 76.5113 62.0202 77.7081 62.0349 78.905C62.0454 79.7092 61.2559 80.5239 60.437 80.4882C60.1115 80.4735 59.784 80.4882 59.4585 80.4756C59.2002 80.4651 59.0406 80.3349 59.0574 80.0557C59.1246 78.9386 59.0826 77.8215 59.0868 76.7044C59.0952 74.4472 59.0511 72.1879 59.1057 69.9306C59.1393 68.5133 59.5635 67.2136 60.7834 66.3212C61.111 66.0818 61.5016 65.9495 61.8669 65.7731C63.0113 65.2251 64.2312 65.3091 65.447 65.3322C65.7452 65.3385 65.9971 65.4981 66.2659 65.582C66.9252 65.7899 67.5572 66.107 68.0318 66.634C68.458 67.1086 68.7352 67.6755 68.9788 68.2676C69.1048 68.5742 69.1321 68.9165 69.3189 69.1999C69.3924 69.3112 69.3735 69.4477 69.3735 69.5758C69.3777 70.3779 69.3714 71.1821 69.384 71.9842C69.3924 72.5028 69.1657 72.9543 69.0313 73.4351C68.8885 73.9475 68.6638 74.4052 68.3615 74.8252C67.8554 75.5286 67.2465 76.1333 66.4234 76.4567C65.7599 76.717 65.0291 76.7779 64.3551 76.652C63.4858 76.4882 62.6438 76.1459 62.1315 75.3228C62.121 75.306 62.0727 75.3102 62.0328 75.3039L62.0307 75.3018ZM64.2249 74.149C64.9829 74.0651 65.6633 73.8887 66.0685 73.1097C66.4423 72.3957 66.5599 71.6167 66.5284 70.8713C66.5032 70.275 66.4885 69.6241 66.1882 69.0424C65.9131 68.5112 65.5814 68.0829 64.9808 67.8876C64.5504 67.7469 64.1367 67.854 63.7189 67.8834C63.5278 67.896 63.3094 67.8603 63.1415 67.9821C62.5367 68.4251 62.1063 69.0424 62.0706 69.7648C62.0223 70.6991 61.8837 71.6482 62.2155 72.5889C62.4737 73.3217 63.2485 74.2414 64.2249 74.149Z" fill="white"/>
<path d="M90.3816 69.2713C90.6294 69.1621 90.7134 68.9185 90.8667 68.7422C91.6058 67.896 92.3932 67.0834 93.0651 66.1847C93.4913 65.6156 93.9722 65.4833 94.6168 65.5295C95.2089 65.5694 95.8053 65.5337 96.3995 65.54C96.5549 65.54 96.7544 65.4728 96.8405 65.6597C96.9307 65.8529 96.7775 65.9831 96.6557 66.1091C96.2105 66.5647 95.757 67.0141 95.3223 67.4802C94.6819 68.1668 94.0562 68.8682 93.42 69.559C93.3087 69.6808 93.2898 69.7878 93.3738 69.9327C93.8861 70.7894 94.3984 71.6461 94.9003 72.5091C95.4357 73.433 95.9523 74.3653 96.4877 75.2892C96.6368 75.5475 96.8174 75.791 96.9874 76.0388C97.1512 76.2782 97.0672 76.4903 96.7817 76.4945C95.862 76.5071 94.9402 76.5176 94.0205 76.4861C93.5921 76.4714 93.4725 76.0577 93.3003 75.7532C92.8005 74.8693 92.305 73.9832 91.843 73.0803C91.6939 72.7905 91.5029 72.5301 91.3496 72.2446C91.2719 72.0997 91.1627 71.9737 91.0031 71.917C90.5517 71.7595 90.3459 71.9401 90.3522 72.4209C90.3669 73.6073 90.3606 74.7958 90.3606 75.9821C90.3606 76.3139 90.1506 76.4819 89.8567 76.4903C89.1574 76.5113 88.4582 76.4987 87.759 76.4945C87.4882 76.4945 87.3601 76.3349 87.3538 76.0703C87.3517 75.9884 87.3517 75.9065 87.3517 75.8267C87.3517 71.5306 87.3538 67.2366 87.3559 62.9405C87.3559 62.571 87.5455 62.3862 87.9249 62.3862C88.1937 62.3862 88.4603 62.3862 88.7291 62.3862C89.5228 62.3904 89.8798 62.6802 90.1926 63.4067C90.3354 63.7363 90.3585 64.0513 90.3564 64.3852C90.3522 65.9789 90.3459 67.5747 90.3417 69.1684C90.3417 69.1978 90.3648 69.2272 90.3837 69.2713H90.3816Z" fill="white"/>
<path d="M79.2445 70.5333C79.2445 71.2073 79.2361 71.8834 79.2466 72.5574C79.2613 73.4246 78.9925 74.17 78.4865 74.8903C77.9615 75.6378 77.2854 76.0661 76.4371 76.3223C75.3956 76.6352 74.3352 76.801 73.2581 76.6918C72.7331 76.6394 72.2061 76.4693 71.7295 76.2026C71.0659 75.8309 70.5263 75.3522 70.2722 74.6068C70.0308 73.8971 69.8901 73.1937 70.0979 72.4356C70.1987 72.0661 70.3142 71.7196 70.4906 71.3816C70.8287 70.739 71.4271 70.4388 72.0381 70.1595C72.626 69.8907 73.256 69.7984 73.8943 69.6913C74.5557 69.5779 75.2423 69.5401 75.8828 69.2986C76.2334 69.1663 76.5274 68.759 76.4854 68.4125C76.4392 68.0388 76.1011 67.7322 75.6938 67.7112C75.1835 67.686 74.6796 67.602 74.1631 67.6923C73.8166 67.7532 73.5142 67.8582 73.277 68.1143C73.1237 68.2781 72.9536 68.3516 72.7247 68.3474C72.0612 68.3348 71.3977 68.3474 70.7321 68.339C70.394 68.3348 70.2974 68.2214 70.3961 67.9044C70.6943 66.928 71.3032 66.2141 72.2292 65.7563C72.9536 65.3973 73.7116 65.2881 74.5095 65.3217C75.0219 65.3448 75.5447 65.2671 76.0445 65.3511C77.2392 65.5505 78.3794 65.9075 78.9799 67.0981C79.1416 67.4193 79.2634 67.77 79.2487 68.1647C79.2172 68.9542 79.2403 69.7459 79.2403 70.5375L79.2445 70.5333ZM74.2765 74.3338C74.6649 74.4094 75.0093 74.2855 75.3494 74.1217C75.9773 73.8194 76.3804 73.3364 76.4707 72.6456C76.5274 72.211 76.5085 71.7658 76.5253 71.3249C76.5274 71.2493 76.6261 71.1674 76.54 71.1023C76.456 71.0372 76.3699 71.1044 76.2817 71.138C75.6077 71.3816 74.9211 71.5642 74.2177 71.7112C73.6843 71.8225 73.1027 71.917 72.8801 72.6225C72.6617 73.3175 72.7814 73.8278 73.403 74.212C73.6906 74.3905 73.9867 74.3191 74.2786 74.338L74.2765 74.3338Z" fill="white"/>
<path d="M83.0241 73.2566C83.0241 74.1763 83.0241 75.096 83.0241 76.0157C83.0241 76.4042 82.9485 76.4903 82.5537 76.4945C81.8902 76.505 81.2246 76.4987 80.5611 76.4966C80.2461 76.4966 80.0781 76.316 80.0781 76.0178C80.0739 74.1091 79.9899 72.1942 80.1054 70.2939C80.2125 68.5553 81.0125 67.1149 82.602 66.2393C83.0724 65.981 83.5994 65.8445 84.1244 65.6954C84.7081 65.5274 85.2729 65.5589 85.8462 65.54C86.2556 65.5274 86.3627 65.6492 86.3669 66.0608C86.3732 66.7012 86.3753 67.3416 86.3669 67.9821C86.3606 68.4314 86.2493 68.5343 85.8021 68.5385C85.5228 68.5427 85.2414 68.528 84.9622 68.5406C84.3091 68.57 83.7296 68.7695 83.3684 69.3511C83.1417 69.7165 83.0367 70.1406 83.0262 70.5669C83.0073 71.4635 83.0199 72.3601 83.0199 73.2545H83.022L83.0241 73.2566Z" fill="white"/>
<path d="M15.2503 69.2168C15.2503 69.7921 15.2083 70.1827 15.2608 70.5585C15.3405 71.1339 15.5253 71.6882 15.7479 72.2257C15.9579 72.7339 16.3925 73.0551 16.7453 73.4457C16.9259 73.6473 17.1736 73.704 17.4088 73.7963C18.0492 74.0504 18.7169 74.2331 19.3952 74.0966C20.2246 73.9307 21.0099 73.641 21.539 72.8998C21.791 72.5449 21.896 72.1312 22.0745 71.7491C22.1815 71.5202 22.3243 71.4215 22.5511 71.4194C23.2608 71.4131 23.9726 71.4047 24.6824 71.4194C25.0498 71.4278 25.1632 71.6567 24.9994 71.9906C24.9637 72.062 24.9175 72.1375 24.9112 72.2131C24.802 73.5738 24.0881 74.5964 23.1012 75.4699C22.4755 76.0242 21.7196 76.2825 20.9385 76.5407C20.3506 76.736 19.7689 76.6373 19.1978 76.7423C18.5007 76.8683 17.8078 76.7591 17.14 76.6751C16.382 76.5806 15.6324 76.2972 14.9836 75.8247C14.6938 75.6147 14.4062 75.4132 14.1458 75.1633C13.4865 74.5334 13.0308 73.7649 12.7137 72.9312C12.4828 72.3244 12.2959 71.6861 12.2602 71.0268C12.2434 70.7118 12.0187 70.4241 12.1027 70.1092C12.1867 69.7984 12.067 69.4709 12.2056 69.1706C12.214 69.1517 12.2182 69.1202 12.2098 69.1013C11.9452 68.5995 12.235 68.127 12.2938 67.6441C12.4093 66.6992 12.6927 65.7984 13.1463 64.9585C13.6943 63.9443 14.5153 63.1884 15.5253 62.6592C16.0146 62.4031 16.5689 62.2876 17.1106 62.1385C18.0954 61.8676 19.0739 61.9768 20.0503 61.9915C20.7243 61.9999 21.371 62.2393 22.001 62.5123C22.4545 62.7075 22.8577 62.9574 23.2419 63.2556C23.8131 63.6965 24.1721 64.2908 24.4808 64.9228C24.7139 65.3994 24.9427 65.8782 24.9133 66.4283C24.9133 66.4388 24.9175 66.4514 24.9217 66.4619C24.97 66.6173 25.1863 66.7454 25.0435 66.9322C24.8965 67.1212 24.6635 67.0729 24.4556 67.075C24.0818 67.0792 23.7102 67.0729 23.3364 67.0771C22.7023 67.0855 22.2298 66.7958 21.8876 66.2834C21.6041 65.8593 21.371 65.3931 20.9196 65.1139C20.6592 64.9522 20.3842 64.822 20.0713 64.7632C19.6429 64.6813 19.2335 64.5091 18.7799 64.5742C17.6482 64.738 16.6067 65.1013 15.9453 66.0902C15.6618 66.5144 15.5274 67.033 15.3972 67.5538C15.2377 68.1837 15.2922 68.7926 15.2503 69.2168Z" fill="white"/>
<path d="M37.2998 65.5338C37.6967 65.5338 38.0914 65.5338 38.4883 65.5338C38.7654 65.5338 38.8809 65.6766 38.967 65.939C39.0951 66.3296 39.1896 66.7306 39.3051 67.1233C39.4059 67.4676 39.5591 67.8036 39.6074 68.1753C39.6536 68.528 39.8258 68.864 39.9308 69.2125C40.0295 69.538 40.061 69.8803 40.2059 70.1994C40.3948 70.611 40.4473 71.0729 40.5712 71.5076C40.6699 71.854 40.8862 72.1795 40.8547 72.5659C40.8484 72.6519 40.8232 72.7905 40.9324 72.8073C41.0752 72.8304 41.134 72.6771 41.1466 72.5785C41.1843 72.2425 41.2893 71.9275 41.3922 71.6084C41.6904 70.6887 41.9004 69.7438 42.1859 68.8199C42.3623 68.2488 42.5282 67.6692 42.6941 67.0918C42.7865 66.7684 42.8117 66.4115 43.0342 66.1238C43.3429 65.7249 43.6978 65.4771 44.2416 65.5254C44.7161 65.5674 45.197 65.5317 45.6736 65.5338C46.0747 65.5359 46.2175 65.7521 46.0432 66.1175C45.871 66.4808 45.8038 66.8776 45.6547 67.243C45.4469 67.749 45.3461 68.2908 45.1109 68.7863C44.9996 69.0215 44.9429 69.2881 44.8736 69.5317C44.6615 70.2771 44.4012 71.0078 44.1597 71.7407C43.9224 72.4588 43.6705 73.179 43.4185 73.895C43.2421 74.3968 43.0846 74.9155 42.9166 75.4215C42.7466 75.9381 42.5975 76.4672 42.3833 76.9732C42.2783 77.2189 42.1796 77.4898 42.1292 77.7523C42.0431 78.1932 41.8437 78.5943 41.6106 78.9407C41.3754 79.2893 41.2095 79.7386 40.7728 79.9276C40.3948 80.0914 40.0379 80.3098 39.599 80.2888C39.345 80.2762 39.0993 80.3035 38.8452 80.3853C38.3308 80.5512 37.8247 80.3706 37.325 80.2552C37.2032 80.2279 37.1969 80.0998 37.1948 79.9927C37.1927 79.4111 37.1948 78.8294 37.1948 78.2478C37.1948 78 37.3208 77.8929 37.5686 77.8992C37.789 77.9055 38.0116 77.8992 38.2321 77.895C38.7297 77.8824 39.1077 77.641 39.4185 77.2735C39.5633 77.1034 39.5444 76.883 39.4919 76.7045C39.3429 76.2026 39.1665 75.7071 38.9712 75.2199C38.8683 74.9638 38.8116 74.6971 38.7108 74.4388C38.3371 73.4876 38.0053 72.5197 37.6946 71.5454C37.5287 71.0225 37.3355 70.5081 37.1759 69.9811C37.0457 69.5443 36.8526 69.1223 36.7077 68.6834C36.5397 68.1711 36.3465 67.665 36.1659 67.1548C36.0462 66.8188 35.9497 66.4745 35.8132 66.1448C35.6263 65.6934 35.725 65.5275 36.2163 65.5254C36.5775 65.5254 36.9386 65.5254 37.2998 65.5254V65.5338Z" fill="white"/>
<path d="M30.0683 68.8031C30.0683 66.8251 30.0683 64.8472 30.0683 62.8692C30.0683 62.3989 30.0871 62.3821 30.5617 62.38C30.8536 62.38 31.1433 62.38 31.4352 62.38C32.2793 62.38 32.609 62.7096 32.9092 63.4886C33.136 64.0808 33.0373 64.6519 33.0562 65.2335C33.0646 65.4687 33.1234 65.5464 33.3481 65.5359C33.6042 65.5254 33.8604 65.5317 34.1166 65.5359C34.4882 65.5401 34.7024 65.7165 34.6709 66.0776C34.6121 66.7579 34.2489 67.4761 33.4153 67.6188C33.1465 67.665 33.0667 67.7637 33.0688 68.0199C33.0751 69.916 33.0772 71.8121 33.0688 73.7081C33.0688 74.0294 33.1927 74.1512 33.5056 74.1323C33.7386 74.1197 33.9717 74.1281 34.2048 74.1386C34.5239 74.1533 34.7339 74.3486 34.7444 74.6593C34.757 75.1003 34.7591 75.5433 34.7444 75.9843C34.7339 76.3181 34.5239 76.5029 34.1775 76.505C33.3628 76.5071 32.5439 76.5449 31.7334 76.4882C30.9145 76.4315 30.0725 75.7386 30.0704 74.7706C30.0641 72.7821 30.0704 70.7916 30.0704 68.8031H30.0725H30.0683Z" fill="white"/>
<path d="M25.8771 71.0163C25.8771 69.3994 25.8771 67.7826 25.8771 66.1658C25.8771 65.6178 25.9632 65.5338 26.4986 65.5338C26.8136 65.5338 27.1265 65.5338 27.4414 65.5338C28.2351 65.538 28.8861 66.1847 28.8861 66.9805C28.8903 69.9916 28.8903 73.0047 28.8903 76.0158C28.8903 76.4483 28.8399 76.5008 28.4115 76.5029C27.7711 76.5071 27.1307 76.505 26.4902 76.5029C25.9548 76.5029 25.8729 76.4168 25.8729 75.8646C25.8729 74.2478 25.8729 72.631 25.8729 71.0142L25.8771 71.0163Z" fill="white"/>
<path d="M27.4792 64.7002C27.1412 64.7002 26.8052 64.7065 26.4671 64.7002C26.0388 64.6876 25.8792 64.5238 25.8771 64.1039C25.875 63.7091 25.8687 63.3144 25.8813 62.9196C25.896 62.4619 26.0493 62.3485 26.4965 62.3758C26.8682 62.3968 27.242 62.4073 27.6136 62.3842C28.2981 62.338 28.7664 63.0477 28.8672 63.5285C28.9239 63.7952 28.8861 64.085 28.884 64.3621C28.8798 64.5889 28.7517 64.7002 28.5291 64.7002C28.1805 64.7002 27.832 64.7002 27.4813 64.7002H27.4792Z" fill="white"/>
</svg>
