<svg width="129" height="129" viewBox="0 0 129 129" fill="none" xmlns="http://www.w3.org/2000/svg">
<rect width="128" height="128" transform="translate(0.333496 0.111328)" fill="#66CCFF"/>
<path d="M64.1935 103.249C42.53 103.249 24.9092 85.6282 24.9092 63.9713C24.9092 42.3144 42.53 24.687 64.1935 24.687C85.8569 24.687 103.478 42.3079 103.478 63.9713C103.478 85.6348 85.8569 103.256 64.1935 103.256V103.249ZM64.1935 34.5311C47.9639 34.5311 34.7532 47.7352 34.7532 63.9713C34.7532 80.2074 47.9574 93.4116 64.1935 93.4116C80.4296 93.4116 93.6337 80.2074 93.6337 63.9713C93.6337 47.7352 80.423 34.5311 64.1935 34.5311Z" fill="white"/>
<path d="M64.1935 46.5539C63.7603 46.5539 63.3338 46.5736 62.9137 46.6064L62.7103 60.8212L48.7121 55.9845C47.4783 58.3799 46.7761 61.0903 46.7761 63.9713C46.7761 73.5922 54.5726 81.3887 64.1935 81.3887C73.8144 81.3887 81.6109 73.5922 81.6109 63.9713C81.6109 54.3504 73.8144 46.5539 64.1935 46.5539Z" fill="white"/>
</svg>
