<svg width="128" height="128" viewBox="0 0 128 128" fill="none" xmlns="http://www.w3.org/2000/svg">
<rect width="128" height="128" fill="white"/>
<path d="M65.6852 51.693H69.1847V62.7035H65.7489C65.7489 62.7035 65.5579 51.693 65.6852 51.693Z" fill="#1D1D1B"/>
<path d="M79.4527 51.693H82.9503V62.7035H79.5164C79.5164 62.7035 79.3254 51.693 79.4527 51.693Z" fill="#1D1D1B"/>
<path d="M85.3901 49.7946L88.824 48.8444V51.7563H91.1775V54.4764H88.824V58.78C88.824 58.78 88.251 60.2984 91.1139 60.2984L91.2412 62.7669C91.2412 62.7669 86.2139 64.5387 85.6522 60.8685V54.4764H83.7986V51.6297H85.4537C85.4537 51.6297 85.2946 49.6996 85.3901 49.7946Z" fill="#1D1D1B"/>
<path d="M57.552 62.9569L53.5021 51.5663H57.0633L59.4599 59.6649L61.6861 51.5663H64.9946L61.0495 62.8936L57.552 62.9569Z" fill="#1D1D1B"/>
<path d="M77.1948 54.4L77.8276 52.196C77.8276 52.196 70.8606 49.8859 70.4955 55.2403C70.4955 55.2403 70.4431 57.8112 73.5025 58.441C76.5619 59.0707 74.7926 60.7604 74.7926 60.7604C74.7926 60.7604 73.7347 61.7795 70.6621 60.0674L69.9244 62.3254C69.9244 62.3254 77.2266 65.5075 78.2227 59.9947C78.2645 59.8505 78.2927 59.7026 78.307 59.5532C78.307 58.7782 78.6814 57.2952 74.7364 55.9072C74.5178 55.8403 74.3148 55.7307 74.1393 55.5849C73.9637 55.439 73.8192 55.2598 73.7141 55.0577C73.4744 54.5528 73.54 53.9585 75.1371 53.9287C75.1371 53.9287 76.5619 54.033 77.1948 54.4Z" fill="#1D1D1B"/>
<path d="M104.147 62.6924H107.787L107.735 56.0264C107.735 56.0264 108.208 54.1895 110.899 54.8732L111.004 51.3558C111.004 51.3558 108.051 51.0409 107.154 53.9287L107.1 51.5067H103.936C103.936 51.5067 104.226 62.6141 104.147 62.6924Z" fill="#1D1D1B"/>
<path d="M67.3311 50.4653C68.2927 50.4653 69.0723 49.6895 69.0723 48.7326C69.0723 47.7757 68.2927 47 67.3311 47C66.3694 47 65.5898 47.7757 65.5898 48.7326C65.5898 49.6895 66.3694 50.4653 67.3311 50.4653Z" fill="#1D1D1B"/>
<path d="M81.0966 50.4653C82.0583 50.4653 82.8379 49.6895 82.8379 48.7326C82.8379 47.7757 82.0583 47 81.0966 47C80.1349 47 79.3553 47.7757 79.3553 48.7326C79.3553 49.6895 80.1349 50.4653 81.0966 50.4653Z" fill="#1D1D1B"/>
<path d="M94.4764 63.1228C93.312 62.5076 92.3776 61.5356 91.8116 60.3509C91.2456 59.1661 91.078 57.8315 91.3337 56.5446C91.5894 55.2577 92.2547 54.087 93.2312 53.2056C94.2076 52.3243 95.4434 51.7792 96.7554 51.6511C98.0675 51.523 99.3861 51.8187 100.516 52.4944C101.646 53.1701 102.527 54.1899 103.03 55.4028C103.532 56.6157 103.628 57.9573 103.304 59.2289C102.981 60.5005 102.254 61.6346 101.232 62.4632L100.758 61.8838C101.655 61.1563 102.292 60.1609 102.576 59.0449C102.86 57.9289 102.775 56.7516 102.334 55.6873C101.893 54.623 101.12 53.7282 100.128 53.1353C99.1362 52.5425 97.979 52.2831 96.8276 52.3956C95.6762 52.508 94.5918 52.9864 93.7348 53.7598C92.8779 54.5332 92.294 55.5606 92.0695 56.6899C91.845 57.8193 91.9919 58.9905 92.4885 60.0303C92.985 61.07 93.8048 61.9231 94.8265 62.4632L94.4764 63.1228Z" fill="#1D1D1B"/>
<path d="M50.0774 68.0169H50.7851V72.8813H53.1274V73.4719H50.0774V68.0169Z" fill="#3C3C3A"/>
<path d="M54.7582 68.4529C54.7582 68.57 54.7115 68.6823 54.6283 68.7651C54.5451 68.8479 54.4322 68.8944 54.3145 68.8944C54.1968 68.8944 54.0839 68.8479 54.0007 68.7651C53.9175 68.6823 53.8708 68.57 53.8708 68.4529C53.8692 68.394 53.8797 68.3354 53.9017 68.2807C53.9236 68.226 53.9565 68.1763 53.9984 68.1346C54.0402 68.093 54.0902 68.0602 54.1452 68.0384C54.2002 68.0166 54.2591 68.0061 54.3182 68.0076C54.3772 68.0058 54.4359 68.016 54.4906 68.0379C54.5453 68.0597 54.5949 68.0925 54.6363 68.1344C54.6776 68.1762 54.7098 68.2261 54.7308 68.2809C54.7518 68.3357 54.7611 68.3943 54.7582 68.4529ZM53.9606 73.4719V69.5595H54.6759V73.4719H53.9606Z" fill="#3C3C3A"/>
<path d="M56.0073 73.4718V70.1016H55.4456V69.5594H56.0073V69.3731C56.0073 68.8142 56.129 68.3205 56.4622 68.0057C56.7208 67.7619 57.0648 67.6282 57.4209 67.6331C57.6297 67.633 57.8366 67.6715 58.0313 67.7467L57.9339 68.3056C57.7907 68.243 57.6353 68.2125 57.4789 68.2162C56.8685 68.2162 56.7131 68.7509 56.7131 69.3489V69.5594H57.6662V70.1016H56.7131V73.4774L56.0073 73.4718Z" fill="#3C3C3A"/>
<path d="M58.6734 71.6424C58.6903 72.6056 59.3081 73.0024 60.0234 73.0024C60.3971 73.0142 60.769 72.9449 61.1131 72.7993L61.2366 73.3098C60.8218 73.4817 60.3752 73.5642 59.926 73.552C58.7146 73.552 57.99 72.7583 57.99 71.5772C57.99 70.396 58.6902 69.4645 59.8361 69.4645C61.1224 69.4645 61.4632 70.5823 61.4632 71.3108C61.4626 71.4217 61.4545 71.5325 61.4389 71.6424H58.6734ZM60.7723 71.1319C60.7723 70.6792 60.5851 69.975 59.78 69.975C59.0554 69.975 58.7389 70.6382 58.6828 71.1319H60.7723Z" fill="#3C3C3A"/>
<path d="M65.017 68.4529C65.0097 68.5648 64.9598 68.6697 64.8776 68.7464C64.7954 68.8231 64.6869 68.8658 64.5742 68.8658C64.4615 68.8658 64.353 68.8231 64.2708 68.7464C64.1885 68.6697 64.1387 68.5648 64.1314 68.4529C64.1298 68.394 64.1404 68.3354 64.1623 68.2807C64.1842 68.226 64.2171 68.1763 64.259 68.1346C64.3009 68.093 64.3508 68.0602 64.4058 68.0384C64.4608 68.0166 64.5197 68.0061 64.5789 68.0076C64.6377 68.0057 64.6963 68.016 64.751 68.0379C64.8056 68.0597 64.8551 68.0926 64.8963 68.1345C64.9375 68.1763 64.9695 68.2262 64.9903 68.2811C65.011 68.3359 65.0201 68.3944 65.017 68.4529ZM64.2194 73.4719V69.5595H64.9365V73.4719H64.2194Z" fill="#3C3C3A"/>
<path d="M66.0992 72.7434C66.3805 72.9187 66.7036 73.0164 67.0354 73.0266C67.5559 73.0266 67.7993 72.7676 67.7993 72.4435C67.7993 72.1193 67.5952 71.9181 67.0672 71.7225C66.3595 71.4728 66.0262 71.0834 66.0262 70.6139C66.0262 69.9824 66.5392 69.4645 67.3855 69.4645C67.7234 69.4612 68.0563 69.5453 68.3517 69.7085L68.1738 70.2264C67.932 70.0773 67.6531 69.9986 67.3687 69.9991C66.9455 69.9991 66.7096 70.2413 66.7096 70.5338C66.7096 70.8561 66.9455 71.0033 67.4585 71.1971C68.142 71.456 68.4902 71.7951 68.4902 72.3782C68.4902 73.0657 67.9547 73.552 67.0186 73.552C66.6328 73.5592 66.2517 73.4674 65.912 73.2855L66.0992 72.7434Z" fill="#3C3C3A"/>
<path d="M71.3116 68.0169H72.0194V72.8813H74.3617V73.4719H71.3116V68.0169Z" fill="#3C3C3A"/>
<path d="M78.6475 71.4803C78.6475 72.9297 77.6383 73.5594 76.6871 73.5594C75.6218 73.5594 74.7998 72.7826 74.7998 71.5455C74.7998 70.2414 75.663 69.4645 76.7527 69.4645C77.8836 69.4645 78.6475 70.2879 78.6475 71.4803ZM75.5244 71.5213C75.5244 72.3783 76.0206 73.0266 76.719 73.0266C77.4174 73.0266 77.9154 72.3857 77.9154 71.5045C77.9154 70.8413 77.5821 69.9992 76.7358 69.9992C75.8895 69.9992 75.5244 70.7761 75.5244 71.5213Z" fill="#3C3C3A"/>
<path d="M82.4296 73.3248C82.0766 73.4821 81.6929 73.5597 81.3062 73.5521C80.1172 73.5521 79.3458 72.751 79.3458 71.553C79.3458 70.3551 80.1753 69.4739 81.4597 69.4739C81.8011 69.4699 82.1395 69.5385 82.4521 69.6751L82.2892 70.234C82.034 70.1003 81.7479 70.0361 81.4597 70.0477C80.5572 70.0477 80.0686 70.7109 80.0686 71.5381C80.0686 72.4436 80.6546 73.0025 81.4354 73.0025C81.7384 73.0066 82.0385 72.9429 82.3135 72.8162L82.4296 73.3248Z" fill="#3C3C3A"/>
<path d="M85.5191 73.4719L85.4629 72.9782H85.4386C85.2985 73.163 85.1163 73.312 84.907 73.4131C84.6977 73.5141 84.4673 73.5643 84.2347 73.5595C83.4371 73.5595 83.0308 73.0005 83.0308 72.4416C83.0308 71.4933 83.8771 70.9754 85.3974 70.9847V70.9028C85.3974 70.5786 85.3075 69.9973 84.5024 69.9973C84.1406 69.9978 83.786 70.0984 83.4783 70.288L83.3154 69.8185C83.7054 69.5842 84.1536 69.4634 84.6092 69.4701C85.8112 69.4701 86.107 70.288 86.107 71.0723V72.5385C86.1025 72.8503 86.1244 73.1619 86.1726 73.47L85.5191 73.4719ZM85.4143 71.4729C84.6335 71.4561 83.746 71.5939 83.746 72.3541C83.7385 72.4446 83.7507 72.5357 83.7819 72.6211C83.8131 72.7065 83.8625 72.7842 83.9268 72.8488C83.991 72.9134 84.0685 72.9634 84.1539 72.9954C84.2394 73.0274 84.3308 73.0406 84.4219 73.0341C84.6299 73.0392 84.834 72.9784 85.005 72.8606C85.176 72.7427 85.3049 72.5738 85.3731 72.3783C85.3984 72.3057 85.4123 72.2297 85.4143 72.1529V71.4729Z" fill="#3C3C3A"/>
<path d="M87.337 67.7244H88.0541V73.4719H87.337V67.7244Z" fill="#3C3C3A"/>
<path d="M27.2142 50.5529L28.0418 48.0211C28.0418 48.0211 16.1037 44.649 16.0007 55.0205C15.8977 65.5243 27.5325 62.836 27.5325 62.836L27.3452 59.6092C27.3452 59.6092 19.5825 62.0702 19.5188 54.9199C19.4552 47.7696 27.2142 50.5529 27.2142 50.5529Z" fill="#29B3E9"/>
<path d="M29.1857 51.693H32.6852V62.7035H29.2494C29.2494 62.7035 29.0584 51.693 29.1857 51.693Z" fill="#29B3E9"/>
<path d="M35.2278 49.7946L38.6561 48.8444V51.7563H41.0152V54.4764H38.6561V58.78C38.6561 58.78 38.0831 60.2984 40.9441 60.2984L41.0714 62.7669C41.0714 62.7669 36.0479 64.5387 35.475 60.8685V54.4764H33.6382V51.6297H35.2859C35.2859 51.6297 35.1323 49.6996 35.2278 49.7946Z" fill="#29B3E9"/>
<path d="M41.5881 51.693L45.213 51.7563L47.6302 59.16L49.6655 51.5663H53.545L48.6488 63.717C48.6488 63.717 47.6302 67.1338 43.4961 67.8921L42.6704 64.982C42.6704 64.982 46.3589 63.9685 45.7859 61.7552L41.5881 51.693Z" fill="#29B3E9"/>
<path d="M31.0956 50.4653C32.0573 50.4653 32.8369 49.6895 32.8369 48.7326C32.8369 47.7757 32.0573 47 31.0956 47C30.1339 47 29.3543 47.7757 29.3543 48.7326C29.3543 49.6895 30.1339 50.4653 31.0956 50.4653Z" fill="#29B3E9"/>
<path d="M100.194 60.2089L99.6477 59.7003C100.06 59.2617 100.335 58.7126 100.438 58.1206C100.541 57.5287 100.468 56.9196 100.228 56.3684C99.9878 55.8172 99.5908 55.3479 99.0861 55.0182C98.5813 54.6886 97.9906 54.513 97.3868 54.513C96.783 54.513 96.1924 54.6886 95.6876 55.0182C95.1828 55.3479 94.7859 55.8172 94.5456 56.3684C94.3054 56.9196 94.2323 57.5287 94.3354 58.1206C94.4385 58.7126 94.7133 59.2617 95.126 59.7003L94.5792 60.2108C94.0677 59.6661 93.7273 58.9846 93.5999 58.25C93.4724 57.5154 93.5635 56.7598 93.8618 56.076C94.1602 55.3922 94.6529 54.8101 95.2793 54.4012C95.9057 53.9923 96.6386 53.7745 97.3878 53.7745C98.1369 53.7745 98.8698 53.9923 99.4962 54.4012C100.123 54.8101 100.615 55.3922 100.914 56.076C101.212 56.7598 101.303 57.5154 101.176 58.25C101.048 58.9846 100.708 59.6661 100.196 60.2108L100.194 60.2089Z" fill="#29B3E9"/>
<path d="M91.7333 66.532C91.4362 66.7334 91.2241 67.0365 91.1374 67.3836C91.0507 67.7307 91.0955 68.0974 91.2633 68.4137L95.1428 75.8491C95.1428 75.8491 97.2286 79.9999 101.267 79.9999C102.629 79.9686 103.947 79.5124 105.034 78.6958C106.937 77.2053 107.697 74.9101 107.71 72.5049L107.738 66.7295C107.742 66.3791 107.683 66.0308 107.564 65.7011C107.418 65.3136 107.028 65.0397 106.45 65.0397C105.825 65.0397 105.484 65.2558 105.371 65.5427C105.322 65.7546 105.302 65.972 105.312 66.1892L105.259 67.6796C105.259 67.946 105.224 68.1566 104.956 68.1696C104.769 68.1696 104.828 68.1696 104.748 68.0746C104.667 67.9796 104.705 67.7299 104.709 67.5828L104.735 65.0546C104.697 63.9368 103.986 63.8977 103.291 63.8902H103.263C102.273 63.8902 102.263 65.0565 102.263 65.0565L102.22 66.9195C102.203 66.9929 102.165 67.0596 102.11 67.1113C102.055 67.163 101.986 67.1974 101.911 67.2101C101.664 67.2344 101.724 66.8543 101.724 66.7444C101.724 66.6345 101.777 64.4864 101.674 63.6611C101.626 63.3979 101.488 63.1594 101.283 62.9865C101.078 62.8135 100.819 62.7167 100.55 62.7128H100.522C100.363 62.7119 100.207 62.7488 100.066 62.8205C99.9242 62.8921 99.8021 62.9963 99.7095 63.1245C99.5166 63.3821 99.4181 63.6977 99.4305 64.0188C99.4455 64.8124 99.3762 66.8357 99.3519 66.9586C99.3388 67.0257 99.453 67.5175 99.0991 67.4989C98.9343 67.4989 98.9605 66.94 98.9605 66.94L98.7583 58.8861C98.7643 58.6603 98.7169 58.4363 98.6198 58.2322C98.4644 57.9173 98.1348 57.5689 97.4421 57.5689C97.1912 57.5558 96.9421 57.6167 96.7259 57.744C96.5097 57.8713 96.3361 58.0592 96.2269 58.2843C96.113 58.5161 96.0565 58.7716 96.0621 59.0295L96.1108 69.9469C96.1112 69.9619 96.1066 69.9766 96.0978 69.9888C96.089 70.0009 96.0764 70.0099 96.062 70.0143C96.0476 70.0188 96.0322 70.0184 96.018 70.0133C96.0038 70.0082 95.9917 69.9986 95.9835 69.9861L93.8958 66.9437C93.6717 66.6125 93.3274 66.3803 92.9351 66.296C92.5429 66.2116 92.133 66.2815 91.7913 66.491L91.7595 66.5096L91.7333 66.532Z" fill="#29B3E9"/>
</svg>
