<svg width="128" height="128" viewBox="0 0 128 128" fill="none" xmlns="http://www.w3.org/2000/svg">
<rect width="128" height="128" fill="#1F9EC9"/>
<path fill-rule="evenodd" clip-rule="evenodd" d="M65.611 32.8891C59.9779 31.646 54.1987 32.6721 49.3372 35.7766C39.3007 42.1854 36.3493 55.5646 42.7581 65.6C44.4107 68.1895 51.7705 76.26 84.3263 95.242C85.2256 95.7651 86.3957 95.7367 87.2696 95.1781C88.1679 94.6052 88.6627 93.5903 88.5623 92.5308C85.0401 55.0161 80.8142 44.9442 79.1616 42.3557C76.0561 37.4931 71.2442 34.1321 65.611 32.8891ZM83.3317 103.733C82.1982 103.483 81.1153 103.059 80.1096 102.474C55.0139 87.8416 40.0733 76.9505 35.7024 70.1067C26.8086 56.18 30.9047 37.6138 44.8304 28.721C51.5778 24.413 59.5977 22.9895 67.4147 24.7141C75.2318 26.4377 81.9092 31.1026 86.2172 37.85C90.5881 44.6957 94.1823 62.8291 96.8975 91.7471C97.2919 95.9436 95.33 99.9616 91.7784 102.232C89.2548 103.845 86.2557 104.378 83.3317 103.733Z" fill="white"/>
</svg>
