<svg width="128" height="128" viewBox="0 0 128 128" fill="none" xmlns="http://www.w3.org/2000/svg">
<rect width="128" height="128" fill="#608CC9"/>
<path d="M80.7727 94.728C80.7727 96.9597 79.6335 97.7474 77.4843 97.0447C77.2064 96.9822 76.9603 96.8195 76.7913 96.5866C76.6224 96.3538 76.5421 96.0666 76.5654 95.7782V44.4329C76.5654 41.0196 76.2312 40.6721 72.8972 40.6644H55.635C52.6732 40.6644 52.2935 41.0582 52.2935 44.1549V94.5349C52.2935 96.8516 51.7087 97.369 49.4607 97.1065C48.557 96.9983 48.0634 96.62 48.0709 95.6624V43.9386C48.0709 38.533 50.1974 36.394 55.5743 36.3708C56.1864 36.3708 56.7985 36.3657 57.4103 36.3605C58.6347 36.3502 59.8604 36.3399 61.0803 36.3708C62.4776 36.4171 63.0244 35.7916 62.9637 34.4171C62.9128 33.4559 62.9458 32.492 63.0624 31.5367C63.0841 30.9897 63.3141 30.4728 63.7039 30.0952C64.0937 29.7176 64.6126 29.509 65.1509 29.5134C66.3812 29.5134 66.9736 30.2857 67.1634 31.3977C67.2999 32.1632 67.3861 32.9372 67.4216 33.7144L67.423 33.7588C67.5051 36.4326 67.5051 36.4326 70.2468 36.4403C70.7531 36.4403 71.2594 36.4343 71.7657 36.4283C72.7783 36.4163 73.7908 36.4043 74.8034 36.4403C78.4412 36.6411 80.7575 39.1045 80.7727 42.8112V94.728Z" fill="white"/>
<path d="M101.991 78.712V94.8438C101.991 96.4346 101.513 97.1605 99.8266 97.1605C98.1406 97.1605 97.7077 96.3883 97.7153 94.8438C97.7457 88.0179 97.7356 81.1886 97.7254 74.3604C97.7204 70.9463 97.7153 67.5299 97.7153 64.1169C97.7153 60.7964 97.2369 60.3099 94.0244 60.2558C93.2011 60.2558 92.3787 60.2506 91.5568 60.2455C89.9147 60.2352 88.2748 60.2249 86.635 60.2558C85.1161 60.2944 84.8503 59.4836 84.8579 58.2017C84.8655 56.9198 84.9566 55.885 86.6274 55.9391C88.0213 55.9669 89.4168 55.9587 90.8124 55.9504C92.5115 55.9403 94.2108 55.9303 95.9078 55.9854C99.5076 56.1089 101.885 58.611 101.923 62.3099C102.011 66.5992 102.003 70.8464 101.995 75.0843V75.1576C101.993 76.3421 101.991 77.5282 101.991 78.712Z" fill="white"/>
<path d="M26.8517 72.0551V83.1984C26.8517 84.5418 26.8559 85.8886 26.8601 87.2357C26.8686 89.9308 26.877 92.627 26.8517 95.2992C26.8517 96.5888 27.3225 97.1448 28.6212 97.2066C30.7856 97.2452 31.0818 97.029 31.0818 94.7123V72.8119C31.0894 70.0782 31.5754 69.5917 34.3246 69.5917C35.1861 69.5917 36.0476 69.5832 36.9088 69.5746H36.916C38.641 69.5574 40.3658 69.5403 42.0862 69.5917C43.681 69.6381 43.9772 68.8118 43.9772 67.4527C43.9772 66.0936 43.6962 65.2673 42.109 65.2673C40.2161 65.293 38.3233 65.2844 36.4283 65.2759H36.4119C35.4697 65.2716 34.524 65.2673 33.5804 65.2673C29.2819 65.2982 26.8517 67.7152 26.8517 72.0551Z" fill="white"/>
<path d="M87.0071 87.9245C85.268 88.1948 84.9338 87.2836 84.8958 85.8163C84.8503 84.102 85.5718 83.6541 87.1742 83.6541C88.7766 83.6541 89.1943 84.3414 89.2019 85.8395C89.1791 87.5075 88.5792 88.2411 87.0071 87.9245Z" fill="white"/>
<path d="M93.0378 78.7893C94.5719 78.7661 95.5136 78.4032 95.2022 76.6193C95.4908 74.8278 94.6402 74.4725 93.0454 74.4494C91.4506 74.4262 90.9949 75.1058 90.9949 76.6116C90.9949 78.1175 91.5037 78.8125 93.0378 78.7893Z" fill="white"/>
<path d="M41.8809 74.5034C43.7416 74.1868 43.9846 75.2293 44.015 76.7429C44.015 78.4186 43.2555 78.7198 41.8278 78.7661C40.081 78.8279 39.7393 77.9939 39.7393 76.4494C39.7393 74.905 40.4228 74.2409 41.8809 74.5034Z" fill="white"/>
<path d="M35.5928 78.7584C37.0585 78.7198 38.1749 78.5576 37.8711 76.6811C38.1445 75.0749 37.4838 74.4108 35.8206 74.4262C34.3245 74.4416 33.6866 74.8973 33.6866 76.5035C33.6866 77.9167 33.922 78.8124 35.5928 78.7584Z" fill="white"/>
<path d="M95.2016 85.9482C95.4978 87.871 94.3055 87.9405 92.9233 87.9946C91.1917 88.0564 91.055 87.0679 91.0171 85.6779C90.9715 84.0331 91.731 83.6624 93.1891 83.6392C94.8523 83.6315 95.4295 84.3419 95.2016 85.9482Z" fill="white"/>
<path d="M92.9238 69.5461C94.3668 69.4997 95.5135 69.3762 95.2022 67.4842C95.4452 65.8471 94.7845 65.1984 93.1289 65.2139C91.6404 65.2216 90.9417 65.6618 90.9796 67.2757C91.0176 68.6734 91.2227 69.6001 92.9238 69.5461Z" fill="white"/>
<path d="M89.1264 67.3526C89.453 69.2832 88.367 69.4763 86.9089 69.5226C85.2381 69.5226 84.9647 68.7118 84.9343 67.2831C84.9343 65.7001 85.5267 65.1672 87.0531 65.1827C88.5796 65.1981 89.4454 65.7078 89.1264 67.3526Z" fill="white"/>
<path d="M93.0372 97.1837C94.5561 97.1606 95.5206 96.8131 95.2017 95.0215C95.4827 93.2531 94.6397 92.8361 93.0221 92.8361C91.4044 92.8361 91.0095 93.5079 90.9943 95.0215C90.9791 96.5351 91.5184 97.2069 93.0372 97.1837Z" fill="white"/>
<path d="M89.1263 94.9751C89.4073 96.6894 88.6175 97.1528 87.1214 97.1836C85.5038 97.2223 84.8962 96.6431 84.9266 94.9828C84.9266 93.4383 85.4734 92.836 87.0226 92.8592C88.5719 92.8823 89.4529 93.2916 89.1263 94.9751Z" fill="white"/>
<path d="M44.015 95.1679C43.9771 93.7007 43.7492 92.6118 41.9342 92.9285C40.2634 92.635 39.7469 93.4999 39.7394 95.0598C39.7318 96.6197 40.3089 97.1834 41.8278 97.1834C43.2556 97.1603 44.0606 96.8514 44.015 95.1679Z" fill="white"/>
<path d="M87.1894 74.4957C89.05 74.2022 89.1184 75.3992 89.1639 76.8124C89.2247 78.5653 88.2526 78.6889 86.8856 78.7507C85.0553 78.8356 84.8959 77.8163 84.8807 76.3567C84.8731 74.6578 85.7616 74.3026 87.1894 74.4957Z" fill="white"/>
<path d="M37.9625 95.2445C37.9094 93.8393 37.8635 92.6274 35.9652 92.9285C34.3628 92.6659 33.6413 93.2605 33.6869 94.9749C33.6869 96.4421 34.0362 97.2375 35.6842 97.168C37.0208 97.1217 38.0233 97.0129 37.9625 95.2445Z" fill="white"/>
<path d="M72.4186 58.294C72.6692 59.9697 71.7579 60.3018 70.315 60.325C68.5583 60.325 68.5233 59.3075 68.4792 58.0236L68.4771 57.962C68.4239 56.4175 69.153 56.0237 70.5352 56.0082C72.2288 55.9773 72.6389 56.8345 72.4186 58.294Z" fill="white"/>
<path d="M64.278 60.3252C65.7513 60.3021 66.6019 59.9082 66.3436 58.2557C66.5791 56.773 66.093 55.9853 64.4374 56.0162C63.0249 56.0394 62.3642 56.4641 62.4021 58.0086C62.4401 59.3445 62.5236 60.3252 64.278 60.3252Z" fill="white"/>
<path d="M60.2677 58.2865C60.5259 59.9622 59.6297 60.302 58.1792 60.3252C56.4097 60.3252 56.3717 59.2981 56.3262 58.0085C56.2806 56.464 57.0021 56.0702 58.3843 56.047C60.0778 55.9775 60.4879 56.8193 60.2677 58.2865Z" fill="white"/>
<path d="M72.5098 48.9734C72.5022 47.4753 72.0921 46.6181 70.4669 46.8498C68.7657 46.6181 68.4999 47.6297 68.4999 49.0583C68.4999 50.4869 68.872 51.1356 70.4441 51.1356C72.0161 51.1356 72.5174 50.4715 72.5098 48.9734Z" fill="white"/>
<path d="M60.2678 76.6656C60.526 78.2873 59.7286 78.7584 58.2249 78.7661C56.7212 78.7738 56.3415 77.9939 56.3263 76.6348C56.3111 75.2756 56.7212 74.4262 58.3388 74.4339C59.9564 74.4416 60.5108 75.1521 60.2678 76.6656Z" fill="white"/>
<path d="M33.6866 85.5001C33.6866 86.9827 34.0587 87.8785 35.7523 87.6083C37.1497 87.8245 37.9547 87.3071 37.9547 85.7009C37.9547 84.0946 37.3395 83.6158 35.8206 83.6158C34.4916 83.6467 33.6866 84.0174 33.6866 85.5001Z" fill="white"/>
<path d="M68.5689 85.8243C68.3107 84.1254 69.1081 83.6852 70.6118 83.662C72.3434 83.662 72.4725 84.6119 72.5028 85.9787C72.5028 87.4846 71.9105 87.9711 70.4903 87.9942C68.8727 88.0097 68.3183 87.2915 68.5689 85.8243Z" fill="white"/>
<path d="M58.2702 87.994C59.827 88.0017 60.5105 87.3762 60.2675 85.8318C60.5257 84.2796 59.9637 83.6772 58.293 83.6618C56.6222 83.6464 56.3336 84.4726 56.326 85.909C56.3184 87.3453 56.7133 87.9863 58.2702 87.994Z" fill="white"/>
<path d="M66.3432 76.681C66.609 78.4263 65.6749 78.7506 64.2395 78.7583C62.6447 78.7583 62.4472 77.8934 62.4092 76.5729C62.3637 75.0285 62.9333 74.4339 64.4825 74.4339C66.1913 74.4339 66.5634 75.2833 66.3432 76.681Z" fill="white"/>
<path d="M58.2169 69.5535C59.7054 69.5304 60.5256 69.0979 60.2674 67.4685C60.5028 65.9627 60.0016 65.2059 58.346 65.2291C56.9258 65.2522 56.3259 65.6924 56.3259 67.2369C56.3563 68.5883 56.4778 69.5535 58.2169 69.5535Z" fill="white"/>
<path d="M56.4172 94.9987C56.159 93.2843 57.0019 92.8905 58.4753 92.8673C60.2296 92.8673 60.3055 93.8403 60.3511 95.184C60.3511 96.7285 59.7208 97.1609 58.3234 97.1764C56.7134 97.1918 56.1514 96.4659 56.4172 94.9987Z" fill="white"/>
<path d="M64.2706 97.1762C65.7211 97.1684 66.6173 96.79 66.3439 95.0603C66.5793 93.6085 66.0477 92.8594 64.4604 92.8594C62.8732 92.8594 62.4023 93.4695 62.4023 95.0139C62.4251 96.4039 62.82 97.1839 64.2706 97.1762Z" fill="white"/>
<path d="M72.4191 95.1528C72.6393 96.6972 71.8723 97.1374 70.4673 97.1683C68.8497 97.1683 68.4775 96.4424 68.4623 94.9597C68.4472 93.477 69.0623 92.8361 70.5964 92.8361C72.3051 92.8361 72.6165 93.755 72.4191 95.1528Z" fill="white"/>
<path d="M64.2089 69.5456C65.5835 69.5224 66.6012 69.2676 66.3429 67.5532C66.5404 66.1323 66.2366 65.1902 64.5051 65.2288C63.1685 65.252 62.3483 65.5995 62.409 67.1439L62.415 67.3237C62.4537 68.5352 62.486 69.5456 64.2089 69.5456Z" fill="white"/>
<path d="M68.5603 67.3525C68.3173 65.8081 69.0084 65.1903 70.5576 65.1903C72.1069 65.1903 72.5094 65.839 72.5018 67.2753C72.4942 68.7116 72.2056 69.5379 70.5349 69.5225C68.8641 69.507 68.3249 68.9356 68.5603 67.3525Z" fill="white"/>
<path d="M64.2701 51.1126C65.7358 51.0894 66.6015 50.7187 66.3433 49.0584C66.5788 47.5758 66.1079 46.7726 64.4447 46.819C63.0473 46.8344 62.3562 47.2514 62.4018 48.7959C62.4474 50.1087 62.5005 51.1126 64.2701 51.1126Z" fill="white"/>
<path d="M56.4018 48.819C56.1436 47.1356 57.0625 46.7881 58.5055 46.7726C60.0851 46.7726 60.3206 47.6144 60.3509 48.9503C60.3509 50.4948 59.8649 51.0971 58.2928 51.0971C56.7208 51.0971 56.2196 50.294 56.4018 48.819Z" fill="white"/>
<path d="M64.2392 87.9865C65.6746 87.9788 66.6011 87.6467 66.3429 85.9555C66.5479 84.5115 66.1834 83.662 64.4746 83.662C62.9178 83.662 62.3558 84.2566 62.4014 85.8011C62.4317 87.1293 62.6444 87.9865 64.2392 87.9865Z" fill="white"/>
<path d="M72.4182 76.6965C72.6688 78.3491 71.8031 78.7507 70.3373 78.7661C68.8716 78.7816 68.4995 77.9939 68.4691 76.6116C68.4691 75.0672 68.9172 74.4262 70.512 74.4339C72.1069 74.4416 72.6461 75.2139 72.4182 76.6965Z" fill="white"/>
<path d="M39.7476 85.6464C39.7856 87.0751 40.2185 87.8396 41.7374 87.6233C43.1272 87.7855 44.0233 87.4843 44.0157 85.7468C44.0081 84.1947 43.3626 83.5923 41.9348 83.6078C40.5071 83.6232 39.7096 83.9939 39.7476 85.6464Z" fill="white"/>
</svg>
