<svg width="128" height="128" viewBox="0 0 128 128" fill="none" xmlns="http://www.w3.org/2000/svg">
<rect width="128" height="128" fill="white"/>
<path d="M60.3323 103.942C47.4389 103.578 31.2373 93.4502 28.526 76.5311C25.7852 59.3865 33.8897 46.1246 49.7007 39.6972C49.7007 40.5697 49.7007 41.3113 49.7007 42.0456C49.5976 47.3315 49.266 52.6247 49.4429 57.9033C49.5902 62.4112 51.8226 66.3592 54.1287 70.1328C59.9566 79.6721 61.5922 90.0039 60.5239 100.903C60.4134 101.913 60.4134 102.931 60.3323 103.942Z" fill="#589442"/>
<path d="M68.5841 104C67.6484 95.9003 67.5453 87.9315 70.2418 80.2899C71.8688 76.0214 73.8092 71.8757 76.0476 67.8859C78.14 63.9233 79.7314 59.8298 79.7314 55.3801C79.7314 50.4432 79.3115 45.5136 79.0831 40.5767C79.0682 40.3346 79.0682 40.0918 79.0831 39.8497C89.8178 43.0852 102.579 56.0127 100.84 73.6953C99.0716 91.6251 82.8922 103.28 68.5841 104Z" fill="#589442"/>
<path d="M65.6592 38.1848C65.6592 43.032 65.6592 47.8598 65.6592 52.6683C65.6592 53.5117 65.7918 54.3842 64.4288 54.3915C63.0657 54.3987 63.2057 53.5262 63.2057 52.6901V23.7232C63.2057 22.8943 63.0142 22 64.414 22C65.8139 22 65.6592 22.8507 65.6665 23.7014L65.6592 38.1848Z" fill="#589442"/>
<path d="M57.7831 22.8215C57.842 23.4831 57.9231 23.9557 57.9231 24.4283C57.9231 33.5992 57.9231 42.7726 57.9231 51.9483C57.9231 53.0244 57.8347 54.0351 56.3611 53.5261C56.1194 53.3875 55.915 53.1936 55.7649 52.9608C55.6149 52.728 55.5238 52.4631 55.4991 52.1883C55.4475 42.8307 55.4991 33.4805 55.4549 24.123C55.4623 22.4434 56.5453 22.727 57.7831 22.8215Z" fill="#589442"/>
<path d="M70.846 38.1413C70.846 33.5607 70.846 28.9801 70.846 24.3995C70.846 23.6724 70.6029 22.7563 71.8996 22.7199C73.1963 22.6835 73.3731 23.447 73.3731 24.4649C73.3731 33.568 73.3731 42.6686 73.3731 51.7668C73.3731 52.7702 73.2258 53.5772 71.9659 53.6427C70.4924 53.7154 70.846 52.6393 70.8387 51.8831C70.8387 47.3025 70.846 42.7219 70.846 38.1413Z" fill="#589442"/>
</svg>
