<svg width="128" height="129" viewBox="0 0 128 129" fill="none" xmlns="http://www.w3.org/2000/svg">
<rect width="128" height="128" transform="translate(0 0.277832)" fill="#142C2D"/>
<path d="M98.4814 83.8912C97.899 83.8912 97.3086 83.7764 96.7419 83.5267C94.5264 82.5636 93.5118 79.9876 94.475 77.7764C98.1605 69.2953 98.1051 59.5498 94.3202 51.037C93.3413 48.8296 94.3321 46.2456 96.5397 45.2667C98.747 44.2879 101.331 45.2786 102.31 47.4861C107.086 58.2301 107.153 70.5433 102.492 81.2637C101.779 82.9087 100.17 83.8912 98.4814 83.8912Z" fill="#00855B"/>
<path d="M93.785 87.8744C92.0768 86.1662 89.3108 86.1662 87.6025 87.8744C81.3686 94.1083 73.0656 97.5046 64.1884 97.4809C55.3071 97.4413 46.9409 93.9417 40.6316 87.6287C27.6167 74.6097 27.5057 53.5378 40.3899 40.6577C53.274 27.7736 74.3457 27.8845 87.3647 40.9034C88.2167 41.7555 89.3385 42.1835 90.456 42.1835C91.5734 42.1835 92.6952 41.7555 93.5472 40.9034C95.2554 39.1953 95.2554 36.4291 93.5472 34.7209C77.12 18.2938 50.4998 18.1828 34.2074 34.4752C17.915 50.7676 18.026 77.384 34.4491 93.8111L34.4531 93.8151C42.4071 101.769 52.953 106.176 64.1528 106.227C64.2201 106.227 64.2834 106.227 64.3511 106.227C75.4913 106.227 85.9422 101.912 93.7929 94.0608C95.4933 92.3526 95.4932 89.5823 93.785 87.8744Z" fill="white"/>
</svg>
