<svg width="128" height="128" viewBox="0 0 128 128" fill="none" xmlns="http://www.w3.org/2000/svg">
<rect width="128" height="128" fill="#4B8B96"/>
<path fill-rule="evenodd" clip-rule="evenodd" d="M103.985 36.8035C103.985 41.6598 103.971 46.0378 104 50.4308C104 51.554 103.255 52.1852 102.596 52.8865C99.1437 56.5633 95.7199 60.2975 92.1823 63.9041C90.9889 65.125 91.0602 65.9103 92.1961 67.1037C95.6762 70.7528 99.031 74.5422 102.497 78.2189C103.452 79.2295 103.915 80.2677 103.887 81.6864C103.803 85.0952 103.86 88.5064 103.86 91.8888C102.862 92.2682 102.61 91.4542 102.217 91.0323C94.9335 83.1178 87.6767 75.1745 80.3795 67.2715C78.8918 65.6585 78.4573 64.0719 80.0427 62.3324C87.6353 54.0374 95.2428 45.7435 102.849 37.4634C103.003 37.3231 103.242 37.253 103.985 36.8035Z" fill="#F8FAFA"/>
<path fill-rule="evenodd" clip-rule="evenodd" d="M37.0973 65.5039C33.1677 61.2373 29.4622 57.1249 25.659 53.1251C24.5082 51.9191 24.0034 50.6693 24.0448 49C24.1437 45.0979 24.0736 41.1959 24.0736 37.2386C25.2946 37.1122 25.6314 38.1227 26.1649 38.7125C33.1815 46.3189 40.1567 53.954 47.1319 61.588C49.391 64.0587 49.391 65.1946 47.1744 67.6227C40.1992 75.2441 33.2102 82.8654 26.1925 90.4856C25.659 91.0604 25.2808 91.8319 24.0034 92.2251C24.0034 88.0712 23.9897 84.0714 24.0172 80.0578C24.0172 79.2439 24.7749 78.8369 25.252 78.3034C29.1253 74.1059 32.9998 69.9382 37.0973 65.5039Z" fill="#F8FAFA"/>
<path fill-rule="evenodd" clip-rule="evenodd" d="M101.305 29.8565C93.1502 39.1196 84.9966 48.3678 76.8429 57.6308C76.5199 57.3503 76.2117 57.0686 75.8887 56.7881C84.0423 47.5262 92.1959 38.2631 100.365 29C100.673 29.2817 100.982 29.5622 101.305 29.8565Z" fill="#F8FAFA"/>
<path fill-rule="evenodd" clip-rule="evenodd" d="M26.8381 99.1302C34.9918 89.8671 43.1466 80.6051 51.5669 71.0339C51.6934 73.1241 29.7434 98.5128 27.3854 99.6349L26.8381 99.1302Z" fill="#F8FAFA"/>
<path fill-rule="evenodd" clip-rule="evenodd" d="M27.7785 29.0005C35.9321 38.2636 44.0719 47.5393 52.2267 56.8024C51.9174 57.0691 51.6093 57.3497 51.3001 57.6164C43.1464 48.3533 34.9779 39.0914 26.8242 29.8283C27.1323 29.5477 27.4554 29.281 27.7785 29.0005Z" fill="#F8FAFA"/>
<path fill-rule="evenodd" clip-rule="evenodd" d="M100.336 99.9869C92.1824 90.7238 84.0277 81.4619 75.5935 71.8757C77.7273 72.0436 100.211 97.2219 100.841 99.5374C100.673 99.6765 100.504 99.8317 100.336 99.9869Z" fill="#F8FAFA"/>
<path fill-rule="evenodd" clip-rule="evenodd" d="M52.3525 64.5494C52.3387 71.2016 57.433 76.3522 64.0426 76.3384C70.6257 76.3246 75.7764 71.1038 75.72 64.5069C75.6637 57.9812 70.5981 52.8869 64.1127 52.8593C57.4606 52.8168 52.3663 57.8835 52.3525 64.5494ZM51.3845 64.4794C51.4408 57.518 57.0685 51.9041 64.015 51.9041C71.0327 51.9041 76.7858 57.7146 76.6881 64.7174C76.5904 71.7627 70.8074 77.4054 63.777 77.2928C56.8857 77.1939 51.3281 71.4397 51.3845 64.4794Z" fill="#F8FAFA"/>
<path fill-rule="evenodd" clip-rule="evenodd" d="M63.8979 52.7209C70.3925 52.7209 75.6581 57.9865 75.6581 64.4812C75.6581 70.9769 70.3925 76.2425 63.8979 76.2425C57.4021 76.2425 52.1377 70.9769 52.1377 64.4812C52.1377 57.9865 57.4021 52.7209 63.8979 52.7209Z" fill="#CE2328"/>
</svg>
