<svg width="128" height="128" viewBox="0 0 128 128" fill="none" xmlns="http://www.w3.org/2000/svg">
<rect width="128" height="128" fill="#034F99"/>
<path d="M12.0174 58.6147C13.2069 58.4359 14.4082 58.3443 15.6115 58.3406C18.0453 58.3406 19.7812 58.9144 20.9327 60.0534C21.5684 60.6828 22.0616 61.4368 22.3803 62.2661C22.699 63.0954 22.8359 63.9813 22.7821 64.8661C22.8765 66.7774 22.1994 68.6482 20.8978 70.0727C19.6678 71.323 17.6353 71.9995 15.0793 71.9995C14.0505 72.0059 13.0222 71.9516 12 71.8368L12.0174 58.6147ZM13.7621 70.4666C14.34 70.5452 14.9236 70.5767 15.5068 70.5608C19.1357 70.5608 21.1072 68.497 21.1072 64.8832C21.1072 61.7147 19.3625 59.7451 15.7859 59.7451C15.1182 59.7325 14.4512 59.7928 13.797 59.9249L13.7621 70.4666Z" fill="white"/>
<path d="M30.7378 71.7427L30.5982 70.5352H30.5371C30.1921 70.9871 29.7422 71.3518 29.2249 71.5991C28.7076 71.8463 28.1377 71.9689 27.5625 71.9567C27.1802 71.984 26.7963 71.9331 26.435 71.8074C26.0738 71.6817 25.743 71.4839 25.4635 71.2264C25.184 70.969 24.9619 70.6574 24.8112 70.3115C24.6604 69.9655 24.5844 69.5927 24.5878 69.2164C24.5878 66.9042 26.6727 65.6454 30.4325 65.6625V65.4656C30.4712 65.1701 30.4411 64.8699 30.3446 64.5875C30.248 64.3051 30.0875 64.0479 29.875 63.8352C29.6626 63.6225 29.4037 63.4599 29.118 63.3596C28.8323 63.2593 28.5271 63.224 28.2255 63.2562C27.3286 63.2582 26.4499 63.5042 25.687 63.967L25.2857 62.8194C26.2504 62.246 27.3595 61.9494 28.4872 61.9631C31.4618 61.9631 32.1859 63.9584 32.1859 65.8681V69.4391C32.171 70.2071 32.2235 70.9749 32.3429 71.7341L30.7378 71.7427ZM30.4761 66.8614C28.5395 66.8614 26.3499 67.1612 26.3499 69.0194C26.3331 69.24 26.3648 69.4615 26.4429 69.6689C26.521 69.8763 26.6437 70.0648 26.8026 70.2216C26.9615 70.3784 27.1528 70.4998 27.3637 70.5775C27.5746 70.6553 27.8001 70.6876 28.0248 70.6722C28.5418 70.6832 29.0488 70.5311 29.4712 70.2382C29.8936 69.9453 30.2091 69.5271 30.3714 69.0451C30.4356 68.8661 30.4709 68.6783 30.4761 68.4885V66.8614Z" fill="white"/>
<path d="M35.4833 69.9613C36.1859 70.3926 36.9929 70.632 37.8212 70.655C39.1035 70.655 39.7054 70.0213 39.7054 69.2334C39.7054 68.4456 39.2082 67.9489 37.8997 67.5207C36.155 66.9042 35.3263 65.9622 35.3263 64.8147C35.3263 63.2732 36.5912 62.0144 38.6848 62.0144C39.5201 62.0052 40.3436 62.2088 41.075 62.6053L40.6301 63.8727C40.0333 63.5078 39.3442 63.3149 38.6411 63.316C37.5943 63.316 37.0099 63.9069 37.0099 64.6177C37.0099 65.3285 37.5943 65.7652 38.8592 66.2362C40.5516 66.8699 41.4152 67.7006 41.4152 69.1221C41.4152 70.792 40.0892 71.9823 37.7775 71.9823C36.8229 71.9981 35.88 71.7741 35.0384 71.3315L35.4833 69.9613Z" fill="white"/>
<path d="M59.3155 64.9517C59.3155 69.5332 56.4804 71.9567 53.0173 71.9567C49.5541 71.9567 46.9109 69.2335 46.9109 65.2086C46.9109 60.9868 49.589 58.2208 53.2005 58.2208C56.8119 58.2208 59.3155 61.0039 59.3155 64.9517ZM48.7603 65.1658C48.7603 68.0089 50.3305 70.5523 53.1219 70.5523C55.9134 70.5523 57.4836 68.0517 57.4836 65.0288C57.4836 62.3827 56.053 59.6252 53.1219 59.6252C50.1909 59.6252 48.7603 62.2457 48.7603 65.1658Z" fill="white"/>
<path d="M62.2117 65.1659C62.2117 64.0441 62.2117 63.0764 62.1332 62.1858H63.6772L63.7383 64.0613H63.8168C63.9839 63.4782 64.3347 62.9621 64.8189 62.5867C65.3031 62.2114 65.8959 61.9961 66.5123 61.9717C66.683 61.9685 66.8533 61.9887 67.0183 62.0317V63.6673C66.8209 63.6235 66.6188 63.6034 66.4164 63.6074C65.8109 63.6306 65.235 63.8709 64.7978 64.2827C64.3605 64.6946 64.0922 65.2495 64.0436 65.8425C63.9925 66.1079 63.9662 66.3773 63.9651 66.6474V71.7856H62.2204L62.2117 65.1659Z" fill="white"/>
<path d="M71.8161 59.4454V62.1943H74.3459V63.5217H71.8161V68.6598C71.8161 69.8416 72.1563 70.5181 73.1421 70.5181C73.4862 70.5233 73.8295 70.483 74.1627 70.3982L74.2412 71.6998C73.7402 71.8736 73.2108 71.9549 72.6797 71.9396C72.3258 71.9614 71.9713 71.9068 71.6413 71.7796C71.3112 71.6523 71.0135 71.4556 70.7693 71.2031C70.2284 70.4904 69.9823 69.6033 70.0802 68.7197V63.5131H68.5798V62.1943H70.0802V59.454L71.8161 59.4454Z" fill="white"/>
<path d="M77.4427 57.724H79.1874V71.7426H77.4427V57.724Z" fill="white"/>
<path d="M84.0114 59.5054C84.0181 59.6503 83.9933 59.795 83.9385 59.9297C83.8837 60.0644 83.8003 60.1861 83.6938 60.2866C83.5873 60.3871 83.4601 60.4642 83.3208 60.5126C83.1815 60.561 83.0333 60.5796 82.8861 60.5673C82.7442 60.5697 82.6032 60.5437 82.4719 60.491C82.3405 60.4383 82.2214 60.3598 82.1218 60.2605C82.0223 60.1612 81.9444 60.043 81.8928 59.9132C81.8412 59.7834 81.8171 59.6447 81.8218 59.5054C81.8182 59.3616 81.8444 59.2186 81.8988 59.0851C81.9533 58.9515 82.0347 58.8302 82.1383 58.7285C82.2419 58.6268 82.3655 58.5469 82.5015 58.4934C82.6376 58.44 82.7832 58.4143 82.9297 58.4178C83.0754 58.4128 83.2205 58.4377 83.3558 58.4909C83.4911 58.5442 83.6136 58.6245 83.7154 58.7269C83.8172 58.8293 83.8962 58.9514 83.9471 59.0855C83.9981 59.2195 84.02 59.3626 84.0114 59.5054ZM82.0486 71.7427V62.1944H83.7933V71.7427H82.0486Z" fill="white"/>
<path d="M94.1218 71.3829C93.2453 71.7708 92.2914 71.961 91.3303 71.9396C88.3905 71.9396 86.4888 69.9871 86.4888 67.0583C86.457 66.3784 86.5712 65.6996 86.8239 65.0658C87.0767 64.432 87.4623 63.8574 87.9559 63.3794C88.4494 62.9013 89.0398 62.5305 89.6888 62.2909C90.3377 62.0514 91.0307 61.9484 91.7228 61.9887C92.5669 61.9783 93.4032 62.1478 94.1741 62.4854L93.7728 63.8299C93.1413 63.5063 92.4347 63.3499 91.7228 63.376C89.4897 63.376 88.2858 64.986 88.2858 66.9813C88.2429 67.439 88.2986 67.9005 88.4495 68.3356C88.6004 68.7708 88.843 69.1698 89.1616 69.5068C89.4801 69.8437 89.8674 70.1109 90.2982 70.2911C90.729 70.4712 91.1936 70.5602 91.6618 70.5523C92.4123 70.554 93.1539 70.3932 93.8339 70.0813L94.1218 71.3829Z" fill="white"/>
<path d="M96.7388 57.724H98.4835V63.7185C98.7854 63.2084 99.2225 62.7881 99.7484 62.5025C100.298 62.183 100.924 62.0117 101.563 62.0058C102.871 62.0058 104.956 62.7937 104.956 66.0906V71.7768H103.212V66.2533C103.212 64.7119 102.636 63.4102 100.961 63.4102C100.433 63.4194 99.9219 63.589 99.4968 63.8958C99.0718 64.2026 98.7543 64.6314 98.5882 65.1229C98.4936 65.3983 98.455 65.6893 98.4747 65.9793V71.7426H96.7301L96.7388 57.724Z" fill="white"/>
<path d="M109.135 67.281C109.098 67.7196 109.157 68.1609 109.309 68.5749C109.461 68.9889 109.702 69.3659 110.016 69.6803C110.329 69.9948 110.708 70.2392 111.127 70.397C111.545 70.5549 111.993 70.6224 112.441 70.5951C113.366 70.6257 114.286 70.4561 115.136 70.0984L115.433 71.3487C114.409 71.768 113.306 71.9694 112.197 71.9396C109.204 71.9396 107.416 70.0042 107.416 67.1183C107.416 64.2324 109.161 61.9802 111.979 61.9802C115.154 61.9802 116 64.7205 116 66.476C115.997 66.7624 115.977 67.0484 115.939 67.3324L109.135 67.281ZM114.369 66.0393C114.369 64.9346 113.906 63.2133 111.917 63.2133C110.173 63.2133 109.344 64.8318 109.204 66.0393H114.369Z" fill="white"/>
<path d="M52.3543 56.1228C52.3543 56.418 52.2348 56.7012 52.0221 56.91C51.8095 57.1187 51.521 57.236 51.2202 57.236C50.9195 57.236 50.631 57.1187 50.4184 56.91C50.2057 56.7012 50.0862 56.418 50.0862 56.1228C50.0826 55.9745 50.1097 55.827 50.1659 55.6893C50.2221 55.5516 50.3061 55.4266 50.4129 55.3217C50.5198 55.2168 50.6472 55.1343 50.7875 55.0792C50.9277 55.024 51.0779 54.9974 51.229 55.0009C51.3799 54.9947 51.5306 55.0196 51.6711 55.074C51.8117 55.1284 51.9391 55.2111 52.0451 55.3168C52.1511 55.4225 52.2334 55.5488 52.2867 55.6876C52.3399 55.8264 52.3629 55.9747 52.3543 56.1228Z" fill="white"/>
<path d="M56.7683 56.1228C56.7683 56.418 56.6488 56.7012 56.4362 56.91C56.2235 57.1187 55.935 57.236 55.6343 57.236C55.3335 57.236 55.0451 57.1187 54.8324 56.91C54.6197 56.7012 54.5002 56.418 54.5002 56.1228C54.4954 55.9742 54.5216 55.8261 54.5774 55.6879C54.6331 55.5496 54.7171 55.4241 54.8242 55.3189C54.9313 55.2138 55.0592 55.1313 55.2 55.0766C55.3409 55.0219 55.4916 54.9962 55.643 55.0009C55.794 54.9947 55.9446 55.0196 56.0852 55.074C56.2257 55.1284 56.3531 55.2111 56.4591 55.3168C56.5652 55.4225 56.6474 55.5488 56.7007 55.6876C56.7539 55.8264 56.777 55.9747 56.7683 56.1228Z" fill="white"/>
</svg>
