<svg width="128" height="129" viewBox="0 0 128 129" fill="none" xmlns="http://www.w3.org/2000/svg">
<rect width="128" height="128" transform="translate(0 0.69458)" fill="#221F20"/>
<path d="M87.857 67.3221C88.0219 67.1578 88.1344 66.9483 88.1801 66.72C88.2258 66.4918 88.2027 66.2551 88.1139 66.04C88.025 65.8249 87.8743 65.641 87.6808 65.5116C87.4873 65.3822 87.2598 65.3131 87.027 65.3131C86.7943 65.3131 86.5667 65.3822 86.3733 65.5116C86.1798 65.641 86.0291 65.8249 85.9402 66.04C85.8513 66.2551 85.8283 66.4918 85.874 66.72C85.9197 66.9483 86.0321 67.1578 86.197 67.3221C86.4174 67.5417 86.7159 67.665 87.027 67.665C87.3382 67.665 87.6366 67.5417 87.857 67.3221Z" fill="#00A0DC"/>
<path d="M59.4344 61.3964C60.349 62.2418 60.8063 63.5033 60.8063 65.181V72.7041H58.671V71.0578C58.2777 71.6519 57.7156 72.1147 57.057 72.3866C56.3606 72.6924 55.5341 72.8452 54.5777 72.8452C53.1822 72.8452 52.0654 72.5081 51.2272 71.8339C50.389 71.1597 49.9699 70.2742 49.9699 69.1773C49.9699 68.0804 50.3694 67.1984 51.1684 66.5314C51.9674 65.8644 53.2378 65.5318 54.9795 65.5338H58.5534V65.0869C58.5534 64.1161 58.2712 63.3717 57.7067 62.8536C57.1422 62.3355 56.3116 62.0771 55.2147 62.0784C54.4785 62.0785 53.7476 62.2014 53.0519 62.442C52.4013 62.6562 51.7957 62.9884 51.2654 63.422L50.3247 61.7296C51.0098 61.1903 51.7918 60.7871 52.6286 60.5419C53.5501 60.264 54.5079 60.1253 55.4704 60.1303C57.1945 60.1303 58.5148 60.5549 59.4314 61.4042M57.1863 70.5374C57.8093 70.1584 58.289 69.5836 58.5504 68.9029V67.1556H55.0736C53.162 67.1556 52.2062 67.7981 52.2062 69.0832C52.1958 69.3711 52.2568 69.6571 52.3839 69.9156C52.5109 70.1742 52.7 70.3972 52.9343 70.5649C53.4204 70.9255 54.0942 71.1055 54.956 71.1048C55.8177 71.1042 56.5621 70.9124 57.1893 70.5296" fill="white"/>
<path d="M40.923 61.3974C41.8376 62.2467 42.2949 63.5082 42.2949 65.182V72.7051H40.1586V71.0598C39.7662 71.6529 39.2055 72.1153 38.5485 72.3876C37.8508 72.6933 37.024 72.8462 36.0683 72.8462C34.6728 72.8462 33.5563 72.5091 32.7188 71.8349C31.8812 71.1607 31.4618 70.2771 31.4605 69.1841C31.4605 68.0866 31.8603 67.2046 32.66 66.5382C33.4596 65.8719 34.729 65.5387 36.4681 65.5387H40.041V65.0889C40.041 64.1168 39.7591 63.3723 39.1953 62.8556C38.6315 62.3388 37.8008 62.0801 36.7033 62.0794C35.967 62.0793 35.236 62.2025 34.5405 62.444C33.8899 62.6581 33.2843 62.9903 32.754 63.4239L31.8133 61.7266C32.4983 61.1875 33.2804 60.7846 34.1172 60.5399C35.0386 60.2616 35.9965 60.1228 36.959 60.1283C38.6825 60.1283 40.0028 60.5513 40.92 61.3974M38.6749 70.5306C39.2971 70.1513 39.7763 69.577 40.0381 68.897V67.1576H36.5592C34.647 67.1576 33.6909 67.8001 33.6909 69.0851C33.6806 69.373 33.7419 69.6589 33.8691 69.9172C33.9963 70.1756 34.1856 70.3985 34.42 70.5659C34.9047 70.9265 35.5786 71.1068 36.4416 71.1068C37.3046 71.1068 38.0491 70.9147 38.6749 70.5306Z" fill="white"/>
<path d="M78.1398 61.3964C79.0544 62.2418 79.5117 63.5033 79.5117 65.181V72.7041H77.3754V71.0578C76.9835 71.6516 76.4227 72.1145 75.7654 72.3866C75.0676 72.6924 74.2409 72.8452 73.2851 72.8452C71.8903 72.8452 70.7738 72.5081 69.9356 71.8339C69.0974 71.1597 68.678 70.2742 68.6773 69.1773C68.6773 68.0804 69.0772 67.1984 69.8768 66.5314C70.6764 65.8644 71.9458 65.5315 73.6849 65.5328H77.2578V65.0869C77.2578 64.1161 76.9759 63.3717 76.4121 62.8536C75.8483 62.3355 75.0177 62.0771 73.9201 62.0784C73.1837 62.0784 72.4524 62.2013 71.7564 62.442C71.1056 62.6558 70.4999 62.988 69.9699 63.422L69.0291 61.7296C69.7143 61.1903 70.4963 60.7871 71.333 60.5419C72.2545 60.264 73.2124 60.1253 74.1749 60.1303C75.8983 60.1303 77.2186 60.5549 78.1359 61.4042M75.8908 70.5374C76.5135 70.1583 76.9928 69.5835 77.2539 68.9029V67.1556H73.7751C71.8635 67.1556 70.9074 67.7981 70.9067 69.0832C70.8965 69.3712 70.9577 69.6572 71.0849 69.9157C71.2122 70.1743 71.4014 70.3973 71.6358 70.5649C72.1212 70.9255 72.7951 71.1055 73.6575 71.1048C74.5198 71.1042 75.2643 70.9124 75.8908 70.5296" fill="white"/>
<path d="M29.9817 56.5427V72.7051H27.819V70.7305C27.3295 71.4097 26.6739 71.952 25.9149 72.3053C25.1192 72.6718 24.2519 72.8566 23.3758 72.8462C22.1685 72.8462 21.087 72.5797 20.1312 72.0466C19.1859 71.5252 18.4075 70.7468 17.8861 69.8015C17.3452 68.8372 17.0747 67.7282 17.0747 66.4745C17.0747 65.2208 17.3452 64.1158 17.8861 63.1593C18.4108 62.2195 19.1887 61.4458 20.1312 60.926C21.0863 60.3929 22.1679 60.1264 23.3758 60.1264C24.2253 60.1174 25.0669 60.2898 25.8443 60.632C26.5882 60.963 27.2354 61.478 27.7249 62.1284V56.5427H29.9817ZM25.7032 70.3189C26.3417 69.9546 26.8634 69.4163 27.2075 68.7667C27.5779 68.0604 27.764 67.2719 27.7484 66.4745C27.7631 65.6785 27.5771 64.8915 27.2075 64.1863C26.8656 63.5372 26.3432 63.0008 25.7032 62.6419C25.049 62.2795 24.3118 62.0934 23.564 62.102C22.8104 62.0895 22.0668 62.2757 21.4081 62.6419C20.7733 63.0062 20.2535 63.5413 19.9078 64.1863C19.53 64.8903 19.3397 65.6797 19.3551 66.4785C19.3395 67.2773 19.5298 68.0666 19.9078 68.7706C20.2567 69.4166 20.7772 69.9538 21.412 70.3228C22.0681 70.6969 22.8127 70.8878 23.5679 70.8755C24.3164 70.8824 25.0533 70.6903 25.7032 70.3189Z" fill="white"/>
<path d="M110.882 67.2242H100.774C100.914 68.3218 101.396 69.2037 102.219 69.8701C103.043 70.5365 104.066 70.8693 105.287 70.8687C106.776 70.8687 107.975 70.3673 108.884 69.3644L110.13 70.8216C109.559 71.4848 108.837 72.001 108.026 72.3268C107.132 72.682 106.178 72.8578 105.217 72.8443C103.9 72.8443 102.732 72.5738 101.714 72.0329C100.724 71.5202 99.9034 70.7324 99.351 69.7643C98.7944 68.7928 98.5164 67.6959 98.5171 66.4736C98.5004 65.3328 98.7796 64.2071 99.3275 63.2064C99.8464 62.2571 100.62 61.4715 101.561 60.9378C102.54 60.3888 103.648 60.1088 104.77 60.1264C105.961 60.1264 107.023 60.3968 107.955 60.9378C108.882 61.4735 109.64 62.2598 110.141 63.2064C110.664 64.1785 110.925 65.2911 110.925 66.5441C110.923 66.7714 110.908 66.9984 110.882 67.2242ZM102.055 63.0182C101.324 63.6768 100.897 64.5388 100.774 65.6043H108.766C108.641 64.5551 108.214 63.697 107.485 63.03C106.756 62.363 105.851 62.0298 104.77 62.0304C103.688 62.0304 102.783 62.3597 102.055 63.0182Z" fill="white"/>
<path d="M48.6078 70.8696C48.4842 70.8847 48.3599 70.8922 48.2354 70.8922C47.6063 70.8922 47.1225 70.7099 46.7841 70.3454C46.4457 69.9808 46.2768 69.4582 46.2775 68.7774V62.1823H48.4647V60.2312H46.2775V56.5427H44.0118V68.8725C44.0118 70.1399 44.3577 71.1143 45.0496 71.7957C45.7414 72.4771 46.7168 72.8175 47.9757 72.8168C48.2304 72.8163 48.4848 72.7986 48.7371 72.7639V70.8559L48.6078 70.8696Z" fill="white"/>
<path d="M80.7876 60.2665L84.8535 65.4701C85.0132 65.1309 85.2502 64.8338 85.5455 64.6027C85.8408 64.3716 86.1861 64.2129 86.5537 64.1393L83.5325 60.2665H80.7876Z" fill="white"/>
<path d="M90.5216 60.2665L87.4984 64.1393C87.9626 64.2312 88.389 64.4591 88.7234 64.7939C88.92 64.9915 89.0811 65.2216 89.1996 65.474L93.2654 60.2665H90.5216Z" fill="white"/>
<path d="M83.5394 72.7041L86.5537 68.8431C86.1854 68.7692 85.8396 68.6099 85.5439 68.3781C85.2483 68.1463 85.0112 67.8484 84.8515 67.5084L80.7935 72.7022L83.5394 72.7041Z" fill="white"/>
<path d="M93.2586 72.7041L89.2006 67.5104C89.0406 67.8501 88.8034 68.1476 88.5078 68.3792C88.2122 68.6108 87.8665 68.77 87.4984 68.8441L90.5147 72.7051L93.2586 72.7041Z" fill="white"/>
<path d="M97.0177 56.5427H94.7609V72.7041H97.0177V56.5427Z" fill="white"/>
</svg>
