<svg width="128" height="129" viewBox="0 0 128 129" fill="none" xmlns="http://www.w3.org/2000/svg">
<rect width="128" height="128" transform="translate(0 0.972656)" fill="#397BBA"/>
<path d="M82.2329 40.1532C81.1636 39.3816 80.0563 38.6743 78.9061 38.0242C77.8083 37.4051 76.6724 36.8621 75.5055 36.3906C74.3648 35.9286 73.2003 35.5309 72.0072 35.2094C71.238 35.0023 70.4617 34.8213 69.683 34.6617C69.1924 34.5617 68.69 34.4807 68.1875 34.4212C67.5541 34.3474 66.9158 34.3045 66.2872 34.214C65.4251 34.0878 64.5702 34.2021 63.9058 34.1378C63.1509 34.1378 62.5817 34.1164 62.015 34.1426C61.3625 34.1735 60.71 34.2378 60.0575 34.3117C59.705 34.3521 59.3502 34.4045 58.9978 34.4474C58.5215 34.5022 58.05 34.6046 57.5785 34.7022C57.0831 34.8022 56.5878 34.9118 56.0972 35.0308C55.2399 35.2404 54.3993 35.5023 53.5611 35.7762C52.4418 36.1406 51.3607 36.6002 50.2962 37.0907C49.4651 37.4741 48.6602 37.9194 47.8696 38.3838C46.8861 38.9601 45.9311 39.5864 45.0191 40.2651C44.3618 40.7557 43.7331 41.2915 43.1044 41.8225C42.2995 42.5036 41.5803 43.268 40.8445 44.0182C40.2563 44.6159 39.7157 45.2589 39.1966 45.9233C38.6846 46.5781 38.1869 47.2449 37.7154 47.9284C36.9009 49.1096 36.2056 50.3645 35.565 51.6457C35.1673 52.4411 34.822 53.2627 34.5005 54.0938C34.3219 54.551 34.1576 55.013 34.0004 55.4774C33.7837 56.1108 33.6075 56.7609 33.4265 57.4087C33.2931 57.8873 33.1764 58.3707 33.0598 58.8518C33.005 59.078 32.9812 59.309 32.9335 59.5352C32.8169 60.1091 32.7216 60.6902 32.643 61.2713C32.6025 61.5737 32.5549 61.8809 32.5382 62.1833C32.4858 63.0787 32.3692 63.9717 32.4192 64.8719C32.4358 65.1767 32.4073 65.191 32.0905 65.191C30.7641 65.191 29.4353 65.191 28.1089 65.191C28.0089 65.191 27.9088 65.1815 27.8112 65.1601C27.7183 65.141 27.6516 65.0672 27.685 64.9767C27.7921 64.6838 27.7612 64.3837 27.754 64.0861C27.7302 63.3097 27.8255 62.5382 27.8803 61.7666C27.9065 61.3903 27.9565 61.0117 28.0422 60.6378C28.1089 60.3497 28.1112 60.0472 28.1541 59.7496C28.2708 58.9685 28.4184 58.1969 28.5899 57.4277C28.7566 56.6823 28.9519 55.9441 29.1614 55.2083C29.5496 53.8437 30.0449 52.5197 30.5903 51.2123C31.0213 50.1812 31.5095 49.1739 32.0501 48.1951C32.4644 47.445 32.9097 46.7115 33.3717 45.9852C33.9337 45.1041 34.5315 44.2539 35.1697 43.43C36.0055 42.3464 36.8985 41.3129 37.8511 40.327C38.8156 39.3292 39.83 38.391 40.8969 37.5099C41.5899 36.9383 42.3186 36.4073 43.0544 35.8857C43.8998 35.2856 44.7738 34.7403 45.6644 34.214C47.0456 33.3996 48.4816 32.6923 49.9652 32.0898C51.1582 31.6064 52.3728 31.173 53.6135 30.8158C54.466 30.5705 55.328 30.3609 56.1901 30.1585C56.6211 30.0561 57.0712 29.999 57.507 29.9132C58.0523 29.8061 58.6048 29.7608 59.1478 29.6537C59.455 29.5918 59.7741 29.5632 60.0837 29.5465C61.0719 29.4917 62.0578 29.3679 63.0509 29.4274C63.2104 29.437 63.3652 29.4251 63.5176 29.3631C63.5986 29.3298 63.7057 29.3179 63.7867 29.3393C64.4106 29.5132 65.0488 29.3798 65.6775 29.4346C66.3372 29.4894 66.9968 29.5346 67.6564 29.606C68.0589 29.6513 68.459 29.7537 68.8686 29.7299C69.0924 29.718 69.2948 29.8061 69.5044 29.8466C69.9664 29.9323 70.4355 29.9871 70.8927 30.1014C71.4143 30.2324 71.9477 30.3157 72.4692 30.4419C72.9765 30.5657 73.4765 30.7182 73.979 30.8587C75.2364 31.2135 76.4557 31.6826 77.6654 32.1708C78.6084 32.5518 79.5157 33.0138 80.4183 33.4853C81.347 33.9711 82.2495 34.5069 83.1378 35.0642C83.8498 35.5119 84.5238 36.012 85.212 36.4906C85.5787 36.7454 85.9216 37.0383 86.2646 37.3265C86.2646 37.3265 88.8841 38.9839 90.632 41.4915C91.344 42.2274 91.9608 43.0442 92.5776 43.8562C93.2206 44.704 93.8088 45.5923 94.3732 46.4948C95.1757 47.776 95.8639 49.1191 96.5045 50.4836C97.1522 51.8696 97.6952 53.3008 98.131 54.7701C98.3905 55.6441 98.6263 56.5252 98.8287 57.4134C98.9621 57.9992 99.0669 58.597 99.1764 59.1899C99.2812 59.7519 99.3502 60.3187 99.4312 60.8807C99.4884 61.2856 99.5241 61.7071 99.5765 62.1119C99.7003 63.0573 99.6003 64.0075 99.7027 64.9505C99.717 65.0839 99.6527 65.1386 99.5503 65.1672C99.4717 65.1886 99.386 65.1863 99.3026 65.1863C97.9833 65.1863 96.664 65.1863 95.3448 65.1863C95.0185 65.1863 95.009 65.1744 95.0066 64.8481C95.0066 64.6719 95.0042 64.498 95.0066 64.3218C95.0185 63.4883 94.9066 62.6668 94.828 61.838C94.7923 61.4665 94.7351 61.0974 94.6899 60.7283C94.6351 60.2711 94.5446 59.8139 94.4446 59.3614C94.366 59.0066 94.297 58.647 94.2184 58.2922C94.066 57.6016 93.8731 56.9252 93.673 56.2466C93.3515 55.1511 92.9396 54.089 92.4942 53.0412C92.0013 51.8815 91.4274 50.7646 90.7916 49.6739C90.27 48.7785 89.7128 47.9117 89.1151 47.0687C88.7198 46.5139 88.2792 45.9876 87.8529 45.4565C87.5886 45.1255 87.3028 44.8112 87.0385 44.4802C87.0385 44.4802 84.0475 40.9128 82.2424 40.146L82.2329 40.1532Z" fill="#CFE5F2"/>
<path d="M36.0175 84.4326C36.7771 84.4326 37.5392 84.4683 38.2964 84.4207C38.7775 84.3897 39.0537 84.6279 39.2871 84.9589C39.4562 85.197 39.6372 85.4256 39.8253 85.6447C40.6754 86.6401 41.578 87.5927 42.5472 88.4714C43.2354 89.0953 43.9498 89.6955 44.6928 90.2575C46.1502 91.3577 47.6791 92.3388 49.3032 93.1746C50.6606 93.8724 52.0465 94.4892 53.492 94.9774C54.5065 95.3203 55.5257 95.6322 56.5712 95.8656C57.2498 96.018 57.9238 96.1752 58.6144 96.2704C59.4431 96.3848 60.2694 96.4895 61.1029 96.5729C62.6865 96.7348 64.2678 96.6015 65.849 96.6515C66.3158 96.4633 66.8182 96.5919 67.3016 96.4848C67.6327 96.4109 67.9899 96.3895 68.3328 96.3466C68.8091 96.2871 69.2806 96.1966 69.7497 96.1061C70.1569 96.0299 70.5618 95.9442 70.9618 95.8466C71.381 95.7465 71.8001 95.637 72.2144 95.5203C73.5123 95.1536 74.7792 94.6964 76.0175 94.1629C77.151 93.6771 78.2608 93.1342 79.3252 92.5102C80.4492 91.853 81.5447 91.1505 82.5734 90.3503C83.2307 89.8383 83.8808 89.3192 84.5024 88.7643C85.3096 88.0404 86.0931 87.295 86.8266 86.4949C87.3672 85.9043 87.8744 85.2875 88.3673 84.6588C88.4983 84.4921 88.6483 84.4278 88.8579 84.4278C90.5439 84.435 92.2299 84.4302 93.916 84.4326C94.0017 84.4326 94.1231 84.3874 94.1684 84.4826C94.2065 84.566 94.1303 84.6541 94.0779 84.7303C93.5873 85.4542 93.123 86.1972 92.5943 86.8926C92.1275 87.507 91.6417 88.1095 91.1393 88.6977C90.2963 89.6859 89.4128 90.6337 88.4745 91.5315C87.8387 92.1411 87.1647 92.7127 86.4741 93.2628C86.005 93.6366 85.543 94.0153 85.062 94.3701C84.4 94.8607 83.7189 95.3274 83.0283 95.7751C82.19 96.3181 81.3256 96.8182 80.4421 97.2825C79.0609 98.0065 77.6392 98.6471 76.1747 99.1805C75.2531 99.5163 74.3172 99.8068 73.3742 100.083C72.4954 100.34 71.6072 100.54 70.7165 100.728C70.2331 100.831 69.7354 100.888 69.2472 100.974C68.6352 101.083 68.0113 101.098 67.4064 101.243C67.3898 101.248 67.3731 101.25 67.3564 101.25C66.7801 101.198 66.2157 101.371 65.6418 101.357C65.0989 101.343 64.5583 101.393 64.0177 101.402C63.1247 101.419 62.2293 101.393 61.3434 101.328C60.8219 101.29 60.2885 101.286 59.7598 101.186C59.3859 101.117 58.9883 101.086 58.6025 101.045C58.1024 100.993 57.607 100.874 57.1093 100.793C56.7236 100.731 56.3449 100.647 55.9639 100.566C55.2328 100.409 54.5089 100.231 53.7921 100.026C52.63 99.6949 51.4893 99.3019 50.3677 98.8542C48.6697 98.1732 47.0337 97.3706 45.4572 96.4371C44.438 95.8323 43.4545 95.1774 42.4877 94.4987C41.7661 93.9915 41.0922 93.4175 40.4135 92.8555C39.3085 91.9363 38.2798 90.9385 37.3034 89.8883C36.658 89.193 36.046 88.4667 35.4483 87.7284C34.672 86.7664 33.9933 85.7376 33.3003 84.7184C33.2551 84.6517 33.1812 84.5779 33.2289 84.4921C33.2765 84.4064 33.3789 84.4397 33.4599 84.4397C34.3124 84.4397 35.1625 84.4397 36.0151 84.4397L36.0175 84.4326Z" fill="#CFE5F2"/>
<path d="M86.6 44.4276C85.9308 44.992 85.2592 45.554 84.5806 46.1041C83.1279 47.2829 81.7896 48.5831 80.4441 49.8809C80.1369 50.1762 79.8273 50.4668 79.5249 50.7644C78.2937 51.9766 77.0506 53.1768 75.8409 54.4079C74.5907 55.682 73.3786 56.9894 72.2212 58.3515C71.4211 59.2922 70.64 60.2471 69.8875 61.2235C68.9968 62.3784 68.1586 63.5691 67.3584 64.7908C66.925 65.4528 66.4511 66.091 65.9058 66.6649C65.1676 67.4436 64.2579 67.8675 63.1672 67.6913C62.448 67.5746 61.8979 67.1388 61.4478 66.5744C60.7811 65.7386 60.3 64.7812 59.6975 63.9049C59.2403 63.2429 58.7616 62.5928 58.2377 61.9784C57.6329 61.2663 57.0256 60.5567 56.3445 59.9185C55.4682 59.0993 54.5585 58.3229 53.5821 57.6204C52.22 56.6417 50.8054 55.7558 49.2837 55.0509C48.2598 54.577 47.1977 54.1984 46.1165 53.8602C44.8734 53.4721 43.6303 53.0648 42.5135 52.3623C41.8896 51.9694 41.4681 51.0026 41.6657 50.312C41.7919 49.869 42.142 49.6285 42.5397 49.4809C43.0374 49.2951 43.5518 49.1594 44.0947 49.1546C44.4519 49.1522 44.802 49.0475 45.164 49.0689C46.0022 49.1189 46.8452 49.1475 47.6739 49.2832C48.9527 49.4928 50.1958 49.8405 51.4103 50.3144C52.9011 50.8978 54.2989 51.6479 55.6468 52.5005C57.0399 53.3816 58.3092 54.4246 59.507 55.5558C60.6953 56.6822 61.8336 57.8562 62.9552 59.0469C63.0815 59.1802 63.1624 59.1636 63.2767 59.0397C64.2055 58.0348 65.1485 57.0465 66.0653 56.032C67.0107 54.9866 67.9466 53.9364 68.9039 52.9005C70.1446 51.5574 71.4639 50.2929 72.7356 48.9808C73.8072 47.8711 74.8955 46.7756 76.0219 45.7207C76.8935 44.9062 77.7674 44.0966 78.67 43.3155C79.4201 42.6654 80.1631 42.0105 80.937 41.3889C81.3586 41.0508 81.8015 40.7341 82.2397 40.4197L86.8429 37.3882C88.1145 36.5928 89.4076 35.8308 90.715 35.095C92.0819 34.3258 93.4607 33.5852 94.8681 32.8969C96.7613 31.9682 98.7069 31.1585 100.679 30.4155C101.348 30.1631 102.017 29.9083 102.7 29.6892C103.746 29.3534 104.818 29.2487 105.903 29.3463C106.251 29.3773 106.613 29.4392 106.937 29.6083C107.544 29.9226 107.604 30.5751 107.047 30.9728C106.327 31.4872 105.549 31.9087 104.779 32.3397C102.772 33.4589 100.731 34.5139 98.7569 35.6927C97.1304 36.6619 95.5373 37.6835 93.9823 38.7599C92.8582 39.5386 91.7461 40.334 90.6602 41.1651L86.6047 44.4347L86.6 44.4276Z" fill="#FA7412"/>
<path d="M15.792 69.001C15.8063 68.9915 15.8301 68.9867 15.8325 68.9748C16.104 68.208 16.7826 68.1366 17.4256 68.1128C18.5091 68.0699 19.5974 68.0628 20.681 68.1152C21.6311 68.1628 22.5932 68.2342 23.491 68.6105C24.365 68.9772 25.0818 69.5392 25.6438 70.3036C26.0796 70.8942 26.4106 71.5372 26.6035 72.2421C26.8916 73.2923 27.0297 74.3544 26.894 75.4546C26.7702 76.45 26.5463 77.4049 26.0534 78.2813C25.3413 79.5434 24.334 80.4459 22.9099 80.8412C22.2336 81.0294 21.5502 81.1008 20.8524 81.1461C19.7879 81.2151 18.7235 81.2318 17.6566 81.2127C17.2732 81.2056 16.8827 81.158 16.5088 81.0294C16.2135 80.927 16.0087 80.7388 15.9015 80.4459C15.873 80.3674 15.8539 80.2864 15.792 80.2245C15.792 76.4857 15.792 72.7446 15.792 69.0058V69.001ZM18.8044 74.6639C18.8044 75.907 18.8092 77.1501 18.7997 78.3932C18.7997 78.6337 18.8806 78.7194 19.1188 78.7099C19.8237 78.6766 20.5309 78.748 21.2382 78.6242C21.8074 78.5242 22.3217 78.3456 22.7242 77.9312C23.2338 77.4049 23.4505 76.7334 23.6005 76.0332C23.7244 75.4498 23.7029 74.8592 23.7077 74.2686C23.7125 73.5518 23.5696 72.866 23.2791 72.2111C22.8814 71.3157 22.155 70.8418 21.2168 70.7251C20.5524 70.6418 19.8784 70.5751 19.2021 70.6132C18.8235 70.6347 18.8068 70.6299 18.8068 71.0085C18.8068 72.2278 18.8068 73.4447 18.8068 74.6639H18.8044Z" fill="#FA7412"/>
<path d="M46.2546 76.8882C46.2546 77.8169 46.2641 78.5266 46.2498 79.2362C46.2427 79.6268 46.2141 80.0197 46.1022 80.3983C45.9141 81.0365 45.3473 81.3557 44.7734 81.3152C44.2733 81.2794 43.8708 81.0342 43.6756 80.5388C43.5946 80.334 43.5136 80.3245 43.335 80.465C42.723 80.9437 42.0419 81.2318 41.2561 81.3557C40.2249 81.52 39.2891 81.3437 38.4246 80.796C37.8793 80.4507 37.5054 79.9483 37.3435 79.3172C37.1029 78.3718 37.141 77.4549 37.7197 76.6191C38.0222 76.1809 38.4675 75.9333 38.9342 75.7308C39.6177 75.4379 40.3488 75.3212 41.0799 75.195C41.6657 75.0926 42.2634 75.0212 42.8325 74.8402C43.1874 74.7283 43.3541 74.5163 43.335 74.2687C43.3136 73.9781 43.035 73.6948 42.7206 73.6185C42.3444 73.5257 41.9657 73.4876 41.5823 73.5185C41.1037 73.559 40.6631 73.6638 40.3392 74.0877C40.044 74.4735 39.651 74.7402 39.1224 74.714C38.508 74.683 37.9507 74.1496 37.9722 73.5447C37.9936 72.9851 38.2579 72.5279 38.727 72.2016C39.2819 71.8135 39.9011 71.5991 40.5679 71.4801C41.4085 71.33 42.2515 71.3586 43.085 71.4229C43.9875 71.492 44.821 71.8135 45.4544 72.516C45.8998 73.0113 46.1284 73.5995 46.1951 74.2568C46.2927 75.2045 46.2308 76.1571 46.2498 76.8882H46.2546ZM43.4422 77.4168C43.4422 77.1859 43.4422 77.0025 43.4422 76.8191C43.4422 76.6643 43.3946 76.6119 43.2255 76.6762C42.7682 76.8525 42.2777 76.9072 41.8014 77.012C41.3632 77.1097 40.9274 77.2049 40.5298 77.424C40.1845 77.6145 40.0273 77.9812 40.0892 78.4575C40.1321 78.7814 40.3964 79.0052 40.7512 79.1219C41.1703 79.26 41.5752 79.2124 41.9776 79.1029C42.4825 78.9671 42.8826 78.6647 43.2398 78.2884C43.5065 78.0098 43.4184 77.6836 43.4374 77.4145L43.4422 77.4168Z" fill="#FA7412"/>
<path d="M33.3475 77.2216C32.5378 77.2216 31.7282 77.2216 30.9185 77.2216C30.4422 77.2216 30.4541 77.2192 30.5494 77.6812C30.6827 78.329 31.0566 78.7767 31.652 79.041C32.3473 79.3506 33.2189 79.2553 33.7928 78.7124C34.1238 78.4004 34.4739 78.0742 34.9859 78.117C35.505 78.1623 35.867 78.4457 36.0718 78.9195C36.2742 79.3863 36.2123 79.8173 35.8575 80.1912C35.3312 80.7461 34.6811 81.0628 33.9428 81.2438C33.2808 81.4057 32.614 81.4748 31.9425 81.4224C30.6851 81.3247 29.5492 80.9199 28.6967 79.9435C28.2228 79.4006 27.9037 78.7671 27.6965 78.0646C27.4655 77.2859 27.4441 76.4929 27.5274 75.7142C27.7227 73.8758 28.7991 72.216 30.8328 71.5897C31.6401 71.3396 32.4664 71.3015 33.2784 71.4206C35.1216 71.6897 36.3528 72.8875 36.7815 74.845C36.8815 75.2998 36.8791 75.7547 36.8767 76.2143C36.8719 76.8144 36.4671 77.2192 35.8741 77.2216C35.0311 77.224 34.1881 77.2216 33.3451 77.2216H33.3475ZM32.3211 75.1117C32.8712 75.1117 33.4213 75.1093 33.9714 75.1117C34.1334 75.1117 34.1786 75.0879 34.1405 74.8998C33.9357 73.9139 33.257 73.5543 32.4759 73.5376C31.5091 73.5162 30.9471 73.8758 30.5541 74.8569C30.466 75.076 30.5446 75.1141 30.7447 75.1117C31.2709 75.1046 31.7948 75.1093 32.3211 75.1093V75.1117Z" fill="#FA7412"/>
<path d="M57.2994 77.2215C56.4731 77.2215 55.6468 77.2215 54.8204 77.2215C54.3751 77.2215 54.3822 77.2215 54.4942 77.6526C54.6561 78.2741 54.9895 78.7528 55.5848 79.0338C56.2373 79.341 57.2518 79.2552 57.7471 78.7099C57.9496 78.4861 58.221 78.3265 58.5068 78.1932C59.0164 77.955 59.6594 78.3003 59.9094 78.6742C60.2476 79.179 60.2023 79.7577 59.8118 80.1911C59.2927 80.765 58.6187 81.0389 57.8948 81.2389C57.2685 81.4104 56.635 81.4699 55.9944 81.4223C55.0133 81.3485 54.0893 81.108 53.2749 80.5031C52.4105 79.8601 51.9342 78.9933 51.6413 77.9812C51.4198 77.2192 51.3793 76.4405 51.4793 75.6784C51.7246 73.8328 52.7724 72.2087 54.799 71.5801C55.6182 71.3252 56.4588 71.3133 57.2732 71.4253C58.7735 71.6325 59.8475 72.4731 60.4548 73.8876C60.7977 74.683 60.8787 75.5093 60.8239 76.3571C60.7953 76.8167 60.369 77.212 59.9023 77.2168C59.0355 77.2215 58.1663 77.2168 57.2994 77.2168V77.2215ZM56.2945 75.1116C56.8351 75.1116 57.378 75.1116 57.9186 75.1116C58.0853 75.1116 58.1782 75.1045 58.1091 74.8711C57.9019 74.1686 57.4757 73.7614 56.7493 73.5757C56.1683 73.428 55.1657 73.6971 54.8157 74.2877C54.7061 74.4734 54.618 74.6735 54.5156 74.864C54.4203 75.0402 54.4561 75.1164 54.6704 75.114C55.211 75.1069 55.7539 75.1116 56.2945 75.1116Z" fill="#FA7412"/>
<path d="M47.3524 74.6449C47.3524 72.8684 47.3524 71.0919 47.3524 69.3154C47.3524 68.7415 47.7025 68.1723 48.2216 68.0413C49.0837 67.8199 50.022 68.108 50.1196 69.1892C50.141 69.4392 50.1625 69.6869 50.1625 69.9369C50.1625 73.0899 50.1625 76.2428 50.1648 79.3958C50.1648 79.6815 50.141 79.9649 50.091 80.2411C49.9886 80.7936 49.6648 81.1342 49.1004 81.2604C48.555 81.3818 48.0716 81.289 47.6834 80.8936C47.4429 80.6507 47.3548 80.3197 47.3548 79.9768C47.3524 78.2003 47.3548 76.4238 47.3548 74.6473L47.3524 74.6449Z" fill="#FA7412"/>
<path d="M64.3602 72.9899C64.5841 72.6184 64.7246 72.2803 65.0032 72.0278C65.6724 71.4206 66.4344 71.2325 67.2917 71.523C67.9895 71.7611 68.2538 72.7327 67.8275 73.3757C67.5751 73.7567 67.2036 73.8996 66.7845 73.9067C66.4058 73.9115 66.032 73.9615 65.6771 74.0568C65.0294 74.2306 64.7627 74.7569 64.6365 75.3713C64.5508 75.7809 64.5317 76.1952 64.5341 76.6144C64.5412 77.6908 64.5412 78.7671 64.5341 79.8435C64.5293 80.4365 64.3055 80.908 63.7363 81.1747C62.9719 81.5343 61.9098 81.1199 61.7288 80.3627C61.7002 80.2484 61.6812 80.1341 61.6812 80.0174C61.6812 77.5717 61.6788 75.126 61.6812 72.6827C61.6812 72.0612 62.2503 71.5349 62.8671 71.4849C63.7363 71.4158 64.3055 71.9588 64.3626 72.9875L64.3602 72.9899Z" fill="#FA7412"/>
<path d="M68.9922 74.7596C68.9922 73.0664 68.9922 71.3708 68.9922 69.6777C68.9922 68.9442 69.4661 68.2608 70.321 68.1703C70.8306 68.1155 71.3355 68.1084 71.8427 68.106C73.2596 68.1012 74.6789 68.056 76.0935 68.2012C77.3437 68.3322 78.4034 68.8156 79.0726 69.9492C79.2702 70.2849 79.3964 70.6493 79.4369 71.0303C79.5417 71.9757 79.4607 72.8973 78.9321 73.726C78.5915 74.2618 78.0914 74.5929 77.5056 74.8048C77.4461 74.8262 77.3556 74.8048 77.3461 74.8929C77.3365 74.981 77.4223 74.9882 77.4842 75.0096C78.2462 75.293 78.5701 75.9145 78.7678 76.648C78.963 77.3743 78.9821 78.1292 79.1631 78.8555C79.2345 79.1461 79.3107 79.4366 79.406 79.72C79.687 80.563 79.0369 81.2512 78.2653 81.3203C77.1198 81.4227 76.5531 80.7368 76.3149 79.82C76.1554 79.208 76.1078 78.5793 76.003 77.9577C75.9458 77.622 75.8506 77.2933 75.6934 76.9885C75.5767 76.7599 75.36 76.6313 75.1314 76.5551C74.9147 76.4837 74.6932 76.4098 74.4527 76.4146C73.7597 76.4241 73.0667 76.4146 72.3738 76.4146C72.0094 76.4146 72.007 76.4146 72.007 76.7718C72.007 77.7148 72.0142 78.6579 72.0023 79.6009C71.9975 79.9486 71.9784 80.3058 71.7975 80.6201C71.4474 81.2298 70.6925 81.4965 70.0209 81.2607C69.3256 81.0154 68.9993 80.5582 68.997 79.8152C68.997 78.1292 68.997 76.4432 68.997 74.7596H68.9922ZM72.0046 72.2782C72.0046 72.7449 72.0118 73.2117 72.0023 73.6784C71.9975 73.907 72.0642 74.0094 72.3142 74.0047C73.0048 73.9927 73.6978 74.0118 74.3884 73.9927C74.6861 73.9856 74.9933 73.9546 75.2743 73.8665C76.1721 73.5855 76.5936 72.9497 76.5007 72.0067C76.4483 71.4804 76.184 71.0613 75.6815 70.8422C75.329 70.6874 74.9385 70.6493 74.5646 70.6279C73.8002 70.5874 73.031 70.6183 72.2642 70.6112C72.0666 70.6112 71.9999 70.6874 72.0023 70.8779C72.0094 71.3447 72.0046 71.8114 72.0023 72.2782H72.0046Z" fill="white"/>
<path d="M89.0339 77.0909C89.0339 77.8077 89.0482 78.5268 89.0291 79.2436C89.0196 79.6413 89.0053 80.039 88.8839 80.4296C88.7172 80.9654 88.3338 81.244 87.8146 81.3131C87.2931 81.3821 86.8454 81.2083 86.5549 80.732C86.3239 80.3557 86.3263 80.3605 85.9595 80.6129C85.4118 80.9892 84.8165 81.2321 84.1544 81.3512C83.7615 81.4226 83.371 81.4559 82.9899 81.4154C81.8278 81.2892 80.8181 80.8606 80.2847 79.7342C79.856 78.8293 79.8894 77.891 80.2918 76.9813C80.58 76.3312 81.1515 75.9811 81.7802 75.724C82.4779 75.4406 83.2162 75.3263 83.952 75.1953C84.545 75.0905 85.1522 75.0357 85.7238 74.8166C85.9452 74.7309 86.1 74.5904 86.1167 74.3475C86.1334 74.0927 86.0095 73.8641 85.7952 73.7665C85.2737 73.5283 84.7236 73.4855 84.1425 73.5521C83.5781 73.6188 83.2471 73.976 82.8899 74.338C82.3732 74.8619 81.6064 74.8476 81.0825 74.3332C80.7395 73.9975 80.6991 73.445 80.8753 73.0044C81.1277 72.3781 81.6611 72.0542 82.2493 71.8042C83.3972 71.3184 84.614 71.3374 85.8143 71.4232C86.5763 71.478 87.3098 71.728 87.9265 72.2328C88.41 72.6282 88.7195 73.1282 88.8743 73.726C89.1053 74.619 89.0101 75.5334 89.0291 76.4384C89.0339 76.6551 89.0291 76.8718 89.0291 77.0885L89.0339 77.0909ZM86.2239 77.4123C86.2239 77.1599 86.2239 76.9837 86.2239 76.8099C86.2239 76.686 86.1977 76.6241 86.0453 76.6813C85.5952 76.8527 85.1165 76.9146 84.6474 77.0099C84.1806 77.1051 83.7282 77.2242 83.3067 77.4481C82.9066 77.66 82.8352 78.0196 82.8685 78.4292C82.8971 78.784 83.1209 78.9817 83.4234 79.1007C83.9282 79.3008 84.4354 79.2532 84.9308 79.0626C85.1237 78.9888 85.3118 78.8936 85.4904 78.7888C86.0429 78.4625 86.3453 78.0053 86.2262 77.4147L86.2239 77.4123Z" fill="white"/>
<path d="M101.253 77.2243C100.384 77.2243 99.5167 77.2314 98.6475 77.2195C98.4094 77.2148 98.3689 77.2981 98.3951 77.5124C98.5118 78.4483 99.35 79.1937 100.291 79.2223C100.886 79.2413 101.381 79.0699 101.796 78.6365C102.036 78.384 102.341 78.2149 102.682 78.1483C103.084 78.0697 103.422 78.2435 103.691 78.5221C104.325 79.1818 104.184 79.9129 103.479 80.482C102.886 80.9583 102.186 81.2012 101.436 81.3441C100.876 81.4512 100.322 81.4536 99.7715 81.4155C98.6785 81.3393 97.6854 80.9964 96.8662 80.2105C96.1352 79.5057 95.7327 78.6531 95.5184 77.6768C95.4279 77.2672 95.3731 76.8433 95.3803 76.4408C95.3874 75.9598 95.4184 75.4621 95.5612 74.9882C95.7375 74.4047 95.947 73.8356 96.3162 73.3403C96.9544 72.4853 97.764 71.89 98.7975 71.5852C99.5334 71.3685 100.284 71.3351 101.024 71.4137C102.136 71.5328 103.098 71.9853 103.803 72.9069C104.525 73.8499 104.825 74.9167 104.806 76.086C104.799 76.5551 104.634 76.9481 104.172 77.1624C104.051 77.2172 103.929 77.2195 103.806 77.2195C102.953 77.2195 102.103 77.2195 101.25 77.2195L101.253 77.2243ZM100.219 75.1192C100.753 75.1192 101.288 75.1168 101.822 75.1192C102.01 75.1192 102.098 75.0382 102.046 74.8596C101.96 74.5619 101.843 74.2571 101.615 74.0523C101.034 73.5379 100.345 73.4474 99.6167 73.6618C99.0309 73.8332 98.7118 74.2857 98.4832 74.8167C98.376 75.0644 98.4046 75.1144 98.6689 75.1168C99.1857 75.1215 99.7049 75.1168 100.222 75.1168L100.219 75.1192Z" fill="white"/>
<path d="M90.5342 76.8313C90.5342 75.7621 90.5318 74.8881 90.5342 74.0118C90.5342 73.8308 90.5128 73.7117 90.2865 73.6998C90.1079 73.6903 89.9246 73.6379 89.7579 73.5712C89.3888 73.4284 89.0792 72.8783 89.1435 72.5187C89.2459 71.9567 89.5888 71.6257 90.0984 71.5971C90.5009 71.5733 90.5318 71.5423 90.5318 71.1327C90.5318 70.7731 90.5056 70.4135 90.5413 70.0563C90.5818 69.6563 90.6199 69.2514 90.9438 68.9347C91.5368 68.3584 93.0251 68.4394 93.2228 69.4848C93.2823 69.7968 93.3204 70.1087 93.3371 70.4231C93.3514 70.7136 93.3419 71.0065 93.3395 71.2994C93.3395 71.459 93.4014 71.5494 93.5728 71.5542C93.7634 71.5614 93.9562 71.5828 94.1468 71.5923C94.6468 71.6185 95.0326 72.0448 95.0422 72.5853C95.0517 73.1283 94.6873 73.5665 94.1896 73.6165C93.9586 73.6403 93.7395 73.7308 93.5014 73.7141C93.4014 73.707 93.3514 73.776 93.3466 73.8737C93.3442 73.9308 93.3418 73.9904 93.3418 74.0499C93.3418 75.4192 93.3418 76.7861 93.3418 78.1554C93.3418 78.3149 93.3514 78.4721 93.3919 78.6269C93.4562 78.8746 93.599 79.0055 93.8681 79.0198C94.1158 79.0341 94.3635 79.0722 94.6064 79.127C95.0469 79.227 95.3065 79.82 95.1612 80.3391C95.0112 80.8773 94.6016 81.1226 94.1063 81.2059C93.7419 81.2679 93.3752 81.3679 92.9942 81.3226C92.4584 81.2607 91.9154 81.2179 91.4439 80.9226C91.0129 80.6511 90.7271 80.2748 90.6271 79.7557C90.4247 78.7198 90.608 77.6767 90.5366 76.8313H90.5342Z" fill="white"/>
<path d="M108.335 72.9687C108.521 72.5877 108.721 72.2877 108.983 72.0233C109.509 71.4851 110.507 71.216 111.271 71.5518C111.681 71.7304 111.921 72.0519 111.933 72.5258C111.943 72.9354 111.924 73.3259 111.576 73.6212C111.397 73.7736 111.195 73.8737 110.974 73.9022C110.671 73.9427 110.364 73.9618 110.059 73.9999C109.297 74.0927 108.821 74.4761 108.614 75.2263C108.483 75.7002 108.499 76.186 108.48 76.667C108.454 77.3838 108.464 78.103 108.48 78.8198C108.49 79.3056 108.449 79.7866 108.409 80.2677C108.371 80.7392 108.047 81.0154 107.635 81.1988C107.066 81.456 106.294 81.2655 105.918 80.8392C105.646 80.5296 105.582 80.1557 105.577 79.7961C105.556 77.5434 105.551 75.2906 105.577 73.0378C105.585 72.3996 105.794 71.809 106.485 71.5685C107.275 71.2922 108.144 71.7685 108.23 72.5258C108.245 72.6568 108.29 72.7854 108.333 72.9735L108.335 72.9687Z" fill="white"/>
<path d="M97.6592 86.8427C96.5995 86.9022 95.616 85.9544 95.6517 84.8923C95.6898 83.7731 96.4852 82.9301 97.714 82.9301C98.8166 82.9301 99.6882 83.7445 99.7025 84.9042C99.712 85.7496 98.9428 86.9379 97.6592 86.8427ZM99.1524 84.8923C99.1786 83.9636 98.4451 83.3444 97.6664 83.3492C96.8639 83.3539 96.1923 83.9969 96.1923 84.8899C96.1923 85.7448 96.8639 86.4069 97.6973 86.4331C98.4499 86.4569 99.1952 85.7377 99.15 84.8923H99.1524Z" fill="white"/>
<path d="M96.902 84.8923C96.902 84.6423 96.9044 84.3922 96.902 84.1422C96.8996 83.9374 96.9901 83.8254 97.1997 83.8302C97.5283 83.8397 97.8641 83.7659 98.1832 83.9159C98.5428 84.0826 98.6618 84.4017 98.4404 84.7327C98.3189 84.9161 98.3022 85.0638 98.4166 85.2543C98.5023 85.4019 98.5475 85.5758 98.5928 85.7448C98.6166 85.8353 98.6356 85.9568 98.5213 86.0115C98.4023 86.0663 98.2927 86.0187 98.207 85.9258C98.076 85.7877 98.0212 85.6043 97.976 85.4329C97.9308 85.2662 97.8284 85.1947 97.6926 85.1542C97.5212 85.1019 97.3926 85.14 97.4021 85.3614C97.4069 85.4781 97.3973 85.5948 97.4021 85.7115C97.4092 85.8972 97.3068 86.0044 97.1378 86.0092C96.952 86.0163 96.9115 85.8615 96.9091 85.7139C96.902 85.44 96.9091 85.1638 96.9091 84.8899L96.902 84.8923ZM97.6188 84.7327C97.8307 84.7208 98.0498 84.7327 98.0379 84.466C98.0284 84.2255 97.8212 84.2398 97.6426 84.2279C97.4069 84.2112 97.3997 84.3541 97.3926 84.5303C97.3854 84.7256 97.4854 84.7566 97.6164 84.7304L97.6188 84.7327Z" fill="white"/>
</svg>
