<svg width="128" height="128" viewBox="0 0 128 128" fill="none" xmlns="http://www.w3.org/2000/svg">
<rect width="128" height="128" fill="white"/>
<path fill-rule="evenodd" clip-rule="evenodd" d="M58.667 32.8891C63.5762 32.8891 67.555 36.8691 67.555 41.7772C67.555 46.6852 63.5795 50.663 58.6726 50.6663C63.1239 50.6674 67.5752 51.7769 71.5764 53.9925C74.5924 50.8074 76.4453 46.5106 76.4453 41.7772C76.4453 31.9588 68.4865 24 58.667 24V32.8891Z" fill="#E7DF09"/>
<path fill-rule="evenodd" clip-rule="evenodd" d="M58.6671 24.0001C48.8487 24.0001 40.8899 31.9589 40.8899 41.7773C40.8899 46.5096 42.7416 50.8075 45.7577 53.9926C49.7589 51.777 54.2102 50.6676 58.6603 50.6664C53.7545 50.6631 49.7779 46.6854 49.7779 41.7773C49.7779 36.8692 53.7579 32.8893 58.6671 32.8893V24.0001Z" fill="#94BE1C"/>
<path fill-rule="evenodd" clip-rule="evenodd" d="M77.5232 58.4768C75.7141 56.6676 73.7101 55.173 71.5774 53.993C68.3385 57.4155 63.7563 59.5538 58.6724 59.556C63.2211 59.556 67.7676 61.2924 71.2393 64.7619L77.5232 58.4768Z" fill="#94BE1C"/>
<path fill-rule="evenodd" clip-rule="evenodd" d="M46.0957 89.9032C39.1534 82.9609 39.1534 71.705 46.0957 64.7617C49.5663 61.2911 54.1139 59.5569 58.6625 59.5558C53.5776 59.5547 48.9964 57.4141 45.7565 53.9928C43.6238 55.1728 41.6198 56.6674 39.8106 58.4777C29.3966 68.8905 29.3967 85.7743 39.8095 96.1883L46.0957 89.9032Z" fill="#FFB612"/>
<path fill-rule="evenodd" clip-rule="evenodd" d="M58.6632 59.556H58.6722C63.756 59.5549 68.3383 57.4155 71.5783 53.993C67.5759 51.7763 63.1257 50.668 58.6733 50.6669H58.6677H58.661C54.2108 50.668 49.7595 51.7763 45.7583 53.993C48.9971 57.4155 53.5783 59.5549 58.6632 59.556Z" fill="#4CAC2C"/>
<path fill-rule="evenodd" clip-rule="evenodd" d="M76.4441 77.3325C76.4441 81.8823 74.7077 86.4321 71.2383 89.9027C64.2938 96.8461 53.039 96.8461 46.0956 89.9027L39.8105 96.1889C50.2245 106.604 67.1094 106.604 77.5234 96.1878C78.8019 94.9093 79.9237 93.53 80.8898 92.0791C78.082 87.8551 76.4441 82.7847 76.4441 77.3325Z" fill="#ED8C00"/>
<path fill-rule="evenodd" clip-rule="evenodd" d="M76.4441 77.3325C76.4441 82.7847 78.0809 87.854 80.8898 92.0791C83.851 87.6256 85.3321 82.4802 85.3321 77.3325H76.4441Z" fill="#CA052D"/>
<path fill-rule="evenodd" clip-rule="evenodd" d="M95.4488 94.0818C87.9759 88.7181 85.3338 84.1694 85.3338 77.3335C85.3338 82.48 83.8527 87.6254 80.8904 92.0789C83.0746 95.3648 85.9675 98.1368 89.3518 100.179L95.4488 94.0818Z" fill="#DD3E26"/>
<path fill-rule="evenodd" clip-rule="evenodd" d="M85.3337 77.3324C85.3337 74.1529 86.1723 71.1705 87.6344 68.5888L81.1914 62.1459C78.1989 66.4561 76.4446 71.6888 76.4446 77.3336L85.3338 77.3335L85.3337 77.3324Z" fill="#DD3E26"/>
</svg>
