<svg width="128" height="128" viewBox="0 0 128 128" fill="none" xmlns="http://www.w3.org/2000/svg">
<rect width="128" height="128" fill="#AFAEAE"/>
<path fill-rule="evenodd" clip-rule="evenodd" d="M24.6136 77.9908C25.883 77.9908 26.8138 77.617 27.4059 76.8694C27.998 76.1206 28.321 74.8504 28.3748 73.0586V72.5144C28.3748 70.5352 28.0732 69.115 27.471 68.2583C26.8688 67.4005 25.8887 66.971 24.5317 66.971C23.4249 66.971 22.5648 67.4471 21.9514 68.398C21.3379 69.3502 21.0318 70.7317 21.0318 72.5474C21.0318 74.3618 21.3413 75.723 21.9592 76.6308C22.5782 77.5374 23.463 77.9908 24.6136 77.9908ZM22.8709 81.9991C20.7324 81.9991 19.0536 81.1584 17.8313 79.4757C16.6101 77.793 16 75.4604 16 72.4802C16 69.4557 16.6213 67.1005 17.8638 65.4121C19.1074 63.7237 20.8198 62.8796 23.0021 62.8796C25.2921 62.8796 27.0403 63.7817 28.2448 65.5848H28.4074C28.1573 64.21 28.0328 62.9841 28.0328 61.9058V56H33.0153V81.6696H29.2058L28.2448 79.278H28.0328C26.9035 81.0925 25.1833 81.9991 22.8709 81.9991Z" fill="white"/>
<path fill-rule="evenodd" clip-rule="evenodd" d="M35.9823 60.677H41.3875V56.6402H35.9823V60.677ZM36.1931 81.6703H41.1599V63.2267H36.1931V81.6703Z" fill="white"/>
<path fill-rule="evenodd" clip-rule="evenodd" d="M54.6454 73.1242L52.7244 73.1912C51.2811 73.2344 50.2057 73.498 49.5003 73.982C48.795 74.466 48.4417 75.2034 48.4417 76.193C48.4417 77.611 49.2446 78.3211 50.8516 78.3211C52.0022 78.3211 52.9218 77.9848 53.6114 77.3144C54.3 76.6441 54.6454 75.7522 54.6454 74.6421V73.1242ZM56.111 81.6694L55.15 79.1618H55.0199C54.1833 80.2287 53.3243 80.9684 52.4395 81.3819C51.5547 81.7932 50.4008 82 48.9788 82C47.2317 82 45.8557 81.4933 44.852 80.4821C43.8472 79.4697 43.3448 78.0291 43.3448 76.1601C43.3448 74.2013 44.021 72.7595 45.3724 71.8289C46.7237 70.8995 48.7613 70.386 51.4863 70.2871L54.6454 70.1872V69.3793C54.6454 67.5103 53.7011 66.5741 51.8127 66.5741C50.3571 66.5741 48.648 67.0206 46.6833 67.9103L45.0382 64.512C47.133 63.4019 49.4566 62.8463 52.0078 62.8463C54.4502 62.8463 56.323 63.3849 57.625 64.4631C58.928 65.5413 59.5785 67.1797 59.5785 69.3793V81.6694H56.111Z" fill="white"/>
<path fill-rule="evenodd" clip-rule="evenodd" d="M62.3311 81.6702H67.2967V56.0006H62.3311V81.6702Z" fill="white"/>
<path fill-rule="evenodd" clip-rule="evenodd" d="M73.8371 72.4152C73.8371 74.2399 74.1331 75.6204 74.7241 76.5566C75.3151 77.4905 76.2795 77.9575 77.614 77.9575C78.9395 77.9575 79.8905 77.4939 80.4725 76.5634C81.0534 75.6351 81.3427 74.2513 81.3427 72.4152C81.3427 70.5894 81.0511 69.2191 80.4635 68.3068C79.8781 67.3944 78.9171 66.9377 77.5826 66.9377C76.2571 66.9377 75.3027 67.391 74.7162 68.2988C74.1309 69.2066 73.8371 70.578 73.8371 72.4152ZM86.4238 72.4151C86.4238 75.418 85.6422 77.7654 84.079 79.4583C82.5157 81.1523 80.339 81.9999 77.5501 81.9999C75.8018 81.9999 74.2598 81.6125 72.9254 80.8365C71.5897 80.0605 70.5636 78.9482 69.8471 77.4961C69.1316 76.0441 68.7727 74.35 68.7727 72.4151C68.7727 69.402 69.5488 67.0592 71.1019 65.3867C72.6528 63.7154 74.8362 62.8792 77.6465 62.8792C79.3948 62.8792 80.9368 63.2644 82.2712 64.0347C83.6068 64.8039 84.6329 65.9094 85.3495 67.3501C86.065 68.7919 86.4238 70.4791 86.4238 72.4151Z" fill="white"/>
<path fill-rule="evenodd" clip-rule="evenodd" d="M91.8432 79.9713C92.2839 79.9713 92.6069 79.8418 92.8121 79.5816C93.0173 79.3225 93.1295 78.8806 93.1486 78.2591V78.0693C93.1486 77.3831 93.0431 76.89 92.8357 76.5923C92.626 76.2958 92.2862 76.1469 91.8152 76.1469C91.4305 76.1469 91.1322 76.3105 90.9192 76.6411C90.7061 76.9718 90.6007 77.4512 90.6007 78.0818C90.6007 78.7113 90.7072 79.1839 90.9225 79.4986C91.1367 79.8134 91.444 79.9713 91.8432 79.9713ZM91.2388 81.3619C90.4964 81.3619 89.9133 81.0699 89.4894 80.4859C89.0655 79.9019 88.8535 79.093 88.8535 78.0579C88.8535 77.0092 89.0688 76.1912 89.5006 75.6049C89.9323 75.0198 90.5267 74.7255 91.2836 74.7255C92.0787 74.7255 92.6854 75.0391 93.1037 75.6651H93.1598C93.0734 75.1879 93.0308 74.763 93.0308 74.3881V72.3373H94.76V81.2472H93.4368L93.1037 80.4178H93.0308C92.6383 81.0472 92.0417 81.3619 91.2388 81.3619Z" fill="white"/>
<path fill-rule="evenodd" clip-rule="evenodd" d="M99.1785 75.969C98.8141 75.969 98.527 76.086 98.3195 76.3212C98.1132 76.5564 97.9943 76.8893 97.964 77.3188H100.383C100.375 76.8893 100.264 76.5564 100.049 76.3212C99.8346 76.086 99.5441 75.969 99.1785 75.969ZM99.4219 81.3613C98.4059 81.3613 97.6108 81.0772 97.0377 80.5092C96.4647 79.9399 96.1787 79.1344 96.1787 78.0925C96.1787 77.02 96.4434 76.1905 96.9716 75.6054C97.502 75.0191 98.2332 74.7249 99.1673 74.7249C100.06 74.7249 100.755 74.9828 101.253 75.4997C101.75 76.0144 102 76.7268 102 77.6346V78.4822H97.9248C97.9427 78.9776 98.0885 79.365 98.3599 79.6434C98.6313 79.9229 99.0114 80.0626 99.5015 80.0626C99.8817 80.0626 100.242 80.0217 100.58 79.9422C100.92 79.8627 101.273 79.7331 101.642 79.5582V80.9102C101.342 81.0613 101.02 81.1761 100.677 81.2499C100.334 81.3249 99.9153 81.3613 99.4219 81.3613Z" fill="white"/>
<path fill-rule="evenodd" clip-rule="evenodd" d="M85.6465 80.926H87.8871V79.1104H85.6465V80.926Z" fill="white"/>
<path fill-rule="evenodd" clip-rule="evenodd" d="M99.088 47C90.3926 47 85.6679 52.1136 85.6679 58.2633C85.6679 61.2505 87.0111 63.6981 89.2079 65.4275C88.5937 66.6864 87.0209 68.5018 83 68.9633C83 68.9633 87.2657 71.9494 94.2223 67.7859C95.5546 68.1139 96.9874 68.2869 98.4858 68.2869C105.618 68.2869 112 64.2863 112 58.1366C112 51.9858 106.218 47 99.088 47Z" fill="#CA425F"/>
<path fill-rule="evenodd" clip-rule="evenodd" d="M106.929 61.9587L106.849 61.7304C106.661 61.2063 106.043 60.66 105.474 60.5137L103.371 59.974C102.802 59.8299 101.989 60.025 101.572 60.4173L100.811 61.1298C98.0466 60.4284 95.878 58.396 95.1335 55.804L95.8922 55.0915C96.3094 54.7003 96.5174 53.939 96.3638 53.4026L95.7906 51.4312C95.6358 50.8982 95.0484 50.3186 94.4906 50.1424L94.2495 50.0682C93.6905 49.892 92.8893 50.0693 92.4733 50.4616L91.334 51.5287C91.1308 51.7182 91.0008 52.2601 91.0008 52.2623C90.9618 55.6511 92.3788 58.9146 94.935 61.3127C97.4829 63.7019 100.951 65.0294 104.554 64.9995C104.572 64.9995 105.168 64.8809 105.371 64.6903L106.511 63.6221C106.927 63.2331 107.113 62.4829 106.929 61.9587Z" fill="white"/>
</svg>
