<svg width="128" height="128" viewBox="0 0 128 128" fill="none" xmlns="http://www.w3.org/2000/svg">
<rect width="128" height="128" fill="#4E89BE"/>
<path d="M23.3292 54.2637C24.3861 54.2637 25.4459 54.2566 26.5001 54.2637C28.3176 54.2795 30.028 54.6691 31.5803 55.6961C32.9893 56.6239 34.0542 58.0011 34.6072 59.6109C35.1434 61.1221 35.2592 62.6791 35.1463 64.2791C34.9727 66.7314 33.9454 68.7754 32.3239 70.5344C31.5845 71.3366 30.6305 71.8236 29.5806 72.133C28.233 72.5341 26.8557 72.6186 25.4699 72.6186C23.4844 72.6272 21.4989 72.6186 19.5134 72.6186C19.0703 72.6186 18.9137 72.3894 19.0449 71.9583C19.0999 71.7763 19.2396 71.772 19.3807 71.772C19.7801 71.772 20.1795 71.772 20.5788 71.772C21.0502 71.772 21.0854 71.7362 21.0854 71.2664C21.0854 70.1362 21.0854 69.0046 21.0854 67.8745V55.6216C21.0854 55.0487 21.0854 55.0487 20.521 55.0487C20.1682 55.0487 19.8154 55.0386 19.464 55.0487C19.1874 55.0616 19.0223 55 19.0237 54.6619C19.0251 54.3239 19.1648 54.258 19.4471 54.2594C20.7439 54.2694 22.0366 54.2637 23.3292 54.2637ZM23.9755 63.4154C23.9755 66.0453 23.9755 68.6752 23.9755 71.3051C23.9755 71.7448 23.9995 71.772 24.4369 71.7677C25.4939 71.7592 26.5537 71.8093 27.6036 71.7004C28.5339 71.6232 29.4171 71.2525 30.1296 70.6404C31.1865 69.7194 31.6522 68.4918 31.7919 67.1282C31.9768 65.342 32.0953 63.5472 31.998 61.7509C31.9302 60.4861 31.8413 59.2198 31.3516 58.0152C30.6743 56.3292 29.376 55.5113 27.6897 55.2034C26.6595 55.0143 25.6096 55.0344 24.5654 55.0487C23.9755 55.0487 23.9741 55.0487 23.9741 55.6317C23.9741 58.2272 23.9746 60.8218 23.9755 63.4154Z" fill="white"/>
<path d="M72.5167 55.9167C72.3756 56.0356 72.4207 56.176 72.4207 56.2992C72.4207 61.2887 72.4207 66.2773 72.4207 71.265C72.4207 71.7334 72.456 71.7663 72.9273 71.7692C73.3267 71.7692 73.7261 71.7692 74.1254 71.7692C74.4077 71.7692 74.5332 71.9024 74.5332 72.186C74.5332 72.4696 74.4246 72.6157 74.1395 72.6157C72.6587 72.6157 71.1784 72.6157 69.6986 72.6157C69.4164 72.6157 69.2555 72.4725 69.2583 72.1746C69.2611 71.8766 69.4361 71.762 69.7184 71.7677C70.0824 71.7763 70.4465 71.7677 70.8106 71.7677C71.4259 71.7677 71.4259 71.7677 71.4273 71.1604V55.6245C71.4273 55.0515 71.4273 55.0515 70.8628 55.0515H69.6605C69.4135 55.0515 69.2456 54.9599 69.2499 54.6805C69.2427 54.6238 69.2487 54.5662 69.2671 54.5122C69.2856 54.4582 69.316 54.4093 69.3562 54.3692C69.3964 54.3291 69.4451 54.299 69.4986 54.2812C69.5521 54.2634 69.609 54.2584 69.6647 54.2666C71.2641 54.2666 72.8634 54.2666 74.4627 54.2666C74.5686 54.2626 74.6735 54.289 74.7653 54.3427C74.8572 54.3964 74.9323 54.4752 74.982 54.5703C76.0248 56.3221 77.062 58.0768 78.1091 59.8243C79.1153 61.4945 80.1172 63.1561 81.1206 64.8191C81.5298 65.5 81.9386 66.1804 82.3469 66.8603C82.3878 66.9262 82.4132 67.0122 82.5049 67.0379C82.6107 66.919 82.5684 66.7815 82.5684 66.6583C82.5684 62.9551 82.5684 59.2523 82.5684 55.55C82.5684 55.063 82.5557 55.0515 82.0717 55.0501C81.6483 55.0501 81.225 55.0501 80.8016 55.0501C80.5462 55.0501 80.4488 54.9226 80.4474 54.6734C80.446 54.4241 80.5265 54.2637 80.8087 54.2637C82.3139 54.2637 83.8192 54.2637 85.3244 54.2637C85.6067 54.2637 85.7322 54.407 85.7351 54.682C85.7379 54.957 85.5657 55.0487 85.3202 55.0487C84.8743 55.0487 84.4283 55.0573 83.981 55.0487C83.727 55.0487 83.6098 55.1489 83.6254 55.4082C83.6324 55.5271 83.6254 55.6474 83.6254 55.7663C83.6254 61.2782 83.6254 66.7901 83.6254 72.302C83.6254 72.5455 83.7312 72.8564 83.3728 72.9624C83.0143 73.0684 82.7392 72.9524 82.5261 72.59C81.3812 70.6887 80.2391 68.7883 79.0998 66.889C78.0216 65.0889 76.9449 63.2898 75.8696 61.4916C74.8747 59.8229 73.894 58.1484 72.8963 56.4782C72.7763 56.2891 72.6437 56.1072 72.5167 55.9167Z" fill="white"/>
<path d="M62.4904 72.6186H59.565C59.4591 72.6231 59.353 72.6198 59.2475 72.6086C59.1946 72.6038 59.1431 72.5882 59.0962 72.5628C59.0493 72.5375 59.0078 72.5027 58.9744 72.4608C58.941 72.4188 58.9162 72.3705 58.9015 72.3186C58.8869 72.2667 58.8826 72.2124 58.8891 72.1588C58.8837 72.1077 58.8897 72.056 58.9066 72.0075C58.9235 71.9591 58.951 71.9151 58.9868 71.8788C59.0227 71.8425 59.0662 71.8149 59.114 71.7979C59.1618 71.7809 59.2127 71.775 59.2631 71.7806C59.7457 71.7663 60.2269 71.7806 60.7081 71.7677C61.0524 71.7677 61.1046 71.6804 61.0002 71.3538C60.4611 69.6693 59.9178 67.9862 59.3844 66.3002C59.3637 66.2011 59.3075 66.1133 59.2267 66.0538C59.1459 65.9943 59.0462 65.9672 58.9469 65.9779C57.4314 65.9779 55.9153 65.9779 54.3988 65.9779C54.3061 65.9718 54.2143 65.9999 54.1404 66.057C54.0665 66.1142 54.0154 66.1965 53.9966 66.2888C53.6847 67.2356 53.363 68.1781 53.0511 69.125C52.7999 69.8913 52.5657 70.6634 52.3032 71.4254C52.2086 71.7004 52.3032 71.7706 52.5459 71.7692C53.0384 71.7692 53.5337 71.7692 54.0262 71.7692C54.3085 71.7692 54.5554 71.8093 54.5695 72.1731C54.5794 72.4596 54.4115 72.6129 54.0502 72.6143C52.512 72.6215 50.9725 72.6143 49.4329 72.6143C49.1507 72.6143 48.9587 72.4897 48.9489 72.1745C48.939 71.825 49.1775 71.7706 49.4456 71.7692C49.8915 71.7692 50.3374 71.7591 50.7848 71.7692C51.067 71.7692 51.2081 71.6832 51.3126 71.381C51.9448 69.4788 52.6122 67.5894 53.2571 65.6915C53.7341 64.2877 54.1913 62.8754 54.6683 61.4716C55.2497 59.7527 55.8358 58.0338 56.4266 56.3149C56.6326 55.709 56.85 55.1045 57.0433 54.4943C57.1435 54.1778 57.3171 54.0073 57.6586 54.0446C57.74 54.056 57.8226 54.056 57.9041 54.0446C58.2752 53.983 58.4601 54.162 58.5673 54.5072C59.0942 56.1946 59.6276 57.8801 60.1676 59.5636C60.5768 60.8399 61.0044 62.1104 61.4151 63.3867C62.0134 65.2489 62.6005 67.111 63.1988 68.9803C63.474 69.8397 63.7633 70.6992 64.0455 71.5515C64.1076 71.742 64.2473 71.7634 64.4053 71.7649C64.8174 71.7649 65.228 71.7649 65.6401 71.7649C65.9223 71.7649 66.0804 71.8752 66.0818 72.1846C66.0832 72.494 65.9153 72.6143 65.6401 72.6143C64.5944 72.6143 63.5488 72.6143 62.5031 72.6143L62.4904 72.6186ZM56.7963 58.1097C56.7361 58.1511 56.6852 58.2049 56.6468 58.2676C56.6084 58.3303 56.5834 58.4005 56.5734 58.4736L55.8128 60.7654C55.3894 62.0617 54.9661 63.3581 54.5272 64.6515C54.4341 64.928 54.4778 65.0455 54.7897 65.044C56.0357 65.0354 57.2818 65.044 58.5264 65.044C58.8637 65.044 58.9272 64.9409 58.827 64.6286C58.6106 63.9497 58.3971 63.2702 58.1863 62.5903C57.7249 61.1106 57.2663 59.6281 56.7963 58.1097Z" fill="white"/>
<path d="M102.24 72.6186C101.218 72.6186 100.197 72.6186 99.1736 72.6186C98.9224 72.6186 98.7347 72.5541 98.7149 72.2519C98.6952 71.9267 98.8052 71.7806 99.1284 71.772C99.5518 71.7606 99.9751 71.772 100.398 71.772C100.822 71.772 100.871 71.6861 100.751 71.3065C100.346 70.0288 99.9328 68.754 99.5207 67.4791C99.3895 67.0723 99.2512 66.6684 99.1284 66.2601C99.1112 66.1712 99.0615 66.0922 98.9892 66.0391C98.9169 65.9859 98.8275 65.9625 98.7389 65.9736C97.212 65.9736 95.6847 65.9736 94.1569 65.9736C93.9367 65.9736 93.8337 66.0639 93.7617 66.2859C93.2156 67.9647 92.6526 69.6392 92.0952 71.3165C91.954 71.7276 91.9837 71.7634 92.4141 71.7663C92.8713 71.7663 93.3295 71.7663 93.7886 71.7663C94.0708 71.7663 94.2712 71.8279 94.2796 72.1731C94.2881 72.5183 94.075 72.6028 93.8069 72.6028C92.8191 72.6114 91.8313 72.61 90.8435 72.6114C90.3143 72.6114 89.7851 72.6114 89.2573 72.6114C88.9469 72.6114 88.7719 72.5155 88.7662 72.1645C88.7606 71.8136 88.9497 71.7491 89.2361 71.7563C89.6355 71.7663 90.0377 71.7305 90.4342 71.7677C90.8308 71.805 91.0184 71.6116 91.1398 71.2492C91.5829 69.8841 92.0415 68.5276 92.503 67.1654C93.217 65.0655 93.9424 62.9699 94.655 60.87C95.3597 58.7987 96.0596 56.7217 96.7548 54.639C96.7992 54.5106 96.8701 54.3933 96.9628 54.295C97.0554 54.1967 97.1677 54.1196 97.2921 54.0689C97.4165 54.0181 97.5501 53.995 97.684 54.0009C97.8179 54.0068 97.9491 54.0417 98.0686 54.1033C98.1157 54.1281 98.1576 54.1622 98.1917 54.2035C98.2259 54.2448 98.2516 54.2925 98.2676 54.3439C98.6251 55.4497 98.9816 56.5565 99.3372 57.6642C99.7568 58.9754 100.175 60.2856 100.592 61.5948C101.026 62.9632 101.462 64.3302 101.899 65.6958C102.309 66.9706 102.728 68.244 103.142 69.5174C103.339 70.1276 103.547 70.7335 103.725 71.348C103.812 71.6517 103.974 71.7778 104.281 71.7778C104.632 71.7649 104.986 71.7778 105.338 71.7778C105.62 71.7778 105.834 71.8308 105.833 72.1788C105.833 72.5011 105.704 72.6272 105.342 72.6286C104.309 72.6186 103.274 72.6186 102.24 72.6186ZM96.5756 58.1427H96.4768C96.4246 58.273 96.3682 58.4019 96.323 58.5337C95.83 60.0072 95.339 61.4816 94.8498 62.957C94.6663 63.5085 94.4744 64.0571 94.3036 64.6114C94.2486 64.7933 94.1625 65.0412 94.5026 65.0412C95.8192 65.0412 97.1358 65.0412 98.4539 65.0412C98.626 65.0412 98.6825 64.9767 98.6218 64.7962C98.516 64.4811 98.4369 64.1588 98.3396 63.8408C97.9717 62.6385 97.6015 61.4367 97.229 60.2354C97.007 59.5393 96.7892 58.8417 96.5756 58.1427Z" fill="white"/>
<path d="M40.9715 63.3939V55.5729C40.9715 55.0558 40.9715 55.0501 40.4649 55.0487C39.9583 55.0472 39.5025 55.0487 39.0213 55.0487C38.7617 55.0487 38.5867 54.9699 38.581 54.6677C38.5754 54.3654 38.756 54.2623 39.0382 54.2623C41.2961 54.2623 43.5511 54.2623 45.8034 54.2623C46.0856 54.2623 46.2507 54.3826 46.2521 54.6805C46.2535 54.9785 46.0546 55.0501 45.8034 55.0487C45.2982 55.0487 44.7934 55.0487 44.2892 55.0487C43.8658 55.0487 43.8066 55.1074 43.8037 55.55C43.8037 56.2877 43.8037 57.0254 43.8037 57.7645V71.0859C43.8037 71.772 43.8037 71.772 44.498 71.772H45.7681C46.0503 71.772 46.2578 71.8881 46.2521 72.2018C46.2465 72.5155 46.0531 72.6143 45.7822 72.6143C43.5507 72.6143 41.3192 72.6143 39.0876 72.6143C38.7955 72.6143 38.5824 72.5112 38.5895 72.1588C38.5966 71.8064 38.8209 71.7663 39.0933 71.7692C39.5745 71.7692 40.0571 71.7534 40.5369 71.7692C40.8742 71.7835 40.9871 71.6574 40.9857 71.3151C40.9673 68.6795 40.9715 66.0367 40.9715 63.3939Z" fill="white"/>
<path d="M108.589 72.2691C108.33 72.2534 108.081 72.1613 107.873 72.004C107.664 71.8466 107.506 71.631 107.417 71.3835C107.328 71.136 107.312 70.8675 107.371 70.611C107.43 70.3544 107.562 70.121 107.75 69.9394C107.938 69.7579 108.174 69.636 108.43 69.5889C108.685 69.5418 108.948 69.5714 109.188 69.6742C109.427 69.7769 109.631 69.9484 109.775 70.1674C109.919 70.3864 109.998 70.6434 110 70.9069C109.996 71.6832 109.39 72.2705 108.589 72.2691ZM109.184 71.6617C109.089 71.6427 108.999 71.6036 108.92 71.5472C108.84 71.4907 108.773 71.418 108.723 71.3337C108.618 71.1905 108.501 71.063 108.441 71.3667C108.417 71.4927 108.377 71.6073 108.226 71.5987C108.075 71.5901 108.033 71.4469 108.031 71.3122C108.031 71.0386 108.031 70.7665 108.031 70.4929C108.028 70.4393 108.036 70.3855 108.056 70.3358C108.076 70.2861 108.107 70.2418 108.147 70.2064C108.315 70.0632 108.994 70.0947 109.155 70.2651C109.386 70.5158 109.328 70.7507 109.093 70.9814C108.966 71.1031 109.069 71.2249 109.142 71.3294C109.215 71.434 109.23 71.55 109.354 71.5429C109.478 71.5357 109.519 71.4211 109.551 71.318C109.754 70.6734 109.471 70.1305 108.839 69.9529C108.407 69.8311 107.941 70.0603 107.698 70.5144C107.609 70.6969 107.581 70.9043 107.62 71.1043C107.659 71.3044 107.762 71.4857 107.913 71.6202C108.216 71.9024 108.761 71.9497 109.184 71.6617Z" fill="white"/>
</svg>
