<svg width="128" height="128" viewBox="0 0 128 128" fill="none" xmlns="http://www.w3.org/2000/svg">
<rect width="128" height="128" fill="white"/>
<path d="M34.61 77.9982C30.9747 77.9982 27.3384 77.9982 23.7011 77.9982C21.4377 77.9885 20 76.5873 20 74.3435C20 67.1333 20 59.9219 20 52.7095C20 50.4399 21.4668 49 23.7658 49C31.0082 49 38.2538 49 45.5027 49C47.8211 49 49.2944 50.4754 49.2944 52.7741C49.2944 59.9327 49.2944 67.0902 49.2944 74.2467C49.2944 76.6196 47.915 77.9852 45.5189 77.9885C41.8901 77.9992 38.2538 78.0025 34.61 77.9982Z" fill="url(#paint0_linear_85_1471)"/>
<path d="M92.5318 64.4483L94.9733 61.5071C95.6209 60.742 96.2296 59.9704 96.8643 59.2085C96.9453 59.0693 97.0566 58.9501 97.19 58.8596C97.3234 58.7691 97.4754 58.7096 97.6349 58.6854C99.0046 58.6854 100.371 58.6854 101.935 58.6854C101.427 59.2989 101.045 59.7896 100.64 60.2545C99.5292 61.491 98.4218 62.734 97.2755 63.9382C96.7315 64.5128 96.6603 64.9745 97.1363 65.6783C98.7747 68.0997 100.339 70.5727 101.922 73.0328C102.045 73.2233 102.301 73.4137 102.133 73.6785C102.003 73.8754 101.737 73.8076 101.53 73.8076C100.478 73.8076 99.4288 73.8076 98.3764 73.8076C98.1364 73.8265 97.8963 73.7717 97.6885 73.6505C97.4807 73.5293 97.3151 73.3475 97.214 73.1296C96.2717 71.5154 95.2712 69.9012 94.3451 68.2869C94.0213 67.7187 93.8011 67.7155 93.3381 68.1546C92.6322 68.8261 92.2177 69.5428 92.3148 70.5565C92.3926 71.3798 92.3148 72.2192 92.3343 73.0489C92.3343 73.6042 92.1044 73.8205 91.5604 73.8076C90.78 73.7882 89.9964 73.7818 89.216 73.8076C88.6105 73.8302 88.3839 73.5493 88.426 72.9811C88.426 72.8746 88.426 72.7681 88.426 72.6583C88.426 66.5479 88.426 60.4353 88.426 54.3205C88.426 53.1744 88.426 53.1712 89.6079 53.1712C90.1713 53.1712 90.7444 53.2164 91.3013 53.1712C92.1465 53.0873 92.3537 53.4553 92.344 54.2398C92.3084 57.323 92.344 60.4062 92.344 63.4894V64.3643L92.5318 64.4483Z" fill="#939598"/>
<path d="M59.9637 66.2013C59.9563 65.4526 59.9974 64.7042 60.0868 63.9608C60.5498 59.8444 64.076 57.9332 67.7771 58.6047C70.2639 59.0535 72.6017 60.6871 72.8543 64.5709C72.9874 66.0667 72.9221 67.5734 72.66 69.0521C72.3581 70.5842 71.4764 71.9418 70.1978 72.8434C68.9192 73.7449 67.3416 74.1214 65.7922 73.8948C62.0587 73.3944 60.1256 71.241 59.9637 67.4088C59.9508 67.0052 59.967 66.6049 59.9637 66.2013ZM68.9946 66.2465C69.0435 65.4707 68.978 64.6918 68.8003 63.9349C68.4765 62.6694 67.6055 61.943 66.4042 61.9559C65.2028 61.9688 64.3642 62.6403 64.076 63.893C63.7183 65.4385 63.7183 67.0449 64.076 68.5904C64.3512 69.7882 65.1899 70.4048 66.3944 70.4048C66.9517 70.4429 67.5035 70.2746 67.944 69.932C68.3844 69.5894 68.6824 69.0967 68.7809 68.5484C68.969 67.7964 69.041 67.0202 68.9946 66.2465Z" fill="#939598"/>
<path d="M74.169 66.2304C74.1463 64.9971 74.1236 63.7606 74.5219 62.5693C75.4933 59.6927 78.2586 58.0849 81.4966 58.524C84.8545 58.9825 86.8847 61.2456 86.9754 64.6226C87.0634 66.0379 87.0168 67.4583 86.8361 68.8648C86.2371 72.513 83.1221 74.2176 79.8906 73.8754C76.2316 73.488 74.2305 71.1732 74.169 67.5153C74.1625 67.0795 74.169 66.6565 74.169 66.2304ZM83.1383 66.2659C83.0379 65.4459 83.1383 64.6517 82.9311 63.8478C82.6073 62.6209 81.8172 61.9656 80.6644 61.9559C79.3951 61.9559 78.5079 62.579 78.2456 63.8704C77.917 65.4451 77.917 67.0705 78.2456 68.6453C78.4982 69.8366 79.2915 70.3983 80.5123 70.4145C81.8075 70.4145 82.5425 69.8882 82.9084 68.7066C83.1415 67.8963 83.0412 67.0601 83.1415 66.2659H83.1383Z" fill="#939598"/>
<path d="M52.513 61.7848C52.513 59.2375 52.513 56.6903 52.513 54.1462C52.513 53.436 52.7073 53.0937 53.4844 53.1551C54.0997 53.2067 54.7214 53.1551 55.3431 53.1551C56.4181 53.1551 56.4408 53.1745 56.4408 54.2237C56.4408 58.8081 56.4408 63.3926 56.4408 67.977C56.4408 68.245 56.4408 68.5129 56.4408 68.7809C56.4602 70.1465 56.784 70.5243 58.1666 70.5081C58.9956 70.5081 59.3096 70.7858 59.1996 71.58C59.1931 71.6875 59.1931 71.7953 59.1996 71.9028C59.1445 73.9303 59.6529 73.8399 57.1402 73.756C56.0392 73.7172 54.9351 73.5203 54.0446 72.7584C52.9664 71.835 52.5487 70.6244 52.5422 69.2523C52.5066 66.7566 52.513 64.2772 52.513 61.7848Z" fill="#939598"/>
<path d="M104.726 55.7475C104.716 55.6143 104.716 55.4805 104.726 55.3472C104.765 55.0792 104.593 54.7015 105.001 54.6046C105.325 54.5368 105.416 54.8887 105.532 55.1147C105.817 55.6603 106.008 55.4634 106.216 55.0599C106.323 54.8565 106.4 54.553 106.711 54.6208C107.022 54.6886 106.983 55.0373 106.993 55.2891C107.009 55.6894 106.993 56.093 106.993 56.4933C106.993 56.6838 106.967 56.8936 106.75 56.955C106.533 57.0163 106.449 56.8291 106.381 56.6321C106.313 56.4352 105.455 56.3642 105.367 56.5579C105.28 56.7516 105.238 57.0131 104.953 56.9291C104.668 56.8452 104.742 56.5869 104.733 56.3803C104.723 56.1737 104.733 55.9509 104.733 55.7346L104.726 55.7475Z" fill="#939598"/>
<path d="M104.228 54.85C103.463 55.3149 103.936 56.164 103.638 56.8032C103.609 56.8456 103.57 56.8802 103.524 56.9044C103.478 56.9285 103.428 56.9415 103.376 56.9421C103.227 56.9421 103.149 56.8065 103.14 56.6644C103.12 56.3997 103.117 56.1317 103.107 55.8638C103.126 55.65 103.081 55.4354 102.978 55.2471C102.845 55.0469 102.304 55.0276 102.654 54.6014C102.832 54.3948 103.978 54.4497 104.124 54.6434C104.163 54.7099 104.198 54.7789 104.228 54.85Z" fill="#939598"/>
<path d="M44.7385 63.399C44.7385 60.3191 44.7191 57.2391 44.7385 54.1591C44.7385 53.4101 44.4957 53.1422 43.7671 53.1906C43.2037 53.2406 42.637 53.2406 42.0736 53.1906C41.2447 53.1099 40.9954 53.4424 41.0213 54.2463C41.0731 55.9057 41.0407 57.5684 41.0407 59.2278C41.0407 59.4119 41.0763 59.625 40.9144 59.7541C40.7525 59.8832 40.6198 59.7541 40.4967 59.6411C39.0202 58.424 37.3202 58.4562 35.5976 58.8566C34.9421 58.9773 34.3326 59.2755 33.8357 59.7185C33.3388 60.1615 32.9738 60.7323 32.7805 61.3683C31.8642 64.4668 31.8351 67.7589 32.6963 70.873C32.843 71.4239 33.1219 71.9309 33.5088 72.3505C33.8958 72.7701 34.3793 73.0896 34.9176 73.2814C36.8798 74.0401 38.8032 74.0821 40.5615 72.7003C40.7784 72.5292 41.1346 72.1902 41.1508 72.7519C41.1735 73.6527 41.7045 73.6462 42.3359 73.6236C42.792 73.5946 43.2495 73.5946 43.7056 73.6236C44.473 73.6979 44.7385 73.4105 44.7288 72.6292C44.69 69.5493 44.7126 66.4661 44.7126 63.3861L44.7385 63.399ZM40.814 68.7551C40.6903 69.2809 40.3879 69.7478 39.9583 70.0767C39.5287 70.4056 38.9982 70.5763 38.4568 70.5598C37.9268 70.5918 37.4028 70.4345 36.9785 70.1162C36.5543 69.798 36.2576 69.3394 36.1416 68.8229C35.7057 67.1044 35.6968 65.3058 36.1157 63.5831C36.3974 62.395 37.1777 61.872 38.4147 61.8591C39.6516 61.8461 40.3996 62.3821 40.7622 63.5282C40.8832 63.8555 40.9658 64.1957 41.0083 64.5419C41.0472 65.0714 41.0083 65.6073 41.0083 66.1562C41.1081 67.0269 41.0422 67.9087 40.814 68.7551Z" fill="white"/>
<defs>
<linearGradient id="paint0_linear_85_1471" x1="22.1468" y1="51.5247" x2="45.7398" y2="74.3163" gradientUnits="userSpaceOnUse">
<stop stop-color="#F5A7C9"/>
<stop offset="0.46" stop-color="#D35499"/>
<stop offset="0.83" stop-color="#BB1877"/>
<stop offset="1" stop-color="#B10069"/>
</linearGradient>
</defs>
</svg>
