<svg width="128" height="129" viewBox="0 0 128 129" fill="none" xmlns="http://www.w3.org/2000/svg">
<rect width="128" height="128" transform="translate(0 0.833496)" fill="#0E60F9"/>
<path d="M72.2054 67.2683C74.0458 67.9762 75.7364 68.6568 77.2771 69.3102C77.2653 69.531 77.2516 69.7466 77.236 69.9569C77.0362 72.6577 75.5157 75.1326 75.5157 79.7565C75.5157 82.1777 75.8695 84.327 76.5771 86.2041C75.9274 86.7607 75.5157 87.5871 75.5157 88.5097C75.5157 90.1856 76.8743 91.5442 78.5502 91.5442C80.2261 91.5442 81.5847 90.1856 81.5847 88.5097C81.5847 86.8338 80.2261 85.4752 78.5502 85.4752L78.4281 85.4776L78.3263 85.4839C77.751 83.667 77.4633 81.7579 77.4633 79.7565C77.4633 75.5179 78.7953 75.2063 79.1836 69.9569L79.1702 70.1328C84.4943 72.5075 87.69 74.4952 88.7571 76.0959C90.2283 78.3028 90.5143 80.2839 92.3533 92.7896C83.7453 101.027 70.7432 104.174 64.1225 104.174C57.5018 104.174 46.7212 102.694 36.3545 93.2524C37.4579 80.7467 38.3663 78.3028 40.2054 76.0959C41.6385 74.3761 45.1379 72.2095 50.7035 69.5962C50.6674 69.7874 50.6364 69.9847 50.6103 70.1872C50.3682 72.0646 50.3096 73.6022 50.3751 74.8114C50.1583 75.0711 49.9472 75.3255 49.72 75.6017C49.0707 76.3911 48.4212 77.197 47.814 77.9733C47.6909 78.1306 47.5707 78.2855 47.4534 78.4375C46.2603 79.9843 45.4432 81.1539 45.0925 81.8818C44.5764 82.9525 44.5961 82.9104 44.4705 83.2563C44.1384 84.1703 44.0787 84.8826 44.074 87.8006L44.0735 90.9553C44.0732 91.2834 44.0726 91.4766 44.0716 91.4924C44.0431 91.976 44.1578 92.5434 44.5421 93.0981C45.1938 94.0387 46.4079 94.5667 48.1672 94.5667C48.1672 94.5667 49.3143 94.8545 49.3143 93.5448C49.3143 92.2352 48.1672 92.5373 48.1672 92.5373C47.0805 92.5373 46.5491 92.3062 46.3242 91.9817C46.2277 91.8423 46.1972 91.6918 46.2023 91.6058C46.2055 91.5859 46.2071 90.6409 46.2076 89.3397L46.2081 87.8267C46.2121 85.1564 46.2617 84.5405 46.4876 83.9189C46.5786 83.6682 46.5661 83.695 47.0325 82.7272C47.3008 82.1704 48.0708 81.0683 49.1742 79.6378C49.2886 79.4894 49.4061 79.3382 49.5264 79.1844C50.1221 78.4227 50.7615 77.6294 51.4009 76.8521C51.4397 76.8049 51.4781 76.7584 51.5159 76.7125C51.5536 76.7582 51.5918 76.8046 51.6305 76.8516C52.2699 77.6289 52.9093 78.4222 53.505 79.1839C53.6253 79.3377 53.7428 79.4889 53.8572 79.6373C54.9606 81.0678 55.7306 82.1699 55.9989 82.7267C56.4653 83.6945 56.4528 83.6677 56.5438 83.9184C56.7697 84.54 56.8193 85.1559 56.8233 87.8262L56.8238 89.3392C56.8243 90.6404 56.8259 91.5854 56.8291 91.6053C56.8342 91.6913 56.8037 91.8418 56.7072 91.9812C56.4823 92.3057 55.9509 92.5369 54.8642 92.5369C54.8642 92.5369 53.9054 92.5626 53.9054 93.5448C53.9054 94.5271 54.8642 94.5662 54.8642 94.5662C56.6235 94.5662 57.8376 94.0382 58.4893 93.0976C58.8736 92.5429 58.9883 91.9755 58.9599 91.4919C58.9588 91.4761 58.9582 91.2829 58.9579 90.9548L58.9574 87.8001C58.9527 84.8821 58.893 84.1698 58.561 83.2558C58.4353 82.9099 58.455 82.9521 57.9389 81.8813C57.5882 81.1534 56.7711 79.9838 55.578 78.437C55.4608 78.285 55.3405 78.1301 55.2174 77.9728C54.6102 77.1965 53.9607 76.3906 53.3114 75.6012C53.0842 75.325 52.8731 75.0706 52.6836 74.8436C52.6087 74.7538 52.5476 74.681 52.5021 74.6267C52.4498 73.5512 52.5063 72.1578 52.7285 70.4341C52.8298 69.6481 53.0164 68.9827 53.2704 68.4243C54.1173 68.0476 55.0039 67.6622 55.9295 67.2683C58.7629 69.4752 61.6322 70.5786 64.5373 70.5786C67.4424 70.5786 69.9985 69.4752 72.2054 67.2683Z" fill="white"/>
<path d="M64.2054 68.3717C73.033 68.3717 75.7916 57.5437 75.7916 50.9924C75.7916 44.4412 70.4808 39.1304 63.9295 39.1304C57.3783 39.1304 52.0675 44.4412 52.0675 50.9924C52.0675 57.5437 55.3778 68.3717 64.2054 68.3717Z" fill="white"/>
<path d="M78.5502 89.889C79.312 89.889 79.9295 89.2715 79.9295 88.5097C79.9295 87.7479 79.312 87.1304 78.5502 87.1304C77.7884 87.1304 77.1709 87.7479 77.1709 88.5097C77.1709 89.2715 77.7884 89.889 78.5502 89.889Z" fill="white"/>
<path d="M64 104.833C86.0914 104.833 104 86.9249 104 64.8335C104 42.7421 86.0914 24.8335 64 24.8335C41.9086 24.8335 24 42.7421 24 64.8335C24 86.9249 41.9086 104.833 64 104.833Z" stroke="white" stroke-width="1.52708"/>
</svg>
