<svg width="129" height="129" viewBox="0 0 129 129" fill="none" xmlns="http://www.w3.org/2000/svg">
<rect width="128" height="128" transform="translate(0.333008 0.138916)" fill="#FF3008"/>
<path d="M105.597 50.9296C101.641 43.5957 93.8992 39.0296 85.4808 39.0577H21.786C21.3559 39.0595 20.9358 39.1878 20.578 39.4266C20.2203 39.6654 19.9407 40.0043 19.7741 40.4009C19.61 40.7949 19.5673 41.229 19.6514 41.6475C19.7355 42.066 19.9426 42.4499 20.2462 42.75L34.1215 56.5185C35.3466 57.7379 37.0157 58.4208 38.7522 58.4208H83.6544C86.8548 58.387 89.4709 60.9216 89.5046 64.0771C89.5383 67.2326 86.9728 69.8177 83.7724 69.8486H52.8157C52.3853 69.8488 51.9644 69.9757 51.6056 70.2136C51.2468 70.4514 50.966 70.7897 50.7982 71.1861C50.6325 71.5806 50.5887 72.0157 50.6723 72.4353C50.7559 72.855 50.9632 73.24 51.2675 73.5408L65.1512 87.3206C66.384 88.5394 68.0483 89.2221 69.7819 89.22H83.7836C102 89.22 115.774 70.0003 105.597 50.9211" fill="white"/>
</svg>
