<svg width="128" height="129" viewBox="0 0 128 129" fill="none" xmlns="http://www.w3.org/2000/svg">
<rect width="128" height="128" transform="translate(0 0.138916)" fill="#F0F2F4"/>
<path d="M88.7256 51.2445C90.6925 53.2855 92.2382 55.694 93.2742 58.3324C94.3103 60.9707 94.8166 63.7874 94.7641 66.6214C94.7116 69.4554 94.1014 72.2514 92.9684 74.8496C91.8353 77.4478 90.2016 79.7974 88.1605 81.7642L87.4317 82.4335L81.6014 76.4842L82.3748 75.7703C83.629 74.5634 84.633 73.1212 85.3297 71.5261C86.0264 69.9311 86.4021 68.2144 86.4352 66.4742C86.4684 64.7339 86.1584 63.0042 85.5229 61.3838C84.8875 59.7633 83.939 58.284 82.7318 57.0301C81.3337 55.5726 79.8018 54.4868 77.9575 53.8027V45.1763C82.0647 46.0982 85.8097 48.2087 88.7256 51.2445ZM42.1132 27.4029L37.9785 31.3591L43.7642 37.353L47.8989 33.3967C48.8355 32.4753 49.9454 31.7486 51.1644 31.2586C52.3834 30.7686 53.6875 30.525 55.0012 30.5418C56.315 30.5586 57.6123 30.8356 58.8184 31.3567C60.0245 31.8778 61.1154 32.6327 62.0281 33.5778C62.9408 34.5229 63.6571 35.6395 64.1358 36.863C64.6145 38.0865 64.846 39.3928 64.817 40.7063C64.788 42.0198 64.499 43.3146 63.9668 44.5158C63.4345 45.717 62.6695 46.8008 61.716 47.7047L57.611 51.6312L63.3967 57.6251L67.5017 53.6986C74.7598 46.6933 74.968 35.0774 67.9776 27.8342C60.9873 20.591 49.3862 20.3827 42.1132 27.4029Z" fill="#3095B4"/>
<path d="M36.6848 35.7317L93.6787 94.8821L87.6848 100.668L78.6866 91.3572L69.7924 99.939C67.7552 101.914 65.3478 103.466 62.7086 104.508C60.0694 105.549 57.2504 106.059 54.4136 106.007H54.3988C50.1329 105.927 45.9868 104.583 42.4846 102.146C38.9823 99.7092 36.2812 96.2886 34.7227 92.3169C33.1643 88.3451 32.8184 84.0004 33.7289 79.8321C34.6394 75.6638 36.7653 71.859 39.838 68.8988L45.7872 63.1875L51.5877 69.1665L45.6236 74.8927C43.7321 76.7057 42.4217 79.0398 41.8588 81.5988C41.2958 84.1578 41.5057 86.8263 42.4617 89.2658C43.4178 91.7053 45.0769 93.8059 47.2286 95.301C49.3804 96.7961 51.9277 97.6183 54.5475 97.6634H54.5624C56.3054 97.6978 58.0379 97.3854 59.6592 96.7446C61.2805 96.1037 62.7583 95.1471 64.0068 93.9303L72.8861 85.3336L36.6848 47.8087V35.7317Z" fill="#025172"/>
</svg>
