<svg width="128" height="128" viewBox="0 0 128 128" fill="none" xmlns="http://www.w3.org/2000/svg">
<rect width="128" height="128" fill="#F0F2F4"/>
<path d="M88.7259 51.1056C90.6928 53.1466 92.2384 55.5551 93.2745 58.1935C94.3106 60.8318 94.8168 63.6484 94.7643 66.4825C94.7118 69.3165 94.1017 72.1124 92.9686 74.7107C91.8355 77.3089 90.2018 79.6584 88.1607 81.6253L87.4319 82.2945L81.6017 76.3453L82.3751 75.6314C83.6292 74.4244 84.6333 72.9823 85.33 71.3872C86.0267 69.7922 86.4023 68.0755 86.4355 66.3353C86.4686 64.595 86.1586 62.8653 85.5232 61.2448C84.8877 59.6244 83.9393 58.1451 82.732 56.8912C81.3339 55.4337 79.802 54.3479 77.9577 53.6638V45.0373C82.0649 45.9593 85.8099 48.0697 88.7259 51.1056ZM42.1135 27.264L37.9788 31.2202L43.7644 37.2141L47.8991 33.2578C48.8357 32.3364 49.9456 31.6097 51.1646 31.1197C52.3837 30.6297 53.6877 30.3861 55.0015 30.4029C56.3152 30.4197 57.6126 30.6967 58.8187 31.2178C60.0248 31.7389 61.1157 32.4938 62.0283 33.4389C62.941 34.384 63.6574 35.5005 64.1361 36.7241C64.6148 37.9476 64.8463 39.2539 64.8173 40.5674C64.7883 41.8809 64.4993 43.1757 63.967 44.3769C63.4348 45.5781 62.6698 46.6619 61.7163 47.5658L57.6113 51.4923L63.3969 57.4862L67.5019 53.5597C74.76 46.5544 74.9682 34.9385 67.9779 27.6953C60.9875 20.4521 49.3865 20.2438 42.1135 27.264Z" fill="#3095B4"/>
<path d="M36.6848 35.5928L93.6787 94.7432L87.6848 100.529L78.6866 91.2183L69.7924 99.8001C67.7552 101.775 65.3478 103.328 62.7086 104.369C60.0694 105.41 57.2504 105.92 54.4136 105.868H54.3988C50.1329 105.788 45.9868 104.444 42.4846 102.007C38.9823 99.5702 36.2812 96.1497 34.7227 92.1779C33.1643 88.2062 32.8184 83.8615 33.7289 79.6932C34.6394 75.5248 36.7653 71.7201 39.838 68.7599L45.7872 63.0486L51.5877 69.0276L45.6236 74.7537C43.7321 76.5668 42.4217 78.9009 41.8588 81.4599C41.2958 84.0189 41.5057 86.6874 42.4617 89.1269C43.4178 91.5664 45.0769 93.6669 47.2286 95.162C49.3804 96.6571 51.9277 97.4794 54.5475 97.5245H54.5624C56.3054 97.5588 58.0379 97.2465 59.6592 96.6057C61.2805 95.9648 62.7583 95.0082 64.0068 93.7913L72.8861 85.1947L36.6848 47.6698V35.5928Z" fill="#025172"/>
</svg>
