<svg width="128" height="128" viewBox="0 0 128 128" fill="none" xmlns="http://www.w3.org/2000/svg">
<rect width="128" height="128" fill="#EEEEEE"/>
<path d="M118.474 71.2533C114.731 71.1972 110.987 71.2533 107.257 71.2239C106.414 71.1869 105.587 71.461 104.933 71.994C103.229 73.3525 101.457 74.6146 99.6917 75.8982C99.4243 76.0987 99.1034 76.4838 98.7584 76.2619C98.3199 75.9945 98.6407 75.5185 98.7584 75.1708C99.0258 74.2349 99.3654 73.299 99.7104 72.3951C100.005 71.617 99.8548 71.2694 98.9402 71.2212L96.333 71.2052L96.3544 50.3019H98.0418C101.518 50.342 104.994 50.3179 108.457 50.3179C111.795 50.3179 115.143 50.3553 118.472 50.2965H120.202L120.151 71.2426L118.474 71.2533ZM105.708 64.4745C105.708 65.3195 105.708 66.1672 105.708 67.0122C105.727 67.654 105.871 68.1888 106.674 68.1888C107.513 68.1888 107.561 67.6139 107.564 67.0015C107.564 65.4398 107.586 63.8809 107.564 62.3219C107.564 61.41 107.743 60.7174 108.853 60.7174C109.292 60.7174 109.631 60.5142 109.655 60.0061C109.671 59.9052 109.664 59.802 109.635 59.7042C109.605 59.6064 109.554 59.5166 109.485 59.4415C109.416 59.3664 109.33 59.3079 109.235 59.2704C109.14 59.233 109.038 59.2175 108.936 59.2253C107.294 59.2253 107.564 58.0326 107.599 57.0379C107.631 55.9682 108.104 55.2248 109.289 55.2302C109.784 55.2302 110.19 55.2302 110.206 54.5938C110.222 54.0028 109.939 53.706 109.364 53.5883C107.933 53.2942 106.406 54.19 106.051 55.6206C105.881 56.4037 105.77 57.1983 105.719 57.9979C105.668 58.5648 105.559 58.9739 104.954 59.2547C104.099 59.6478 104.08 60.2976 104.93 60.6987C105.596 61.0116 105.711 61.4715 105.708 62.0812C105.706 62.8701 105.708 63.6723 105.708 64.4745ZM112.099 63.7498C112.099 64.8605 112.099 65.9711 112.099 67.0817C112.099 67.7422 112.287 68.2102 113.078 68.1915C113.805 68.1754 113.955 67.7262 113.955 67.1218C113.955 66.3196 113.955 65.5174 113.955 64.7152C113.955 61.9288 113.955 61.9154 116.589 60.9474C116.849 60.8723 117.07 60.6995 117.205 60.4651C117.34 60.2307 117.379 59.9531 117.314 59.6906C117.204 59.0113 116.605 59.1558 116.135 59.1825C115.596 59.2339 115.1 59.4952 114.752 59.9098C114.394 60.3003 114.113 60.3832 113.928 59.7574C113.744 59.1317 113.223 59.1584 112.728 59.244C112.156 59.3429 112.105 59.8109 112.099 60.2682C112.094 61.4394 112.099 62.5946 112.099 63.7498Z" fill="#1E90D8"/>
<path d="M21.7189 63.1518C21.7238 62.2689 21.7287 61.3861 21.7287 60.5035C21.7287 59.8404 21.729 59.1772 21.7292 58.5138C21.7302 56.1917 21.7311 53.868 21.7207 51.5426C21.7207 51.4685 21.7232 51.3924 21.7258 51.3155C21.7411 50.8572 21.7572 50.3719 21.242 50.12C20.1751 49.5959 18.1829 50.8875 18.1829 52.1042C18.1792 54.0733 18.1812 56.0417 18.1831 58.0098C18.1868 61.8361 18.1905 65.6609 18.1535 69.4858C18.1428 70.8388 18.7872 71.0046 19.897 71.0046C21.0067 71.0046 21.7875 70.911 21.7501 69.459C21.6955 67.3573 21.7072 65.2543 21.7189 63.1518Z" fill="#2B2B2B"/>
<path d="M11.5726 60.5033C11.5726 61.3736 11.5678 62.2442 11.563 63.1148C11.5514 65.2296 11.5398 67.3449 11.5966 69.4588C11.6341 70.9135 10.8506 70.9991 9.74083 71.0044C8.63108 71.0098 8 70.8279 8 69.4856C8.03318 65.7031 8.02987 61.9207 8.02655 58.1367C8.02479 56.1263 8.02303 54.1155 8.02674 52.104C8.02674 50.89 10.0163 49.6037 11.0859 50.1252C11.6006 50.3757 11.5858 50.8571 11.5717 51.3132C11.5693 51.3926 11.5668 51.4713 11.5672 51.5478C11.577 53.718 11.5754 55.8882 11.5738 58.0594C11.5732 58.8736 11.5726 59.6887 11.5726 60.5033Z" fill="#2B2B2B"/>
<path fill-rule="evenodd" clip-rule="evenodd" d="M43.8835 60.6506C43.8835 58.3669 44.0681 56.1233 45.1163 54.0215C46.5068 51.2538 48.6915 49.9221 51.7774 50.0692C54.8633 50.2163 57.2032 51.8769 58.0829 54.7783C59.3237 58.8295 59.3424 62.9476 57.9252 66.9801C55.957 72.5583 49.0659 72.4593 46.4266 69.4322C44.6644 67.4133 44.0627 64.8863 43.8916 62.255C43.8656 61.8855 43.8718 61.5134 43.8781 61.1415C43.8808 60.9779 43.8835 60.8139 43.8835 60.6506ZM47.6861 60.9821C47.6104 61.6674 47.7298 62.4432 47.8541 63.2506C47.9098 63.6121 47.9665 63.9799 48.007 64.3488C48.0577 64.7461 48.1473 65.1375 48.2744 65.5174C48.7718 67.0791 50.0099 68.0203 51.51 67.9989C53.1466 67.9749 53.9755 67.3037 54.4702 65.4719C55.2818 62.446 55.314 59.264 54.5638 56.2223C54.1173 54.329 53.3231 53.6017 51.5983 53.5482C49.7959 53.4947 48.7905 54.1926 48.2771 56.003C47.8381 57.625 47.639 59.3025 47.6861 60.9821Z" fill="#2B2B2B"/>
<path fill-rule="evenodd" clip-rule="evenodd" d="M75.582 66.7876C76.2987 64.782 76.7346 62.7765 76.6009 60.6372C76.5854 60.3269 76.5794 60.0151 76.5733 59.7036C76.5594 58.9897 76.5456 58.2776 76.419 57.5887C76.1998 56.4971 75.8958 55.4242 75.5098 54.3798C74.6087 51.7245 72.2287 50.1468 69.092 50.0665C66.0757 49.9863 63.6797 51.4891 62.6475 54.1151C60.9401 58.2764 60.9267 62.9401 62.61 67.1111C63.7171 69.959 66.0329 71.5421 69.1321 71.4806C72.2314 71.4191 74.5445 69.6809 75.582 66.7876ZM71.8731 55.3265C72.5386 56.9497 72.8337 58.701 72.7368 60.4527C72.7609 62.6428 72.6138 64.5708 71.7206 66.3945C71.1912 67.4828 70.413 67.9989 69.2043 68.0177C67.9956 68.0364 66.9929 67.7449 66.458 66.5603C64.7279 62.7417 64.8536 58.8937 66.3324 55.0617C66.8351 53.7621 68.0144 53.492 69.3193 53.5428C70.5788 53.591 71.3971 54.1793 71.8731 55.3265Z" fill="#2B2B2B"/>
<path fill-rule="evenodd" clip-rule="evenodd" d="M38.5889 59.2493C39.6505 58.3508 39.9607 57.1101 39.9607 55.773C39.9795 52.4117 37.6236 50.1227 33.8906 50.0959C31.3609 50.0799 29.1601 50.8875 27.8846 53.3503C26.7401 55.5992 27.2749 57.5994 28.8178 59.3911C29.2898 59.927 29.0396 60.1191 28.7409 60.3485C28.6775 60.3973 28.6118 60.4477 28.5504 60.5035C27.9218 61.0552 27.4142 61.7311 27.0595 62.4885C26.7048 63.246 26.5106 64.0686 26.4893 64.9048C26.4679 65.7409 26.6198 66.5724 26.9354 67.3469C27.251 68.1215 27.7235 68.8224 28.3231 69.4055C30.5292 71.5688 33.206 71.7935 36.0325 71.0848C38.5568 70.4725 40.1292 68.8199 40.763 66.3303C41.3833 63.9103 40.4875 61.9528 38.5889 60.4473C37.9605 59.9473 38.0541 59.6932 38.5889 59.2493ZM33.4707 61.5972C35.6394 61.5571 37.177 62.9128 37.1931 64.8783C37.2091 66.8892 35.7517 68.2289 33.5376 68.2289C31.5481 68.2289 30.2886 66.9988 30.2618 65.02C30.2458 62.9342 31.4518 61.6319 33.4707 61.5972ZM36.3775 55.7088C36.3587 57.1154 35.0351 58.3642 33.5857 58.3455C33.2315 58.3389 32.8822 58.2621 32.5579 58.1194C32.2337 57.9767 31.9411 57.771 31.697 57.5142C31.4529 57.2575 31.2623 56.9548 31.1362 56.6237C31.0101 56.2927 30.951 55.9399 30.9624 55.5858C30.9855 54.8916 31.2826 54.2349 31.7888 53.7592C32.295 53.2836 32.969 53.0279 33.6633 53.0481C35.233 53.0535 36.3989 54.1953 36.3775 55.7088Z" fill="#2B2B2B"/>
<path fill-rule="evenodd" clip-rule="evenodd" d="M92.9931 67.3866C93.9772 65.2474 94.1831 63.0332 94.2232 61.5036C94.2446 58.8296 94.1403 56.9176 93.4932 55.0858C92.4289 52.0909 90.41 50.2297 87.1101 50.0933C84.2703 49.9783 81.7753 50.8688 80.5907 53.5857C78.5343 58.2947 78.5771 63.1081 80.6308 67.8252C81.778 70.4618 84.0751 71.478 86.8053 71.4486C89.6799 71.4165 91.7497 70.0821 92.9931 67.3866ZM89.7842 55.8667C90.2307 57.558 90.4412 59.3028 90.41 61.0517C90.4012 61.1833 90.3929 61.3178 90.3843 61.4548L90.3842 61.4559C90.3036 62.7499 90.2087 64.2713 89.6986 65.7314C89.1157 67.408 88.2867 67.999 86.6689 67.999C85.0992 67.9856 84.1446 67.3011 83.6766 65.6699C82.7187 62.4088 82.7364 58.9387 83.7274 55.6875C84.2328 54.0135 85.003 53.5242 86.7973 53.5482C88.4044 53.5723 89.351 54.2622 89.7842 55.8667Z" fill="#2B2B2B"/>
<path fill-rule="evenodd" clip-rule="evenodd" d="M84.1259 77.9813L83.1097 76.2378H82.4385V77.9813H81.8796V73.7028H83.2568C83.5378 73.6947 83.8168 73.7515 84.0724 73.8686C84.283 73.971 84.4575 74.1352 84.5724 74.3392C84.6846 74.5342 84.7419 74.756 84.7382 74.981C84.7476 75.274 84.6494 75.5603 84.4622 75.7859C84.275 76.0115 84.0118 76.1608 83.7221 76.2057L84.7917 77.992L84.1259 77.9813ZM82.4385 75.7912H83.2568C83.3792 75.8008 83.5024 75.7858 83.619 75.7472C83.7356 75.7087 83.8434 75.6473 83.936 75.5666C84.0127 75.4881 84.0724 75.3946 84.1115 75.292C84.1506 75.1895 84.1682 75.08 84.1633 74.9703C84.1699 74.8623 84.1533 74.7541 84.1145 74.6531C84.0758 74.5521 84.0158 74.4606 83.9387 74.3847C83.746 74.2314 83.5023 74.1569 83.2568 74.1761H82.4385V75.7912Z" fill="black"/>
<path d="M49.1809 77.5267H47.6888V73.7028H47.1326V77.9813H49.1809V77.5267Z" fill="black"/>
<path d="M52.0821 73.7162H51.4644L51.4243 75.1174H51.7586L52.0821 73.7162Z" fill="black"/>
<path fill-rule="evenodd" clip-rule="evenodd" d="M56.3073 77.032H54.4355L54.0932 77.9813H53.5049L55.0639 73.7402H55.7057L57.2406 77.9813H56.6523L56.3073 77.032ZM56.1496 76.5801L55.3794 74.4408L54.6093 76.5801H56.1496Z" fill="black"/>
<path d="M62.0432 77.9813H62.5994V73.7108H62.0432V77.0908L59.805 73.7028H59.2488V77.9813H59.805V74.5852L62.0432 77.9813Z" fill="black"/>
<path d="M68.5039 77.9813H67.9477L65.7095 74.5852V77.9813H65.1506V73.7028H65.7095L67.9477 77.0908V73.7108H68.5039V77.9813Z" fill="black"/>
<path d="M71.6003 76.4143V73.7162H71.0227V76.409C71.0123 76.7211 71.0852 77.0303 71.234 77.3048C71.366 77.538 71.5668 77.7248 71.8089 77.8396C72.0646 77.9576 72.3429 78.0187 72.6245 78.0187C72.9061 78.0187 73.1844 77.9576 73.4401 77.8396C73.6829 77.7238 73.8851 77.5374 74.0204 77.3048C74.1701 77.0305 74.2439 76.7213 74.2343 76.409V73.7162H73.6754V76.4143C73.6897 76.5659 73.6734 76.7188 73.6275 76.864C73.5815 77.0091 73.5069 77.1436 73.408 77.2593C73.1909 77.4375 72.9187 77.5349 72.6379 77.5349C72.357 77.5349 72.0848 77.4375 71.8677 77.2593C71.7695 77.1432 71.6952 77.0087 71.6493 76.8636C71.6034 76.7186 71.5868 76.5659 71.6003 76.4143Z" fill="black"/>
<path fill-rule="evenodd" clip-rule="evenodd" d="M78.7749 77.032H76.903L76.5607 77.9813H75.9751L77.5261 73.7402H78.1678L79.7028 77.9813H79.1305L78.7749 77.032ZM78.6144 76.5801L77.8443 74.4408L77.0741 76.5801H78.6144Z" fill="black"/>
<path d="M80.9329 77.9947V73.7162H80.3767V77.9947H80.9329Z" fill="black"/>
<path d="M86.1553 75.5933V74.1707L87.8935 74.1627V73.7028H85.5991V77.9813H87.8935V77.5214H86.1553V76.0533H87.709V75.5933H86.1553Z" fill="black"/>
</svg>
