<svg width="128" height="128" viewBox="0 0 128 128" fill="none" xmlns="http://www.w3.org/2000/svg">
<rect width="128" height="128" fill="#353C4C"/>
<path d="M70.3704 109.667H70.0702C69.9465 109.771 69.8027 109.849 69.6477 109.895C69.4927 109.941 69.3299 109.954 69.1695 109.934C67.4581 109.865 65.7467 109.958 64.0384 109.998C62.5732 110.028 61.1201 109.769 59.6579 109.925C59.5081 109.947 59.3554 109.935 59.2109 109.89C59.0665 109.844 58.934 109.767 58.8233 109.664H58.6762C58.023 109.536 57.36 109.465 56.6946 109.451C55.6077 109.451 54.5929 109.084 53.5571 108.85C46.4989 107.173 39.9296 103.87 34.3729 99.2028C28.8163 94.5355 24.4259 88.6335 21.5518 81.9673C20.2658 79.0096 19.3102 75.9188 18.7026 72.751C18.3595 70.8266 18.1249 68.8843 18 66.9334L18 60.1843C18.1922 58.8561 18.1411 57.5099 18.3573 56.1817C19.9205 46.6631 24.3796 37.8588 31.1264 30.9701C34.3288 27.6919 38.0096 24.9188 42.043 22.7455C47.4323 19.793 53.359 17.9537 59.4718 17.3366C60.8859 17.2254 62.303 17.1442 63.7171 17C64.2486 17 64.777 17 65.3084 17C66.8096 17.0962 68.3378 17.1773 69.848 17.3696C70.5325 17.4568 71.2231 17.4568 71.8866 17.7482C72.3039 17.9315 72.8143 17.7813 73.2857 17.8684C79.9589 19.1479 86.2727 21.8697 91.7863 25.8436C97.2957 29.8158 101.873 34.9433 105.198 40.8684C107.261 44.4981 108.805 48.3995 109.786 52.4585C110.167 54.0512 110.611 55.6588 110.59 57.3296C111.041 58.1259 111.005 59.0094 110.993 59.8658C110.956 62.3238 110.956 64.7799 110.993 67.2339C111.008 68.0964 111.044 68.9798 110.584 69.7701C110.377 70.2629 110.494 70.7948 110.416 71.3087C109.215 79.3379 105.882 86.4146 100.866 92.725C98.1816 96.1218 95.0156 99.1073 91.4681 101.587C87.6277 104.305 83.3972 106.423 78.9212 107.87C77.0126 108.498 75.0649 109 73.0906 109.373C72.1898 109.511 71.2681 109.496 70.3704 109.667Z" fill="#FEFEFE"/>
<path d="M76.9423 91.6621C77.6704 91.7072 78.3956 91.7793 79.1237 91.7854C79.6404 91.7854 79.592 92.086 79.6041 92.4317C79.6162 92.7775 79.5709 93.033 79.1267 92.9789C79.0261 92.9729 78.9252 92.9729 78.8246 92.9789C69.3374 92.9789 59.8502 92.9789 50.363 92.9789C50.0005 92.9789 49.517 93.1593 49.5291 92.4648C49.5291 91.9958 49.656 91.8094 50.1636 91.7854C52.0218 91.6982 53.8799 91.608 55.6777 91.0548C57.8742 90.3783 58.7655 89.2209 58.7655 86.945C58.7655 71.3956 58.7655 55.8463 58.7655 40.2969C58.7655 39.6024 58.5812 39.395 57.8863 39.4311C56.9799 39.4882 56.0735 39.4311 55.1852 39.6205C54.7924 39.7648 54.3724 39.7948 53.9766 39.9211C51.2876 40.787 49.3116 42.6269 47.541 44.6954C44.713 48.0025 42.589 51.7846 40.5918 55.6328C40.2232 56.3514 39.77 56.2071 39.2413 56.1229C38.9089 56.0688 39.0146 55.7892 39.0207 55.5757C39.065 53.6796 39.1133 51.7826 39.1657 49.8845C39.2624 46.2407 39.3984 42.5939 39.4316 38.947C39.4679 38.0752 39.8002 38 40.5042 38C54.4026 38.018 68.3011 38.018 82.1995 38C84.4384 38 86.6802 38.015 88.9191 38C89.4358 38 89.605 38.1353 89.611 38.6704C89.6714 43.141 89.7621 47.6116 89.8527 52.0822C89.8739 53.1555 89.9494 54.2288 89.9736 55.3021C89.9736 55.6178 90.1458 56.0537 89.611 56.1409C89.1427 56.2221 88.7257 56.3123 88.4206 55.714C86.9657 52.8048 85.309 50 83.4625 47.32C81.8913 45.0802 80.1661 42.9757 77.9091 41.3582C75.8153 39.855 73.4737 39.3078 70.9327 39.4431C70.5792 39.4611 70.4251 39.5784 70.4432 39.9271C70.4432 40.1286 70.4432 40.327 70.4432 40.5284C70.4432 55.9305 70.4886 71.3325 70.404 86.7315C70.3858 89.8702 72.0899 90.7902 74.1928 91.2412C75.0992 91.4546 76.0389 91.4516 76.9423 91.6621Z" fill="#121C24"/>
</svg>
