<svg width="128" height="128" viewBox="0 0 128 128" fill="none" xmlns="http://www.w3.org/2000/svg">
<rect width="128" height="128" fill="#0B2435"/>
<path fill-rule="evenodd" clip-rule="evenodd" d="M64.0257 105C61.1344 105.006 58.2858 104.289 55.7294 102.913C60.4246 101.257 67.8298 97.5028 68.3918 90.1741C68.9702 82.6241 67.7905 75.9732 67.0291 72.6529C74.9716 74.017 81.0052 80.6706 81.0052 88.6914C81.0052 97.6984 73.4033 105 64.0257 105ZM62.5702 85.2321C61.9793 90.0299 53.3181 92.9296 48.0811 94.2544C47.4018 92.481 47.0509 90.5949 47.046 88.6914C47.046 79.8572 54.3641 72.6813 63.4931 72.4087C63.4077 75.1541 63.177 80.3087 62.5702 85.2321Z" fill="white"/>
<path fill-rule="evenodd" clip-rule="evenodd" d="M54.8077 74.1119C54.8268 73.2516 54.8077 62.4991 54.8077 62.4991H50.9267L54.8077 58.5454V50.6378H59.6591V52.6146L63.5402 49.65L76.1536 62.4991H73.2429C73.2429 62.4991 73.1872 72.9369 73.2093 74.0512C70.1729 72.0766 66.4509 71.5427 66.4509 71.5427V63.4871H61.5996V71.6908C61.5996 71.6908 57.855 71.8764 54.8077 74.1119Z" fill="white"/>
<path fill-rule="evenodd" clip-rule="evenodd" d="M48.1613 81.0306C47.3068 78.7402 38.3132 48.6614 38.3132 48.6614L61.4543 41.7426L63.1767 48.8773L60.3386 51.0343L60.2408 49.946H54.1283V58.1497L49.2764 63.1913H53.9823V74.5078C51.5989 76.2245 49.6123 78.4507 48.1613 81.0306Z" fill="white"/>
<path fill-rule="evenodd" clip-rule="evenodd" d="M63.5403 34.8247L88.7673 39.7662C88.7673 39.7662 80.177 80.5669 80.0348 81.2787C78.2716 77.3909 74.0819 74.6437 74.0819 74.6437L74.0673 63.1915H77.9008L63.9278 48.8098L62.1327 41.6427L63.5403 34.8247ZM77.3679 24L80.4241 24.5442L78.7744 32.4517L75.863 31.9075L77.3679 24ZM70.0415 31.3152L69.2165 35.269L83.771 38.086L84.5959 34.1323L70.0415 31.3152Z" fill="white"/>
</svg>
