<svg width="128" height="129" viewBox="0 0 128 129" fill="none" xmlns="http://www.w3.org/2000/svg">
<rect width="128" height="128" transform="translate(0 0.111328)" fill="#FFE000"/>
<path d="M80.5095 71.7006C73.0406 71.7006 65.5718 71.7006 58.0989 71.7006C56.4527 71.7006 56.4202 71.6641 56.4202 70.0306C56.4202 66.0016 56.4567 61.9725 56.3959 57.9435C56.3797 56.8085 56.7649 56.5086 57.8637 56.5126C67.737 56.5491 77.6103 56.537 87.4837 56.5207C87.9945 56.5207 88.5054 56.314 89.0163 56.2046C88.8663 55.629 88.7852 55.0251 88.5582 54.4779C88.104 53.3916 87.6093 52.3174 87.0579 51.2798C85.5617 48.4667 83.66 45.9658 81.1582 43.9715C79.3579 42.5407 77.5293 41.122 75.3437 40.2992C73.7259 39.6912 72.0837 39.1399 70.4578 38.5563C67.1694 37.3808 63.7715 37.7294 60.4182 37.9766C58.7882 38.0942 57.1744 38.6576 55.589 39.1399C54.251 39.5493 52.921 40.0357 51.6762 40.664C50.5328 41.2396 49.511 42.0502 48.4284 42.7474C45.4684 44.6525 43.3113 47.3561 41.3934 50.2056C40.3635 51.7337 39.8891 53.6226 39.1065 55.325C37.0791 59.731 37.7806 64.3883 37.9103 68.9686C37.9428 70.1684 38.5753 71.3682 39.0051 72.5396C39.4309 73.707 39.885 74.8744 40.4446 75.9809C41.0649 77.2172 41.6813 78.494 42.549 79.556C43.9884 81.3152 45.4846 83.0784 47.2119 84.5416C49.1825 86.2116 51.3762 87.5979 53.8658 88.522C56.8095 89.6124 59.7614 90.496 62.9281 90.4636C63.6093 90.4555 63.8445 90.7879 63.8404 91.4121C63.8404 95.8465 63.8404 100.285 63.8404 104.719C63.8404 105.469 63.5566 105.769 62.7619 105.676C60.7548 105.437 58.7071 105.421 56.7325 105.027C54.6443 104.61 52.5966 103.921 50.5733 103.232C48.9068 102.664 47.2403 102.04 45.6873 101.233C43.7857 100.244 41.8962 99.1743 40.1891 97.8975C37.9468 96.2194 35.7492 94.4359 33.7786 92.4538C31.3295 89.9853 29.1845 87.229 27.7046 84.0309C26.8085 82.0934 25.8799 80.1681 25.1014 78.186C24.3959 76.3822 23.8769 74.5055 23.2727 72.6612C23.2484 72.5923 23.2322 72.5194 23.22 72.4464C22.4902 68.2958 22.1982 64.1046 22.6037 59.9134C22.8226 57.6476 23.2687 55.3736 23.9053 53.1848C24.5216 51.0649 25.4339 49.022 26.3503 47.0035C27.1896 45.1592 28.0533 43.2906 29.1724 41.6165C31.4755 38.1793 33.9489 34.8555 37.3751 32.4032C39.2808 31.0373 41.1176 29.5699 43.1085 28.3418C44.7264 27.3447 46.5023 26.5867 48.254 25.8206C49.7178 25.1802 51.2261 24.6208 52.7467 24.1344C53.8941 23.7696 55.0822 23.4859 56.2743 23.3156C60.0371 22.7846 63.8242 22.2131 67.6154 22.74C70.3199 23.1129 73.0163 23.6966 75.6357 24.4708C78.2388 25.241 80.8501 26.1449 83.2545 27.3892C86.6119 29.1241 89.7543 31.2643 92.4061 34.0165C93.8496 35.5122 95.3742 36.9552 96.6149 38.6089C98.0341 40.4978 99.2383 42.561 100.426 44.612C101.331 46.1766 102.089 47.8303 102.855 49.4679C103.188 50.1772 103.399 50.9433 103.642 51.6932C103.877 52.4106 104.116 53.124 104.291 53.8577C104.55 54.948 104.83 56.0424 104.964 57.1531C105.231 59.3743 105.576 61.6037 105.58 63.829C105.584 66.0907 105.272 68.3606 104.964 70.6062C104.907 71.0156 104.242 71.4128 103.78 71.6722C103.496 71.8303 103.058 71.7209 102.685 71.7249C95.289 71.7249 87.8932 71.7249 80.4973 71.7249L80.5095 71.7006Z" fill="#404040"/>
</svg>
