<svg width="128" height="128" viewBox="0 0 128 128" fill="none" xmlns="http://www.w3.org/2000/svg">
<rect width="128" height="128" fill="white"/>
<path d="M24.2222 67.3858C24.2684 67.0349 24.2684 66.7776 24.2684 66.3566C24.2684 63.339 22.8599 60.3213 18.7728 60.3213C14.9166 60.3213 13 63.0349 13 66.8478C13 70.0292 14.7087 73 18.6573 73C22.398 73 23.7142 70.5672 24.1299 69.0935H20.8279C20.5046 69.8186 20.112 70.3801 18.7266 70.3801C17.0871 70.3801 16.3251 68.9063 16.3251 67.3858H24.2222ZM16.3944 65.3273C16.5329 63.8302 17.1795 62.7308 18.7497 62.7308C20.366 62.7308 20.9202 63.9238 20.9433 65.3273H16.3944Z" fill="#142F6A"/>
<path d="M26.5918 72.7193H29.9169V65.9823C29.9169 63.8302 30.702 63.0349 32.1105 63.0349C33.5883 63.0349 34.0271 64.0173 34.0271 65.3975V72.7193H37.3291V65.0232C37.3291 61.9822 35.782 60.3213 33.3805 60.3213C31.2792 60.3213 30.3094 61.3974 29.9169 62.1459C29.8938 61.7717 29.8476 60.9295 29.7783 60.602H26.5687C26.5918 61.5143 26.5918 62.6372 26.5918 63.6664V72.7193Z" fill="#142F6A"/>
<path d="M38.8764 63.1284H40.7236V69.4911C40.7236 71.6199 41.4856 72.883 43.8178 72.883C44.4875 72.883 45.388 72.883 46.0346 72.6491V70.3567C45.8037 70.3801 45.4804 70.3801 45.2957 70.3801C44.3027 70.3801 44.0257 70.0292 44.0257 69.1169V63.1284H46.3809V60.602H44.0257V57.3271H40.7236V60.602H38.8764V63.1284Z" fill="#142F6A"/>
<path d="M48.3067 72.7193H51.6318V67.4326C51.6318 64.1109 53.0634 63.4559 55.4649 63.5261V60.3213C53.4329 60.3447 52.1629 61.3506 51.6318 62.7308C51.6318 62.0758 51.5856 60.8828 51.5394 60.602H48.2836C48.3067 61.6313 48.3067 62.684 48.3067 63.9004V72.7193Z" fill="#142F6A"/>
<path d="M67.7208 67.3858C67.767 67.0349 67.767 66.7776 67.767 66.3566C67.767 63.339 66.3584 60.3213 62.2713 60.3213C58.4151 60.3213 56.4986 63.0349 56.4986 66.8478C56.4986 70.0292 58.2073 73 62.1559 73C65.8966 73 67.2128 70.5672 67.6284 69.0935H64.3264C64.0032 69.8186 63.6106 70.3801 62.2252 70.3801C60.5857 70.3801 59.8237 68.9063 59.8237 67.3858H67.7208ZM59.893 65.3273C60.0315 63.8302 60.6781 62.7308 62.2482 62.7308C63.8646 62.7308 64.4188 63.9238 64.4419 65.3273H59.893Z" fill="#142F6A"/>
<path d="M70.0673 72.7193H73.3924V60.602H70.0673V72.7193Z" fill="#BF2B1F"/>
<path d="M82.177 72.7193H85.5021V65.9823C85.5021 63.8302 86.2872 63.0349 87.6958 63.0349C89.1736 63.0349 89.6124 64.0173 89.6124 65.3975V72.7193H92.9144V65.0232C92.9144 61.9822 91.3673 60.3213 88.9658 60.3213C86.8645 60.3213 85.8947 61.3974 85.5021 62.1459C85.4791 61.7717 85.4329 60.9295 85.3636 60.602H82.154C82.177 61.5143 82.177 62.6372 82.177 63.6664V72.7193Z" fill="#BF2B1F"/>
<path d="M106.371 67.3858C106.417 67.0349 106.417 66.7776 106.417 66.3566C106.417 63.339 105.009 60.3213 100.922 60.3213C97.0655 60.3213 95.149 63.0349 95.149 66.8478C95.149 70.0292 96.8577 73 100.806 73C104.547 73 105.863 70.5672 106.279 69.0935H102.977C102.654 69.8186 102.261 70.3801 100.876 70.3801C99.2361 70.3801 98.4741 68.9063 98.4741 67.3858H106.371ZM98.5433 65.3273C98.6819 63.8302 99.3284 62.7308 100.899 62.7308C102.515 62.7308 103.069 63.9238 103.092 65.3273H98.5433Z" fill="#BF2B1F"/>
<path d="M107.495 63.1284H109.343V69.4911C109.343 71.6199 110.105 72.883 112.437 72.883C113.107 72.883 114.007 72.883 114.654 72.6491V70.3567C114.423 70.3801 114.099 70.3801 113.915 70.3801C112.922 70.3801 112.645 70.0292 112.645 69.1169V63.1284H115V60.602H112.645V57.3271H109.343V60.602H107.495V63.1284Z" fill="#BF2B1F"/>
<path d="M73.8607 57.1429C73.8607 58.3263 72.9113 59.2857 71.7401 59.2857C70.569 59.2857 69.6195 58.3263 69.6195 57.1429C69.6195 55.9594 70.569 55 71.7401 55C72.9113 55 73.8607 55.9594 73.8607 57.1429Z" fill="#BF2B1F"/>
<path d="M79.7983 70.6429C79.7983 71.8263 78.8489 72.7857 77.6778 72.7857C76.5066 72.7857 75.5572 71.8263 75.5572 70.6429C75.5572 69.4594 76.5066 68.5 77.6778 68.5C78.8489 68.5 79.7983 69.4594 79.7983 70.6429Z" fill="#BF2B1F"/>
</svg>
