<svg width="128" height="128" viewBox="0 0 128 128" fill="none" xmlns="http://www.w3.org/2000/svg">
<rect width="128" height="128" fill="#05193A"/>
<path d="M90.916 62.6377C90.916 64.3855 90.916 66.1334 90.916 67.8812C90.9084 70.1975 89.4105 71.7701 87.0973 71.9582C86.0504 72.0432 85.0249 72.0245 84.0334 71.6535C82.5414 71.0936 81.6912 70.0273 81.5303 68.4293C81.4929 68.0548 81.6308 67.8727 82.0163 67.9008C82.0597 67.9008 82.1014 67.9008 82.1474 67.9008C82.4657 67.9229 82.8172 67.8004 83.0946 67.9697C83.3959 68.1544 83.2376 68.5348 83.3168 68.8207C83.6172 69.9031 84.4351 70.3413 85.4496 70.4894C86.0864 70.5896 86.7366 70.5659 87.3645 70.4196C88.4956 70.1456 89.1969 69.2955 89.2292 68.1357C89.2445 67.6251 89.2428 67.1145 89.236 66.604C89.236 66.4678 89.3135 66.2789 89.1569 66.2066C89.0301 66.1487 88.9305 66.3087 88.8309 66.3844C87.4011 67.4702 85.807 67.5834 84.1772 67.032C82.6793 66.5214 81.8299 65.382 81.612 63.8282C81.435 62.53 81.4293 61.2143 81.595 59.9146C81.9108 57.3737 84.0274 55.8301 86.5594 56.2241C87.4573 56.3645 88.2862 56.6572 88.9824 57.2537C89.2581 57.4911 89.3313 57.3831 89.3773 57.0895C89.4105 56.8742 89.3033 56.5542 89.5986 56.4853C89.9825 56.3874 90.3854 56.3918 90.7671 56.4981C90.9884 56.5662 90.9118 56.824 90.9118 57.0027C90.9146 58.8799 90.916 60.7582 90.916 62.6377ZM89.2394 61.7706C89.2394 61.1009 89.2284 60.4312 89.2445 59.7623C89.2529 59.4546 89.1397 59.156 88.9296 58.9309C88.1832 58.0689 87.2275 57.6724 86.1015 57.7064C84.3066 57.7609 83.2768 58.8339 83.2708 60.6218C83.2708 61.4804 83.264 62.339 83.281 63.1976C83.2816 63.5413 83.3556 63.8809 83.4981 64.1936C83.6406 64.5064 83.8484 64.7851 84.1074 65.011C85.4291 66.2023 88.0777 65.8739 89.0684 64.3949C89.1898 64.2126 89.2511 63.9969 89.2437 63.778C89.236 63.1091 89.2394 62.4394 89.2394 61.7706Z" fill="#89AC37"/>
<path d="M60.7714 57.4401C61.6285 56.6373 62.7514 56.1783 63.9255 56.151C66.7034 56.042 68.3358 57.9975 68.4813 60.1232C68.5623 61.4448 68.5646 62.7701 68.4881 64.092C68.3724 66.3666 66.6158 68.0583 64.3366 68.1051C63.054 68.1315 61.9289 67.7647 60.9425 66.9521C60.7901 67.1129 60.848 67.2805 60.848 67.4312C60.842 68.6829 60.848 69.9355 60.8429 71.1881C60.8429 71.7131 60.7884 71.7684 60.2676 71.7676C59.0131 71.7676 59.1612 71.8757 59.1612 70.675C59.1572 66.1752 59.1572 61.6753 59.1612 57.1755C59.1612 56.4411 59.1612 56.4411 59.9161 56.442C59.9889 56.4458 60.0619 56.4458 60.1348 56.442C60.5357 56.3969 60.6948 56.5875 60.6803 56.9738C60.6735 57.1117 60.6437 57.2631 60.7714 57.4401ZM60.7569 62.1008C60.7569 62.7569 60.8114 63.4172 60.7433 64.0656C60.6582 64.9166 61.0582 65.4416 61.6974 65.885C62.1444 66.1903 62.6553 66.3894 63.191 66.467C65.3068 66.8074 66.78 65.5846 66.7945 63.4521C66.8013 62.4616 66.7988 61.4711 66.7868 60.4806C66.7881 59.8623 66.5755 59.2625 66.1851 58.7829C64.9757 57.2989 62.0072 57.4725 60.945 59.0816C60.811 59.2912 60.7448 59.5369 60.7552 59.7854C60.7612 60.5572 60.7569 61.329 60.7569 62.1008Z" fill="#89AC37"/>
<path d="M79.5118 63.5958C79.5118 64.9896 79.5118 66.1257 79.5118 67.2625C79.5118 67.7799 79.4556 67.8276 78.9271 67.8344C78.8539 67.8344 78.7807 67.8344 78.7075 67.8344C78.0675 67.8344 78.0573 67.8344 77.9637 67.2132C77.9177 66.9102 77.8786 66.7681 77.5611 67.0311C76.4547 67.9399 75.1543 68.1611 73.7747 68.0522C72.8078 67.9722 71.9142 67.7016 71.2155 66.9681C69.8308 65.5121 70.3465 62.9448 72.1848 62.1372C73.2061 61.6896 74.2955 61.5816 75.3798 61.4352C76.0607 61.3433 76.7415 61.2548 77.4224 61.1629C77.5977 61.1391 77.7628 61.111 77.8267 60.8957C78.0658 60.049 77.5926 58.6934 76.8717 58.1846C76.413 57.8604 75.8777 57.7642 75.3398 57.72C74.6675 57.6499 73.989 57.7709 73.3823 58.0689C72.618 58.4458 72.2095 59.0755 72.1678 59.9146C72.1483 60.3026 71.9823 60.4345 71.6231 60.4081C71.4929 60.3979 71.361 60.4081 71.2291 60.4081C70.4529 60.4081 70.3729 60.323 70.4869 59.541C70.6938 58.1182 71.5006 57.1362 72.8044 56.589C74.013 56.0785 75.2836 56.0436 76.5441 56.3678C78.2573 56.8086 79.2148 57.9684 79.4309 59.7546C79.5969 61.1153 79.4565 62.4853 79.5118 63.5958ZM77.7432 63.7609C77.7432 63.4988 77.7254 63.2358 77.7432 62.9763C77.7722 62.6427 77.6513 62.5338 77.3177 62.5857C76.5696 62.7006 75.8173 62.7933 75.0675 62.8963C74.3619 62.9925 73.6496 63.0478 72.9934 63.3762C72.3193 63.7166 71.9993 64.2451 72.0317 64.993C72.064 65.741 72.4844 66.1988 73.1432 66.4686C73.6497 66.6619 74.1952 66.7308 74.7338 66.6694C75.687 66.5973 76.5812 66.1801 77.2488 65.4959C77.7628 64.9871 77.7832 64.3948 77.7432 63.7609Z" fill="#89AC37"/>
<path d="M98.4284 62.7569C97.322 62.7569 96.2088 62.7713 95.0998 62.7492C94.6921 62.7415 94.5415 62.8904 94.5798 63.2844C94.6104 63.6018 94.5798 63.9295 94.6402 64.2401C94.9568 65.8518 96.4624 66.7742 98.2454 66.4678C98.7661 66.3926 99.2617 66.1959 99.6922 65.8935C100.132 65.5718 100.458 65.1701 100.532 64.617C100.58 64.2852 100.748 64.1243 101.091 64.149C101.235 64.1592 101.382 64.149 101.528 64.149C102.258 64.149 102.346 64.2562 102.165 64.977C101.891 66.067 101.256 66.9052 100.268 67.4277C98.642 68.2872 96.9483 68.3289 95.293 67.5545C93.7296 66.8235 92.9874 65.4918 92.9287 63.8044C92.8844 62.5279 92.8334 61.243 92.9823 59.9649C93.2215 57.9575 94.9006 56.3534 96.9262 56.1858C98.0394 56.0939 99.1194 56.1781 100.108 56.7508C101.632 57.6367 102.235 59.0416 102.285 60.735C102.299 61.2149 102.291 61.6957 102.285 62.1765C102.285 62.71 102.239 62.7534 101.714 62.7551C100.618 62.7586 99.5229 62.756 98.4284 62.7569ZM97.6105 61.3613C98.4701 61.3613 99.3299 61.3613 100.19 61.3613C100.384 61.3613 100.583 61.3613 100.606 61.0915C100.702 59.9768 100.351 58.7148 99.3135 58.1396C98.2071 57.5278 97.0641 57.5312 95.9696 58.1243C94.8913 58.708 94.5568 59.7181 94.5781 60.8916C94.5849 61.2532 94.7211 61.3749 95.0743 61.3681C95.9194 61.3485 96.7654 61.3613 97.6105 61.3613Z" fill="#89AC37"/>
<path d="M108.587 56.0989C109.687 56.127 110.791 56.3244 111.743 57.0519C112.542 57.6629 112.894 58.4935 112.966 59.4678C112.986 59.7341 112.881 59.8882 112.595 59.8822C112.463 59.8822 112.332 59.8822 112.2 59.8822C111.426 59.8822 111.425 59.8822 111.215 59.1325C111.079 58.6432 110.806 58.2467 110.335 58.0484C109.124 57.5378 107.896 57.5072 106.681 58.0348C106.08 58.296 105.814 58.8006 105.82 59.4355C105.825 60.0592 106.113 60.5111 106.688 60.7859C107.494 61.1697 108.373 61.2488 109.228 61.4233C109.901 61.5611 110.578 61.6913 111.199 61.9943C112.234 62.4989 112.929 63.246 112.994 64.4731C113.066 65.8482 112.51 66.8881 111.287 67.4633C109.463 68.3211 107.578 68.3364 105.739 67.488C104.664 66.991 104.025 66.1137 103.887 64.9096C103.827 64.388 103.933 64.2561 104.465 64.2433C104.597 64.2433 104.729 64.2527 104.859 64.2433C105.313 64.2025 105.54 64.3437 105.584 64.8569C105.641 65.5597 106.094 66.0235 106.752 66.2499C107.864 66.6359 109.073 66.6467 110.191 66.2805C110.979 66.0312 111.314 65.5563 111.322 64.8118C111.331 63.9046 111.072 63.5183 110.215 63.2009C109.358 62.8835 108.428 62.7882 107.528 62.5925C106.87 62.4495 106.227 62.27 105.631 61.9441C103.758 60.9178 103.602 58.2535 105.339 57.0085C106.299 56.3201 107.383 56.115 108.587 56.0989Z" fill="#89AC37"/>
<path d="M15.0074 61.867C15.0287 61.3691 14.9495 60.6543 15.0712 59.9447C15.3589 58.2683 16.2219 57.0395 17.85 56.4209C19.1819 55.899 20.6565 55.8706 22.0075 56.3409C23.7727 56.9365 24.9574 58.5763 25.0152 60.4995C25.0357 61.1802 25.0042 61.8695 25.0297 62.5528C25.0442 62.9409 24.8944 63.0506 24.5191 63.0523C22.4467 63.0617 20.3743 63.0923 18.3062 63.1161C17.7564 63.1221 17.6985 63.1859 17.7674 63.7237C17.9121 64.8734 18.6832 65.5737 19.8509 65.6247C20.3615 65.6469 20.8722 65.6358 21.3548 65.4248C21.7573 65.2486 22.0935 64.9993 22.2509 64.5789C22.3429 64.333 22.5063 64.2386 22.7505 64.2386H24.5463C24.931 64.2386 25.0569 64.4087 24.9718 64.7925C24.6637 66.2025 23.8237 67.1752 22.5037 67.7019C20.9377 68.3282 19.3275 68.3529 17.7683 67.7019C15.9964 66.9616 15.0908 65.5694 15.0108 63.6591C14.9887 63.1306 15.0074 62.6056 15.0074 61.867ZM20.05 60.8075V60.8245C20.6901 60.8245 21.3267 60.8245 21.9709 60.8245C22.2092 60.8245 22.3565 60.7769 22.3233 60.4773C22.1948 59.3081 21.393 58.5823 20.1786 58.5585C18.7964 58.5321 17.9411 59.1822 17.7683 60.3812C17.7266 60.6739 17.804 60.8177 18.1283 60.8067C18.7683 60.7982 19.4092 60.8075 20.05 60.8075Z" fill="white"/>
<path d="M56.9209 62.0897C56.9099 62.8309 57.0009 63.5797 56.875 64.3132C56.5499 66.204 55.2162 67.5672 53.3285 67.9553C51.7115 68.2872 50.1532 68.157 48.7565 67.1996C47.5599 66.3802 46.9386 65.2084 46.8893 63.7652C46.8535 62.7177 46.8731 61.6685 46.8799 60.6209C46.8952 58.263 48.4723 56.4453 50.8076 56.0939C52.3277 55.865 53.7822 56.0224 55.0758 56.927C56.2418 57.743 56.7992 58.9148 56.9124 60.3001C56.9618 60.8924 56.9209 61.4932 56.9209 62.0897ZM54.2383 62.2973C54.2383 61.6821 54.2596 61.2294 54.2383 60.7784C54.1575 59.2994 53.3021 58.5463 51.7642 58.5761C50.4161 58.6025 49.5846 59.473 49.5685 60.8864C49.56 61.6293 49.5685 62.373 49.5685 63.1159C49.5736 64.6791 50.2902 65.4986 51.8425 65.5837C52.9541 65.6432 53.926 65.1871 54.1915 63.8375C54.2971 63.2648 54.2111 62.6956 54.2383 62.2973Z" fill="white"/>
<path d="M34.4623 67.1308C34.2734 67.2508 34.0947 67.3691 33.9125 67.4814C32.3057 68.471 29.9507 68.3145 28.5814 67.1129C27.6341 66.2815 27.2103 65.183 27.1881 63.9644C27.1439 61.5613 27.1762 59.1574 27.166 56.7543C27.166 56.3918 27.3184 56.2582 27.6656 56.2659C28.1907 56.2761 28.7167 56.2659 29.2426 56.2659C29.8554 56.2659 29.9048 56.3152 29.9056 56.9466C29.9056 58.9566 29.9056 60.9668 29.9056 62.9773C29.9056 63.1951 29.9056 63.4138 29.915 63.6325C29.9746 64.8783 30.8512 65.6748 32.0989 65.6033C32.5838 65.5846 33.0546 65.4343 33.4606 65.1685C34.0223 64.7958 34.304 64.3448 34.2878 63.6147C34.2376 61.3724 34.2691 59.1285 34.27 56.8853C34.27 56.3067 34.3117 56.2676 34.8938 56.265C35.4045 56.2616 35.9151 56.2616 36.4258 56.265C36.9364 56.2693 36.9985 56.3314 37.0053 56.8522C37.0139 57.5653 37.0105 58.2792 37.0122 58.9932C37.0167 61.7162 37.0207 64.4392 37.0241 67.1623C37.0241 67.8099 36.9968 67.8362 36.367 67.843C36.0606 67.843 35.7543 67.843 35.4479 67.843C34.6683 67.8464 34.6683 67.8464 34.4623 67.1308Z" fill="white"/>
<path d="M39.4579 62.0421C39.4579 60.3231 39.4579 58.6042 39.4579 56.8853C39.4579 56.2964 39.4962 56.2615 40.0732 56.2598C40.5405 56.2598 41.0094 56.2667 41.4749 56.2598C41.7541 56.2547 41.9303 56.3449 41.9328 56.6504C41.9328 56.8827 42.0103 56.9908 42.2477 56.8504C43.326 56.2173 44.515 56.2556 45.6997 56.2692C46.0469 56.2692 46.2052 56.4394 46.2027 56.7798C46.1984 57.275 46.1967 57.7703 46.2027 58.2655C46.2027 58.6195 46.0325 58.7446 45.6878 58.7497C45.0333 58.7599 44.3746 58.6723 43.7252 58.8348C43.4544 58.8964 43.1956 59.0022 42.9592 59.148C42.4673 59.4628 42.1728 59.8475 42.1839 60.5001C42.2205 62.7279 42.1984 64.9574 42.1967 67.1861C42.1967 67.7638 42.1464 67.8175 41.5813 67.8243C41.0707 67.8305 40.56 67.8305 40.0494 67.8243C39.5387 67.8183 39.463 67.746 39.4621 67.2388C39.4553 65.5046 39.4587 63.7712 39.4579 62.0421Z" fill="white"/>
</svg>
