<svg width="129" height="129" viewBox="0 0 129 129" fill="none" xmlns="http://www.w3.org/2000/svg">
<rect width="128" height="128" transform="translate(0.666504 0.277832)" fill="black"/>
<path d="M75.5486 67.3166C75.9658 67.3045 76.3712 67.4559 76.6783 67.7384C76.9855 68.021 77.1701 68.4124 77.1927 68.8291C77.183 69.2561 77.0046 69.6619 76.6965 69.9577C76.3884 70.2535 75.9757 70.4152 75.5486 70.4074C75.1519 70.4088 74.7691 70.2607 74.4767 69.9926C74.1842 69.7245 74.0034 69.356 73.9704 68.9606V68.8949C73.9676 68.6869 74.0066 68.4804 74.0849 68.2877C74.1633 68.0949 74.2794 67.9199 74.4265 67.7728C74.5736 67.6256 74.7487 67.5095 74.9414 67.4311C75.1342 67.3528 75.3406 67.3139 75.5486 67.3166Z" fill="#05BBDA"/>
<path d="M102.116 62.1212C103.563 59.7538 107.18 60.0826 108.035 62.187C108.89 60.7402 110.205 60.3456 111.783 60.5429C112.381 60.6012 112.946 60.8401 113.404 61.2278C113.863 61.6155 114.192 62.1336 114.348 62.7131C114.5 63.2489 114.588 63.8007 114.611 64.3571V69.8153C114.611 70.1442 114.545 70.2757 114.151 70.2757H112.572C112.244 70.2757 112.178 70.2099 112.178 69.8811V65.212C112.189 64.86 112.167 64.5077 112.112 64.1598C112.111 63.8195 111.992 63.49 111.777 63.2266C111.561 62.9631 111.262 62.7818 110.928 62.7131C110.532 62.6043 110.112 62.6291 109.731 62.7837C109.351 62.9382 109.032 63.2139 108.824 63.568C108.562 64.123 108.427 64.7297 108.429 65.3435V69.8153C108.429 70.2099 108.298 70.3414 107.969 70.2757H106.457C106.128 70.2757 105.996 70.2099 105.996 69.8811V64.3571C105.931 63.3049 105.47 62.7788 104.747 62.6473C104.277 62.5453 103.786 62.6154 103.364 62.8447C102.942 63.074 102.616 63.4473 102.445 63.8968C102.316 64.2781 102.249 64.6778 102.248 65.0805V69.8811C102.248 70.2099 102.182 70.3414 101.853 70.2757H100.275C99.9462 70.2757 99.8804 70.2099 99.8804 69.8811V61.069C99.8804 60.806 99.9462 60.7402 100.209 60.7402H101.853C102.116 60.7402 102.182 60.806 102.182 61.069C102.125 61.4167 102.103 61.7691 102.116 62.1212Z" fill="white"/>
<path d="M92.9754 70.5388C91.7144 70.5894 90.4806 70.1626 89.5203 69.3438C88.5599 68.5249 87.9436 67.3741 87.7942 66.1209C87.6448 64.8677 87.9734 63.6042 88.7143 62.5826C89.4552 61.5609 90.5541 60.8561 91.7917 60.6088C92.2686 60.5198 92.7555 60.4977 93.2385 60.543C95.7374 60.7403 97.513 62.1213 98.0391 64.2257C98.3805 65.4987 98.206 66.8549 97.5534 68C96.9009 69.1451 95.8229 69.9865 94.5537 70.3416C94.0377 70.4718 93.5076 70.5381 92.9754 70.5388ZM95.7374 65.4752C95.7513 65.1165 95.6942 64.7587 95.5694 64.4222C95.4445 64.0858 95.2544 63.7773 95.01 63.5145C94.7655 63.2517 94.4716 63.0398 94.145 62.891C93.8184 62.7422 93.4656 62.6594 93.1069 62.6474H92.9754C92.2442 62.6517 91.5442 62.9441 91.0271 63.4611C90.5101 63.9782 90.2177 64.6782 90.2134 65.4094V65.4752C90.1831 66.2065 90.4422 66.9203 90.9346 67.462C91.427 68.0036 92.113 68.3294 92.8439 68.3687H92.9754C93.334 68.3739 93.6902 68.3082 94.0233 68.1754C94.3565 68.0425 94.6601 67.8452 94.9168 67.5946C95.1735 67.3441 95.3781 67.0453 95.5189 66.7154C95.6597 66.3856 95.734 66.0311 95.7374 65.6725V65.4752Z" fill="white"/>
<path d="M20.7687 66.33H17.5464C17.2176 66.33 17.1518 66.4616 17.2176 66.7246C17.3418 67.1102 17.5522 67.4625 17.8329 67.7546C18.1136 68.0468 18.4571 68.2711 18.8375 68.4106C19.2179 68.55 19.625 68.601 20.028 68.5595C20.431 68.5181 20.8193 68.3853 21.1633 68.1714C21.398 68.0732 21.6023 67.9143 21.7552 67.711C22.1497 67.1849 22.4128 67.3822 22.8074 67.711C23.02 67.9225 23.264 68.1 23.5307 68.2371C23.9911 68.5002 23.9253 68.6975 23.5965 69.0263C22.5918 69.9412 21.2852 70.4538 19.9264 70.4659C18.5676 70.478 17.252 69.9889 16.2312 69.092C15.3159 68.1967 14.7774 66.9855 14.7258 65.7062C14.6741 64.4269 15.1133 63.1762 15.9535 62.21C16.7936 61.2439 17.9712 60.6353 19.2453 60.5087C20.5193 60.3822 21.7936 60.7473 22.8074 61.5294C23.663 62.32 24.2008 63.3956 24.3199 64.5545C24.3857 65.0148 24.3857 65.5409 24.4514 66.0012C24.5172 66.33 24.3199 66.3958 24.0568 66.3958C22.9389 66.33 21.8209 66.33 20.7687 66.33ZM17.1518 64.5545H21.4264C22.0182 64.5545 22.0182 64.4887 21.8867 63.9626C21.6236 62.8446 20.6372 62.2528 19.322 62.3185C18.7491 62.3606 18.2116 62.6115 17.8116 63.0237C17.4115 63.4358 17.1767 63.9806 17.1518 64.5545Z" fill="white"/>
<path d="M41.0893 66.3299H37.9327C37.5381 66.3299 37.5381 66.4614 37.6039 66.7903C37.826 67.4588 38.3025 68.013 38.9301 68.333C39.5578 68.653 40.2862 68.713 40.9577 68.5001C41.1663 68.4403 41.3655 68.3518 41.5496 68.237C41.8533 68.0718 42.1215 67.8483 42.3387 67.5794C42.6018 67.2506 42.7333 67.3164 42.9964 67.5794C43.3401 67.9003 43.7146 68.1866 44.1143 68.4343C44.3116 68.5658 44.3116 68.6974 44.1801 68.8946C43.6592 69.5009 42.996 69.9685 42.25 70.2554C41.504 70.5423 40.6984 70.6397 39.9056 70.5387C38.97 70.5322 38.0576 70.2473 37.2846 69.7202C36.5116 69.1932 35.9131 68.4479 35.5653 67.5794C35.1747 66.7353 35.0353 65.7967 35.1635 64.8755C35.2918 63.9543 35.6824 63.0895 36.2886 62.3842C37.0553 61.4872 38.1026 60.8757 39.2606 60.6489C40.4185 60.422 41.6192 60.5933 42.6676 61.1347C43.3233 61.5501 43.8651 62.1224 44.244 62.7998C44.623 63.4773 44.827 64.2385 44.8377 65.0147C44.9692 66.3957 44.9035 66.3957 43.5225 66.3957L41.0893 66.3299ZM41.9442 64.5543C42.3387 64.5543 42.3387 64.4228 42.273 64.094C42.0757 62.9103 41.2208 62.3184 39.8398 62.3184C39.2933 62.3156 38.7633 62.5051 38.3424 62.8538C37.9216 63.2025 37.6369 63.6881 37.5381 64.2255C37.4724 64.4886 37.6039 64.5543 37.8669 64.5543H41.9442Z" fill="white"/>
<path d="M48.9149 62.1213C50.2301 59.7538 53.9128 60.2142 54.8335 62.0555C55.1702 62.7767 55.3496 63.5613 55.3595 64.3572V69.8812C55.3595 70.21 55.2938 70.3415 54.8992 70.3415H53.3209C52.9921 70.3415 52.9264 70.2757 52.9264 69.9469V65.3436C52.9372 65.0134 52.9152 64.683 52.8606 64.3572C52.6633 63.305 52.203 62.8446 51.3481 62.7789C50.8993 62.7206 50.4441 62.8198 50.0604 63.0597C49.6766 63.2995 49.3879 63.6651 49.2437 64.0941C49.1149 64.4301 49.0481 64.7865 49.0464 65.1463V69.9469C49.0464 70.2757 48.9806 70.4073 48.5861 70.4073H46.942C46.679 70.4073 46.6132 70.3415 46.6132 70.0785V61.1348C46.6132 60.8718 46.679 60.806 46.942 60.806H48.5861C48.8491 60.806 48.9149 60.9375 48.9149 61.1348V62.1213Z" fill="white"/>
<path d="M68.2489 70.5387C66.9819 70.5805 65.743 70.1598 64.7635 69.355C64.5005 69.0919 64.5005 68.9604 64.7635 68.7631L64.9608 68.5658C65.2896 68.237 65.5527 67.8425 65.9473 67.7109C66.4076 67.5794 66.6049 68.1713 66.9337 68.3686C67.2811 68.5668 67.6697 68.6819 68.0691 68.7047C68.4684 68.7275 68.8676 68.6575 69.2354 68.5001C69.4152 68.4353 69.5727 68.3204 69.6893 68.1689C69.8058 68.0173 69.8765 67.8356 69.893 67.6452C69.8891 67.4511 69.8232 67.2634 69.7048 67.1095C69.5865 66.9557 69.4219 66.8438 69.2354 66.7903C68.5552 66.5239 67.8503 66.3257 67.131 66.1984C66.013 65.9354 65.0924 65.475 64.8293 64.2255C64.6558 63.5713 64.7271 62.8762 65.0298 62.2707C65.3325 61.6653 65.8458 61.1912 66.4734 60.9374C67.2349 60.5887 68.0698 60.4303 68.9061 60.4762C69.7425 60.522 70.5551 60.7706 71.274 61.2005C71.3959 61.2715 71.5067 61.3602 71.6028 61.4635C71.9974 61.7266 71.9974 61.9896 71.6028 62.2527C71.2822 62.4993 70.9749 62.7627 70.6821 63.0418C70.4848 63.2391 70.3533 63.3049 70.156 63.0418C69.8703 62.7114 69.4858 62.4818 69.0594 62.3871C68.633 62.2923 68.1874 62.3374 67.7886 62.5157C67.6252 62.5776 67.4829 62.6846 67.3781 62.8244C67.2733 62.9641 67.2104 63.1307 67.1967 63.3049C67.2025 63.4736 67.2636 63.6358 67.3705 63.7665C67.4774 63.8972 67.6243 63.9892 67.7886 64.0283C68.4129 64.2425 69.0498 64.4182 69.6957 64.5544C70.0526 64.6432 70.4039 64.753 70.7479 64.8832C71.1834 65.0381 71.5676 65.3105 71.8577 65.6704C72.1479 66.0302 72.3328 66.4633 72.3919 66.9218C72.4824 67.4543 72.4119 68.0016 72.1893 68.4937C71.9666 68.9858 71.6021 69.4002 71.1425 69.6838C70.2816 70.244 69.276 70.5411 68.2489 70.5387Z" fill="white"/>
<path d="M24.7145 60.7404H27.0162C27.2793 60.7404 27.2793 60.9377 27.345 61.135C28.0684 63.1078 28.8575 65.0149 29.5809 66.9878C29.6586 67.1359 29.7245 67.2898 29.7782 67.4481C30.1728 66.3959 30.5674 65.4095 30.9619 64.4231C31.3565 63.3051 31.8168 62.2529 32.2114 61.135C32.2199 61.0765 32.241 61.0206 32.2732 60.9712C32.3055 60.9217 32.3481 60.8799 32.3982 60.8486C32.4483 60.8173 32.5046 60.7973 32.5632 60.79C32.6218 60.7826 32.6813 60.7882 32.7375 60.8062H34.3815C34.7761 60.8062 34.8419 60.9377 34.6446 61.2665C33.6582 63.8312 32.606 66.3959 31.6195 68.8949C31.4223 69.3552 31.3565 70.0786 30.9619 70.2759C30.4673 70.3993 29.9529 70.4217 29.4494 70.3417C28.5287 70.3417 28.5287 70.3417 28.1342 69.421C27.0162 66.7247 25.8982 63.9627 24.7803 61.2665C24.7803 61.0692 24.6488 60.9377 24.7145 60.7404Z" fill="white"/>
<path d="M63.514 68.2371V70.0127C63.514 70.2758 63.3824 70.2758 63.1852 70.3415C62.1538 70.6375 61.06 70.6375 60.0286 70.3415C59.6089 70.1889 59.2457 69.912 58.9872 69.5479C58.7288 69.1837 58.5874 68.7494 58.5818 68.3029C58.4942 67.0774 58.4722 65.8481 58.5161 64.6202V63.1077C58.5161 62.9104 58.4503 62.7789 58.253 62.8447H57.0693C56.6747 62.8447 56.5432 62.7789 56.5432 62.3843C56.609 61.8582 56.4117 61.2006 56.609 60.8718C56.872 60.543 57.5954 60.7403 58.0557 60.806C58.4503 60.806 58.4503 60.6745 58.4503 60.3457V58.3728C58.4503 58.1098 58.5161 57.9783 58.7791 57.9783H60.5547C60.8177 57.9783 60.8835 58.044 60.8835 58.3071V60.3457C60.8835 60.6745 60.9492 60.7403 61.2781 60.7403H63.1194C63.4482 60.7403 63.514 60.8718 63.514 61.1348V62.3843C63.5797 62.7789 63.3824 62.8447 63.0536 62.8447H61.2781C60.9492 62.8447 60.8835 62.9104 60.8835 63.2392V67.1192C60.8835 68.1714 61.3438 68.566 62.3302 68.5002C62.7336 68.4583 63.1308 68.37 63.514 68.2371Z" fill="white"/>
<path d="M85.5443 67.448C86.0046 67.9741 86.4649 68.4345 86.9253 68.8948C87.1883 69.1579 87.1226 69.2894 86.8595 69.4209C85.8314 70.2186 84.5381 70.5948 83.2426 70.4731C81.204 70.2758 79.6257 69.3551 78.8365 67.3823C78.4492 66.4976 78.3362 65.5171 78.512 64.5675C78.6879 63.6179 79.1446 62.7429 79.823 62.0556C80.7379 61.1287 81.9648 60.575 83.2652 60.502C84.5656 60.4291 85.8466 60.8422 86.8595 61.661C87.1226 61.8583 87.1226 61.9898 86.8595 62.2528C86.4649 62.6474 86.0704 62.9762 85.6758 63.4366C85.4785 63.6339 85.4127 63.5681 85.2155 63.4366C84.0975 62.5159 83.0453 62.4501 82.0589 63.1735C81.5682 63.5328 81.2026 64.0371 81.0138 64.6152C80.8251 65.1934 80.8226 65.8162 81.0067 66.3959C81.1585 66.9605 81.4918 67.4596 81.9553 67.8161C82.4188 68.1727 82.9867 68.3668 83.5714 68.3687C83.9488 68.3765 84.3229 68.2976 84.665 68.1379C85.007 67.9783 85.3078 67.7423 85.5443 67.448Z" fill="white"/>
</svg>
