<svg width="129" height="129" viewBox="0 0 129 129" fill="none" xmlns="http://www.w3.org/2000/svg">
<rect width="128" height="128" transform="translate(0.666992 0.111328)" fill="#0099FF"/>
<path d="M99.177 63.8863C97.8583 63.7513 97.9687 65.7448 97.6374 66.8489C94.7975 76.3073 89.093 83.4654 80.2174 87.7898C72.2986 91.648 62.6624 88.8509 58.7797 81.8645C58.0191 80.4967 56.6451 78.8405 57.8044 77.4052C58.7981 76.1723 60.4788 77.4482 61.7914 77.7671C70.1395 79.7974 77.7761 78.908 84.1062 72.5227C89.7677 66.8121 91.5711 59.6539 91.6692 49.8398C91.8042 46.6932 90.878 41.7309 88.5042 37.106C83.0942 26.5804 72.3538 23.3785 62.2453 29.5798C51.6706 36.0633 45.96 46.0369 43.0526 57.8322C42.8256 58.7645 43.0771 60.1385 41.8319 60.39C40.7278 60.6108 40.047 59.5251 39.4336 58.7523C35.9987 54.4586 35.2933 49.6068 36.5875 44.3562C36.8145 43.4239 37.434 42.2952 36.2195 41.6144C35.1951 41.0439 34.2076 41.6205 33.4041 42.2462C30.4905 44.4973 29.0797 47.5765 28.816 51.1893C28.2394 59.0958 31.5701 65.0149 38.3111 68.9528C40.7462 70.3759 41.973 72.1056 42.2368 74.9394C42.6907 79.8465 44.2364 84.5082 46.5918 88.8264C51.5663 97.9351 59.3869 102.315 69.6917 101.738C86.7315 100.787 100.183 83.9132 100.526 67.4378C100.551 66.1435 100.95 64.0703 99.1709 63.8863H99.177ZM57.0377 61.0954C58.5773 54.1212 60.399 47.233 64.2511 41.093C66.2261 37.9464 68.6306 35.18 72.268 33.8796C76.1752 32.4811 79.0336 33.9532 79.8064 37.977C81.3399 45.9633 80.1438 53.606 76.0771 60.666C73.3168 65.4504 68.9864 67.7997 63.607 67.8426C62.9261 67.8058 62.417 67.7935 61.9079 67.7506C56.3568 67.2722 55.8354 66.5729 57.0438 61.0954H57.0377Z" fill="white"/>
</svg>
