<svg width="129" height="129" viewBox="0 0 129 129" fill="none" xmlns="http://www.w3.org/2000/svg">
<rect width="128" height="128" transform="translate(0.666504 0.833496)" fill="#EB4D37"/>
<path fill-rule="evenodd" clip-rule="evenodd" d="M60.4731 46.9911C68.1089 45.2621 75.7277 48.3941 79.9679 54.3151L46.2276 61.9509C47.3897 54.8083 52.8373 48.7201 60.4731 46.9911ZM80.1578 75.0797C77.4897 78.9434 73.4605 81.6565 68.877 82.6758C61.1959 84.4133 53.5261 81.2303 49.3 75.2328L83.1481 67.5743L88.6609 66.3272L99.1991 63.9406C99.1349 61.6765 98.8405 59.4248 98.3204 57.2203C94.032 39.0067 75.4896 27.6494 56.9103 31.8527C38.3225 36.0589 26.7356 54.2358 31.0269 72.4494C35.3181 90.6631 53.8577 102.018 72.4398 97.8142C83.3918 95.3369 91.9091 88.0073 96.1805 78.6822L80.155 75.0825L80.1578 75.0797Z" fill="white"/>
</svg>
