<svg width="128" height="128" viewBox="0 0 128 128" fill="none" xmlns="http://www.w3.org/2000/svg">
<g clip-path="url(#clip0_1177_777)">
<rect width="128" height="128" fill="#FDDB32"/>
<path d="M101.692 128H26.3083C11.805 128 0 116.2 0 101.647V26.2966C0 11.7998 11.805 0 26.3083 0H101.692C116.251 0 128 11.7998 128 26.2966V101.647C128.056 116.2 116.251 128 101.692 128Z" fill="#FDDB32"/>
<path d="M39.083 102.864V90.6834C39.083 89.6912 38.3107 88.9197 37.3182 88.9197H25.1293C24.1365 88.9197 23.3643 89.6912 23.3643 90.6834V102.864C23.3643 103.856 24.1365 104.628 25.1293 104.628H37.3182C38.3107 104.628 39.083 103.856 39.083 102.864Z" fill="#191E3B"/>
<path d="M103.68 92.3893V32.3673C103.68 27.9026 100.095 24.3201 95.6274 24.3201H35.5657C34.3523 24.3201 33.6354 24.7612 32.8633 25.5326L20.895 37.6032C20.0126 38.485 20.6193 39.8079 21.943 39.8079H76.269L42.5702 73.4841C41.9635 74.0903 41.6878 74.6966 41.6878 75.6888V84.5627C41.6878 85.6098 42.4049 86.3264 43.4526 86.3264H52.3324C53.3801 86.3264 53.9868 86.0509 54.5383 85.4446L88.2371 51.7681V106.058C88.2371 107.381 89.5605 107.987 90.4433 107.105L102.522 95.09C103.239 94.3182 103.68 93.6018 103.68 92.3893Z" fill="#191E3B"/>
</g>
<defs>
<clipPath id="clip0_1177_777">
<rect width="128" height="128" fill="white"/>
</clipPath>
</defs>
</svg>
