<svg width="129" height="129" viewBox="0 0 129 129" fill="none" xmlns="http://www.w3.org/2000/svg">
<rect width="128" height="128" transform="translate(0.333496 0.138916)" fill="#057D80"/>
<path d="M64.3244 106.696C87.8206 106.696 106.868 87.6489 106.868 64.1527C106.868 40.6566 87.8206 21.6091 64.3244 21.6091C40.8282 21.6091 21.7808 40.6566 21.7808 64.1527C21.7808 87.6489 40.8282 106.696 64.3244 106.696Z" fill="white"/>
<path d="M49.7594 71.8851C47.9149 72.741 46.3359 73.4936 44.7569 74.2167C42.3663 75.3086 39.9757 76.3711 37.5999 77.4779C35.9472 78.26 34.6191 79.4848 33.4385 80.8719C31.9924 82.5837 30.7085 84.3988 29.4837 86.2729C28.7016 87.4534 28.6426 87.4534 27.9047 86.1991C23.9352 79.5733 21.8545 72.4163 21.7807 64.6543C21.6922 54.5902 24.7025 45.5886 30.9594 37.738C38.2344 28.6184 47.7378 23.2617 59.3366 21.9041C70.0352 20.6498 79.9369 23.0404 88.7319 29.312C98.8698 36.5428 104.905 46.4002 106.514 58.8106C107.93 69.7454 105.304 79.7062 99.0321 88.7373C98.796 89.0767 98.6485 89.7555 98.0582 89.5489C97.5122 89.357 97.5417 88.7225 97.5269 88.2208C97.4236 84.9743 96.5825 82.0377 94.1034 79.7504C93.1147 78.8355 91.9489 78.1862 90.7093 77.6697C86.6365 75.9432 82.6522 74.0248 78.6531 72.1064C78.2989 71.9294 77.8857 71.4719 77.5021 71.8408C77.1627 72.1507 77.4135 72.6524 77.4873 73.0804C77.6644 74.0691 78.1809 74.9102 78.6826 75.7514C80.0255 78.0386 80.4091 80.2522 79.6861 83.0117C78.9187 85.9187 79.022 89.0914 80.7338 91.8952C81.0142 92.3674 81.2946 92.8396 81.5454 93.3266C82.5784 95.3925 81.9291 97.001 79.7451 97.7831C78.8892 98.0783 78.0333 98.3291 77.1774 98.5947C76.5724 98.7866 75.9526 99.0522 75.4804 98.3587C75.1853 97.9307 75.1853 97.4437 75.5099 97.0453C75.9674 96.455 76.6314 96.6173 77.1184 96.8977C78.1219 97.4585 79.0073 97.1338 79.8927 96.6764C81.0289 96.0861 81.3388 95.245 80.8814 94.0349C80.8223 93.8874 80.7633 93.7398 80.6748 93.607C78.5646 90.6704 78.1956 87.3206 78.4908 83.8528C78.6088 82.5247 78.0481 81.4032 77.4135 80.3407C76.7495 79.2339 74.654 79.1602 73.5325 80.1784C72.4553 81.1523 71.7765 82.4361 71.747 83.8823C71.6732 87.3501 70.5812 90.3753 68.2644 93.002C66.9215 94.5367 67.379 95.8943 69.2678 96.6616C69.8729 96.9125 70.3303 96.6026 70.832 96.4403C71.2747 96.3075 71.747 96.1009 72.1306 96.5731C72.4553 96.9715 72.4995 97.4437 72.293 97.9012C72.0273 98.4767 71.4813 98.521 70.9796 98.3734C69.7105 97.975 68.4562 97.5175 67.4528 96.5731C66.4345 95.6139 66.2575 94.4924 66.9215 93.2676C67.2166 92.7216 67.6151 92.2198 68.0135 91.7476C69.5777 89.8883 70.4926 87.7486 70.6402 85.3432C70.714 84.1037 70.9206 82.8788 70.7287 81.6098C70.4926 80.0898 71.3485 78.9093 72.411 77.9058C73.9605 76.4449 75.0229 74.7036 75.4952 72.6082C75.7903 71.3096 75.7903 70.2028 74.4917 69.3174C73.0751 68.3582 72.6176 66.8973 72.5143 65.156C72.3815 62.6621 72.6324 60.242 73.2669 57.8367C73.5473 56.7742 74.0785 55.9036 75.082 55.3428C75.6427 55.0329 76.1149 54.605 76.3953 54.0295C77.2069 52.3767 77.7234 50.6059 78.1956 48.8203C78.4465 47.9054 78.1956 47.02 77.384 46.4002C76.838 45.987 76.7495 45.4558 76.9118 44.836C77.812 41.442 77.5021 37.9889 77.4726 34.5506C77.4578 32.3371 76.2773 30.8171 74.2408 29.9465C67.1576 26.8919 60.1039 26.9066 53.0945 30.1974C51.2056 31.0828 50.2169 32.4994 50.2612 34.6391C50.3054 36.7493 50.2612 38.8743 50.2759 40.9845C50.2759 41.7666 50.2464 42.5782 50.4383 43.3161C50.7924 44.718 50.94 45.9575 49.6266 47.02C49.1544 47.4037 49.0659 48.1268 49.2725 48.7761C49.4348 49.3073 49.7152 49.809 49.7742 50.3403C50.0546 52.6423 50.8514 54.5459 52.9912 55.8003C53.8323 56.2872 54.0832 57.394 54.2898 58.3679C54.6882 60.2125 55.1014 62.0424 55.3818 63.9017C55.6621 65.8053 55.3522 67.6647 53.7438 68.919C51.3679 70.7488 51.1613 73.1984 51.5745 75.8104C52.091 79.1011 52.696 82.3771 52.8879 85.6974C52.9764 87.3501 54.216 87.8223 55.2342 88.4421C56.8427 89.4456 57.6838 90.818 57.2559 92.3379C56.7394 94.1087 55.1899 95.245 53.3748 95.1269C52.3861 95.0679 51.4417 94.7875 50.6301 94.1825C49.7447 93.5332 49.2282 92.7068 49.5676 91.5558C49.6414 91.3197 49.6561 91.0983 49.5676 90.877C49.0511 89.5932 49.4496 88.5897 50.512 87.7781C51.058 87.3649 50.9547 86.8336 50.8514 86.2876C50.4383 84.0594 50.0841 81.8016 49.5824 79.5881C48.9921 77.0942 48.874 74.6003 49.7594 71.8851ZM79.1106 81.2113C79.7451 78.0239 77.2069 75.9875 76.3363 73.287C75.9231 76.4302 73.0603 77.9649 71.7765 80.503C74.2704 77.6255 76.838 77.8468 79.1106 81.2113Z" fill="#284448"/>
</svg>
