<svg width="128" height="128" viewBox="0 0 128 128" fill="none" xmlns="http://www.w3.org/2000/svg">
<rect width="128" height="128" fill="#353A3F"/>
<path d="M109.478 73.8897C111.212 73.125 112.163 71.4232 111.659 70.0324C111.644 69.9898 111.627 69.9451 111.608 69.9025C110.994 68.4883 109.049 67.9813 107.26 68.7694C105.471 69.5575 104.518 71.3423 105.13 72.7566C105.23 72.9866 105.367 73.1868 105.53 73.3678C106.373 74.2965 107.98 74.5478 109.478 73.8897Z" fill="#66CC00"/>
<path d="M20.6409 68.6203C20.5923 68.1177 20.5669 67.6087 20.5669 67.0912C21.9004 66.9826 22.9968 66.9017 23.8562 66.8527C24.7155 66.8037 25.4543 66.7781 26.0723 66.7781H32.1472V66.2244C32.1472 64.591 31.8847 63.1577 31.364 61.9204C30.9873 61.028 30.4793 60.2379 29.8316 59.5521C28.2864 57.9166 26.1972 57.0988 23.5662 57.0988C20.9733 57.0988 18.8968 57.8931 17.3389 59.484C15.7789 61.0685 15 63.1832 15 65.8219C15 67.4959 15.3598 68.9419 16.0732 70.1601C16.433 70.7734 16.8817 71.3314 17.4215 71.8276C19.0365 73.312 21.2294 74.0531 24.0001 74.0531C26.1845 74.0531 27.9689 73.5484 29.3489 72.5389C30.4814 71.7105 31.2413 70.6222 31.6328 69.2699C31.7196 68.9738 31.7874 68.6629 31.8382 68.3413L25.8967 68.5181L25.7188 70.1792L21.1659 70.109L20.8547 70.1047C20.7616 69.617 20.6917 69.1229 20.6409 68.6203ZM21.5829 60.9024L26.1041 60.8129L26.3877 63.9627H21.5829V60.9024Z" fill="#66CC00"/>
<path d="M40.3303 72.9754C41.9961 72.9754 43.5878 72.9924 45.0991 73.0286C46.6126 73.0627 48.0773 73.1159 49.4976 73.1862C49.4976 72.9669 49.4955 72.7283 49.4891 72.4728C49.4849 72.2172 49.4828 71.8935 49.4828 71.5038C49.4828 70.8542 49.4955 70.3346 49.5209 69.9491C49.5251 69.8767 49.5315 69.8064 49.5378 69.7361C49.5653 69.4252 49.6055 69.1164 49.6648 68.8161L41.8352 68.9503L48.9282 61.9202L48.9896 57.4692C47.7598 57.499 46.3374 57.5224 44.7224 57.5373C43.1073 57.5522 41.2934 57.5586 39.2804 57.5586C37.8919 57.5586 36.861 57.5522 36.1879 57.5373C35.5127 57.5224 34.8904 57.499 34.3147 57.4692L33.9739 61.6348C34.1496 61.6221 34.3274 61.6093 34.5031 61.5965C35.7646 61.5071 37.0304 61.4368 38.3004 61.3857C39.7461 61.326 41.1748 61.292 42.5824 61.2834L33.3537 70.1131L33.2944 73.0371C33.4511 73.0329 33.6077 73.0308 33.7643 73.0286C34.5983 73.0137 35.4513 73.0009 36.3234 72.9924C37.3563 72.9796 38.6941 72.9754 40.3303 72.9754Z" fill="#66CC00"/>
<path d="M112.059 70.6414C111.959 70.4114 111.822 70.209 111.659 70.0301C112.162 71.421 111.212 73.1227 109.478 73.8874C107.98 74.5476 106.373 74.2963 105.53 73.3655C105.547 73.4081 105.562 73.4529 105.581 73.4955C106.195 74.9097 108.14 75.4166 109.929 74.6286C111.718 73.8405 112.673 72.0557 112.059 70.6414Z" fill="white"/>
<path d="M29.3468 72.5389C27.9668 73.5484 26.1845 74.0531 23.998 74.0531C21.2273 74.0531 19.0344 73.3099 17.4194 71.8276C16.8796 71.3314 16.4309 70.7734 16.071 70.1601C16.4753 71.1461 17.0743 72.0044 17.8702 72.737C19.4852 74.2193 21.676 74.9625 24.4489 74.9625C26.6333 74.9625 28.4176 74.4578 29.7977 73.4483C31.1778 72.4388 32.0075 71.0418 32.2869 69.2507L31.6307 69.2699C31.2391 70.6222 30.4793 71.7105 29.3468 72.5389Z" fill="white"/>
<path d="M22.0337 61.8119L26.187 61.7288L26.1044 60.813L21.5828 60.9024V63.961H22.0337V61.8119Z" fill="white"/>
<path d="M26.5253 67.6875H32.6002V67.1338C32.6002 65.0829 32.1874 63.3451 31.3661 61.9203C31.8868 63.1577 32.1493 64.5909 32.1493 66.2244V66.7781H26.0744C25.4585 66.7781 24.7198 66.8037 23.8583 66.8526C22.9968 66.9016 21.9004 66.9826 20.569 67.0912C20.569 67.6087 20.5944 68.1177 20.6431 68.6203C20.6939 69.1229 20.7637 69.6191 20.8526 70.1068L21.1638 70.1111C21.1384 69.9194 21.113 69.7256 21.0939 69.5318C21.0452 69.0292 21.0198 68.5202 21.0198 68.0027C22.3533 67.8941 23.4498 67.8131 24.3091 67.7641C25.1685 67.713 25.9072 67.6875 26.5253 67.6875Z" fill="white"/>
<path d="M38.2966 61.3836C37.0264 61.4348 35.7605 61.5072 34.4989 61.5945L34.4205 62.5423C35.8579 62.4358 37.2995 62.3527 38.7475 62.2931C39.7106 62.2548 40.6632 62.2271 41.6074 62.21L42.579 61.2814C41.1713 61.2899 39.7445 61.3261 38.2966 61.3836Z" fill="white"/>
<path d="M50.1156 69.7234L49.5377 69.7341C49.5314 69.8065 49.525 69.8768 49.5208 69.9471C49.4954 70.3325 49.4827 70.8522 49.4827 71.5017C49.4827 71.8936 49.4848 72.2173 49.489 72.4707C49.4933 72.7263 49.4975 72.9648 49.4975 73.1842C48.0793 73.1139 46.6125 73.0607 45.0991 73.0266C43.5856 72.9925 41.996 72.9733 40.3302 72.9733C38.694 72.9733 37.3563 72.9776 36.3191 72.9882C35.447 72.9968 34.594 73.0095 33.76 73.0245L33.741 73.9445C34.7231 73.9232 35.7328 73.9083 36.7699 73.8976C37.8071 73.8891 39.1448 73.8827 40.781 73.8827C42.4469 73.8827 44.0386 73.9019 45.5499 73.936C47.0633 73.97 48.5281 74.0233 49.9484 74.0936C49.9484 73.8721 49.9462 73.6357 49.9399 73.3801C49.9357 73.1245 49.9314 72.8008 49.9314 72.4111C49.9314 71.7594 49.9441 71.2419 49.9695 70.8564C49.997 70.471 50.0436 70.094 50.1156 69.7234Z" fill="white"/>
<path d="M41.8353 68.9483L43.2302 68.9248L49.3792 62.8297L49.4384 58.3787C49.286 58.3829 49.1315 58.3851 48.9749 58.3893L48.9262 61.9203L41.8353 68.9483Z" fill="white"/>
<path d="M52.4568 73.5505C52.4843 72.311 52.5055 71.0225 52.5182 69.683C52.533 68.3413 52.5393 66.9165 52.5393 65.4044C52.5393 63.5985 52.5351 62.1354 52.5288 61.0152C52.5224 59.895 52.5118 58.8003 52.497 57.7291L56.8341 57.8973L56.5526 68.2838L56.6986 73.7869L52.4568 73.5505Z" fill="white"/>
<path d="M64.2276 62.4443C65.995 62.4443 67.464 63.0555 68.6303 64.2779C69.7987 65.5025 70.3829 67.0657 70.3829 68.9739C70.3829 70.4838 69.8093 71.7446 68.662 72.7583C67.5148 73.772 66.0987 74.2789 64.4139 74.2789C62.6316 74.2789 61.1859 73.7103 60.0768 72.5709C58.9677 71.4315 58.4131 69.9407 58.4131 68.0943C58.4131 66.3693 58.938 64.9956 59.9879 63.9755C61.0399 62.9554 62.4517 62.4443 64.2276 62.4443ZM65.631 65.3385L62.7798 65.609L62.1977 70.537C62.7121 70.7117 63.2603 70.8395 63.8466 70.9225C64.4329 71.0077 65.0764 71.0482 65.777 71.0482H66.0585L65.631 65.3385Z" fill="white"/>
<path d="M83.6926 69.7192C83.5592 71.1568 83.0089 72.2791 82.0352 73.0777C81.0637 73.8785 79.7661 74.2768 78.1405 74.2768C76.2461 74.2768 74.6925 73.7209 73.4796 72.6113C72.2689 71.4997 71.6614 70.0792 71.6614 68.3456C71.6614 66.5503 72.2096 65.117 73.306 64.0479C74.4025 62.9788 75.8841 62.4443 77.7511 62.4443C79.6053 62.4443 81.0573 62.8851 82.1135 63.7668C83.1676 64.6485 83.7116 65.8709 83.7476 67.432L79.9079 67.3489L79.6772 65.2043L76.4345 65.4024C76.3921 65.8006 76.3625 66.2287 76.3456 66.6908C76.3287 67.1509 76.3202 67.6854 76.3202 68.2924C76.3202 68.7396 76.3329 69.1932 76.3562 69.6532C76.3794 70.1132 76.4197 70.5818 76.4768 71.0567C76.8599 71.0993 77.1669 71.1291 77.3997 71.1461C77.6325 71.1632 77.8357 71.1717 78.0093 71.1717C78.2252 71.1717 78.5998 71.1461 79.1354 71.0993C79.2391 71.0929 79.3195 71.0844 79.3767 71.078L79.5015 69.7235H83.6926V69.7192Z" fill="white"/>
<path d="M92.5085 72.9435C91.8988 73.3694 91.2173 73.6995 90.4659 73.9295C89.7144 74.1595 88.9397 74.2767 88.1439 74.2767C87.0347 74.2767 86.1669 74.0254 85.5361 73.5228C84.9053 73.0202 84.59 72.3259 84.59 71.4399C84.59 70.7414 84.7445 70.0684 85.0535 69.4189C85.3626 68.7693 85.7309 68.337 86.1605 68.1198C86.5818 67.9111 87.4073 67.7045 88.6328 67.5022C89.8584 67.2999 91.285 67.1401 92.9127 67.0209V66.6503C92.9127 66.4352 92.9064 66.2286 92.8916 66.0284C92.8768 65.8304 92.8535 65.6472 92.8196 65.479C92.2947 65.3065 91.7613 65.1723 91.2173 65.0722C90.6712 64.9764 90.1928 64.9274 89.7801 64.9274C89.6912 64.9274 89.6065 64.9295 89.5261 64.9316C89.4477 64.9359 89.3652 64.9402 89.2826 64.9466L89.2382 66.3926C88.7937 66.3436 88.3873 66.3074 88.0148 66.284C87.6422 66.2606 87.2908 66.2478 86.9585 66.2478C86.6876 66.2478 86.404 66.2542 86.1034 66.2627C85.8049 66.2733 85.5001 66.284 85.1869 66.2989V66.071C85.1869 65.0232 85.7414 64.1564 86.8548 63.4707C87.9661 62.7849 89.3673 62.4421 91.0585 62.4421C92.8598 62.4421 94.223 62.7977 95.1479 63.5069C96.0729 64.2161 96.5344 65.2639 96.5344 66.6482C96.5344 67.1444 96.5174 67.7407 96.4815 68.4392C96.4476 69.1378 96.4307 69.5871 96.4307 69.7894C96.4307 70.2857 96.4645 70.8245 96.5344 71.408C96.6042 71.9915 96.7418 72.8178 96.9514 73.8848C96.7566 73.8699 96.5026 73.8529 96.1915 73.8316C95.8782 73.8081 95.6877 73.7975 95.6179 73.7975C95.3893 73.7975 95.076 73.8252 94.6802 73.8806C94.2843 73.9359 93.7425 74.0211 93.0546 74.1382L92.5085 72.9435ZM88.872 71.6955L91.8459 71.4762C91.901 71.0864 91.9391 70.7414 91.9645 70.4433C91.9877 70.1451 92.0005 69.8427 92.0005 69.536L91.9899 69.191C91.4628 69.2251 90.9379 69.289 90.4151 69.3827C89.8901 69.4764 89.3652 69.6042 88.8381 69.7639L88.872 71.6955Z" fill="white"/>
<path d="M98.7336 73.5505C98.7612 72.311 98.7802 71.0225 98.795 69.683C98.8098 68.3413 98.8162 66.9165 98.8162 65.4044C98.8162 63.5985 98.812 62.1354 98.8056 61.0152C98.7993 59.895 98.7887 58.8003 98.7739 57.7291L103.111 57.8973L102.829 68.2838L102.975 73.7869L98.7336 73.5505Z" fill="white"/>
<path d="M110.081 63.0768C110.647 63.1875 111.072 63.4176 111.352 63.769C111.631 64.1183 111.741 64.5528 111.68 65.0725C111.608 65.6795 111.326 66.1481 110.839 66.4825C110.352 66.8169 109.764 66.9404 109.076 66.8573C108.363 66.77 107.814 66.5272 107.431 66.1225C107.048 65.72 106.893 65.2216 106.965 64.6252C107.035 64.0331 107.266 63.5879 107.655 63.294C108.045 63.0001 108.549 62.8851 109.169 62.949L108.989 64.1737L108.128 64.1396L108.083 65.1854C108.24 65.2173 108.409 65.2493 108.593 65.2748C108.775 65.3025 108.987 65.3323 109.228 65.36C109.406 65.3813 109.588 65.4005 109.77 65.4133C109.954 65.4282 110.141 65.4367 110.333 65.4431C110.365 65.3238 110.388 65.2258 110.403 65.1534C110.42 65.081 110.431 65.015 110.437 64.9596C110.446 64.8893 110.45 64.77 110.452 64.5975C110.454 64.5656 110.454 64.5379 110.452 64.5208L109.921 64.4165L110.081 63.0768Z" fill="white"/>
<path d="M107.465 60.4595C107.533 59.8951 107.831 59.4542 108.362 59.139C108.892 58.8238 109.537 58.713 110.293 58.8046C110.894 58.877 111.373 59.122 111.73 59.5394C112.088 59.9547 112.236 60.4318 112.171 60.9728C112.103 61.5436 111.821 61.9781 111.326 62.2785C110.831 62.5788 110.219 62.6831 109.484 62.5937C108.801 62.5106 108.274 62.2763 107.909 61.8908C107.545 61.5032 107.397 61.0261 107.465 60.4595ZM108.665 60.1486L108.663 61.0708L110.602 61.4968C110.691 61.3413 110.763 61.173 110.82 60.9877C110.875 60.8046 110.918 60.6001 110.943 60.3765L110.954 60.287L108.665 60.1486Z" fill="white"/>
<path d="M112.232 58.4965C111.986 58.4454 111.722 58.3985 111.432 58.3538C111.144 58.309 110.771 58.2579 110.312 58.2025C109.812 58.1429 109.385 58.0939 109.029 58.0577C108.676 58.0215 108.348 57.9917 108.049 57.9683L108.182 56.8628L108.705 56.8991C108.466 56.7244 108.29 56.5157 108.178 56.2729C108.066 56.0301 108.024 55.7766 108.055 55.5125C108.085 55.2633 108.185 55.0546 108.354 54.882C108.521 54.7095 108.735 54.6009 108.995 54.5562C108.75 54.4049 108.572 54.209 108.466 53.9726C108.36 53.734 108.326 53.455 108.364 53.1313C108.415 52.7202 108.587 52.4199 108.879 52.2261C109.173 52.0322 109.565 51.962 110.056 52.0195L113 52.3496L112.789 53.6936C112.685 53.6744 112.567 53.6552 112.437 53.6382C112.308 53.6211 112.111 53.5956 111.845 53.5615C111.792 53.5551 111.686 53.5445 111.527 53.5296C111.368 53.5125 111.14 53.4912 110.841 53.4657L109.734 53.3911L109.597 54.324L112.626 54.6989C112.571 54.9332 112.526 55.1419 112.492 55.3208C112.456 55.5018 112.431 55.6531 112.416 55.7766C112.412 55.8171 112.406 55.8746 112.401 55.9491C112.397 56.0237 112.393 56.0812 112.387 56.1216L109.546 55.783L109.47 56.7649C109.641 56.7989 109.823 56.8309 110.018 56.8607C110.213 56.8905 110.428 56.9182 110.67 56.948L111.019 56.9906C111.106 56.997 111.201 57.0055 111.303 57.0141C111.404 57.0247 111.557 57.0418 111.764 57.0673C111.923 57.0865 112.042 57.1014 112.12 57.112C112.198 57.1227 112.27 57.1333 112.334 57.144C112.304 57.4805 112.281 57.751 112.268 57.9534C112.255 58.1536 112.243 58.3346 112.232 58.4965Z" fill="white"/>
</svg>
