<svg width="128" height="128" viewBox="0 0 128 128" fill="none" xmlns="http://www.w3.org/2000/svg">
<g clip-path="url(#clip0_203_618)">
<rect width="128" height="128" fill="#1877F2"/>
<path d="M128 64C128 28.6538 99.3462 0 64 0C28.6538 0 0 28.6538 0 64C0 95.9438 23.4037 122.421 54 127.223V82.5H37.75V64H54V49.9C54 33.86 63.555 25 78.1738 25C85.1738 25 92.5 26.25 92.5 26.25V42H84.43C76.48 42 74 46.9338 74 52V64H91.75L88.9125 82.5H74V127.223C104.596 122.421 128 95.9438 128 64Z" fill="#1877F2"/>
<path d="M88.9125 82.5L91.75 64H74V52C74 46.9387 76.48 42 84.43 42H92.5V26.25C92.5 26.25 85.1763 25 78.1738 25C63.555 25 54 33.86 54 49.9V64H37.75V82.5H54V127.223C60.6264 128.259 67.3736 128.259 74 127.223V82.5H88.9125Z" fill="white"/>
</g>
<defs>
<clipPath id="clip0_203_618">
<rect width="128" height="128" fill="white"/>
</clipPath>
</defs>
</svg>
