<svg width="57" height="56" viewBox="0 0 57 56" fill="none" xmlns="http://www.w3.org/2000/svg">
<g clip-path="url(#clip0_7199_89140)">
<path d="M56.5 28C56.5 12.536 43.964 0 28.5 0C13.036 0 0.5 12.536 0.5 28C0.5 41.9754 10.7391 53.5593 24.125 55.6598V36.0937H17.0156V28H24.125V21.8313C24.125 14.8137 28.3053 10.9375 34.701 10.9375C37.7635 10.9375 40.9687 11.4844 40.9687 11.4844V18.375H37.4381C33.96 18.375 32.875 20.5335 32.875 22.75V28H40.6406L39.3992 36.0937H32.875V55.6598C46.2609 53.5593 56.5 41.9754 56.5 28Z" fill="#1877F2"/>
<path d="M39.3992 36.0938L40.6406 28H32.875V22.75C32.875 20.5357 33.96 18.375 37.4381 18.375H40.9688V11.4844C40.9688 11.4844 37.7646 10.9375 34.701 10.9375C28.3053 10.9375 24.125 14.8137 24.125 21.8313V28H17.0156V36.0938H24.125V55.6598C27.024 56.1134 29.976 56.1134 32.875 55.6598V36.0938H39.3992Z" fill="white"/>
</g>
<defs>
<clipPath id="clip0_7199_89140">
<rect width="56" height="56" fill="white" transform="translate(0.5)"/>
</clipPath>
</defs>
</svg>
