<svg width="128" height="128" viewBox="0 0 128 128" fill="none" xmlns="http://www.w3.org/2000/svg">
<path d="M62.0359 40.1107C62.0359 37.3674 62.0359 34.624 62.0359 31.908C62.0359 30.8985 61.6371 30.3827 60.6156 30.3224C59.2117 30.2456 57.8078 30.1468 56.4148 29.9987C50.7936 29.3841 45.1015 29.5981 39.4749 29.0001C39.382 29.0001 39.2946 29.0001 39.2017 29.0001C38.2567 29.0001 37.9999 29.4225 38.0655 30.3882C38.4807 36.3871 38.8448 42.3841 39.158 48.3793C39.2782 50.5136 39.2837 50.6288 41.4305 50.574C47.8656 50.4752 54.2679 49.5315 60.7194 49.7949C61.7683 49.8497 62.0359 49.2242 62.0359 48.3189C62.0359 45.5865 62.0359 42.8486 62.0359 40.1107Z" fill="white"/>
<path d="M77.9052 49.8498H86.8859C88.8744 49.8498 88.9891 49.74 88.9946 47.7813C88.9946 42.2177 88.9946 36.656 88.9946 31.096C88.9891 29.1373 88.8635 29.0385 86.8914 29.0001C80.724 28.9068 74.6003 29.8231 68.4165 29.5927C67.1491 29.5488 66.9525 30.295 66.9525 31.3484C66.9525 36.9065 66.9525 42.4701 66.9525 48.0282C66.9525 49.6248 67.1491 49.8059 68.7934 49.8168C71.8307 49.8498 74.868 49.8498 77.9052 49.8498Z" fill="white"/>
<path d="M50.7118 55.298C47.5379 55.298 44.3586 55.298 41.1848 55.298C39.3602 55.298 39.2237 55.4297 39.2182 57.2294C39.2182 61.7395 39.2182 66.2533 39.2182 70.7707C39.2182 74.0627 39.2182 74.0024 42.4958 74.1505C48.5048 74.4304 54.5138 74.7376 60.5228 75.1162C61.7355 75.193 62.0415 74.7321 62.036 73.6622C62.036 68.0986 62.036 62.5351 62.036 56.9715C62.036 55.726 61.5444 55.2651 60.3316 55.2816C57.1523 55.3364 53.9348 55.3035 50.7118 55.298Z" fill="white"/>
<path d="M62.0688 89.069C62.0688 86.6987 62.0251 84.3285 62.0688 81.9362C62.1016 80.6249 61.5662 80.1366 60.2934 80.1695C59.0708 80.2312 57.8451 80.1742 56.6334 79.9994C51.5203 79.0941 46.3088 79.6922 41.1848 78.9021C39.4367 78.6222 39.2838 78.9953 39.1691 80.7456C38.8049 86.4189 38.4134 92.0886 37.9946 97.7545C37.9126 98.797 38.306 99.1537 39.2182 98.9287C40.1913 98.7153 41.1794 98.5777 42.1736 98.5172C48.2263 98.0014 54.3227 98.6214 60.3699 97.76C61.5389 97.5954 62.0907 97.2827 62.0633 96.0372C62.036 93.7437 62.0688 91.3899 62.0688 89.069Z" fill="white"/>
<path d="M77.8779 55.3365C74.7423 55.3365 71.6122 55.3365 68.482 55.3365C67.4823 55.3365 66.9579 55.7041 66.9634 56.774C66.9634 62.4766 66.9634 68.1773 66.9634 73.8762C66.9634 74.8419 67.3239 75.2479 68.3673 75.1876C74.562 74.8199 80.7622 74.5017 86.9406 74.189C88.7596 74.0957 88.9891 73.9366 88.9672 72.104C88.9181 67.0617 88.8034 62.0468 88.8034 57.0319C88.8034 55.7151 88.2571 55.2761 86.9952 55.2981C83.9361 55.3365 80.8933 55.3365 77.8779 55.3365Z" fill="white"/>
</svg>
