<svg width="128" height="128" viewBox="0 0 128 128" fill="none" xmlns="http://www.w3.org/2000/svg">
<rect width="128" height="128" fill="#9F2336"/>
<path d="M44.9649 34H53.6545V95H44.9649V34ZM82.2161 34V41.3602H88.953V95H97.3723V41.3602H104V34H82.2161ZM24 95H32.4195V67.3261H39.5901V60.0668H32.4195V41.3602H41.7738V34H24V95ZM83.3322 91.0042C83.334 92.3409 83.3348 93.6728 83.3345 95H75.4592C75.4523 92.6923 75.4471 90.3732 75.4436 88.0427C75.4371 85.7158 75.4262 83.3849 75.4012 81.0619C75.3515 76.4205 75.2457 71.7973 75.0048 67.3261H65.7424V95H58.1803V34H75.9484C77.0242 36.0985 77.9368 38.2779 78.6777 40.5186C79.4443 42.8343 80.0787 45.1922 80.5779 47.5809C81.0941 50.0093 81.5045 52.5133 81.8344 55.0611C82.1643 57.6081 82.4152 60.2141 82.6091 62.8433C82.8029 65.4712 82.941 68.1447 83.0414 70.8208C83.1417 73.4941 83.2058 76.2055 83.2477 78.8963C83.2896 81.5807 83.3106 84.308 83.3218 86.9821C83.3273 88.3262 83.3308 89.6669 83.3322 91.0042ZM74.4684 60.0668C73.7916 53.0921 72.6309 46.6366 70.6209 41.3602H65.7424V60.0668H74.4684Z" fill="white"/>
</svg>
