<svg width="128" height="128" viewBox="0 0 128 128" fill="none" xmlns="http://www.w3.org/2000/svg">
<rect width="128" height="128" fill="#747577"/>
<path d="M90.6753 43.5029C87.6334 33.5083 78.508 26.121 68.0788 24.3828C51.1315 22.2101 36.3569 35.2465 36.3569 52.1938C36.3569 60.4502 40.7024 68.7066 46.786 73.9212C61.9952 83.4812 61.9952 101.298 61.9952 101.298C61.9952 102.601 62.8643 103.47 64.1679 103.47C65.4716 103.47 66.3406 102.601 66.3406 101.298C66.3406 101.298 66.3406 101.298 66.3406 100.863C66.3406 99.9939 65.4715 83.0466 80.6807 73.4866L81.5498 73.052C90.6753 66.0993 94.1516 54.3665 90.6753 43.5029ZM78.9425 70.0102C70.2516 75.2248 66.3406 82.1775 64.1679 88.6957C62.8643 85.6539 61.1261 82.1775 58.5188 78.7012C59.3879 78.7012 59.8225 79.1357 60.257 79.1357C61.5606 79.5702 62.8643 78.7011 63.7334 77.832L65.9061 74.7902C56.7806 74.7902 47.2206 69.5757 42.8751 61.7538C41.5715 58.712 40.7024 55.6702 40.7024 52.6284C40.7024 39.1574 52.0006 28.2937 65.4715 29.5974C70.2516 30.0319 74.597 32.2047 78.5079 35.2465C91.5443 45.6756 88.5025 61.3193 78.9425 70.0102Z" fill="white"/>
<path d="M66.3411 36.5499H62.8648V55.2354H66.3411V36.5499Z" fill="white"/>
<path d="M75.9989 55.6614V50.4469H62.9625V55.6614H75.9989Z" fill="white"/>
</svg>
