<svg width="128" height="128" viewBox="0 0 128 128" fill="none" xmlns="http://www.w3.org/2000/svg">
<rect width="128" height="128" fill="#F5F5F5"/>
<path d="M29.5982 64.6816L116.428 40.1237L116.974 63.8686L42.933 85.2291L37.5099 86.7757L29.0579 88.02L29.5982 64.6816Z" fill="white"/>
<path d="M77.3554 62.3765C77.3554 61.9204 77.1373 61.7122 76.6614 61.7271C74.7182 61.7816 73.1219 62.9961 72.8989 64.8848C72.7254 66.3819 72.7154 67.9335 72.9038 69.4207C73.0525 70.5707 73.8655 71.2796 75.0007 70.5162C75.6947 70.0502 76.1706 69.4405 76.5176 68.7118C77.1868 67.3139 77.4099 65.8217 77.3554 64.1066C77.3554 63.6505 77.3554 63.011 77.3554 62.3715V62.3765Z" fill="black"/>
<path d="M30.8273 88.5802C31.5759 88.4414 32.2947 88.144 33.0333 87.9358C33.7422 87.7375 34.456 87.5689 35.1649 87.3855C36.0671 87.1525 36.9594 86.8898 37.8665 86.6915C38.2482 86.6073 38.4416 86.4982 38.4416 86.062C38.4217 81.8781 38.4217 77.6893 38.4168 73.5054C38.4168 73.322 38.4664 73.1088 38.392 72.9552C38.3276 72.8164 38.1094 72.628 37.9954 72.6478C37.4154 72.7618 36.8454 72.9254 36.2753 73.094C35.0955 73.441 33.9206 73.8128 32.7358 74.1598C31.3974 74.5563 30.059 74.9579 28.7106 75.3098C28.6115 75.3346 28.5024 75.3643 28.3983 75.3891L28.1306 88.8479C29.0328 88.833 29.94 88.7488 30.8273 88.5852V88.5802Z" fill="black"/>
<path d="M117.717 39.162C116.716 39.4247 115.823 39.6478 114.941 39.8957C113.122 40.4013 111.307 40.9268 109.488 41.4324C108.303 41.7596 107.109 42.062 105.924 42.3891C104.164 42.8799 102.409 43.3955 100.649 43.8813C98.9887 44.3423 97.323 44.7736 95.6624 45.2296C93.858 45.7253 92.0635 46.2458 90.264 46.7465C88.6083 47.2075 86.9476 47.6636 85.287 48.1246C83.9634 48.4914 82.6349 48.8583 81.3113 49.2201C79.6903 49.6663 78.0594 50.0926 76.4434 50.5487C74.6836 51.0394 72.9287 51.555 71.1689 52.0457C69.4686 52.5216 67.7683 52.9876 66.068 53.4635C64.8435 53.8055 63.6241 54.1674 62.3997 54.4996C60.6745 54.9655 58.9445 55.4067 57.2243 55.8776C55.4447 56.3684 53.675 56.8889 51.8954 57.3797C50.6908 57.7118 49.4663 57.9993 48.2618 58.3414C46.5813 58.8173 44.9206 59.3427 43.2401 59.8087C41.52 60.2846 39.78 60.701 38.0549 61.1769C36.2951 61.6577 34.5403 62.1782 32.7854 62.6789C31.4073 63.0705 30.0243 63.4621 28.6462 63.8587L28.4677 72.6676C28.8197 72.6825 29.1716 72.6379 29.4443 72.5536C30.0937 72.3653 30.7331 72.1471 31.3825 71.9687C33.5984 71.354 35.8192 70.7443 38.04 70.1543C38.4763 70.0354 38.4366 69.2174 38.4267 68.7812C38.4168 68.1219 38.4118 67.4626 38.4267 66.8033C38.4614 65.6879 38.7539 64.6469 39.4826 63.7695C41.1085 61.7965 43.3095 61.3702 45.7038 61.4694C46.0558 61.4842 46.2243 61.6924 46.1649 62.0493C46.0806 62.5352 45.9715 63.021 45.912 63.5117C45.7782 64.6122 45.7088 64.7213 44.5835 64.7461C42.7791 64.7808 42.0008 65.8961 42.1495 67.5717C42.1942 68.0624 42.3776 68.2359 42.8683 68.0971C44.0531 67.76 45.2379 67.4477 46.4226 67.1106C47.7264 66.7438 49.0152 66.3324 50.3289 65.9953C51.1419 65.7871 51.2212 65.8813 51.2212 66.719C51.2212 70.0602 51.2212 73.4013 51.2212 76.7424C51.2212 77.7735 51.2063 78.8046 51.2212 79.8357C51.2311 80.3761 51.0328 80.6537 50.4677 80.7578C49.8084 80.8767 49.159 81.0899 48.5195 81.308C47.6619 81.6005 47.4736 81.4914 47.4736 80.6091C47.4736 77.372 47.4736 74.135 47.4736 70.8979C47.4736 70.0651 47.2753 69.9313 46.4673 70.1841C45.2726 70.5608 44.0878 70.9822 42.8683 71.2598C42.2437 71.4036 42.1347 71.6861 42.1396 72.2314C42.1545 76.2517 42.1446 80.272 42.1495 84.2922C42.1495 84.5401 42.1347 84.8078 42.2289 85.021C42.2933 85.1647 42.5759 85.3283 42.7097 85.2936C44.1126 84.9466 45.5006 84.5599 46.8936 84.1832C47.4785 84.0246 48.0734 83.8758 48.6484 83.6924C49.3276 83.4793 49.9819 83.1868 50.666 82.9984C51.9449 82.6514 53.2338 82.3589 54.5177 82.0367C55.0085 81.9128 55.5042 81.779 55.99 81.6352C56.684 81.427 57.3731 81.1841 58.072 80.9908C58.8553 80.7776 59.6633 80.6388 60.4416 80.4157C61.6511 80.0687 62.8458 79.6771 64.0504 79.3103C64.5164 79.1665 64.9774 79.0128 65.4533 78.9038C66.1622 78.7352 66.8958 78.646 67.5948 78.4477C68.844 78.0958 70.0734 77.6694 71.3276 77.3175C72.5619 76.9705 73.8161 76.6879 75.0603 76.3707C75.5907 76.2368 76.1261 76.1228 76.6466 75.9592C77.3208 75.7411 77.9751 75.4536 78.6493 75.2454C79.2293 75.0669 79.8242 74.943 80.4141 74.8042C81.1031 74.6406 81.807 74.5266 82.4862 74.3283C83.6908 73.9813 84.8755 73.555 86.0801 73.2179C87.3145 72.8709 88.5686 72.5982 89.8129 72.2859C90.3632 72.1471 90.9134 72.0034 91.4537 71.8398C92.6583 71.4779 93.853 71.0813 95.0626 70.7343C95.7615 70.5311 96.4952 70.427 97.1942 70.2287C98.4235 69.8817 99.638 69.4752 100.877 69.1381C102.132 68.7961 103.41 68.5284 104.67 68.1913C105.289 68.0228 105.884 67.7551 106.504 67.5617C107.148 67.3585 107.803 67.19 108.452 67.0115C109.29 66.7835 110.132 66.5703 110.965 66.3373C111.615 66.1589 112.259 65.9457 112.913 65.7821C113.597 65.6086 114.306 65.5144 114.985 65.3211C115.883 65.0683 116.76 64.756 117.578 64.4932C117.603 64.3396 117.613 64.2107 117.647 64.0868C117.722 63.8389 117.876 63.596 117.876 63.3481C117.885 55.5356 117.885 47.7181 117.876 39.9056C117.876 39.6429 117.757 39.3851 117.702 39.1521L117.717 39.162ZM65.364 76.5095C64.7047 76.7325 64.0256 76.8912 63.3514 77.0448C62.8607 77.1539 62.6079 76.9308 62.6376 76.4153C62.6822 75.6767 62.7516 74.938 62.7615 74.1994C62.7814 72.3058 62.7863 70.4072 62.7615 68.5135C62.7516 67.9633 62.6475 67.4031 62.5236 66.8677C62.3203 66.0101 61.4826 65.6731 60.8381 66.2679C60.2631 66.7983 59.7129 67.4378 59.4006 68.1417C58.657 69.8173 58.4636 71.6167 58.5182 73.4459C58.5578 74.824 58.5281 76.2071 58.5231 77.5901C58.5231 78.4675 58.4785 78.4874 57.6408 78.7005C56.9418 78.879 56.2527 79.0872 55.5736 79.3202C54.8945 79.5482 54.721 79.459 54.716 78.7204C54.7011 76.5342 54.6962 74.3531 54.716 72.167C54.7358 69.9858 54.8102 67.7997 54.8052 65.6185C54.8052 64.9642 55.0184 64.6221 55.6331 64.4734C56.3122 64.3049 56.9765 64.0719 57.6556 63.9281C58.4785 63.7596 58.4884 63.7943 58.533 64.6073C58.543 64.8254 58.5826 65.0385 58.6173 65.3161C59.2717 64.5924 59.817 63.9281 60.4267 63.3333C61.2198 62.5599 62.246 62.1931 63.3167 62.089C64.4172 61.9799 65.483 62.6244 65.9242 63.829C66.3604 65.0038 66.3604 66.2035 66.3852 67.413C66.4298 69.9015 66.4893 72.395 66.529 74.8835C66.5488 76.103 66.5389 76.1228 65.369 76.5194L65.364 76.5095ZM81.2568 64.2652C81.2469 66.5306 81.1676 68.7911 81.123 71.0566C81.1031 71.9835 81.0882 72.0083 80.1811 72.281C79.5912 72.4594 78.9963 72.623 78.4163 72.8362C77.6727 73.1039 77.4249 72.9601 77.3505 72.157C77.3357 71.9786 77.291 71.8001 77.2464 71.5523C76.5425 72.2661 75.9625 72.9502 75.2834 73.5252C74.2721 74.3878 73.0626 74.8091 71.7291 74.5662C70.6088 74.363 69.9891 73.5005 69.6124 72.514C68.9134 70.6798 68.7399 68.7763 68.9778 66.8132C69.1414 65.4549 69.3843 64.1363 69.9445 62.8822C70.7327 61.1224 71.9819 59.8533 73.7516 59.0552C74.7083 58.6239 75.6899 58.5198 76.7011 58.6091C77.2216 58.6537 77.3406 58.4157 77.3505 57.9696C77.3852 56.3635 77.4546 54.7623 77.4794 53.1562C77.4893 52.6604 77.643 52.3184 78.1139 52.1449C78.8625 51.8673 79.6061 51.5699 80.3645 51.317C80.999 51.1039 81.2469 51.2923 81.2469 51.9615C81.2469 56.0611 81.2617 60.1607 81.2419 64.2603L81.2568 64.2652ZM94.1257 62.0642C93.278 63.021 92.1477 63.5712 90.9382 63.9232C90.0707 64.171 89.1784 64.3247 88.291 64.5131C87.7011 64.637 87.5772 64.87 87.8052 65.4302C88.1969 66.4018 89.1189 66.6496 90.383 66.2084C91.7264 65.7425 93.0252 65.1377 94.5074 64.523C94.661 65.2566 94.8791 66.03 94.9535 66.8132C94.9783 67.066 94.666 67.4229 94.4181 67.6212C92.8764 68.8407 91.0869 69.5942 89.1883 69.9759C87.25 70.3626 85.5547 70.2287 84.5335 68.3053C84.127 67.532 83.9188 66.5951 83.8494 65.7177C83.7056 63.8141 83.6709 61.9006 84.2708 60.0268C85.0292 57.6771 86.4123 55.9123 88.6827 54.8664C89.8625 54.3211 91.072 54.0385 92.3807 54.1129C93.7935 54.1922 94.9832 55.1886 95.4195 56.5518C96.0986 58.6735 95.5335 60.473 94.1257 62.0692V62.0642ZM105.82 53.7262C105.23 53.9989 104.605 54.2418 104.1 54.6334C102.85 55.61 102.503 57.0575 102.424 58.5347C102.315 60.6118 102.335 62.6938 102.31 64.7758C102.295 65.9407 102.31 65.9556 101.219 66.3125C100.595 66.5158 99.9503 66.6595 99.3109 66.8033C98.7011 66.9371 98.5822 66.833 98.5822 66.1886C98.5772 63.3828 98.5822 60.582 98.5822 57.7763C98.5822 56.1701 98.597 54.559 98.5772 52.9529C98.5722 52.3828 98.7606 52.1052 99.3605 51.9912C100.059 51.8623 100.739 51.6046 101.418 51.3765C102.132 51.1386 102.3 51.2476 102.315 51.9912C102.32 52.2688 102.35 52.5415 102.365 52.7397C103.311 51.8871 104.199 51.0593 105.131 50.276C105.383 50.0629 105.74 49.9489 106.068 49.8448C106.434 49.7258 106.613 49.9538 106.633 50.2959C106.682 51.1386 106.722 51.9813 106.757 52.824C106.781 53.4635 106.251 53.5279 105.83 53.7262H105.82ZM115.878 50.8461C114.668 51.1386 113.707 51.8028 113.082 52.9083C112.566 53.8055 112.413 54.8069 112.368 55.8083C112.284 57.8853 112.274 59.9673 112.244 62.0493C112.229 63.0656 112.254 63.1003 111.302 63.4274C110.648 63.6555 109.964 63.8191 109.28 63.948C108.581 64.0818 108.482 63.9777 108.482 63.2639C108.482 59.9673 108.482 56.6658 108.482 53.3693C108.482 52.2787 108.492 51.1832 108.482 50.0926C108.472 49.5424 108.715 49.2846 109.255 49.1706C109.934 49.0268 110.598 48.8087 111.258 48.5856C112.036 48.3229 112.214 48.427 112.244 49.2499C112.249 49.4283 112.274 49.6068 112.289 49.7853C112.343 49.815 112.398 49.8398 112.452 49.8695C112.626 49.6861 112.819 49.5126 112.973 49.3094C113.736 48.3179 114.653 47.5149 115.833 47.0588C116.383 46.8457 116.597 46.9894 116.616 47.5892C116.641 48.3328 116.616 49.0764 116.671 49.815C116.711 50.4198 116.478 50.7123 115.888 50.856L115.878 50.8461Z" fill="black"/>
<path d="M90.6208 57.3202C89.322 57.5879 88.5239 58.6289 88.3355 60.2301C88.2711 60.7754 88.4644 61.0133 89.0196 60.9786C90.0706 60.7605 91.1661 60.6366 91.9493 59.7591C92.4649 59.1841 92.5739 58.4306 92.2269 57.8258C91.9097 57.2806 91.4784 57.1418 90.6158 57.3202H90.6208Z" fill="black"/>
<path d="M10.181 55.5653L10.1166 80.3364L28.1348 88.8473L28.6574 63.8577L10.181 55.5653Z" fill="#61778C"/>
<path d="M16.3576 67.4032C16.9029 66.1986 18.8164 65.8664 19.5649 67.0462C18.4198 66.6298 17.4581 66.8579 16.3576 67.4032Z" fill="white"/>
<path d="M40.7172 72.7023L40.4743 69.4256L28.9389 72.5239L23.7636 70.0254C23.6298 66.833 21.0272 63.6406 18.271 63.4274C16.9723 63.3283 15.6983 63.7744 14.7663 64.6469C13.7848 65.5739 13.2544 66.9024 13.2792 68.3945C13.3386 71.9191 16.1741 75.3544 19.1138 75.4536C19.198 75.4536 19.2823 75.4536 19.3666 75.4536C20.7695 75.4536 21.86 75.0272 22.5987 74.1845C22.8465 73.902 23.0547 73.5698 23.2233 73.198L28.5671 76.2765L40.7122 72.6924L40.7172 72.7023ZM20.9826 72.7618C20.7645 73.0097 20.3431 73.3368 19.1931 73.2922C17.4085 73.2278 15.4851 70.6947 15.4454 68.3549C15.4306 67.4675 15.7082 66.724 16.2535 66.2134C16.6947 65.797 17.2895 65.5689 17.9141 65.5689C17.9786 65.5689 18.043 65.5689 18.1075 65.5739C19.6739 65.6929 21.6965 68.107 21.6122 70.4071C21.5725 71.5374 21.3594 72.3305 20.9826 72.7569V72.7618Z" fill="white"/>
</svg>
