<svg width="128" height="128" viewBox="0 0 128 128" fill="none" xmlns="http://www.w3.org/2000/svg">
<rect width="128" height="128" fill="black"/>
<path d="M110.573 63.0888C110.421 61.7768 108.733 60.6789 107.715 60.4826C106.781 60.3145 105.833 60.2309 104.884 60.2327C104.138 60.2238 103.393 60.2596 102.651 60.3398C102.196 60.3426 101.755 60.4994 101.4 60.7846C101.044 61.0698 100.796 61.4666 100.696 61.9106C100.587 62.1347 100.531 62.3803 100.531 62.6291C100.531 62.878 100.587 63.1236 100.696 63.3476C101.097 63.901 101.919 63.5975 102.428 63.4369C103.014 63.3004 103.613 63.2227 104.214 63.2048C104.863 63.053 105.539 63.053 106.188 63.2048C105.947 63.6957 105.295 63.9456 104.831 64.1866C104.205 64.5436 103.607 64.9185 102.973 65.2666C101.281 66.2913 99.5134 67.1864 97.6859 67.9442C96.6486 68.2679 95.5663 68.4245 94.4797 68.4083C93.656 68.4619 92.8296 68.4619 92.0059 68.4083C91.4611 68.3547 90.4876 68.319 90.2197 67.7032C90.1517 67.4779 90.1365 67.2399 90.1753 67.0078C90.214 66.7756 90.3056 66.5555 90.443 66.3644C90.9525 65.3582 91.7137 64.5008 92.6525 63.8752C93.5914 63.2497 94.6762 62.8773 95.8015 62.7943C96.095 62.8352 96.3941 62.7924 96.6643 62.6708C96.9345 62.5492 97.1648 62.3538 97.3287 62.107C97.3988 61.9264 97.4311 61.7333 97.4237 61.5397C97.4163 61.3461 97.3693 61.1561 97.2857 60.9813C97.202 60.8066 97.0834 60.6508 96.9372 60.5236C96.791 60.3963 96.6203 60.3004 96.4356 60.2416C95.2656 59.6972 93.8456 60.1791 92.7203 60.6432C91.5668 61.069 90.5468 61.7927 89.7642 62.7407C88.6808 64.1028 88.1571 65.8262 88.2996 67.5604C88.6121 69.9881 90.2376 72.2997 92.7114 72.1034C93.508 72.0553 94.2948 71.9023 95.0513 71.6482C95.8193 71.3715 96.5606 70.7557 97.3912 70.7557C97.3993 70.751 97.4086 70.7485 97.418 70.7485C97.4274 70.7485 97.4366 70.751 97.4447 70.7557C97.8829 71.3303 98.4696 71.7747 99.1416 72.0409C99.8575 72.1939 100.589 72.2628 101.321 72.2462C104.573 72.3863 107.824 71.9605 110.93 70.9877C111.602 70.7952 112.216 70.4395 112.716 69.9524C113.61 69.0063 112.172 68.685 111.448 68.676H108.894C106.983 68.676 105.054 68.676 103.143 68.8278C102.589 68.8278 102.026 68.926 101.473 68.9527C101.106 68.9527 100.579 68.8188 100.812 68.3726C101.041 68.0763 101.351 67.853 101.705 67.73C103.791 66.8103 105.939 66.0408 108.135 65.4272C108.876 65.2041 110.002 64.8739 110.421 64.0973C110.592 63.7904 110.661 63.4373 110.618 63.0888" fill="white"/>
<path d="M84.3521 63.2227C84.3974 62.979 84.3914 62.7286 84.3345 62.4873C84.2776 62.2461 84.1711 62.0193 84.0217 61.8215C83.7774 61.5326 83.4725 61.3011 83.1286 61.1431C82.6285 60.9468 82.2355 61.4466 81.8158 61.7054C81.3374 62.0151 80.8287 62.2753 80.2975 62.4819C79.272 62.9432 78.1816 63.2442 77.0646 63.3745C76.477 63.5105 75.866 63.5105 75.2784 63.3745C74.8587 63.2049 74.6264 61.8482 74.5818 61.7054C74.3675 61.1342 74.2156 60.7504 73.5815 60.6612C73.0368 60.7504 72.8313 61.3127 72.6885 61.875C72.5284 62.5923 72.4861 63.3309 72.5634 64.0617C72.6447 64.9551 73.0255 65.7948 73.6441 66.4448C73.8348 66.5952 74.058 66.6991 74.296 66.7482C74.555 66.8375 74.8051 66.891 74.8586 67.2124C74.8721 67.4621 74.8721 67.7124 74.8586 67.9621C74.8586 68.6136 74.9122 69.2652 74.948 69.9167C74.948 70.1131 74.948 70.3005 74.948 70.488C75.0105 71.2823 74.948 72.8085 75.9571 72.9781C77.3236 73.2013 77.0646 71.6661 77.1003 70.7289C77.1003 70.1399 77.1449 69.5419 77.1807 68.9439C77.1789 68.3459 77.2267 67.7489 77.3236 67.1588H77.395C77.9041 67.0963 78.3953 67.0071 78.8507 66.9089C79.3733 66.8096 79.8893 66.6784 80.3958 66.5162C81.4021 66.2224 82.3464 65.7475 83.1822 65.1149C83.6981 64.7266 84.0892 64.1961 84.3075 63.5887C84.3361 63.4806 84.3541 63.37 84.3611 63.2584" fill="white"/>
<path d="M85.3345 71.1484C85.4835 70.8773 85.5704 70.5766 85.5889 70.2679C85.6075 69.9592 85.5572 69.6502 85.4417 69.3633C85.1648 68.801 84.1557 69.1759 83.7091 69.2562C83.4667 69.2686 83.2327 69.3488 83.0338 69.4877C82.8348 69.6265 82.6789 69.8185 82.5838 70.0416C82.5349 70.381 82.5625 70.727 82.6644 71.0543C82.7664 71.3817 82.9403 71.6821 83.1733 71.9338C84.0663 72.8263 84.8612 71.9338 85.3345 71.1216" fill="white"/>
<path d="M46.9855 64.0439C46.8878 63.9692 46.821 63.8612 46.7979 63.7404C46.6104 63.0442 46.6283 62.4819 47.3874 62.357C48.1626 62.3189 48.9387 62.4125 49.6826 62.6337C49.8429 62.6473 49.9916 62.7232 50.0967 62.8449C50.2019 62.9667 50.2552 63.1247 50.2453 63.2852C50.1917 63.6065 49.8702 63.6779 49.6201 63.7582C49.0307 63.9635 47.5481 64.4544 46.9855 64.0439ZM70.1164 70.7914C70.1164 70.5951 70.1164 70.3898 70.1164 70.2023C70.2146 68.7564 70.3486 67.3016 70.5004 65.8557C70.6433 64.5972 70.8219 63.3477 69.8574 62.3838C68.8928 61.4198 67.9819 61.0271 66.7405 61.6162C65.493 62.3704 64.205 63.0557 62.8824 63.669C62.6062 62.8906 62.2278 62.1522 61.7571 61.4734C61.3641 61.0271 60.2567 60.1078 59.7387 60.8307C59.4727 61.3601 59.3119 61.936 59.2654 62.5266C59.1136 63.187 58.9439 63.8475 58.801 64.5169C58.5152 65.9182 58.024 67.5158 57.64 68.8903H57.5864C56.0771 68.4887 54.5321 68.2745 53.0227 67.8461C51.5134 67.4176 50.0309 66.8821 48.5573 66.3109C49.1557 66.2038 49.8076 66.0253 50.3971 65.8914C51.0472 65.76 51.6756 65.5377 52.2636 65.2309C52.8213 65.0196 53.3054 64.6505 53.6568 64.1688C55.2733 61.3306 49.629 60.438 48.1822 60.3755C47.182 60.3755 44.1455 60.0096 43.8865 61.5537C43.8476 61.9166 43.881 62.2837 43.9847 62.6337C44.0919 63.0442 44.3598 63.071 44.5384 63.428C44.7171 63.785 44.2795 64.624 44.1544 65.0614C43.949 65.7218 43.7972 66.4091 43.6275 67.0785C43.3021 68.1441 43.1749 69.2604 43.2524 70.3719C43.2708 70.7085 43.3432 71.04 43.4667 71.3537C43.5775 71.5608 43.7613 71.7193 43.9825 71.7985C44.2036 71.8777 44.4464 71.8719 44.6635 71.7821C45.2618 71.5501 45.3244 70.8896 45.5566 70.3005C45.7895 69.7891 45.9749 69.2572 46.1103 68.7118C48.3336 69.8151 50.669 70.6769 53.0763 71.2823C53.8918 71.4496 54.7363 71.4097 55.5323 71.1663C56.0324 71.0413 56.479 70.7468 56.988 70.6575C57.6936 70.5237 57.6579 70.9788 57.8811 71.5501C58.0132 71.8159 58.1815 72.0622 58.3812 72.2819C60.0513 74.067 60.3728 69.4794 60.5961 68.6226C60.6784 68.037 60.8252 67.4623 61.0337 66.9089C61.3106 66.3823 61.7303 66.9089 61.9893 67.1856C62.301 67.5422 62.7336 67.7711 63.2039 67.8282C63.5343 67.8483 63.8651 67.7965 64.1735 67.6763C64.4819 67.5561 64.7605 67.3704 64.9901 67.132C65.4902 66.6858 66.035 66.293 66.4994 65.8111C66.7584 65.5522 67.0531 65.0346 67.3925 64.9185C67.9372 64.8114 67.7408 65.6326 67.7051 65.9985C67.6247 66.659 67.5979 67.3284 67.5622 67.9889C67.464 68.8578 67.464 69.735 67.5622 70.604C67.6872 71.2734 68.5713 72.389 69.2947 72.2105C70.0181 72.032 70.1074 71.4251 70.1342 70.7914H70.1164Z" fill="white"/>
<path d="M42.0914 64.3382C42.2642 63.7771 42.2919 63.1814 42.1718 62.6067C42.0014 62.1767 41.7599 61.7785 41.4573 61.4286C41.243 61.1608 40.5642 60.4646 40.0909 60.6878C39.6176 60.9109 39.5729 62.0087 39.4389 62.3479C39.1663 63.12 38.9368 63.9067 38.7513 64.7042C38.4203 66.351 38.1965 68.0176 38.0814 69.6934C37.9907 70.3799 37.9757 71.0743 38.0368 71.7641C38.1529 72.7995 39.0103 72.9244 39.823 72.3532C40.8679 71.6392 40.975 70.2914 41.2162 69.2472C41.4573 68.2029 41.5913 67.3371 41.8056 66.4089C41.932 65.7518 42.0126 65.0868 42.0467 64.4186C42.0467 64.4186 42.0467 64.365 42.0467 64.3382" fill="white"/>
<path d="M35.5328 55.3864C35.222 54.8588 34.7819 54.4208 34.2549 54.1144C32.3858 53.0178 30.2906 53.009 28.2303 53.0002C26.7377 52.9942 25.2468 53.1027 23.7705 53.3248C22.9533 53.4476 22.1361 53.5968 21.3363 53.781C20.3709 53.9869 19.4163 54.2416 18.4762 54.5442C17.6194 54.8713 16.7979 55.2857 16.0246 55.7812C15.6277 55.963 15.3009 56.2711 15.0944 56.6584C14.9685 57.1563 14.9685 57.6782 15.0944 58.1761C15.17 58.7306 15.4128 59.2482 15.7899 59.6587C16.0836 60.1454 16.5459 60.5046 17.0873 60.6667C17.6286 60.8288 18.2104 60.7822 18.7196 60.5359C19.0152 60.4131 19.7541 59.8429 20.0323 59.9306C20.4844 60.0622 20.0932 61.536 20.0323 61.8869C19.9889 62.1121 19.8919 62.3233 19.7495 62.5021C19.6071 62.6809 19.4237 62.8221 19.2151 62.9133C18.8413 63.0537 18.0676 62.9747 17.9459 63.5011C17.5981 64.9661 19.076 66.0452 19.276 67.3523C19.2872 68.0087 19.2112 68.6637 19.0499 69.2998C18.963 70.1771 18.9195 71.0017 18.85 71.8526C18.781 72.2908 18.7462 72.7337 18.7457 73.1773C18.7542 73.315 18.7948 73.4488 18.8641 73.5677C18.9335 73.6866 19.0297 73.7874 19.1449 73.8617C19.2601 73.9361 19.391 73.982 19.5271 73.9957C19.6631 74.0094 19.8005 73.9905 19.928 73.9405C20.6843 73.6335 21.0842 72.6246 21.3972 71.879C21.7975 70.8695 22.089 69.8195 22.2665 68.7471C22.3969 68.019 22.6317 67.247 23.4228 67.1505C24.466 67.0277 25.4831 66.7294 26.535 66.6066C27.6626 66.526 28.7855 66.3884 29.8994 66.1943C30.6471 66.0364 31.4034 66.0627 32.1511 65.9487C33.51 65.7475 34.8143 65.27 35.9849 64.545C36.4716 64.0708 36.805 63.4593 36.9412 62.7905C37.5236 61.2465 33.6029 61.4571 33.003 61.4571C31.3165 61.4571 29.7516 61.4571 28.3085 61.6062C27.2602 61.7159 26.2067 61.7686 25.1528 61.7641C24.692 61.7641 24.0139 61.7641 23.7097 61.3079C23.4675 60.5766 23.511 59.7797 23.8314 59.0797C24.1096 58.3866 25.1615 58.5796 25.7092 58.5358C26.6394 58.4656 27.5609 58.3252 28.4998 58.2814C30.4486 58.2462 32.3936 58.0939 34.3244 57.8252C34.8113 57.7375 35.698 57.562 35.8197 56.9479C35.9124 56.4067 35.8106 55.8499 35.5328 55.3776" fill="#DE0000"/>
</svg>
