<svg width="128" height="128" viewBox="0 0 128 128" fill="none" xmlns="http://www.w3.org/2000/svg">
<rect width="128" height="128" fill="white"/>
<path d="M62.15 60.693V69.7671C62.15 70.355 62.0094 70.472 61.4316 70.331C59.5408 69.8573 58.0577 68.8239 57.092 67.1024C56.5952 66.2131 56.3226 65.2156 56.2977 64.1966C56.2301 62.6301 56.7406 61.0936 57.7316 59.8809C58.4702 58.9594 59.4544 58.2671 60.5699 57.8845C60.8426 57.7872 60.8974 57.6533 60.8974 57.4023C60.8974 55.4567 60.8974 53.5096 60.8974 51.564C60.8974 51 60.8974 51 61.4597 51H61.6706C62.1219 51 62.1472 51.0282 62.1472 51.4794C62.1509 54.5511 62.1519 57.6223 62.15 60.693ZM60.8946 63.9908V59.6314C60.8946 59.5369 60.8946 59.4439 60.8946 59.3494C60.8834 59.1534 60.7948 59.0984 60.6205 59.1999C60.2877 59.3685 59.9652 59.5569 59.6547 59.7639C57.8286 61.1498 57.1341 63.2153 57.7274 65.4345C58.1308 66.9473 59.1079 68.009 60.4869 68.7097C60.8637 68.9014 60.8932 68.8746 60.8946 68.4559C60.8965 66.9689 60.8965 65.4805 60.8946 63.9908Z" fill="#0075B6"/>
<path d="M63.4082 67.2673C63.4082 64.22 63.4082 61.1723 63.4082 58.1241C63.4082 57.5715 63.4166 57.5517 63.9522 57.625C65.0558 57.7759 66.0089 58.2693 66.8763 58.9517C67.9152 59.7667 68.5829 60.8509 68.9779 62.0803C69.3224 63.1676 69.357 64.3299 69.0777 65.4358C68.8182 66.5212 68.2847 67.5213 67.5286 68.3402C66.891 69.063 66.0877 69.6195 65.1879 69.9616C64.6172 70.1745 64.6144 70.1674 64.6144 70.7906C64.6144 72.6893 64.6144 74.5884 64.6144 76.488C64.6144 76.9702 64.5905 76.9927 64.1308 76.9984C63.411 77.0068 63.411 77.0068 63.411 76.2737C63.4101 73.2706 63.4091 70.2685 63.4082 67.2673ZM64.6116 63.9385C64.6116 65.4274 64.6116 66.9162 64.6116 68.4051C64.6116 68.797 64.6945 68.8506 65.0333 68.6645C65.3044 68.5274 65.5655 68.3715 65.8149 68.1978C66.7248 67.54 67.4003 66.6067 67.7422 65.5353C68.084 64.4638 68.0742 63.3107 67.7141 62.2452C67.2601 60.9171 66.3547 59.9471 65.1134 59.2845C64.6481 59.0377 64.6045 59.0561 64.6031 59.5665L64.6116 63.9385Z" fill="#D36D00"/>
<path d="M76.3233 61.4035C76.0998 62.1084 75.9536 62.795 75.761 63.4676C75.6063 64.0231 75.4587 64.5955 75.3392 65.1594C75.1523 66.0054 74.8992 66.8513 74.6743 67.6902C74.6535 67.7321 74.6357 67.7755 74.6209 67.8199C74.4915 68.8675 74.1991 68.6658 73.2235 68.6658C73.1519 68.6703 73.0813 68.648 73.0252 68.6032C72.9691 68.5584 72.9316 68.4943 72.9199 68.4233C72.8032 67.8411 72.6387 67.2701 72.5248 66.6864C72.3983 66.0491 72.1959 65.4175 72.082 64.783C71.9934 64.2895 71.8571 63.8088 71.7502 63.3209C71.6097 62.6738 71.4607 62.0252 71.299 61.3809C71.1444 60.762 71.008 60.1374 70.8773 59.5114C70.8638 59.4715 70.8605 59.4287 70.8679 59.3872C70.8752 59.3457 70.8929 59.3067 70.9192 59.2738C70.9455 59.2409 70.9797 59.2152 71.0186 59.1991C71.0574 59.1829 71.0997 59.1769 71.1415 59.1815C71.4227 59.1716 71.7039 59.1815 71.985 59.1815C72.0506 59.1763 72.1157 59.1958 72.1677 59.2362C72.2197 59.2766 72.2548 59.335 72.2662 59.4C72.4067 59.9767 72.5572 60.5505 72.6879 61.13C72.8454 61.8687 73.0112 62.6061 73.1996 63.3379C73.3697 64.0019 73.4976 64.6787 73.6213 65.3554C73.6818 65.6882 73.8744 65.987 73.8463 66.3423C73.9953 65.5669 74.2076 64.8126 74.4198 64.0569C74.6518 63.2293 74.8261 62.3848 75.0412 61.5515C75.2225 60.8466 75.4236 60.1416 75.6204 59.4367C75.6308 59.3784 75.6611 59.3256 75.7061 59.2872C76.0801 59.0884 76.4849 59.1702 76.8701 59.2139C77.1316 59.2435 77.1977 59.5269 77.2469 59.7567C77.4043 60.4842 77.6222 61.1976 77.7825 61.9223C77.9737 62.7866 78.2366 63.6311 78.4179 64.4982C78.536 65.0622 78.7525 65.6134 78.8523 66.2859C78.9929 65.6402 79.1152 65.0763 79.2473 64.5151C79.3879 63.8905 79.5664 63.2716 79.6986 62.6456C79.7942 62.1916 79.9404 61.7517 80.0191 61.2935C80.1217 60.6971 80.2693 60.1078 80.4197 59.5213C80.4872 59.2604 80.7009 59.1801 80.9638 59.1787C81.7679 59.1787 81.7735 59.1674 81.6456 59.9301C81.5177 60.6929 81.2885 61.4232 81.1269 62.1733C80.9863 62.7993 80.8274 63.4196 80.7051 64.0484C80.573 64.7224 80.4043 65.3893 80.2482 66.059C80.0767 66.7949 79.894 67.5281 79.7337 68.2668C79.6775 68.522 79.558 68.6687 79.2965 68.6898C79.2023 68.6898 79.1081 68.6898 79.0154 68.6898C78.1213 68.6898 78.0777 68.6348 77.909 67.7635C77.7797 67.1009 77.5913 66.4509 77.4254 65.7897C77.2642 65.1599 77.1002 64.5306 76.9334 63.9018C76.7661 63.2716 76.6016 62.6414 76.4245 62.014C76.3765 61.8131 76.3427 61.6091 76.3233 61.4035Z" fill="#1F2025"/>
<path d="M36.0924 62.2903C35.6383 63.4323 35.2138 64.5024 34.7878 65.5726C34.6163 66.0054 34.4378 66.4354 34.2719 66.8711C34.151 67.1897 33.9556 67.318 33.5943 67.3532C32.9167 67.4181 32.547 67.1812 32.3165 66.5271C31.8525 65.2173 31.1736 63.9892 30.7153 62.6795C30.6675 62.5385 30.5438 62.4327 30.5156 62.2762C30.4468 62.5582 30.5452 62.8303 30.5438 63.1066C30.5438 64.7717 30.5438 66.4368 30.5438 68.1019C30.5438 68.3303 30.6014 68.6306 30.316 68.7067C30.0053 68.7885 29.6651 68.8209 29.3643 68.6264C29.3101 68.5811 29.2686 68.5225 29.2439 68.4562C29.2193 68.3899 29.2123 68.3183 29.2237 68.2485C29.2237 65.4109 29.2237 62.5732 29.2237 59.7356C29.2237 59.3126 29.3643 59.1886 29.7734 59.1787C30.6815 59.1547 30.711 59.2069 31.0597 60.0641C31.5039 61.1554 32.0002 62.2241 32.4725 63.3069C32.763 63.9695 33.0522 64.6326 33.3399 65.2962C33.3666 65.3582 33.368 65.4485 33.4523 65.4584C33.562 65.471 33.576 65.3709 33.6056 65.2976C34.0479 64.2064 34.4889 63.1146 34.9284 62.0224C35.2588 61.1991 35.5779 60.3715 35.9125 59.5523C35.9528 59.4414 36.0263 59.3457 36.1229 59.2783C36.2195 59.2109 36.3346 59.1751 36.4523 59.1759C37.4012 59.1336 37.4293 59.1533 37.4293 60.0895C37.4293 62.7514 37.4293 65.4132 37.4293 68.0751C37.4293 68.3035 37.4954 68.6038 37.2241 68.6941C37.0656 68.7533 36.8968 68.7802 36.7278 68.7729C36.5587 68.7656 36.3929 68.7244 36.24 68.6518C36.0544 68.5545 36.0994 68.3444 36.0994 68.1724C36.0994 66.379 36.0994 64.5852 36.0994 62.7908L36.0924 62.2903Z" fill="#1F2025"/>
<path d="M51.8063 66.0125C51.8445 65.9566 51.8711 65.8937 51.8846 65.8273C51.8981 65.761 51.8983 65.6926 51.885 65.6262C51.885 63.8215 51.885 62.0164 51.885 60.2108C51.885 60.0938 51.885 59.9767 51.8752 59.8597C51.8218 59.2394 51.8752 59.1787 52.5134 59.1787C53.1741 59.1787 53.2247 59.2267 53.2247 59.9006C53.2247 62.632 53.2247 65.363 53.2247 68.0935C53.2247 68.6941 53.1671 68.7294 52.5556 68.7533C52.1015 68.7702 51.774 68.6659 51.5055 68.2401C50.2051 66.1718 48.871 64.1246 47.5482 62.0718C47.5369 62.0535 47.513 62.0422 47.4793 62.014C47.3626 62.1423 47.4076 62.296 47.4076 62.437C47.4076 64.3357 47.4076 66.2343 47.4076 68.133C47.4076 68.6617 47.3289 68.7392 46.7975 68.7449C46.6808 68.7449 46.5627 68.7449 46.446 68.7449C46.1522 68.7449 45.999 68.6039 45.999 68.2895C45.999 65.4189 45.999 62.547 45.999 59.675C45.999 59.276 46.1044 59.1773 46.5079 59.183C46.9114 59.1886 47.3204 59.0688 47.6002 59.4762C47.7197 59.6496 47.8434 59.8202 47.9516 59.9993C48.625 61.1272 49.3574 62.21 50.0603 63.3083C50.6465 64.1951 51.2215 65.089 51.8063 66.0125Z" fill="#1F2025"/>
<path d="M113.57 65.8715C113.638 65.7121 113.662 65.5373 113.64 65.3653C113.64 63.5014 113.64 61.6375 113.64 59.7737C113.64 59.2337 113.703 59.173 114.251 59.173C115.05 59.173 114.999 59.1096 114.999 59.9076C114.999 62.6616 114.999 65.4156 114.999 68.1696C114.999 68.6659 114.987 68.6771 114.485 68.6785C114.333 68.6785 114.18 68.6673 114.028 68.6785C113.905 68.6916 113.781 68.6676 113.672 68.6096C113.564 68.5515 113.474 68.4621 113.416 68.3529C112.198 66.4514 110.983 64.5513 109.77 62.6527C109.629 62.4285 109.468 62.2128 109.31 61.9858C109.17 62.1141 109.22 62.2678 109.219 62.3932C109.219 64.2797 109.219 66.1666 109.219 68.054C109.219 68.625 109.168 68.6743 108.599 68.6757C108.505 68.6757 108.41 68.6757 108.318 68.6757C107.982 68.6997 107.868 68.5347 107.869 68.2133C107.869 65.354 107.869 62.4948 107.869 59.6341C107.869 59.2266 107.928 59.1759 108.343 59.1688C108.53 59.1688 108.717 59.1773 108.905 59.1688C109.017 59.163 109.128 59.1896 109.225 59.2453C109.322 59.3011 109.401 59.3837 109.452 59.4832L111.983 63.438C112.434 64.1476 112.885 64.8563 113.336 65.5641C113.402 65.6614 113.478 65.7502 113.57 65.8715Z" fill="#1F2025"/>
<path d="M21.7688 63.9611C21.7688 62.6245 21.7688 61.2884 21.7688 59.9527C21.7688 59.2478 21.8433 59.1787 22.5237 59.1787C23.4122 59.1787 24.3034 59.1491 25.1947 59.1872C26.1788 59.2309 26.9899 59.6242 27.4299 60.5604C28.0709 61.9238 27.5874 63.4577 26.294 64.2459C25.9356 64.4644 25.9384 64.4616 26.2097 64.7605C26.6399 65.2328 26.9041 65.8108 27.2148 66.3579C27.5719 66.9867 27.898 67.6268 28.2382 68.2725C28.4069 68.5897 28.3366 68.7166 27.9768 68.7448C27.943 68.7448 27.9065 68.7448 27.8727 68.7448C27.0742 68.8858 26.6539 68.5178 26.3151 67.8087C25.8934 66.919 25.4534 66.0237 24.832 65.2328C24.4384 64.7309 23.9534 64.783 23.4431 64.8098C23.228 64.8239 23.2533 65.0128 23.2519 65.1623C23.2519 66.1351 23.2519 67.1079 23.2519 68.0808C23.2519 68.3021 23.332 68.5672 23.0509 68.7011C22.8203 68.8097 22.0387 68.7336 21.8953 68.5968C21.7519 68.46 21.7772 68.2979 21.7772 68.1358C21.7707 66.7475 21.7679 65.3559 21.7688 63.9611ZM23.2463 61.9957V62.5216C23.2463 63.5466 23.2463 63.5466 24.2894 63.5466C24.579 63.5466 24.87 63.5818 25.1581 63.4831C26.086 63.1673 26.3109 62.093 26.1324 61.3965C26.0481 61.1277 25.8828 60.8919 25.6592 60.7214C25.4356 60.5509 25.1647 60.4543 24.884 60.4448C24.4988 60.4448 24.1122 60.4448 23.7271 60.4448C23.2589 60.4448 23.2463 60.4448 23.2463 60.903C23.2463 61.2668 23.2463 61.6291 23.2463 61.9957Z" fill="#1F2025"/>
<path d="M89.168 58.9531C89.6544 58.9898 90.1858 58.9122 90.7143 59.1505C91.3722 59.4522 91.7251 59.9584 91.9064 60.6196C91.9711 60.8537 91.8362 60.9848 91.6126 60.9961C91.3216 61.0116 91.0278 60.9961 90.7354 60.9961C90.671 60.9954 90.6086 60.9735 90.5578 60.9338C90.507 60.894 90.4706 60.8386 90.4543 60.7761C90.2954 60.3264 89.9215 60.1699 89.5054 60.105C88.9768 60.0232 88.4187 60.0232 87.9787 60.3348C87.2322 60.8635 87.1099 61.8406 87.9983 62.4821C88.5283 62.8642 89.1497 63.094 89.7486 63.3576C90.4515 63.6692 91.1403 64.0005 91.6661 64.6068C92.4125 65.4682 92.3155 67.1446 91.5719 67.9454C90.5653 69.0296 89.3156 69.1537 87.9646 68.9197C87.3629 68.8153 86.7753 68.6842 86.3269 68.2147C85.9327 67.8245 85.6951 67.3027 85.6591 66.7484C85.6479 66.5468 85.7308 66.4284 85.9403 66.4242C86.2439 66.4242 86.549 66.4242 86.8526 66.4242C86.8915 66.4208 86.9307 66.4257 86.9676 66.4383C87.0045 66.451 87.0384 66.4712 87.0671 66.4978C87.0958 66.5243 87.1186 66.5565 87.1342 66.5924C87.1498 66.6283 87.1578 66.667 87.1577 66.7061C87.1352 67.3434 87.5935 67.5986 88.0658 67.6931C88.6366 67.8087 89.2425 67.8763 89.8174 67.6056C90.3615 67.3505 90.6609 66.967 90.7017 66.3367C90.7425 65.6515 90.3221 65.3188 89.8259 65.0255C89.0414 64.5617 88.1389 64.3488 87.3587 63.8708C86.3465 63.2505 85.8123 62.3778 85.9192 61.1596C85.9895 60.3348 86.7317 59.4508 87.4894 59.1547C88.0194 58.9461 88.5663 58.97 89.168 58.9531Z" fill="#1F2025"/>
<path d="M96.5751 58.9785C97.1022 59.0053 97.635 58.8953 98.1566 59.1491C98.4498 59.283 98.709 59.4818 98.9145 59.7307C99.12 59.9795 99.2665 60.2719 99.3431 60.5858C99.4091 60.8283 99.3065 60.9848 99.0619 61.0003C98.7709 61.0172 98.4771 61.0003 98.1847 61.0003C98.1206 61 98.0583 60.9786 98.0075 60.9394C97.9567 60.9002 97.9202 60.8453 97.9036 60.7832C97.7152 60.2756 97.2836 60.1473 96.8169 60.0937C96.3969 60.0391 95.97 60.0934 95.577 60.2516C95.1271 60.4349 94.9261 60.8438 94.8558 61.2653C94.7729 61.7588 95.0133 62.1874 95.4181 62.4722C95.9664 62.8529 96.5934 63.0926 97.2007 63.3604C97.7884 63.5916 98.3374 63.9116 98.8286 64.3093C99.0623 64.5114 99.2529 64.7588 99.3887 65.0368C99.5244 65.3147 99.6027 65.6174 99.6186 65.9265C99.6669 66.3766 99.6022 66.8317 99.4303 67.2503C99.2585 67.6689 98.9849 68.0378 98.6346 68.3233C98.0723 68.8153 97.3792 68.9295 96.6875 69.0113C95.8722 69.1086 95.0835 68.9154 94.3272 68.6137C93.6679 68.3515 93.1168 67.4759 93.1253 66.7724C93.1253 66.5158 93.2335 66.4058 93.4837 66.4171C93.6243 66.4171 93.7649 66.4171 93.9055 66.4171C94.5086 66.4171 94.4903 66.4171 94.6238 66.9952C94.7363 67.4773 95.1763 67.6649 95.5714 67.7184C96.1716 67.7974 96.7845 67.8495 97.3904 67.5619C98.1791 67.1883 98.4588 65.8165 97.6463 65.2765C97.1218 64.9491 96.5673 64.6729 95.9903 64.4517C95.2466 64.1415 94.5128 63.8187 93.9575 63.1828C92.7766 61.8392 93.3867 59.6651 95.0006 59.1505C95.1552 59.1012 95.3014 58.9926 95.4561 58.9813C95.8244 58.9616 96.2068 58.9785 96.5751 58.9785Z" fill="#1F2025"/>
<path d="M38.9616 63.9258V59.8118C38.9616 59.2351 39.0164 59.1787 39.5759 59.1787C41.0023 59.1787 42.4297 59.1787 43.858 59.1787C44.3486 59.1787 44.4287 59.2591 44.4456 59.7427C44.4456 59.8132 44.4456 59.8837 44.4456 59.9528C44.4385 60.3856 44.3837 60.4448 43.9592 60.4462C42.9301 60.4462 41.9011 60.4462 40.8664 60.4462C40.3857 60.4462 40.3843 60.4462 40.3843 60.9425C40.3843 61.5643 40.3913 62.186 40.3843 62.8064C40.3843 63.0785 40.4911 63.1828 40.761 63.1814C41.6495 63.173 42.5393 63.1814 43.432 63.1814C43.8804 63.1814 43.9578 63.266 43.962 63.7214C43.962 64.2022 43.8819 64.3065 43.439 64.3107C42.5731 64.3107 41.7071 64.3234 40.8425 64.3107C40.5051 64.3107 40.3828 64.4419 40.3871 64.7689C40.3983 65.5077 40.4011 66.2465 40.3871 66.9839C40.3871 67.3011 40.4967 67.4238 40.8158 67.4195C41.8927 67.4083 42.9695 67.4195 44.0491 67.4195C44.752 67.4195 45.0332 67.851 44.7816 68.5122C44.686 68.7618 44.4554 68.7491 44.246 68.7505C43.0642 68.7505 41.8824 68.7505 40.7006 68.7505C40.314 68.7505 39.9288 68.7505 39.5422 68.7505C39.0403 68.7505 38.9686 68.6772 38.9686 68.1865C38.9621 66.7644 38.9597 65.3442 38.9616 63.9258Z" fill="#1F2025"/>
<path d="M100.787 63.8962C100.787 62.4863 100.787 61.0792 100.787 59.675C100.787 59.2153 100.829 59.1744 101.291 59.1744C102.791 59.1744 104.291 59.1744 105.79 59.1744C106.224 59.1744 106.267 59.2238 106.272 59.6637C106.282 60.4434 106.282 60.4433 105.519 60.4433C104.571 60.4433 103.624 60.4518 102.675 60.4433C102.378 60.4433 102.253 60.5336 102.253 60.8452C102.269 61.5022 102.266 62.1592 102.253 62.819C102.253 63.101 102.36 63.1898 102.628 63.187C103.506 63.1771 104.384 63.187 105.261 63.187C105.683 63.187 105.707 63.2222 105.708 63.7002C105.708 64.2092 105.678 64.2571 105.264 64.2642C104.398 64.2642 103.532 64.2754 102.666 64.2642C102.368 64.2642 102.245 64.353 102.245 64.666C102.26 65.4513 102.259 66.2366 102.245 67.0219C102.245 67.3293 102.353 67.4336 102.655 67.4308C103.78 67.4195 104.904 67.4308 106.029 67.4308C106.234 67.4308 106.497 67.3843 106.567 67.6437C106.67 67.9458 106.657 68.2755 106.531 68.5686C106.469 68.694 106.317 68.6997 106.185 68.6997C104.523 68.6997 102.862 68.6997 101.2 68.6997C100.885 68.6997 100.771 68.5587 100.778 68.2429C100.791 66.7794 100.787 65.3385 100.787 63.8962Z" fill="#1F2025"/>
<path d="M12 63.9695C12 62.5775 12 61.1836 12 59.7878C12 59.2436 12.0689 59.1759 12.6059 59.1759C14.0679 59.1759 15.5304 59.1759 16.9934 59.1759C17.4531 59.1759 17.5388 59.2661 17.5486 59.7399C17.5486 59.8343 17.5486 59.9274 17.5486 60.0218C17.5725 60.3405 17.4235 60.4561 17.11 60.4533C16.0459 60.4434 14.9803 60.4533 13.9161 60.4434C13.5773 60.4434 13.4648 60.5534 13.4747 60.8889C13.4944 61.5685 13.4747 62.2481 13.4817 62.9276C13.4817 63.3703 13.5126 63.3985 13.9681 63.4C14.8341 63.4 15.7 63.4 16.566 63.4C16.76 63.4 16.9793 63.4 17.0229 63.6326C17.0805 63.9258 17.1438 64.2417 16.961 64.5152C16.8767 64.6407 16.7038 64.604 16.566 64.6054H14.0749C13.4831 64.6054 13.4831 64.6054 13.4817 65.2159C13.4817 66.2113 13.4817 67.2071 13.4817 68.2035C13.4817 68.68 13.4241 68.7378 12.9672 68.7477C12 68.7632 12 68.7632 12 67.8045V63.9695Z" fill="#1F2025"/>
<path d="M18.8883 63.9512C18.8883 62.5413 18.8883 61.1356 18.8883 59.7342C18.8883 59.2478 18.953 59.1843 19.431 59.1787C20.3419 59.1674 20.3588 59.1787 20.3588 60.0867C20.3588 62.7457 20.3588 65.4048 20.3588 68.0638C20.3588 68.6363 20.2562 68.7406 19.6896 68.7476C18.8897 68.7575 18.8869 68.7476 18.8869 67.9567L18.8883 63.9512Z" fill="#1F2025"/>
<path d="M82.8714 63.9174C82.8714 62.5075 82.8714 61.1023 82.8714 59.7018C82.8714 59.2182 82.915 59.1787 83.3888 59.1731C84.3447 59.1618 84.3447 59.1618 84.3447 60.1276V67.8228C84.3447 67.9637 84.3447 68.1047 84.3363 68.2457C84.3278 68.5446 84.1858 68.6828 83.8738 68.6828C82.707 68.6828 82.8771 68.6997 82.8728 67.7142C82.8658 66.4481 82.8714 65.182 82.8714 63.9174Z" fill="#1F2025"/>
</svg>
