<svg width="128" height="128" viewBox="0 0 128 128" fill="none" xmlns="http://www.w3.org/2000/svg">
<rect width="128" height="128" fill="white"/>
<path d="M38.3051 58.7778L38.5579 60.0706C38.9139 59.6962 39.0884 59.4913 39.2699 59.29C40.4163 58.0783 42.0789 58.1843 43.0224 59.5584C43.471 60.2155 43.7024 59.781 44.0015 59.4313C45.2084 58.0183 47.348 58.1561 48.0565 59.7068C48.2284 60.1417 48.3084 60.607 48.2915 61.0738C48.3129 64.0305 48.2915 66.9907 48.3164 69.9473C48.3164 70.5196 48.1562 70.8128 47.5118 70.8022C44.7491 70.7492 45.2974 71.1095 45.2582 68.6827C45.2297 66.7505 45.2582 64.8182 45.2582 62.886C45.2957 62.5736 45.2654 62.2568 45.1692 61.957C45.0956 61.8082 44.9923 61.6757 44.8657 61.5676C44.739 61.4596 44.5915 61.3781 44.4322 61.3282C44.2793 61.3308 44.1292 61.3705 43.9952 61.4438C43.8612 61.517 43.7473 61.6217 43.6632 61.7485C43.4864 62.1142 43.3986 62.5159 43.4069 62.9213C43.382 65.2351 43.3713 67.5488 43.4069 69.8625C43.4069 70.569 43.1897 70.8481 42.4456 70.8304C39.9535 70.7633 40.4021 71.1166 40.3701 68.7958C40.3451 66.7752 40.3701 64.7511 40.3701 62.7306C40.4074 62.4423 40.3655 62.1494 40.249 61.8828C40.0652 61.5991 39.7783 61.3967 39.448 61.3176C39.2951 61.3369 39.149 61.3918 39.0216 61.4777C38.8942 61.5637 38.789 61.6782 38.7146 61.8121C38.5606 62.1527 38.4864 62.5235 38.4974 62.8966C38.4974 65.2103 38.4689 67.5241 38.4974 69.8378C38.4974 70.5443 38.2873 70.834 37.5361 70.8163C35.1259 70.7563 35.4819 71.0777 35.4677 68.8487C35.4677 65.8886 35.4677 62.9319 35.4677 59.9717C35.4677 58.7778 35.4677 58.7778 36.7173 58.7778H38.3051Z" fill="#575656"/>
<path d="M62.6853 58.7778C62.7779 59.1663 62.842 59.4383 62.9488 59.894C63.2585 59.6079 63.4864 59.4136 63.6964 59.1875C64.0005 58.8621 64.3914 58.6289 64.8237 58.5151C65.256 58.4013 65.712 58.4116 66.1387 58.5446C66.5784 58.6526 66.9687 58.9044 67.2464 59.2595C67.5242 59.6146 67.6733 60.0521 67.6696 60.5016C67.7372 63.7232 67.8263 66.9518 67.6518 70.1663C67.5842 71.4239 66.2526 70.5655 65.5157 70.7598C64.9318 70.9117 64.6826 70.5726 64.6897 69.965C64.7111 67.5912 64.6897 65.2174 64.6897 62.8436C64.6897 62.1618 64.7502 61.4306 63.8281 61.2575C63.2229 61.1586 62.8882 61.7591 62.8847 62.8577C62.8847 65.1432 62.8598 67.4499 62.8847 69.7142C62.8847 70.4807 62.7102 70.8234 61.8487 70.7951C59.474 70.7174 59.8336 71.0636 59.8194 68.7851C59.798 65.7967 59.8443 62.8083 59.7944 59.8198C59.7944 58.9544 60.065 58.6647 60.9123 58.7601C61.5026 58.7969 62.0944 58.8028 62.6853 58.7778Z" fill="#575656"/>
<path d="M50.2459 64.7052C50.2459 63.8256 50.2459 62.939 50.2459 62.07C50.2887 60.1378 51.0434 59.1628 52.8983 58.6047C54.8635 58.0148 57.2631 58.8555 57.8149 60.484C58.0962 61.3141 58.0499 62.2714 58.0499 63.1721C58.0499 65.4965 58.3525 65.1326 56.0277 65.168C55.3762 65.168 54.7247 65.168 54.0732 65.168C53.5569 65.168 53.3113 65.4011 53.3184 65.9133C53.2736 66.6435 53.2915 67.3762 53.3718 68.1034C53.4298 68.3081 53.5363 68.4961 53.6825 68.6516C53.8287 68.807 54.0102 68.9255 54.212 68.9971C54.7496 69.096 54.9846 68.6086 55.0309 68.0752C55.1733 66.4608 55.1804 66.4644 56.8394 66.4644C58.1425 66.4644 58.0748 66.4644 58.082 67.736C58.082 70.4808 55.6254 71.3497 53.2828 71.0141C51.3639 70.7386 50.3528 69.6188 50.2602 67.6901C50.2103 66.6975 50.2602 65.6978 50.2602 64.7017L50.2459 64.7052ZM55.0415 62.1195C55.0415 61.3353 55.1092 60.5546 54.1729 60.5758C53.2365 60.597 53.3433 61.3777 53.3184 62.017C53.2935 62.6564 53.3184 63.1121 54.1622 63.1262C55.0451 63.1439 55.0665 62.607 55.0273 62.1195H55.0415Z" fill="#575656"/>
<path d="M15 55.6833C17.3035 55.6833 19.4609 55.6833 21.6184 55.6833C21.7857 55.6833 22.0884 55.8529 22.0955 55.9553C22.1453 56.6539 22.1453 57.3551 22.0955 58.0536C22.0955 58.1667 21.6789 58.315 21.4511 58.3256C20.6821 58.3609 19.9095 58.3503 19.1405 58.3433C18.5816 58.3433 18.3323 58.5835 18.3395 59.1381C18.3786 62.13 17.9834 61.6708 20.6572 61.6708C21.4796 61.6708 21.8249 61.8686 21.7893 62.7518C21.7217 64.6027 21.9424 64.4155 20.1231 64.4191C18.1401 64.4191 18.343 64.3484 18.343 66.1853C18.343 67.4428 18.3217 68.7039 18.343 69.965C18.343 70.5549 18.1686 70.7916 17.5384 70.8128C15 70.9011 15 70.9187 15 68.3825V55.6833Z" fill="#575656"/>
<path d="M31.9893 60.5828C32.6586 59.8445 32.7619 58.6611 34.1254 58.5516C34.1254 59.6644 34.1504 60.7559 34.1005 61.8439C34.1005 61.9781 33.7231 62.1512 33.4988 62.1971C32.324 62.4938 31.9252 62.9601 31.9181 64.1753C31.9181 66.0757 31.8932 67.9762 31.9181 69.8766C31.9181 70.5513 31.7152 70.8163 31.0067 70.8021C28.5146 70.7527 28.9133 71.06 28.8955 68.7957C28.8741 65.7861 28.9133 62.7906 28.8741 59.7597C28.8741 58.9897 29.102 58.6611 29.8817 58.7777C29.9707 58.7777 30.0597 58.7777 30.1487 58.7777C30.6471 58.8095 31.2595 58.6859 31.6013 58.9331C31.8434 59.1062 31.7152 59.7809 31.765 60.2295C31.765 60.3108 31.8469 60.3779 31.9893 60.5828Z" fill="#575656"/>
<path d="M23.8151 64.7547C23.8151 62.9885 23.8151 61.2222 23.8151 59.4843C23.8151 59.0003 23.9432 58.8167 24.4488 58.7778C26.8733 58.6082 26.8697 58.5976 26.8697 60.9962C26.8697 63.9246 26.8412 66.8529 26.8911 69.7778C26.8911 70.615 26.6063 70.8375 25.823 70.8163C23.8471 70.7845 23.8471 70.8163 23.8471 68.877V64.7547H23.8151Z" fill="#575656"/>
<path d="M25.3601 57.658H24.9151C23.9432 57.658 23.4269 56.7961 23.904 55.9624C23.9498 55.8919 24.0105 55.8321 24.0817 55.787C24.153 55.7419 24.2332 55.7125 24.317 55.701C24.9953 55.6639 25.6751 55.6639 26.3534 55.701C27.0441 55.7469 26.8447 56.3192 26.8519 56.7184C26.859 57.1175 26.9693 57.6015 26.3356 57.6439C26.0116 57.6651 25.6841 57.6439 25.3601 57.6439V57.658Z" fill="#575656"/>
<path d="M93.6307 58.4528C93.8501 58.6848 94.1403 58.8388 94.4567 58.8908C96.4433 59.4666 97.2728 60.9078 97.433 62.8118C97.579 64.5462 96.721 65.772 95.2969 66.6763C94.1078 67.4322 92.7478 67.736 91.402 68.0892C90.4052 68.3365 89.3834 68.499 88.383 68.7427C87.7777 68.8876 87.3897 68.7427 87.2473 68.1246C86.9304 66.7893 86.6171 65.4576 86.3323 64.1188C85.7876 61.579 85.2642 59.0356 84.7302 56.4958C84.4774 55.2912 84.2104 54.0937 83.9505 52.8927C83.9203 52.809 83.9097 52.7196 83.9196 52.6313C83.9296 52.5429 83.9598 52.458 84.0079 52.383C84.056 52.308 84.1207 52.2449 84.1972 52.1986C84.2736 52.1522 84.3597 52.1238 84.4489 52.1156C86.7666 51.5751 89.0523 50.9287 91.4946 51.0064C93.6307 51.0806 95.4713 52.9422 95.3289 55.5986C95.2613 56.8632 94.5492 57.718 93.6307 58.4528ZM91.4946 60.5298C90.5404 60.5298 89.8106 60.5298 89.1021 60.8124C89.0195 60.8378 88.9429 60.8796 88.8771 60.9354C88.8114 60.9912 88.7579 61.0598 88.7198 61.1369C88.6818 61.214 88.6601 61.298 88.656 61.3838C88.652 61.4695 88.6657 61.5552 88.6963 61.6355C88.9348 62.7411 89.1555 63.8503 89.4083 64.956C89.5294 65.4788 89.8035 65.9239 90.4408 65.7896C91.5302 65.56 92.6267 65.3445 93.5737 64.6804C94.4389 64.0729 94.4531 63.2463 94.3249 62.3384C94.2812 61.9579 94.131 61.597 93.8912 61.2967C93.6515 60.9965 93.3319 60.7687 92.9685 60.6393C92.4345 60.4203 91.8506 60.544 91.5088 60.544L91.4946 60.5298ZM92.5235 55.648C92.5235 54.1361 91.6797 53.2742 90.1488 53.359C89.3275 53.4385 88.5143 53.585 87.7172 53.797C87.1298 53.9277 87.1298 54.4081 87.2188 54.8567C87.4324 55.9412 87.6852 57.0186 87.9308 58.1031C87.9949 58.421 88.148 58.5693 88.4862 58.481C89.3086 58.262 90.1524 58.0889 90.957 57.8134C92.0856 57.4248 92.5377 56.7537 92.5377 55.648H92.5235Z" fill="#E30813"/>
<path d="M86.1577 75.9948C84.4524 75.9277 84.1533 75.6769 83.7938 74.0025C83.2241 71.3673 83.2277 71.3603 80.5682 70.9646C79.105 70.7491 77.6346 70.6114 76.1785 70.3535C75.9362 70.2877 75.678 70.3134 75.4537 70.4257C75.2295 70.5379 75.0551 70.7287 74.9645 70.9611C74.5337 71.7594 74.0922 72.5542 73.6294 73.3384C73.2734 73.946 71.1764 74.2109 70.6993 73.7199C70.4003 73.4126 70.6068 73.1194 70.7705 72.8439C71.924 70.901 73.0811 68.9617 74.2417 67.026C75.9079 64.2601 77.6026 61.5118 79.226 58.7353C79.6105 58.0854 80.0662 57.7745 80.8103 57.9617C81.6327 58.1666 82.5085 58.0818 82.8111 59.2935C83.9291 63.8044 85.1858 68.287 86.3714 72.7803C86.5672 73.515 86.7274 74.2604 86.9018 74.9951C87.1582 75.8676 87.0407 76.0337 86.1577 75.9948ZM80.7071 61.3069L80.4828 61.2787C79.3115 63.3275 78.1259 65.3728 76.9724 67.4357C76.6164 68.0539 77.186 68.1705 77.5705 68.1846C79.048 68.2482 80.4828 68.6155 81.9496 68.7321C82.3661 68.7674 82.4979 68.6191 82.4053 68.234L80.7071 61.3069Z" fill="#E30813"/>
<path d="M102.478 64.7122C102.317 69.4951 106.519 72.0173 111.072 70.7774C112.058 70.5089 112.226 70.6078 112.254 71.6075C112.3 73.3278 112.208 73.3737 110.378 73.5927C107.996 73.8541 105.714 73.6139 103.613 72.4235C102.579 71.8716 101.685 71.0945 100.997 70.1505C100.308 69.2065 99.8447 68.1202 99.6402 66.973C99.1667 64.4508 99.3127 61.9675 100.74 59.6891C101.688 58.2238 103.045 57.0637 104.645 56.3505C106.246 55.6374 108.021 55.4018 109.755 55.6727C110.513 55.7961 111.264 55.966 112.001 56.1814C112.941 56.4498 113.354 58.3008 112.635 58.9649C112.297 59.2758 111.98 59.0214 111.659 58.8766C110.826 58.4663 109.915 58.2324 108.985 58.1898C108.055 58.1472 107.127 58.2969 106.259 58.6293C104.076 59.4524 102.31 61.8545 102.478 64.7122Z" fill="#E30813"/>
</svg>
