<svg width="128" height="128" viewBox="0 0 128 128" fill="none" xmlns="http://www.w3.org/2000/svg">
<rect width="128" height="128" fill="#EF5401"/>
<path fill-rule="evenodd" clip-rule="evenodd" d="M47.1808 70.1352C47.5985 68.964 47.9833 67.868 48.3791 66.7762C48.9931 65.0789 49.6062 63.3817 50.2353 61.6895C50.6616 60.5428 51.3144 60.1005 52.5187 60.0996C53.043 60.0988 53.5665 60.0996 54.1491 60.0996C54.0273 60.5258 53.9233 60.8869 53.7796 61.3876C54.8764 60.5656 55.9208 59.9026 57.1834 59.8307C58.446 59.758 59.6198 59.9728 60.1246 61.2844C61.1301 60.8311 62.0959 60.3026 63.1242 59.9694C63.7255 59.774 64.4494 59.7783 65.0828 59.8916C66.2828 60.1055 66.8097 61.1846 66.3386 62.6865C65.6765 64.8016 64.8925 66.8811 64.0942 68.9513C63.8025 69.709 63.1116 70.0879 62.2929 70.1293C61.6748 70.1597 61.054 70.1352 60.3344 70.1352C60.8426 68.7196 61.3356 67.358 61.8211 65.994C62.1035 65.1965 62.4003 64.4032 62.6422 63.5931C62.8731 62.8193 62.5593 62.4201 61.7458 62.3601C60.7039 62.2831 59.8413 62.8261 59.4075 63.9237C58.879 65.2616 58.4045 66.6214 57.9073 67.9711C57.2011 69.8824 56.8291 70.1403 54.7851 70.1344C54.5804 70.1335 54.3749 70.1344 54.0755 70.1344C54.5035 68.9403 54.906 67.8071 55.3145 66.6756C55.6088 65.8586 55.9411 65.0536 56.199 64.2248C56.3724 63.6675 56.599 63.0527 56.0451 62.5563C55.673 62.2239 54.6777 62.2891 54.0891 62.6493C53.2637 63.155 52.8079 63.9381 52.4831 64.8125C52.0223 66.054 51.58 67.3022 51.1165 68.542C50.6929 69.6743 50.0112 70.1394 48.8307 70.1352C48.3072 70.1335 47.7837 70.1352 47.1808 70.1352Z" fill="white"/>
<path fill-rule="evenodd" clip-rule="evenodd" d="M78.8919 60.0994C77.8729 61.4627 76.9468 62.7066 76.0149 63.9456C74.058 66.5468 72.1088 69.154 70.1316 71.7401C69.7155 72.2822 69.2174 72.7693 68.7142 73.2344C67.6901 74.1807 66.4537 74.3321 65.1015 74.1367C65.0051 73.3418 64.9112 72.5765 64.8106 71.7545C65.3603 71.6911 65.9184 71.6623 66.463 71.5574C67.5134 71.3553 67.948 70.656 67.74 69.6039C67.6783 69.291 67.6292 68.9697 67.6242 68.6509C67.5895 66.4259 67.6089 64.1993 67.5227 61.9768C67.4863 61.0491 68.3421 60.2356 69.061 60.1409C69.7096 60.0563 70.3768 60.1231 71.1176 60.1231C70.9358 62.3625 70.7591 64.5426 70.5823 66.7219C70.6517 66.7853 70.7219 66.8487 70.7912 66.913C70.8428 66.7676 70.8682 66.6027 70.951 66.4783C72.2483 64.535 73.5625 62.6026 74.8462 60.6508C75.1134 60.244 75.3967 60.0622 75.8991 60.0868C76.8369 60.1316 77.7798 60.0994 78.8919 60.0994Z" fill="white"/>
<path fill-rule="evenodd" clip-rule="evenodd" d="M24 70.1343C24.915 67.6083 25.7801 65.1753 26.6774 62.7533C27.2947 61.0857 27.8808 59.3994 28.6165 57.7842C29.7463 55.3046 31.8191 54.1596 34.4813 54.0488C35.7844 53.9947 37.091 54.0395 38.5464 54.0395C38.242 54.7795 38.0179 55.5194 37.6458 56.1748C37.2373 56.8937 36.4931 57.0983 35.6906 57.1059C35.1172 57.1118 34.5438 57.1381 33.9713 57.1736C32.9041 57.2395 32.0373 57.7072 31.6271 58.7017C30.8601 60.5613 30.1717 62.454 29.4681 64.339C28.9497 65.7276 28.4635 67.128 27.9527 68.52C27.5248 69.6845 26.8601 70.136 25.6152 70.1343C25.1104 70.1335 24.6063 70.1343 24 70.1343Z" fill="white"/>
<path fill-rule="evenodd" clip-rule="evenodd" d="M90.1499 64.0866H94.4814C95.4506 64.0866 95.6992 63.8473 95.4937 62.8781C95.4167 62.5103 95.1004 62.0934 94.774 61.8929C93.1833 60.9162 90.8636 62.0071 90.1499 64.0866ZM96.643 66.7073C95.4616 68.4367 93.974 69.5657 92.062 69.9801C91.1292 70.1813 90.0933 70.1805 89.1529 70.0054C87.7651 69.7467 86.9668 68.627 87.0514 67.2181C87.24 64.0705 89.245 60.7369 92.7521 59.9073C93.6772 59.6882 94.7165 59.7339 95.6662 59.8861C97.4337 60.1703 97.8506 62.2278 97.684 63.4439C97.6561 63.6468 97.6147 63.8481 97.5715 64.0485C97.2426 65.6012 97.2417 65.6003 95.6798 65.602C93.6823 65.6037 91.684 65.6071 89.6865 65.6122C89.6425 65.6122 89.5994 65.6342 89.5013 65.6595C89.3313 66.3733 88.9592 67.1208 89.6459 67.794C90.358 68.4908 91.2172 68.5357 92.1212 68.2524C92.8578 68.0215 93.4971 67.6553 93.9335 66.9847C94.0155 66.8587 94.1948 66.7242 94.3335 66.7192C95.0599 66.6929 95.7863 66.7073 96.643 66.7073Z" fill="white"/>
<path fill-rule="evenodd" clip-rule="evenodd" d="M75.7487 69.8156C76.1555 68.6714 76.5538 67.5424 76.9614 66.416C77.2997 65.4764 77.7039 64.5563 77.9821 63.5999C78.3999 62.1614 79.5136 61.2438 80.4515 60.2062C80.6697 59.9643 81.2481 60.0455 81.7564 59.9618C81.6836 60.3483 81.6354 60.6011 81.6177 60.6933C82.6037 60.3948 83.6185 60.0185 84.6646 59.7986C85.2236 59.681 85.8587 59.7487 86.4253 59.8789C87.6228 60.1563 88.1725 61.1584 87.7429 62.5259C87.0832 64.6248 86.3551 66.7103 85.5128 68.7424C85.0266 69.9179 83.8773 69.9915 82.6468 69.8283C82.9547 68.9437 83.2439 68.0769 83.5551 67.2185C84.0338 65.8942 84.5302 64.5775 85.0122 63.2557C85.4342 62.0971 84.8447 61.3284 83.5965 61.4789C82.1318 61.6557 81.0155 62.3618 80.4769 63.8045C79.9694 65.1644 79.4654 66.5251 78.9749 67.8925C78.3551 69.6236 77.6743 70.0498 75.7487 69.8156Z" fill="white"/>
<path fill-rule="evenodd" clip-rule="evenodd" d="M38.7287 70.1343C39.1117 69.0595 39.4745 68.0303 39.8458 67.0036C40.4826 65.243 41.1202 63.4831 41.7663 61.7267C42.2086 60.5224 42.8149 60.1038 44.0877 60.0979C44.7059 60.0953 45.3241 60.0979 46.0158 60.0979C45.8594 60.6002 45.7215 61.0425 45.5837 61.4848C46.8226 60.1444 48.3583 59.9389 50.1021 60.1537C49.8526 60.804 49.6632 61.4662 49.352 62.0649C48.9478 62.8421 48.2349 63.2506 47.3613 63.1558C45.5405 62.9571 44.4818 64.1554 44.031 65.6074C43.7198 66.6087 43.335 67.5872 42.9689 68.5707C42.5638 69.6565 41.8712 70.1326 40.7312 70.1343C40.0893 70.1352 39.4475 70.1343 38.7287 70.1343Z" fill="white"/>
<path fill-rule="evenodd" clip-rule="evenodd" d="M101.085 68.2226C100.907 68.7274 100.783 69.163 100.594 69.5697C100.524 69.7202 100.309 69.8835 100.149 69.8961C99.3742 69.9587 98.5919 70.0331 97.8198 69.9849C97.1611 69.9435 96.8414 69.5004 96.9936 68.746C97.1864 67.7947 97.5103 66.867 97.8249 65.946C98.323 64.4855 98.86 63.0394 99.4097 61.5079H97.8799C98.0034 61.1324 98.1217 60.8441 98.1919 60.5447C98.2883 60.1329 98.5361 59.9544 98.9353 60.0348C99.8004 60.2081 100.109 59.743 100.348 58.9963C100.841 57.4631 101.586 57.0157 103.192 57.1942C103.027 57.6677 102.864 58.1252 102.705 58.5836C102.55 59.0284 102.397 59.4741 102.213 60.0077H104C103.705 60.8982 103.042 61.4403 102.188 61.4538C101.809 61.4597 101.604 61.5604 101.477 61.9215C100.83 63.765 100.159 65.5984 99.5129 67.442C99.2583 68.1701 99.3082 68.22 100.07 68.2234C100.23 68.2243 100.392 68.2226 100.552 68.2226H101.085Z" fill="white"/>
<path fill-rule="evenodd" clip-rule="evenodd" d="M41.0295 60.0998C40.4316 61.7557 39.8675 63.3202 39.3026 64.8838C38.8679 66.0864 38.4239 67.2864 37.9994 68.4915C37.6222 69.5663 36.8662 70.1287 35.744 70.1337C35.196 70.1363 34.648 70.1337 34.0315 70.1337C34.8425 67.8766 35.6332 65.6686 36.4298 63.4648C36.6776 62.7781 36.9212 62.0897 37.2036 61.4174C37.5673 60.5548 38.2286 60.0998 39.1808 60.0998H41.0295Z" fill="white"/>
<path fill-rule="evenodd" clip-rule="evenodd" d="M40.2854 58.8252C38.4672 58.8336 38.2422 58.5148 38.8579 56.8108C39.1446 56.0159 39.416 55.215 39.7196 54.4277C39.7839 54.2602 39.9564 54.0133 40.0833 54.0108C40.8139 53.9981 41.559 53.9736 42.2744 54.0987C42.819 54.1934 42.9484 54.7178 42.7894 55.1998C42.4173 56.3279 42.0012 57.4425 41.5776 58.5529C41.5302 58.6763 41.3247 58.793 41.1793 58.8133C40.8858 58.8539 40.5839 58.8252 40.2854 58.8252Z" fill="white"/>
<path fill-rule="evenodd" clip-rule="evenodd" d="M35.2217 60.4149C34.5671 63.0018 33.7781 63.4678 30.7337 63.1118C30.9172 60.869 32.1181 60.1392 35.2217 60.4149Z" fill="white"/>
<path fill-rule="evenodd" clip-rule="evenodd" d="M75.3209 67.5767C75.0368 68.3801 74.7746 69.1176 74.5133 69.8567H73.046C73.5704 68.6694 74.6072 67.5683 75.3209 67.5767Z" fill="white"/>
</svg>
