<svg width="128" height="128" viewBox="0 0 128 128" fill="none" xmlns="http://www.w3.org/2000/svg">
<rect width="128" height="128" fill="#C11723"/>
<path d="M31.7446 56.9374C31.7446 50.8858 36.6839 46 42.7608 46C48.8378 46 53.777 50.9135 53.777 56.9374C53.777 62.9891 48.8378 67.8749 42.7608 67.8749C36.6839 67.9026 31.7446 62.9891 31.7446 56.9374Z" fill="#89C2BC"/>
<path d="M40.1802 49.2391L40.2912 49.1581L40.4299 49.1311L40.4854 49.1041L40.5687 49.1311H40.6241L40.7629 49.2121L40.7074 49.2391H40.5132L40.2912 49.374L40.1524 49.401L40.1247 49.3471L40.1802 49.2391ZM40.5964 47.4576L40.4299 47.5116L40.4022 47.5926C40.5409 47.5926 40.6796 47.7545 40.7351 47.8625L40.8461 47.8355C40.9016 47.7545 41.0126 47.7005 41.0959 47.6465L41.1236 47.5656C41.1236 47.5386 41.1236 47.5386 41.0959 47.5116H41.0404C41.0404 47.5116 41.0126 47.5116 41.0126 47.5386L40.9016 47.5116L40.5964 47.4576ZM40.6519 48.9152L40.5409 48.9422L40.3744 48.9962H40.4299L40.5409 48.9692L40.7074 49.0771L40.8184 48.9152L40.7351 48.8612L40.6519 48.9152ZM40.6241 48.8072L40.7074 48.8882L40.8184 48.8072L40.7351 48.6992C40.6796 48.7262 40.5409 48.7802 40.4854 48.7262L40.5409 48.6453L40.3467 48.6992C40.3189 48.7802 40.1802 48.8342 40.1247 48.8342C40.1802 48.8882 40.2634 48.9422 40.3467 48.9422C40.4299 48.9152 40.5409 48.8612 40.6241 48.8072ZM41.3179 49.455C41.3456 49.401 41.3456 49.3201 41.3179 49.2661L41.2346 49.1851L41.2901 48.9962L41.4566 48.9422L41.5121 48.6992C41.4844 48.6992 41.4566 48.6992 41.4289 48.7262V48.7532H41.4011C41.3734 48.7532 41.3734 48.7802 41.3456 48.7802C41.3456 48.8342 41.2901 48.9152 41.2624 48.9422L41.1236 48.9692C40.9294 49.1041 41.0959 49.374 41.1791 49.509L41.3179 49.455ZM41.4289 48.6722L41.4844 48.6453L41.4289 48.6183C41.4011 48.6183 41.4011 48.5913 41.3734 48.5913C41.3734 48.5913 41.3734 48.5643 41.3456 48.5643C41.3179 48.5643 41.3179 48.5913 41.2901 48.5913H41.2624L41.2346 48.5373L41.1514 48.5913H41.1236L41.0681 48.6183L41.0126 48.6992L41.1514 48.7262H41.1236C41.1791 48.6453 41.2346 48.6183 41.3179 48.5643H41.4011L41.3456 48.5913L41.3179 48.6722L41.1791 48.6992C41.2624 48.7262 41.3456 48.7262 41.4289 48.7262C41.4289 48.7262 41.4566 48.7262 41.4566 48.6992L41.4289 48.6722ZM44.5367 49.9679C44.509 49.9409 44.4257 49.9679 44.398 49.9949L44.3147 49.644L44.287 49.59C44.176 49.644 44.0095 49.563 43.8985 49.563V49.617L43.8152 49.671L43.7875 49.698C43.7875 49.698 43.7597 49.698 43.7597 49.671C43.4823 49.509 43.4545 49.617 43.288 49.671C43.2325 49.698 43.1493 49.698 43.066 49.7249L43.0383 49.8059C42.8163 49.9949 42.733 49.8059 42.5666 49.8869L42.5111 49.9679L42.5388 50.0219L42.3723 50.0758L42.4001 50.1298L42.3168 50.2648L42.4001 50.2918C42.4278 50.3458 42.4833 50.3997 42.5111 50.4267C42.5666 50.5077 42.5388 50.6157 42.5111 50.7237C42.4001 50.9666 42.1503 51.2095 42.1503 51.3715L42.2891 51.3985L42.1781 51.4524L41.9838 51.4794L41.9283 51.7224L42.0671 51.8033C41.9006 52.0463 41.7618 52.0193 41.6231 52.1812C41.5121 52.3162 41.4289 52.5321 41.2901 53.018C41.2346 53.2339 41.2346 53.3689 41.2624 53.4769C41.2901 53.5848 41.3179 53.6928 41.3456 53.9087L41.4844 53.9897L41.5954 53.9627C41.6231 53.9087 41.7618 53.6928 41.9283 53.4769C42.1226 53.2339 42.3168 52.964 42.3723 52.91C42.5111 52.883 42.622 52.91 42.7608 52.937C42.8995 52.883 43.0105 52.6401 43.2048 52.5591L43.288 52.6131C43.4545 52.6401 43.7597 52.3972 43.8985 52.3162C43.843 52.2892 43.7875 52.2352 43.7875 52.1542C43.7875 52.1273 43.7597 52.1003 43.7597 52.1003L43.843 51.9653L43.8707 52.0733L43.954 52.1273L44.0372 51.9923C44.0095 51.8303 44.065 51.6414 44.1205 51.4794L44.2592 51.3715L44.3425 51.0476L44.287 50.8856L44.4535 50.7776C44.398 50.7237 44.3702 50.6697 44.3702 50.5887C44.3425 50.3728 44.5367 50.1568 44.6754 49.9949L44.5367 49.9679ZM43.2603 53.8008L43.399 53.7738L43.5655 53.6658L43.6765 53.5039L43.7042 53.4769L43.5932 53.2609L43.5378 53.2879H43.3435L43.2603 53.2339H43.1215L43.1493 53.3959L43.1215 53.4769V53.7198L43.2603 53.8008ZM42.8995 56.8239L43.2048 56.7429L43.3435 56.527V56.338L43.4823 56.1761L43.3158 55.9872L43.177 55.9602L43.0383 56.0681L42.844 56.2301L42.8718 56.365L42.8995 56.473L42.7053 56.7159L42.8995 56.8239ZM40.5687 48.4293V48.3753C40.5409 48.3483 40.4854 48.3483 40.4577 48.3483C40.5132 48.3483 40.5964 48.3213 40.6519 48.2944C40.6241 48.2944 40.5687 48.2674 40.5687 48.2404C40.5964 48.1864 40.6796 48.1054 40.7629 48.0784C40.6796 48.0784 40.5686 47.9974 40.5409 47.9435C40.4854 47.9165 40.4022 47.9165 40.3467 47.9435L40.2912 48.0244L40.3189 47.9435H40.1802C40.1247 47.9704 40.0969 48.0514 40.0969 48.1054L39.9859 48.1864L40.0414 47.9974H39.9859C39.8749 48.0784 39.7639 48.1594 39.5975 48.1594C39.6807 48.2944 39.542 48.3213 39.6529 48.5103C39.6252 48.5373 39.6252 48.5643 39.5975 48.5913C39.5697 48.6453 39.542 48.6722 39.542 48.7262C39.5975 48.8342 39.7362 48.8072 39.8194 48.7802C39.8472 48.6992 39.9027 48.6453 39.9582 48.5643C40.1802 48.5643 40.3744 48.4833 40.5687 48.4293ZM43.7597 46L43.4823 46.027L43.8152 46.108L44.2592 46.2699L44.7309 46.3779L45.1194 46.4049L45.5357 46.5399L45.8409 46.7018L46.3126 46.9717V47.0257L46.7843 47.3226L47.2006 47.4576L47.3116 47.5386L47.5058 47.7005L47.4226 47.8625L47.7 48.1324L47.9498 48.5373L47.7278 48.4833L47.5613 48.3483L47.4226 48.3753V48.5643L47.4503 48.5913L47.6723 48.8612L47.922 49.2661L48.2828 49.617L48.4215 49.8869L48.588 49.8329L48.7545 49.9679L48.6435 49.9949L48.6712 50.2378L48.5048 50.1838L48.921 50.5347L49.0042 50.5887L49.143 50.6157L49.4205 50.9396L49.2817 50.7776L49.1985 50.7237L49.1152 50.6967L49.032 50.6157L48.9487 50.6427L48.81 50.5617L48.2273 50.2918L48.255 50.3458L48.3383 50.4537L48.588 50.6157L49.0597 50.9396L49.032 51.0206L48.5602 51.1015L48.5048 51.1825L48.7545 51.4255L48.5048 51.8573L48.4493 52.1542L48.4215 52.3162L48.3105 52.1003H48.0608L48.1995 52.3702L48.2828 52.4512L48.3105 52.6131L48.1995 52.8291L48.255 53.045L48.033 53.153L48.2273 53.3419L47.9498 53.2879H47.8943L47.7833 53.126L47.4781 52.91H47.7278L47.9775 52.883L48.0885 52.6671L47.8388 52.4242L47.7 52.3972L47.4781 52.2892H47.2283L47.0618 52.3432H47.0063L46.8121 52.1542H46.5624L46.3959 52.3162L46.2016 52.4782L46.1461 52.7211L45.9796 52.991L45.8686 53.3149L45.8131 53.5578V53.6118L45.7576 53.8818L45.6189 54.0977L45.3692 54.3406L45.3137 54.4216L45.0917 54.7185V55.0694L45.1194 55.3663L45.3414 55.5013L45.5634 55.3663L45.7854 55.2584L46.0629 55.7982L46.1739 56.1761H46.3681L46.4236 55.9872L46.6178 55.8252L46.6456 55.7442L46.6178 55.5823L46.6456 55.2853L46.7011 55.2044L46.7843 55.0694L46.6733 54.9075L46.5346 54.3946L46.7566 53.8548L46.7843 53.6118V53.5309H47.0341V53.6118L47.0618 53.8278L46.8953 54.0977L46.8676 54.3946V54.4486L47.0618 54.8265L47.3393 54.9075L47.5891 54.8805L47.7555 54.7725L47.7833 54.8535L47.6723 54.8805L47.5336 54.9075L47.4781 54.9614L47.4226 54.9884L47.3116 55.0694L47.3393 55.2314L47.4781 55.3123V55.2584L47.5058 55.4203L47.5613 55.5823L47.4503 55.6632L47.2838 55.4743L47.2006 55.6093L47.1728 55.7442L47.2838 56.1761L47.1451 56.2841L47.1173 56.365L47.0063 56.446L46.9231 56.338L46.6178 56.554L46.4514 56.662L46.2016 56.554H46.1739L46.0074 56.6889L45.8964 56.554L45.8686 56.527V56.0951L45.8409 55.7982L45.7576 55.7712L45.5634 56.0141L45.5911 56.365L45.6744 56.581L45.7021 56.6889L45.4802 56.7969H45.2304L45.0362 57.0398L44.9252 57.3098L44.5367 57.6337L44.3147 57.7686L44.065 57.7956L43.9817 57.8766L43.9262 57.9576L43.6487 57.9036L43.4545 58.0656L43.621 58.2005L43.7042 58.2275L43.9262 58.5784L43.8985 58.9023L43.8152 59.1992V59.2262L43.5655 59.2532L43.3158 59.1992H43.288L43.2048 59.1722L42.8718 59.1452L42.5943 59.0913L42.4556 59.1992L42.3446 59.0103L42.3723 59.2532L42.3168 59.5231L42.1503 59.8201L42.2058 60.036V60.2789L42.4278 60.3329L42.5666 60.4679L42.6498 60.5758H42.844L42.9828 60.5488H43.3713L43.4823 60.4679L43.5932 60.4139L43.7875 60.2519L43.8985 59.982L44.0927 59.7391L44.3702 59.5501L44.5644 59.3612L44.5922 59.2262L44.8142 59.1183L45.1749 59.0913L45.3969 58.9833L45.5634 58.8753L45.6189 58.8213L45.6744 58.8753L45.8686 58.9833L46.0906 59.3072L46.3959 59.4692L46.6178 59.6041L46.8398 59.6581L46.9231 59.874L46.8676 60.144L47.0618 59.901L47.0063 59.6851L47.2283 59.5771L47.3393 59.4961L47.0618 59.3882L46.9231 59.3072L46.9508 59.2262L46.8676 59.1452L46.7288 59.1722L46.5069 59.0373L46.3404 58.8483L46.3126 58.8213L46.2016 58.6324L46.1739 58.5244L46.3681 58.3625L46.4514 58.4165L46.5069 58.5244L46.6733 58.6594L46.8953 58.7943L46.9231 58.8213L47.0618 58.9023L47.2838 59.0373L47.4503 59.1722L47.4781 59.4152L47.6445 59.5501L47.8388 59.7931L47.8665 59.901L47.9498 60.171H48.144L48.1163 60.009L48.1718 59.7661L48.3105 59.6041L48.1163 59.5501L48.033 59.2262L48.1995 59.1183L48.4215 59.0103H48.9487L48.9765 58.9293L49.0042 58.8753L48.8377 58.6864L48.8932 58.4165L48.8655 58.0656L49.0042 57.7147L49.032 57.6337L49.0597 57.5797L49.1707 57.5527L49.4205 57.5257L49.365 57.6607L49.3372 57.7416L49.476 57.8226L49.5869 57.9036L49.7257 57.6607L49.7534 57.6067V57.5527L49.6424 57.3907L49.9199 56.9589L50.0032 57.0129V57.1748L49.9477 57.4177L50.0587 57.5527L50.3362 57.6607H50.5304V57.6877L50.6136 57.8496L50.6414 57.9576L50.5304 58.1735L50.3362 58.3355L50.2252 58.3625H49.9754L49.7534 58.4165L49.5314 58.5514L49.3095 58.8483L49.0875 58.9833V59.0103L48.9487 59.2532L48.7267 59.3072L48.6712 59.5501L48.7267 59.7661L48.8655 59.847L49.0042 60.063H49.1985L49.4482 59.874L49.7257 59.7931L49.9477 59.7391L50.1419 59.5501H50.1974L50.2252 59.6041L50.2529 59.847L50.2252 59.982V60.4139L50.1697 60.5758L50.1142 60.6838C50.0309 60.7108 49.9754 60.7918 49.9199 60.8458L49.7257 60.7918C49.4482 61.2776 48.8932 61.0887 48.7267 61.2506C48.3938 61.0887 47.5891 61.1967 47.7278 61.7635L47.5891 61.8715L47.2838 61.7095L47.1173 61.7635C46.9786 61.7635 46.8121 61.6825 46.7843 61.5476C46.5901 61.4936 46.2294 61.5476 46.1184 61.4936L46.0351 61.3856L45.8964 61.4126C45.8964 61.2506 46.0351 61.1697 46.0351 61.0077L45.9796 60.8458L46.0351 60.6568L45.9241 60.6838L45.7854 60.6028C45.7021 60.6298 45.5912 60.6568 45.5079 60.6838C45.3969 60.6298 45.0917 60.6838 44.9529 60.7108C44.6754 60.6028 43.7042 60.8727 43.4545 61.0617L43.3713 61.0347L43.3435 60.9807C43.1493 60.9807 42.9828 60.9537 42.8163 60.8997L42.733 60.7918C42.622 60.8188 42.4556 61.0887 42.4001 61.1967C42.1503 61.1697 41.9006 61.3046 41.7341 61.4936C41.7341 61.6015 41.6508 61.7095 41.5954 61.8445V61.8985C41.5121 62.0604 41.1791 62.0874 40.9849 62.1414L40.9016 62.1144C40.7629 62.1414 39.7639 62.8702 39.5975 63.1131C39.5697 63.1401 39.5697 63.1671 39.5697 63.1671C39.6252 63.2211 39.6807 63.2751 39.7362 63.356C39.6807 63.437 39.6252 63.518 39.6252 63.626L39.7084 63.7339C39.6807 63.8149 39.4865 63.9769 39.4865 64.0308C39.431 64.0848 39.3477 64.1118 39.2645 64.1388C39.2645 64.2198 39.32 64.3008 39.3477 64.3547C39.2367 64.6247 39.5142 64.7866 39.7084 64.8676L39.7362 64.9756C39.8472 65.0296 39.8749 65.1645 39.9859 65.2185C39.9304 65.2725 40.0414 65.3265 40.0137 65.3805L40.0969 65.4884C40.3189 65.4884 40.7351 66.1092 41.3456 66.1092C41.7341 66.1092 42.0671 66.1902 42.4556 66.2172C43.066 66.2442 43.4823 66.0013 44.0927 66.1632L44.176 66.2712C44.3147 66.3252 44.7032 66.2712 44.8419 66.2172L44.9252 66.2712L45.0362 66.2442C45.2027 66.3792 44.5644 66.7301 44.7309 66.7571L44.8142 66.7841L44.8419 66.838L45.1749 66.919L45.1194 67L45.2304 66.973V67C47.9775 66.4062 50.3639 64.8406 51.9178 62.6812C51.9456 62.6003 51.9733 62.5463 52.0011 62.5193C52.0566 62.4383 52.0843 62.3303 52.1398 62.2494C52.1953 62.1954 52.1676 62.1414 52.2231 62.0874C52.2508 62.0604 52.2508 62.0334 52.2508 62.0064L52.3063 61.8985L52.2231 61.9794L52.1398 62.1144L52.0011 62.2763C51.8901 62.3843 51.8346 62.4923 51.7236 62.6003L51.5294 62.8432C51.4739 62.9242 51.4461 62.8432 51.4184 62.8162C51.6126 62.6003 51.1131 62.7082 51.0854 62.6812C50.9189 62.5463 51.0854 62.4923 50.8356 62.4383L50.8079 62.3843C50.8911 62.1954 50.7801 62.0334 50.6136 62.0064C50.5859 61.9524 50.5581 61.8985 50.5304 61.8715C50.5027 61.8445 50.5027 61.7905 50.5027 61.7365H50.4472C50.3639 61.6015 50.2807 61.4126 50.1419 61.3316L50.0864 61.1157C50.1697 61.1697 50.1974 61.2506 50.2807 61.3046L50.3362 61.2776L50.4194 60.9537L50.5027 61.2236L50.6969 61.4126L50.8079 61.5745L50.9466 61.6015L51.0576 61.7365L51.0299 61.8715L51.1131 61.9254V61.9794L51.2519 62.0064L51.3629 62.1414V62.1954L51.4739 62.3303L51.5016 62.4923V62.6812V62.6272L51.7513 62.4383L51.8901 62.2224L51.9456 62.1414L52.1398 61.8715L52.1676 61.8445L52.3341 61.5476L52.5005 61.3046L52.6115 60.9807L52.667 60.8997L52.8335 60.6028L52.9168 60.3869L53 60.063L53.0278 59.982L53.1943 59.3342L53.1665 59.2802L53.0555 59.3612L52.9723 59.3342L52.9168 59.1183L52.7503 59.7661L52.6115 59.982L52.5283 59.955L52.5005 59.901L52.4451 59.982L52.3618 59.874H52.3063L52.1953 59.7391L52.1676 59.6851V59.6041L52.3341 59.4152H52.4173L52.556 59.4961L52.7225 59.3882L52.8613 59.1722L52.9723 59.0643L53.0833 59.0373L53.1665 58.8753L53.3053 58.7134V58.6594L53.4163 58.3355L53.444 58.2005L53.555 57.9306L53.5827 57.9846V57.8766L53.6382 57.9846L53.6937 57.9036L53.666 57.7956V57.7416L53.6937 57.6067L53.7215 57.6337C53.7492 57.3368 53.777 57.0398 53.777 56.7429C53.7492 51.1285 49.3095 46.4859 43.7597 46ZM37.3498 65.8393V65.7853C37.3498 65.7314 37.2388 65.5964 37.2111 65.5694V65.5154C36.7671 65.2455 37.2666 65.0565 37.3498 64.7326C37.1833 64.4627 36.3786 63.8959 36.3786 63.8689C35.9346 63.6799 35.5184 63.437 35.1299 63.1131C35.0189 63.0321 34.9079 62.9242 34.7969 62.8162C34.7692 62.8432 34.6859 62.8702 34.6305 62.8702L34.6582 62.7352L34.575 62.6812C34.4917 62.6272 34.3807 62.5733 34.3252 62.5193C34.2975 62.4923 34.2975 62.4113 34.353 62.4383L34.3807 62.3573C34.3252 62.2763 34.2142 62.0874 34.0755 61.8445C33.8535 61.4396 33.5483 60.9267 33.3263 60.9537C33.2708 60.8997 33.243 60.8188 33.2153 60.7378L33.132 60.6298V60.5218C33.1043 60.4679 33.0765 60.4409 33.0488 60.3869C32.9378 60.1979 32.5493 59.4422 32.2996 58.9833C32.1886 58.7943 32.1053 58.6594 32.1053 58.6324V58.7404C32.0776 58.5514 31.9943 58.0656 31.9388 57.7147C31.9111 57.5527 31.8833 57.4177 31.8833 57.3638C32.0776 57.0938 32.0221 56.7429 31.9666 56.419C31.9388 56.338 31.9388 56.2841 31.9388 56.2031C31.9666 56.1491 32.1053 55.9332 32.1608 55.9062C32.1608 55.7982 32.2718 55.7442 32.2718 55.6362L32.1886 55.5283C32.2441 55.3663 32.1886 55.2044 32.1608 55.0424C32.1053 55.0964 32.0498 55.0694 32.0221 55.0694C32.0498 55.0154 32.0498 54.9614 32.0776 54.8805C32.1331 54.6105 32.1331 54.2596 32.2441 54.0167C32.2996 53.8278 32.3828 53.7198 32.4661 53.5848C32.4938 53.5309 32.5493 53.4769 32.5771 53.3959C32.6048 53.3689 32.6048 53.2879 32.6048 53.2609L32.7435 53.153C32.799 53.126 32.8268 53.2339 32.8545 53.2879C32.8268 53.3689 32.8268 53.4769 32.8268 53.6118C32.8268 53.8008 32.8268 54.0167 32.8545 54.1517L32.91 54.1247C32.9378 54.1517 32.9655 54.6105 32.9655 54.6645C33.021 54.7185 33.0765 54.8265 33.1043 54.9075C33.0765 55.1774 32.8545 55.5823 32.7713 55.8792L32.8545 55.9872C33.132 55.7172 33.0765 55.2044 33.354 54.9345L33.465 54.9075C33.6315 55.0424 33.8812 54.9884 34.0477 55.1504C34.131 55.1504 34.242 55.0694 34.2697 55.0154C34.2697 54.9884 34.2697 54.9345 34.2975 54.9075C34.3252 54.8265 34.3807 54.7455 34.4085 54.6375C34.464 54.5836 34.5195 54.5296 34.575 54.5026C34.4917 54.5836 34.464 54.7185 34.4362 54.8265C34.4085 54.8535 34.353 54.8805 34.3252 54.8805C34.3252 54.8805 34.5195 54.7995 34.5472 54.7725C34.5472 54.6915 34.6027 54.5836 34.6582 54.5026L34.6305 54.6375L34.7137 54.7185C35.0189 54.5296 34.8802 54.5566 35.1022 54.7455L35.1299 54.6645L35.1577 54.7725C35.2132 54.8265 35.3242 54.9075 35.3797 54.8265C35.4352 54.7725 35.3797 54.7995 35.3519 54.7995C35.5739 54.5296 35.4352 54.6645 35.7404 54.6105C35.8236 54.6375 36.1289 54.7725 36.1289 54.8535C36.1566 54.8535 36.1844 54.8805 36.1844 54.9075H36.5174V54.7455C36.6006 54.6645 36.7116 54.5026 36.6838 54.3946L36.8781 54.4486L36.9336 54.2596L36.8226 54.0977L36.0456 53.8818C36.2121 53.8008 36.4341 53.7738 36.6283 53.7738L36.6561 53.8278L36.9613 53.8548C37.1556 54.0437 37.2943 54.2866 37.5718 54.3946C37.6828 54.3676 37.7938 54.3676 37.9325 54.3676L38.099 54.5026C38.21 54.4216 38.3488 54.3136 38.432 54.1787L38.3765 54.0167L38.4598 53.8548L38.3765 53.5309C38.3765 53.5309 38.3765 53.5039 38.3488 53.5039C38.3488 53.18 38.7095 52.8291 38.7372 52.4782L38.876 52.3702C38.6817 52.3432 38.5153 52.5321 38.2933 52.4782C38.2655 52.4242 38.2655 52.3432 38.2933 52.2622C38.2933 52.2082 38.321 52.1542 38.3488 52.1003L38.765 51.7494C38.7095 51.6414 38.7927 51.4524 38.8482 51.3715L38.7095 51.1555V50.9666C38.3765 50.9936 38.099 51.3715 37.7383 51.4794L37.6828 51.6684C37.4886 51.9113 37.1556 51.8843 36.9058 51.8843C36.8226 51.9923 36.6838 52.1812 36.5451 52.2622C36.5174 52.2892 36.4619 52.2892 36.4341 52.2892V52.2622L36.3786 52.1542C36.6006 51.9653 36.6006 51.7494 36.9058 51.5874L36.9891 51.4255L36.8781 51.1825C36.9336 50.9936 36.9891 50.8316 37.0168 50.6427C37.0446 50.5077 37.0446 50.3998 37.0446 50.2378C37.1833 50.1838 37.2943 50.0758 37.4053 49.9679L37.4331 49.8869C37.5996 49.7789 38.2655 49.698 38.4598 49.7789L38.5153 49.7519L38.654 49.8329V49.8869L38.8205 49.9679C38.987 49.9139 39.1257 49.8599 39.2922 49.8329V50.0219L39.4865 50.0758C39.6252 50.0219 39.7362 49.9679 39.8749 49.9139L39.9582 49.7789L39.9304 49.671C39.8194 49.698 39.6807 49.7249 39.5697 49.7249L39.431 49.644C39.4865 49.617 39.542 49.617 39.5697 49.59C39.6529 49.563 39.7084 49.509 39.7639 49.428L39.6807 49.374C39.8749 49.2391 40.0969 49.1311 40.2634 48.9692C40.1247 48.9422 39.9859 48.9692 39.8472 49.0231L39.7084 49.1851C39.6252 49.2391 39.3755 49.2121 39.2645 49.1851L39.4865 49.0771L39.5697 49.1041L39.7362 48.9962C39.7084 48.9422 39.6252 48.9152 39.5697 48.9152L39.4032 48.9692L39.32 48.8882C39.32 48.7532 39.431 48.6453 39.4587 48.5373V48.4833L39.32 48.4023L39.4587 48.2944C39.4865 48.2404 39.4865 48.1594 39.4587 48.1054L39.5697 48.0244L39.7084 47.9974C39.7639 47.8625 39.9304 47.7275 40.0692 47.7005L40.0969 47.6195L40.2079 47.5386L40.1247 47.4576L40.3467 47.4036V47.3496L40.4577 47.2686C40.3744 47.0797 40.5409 47.0257 40.5409 46.9447C41.0681 46.8098 41.4844 46.5668 42.0116 46.5399L42.0393 46.4589C42.0948 46.4319 42.3168 46.2699 42.2891 46.189C42.0116 46.2159 41.9561 46.108 41.9561 46.108L42.0116 46.027L41.9006 46.054L41.7341 46.135C41.7063 46.081 41.6508 46.054 41.5954 46.054V46C36.1289 46.5668 31.7446 51.1015 31.7446 56.581C31.7446 60.5218 34.02 63.9769 37.3498 65.8393ZM40.3189 49.59L40.1802 49.563C40.2079 49.455 40.0414 49.509 40.0414 49.59V49.644C40.0692 49.7249 40.0969 49.7789 40.1247 49.8599L40.2079 49.9139C40.2079 49.9679 40.2357 50.0219 40.2634 50.0758C40.2079 50.1568 40.1247 50.2108 40.0137 50.2648L40.0969 50.3728L40.0692 50.5077C39.9582 50.5077 39.8749 50.6157 39.7917 50.6697H39.7639L39.6252 50.6967L39.542 50.8316L39.2645 50.7776L39.32 50.6967L39.3477 50.6697L39.209 50.6427H39.0702L39.0147 50.6697C39.2367 50.7776 39.209 51.1016 39.0702 51.2635C39.098 51.4524 39.1257 51.6414 39.1257 51.8033C39.209 51.7224 39.2367 51.5874 39.2367 51.4794L39.32 51.5064L39.3477 51.6144L39.5142 51.6954C39.6252 51.6144 39.6252 51.4255 39.5975 51.3175C39.6807 51.2905 39.7917 51.1015 39.8472 51.0476L39.9304 51.1015C39.9027 51.2365 39.8472 51.3985 39.8749 51.5334C39.9859 51.4524 40.1524 51.4255 40.2634 51.3175C40.2357 51.1285 40.3467 50.9126 40.2912 50.7507C40.4022 50.7507 40.4854 50.6697 40.5409 50.5887C40.5686 50.5617 40.5687 50.5347 40.5687 50.5077C40.5409 50.3728 40.6241 50.2378 40.5687 50.1298C40.6796 49.9409 40.7906 49.8599 40.9016 49.7249C40.9294 49.698 40.9016 49.617 40.9016 49.563V49.455C40.8739 49.2931 40.4577 49.455 40.3189 49.59ZM38.5708 50.2918C38.5708 50.3458 38.543 50.4267 38.4875 50.4537L38.765 50.5077L38.6817 50.6427L38.7095 50.7507C38.765 50.7237 38.7927 50.6697 38.8205 50.6427C38.9592 50.4807 38.987 50.2918 39.098 50.1028C38.9315 50.1838 38.7372 50.2648 38.5708 50.2918ZM41.6231 48.3483L41.5121 48.3753L41.4566 48.4563C41.5676 48.4563 41.7896 48.4023 41.8451 48.2944C41.8173 48.1324 41.6786 48.2674 41.6231 48.3483ZM43.6765 57.2828L43.954 57.3098L44.2592 57.2828L44.398 57.1748L44.5367 57.0129L44.509 56.7699L44.3147 56.527L44.176 56.2571L44.0927 55.9602L43.9817 55.7982L44.1482 55.5553L43.8707 55.4473L43.9817 55.2314L43.843 55.2044H43.7875L43.6487 55.4203L43.5932 55.6902L43.621 55.9872L43.7042 56.2571L43.8152 56.446L43.843 56.473L43.7042 56.581L43.5932 56.8509V57.0398L43.5655 57.1208L43.3158 57.3098L43.399 57.3638L43.6765 57.2828ZM41.5399 47.7005C41.4844 47.7005 41.4289 47.7275 41.3734 47.7545L41.5121 47.8355V47.8895C41.5399 47.9435 41.6231 47.9704 41.6786 47.9704L41.7063 47.8355C41.6508 47.8355 41.5399 47.7815 41.5399 47.7005ZM45.6744 50.2648L45.5911 50.2378L45.4524 50.2648V50.4537H45.7021L45.6744 50.2648ZM45.4247 50.6427L45.5357 50.7776L45.6744 50.9936L45.8131 51.0746V50.8856L45.8409 50.7507L45.7299 50.5347L45.5357 50.4807L45.3692 50.5347L45.4247 50.6427ZM48.6435 60.4949H48.6712L48.8655 60.4409L48.7267 60.3599L48.3938 60.4409L48.6435 60.4949ZM46.6456 48.7262L46.6178 48.8072L46.7843 48.8882L46.9786 48.9422L47.0618 48.8072L46.8953 48.7262H46.6456ZM46.3959 47.3226L46.3404 47.4036L46.4514 47.5386L46.6178 47.5926V47.5656L46.6456 47.4846L46.5069 47.4576L46.3959 47.3226ZM47.5613 50.6427L47.6445 50.8046L47.6723 50.9126L47.811 51.1285L47.8943 51.1825L48.1163 51.2905L48.2828 51.2365L48.144 51.1555L47.9498 50.9666L47.7555 50.7237L47.7278 50.6427L47.6723 50.4537L47.5891 50.1298L47.4781 49.9139L47.3671 49.9949V50.1838L47.4503 50.4537L47.5613 50.6427ZM46.6733 60.5488L46.7288 60.5218L46.8676 60.4139L46.7566 60.2519L46.5901 60.3059L46.5069 60.2789L46.4236 60.4409L46.5901 60.5218L46.6733 60.5488ZM47.1451 48.5913L46.9786 48.6453H46.9231L47.0063 48.6992L47.2283 48.7532L47.1451 48.5913ZM38.1268 54.6105L38.099 54.5566C38.0435 54.5566 37.7938 54.6915 37.5718 54.7995H37.8493C37.9603 54.7725 38.0713 54.7185 38.1268 54.6105ZM35.8791 54.9614L35.9901 55.0964L36.1289 55.0694C36.2399 55.1774 36.4064 55.1774 36.5451 55.2314C36.5451 55.1234 36.4896 54.9884 36.4064 54.9075V54.8265H36.0734C36.1011 54.8535 36.1566 54.9075 36.1566 54.9614C36.1289 54.9075 35.9624 54.9345 35.8791 54.9614ZM41.7618 48.9152C41.9561 48.9422 42.2613 48.7802 42.3723 48.6183C42.2613 48.6453 41.5676 48.5373 41.7618 48.9152ZM45.7576 59.1992L45.6466 59.2802L45.6189 59.3612L45.7299 59.4961L45.7576 59.1992ZM42.4278 48.9422L42.2891 48.9962L42.2058 48.9152L42.1503 49.0231C42.0671 49.0501 41.9561 49.0501 41.8451 48.9962L41.7896 49.0771L41.6508 49.1041L41.7618 49.0231C41.6786 49.0501 41.5676 49.0501 41.4566 48.9962C41.4289 49.0501 41.4289 49.1311 41.4566 49.1851L41.5399 49.2391L41.5121 49.3201L41.5954 49.374C41.6786 49.3471 41.7896 49.3201 41.8728 49.2931C42.0948 49.401 42.8163 49.1851 43.0938 49.3201L43.1493 49.2931C43.2603 49.0771 42.9828 48.9692 42.9273 48.8072C42.7608 48.8072 42.4001 48.5913 42.4278 48.9422ZM37.7938 55.0154L37.8493 54.7995H37.5718C37.4053 54.8805 37.2666 54.9614 37.2111 54.9884C37.1833 55.2853 37.4331 55.2584 37.4886 55.4473L37.4331 55.6362H37.5718C37.5996 55.7172 37.5996 55.7982 37.5996 55.8792C37.6828 55.8792 37.7938 55.7982 37.8215 55.7442C37.8215 55.6902 37.8215 55.5823 37.766 55.5283L37.9048 55.4203L37.877 55.3123L37.9325 55.2314C37.9603 55.1504 37.877 55.0424 37.7938 55.0154ZM45.6189 60.171L45.7854 60.063L45.8131 59.7661L45.7021 59.6041L45.6466 59.6851L45.5911 59.874L45.6189 60.171ZM32.688 57.4987L32.7713 57.5257L32.7435 57.4717C32.7435 57.3907 32.6603 56.7969 32.5771 56.365C32.5216 56.1221 32.4938 55.9332 32.4938 55.9332C32.5493 55.8522 32.3551 55.7442 32.3551 55.7172C32.3551 55.8252 32.3828 55.9332 32.4383 56.0141C32.4106 56.0681 32.4106 56.2571 32.4383 56.392C32.4383 56.446 32.4661 56.5 32.4938 56.5C32.4938 56.581 32.5771 56.7159 32.5493 56.7969L32.6048 56.9589L32.5216 57.1208C32.5493 57.1478 32.688 57.4717 32.688 57.4987ZM32.8268 58.3625C32.8823 58.3625 32.9378 58.4165 32.9655 58.4434L32.9933 58.5514C33.0765 58.5784 33.132 58.7134 33.132 58.7674L33.1598 58.6864C33.0488 58.4434 33.021 57.9846 32.8268 57.7686C32.799 57.8226 32.7713 57.9306 32.8268 58.0116H32.7713C32.7435 57.9306 32.7158 57.8496 32.6603 57.7956L32.6326 57.9306C32.7435 57.9846 32.799 58.2545 32.8268 58.3625Z" fill="black"/>
<path fill-rule="evenodd" clip-rule="evenodd" d="M15 67.9533H24.7887V66.0348H21.9141V57.1467H25.6065V59.6237H27.5643V53.1154H25.6065V55.3982H21.9141V48.307H29.2742V50.6627H31.2319V46H15V47.9185H17.4038V66.0348H15V67.9533Z" fill="black"/>
<path d="M99.9276 67.5087H98.1356V61.7374H100.074C100.074 63.9052 102.248 66.27 105.362 66.27C107.125 66.27 109.122 65.2847 109.122 63.145C109.122 57.9368 97.9006 59.8512 97.9006 52.081C97.9006 47.7173 101.161 46 104.334 46C106.214 46 108.623 46.5349 109.681 47.4921L109.827 46.2534H111.561V51.8839H109.622C109.622 49.2376 107.037 47.5484 104.687 47.5203C102.483 47.5203 101.073 48.8153 101.073 50.1948C101.073 54.7274 112.824 53.7702 112.824 60.9773C112.824 65.1439 110.356 67.7621 105.627 67.7621C103.952 67.7621 102.307 67.4806 100.515 66.27L99.9276 67.5087Z" fill="black"/>
<path d="M72.2843 46.2815H74.0175V52.5033H72.108C71.4911 49.7443 69.2879 47.9426 66.0858 47.9426C61.18 47.9426 59.7405 52.8693 59.7405 57.2048C59.7405 62.216 62.6194 66.1574 67.0553 66.1574C69.5229 66.1574 71.638 64.8342 73.2831 62.6383H73.5475L74.7519 63.8489V64.1022C71.3736 67.5087 68.4947 67.8466 66.1446 67.8466C58.4773 67.8466 54.6584 62.6383 54.6584 56.9514C54.6584 51.2646 58.8298 46.0563 65.4689 46.0563C67.7309 46.0563 70.0223 46.5068 71.7555 48.1678L72.2843 46.2815Z" fill="black"/>
<path d="M78.1008 48.1678H75.7213V46.2815H84.9749V48.1678H82.5954V60.9491C82.5954 64.6371 84.7693 65.9885 87.5013 65.9885C90.3508 65.9885 92.9653 64.8061 92.9653 59.4289V48.1678H90.5858V46.2815H97.1074V48.1678H94.7279V59.8512C94.7279 64.6371 92.701 67.8184 86.9138 67.8747C82.7423 67.9029 78.1008 65.8759 78.1008 60.3298V48.1678Z" fill="black"/>
<path d="M76.9451 73.7212C76.9083 73.5468 76.8869 73.3697 76.8812 73.1917C76.9597 72.5114 76.5908 72.352 75.9749 72.3548C75.2691 72.3548 75.2139 72.7391 75.2168 73.2714C75.2168 75.4917 75.2371 77.7149 75.2168 79.938C75.2168 80.5557 75.3765 80.829 76.0708 80.8319C76.765 80.8347 76.9016 80.4903 76.887 79.9067C76.8609 78.6998 76.887 77.4957 76.887 76.2888C76.8736 75.7193 77.0225 75.1574 77.317 74.6662C77.5742 74.2625 77.9541 73.9479 78.4032 73.7666C78.8523 73.5854 79.3481 73.5466 79.8209 73.6557C80.7272 73.8977 81.1745 74.5467 81.1774 75.6625C81.1774 77.1513 81.1978 78.6429 81.1774 80.1316C81.1774 80.7379 81.4999 80.8233 82.0053 80.8205C82.5107 80.8176 82.8477 80.7465 82.8419 80.1373C82.8215 78.3639 82.8651 76.5905 82.8215 74.8199C82.778 73.0494 81.3285 71.9449 79.5333 72.1584C78.4731 72.2837 77.7149 72.8587 76.9451 73.7212Z" fill="#FBF1F2"/>
<path d="M96.57 73.7011C96.5212 73.5203 96.4901 73.3354 96.4771 73.1488C96.5381 72.497 96.1866 72.3575 95.6057 72.3546C95.0247 72.3518 94.8126 72.6051 94.8185 73.1716C94.8398 75.4488 94.8398 77.7166 94.8185 79.9748C94.8185 80.5442 95.0537 80.732 95.5998 80.7292C96.1459 80.7263 96.4945 80.6409 96.4713 80.0005C96.448 78.8618 96.4713 77.7232 96.4713 76.5846C96.457 76.0641 96.5498 75.5462 96.7443 75.0617C96.9266 74.5668 97.2802 74.1503 97.7435 73.8845C98.2069 73.6187 98.7507 73.5206 99.2802 73.6071C100.306 73.7893 100.837 74.4981 100.849 75.7506C100.866 77.1681 100.866 78.5857 100.849 80.0033C100.849 80.5726 101.038 80.8117 101.651 80.8146C102.263 80.8174 102.444 80.5584 102.438 80.0005C102.417 78.3238 102.438 76.6444 102.438 74.9678C102.414 72.9752 100.901 71.8195 98.8939 72.2009C97.9556 72.3888 97.2788 72.9239 96.57 73.7011Z" fill="#FBF1F2"/>
<path d="M85.651 75.5714C85.651 77.0573 85.651 78.5432 85.651 80.0291C85.651 80.5358 85.7788 80.8262 86.3801 80.8233C86.935 80.8233 87.2516 80.6839 87.2516 80.0747C87.2361 77.101 87.2361 74.1282 87.2516 71.1565C87.2516 70.5558 86.9611 70.3964 86.4034 70.3964C85.8457 70.3964 85.6394 70.6811 85.6452 71.1821C85.6597 72.6452 85.651 74.0969 85.651 75.5714Z" fill="#FBF1F2"/>
<path d="M90.2699 77.1683C90.2699 78.1361 90.2699 79.1039 90.2699 80.0689C90.2699 80.6097 90.4907 80.8289 91.0484 80.8232C91.6061 80.8175 91.8821 80.698 91.8763 80.1173C91.8763 78.1845 91.8763 76.2517 91.8763 74.316C91.8763 73.7951 91.5858 73.6215 91.1036 73.6186C90.6214 73.6158 90.2699 73.7723 90.2757 74.3388C90.2786 75.281 90.2699 76.2261 90.2699 77.1683Z" fill="#FBF1F2"/>
<path d="M91.9895 71.3472C91.9895 70.4705 91.9256 70.4078 91.06 70.4078C90.1943 70.4078 90.145 70.4705 90.1479 71.3614C90.1508 72.2524 90.206 72.298 91.0774 72.2951C91.9488 72.2923 91.9924 72.2325 91.9895 71.3472Z" fill="#FBF1F2"/>
<path d="M106.83 76.8637C107.722 76.8865 108.617 76.8637 109.511 76.8637H112.338C112.724 76.8637 113.011 76.7556 113 76.3087C112.942 73.9944 111.396 71.9221 108.561 72.1641C105.784 72.4003 104.224 74.4755 104.538 77.2879C104.647 78.1377 105.016 78.9354 105.596 79.576C106.176 80.2167 106.941 80.6703 107.789 80.8774C109.45 81.2873 111.309 80.644 112.227 79.3345C112.73 78.6201 112.677 78.5147 111.911 78.1248C111.396 77.8629 111.245 78.1988 111.001 78.5033C110.688 78.9301 110.252 79.2554 109.749 79.4375C109.246 79.6196 108.699 79.6502 108.178 79.5253C107.698 79.442 107.254 79.2199 106.904 78.8877C106.553 78.5555 106.312 78.1282 106.211 77.6608C106.072 77.1455 106.206 76.8495 106.83 76.8637ZM106.249 75.1103C106.54 74.2848 107.641 73.4877 108.587 73.4422C109.825 73.3824 110.757 73.8862 111.202 74.8655C111.492 75.4974 111.382 75.6653 110.673 75.6767C110.022 75.6767 109.369 75.6767 108.718 75.6767H106.621C106.182 75.6625 106.121 75.4547 106.237 75.1103H106.249Z" fill="#FBF1F2"/>
<path d="M68.9194 72.1042C68.3182 72.0927 67.7208 72.1999 67.1628 72.4195C66.6048 72.639 66.0977 72.9664 65.6715 73.3821C65.2454 73.7978 64.9091 74.2934 64.6825 74.8392C64.456 75.385 64.344 75.9699 64.3531 76.5591C64.3676 79.1352 66.2644 80.9826 68.8903 80.9798C71.5163 80.9769 73.4712 79.158 73.5032 76.6132C73.5199 76.018 73.4129 75.4258 73.1887 74.8725C72.9645 74.3191 72.6277 73.8163 72.1989 73.3945C71.7702 72.9727 71.2583 72.6408 70.6945 72.419C70.1307 72.1972 69.5268 72.0901 68.9194 72.1042ZM68.8468 79.5053C68.4539 79.4949 68.0671 79.4071 67.7097 79.2471C67.3522 79.087 67.0313 78.858 66.7661 78.5737C66.5009 78.2894 66.297 77.9557 66.1663 77.5924C66.0357 77.2292 65.9811 76.8438 66.0059 76.4595C66.0669 74.817 67.3973 73.5332 68.9746 73.5958C69.3618 73.6125 69.7418 73.7045 70.0924 73.8665C70.443 74.0285 70.7572 74.2572 71.0167 74.5394C71.2762 74.8215 71.4759 75.1514 71.604 75.5099C71.7322 75.8684 71.7863 76.2482 71.7632 76.6274C71.708 78.3666 70.488 79.5622 68.8468 79.5195V79.5053Z" fill="#FBF1F2"/>
</svg>
