<svg width="128" height="128" viewBox="0 0 128 128" fill="none" xmlns="http://www.w3.org/2000/svg">
<rect width="128" height="128" fill="#EB463D"/>
<path d="M22.0582 52.6163C22.0421 52.6867 18.0843 75.0861 18.0702 75.1826L18.0581 75.2671L23.6679 75.2571L25.1769 66.7162H31.2133L31.2495 66.4788C31.3581 65.7686 31.5573 64.9497 31.7968 64.2314C32.0664 63.4206 32.3722 62.7345 32.7445 62.1088C32.8391 61.9478 32.9216 61.805 32.9276 61.7929C32.9356 61.7728 32.2334 61.7668 29.4889 61.7627L26.0401 61.7567L26.7866 57.5215H34.5534L35.1067 55.081C35.4085 53.741 35.662 52.6263 35.6661 52.6062C35.6741 52.574 35.3401 52.572 28.8712 52.572H22.0682L22.0582 52.6163Z" fill="white"/>
<path d="M92.7234 56.1896C91.2626 56.3606 90.0654 56.5014 90.0634 56.5034C90.0493 56.5115 87.5966 70.6336 87.5704 70.8609C87.5282 71.209 87.5241 71.8327 87.5604 72.1083C87.6871 73.058 88.0815 73.8447 88.7073 74.3939C89.4256 75.0237 90.3914 75.3919 91.7134 75.5428C92.152 75.5931 93.2748 75.5911 93.7476 75.5408C94.6712 75.4442 95.5766 75.245 96.2426 74.9915C96.5686 74.8688 96.7235 74.7903 96.7034 74.7581C96.6953 74.744 96.6189 74.6293 96.5324 74.5026C96.0696 73.8064 95.7939 73.0037 95.7094 72.1023C95.6772 71.7502 95.6973 70.9112 95.7456 70.5953C95.7738 70.4183 95.7778 70.3579 95.7597 70.3579C95.7456 70.3579 95.5826 70.376 95.3955 70.3981C94.9207 70.4525 94.3814 70.4847 94.1943 70.4686C93.6973 70.4263 93.3351 70.211 93.1701 69.861C93.1138 69.7402 93.1057 69.7 93.1017 69.5229C93.0957 69.3358 93.1319 69.1246 93.5947 66.5452L94.0917 63.7687L95.8161 63.7626L97.5424 63.7586L97.5525 63.7123C97.5726 63.6258 98.3272 59.2035 98.3272 59.1673C98.3272 59.1331 98.2567 59.1311 96.6048 59.1311H94.8824L94.8925 59.0848C94.9106 59.0104 95.47 55.922 95.47 55.8958C95.47 55.8817 95.4498 55.8737 95.4257 55.8737C95.3995 55.8757 94.1842 56.0165 92.7234 56.1896Z" fill="white"/>
<path d="M39.4026 58.8293C38.6983 58.8876 37.986 59.0526 37.3502 59.3061C34.7848 60.3242 33.0201 62.7144 32.3421 66.0925C32.2475 66.5653 32.0584 67.8208 32.0101 68.3057C31.8692 69.6919 31.9175 70.8227 32.159 71.8045C32.6721 73.8869 34.0644 75.07 36.4568 75.4583C37.312 75.5971 38.4025 75.6414 39.1108 75.5669C41.0947 75.3597 42.8493 74.2793 44.0867 72.5067C44.8896 71.3538 45.4711 69.9233 45.8091 68.2594C45.9178 67.7242 46.1049 66.5492 46.1411 66.173C46.2296 65.2515 46.2357 64.1369 46.1552 63.5474C46.0204 62.5595 45.7508 61.7808 45.3141 61.1129C44.455 59.8051 43.0324 59.0586 41.0223 58.8595C40.644 58.8212 39.7064 58.8051 39.4026 58.8293ZM40.143 63.7365C40.7929 63.9075 41.0545 64.3924 41.0143 65.3581C40.9881 65.9698 40.9157 66.515 40.7305 67.4627C40.5696 68.2836 40.4629 68.692 40.2698 69.2372C40.0585 69.8308 39.7507 70.5269 39.6822 70.5732C39.5575 70.6537 38.7667 70.7563 38.4488 70.7321C37.5514 70.6637 37.1792 70.0903 37.1772 68.7785C37.1752 68.0441 37.3925 66.7343 37.6862 65.7203C37.9055 64.9537 38.2134 64.163 38.3885 63.9176C38.4448 63.8351 38.7748 63.7405 39.143 63.6983C39.4126 63.6681 39.9619 63.6882 40.143 63.7365Z" fill="white"/>
<path d="M57.5679 58.8514C56.932 58.9842 55.5819 59.5254 53.8495 60.3423C53.6282 60.4469 53.4451 60.5234 53.441 60.5113C53.439 60.4992 53.4934 60.1431 53.5638 59.7186C53.6885 58.9701 53.6905 58.95 53.6503 58.95C53.6 58.95 48.3182 59.5958 48.3102 59.6039C48.3061 59.6079 45.5938 74.9613 45.5576 75.1887L45.5435 75.2671L50.8293 75.2571L51.7951 69.7503C52.3283 66.7223 52.769 64.2395 52.775 64.2314C52.7911 64.2174 53.4491 64.0544 53.7227 64.0001C54.0205 63.9377 54.4109 63.9135 54.6785 63.9397C55.4572 64.0121 55.7369 64.3783 55.6684 65.2374C55.6564 65.3863 55.3204 67.344 54.7892 70.368L53.928 75.2571L56.5638 75.2631C58.0126 75.2651 59.2017 75.2631 59.2077 75.2571C59.2258 75.239 61.1856 63.996 61.2319 63.6379C61.3245 62.9297 61.3506 62.5575 61.3386 62.0786C61.3325 61.8352 61.3124 61.5414 61.2943 61.4247C61.0468 59.8071 60.1212 58.9782 58.3969 58.8293C58.0427 58.7991 57.7791 58.8071 57.5679 58.8514Z" fill="white"/>
<path d="M69.0731 58.8313C68.4453 58.8836 67.7451 59.0586 67.1314 59.3142C64.564 60.3926 62.568 63.0061 61.8175 66.2736C61.7128 66.7263 61.4915 67.9979 61.4452 68.4063C61.2279 70.3458 61.4673 71.8427 62.1837 73.0238C62.4291 73.4282 62.7973 73.8527 63.1857 74.1766C63.5338 74.4684 64.0529 74.7802 64.5137 74.9734C66.1435 75.6575 68.4091 75.7882 70.7311 75.3355C71.5138 75.1826 72.3126 74.9472 72.8539 74.7098C73.0772 74.6112 73.1255 74.5831 73.1195 74.5509C73.0913 74.3477 72.2301 70.2875 72.216 70.2915C71.7734 70.38 70.7391 70.5229 70.1476 70.5772C68.053 70.7724 67.0369 70.5692 66.7109 69.8952C66.6103 69.6859 66.5721 69.4847 66.5882 69.2312L66.6022 69.03H70.6426C74.4716 69.03 74.6829 69.028 74.6929 68.9938C74.7151 68.9274 74.9263 67.6116 75.0048 67.0482C75.1819 65.8048 75.2382 65.1409 75.2221 64.493C75.1819 63.0363 74.8539 61.8613 74.2261 60.9338C73.4635 59.8011 72.2905 59.113 70.7512 58.8916C70.214 58.8132 69.5721 58.791 69.0731 58.8313ZM69.5983 63.5071C70.2341 63.6419 70.5701 64.2294 70.4796 65.0463C70.4494 65.328 70.3206 65.9436 70.2924 65.9537C70.2723 65.9597 67.1073 66.2454 67.1033 66.2414C67.0791 66.2233 67.554 64.6922 67.7491 64.159L67.8759 63.8089L67.9745 63.7546C68.1536 63.656 68.6365 63.5192 68.9101 63.491C69.0932 63.4709 69.4735 63.479 69.5983 63.5071Z" fill="white"/>
<path d="M83.7193 58.8232C83.0512 58.8635 82.2504 59.0224 81.6045 59.2437C80.7353 59.5435 80.017 59.9379 79.2725 60.5274C78.9445 60.7869 78.2906 61.4428 78.0189 61.7849C77.2302 62.7748 76.6407 63.9518 76.2765 65.2515C76.1235 65.7988 76.0652 66.0885 75.9002 67.1186C75.693 68.4164 75.6266 69.2171 75.6668 69.9092C75.7292 70.9434 75.9103 71.6798 76.2946 72.4604C76.5682 73.0177 76.86 73.4201 77.3127 73.8588C77.689 74.2249 78.0632 74.4945 78.5522 74.7521C79.9687 75.5025 81.9788 75.7762 83.8802 75.4784C84.6368 75.3597 85.5382 75.1203 86.174 74.8708C86.4276 74.7702 86.9185 74.5308 86.9185 74.5066C86.9185 74.4905 85.9084 70.2312 85.9024 70.2231C85.9004 70.2191 85.7776 70.2493 85.6287 70.2875C84.681 70.5309 83.6106 70.6577 82.9547 70.6014C81.7112 70.4947 81.0854 69.9354 80.9828 68.8429C80.9586 68.5994 80.9586 68.6015 81.0452 68.0743C81.345 66.2615 81.8339 64.5453 82.188 64.0665C82.2705 63.9538 82.4053 63.8874 82.6709 63.829C83.1136 63.7305 83.6428 63.6983 84.846 63.6983C85.9205 63.6983 86.5161 63.7325 87.502 63.8471C87.6288 63.8612 87.7354 63.8713 87.7394 63.8693C87.7475 63.8632 88.488 59.618 88.488 59.5757C88.488 59.459 86.5744 59.0244 85.4698 58.8916C84.848 58.8152 84.2404 58.7931 83.7193 58.8232Z" fill="white"/>
<path d="M104.585 58.8635C103.046 58.9761 101.263 59.3967 99.9207 59.966C99.7175 60.0505 99.6934 60.0666 99.7034 60.1049C99.7095 60.127 99.8765 61.0123 100.078 62.0686C100.279 63.1248 100.448 64.0081 100.452 64.0302C100.462 64.0725 100.466 64.0725 100.788 64.0081C102.516 63.662 104.044 63.656 104.742 63.992C104.949 64.0906 105.144 64.2837 105.205 64.4467C105.271 64.6238 105.291 64.7908 105.267 64.9557C105.225 65.2394 105.104 65.8813 105.092 65.8933C105.084 65.8994 104.937 65.9255 104.766 65.9517C104.327 66.0161 102.031 66.3963 101.488 66.4949C100.504 66.674 99.8483 66.8812 99.1924 67.2212C97.7396 67.9757 96.9006 69.189 96.7054 70.8187C96.6652 71.1647 96.6652 71.8649 96.7074 72.1788C96.8322 73.1163 97.1923 73.905 97.7738 74.5207C98.3795 75.1605 99.2185 75.573 100.158 75.6897C100.41 75.7198 101.064 75.7138 101.331 75.6796C102.448 75.5327 103.541 75.0317 104.565 74.1968C104.613 74.1565 104.637 74.1485 104.647 74.1666C104.655 74.1787 104.736 74.5328 104.828 74.9492C104.981 75.6454 104.999 75.7098 105.038 75.7098C105.076 75.7118 109.883 75.1042 109.891 75.0981C109.893 75.0961 109.77 74.3356 109.617 73.4081L109.339 71.722L110.02 67.7967C110.394 65.6398 110.71 63.7888 110.722 63.6862C110.832 62.6923 110.512 61.6279 109.863 60.8211C109.692 60.6099 109.299 60.2356 109.066 60.0606C108.223 59.4268 107.096 59.0003 105.945 58.8796C105.679 58.8514 104.871 58.8413 104.585 58.8635ZM104.625 68.8429C104.625 68.9495 104.18 71.2935 104.158 71.3076C104.1 71.3458 103.81 71.4464 103.629 71.4947C103.275 71.5852 103.07 71.6114 102.794 71.5993C102.096 71.5671 101.8 71.3116 101.756 70.6999C101.742 70.4967 101.776 70.2754 101.872 69.9374L101.939 69.708L103.267 69.2594C103.997 69.0139 104.601 68.8107 104.611 68.8107C104.619 68.8087 104.625 68.8248 104.625 68.8429Z" fill="white"/>
</svg>
