<svg width="128" height="128" viewBox="0 0 128 128" fill="none" xmlns="http://www.w3.org/2000/svg">
<rect width="128" height="128" fill="black"/>
<path d="M31.4369 23.4482H55.6589V27.6204H35.6408V38.4906H53.4106V42.6629H35.6408V58.6797H31.4369V23.4482Z" fill="white"/>
<path d="M30.7146 92.009L34.9175 91.1691C35.7561 96.1709 38.9318 98.7376 44.1995 98.7376C49.2883 98.7376 52.8307 96.3124 52.8307 92.8489C52.8307 89.8103 50.0794 87.7058 43.3608 85.7523C35.2001 83.4119 31.6947 79.958 31.6947 75.0979C31.6947 69.5395 36.265 66.0856 43.587 66.0856C50.7211 66.0856 55.018 69.3602 56.4596 75.617L52.1246 76.5512C51.1914 72.3423 48.3931 70.2473 43.4928 70.2473C38.9224 70.2473 36.0765 72.0215 36.0765 75.0602C36.0765 77.863 38.4511 79.7786 45.1229 81.836C53.8958 84.4972 57.157 87.9512 57.157 92.8584C57.157 98.983 52.1627 102.947 44.4162 102.947C36.6703 102.947 31.8831 99.1152 30.7146 92.009Z" fill="white"/>
<path d="M62.741 84.4243C62.741 73.9577 69.5848 65.795 80.0845 65.795C90.5357 65.795 97.2853 74.0051 97.2853 84.4243C97.2853 89.5911 95.6001 94.0943 92.6933 97.3273C94.1047 98.7303 95.4588 100.143 96.7746 101.594L93.7736 104.551C92.4092 103.101 90.961 101.594 89.5039 100.096C86.8341 101.83 83.6433 102.816 80.0845 102.816C69.9645 102.826 62.741 95.0329 62.741 84.4243ZM86.3131 97.0049C84.9031 95.6871 83.5491 94.3788 82.1391 93.1558L85.0915 90.1979C86.5883 91.5156 88.0925 92.8714 89.5422 94.2365C91.5586 91.7527 92.7786 88.3681 92.7786 84.3769C92.7786 76.2141 87.8084 70.0138 80.0742 70.0138C72.34 70.0138 67.3226 76.2046 67.3226 84.3769C67.3226 92.7291 72.7094 98.6451 80.0742 98.6451C82.3849 98.6451 84.4866 98.0857 86.3131 97.0049Z" fill="white"/>
</svg>
