<svg width="128" height="128" viewBox="0 0 128 128" fill="none" xmlns="http://www.w3.org/2000/svg">
<rect width="128" height="128" fill="#45A046"/>
<path d="M18.9328 50.3812C22.1533 48.4185 26.1275 49.0255 29.6963 49.3488C29.6963 51.0392 29.6906 52.7297 29.6792 54.4201C27.8462 54.0231 25.8077 53.3877 24.009 54.267C22.7757 54.8966 22.9698 56.4623 22.6957 57.5968C24.5401 57.6025 26.3844 57.6082 28.2288 57.6138C28.2117 59.1851 28.2117 60.7565 28.2231 62.3335C26.4986 62.3335 24.7742 62.3391 23.0498 62.3391C23.0555 68.0174 23.0383 73.7014 23.0612 79.3797C20.7143 79.3684 18.3675 79.374 16.0263 79.391C16.0149 73.7071 16.0263 68.0174 16.0206 62.3278C15.0157 62.3278 14.0164 62.3335 13.0114 62.3391C13.0171 60.7621 13.0171 59.1851 13 57.6082C13.9936 57.6082 14.9814 57.6082 15.975 57.6138C15.9635 54.9647 16.4832 51.8958 18.9328 50.3812Z" fill="#FEFEFE"/>
<path d="M78.5118 49.2467C81.0128 49.2354 83.5196 49.2354 86.0263 49.241C86.0263 50.9882 86.0263 52.7354 86.0263 54.4825C83.5424 54.5052 81.0585 54.5052 78.5689 54.4882C78.6032 52.741 78.5689 50.9939 78.5118 49.2467Z" fill="#FEFEFE"/>
<path d="M53.6101 60.4331C56.6251 57.2224 61.4044 56.5644 65.5956 57.109C68.2965 57.4436 70.9745 58.8278 72.3506 61.2386C73.9095 63.8027 73.801 66.8999 73.7439 69.7816C68.3536 69.7476 62.969 69.7589 57.5786 69.7759C57.8242 72.3797 59.8398 74.558 62.4836 74.8359C66.3379 75.8116 69.9638 74.0191 73.3442 72.4364C73.3328 74.3651 73.3099 76.2881 73.3213 78.2168C68.4392 80.1739 62.8662 80.6107 57.807 79.0734C54.4038 78.0183 51.5716 75.1706 50.9093 71.6422C50.1612 67.7905 50.7094 63.3262 53.6101 60.4331ZM57.5215 65.6633C60.6564 65.7824 63.7969 65.754 66.9318 65.6803C66.6177 64.0466 66.1152 61.9988 64.2252 61.5506C61.2331 60.4615 57.7328 62.3902 57.5215 65.6633Z" fill="#FEFEFE"/>
<path d="M93.6835 60.5125C96.2017 57.7897 100.073 56.8083 103.682 56.9501C106.765 56.9671 110.123 57.8975 112.007 60.4898C114.057 63.1106 113.983 66.5936 114 69.7419C108.581 69.793 103.162 69.7362 97.7491 69.7759C98.0403 72.1868 99.7476 74.3594 102.243 74.7452C106.206 75.874 110.06 74.1382 113.52 72.408C113.543 74.3424 113.532 76.2824 113.532 78.2168C108.821 80.0945 103.499 80.5653 98.5771 79.2549C95.1225 78.3473 92.0504 75.6868 91.211 72.1641C90.2575 68.2046 90.7599 63.5644 93.6835 60.5125ZM99.445 62.2654C98.2858 63.0369 98.0974 64.4891 97.7548 65.7143C100.855 65.737 103.956 65.737 107.062 65.72C106.788 64.3699 106.605 62.7646 105.315 61.9704C103.533 60.938 101.118 61.1082 99.445 62.2654Z" fill="#FEFEFE"/>
<path d="M32.3458 57.6082C34.6926 57.6082 37.0452 57.6082 39.392 57.5968C39.392 58.6633 39.4091 59.724 39.392 60.7848C41.8074 58.5952 44.9651 57.1487 48.2998 57.5571C48.3283 59.8035 48.3283 62.0555 48.3169 64.3019C45.3533 63.7573 42.2756 63.7856 39.3977 64.7443C39.3863 69.6285 39.3977 74.5126 39.3977 79.391C37.0452 79.374 34.6983 79.3684 32.3515 79.374C32.3686 72.1187 32.3857 64.8634 32.3458 57.6082Z" fill="#FEFEFE"/>
<path d="M78.7631 57.5968C81.0985 57.6082 83.4396 57.6082 85.7808 57.6025C85.7579 64.8634 85.775 72.1244 85.775 79.3854C83.4396 79.3684 81.0985 79.3684 78.7631 79.391C78.7688 72.1301 78.7745 64.8634 78.7631 57.5968Z" fill="#FEFEFE"/>
</svg>
