<svg width="128" height="128" viewBox="0 0 128 128" fill="none" xmlns="http://www.w3.org/2000/svg">
<rect width="128" height="128" fill="#596D79"/>
<path d="M89.9317 63.1597C91.3898 60.8782 92.3582 58.3185 92.7756 55.6428C94.5605 43.9652 85.499 32.896 72.5442 30.9137C59.5894 28.9315 47.6348 36.8016 45.85 48.4596C45.4666 51.0312 45.5999 53.6534 46.2423 56.1727L46.4482 56.8302C46.4482 56.9774 46.5365 57.1148 46.5855 57.2522L61.8841 101.156L89.4805 63.8662L89.863 63.3167L89.9317 63.1597Z" fill="#F8EF6C"/>
<path d="M80.4486 55.6328C81.3865 53.0966 81.7905 50.3938 81.6353 47.694C80.9096 35.9183 69.7102 26.9981 56.6279 27.8126C43.5456 28.6271 33.5034 38.8328 34.1997 50.6183C34.3691 53.2285 35.0699 55.7764 36.2591 58.1057H36.161L36.5043 58.7043C36.5827 58.8319 36.6612 58.9595 36.7298 59.0969L61.8255 101.293L80.0662 56.516L80.3113 55.8978L80.4486 55.6328Z" fill="#66C8C9"/>
<path d="M85.9404 55.9471C87.0384 53.4752 87.6095 50.8015 87.6174 48.0965C87.6174 36.3208 76.9868 26.7137 63.8849 26.7137C50.783 26.7137 40.0837 36.2815 40.0837 48.0867C40.0922 50.6877 40.6224 53.2605 41.643 55.6527L41.947 56.2807C42.0059 56.4181 42.0745 56.5457 42.1432 56.683L61.8451 101.333L85.558 56.7615C85.656 56.5653 85.7541 56.369 85.8424 56.1629L85.9404 55.9471Z" fill="#1BB15B"/>
<path d="M82.2529 60.157C83.269 57.9192 83.7972 55.4906 83.8024 53.0326C83.8024 42.3167 73.9955 33.6321 61.8939 33.6321C49.7923 33.6321 39.9855 42.3167 39.9855 53.0326C39.9924 55.3958 40.4795 57.7329 41.4173 59.9018L41.7017 60.4612C41.7605 60.5887 41.8193 60.7065 41.888 60.8243L61.8351 101.284L81.9195 60.942C82.0175 60.7654 82.1058 60.5789 82.194 60.3925L82.2529 60.157Z" fill="#FFCD06"/>
<path d="M77.3497 65.5836C78.3615 63.0372 78.7373 60.2823 78.4446 57.5577C78.1519 54.8332 77.1995 52.2212 75.67 49.9481C74.1405 47.6751 72.08 45.8097 69.6673 44.5135C67.2545 43.2174 64.5622 42.5297 61.8237 42.51C59.0853 42.4903 56.3834 43.1392 53.9522 44.4005C51.5211 45.6618 49.434 47.4974 47.8721 49.7482C46.3101 51.999 45.3203 54.5971 44.9884 57.3171C44.6566 60.0372 44.9928 62.7972 45.9679 65.3579L46.1836 65.8387L46.3307 66.1625L61.8942 101.352L77.0555 66.2312C77.1242 66.0644 77.2026 65.9074 77.2615 65.7504L77.3497 65.5836Z" fill="#EE1F24"/>
</svg>
