<svg width="128" height="128" viewBox="0 0 128 128" fill="none" xmlns="http://www.w3.org/2000/svg">
<rect width="128" height="128" fill="black"/>
<path fill-rule="evenodd" clip-rule="evenodd" d="M12.6414 63.7142C12.6414 70.9755 20.07 71.3442 21.5585 71.3442C26.4882 71.3442 28.5719 70.013 28.6587 69.9551C28.967 69.7802 29.3419 69.4292 29.3419 68.7686V63.757C29.3407 63.294 28.967 62.919 28.5039 62.919H22.3109C21.8479 62.919 21.5446 63.2953 21.5446 63.757V64.2754C21.5446 64.7384 21.8479 65.1159 22.3109 65.1159H25.8931C26.2391 65.1159 26.5197 65.3965 26.5197 65.7413C26.5197 65.7413 26.5159 67.9394 26.5159 68.0791C25.8088 68.3672 22.5852 69.3084 19.9957 68.6918C16.2387 67.7922 15.9455 64.6932 15.9455 63.7658C15.9455 62.9857 16.1795 59.0827 20.7935 58.6876C24.5279 58.368 26.9878 59.8754 27.0117 59.8905C27.4508 60.1169 27.905 59.9546 28.1504 59.4903C28.1516 59.4866 28.6159 58.5467 28.6159 58.5467C28.8097 58.1604 28.7443 57.759 28.2724 57.4382C28.241 57.4205 25.6226 56 21.5597 56C12.8917 56.0013 12.6414 62.9241 12.6414 63.7142ZM77.6997 64.6969C77.5046 65.0492 77.1813 65.048 76.9888 64.6957L72.7686 56.9449C72.5887 56.5863 72.2213 56.2907 71.7092 56.2907H69.4205C69.0178 56.2907 68.6869 56.6191 68.6869 57.023V70.4848C68.6869 70.8875 68.9511 71.163 69.4205 71.163H70.8435C71.2462 71.163 71.5381 70.9088 71.5381 70.5188C71.5381 70.3338 71.5431 60.7285 71.5582 60.7285C71.5746 60.7285 76.8264 70.5163 76.8264 70.5163C77.0164 70.8711 77.482 70.8736 77.6758 70.5201C77.6758 70.5201 82.9704 60.7561 82.9868 60.7561C83.0031 60.7561 82.9968 70.2382 82.9968 70.5188C82.9968 70.9088 83.3076 71.163 83.7115 71.163H85.3497C85.7536 71.163 86.0833 70.9617 86.0833 70.4295V57.023C86.082 56.6191 85.7549 56.2907 85.3497 56.2907H83.1566C82.5967 56.2907 82.2595 56.5763 82.0594 56.9273L77.6997 64.6969ZM112.898 56.2907C112.492 56.2907 112.168 56.5561 112.168 56.9449L112.172 65.5651C112.172 65.9703 111.944 66.0621 111.663 65.7727L103.031 56.8179C102.75 56.5272 102.341 56.2907 101.789 56.2907H100.164C99.6534 56.2907 99.4295 56.5624 99.4295 56.838V70.6257C99.4295 70.9013 99.6924 71.163 100.096 71.163H101.723C102.125 71.163 102.408 70.9441 102.408 70.5729C102.408 70.3867 102.415 61.4897 102.415 61.4897C102.415 61.0871 102.643 60.9952 102.922 61.2859L111.924 70.6446C112.211 70.929 112.557 71.163 113.174 71.163H114.396C114.8 71.163 115.13 70.8334 115.13 70.4307V57.0242C115.13 56.6203 114.8 56.2907 114.396 56.2907H112.898ZM59.8768 62.7605C59.4251 62.8649 58.9155 62.8863 58.9155 62.8863C58.4273 62.9052 57.9391 62.9152 57.4509 62.9178H54.0273C53.6246 62.9178 53.2937 62.5868 53.2937 62.1842V59.4526C53.2937 59.0499 53.6246 58.7203 54.0273 58.7203H57.4509C57.8536 58.7203 58.5129 58.7354 58.9155 58.7505C58.9155 58.7505 59.4251 58.7719 59.8768 58.8763C60.3298 58.9807 60.6884 59.1254 60.9513 59.3142C61.2156 59.5029 61.4031 59.7256 61.5176 59.981C61.6295 60.2365 61.6862 60.5145 61.6862 60.8178C61.6862 61.1197 61.6295 61.3991 61.5176 61.6545C61.4031 61.9099 61.2156 62.1314 60.9513 62.3201C60.6884 62.5101 60.3298 62.6586 59.8768 62.7605ZM61.2684 65.4984C61.0356 65.1675 61.164 64.8039 61.5503 64.6881C61.5503 64.6881 63.0853 64.2289 63.8214 63.5696C64.5574 62.9077 64.9274 61.9527 64.9274 60.7083C64.9274 59.8955 64.7839 59.211 64.5008 58.6536C64.2177 58.0987 63.8113 57.6445 63.2828 57.2973C62.7556 56.9475 62.1227 56.6908 61.3854 56.531C60.6481 56.3699 59.6528 56.3234 59.6528 56.3234C59.1659 56.3032 58.6764 56.2919 58.1882 56.2907H50.8037C50.401 56.2907 50.0701 56.6191 50.0701 57.023V70.5012C50.0701 70.9063 50.401 71.163 50.8037 71.163H52.5514C52.954 71.163 53.2849 70.9063 53.2849 70.5012L53.2887 65.1411C53.2925 65.1411 53.2937 65.1386 53.2937 65.1348C53.2937 65.1298 56.6066 65.126 56.6066 65.126C57.0093 65.126 57.5289 65.3953 57.7617 65.7249L61.2017 70.5679C61.5213 70.9969 61.8246 71.163 62.2284 71.163H64.5121C64.9148 71.163 64.9789 70.783 64.8393 70.5855C64.7009 70.3879 61.2684 65.4984 61.2684 65.4984ZM91.0647 57.0506V70.5377C91.0647 70.9088 91.3956 71.163 91.7982 71.163H93.5774C93.98 71.163 94.3097 70.9063 94.3097 70.5012V57.023C94.3097 56.6203 94.0492 56.2907 93.6466 56.2907H91.7982C91.3956 56.2907 91.0647 56.5385 91.0647 57.0506ZM36.675 66.9466C36.2723 66.9466 36.0823 66.6459 36.2522 66.281L38.8152 60.7888C38.9863 60.4227 39.2619 60.4252 39.428 60.7913L41.9243 66.2835C42.0917 66.651 41.8979 66.9504 41.4953 66.9504L36.675 66.9466ZM40.7856 56.9449C40.6069 56.5851 40.13 56.2907 39.7249 56.2907H38.9045C38.5019 56.2907 38.03 56.5889 37.8551 56.9512L31.3488 70.5452C31.1689 70.9063 31.3652 71.163 31.769 71.163H33.2714C33.8665 71.163 34.137 70.8925 34.2981 70.5616C34.4592 70.2307 34.8177 69.5122 34.887 69.3662C34.9801 69.1674 35.2657 69.0454 35.6683 69.0454L42.6704 69.0492C43.073 69.0504 43.3335 69.1272 43.4518 69.3662C43.5298 69.521 43.8871 70.1677 44.0633 70.5201C44.2407 70.8736 44.5389 71.163 45.1164 71.163H47.2994C47.7021 71.163 47.8795 70.8573 47.7348 70.5716C47.5876 70.286 40.7856 56.9449 40.7856 56.9449Z" fill="white"/>
</svg>
