<svg width="128" height="128" viewBox="0 0 128 128" fill="none" xmlns="http://www.w3.org/2000/svg">
<rect width="128" height="128" fill="#FFDC00"/>
<path fill-rule="evenodd" clip-rule="evenodd" d="M16.6923 59.6958C18.011 59.6958 19.2198 59.9132 20.3187 60.348L20.7583 57.4131C19.5495 57.087 18.2308 56.8696 16.8022 56.8696C11.967 56.8696 9 59.8045 9 64.1525C9 68.283 11.5275 70.7831 15.9231 70.7831C17.6813 70.7831 19.4396 70.457 20.7583 69.9135V63.3916H17.5714V67.8482C17.2418 67.9569 16.8022 68.0656 16.2528 68.0656C13.7253 68.0656 12.4066 66.5438 12.4066 64.0438C12.4066 61.2176 14.055 59.6958 16.6923 59.6958Z" fill="#231F20"/>
<path fill-rule="evenodd" clip-rule="evenodd" d="M33.6155 70.5645H36.6924V56H33.6155V70.5645Z" fill="#231F20"/>
<path fill-rule="evenodd" clip-rule="evenodd" d="M68.6702 60.7828C68.6702 60.0219 69.3307 59.4784 70.6483 59.4784C71.4175 59.4784 72.2966 59.5871 73.0658 59.8045L73.2856 57.087C72.4065 56.9783 71.5285 56.8696 70.7582 56.8696C67.3516 56.8696 65.3735 58.5001 65.3735 61.1089C65.3735 65.6742 70.868 64.4786 70.868 66.7612C70.868 67.7395 69.9889 68.1743 68.89 68.1743C67.901 68.1743 66.8021 67.9569 66.034 67.6308L65.923 70.5657C66.8021 70.7831 67.7911 70.8918 68.6702 70.8918C72.1867 70.8918 74.2757 68.9352 74.2757 66.3264C74.0549 62.0872 68.6702 62.8481 68.6702 60.7828Z" fill="#231F20"/>
<path fill-rule="evenodd" clip-rule="evenodd" d="M86.4727 70.6744H89.5496V60.6741H86.4727V70.6744Z" fill="#231F20"/>
<path fill-rule="evenodd" clip-rule="evenodd" d="M88.0116 56.0003C87.0225 56.0003 86.1434 56.7612 86.1434 57.8481C86.1434 58.8264 87.0225 59.696 88.0116 59.696C89.1105 59.696 89.8786 58.8264 89.8786 57.8481C89.9896 56.7612 89.1105 56.0003 88.0116 56.0003Z" fill="#231F20"/>
<path fill-rule="evenodd" clip-rule="evenodd" d="M95.5934 56.8696L92.5164 57.7392V60.6741H90.978V63.0655H92.5164V67.7395C92.5164 70.1309 93.2857 70.8918 95.5934 70.8918C96.3626 70.8918 97.1318 70.7831 97.7912 70.5657V68.1743C97.4615 68.283 97.0219 68.283 96.6923 68.283C95.923 68.283 95.7043 67.9569 95.7043 66.8699V62.9568H97.9022V60.6741H95.7043V56.8696H95.5934Z" fill="#231F20"/>
<path fill-rule="evenodd" clip-rule="evenodd" d="M115.923 60.4565C114.275 60.4565 113.176 61.2174 112.626 62.1957C112.737 61.7609 112.737 61 112.737 60.6739H109.879V70.6742H112.956V65.8914C112.956 64.4783 113.836 63.0653 114.935 63.0653C115.593 63.0653 115.923 63.5001 115.923 64.3696V70.6742H119V63.6088C118.89 61.8696 118.121 60.4565 115.923 60.4565Z" fill="#231F20"/>
<path fill-rule="evenodd" clip-rule="evenodd" d="M25.7036 64.37C25.8134 63.3917 26.4728 62.6308 27.3519 62.6308C28.231 62.6308 28.7805 63.283 28.7805 64.37H25.7036ZM31.7475 65.022C31.7475 62.4132 30.4288 60.3479 27.3519 60.3479C24.2749 60.3479 22.5167 62.6306 22.5167 65.6742C22.5167 69.1525 24.3848 70.783 27.6815 70.783C28.8903 70.783 30.3189 70.5656 31.4178 70.1308L31.0881 67.8482C30.209 68.283 29.1101 68.5004 28.1211 68.5004C26.4727 68.5004 25.7035 67.7395 25.5936 66.4351H31.6376C31.7475 65.8916 31.7475 65.4568 31.7475 65.022Z" fill="#231F20"/>
<path fill-rule="evenodd" clip-rule="evenodd" d="M43.286 68.3913C42.8464 68.3913 42.5168 68.3913 42.1871 68.2826V65.7836C42.1871 64.1531 42.9563 62.9564 43.9453 62.9564C44.8245 62.9564 45.3739 63.7173 45.3739 65.3477C45.3739 67.6315 44.4948 68.3913 43.286 68.3913ZM44.9344 60.4562C43.6157 60.4562 42.5168 60.9997 42.0772 61.9791C42.1871 61.4356 42.1871 60.5649 42.1871 60.0214V56.1083H39.1102V70.4565C40.319 70.7826 41.5278 71 43.0662 71C46.6926 71 48.6706 68.501 48.6706 65.2401C48.6706 62.1954 47.352 60.4562 44.9344 60.4562Z" fill="#231F20"/>
<path fill-rule="evenodd" clip-rule="evenodd" d="M53.0661 64.37C53.176 63.3917 53.8353 62.6308 54.7145 62.6308C55.5936 62.6308 56.143 63.283 56.143 64.37H53.0661ZM59.1101 65.022C59.1101 62.4132 57.7914 60.3479 54.7145 60.3479C51.6375 60.3479 49.8793 62.6306 49.8793 65.6742C49.8793 69.1525 51.7474 70.783 55.0441 70.783C56.2529 70.783 57.6815 70.5656 58.7804 70.1308L58.4507 67.8482C57.5716 68.283 56.4727 68.5004 55.4837 68.5004C53.8353 68.5004 53.0661 67.7395 52.9562 66.4351H59.0002C59.1101 65.8916 59.1101 65.4568 59.1101 65.022Z" fill="#231F20"/>
<path fill-rule="evenodd" clip-rule="evenodd" d="M78.5604 64.37C78.6714 63.3917 79.3296 62.6308 80.2087 62.6308C81.0879 62.6308 81.6373 63.283 81.6373 64.37H78.5604ZM84.6043 65.022C84.6043 62.4132 83.2857 60.3479 80.2087 60.3479C77.1318 60.3479 75.3747 62.6306 75.3747 65.6742C75.3747 69.1525 77.2417 70.783 80.5384 70.783C81.7472 70.783 83.1758 70.5656 84.2747 70.1308L83.945 67.8482C83.067 68.283 81.9681 68.5004 80.978 68.5004C79.3296 68.5004 78.5604 67.7395 78.4505 66.4351H84.4945C84.6043 65.8916 84.6043 65.4568 84.6043 65.022Z" fill="#231F20"/>
<path fill-rule="evenodd" clip-rule="evenodd" d="M102.187 64.37C102.298 63.3917 102.956 62.6308 103.835 62.6308C104.714 62.6308 105.264 63.283 105.264 64.37H102.187ZM107.901 65.022C107.901 62.4132 106.582 60.3479 103.505 60.3479C100.429 60.3479 98.6703 62.6306 98.6703 65.6742C98.6703 69.1525 100.538 70.783 103.835 70.783C105.045 70.783 106.473 70.5656 107.571 70.1308L107.243 67.8482C106.363 68.283 105.264 68.5004 104.275 68.5004C102.626 68.5004 101.748 67.7395 101.748 66.4351H107.792C107.901 65.8916 107.901 65.4568 107.901 65.022Z" fill="#231F20"/>
</svg>
