<svg width="56" height="56" viewBox="0 0 56 56" fill="none" xmlns="http://www.w3.org/2000/svg">
    <rect width="56" height="56" rx="28" fill="white"/>
    <path d="M42.6623 44.9999H14.3153C12.8535 44.9999 11.6576 43.8278 11.6576 42.3951V14.6048C11.6576 13.1722 12.8535 12 14.3153 12H42.6623C44.1236 12 45.32 13.1722 45.32 14.6048V42.3941C45.32 43.8267 44.1236 44.9994 42.6623 44.9994V44.9999Z" fill="#4285F4"/>
    <path opacity="0.2" d="M42.662 44.7794H14.3151C12.8532 44.7794 11.6573 43.6072 11.6573 42.1746V42.3913C11.6573 43.824 12.8532 44.9967 14.3151 44.9967H42.662C44.1233 44.9967 45.3197 43.8245 45.3197 42.3918V42.1741C45.3197 43.6067 44.1233 44.7794 42.662 44.7794Z" fill="#1A237E"/>
    <g filter="url(#filter0_d_1264_72042)">
        <path d="M36.6161 12L36.6389 12.1711V12H42.685C43.2545 12.001 43.8089 12.1806 44.267 12.5125C44.7252 12.8445 45.0632 13.3115 45.2317 13.8453L47.9998 24.1583C48.0015 24.7862 47.8765 25.4083 47.6322 25.9887C47.3879 26.5692 47.029 27.0965 46.5762 27.5404C46.1235 27.9842 45.5857 28.3359 44.9939 28.5752C44.4021 28.8144 43.7679 28.9365 43.1278 28.9345C42.4877 28.9365 41.8536 28.8144 41.2618 28.5752C40.6699 28.3359 40.1322 27.9842 39.6794 27.5404C39.2266 27.0965 38.8678 26.5692 38.6234 25.9887C38.3791 25.4083 38.2542 24.7862 38.2558 24.1583L38.2084 23.9768L38.2325 24.1583C38.2341 24.7862 38.1092 25.4083 37.8649 25.9887C37.6206 26.5692 37.2617 27.0965 36.8089 27.5404C36.3561 27.9842 35.8184 28.3359 35.2266 28.5752C34.6348 28.8144 34.0006 28.9365 33.3605 28.9345C30.7936 28.9345 28.6735 26.9617 28.5 24.4866C28.3279 26.9807 26.2072 28.935 23.6392 28.935C22.9991 28.937 22.3649 28.8149 21.7731 28.5757C21.1813 28.3364 20.6436 27.9848 20.1908 27.5409C19.738 27.097 19.3791 26.5697 19.1348 25.9893C18.9136 25.4637 18.7902 24.9039 18.7701 24.3366C18.6743 26.9017 16.5205 28.9345 13.9014 28.9345C13.2613 28.9366 12.627 28.8146 12.0352 28.5754C11.4433 28.3361 10.9055 27.9845 10.4527 27.5406C9.99982 27.0967 9.6409 26.5694 9.39655 25.9889C9.1522 25.4085 9.02724 24.7863 9.02885 24.1583L11.7975 13.8458C11.9659 13.3119 12.3039 12.8449 12.7621 12.5128C13.2203 12.1807 13.7746 12.0011 14.3443 12.0001L36.6161 12Z" fill="#7BAAF7"/>
    </g>
    <path d="M45.2317 13.8453C45.0632 13.3115 44.7252 12.8445 44.267 12.5125C43.8089 12.1806 43.2545 12.001 42.685 12H36.6389L38.2558 24.1583C38.2542 24.7862 38.3791 25.4083 38.6235 25.9887C38.8678 26.5692 39.2266 27.0965 39.6794 27.5404C40.1322 27.9842 40.67 28.3359 41.2618 28.5752C41.8536 28.8144 42.4878 28.9365 43.1278 28.9345C43.7679 28.9365 44.4021 28.8144 44.9939 28.5752C45.5857 28.3359 46.1235 27.9842 46.5762 27.5404C47.029 27.0965 47.3879 26.5692 47.6322 25.9887C47.8765 25.4083 48.0015 24.7862 47.9999 24.1583L45.2317 13.8453ZM28.5112 12.0005H20.3836L18.7672 24.1588C18.7656 24.7867 18.8905 25.4088 19.1348 25.9893C19.3792 26.5697 19.738 27.097 20.1908 27.5409C20.6436 27.9848 21.1813 28.3364 21.7732 28.5757C22.365 28.8149 22.9991 28.937 23.6392 28.935C26.3187 28.935 28.5112 26.8074 28.5112 24.1588V12.0005Z" fill="#3F51B5"/>
    <path opacity="0.1" d="M47.9773 24.1582C47.9789 24.7862 47.8539 25.4083 47.6096 25.9887C47.3653 26.5691 47.0064 27.0964 46.5536 27.5403C46.1009 27.9842 45.5631 28.3359 44.9713 28.5751C44.3795 28.8144 43.7453 28.9365 43.1052 28.9344C42.4652 28.9365 41.831 28.8144 41.2392 28.5751C40.6474 28.3359 40.1096 27.9842 39.6568 27.5403C39.204 27.0964 38.8452 26.5691 38.6009 25.9887C38.3565 25.4083 38.2316 24.7862 38.2332 24.1582H47.9773ZM18.7446 24.1582C18.7462 24.7862 18.6213 25.4083 18.3769 25.9887C18.1326 26.5691 17.7738 27.0964 17.321 27.5403C16.8682 27.9842 16.3304 28.3359 15.7386 28.5751C15.1468 28.8144 14.5126 28.9365 13.8726 28.9344C13.2324 28.9365 12.5982 28.8145 12.0063 28.5753C11.4145 28.336 10.8767 27.9844 10.4238 27.5405C9.97098 27.0966 9.61206 26.5693 9.36771 25.9888C9.12336 25.4083 8.9984 24.7862 9.00002 24.1582H18.7451H18.7446ZM28.4886 24.1582C28.4903 24.7862 28.3653 25.4083 28.121 25.9887C27.8767 26.5691 27.5178 27.0964 27.065 27.5403C26.6122 27.9842 26.0745 28.3359 25.4827 28.5751C24.8909 28.8144 24.2567 28.9365 23.6166 28.9344C22.9765 28.9365 22.3424 28.8144 21.7505 28.5751C21.1587 28.3359 20.621 27.9842 20.1682 27.5403C19.7154 27.0964 19.3566 26.5691 19.1122 25.9887C18.8679 25.4083 18.743 24.7862 18.7446 24.1582H28.4886ZM38.2332 24.1582C38.2348 24.7862 38.1099 25.4083 37.8656 25.9887C37.6213 26.5691 37.2624 27.0964 36.8096 27.5403C36.3568 27.9842 35.8191 28.3359 35.2273 28.5751C34.6355 28.8144 34.0013 28.9365 33.3612 28.9344C32.7211 28.9365 32.0868 28.8145 31.495 28.5753C30.9031 28.336 30.3653 27.9844 29.9124 27.5405C29.4596 27.0966 29.1007 26.5693 28.8563 25.9888C28.612 25.4083 28.487 24.7862 28.4886 24.1582H38.2332Z" fill="#231F20"/>
    <path d="M37.9906 36.5293V38.3772H40.6122C40.4019 39.4754 39.4228 40.2745 37.9906 40.2745C36.4003 40.2745 35.1115 38.9565 35.1115 37.3978C35.1115 35.8391 36.4003 34.5215 37.9906 34.5215C38.7059 34.5215 39.3479 34.7622 39.8529 35.2353L41.2505 33.8656C40.4062 33.0946 39.3038 32.6216 37.9901 32.6216C35.2995 32.6216 33.1181 34.7601 33.1181 37.3978C33.1181 40.0359 35.2995 42.174 37.9906 42.174C40.805 42.174 42.6678 40.2355 42.6678 37.5061C42.6678 37.1675 42.6364 36.8419 42.5791 36.5293H37.9906Z" fill="#EEEEEE"/>
    <defs>
        <filter id="filter0_d_1264_72042" x="7.90712" y="12" width="43.4579" height="21.9828" filterUnits="userSpaceOnUse" color-interpolation-filters="sRGB">
            <feFlood flood-opacity="0" result="BackgroundImageFix"/>
            <feColorMatrix in="SourceAlpha" type="matrix" values="0 0 0 0 0 0 0 0 0 0 0 0 0 0 0 0 0 0 127 0" result="hardAlpha"/>
            <feOffset dx="1.12172" dy="2.8043"/>
            <feGaussianBlur stdDeviation="1.12172"/>
            <feComposite in2="hardAlpha" operator="out"/>
            <feColorMatrix type="matrix" values="0 0 0 0 0.0980392 0 0 0 0 0.133333 0 0 0 0 0.490196 0 0 0 0.25 0"/>
            <feBlend mode="normal" in2="BackgroundImageFix" result="effect1_dropShadow_1264_72042"/>
            <feBlend mode="normal" in="SourceGraphic" in2="effect1_dropShadow_1264_72042" result="shape"/>
        </filter>
    </defs>
</svg>
