<svg width="128" height="128" viewBox="0 0 128 128" fill="none" xmlns="http://www.w3.org/2000/svg">
<rect width="128" height="128" fill="#1C449B"/>
<path d="M95.1901 63.246L102.142 51.7085H95.0466L91.3492 57.5585L87.3714 51.7085H79.5983L87.7952 63.233L79.5983 76.233H87.3714L91.8057 68.8425L97.0616 76.233H104L95.1901 63.246ZM69.4842 51.7085L64.2087 64.832L59.207 51.7085H52.9012L48.7147 76.2655H55.0857L57.1464 62.115H57.2116L62.8588 76.2655H65.4085L71.3231 62.115H71.4014L73.1947 76.2655H79.5983L75.8683 51.7085H69.4842ZM37.0095 62.57V67.562H42.2263C41.9524 70.3635 39.8265 71.8 37.0747 71.8C32.8882 71.8 30.6254 67.9585 30.6254 64.1625C30.6254 60.3665 32.7969 56.46 36.9768 56.46C39.5461 56.46 41.3851 58.007 42.2654 60.3275L48.3039 57.8055C46.1976 53.2555 42.298 51 37.2638 51C29.3798 51 24 56.2 24 64.1235C24 71.8 29.3472 77 37.0421 77C41.1307 77 44.7369 75.544 47.1236 72.216C49.269 69.2 49.5624 66.132 49.6276 62.57H37.0095Z" fill="white"/>
</svg>
