<svg width="128" height="128" viewBox="0 0 128 128" fill="none" xmlns="http://www.w3.org/2000/svg">
<rect width="128" height="128" fill="white"/>
<path d="M27.9966 78.8468C27.9966 73.3663 27.9966 67.8857 27.9966 62.4132C27.9966 61.5763 28.0447 60.7313 28.1812 59.9023C28.2455 59.5482 28.2455 59.178 28.3017 58.8159C28.382 58.2847 28.4623 57.7455 28.5667 57.2224C28.6791 56.635 28.8156 56.0475 28.9601 55.46C29.2331 54.3011 29.5864 53.1583 29.9718 52.0316C30.3332 50.9774 30.7748 49.9473 31.2245 48.9252C31.5457 48.1928 31.915 47.4766 32.3004 46.7684C33.1195 45.2474 34.0429 43.8068 35.0787 42.4306C36.5642 40.4509 38.2263 38.6241 40.0812 36.9743C41.5666 35.6544 43.1485 34.4634 44.8267 33.4011C46.4728 32.3629 48.1991 31.4696 49.9897 30.7131C51.1219 30.2302 52.2782 29.8198 53.4505 29.4576C54.5586 29.1116 55.6908 28.8219 56.839 28.6126C57.6099 28.4678 58.3887 28.3471 59.1676 28.2263C60.0027 28.0976 60.8378 28.0493 61.6729 27.9769C62.5561 27.8964 63.4474 27.8722 64.3387 27.8964C65.8162 27.9286 67.2856 28.0412 68.755 28.2344C70.0719 28.4114 71.3727 28.6609 72.6654 28.9667C73.364 29.1277 74.0385 29.345 74.7291 29.5462C75.8693 29.8922 76.9774 30.3188 78.0774 30.7855C78.8964 31.1316 79.7074 31.5098 80.4943 31.9203C81.8273 32.6124 83.1281 33.385 84.3646 34.238C85.818 35.252 87.2151 36.3304 88.4919 37.5617C88.6926 37.7549 88.9094 37.9239 89.1021 38.117C90.1941 39.2035 91.2219 40.3543 92.1935 41.5615C93.1009 42.6882 93.9199 43.8792 94.6747 45.1025C95.7507 46.8489 96.6741 48.6757 97.4288 50.575C97.8143 51.5407 98.1676 52.5225 98.4566 53.5205C98.7216 54.4218 98.9705 55.3312 99.1632 56.2487C99.3158 56.9971 99.4443 57.7536 99.5808 58.502C99.7173 59.2746 99.7815 60.0472 99.8618 60.8198C99.9421 61.5843 99.9983 62.3408 100.006 63.1134C100.006 63.8699 100.022 64.6183 99.9983 65.3748C99.9742 66.0106 99.91 66.6544 99.8618 67.2902C99.7494 68.6825 99.5406 70.0586 99.2516 71.4187C99.0428 72.4247 98.7778 73.4226 98.4888 74.4044C98.0391 75.9335 97.469 77.4223 96.8186 78.879C96.12 80.4402 95.309 81.9371 94.3856 83.3777C93.3418 85.0194 92.1614 86.5726 90.8686 88.0293C89.8569 89.164 88.7809 90.2263 87.6327 91.2323C86.5246 92.198 85.3683 93.0994 84.1558 93.9283C82.8631 94.8135 81.5061 95.5942 80.1009 96.3024C79.1614 96.7772 78.1898 97.1876 77.2182 97.59C76.4795 97.8958 75.7167 98.1534 74.9539 98.3948C74.0465 98.6845 73.1312 98.926 72.2077 99.1593C71.6537 99.3042 71.0756 99.3766 70.5135 99.5054C69.8149 99.6664 69.1003 99.7146 68.4017 99.8434C67.9601 99.9239 67.5024 99.9319 67.0527 99.9561C66.7637 99.9722 66.4746 99.9802 66.1936 100.037C65.8724 100.101 65.5431 100.109 65.222 100.109C54.39 100.109 43.558 100.117 32.726 100.109C30.823 100.109 29.4017 99.1996 28.4864 97.5337C28.1491 96.906 27.9885 96.2299 27.9885 95.5057C27.9966 89.9527 27.9885 84.3997 27.9885 78.8387L27.9966 78.8468ZM46.8823 63.1697C43.9755 63.1697 41.0608 63.1697 38.154 63.1697C38.0175 63.1697 37.873 63.1617 37.7445 63.1697C37.4555 63.2019 37.1744 63.2341 36.9175 63.387C36.3474 63.7411 36.0744 64.2642 36.0503 64.9241C36.0182 65.7531 36.0824 66.582 36.1627 67.4029C36.2751 68.6422 36.4598 69.8655 36.7408 71.0807C36.9657 72.0625 37.2226 73.0282 37.5599 73.9779C38.0978 75.507 38.7402 76.9958 39.5271 78.4122C40.0651 79.3779 40.6513 80.3115 41.2936 81.2128C41.8718 82.0096 42.474 82.7741 43.1244 83.5064C43.7909 84.2549 44.5055 84.9711 45.2442 85.6471C46.0151 86.3473 46.8341 86.9911 47.6692 87.6108C48.9138 88.5282 50.2387 89.3169 51.6198 90.009C52.9687 90.685 54.3659 91.2323 55.8032 91.683C56.8711 92.021 57.9551 92.2704 59.0472 92.4716C60.2034 92.6889 61.3758 92.8177 62.5561 92.866C64.1701 92.9384 65.7921 92.8982 67.398 92.697C68.49 92.5602 69.574 92.367 70.65 92.0934C72.0552 91.7313 73.4363 91.2967 74.7772 90.7253C76.5919 89.9527 78.3183 89.0111 79.9403 87.8844C81.209 87.0072 82.3813 86.0012 83.4974 84.9389C84.0675 84.3917 84.5814 83.7881 85.1033 83.2006C86.2355 81.9291 87.1991 80.5368 88.0663 79.0802C88.9014 77.6638 89.608 76.183 90.1701 74.6297C90.5555 73.5674 90.9168 72.4971 91.1577 71.3946C91.3665 70.453 91.5752 69.5114 91.6636 68.5456C91.7519 67.596 91.9205 66.6544 91.8804 65.6967C91.8804 65.6243 91.8804 65.5438 91.8964 65.4714C91.9847 65.1414 91.9285 64.8195 91.8563 64.4976C91.6475 63.5641 90.957 63.1536 90.146 63.1375C89.5759 63.1295 89.062 63.4031 88.7247 63.9262C88.4678 64.3125 88.4116 64.739 88.4196 65.1897C88.4597 66.6544 88.259 68.095 88.002 69.5275C87.7852 70.7266 87.456 71.9016 87.0465 73.0524C86.5005 74.5815 85.826 76.0542 84.9909 77.4465C83.8266 79.386 82.4295 81.1323 80.7914 82.6936C79.868 83.5789 78.8643 84.3836 77.8205 85.116C76.8971 85.7679 75.9255 86.3312 74.9057 86.8302C74.1991 87.1762 73.4845 87.5142 72.7457 87.7959C72.0552 88.0615 71.3566 88.2868 70.65 88.4961C69.8711 88.7294 69.0762 88.9065 68.2732 89.0433C67.671 89.1479 67.0688 89.2686 66.4505 89.3008C65.4789 89.3411 64.5073 89.494 63.5357 89.4296C62.4598 89.3572 61.3918 89.325 60.3239 89.156C59.3603 89.0031 58.3968 88.818 57.4573 88.5604C56.0682 88.1822 54.7192 87.6671 53.4184 87.0314C52.0293 86.3553 50.7044 85.5667 49.4678 84.6412C48.1028 83.6111 46.818 82.5005 45.7019 81.1887C45.2844 80.7058 44.8668 80.2149 44.4814 79.7079C43.3733 78.2271 42.4258 76.6497 41.663 74.9597C41.0768 73.664 40.6111 72.3281 40.2658 70.9439C40.049 70.0586 39.8483 69.1573 39.7519 68.2479C39.7118 67.8857 39.6556 67.5236 39.5994 67.1695C39.5512 66.8395 39.6716 66.7027 40.0009 66.6625C40.1534 66.6464 40.298 66.6544 40.4505 66.6544C45.5253 66.6544 50.608 66.6544 55.6828 66.6544C55.8193 66.6544 55.9558 66.6544 56.1003 66.6544C56.9113 66.6303 57.4734 66.1394 57.7383 65.2461C57.8829 64.7632 57.5858 63.8538 56.9836 63.4836C56.5981 63.2502 56.1966 63.1858 55.763 63.1858C52.8001 63.1858 49.8452 63.1858 46.8823 63.1858V63.1697ZM46.8983 60.0794C48.3115 60.0794 49.7328 60.0794 51.146 60.0794C52.76 60.0794 54.382 60.0794 55.9959 60.0794C56.8631 60.0794 57.4011 59.6609 57.6741 58.84C57.9873 57.8743 57.3931 56.8683 56.3974 56.6671C56.1485 56.6189 55.8996 56.6108 55.6506 56.6108C49.8051 56.6108 43.9675 56.6108 38.1219 56.6108C37.9935 56.6108 37.873 56.6108 37.7445 56.6108C37.4956 56.6349 37.2467 56.6591 37.0138 56.7718C36.3072 57.1178 35.9057 57.9065 36.0663 58.6871C36.2109 59.3712 36.7167 59.9828 37.608 60.0633C37.7847 60.0794 37.9613 60.0794 38.138 60.0794C41.0608 60.0794 43.9836 60.0794 46.8983 60.0794ZM46.8983 53.5205C49.8291 53.5205 52.768 53.5205 55.6988 53.5205C55.8594 53.5205 56.028 53.5205 56.1886 53.5124C57.1843 53.4158 57.7383 52.7076 57.7705 51.8063C57.8026 51.0176 57.2726 50.2611 56.3653 50.1082C56.1003 50.0599 55.8433 50.0438 55.5784 50.0438C49.789 50.0438 43.9916 50.0438 38.2022 50.0438C38.0898 50.0438 37.9774 50.0438 37.865 50.0438C37.592 50.068 37.3109 50.0841 37.054 50.1967C36.3393 50.5106 35.9218 51.3315 36.0663 52.1282C36.2109 52.9088 36.8773 53.4802 37.6803 53.5124C37.8329 53.5124 37.9774 53.5124 38.13 53.5124C41.0527 53.5124 43.9675 53.5124 46.8903 53.5124L46.8983 53.5205Z" fill="#F5D74D"/>
</svg>
