<svg width="128" height="128" viewBox="0 0 128 128" fill="none" xmlns="http://www.w3.org/2000/svg">
<rect width="128" height="128" fill="#296D9F"/>
<path d="M82.2764 64.7359C80.6524 64.7359 79.2379 64.7359 77.5616 64.7359C77.5616 59.6151 77.5616 54.599 77.5616 49.3473C73.4754 49.3473 69.6643 49.3473 65.3293 49.3473C60.8371 54.2716 56.0175 59.5365 51.2503 64.7621C51.2503 66.3861 51.2503 67.8005 51.2503 69.5817C47.0201 69.8829 42.8815 69.6602 38.6251 69.3328C40.3932 68.3768 42.1874 67.46 43.9293 66.4385C45.4485 65.561 47.0201 64.7097 48.3428 63.5834C52.0099 60.4795 51.7873 55.005 47.8714 52.2024C43.7066 49.2163 38.9001 48.7055 33.9889 49.2949C30.6361 49.7009 27.362 50.6307 24.5593 53.0274C27.4012 42.6156 40.9825 31.4441 57.1962 34.1682C75.3613 37.2066 83.7301 54.0097 82.2764 64.7359Z" fill="white"/>
<path d="M25.3059 76.942C33.7402 76.942 42.0959 76.942 50.648 76.942C50.8183 74.9644 50.9623 73.1702 51.1326 71.2188C56.3844 71.2188 61.2956 71.2188 66.5867 71.2188C66.5867 73.0261 66.5867 74.8335 66.5867 76.7718C70.3061 76.7718 73.672 76.7718 77.2867 76.7718C77.2867 74.9906 77.2867 73.2749 77.2867 71.2973C78.7535 71.2973 79.9846 71.2973 81.2419 71.2973C80.7049 81.408 69.1274 92.1997 56.4498 93.9677C43.3532 95.8012 30.06 88.454 25.3059 76.942Z" fill="white"/>
<path d="M94.3515 56.865C90.5928 56.865 87.4234 56.865 84.1361 56.865C83.2324 54.4683 82.3811 52.2418 81.4906 49.8975C82.1323 49.8452 82.6693 49.7666 83.2193 49.7666C90.6059 49.7535 97.9924 49.7666 105.575 49.7666C105.575 51.4953 105.575 53.0931 105.575 55.0052C99.7212 60.7416 95.504 67.6043 95.7136 76.6934C91.6405 76.6934 87.6198 76.6934 83.4027 76.6934C82.8526 74.611 83.5598 72.6334 84.2671 70.7344C85.6815 66.8709 87.8163 63.4264 90.7368 60.5059C91.8107 59.4188 92.8716 58.3449 94.3515 56.865Z" fill="white"/>
<path d="M22.4246 69.8829C22.4246 65.9801 22.4246 62.719 22.4246 59.2091C25.4368 59.6151 28.2133 59.9949 31.1731 60.4009C31.9589 58.1352 32.7448 55.7778 35.7832 55.7516C37.5512 55.7385 38.2454 56.2231 39.6074 58.8031C38.6252 59.864 37.6167 61.1212 36.438 62.1821C35.6391 62.9024 34.6045 63.387 33.6484 63.9108C30.0861 65.8098 26.5238 67.6958 22.4246 69.8829Z" fill="white"/>
<path d="M66.5866 64.7225C64.5304 64.7225 62.8147 64.7225 60.4311 64.7225C62.5659 62.2211 64.3994 60.0732 66.5866 57.5194C66.5866 60.2697 66.5866 62.3259 66.5866 64.7225Z" fill="white"/>
</svg>
