<svg width="128" height="128" viewBox="0 0 128 128" fill="none" xmlns="http://www.w3.org/2000/svg">
<rect width="128" height="128" fill="#FBFCFC"/>
<path fill-rule="evenodd" clip-rule="evenodd" d="M96.0802 54.6002L95.8392 52.7602L94.2392 51.8802C94.2392 51.8802 94.1602 51.8002 94.2392 51.8002L95.9202 51.0802L96.3202 49.3202L96.4002 49.2402L97.6002 50.6002L99.3593 50.4402C99.3593 50.4402 99.4392 50.4402 99.4392 50.5202V50.6002L98.4802 52.1202L99.2002 53.8002C99.2002 53.8002 99.2002 53.8802 99.1202 53.8802L97.3602 53.4802L96.0802 54.6002Z" fill="#445578"/>
<path fill-rule="evenodd" clip-rule="evenodd" d="M31.2 66.9201L30.56 71.0001C30 71.7201 29.44 72.0401 28.88 72.0401C28 72.0401 27.52 71.3201 27.52 70.1201C27.52 69.3201 27.76 68.4401 28.32 67.8001C28.88 67.1601 29.68 66.84 30.72 66.84L31.2 66.9201ZM34.8 64.2799C33.76 64.1999 32.4 64.1199 31.28 64.1199C26.08 64.1199 24.24 67.4008 24.24 70.5199C24.24 73.1599 25.6 74.8399 27.92 74.8399C28.72 74.8399 29.44 74.5999 30.08 74.1199H30.16L30 74.6799C29.76 76.2008 28.96 76.8399 27.36 76.8399C26.72 76.8399 26 76.7599 25.36 76.5199C24.96 77.3199 24.48 78.0399 24 78.7608C25.04 79.3199 26.24 79.5599 27.44 79.5599C29.04 79.5599 30.4 79.1599 31.28 78.3599C32.24 77.5599 32.88 76.2808 33.2 74.6799L34.8 64.2799Z" fill="#445578"/>
<path fill-rule="evenodd" clip-rule="evenodd" d="M40.4795 71.9599C39.4395 71.9599 38.7995 71.1609 38.7995 69.8809C38.7995 68.0399 39.6795 66.8399 41.0395 66.8399C42.0795 66.8399 42.7195 67.6399 42.7195 68.9199C42.7995 70.6799 41.8395 71.9599 40.4795 71.9599ZM44.7995 65.2399C43.9995 64.4399 42.7995 64.0399 41.3595 64.0399C39.5995 64.0399 38.1595 64.5999 37.1195 65.7199C36.0795 66.8399 35.5195 68.3599 35.5195 70.1999C35.5195 71.6399 35.9995 72.7599 36.7995 73.5599C37.5995 74.3599 38.7995 74.7599 40.2395 74.7599C41.9195 74.7599 43.4395 74.1999 44.4795 73.0799C45.5195 71.9599 46.0795 70.4399 46.0795 68.6009C46.0795 67.2399 45.5995 66.0399 44.7995 65.2399Z" fill="#445578"/>
<path fill-rule="evenodd" clip-rule="evenodd" d="M70.4797 64.0401C68.7997 64.0401 67.4397 64.6001 66.4797 65.6401C65.5197 66.6801 64.9597 68.2801 64.9597 70.1201C64.9597 72.9201 66.7197 74.7592 69.3597 74.7592C70.3997 74.7592 71.3597 74.5201 72.2407 73.9601L71.8397 71.2401C71.3597 71.6401 70.7197 71.8801 70.1597 71.8801C69.0397 71.8801 68.3197 71.0792 68.3197 69.7992C68.3197 67.9601 69.2797 66.8401 70.7197 66.8401C71.2797 66.8401 71.7597 67.0801 72.1607 67.4001L73.1197 64.7601C72.3207 64.2801 71.4397 63.9601 70.4797 64.0401Z" fill="#AEBC11"/>
<path fill-rule="evenodd" clip-rule="evenodd" d="M47.3595 70.9197C47.2795 71.3206 47.2795 71.6397 47.2795 72.0397C47.2795 73.8006 48.2395 74.7597 49.9995 74.7597C50.6395 74.7597 51.2795 74.6797 51.9195 74.4397V71.7997C51.7595 71.9597 51.5195 71.9597 51.2795 71.9597C50.8795 71.9597 50.6395 71.7197 50.6395 71.2406C50.6395 71.0797 50.6395 70.9197 50.7195 70.7597L52.3995 59.3197C51.2795 59.6406 50.1595 59.8797 49.0395 60.1197L47.3595 70.9197Z" fill="#AEBC11"/>
<path fill-rule="evenodd" clip-rule="evenodd" d="M84.9601 70.9197C84.8801 71.3206 84.8801 71.6397 84.8801 72.0397C84.8801 73.8006 85.8392 74.7597 87.6001 74.7597C88.2392 74.7597 88.8801 74.6797 89.5192 74.4397V71.7997C89.3592 71.9597 89.1201 71.9597 88.8801 71.9597C88.4801 71.9597 88.2392 71.7197 88.2392 71.2406C88.2392 71.0797 88.2392 70.9197 88.3192 70.7597L90.0001 59.3197C88.8801 59.6406 87.7601 59.8797 86.6401 60.1197L84.9601 70.9197Z" fill="#AEBC11"/>
<path fill-rule="evenodd" clip-rule="evenodd" d="M80.5597 66.9201L79.9206 71.0001C79.3597 71.7201 78.8797 72.0401 78.2397 72.0401C77.3606 72.0401 76.8797 71.3201 76.8797 70.1201C76.8797 69.3201 77.1197 68.4401 77.6797 67.8001C78.2397 67.1601 79.0397 66.84 80.0797 66.84L80.5597 66.9201ZM80.6397 64.1199C78.3197 64.1199 76.4797 64.7599 75.2797 66.0399C74.1597 67.1599 73.6006 68.6808 73.6006 70.5199C73.6006 73.1599 74.9597 74.8399 77.2806 74.8399C78.3197 74.8399 79.3597 74.4399 80.0797 73.6408L80.1597 73.5599V74.5999H82.7197L84.3197 64.2799C83.1997 64.1199 81.8397 64.1199 80.6397 64.1199Z" fill="#AEBC11"/>
<path fill-rule="evenodd" clip-rule="evenodd" d="M58.0801 71.9599C57.0401 71.9599 56.4001 71.1609 56.4001 69.8809C56.4001 68.0399 57.2801 66.8399 58.6401 66.8399C59.6801 66.8399 60.3201 67.6399 60.3201 68.9199C60.4001 70.6799 59.4401 71.9599 58.0801 71.9599ZM62.4001 65.2399C61.6001 64.4399 60.4001 64.0399 58.9601 64.0399C57.2001 64.0399 55.7601 64.5999 54.7201 65.7199C53.6801 66.8399 53.1201 68.3599 53.1201 70.1999C53.1201 71.6399 53.5201 72.7599 54.4001 73.5599C55.2001 74.3599 56.4001 74.7599 57.8401 74.7599C59.5201 74.7599 61.0401 74.1999 62.0801 73.0799C63.1201 71.9599 63.6801 70.4399 63.6801 68.6009C63.6801 67.2399 63.2801 66.0399 62.4001 65.2399Z" fill="#AEBC11"/>
<path fill-rule="evenodd" clip-rule="evenodd" d="M101.36 51.9598C101.36 54.3598 99.4399 56.2798 97.039 56.2798C94.6399 56.2798 92.7199 54.3598 92.7199 51.9598C92.7199 49.5598 94.6399 47.6398 97.039 47.6398C99.4399 47.7198 101.36 49.6398 101.36 51.9598ZM104 51.9599C104 48.1199 100.88 44.9999 97.039 44.9999H96.7199C92.8799 45.1599 89.9199 48.4399 90.0799 52.2799C90.1599 54.2799 91.1199 56.1999 92.7199 57.3999C93.0399 57.6399 93.359 57.8799 93.6799 58.1199C94.7199 58.9199 96.8799 60.6799 96.8799 63.0799C96.8799 66.4399 96.0799 67.6399 96.3199 67.8799C96.3999 67.9599 96.7999 67.7199 97.5199 67.0799C101.6 62.7599 103.52 56.9999 103.84 52.9199C104 52.8399 104 52.1199 104 51.9599Z" fill="#AEBC11"/>
<path fill-rule="evenodd" clip-rule="evenodd" d="M88.7202 80.6799C88.5602 80.6799 88.3193 80.8399 88.3193 80.9999C88.3193 81.1608 88.4002 81.3199 88.6402 81.3199C88.8002 81.3199 89.0402 81.1608 89.0402 80.9999C89.0402 80.8399 88.8802 80.6799 88.7202 80.6799ZM85.6002 81.3199H86.0802L86.3202 79.5598C86.4802 79.3198 86.6402 79.2398 86.9593 79.1598C87.2002 79.1598 87.3602 79.3198 87.3602 79.6398V79.8808L87.1193 81.3199H87.6002L87.8402 79.9608V79.6398C87.8402 79.1598 87.5202 78.8398 87.1193 78.8398C86.8002 78.8398 86.5602 78.9998 86.4002 79.1598V78.8398H86.0002L85.6002 81.3199ZM84.3992 79.24C84.5592 79.24 84.7202 79.32 84.7202 79.48C84.7202 79.72 84.5592 79.8809 84.0002 79.8809H83.6802C83.8402 79.48 84.0002 79.24 84.3992 79.24ZM84.9601 80.6799C84.8001 80.8399 84.4792 80.9199 84.2401 80.9199C83.8401 80.9199 83.6801 80.6799 83.6801 80.2799V80.1999H84.0801C84.8801 80.1999 85.2801 79.8808 85.2801 79.3999C85.2801 78.9999 84.9601 78.7608 84.4792 78.7608C83.6001 78.7608 83.1992 79.4799 83.1992 80.2799C83.1992 80.9199 83.5201 81.3199 84.2401 81.3199C84.5592 81.3199 84.8801 81.2408 85.1201 81.0799L84.9601 80.6799ZM82.4001 78.1999H81.9192L81.8401 78.8399H81.5201L81.4401 79.2399H81.7601L81.6001 80.5199V80.7599C81.6001 81.0799 81.7601 81.3199 82.0792 81.3999H82.2401C82.4801 81.3999 82.6401 81.3199 82.8801 81.2408V80.8399C82.7201 80.9199 82.6401 80.9999 82.4801 80.9999C82.3201 80.9999 82.2401 80.9199 82.2401 80.7599V80.6799V80.5199L82.4001 79.3199H83.1192L83.1992 78.9199H82.4801L82.4001 78.1999ZM79.4392 81.3199H79.9201L80.1601 79.6399C80.3201 79.3999 80.4801 79.2399 80.7192 79.2399C80.7992 79.2399 80.8801 79.2399 80.9601 79.3199L81.0401 78.8399C80.9601 78.7608 80.8801 78.7608 80.7992 78.7608C80.5601 78.7608 80.3201 78.9199 80.1601 79.1599V78.8399H79.7601L79.4392 81.3199ZM78.3192 79.24C78.4801 79.24 78.6401 79.32 78.6401 79.48C78.6401 79.72 78.4801 79.8809 77.9201 79.8809H77.6001C77.6801 79.48 77.9201 79.24 78.3192 79.24ZM78.8802 80.6799C78.7202 80.8399 78.4002 80.9199 78.1592 80.9199C77.7602 80.9199 77.6002 80.6799 77.6002 80.2799V80.1999H78.0002C78.8002 80.1999 79.2002 79.8808 79.2002 79.3999C79.2002 78.9999 78.8802 78.7608 78.4002 78.7608C77.5202 78.7608 77.1192 79.4799 77.1192 80.2799C77.1192 80.9199 77.4402 81.3199 78.1592 81.3199C78.4802 81.3199 78.8002 81.2408 79.0402 81.0799L78.8802 80.6799ZM76.4002 78.8398C76.1602 79.4798 75.9202 80.1998 75.6792 80.8399L75.5202 78.8398H74.9602L74.1602 80.8399C74.0802 80.1998 74.0002 79.5598 74.0002 78.8398H73.5202C73.5202 79.6398 73.6002 80.5198 73.7602 81.3199H74.3992L75.2002 79.3998L75.3602 81.3199H76.0002C76.4002 80.5198 76.7202 79.7198 77.0392 78.8398H76.4002ZM72.0792 79.24C72.2401 79.24 72.4001 79.32 72.4001 79.48C72.4001 79.72 72.2401 79.8809 71.6801 79.8809H71.3601C71.5201 79.48 71.7601 79.24 72.0792 79.24ZM72.6401 80.6799C72.4801 80.8399 72.1601 80.9199 71.9192 80.9199C71.5201 80.9199 71.3601 80.6799 71.3601 80.2799V80.1999H71.7601C72.5601 80.1999 72.9601 79.8808 72.9601 79.3999C72.9601 78.9999 72.6401 78.7608 72.1601 78.7608C71.2801 78.7608 70.8801 79.4799 70.8801 80.2799C70.8801 80.9199 71.2001 81.3199 71.9192 81.3199C72.2401 81.3199 72.5601 81.2408 72.8001 81.0799L72.6401 80.6799ZM68.9601 78.2798H69.2001C69.6801 78.2798 69.9201 78.4398 69.9201 78.7607C69.9201 79.1598 69.5192 79.3998 68.9601 79.3998H68.8001L68.9601 78.2798ZM68.7201 79.7998H69.0401C69.5992 79.7998 69.8401 79.9608 69.8401 80.2798C69.8401 80.6798 69.4392 80.9198 68.8001 80.9198H68.5601L68.7201 79.7998ZM67.9201 81.3199H68.5601C69.6801 81.3199 70.3201 80.9199 70.3201 80.1999C70.3201 79.7999 70.0801 79.5599 69.6801 79.4799C70.0801 79.3199 70.4001 79.0799 70.4001 78.6009C70.4001 78.1199 70.0001 77.7999 69.2001 77.7999H68.5601L67.9201 81.3199ZM65.6001 80.6799C65.4401 80.6799 65.2001 80.8399 65.2001 80.9999C65.2001 81.1608 65.2801 81.3199 65.5201 81.3199C65.6792 81.3199 65.9201 81.1608 65.9201 80.9999C65.9201 80.8399 65.8392 80.6799 65.6001 80.6799ZM64.4002 78.1999H63.9201L63.8401 78.8399H63.5201L63.4401 79.2399H63.7601L63.6001 80.5199V80.7599C63.6001 81.0799 63.7601 81.3199 64.0801 81.3999H64.2401C64.4792 81.3999 64.6402 81.3199 64.8801 81.2408V80.8399C64.7201 80.9199 64.6402 80.9999 64.4792 80.9999C64.3201 80.9999 64.2401 80.9199 64.2401 80.7599V80.6799V80.5199L64.4002 79.3199H65.1201L65.2001 78.9199H64.4792L64.4002 78.1999ZM61.6801 77.6398H61.2001L60.6401 81.3198H61.1201L61.3601 79.5598C61.5201 79.3198 61.6801 79.2398 62.0001 79.1598C62.2401 79.1598 62.4001 79.3198 62.4001 79.6398V79.8807L62.1601 81.3198H62.6401L62.8801 79.9607V79.6398C62.8801 79.1598 62.5601 78.8398 62.1601 78.8398C61.9201 78.8398 61.6801 78.9198 61.5201 79.0798L61.6801 77.6398ZM60.0001 80.6799C59.8401 80.8399 59.6801 80.9199 59.4401 80.9199C59.0401 80.9199 58.8001 80.6799 58.8001 80.1999C58.8001 79.5599 59.2001 79.1599 59.6001 79.1599C59.7601 79.1599 59.9201 79.2399 60.0801 79.3199L60.2401 78.9199C60.0801 78.7609 59.8401 78.6809 59.6001 78.6809C58.8801 78.6809 58.3201 79.2399 58.3201 80.1999C58.3201 80.8399 58.7201 81.3199 59.3601 81.3199C59.6001 81.3199 59.9201 81.2409 60.0801 81.0799L60.0001 80.6799ZM58.2402 77.8799H56.4002L55.8402 81.3199H57.6802L57.7602 80.8399H56.4802L56.6402 79.7199H57.8402L57.9202 79.2399H56.7202L56.8802 78.1999H58.1602L58.2402 77.8799ZM53.5201 80.6799C53.3601 80.6799 53.1201 80.8399 53.1201 80.9999C53.1201 81.1608 53.2001 81.3199 53.4401 81.3199C53.6001 81.3199 53.8401 81.1608 53.8401 80.9999C53.9201 80.8399 53.7601 80.6799 53.5201 80.6799C53.6001 80.6799 53.6001 80.6799 53.5201 80.6799ZM51.5201 77.6398H51.0401L50.4801 81.3198H50.9601L51.2001 79.5598C51.3601 79.3198 51.5201 79.2398 51.8401 79.1598C52.0801 79.1598 52.2401 79.3198 52.2401 79.6398V79.8807L52.0001 81.3198H52.4801L52.7201 79.9607V79.6398C52.7201 79.1598 52.4001 78.8398 52.0001 78.8398C51.7601 78.8398 51.5201 78.9198 51.3601 79.0798L51.5201 77.6398ZM49.9201 80.6799C49.7601 80.8399 49.6001 80.9199 49.3601 80.9199C48.9601 80.9199 48.7201 80.6799 48.7201 80.1999C48.7201 79.5599 49.1201 79.1599 49.5201 79.1599C49.6801 79.1599 49.8401 79.2399 50.0001 79.3199L50.1601 78.9199C50.0001 78.7609 49.7601 78.6809 49.5201 78.6809C48.8001 78.6809 48.2401 79.2399 48.2401 80.1999C48.2401 80.8399 48.6401 81.3199 49.2801 81.3199C49.5201 81.3199 49.8401 81.2409 50.0001 81.0799L49.9201 80.6799ZM47.0401 80.6C46.8801 80.84 46.7201 80.92 46.4801 81C46.1601 81 46.0001 80.76 46.0001 80.36C46.0001 79.72 46.3201 79.32 47.0401 79.32H47.2801L47.0401 80.6ZM47.8401 78.8398H47.1201C46.0001 78.8398 45.4401 79.5598 45.4401 80.3598C45.4401 80.9999 45.7601 81.3999 46.3201 81.3999C46.6401 81.3999 46.8801 81.2408 47.0401 81.0799V81.3999H47.4401L47.8401 78.8398ZM44.2401 79.2399L43.8401 81.5599C43.7601 81.8799 43.6801 82.0399 43.4401 82.0399C43.3601 82.0399 43.2801 82.0399 43.2001 81.9599L43.1201 82.3608C43.2001 82.4408 43.3601 82.4408 43.5201 82.4408C44.0001 82.4408 44.2401 82.1199 44.4001 81.4799L44.8001 79.1599H45.4401L45.5201 78.7608H44.8801L44.9601 78.4399C45.0401 78.1199 45.1201 77.9599 45.3601 77.9599C45.4401 77.9599 45.6001 77.9599 45.6801 78.0399L45.8401 77.6399C45.6801 77.5599 45.5201 77.4808 45.3601 77.4808C44.8801 77.4808 44.5601 77.7999 44.4801 78.3599L44.4001 78.7608H44.0001L43.9201 79.1599L44.2401 79.2399ZM41.0401 81.3199H41.5201L41.7601 79.5598C41.9201 79.3198 42.0801 79.2398 42.4001 79.1598C42.6401 79.1598 42.8001 79.3198 42.8001 79.6398V79.8808L42.5601 81.3199H43.0401L43.2801 79.9608V79.6398C43.2801 79.1598 42.9601 78.8398 42.5601 78.8398C42.2401 78.8398 42.0001 78.9998 41.8401 79.1598V78.8398H41.4401L41.0401 81.3199ZM40.5601 77.72C40.4001 77.72 40.2401 77.88 40.1601 78.04C40.1601 78.2 40.3201 78.36 40.4801 78.36C40.6401 78.36 40.8001 78.2 40.8801 78.04C40.9601 77.88 40.8001 77.72 40.5601 77.72C40.6401 77.72 40.6401 77.72 40.5601 77.72ZM40.7201 78.8398H40.2401L39.8401 81.3199H40.3201L40.7201 78.8398ZM39.7601 77.8799H37.9201L37.3601 81.3199H39.2001L39.2801 80.8399H38.0001L38.1601 79.7199H39.3601L39.4401 79.2399H38.2401L38.4001 78.1999H39.6801L39.7601 77.8799Z" fill="#445578"/>
</svg>
