<svg width="128" height="128" viewBox="0 0 128 128" fill="none" xmlns="http://www.w3.org/2000/svg">
<rect width="128" height="128" fill="white"/>
<path d="M24.464 49.6325C24.4479 46.7965 25.002 43.9858 26.0938 41.3652C27.1856 38.7447 28.793 36.3669 30.8219 34.3714C32.8508 32.3759 35.2604 30.8028 37.9093 29.7443C40.5582 28.6857 43.3933 28.163 46.2482 28.2069C49.0992 28.202 51.923 28.7571 54.5573 29.8401C57.1915 30.9231 59.5843 32.5127 61.5978 34.5175C63.6114 36.5223 65.206 38.9026 66.2901 41.5218C67.3742 44.1409 67.9263 46.947 67.9146 49.7788C68.0118 52.6796 67.5193 55.57 66.4665 58.2774C65.4136 60.9849 63.8221 63.4537 61.7871 65.5364C59.752 67.6191 57.3151 69.2729 54.622 70.3991C51.9289 71.5253 49.0349 72.1006 46.1129 72.0908C43.1909 72.0809 40.3009 71.4861 37.6155 70.3418C34.9302 69.1976 32.5047 67.5274 30.4838 65.431C28.463 63.3346 26.8884 60.8551 25.8541 58.1407C24.8198 55.4262 24.347 52.5325 24.464 49.6325Z" fill="#4284F4"/>
<path d="M82.1504 99.7913C78.7791 99.7739 75.5526 98.4285 73.179 96.0503C70.8055 93.6722 69.479 90.4558 69.4908 87.1072C69.5644 80.3481 75.4708 74.5327 82.2167 74.5766C83.9092 74.5407 85.5919 74.8414 87.1656 75.461C88.7394 76.0805 90.1726 77.0065 91.3808 78.1843C92.589 79.3621 93.5479 80.7681 94.201 82.3194C94.8541 83.8708 95.1883 85.5362 95.1839 87.2177C95.1795 88.8992 94.8365 90.5628 94.1753 92.1108C93.514 93.6587 92.5478 95.0596 91.3334 96.2312C90.119 97.4027 88.681 98.3212 87.1039 98.9326C85.5269 99.544 83.8427 99.836 82.1504 99.7913Z" fill="#FBBC05"/>
<path d="M82.2237 71.3651C79.3172 71.3194 76.544 70.1457 74.4975 68.0951C72.451 66.0446 71.2935 63.28 71.2727 60.3927C71.3321 57.501 72.525 54.7465 74.5977 52.715C76.6704 50.6836 79.4593 49.5356 82.371 49.5153C88.3805 49.6104 93.4178 54.7016 93.3147 60.4877C93.2894 63.3889 92.1083 66.1621 90.0299 68.2006C87.9514 70.239 85.1447 71.3769 82.2237 71.3651Z" fill="#EA4336"/>
<path d="M103.998 47.9574C103.985 49.3991 103.401 50.7779 102.374 51.796C101.346 52.8142 99.9568 53.3902 98.5056 53.3997C95.5163 53.3485 92.8142 50.5908 92.9467 47.7306C93.0208 46.2889 93.6544 44.9318 94.7142 43.9443C95.7741 42.9568 97.1779 42.4156 98.6308 42.4345C99.35 42.4411 100.061 42.5898 100.721 42.8721C101.382 43.1543 101.98 43.5644 102.479 44.0785C102.979 44.5925 103.371 45.2003 103.631 45.8662C103.892 46.5322 104.017 47.243 103.998 47.9574Z" fill="#34A853"/>
</svg>
