<svg width="128" height="128" viewBox="0 0 128 128" fill="none" xmlns="http://www.w3.org/2000/svg">
<rect width="128" height="128" fill="white"/>
<path d="M102.727 56.7924H64.9987V72.1952H86.6037C85.7072 77.1629 82.8265 81.5573 78.6084 84.3498V84.3645C78.6084 84.3645 78.6231 84.3645 78.6231 84.3498L91.4979 94.344C99.067 87.3775 103.417 77.0894 103.417 64.92C103.417 62.201 103.197 59.4673 102.727 56.7924Z" fill="#4285F4"/>
<path d="M78.6231 84.3497C75.0369 86.7895 70.4073 88.171 65.0134 88.171C54.5783 88.171 45.7305 81.131 42.5559 71.666H42.5412L29.2549 81.9688C36.045 95.4756 49.8752 104 64.9987 104C75.7865 104 84.8841 100.458 91.5126 94.3439L78.6231 84.3497Z" fill="#34A853"/>
<path d="M29.2549 46.0488C23.5817 57.351 23.5817 70.6667 29.2549 81.969L42.5412 71.6662C40.8657 66.6985 40.8657 61.3193 42.5412 56.3516L29.2549 46.0488Z" fill="#FBBC04"/>
<path d="M64.9987 39.8317C70.7012 39.7435 76.2127 41.8893 80.3427 45.8282L91.7625 34.4084C84.5314 27.6182 74.9341 23.8851 64.9987 24.0027C49.8752 24.0027 36.045 32.5271 29.2549 46.0486L42.5412 56.3514C45.7012 46.8717 54.5636 39.8317 64.9987 39.8317Z" fill="#EA4335"/>
</svg>
