<svg width="128" height="128" viewBox="0 0 128 128" fill="none" xmlns="http://www.w3.org/2000/svg">
<rect width="128" height="128" fill="white"/>
<path d="M97.5138 102.857H32.7208C29.3793 102.857 26.646 100.178 26.646 96.9033V33.3826C26.646 30.1079 29.3793 27.4287 32.7208 27.4287H97.5138C100.854 27.4287 103.589 30.1079 103.589 33.3826V96.9009C103.589 100.176 100.854 102.856 97.5138 102.856V102.857Z" fill="#4285F4"/>
<path opacity="0.2" d="M97.5132 102.353H32.7201C29.3787 102.353 26.6454 99.6737 26.6454 96.3991V96.8945C26.6454 100.169 29.3787 102.85 32.7201 102.85H97.5132C100.853 102.85 103.588 100.17 103.588 96.8956V96.3979C103.588 99.6725 100.853 102.353 97.5132 102.353Z" fill="#1A237E"/>
<g filter="url(#filter0_d_203_664)">
<path d="M83.694 27.4286L83.746 27.8196V27.4286H97.5656C98.8675 27.4308 100.135 27.8413 101.182 28.6001C102.229 29.3589 103.002 30.4262 103.387 31.6463L109.714 55.2189C109.718 56.6542 109.432 58.0762 108.874 59.4028C108.315 60.7295 107.495 61.9348 106.46 62.9494C105.425 63.964 104.196 64.7678 102.843 65.3147C101.49 65.8615 100.041 66.1406 98.5779 66.1359C97.1148 66.1406 95.6653 65.8615 94.3126 65.3147C92.9599 64.7678 91.7307 63.964 90.6958 62.9494C89.6609 61.9348 88.8406 60.7295 88.2822 59.4028C87.7237 58.0762 87.4381 56.6542 87.4418 55.2189L87.3335 54.8042L87.3886 55.2189C87.3923 56.6542 87.1067 58.0762 86.5483 59.4028C85.9898 60.7295 85.1696 61.9348 84.1347 62.9494C83.0997 63.964 81.8706 64.7678 80.5179 65.3147C79.1652 65.8615 77.7156 66.1406 76.2526 66.1359C70.3853 66.1359 65.5394 61.6268 65.1427 55.9693C64.7495 61.6702 59.9021 66.1371 54.0325 66.1371C52.5694 66.1418 51.1199 65.8627 49.7672 65.3158C48.4144 64.769 47.1853 63.9652 46.1504 62.9506C45.1154 61.936 44.2952 60.7307 43.7367 59.404C43.2311 58.2027 42.9491 56.9233 42.9031 55.6265C42.6842 61.4897 37.7611 66.136 31.7746 66.136C30.3115 66.1409 28.8618 65.8619 27.509 65.3151C26.1561 64.7683 24.9268 63.9645 23.8918 62.9499C22.8567 61.9354 22.0363 60.73 21.4778 59.4032C20.9193 58.0765 20.6337 56.6545 20.6374 55.219L26.9658 31.6476C27.3507 30.4273 28.1232 29.3597 29.1704 28.6007C30.2177 27.8417 31.4849 27.431 32.7869 27.4287L83.694 27.4286Z" fill="#7BAAF7"/>
</g>
<path d="M103.387 31.6463C103.002 30.4262 102.229 29.3589 101.182 28.6001C100.135 27.8413 98.8675 27.4308 97.5656 27.4286H83.746L87.4418 55.2189C87.4381 56.6542 87.7237 58.0762 88.2822 59.4028C88.8406 60.7295 89.6609 61.9348 90.6958 62.9494C91.7307 63.964 92.9599 64.7678 94.3126 65.3147C95.6653 65.8615 97.1148 66.1406 98.5779 66.1359C100.041 66.1406 101.49 65.8615 102.843 65.3147C104.196 64.7678 105.425 63.964 106.46 62.9494C107.495 61.9348 108.315 60.7295 108.874 59.4028C109.432 58.0762 109.718 56.6542 109.714 55.2189L103.387 31.6463ZM65.1685 27.4298H46.591L42.8964 55.2201C42.8927 56.6554 43.1783 58.0773 43.7367 59.404C44.2952 60.7307 45.1154 61.936 46.1504 62.9506C47.1853 63.9652 48.4145 64.769 49.7672 65.3158C51.1199 65.8627 52.5694 66.1418 54.0324 66.1371C60.157 66.1371 65.1685 61.274 65.1685 55.2201V27.4298Z" fill="#3F51B5"/>
<path opacity="0.1" d="M109.662 55.2189C109.666 56.6543 109.38 58.0762 108.822 59.4029C108.264 60.7296 107.443 61.9349 106.408 62.9494C105.373 63.964 104.144 64.7678 102.792 65.3147C101.439 65.8615 99.9893 66.1406 98.5263 66.1359C97.0632 66.1406 95.6137 65.8615 94.2609 65.3147C92.9082 64.7678 91.6791 63.964 90.6442 62.9494C89.6092 61.9349 88.789 60.7296 88.2305 59.4029C87.6721 58.0762 87.3865 56.6543 87.3902 55.2189H109.662ZM42.8448 55.2189C42.8485 56.6543 42.5629 58.0762 42.0044 59.4029C41.446 60.7296 40.6257 61.9349 39.5908 62.9494C38.5559 63.964 37.3267 64.7678 35.974 65.3147C34.6213 65.8615 33.1718 66.1406 31.7087 66.1359C30.2456 66.1408 28.7959 65.8618 27.443 65.315C26.0902 64.7682 24.8609 63.9644 23.8258 62.9498C22.7908 61.9353 21.9704 60.7299 21.4119 59.4031C20.8534 58.0764 20.5678 56.6544 20.5714 55.2189H42.846H42.8448ZM65.1169 55.2189C65.1206 56.6543 64.835 58.0762 64.2765 59.4029C63.7181 60.7296 62.8978 61.9349 61.8629 62.9494C60.828 63.964 59.5988 64.7678 58.2461 65.3147C56.8934 65.8615 55.4439 66.1406 53.9808 66.1359C52.5178 66.1406 51.0682 65.8615 49.7155 65.3147C48.3628 64.7678 47.1337 63.964 46.0987 62.9494C45.0638 61.9349 44.2435 60.7296 43.6851 59.4029C43.1267 58.0762 42.8411 56.6543 42.8448 55.2189H65.1169ZM87.3902 55.2189C87.3939 56.6543 87.1083 58.0762 86.5499 59.4029C85.9914 60.7296 85.1712 61.9349 84.1362 62.9494C83.1013 63.964 81.8721 64.7678 80.5194 65.3147C79.1667 65.8615 77.7172 66.1406 76.2541 66.1359C74.791 66.1408 73.3413 65.8618 71.9885 65.315C70.6356 64.7682 69.4063 63.9644 68.3713 62.9498C67.3362 61.9353 66.5158 60.7299 65.9573 59.4031C65.3988 58.0764 65.1132 56.6544 65.1169 55.2189H87.3902Z" fill="#231F20"/>
<path d="M86.8358 83.4958V87.7195H92.828C92.3473 90.2297 90.1092 92.0563 86.8358 92.0563C83.2006 92.0563 80.2549 89.0436 80.2549 85.4808C80.2549 81.918 83.2006 78.9066 86.8358 78.9066C88.4707 78.9066 89.9381 79.4567 91.0923 80.5379L94.2869 77.4074C92.3571 75.645 89.8373 74.5638 86.8345 74.5638C80.6845 74.5638 75.6985 79.4519 75.6985 85.4808C75.6985 91.5109 80.6845 96.3979 86.8358 96.3979C93.2686 96.3979 97.5264 91.967 97.5264 85.7285C97.5264 84.9545 97.4548 84.2103 97.3237 83.4958H86.8358Z" fill="#EEEEEE"/>
<defs>
<filter id="filter0_d_203_664" x="19.5156" y="27.4286" width="93.5635" height="43.7563" filterUnits="userSpaceOnUse" color-interpolation-filters="sRGB">
<feFlood flood-opacity="0" result="BackgroundImageFix"/>
<feColorMatrix in="SourceAlpha" type="matrix" values="0 0 0 0 0 0 0 0 0 0 0 0 0 0 0 0 0 0 127 0" result="hardAlpha"/>
<feOffset dx="1.12172" dy="2.8043"/>
<feGaussianBlur stdDeviation="1.12172"/>
<feComposite in2="hardAlpha" operator="out"/>
<feColorMatrix type="matrix" values="0 0 0 0 0.0980392 0 0 0 0 0.133333 0 0 0 0 0.490196 0 0 0 0.25 0"/>
<feBlend mode="normal" in2="BackgroundImageFix" result="effect1_dropShadow_203_664"/>
<feBlend mode="normal" in="SourceGraphic" in2="effect1_dropShadow_203_664" result="shape"/>
</filter>
</defs>
</svg>
