<svg width="128" height="128" viewBox="0 0 128 128" fill="none" xmlns="http://www.w3.org/2000/svg">
<rect width="128" height="128" fill="white"/>
<path fill-rule="evenodd" clip-rule="evenodd" d="M21.8181 82.618L51.0839 31.9087L76.4582 46.5537L47.1912 97.2688L21.8181 82.618Z" fill="#FBBC04"/>
<path fill-rule="evenodd" clip-rule="evenodd" d="M105.981 82.4365L76.686 31.7133C73.1165 24.4555 64.3375 21.4653 57.0797 25.0348C49.8218 28.6043 46.8316 37.3821 50.4011 44.6411C50.4438 44.7276 50.4877 44.8142 50.5315 44.8996C50.6169 45.0681 50.7058 45.2354 50.797 45.3993C50.962 45.7121 51.1386 46.0202 51.3255 46.3225L80.619 97.0492C84.6282 104.079 93.5756 106.526 100.605 102.518C107.554 98.5552 110.039 89.7498 106.188 82.7389C106.124 82.6235 106.057 82.5115 105.993 82.4007V82.433L105.981 82.4365Z" fill="#4285F4"/>
<path fill-rule="evenodd" clip-rule="evenodd" d="M24.2896 79.4703C30.0091 73.7508 39.2832 73.7508 45.0027 79.4703C50.7222 85.1898 50.7222 94.4627 45.0027 100.182C39.2832 105.902 30.0091 105.902 24.2896 100.182C18.5701 94.4627 18.5701 85.1898 24.2896 79.4703Z" fill="#34A853"/>
</svg>
