<svg width="128" height="128" viewBox="0 0 128 128" fill="none" xmlns="http://www.w3.org/2000/svg">
<rect width="128" height="128" fill="white"/>
<path d="M50.5061 84.728C53.1603 88.0474 55.8635 92.2213 57.2781 94.7424C59.0008 98.0198 59.7152 100.233 60.9967 104.197C61.7461 106.368 62.4604 107.026 63.959 107.026C65.5978 107.026 66.3471 105.919 66.9213 104.197C68.1189 100.478 69.0433 97.6487 70.5069 94.9525C76.1514 84.3078 85.3535 76.7444 90.5357 66.3799C90.5357 66.3799 93.9463 60.0491 93.9463 51.1832C93.9463 42.9195 90.5848 37.177 90.5848 37.177L50.5271 84.798L50.5061 84.728Z" fill="#34A853"/>
<path d="M36.9201 65.2593C40.1485 72.6125 46.3043 79.0553 50.5061 84.7278L72.7759 58.3262C72.7759 58.3262 69.6315 62.444 63.952 62.444C57.6212 62.444 52.467 57.4018 52.467 51.029C52.467 46.6451 55.0791 43.6057 55.0791 43.6057C38.6919 46.0428 39.6023 50.0135 36.8711 65.2453L36.9201 65.2593Z" fill="#FBBC04"/>
<path d="M73.0562 22.3799C80.4795 24.7679 86.7822 29.8032 90.5639 37.1564L72.7761 58.3757C72.7761 58.3757 75.3882 55.3224 75.3882 50.9525C75.3882 44.4466 69.8978 39.5374 63.9732 39.5374C58.3497 39.5374 55.1493 43.6062 55.1493 43.6062C56.5149 40.4969 70.6261 23.4373 73.0772 22.3869L73.0562 22.3799Z" fill="#4285F4"/>
<path d="M40.9821 31.7147C45.408 26.4484 53.1674 21 63.8821 21C69.0574 21 72.9862 22.3726 72.9862 22.3726L55.1283 43.592C53.9238 42.9386 42.1726 33.7876 40.9821 31.6867V31.7147Z" fill="#1A73E8"/>
<path d="M36.9203 65.2594C36.9203 65.2594 34 59.4609 34 51.1132C34 43.1997 37.0954 36.2666 41.0031 31.7847L55.1493 43.6899L36.9413 65.2594H36.9203Z" fill="#EA4335"/>
</svg>
