<svg width="40" height="41" viewBox="0 0 40 41" fill="none" xmlns="http://www.w3.org/2000/svg">
<g clip-path="url(#clip0)">
<path d="M0 20.75C0 9.70431 8.95431 0.75 20 0.75C31.0457 0.75 40 9.70431 40 20.75C40 31.7957 31.0457 40.75 20 40.75C8.95431 40.75 0 31.7957 0 20.75Z" fill="#F5F7F9"/>
<path d="M0 20.75C0 9.70431 8.95431 0.75 20 0.75C31.0457 0.75 40 9.70431 40 20.75C40 31.7957 31.0457 40.75 20 40.75C8.95431 40.75 0 31.7957 0 20.75Z" fill="white"/>
<path fill-rule="evenodd" clip-rule="evenodd" d="M8.01648 25.9743L16.3306 11.5683L23.5392 15.7288L15.2248 30.1365L8.01648 25.9743Z" fill="#FBBC04"/>
<path fill-rule="evenodd" clip-rule="evenodd" d="M31.9262 25.9228L23.6039 11.5128C22.5898 9.45091 20.0958 8.60143 18.0339 9.61549C15.972 10.6296 15.1226 13.1232 16.1366 15.1855C16.1488 15.2101 16.1612 15.2346 16.1737 15.2589C16.1979 15.3068 16.2232 15.3543 16.2491 15.4009C16.296 15.4897 16.3461 15.5773 16.3992 15.6632L24.7213 30.0741C25.8602 32.0711 28.4021 32.7665 30.3991 31.6279C32.3731 30.502 33.0793 28.0004 31.9853 26.0087C31.9669 25.9759 31.9479 25.9441 31.9299 25.9126V25.9218L31.9262 25.9228Z" fill="#4285F4"/>
<path fill-rule="evenodd" clip-rule="evenodd" d="M8.71865 25.0801C10.3435 23.4552 12.9782 23.4552 14.603 25.0801C16.2279 26.705 16.2279 29.3393 14.603 30.9642C12.9782 32.589 10.3435 32.589 8.71865 30.9642C7.09378 29.3393 7.09378 26.705 8.71865 25.0801Z" fill="#34A853"/>
</g>
<path d="M20 39.75C9.50659 39.75 1 31.2434 1 20.75H-1C-1 32.348 8.40202 41.75 20 41.75V39.75ZM39 20.75C39 31.2434 30.4934 39.75 20 39.75V41.75C31.598 41.75 41 32.348 41 20.75H39ZM20 1.75C30.4934 1.75 39 10.2566 39 20.75H41C41 9.15202 31.598 -0.25 20 -0.25V1.75ZM20 -0.25C8.40202 -0.25 -1 9.15202 -1 20.75H1C1 10.2566 9.50659 1.75 20 1.75V-0.25Z" fill="#E6E9F0"/>
<defs>
<clipPath id="clip0">
<path d="M0 20.75C0 9.70431 8.95431 0.75 20 0.75C31.0457 0.75 40 9.70431 40 20.75C40 31.7957 31.0457 40.75 20 40.75C8.95431 40.75 0 31.7957 0 20.75Z" fill="white"/>
</clipPath>
</defs>
</svg>
