<svg width="128" height="128" viewBox="0 0 128 128" fill="none" xmlns="http://www.w3.org/2000/svg">
<rect width="128" height="128" fill="white"/>
<path d="M80.7588 30.4941V96.4572C80.7588 103.844 85.8497 107.951 91.2529 107.951C96.2501 107.951 101.747 104.453 101.747 96.4572V30.9938C101.747 24.232 96.7498 20 91.2529 20C85.756 20 80.7588 24.6693 80.7588 30.4941Z" fill="#F8AB00"/>
<path d="M53.2739 63.9753V96.4571C53.2739 103.844 58.3648 107.951 63.7681 107.951C68.7653 107.951 74.2622 104.453 74.2622 96.4571V64.475C74.2622 57.7132 69.265 53.4812 63.7681 53.4812C58.2711 53.4812 53.2739 58.1505 53.2739 63.9753Z" fill="#E37300"/>
<path d="M46.7778 97.4566C46.7778 103.25 42.0773 107.951 36.2837 107.951C30.49 107.951 25.7896 103.25 25.7896 97.4566C25.7896 91.663 30.49 86.9625 36.2837 86.9625C42.0773 86.9625 46.7778 91.663 46.7778 97.4566Z" fill="#E37300"/>
</svg>
