<svg width="128" height="128" viewBox="0 0 128 128" fill="none" xmlns="http://www.w3.org/2000/svg">
<rect width="128" height="128" fill="white"/>
<path d="M102.214 64.4089C97.0595 84.8045 75.7021 104.752 56.2683 104.752C36.8345 104.752 23.7698 80.5624 23.7698 64.4089C23.7698 48.2553 39.4587 26.0829 82.267 25.1862C102.663 24.7379 108.042 45.1328 102.214 64.4089Z" fill="#F1D461"/>
<path d="M55.7029 48.2803C53.8477 53.4738 50.7867 57.6542 46.8538 61.2168C44.196 63.6251 41.2529 65.5635 37.6852 66.3605C34.4462 67.0856 31.5187 66.4247 28.9343 64.324C27.9013 63.485 27.8817 63.1958 28.7759 62.2312C31.7439 59.0206 34.4318 55.6045 36.6064 51.7945C41.1076 43.9101 41.4742 35.832 37.7284 27.585C37.0197 26.0249 36.2206 24.505 35.4213 22.9849C35.0586 22.295 34.6958 21.605 34.3414 20.9112C34.2583 20.7482 34.1725 20.587 34.071 20.3964C34.0014 20.2658 33.9245 20.1214 33.8361 19.9532H34.9306C36.7805 19.9532 38.6305 19.9537 40.4805 19.9542C47.6751 19.9561 54.8702 19.958 62.0645 19.9309C62.8631 19.9283 63.2402 20.1862 63.5609 20.889C70.4226 35.9079 77.2909 50.9241 84.1879 65.9247C87.285 72.6624 90.3958 79.3934 93.5065 86.1244C95.9357 91.3809 98.365 96.6373 100.788 101.897C101.05 102.466 101.254 103.094 101.332 103.715C101.471 104.81 100.916 105.712 99.9131 106.148C96.6479 107.564 93.4651 107.683 90.5861 105.284C89.777 104.61 89.0936 103.72 88.5463 102.813C81.7844 91.6151 75.0484 80.4028 68.3124 69.1908L65.7722 64.9627C64.0568 62.1077 62.3434 59.2518 60.6299 56.3961L60.6014 56.3486C59.1714 53.9652 57.7415 51.5819 56.3104 49.1991C56.1979 49.0129 56.0755 48.8322 55.9258 48.6112C55.8577 48.5107 55.7839 48.4018 55.7029 48.2803Z" fill="black"/>
<path d="M56.8345 57.0721C57.4259 58.0729 58.0071 59.0556 58.5821 60.028L58.5899 60.0412C59.3591 61.3419 60.1174 62.6241 60.8748 63.9068C61.2951 64.6191 61.7143 65.3319 62.1335 66.0447L62.1344 66.0462C63.2309 67.9107 64.3272 69.775 65.4428 71.6277C65.753 72.1407 65.7766 72.4967 65.3878 73.0019C58.9792 81.3555 52.5816 89.7193 46.1847 98.0823L46.1801 98.0883C44.3559 100.473 42.5317 102.858 40.7074 105.242C39.8917 106.309 39.08 106.479 37.9096 105.846C33.4542 103.438 31.9067 98.4653 34.4388 94.082C38.1675 87.6216 41.9996 81.224 45.8553 74.8395C48.2395 70.8932 50.6682 66.9729 53.0967 63.053C54.154 61.3463 55.2115 59.6393 56.265 57.9307C56.3695 57.7614 56.4816 57.5958 56.6087 57.4082C56.6789 57.3045 56.7539 57.1937 56.8345 57.0721Z" fill="black"/>
</svg>
