<svg width="128" height="128" viewBox="0 0 128 128" fill="none" xmlns="http://www.w3.org/2000/svg">
<rect width="128" height="128" fill="#FBFCFC"/>
<path fill-rule="evenodd" clip-rule="evenodd" d="M64 53C90.5094 53 112 57.9853 112 64.136C112 70.2858 90.5094 75.272 64 75.272C37.4906 75.272 16 70.2858 16 64.136C16 57.9853 37.4906 53 64 53Z" fill="#0A529C"/>
<path fill-rule="evenodd" clip-rule="evenodd" d="M42.4961 66.0554C42.4961 67.1114 43.0721 67.8794 43.9361 67.8794C45.2801 67.8794 46.1441 65.9594 46.1441 64.4234C46.1441 63.6554 45.7601 62.5994 44.7041 62.5994C43.3601 62.5994 42.4961 64.6154 42.4961 66.0554ZM48.0641 64.4236C48.0641 67.0156 46.2401 69.3196 43.7441 69.3196C41.8241 69.3196 40.6721 67.9756 40.6721 66.1516C40.6721 63.5596 42.4001 61.2556 44.9921 61.2556C47.0081 61.1596 48.0641 62.6956 48.0641 64.4236ZM38.6561 68.6476C37.9841 68.9356 36.7361 69.2236 35.4881 69.2236C34.0481 69.2236 32.8961 68.8396 32.0321 67.9756C31.1681 67.2076 30.8801 65.9596 30.8801 64.8076C30.8801 62.8876 31.6481 61.0636 32.9921 59.9116C34.1441 58.9516 35.6801 58.3756 37.4081 58.3756C38.7521 58.3756 39.6161 58.6636 40.0001 58.8556L39.4241 60.3916C38.9441 60.1036 38.1761 59.9116 37.2161 59.9116C36.0641 59.9116 35.1041 60.2956 34.3361 60.9676C33.3761 61.8316 32.8001 63.1756 32.8001 64.6156C32.8001 66.5356 33.8561 67.6876 35.7761 67.6876C36.3521 67.6876 36.8321 67.5916 37.1201 67.4956L37.6001 64.8076H35.7761L36.0641 63.2716H39.6161L38.6561 68.6476Z" fill="#F8B009"/>
<path fill-rule="evenodd" clip-rule="evenodd" d="M80.7999 61.3518L80.8959 65.0958V67.3998C81.0879 66.7278 81.4719 65.9598 81.7599 65.1918L83.5839 61.3518H85.1199L85.4079 65.0958C85.5039 65.9598 85.5039 66.7278 85.5039 67.3998C85.6959 66.6318 85.9839 65.9598 86.2719 65.0958L87.9039 61.3518H89.7279L86.0799 69.1278H84.4479L84.0639 65.7678C83.9679 64.9998 83.9679 64.3278 83.9679 63.4638C83.5839 64.4238 83.3919 64.9998 83.1039 65.6718L81.3759 69.1278H79.7439L79.0719 61.3518H80.7999ZM72.16 66.0557C72.16 67.1117 72.736 67.8797 73.6 67.8797C74.944 67.8797 75.808 65.9597 75.808 64.4237C75.808 63.6557 75.424 62.5997 74.368 62.5997C73.0239 62.5997 72.16 64.6157 72.16 66.0557ZM77.7279 64.4238C77.7279 67.0158 75.9039 69.3198 73.4079 69.3198C71.4879 69.3198 70.3359 67.9758 70.3359 66.1518C70.3359 63.5598 72.0639 61.2558 74.6559 61.2558C76.6719 61.2558 77.7279 62.6958 77.7279 64.4238ZM66.2079 69.1278L68.3199 57.8958H70.1439L68.0319 69.1278H66.2079ZM62.2719 69.1278L64.3839 57.8958H66.2079L64.0959 69.1278H62.2719ZM59.9679 63.3677C59.9679 62.8877 59.5839 62.5997 59.0079 62.5997C57.8559 62.5997 57.1839 63.6557 56.8959 64.6157C58.8159 64.6157 59.9679 64.3277 59.9679 63.3677ZM60.7359 68.6477C59.9679 69.0317 59.0079 69.2237 58.0479 69.2237C55.9359 69.2237 54.9759 67.8797 54.9759 66.0557C54.9759 63.7517 56.6079 61.1597 59.1999 61.1597C60.6399 61.1597 61.5999 62.0237 61.5999 63.3677C61.5999 65.3837 59.5839 65.9597 56.7039 65.9597C56.7039 66.2477 56.7039 66.7277 56.8959 67.0157C57.1839 67.4957 57.7599 67.7837 58.4319 67.7837C59.2959 67.7837 59.9679 67.5917 60.4479 67.3037L60.7359 68.6477ZM49.6959 69.1278L50.5599 64.7118L48.5439 58.3758H50.4639L51.3279 61.4478C51.5199 62.4078 51.7119 62.8878 51.7119 63.3678C51.9999 62.8878 52.2879 62.2158 52.7679 61.4478L54.5919 58.4718H56.7039L52.2879 64.7118L51.4239 69.1278H49.6959Z" fill="#F8B009"/>
<path fill-rule="evenodd" clip-rule="evenodd" d="M97.3122 66.3439C97.3122 66.1519 97.1202 65.9599 96.8322 65.9599C96.3521 65.9599 95.9682 66.4399 95.8722 66.8239C96.8322 66.9199 97.3122 66.8239 97.3122 66.3439ZM97.6952 68.84C97.3122 69.032 96.8322 69.128 96.4482 69.128C95.4882 69.128 95.0082 68.552 95.0082 67.688C95.0082 66.632 95.7752 65.48 97.0242 65.48C97.6952 65.48 98.1752 65.864 98.1752 66.44C98.1752 67.4 97.2152 67.688 95.8722 67.592C95.8722 67.688 95.8722 67.976 95.9682 68.072C96.0642 68.36 96.3522 68.456 96.7352 68.456C97.1202 68.456 97.4082 68.36 97.6952 68.264V68.84ZM93.6642 66.1519C93.5682 66.0559 93.3752 66.0559 93.1842 66.0559C92.4152 66.0559 91.9352 66.8239 91.9352 67.6879C91.9352 68.0719 92.1282 68.4559 92.5122 68.4559C92.8952 68.4559 93.3752 68.0719 93.4722 67.3039L93.6642 66.1519ZM95.0082 63.848L94.2402 67.784C94.1442 68.168 94.1442 68.648 94.0482 69.032H93.2802L93.3752 68.36C93.0882 68.84 92.6082 69.032 92.1282 69.032C91.4552 69.032 91.0722 68.552 91.0722 67.688C91.0722 66.44 91.9352 65.288 93.2802 65.288C93.4722 65.288 93.6642 65.288 93.8552 65.384L94.1442 63.752H95.0082V63.848ZM89.0552 69.1279C88.7682 69.1279 88.5752 68.9359 88.5752 68.6479C88.5752 68.2639 88.8642 67.9759 89.1522 67.9759C89.4402 67.9759 89.6322 68.1679 89.6322 68.5519C89.6322 68.8399 89.3442 69.1279 89.0552 69.1279Z" fill="#F8B009"/>
</svg>
