<svg width="128" height="128" viewBox="0 0 128 128" fill="none" xmlns="http://www.w3.org/2000/svg">
<rect width="128" height="128" fill="white"/>
<path fill-rule="evenodd" clip-rule="evenodd" d="M52.1092 67.8638H50.2795V62.5757C50.2795 61.9191 50.1557 61.429 49.9071 61.1063C49.6585 60.7825 49.2708 60.6212 48.7441 60.6212C48.0409 60.6212 47.5254 60.8505 47.1966 61.3082C46.8688 61.7649 46.7044 62.526 46.7044 63.5915V67.8638H44.8828V59.2877H46.3086L46.5654 60.4121H46.6577C46.8962 60.0042 47.2412 59.6886 47.6928 59.4663C48.1454 59.2441 48.6427 59.1325 49.1856 59.1325C50.5038 59.1325 51.3776 59.582 51.8068 60.4822H51.9306C52.1843 60.058 52.5405 59.7271 53.0002 59.4897C53.4609 59.2522 53.9876 59.1325 54.5823 59.1325C55.6062 59.1325 56.3521 59.3912 56.8199 59.9078C57.2878 60.4253 57.5212 61.2138 57.5212 62.2733V67.8638H55.6996V62.5757C55.6996 61.9191 55.5738 61.429 55.3231 61.1063C55.0714 60.7825 54.6838 60.6212 54.1561 60.6212C53.4478 60.6212 52.9302 60.8424 52.6014 61.2849C52.2726 61.7263 52.1092 62.4052 52.1092 63.3195V67.8638Z" fill="#E9712C"/>
<path fill-rule="evenodd" clip-rule="evenodd" d="M61.9704 66.6231C62.632 66.6231 63.1628 66.4374 63.5636 66.068C63.9645 65.6986 64.1644 65.1811 64.1644 64.5144V63.7695L63.0633 63.8162C62.2048 63.8476 61.5817 63.9907 61.191 64.2465C60.8013 64.5022 60.6055 64.8939 60.6055 65.4206C60.6055 65.8032 60.7191 66.0995 60.9464 66.3085C61.1738 66.5176 61.5157 66.6231 61.9704 66.6231ZM64.684 67.8643L64.3196 66.6698H64.2577C63.8437 67.1925 63.4286 67.5466 63.0095 67.7354C62.5904 67.9241 62.0536 68.0185 61.397 68.0185C60.5537 68.0185 59.8961 67.7912 59.4232 67.3366C58.9503 66.8819 58.7139 66.2375 58.7139 65.4064C58.7139 64.5215 59.0417 63.8548 59.6982 63.4052C60.3548 62.9557 61.3554 62.7101 62.699 62.6685L64.1796 62.6218V62.1641C64.1796 61.6161 64.0517 61.2072 63.796 60.9362C63.5403 60.6642 63.1435 60.5283 62.6056 60.5283C62.1662 60.5283 61.7451 60.5932 61.3422 60.7221C60.9393 60.852 60.5517 61.0042 60.1793 61.1798L59.5897 59.8778C60.0554 59.6342 60.5639 59.4495 61.1179 59.3227C61.671 59.1958 62.1926 59.1329 62.6838 59.1329C63.7747 59.1329 64.5977 59.3704 65.1538 59.8463C65.7089 60.3222 65.987 61.0681 65.987 62.087V67.8643H64.684Z" fill="#E9712C"/>
<path fill-rule="evenodd" clip-rule="evenodd" d="M67.7162 58.608H70.4846V56.5328H67.7162V58.608ZM68.2002 67.8641H70.0228V59.288H68.2002V67.8641Z" fill="#E9712C"/>
<path fill-rule="evenodd" clip-rule="evenodd" d="M77.8256 65.421C77.8256 66.2582 77.5202 66.9006 76.9113 67.3471C76.3014 67.7946 75.4277 68.0189 74.2901 68.0189C73.1484 68.0189 72.23 67.8464 71.5379 67.4993V65.9254C72.5456 66.3902 73.4843 66.6236 74.352 66.6236C75.4743 66.6236 76.0345 66.2846 76.0345 65.6077C76.0345 65.3906 75.9726 65.2099 75.8488 65.0638C75.725 64.9197 75.521 64.7695 75.2359 64.6153C74.9517 64.46 74.556 64.2834 74.0496 64.0876C73.0622 63.705 72.3944 63.3224 72.0453 62.9398C71.6962 62.5572 71.5217 62.061 71.5217 61.4511C71.5217 60.7174 71.818 60.1471 72.4096 59.7412C73.0013 59.3352 73.807 59.1323 74.8249 59.1323C75.8326 59.1323 76.7875 59.3373 77.6856 59.7452L77.097 61.1183C76.1715 60.7357 75.3942 60.5439 74.763 60.5439C73.8009 60.5439 73.3209 60.8179 73.3209 61.3659C73.3209 61.6348 73.4468 61.8621 73.6974 62.0488C73.9481 62.2345 74.494 62.4903 75.3374 62.816C76.0447 63.09 76.5592 63.3407 76.8799 63.568C77.2005 63.7953 77.438 64.0581 77.5933 64.3545C77.7485 64.6528 77.8256 65.008 77.8256 65.421Z" fill="#E9712C"/>
<path fill-rule="evenodd" clip-rule="evenodd" d="M18.4112 62.0634C18.4112 62.6012 18.5492 63.0143 18.8262 63.3045C19.1023 63.5937 19.499 63.7388 20.0166 63.7388C21.071 63.7388 21.5987 63.1756 21.5987 62.0482C21.5987 61.49 21.4678 61.0598 21.2059 60.7573C20.9451 60.4549 20.5484 60.3037 20.0166 60.3037C19.4889 60.3037 19.0891 60.4539 18.8181 60.7533C18.5472 61.0527 18.4112 61.49 18.4112 62.0634ZM17.6277 69.1965C17.6277 69.5902 17.8053 69.8926 18.1585 70.1047C18.5137 70.3168 19.0109 70.4213 19.6523 70.4213C20.6448 70.4213 21.3835 70.2803 21.8696 69.9951C22.3557 69.712 22.5983 69.3345 22.5983 68.8636C22.5983 68.4912 22.4653 68.2263 22.1984 68.069C21.9325 67.9117 21.4373 67.8326 20.7138 67.8326H19.3336C18.812 67.8326 18.397 67.9554 18.0895 68.2009C17.782 68.4465 17.6277 68.7784 17.6277 69.1965ZM24.366 59.2879V60.2875L22.9007 60.5595C23.0356 60.7401 23.1462 60.9634 23.2335 61.2262C23.3218 61.4901 23.3654 61.7691 23.3654 62.0634C23.3654 62.9483 23.061 63.6435 22.4511 64.1499C21.8412 64.6562 21.001 64.9089 19.9313 64.9089C19.6574 64.9089 19.4087 64.8886 19.1865 64.847C18.7938 65.0906 18.5979 65.3747 18.5979 65.7005C18.5979 65.8963 18.6892 66.0445 18.8729 66.1429C19.0566 66.2404 19.3935 66.2891 19.8847 66.2891H21.3805C22.3263 66.2891 23.0448 66.491 23.5359 66.8949C24.0281 67.2978 24.2727 67.8782 24.2727 68.6383C24.2727 69.6105 23.8728 70.3605 23.0712 70.8871C22.2695 71.4148 21.1126 71.6787 19.5975 71.6787C18.4294 71.6787 17.5374 71.4717 16.9225 71.0576C16.3075 70.6446 16 70.055 16 69.2898C16 68.7632 16.1664 68.3197 16.5003 67.9615C16.8332 67.6012 17.3 67.3516 17.8997 67.2115C17.6562 67.109 17.4562 66.9426 17.2989 66.7122C17.1406 66.4819 17.0615 66.2404 17.0615 65.9867C17.0615 65.667 17.1518 65.395 17.3335 65.1728C17.5141 64.9505 17.783 64.7303 18.1392 64.5142C17.6947 64.3234 17.3345 64.0108 17.0584 63.5795C16.7814 63.1482 16.6434 62.6429 16.6434 62.0634C16.6434 61.1328 16.9367 60.4123 17.5232 59.8999C18.1098 59.3884 18.946 59.1327 20.0318 59.1327C20.2744 59.1327 20.5291 59.1489 20.796 59.1834C21.0618 59.2169 21.2618 59.2514 21.3967 59.2879H24.366Z" fill="#F3B41F"/>
<path fill-rule="evenodd" clip-rule="evenodd" d="M31.4054 67.8639L31.1609 66.7395H31.0726C30.831 67.1373 30.486 67.4498 30.0395 67.6771C29.593 67.9045 29.0846 68.0181 28.5122 68.0181C27.5208 68.0181 26.781 67.7593 26.2918 67.2438C25.8037 66.7263 25.5602 65.9428 25.5602 64.8935V59.2878H27.3137V64.5759C27.3137 65.2325 27.4416 65.7257 27.6983 66.0535C27.9551 66.3812 28.357 66.5456 28.9039 66.5456C29.6346 66.5456 30.1704 66.3173 30.5134 65.8586C30.8564 65.4009 31.0279 64.6348 31.0279 63.5601V59.2878H32.7744V67.8639H31.4054Z" fill="#F3B41F"/>
<path fill-rule="evenodd" clip-rule="evenodd" d="M33.9212 67.8641H35.7428V59.288H33.9212V67.8641ZM33.8116 57.0158C33.8116 56.6901 33.9009 56.4394 34.0795 56.2638C34.2571 56.0883 34.5118 56 34.8437 56C35.1633 56 35.413 56.0883 35.5906 56.2638C35.7692 56.4394 35.8585 56.6901 35.8585 57.0158C35.8585 57.3263 35.7692 57.5699 35.5906 57.7485C35.413 57.9271 35.1633 58.0164 34.8437 58.0164C34.5118 58.0164 34.2571 57.9271 34.0795 57.7485C33.9009 57.5699 33.8116 57.3263 33.8116 57.0158Z" fill="#F3B41F"/>
<path fill-rule="evenodd" clip-rule="evenodd" d="M39.8281 66.6231C40.4897 66.6231 41.0215 66.4374 41.4223 66.068C41.8222 65.6987 42.0231 65.1811 42.0231 64.5144V63.7695L40.922 63.8162C40.0635 63.8477 39.4394 63.9907 39.0487 64.2465C38.659 64.5022 38.4632 64.8939 38.4632 65.4206C38.4632 65.8032 38.5778 66.0995 38.8052 66.3085C39.0325 66.5176 39.3735 66.6231 39.8281 66.6231ZM42.5427 67.8643L42.1774 66.6699H42.1155C41.7024 67.1925 41.2864 67.5467 40.8672 67.7354C40.4481 67.9242 39.9113 68.0185 39.2547 68.0185C38.4114 68.0185 37.7548 67.7912 37.2809 67.3366C36.808 66.882 36.5716 66.2376 36.5716 65.4064C36.5716 64.5215 36.9004 63.8548 37.557 63.4052C38.2135 62.9557 39.2131 62.7101 40.5577 62.6685L42.0383 62.6218V62.1641C42.0383 61.6161 41.9105 61.2072 41.6547 60.9362C41.399 60.6643 41.0012 60.5283 40.4644 60.5283C40.025 60.5283 39.6038 60.5932 39.2009 60.7221C38.7971 60.852 38.4094 61.0042 38.037 61.1798L37.4484 59.8778C37.9132 59.6342 38.4226 59.4495 38.9757 59.3227C39.5287 59.1958 40.0503 59.1329 40.5415 59.1329C41.6324 59.1329 42.4554 59.3704 43.0115 59.8463C43.5676 60.3223 43.8447 61.0681 43.8447 62.087V67.8643H42.5427Z" fill="#F3B41F"/>
<path fill-rule="evenodd" clip-rule="evenodd" d="M86.9223 68.0185C85.6254 68.0185 84.639 67.64 83.9641 66.883C83.2893 66.1259 82.9524 65.0391 82.9524 63.6224C82.9524 62.1804 83.3055 61.0712 84.0108 60.2959C84.7161 59.5206 85.736 59.1329 87.0704 59.1329C87.9746 59.1329 88.7885 59.3014 89.5131 59.6373L88.962 61.1027C88.1918 60.8033 87.5555 60.6531 87.0542 60.6531C85.5706 60.6531 84.8287 61.6375 84.8287 63.6072C84.8287 64.5682 85.0134 65.2907 85.3828 65.7738C85.7532 66.2579 86.2941 66.4994 87.0075 66.4994C87.8194 66.4994 88.5876 66.2974 89.3111 65.8935V67.4837C88.9844 67.6745 88.6373 67.8125 88.2679 67.8947C87.8985 67.9769 87.45 68.0185 86.9223 68.0185Z" fill="#F3B41F"/>
<path fill-rule="evenodd" clip-rule="evenodd" d="M92.4264 63.5603C92.4264 65.5402 93.158 66.5297 94.6214 66.5297C96.0685 66.5297 96.792 65.5402 96.792 63.5603C96.792 61.6008 96.0634 60.6215 94.6051 60.6215C93.841 60.6215 93.2859 60.8752 92.9429 61.3816C92.5989 61.888 92.4264 62.6146 92.4264 63.5603ZM98.6674 63.5604C98.6674 64.9608 98.3092 66.0548 97.5907 66.8402C96.8722 67.6257 95.8726 68.0184 94.5899 68.0184C93.7892 68.0184 93.0809 67.8378 92.4659 67.4765C91.851 67.1142 91.3771 66.5946 91.0472 65.9178C90.7154 65.2399 90.55 64.4544 90.55 63.5604C90.55 62.1691 90.9072 61.0843 91.6206 60.3039C92.333 59.5225 93.3387 59.1328 94.6366 59.1328C95.8767 59.1328 96.859 59.5316 97.5826 60.3303C98.3061 61.1289 98.6674 62.2056 98.6674 63.5604Z" fill="#F3B41F"/>
<path fill-rule="evenodd" clip-rule="evenodd" d="M106.588 67.8639H104.758V62.5757C104.758 61.9191 104.634 61.429 104.386 61.1063C104.138 60.7826 103.75 60.6212 103.223 60.6212C102.52 60.6212 102.004 60.8506 101.675 61.3082C101.348 61.7649 101.184 62.526 101.184 63.5915V67.8639H99.3616V59.2878H100.787L101.044 60.4122H101.138C101.375 60.0042 101.72 59.6886 102.172 59.4664C102.625 59.2441 103.122 59.1325 103.664 59.1325C104.983 59.1325 105.856 59.582 106.286 60.4822H106.409C106.663 60.058 107.019 59.7272 107.48 59.4897C107.94 59.2522 108.467 59.1325 109.062 59.1325C110.085 59.1325 110.831 59.3913 111.299 59.9078C111.767 60.4253 112 61.2139 112 62.2733V67.8639H110.178V62.5757C110.178 61.9191 110.053 61.429 109.802 61.1063C109.551 60.7826 109.162 60.6212 108.636 60.6212C107.927 60.6212 107.409 60.8424 107.08 61.2849C106.751 61.7263 106.588 62.4052 106.588 63.3196V67.8639Z" fill="#F3B41F"/>
<path fill-rule="evenodd" clip-rule="evenodd" d="M79.8259 68.2953H81.9011V66.2201H79.8259V68.2953Z" fill="#F3B41F"/>
</svg>
