<svg width="128" height="128" viewBox="0 0 128 128" fill="none" xmlns="http://www.w3.org/2000/svg">
<rect width="128" height="128" fill="white"/>
<path d="M100.166 72.8163C99.1796 73.4083 98.5402 74.5782 97.3042 74.4385C96.0057 74.2921 95.5935 73.278 95.5746 71.8256C94.8379 72.6663 94.2979 73.3204 93.718 73.9365C92.9617 74.7414 92.1445 75.5324 90.9135 75.1387C89.6325 74.7297 88.8929 73.7448 88.5735 72.4695C88.1736 70.8729 88.633 69.3356 88.9967 67.7976C89.0692 67.4793 89.3066 67.1873 89.1854 66.8266C87.8434 67.1193 87.6075 67.431 87.8064 68.612C88.1547 70.6454 86.5217 73.9673 84.7152 74.8995C83.4429 75.558 82.455 75.3326 81.7198 74.1019C81.3569 73.4895 81.1319 73.5041 80.6435 73.9643C79.8785 74.6858 79.0387 75.3312 78.0059 75.6473C76.8446 75.9992 75.8641 75.6729 75.1535 74.6851C74.5864 73.9035 74.2161 72.9948 74.0742 72.037C73.2243 66.2566 73.8021 60.6701 76.4295 55.3821C76.8388 54.5406 77.4482 53.8141 78.2033 53.2675C79.234 52.5262 80.2689 52.8328 80.7356 54.0167C81.0622 54.8443 81.1159 55.7208 80.9976 56.5843C80.417 60.8245 79.2761 64.8971 77.246 68.6844C76.9557 69.2273 76.5841 69.7307 76.2219 70.2319C76.0129 70.521 75.9033 70.7939 75.9366 71.17C76.1914 74.0317 77.1596 74.4963 79.5105 72.8609C80.6565 72.0641 81.5369 71.1107 81.8628 69.6605C82.127 68.4824 82.6757 67.3842 83.4051 66.4029C83.7971 65.8747 84.2311 65.4773 84.7761 66.2427C85.0287 66.5961 85.306 66.4666 85.5861 66.3115C87.6518 65.1722 89.9925 64.7134 92.0908 63.6415C92.8383 63.2596 93.6643 63.3181 94.2914 64.0374C94.872 64.7003 95.1413 66.2325 94.7769 66.8529C94.4931 67.3373 94.1361 67.2964 93.8225 66.8983C93.6977 66.741 93.6774 66.4981 93.6193 66.2917C93.5242 65.953 93.755 65.4137 93.3195 65.3061C92.8303 65.1817 92.5937 65.7042 92.3666 66.0517C91.3265 67.6681 90.6246 69.4022 90.6747 71.3712C90.6914 71.9763 90.8017 72.6034 91.3947 72.8851C91.9587 73.1529 92.3578 72.6502 92.797 72.3802C93.7652 71.7861 94.3465 70.6849 95.5078 70.3227C95.6631 70.2744 95.7255 69.8383 95.7814 69.5712C96.0187 68.383 96.3982 67.2282 96.9115 66.1322C97.3542 65.2 98.0728 64.5225 98.9365 64.0191C100.025 63.3818 101.134 63.7798 101.559 64.9703C101.743 65.4869 101.964 65.8769 102.452 66.1893C103.105 66.6093 102.946 67.3344 102.839 67.9768C102.631 69.2295 102.382 70.4756 102.179 71.7297C102.115 72.1248 102.137 72.5346 102.133 72.9378C102.127 73.57 102.417 73.7902 102.905 73.3439C103.927 72.4095 104.858 71.5146 104.75 69.8419C104.46 65.3683 105.025 60.984 106.782 56.8177C107.315 55.5555 107.989 54.3606 109.119 53.525C110.217 52.7106 111.285 53.0538 111.745 54.3533C112.2 55.636 111.984 56.9413 111.757 58.2181C111.112 61.8371 110.064 65.3339 108.389 68.6193C108.127 69.1116 107.832 69.5852 107.505 70.0366C106.785 71.061 106.82 72.5785 107.583 73.6168C107.975 74.1502 108.434 74.129 108.974 73.9095C110.418 73.3197 111.545 72.3341 112.493 71.1173C112.626 70.9461 112.741 70.7602 112.881 70.5956C113.093 70.3439 113.351 70.1529 113.679 70.3702C114.007 70.5875 114.091 70.9461 113.897 71.2695C113.537 71.8837 113.137 72.4728 112.698 73.0329C111.961 73.9511 111.077 74.7388 110.082 75.3634C108.225 76.5341 106.605 76.0746 105.654 74.1136C105.099 72.9634 105.093 72.959 104.28 74.0024C103.839 74.5687 103.391 75.116 102.693 75.3846C101.611 75.8024 100.979 75.5375 100.588 74.4436C100.416 73.9512 100.323 73.4295 100.166 72.8163ZM75.83 68.1978C77.447 64.393 78.633 60.4806 78.8057 56.3113C76.7263 59.9918 75.8358 63.9803 75.83 68.1978ZM106.917 68.1715C108.368 64.4039 109.675 60.6064 109.768 56.5155C107.837 60.1586 106.666 63.9913 106.917 68.1715ZM97.6751 70.3044C97.7752 70.6812 97.4638 71.2556 97.8971 71.3866C98.26 71.4934 98.4872 70.9344 98.7216 70.619C98.8242 70.4649 98.9129 70.3018 98.9866 70.1317C99.5062 69.081 99.9889 68.0098 100.556 66.9854C100.858 66.4373 100.739 66.0093 100.344 65.6683C99.8532 65.2461 99.4852 65.6317 99.1912 66.0056C98.1991 67.2634 97.8159 68.7429 97.6751 70.3044ZM83.4501 71.3171C83.4501 71.5644 83.4363 71.7502 83.4501 71.9331C83.4719 72.1651 83.3587 72.4848 83.6446 72.5866C83.9139 72.6831 84.099 72.4212 84.2253 72.2288C84.5414 71.777 84.8247 71.3029 85.073 70.81C85.7262 69.4461 85.6928 69.471 84.4198 68.7663C83.9974 68.5322 83.8994 68.6434 83.7992 69.0144C83.6059 69.7681 83.4889 70.5396 83.4501 71.3171Z" fill="#F69034"/>
<path d="M47.4891 51.6204C47.2358 54.578 46.4185 57.5875 45.4162 60.5545C45.242 61.0667 44.9625 61.0667 44.604 60.717C42.4992 58.6682 40.4474 56.5587 38.9791 53.9802C38.0442 52.3382 37.6218 50.569 38.4224 48.7332C39.813 45.5415 44.1852 45.0344 46.2842 47.7995C47.0289 48.7807 47.5007 50.2053 47.4891 51.6204ZM44.1177 51.2246C44.1301 50.5258 43.5516 49.9346 42.8323 49.9075C42.1007 49.8827 41.4323 50.5192 41.4475 51.2246C41.462 51.8985 42.0942 52.497 42.7888 52.4941C43.5088 52.4941 44.1068 51.9226 44.1177 51.2246Z" fill="#F69034"/>
<path d="M15 76.9931C15.353 75.9324 15.9731 75.1039 17.0794 74.6997C17.5722 74.5205 17.4681 74.2998 17.1952 73.9666C16.2155 72.7747 16.2694 72.076 17.4747 71.016C17.9114 70.634 17.9427 70.5014 17.4499 70.1073C16.1209 69.0459 15.8006 67.5831 16.1078 65.9936C16.3887 64.5394 17.2723 63.5275 18.7135 63.0509C19.8052 62.6926 20.9297 62.5048 22.0899 62.7047C23.7458 62.9914 25.4191 62.9197 27.088 62.9111C27.6033 62.9111 27.9141 63.033 27.944 63.5956C27.9716 64.1216 28.0844 64.6598 27.3449 64.8139C27.0727 64.8712 26.8049 64.9465 26.5356 65.0153C26.2 65.102 26.136 65.2891 26.1979 65.6288C26.8304 69.1039 25.256 71.0698 21.6467 71.3235C21.2143 71.3448 20.781 71.3379 20.3496 71.3027C19.9071 71.2747 19.6276 71.4582 19.5308 71.8703C19.4216 72.3368 19.7215 72.5153 20.1196 72.635C20.6029 72.7783 21.095 72.774 21.5906 72.7883C22.67 72.8192 23.753 72.7074 24.8288 72.9231C26.2517 73.2097 27.2991 73.9056 27.6288 75.3598C27.9927 76.968 27.6172 78.387 26.2743 79.4448C25.1825 80.3048 23.8673 80.6632 22.4968 80.8273C22.1612 80.8681 21.8126 80.8273 21.5018 81H20.0156C19.7346 80.8452 19.4216 80.8696 19.1167 80.8359C17.1027 80.6194 15.4804 79.8949 15 77.7226V76.9931ZM21.4174 75.569C20.6371 75.5461 19.8933 75.5411 19.1866 75.812C18.5541 76.0549 18.1763 76.4878 18.1807 77.1873C18.185 77.8868 18.6079 78.2508 19.2215 78.4099C20.6277 78.7747 22.0339 78.764 23.3964 78.2186C23.7092 78.0901 23.9911 77.8985 24.224 77.656C24.9227 76.9228 24.6607 76.037 23.6781 75.7726C22.9405 75.5859 22.1772 75.5172 21.4174 75.569ZM19.4522 66.9439C19.4413 68.2045 19.9057 68.9305 20.8351 69.1046C21.98 69.3196 22.8731 68.6746 23.0718 67.4864C23.3134 66.0581 22.6904 64.978 21.5309 64.8175C20.2521 64.639 19.4646 65.4446 19.4522 66.9439Z" fill="#53C39F"/>
<path d="M56.6326 63.9452C56.3844 62.3779 56.4208 60.8055 56.4303 59.2338C56.4368 58.0542 56.4922 57.9796 57.6851 58.0033C60.2988 58.0535 59.9661 57.66 59.9756 60.2128C59.9938 64.9206 59.9756 69.6277 60.0011 74.3356C60.0047 75.1239 59.8293 75.5095 58.8999 75.4307C57.993 75.3533 57.129 75.4672 56.7767 74.3155C56.6042 73.7515 56.2352 74.2051 56.0212 74.4187C54.9586 75.4801 53.6696 75.8055 52.2008 75.6055C50.7735 75.4106 49.6861 74.6803 49.0711 73.4333C47.6692 70.5845 47.5783 67.6669 49.1286 64.8619C50.5042 62.3728 53.7547 61.8877 55.9805 63.7008C56.1173 63.8126 56.2607 63.9158 56.4012 64.0233L56.6326 63.9452ZM51.62 69.2228C51.6418 70.1724 51.7655 71.0969 52.2838 71.9297C52.866 72.8714 53.7962 72.8671 54.7431 72.7861C55.6166 72.7145 56.1472 72.2214 56.3924 71.413C56.8088 70.0427 56.7935 68.6538 56.4718 67.2799C56.1959 66.101 55.4237 65.5506 54.2082 65.519C53.0604 65.4932 52.3274 66.015 51.9519 67.1638C51.7294 67.828 51.6178 68.5234 51.6214 69.2228H51.62Z" fill="#53C39F"/>
<path d="M41.0028 69.1963C41.0028 70.9579 40.9883 72.7188 41.0101 74.4797C41.0188 75.1963 40.8172 75.5948 39.9875 75.4214C39.6898 75.359 39.3703 75.3769 39.0617 75.3898C38.5318 75.4128 38.1569 75.2465 38.0427 74.6925C37.9029 74.0239 37.7115 73.8927 37.1154 74.4367C34.9937 76.3717 31.1966 76.0134 29.845 73.7866C29.3056 72.8994 29.1579 71.8961 29.1419 70.8934C29.1055 68.5865 29.1477 66.278 29.1164 63.9704C29.1055 63.1942 29.3762 62.8875 30.1929 62.9068C33.0955 62.9735 32.6515 62.565 32.6792 65.2969C32.6952 66.8449 32.6748 68.3944 32.6887 69.9424C32.6931 70.3363 32.7323 70.7291 32.8058 71.1163C32.9638 71.9677 33.2666 72.7002 34.3219 72.7976C35.6721 72.9223 36.5739 72.5167 37.0048 71.4904C37.3512 70.667 37.4415 69.784 37.4466 68.9011C37.4619 67.2312 37.4771 65.5599 37.4429 63.8908C37.4284 63.1899 37.6737 62.8774 38.403 62.9161C38.9584 62.9407 39.5147 62.9374 40.0697 62.9061C40.8158 62.8695 41.0225 63.2429 41.0159 63.913C40.9839 65.6739 41.0028 67.4355 41.0028 69.1963Z" fill="#53C39F"/>
<path d="M68.8604 70.0829C67.7781 70.0829 66.6951 70.0965 65.6135 70.0786C64.9301 70.0672 64.7365 70.3581 64.8988 70.9874C65.0311 71.5232 65.3321 72.0041 65.7589 72.3612C66.1856 72.7182 66.7161 72.9333 67.2745 72.9754C68.6829 73.0951 70.0599 72.936 71.37 72.4128C72.0331 72.1477 72.234 72.2953 72.2435 72.9962C72.2697 74.8646 72.1991 75.0122 70.3052 75.4107C68.8772 75.7117 67.4375 75.797 65.9811 75.5132C63.4962 75.0294 61.7764 73.3811 61.3316 70.9179C61.1254 69.7789 61.123 68.6133 61.3244 67.4735C61.887 64.3202 64.3813 62.4145 67.5889 62.613C70.8577 62.8159 72.734 64.7358 72.9531 68.1028C73.0819 70.0657 73.0819 70.0657 71.084 70.0657H68.8604V70.0829ZM67.1631 67.6878V67.6814C67.7512 67.6814 68.3386 67.6814 68.9267 67.6814C69.4667 67.6814 69.6218 67.4205 69.5053 66.9131C69.271 65.8961 68.4136 65.2017 67.2992 65.1701C66.158 65.1372 65.329 65.7435 65.0211 66.797C64.8464 67.3947 64.9403 67.7416 65.6761 67.695C66.1674 67.6627 66.6645 67.6878 67.1595 67.6878H67.1631Z" fill="#53C39F"/>
<path d="M46.426 69.2773C46.426 71.0396 46.4115 72.8019 46.4333 74.5635C46.4413 75.2085 46.2732 75.526 45.5279 75.4235C44.9194 75.3411 44.2906 75.3784 43.6733 75.387C43.1311 75.3934 42.8727 75.1548 42.8727 74.623C42.8756 70.9775 42.8756 67.3318 42.8727 63.6858C42.8727 63.1677 43.0962 62.9505 43.6471 62.8975C46.4129 62.6316 46.4129 62.6173 46.4173 65.3557C46.4173 66.6619 46.4173 67.9684 46.4173 69.2752L46.426 69.2773Z" fill="#53C39F"/>
</svg>
