<svg width="129" height="129" viewBox="0 0 129 129" fill="none" xmlns="http://www.w3.org/2000/svg">
<rect width="128" height="128" transform="translate(0.333008 0.111328)" fill="#FFE001"/>
<path d="M47.7358 41.5362V49.7577C38.9966 49.8962 33.1143 57.4222 33.5779 65.0415C33.9963 71.9354 39.5987 77.8027 46.5166 78.3596C54.4039 78.9948 59.9611 73.4978 61.3309 68.1994C61.0148 68.1994 60.7288 68.1994 60.4398 68.1994C55.304 68.1994 50.1683 68.1874 45.0325 68.2145C44.3281 68.2175 44.0722 68.0459 44.0872 67.2993C44.1324 65.1198 44.1203 62.9403 44.0933 60.7607C44.0872 60.1707 44.2769 59.984 44.8699 59.984C53.0853 59.9991 61.3038 59.9961 69.5192 59.9931C69.9165 59.9931 70.2537 59.984 70.2627 60.556C70.3199 64.2709 70.2116 67.9436 68.9954 71.535C66.2408 79.6631 58.4981 85.9157 49.9395 86.5027C41.4742 87.0837 34.7941 83.5525 30.2032 76.6015C25.0675 68.8407 24.929 60.5891 29.5891 52.5303C33.2588 46.1843 38.9786 42.623 46.2788 41.6777C46.7454 41.6175 47.212 41.5874 47.7358 41.5362Z" fill="#404040"/>
<path d="M100.924 41.5453C100.924 43.1257 100.936 44.5767 100.921 46.0247C100.906 47.3945 100.864 48.7642 100.831 50.137C99.4367 50.1791 98.0459 50.2453 96.6521 50.2574C93.8705 50.2815 91.0919 50.2333 88.3102 50.2965C86.1729 50.3447 84.4057 51.9011 83.9391 53.9843C83.3491 56.6304 85.3299 59.4391 88.0664 59.9057C89.8606 60.2098 91.706 60.3934 93.4159 60.9714C98.5035 62.6904 102.233 67.7448 102.438 72.9107C102.664 78.6064 99.0333 83.8746 93.5634 85.8013C91.9167 86.3823 90.2279 86.6713 88.4848 86.6713C85.0289 86.6683 81.5699 86.6532 78.114 86.6863C77.4156 86.6924 77.1537 86.5358 77.1687 85.7832C77.2169 83.5043 77.2079 81.2255 77.1717 78.9466C77.1627 78.2933 77.3463 78.0826 78.0146 78.0886C81.7205 78.1187 85.4293 78.1308 89.1351 78.0886C92.0311 78.0585 94.1264 75.7044 93.8163 72.8324C93.5845 70.689 92.1696 69.4216 90.255 68.7895C88.8672 68.3289 87.365 68.2235 85.941 67.8562C77.822 65.776 73.2763 57.3108 76.2656 50.0828C78.2585 45.2631 81.9763 42.5507 87.082 41.7018C87.8918 41.5663 88.7257 41.5543 89.5505 41.5513C93.0065 41.5362 96.4654 41.5453 99.9214 41.5453C100.216 41.5453 100.511 41.5453 100.924 41.5453Z" fill="#404040"/>
</svg>
