<svg width="128" height="128" viewBox="0 0 128 128" fill="none" xmlns="http://www.w3.org/2000/svg">
<rect width="128" height="128" fill="#393E47"/>
<path d="M46 89.906L35 100.906L24 89.906H46Z" fill="#65C1C2"/>
<path d="M62.1 64.906C59.8 62.206 59.9 60.706 61.3 59.306C63 57.606 64.8 58.306 66.8 60.206L62.1 64.906ZM85.7 34.906C87.4 33.206 89.2 33.906 91.2 35.806L86.5 40.506C84.1 37.806 84.2 36.406 85.7 34.906ZM99.9 39.706C97.8 42.906 94 48.106 90.1 44.206L100 34.306C99.1 33.406 98.5 32.606 97.9 32.106C92.6 26.806 86.6 26.706 81.9 31.406C78.8 34.506 77.9 38.106 78.8 41.506L75.7 38.006C74.9 38.406 71.1 41.806 73.9 46.806L70.4 43.906L65.7 48.606L72.1 55.006C67.2 51.106 61.9 51.506 57.7 55.706C53.2 60.206 53.5 65.706 56.9 70.206L56.2 69.506C51.7 65.006 46.8 66.606 44.4 69.006C42.5 70.906 41.4 73.406 41.9 75.206L32.2 65.506L27 70.706L46.2 89.906H56.5L49.6 83.006C46 79.306 45.9 77.406 47.7 75.606C49.4 73.906 51.4 75.006 54.9 78.406L61.7 85.206L66.8 80.106L60.3 73.606C65 77.106 70.6 77.306 75.6 72.306L75.7 72.206C78.8 69.406 79.7 66.606 79.7 66.606L75.8 64.006C73.7 67.206 70 72.406 66.1 68.506L76 58.606L82.2 64.806L87.6 59.406L79.9 51.706C76.3 48.106 78.4 44.706 79.9 43.406C80.6 44.906 81.6 46.306 82.9 47.606C87.9 52.606 94.3 53.606 100 48.006L100.1 47.906C103.2 45.106 104.1 42.306 104.1 42.306L99.9 39.706Z" fill="white"/>
</svg>
