<svg width="128" height="128" viewBox="0 0 128 128" fill="none" xmlns="http://www.w3.org/2000/svg">
<rect width="128" height="128" fill="#FFE178"/>
<path d="M98.4269 50H28.5731C21.0769 50 15 56.0442 15 63.5C15 70.9558 21.0769 77 28.5731 77H98.4269C105.923 77 112 70.9558 112 63.5C112 56.0442 105.923 50 98.4269 50Z" fill="#FEC501"/>
<path d="M89.965 63.4485C89.965 61.5465 89.9929 59.6406 89.965 57.7347C89.965 56.9422 90.1682 56.6054 91.0287 56.641C92.451 56.7005 93.8772 56.641 95.2995 56.6648C99.3352 56.7678 102.028 59.4702 102.104 63.4643C102.176 67.3555 99.5184 70.145 95.4907 70.3352C93.937 70.4065 92.3793 70.3352 90.8216 70.359C90.1563 70.359 89.965 70.0658 89.973 69.4595C89.981 67.4545 89.969 65.4535 89.965 63.4485ZM93.2159 59.5574C93.2159 61.7882 93.2159 63.8527 93.2159 65.8973C93.2159 67.4109 93.2159 67.3951 94.7417 67.3673C96.148 67.3396 97.5305 67.1692 98.2117 65.7824C98.602 65.0733 98.7979 64.2746 98.7797 63.4664C98.7615 62.6582 98.5299 61.869 98.1081 61.178C97.0006 59.3513 95.1282 59.5891 93.2159 59.5574Z" fill="black"/>
<path d="M70.1332 56.4508C74.0613 56.4746 76.8421 59.3711 76.8301 63.4247C76.8301 67.6486 74.0095 70.557 69.938 70.557C66.1294 70.557 63.3247 67.5337 63.3247 63.4484C63.3247 59.3632 66.1971 56.431 70.1332 56.4508ZM73.4318 63.4722C73.4318 63.179 73.4557 62.8818 73.4318 62.5886C73.3972 61.9125 73.1536 61.2635 72.7344 60.7302C72.3151 60.197 71.7406 59.8053 71.0893 59.6088C70.4367 59.4106 69.739 59.4131 69.0878 59.6161C68.4367 59.819 67.8623 60.2129 67.4401 60.7461C66.3923 62.1963 66.456 65.0572 67.5875 66.4044C67.9281 66.8004 68.3659 67.102 68.8583 67.2801C71.4439 68.1796 73.4876 66.4638 73.4318 63.4722Z" fill="black"/>
<path d="M61.8865 70.3471C60.775 70.3471 59.8946 70.4026 58.9982 70.3154C58.822 70.2694 58.6576 70.1871 58.5155 70.0738C58.3734 69.9604 58.2569 69.8187 58.1735 69.6577C57.6994 68.6908 57.309 67.6764 56.8947 66.6858C56.4325 65.5526 56.1537 65.4535 54.2693 65.7428C54.2693 66.8879 54.2255 68.0568 54.2693 69.2257C54.3131 70.0499 54.102 70.4145 53.1817 70.3709C50.8511 70.2798 51.0423 70.6958 51.0383 68.2708C51.0383 64.7878 51.0383 61.3088 51.0383 57.8258C51.0383 56.97 51.2256 56.5777 52.1937 56.6371C54.1378 56.7639 56.0979 56.6886 58.0341 56.8709C59.8348 57.0452 61.1575 58.0953 61.5479 59.8665C61.9383 61.6377 61.7391 63.3891 60.0021 64.5937C59.8972 64.726 59.826 64.8816 59.7948 65.0472C59.7636 65.2128 59.7732 65.3835 59.8228 65.5446C60.4403 67.086 61.1256 68.5997 61.8865 70.3471ZM54.3171 62.7511C55.2463 62.7995 56.1777 62.7903 57.1058 62.7234C57.9026 62.6204 58.301 62.0102 58.3249 61.186C58.3528 60.2944 57.8986 59.6961 57.07 59.5772C56.1528 59.5043 55.2316 59.4951 54.3131 59.5495L54.3171 62.7511Z" fill="black"/>
<path d="M33.0988 64.867C31.5571 64.867 30.2025 64.8908 28.848 64.867C28.2305 64.867 28.1429 65.1879 28.1429 65.6595C28.1429 66.9433 28.123 68.2232 28.1429 69.503C28.1429 70.1331 27.9078 70.3708 27.2624 70.3589C24.4139 70.3153 24.9518 70.6284 24.9279 68.0924C24.896 64.6134 24.9279 61.1304 24.904 57.6514C24.904 56.8589 25.147 56.6172 25.9278 56.6449C28.4536 56.7321 28.099 56.2487 28.1389 58.8322C28.1389 59.6564 28.0951 60.4806 28.1747 61.2929C28.2097 61.4424 28.2821 61.5808 28.3851 61.6951C28.4882 61.8094 28.6187 61.8959 28.7644 61.9467C30.1468 62.0061 31.5332 61.9744 33.0949 61.9744C33.0949 60.5717 33.1546 59.2364 33.0949 57.9129C33.0351 56.9104 33.3737 56.6014 34.3856 56.6331C36.3776 56.7044 36.3776 56.6331 36.3776 58.6539C36.3776 62.1646 36.3497 65.6793 36.3776 69.19C36.3776 70.0974 36.1067 70.3787 35.1824 70.3787C32.7921 70.3074 33.1267 70.6204 33.1028 68.3341C33.0909 67.2167 33.0988 66.1072 33.0988 64.867Z" fill="black"/>
<path d="M48.0664 56.6648V59.5098H42.6961C42.6305 59.6361 42.5784 59.7689 42.5407 59.9061C42.3813 62.0022 42.3813 62.0022 44.4808 62.0022C45.2099 62.0022 45.939 62.0022 46.668 62.0022C47.2297 62.0022 47.5245 62.1765 47.5166 62.7947C47.4807 65.2633 47.7476 64.7759 45.5685 64.8314C45.0386 64.8314 44.5047 64.8036 43.9749 64.8314C43.445 64.8591 42.7 64.8749 42.6363 65.077C42.4848 65.7207 42.4698 66.3887 42.5925 67.0384C42.5925 67.185 43.1064 67.3673 43.3893 67.3752C44.5486 67.4149 45.7079 67.3752 46.8672 67.399C47.2656 67.399 47.664 67.4545 47.9787 67.4822C48.0114 67.5407 48.0394 67.6016 48.0624 67.6645C48.3851 70.3629 48.3811 70.3629 45.672 70.3629C43.8514 70.3629 42.0268 70.3629 40.2061 70.3629C39.5289 70.3629 39.2619 70.137 39.2659 69.4476C39.2779 65.4535 39.254 61.491 39.3018 57.5286C39.3018 57.2393 39.6563 56.7163 39.8516 56.7123C42.5487 56.6489 45.2776 56.6648 48.0664 56.6648Z" fill="black"/>
<path d="M79.0292 63.5158C79.0292 61.5346 79.0531 59.5772 79.0292 57.6079C79.0292 56.8788 79.2922 56.645 80.0212 56.641C82.292 56.641 82.292 56.6014 82.292 58.86C82.292 61.3207 82.3319 63.7853 82.2681 66.246C82.2442 67.189 82.5829 67.4347 83.4633 67.3951C84.5868 67.3396 85.7142 67.3951 86.8417 67.3951C87.4193 67.3951 87.6703 67.6011 87.6663 68.1876C87.6384 70.7512 87.8655 70.3193 85.6106 70.3431C83.7581 70.3669 81.9016 70.3193 80.0332 70.3431C79.2364 70.3431 78.9934 70.0657 79.0093 69.3089C79.0571 67.3911 79.0292 65.4535 79.0292 63.5158Z" fill="black"/>
</svg>
