<svg width="128" height="129" viewBox="0 0 128 129" fill="none" xmlns="http://www.w3.org/2000/svg">
<rect width="128" height="128" transform="translate(0 0.69458)" fill="white"/>
<path d="M95.5381 25.5354C99.2105 25.5354 102.821 29.2078 102.881 32.8784L102.821 63.119C102.881 73.5985 99.474 84.3219 91.4617 92.3876C79.0899 104.848 59.9839 107.447 44.7782 98.7355C29.5706 90.0219 22.0158 72.1477 26.3148 55.064C30.6138 37.9784 45.7109 25.8932 63.1988 25.5354H95.5381Z" fill="#3365EB"/>
<path d="M45.8526 51.9914C44.9831 51.9594 44.1215 52.1674 43.3622 52.5925C42.603 53.0177 41.9754 53.6436 41.5483 54.4017H41.4878V46.5692H37.3027V67.5301H41.4878V58.9143C41.4878 56.8654 42.5648 55.3594 44.2381 55.3594C45.5553 55.3594 46.8691 56.0804 46.8691 58.2503V67.4713H51.1146V57.2268C51.1146 54.3341 49.5001 51.9914 45.8526 51.9914ZM57.4519 52.4133H53.2081V67.5906H57.4536V52.4133H57.4519ZM55.2997 51.6301C55.6307 51.6287 55.9582 51.5621 56.2635 51.4341C56.5688 51.3061 56.8459 51.1193 57.0789 50.8842C57.312 50.6492 57.4965 50.3705 57.6219 50.0642C57.7473 49.7578 57.8111 49.4298 57.8097 49.0987C57.8111 48.7677 57.7473 48.4397 57.6219 48.1333C57.4965 47.827 57.312 47.5483 57.0789 47.3132C56.8459 47.0782 56.5688 46.8913 56.2635 46.7634C55.9582 46.6354 55.6307 46.5688 55.2997 46.5674C54.6313 46.5707 53.9916 46.8392 53.521 47.3138C53.0504 47.7884 52.7874 48.4304 52.7897 49.0987C52.801 49.7629 53.0684 50.397 53.5361 50.8687C54.0038 51.3404 54.6357 51.6132 55.2997 51.6301ZM65.4588 67.7116C66.1388 67.7116 66.8206 67.6493 67.4917 67.5301V64.2155C67.2165 64.2708 66.9354 64.2917 66.6551 64.2778C65.5763 64.2778 65.279 63.9752 65.279 63.2507V55.6603H69.5833V63.7954C69.5833 67.0476 71.2567 67.7704 74.0069 67.7704C74.6887 67.7704 75.3687 67.7099 76.0398 67.5906V64.276C75.7657 64.3294 75.4844 64.3508 75.2032 64.3365C74.1262 64.3365 73.8289 64.0339 73.8289 63.313V55.6585H76.0398V52.4062H73.7631V46.5603H69.578V52.3457H65.2737V46.5603H61.0263V52.3457H59.1127V55.5997H61.0263V63.7331C61.0263 67.0459 62.7068 67.7099 65.457 67.7099L65.4588 67.7116ZM83.6285 58.6722C77.7078 59.0336 77.2307 61.6842 77.2307 63.3112C77.2307 66.7468 80.1608 67.9502 82.4927 67.9502C83.48 67.9907 84.4626 67.793 85.3574 67.3738C86.2522 66.9546 87.0329 66.3262 87.6337 65.5417H87.6942V67.5301H91.76C91.6295 66.9159 91.5697 66.2887 91.582 65.6609V56.8654C91.582 53.371 88.4722 51.9843 84.7642 51.9843C79.5022 51.9843 77.8288 54.9393 77.7096 57.2891H81.7736C81.8359 55.9006 82.9128 55.0586 84.6449 55.0586C86.498 55.0586 87.5732 55.9611 87.5732 57.7679V58.4924L83.6285 58.6722ZM87.5144 62.3481C87.5144 64.155 85.3623 64.94 84.0468 64.94C82.612 64.94 81.4158 64.5163 81.4158 63.1919C81.4158 62.106 82.0744 61.5044 83.9863 61.3228L87.5144 61.0237V62.3481ZM59.3174 80.4341C58.9941 80.435 58.6742 80.4997 58.376 80.6245C58.0777 80.7492 57.807 80.9316 57.5793 81.1611C57.3516 81.3906 57.1714 81.6627 57.0491 81.962C56.9267 82.2612 56.8646 82.5816 56.8662 82.9049C56.8643 83.5574 57.1213 84.184 57.5809 84.6472C58.0404 85.1104 58.6649 85.3724 59.3174 85.3757C59.6406 85.3745 59.9605 85.3097 60.2586 85.1849C60.5567 85.0601 60.8274 84.8777 61.055 84.6482C61.2827 84.4188 61.4629 84.1467 61.5853 83.8476C61.7077 83.5485 61.77 83.2281 61.7686 82.9049C61.7728 82.5798 61.7122 82.2572 61.5902 81.9558C61.4683 81.6544 61.2875 81.3804 61.0584 81.1497C60.8308 80.9202 60.5594 80.7388 60.2603 80.6162C59.9613 80.4936 59.6406 80.4305 59.3174 80.4341ZM66.9595 74.3799C66.9595 73.5184 68.04 73.0609 69.0636 73.0609C70.5998 73.0609 71.4542 73.8085 71.5094 75.0065L75.5449 74.946C75.3171 71.7952 72.8712 70.1931 69.238 70.1931C65.0512 70.1931 63.3245 72.6034 63.3245 74.8303C63.3245 80.7919 71.9028 78.6095 71.9028 81.0198C71.9028 82.2249 70.541 82.5079 69.5121 82.5079C68.3159 82.5079 67.0663 81.9045 67.0129 80.5623H62.9827C63.3245 84.7812 67.3012 85.4291 69.3519 85.4291C75.2655 85.4291 75.885 81.7069 75.885 80.6103C75.885 74.7235 66.9595 76.9611 66.9595 74.3799ZM84.2907 70.1985C79.9739 70.1985 76.9601 73.1748 76.9601 77.8156C76.9601 82.4528 79.9507 85.3757 84.2924 85.3757C87.6444 85.3757 90.2701 83.827 91.2794 80.9112L87.3347 80.6228C87.0761 81.1513 86.6709 81.5941 86.1674 81.8984C85.6639 82.2027 85.0834 82.3556 84.4954 82.3388C82.3361 82.3388 81.3125 80.6762 81.1399 78.9602H91.598V77.8156C91.6265 73.1339 88.6128 70.1985 84.2907 70.1985ZM81.1096 76.3274C81.3374 74.7235 82.361 73.2353 84.4633 73.2353C86.3948 73.2353 87.4183 74.898 87.591 76.3274H81.1096Z" fill="white"/>
</svg>
