<svg width="128" height="128" viewBox="0 0 128 128" fill="none" xmlns="http://www.w3.org/2000/svg">
<rect width="128" height="128" fill="#0E55CD"/>
<path d="M111.922 72.0293C111.922 73.122 111.063 73.9806 109.971 73.9806C108.878 73.9806 108.019 73.122 108.019 72.0293C108.019 70.9367 108.878 70.0781 109.971 70.0781C111.063 70.0781 111.922 70.9367 111.922 72.0293Z" fill="#FAD73C"/>
<path d="M104.195 72.0293C104.195 73.122 103.337 73.9806 102.244 73.9806C101.151 73.9806 100.293 73.122 100.293 72.0293C100.293 70.9367 101.151 70.0781 102.244 70.0781C103.337 70.0781 104.195 70.9367 104.195 72.0293Z" fill="#FAD73C"/>
<path d="M96.4683 72.0293C96.4683 73.122 95.6097 73.9806 94.517 73.9806C93.4244 73.9806 92.5658 73.122 92.5658 72.0293C92.5658 70.9367 93.4244 70.0781 94.517 70.0781C95.6097 70.0781 96.4683 70.9367 96.4683 72.0293Z" fill="#FAD73C"/>
<path d="M88.6634 72.0293C88.6634 73.122 87.8049 73.9806 86.7122 73.9806C85.6195 73.9806 84.7609 73.122 84.7609 72.0293C84.7609 70.9367 85.6195 70.0781 86.7122 70.0781C87.8049 70.0781 88.6634 70.9367 88.6634 72.0293Z" fill="#FAD73C"/>
<path d="M80.9366 72.0293C80.9366 73.122 80.078 73.9806 78.9853 73.9806C77.8927 73.9806 77.0341 73.122 77.0341 72.0293C77.0341 70.9367 77.8927 70.0781 78.9853 70.0781C80.078 70.0781 80.9366 70.9367 80.9366 72.0293Z" fill="#FAD73C"/>
<path d="M73.1317 72.0293C73.1317 73.122 72.2732 73.9806 71.1805 73.9806C70.0878 73.9806 69.2292 73.122 69.2292 72.0293C69.2292 70.9367 70.0878 70.0781 71.1805 70.0781C72.2732 70.0781 73.1317 70.9367 73.1317 72.0293Z" fill="#FAD73C"/>
<path d="M28.1756 62.039C28.1756 60.478 29.1122 58.9951 30.7512 58.9951C32.3902 58.9951 33.3268 60.5561 33.3268 62.039C33.3268 63.5219 32.5463 65.0829 30.7512 65.0829C29.0341 65.161 28.1756 63.5219 28.1756 62.039ZM26.6146 62.039C26.6146 64.3805 28.3317 66.3317 30.8293 66.3317C33.3268 66.3317 35.0439 64.3805 35.0439 62.039C35.0439 59.5415 33.3268 57.7463 30.8293 57.7463C28.2537 57.7463 26.6146 59.5415 26.6146 62.039ZM26.6146 62.039C26.6146 64.3805 28.3317 66.3317 30.8293 66.3317C33.3268 66.3317 35.0439 64.3805 35.0439 62.039C35.0439 59.5415 33.3268 57.7463 30.8293 57.7463C28.2537 57.7463 26.6146 59.5415 26.6146 62.039ZM28.1756 62.039C28.1756 60.478 29.1122 58.9951 30.7512 58.9951C32.3902 58.9951 33.3268 60.5561 33.3268 62.039C33.3268 63.5219 32.5463 65.0829 30.7512 65.0829C29.0341 65.161 28.1756 63.5219 28.1756 62.039Z" fill="white"/>
<path d="M63.2195 65.6292L60.4878 58.1365V58.0584C60.4878 57.9804 60.5659 57.9023 60.6439 57.9023H61.8146C61.9707 57.9023 62.1268 57.9804 62.1268 58.1365L64.3122 64.7706L66.4976 58.2145C66.5756 58.1365 66.6537 57.9804 66.8098 57.9804H67.9024C67.9805 57.9804 68.0585 58.0584 68.0585 58.1365C68.0585 58.1365 68.0585 58.1365 68.0585 58.2145L65.2488 66.0194L63.4537 71.3267V71.4048C63.3756 71.4828 63.2976 71.4828 63.2195 71.4048L62.2049 70.6243C62.0488 70.5462 62.0488 70.3901 62.1268 70.234L63.5317 66.6438C63.5317 66.4877 63.2976 65.9414 63.2195 65.6292Z" fill="white"/>
<path d="M57.9903 62.9756V62.2732C57.6781 62.2732 57.3659 62.2732 56.9756 62.2732C56.1171 62.2732 54.0878 62.4293 54.0878 63.8341C54.0878 64.6927 54.9464 65.161 55.6488 65.161C57.2098 65.161 57.9903 64.2244 57.9903 62.9756ZM59.6293 65.8634C59.6293 66.0195 59.4732 66.1756 59.3171 66.1756H58.6146C58.3805 66.1756 58.2244 66.0195 58.2244 65.8634V65.161C57.8342 65.6293 57.0537 66.4098 55.6488 66.4098C53.8537 66.4098 52.6049 65.6293 52.6049 63.8341C52.6049 61.7268 54.8683 61.1024 56.4293 61.1024C57.0537 61.1024 57.4439 61.1024 58.0683 61.1024C58.0683 59.6976 57.522 58.9951 56.039 58.9951C55.4146 58.9951 54.6342 59.1512 54.0878 59.5415C54.0098 59.5415 54.0098 59.6195 53.9317 59.6195C53.7756 59.6195 53.6195 59.4634 53.6195 59.3073L53.4634 58.6049C53.4634 58.5268 53.4634 58.4488 53.5415 58.4488C54.322 57.9805 55.1805 57.7463 56.1951 57.7463C58.5366 57.7463 59.5512 58.9171 59.5512 61.1805V64.6146C59.5512 65.161 59.5512 65.5512 59.6293 65.8634Z" fill="white"/>
<path d="M44.6439 62.039C44.6439 63.3658 45.2683 65.1609 46.9854 65.1609C48.7024 65.1609 49.4049 63.4439 49.4049 62.117C49.4049 60.5561 48.6244 58.9951 46.9073 58.9951C45.2683 58.9951 44.6439 60.5561 44.6439 62.039ZM49.4829 65.8634V65.0048C49.0927 65.6292 48.1561 66.4097 46.6732 66.4097C44.1756 66.4097 43.0829 64.2243 43.0829 61.9609C43.0829 59.7756 44.2537 57.7463 46.6732 57.7463C48.078 57.7463 48.9366 58.2926 49.4049 59.0731V54.3902C49.4049 54.2341 49.561 54.078 49.7171 54.078H50.5756C50.7317 54.078 50.8878 54.2341 50.8878 54.3902V65.8634C50.8878 66.0195 50.7317 66.1756 50.5756 66.1756H49.7171C49.639 66.1756 49.4829 66.0195 49.4829 65.8634Z" fill="white"/>
<path d="M24.7415 65.8632C24.7415 66.0193 24.5854 66.1754 24.4293 66.1754H23.4927C23.3366 66.1754 23.1805 66.0193 23.1805 65.8632V61.0242H17.7171V65.8632C17.7171 66.0193 17.561 66.1754 17.4049 66.1754H16.3902C16.1561 66.1754 16 66.0193 16 65.8632V55.2486C16 55.0144 16.1561 54.9364 16.3122 54.9364H17.2488C17.4049 54.9364 17.561 55.0925 17.561 55.2486V59.6193H23.0244V55.2486C23.0244 55.0925 23.1805 54.9364 23.3366 54.9364H24.2732C24.5073 54.9364 24.6634 55.0925 24.6634 55.2486L24.7415 65.8632Z" fill="white"/>
<path d="M36.9951 66.1756C36.761 66.1756 36.6049 66.0195 36.6049 65.8634V54.3902C36.6049 54.2341 36.761 54.078 36.9171 54.078H37.8537C38.0098 54.078 38.1659 54.2341 38.1659 54.3902V66.1756H36.9951Z" fill="white"/>
<path d="M40.5073 66.1755C40.2732 66.1755 40.1171 66.0194 40.1171 65.8633V58.2925C40.1171 58.1364 40.2732 57.9803 40.4293 57.9803H41.2878C41.4439 57.9803 41.6 58.1364 41.6 58.2925V66.1755H40.5073Z" fill="white"/>
<path d="M41.7561 54.39V55.7949C41.7561 55.951 41.6 56.1071 41.4439 56.1071H40.039V54.7022C40.039 54.5461 40.1951 54.39 40.3512 54.39H41.7561Z" fill="white"/>
<path d="M28.1756 62.039C28.1756 63.5219 28.9561 65.0829 30.7512 65.0829C32.5463 65.0829 33.3268 63.4439 33.3268 62.039C33.3268 60.478 32.3902 58.9951 30.7512 58.9951C29.1902 58.9951 28.1756 60.478 28.1756 62.039ZM26.6146 62.039C26.6146 59.5415 28.3317 57.7463 30.8293 57.7463C33.3268 57.7463 35.0439 59.5415 35.0439 62.039C35.0439 64.3805 33.3268 66.3317 30.8293 66.3317C28.3317 66.4098 26.6146 64.4585 26.6146 62.039Z" fill="white"/>
<path d="M77.8927 65.7853C77.8927 65.9414 77.8146 66.0975 77.6585 66.0975C76.8 66.4097 75.8634 66.4097 75.3171 66.4097C71.7268 66.4097 69.3073 64.0682 69.3073 60.556C69.3073 57.1219 71.8049 54.7804 75.3171 54.7804C76.0976 54.7804 76.878 54.8584 77.6585 55.1706C77.7366 55.2487 77.8927 55.3267 77.8927 55.4828L77.8146 56.5755C77.8146 56.6536 77.7366 56.7316 77.6585 56.7316H77.5805C76.9561 56.4194 76.1756 56.2633 75.4732 56.2633C72.8195 56.2633 71.1024 58.1365 71.1024 60.6341C71.1024 63.2877 73.0536 65.0828 75.3951 65.0828C76.0976 65.0828 77.0341 64.9267 77.6585 64.6145H77.7366C77.8146 64.6145 77.8927 64.6926 77.8927 64.7706V65.7853Z" fill="white"/>
<path d="M87.1024 65.8634C87.1024 66.0195 86.9464 66.1756 86.7903 66.1756H85.9317C85.7756 66.1756 85.6195 66.0195 85.6195 65.8634V61.961C85.6195 60.0098 85.1512 59.0732 83.8244 58.9951C82.1073 58.9951 81.3268 60.4 81.3268 62.4293V65.9415C81.3268 66.0976 81.1707 66.2537 81.0146 66.2537H80.1561C80 66.2537 79.8439 66.0976 79.8439 65.9415V54.3902C79.8439 54.1561 80 54 80.1561 54H81.0146C81.1707 54 81.3268 54.1561 81.3268 54.3122V59.0732C81.8732 58.2146 82.8098 57.6683 83.9805 57.6683C86.0878 57.6683 87.1024 58.9951 87.1024 61.1805V65.8634Z" fill="white"/>
<path d="M103.415 65.7854C103.415 65.9415 103.337 66.0976 103.18 66.0976C102.634 66.3317 102.01 66.3317 101.541 66.3317C99.0439 66.3317 97.3268 64.3805 97.3268 62.039C97.3268 59.5415 99.0439 57.7463 101.541 57.7463C102.01 57.7463 102.634 57.8244 103.102 57.9805C103.259 58.0585 103.337 58.1366 103.337 58.2927L103.259 59.0732C103.259 59.1512 103.18 59.2293 103.102 59.2293H103.024C102.478 59.0732 102.01 58.9171 101.541 58.9171C99.8244 58.9171 98.8878 60.478 98.8878 61.961C98.8878 63.4439 99.6683 65.0049 101.619 65.0049C102.088 65.0049 102.634 64.9268 103.024 64.6927H103.102C103.18 64.6927 103.259 64.7707 103.259 64.8488L103.415 65.7854Z" fill="white"/>
<path d="M110.205 66.1756C110.127 66.1756 109.971 66.0975 109.893 66.0975L106.302 61.9609V65.8634C106.302 66.0195 106.146 66.1756 105.99 66.1756H105.21C105.054 66.1756 104.898 66.0195 104.898 65.8634V54.3902C104.898 54.2341 105.054 54.078 105.21 54.078H106.068C106.302 54.078 106.38 54.2341 106.38 54.3902V61.2585L109.58 58.0585C109.659 57.9804 109.737 57.9804 109.815 57.9804H111.376C111.454 57.9804 111.532 58.0585 111.532 58.1365C111.532 58.2146 111.532 58.2146 111.454 58.2146L107.863 61.5707L111.922 65.8634C112 65.8634 112 65.9414 112 66.0195C112 66.0975 111.922 66.1756 111.844 66.1756H110.205Z" fill="white"/>
<path d="M90.3024 61.2585H94.5951C94.5951 60.0098 93.8146 58.9171 92.4878 58.9171C91.0829 58.9951 90.4585 60.1659 90.3024 61.2585ZM95.6098 65.6293C95.6098 65.7854 95.5317 65.9415 95.3756 65.9415C94.8293 66.1756 94.2049 66.4098 92.9561 66.4098C89.9902 66.4098 88.6634 64.6146 88.6634 61.961C88.6634 59.5415 90.2244 57.7463 92.5659 57.7463C95.2976 57.7463 96.1561 59.6976 96.2342 62.2732C96.2342 62.3512 96.1561 62.4293 96.078 62.4293H90.3024C90.3024 64.0683 91.5512 65.161 93.0341 65.161C93.8927 65.161 94.8293 64.7707 95.3756 64.5366H95.4537C95.5317 64.5366 95.6098 64.6146 95.6098 64.6927V65.6293Z" fill="white"/>
</svg>
