<svg width="128" height="128" viewBox="0 0 128 128" fill="none" xmlns="http://www.w3.org/2000/svg">
<rect width="128" height="128" fill="#423A9A"/>
<path d="M101.721 58.5367H103.388C103.388 57.7996 103.407 57.1154 103.381 56.4343C103.364 56.014 103.485 55.8245 103.944 55.8339C105.055 55.8566 106.169 55.8546 107.277 55.8339C107.694 55.8256 107.84 55.9809 107.827 56.3866C107.805 57.073 107.82 57.7603 107.82 58.5408C108.398 58.5408 108.927 58.5553 109.453 58.5408C109.817 58.5274 110.004 58.6195 109.991 59.0294C109.967 59.8172 109.973 60.6049 109.991 61.3927C110 61.7498 109.859 61.8917 109.504 61.8834C108.973 61.8699 108.441 61.8834 107.852 61.8834C107.852 62.7922 107.816 63.6338 107.866 64.4713C107.892 64.9102 108.238 65.1628 108.689 65.1721C109.081 65.1793 109.475 65.1338 109.939 65.1069C109.954 65.2829 109.983 65.4692 109.984 65.6545C109.984 66.4826 109.957 67.3107 109.998 68.1389C110.022 68.6151 109.842 68.8573 109.389 68.8697C108.482 68.8935 107.557 69.0043 106.671 68.8697C104.621 68.5592 103.388 67.0199 103.386 64.9568C103.386 63.9723 103.386 62.99 103.386 61.9465H101.864C102.2 63.9889 102.045 65.9019 100.502 67.4526C99.5554 68.4028 98.3708 68.878 97.0498 68.9856C94.0202 69.232 91.5771 67.5985 91.0353 64.8854C90.4935 62.1722 91.4843 59.6516 94.2202 58.5563C97.0592 57.4177 99.9169 58.487 101.73 61.4641L101.721 58.5367ZM97.7301 63.6628C97.6207 63.2281 97.6145 62.7912 97.4061 62.4931C97.1977 62.195 96.8071 61.8989 96.4549 61.8389C96.1986 61.7943 95.7954 62.0687 95.5965 62.313C95.1255 62.8916 95.163 64.3357 95.5892 64.9495C96.0559 65.6234 96.9435 65.6276 97.3373 64.9102C97.5478 64.5282 97.6082 64.0665 97.7301 63.6628Z" fill="white"/>
<path d="M32.5188 69.35C30.9759 69.35 29.4694 69.3449 27.9629 69.35C27.5535 69.35 27.6003 69.0747 27.5993 68.8231C27.5993 67.4643 27.5993 66.1055 27.5993 64.7467V64.0221C26.2605 64.0221 24.977 64.0086 23.6955 64.0448C23.5914 64.0448 23.407 64.373 23.4038 64.551C23.3778 65.8698 23.3892 67.1897 23.3892 68.5095V69.3055H19V55.3774H23.3872V56.7096C23.3872 57.6547 23.3997 58.5999 23.3872 59.545C23.3799 59.959 23.5091 60.1567 23.9623 60.1474C24.9947 60.1267 26.0272 60.1288 27.0596 60.1474C27.4691 60.1547 27.617 60.0118 27.6097 59.5988C27.5889 58.3566 27.6003 57.1144 27.6097 55.8774C27.6097 55.631 27.5472 55.3391 27.9619 55.3412C29.4694 55.3463 30.9759 55.3412 32.5282 55.3412L32.5188 69.35Z" fill="white"/>
<path d="M63.2854 58.987C63.2854 58.252 63.2854 57.5885 63.2854 56.926C63.2854 56.0978 63.2708 55.2697 63.302 54.4416C63.3083 54.2904 63.5041 54.0213 63.6146 54.0182C64.945 53.9923 66.2723 54.0016 67.685 54.0016V54.6828C67.685 59.1723 67.6746 63.6618 67.6996 68.1513C67.6996 68.7372 67.5204 68.8821 66.9589 68.8635C65.7722 68.8231 64.5824 68.8511 63.3718 68.8511C63.3187 68.6223 63.2749 68.437 63.2291 68.2352C63.1655 68.2403 63.0999 68.2269 63.0614 68.2538C60.9777 69.6668 57.8522 69.1606 56.751 66.0799C55.9988 63.9827 56.0894 61.8979 57.3396 59.9787C58.5377 58.1371 60.9496 57.6413 62.8311 58.7882C62.9785 58.8633 63.1301 58.9296 63.2854 58.987ZM63.2854 63.6007C63.2854 63.4237 63.2854 63.2467 63.2854 63.0697C63.2749 62.3761 63.002 61.9941 62.4519 61.8989C61.7361 61.7768 61.0756 62.0687 60.9121 62.6836C60.7854 63.1557 60.7458 63.6467 60.7954 64.1328C60.8693 64.817 61.6111 65.3243 62.3008 65.2715C63.0301 65.2104 63.2864 64.875 63.2885 63.9599C63.2864 63.8357 63.2854 63.7187 63.2854 63.6007Z" fill="white"/>
<path d="M79.1938 58.4H83.4945C83.5184 58.6174 83.5393 58.8079 83.5528 58.9269C84.2696 58.6847 84.9843 58.3152 85.7355 58.2148C87.4785 57.9818 88.9652 58.7872 89.7517 60.3565C90.904 62.6639 90.9092 64.9868 89.5048 67.1979C88.4213 68.9039 86.2137 69.4556 84.3707 68.5819C84.1227 68.465 83.88 68.3387 83.5372 68.1679V71.5021C83.5372 72.2744 83.5372 72.2754 82.7683 72.2764C81.7359 72.2764 80.7034 72.2661 79.671 72.2827C79.3063 72.2827 79.1313 72.1998 79.1323 71.7951C79.1427 67.464 79.1459 63.1328 79.1417 58.8017C79.1448 58.6899 79.1719 58.575 79.1938 58.4ZM83.5393 63.9734C83.5393 64.7052 83.7924 65.1234 84.3155 65.2591C84.951 65.4236 85.6417 65.2156 85.8782 64.6079C86.0683 64.0967 86.1197 63.5448 86.0272 63.0076C85.8813 62.1877 85.2177 61.8627 84.2957 62.0004C83.7299 62.0842 83.5393 62.4144 83.5393 63.3181V63.9734Z" fill="white"/>
<path d="M44.4698 63.5966C44.4583 66.788 42.2111 68.9971 38.9897 68.9877C35.6329 68.9764 33.3503 66.8139 33.3638 63.6722C33.3815 60.3762 35.5892 58.1713 38.8678 58.1775C42.1975 58.1837 44.4823 60.3948 44.4698 63.5966ZM40.1712 63.5345C40.0524 63.1794 39.9753 62.6784 39.7294 62.2799C39.3044 61.5894 38.4105 61.6319 38.0385 62.3389C37.8305 62.7203 37.7183 63.1462 37.7116 63.58C37.7048 64.0138 37.8038 64.4429 38 64.8305C38.175 65.2011 38.4615 65.4723 38.9293 65.4288C39.3971 65.3854 39.7628 65.1421 39.9295 64.7042C40.0514 64.3823 40.0753 64.0221 40.1712 63.5345Z" fill="white"/>
<path d="M44.8542 63.6287C44.7333 60.2768 47.3316 58.1526 50.3311 58.1744C53.6378 58.1992 55.834 60.3482 55.8997 63.4931C55.9705 66.8056 53.4493 69.0001 50.3873 68.995C47.1472 68.9898 44.7593 66.8377 44.8542 63.6287ZM51.6261 63.726C51.5511 63.2964 51.5219 62.961 51.4281 62.6463C51.2781 62.1525 50.926 61.8078 50.3977 61.8109C49.8695 61.814 49.4549 62.1401 49.3913 62.6525C49.3101 63.3202 49.2601 64.0262 49.4028 64.6701C49.4705 64.9806 49.9737 65.3036 50.3404 65.4164C50.7645 65.5458 51.15 65.2332 51.3208 64.8253C51.475 64.4485 51.5375 64.0427 51.6209 63.7218L51.6261 63.726Z" fill="white"/>
<path d="M68.3547 65.4009C69.6997 65.4009 71.0062 65.4009 72.3137 65.4102C72.4179 65.4102 72.5356 65.5365 72.6263 65.6172C72.7169 65.698 72.7679 65.8615 72.8565 65.876C73.1754 65.9301 73.4989 65.9523 73.8223 65.9423C73.89 65.9423 73.9494 65.7352 74.0129 65.6317C73.7723 65.5282 73.542 65.374 73.2909 65.315C72.521 65.1359 71.7282 65.0344 70.9708 64.8243C69.7383 64.4827 68.759 63.8191 68.5454 62.4538C68.3266 61.0511 68.7986 59.9321 69.9727 59.0688C71.6646 57.8266 75.5903 57.8193 77.1853 59.517C77.788 60.1268 78.1566 60.9271 78.2271 61.7788C76.9342 61.7788 75.6694 61.7788 74.4047 61.7706C74.3224 61.7706 74.2369 61.6412 74.1588 61.5635C74.0546 61.4672 73.9785 61.2954 73.8702 61.2788C73.5868 61.2431 73.3002 61.2389 73.0159 61.2664C72.9711 61.2664 72.893 61.4931 72.9055 61.5014C73.1065 61.6318 73.3076 61.7881 73.5306 61.8544C74.5724 62.1649 75.6632 62.3399 76.6561 62.756C77.8344 63.2519 78.4136 64.2767 78.3615 65.551C78.3042 66.9681 77.5281 67.9722 76.2195 68.4681C74.0994 69.2693 71.9855 69.2403 69.9925 68.054C69.0288 67.4867 68.4735 66.6089 68.3547 65.4009Z" fill="white"/>
<path d="M92.365 70.1595H100.595L96.4521 74C95.1061 72.7381 93.7923 71.4959 92.365 70.1595Z" fill="white"/>
</svg>
