<svg width="128" height="129" viewBox="0 0 128 129" fill="none" xmlns="http://www.w3.org/2000/svg">
<rect width="128" height="128" transform="translate(0 0.833496)" fill="white"/>
<path d="M105.763 84.7066C105.956 86.1653 105.497 87.5718 105.437 89.0117C105.414 89.5286 105.029 89.6479 104.581 89.6374C103.995 89.6228 103.727 89.4449 103.708 88.9635C103.683 88.3378 103.681 87.7099 103.723 87.0862C103.823 85.5919 103.838 84.0996 103.723 82.6053C103.689 82.1888 103.7 81.7703 103.695 81.3538C103.685 80.592 103.756 79.8239 103.388 79.1039C103.289 78.9135 103.285 78.6644 103.275 78.4405C103.243 77.7979 103.235 77.1554 102.917 76.5652C102.854 76.448 102.837 76.2952 102.839 76.1592C102.848 75.1881 102.454 74.2944 102.186 73.4029C101.852 72.2811 101.531 71.1405 101 70.0626C100.596 69.2422 100.274 68.3569 99.9094 67.5051C99.6122 66.8103 99.248 66.1384 98.8608 65.4876C98.1744 64.3344 97.4858 63.1812 96.7156 62.0761C95.7424 60.6844 94.6437 59.3972 93.5512 58.1017C91.9522 56.2098 90.0498 54.6443 88.1034 53.1437C86.8623 52.1851 85.5626 51.2915 84.1813 50.5171C83.1746 49.952 82.1491 49.4246 81.1508 48.8428C80.7699 48.6209 80.3262 48.464 79.9181 48.3363C78.88 48.0098 77.911 47.5138 76.8813 47.1622C76.1383 46.9089 75.297 46.9152 74.6293 46.4234C74.4452 46.2874 74.1961 46.3125 73.968 46.3062C73.5975 46.2957 73.2459 46.2246 72.9153 46.0425C72.7813 45.9692 72.6243 45.9316 72.4737 45.896C70.7512 45.4795 68.9806 45.3895 67.231 45.1572C67.0761 45.1363 66.9212 45.1049 66.7726 45.0609C66.1113 44.8705 65.8057 44.1589 66.1134 43.5457C66.2222 43.328 66.4168 43.2652 66.6366 43.2736C67.7228 43.3175 68.832 43.1124 69.8785 43.6126C70.228 43.7801 70.6382 43.6691 71.017 43.7194C71.9776 43.8449 72.9466 44.0542 73.8487 44.3179C74.6398 44.5482 75.4853 44.613 76.2723 44.9814C76.8604 45.2556 77.5845 45.3916 78.2124 45.6427C78.8507 45.9002 79.5162 46.0802 80.1462 46.3753C80.6527 46.6117 81.1843 46.8378 81.7075 47.0554C82.4065 47.3443 83.0909 47.6896 83.7313 48.0893C84.4178 48.5184 85.1566 48.8386 85.8326 49.2886C86.8665 49.975 87.9339 50.6134 88.9175 51.3731C89.7798 52.0386 90.619 52.7314 91.4499 53.4367C93.12 54.8557 94.6144 56.44 96.025 58.1206C96.7721 59.008 97.4523 59.9435 98.1618 60.8539C98.7541 61.6136 99.1852 62.4968 99.7357 63.2921C100.219 63.9911 100.629 64.7383 100.983 65.4917C101.368 66.3101 101.841 67.0886 102.176 67.9404C102.392 68.4888 102.605 69.0601 102.842 69.6085C103.091 70.1819 103.346 70.77 103.509 71.3895C103.721 72.1848 104.022 72.955 104.286 73.7377C104.296 73.7712 104.33 73.8005 104.33 73.8319C104.353 74.8825 104.953 75.8181 104.939 76.8771C104.932 77.2475 104.987 77.6012 105.163 77.9361C105.309 78.2165 105.353 78.5305 105.357 78.8486C105.37 80.1336 105.468 81.4124 105.711 82.6786C105.841 83.3525 105.738 84.0327 105.765 84.7087L105.763 84.7066Z" fill="#0059A9"/>
<path d="M102.54 84.8385C102.553 86.0712 102.549 87.306 102.524 88.5408C102.507 89.4031 101.517 89.9075 100.784 89.4533C100.5 89.2754 100.443 88.974 100.491 88.6685C100.764 86.9272 100.895 85.167 100.736 83.4195C100.556 81.4396 100.46 79.4493 100.029 77.4861C99.8343 76.5967 99.6062 75.703 99.376 74.8302C99.1981 74.1563 99.0432 73.4343 98.6853 72.7855C98.453 72.3627 98.3274 71.8521 98.1809 71.3833C97.8816 70.4226 97.4212 69.5373 97.0236 68.6269C96.6238 67.7144 96.1215 66.8375 95.5836 65.9961C94.6335 64.5123 93.6666 63.0368 92.5259 61.6869C91.1446 60.0523 89.6922 58.491 88.066 57.0888C87.0153 56.1826 85.9291 55.3224 84.7801 54.5522C83.8655 53.939 82.9468 53.3216 81.9526 52.8193C81.2201 52.4489 80.4876 52.0617 79.7718 51.6473C79.3114 51.3815 78.7756 51.2517 78.3026 51.0048C77.702 50.6929 77.0427 50.5443 76.4232 50.2848C75.7744 50.0127 75.0754 49.8662 74.414 49.6193C73.422 49.2488 72.3735 49.1149 71.3605 48.8281C70.6343 48.621 69.8515 48.6063 69.096 48.4996C68.4074 48.4012 67.7231 48.2861 67.0345 48.1961C66.6913 48.1521 66.4924 48.0015 66.4631 47.6415C66.4506 47.4887 66.4003 47.3359 66.3585 47.1873C66.2183 46.6997 66.5908 46.212 67.0764 46.3439C68.0182 46.5992 68.9976 46.3899 69.929 46.6222C71.0717 46.909 72.2416 47.0304 73.3843 47.3443C74.1629 47.5578 74.9352 47.8257 75.7242 48.0203C76.3918 48.1835 77.1013 48.3468 77.7208 48.7047C78.1415 48.9495 78.6228 49.05 79.0686 49.23C80.2218 49.6967 81.3206 50.2681 82.4214 50.829C83.5704 51.415 84.6399 52.1621 85.7303 52.8612C87.8106 54.1943 89.6817 55.7996 91.4104 57.543C92.6975 58.8426 93.9512 60.1988 94.983 61.7329C95.5125 62.5219 96.1215 63.2607 96.628 64.0644C97.2517 65.0543 97.8795 66.0422 98.3714 67.1096C98.7523 67.9384 99.2588 68.7148 99.579 69.5645C99.8029 70.1568 100.106 70.7156 100.27 71.3435C100.429 71.9483 100.623 72.5636 100.87 73.1434C100.985 73.4175 101.103 73.6833 101.144 73.9743C101.274 74.8449 101.615 75.6611 101.789 76.5234C101.919 77.1701 102.136 77.8022 102.107 78.4656C102.082 79.0286 102.375 79.5037 102.444 80.0395C102.54 80.7866 102.538 81.5317 102.543 82.2789C102.547 83.1307 102.543 83.9804 102.543 84.8322L102.54 84.8385Z" fill="#0075C0"/>
<path d="M67.2811 78.9258C67.302 79.6521 66.9002 79.9806 66.3351 79.5935C65.6675 79.1393 64.935 79.1477 64.2318 79.133C63.4009 79.1163 62.5386 79.0954 61.7559 79.5746C61.1782 79.9283 60.8873 79.6667 60.8957 78.9907C60.9292 76.4185 61.5089 73.8861 61.4587 71.3056C61.4461 70.684 61.7496 70.1106 61.7914 69.4722C61.8793 68.1537 61.7035 66.8122 62.0028 65.5208C62.2749 64.353 62.3 63.1747 62.3502 62.0006C62.3921 61.0044 62.6139 60.0417 62.7249 59.0622C62.8484 57.9697 62.6872 56.8646 62.9111 55.7847C63.3883 53.4783 63.1225 51.1008 63.5997 48.7903C63.7399 48.1143 63.7274 47.4069 63.809 46.7183C63.8278 46.5488 63.8257 46.2704 64.0894 46.2955C64.3134 46.3165 64.3259 46.5634 64.3615 46.7497C64.5373 47.6936 64.3531 48.6752 64.5834 49.6044C65.0124 51.331 64.8366 53.0974 65.0124 54.8387C65.0898 55.5943 65.3242 56.3268 65.3389 57.1011C65.3849 59.8638 65.7261 62.6117 66.0128 65.3471C66.2723 67.8314 66.2347 70.345 66.7265 72.8062C66.8583 73.4634 66.7725 74.1603 66.8416 74.8321C66.9797 76.1946 67.2999 77.5382 67.2811 78.9175V78.9258Z" fill="#008ACB"/>
<path d="M67.4616 49.4415C68.0288 49.4164 68.4557 49.4875 68.868 49.6424C68.9978 49.6905 69.1359 49.7449 69.2699 49.7449C70.5842 49.7449 71.8316 50.1656 73.0957 50.4251C73.801 50.5695 74.5209 50.8186 75.2241 51.0551C75.8771 51.2748 76.4882 51.6013 77.1622 51.7688C77.6435 51.8901 78.0977 52.135 78.5456 52.3443C80.0169 53.0308 81.4777 53.7549 82.8402 54.636C83.7108 55.199 84.5584 55.8039 85.3998 56.415C86.9799 57.564 88.3738 58.9139 89.7488 60.2806C91.2138 61.7372 92.48 63.3676 93.6186 65.0921C94.3406 66.1846 94.9643 67.3357 95.6089 68.4742C96.0505 69.257 96.4628 70.0627 96.7726 70.8832C97.1597 71.9087 97.5867 72.9279 97.9299 73.9785C98.1978 74.7969 98.2167 75.6822 98.6415 76.4544C98.811 76.76 98.6897 77.1618 98.7985 77.4758C99.3112 78.9554 99.1543 80.5356 99.5268 82.032C99.5812 82.2497 99.6063 82.4799 99.6042 82.7038C99.5896 84.0579 99.734 85.4078 99.621 86.764C99.5561 87.5489 99.3238 88.296 99.2233 89.0725C99.1459 89.6627 98.5829 89.5287 98.1601 89.5497C97.7478 89.5706 97.6306 89.3153 97.5616 88.9741C97.4821 88.5848 97.6265 88.2165 97.6244 87.8335C97.616 85.8159 97.6118 83.7963 97.6244 81.7788C97.6306 80.7909 97.2414 79.8784 97.1472 78.9073C97.0028 77.3837 96.5235 75.9207 96.0903 74.4704C95.7868 73.4532 95.3975 72.4319 94.9162 71.4545C94.5394 70.6906 94.1774 69.9058 93.8237 69.1251C93.5328 68.4847 93.0807 67.9196 92.7458 67.2959C91.9882 65.8832 90.9606 64.6589 90.0062 63.3885C89.3135 62.4676 88.4387 61.6765 87.6141 60.8582C86.9234 60.1738 86.2286 59.4832 85.4668 58.8846C84.2026 57.8926 82.9092 56.9424 81.5321 56.0948C80.2031 55.2765 78.8218 54.5628 77.4007 53.9516C76.4129 53.5268 75.3937 53.1438 74.3598 52.8047C73.5519 52.5389 72.7231 52.3234 71.9111 52.135C70.5674 51.8232 69.2259 51.3648 67.8195 51.4402C67.0556 51.482 66.3775 50.806 66.5993 49.8559C66.7333 49.2824 67.2251 49.4917 67.4637 49.4457L67.4616 49.4415Z" fill="#0085D1"/>
<path d="M96.3664 84.313C96.3664 85.7717 96.3664 86.747 96.3664 87.7202C96.3664 88.2141 96.2534 88.6808 96.042 89.1308C95.9164 89.3987 95.7448 89.5264 95.4455 89.5452C94.5205 89.5996 94.3237 89.4699 94.3949 88.5511C94.5058 87.153 94.7611 85.7738 94.7172 84.3548C94.667 82.6847 94.4242 81.0313 94.2086 79.3884C94.0495 78.1745 93.7649 76.9293 93.3149 75.7719C92.7624 74.3445 92.3166 72.8795 91.6218 71.4982C90.6988 69.6648 89.5749 67.98 88.3778 66.3183C86.9756 64.3677 85.2908 62.7101 83.4742 61.1802C82.0343 59.9664 80.4457 58.9429 78.7945 58.0158C77.6141 57.3523 76.3751 56.8312 75.1444 56.3017C74.5417 56.0422 73.8573 55.8706 73.2525 55.6215C72.386 55.2636 71.4421 55.2887 70.6029 54.8974C70.3329 54.7718 70.0294 54.7613 69.7301 54.7613C68.9348 54.7592 68.1919 54.4851 67.4321 54.3051C67.1496 54.2381 66.9215 53.4805 67.0198 53.0577C67.1015 52.704 67.3798 52.6789 67.6728 52.6768C68.4242 52.6684 69.1651 52.7061 69.8808 52.9866C70.1341 53.0849 70.4271 53.0765 70.6991 53.1226C71.7916 53.313 72.8485 53.6081 73.8971 53.9765C74.5124 54.1921 75.1445 54.3993 75.7619 54.6106C76.6702 54.9225 77.5659 55.2992 78.4094 55.7785C79.28 56.2745 80.1779 56.7224 81.038 57.2351C82.3 57.9886 83.47 58.8718 84.619 59.7885C86.107 60.9751 87.4737 62.2874 88.6624 63.7629C89.4075 64.6858 90.161 65.6046 90.8286 66.6029C91.6092 67.7687 92.3313 68.9616 92.9612 70.2006C93.3798 71.0231 93.767 71.8728 94.1207 72.7351C94.5937 73.8904 94.9348 75.0833 95.2948 76.2658C95.6569 77.4525 95.8306 78.6998 96.0692 79.9242C96.3852 81.5525 96.3371 83.1724 96.3601 84.3172L96.3664 84.313Z" fill="#39B1E8"/>
<path d="M108.834 84.7444C108.679 86.0378 108.729 87.3438 108.694 88.6476C108.673 89.4115 108.286 89.7066 107.478 89.6313C106.802 89.5685 106.511 89.2064 106.641 88.476C106.829 87.4128 106.917 86.3496 106.948 85.2676C106.999 83.5514 106.724 81.8708 106.572 80.1756C106.532 79.7256 106.519 79.2736 106.511 78.8215C106.505 78.3631 106.442 77.9195 106.235 77.5051C106.14 77.3146 106.099 77.1137 106.09 76.9002C106.063 76.2744 106.048 75.6487 105.726 75.0794C105.684 75.0061 105.678 74.912 105.665 74.8262C105.5 73.7127 105.075 72.6747 104.776 71.601C104.585 70.9187 104.297 70.2741 104.098 69.5981C103.932 69.0393 103.725 68.4596 103.39 67.9426C103.141 67.5575 103.003 67.0929 102.842 66.666C102.537 65.856 102.064 65.1382 101.712 64.3554C101.467 63.8092 101.113 63.2797 100.766 62.769C100.339 62.1411 99.9497 61.4881 99.5437 60.8477C99.0435 60.0629 98.4993 59.3074 97.9091 58.5895C97.2038 57.7356 96.5613 56.8294 95.7807 56.0362C95.2742 55.5213 94.7991 54.9772 94.2759 54.4811C93.489 53.734 92.7481 52.9366 91.8837 52.2752C90.9628 51.572 90.0629 50.8416 89.1441 50.1342C88.0579 49.2991 86.8733 48.6294 85.7452 47.8655C85.1069 47.4344 84.3786 47.133 83.6858 46.7856C82.8864 46.3837 82.0973 45.9526 81.2748 45.6094C80.7077 45.3729 80.1384 45.1301 79.5691 44.8936C78.8806 44.6069 78.146 44.4792 77.472 44.1485C76.9656 43.8995 76.3879 43.7404 75.8542 43.6295C74.8748 43.4244 73.8995 43.1607 72.9367 42.9221C71.614 42.5935 70.2432 42.6626 68.9435 42.2566C68.2528 42.041 67.5245 42.1289 66.8129 42.1184C65.8711 42.1017 65.3919 41.4403 65.666 40.5341C65.7644 40.2118 65.9737 40.0506 66.3148 40.0339C66.8757 40.0046 67.4429 40.0276 67.9745 40.1825C68.7405 40.4085 69.5232 40.3688 70.2997 40.4378C70.7539 40.4776 71.2017 40.4902 71.6203 40.6994C71.7271 40.7539 71.8547 40.8062 71.9698 40.802C72.9974 40.758 73.9434 41.1431 74.9166 41.3692C75.8166 41.5785 76.7019 41.8526 77.5872 42.131C78.2569 42.3403 78.9287 42.56 79.5984 42.7756C80.2158 42.9744 80.8144 43.2465 81.4004 43.5269C81.7876 43.7132 82.1873 43.8932 82.5766 44.0544C84.1463 44.699 85.5799 45.5801 87.0533 46.3984C88.6313 47.2753 90.0754 48.3343 91.5049 49.4122C92.8967 50.4628 94.2152 51.6097 95.4458 52.8571C96.7832 54.2133 98.0912 55.5904 99.2528 57.1056C99.9539 58.0202 100.601 58.9683 101.26 59.9101C101.791 60.6719 102.292 61.4526 102.75 62.2541C103.198 63.0432 103.637 63.8385 104.05 64.6484C104.447 65.4291 104.795 66.2306 105.186 67.0134C105.439 67.5199 105.557 68.0766 105.829 68.5872C106.207 69.2946 106.417 70.092 106.649 70.8559C106.858 71.5403 107.16 72.2121 107.237 72.9342C107.289 73.4302 107.557 73.8613 107.629 74.3322C107.806 75.4959 108.275 76.6051 108.271 77.8002C108.271 78.1539 108.344 78.4845 108.474 78.8152C108.646 79.2589 108.662 79.7382 108.679 80.2028C108.731 81.7139 108.654 83.2291 108.828 84.7465L108.834 84.7444Z" fill="#004294"/>
<path d="M19.1681 84.8259C19.3209 82.7142 19.4088 80.682 19.6411 78.6666C19.7311 77.8838 19.8378 77.0822 20.0178 76.3183C20.2564 75.3033 20.4908 74.2757 20.7629 73.2648C20.9659 72.5072 21.2024 71.7433 21.4368 70.9982C21.6419 70.3431 21.7654 69.6462 22.1212 69.0225C22.3828 68.5663 22.5146 68.0326 22.7072 67.5386C22.9583 66.894 23.3099 66.3038 23.559 65.6697C23.875 64.866 24.3334 64.1398 24.6892 63.3591C24.9864 62.7062 25.4342 62.1243 25.7921 61.4965C26.4577 60.3265 27.2571 59.2424 28.021 58.1395C28.6405 57.2458 29.371 56.4275 30.0616 55.584C30.2897 55.3036 30.5493 55.0483 30.792 54.7804C31.2064 54.3241 31.6669 54.3241 32.0603 54.7867C32.6694 55.5003 32.6694 55.6699 32.0122 56.3731C31.3153 57.1202 30.7502 57.9741 30.0846 58.7401C29.0821 59.8912 28.3329 61.2139 27.4832 62.4613C27.029 63.1268 26.6397 63.8698 26.286 64.617C25.9407 65.3474 25.5054 66.0359 25.1873 66.781C24.9529 67.3314 24.7561 67.9028 24.4736 68.4302C24.1408 69.0539 24.0069 69.7466 23.7034 70.3829C23.4188 70.9815 23.1948 71.6323 23.0881 72.2832C22.9918 72.8755 22.7072 73.3904 22.5586 73.9596C22.2488 75.1421 22.1861 76.3707 21.7779 77.5343C21.6105 78.0115 21.6335 78.564 21.6168 79.083C21.5959 79.6774 21.5268 80.2593 21.3656 80.8327C21.2526 81.2345 21.1898 81.6468 21.1919 82.0696C21.1961 83.9302 21.1898 85.7929 21.1982 87.6534C21.2003 88.0678 21.2798 88.4843 21.284 88.8987C21.2882 89.3466 21.0517 89.6103 20.5829 89.6396C19.955 89.6794 19.5574 89.4805 19.5093 88.9992C19.369 87.5844 19.2728 86.1654 19.166 84.828L19.1681 84.8259Z" fill="#004294"/>
<path d="M59.4624 84.8488C59.3369 82.714 61.2267 80.167 64.1924 80.234C66.7248 80.2905 68.6544 82.375 68.6419 84.7421C68.6314 87.2096 66.6913 89.2773 64.0584 89.315C61.4779 89.3527 59.4185 86.9961 59.4603 84.8488H59.4624Z" fill="#005EA4"/>
<path d="M93.1141 82.4838C93.1246 83.1326 92.9969 83.2707 92.3816 83.277C91.7035 83.2833 91.5905 83.1661 91.5507 82.5131C91.4586 81.0167 91.1028 79.5705 90.7617 78.1138C90.5796 77.3353 90.3305 76.5776 90.0961 75.82C89.8241 74.9473 89.4725 74.0913 89.0685 73.273C88.5579 72.237 88.0388 71.2031 87.413 70.2236C86.7203 69.1395 85.9752 68.0993 85.1527 67.1136C83.7086 65.3807 82.0636 63.857 80.2407 62.5385C79.0812 61.6972 77.8653 60.9354 76.5781 60.2803C75.7263 59.847 74.839 59.508 73.9851 59.0852C73.5707 58.8801 73.106 58.7357 72.6623 58.6248C71.1701 58.246 69.7239 57.6663 68.1647 57.5721C67.6394 57.5407 67.3192 57.0112 67.4301 56.3456C67.518 55.8224 67.924 55.9312 68.2945 55.9501C69.3974 56.0108 70.4585 56.3289 71.5092 56.5947C72.6707 56.8898 73.8323 57.2372 74.9457 57.7395C76.3228 58.359 77.7376 58.9032 79.0059 59.7278C80.2365 60.5293 81.5153 61.2597 82.6203 62.2581C83.5245 63.0743 84.46 63.857 85.2867 64.7528C86.6512 66.2325 87.9446 67.7686 88.9199 69.5518C89.2255 70.1106 89.575 70.6527 89.9224 71.1863C90.2489 71.6886 90.3996 72.2621 90.6382 72.7916C90.8475 73.2541 91.084 73.7187 91.2765 74.198C91.7663 75.4244 92.0279 76.7137 92.4486 77.9569C92.5804 78.3461 92.5846 78.7773 92.6516 79.1896C92.8336 80.2841 93.1246 81.3641 93.1141 82.4859V82.4838Z" fill="#7FC2EE"/>
<path d="M60.6972 79.7906C60.7056 80.0961 60.5675 80.2594 60.4042 80.3891C59.9354 80.7596 59.5566 81.2074 59.1966 81.6763C58.9769 81.963 58.7278 81.9546 58.483 81.7265C57.9639 81.2409 57.4512 80.7491 56.9426 80.2531C55.2829 78.6437 53.6254 77.0321 51.9657 75.4206C49.6719 73.1917 47.3676 70.9732 45.0863 68.7296C43.4183 67.0867 41.8026 65.3935 40.1262 63.7569C38.5502 62.2186 36.922 60.7306 35.3251 59.2132C35.0739 58.9746 34.8605 58.6963 34.6365 58.4305C34.5549 58.3321 34.3728 58.2296 34.4963 58.0894C34.6219 57.9449 34.7977 58.0559 34.9212 58.1417C35.3063 58.4075 35.7123 58.6565 36.0555 58.9705C36.9157 59.7511 37.8345 60.4627 38.7072 61.2224C39.9902 62.3379 41.2857 63.4409 42.5874 64.5355C44.0085 65.7284 45.4359 66.913 46.859 68.1017C47.8448 68.9243 48.8263 69.751 49.8121 70.5735C51.1034 71.6492 52.4031 72.7187 53.6902 73.7986C55.1113 74.9895 56.4947 76.2305 57.9535 77.3733C58.8136 78.0493 59.6006 78.8069 60.4649 79.4745C60.5968 79.5771 60.6868 79.6922 60.6931 79.7906H60.6972Z" fill="#49B2E4"/>
<path d="M68.514 59.2654C69.7363 59.4496 70.9711 59.6777 72.1431 60.1883C72.614 60.3934 73.1267 60.496 73.6165 60.6676C75.6277 61.3792 77.4088 62.5031 79.1919 63.6228C79.8345 64.0267 80.387 64.5771 80.9793 65.0606C81.019 65.092 81.0776 65.1359 81.0776 65.1757C81.0818 65.588 80.7051 65.724 80.4749 65.9564C80.3221 66.1112 80.1212 66.2598 79.8889 66.0254C78.765 64.889 77.3795 64.1083 76.0442 63.2754C75.3034 62.8128 74.4829 62.4612 73.6521 62.164C73.1979 62.0008 72.7647 61.781 72.3189 61.599C71.622 61.3164 70.8811 61.2055 70.1904 60.9188C69.7865 60.7492 69.347 60.7178 68.9096 60.7095C68.4324 60.699 68.0724 60.519 67.9238 60.0209C67.7668 59.4998 67.951 59.2403 68.5161 59.2675L68.514 59.2654Z" fill="#AAD3F3"/>
</svg>
