<svg width="128" height="129" viewBox="0 0 128 129" fill="none" xmlns="http://www.w3.org/2000/svg">
<rect width="128" height="128" transform="translate(0 0.416748)" fill="#DD7352"/>
<path d="M64 27.5441V58.2714C64 61.6653 66.7304 64.4167 70.0981 64.4167C73.3315 64.4167 75.9769 61.881 76.1835 58.6754L76.1963 58.2714L76.1967 37.1893L77.4273 38.3942C77.6337 38.5992 77.8406 38.8063 78.0477 39.0154L79.2951 40.2927C79.5034 40.5093 79.7118 40.7278 79.9202 40.9479L81.1689 42.2893L82.4099 43.6687L83.6366 45.0824C90.1281 52.707 95.7104 61.6371 95.7104 69.3332C95.7104 86.982 81.5134 101.289 64 101.289C46.4868 101.289 32.2896 86.982 32.2896 69.3332C32.2896 61.9607 37.4125 53.4556 43.5499 46.0508L44.6761 44.717C44.8653 44.4969 45.0553 44.278 45.2458 44.0602L46.3952 42.7684L47.5532 41.5083L48.7144 40.2829L49.8732 39.0952L51.0242 37.9481L52.1619 36.8446L53.2807 35.7878L54.3755 34.7805L55.4402 33.8258L56.4698 32.9266L57.4587 32.086L58.4012 31.307L59.7164 30.2602L60.5192 29.648L61.5993 28.8655L62.2282 28.4387L62.7782 28.0913C63.3714 27.7336 63.7918 27.5441 64 27.5441ZM56.1944 43.8541L55.182 44.871C54.4341 45.631 53.694 46.4054 52.9692 47.1879C44.9472 55.8482 40.0952 64.1023 40.0952 69.3332C40.0952 82.6378 50.7978 93.4232 64 93.4232C77.2022 93.4232 87.9049 82.6378 87.9049 69.3332C87.9049 66.5768 86.5773 63.0411 84.2231 59.1071L83.9898 58.7261L83.9849 58.9298L83.9727 59.1849C83.4992 66.5366 77.438 72.283 70.0981 72.283C62.598 72.283 56.4847 66.2982 56.2044 58.8088L56.1944 58.2714V43.8541Z" fill="white"/>
</svg>
