<svg width="128" height="128" viewBox="0 0 128 128" fill="none" xmlns="http://www.w3.org/2000/svg">
<rect width="128" height="128" fill="white"/>
<rect width="128" height="128" fill="#EF3346"/>
<path d="M98.9711 123.711H28.242C14.6341 123.711 3.55792 112.634 3.55792 98.9737V28.2446C3.55792 14.6367 14.6341 3.56055 28.242 3.56055H98.9711C112.632 3.56055 123.655 14.6367 123.655 28.2446V98.9737C123.708 112.634 112.632 123.711 98.9711 123.711Z" fill="#EF3346"/>
<path d="M46.3873 56.779C46.3873 55.7767 45.7019 55.0913 44.6996 55.0913H32.9905C31.9884 55.0913 31.3027 55.7767 31.3027 56.779V68.4352C31.3027 69.4375 31.9884 70.1233 32.9905 70.1233H44.6468C45.6491 70.1233 46.3345 69.4375 46.3345 68.4352V56.779H46.3873Z" fill="#191E3B"/>
<path d="M72.1782 82.6228C72.1782 81.6205 71.44 80.9351 70.4905 80.9351H58.8343C57.832 80.9351 57.1466 81.6205 57.1466 82.6228V94.279C57.1466 95.2813 57.832 95.9671 58.8343 95.9671H70.4905C71.4928 95.9671 72.1782 95.2813 72.1782 94.279V82.6228Z" fill="#191E3B"/>
<path d="M72.1782 56.779C72.1782 55.7767 71.4928 55.0913 70.4905 55.0913H58.8343C57.832 55.0913 57.1466 55.7767 57.1466 56.779V68.4352C57.1466 69.4375 57.832 70.1233 58.8343 70.1233H70.4905C71.4928 70.1233 72.1782 69.4375 72.1782 68.4352V56.779Z" fill="#FDDB32"/>
<path d="M102.086 32.8849C102.086 28.6128 98.6581 25.1843 94.3857 25.1843H36.9481C35.7877 25.1843 35.102 25.6064 34.4164 26.3446L22.8655 37.8428C22.0216 38.6866 22.6018 40.0054 23.8676 40.0054H87.2656V103.403C87.2656 104.669 88.5312 105.249 89.4279 104.405L100.979 92.9073C101.717 92.1687 102.086 91.4833 102.086 90.3229V32.8849Z" fill="#191E3B"/>
</svg>
