<svg width="128" height="128" viewBox="0 0 128 128" fill="none" xmlns="http://www.w3.org/2000/svg">
<rect width="128" height="128" fill="#F54600"/>
<path d="M89.5111 60.6076V45.2247C91.9039 43.6897 93.735 41.4207 94.7301 38.7577C95.7253 36.0947 95.8308 33.1809 95.031 30.4529C94.2312 27.7248 92.5691 25.3293 90.2936 23.6252C88.0181 21.9211 85.2517 21 82.4088 21C79.566 21 76.7996 21.9211 74.5241 23.6252C72.2486 25.3293 70.5865 27.7248 69.7867 30.4529C68.9869 33.1809 69.0924 36.0947 70.0875 38.7577C71.0826 41.4207 72.9138 43.6897 75.3066 45.2247V60.9579C74.1158 61.3496 72.9554 61.8286 71.8351 62.3911L55.5286 45.9891C55.8637 44.8404 56.0352 43.6503 56.0382 42.4539C56.0508 39.8497 55.2901 37.3004 53.8525 35.1289C52.4149 32.9575 50.365 31.2617 47.9627 30.2563C45.5603 29.251 42.9136 28.9814 40.3579 29.4817C37.8022 29.982 35.4525 31.2297 33.6066 33.0667C31.7607 34.9037 30.5016 37.2473 29.9889 39.8005C29.4762 42.3538 29.7329 45.0018 30.7266 47.409C31.7202 49.8162 33.4061 51.8742 35.5705 53.3224C37.7349 54.7705 40.2805 55.5436 42.8847 55.5436C43.7842 55.5445 44.6812 55.4484 45.56 55.257L61.8984 71.4679C60.9976 72.9731 60.271 74.5758 59.7327 76.2452H45.2097C44.0641 73.6191 42.0924 71.4389 39.5942 70.036C37.0961 68.633 34.2083 68.0841 31.3696 68.4727C28.531 68.8612 25.8969 70.166 23.8677 72.1887C21.8385 74.2113 20.5252 76.8412 20.1274 79.6786C19.7296 82.5159 20.2692 85.4055 21.664 87.9082C23.0588 90.4108 25.2326 92.3896 27.855 93.5437C30.4774 94.6979 33.4049 94.9642 36.1924 94.3022C38.98 93.6403 41.4752 92.0863 43.2988 89.8764H59.3823C60.4567 93.9722 62.5868 97.7145 65.5599 100.73C68.533 103.745 72.245 105.927 76.3253 107.059C80.4057 108.191 84.7115 108.232 88.8129 107.18C92.9144 106.127 96.6679 104.017 99.6986 101.06C102.729 98.1024 104.931 94.402 106.085 90.3277C107.238 86.2534 107.303 81.9478 106.271 77.8409C105.24 73.7339 103.15 69.9693 100.209 66.923C97.2679 63.8766 93.5792 61.6551 89.5111 60.4802V60.6076Z" fill="white"/>
</svg>
