<svg width="128" height="128" viewBox="0 0 128 128" fill="none" xmlns="http://www.w3.org/2000/svg">
<rect width="128" height="128" fill="black"/>
<path d="M35.0753 63.9704C35.0753 59.0407 35.0753 54.1084 35.0753 49.1788C35.0753 48.6869 35.1552 48.4998 35.7066 48.5104C37.5446 48.5505 39.3878 48.5479 41.2258 48.5104C41.7585 48.5104 41.8384 48.6602 41.8358 49.1414C41.8171 52.7183 41.8358 56.2952 41.8145 59.8695C41.8145 60.3721 41.9157 60.5485 42.4564 60.5325C43.7749 60.495 43.7749 60.5325 43.7749 59.2252C43.7749 55.8488 43.7749 52.4723 43.7749 49.0959C43.7749 48.6281 43.9001 48.5051 44.3609 48.5131C46.2468 48.5399 48.1318 48.5399 50.0159 48.5131C50.4528 48.5131 50.5487 48.6281 50.5487 49.0612C50.538 59.0416 50.538 69.015 50.5487 78.9812C50.5487 79.3796 50.4688 79.5159 50.0452 79.4999C48.1629 79.4731 46.2788 79.4731 44.3929 79.4999C43.9055 79.4999 43.7616 79.3983 43.7643 78.8877C43.7882 74.8776 43.7643 70.8462 43.7909 66.8255C43.7909 66.2454 43.687 66.0235 43.0504 66.0556C41.8304 66.1117 41.8278 66.0716 41.8278 67.2773C41.8278 71.143 41.8278 75.006 41.8278 78.8716C41.8278 79.3635 41.7159 79.5105 41.2071 79.4999C39.3905 79.4678 37.5712 79.4651 35.7546 79.4999C35.2218 79.4999 35.0567 79.4009 35.0594 78.8262C35.086 73.8778 35.0753 68.9241 35.0753 63.9704Z" fill="white"/>
<path d="M97.5921 61.4014C97.5921 57.2978 97.5921 53.2316 97.5921 49.1682C97.5921 48.6576 97.704 48.4998 98.2341 48.5132C99.85 48.5506 101.468 48.5506 103.087 48.5132C103.62 48.5132 103.783 48.6174 103.78 49.1895C103.759 57.1401 103.754 65.0906 103.767 73.0411C103.767 74.9739 103.751 76.9041 103.767 78.8369C103.767 79.3235 103.692 79.5267 103.135 79.5053C101.83 79.4571 100.52 79.4625 99.2143 79.5053C98.7135 79.5213 98.5377 79.3395 98.4152 78.8931C97.2787 74.8189 96.1298 70.7492 94.9684 66.6839C94.9229 66.4631 94.8199 66.2584 94.6701 66.0904V66.7775C94.6701 70.7875 94.6701 74.8189 94.6701 78.8369C94.6701 79.3368 94.5768 79.5186 94.0308 79.5053C92.3686 79.4652 90.7038 79.4759 89.0417 79.5053C88.6048 79.5053 88.4397 79.4331 88.4397 78.9385C88.4557 68.9919 88.4557 59.0426 88.4397 49.0906C88.4397 48.5987 88.5995 48.5132 89.0417 48.5212C90.4588 48.5479 91.8785 48.5613 93.3036 48.5212C93.8363 48.5052 94.0201 48.7003 94.148 49.1815C95.1975 53.1167 96.2789 57.0465 97.3444 60.9763C97.3843 61.0993 97.379 61.2757 97.5921 61.4014Z" fill="white"/>
<path d="M23.7894 63.9758V72.9689C23.7894 73.1026 23.7894 73.2363 23.7894 73.3699C23.8134 73.8698 23.9413 74.3163 24.5299 74.3751C25.1186 74.4339 25.4835 74.0195 25.4889 73.3459C25.5049 71.7018 25.5155 70.0576 25.4889 68.4135C25.4889 67.911 25.6141 67.7853 26.1122 67.7933C27.9075 67.8254 29.7028 67.8174 31.4981 67.7933C31.919 67.7933 32.0708 67.8842 32.0522 68.328C31.9776 70.2341 32.1747 72.1482 31.927 74.049C31.4822 77.4334 29.4311 79.4545 26.0669 79.8795C24.3089 80.1014 22.5801 80.0212 20.9286 79.3448C18.2303 78.2301 17.2714 75.9845 17.0317 73.2844C17.005 73.0865 17.005 72.886 17.005 72.6855C17.005 66.7347 16.9784 60.7838 17.0477 54.8303C17.0743 52.705 17.8041 50.7909 19.5755 49.4355C20.2298 48.9475 20.9713 48.5899 21.7597 48.3822C23.5401 47.8866 25.4195 47.8728 27.2069 48.3421C29.8387 49.0158 31.5381 51.0502 31.9217 53.8812C32.1641 55.6964 31.9909 57.5197 32.0495 59.3375C32.0495 59.6583 31.9057 59.6904 31.6473 59.6904C29.7401 59.6904 27.8356 59.6771 25.9284 59.6904C25.5342 59.6904 25.4489 59.5514 25.4542 59.1878C25.4702 57.8111 25.4542 56.4343 25.4542 55.0575C25.4649 54.8794 25.4649 54.7009 25.4542 54.5228C25.393 54.0042 25.1479 53.6353 24.5752 53.646C24.0025 53.6567 23.8001 54.055 23.8001 54.5843C23.8001 54.9827 23.8001 55.3863 23.8001 55.782L23.7894 63.9758Z" fill="white"/>
<path d="M68.4461 79.0535C68.3422 78.3958 68.2516 77.7382 68.201 77.0752C68.0226 74.728 68.1051 72.3755 68.1185 70.0229C68.1503 69.1455 67.9674 68.2737 67.5857 67.4837C67.204 66.6938 66.6351 66.0097 65.9289 65.4916C65.5773 65.2243 65.6093 65.1494 65.9449 64.9222C66.5927 64.5159 67.1286 63.9531 67.5037 63.2853C67.8787 62.6174 68.0809 61.8658 68.0918 61.0993C68.1415 58.8804 68.1344 56.6606 68.0705 54.44C68.0252 52.8761 67.5378 51.4378 66.3764 50.315C64.9833 48.9783 63.2386 48.572 61.3927 48.5453C58.8888 48.5105 56.3849 48.5453 53.8811 48.5239C53.327 48.5239 53.1432 48.6121 53.1485 49.227C53.1778 54.1566 53.1645 59.0836 53.1645 64.0132C53.1645 68.9857 53.1645 73.9581 53.1645 78.9305C53.1645 79.3983 53.2764 79.5213 53.7452 79.5133C55.6098 79.4839 57.4744 79.4785 59.3389 79.5133C59.8717 79.5133 59.9836 79.3556 59.9809 78.8476C59.9596 75.4739 59.9809 72.1001 59.9596 68.7263C59.9596 68.1917 60.1327 68.0847 60.6149 68.2184C61.414 68.4403 61.414 69.0819 61.4273 69.7021C61.4433 71.8746 61.4433 74.0499 61.4273 76.2277C61.4371 77.181 61.5343 78.1314 61.7176 79.0668C61.7629 79.3342 61.8242 79.5079 62.1625 79.5053C64.1549 79.4928 66.1491 79.4928 68.1451 79.5053C68.4994 79.4999 68.494 79.3475 68.4461 79.0535ZM61.4086 61.2624C61.3968 61.483 61.3611 61.7017 61.3021 61.9147C61.2666 62.1107 61.1648 62.2886 61.0139 62.4181C60.863 62.5476 60.6722 62.621 60.4737 62.6258C60.0608 62.6873 59.9409 62.6097 59.9409 62.174C59.9676 60.8667 59.9409 59.5568 59.9409 58.2495C59.9409 56.985 59.9409 55.7205 59.9409 54.456C59.9409 53.8331 60.226 53.6701 60.7907 53.9695C61.3554 54.2689 61.3953 54.8089 61.398 55.3409C61.4193 57.3138 61.4166 59.2894 61.4086 61.2624Z" fill="white"/>
<path d="M86.045 56.338C86.0473 55.5616 86.0028 54.7858 85.9118 54.0148C85.5842 51.296 83.8475 49.144 81.3836 48.4409C79.5236 47.9146 77.5616 47.8659 75.6779 48.2992C74.572 48.5254 73.5449 49.0399 72.6999 49.791C71.0538 51.272 70.4731 53.2075 70.4651 55.3355C70.4411 61.0644 70.4651 66.7934 70.4651 72.5251C70.4593 72.8132 70.4682 73.1014 70.4917 73.3886C70.7182 75.6235 71.5173 77.5563 73.4964 78.8048C75.0946 79.8073 76.8686 80.0505 78.7065 79.9917C80.3713 79.9383 81.9589 79.5827 83.3307 78.5856C85.2219 77.2088 85.9438 75.2118 85.9944 72.9902C86.0796 70.0175 86.0157 67.0394 86.0157 64.0639H86.037C86.0423 61.4895 86.037 58.9124 86.045 56.338ZM79.2606 73.18C79.2606 73.6185 79.1887 74.0302 78.7598 74.2494C78.5855 74.348 78.3863 74.3935 78.1867 74.3802C77.987 74.3669 77.7955 74.2954 77.6357 74.1745C77.2628 73.9313 77.2042 73.5383 77.2042 73.1293C77.2042 72.1535 77.2042 71.175 77.2042 70.1886C77.2042 65.2411 77.2042 60.2927 77.2042 55.3435C77.2011 55.0997 77.2127 54.856 77.2389 54.6137C77.3214 53.9026 77.6464 53.6058 78.3043 53.6219C78.9063 53.6379 79.2499 54.0148 79.2579 54.7286C79.2712 55.8167 79.2579 56.9021 79.2579 57.9901V64.0613C79.2579 67.1018 79.2588 70.1422 79.2606 73.1827V73.18Z" fill="white"/>
<path d="M112 72.9288H106.164V79.4812H112V72.9288Z" fill="#54EEFE"/>
</svg>
