<svg width="128" height="128" viewBox="0 0 128 128" fill="none" xmlns="http://www.w3.org/2000/svg">
<rect width="128" height="128" fill="#F8761F"/>
<path d="M94.4059 61.7256C92.7841 58.9602 90.47 56.6639 87.691 55.0621C85.5694 53.8304 83.3755 53.0481 80.8984 52.7096V43.849C82.0997 43.3517 83.124 42.5058 83.8389 41.4208C84.5538 40.3357 84.9264 39.0613 84.9085 37.7625C84.9129 36.8853 84.7437 36.016 84.4107 35.2043C84.0778 34.3927 83.5875 33.6548 82.9682 33.033C82.3489 32.4112 81.6127 31.9178 80.8019 31.5812C79.9911 31.2445 79.1217 31.0712 78.2436 31.0712C76.4651 31.0712 74.7591 31.7754 73.4994 33.0297C72.2397 34.2839 71.5291 35.9858 71.5232 37.7625C71.5232 40.4811 72.9672 42.8003 75.4499 43.849V52.6597C73.3934 52.957 71.3981 53.5827 69.5404 54.5128L45.7968 36.5529C45.9634 35.926 46.1078 35.2768 46.1078 34.5944C46.1078 30.4997 42.7865 27.1818 38.6876 27.1818C34.5887 27.1818 31.2729 30.4997 31.2729 34.5944C31.2729 38.689 34.5943 42.0069 38.6932 42.0069C40.0928 42.0069 41.3869 41.5963 42.5032 40.925L44.0584 42.1012L65.3582 57.4423C64.2307 58.4743 63.181 59.6505 62.3423 60.971C60.6428 63.662 59.6042 66.6192 59.6042 69.8483V70.5141C59.6117 72.704 60.0066 74.8754 60.7705 76.928C61.4148 78.6813 62.359 80.2792 63.5309 81.7217L56.455 88.8069C54.3612 88.0302 52.0118 88.5462 50.4289 90.1274C49.3514 91.1982 48.746 92.6575 48.7516 94.1777C48.7571 95.6979 49.3514 97.146 50.4344 98.228C51.5175 99.3099 52.9671 99.9091 54.4889 99.9091C56.0107 99.9091 57.4714 99.3099 58.5434 98.228C59.6153 97.146 60.2262 95.6979 60.2207 94.1777C60.2203 93.5941 60.1303 93.0141 59.9541 92.4577L67.2632 85.1561C68.263 85.8497 69.346 86.4323 70.5124 86.9316C72.9096 87.9819 75.4982 88.5259 78.1159 88.5295H78.6157C81.6816 88.5295 84.5752 87.8082 87.2912 86.3379C90.0829 84.8425 92.4284 82.6353 94.0893 79.9407C95.7944 77.222 96.7275 74.2093 96.7275 70.897V70.7305C96.7275 67.4737 95.9721 64.472 94.3948 61.7201L94.4059 61.7256ZM85.4805 77.0501C83.4977 79.2527 81.215 80.6121 78.6379 80.6121H78.1492C76.6774 80.6121 75.2333 80.207 73.8281 79.4636C72.2874 78.6632 70.9819 77.4757 70.0403 76.0181C69.0183 74.5755 68.4629 72.9998 68.4629 71.3297V70.8304C68.4629 69.1881 68.7795 67.629 69.5737 66.1587C70.4235 64.4942 71.5732 63.3013 73.1005 62.3082C74.6279 61.315 76.1997 60.8379 77.9881 60.8379H78.1547C79.7654 60.8379 81.3039 61.1541 82.7479 61.8921C84.2108 62.6607 85.4534 63.7892 86.3581 65.1711C87.2537 66.5569 87.8076 68.1351 87.9743 69.7762L88.0132 70.8138C88.0132 73.0719 87.1468 75.1636 85.4194 77.0611L85.4805 77.0501Z" fill="white"/>
</svg>
