<svg width="128" height="128" viewBox="0 0 128 128" fill="none" xmlns="http://www.w3.org/2000/svg">
<rect width="128" height="128" fill="#003984"/>
<path fill-rule="evenodd" clip-rule="evenodd" d="M74.6276 70.175C75.3858 74.0939 73.3319 77.3491 71.6252 80.5086C69.7294 83.4483 66.6007 85.9749 62.84 85.5968C54.4011 85.4704 46.1533 84.1748 38.5045 81.867C38.1573 81.7724 37.81 81.5505 37.6199 81.235C37.4616 80.7922 37.6836 80.3812 37.999 80.0976C44.984 74.4401 53.2955 71.818 61.5125 69.0673C64.5775 68.1826 67.8337 67.2342 71.2779 67.6771C72.6989 67.8672 74.121 68.8475 74.6276 70.175ZM103.418 53.4256C107.337 56.6489 110.877 61.0426 109.676 66.3517C107.716 74.1895 99.1839 78.3612 92.389 81.0152C88.691 82.2482 84.9622 83.5131 80.9169 83.8923C80.6642 83.8604 80.2532 83.9231 80.1894 83.5439L80.284 83.1021C86.0359 76.6226 90.3966 69.3551 94.2221 61.991C95.9914 58.6721 97.6355 55.2598 99.1521 51.9091C99.373 51.6563 99.5949 51.5299 99.8477 51.4354C101.269 51.5607 102.281 52.6674 103.418 53.4256ZM48.2689 45.0823L48.1425 45.556C39.831 55.0049 34.3637 65.9715 29.1809 76.8743C28.1699 77.8227 27.1896 76.5578 26.2731 76.1468C21.6585 73.1137 17.4869 68.2145 18.688 62.3998C20.6156 54.8159 28.4216 50.7706 34.9329 48.022C38.7881 46.5681 42.8026 45.3988 47.0369 44.735C47.4798 44.734 48.048 44.6713 48.2689 45.0823ZM89.513 46.5989C89.9867 46.8517 90.556 46.9462 90.8406 47.4198C91.0933 47.9572 90.5878 48.3045 90.3032 48.6529C83.7611 53.7719 76.2716 56.6171 68.6228 59.1139C64.7347 60.0623 60.8158 61.769 56.4869 60.8206C55.4748 60.5678 54.5593 59.9041 53.9901 58.9238C52.9153 55.9533 54.3692 52.8564 55.633 50.265C57.3079 47.0099 60.2794 43.1855 64.3874 43.1228C73.2363 43.0591 81.5796 44.3867 89.513 46.5989ZM100.448 46.8517C107.148 50.5178 114.733 56.9644 113.943 65.5605C113.026 73.5247 105.6 79.0865 98.963 82.4373C79.5894 91.6972 52.379 91.9807 32.3734 83.8912C25.6093 81.0789 18.0243 76.2435 15.1791 68.9738C12.9987 63.001 15.6527 56.7753 20.1101 52.6355C29.4326 44.1658 41.3158 41.259 53.5472 39.5831C66.8216 37.9709 80.7895 39.393 92.6726 43.4701C95.3277 44.4504 97.9509 45.5252 100.448 46.8517Z" fill="white"/>
</svg>
