<svg width="128" height="128" viewBox="0 0 128 128" fill="none" xmlns="http://www.w3.org/2000/svg">
<rect width="128" height="128" fill="#343566"/>
<path d="M42.8764 70.3888C45.4085 68.3659 46.4405 66.1916 45.3947 63.4256C44.3488 60.6733 42.1057 59.6825 39.3672 59.6274C36.4773 59.5586 33.5874 59.5586 30.6975 59.5448C28.771 59.5311 27.5462 60.4669 27.5187 62.421C27.4499 68.2008 27.4361 73.9943 27.5049 79.7741C27.5324 81.8383 28.771 82.8841 30.8902 82.8428C33.5461 82.8016 36.2159 82.8566 38.8718 82.8016C42.147 82.7465 44.8029 81.563 45.9589 78.2741C47.1149 74.9989 45.9451 72.4117 42.8764 70.3888ZM32.6792 64.1824L32.6929 63.7421L33.1884 63.7283L37.9911 63.7421C38.6929 63.8109 39.436 64.1824 39.9589 64.6778C40.991 65.6274 40.7296 67.3063 39.5874 68.0356C38.0874 68.9989 32.6792 68.6686 32.6792 68.6686V64.1824ZM40.4819 77.3658C39.5736 78.508 38.2388 78.5906 36.9314 78.6319C36.9177 78.6319 32.7205 78.6456 32.7205 78.6456L32.7067 72.7833H37.881C39.1333 73.0035 40.2617 73.4989 40.6883 74.3383C41.1699 75.2741 41.1562 76.5126 40.4819 77.3658Z" fill="white"/>
<path d="M82.3303 68.9577C82.3303 67.788 82.344 66.5494 81.0505 65.9715C79.6743 65.3659 78.5872 65.9714 77.6514 67.1549C73.578 64.7467 70.3992 64.843 67.9359 67.3338C65.1423 70.1411 64.6882 75.5906 67.0001 78.9209C68.1836 80.6135 69.8212 81.5768 71.8854 81.8934C73.9771 82.2099 75.7661 81.3154 77.6652 80.2557C77.156 85.1961 75.367 86.1869 71.2248 84.1777C71.0184 84.0814 70.812 83.9713 70.6193 83.8475C69.3258 83.1181 68.1423 83.1456 67.3854 84.5768C66.601 86.0493 67.468 86.9713 68.6377 87.6869C71.0459 89.1731 73.7156 89.2006 76.3578 88.7328C80.1973 88.0447 82.1789 85.719 82.289 81.7833C82.4128 77.5035 82.344 73.2237 82.3303 68.9577ZM75.5046 77.4209C73.2615 78.5493 70.7432 76.898 70.3579 74.5585C70.0138 72.5219 71.0322 69.9072 73.2615 69.4668C73.3991 69.4393 73.5368 69.4393 73.6606 69.4531C77.4725 68.476 79.2202 75.5494 75.5046 77.4209Z" fill="white"/>
<path d="M63.7386 75.4255C64.8533 69.3016 61.6744 65.2696 56.1836 65.3246C52.468 65.3659 49.3992 67.4851 48.1607 70.8567C46.7846 74.6135 47.7479 79.0172 50.4726 81.3979C52.8946 83.5171 57.5597 84.0125 60.6148 82.4988C62.5826 81.5217 63.4221 79.9942 62.5414 78.7144C61.3579 77.008 60.0093 77.6273 58.7019 78.6594C58.523 78.797 58.3304 78.9484 58.124 79.0309C55.5231 80.1181 53.7478 79.0722 52.9634 75.8796C56.5001 75.3704 60.0918 76.0585 63.7386 75.4255ZM53.0047 72.109C53.046 71.0356 53.9267 69.8659 54.8487 69.4943C57.4359 68.4622 58.757 70.0448 59.0047 70.4989C59.1973 70.8292 59.2937 71.2282 59.3487 71.6136C59.39 71.82 59.4588 72.0126 59.4175 72.0814C59.3762 72.1502 53.0047 72.0952 53.0047 72.109Z" fill="white"/>
<path d="M106.523 69.3291C106.495 73.5401 106.468 77.7511 106.44 81.9758C103.468 83.7923 102.202 83.2418 102.064 79.9666C101.968 77.6547 102.092 75.3428 102.023 73.0447C101.968 71.3658 101.651 69.7282 99.5045 69.5355C97.798 69.3841 96.6283 70.6915 96.532 72.9896C96.4219 75.2878 96.5182 77.6134 96.477 79.9116C96.4494 81.5492 95.9678 83.0354 94.0412 83.0629C92.0733 83.1042 91.6192 81.6593 91.6329 79.9804C91.6329 76.2924 91.6192 72.5905 91.6329 68.9025C91.6329 67.6364 91.5779 66.3016 93.1467 65.7511C94.6192 65.242 95.5962 65.8888 96.3118 67.086C101.775 64.2649 104.321 64.8291 106.523 69.3291Z" fill="white"/>
<path d="M20.8857 81.274C20.8857 76.6227 20.8857 71.9851 20.8857 67.3337C21.5463 65.8475 22.6472 65.2558 24.216 65.8062C25.716 66.3429 25.7297 67.664 25.7297 68.9576C25.7435 72.5218 25.7297 76.086 25.7297 79.6639C25.7297 80.9575 25.6472 82.2511 24.1885 82.829C22.5646 83.4483 21.56 82.6914 20.8857 81.274Z" fill="white"/>
<path d="M89.8164 74.3658C89.8164 76.4438 89.8439 78.508 89.8026 80.5859C89.7751 82.0859 88.9357 83.0217 87.477 83.0492C86.0045 83.0767 85.0825 82.1135 85.055 80.6548C84.9862 76.4025 84.9724 72.1365 85.0687 67.8842C85.0962 66.4393 86.0595 65.531 87.5595 65.6273C89.032 65.7237 89.8164 66.6182 89.8164 68.1457C89.8164 70.2236 89.8164 72.2878 89.8164 74.3658Z" fill="white"/>
<path d="M87.4495 63.8246C85.9908 63.6181 85 62.8062 85.055 61.375C85.0963 59.9989 86.0183 59.0356 87.5045 59.0356C89.032 59.0218 89.8164 59.9714 89.8164 61.4301C89.8164 62.9438 88.8256 63.6181 87.4495 63.8246Z" fill="white"/>
<path d="M25.7297 61.4439C25.4132 62.8062 24.6976 63.8521 23.2251 63.7558C21.849 63.6732 20.8719 62.8475 20.9132 61.3338C20.9545 59.8338 21.9316 59.0356 23.349 59.0494C24.8352 59.0494 25.4957 60.0953 25.7297 61.4439Z" fill="white"/>
<path d="M105.532 49.9806C105.532 49.9806 105.532 50.1733 105.532 50.531H104.252V51.8659L100.812 51.8934L100.784 54.4943L97.509 54.4668L97.4814 56.1319L93.8209 56.0631L93.876 47.8613L87.4219 47.8063V52.031H79.5091L79.4816 58.0172H77.1972V49.3338H74.266L74.2385 44.5449H69.2293L69.2018 50.5723L66.711 50.5999V42.6458H63.0505L63.0643 48.632L59.1835 48.6182V54.0402L57.0505 53.9989L57.0781 42.054L57.0505 38.999H53.5827L53.5964 40.1963L53.6102 44.4485L52.2478 44.4348V52.8705L50.8854 52.8567V54.3842L48.0506 54.3705L48.0644 52.7191H46.7295L45.6148 52.7053L45.6011 50.6687L43.8947 50.6411V52.7466H42.3947V52.031H38.514V56.1319L33.4498 56.1182L31.936 56.0906L31.9223 57.5631H32.7617C35.0874 57.5631 37.3993 57.5631 39.725 57.5769C41.1562 57.5494 42.3259 58.2925 43.5644 58.8429C46.2341 60.0264 47.6653 61.9392 47.4176 64.953C47.3488 65.7374 47.3901 66.5493 47.3901 67.3474C47.6102 67.5951 47.8304 67.5951 48.0506 67.3474C49.5919 64.43 52.413 63.7695 55.3028 63.453C59.2799 63.0264 62.5276 64.8979 65.445 67.3474C68.5 63.2741 72.1605 62.3245 75.821 63.9346C76.5366 64.2511 77.1834 64.5952 78.0917 64.2099C80.1008 63.3429 82.0412 63.7007 84.1054 65.5585C83.8577 62.5034 82.3715 59.586 85.3439 57.9209C86.6925 57.164 88.4677 57.2466 89.9677 58.1961C92.5962 59.8613 91.8393 62.1594 90.6558 64.664C92.9264 63.8658 94.6741 63.2603 96.3668 64.6089C96.7796 64.9392 97.1649 65.0218 97.5915 64.6777C100.275 62.4897 105.669 64.6502 105.669 64.6502C105.518 64.6777 107.114 65.9851 107.114 65.9851C107.114 60.6594 107.114 55.3338 107.114 50.0081H105.532V49.9806Z" fill="white"/>
</svg>
