<svg width="128" height="128" viewBox="0 0 128 128" fill="none" xmlns="http://www.w3.org/2000/svg">
<rect width="128" height="128" fill="#59BDEC"/>
<path fill-rule="evenodd" clip-rule="evenodd" d="M32.8177 59.174C33.0205 58.6763 33.3935 58.3331 33.8614 58.1005C34.5219 57.7731 35.2112 57.681 35.9191 57.9163C37.066 58.3033 37.3535 59.4912 36.5172 60.3647C36.0409 60.8596 35.3293 61.1507 34.6912 61.1507C34.0967 61.1582 33.6512 61.0363 33.2567 60.7414C32.7656 60.3731 32.5851 59.7414 32.8177 59.174ZM34.4447 69.7619C34.6986 69.9284 34.9526 70.0856 35.2335 70.2149C35.226 70.2344 35.2223 70.2521 35.2149 70.267H30.5163C30.5126 70.2521 30.5126 70.2381 30.5088 70.2233C30.7191 70.1377 30.9293 70.053 31.1433 69.9712C31.453 69.854 31.6521 69.6512 31.774 69.3265C32.1758 68.2428 32.4679 67.1293 32.7293 66.0037C32.9023 65.2512 33.054 64.4958 33.2195 63.7433C33.2633 63.5516 33.2195 63.4149 33.0465 63.3042C32.8214 63.1572 32.5888 63.0242 32.3498 62.9061C31.5823 62.5377 30.8447 62.12 30.1516 61.6261C30.1107 61.5963 30.066 61.5674 30.026 61.5377C29.9702 61.4977 29.9228 61.453 29.9637 61.3795C30.0037 61.3061 30.0698 61.3572 30.1181 61.3721C30.9516 61.6595 31.8102 61.8512 32.6847 61.9619C33.6074 62.08 34.5284 62.0949 35.454 62.0316C36.8047 61.9395 38.1135 61.6595 39.3935 61.2242C39.4298 61.213 39.4633 61.1944 39.507 61.2205C39.5367 61.3274 39.4595 61.3609 39.3823 61.3907C38.2205 61.84 37.1544 62.4819 36.0447 63.0316C35.8084 63.1488 35.6679 63.3526 35.6093 63.6102C35.174 65.5433 34.7423 67.4754 34.3042 69.4074C34.2633 69.5814 34.3079 69.6735 34.4447 69.7619ZM34.4363 54C28.6726 54 24 58.6726 24 64.4363C24 70.2009 28.6726 74.8735 34.4363 74.8735C40.2009 74.8735 44.8735 70.2009 44.8735 64.4363C44.8735 58.6726 40.2009 54 34.4363 54Z" fill="white"/>
<path fill-rule="evenodd" clip-rule="evenodd" d="M59.9657 64.7989L58.3759 64.7635L58.375 64.7533H57.9136L57.7564 64.7496V64.7533H51.5768V66.9431L57.4401 66.9115C56.5973 69.4817 54.1796 71.3394 51.3266 71.3394C47.774 71.3394 44.894 68.4603 44.894 64.9068C44.894 61.3542 47.774 58.4742 51.3266 58.4742C53.7824 58.4742 55.9154 59.8501 57.0001 61.8724H59.4196C58.1908 58.597 55.0317 56.2659 51.3266 56.2659C46.5545 56.2659 42.6857 60.1347 42.6857 64.9068C42.6857 69.6789 46.5545 73.5477 51.3266 73.5477C56.0996 73.5477 59.9685 69.6789 59.9685 64.9068C59.9685 64.8705 59.9657 64.8352 59.9657 64.7989Z" fill="white"/>
<path fill-rule="evenodd" clip-rule="evenodd" d="M61.2158 73.4719H63.6354V56.2273H61.2158V73.4719Z" fill="white"/>
<path fill-rule="evenodd" clip-rule="evenodd" d="M82.6083 71.2823C80.6139 71.2823 78.9981 69.6665 78.9981 67.6721C78.9981 65.6786 80.6139 64.0619 82.6083 64.0619C84.6027 64.0619 86.2186 65.6786 86.2186 67.6721C86.2186 69.6665 84.6027 71.2823 82.6083 71.2823ZM82.6465 62.0647C81.3469 62.0647 80.1469 62.4963 79.1823 63.2228L79.0362 56.2656H76.8865V68.2479L76.9014 68.2293C77.1088 71.2228 79.6009 73.5866 82.6465 73.5866C85.8279 73.5866 88.4074 71.007 88.4074 67.8256C88.4074 64.6442 85.8279 62.0647 82.6465 62.0647Z" fill="white"/>
<path fill-rule="evenodd" clip-rule="evenodd" d="M94.7858 71.2823C92.7914 71.2823 91.1756 69.6665 91.1756 67.6721C91.1756 65.6786 92.7914 64.0618 94.7858 64.0618C96.7402 64.0618 98.33 65.6144 98.3933 67.553V67.7911C98.33 69.7297 96.7402 71.2823 94.7858 71.2823ZM100.585 67.8256C100.585 67.7856 100.582 67.7465 100.581 67.7065V61.9111H98.3933V63.3046C97.4109 62.5288 96.1719 62.0646 94.824 62.0646C91.6426 62.0646 89.064 64.6442 89.064 67.8256C89.064 71.0069 91.6426 73.5865 94.824 73.5865C96.1719 73.5865 97.4109 73.1223 98.3933 72.3465V73.433H100.581V67.9446C100.582 67.9046 100.585 67.8656 100.585 67.8256Z" fill="white"/>
<path fill-rule="evenodd" clip-rule="evenodd" d="M101.927 73.4719H104V56.2654H101.927V73.4719Z" fill="white"/>
<path fill-rule="evenodd" clip-rule="evenodd" d="M70.1838 71.3786C68.2265 71.3786 66.6405 69.7916 66.6405 67.8344C66.6405 65.8791 68.2265 64.2921 70.1838 64.2921C72.141 64.2921 73.727 65.8791 73.727 67.8344C73.727 69.7916 72.141 71.3786 70.1838 71.3786ZM70.1838 62.1033C67.0191 62.1033 64.4517 64.6698 64.4517 67.8344C64.4517 71.0009 67.0191 73.5675 70.1838 73.5675C73.3493 73.5675 75.9158 71.0009 75.9158 67.8344C75.9158 64.6698 73.3493 62.1033 70.1838 62.1033Z" fill="white"/>
</svg>
