<svg width="128" height="128" viewBox="0 0 128 128" fill="none" xmlns="http://www.w3.org/2000/svg">
<g clip-path="url(#clip0_54_2876)">
<path fill-rule="evenodd" clip-rule="evenodd" d="M0 128H128V0H0V128Z" fill="url(#paint0_linear_54_2876)"/>
<path fill-rule="evenodd" clip-rule="evenodd" d="M24.8425 72.0872H28.4215V59.5962H24.8425V72.0872Z" fill="#6B6161"/>
<path fill-rule="evenodd" clip-rule="evenodd" d="M31.2282 72.0872H34.877V52.4384H31.2282V72.0872Z" fill="#6B6161"/>
<path fill-rule="evenodd" clip-rule="evenodd" d="M76.9823 72.2278H80.632V52.579H76.9823V72.2278Z" fill="#6B6161"/>
<path fill-rule="evenodd" clip-rule="evenodd" d="M28.5617 56.052C28.5617 57.1568 27.6665 58.052 26.5617 58.052C25.4568 58.052 24.5617 57.1568 24.5617 56.052C24.5617 54.9472 25.4568 54.052 26.5617 54.052C27.6665 54.052 28.5617 54.9472 28.5617 56.052Z" fill="#6B6161"/>
<path fill-rule="evenodd" clip-rule="evenodd" d="M43.4449 69.0697C41.6975 69.0697 40.2811 67.6524 40.2811 65.905C40.2811 64.1577 41.6975 62.7413 43.4449 62.7413C45.1922 62.7413 46.6095 64.1577 46.6095 65.905C46.6095 67.6524 45.1922 69.0697 43.4449 69.0697ZM43.4735 59.3855C39.8112 59.3855 36.8419 62.3539 36.8419 66.017C36.8419 69.6794 39.8112 72.6486 43.4735 72.6486C47.1367 72.6486 50.1051 69.6794 50.1051 66.017C50.1051 62.3539 47.1367 59.3855 43.4735 59.3855Z" fill="#6B6161"/>
<path fill-rule="evenodd" clip-rule="evenodd" d="M59.509 68.8073C59.1234 68.974 58.6989 69.07 58.2518 69.07C56.5044 69.07 55.088 67.6527 55.088 65.9054C55.088 64.158 56.5044 62.7407 58.2518 62.7407C58.6989 62.7407 59.1234 62.8359 59.509 63.0035V59.5037C59.1107 59.4287 58.7015 59.385 58.2813 59.385C54.6181 59.385 51.6497 62.3542 51.6497 66.0174C51.6497 69.6788 54.6181 72.649 58.2813 72.649C58.7015 72.649 59.1107 72.6052 59.509 72.5302V68.8073Z" fill="#6B6161"/>
<path fill-rule="evenodd" clip-rule="evenodd" d="M67.8664 68.7185C66.119 68.7185 64.7017 67.3013 64.7017 65.5539C64.7017 63.8065 66.119 62.3901 67.8664 62.3901C69.6137 62.3901 71.0302 63.8065 71.0302 65.5539C71.0302 67.3013 69.6137 68.7185 67.8664 68.7185ZM74.5266 65.6659C74.5266 62.0036 71.5573 59.0343 67.895 59.0343C64.2327 59.0343 61.2634 62.0036 61.2634 65.6659C61.2634 69.329 64.2327 72.2975 67.895 72.2975C68.9965 72.2975 70.0331 72.0246 70.9476 71.5488V72.2276H74.5266V65.6659Z" fill="#6B6161"/>
<path fill-rule="evenodd" clip-rule="evenodd" d="M24.9852 75.6321V77.9437H25.5452C25.7548 77.9437 25.9056 77.9319 25.9991 77.91C26.1203 77.8822 26.2214 77.8334 26.3014 77.7652C26.3822 77.697 26.4471 77.5841 26.4976 77.4283C26.5481 77.2717 26.5742 77.0587 26.5742 76.7892C26.5742 76.5197 26.5481 76.3125 26.4976 76.1677C26.4471 76.0237 26.3763 75.9109 26.2845 75.8292C26.1944 75.7492 26.0782 75.6936 25.9376 75.665C25.8332 75.6431 25.6277 75.6321 25.322 75.6321H24.9852ZM24.2349 75.0418H25.6058C25.9149 75.0418 26.1507 75.0637 26.3132 75.1083C26.5304 75.1681 26.7174 75.2759 26.8732 75.43C27.0281 75.5833 27.1469 75.7719 27.2277 75.9951C27.3085 76.2182 27.3498 76.4928 27.3498 76.8195C27.3498 77.1075 27.3119 77.3551 27.2353 77.5631C27.1427 77.8174 27.0096 78.022 26.8378 78.1795C26.7073 78.2982 26.5313 78.3909 26.3107 78.4574C26.1448 78.5071 25.9233 78.5315 25.6462 78.5315H24.2349V75.0418Z" fill="#6B6161"/>
<path fill-rule="evenodd" clip-rule="evenodd" d="M27.9634 78.5318H28.7137V75.0413H27.9634V78.5318Z" fill="#6B6161"/>
<path fill-rule="evenodd" clip-rule="evenodd" d="M30.1805 76.5179H30.7355C31.0951 76.5179 31.3199 76.5027 31.4092 76.4749C31.4993 76.4463 31.5692 76.3966 31.6197 76.3267C31.6711 76.2568 31.6963 76.1701 31.6963 76.0656C31.6963 75.9477 31.6626 75.8534 31.5961 75.781C31.5296 75.7086 31.4353 75.6623 31.3132 75.6437C31.2525 75.6362 31.0698 75.632 30.7658 75.632H30.1805V76.5179ZM29.4302 78.5322V75.0416H31.0092C31.4066 75.0416 31.6946 75.0728 31.8749 75.1351C32.0551 75.1983 32.1982 75.3094 32.3069 75.4703C32.4146 75.6303 32.4694 75.8139 32.4694 76.0202C32.4694 76.2821 32.3869 76.4985 32.2235 76.6694C32.0593 76.8395 31.8142 76.9473 31.4883 76.9911C31.6509 77.0804 31.7839 77.1781 31.89 77.2842C31.9953 77.3903 32.1376 77.5797 32.317 77.8509L32.7709 78.5322H31.8732L31.3309 77.7717C31.1389 77.5006 31.0066 77.3305 30.9359 77.2597C30.8643 77.189 30.7894 77.1402 30.7102 77.1141C30.6311 77.088 30.5048 77.0745 30.333 77.0745H30.1805V78.5322H29.4302Z" fill="#6B6161"/>
<path fill-rule="evenodd" clip-rule="evenodd" d="M33.1756 78.5318V75.0413H35.9301V75.6324H33.9259V76.4063H35.7912V76.9941H33.9259V77.944H36.0017V78.5318H33.1756Z" fill="#6B6161"/>
<path fill-rule="evenodd" clip-rule="evenodd" d="M37.4741 78.5318V75.6324H36.3718V75.0413H39.3242V75.6324H38.2244V78.5318H37.4741Z" fill="#6B6161"/>
<path fill-rule="evenodd" clip-rule="evenodd" d="M40.3351 76.7843C40.3351 77.1801 40.4328 77.479 40.6265 77.6828C40.821 77.8874 41.0678 77.9893 41.3667 77.9893C41.6657 77.9893 41.9116 77.8883 42.1027 77.6853C42.2947 77.4832 42.3907 77.1801 42.3907 76.7742C42.3907 76.375 42.2972 76.0761 42.1103 75.8799C41.9242 75.6828 41.6758 75.5843 41.3667 75.5843C41.0577 75.5843 40.8084 75.6837 40.6189 75.8832C40.4294 76.082 40.3351 76.3826 40.3351 76.7843ZM39.5629 76.8079C39.5629 76.4525 39.6185 76.1544 39.7322 75.9127C39.8164 75.735 39.9318 75.575 40.0783 75.4344C40.224 75.2929 40.3848 75.1877 40.5583 75.1194C40.7899 75.0277 41.0568 74.9813 41.3591 74.9813C41.9065 74.9813 42.3444 75.1413 42.6728 75.4605C43.0021 75.7797 43.1663 76.2234 43.1663 76.7919C43.1663 77.3552 43.0029 77.7957 42.677 78.114C42.3511 78.4323 41.9149 78.5914 41.3693 78.5914C40.8168 78.5914 40.3773 78.4331 40.0514 78.1165C39.7255 77.7999 39.5629 77.3637 39.5629 76.8079Z" fill="#6B6161"/>
<path fill-rule="evenodd" clip-rule="evenodd" d="M46.97 77.1511L46.458 75.856L45.9561 77.1511H46.97ZM48.3511 78.5322H47.5351L47.2109 77.7389H45.7254L45.4189 78.5322H44.6231L46.0707 75.0416H46.8639L48.3511 78.5322Z" fill="#6B6161"/>
<path fill-rule="evenodd" clip-rule="evenodd" d="M49.3701 76.7843C49.3701 77.1801 49.4678 77.479 49.6615 77.6828C49.856 77.8874 50.1027 77.9893 50.4017 77.9893C50.7006 77.9893 50.9465 77.8883 51.1377 77.6853C51.3297 77.4832 51.4257 77.1801 51.4257 76.7742C51.4257 76.375 51.3322 76.0761 51.1453 75.8799C50.9591 75.6828 50.7107 75.5843 50.4017 75.5843C50.0926 75.5843 49.8434 75.6837 49.6539 75.8832C49.4644 76.082 49.3701 76.3826 49.3701 76.7843ZM48.5979 76.8079C48.5979 76.4525 48.6535 76.1544 48.7672 75.9127C48.8514 75.735 48.9667 75.575 49.1133 75.4344C49.2589 75.2929 49.4198 75.1877 49.5933 75.1194C49.8248 75.0277 50.0918 74.9813 50.3941 74.9813C50.9415 74.9813 51.3794 75.1413 51.7078 75.4605C52.037 75.7797 52.2013 76.2234 52.2013 76.7919C52.2013 77.3552 52.0379 77.7957 51.712 78.114C51.3861 78.4323 50.9499 78.5914 50.4042 78.5914C49.8518 78.5914 49.4122 78.4331 49.0863 78.1165C48.7604 77.7999 48.5979 77.3637 48.5979 76.8079Z" fill="#6B6161"/>
<path fill-rule="evenodd" clip-rule="evenodd" d="M54.9786 75.6321V76.6224H55.3887C55.6843 76.6224 55.8822 76.6039 55.9815 76.5677C56.0818 76.5307 56.1601 76.4742 56.2165 76.3959C56.2729 76.3184 56.3015 76.2283 56.3015 76.1248C56.3015 75.9984 56.2611 75.8932 56.182 75.8107C56.1028 75.7281 56.0026 75.6768 55.8805 75.6557C55.7912 75.6405 55.611 75.6321 55.3407 75.6321H54.9786ZM54.2283 78.5315V75.0418H55.4325C55.8881 75.0418 56.1862 75.0587 56.3243 75.094C56.5373 75.1462 56.7159 75.2608 56.859 75.4359C57.0022 75.6111 57.0746 75.8376 57.0746 76.1155C57.0746 76.3294 57.0325 76.5096 56.95 76.6561C56.8674 76.8018 56.7622 76.9163 56.635 76.9997C56.507 77.0831 56.3773 77.1378 56.2451 77.1648C56.0666 77.1984 55.8072 77.2153 55.4679 77.2153H54.9786V78.5315H54.2283Z" fill="#6B6161"/>
<path fill-rule="evenodd" clip-rule="evenodd" d="M58.3112 76.7843C58.3112 77.1801 58.4089 77.479 58.6026 77.6828C58.7971 77.8874 59.0439 77.9893 59.3428 77.9893C59.6418 77.9893 59.8876 77.8883 60.0788 77.6853C60.2708 77.4832 60.3668 77.1801 60.3668 76.7742C60.3668 76.375 60.2733 76.0761 60.0864 75.8799C59.9003 75.6828 59.6519 75.5843 59.3428 75.5843C59.0338 75.5843 58.7845 75.6837 58.595 75.8832C58.4055 76.082 58.3112 76.3826 58.3112 76.7843ZM57.539 76.8079C57.539 76.4525 57.5946 76.1544 57.7083 75.9127C57.7925 75.735 57.9079 75.575 58.0544 75.4344C58.2001 75.2929 58.3609 75.1877 58.5344 75.1194C58.766 75.0277 59.0329 74.9813 59.3352 74.9813C59.8826 74.9813 60.3205 75.1413 60.6489 75.4605C60.9782 75.7797 61.1424 76.2234 61.1424 76.7919C61.1424 77.3552 60.979 77.7957 60.6531 78.114C60.3272 78.4323 59.891 78.5914 59.3454 78.5914C58.7929 78.5914 58.3534 78.4331 58.0275 78.1165C57.7016 77.7999 57.539 77.3637 57.539 76.8079Z" fill="#6B6161"/>
<path fill-rule="evenodd" clip-rule="evenodd" d="M61.7352 78.5318V75.0413H62.4654L63.9854 77.3722V75.0413H64.6826V78.5318H63.9298L62.4325 76.2556V78.5318H61.7352Z" fill="#6B6161"/>
<path fill-rule="evenodd" clip-rule="evenodd" d="M66.3121 78.5318V75.6324H65.2098V75.0413H68.1622V75.6324H67.0624V78.5318H66.3121Z" fill="#6B6161"/>
<path fill-rule="evenodd" clip-rule="evenodd" d="M69.1731 76.7843C69.1731 77.1801 69.27 77.479 69.4654 77.6828C69.659 77.8874 69.9058 77.9893 70.2047 77.9893C70.5037 77.9893 70.7496 77.8883 70.9416 77.6853C71.1327 77.4832 71.2279 77.1801 71.2279 76.7742C71.2279 76.375 71.1353 76.0761 70.9483 75.8799C70.7622 75.6828 70.5138 75.5843 70.2047 75.5843C69.8948 75.5843 69.6464 75.6837 69.4569 75.8832C69.2675 76.082 69.1731 76.3826 69.1731 76.7843ZM68.4001 76.8079C68.4001 76.4525 68.4565 76.1544 68.5702 75.9127C68.6544 75.735 68.7698 75.575 68.9155 75.4344C69.062 75.2929 69.2228 75.1877 69.3963 75.1194C69.6279 75.0277 69.894 74.9813 70.1971 74.9813C70.7445 74.9813 71.1824 75.1413 71.5108 75.4605C71.8401 75.7797 72.0035 76.2234 72.0035 76.7919C72.0035 77.3552 71.8409 77.7957 71.515 78.114C71.1891 78.4323 70.7529 78.5914 70.2081 78.5914C69.6548 78.5914 69.2161 78.4331 68.8893 78.1165C68.5635 77.7999 68.4001 77.3637 68.4001 76.8079Z" fill="#6B6161"/>
<path fill-rule="evenodd" clip-rule="evenodd" d="M24.2808 71.245H27.8598V58.7541H24.2808V71.245Z" fill="white"/>
<path fill-rule="evenodd" clip-rule="evenodd" d="M30.6674 71.245H34.3162V51.5962H30.6674V71.245Z" fill="white"/>
<path fill-rule="evenodd" clip-rule="evenodd" d="M76.4215 71.3857H80.0703V51.7368H76.4215V71.3857Z" fill="white"/>
<path fill-rule="evenodd" clip-rule="evenodd" d="M28 55.2098C28 56.3147 27.1048 57.2098 26 57.2098C24.8952 57.2098 24 56.3147 24 55.2098C24 54.105 24.8952 53.2098 26 53.2098C27.1048 53.2098 28 54.105 28 55.2098Z" fill="white"/>
<path fill-rule="evenodd" clip-rule="evenodd" d="M42.8836 68.2275C41.1363 68.2275 39.7198 66.8102 39.7198 65.0629C39.7198 63.3155 41.1363 61.8991 42.8836 61.8991C44.631 61.8991 46.0474 63.3155 46.0474 65.0629C46.0474 66.8102 44.631 68.2275 42.8836 68.2275ZM42.9122 58.5433C39.2499 58.5433 36.2807 61.5117 36.2807 65.1749C36.2807 68.8372 39.2499 71.8065 42.9122 71.8065C46.5746 71.8065 49.5438 68.8372 49.5438 65.1749C49.5438 61.5117 46.5746 58.5433 42.9122 58.5433Z" fill="white"/>
<path fill-rule="evenodd" clip-rule="evenodd" d="M58.9474 67.9651C58.5617 68.1318 58.1381 68.2278 57.6909 68.2278C55.9436 68.2278 54.5263 66.8106 54.5263 65.0632C54.5263 63.3158 55.9436 61.8986 57.6909 61.8986C58.1381 61.8986 58.5617 61.9937 58.9474 62.1613V58.6615C58.549 58.5866 58.1398 58.5428 57.7196 58.5428C54.0564 58.5428 51.088 61.5121 51.088 65.1752C51.088 68.8367 54.0564 71.8068 57.7196 71.8068C58.1398 71.8068 58.549 71.763 58.9474 71.6881V67.9651Z" fill="white"/>
<path fill-rule="evenodd" clip-rule="evenodd" d="M67.3047 67.8763C65.5573 67.8763 64.1409 66.4591 64.1409 64.7126C64.1409 62.9643 65.5573 61.5479 67.3047 61.5479C69.0521 61.5479 70.4693 62.9643 70.4693 64.7126C70.4693 66.4591 69.0521 67.8763 67.3047 67.8763ZM73.9649 64.8237C73.9649 61.1614 70.9965 58.1921 67.3333 58.1921C63.671 58.1921 60.7017 61.1614 60.7017 64.8237C60.7017 68.4869 63.671 71.4553 67.3333 71.4553C68.4356 71.4553 69.4714 71.1825 70.3859 70.7067V71.3854H73.9649V64.8237Z" fill="white"/>
<path fill-rule="evenodd" clip-rule="evenodd" d="M24.9539 75.1724V77.484H25.5139C25.7236 77.484 25.8743 77.4722 25.9678 77.4503C26.0891 77.4225 26.1901 77.3737 26.2701 77.3054C26.351 77.2372 26.4158 77.1244 26.4663 76.9686C26.5169 76.812 26.543 76.5989 26.543 76.3294C26.543 76.06 26.5169 75.8528 26.4663 75.708C26.4158 75.564 26.3451 75.4511 26.2533 75.3694C26.1632 75.2894 26.047 75.2339 25.9063 75.2052C25.8019 75.1833 25.5964 75.1724 25.2907 75.1724H24.9539ZM24.2036 74.5821H25.5746C25.8836 74.5821 26.1194 74.604 26.2819 74.6486C26.4992 74.7084 26.6861 74.8162 26.8419 74.9703C26.9969 75.1235 27.1156 75.3122 27.1965 75.5353C27.2773 75.7585 27.3186 76.033 27.3186 76.3598C27.3186 76.6478 27.2807 76.8953 27.204 77.1033C27.1114 77.3576 26.9784 77.5623 26.8066 77.7198C26.676 77.8385 26.5 77.9311 26.2794 77.9976C26.1135 78.0473 25.892 78.0718 25.615 78.0718H24.2036V74.5821Z" fill="white"/>
<path fill-rule="evenodd" clip-rule="evenodd" d="M27.9314 78.0728H28.6817V74.5823H27.9314V78.0728Z" fill="white"/>
<path fill-rule="evenodd" clip-rule="evenodd" d="M30.1493 76.0581H30.7042C31.0638 76.0581 31.2887 76.043 31.3779 76.0152C31.468 75.9865 31.5379 75.9369 31.5884 75.867C31.6398 75.7971 31.6651 75.7103 31.6651 75.6059C31.6651 75.488 31.6314 75.3937 31.5649 75.3213C31.4983 75.2489 31.404 75.2025 31.2819 75.184C31.2213 75.1764 31.0386 75.1722 30.7346 75.1722H30.1493V76.0581ZM29.399 78.0724V74.5819H30.9779C31.3754 74.5819 31.6634 74.6131 31.8436 74.6754C32.0238 74.7385 32.167 74.8497 32.2756 75.0105C32.3834 75.1705 32.4381 75.3541 32.4381 75.5604C32.4381 75.8223 32.3556 76.0387 32.1922 76.2097C32.028 76.3798 31.783 76.4876 31.4571 76.5314C31.6196 76.6206 31.7527 76.7183 31.8588 76.8244C31.964 76.9305 32.1063 77.12 32.2857 77.3912L32.7396 78.0724H31.8419L31.2996 77.312C31.1076 77.0408 30.9754 76.8707 30.9047 76.8C30.8331 76.7293 30.7581 76.6804 30.679 76.6543C30.5998 76.6282 30.4735 76.6147 30.3017 76.6147H30.1493V78.0724H29.399Z" fill="white"/>
<path fill-rule="evenodd" clip-rule="evenodd" d="M33.1443 78.0721V74.5816H35.8989V75.1727H33.8946V75.9466H35.7599V76.5344H33.8946V77.4843H35.9704V78.0721H33.1443Z" fill="white"/>
<path fill-rule="evenodd" clip-rule="evenodd" d="M37.4429 78.0721V75.1727H36.3405V74.5816H39.293V75.1727H38.1932V78.0721H37.4429Z" fill="white"/>
<path fill-rule="evenodd" clip-rule="evenodd" d="M40.3038 76.3246C40.3038 76.7203 40.4015 77.0193 40.5952 77.2231C40.7897 77.4277 41.0365 77.5296 41.3354 77.5296C41.6343 77.5296 41.8802 77.4286 42.0714 77.2256C42.2634 77.0235 42.3594 76.7203 42.3594 76.3144C42.3594 75.9153 42.2659 75.6163 42.079 75.4201C41.8929 75.2231 41.6445 75.1246 41.3354 75.1246C41.0263 75.1246 40.7771 75.2239 40.5876 75.4235C40.3981 75.6222 40.3038 75.9229 40.3038 76.3246ZM39.5316 76.3481C39.5316 75.9928 39.5872 75.6947 39.7009 75.453C39.7851 75.2753 39.9005 75.1153 40.047 74.9747C40.1927 74.8332 40.3535 74.7279 40.527 74.6597C40.7586 74.5679 41.0255 74.5216 41.3278 74.5216C41.8752 74.5216 42.3131 74.6816 42.6415 75.0008C42.9708 75.3199 43.135 75.7637 43.135 76.3321C43.135 76.8955 42.9716 77.3359 42.6457 77.6542C42.3198 77.9726 41.8836 78.1317 41.3379 78.1317C40.7855 78.1317 40.3459 77.9734 40.02 77.6568C39.6941 77.3401 39.5316 76.9039 39.5316 76.3481Z" fill="white"/>
<path fill-rule="evenodd" clip-rule="evenodd" d="M46.9388 76.6914L46.4268 75.3962L45.9249 76.6914H46.9388ZM48.3198 78.0724H47.5038L47.1796 77.2792H45.6941L45.3876 78.0724H44.5918L46.0394 74.5819H46.8327L48.3198 78.0724Z" fill="white"/>
<path fill-rule="evenodd" clip-rule="evenodd" d="M49.3388 76.3246C49.3388 76.7203 49.4364 77.0193 49.6301 77.2231C49.8246 77.4277 50.0714 77.5296 50.3703 77.5296C50.6693 77.5296 50.9152 77.4286 51.1063 77.2256C51.2983 77.0235 51.3943 76.7203 51.3943 76.3144C51.3943 75.9153 51.3009 75.6163 51.1139 75.4201C50.9278 75.2231 50.6794 75.1246 50.3703 75.1246C50.0613 75.1246 49.812 75.2239 49.6225 75.4235C49.4331 75.6222 49.3388 75.9229 49.3388 76.3246ZM48.5666 76.3481C48.5666 75.9928 48.6221 75.6947 48.7358 75.453C48.82 75.2753 48.9354 75.1153 49.0819 74.9747C49.2276 74.8332 49.3885 74.7279 49.5619 74.6597C49.7935 74.5679 50.0605 74.5216 50.3628 74.5216C50.9101 74.5216 51.348 74.6816 51.6765 75.0008C52.0057 75.3199 52.1699 75.7637 52.1699 76.3321C52.1699 76.8955 52.0066 77.3359 51.6807 77.6542C51.3548 77.9726 50.9186 78.1317 50.3729 78.1317C49.8205 78.1317 49.3809 77.9734 49.055 77.6568C48.7291 77.3401 48.5666 76.9039 48.5666 76.3481Z" fill="white"/>
<path fill-rule="evenodd" clip-rule="evenodd" d="M54.9474 75.1724V76.1627H55.3575C55.653 76.1627 55.8509 76.1442 55.9503 76.108C56.0505 76.0709 56.1288 76.0145 56.1853 75.9362C56.2417 75.8587 56.2703 75.7686 56.2703 75.665C56.2703 75.5387 56.2299 75.4334 56.1507 75.3509C56.0716 75.2684 55.9714 75.217 55.8493 75.196C55.76 75.1808 55.5798 75.1724 55.3095 75.1724H54.9474ZM54.1971 78.0718V74.5821H55.4013C55.8568 74.5821 56.155 74.5989 56.2931 74.6343C56.5061 74.6865 56.6846 74.801 56.8278 74.9762C56.971 75.1513 57.0434 75.3779 57.0434 75.6558C57.0434 75.8696 57.0013 76.0499 56.9187 76.1964C56.8362 76.3421 56.731 76.4566 56.6038 76.54C56.4758 76.6233 56.3461 76.6781 56.2139 76.705C56.0354 76.7387 55.776 76.7555 55.4366 76.7555H54.9474V78.0718H54.1971Z" fill="white"/>
<path fill-rule="evenodd" clip-rule="evenodd" d="M58.28 76.3246C58.28 76.7203 58.3777 77.0193 58.5714 77.2231C58.7659 77.4277 59.0126 77.5296 59.3116 77.5296C59.6105 77.5296 59.8564 77.4286 60.0476 77.2256C60.2396 77.0235 60.3356 76.7203 60.3356 76.3144C60.3356 75.9153 60.2421 75.6163 60.0551 75.4201C59.869 75.2231 59.6206 75.1246 59.3116 75.1246C59.0025 75.1246 58.7532 75.2239 58.5638 75.4235C58.3743 75.6222 58.28 75.9229 58.28 76.3246ZM57.5078 76.3481C57.5078 75.9928 57.5634 75.6947 57.677 75.453C57.7613 75.2753 57.8766 75.1153 58.0232 74.9747C58.1688 74.8332 58.3297 74.7279 58.5032 74.6597C58.7347 74.5679 59.0017 74.5216 59.304 74.5216C59.8514 74.5216 60.2893 74.6816 60.6177 75.0008C60.9469 75.3199 61.1112 75.7637 61.1112 76.3321C61.1112 76.8955 60.9478 77.3359 60.6219 77.6542C60.296 77.9726 59.8598 78.1317 59.3141 78.1317C58.7617 78.1317 58.3221 77.9734 57.9962 77.6568C57.6703 77.3401 57.5078 76.9039 57.5078 76.3481Z" fill="white"/>
<path fill-rule="evenodd" clip-rule="evenodd" d="M61.7039 78.0721V74.5816H62.434L63.954 76.9125V74.5816H64.6513V78.0721H63.8984L62.4012 75.7959V78.0721H61.7039Z" fill="white"/>
<path fill-rule="evenodd" clip-rule="evenodd" d="M66.2808 78.0721V75.1727H65.1785V74.5816H68.131V75.1727H67.0312V78.0721H66.2808Z" fill="white"/>
<path fill-rule="evenodd" clip-rule="evenodd" d="M69.1419 76.3246C69.1419 76.7203 69.2387 77.0193 69.4341 77.2231C69.6278 77.4277 69.8745 77.5296 70.1735 77.5296C70.4724 77.5296 70.7183 77.4286 70.9103 77.2256C71.1015 77.0235 71.1966 76.7203 71.1966 76.3144C71.1966 75.9153 71.104 75.6163 70.9171 75.4201C70.731 75.2231 70.4825 75.1246 70.1735 75.1246C69.8636 75.1246 69.6152 75.2239 69.4257 75.4235C69.2362 75.6222 69.1419 75.9229 69.1419 76.3246ZM68.3688 76.3481C68.3688 75.9928 68.4253 75.6947 68.5389 75.453C68.6231 75.2753 68.7385 75.1153 68.8842 74.9747C69.0307 74.8332 69.1916 74.7279 69.365 74.6597C69.5966 74.5679 69.8627 74.5216 70.1659 74.5216C70.7133 74.5216 71.1511 74.6816 71.4796 75.0008C71.8088 75.3199 71.9722 75.7637 71.9722 76.3321C71.9722 76.8955 71.8097 77.3359 71.4838 77.6542C71.1579 77.9726 70.7217 78.1317 70.1768 78.1317C69.6236 78.1317 69.1848 77.9734 68.8581 77.6568C68.5322 77.3401 68.3688 76.9039 68.3688 76.3481Z" fill="white"/>
<path fill-rule="evenodd" clip-rule="evenodd" d="M97.053 74.4726C97.053 74.7437 95.5448 74.9644 93.6846 74.9644C91.8244 74.9644 90.3162 74.7437 90.3162 74.4726C90.3162 74.2014 91.8244 73.9816 93.6846 73.9816C95.5448 73.9816 97.053 74.2014 97.053 74.4726Z" fill="#6B6161"/>
<path fill-rule="evenodd" clip-rule="evenodd" d="M83.2283 59.2451C83.2283 64.9032 91.3689 72.5781 93.4742 72.7187C95.9988 72.8872 103.719 64.9032 103.719 59.2451C103.719 53.5861 99.1323 49 93.4742 49C87.8161 49 83.2283 53.5861 83.2283 59.2451ZM88.6321 59.2282C88.6321 56.4467 90.8864 54.1916 93.6679 54.1916C96.4493 54.1916 98.7028 56.4467 98.7028 59.2282C98.7028 62.0088 96.4493 64.264 93.6679 64.264C90.8864 64.264 88.6321 62.0088 88.6321 59.2282Z" fill="url(#paint1_linear_54_2876)"/>
</g>
<defs>
<linearGradient id="paint0_linear_54_2876" x1="0.408378" y1="2.22477" x2="-0.440692" y2="130.222" gradientUnits="userSpaceOnUse">
<stop stop-color="#EF906D"/>
<stop offset="1" stop-color="#806B90"/>
</linearGradient>
<linearGradient id="paint1_linear_54_2876" x1="81.7224" y1="65.9206" x2="100.26" y2="74.3005" gradientUnits="userSpaceOnUse">
<stop stop-color="#E6342D"/>
<stop offset="1" stop-color="#ED7200"/>
</linearGradient>
<clipPath id="clip0_54_2876">
<rect width="128" height="128" fill="white"/>
</clipPath>
</defs>
</svg>
