<svg width="128" height="128" viewBox="0 0 128 128" fill="none" xmlns="http://www.w3.org/2000/svg">
<rect width="128" height="128" fill="white"/>
<path fill-rule="evenodd" clip-rule="evenodd" d="M26.2156 58.4769C26.5651 58.0363 27.0041 57.676 27.5029 57.42C27.9684 57.1824 28.4831 57.0589 29.0049 57.0596C29.3683 57.0346 29.7318 57.107 30.0584 57.2694C30.385 57.4318 30.6631 57.6786 30.8644 57.9845C31.298 58.8651 31.3791 59.8799 31.0909 60.819L29.8989 66.8244H27.3718L28.5638 60.819C28.7342 60.3663 28.7342 59.8664 28.5638 59.4137C28.4431 59.2615 28.285 59.1437 28.1052 59.0721C27.9254 59.0004 27.7301 58.9774 27.5387 59.0054C27.2515 59.0182 26.9725 59.1051 26.7281 59.2576C26.4559 59.4079 26.2134 59.6074 26.0129 59.8461L24.6302 66.8124H22.1031L23.9984 57.2038H26.3824L26.2156 58.4769Z" fill="#D3252E"/>
<path fill-rule="evenodd" clip-rule="evenodd" d="M34.953 62.1042C34.7813 62.8063 34.7813 63.5399 34.953 64.2421C35.0144 64.4779 35.1575 64.6839 35.3564 64.8227C35.5554 64.9615 35.7971 65.0239 36.0378 64.9988C36.3361 64.9983 36.6272 64.9061 36.8722 64.7345C37.1667 64.5401 37.4182 64.2866 37.6112 63.9899L38.4337 59.7981C38.3357 59.5684 38.169 59.3753 37.9569 59.2456C37.7043 59.0836 37.41 59 37.1106 59.0054C36.8425 59.0121 36.5805 59.0873 36.3491 59.2238C36.1177 59.3604 35.9245 59.5538 35.7874 59.7861C35.3771 60.4222 35.105 61.1384 34.9888 61.888L34.953 62.1042ZM32.4498 61.924C32.6527 60.6115 33.1817 59.372 33.9875 58.3208C34.3243 57.9275 34.7444 57.6155 35.2169 57.4076C35.6893 57.1997 36.202 57.1013 36.7172 57.1197C37.1119 57.1129 37.5017 57.208 37.8496 57.3959C38.2006 57.5771 38.5032 57.8407 38.7317 58.1646L39.7449 53H42.2839L39.5423 66.8124H37.349V65.8755C37.0393 66.2147 36.6719 66.4954 36.2642 66.7043C35.8933 66.889 35.486 66.9875 35.0722 66.9925C34.5969 67.0054 34.1281 66.8796 33.722 66.6303C33.316 66.381 32.9901 66.0188 32.7836 65.5873C32.2544 64.5068 32.1275 63.2709 32.426 62.1042L32.4498 61.924Z" fill="#D3252E"/>
<path fill-rule="evenodd" clip-rule="evenodd" d="M45.0017 62.1162C44.8343 62.8148 44.8343 63.5435 45.0017 64.2421C45.0826 64.4879 45.2456 64.6977 45.4631 64.8357C45.6805 64.9738 45.9388 65.0314 46.1937 64.9988C46.4708 64.9978 46.7429 64.9242 46.9833 64.7852C47.2236 64.6462 47.4239 64.4466 47.5645 64.206C47.9574 63.5701 48.2133 62.8581 48.3155 62.1162V61.924C48.4828 61.2335 48.4828 60.5126 48.3155 59.8221C48.2391 59.5719 48.0779 59.3566 47.8601 59.2139C47.6422 59.0712 47.3815 59.0101 47.1235 59.0414C46.8525 59.0541 46.5891 59.1357 46.3578 59.2785C46.1264 59.4213 45.9347 59.6207 45.8004 59.8581C45.4054 60.4832 45.153 61.1888 45.0613 61.924L45.0017 62.1162ZM42.4985 61.936C42.6495 60.586 43.2309 59.3217 44.1554 58.3328C44.586 57.8957 45.1015 57.5528 45.6697 57.3255C46.2378 57.0981 46.8463 56.9913 47.4573 57.0116C48.0072 56.9738 48.5575 57.0801 49.0546 57.32C49.5517 57.5599 49.9788 57.9254 50.2942 58.3808C50.9394 59.4268 51.1532 60.6853 50.8903 61.888V62.0681C50.7376 63.4201 50.1517 64.685 49.2214 65.6714C48.7939 66.1093 48.2806 66.4529 47.7143 66.6803C47.1479 66.9078 46.5408 67.0141 45.9315 66.9925C45.3815 67.0303 44.8313 66.9241 44.3341 66.6842C43.837 66.4442 43.4099 66.0788 43.0945 65.6233C42.447 64.5783 42.2329 63.3187 42.4985 62.1162V61.936Z" fill="#D3252E"/>
<path fill-rule="evenodd" clip-rule="evenodd" d="M19.8144 53.9248L16 53.8768L19.1588 57.2278L17.2516 66.8364H19.7906L22.3415 53.9248H19.8144Z" fill="#D3252E"/>
<path fill-rule="evenodd" clip-rule="evenodd" d="M56.7168 54.9047L56.2472 57.331H57.8244L57.3909 59.0659H55.874L54.8989 64.0399C54.7918 64.3043 54.7918 64.6004 54.8989 64.8648C54.9558 64.9497 55.0331 65.0188 55.1236 65.0654C55.2141 65.1121 55.3149 65.1349 55.4165 65.1317H55.85L56.2713 65.0589L56.1148 66.9393C55.831 67.0283 55.5413 67.0972 55.248 67.1456C54.9526 67.1851 54.6551 67.2054 54.3571 67.2062C54.019 67.2134 53.6842 67.139 53.3805 66.9892C53.0768 66.8393 52.8131 66.6184 52.6115 66.3449C52.4071 65.995 52.2779 65.6059 52.2323 65.2025C52.1867 64.7992 52.2256 64.3907 52.3466 64.0035L53.3218 59.0659H52.0456L52.4068 57.234H53.6829L54.2126 54.9047H56.7168Z" fill="#58585A"/>
<path fill-rule="evenodd" clip-rule="evenodd" d="M64.6384 59.5754H63.6272C63.33 59.568 63.0371 59.6481 62.7844 59.8059C62.53 59.9695 62.3159 60.1894 62.1584 60.4489L60.8582 66.9515H58.318L60.2322 57.2461H62.64L62.4955 58.4593C62.7347 58.0401 63.0587 57.6764 63.4466 57.3917C63.7979 57.1403 64.2197 57.0085 64.6505 57.0156C64.7827 57.0042 64.9156 57.0042 65.0478 57.0156L65.3969 57.0884L64.6384 59.5754Z" fill="#58585A"/>
<path fill-rule="evenodd" clip-rule="evenodd" d="M69.5865 65.2045C69.91 65.1973 70.2274 65.1142 70.5135 64.9619C70.8068 64.8065 71.0682 64.5966 71.284 64.3432L71.6211 62.7054H70.4172C70.0035 62.6958 69.6023 62.848 69.2975 63.13C69.0001 63.3905 68.8004 63.7459 68.7317 64.1369C68.6917 64.2678 68.6795 64.4057 68.6961 64.5416C68.7127 64.6775 68.7577 64.8083 68.828 64.9255C68.9225 65.0305 69.0409 65.1108 69.173 65.1594C69.3052 65.208 69.4471 65.2235 69.5865 65.2045ZM71.1997 66.9515C71.1997 66.7695 71.1997 66.5875 71.1154 66.3934C71.0312 66.1993 71.1154 66.0052 71.1154 65.8111C70.7727 66.1989 70.3652 66.5232 69.9115 66.7695C69.4811 67.0114 68.9958 67.1368 68.503 67.1334C68.1491 67.1561 67.7948 67.0967 67.4672 66.9601C67.1395 66.8234 66.8473 66.6129 66.6128 66.3449C66.3945 66.0429 66.2483 65.6942 66.1857 65.326C66.123 64.9577 66.1456 64.5798 66.2517 64.2218C66.3151 63.7714 66.471 63.3391 66.7093 62.9527C66.9477 62.5663 67.2634 62.2342 67.6362 61.9775C68.5831 61.4333 69.6659 61.1763 70.7543 61.2374H71.9582L72.1026 60.461C72.2136 60.0955 72.1835 59.7012 72.0184 59.357C71.9194 59.2269 71.7886 59.125 71.6387 59.0612C71.4889 58.9974 71.3252 58.9739 71.1636 58.9931C70.8426 58.9884 70.5306 59.1004 70.2847 59.3085C70.0314 59.525 69.8646 59.8267 69.8152 60.1577H67.2991V60.0971C67.3678 59.6627 67.5239 59.2471 67.7579 58.8757C67.9918 58.5044 68.2986 58.1851 68.6595 57.9376C69.5334 57.3586 70.5637 57.0662 71.609 57.1005C72.049 57.076 72.4893 57.1418 72.9032 57.2941C73.3171 57.4463 73.696 57.6818 74.0168 57.9861C74.3323 58.3094 74.5592 58.7096 74.6753 59.1476C74.7913 59.5857 74.7926 60.0466 74.679 60.4853L73.8363 64.4766C73.7403 64.9072 73.6839 65.3458 73.6677 65.7868C73.6577 66.193 73.6859 66.5992 73.752 67L71.1997 66.9515Z" fill="#58585A"/>
<path fill-rule="evenodd" clip-rule="evenodd" d="M78.7963 62.1958C78.628 62.9057 78.628 63.6455 78.7963 64.3553C78.8558 64.5925 78.998 64.8003 79.1969 64.9407C79.3959 65.081 79.6383 65.1445 79.8799 65.1196C80.1726 65.1121 80.4569 65.0194 80.6985 64.8527C80.9933 64.653 81.2468 64.3975 81.4449 64.1005L82.2756 59.8666C82.1767 59.6346 82.0083 59.4395 81.7941 59.3085C81.5527 59.1537 81.2735 59.0697 80.9874 59.0659C80.7154 59.074 80.4496 59.1504 80.2141 59.288C79.9787 59.4257 79.7811 59.6204 79.6391 59.8544C79.2297 60.4995 78.9552 61.2219 78.8325 61.9775L78.7963 62.1958ZM76.2802 62.0139C76.4851 60.6882 77.0194 59.4362 77.8332 58.3743C78.1734 57.9771 78.5977 57.6619 79.0748 57.452C79.552 57.242 80.0698 57.1426 80.5902 57.1612C81.009 57.1436 81.4249 57.24 81.7941 57.4402C82.1486 57.6232 82.4542 57.8895 82.685 58.2166L83.6481 53H86.2124L83.4434 66.9515H81.2282V66.0052C80.9112 66.3482 80.5361 66.6316 80.1206 66.8423C79.747 67.0317 79.335 67.1314 78.9167 67.1334C78.4347 67.1488 77.9585 67.0229 77.5461 66.7709C77.1337 66.519 76.8027 66.1518 76.5932 65.714C76.069 64.6194 75.9453 63.3734 76.2441 62.1958L76.2802 62.0139Z" fill="#58585A"/>
<path fill-rule="evenodd" clip-rule="evenodd" d="M87.9219 66.9515H85.3095L87.2237 57.2461H89.7759L87.9219 66.9515Z" fill="#58585A"/>
<path fill-rule="evenodd" clip-rule="evenodd" d="M94.3869 58.5321C94.7357 58.0876 95.1749 57.7235 95.6751 57.4645C96.1452 57.2245 96.665 57.0998 97.192 57.1005C97.561 57.073 97.9306 57.145 98.2628 57.3092C98.595 57.4734 98.8778 57.7238 99.0821 58.0347C99.514 58.9258 99.5958 59.9485 99.3108 60.8977L98.1069 66.9636H95.5426L96.7465 60.8977C96.9122 60.4393 96.9122 59.9368 96.7465 59.4783C96.6239 59.3255 96.4641 59.2072 96.2827 59.1349C96.1013 59.0627 95.9044 59.0389 95.7112 59.0659C95.4283 59.0682 95.1506 59.1434 94.9046 59.2842C94.6296 59.436 94.3847 59.6375 94.1822 59.8787L92.7375 66.9515H90.2334L92.1476 57.2461H94.5554L94.3869 58.5321Z" fill="#58585A"/>
<path fill-rule="evenodd" clip-rule="evenodd" d="M105.824 64.149C105.634 64.4378 105.388 64.6853 105.102 64.877C104.838 65.0413 104.533 65.1255 104.223 65.1196C103.981 65.1445 103.739 65.081 103.54 64.9407C103.341 64.8003 103.199 64.5926 103.139 64.3553C102.971 63.6455 102.971 62.9057 103.139 62.1958V62.0139C103.267 61.2597 103.541 60.5384 103.946 59.8908C104.09 59.6396 104.297 59.4311 104.546 59.2862C104.796 59.1414 105.079 59.0654 105.366 59.0659C105.65 59.0561 105.932 59.1187 106.185 59.2478C106.4 59.3705 106.572 59.5569 106.679 59.7816L105.824 64.149ZM112 57.1369H107.582V57.2825L107.184 58.3258C106.959 57.9508 106.645 57.6381 106.269 57.4159C105.902 57.2064 105.487 57.0976 105.066 57.1005C104.545 57.082 104.027 57.1814 103.55 57.3913C103.073 57.6013 102.649 57.9165 102.309 58.3137C101.495 59.3756 100.961 60.6275 100.756 61.9532V62.1352C100.454 63.3137 100.582 64.562 101.117 65.6534C101.326 66.0912 101.657 66.4583 102.07 66.7103C102.482 66.9622 102.958 67.0881 103.44 67.0728C103.816 67.0744 104.189 67.0002 104.536 66.8544C104.903 66.7001 105.241 66.4826 105.535 66.2114L105.463 66.5997C105.362 67.179 105.079 67.7104 104.656 68.1161C104.262 68.4873 103.739 68.6877 103.199 68.6742C102.794 68.6778 102.389 68.6288 101.996 68.5286C101.631 68.4338 101.283 68.2867 100.96 68.0919L99.961 70.1057C100.376 70.3476 100.821 70.5313 101.285 70.6516C101.74 70.7804 102.209 70.8497 102.682 70.8579C103.918 70.9047 105.133 70.5237 106.125 69.7782C107.077 68.9933 107.711 67.8841 107.907 66.6603L109.315 59.539L112 57.1369Z" fill="#58585A"/>
<path d="M17.602 73.0052H17V69.7539H17.602V73.0052Z" fill="#58585A"/>
<path d="M18.8179 70.591V70.87C18.911 70.7638 19.0261 70.6794 19.1551 70.6229C19.284 70.5663 19.4237 70.5388 19.5643 70.5425C20.1061 70.5425 20.3709 70.8336 20.383 71.4038V73.0052H19.8171V71.4402C19.8224 71.3792 19.8155 71.3177 19.7969 71.2594C19.7783 71.201 19.7483 71.147 19.7088 71.1005C19.6634 71.0594 19.6099 71.0285 19.5518 71.0097C19.4937 70.9908 19.4323 70.9846 19.3717 70.9913C19.2667 70.9839 19.1618 71.0075 19.0698 71.0592C18.9779 71.1109 18.9029 71.1885 18.854 71.2825V73.0052H18.2761V70.5789L18.8179 70.591Z" fill="#58585A"/>
<path d="M20.8766 71.7799C20.861 71.4571 20.959 71.1392 21.1535 70.8821C21.2406 70.7712 21.3526 70.6826 21.4802 70.6236C21.6079 70.5645 21.7475 70.5367 21.8878 70.5425C22.0108 70.5363 22.1336 70.5569 22.2479 70.603C22.3621 70.6491 22.4652 70.7195 22.55 70.8094V69.5962H23.1279V73.0295H22.6102V72.7747C22.5268 72.8752 22.4214 72.9548 22.3024 73.0074C22.1833 73.06 22.0538 73.0842 21.924 73.078C21.7842 73.08 21.6457 73.0506 21.5187 72.9918C21.3916 72.933 21.2792 72.8464 21.1896 72.7383C20.9771 72.4656 20.8663 72.1264 20.8766 71.7799ZM21.4544 71.7799C21.4402 71.9824 21.4955 72.1837 21.6109 72.3501C21.6571 72.4186 21.7203 72.4737 21.7943 72.5099C21.8682 72.5461 21.9503 72.5621 22.0323 72.5563C22.1373 72.5637 22.2422 72.5401 22.3342 72.4884C22.4261 72.4367 22.5011 72.3591 22.55 72.2652V71.234C22.502 71.142 22.4289 71.0657 22.3393 71.0141C22.2497 70.9625 22.1474 70.9378 22.0444 70.9428C21.9605 70.9361 21.8764 70.9515 21.8004 70.9877C21.7243 71.0239 21.659 71.0795 21.6109 71.149C21.4801 71.3495 21.4246 71.5904 21.4544 71.8284V71.7799Z" fill="#58585A"/>
<path d="M23.6215 71.7678C23.6261 71.5676 23.6799 71.3717 23.778 71.1976C23.872 71.0098 24.0185 70.8538 24.1993 70.7487C24.3889 70.6497 24.5999 70.5996 24.8133 70.6031C24.9689 70.5931 25.1249 70.6155 25.2715 70.6691C25.418 70.7227 25.5521 70.8062 25.6651 70.9144C25.7781 71.0226 25.8678 71.1532 25.9284 71.298C25.989 71.4427 26.0192 71.5985 26.0172 71.7556V71.8769C26.0222 72.1 25.9726 72.3208 25.8728 72.5199C25.7818 72.7068 25.6342 72.8597 25.4514 72.9567C25.2609 73.0657 25.0444 73.1202 24.8254 73.1144C24.6638 73.1202 24.5026 73.093 24.3516 73.0347C24.2006 72.9763 24.0629 72.8879 23.9465 72.7747C23.8333 72.6536 23.7461 72.5103 23.6901 72.3538C23.6342 72.1973 23.6108 72.0308 23.6215 71.8648V71.7678ZM24.1993 71.7678C24.1888 71.9792 24.2481 72.1883 24.3679 72.3622C24.4233 72.4297 24.4934 72.4834 24.5727 72.5192C24.6521 72.5549 24.7385 72.5718 24.8254 72.5685C24.9142 72.5858 25.0059 72.5804 25.0921 72.5529C25.1783 72.5253 25.2563 72.4765 25.319 72.4107C25.4389 72.2237 25.494 72.0018 25.4755 71.7799C25.4925 71.5733 25.4372 71.3672 25.319 71.1976C25.2661 71.1264 25.1968 71.0693 25.1171 71.0312C25.0374 70.9932 24.9496 70.9753 24.8615 70.9792C24.7766 70.9777 24.6926 70.9955 24.6155 71.0312C24.5383 71.0669 24.4702 71.1196 24.416 71.1854C24.2764 71.3657 24.2002 71.5876 24.1993 71.8163V71.7678Z" fill="#58585A"/>
<path d="M27.0406 70.591V70.87C27.135 70.7622 27.252 70.6769 27.3832 70.6202C27.5144 70.5636 27.6564 70.537 27.799 70.5425C28.3287 70.5425 28.6056 70.8336 28.6056 71.4038V73.0052H28.0278V71.4402C28.0346 71.38 28.0297 71.319 28.0132 71.2607C27.9966 71.2024 27.9689 71.148 27.9314 71.1005C27.8338 71.0193 27.7084 70.9801 27.5823 70.9913C27.4775 70.9854 27.3732 71.0097 27.2815 71.0612C27.1899 71.1128 27.1147 71.1895 27.0646 71.2825V73.0052H26.5229V70.5789L27.0406 70.591Z" fill="#58585A"/>
<path d="M30.3392 73.0537C30.1765 73.0628 30.0136 73.0384 29.8604 72.9821C29.7073 72.9258 29.5671 72.8387 29.4484 72.7262C29.2274 72.4953 29.1062 72.1856 29.1113 71.8648V71.792C29.1063 71.569 29.1559 71.3482 29.2557 71.149C29.3527 70.9614 29.5001 70.8051 29.681 70.6978C29.862 70.5906 30.0692 70.5367 30.2791 70.5425C30.428 70.5341 30.5771 70.5579 30.7162 70.6123C30.8553 70.6667 30.9813 70.7504 31.0857 70.8579C31.1894 70.979 31.2683 71.1196 31.3179 71.2716C31.3675 71.4236 31.3868 71.584 31.3746 71.7435V71.974H29.6891C29.7061 72.1519 29.7825 72.3187 29.9058 72.4471C30.035 72.5622 30.2031 72.6229 30.3754 72.617C30.4997 72.6213 30.6233 72.596 30.7363 72.5434C30.8492 72.4907 30.9482 72.412 31.0255 72.3137L31.3385 72.5927C31.2291 72.7403 31.084 72.8573 30.9171 72.9324C30.7366 73.0178 30.5386 73.0594 30.3392 73.0537ZM30.2791 70.9792C30.2071 70.9739 30.135 70.9854 30.0682 71.0127C30.0013 71.0401 29.9417 71.0826 29.8938 71.1369C29.7826 71.2565 29.7148 71.4104 29.7012 71.5737H30.8088C30.8036 71.4224 30.7486 71.2773 30.6523 71.1612C30.5567 71.0531 30.4225 70.9876 30.2791 70.9792Z" fill="#58585A"/>
<path d="M33.2647 72.4107C33.265 72.3655 33.2528 72.3211 33.2294 72.2825C33.206 72.2439 33.1724 72.2127 33.1323 72.1924C33.0026 72.1189 32.8591 72.0734 32.7109 72.0589C32.5422 72.0208 32.377 71.968 32.2173 71.9012C32.0965 71.8629 31.9907 71.7872 31.9151 71.6848C31.8394 71.5825 31.7977 71.4586 31.796 71.331C31.7952 71.2277 31.8202 71.1258 31.8685 71.0347C31.9169 70.9436 31.9872 70.8661 32.0729 70.8094C32.2823 70.6672 32.5308 70.5951 32.7832 70.6031C33.0491 70.5907 33.3116 70.6675 33.5296 70.8215C33.6194 70.8807 33.693 70.9617 33.7435 71.0571C33.794 71.1526 33.8198 71.2593 33.8185 71.3674H33.2407C33.2384 71.3178 33.2254 71.2692 33.2025 71.2252C33.1796 71.1812 33.1474 71.1428 33.1082 71.1126C33.0168 71.0373 32.9011 70.9985 32.7832 71.0035C32.6733 71.0041 32.5655 71.0334 32.4702 71.0884C32.4337 71.1147 32.4038 71.1493 32.383 71.1893C32.3621 71.2293 32.3507 71.2737 32.3498 71.3189C32.35 71.3593 32.3614 71.3988 32.3827 71.4331C32.404 71.4674 32.4342 71.495 32.4702 71.513C32.6131 71.5744 32.7626 71.6191 32.9156 71.6464C33.0984 71.6811 33.2763 71.7382 33.4453 71.8163C33.5598 71.8667 33.6593 71.9461 33.7343 72.0468C33.8037 72.1457 33.8377 72.2655 33.8306 72.3865C33.83 72.4909 33.8032 72.5936 33.7527 72.6848C33.7022 72.776 33.6296 72.8528 33.5416 72.9081C33.3194 73.0516 33.059 73.1236 32.7952 73.1144C32.6011 73.118 32.4084 73.0808 32.2294 73.0052C32.0786 72.9426 31.946 72.8424 31.8441 72.714C31.7522 72.5963 31.7014 72.4513 31.6997 72.3016H32.2655C32.2677 72.3606 32.2829 72.4184 32.31 72.4709C32.3371 72.5233 32.3753 72.5691 32.422 72.6048C32.5344 72.6605 32.6579 72.6895 32.7832 72.6895C32.9084 72.6895 33.032 72.6605 33.1443 72.6048C33.178 72.5842 33.2065 72.5559 33.2274 72.5222C33.2483 72.4885 33.2611 72.4503 33.2647 72.4107Z" fill="#58585A"/>
<path d="M34.3362 69.9844C34.3338 69.9458 34.3402 69.9072 34.3548 69.8715C34.3694 69.8358 34.3918 69.8038 34.4205 69.7782C34.4888 69.723 34.5737 69.693 34.6613 69.693C34.7488 69.693 34.8337 69.723 34.902 69.7782C34.9243 69.807 34.9401 69.8404 34.9484 69.876C34.9567 69.9116 34.9573 69.9486 34.9502 69.9844C34.951 70.0228 34.9439 70.0609 34.9294 70.0964C34.9149 70.1319 34.8933 70.1639 34.8659 70.1906C34.7947 70.2386 34.7109 70.2642 34.6251 70.2642C34.5394 70.2642 34.4556 70.2386 34.3844 70.1906C34.342 70.1309 34.3247 70.0568 34.3362 69.9844ZM34.9502 73.0052H34.3723V70.5788H34.9502V73.0052Z" fill="#58585A"/>
<path d="M37.1172 73.0052C37.0858 72.9351 37.0616 72.8619 37.045 72.7868C36.8633 72.9608 36.6214 73.0566 36.3708 73.0537C36.1444 73.0623 35.9224 72.9892 35.7448 72.8475C35.6657 72.786 35.6017 72.7069 35.5579 72.6164C35.514 72.5259 35.4915 72.4265 35.492 72.3258C35.4896 72.2081 35.5171 72.0917 35.5719 71.9876C35.6266 71.8836 35.7069 71.7954 35.805 71.7314C36.0685 71.5808 36.3692 71.5092 36.6718 71.5251H37.0329V71.3674C37.0352 71.3112 37.0256 71.2551 37.0048 71.2028C36.9841 71.1506 36.9527 71.1033 36.9126 71.0641C36.8664 71.0243 36.8128 70.9941 36.7549 70.9753C36.697 70.9566 36.636 70.9497 36.5755 70.9549C36.4597 70.9523 36.346 70.9862 36.2504 71.052C36.2125 71.0769 36.1815 71.1111 36.1604 71.1514C36.1393 71.1918 36.1289 71.2369 36.13 71.2825H35.5521C35.5556 71.1462 35.602 71.0144 35.6846 70.9064C35.7902 70.788 35.9223 70.6965 36.0698 70.6395C36.2432 70.5749 36.4267 70.5421 36.6116 70.5425C36.868 70.5319 37.1211 70.6041 37.3339 70.7487C37.4219 70.8227 37.4925 70.9155 37.5404 71.0205C37.5883 71.1254 37.6123 71.2398 37.6108 71.3553V72.4107C37.5994 72.59 37.6325 72.7693 37.7071 72.9324L37.1172 73.0052ZM36.4792 72.617C36.593 72.6178 36.7051 72.5886 36.8042 72.5321C36.8963 72.4835 36.9749 72.4126 37.0329 72.3258V71.8648H36.7199C36.5523 71.8534 36.385 71.8913 36.2384 71.974C36.1866 72.0055 36.1439 72.05 36.1143 72.1032C36.0848 72.1564 36.0694 72.2164 36.0698 72.2773C36.0684 72.3234 36.0774 72.3692 36.0962 72.4112C36.115 72.4533 36.143 72.4904 36.1782 72.5199C36.2652 72.5846 36.371 72.6187 36.4792 72.617Z" fill="#58585A"/>
<path d="M38.285 70.7123L37.9961 70.5425C38.134 70.3659 38.2102 70.1484 38.2128 69.9237V69.5719H38.7184V69.8752C38.7184 70.0406 38.677 70.2034 38.598 70.3484C38.5237 70.4929 38.4164 70.6176 38.285 70.7123Z" fill="#58585A"/>
<path d="M40.1149 72.4107C40.1185 72.3649 40.1076 72.3192 40.0838 72.28C40.06 72.2408 40.0246 72.2101 39.9825 72.1924C39.8528 72.1189 39.7093 72.0734 39.5611 72.0589C39.3958 72.0228 39.2344 71.97 39.0796 71.9012C38.9565 71.8651 38.8481 71.7903 38.7701 71.6877C38.6922 71.5851 38.6487 71.4602 38.6462 71.331C38.6454 71.2277 38.6704 71.1258 38.7187 71.0347C38.7671 70.9436 38.8374 70.8661 38.9231 70.8094C39.1325 70.6672 39.381 70.5951 39.6334 70.6031C39.8993 70.5907 40.1618 70.6675 40.3798 70.8215C40.4696 70.8807 40.5432 70.9617 40.5937 71.0571C40.6442 71.1526 40.67 71.2593 40.6687 71.3674H40.0909C40.0886 71.3178 40.0756 71.2692 40.0527 71.2252C40.0298 71.1812 39.9977 71.1428 39.9584 71.1126C39.8682 71.0352 39.7517 70.9961 39.6334 71.0035C39.5235 71.0041 39.4157 71.0334 39.3204 71.0884C39.2839 71.1147 39.2541 71.1493 39.2332 71.1893C39.2123 71.2293 39.2009 71.2737 39.2 71.3189C39.2026 71.3587 39.215 71.3973 39.236 71.4311C39.257 71.465 39.286 71.4931 39.3204 71.513C39.4633 71.5744 39.6128 71.6191 39.7658 71.6464C39.9519 71.6833 40.1335 71.7403 40.3076 71.8163C40.4168 71.8697 40.5118 71.9487 40.5845 72.0468C40.6539 72.1457 40.6879 72.2655 40.6808 72.3865C40.6802 72.4909 40.6534 72.5936 40.6029 72.6848C40.5524 72.776 40.4798 72.8528 40.3918 72.9081C40.1702 73.0531 39.9094 73.1252 39.6454 73.1144C39.4513 73.118 39.2586 73.0808 39.0796 73.0052C38.9288 72.9426 38.7962 72.8424 38.6943 72.714C38.6059 72.5952 38.5593 72.4501 38.5619 72.3016H39.1157C39.1179 72.3606 39.1332 72.4184 39.1602 72.4709C39.1873 72.5233 39.2255 72.5691 39.2722 72.6048C39.3849 72.6725 39.5144 72.7061 39.6454 72.7019C39.7662 72.7103 39.887 72.6851 39.9945 72.6291C40.0315 72.6062 40.062 72.5741 40.0831 72.5358C40.1042 72.4976 40.1152 72.4545 40.1149 72.4107Z" fill="#58585A"/>
<path d="M43.0525 72.5563H44.5814V73.0052H42.4505V69.7539H43.0525V72.5563Z" fill="#58585A"/>
<path d="M46.5679 73.0052C46.5365 72.9351 46.5123 72.8619 46.4956 72.7868C46.3139 72.9608 46.0721 73.0566 45.8214 73.0537C45.5951 73.0623 45.3731 72.9892 45.1954 72.8475C45.1178 72.7853 45.0557 72.7059 45.0139 72.6153C44.9721 72.5248 44.9518 72.4256 44.9546 72.3258C44.9498 72.209 44.975 72.0929 45.0277 71.9888C45.0804 71.8846 45.1589 71.796 45.2556 71.7314C45.5191 71.5808 45.8199 71.5092 46.1224 71.5251H46.4836V71.3674C46.486 71.2563 46.4474 71.1482 46.3752 71.0641C46.2764 70.9851 46.1519 70.9462 46.0261 70.9549C45.9137 70.9494 45.803 70.9838 45.7131 71.052C45.6737 71.0762 45.6409 71.11 45.6178 71.1503C45.5947 71.1905 45.5819 71.236 45.5807 71.2825H45.0028C45.005 71.1438 45.0562 71.0104 45.1473 70.9064C45.2461 70.7858 45.3749 70.6937 45.5205 70.6395C45.6941 70.5759 45.8774 70.5431 46.0622 70.5425C46.3187 70.5319 46.5718 70.6041 46.7846 70.7487C46.8726 70.8227 46.9431 70.9155 46.991 71.0205C47.0389 71.1254 47.063 71.2398 47.0615 71.3553V72.4107C47.055 72.5897 47.0879 72.7678 47.1578 72.9324L46.5679 73.0052ZM45.9298 72.617C46.0439 72.6203 46.1567 72.5909 46.2548 72.5321C46.3492 72.487 46.4287 72.4154 46.4836 72.3258V71.8648H46.1706C46.0029 71.8534 45.8356 71.8913 45.689 71.974C45.6386 72.0061 45.5976 72.0511 45.5701 72.1044C45.5426 72.1576 45.5297 72.2173 45.5325 72.2773C45.5311 72.3234 45.5401 72.3692 45.5589 72.4112C45.5776 72.4533 45.6057 72.4904 45.6409 72.5199C45.7223 72.5864 45.825 72.6209 45.9298 72.617Z" fill="#58585A"/>
<path d="M49.0118 71.0763H48.771C48.6638 71.0647 48.5556 71.0864 48.461 71.1384C48.3663 71.1904 48.2897 71.2703 48.2413 71.3674V73.0173H47.6634V70.591H48.1931V70.8579C48.2547 70.76 48.3402 70.6796 48.4413 70.6244C48.5425 70.5692 48.656 70.541 48.771 70.5425H48.9757L49.0118 71.0763Z" fill="#58585A"/>
<path d="M49.2285 71.7799C49.2129 71.4571 49.311 71.1392 49.5054 70.8821C49.5975 70.7707 49.7138 70.6822 49.8453 70.6233C49.9769 70.5644 50.12 70.5367 50.2638 70.5425C50.3925 70.5366 50.5209 70.5596 50.6396 70.61C50.7583 70.6604 50.8643 70.7368 50.9501 70.8336V70.591H51.4677V72.9324C51.4763 73.0736 51.4525 73.2148 51.3983 73.3453C51.344 73.4757 51.2607 73.5918 51.1547 73.6846C50.9193 73.8823 50.6179 73.9821 50.312 73.9636C50.1221 73.9636 49.9341 73.9265 49.7582 73.8544C49.621 73.8083 49.4971 73.7292 49.397 73.6239L49.6619 73.2964C49.745 73.39 49.8472 73.4645 49.9614 73.5148C50.0757 73.565 50.1994 73.5898 50.324 73.5875C50.4888 73.595 50.6509 73.5434 50.7815 73.4419C50.8362 73.3866 50.8785 73.32 50.9055 73.2468C50.9325 73.1735 50.9436 73.0953 50.938 73.0173V72.8475C50.8542 72.9387 50.7514 73.01 50.6368 73.0562C50.5223 73.1023 50.399 73.1222 50.2759 73.1144C50.1357 73.1191 49.9963 73.0909 49.8689 73.0319C49.7414 72.973 49.6293 72.8849 49.5415 72.7747C49.3134 72.4964 49.2012 72.1398 49.2285 71.7799ZM49.8064 71.7799C49.7921 71.9824 49.8474 72.1837 49.9629 72.3501C50.0125 72.4179 50.0781 72.4722 50.1538 72.5082C50.2294 72.5442 50.3127 72.5608 50.3963 72.5563C50.5 72.5649 50.6041 72.5431 50.6959 72.4936C50.7877 72.4441 50.8634 72.369 50.9139 72.2773V71.2097C50.8627 71.1222 50.7882 71.0509 50.6988 71.0037C50.6095 70.9566 50.5089 70.9355 50.4083 70.9428C50.3229 70.9374 50.2376 70.9534 50.1598 70.9894C50.0821 71.0254 50.0144 71.0803 49.9629 71.149C49.834 71.3503 49.7786 71.5905 49.8064 71.8284V71.7799Z" fill="#58585A"/>
<path d="M53.2254 73.0537C53.0627 73.0628 52.8998 73.0384 52.7466 72.9821C52.5935 72.9258 52.4533 72.8387 52.3346 72.7262C52.2195 72.6154 52.129 72.4814 52.0688 72.333C52.0087 72.1846 51.9803 72.0251 51.9854 71.8648V71.792C51.9842 71.568 52.038 71.3471 52.1419 71.149C52.2354 70.9648 52.3769 70.8096 52.5513 70.7002C52.7347 70.5954 52.9423 70.541 53.1532 70.5425C53.3039 70.5347 53.4546 70.5587 53.5956 70.613C53.7366 70.6674 53.8647 70.7508 53.9719 70.8579C54.1684 71.1091 54.2668 71.4241 54.2488 71.7435V71.974H52.5753C52.5828 72.1519 52.6558 72.3206 52.78 72.4471C52.9115 72.5581 53.078 72.6184 53.2495 72.617C53.3739 72.6213 53.4975 72.596 53.6104 72.5434C53.7233 72.4907 53.8224 72.412 53.8996 72.3137L54.2126 72.5927C54.1052 72.7373 53.9648 72.8538 53.8033 72.9324C53.6219 73.0154 53.4246 73.0568 53.2254 73.0537ZM53.1532 70.9792C53.0815 70.9757 53.0098 70.9879 52.9433 71.0152C52.8768 71.0424 52.8169 71.084 52.768 71.1369C52.6612 71.2582 52.5976 71.4119 52.5874 71.5737H53.6829C53.684 71.4212 53.6282 71.274 53.5264 71.1612C53.48 71.1066 53.4229 71.0622 53.3587 71.0309C53.2945 70.9996 53.2245 70.982 53.1532 70.9792Z" fill="#58585A"/>
<path d="M56.1389 72.4107C56.1418 72.3665 56.132 72.3224 56.1106 72.2837C56.0892 72.245 56.0573 72.2133 56.0185 72.1924C55.8874 72.1221 55.7446 72.0768 55.5971 72.0589C55.4279 72.0226 55.2626 71.9698 55.1035 71.9012C54.9805 71.8651 54.872 71.7903 54.7941 71.6877C54.7161 71.5851 54.6727 71.4602 54.6701 71.331C54.6724 71.2283 54.6987 71.1275 54.7468 71.0369C54.7949 70.9463 54.8635 70.8683 54.947 70.8094C55.1565 70.6672 55.405 70.5951 55.6573 70.6031C55.9233 70.5907 56.1857 70.6675 56.4037 70.8215C56.4936 70.8807 56.5672 70.9617 56.6177 71.0571C56.6682 71.1526 56.694 71.2593 56.6927 71.3674H56.1148C56.1126 71.319 56.1008 71.2715 56.0801 71.2278C56.0594 71.184 56.0303 71.1449 55.9944 71.1126C55.8993 71.0355 55.7792 70.9966 55.6573 71.0035C55.551 71.0021 55.4465 71.0315 55.3564 71.0884C55.3184 71.1132 55.2874 71.1475 55.2664 71.1878C55.2453 71.2282 55.2348 71.2733 55.236 71.3189C55.2363 71.3578 55.2464 71.3961 55.2653 71.43C55.2843 71.4639 55.3114 71.4925 55.3443 71.513C55.488 71.5724 55.6372 71.6172 55.7898 71.6464C55.9759 71.6833 56.1575 71.7403 56.3315 71.8163C56.442 71.8731 56.5402 71.9515 56.6204 72.0468C56.6804 72.1495 56.7097 72.2674 56.7047 72.3865C56.7044 72.4896 56.679 72.5911 56.6307 72.682C56.5824 72.773 56.5128 72.8506 56.4278 72.9081C56.2018 73.0533 55.9372 73.1253 55.6694 73.1144C55.4753 73.118 55.2826 73.0808 55.1035 73.0052C54.9544 72.9396 54.8225 72.8399 54.7183 72.714C54.6349 72.5926 54.5889 72.4492 54.5859 72.3016H55.1396C55.1419 72.3606 55.1571 72.4184 55.1842 72.4709C55.2112 72.5233 55.2495 72.5691 55.2962 72.6048C55.4133 72.6722 55.5466 72.7058 55.6814 72.7019C55.7983 72.7093 55.9149 72.6841 56.0185 72.6291C56.0555 72.6062 56.086 72.5741 56.1071 72.5358C56.1282 72.4976 56.1391 72.4545 56.1389 72.4107Z" fill="#58585A"/>
<path d="M57.9327 69.9844V70.5789H58.3902V70.9792H57.9327V72.3258C57.9098 72.3926 57.9098 72.4653 57.9327 72.5321C57.9913 72.5768 58.0641 72.5984 58.1374 72.5927H58.342V73.0173C58.2179 73.0284 58.093 73.0284 57.9688 73.0173C57.8763 73.0297 57.7823 73.0202 57.6941 72.9896C57.6058 72.959 57.5259 72.9081 57.4605 72.8411C57.3951 72.774 57.3461 72.6926 57.3173 72.6031C57.2885 72.5137 57.2808 72.4188 57.2946 72.3258V70.9913H56.8733V70.591H57.2946V69.9844H57.9327Z" fill="#58585A"/>
<path d="M61.9056 72.1681C61.9103 72.1045 61.8983 72.0407 61.8708 71.9832C61.8434 71.9257 61.8014 71.8765 61.7491 71.8406C61.5706 71.729 61.3755 71.6471 61.1712 71.5979C60.9367 71.5422 60.7101 71.4565 60.497 71.3432C60.3593 71.2746 60.2427 71.1695 60.1599 71.0391C60.0772 70.9086 60.0314 70.7579 60.0275 70.6031C60.0287 70.4753 60.0611 70.3497 60.122 70.2375C60.1829 70.1253 60.2704 70.0301 60.3766 69.9601C60.6333 69.7791 60.9426 69.6894 61.2555 69.7054C61.4782 69.6998 61.6996 69.7411 61.9056 69.8267C62.0821 69.9029 62.2327 70.0294 62.339 70.1906C62.45 70.3368 62.5093 70.5161 62.5075 70.7002H61.9056C61.9085 70.625 61.895 70.5502 61.8658 70.481C61.8367 70.4118 61.7927 70.3499 61.737 70.2998C61.5956 70.213 61.4331 70.1671 61.2675 70.1671C61.1019 70.1671 60.9395 70.213 60.798 70.2998C60.7451 70.3361 60.7021 70.385 60.6726 70.4421C60.6432 70.4993 60.6284 70.563 60.6294 70.6274C60.6315 70.6892 60.6491 70.7496 60.6807 70.8026C60.7123 70.8557 60.7568 70.8998 60.81 70.9307C61.0036 71.0521 61.2148 71.1422 61.4361 71.1976C61.6624 71.255 61.8808 71.3406 62.0862 71.4523C62.2309 71.536 62.3545 71.6523 62.4473 71.792C62.5224 71.9249 62.5598 72.076 62.5557 72.2288C62.5593 72.3548 62.5315 72.4797 62.4747 72.5921C62.4179 72.7045 62.334 72.8006 62.2306 72.8717C61.9612 73.0434 61.6462 73.128 61.3277 73.1144C61.0887 73.1145 60.8518 73.0692 60.6294 72.9809C60.4374 72.9091 60.2701 72.7827 60.1479 72.617C60.0264 72.4665 59.9623 72.2771 59.9673 72.0832H60.5693C60.5664 72.1642 60.5824 72.2447 60.6158 72.3184C60.6492 72.3921 60.6992 72.457 60.7619 72.5078C60.927 72.6242 61.1267 72.6799 61.3277 72.6655C61.4932 72.6779 61.6581 72.6353 61.7972 72.5442C61.849 72.4984 61.8867 72.4387 61.9059 72.3721C61.9251 72.3055 61.925 72.2347 61.9056 72.1681Z" fill="#58585A"/>
<path d="M64.5421 72.7747C64.4483 72.8702 64.3354 72.9445 64.2108 72.9926C64.0862 73.0408 63.953 73.0616 63.8198 73.0537C63.7035 73.0612 63.5868 73.0446 63.4771 73.0049C63.3674 72.9653 63.2669 72.9035 63.1817 72.8232C63.0273 72.637 62.9497 72.3982 62.965 72.156V70.591H63.5429V72.1438C63.5429 72.4593 63.6753 72.6049 63.9522 72.6049C64.0631 72.617 64.175 72.5972 64.2752 72.5478C64.3753 72.4984 64.4595 72.4215 64.5181 72.3258V70.591H65.0478V73.0173H64.506L64.5421 72.7747Z" fill="#58585A"/>
<path d="M67.9371 71.8163C67.9527 72.1391 67.8547 72.457 67.6602 72.714C67.5756 72.8248 67.4658 72.9134 67.3401 72.9725C67.2144 73.0316 67.0765 73.0595 66.9379 73.0537C66.8132 73.0601 66.6885 73.0395 66.5723 72.9935C66.456 72.9475 66.3508 72.877 66.2637 72.7868V74H65.6858V70.591H66.2517V70.8336C66.3374 70.7368 66.4435 70.6604 66.5622 70.61C66.6809 70.5596 66.8092 70.5366 66.9379 70.5425C67.0788 70.5362 67.2193 70.5625 67.3487 70.6192C67.4781 70.676 67.5928 70.7618 67.6843 70.87C67.878 71.1361 67.9719 71.4628 67.9492 71.792L67.9371 71.8163ZM67.3593 71.8163C67.3698 71.6142 67.3149 71.4141 67.2028 71.2461C67.1547 71.1766 67.0894 71.121 67.0133 71.0848C66.9373 71.0486 66.8532 71.0331 66.7694 71.0399C66.6684 71.0295 66.5666 71.0493 66.4767 71.0967C66.3868 71.1442 66.3128 71.2172 66.2637 71.3068V72.3865C66.3134 72.4762 66.3872 72.55 66.4766 72.5994C66.5661 72.6488 66.6676 72.6717 66.7694 72.6655C66.8529 72.6699 66.9362 72.6534 67.0118 72.6174C67.0875 72.5814 67.1531 72.5271 67.2028 72.4593C67.3335 72.2543 67.3888 72.0096 67.3593 71.7678V71.8163Z" fill="#58585A"/>
<path d="M70.682 71.8163C70.6976 72.1391 70.5996 72.457 70.4051 72.714C70.3205 72.8248 70.2107 72.9134 70.085 72.9725C69.9593 73.0316 69.8214 73.0595 69.6828 73.0537C69.5562 73.061 69.4294 73.041 69.3111 72.995C69.1927 72.9489 69.0855 72.878 68.9966 72.7868V74H68.4187V70.591H68.9605V70.8336C69.0462 70.7368 69.1523 70.6604 69.271 70.61C69.3897 70.5596 69.518 70.5366 69.6467 70.5425C69.7861 70.5343 69.9255 70.5598 70.0532 70.6168C70.1809 70.6737 70.2933 70.7605 70.3811 70.87C70.5791 71.1345 70.6772 71.4613 70.658 71.792L70.682 71.8163ZM70.1042 71.8163C70.1147 71.6142 70.0598 71.4141 69.9477 71.2461C69.8988 71.1775 69.8333 71.1225 69.7575 71.0864C69.6816 71.0503 69.5979 71.0343 69.5143 71.0399C69.4119 71.0316 69.3093 71.0522 69.2179 71.0993C69.1264 71.1465 69.0498 71.2183 68.9966 71.3068V72.3865C69.0482 72.4772 69.1242 72.5515 69.2157 72.6008C69.3072 72.6501 69.4107 72.6726 69.5143 72.6655C69.5974 72.6669 69.6797 72.6491 69.7548 72.6133C69.83 72.5776 69.896 72.5248 69.9477 72.4593C70.0714 72.2514 70.1263 72.0092 70.1042 71.7678V71.8163Z" fill="#58585A"/>
<path d="M71.7776 73.0052H71.1997V69.5719H71.7776V73.0052Z" fill="#58585A"/>
<path d="M72.4036 69.9844C72.4035 69.9461 72.4109 69.9082 72.4254 69.8728C72.4398 69.8374 72.4611 69.8053 72.4879 69.7782C72.5203 69.7484 72.5583 69.7255 72.5997 69.7109C72.641 69.6963 72.6849 69.6903 72.7287 69.6932C72.7743 69.6893 72.8203 69.6949 72.8638 69.7095C72.9072 69.7241 72.9473 69.7474 72.9815 69.7782C73.0083 69.8053 73.0295 69.8374 73.044 69.8728C73.0585 69.9082 73.0659 69.9461 73.0658 69.9844C73.0615 70.0607 73.0318 70.1334 72.9815 70.1906C72.9079 70.2431 72.8187 70.2688 72.7287 70.2634C72.6426 70.267 72.5578 70.2413 72.4879 70.1906C72.4376 70.1334 72.4079 70.0607 72.4036 69.9844ZM73.0176 73.0295H72.4397V70.6031H73.0176V73.0295Z" fill="#58585A"/>
<path d="M74.7873 73.0537C74.6246 73.0627 74.4617 73.0384 74.3085 72.9821C74.1554 72.9258 74.0152 72.8387 73.8965 72.7262C73.7814 72.6154 73.6909 72.4814 73.6307 72.333C73.5706 72.1846 73.5422 72.0251 73.5473 71.8648V71.792C73.5393 71.5672 73.5935 71.3446 73.7038 71.149C73.7935 70.9621 73.9359 70.806 74.1132 70.7002C74.2966 70.5954 74.5042 70.541 74.7151 70.5425C74.8642 70.5333 75.0134 70.5567 75.1527 70.6112C75.2919 70.6656 75.4178 70.7498 75.5217 70.8579C75.6255 70.979 75.7044 71.1196 75.754 71.2716C75.8036 71.4236 75.8228 71.584 75.8107 71.7435V71.974H74.1372C74.1447 72.1519 74.2177 72.3206 74.3419 72.4471C74.4734 72.5581 74.6399 72.6183 74.8114 72.617C74.9358 72.6213 75.0594 72.596 75.1723 72.5434C75.2852 72.4907 75.3843 72.412 75.4615 72.3137L75.7745 72.5927C75.6671 72.7373 75.5267 72.8538 75.3652 72.9324C75.1838 73.0154 74.9865 73.0568 74.7873 73.0537ZM74.679 70.9792C74.6073 70.9757 74.5356 70.9879 74.4691 71.0152C74.4025 71.0424 74.3427 71.084 74.2937 71.1369C74.187 71.2582 74.1234 71.4119 74.1132 71.5737H75.2087C75.2098 71.4212 75.1539 71.274 75.0522 71.1612C75.0058 71.1066 74.9487 71.0622 74.8845 71.0309C74.8202 70.9996 74.7503 70.982 74.679 70.9792Z" fill="#58585A"/>
<path d="M77.6045 71.0763H77.3757C77.267 71.0655 77.1575 71.0874 77.0611 71.1393C76.9647 71.1911 76.8857 71.2705 76.834 71.3674V73.0173H76.2561V70.591H76.8099V70.8579C76.8734 70.759 76.961 70.6782 77.0642 70.623C77.1674 70.5678 77.283 70.5401 77.3998 70.5425H77.6045V71.0763Z" fill="#58585A"/>
<path d="M81.9867 73.0052H81.3847L79.8437 70.7002V73.0052H79.2418V69.7539H79.8437L81.3847 72.0711V69.7539H81.9867V73.0052Z" fill="#58585A"/>
<path d="M83.7685 73.0537C83.6057 73.0628 83.4428 73.0384 83.2897 72.9821C83.1365 72.9258 82.9963 72.8387 82.8776 72.7262C82.6566 72.4953 82.5354 72.1856 82.5405 71.8648V71.792C82.5355 71.569 82.5851 71.3482 82.685 71.149C82.7819 70.9614 82.9293 70.8051 83.1103 70.6978C83.2912 70.5906 83.4984 70.5367 83.7083 70.5425C83.8573 70.5341 84.0063 70.5579 84.1454 70.6123C84.2845 70.6667 84.4105 70.7504 84.5149 70.8579C84.6186 70.979 84.6976 71.1196 84.7471 71.2716C84.7967 71.4236 84.816 71.584 84.8038 71.7435V71.974H83.1063C83.1233 72.1519 83.1997 72.3187 83.323 72.4471C83.4522 72.5622 83.6202 72.6229 83.7925 72.617C83.9169 72.6213 84.0405 72.596 84.1534 72.5434C84.2664 72.4907 84.3654 72.412 84.4426 72.3137L84.7557 72.5927C84.6463 72.7403 84.5012 72.8573 84.3343 72.9324C84.1574 73.016 83.9638 73.0575 83.7685 73.0537ZM83.7685 70.9792C83.6965 70.9739 83.6244 70.9854 83.5576 71.0127C83.4908 71.0401 83.4311 71.0826 83.3832 71.1369C83.2721 71.2565 83.2042 71.4104 83.1906 71.5737H84.2982C84.2931 71.4224 84.238 71.2773 84.1417 71.1612C84.0876 71.1 84.0206 71.0519 83.9455 71.0204C83.8705 70.9889 83.7894 70.9748 83.7083 70.9792H83.7685Z" fill="#58585A"/>
<path d="M85.9716 69.9844V70.5789H86.4291V70.9792H85.9716V72.3258C85.9487 72.3926 85.9487 72.4653 85.9716 72.5321C86.0302 72.5768 86.103 72.5984 86.1763 72.5927H86.3809V73.0173C86.2568 73.0284 86.1319 73.0284 86.0077 73.0173C85.9277 73.0189 85.8481 73.0044 85.7737 72.9747C85.6992 72.9449 85.6315 72.9005 85.5743 72.844C85.5171 72.7875 85.4717 72.7201 85.4407 72.6457C85.4097 72.5713 85.3937 72.4914 85.3937 72.4107V70.9913H84.9724V70.591H85.3937V69.9844H85.9716Z" fill="#58585A"/>
<path d="M89.1258 72.253L89.5352 70.591H90.101L89.4027 73.0173H88.9212L88.3794 71.3553L87.8256 73.0173H87.3561L86.6578 70.591H87.2116L87.633 72.2409L88.1627 70.591H88.5961L89.1258 72.253Z" fill="#58585A"/>
<path d="M90.3297 71.7678C90.324 71.547 90.3781 71.3289 90.4862 71.1369C90.5759 70.95 90.7183 70.7938 90.8956 70.688C91.0894 70.5889 91.3043 70.539 91.5216 70.5425C91.8324 70.534 92.1344 70.647 92.3643 70.8579C92.5839 71.0808 92.709 71.3809 92.7135 71.695V71.8163C92.7184 72.0393 92.6688 72.2601 92.569 72.4593C92.4742 72.6434 92.3276 72.7953 92.1476 72.896C91.9571 73.005 91.7406 73.0595 91.5216 73.0537C91.36 73.0595 91.1989 73.0324 91.0479 72.974C90.8969 72.9157 90.7591 72.8272 90.6427 72.714C90.5317 72.5919 90.4466 72.4482 90.3928 72.2917C90.339 72.1353 90.3175 71.9693 90.3297 71.8042V71.7678ZM90.9076 71.7678C90.8971 71.9792 90.9564 72.1883 91.0762 72.3622C91.131 72.4304 91.2009 72.4846 91.2804 72.5205C91.3599 72.5563 91.4467 72.5727 91.5336 72.5685C91.6201 72.5725 91.7061 72.5546 91.784 72.5164C91.8618 72.4783 91.9289 72.4211 91.9791 72.3501C92.1033 72.1645 92.1626 71.9425 92.1476 71.7192C92.1584 71.5153 92.0988 71.3138 91.9791 71.149C91.9262 71.0779 91.8569 71.0208 91.7772 70.9827C91.6975 70.9446 91.6097 70.9268 91.5216 70.9307C91.4368 70.9292 91.3527 70.947 91.2756 70.9827C91.1985 71.0184 91.1303 71.0711 91.0762 71.1369C90.9598 71.3427 90.9173 71.5826 90.9558 71.8163L90.9076 71.7678Z" fill="#58585A"/>
<path d="M94.6036 71.0763H94.3749C94.2661 71.0655 94.1567 71.0874 94.0603 71.1392C93.9639 71.1911 93.8848 71.2704 93.8331 71.3674V73.0173H93.2552V70.591H93.809V70.8579C93.8706 70.76 93.9561 70.6796 94.0572 70.6244C94.1584 70.5692 94.2719 70.541 94.3869 70.5425H94.5916L94.6036 71.0763Z" fill="#58585A"/>
<path d="M95.8075 71.974L95.5426 72.2166V73.0052H94.9648V69.5719H95.5426V71.5494L95.7232 71.3432L96.4335 70.591H97.1318L96.1807 71.5979L97.2401 73.0052H96.5659L95.8075 71.974Z" fill="#58585A"/>
</svg>
