<svg width="128" height="128" viewBox="0 0 128 128" fill="none" xmlns="http://www.w3.org/2000/svg">
<rect width="128" height="128" fill="white"/>
<path fill-rule="evenodd" clip-rule="evenodd" d="M64 104C41.9442 104 24 86.0558 24 64C24 41.9432 41.9442 24 64 24C68.0806 24 72.1075 24.6119 75.9649 25.8202C76.7463 26.0651 77.1814 26.8961 76.9364 27.6775C76.6915 28.4579 75.8615 28.893 75.0801 28.6481C71.509 27.5297 67.7798 26.9623 64 26.9623C43.5773 26.9623 26.9633 43.5773 26.9633 64C26.9633 84.4227 43.5773 101.037 64 101.037C84.4227 101.037 101.037 84.4227 101.037 64C101.037 56.2212 98.6532 48.7783 94.1437 42.4755C93.6672 41.8098 93.8212 40.8848 94.4868 40.4083C95.1525 39.9318 96.0775 40.0858 96.553 40.7514C101.425 47.5607 104 55.599 104 64C104 86.0558 86.0558 104 64 104Z" fill="#7D7B75"/>
<path fill-rule="evenodd" clip-rule="evenodd" d="M64 78.1562C59.8181 78.1562 56.4279 74.766 56.4279 70.5841V55.1112C56.4279 50.9293 59.8181 47.5391 64 47.5391C68.1819 47.5391 71.5721 50.9293 71.5721 55.1112V70.5841C71.5721 74.766 68.1819 78.1562 64 78.1562Z" fill="#7D7B75"/>
<path fill-rule="evenodd" clip-rule="evenodd" d="M93.3008 34.3703C93.3008 38.5522 89.9106 41.9424 85.7287 41.9424C81.5468 41.9424 78.1566 38.5522 78.1566 34.3703C78.1566 30.1884 81.5468 26.7982 85.7287 26.7982C89.9106 26.7982 93.3008 30.1884 93.3008 34.3703Z" fill="#D3484F"/>
<path fill-rule="evenodd" clip-rule="evenodd" d="M49.185 70.5839C49.185 74.7658 45.7948 78.156 41.6129 78.156C37.431 78.156 34.0408 74.7658 34.0408 70.5839C34.0408 66.402 37.431 63.0118 41.6129 63.0118C45.7948 63.0118 49.185 66.402 49.185 70.5839Z" fill="#D3484F"/>
<path fill-rule="evenodd" clip-rule="evenodd" d="M85.3995 78.1562C81.2166 78.1562 77.8274 74.766 77.8274 70.5841V55.1112C77.8274 50.9293 81.2166 47.5391 85.3995 47.5391C89.5814 47.5391 92.9706 50.9293 92.9706 55.1112V70.5841C92.9706 74.766 89.5814 78.1562 85.3995 78.1562Z" fill="#D3484F"/>
</svg>
