<svg width="128" height="128" viewBox="0 0 128 128" fill="none" xmlns="http://www.w3.org/2000/svg">
<rect width="128" height="128" fill="#353C4C"/>
<path d="M30.3972 77.8467C23.2241 77.8467 17.4085 72.2622 17.4085 65.3754C17.4212 62.9474 18.1518 60.5759 19.5105 58.5524C20.8692 56.5289 22.7969 54.9417 25.0565 53.9857C25.5185 54.4744 26.1342 54.7945 26.8036 54.8938C27.4731 54.993 28.1568 54.8658 28.7437 54.5327C29.3307 54.1996 29.7863 53.6802 30.0366 53.0589C30.2868 52.4376 30.317 51.751 30.1223 51.1107C29.9275 50.4703 29.5192 49.9138 28.9637 49.5317C28.4083 49.1495 27.7383 48.9642 27.0627 49.0057C26.387 49.0473 25.7455 49.3133 25.2424 49.7606C24.7392 50.2079 24.404 50.8101 24.2911 51.4694C21.5399 52.4859 19.1723 54.3146 17.5101 56.7068C15.8479 59.099 14.9717 61.9388 15.0007 64.8402C15.0007 72.6595 21.2241 79 28.9056 79C32.4069 78.9963 35.7722 77.6604 38.3022 75.2697C36.019 76.9512 33.2451 77.8554 30.3972 77.8467Z" fill="#E16E25"/>
<path d="M24.7492 56.938H28.7659L26.2631 71.4731L22.3972 71.4234L24.7492 56.938Z" fill="white"/>
<path d="M30.0176 71.3185L32.7326 57.0373L36.2857 56.9379V58.2237C36.2857 58.2237 37.2131 56.3585 40.6767 56.5682C41.4767 56.6622 42.2405 56.9509 42.8996 57.4083C43.5588 57.8658 44.0926 58.4778 44.4532 59.1894C44.7061 59.8723 44.7697 60.6096 44.6376 61.3249L43.2577 71.4289L39.5203 71.3737L40.9952 62.3844C41.0547 62.0665 41.0241 61.7385 40.9067 61.4366C40.7894 61.1347 40.59 60.8707 40.3304 60.6738C39.8899 60.3814 39.3694 60.2292 38.8387 60.2378C38.3691 60.217 37.9011 60.3062 37.473 60.498C37.0448 60.6898 36.6686 60.9788 36.3751 61.3415C36.158 61.6096 36.0104 61.9259 35.9449 62.263L34.0902 71.3682L30.0176 71.3185Z" fill="white"/>
<path d="M58.7269 52.9649L58.833 49.8195C57.8839 49.373 56.828 49.1953 55.7828 49.3063C53.7995 49.4112 53.3805 49.7698 53.3805 49.7698C53.3805 49.7698 50.185 51.475 49.9225 56.9436H48.0286L47.3471 60.2545H49.4364L47.632 70.982C47.632 70.982 47.1515 73.4652 45.9895 73.4873C44.2633 73.5204 43.0287 73.5646 43.0287 73.5646L43.0007 76.5334C44.1141 76.7784 45.2512 76.9024 46.3918 76.9031C46.9846 76.9046 47.5717 76.7883 48.118 76.561C48.7213 76.2979 49.2603 75.9101 49.6989 75.4236C50.1374 74.9372 50.4651 74.3634 50.6599 73.7412C51.1429 72.1451 51.5364 70.524 51.8387 68.8851C52.1683 67.1082 53.1403 60.2766 53.1403 60.2766L56.3247 60.2269L57.0062 57.0264H53.6096C53.6096 57.0264 53.6655 54.2948 55.1794 53.1636C56.6934 52.0323 58.7269 52.9649 58.7269 52.9649Z" fill="white"/>
<path d="M64.3136 56.8387C62.2506 56.8048 60.2583 57.5815 58.7749 58.9982C57.2915 60.4148 56.4383 62.3554 56.4031 64.3932C56.48 66.4148 57.3471 68.3282 58.8222 69.7315C60.2973 71.1348 62.2656 71.9189 64.3136 71.9189C66.3616 71.9189 68.3299 71.1348 69.8051 69.7315C71.2802 68.3282 72.1473 66.4148 72.2242 64.3932C72.1889 62.3554 71.3358 60.4148 69.8524 58.9982C68.369 57.5815 66.3767 56.8048 64.3136 56.8387ZM64.3136 68.3388C63.5285 68.3128 62.7685 68.059 62.1285 67.6091C61.4885 67.1592 60.9967 66.5331 60.7146 65.8089C60.4325 65.0847 60.3725 64.2945 60.5421 63.5369C60.7117 62.7792 61.1034 62.0877 61.6683 61.5485C62.2332 61.0093 62.9464 60.6464 63.7188 60.505C64.4912 60.3636 65.2886 60.45 66.0117 60.7534C66.7347 61.0568 67.3513 61.5637 67.7845 62.211C68.2177 62.8583 68.4483 63.6173 68.4477 64.3932C68.4271 65.4568 67.9803 66.4689 67.2053 67.2075C66.4304 67.9461 65.3904 68.351 64.3136 68.3332V68.3388Z" fill="white"/>
<path d="M84.4585 57.0375C84.4585 57.0375 80.3636 56.1932 78.9781 58.1742L80.492 49.8196H76.453L72.8552 71.3739H76.7155L76.872 69.7184C77.4954 70.3112 78.2316 70.7759 79.0381 71.0856C79.8446 71.3953 80.7052 71.544 81.5703 71.5229C82.1595 71.5176 82.7469 71.4566 83.3244 71.3408C84.4256 71.1166 85.4566 70.6354 86.3312 69.9375C87.2058 69.2397 87.8988 68.3453 88.3523 67.329C88.8811 66.1661 89.157 64.9066 89.1624 63.6318C89.2231 62.1743 88.7949 60.7379 87.9443 59.5454C87.0937 58.353 85.8684 57.4714 84.4585 57.0375ZM81.4809 68.2782C79.5367 68.2782 77.9557 66.5233 77.9557 64.3602C77.9557 62.197 79.5367 60.4422 81.4809 60.4422C83.425 60.4422 85.0004 62.197 85.0004 64.3602C85.0004 66.5233 83.4362 68.2782 81.4809 68.2782Z" fill="white"/>
<path d="M105.101 63.2508C105.122 62.4144 104.975 61.5821 104.669 60.8019C104.363 60.0216 103.904 59.3088 103.319 58.7042C102.733 58.0997 102.033 57.6153 101.257 57.2791C100.481 56.9428 99.6461 56.7612 98.7992 56.7448H98.6316C96.7742 56.7335 94.98 57.4109 93.6037 58.643C92.541 59.6019 91.735 60.8056 91.2574 62.1468C90.7798 63.488 90.6454 64.9251 90.8663 66.33C91.2406 68.8739 92.7713 71.6937 97.7099 71.7489C97.7099 71.7489 101.833 72.0579 104.023 69.8396L102.302 67.0805C101.837 67.5411 101.284 67.906 100.675 68.1542C100.066 68.4024 99.4132 68.5288 98.7545 68.5262C96.4026 68.5759 94.8887 66.4128 94.8887 66.4128C94.8887 66.4128 94.682 65.7395 94.8384 65.5354L104.403 65.7892C104.569 65.7937 104.731 65.7329 104.852 65.6203C104.973 65.5076 105.045 65.3521 105.051 65.1877C105.067 64.7849 105.084 64.1448 105.101 63.2508ZM94.6875 62.8645C94.6875 62.8645 96.0953 59.6694 98.5981 59.7688C101.101 59.8681 101.626 62.9694 101.626 62.9694L94.6875 62.8645Z" fill="white"/>
<path d="M110.14 49.7698L114 49.8194L110.14 71.2689L106.011 71.3737L110.14 49.7698Z" fill="white"/>
</svg>
