<svg width="128" height="128" viewBox="0 0 128 128" fill="none" xmlns="http://www.w3.org/2000/svg">
<rect width="128" height="128" fill="#104557"/>
<path fill-rule="evenodd" clip-rule="evenodd" d="M76.8498 67.6931C77.3532 67.6931 77.7888 67.598 78.1567 67.4041C78.5246 67.2111 78.8273 66.9523 79.0649 66.6276C79.3008 66.303 79.4768 65.9241 79.593 65.4918C79.7091 65.0605 79.7663 64.6006 79.7663 64.1132C79.7663 63.6667 79.7118 63.2274 79.6009 62.796C79.49 62.3637 79.3193 61.9786 79.0869 61.638C78.8546 61.2982 78.5554 61.0234 78.1875 60.8152C77.8196 60.6071 77.3743 60.5031 76.8498 60.5031C76.3358 60.5031 75.8976 60.6045 75.535 60.8072C75.1724 61.0109 74.8776 61.2804 74.6505 61.6148C74.4243 61.9501 74.2606 62.3335 74.1594 62.7649C74.0582 63.1971 74.0081 63.6463 74.0081 64.1132C74.0081 64.5802 74.0538 65.0302 74.1445 65.4616C74.2351 65.8938 74.3882 66.2736 74.6056 66.6036C74.8221 66.9336 75.1134 67.1977 75.4813 67.397C75.85 67.5944 76.3059 67.6931 76.8498 67.6931ZM73.9931 61.9804H74.0388C74.0987 61.7874 74.199 61.5748 74.3398 61.3409C74.4806 61.107 74.6672 60.8917 74.8978 60.6934C75.1292 60.495 75.4074 60.3305 75.7339 60.198C76.0612 60.0663 76.4353 60.0005 76.8577 60.0005C77.4509 60.0005 77.9657 60.1126 78.4031 60.3358C78.8405 60.5591 79.2013 60.8579 79.4882 61.2341C79.7742 61.6104 79.9872 62.0471 80.1289 62.5443C80.2697 63.0423 80.3401 63.5644 80.3401 64.1132C80.3401 64.7127 80.2688 65.2614 80.1289 65.7586C79.9863 66.2567 79.7725 66.6854 79.4856 67.0456C79.1987 67.4067 78.8361 67.6887 78.3978 67.8924C77.9604 68.0943 77.4438 68.1957 76.8498 68.1957C76.2047 68.1957 75.63 68.0533 75.1266 67.7696C74.6232 67.4859 74.2553 67.0234 74.0239 66.383H73.994L73.9931 70.8168H73.436V60.1828H73.9931V61.9804Z" fill="#F7931E"/>
<path fill-rule="evenodd" clip-rule="evenodd" d="M86.8218 63.5648C86.681 63.7374 86.468 63.8548 86.1803 63.9152C85.8942 63.9766 85.5756 64.022 85.2245 64.0522L84.2591 64.1438C83.9783 64.1749 83.6958 64.2176 83.4151 64.2737C83.1335 64.3288 82.88 64.4231 82.6538 64.5556C82.4277 64.6873 82.2437 64.8678 82.1038 65.0964C81.963 65.325 81.8917 65.622 81.8917 65.9876C81.8917 66.5657 82.073 66.9953 82.4356 67.2746C82.7973 67.5539 83.2945 67.6935 83.9273 67.6935C84.5803 67.6935 85.0978 67.5743 85.4806 67.3351C85.8617 67.0976 86.153 66.8228 86.3545 66.5124C86.5552 66.2037 86.6837 65.904 86.7382 65.614C86.7945 65.325 86.8218 65.1293 86.8218 65.0279V63.5648ZM86.8218 66.4599H86.7919C86.7012 66.6938 86.5701 66.9144 86.4003 67.1225C86.2286 67.3306 86.0201 67.5156 85.7745 67.6784C85.5272 67.8411 85.2491 67.9674 84.9367 68.0591C84.626 68.1507 84.2837 68.196 83.9123 68.196C83.0886 68.196 82.4496 68.0155 81.9982 67.6561C81.5458 67.295 81.3196 66.7392 81.3196 65.9876C81.3196 65.5304 81.4103 65.1569 81.5916 64.8678C81.772 64.5779 81.9999 64.3493 82.2771 64.1821C82.5526 64.014 82.8597 63.8957 83.1959 63.8245C83.533 63.7525 83.8569 63.7018 84.1684 63.6715L85.0582 63.5959C85.47 63.5648 85.7939 63.5168 86.0306 63.451C86.2665 63.3851 86.4443 63.2935 86.5648 63.1761C86.6863 63.0596 86.762 62.9102 86.7919 62.727C86.8218 62.5446 86.8368 62.3161 86.8368 62.0421C86.8368 61.8278 86.7963 61.6303 86.7162 61.4471C86.6352 61.2648 86.5103 61.102 86.3387 60.9597C86.1679 60.8183 85.9479 60.7062 85.676 60.6244C85.4049 60.5434 85.0731 60.5034 84.6806 60.5034C83.9871 60.5034 83.4274 60.6751 83.0006 61.0211C82.5729 61.3662 82.3396 61.8891 82.2991 62.59H81.7262C81.7667 61.7273 82.0404 61.0798 82.5482 60.6475C83.056 60.2161 83.7768 60 84.7114 60C85.646 60 86.3272 60.1859 86.754 60.5559C87.1809 60.9268 87.3939 61.4124 87.3939 62.011V66.5657C87.3939 66.6778 87.3965 66.7898 87.4018 66.901C87.4071 67.0131 87.4247 67.1145 87.4555 67.2061C87.4854 67.2968 87.5355 67.3706 87.6059 67.4276C87.6755 67.4827 87.7767 67.5112 87.9069 67.5112C88.0081 67.5112 88.1481 67.4952 88.3294 67.4649V67.9532C88.178 67.9932 88.0222 68.0137 87.862 68.0137C87.6306 68.0137 87.4475 67.9835 87.312 67.9221C87.1756 67.8607 87.0726 67.7798 87.0022 67.6784C86.9318 67.577 86.8843 67.4578 86.8596 67.3208C86.8341 67.183 86.8218 67.0327 86.8218 66.8708V66.4599Z" fill="#F7931E"/>
<path fill-rule="evenodd" clip-rule="evenodd" d="M92.2182 60.5031C91.7456 60.5031 91.3364 60.5991 90.9897 60.7921C90.6429 60.9851 90.3569 61.2395 90.1307 61.5544C89.9045 61.8692 89.7338 62.2268 89.6176 62.6279C89.5024 63.029 89.4452 63.4381 89.4452 63.8544C89.4452 64.3116 89.5024 64.7456 89.6176 65.1565C89.7338 65.5683 89.9089 65.9268 90.1457 66.2309C90.3815 66.536 90.6728 66.777 91.0196 66.9549C91.3663 67.1328 91.7659 67.2218 92.2182 67.2218C92.6908 67.2218 93.1027 67.1301 93.4539 66.9469C93.8059 66.7646 94.0998 66.5156 94.3357 66.2007C94.5724 65.8858 94.7484 65.5274 94.8637 65.1263C94.979 64.726 95.0371 64.3018 95.0371 63.8544C95.0371 63.4177 94.979 62.9961 94.8637 62.5896C94.7484 62.1841 94.5724 61.8256 94.3357 61.5161C94.0998 61.2066 93.8059 60.9602 93.4539 60.777C93.1027 60.5947 92.6908 60.5031 92.2182 60.5031ZM95.61 60.1828V67.6015C95.61 68.0391 95.5599 68.4625 95.4595 68.8743C95.3583 69.2852 95.1858 69.6481 94.9403 69.9638C94.6948 70.2778 94.3568 70.5295 93.9247 70.7172C93.4944 70.9048 92.9478 71 92.286 71C91.875 71 91.4896 70.9564 91.1287 70.8701C90.7679 70.7839 90.4511 70.646 90.1818 70.4583C89.9099 70.2698 89.6925 70.0216 89.5261 69.7121C89.3616 69.4026 89.2683 69.0193 89.2489 68.5621H89.821C89.8518 68.9072 89.9363 69.2016 90.0771 69.4453C90.2188 69.689 90.4018 69.89 90.6271 70.0465C90.8542 70.204 91.1076 70.3187 91.3892 70.3899C91.67 70.461 91.9718 70.4966 92.294 70.4966C92.8255 70.4966 93.2708 70.4156 93.6281 70.2529C93.9846 70.0901 94.2679 69.8793 94.4792 69.6205C94.6904 69.3617 94.8391 69.0673 94.9236 68.7373C95.009 68.4073 95.0521 68.0747 95.0521 67.7394V65.941H95.0081C94.737 66.5209 94.3683 66.9629 93.9027 67.2662C93.4363 67.5713 92.8722 67.7243 92.2104 67.7243C91.6392 67.7243 91.1455 67.6255 90.7292 67.4272C90.3129 67.2289 89.9671 66.9549 89.6916 66.6036C89.4153 66.254 89.2102 65.8449 89.0747 65.378C88.9391 64.911 88.8714 64.4032 88.8714 63.8544C88.8714 63.3367 88.9444 62.844 89.0896 62.3762C89.2357 61.9101 89.4496 61.501 89.7312 61.1505C90.0119 60.8001 90.3613 60.5208 90.7785 60.3127C91.1956 60.1046 91.6761 60.0005 92.2183 60.0005C92.8308 60.0005 93.3967 60.1579 93.9141 60.4719C94.4316 60.7868 94.8013 61.2341 95.0222 61.8132H95.0521V60.1828H95.61Z" fill="#F7931E"/>
<path fill-rule="evenodd" clip-rule="evenodd" d="M103.223 63.6716C103.202 63.2456 103.131 62.8409 103.011 62.4602C102.89 62.0796 102.711 61.7443 102.474 61.4552C102.238 61.1661 101.951 60.9349 101.613 60.7623C101.275 60.5889 100.89 60.5026 100.457 60.5026C99.9927 60.5026 99.5844 60.5925 99.2324 60.7694C98.8786 60.9473 98.5829 61.1813 98.34 61.4703C98.0988 61.7603 97.9123 62.0974 97.7811 62.4834C97.65 62.8694 97.569 63.2652 97.5391 63.6716H103.223ZM97.5241 64.1741V64.2657C97.5241 64.7229 97.5848 65.1596 97.7054 65.5759C97.826 65.9921 98.0046 66.3586 98.2422 66.6725C98.4781 66.9883 98.7756 67.2364 99.1337 67.4196C99.4919 67.602 99.9073 67.6927 100.381 67.6927C101.156 67.6927 101.772 67.4881 102.225 67.0763C102.679 66.6654 102.99 66.0944 103.163 65.3624H103.735C103.564 66.2767 103.194 66.9776 102.627 67.465C102.059 67.9524 101.308 68.1961 100.374 68.1961C99.7999 68.1961 99.3001 68.092 98.8741 67.8839C98.4464 67.6758 98.09 67.3921 97.8031 67.031C97.5171 66.6707 97.3023 66.2438 97.1624 65.7511C97.0216 65.2583 96.9512 64.7282 96.9512 64.159C96.9512 63.6111 97.0242 63.0846 97.1703 62.5821C97.3155 62.0796 97.5338 61.6375 97.826 61.2568C98.1173 60.8762 98.4807 60.5711 98.9181 60.3425C99.3555 60.1139 99.8704 60.0001 100.464 60.0001C101.006 60.0001 101.486 60.1015 101.903 60.3052C102.32 60.5079 102.67 60.7846 102.951 61.135C103.232 61.4854 103.446 61.8919 103.592 62.3544C103.737 62.816 103.81 63.3114 103.81 63.8388C103.81 63.8904 103.808 63.9482 103.802 64.014C103.797 64.0807 103.795 64.1341 103.795 64.1741H97.5241Z" fill="#F7931E"/>
<path fill-rule="evenodd" clip-rule="evenodd" d="M105.408 65.4087C105.427 65.7743 105.508 66.0963 105.649 66.3755C105.79 66.6548 105.973 66.8941 106.199 67.0924C106.425 67.2899 106.689 67.4393 106.99 67.5407C107.292 67.643 107.619 67.6928 107.97 67.6928C108.222 67.6928 108.491 67.6705 108.777 67.6252C109.063 67.5789 109.33 67.4953 109.576 67.3735C109.822 67.2516 110.026 67.0817 110.187 66.8638C110.347 66.645 110.427 66.3684 110.427 66.0331C110.427 65.5964 110.297 65.2664 110.036 65.0423C109.774 64.8191 109.445 64.6465 109.049 64.5247C108.652 64.4028 108.224 64.3041 107.768 64.2276C107.309 64.1511 106.883 64.0373 106.486 63.8852C106.088 63.7322 105.759 63.5169 105.499 63.2377C105.237 62.9584 105.106 62.5492 105.106 62.0111C105.106 61.6251 105.192 61.3023 105.362 61.0435C105.534 60.7846 105.752 60.5792 106.018 60.4262C106.285 60.2741 106.584 60.1647 106.916 60.0989C107.247 60.0331 107.579 60.0002 107.91 60.0002C108.312 60.0002 108.689 60.0455 109.041 60.1371C109.392 60.2287 109.697 60.3755 109.953 60.5792C110.209 60.782 110.41 61.0408 110.556 61.3556C110.702 61.6705 110.775 62.0521 110.775 62.4985H110.201C110.201 62.1437 110.144 61.8386 110.028 61.5842C109.912 61.3307 109.752 61.1253 109.545 60.967C109.34 60.8104 109.096 60.693 108.815 60.6174C108.533 60.5409 108.231 60.5027 107.91 60.5027C107.649 60.5027 107.385 60.5285 107.119 60.5792C106.853 60.6299 106.614 60.7161 106.403 60.838C106.192 60.9598 106.018 61.1173 105.882 61.3103C105.747 61.5033 105.679 61.7372 105.679 62.0111C105.679 62.326 105.755 62.5795 105.905 62.7725C106.056 62.9655 106.255 63.1211 106.5 63.2377C106.747 63.3542 107.023 63.4485 107.33 63.5187C107.636 63.5908 107.945 63.6619 108.257 63.7322C108.639 63.8033 108.998 63.8878 109.335 63.9839C109.671 64.0808 109.962 64.2125 110.209 64.3797C110.454 64.5478 110.649 64.763 110.79 65.0272C110.93 65.2913 111 65.6266 111 66.0331C111 66.46 110.905 66.8096 110.714 67.0844C110.523 67.3584 110.282 67.5789 109.991 67.747C109.699 67.9142 109.375 68.0308 109.019 68.0966C108.661 68.1633 108.312 68.1962 107.97 68.1962C107.528 68.1962 107.119 68.1375 106.742 68.0219C106.366 67.9045 106.036 67.7266 105.755 67.4882C105.473 67.249 105.251 66.9572 105.091 66.6121C104.93 66.267 104.845 65.8659 104.835 65.4087H105.408Z" fill="#F7931E"/>
<path fill-rule="evenodd" clip-rule="evenodd" d="M22.7424 68.0136L17 62.2101H22.7424V68.0136Z" fill="#F7931E"/>
<path fill-rule="evenodd" clip-rule="evenodd" d="M30.7861 59.9807V61.0699H30.8303C31.0978 60.6159 31.4451 60.2855 31.8715 60.0788C32.2979 59.8721 32.7346 59.7687 33.1801 59.7687C33.7454 59.7687 34.2091 59.8474 34.5712 60.0028C34.9333 60.1601 35.2181 60.3765 35.4265 60.6539C35.6349 60.9312 35.7808 61.2687 35.865 61.6679C35.9493 62.0663 35.9918 62.5071 35.9918 62.9912V67.8027H33.88V63.3852C33.88 62.7394 33.7801 62.258 33.5821 61.94C33.3842 61.622 33.0316 61.463 32.5262 61.463C31.9505 61.463 31.5346 61.637 31.2767 61.9859C31.0188 62.3331 30.8903 62.9064 30.8903 63.7023V67.8027H28.7776V59.9807H30.7861Z" fill="white"/>
<path fill-rule="evenodd" clip-rule="evenodd" d="M39.3754 65.8588C39.4692 66.0248 39.5908 66.1618 39.7393 66.2669C39.8886 66.3729 40.0597 66.4515 40.2525 66.5019C40.4461 66.5522 40.6467 66.5769 40.8551 66.5769C41.0036 66.5769 41.1599 66.5602 41.324 66.5248C41.4873 66.4895 41.6358 66.4338 41.7695 66.3579C41.9041 66.2819 42.0152 66.1812 42.1047 66.0558C42.1941 65.9294 42.2384 65.7704 42.2384 65.5796C42.2384 65.2555 42.0274 65.0143 41.6062 64.8527C41.1842 64.691 40.5972 64.5302 39.8444 64.3686C39.5361 64.2979 39.2365 64.2149 38.9439 64.1186C38.6512 64.0232 38.3907 63.8969 38.1632 63.7405C37.9349 63.5842 37.7516 63.3872 37.6127 63.1505C37.4738 62.9137 37.4043 62.6231 37.4043 62.2804C37.4043 61.776 37.5007 61.3626 37.6943 61.0393C37.888 60.7168 38.1433 60.4624 38.4602 60.2761C38.778 60.0888 39.1349 59.9581 39.5317 59.8821C39.9277 59.8061 40.3341 59.769 40.7509 59.769C41.1677 59.769 41.5715 59.8088 41.9631 59.89C42.3548 59.9704 42.7038 60.1065 43.0112 60.2981C43.3195 60.4898 43.5748 60.7442 43.778 61.0622C43.9812 61.3802 44.1027 61.7813 44.1427 62.2653H42.1342C42.1047 61.8519 41.951 61.5719 41.6731 61.4253C41.3952 61.2795 41.0679 61.2062 40.6919 61.2062C40.572 61.2062 40.4435 61.2142 40.3046 61.2292C40.1656 61.2442 40.0397 61.2769 39.9251 61.3272C39.8114 61.3776 39.715 61.4509 39.636 61.5463C39.5561 61.6426 39.517 61.7716 39.517 61.9323C39.517 62.124 39.5856 62.2804 39.7245 62.4014C39.8635 62.5224 40.0449 62.6204 40.2672 62.6964C40.4913 62.7724 40.7457 62.8404 41.034 62.9005C41.3214 62.9614 41.6141 63.0268 41.911 63.0975C42.2184 63.1681 42.5189 63.2538 42.8115 63.3545C43.1033 63.4552 43.3638 63.5895 43.5913 63.7555C43.8197 63.9225 44.0038 64.1292 44.1427 64.3756C44.2808 64.6239 44.3502 64.9286 44.3502 65.2908C44.3502 65.8058 44.2486 66.2368 44.0454 66.5849C43.8422 66.9329 43.5765 67.2129 43.25 67.4241C42.9227 67.6369 42.5484 67.7853 42.1264 67.871C41.7052 67.9567 41.2763 68 40.8404 68C40.394 68 39.9572 67.9541 39.5317 67.864C39.1045 67.773 38.7259 67.621 38.3933 67.4099C38.0608 67.1979 37.7881 66.9179 37.5754 66.5699C37.3626 66.2218 37.2454 65.7855 37.2263 65.2608H39.2339C39.2339 65.4931 39.2808 65.6927 39.3754 65.8588Z" fill="white"/>
<path fill-rule="evenodd" clip-rule="evenodd" d="M45.6442 67.8036H47.756V59.9816H45.6442V67.8036ZM45.6441 58.7705H47.756V57.0003H45.6441V58.7705Z" fill="white"/>
<path fill-rule="evenodd" clip-rule="evenodd" d="M54.7916 62.9387C54.7317 62.641 54.6301 62.3787 54.4868 62.1517C54.3427 61.9246 54.1569 61.7409 53.9285 61.5996C53.701 61.4582 53.4135 61.3876 53.0662 61.3876C52.7189 61.3876 52.4262 61.4582 52.1883 61.5996C51.9504 61.7409 51.7593 61.9273 51.6161 62.1596C51.4719 62.391 51.3677 62.656 51.3035 62.9537C51.2392 63.2514 51.2071 63.5615 51.2071 63.8839C51.2071 64.1869 51.2418 64.489 51.3113 64.792C51.3807 65.095 51.4919 65.3644 51.6456 65.602C51.7993 65.8387 51.9929 66.0304 52.2256 66.1762C52.4584 66.3228 52.7388 66.3961 53.0662 66.3961C53.4135 66.3961 53.7036 66.3255 53.9363 66.1841C54.169 66.0437 54.3548 65.8537 54.4938 65.6161C54.6327 65.3803 54.7317 65.11 54.7916 64.807C54.8507 64.504 54.8811 64.1922 54.8811 63.8689C54.8811 63.5465 54.8507 63.2364 54.7916 62.9387ZM54.8811 66.8042C54.6327 67.2273 54.308 67.533 53.9059 67.7194C53.5047 67.9066 53.0515 67.9994 52.5461 67.9994C51.9704 67.9994 51.4641 67.8863 51.0291 67.6593C50.5923 67.4323 50.2328 67.1249 49.9497 66.7362C49.6675 66.3475 49.4547 65.9014 49.3106 65.397C49.1665 64.8927 49.0944 64.3688 49.0944 63.8238C49.0944 63.2991 49.1665 62.7921 49.3106 62.3027C49.4547 61.8142 49.6675 61.3823 49.9497 61.0095C50.2328 60.6367 50.5871 60.3364 51.0134 60.1094C51.4398 59.8823 51.9356 59.7693 52.5009 59.7693C52.9568 59.7693 53.391 59.8673 53.8026 60.0634C54.2133 60.2604 54.5381 60.5502 54.776 60.9335H54.8064V57H56.9182V67.8033H54.9106V66.8042H54.8811Z" fill="white"/>
<path fill-rule="evenodd" clip-rule="evenodd" d="M63.158 61.8112C62.9045 61.5294 62.5207 61.3881 62.0049 61.3881C61.6679 61.3881 61.3875 61.4455 61.1652 61.5612C60.942 61.6778 60.7631 61.8218 60.6294 61.9932C60.4957 62.1646 60.401 62.3456 60.3472 62.5373C60.2925 62.7299 60.2603 62.9004 60.2499 63.0523H63.686C63.587 62.5073 63.4107 62.0939 63.158 61.8112ZM60.77 65.9267C61.0879 66.2394 61.5437 66.3958 62.1394 66.3958C62.5649 66.3958 62.9322 66.2871 63.2396 66.0707C63.547 65.8534 63.7355 65.6237 63.8049 65.3817H65.6641C65.3662 66.3198 64.9103 66.9911 64.2955 67.3939C63.6808 67.7976 62.9374 67.9999 62.0648 67.9999C61.4595 67.9999 60.9142 67.9019 60.4279 67.7049C59.9425 67.5079 59.5309 67.2279 59.194 66.8648C58.8562 66.5018 58.5966 66.068 58.4133 65.5637C58.2293 65.0593 58.1381 64.5045 58.1381 63.8994C58.1381 63.3147 58.2319 62.7696 58.4203 62.2653C58.6087 61.7609 58.8762 61.3245 59.2235 60.9561C59.5709 60.5887 59.9842 60.2981 60.4653 60.0861C60.9463 59.8749 61.4795 59.7689 62.0648 59.7689C62.7195 59.7689 63.2891 59.897 63.7745 60.155C64.2608 60.412 64.6603 60.7574 64.972 61.1911C65.2855 61.6248 65.5095 62.1195 65.6493 62.6742C65.7882 63.2281 65.8369 63.8085 65.7987 64.4135H60.2499C60.2803 65.1096 60.4531 65.6149 60.77 65.9267Z" fill="white"/>
<path fill-rule="evenodd" clip-rule="evenodd" d="M69.0554 59.9807V61.433H69.0849C69.1831 61.1909 69.3185 60.9666 69.487 60.7599C69.6546 60.5532 69.8482 60.3765 70.0662 60.2299C70.285 60.0841 70.5177 59.971 70.7661 59.8898C71.0136 59.8094 71.2715 59.7687 71.5389 59.7687C71.6787 59.7687 71.8307 59.7944 72 59.8447V61.8411C71.901 61.8216 71.782 61.804 71.6431 61.7881C71.5042 61.7731 71.3704 61.766 71.2419 61.766C70.8546 61.766 70.5273 61.8314 70.2598 61.963C69.9924 62.0937 69.7762 62.273 69.6129 62.5C69.4497 62.7271 69.3324 62.9912 69.263 63.2942C69.1935 63.5972 69.1596 63.9249 69.1596 64.2773V67.8027H67.0469V59.9807H69.0554Z" fill="white"/>
<path fill-rule="evenodd" clip-rule="evenodd" d="M25 67.8036H27.1118V59.9816H25V67.8036ZM25 58.7705H27.1118V57.0003H25V58.7705Z" fill="white"/>
</svg>
