<svg width="128" height="128" viewBox="0 0 128 128" fill="none" xmlns="http://www.w3.org/2000/svg">
<rect width="128" height="128" fill="white"/>
<rect width="128" height="128" fill="url(#paint0_radial_1195_2422)"/>
<path d="M64.0323 41.669C63.2585 41.669 62.4931 41.7086 61.739 41.786C60.9849 41.8633 60.2412 41.978 59.5102 42.1285C58.7792 42.279 58.0612 42.4654 57.3575 42.6855L55.2922 43.4452L53.3259 44.3964L51.4703 45.5275L49.7366 46.8266L48.1367 48.2825L46.6821 49.8839L45.3839 51.6188L44.2534 53.476L43.3034 55.4436C43.0178 56.1166 42.7638 56.8067 42.5439 57.511C42.324 58.2153 42.1379 58.9344 41.9874 59.6659C41.8369 60.3974 41.7224 61.1415 41.6449 61.8965C41.5674 62.6514 41.5284 63.4173 41.5284 64.1917C41.5284 64.9661 41.5679 65.732 41.6449 66.4869C41.7214 67.2359 41.8357 67.9805 41.9874 68.7178C42.1379 69.4521 42.324 70.1683 42.5439 70.8727C42.7638 71.5771 43.0175 72.2668 43.3034 72.94L44.2534 74.9077L45.3839 76.7646L46.6821 78.4999L48.1367 80.1012L49.7366 81.5573L51.4703 82.8564L53.3259 83.9871L55.2922 84.9385L57.3575 85.6982L59.5102 86.2554C60.2469 86.4072 60.9908 86.5217 61.739 86.5982C62.501 86.6759 63.2664 86.7151 64.0323 86.7145C64.8062 86.7145 65.5716 86.6753 66.3254 86.5982C67.0736 86.5217 67.8175 86.4072 68.5542 86.2554L70.7072 85.6982L72.7724 84.9385L74.7385 83.9871L76.5943 82.8564L78.3281 81.5573L79.9282 80.1012L81.3831 78.4999L82.6811 76.7646L83.8116 74.9077L84.7619 72.94L85.5209 70.8727C85.7409 70.1683 85.9272 69.4493 86.0776 68.7178L86.4198 66.4867C86.4974 65.7318 86.5365 64.9658 86.5365 64.1914C86.5365 63.417 86.4974 62.6511 86.4198 61.8962C86.3434 61.1473 86.2291 60.4029 86.0776 59.6656C85.9272 58.9313 85.7409 58.2153 85.5209 57.5107L84.7619 55.4434L83.8116 53.4757L82.6811 51.6185L81.3831 49.8836L79.9282 48.2822L78.3281 46.8263L76.5943 45.5272L74.7385 44.3961L72.7724 43.4449L70.7072 42.6852L68.5542 42.1282L66.3254 41.7857C65.5635 41.7077 64.7982 41.669 64.0323 41.669ZM64.0323 49.443C64.544 49.443 65.0489 49.4684 65.5462 49.5187L67.0122 49.741L68.4282 50.1024L69.7842 50.5959L71.0733 51.2144L72.2856 51.9501L73.4189 52.7965L74.4637 53.746L75.4123 54.7915L76.258 55.9257L76.9932 57.1418L77.6106 58.4326C77.7961 58.8743 77.9607 59.327 78.104 59.7899C78.2471 60.2528 78.3675 60.7258 78.4648 61.2076C78.562 61.6894 78.634 62.1798 78.6866 62.6777L78.7622 64.1931C78.7622 64.7052 78.7369 65.2107 78.6866 65.7089C78.6365 66.2071 78.5627 66.6974 78.4648 67.1789C78.367 67.6604 78.2463 68.1335 78.104 68.5967L77.6106 69.954L76.9932 71.2446L76.258 72.4605L75.4123 73.595L74.4637 74.6405L73.4189 75.59L72.2856 76.4365L71.0733 77.1722L69.7842 77.7907L68.4282 78.284L67.0122 78.6456L65.5462 78.8675C65.0431 78.9181 64.5377 78.9433 64.0321 78.9433C63.5263 78.9433 63.0208 78.9181 62.5177 78.8675L61.0517 78.6456C60.5704 78.5479 60.0979 78.427 59.6353 78.284L58.2794 77.7907L56.9902 77.1722L55.778 76.4365L54.6447 75.59L53.5999 74.6405L52.6513 73.595L51.8055 72.4605L51.0703 71.2446L50.4529 69.954L49.9596 68.5967L49.5987 67.1789L49.3769 65.7089C49.3264 65.2052 49.3012 64.6994 49.3013 64.1931C49.3012 63.687 49.3264 63.1812 49.3769 62.6777C49.4268 62.1798 49.5009 61.6891 49.5987 61.2076C49.6956 60.7294 49.8161 60.2563 49.9599 59.7901L50.4532 58.4328L51.0706 57.1421L51.8058 55.9261L52.6515 54.7918L53.6002 53.7463L54.6449 52.7968L55.7782 51.9504L56.9905 51.2146L58.2796 50.5961C58.7233 50.4095 59.176 50.2448 59.6359 50.1027L61.0522 49.7412C61.5335 49.6435 62.0235 49.569 62.5182 49.519C63.0214 49.4685 63.5266 49.443 64.0323 49.443Z" fill="white"/>
<path d="M87.4489 35.262C87.2704 35.262 87.092 35.271 86.9142 35.2891C86.7363 35.3071 86.5597 35.334 86.3843 35.3698C86.2096 35.4057 86.036 35.4502 85.8655 35.5034C85.6944 35.5567 85.527 35.6185 85.362 35.6887C85.1976 35.759 85.0369 35.8375 84.8798 35.924C84.7228 36.0103 84.5706 36.1044 84.4233 36.2061C84.2754 36.3079 84.1331 36.417 83.9968 36.5332C83.8599 36.6492 83.7291 36.772 83.6045 36.9012C83.4804 37.0304 83.3625 37.1659 83.2512 37.307C83.14 37.4482 83.0361 37.5948 82.9396 37.7464C82.843 37.898 82.7544 38.0543 82.6731 38.2147C82.5925 38.3753 82.5191 38.5399 82.4544 38.7078C82.3896 38.8757 82.3334 39.0468 82.2851 39.2204C82.2374 39.394 82.1983 39.5699 82.1684 39.7474C82.1378 39.9249 82.1164 40.1038 82.1036 40.2835C82.0944 40.4107 82.0902 40.5383 82.0902 40.6659C82.0902 40.8461 82.0987 41.0262 82.117 41.2056C82.1348 41.3848 82.1617 41.5631 82.1971 41.7396C82.2325 41.9162 82.2765 42.0908 82.3291 42.2629C82.3823 42.4351 82.4434 42.6045 82.513 42.7705C82.5827 42.9365 82.6603 43.0989 82.7465 43.2571C82.832 43.4152 82.9255 43.569 83.0264 43.7177C83.1272 43.8664 83.2354 44.0098 83.3502 44.1476C83.4657 44.2854 83.5873 44.4174 83.7157 44.543C83.844 44.6685 83.9778 44.7874 84.1184 44.8994C84.2583 45.0114 84.4038 45.1163 84.5541 45.2137C84.7044 45.3111 84.8597 45.4009 85.0185 45.4826C85.178 45.5644 85.3412 45.6381 85.5074 45.7034C85.6742 45.7687 85.8435 45.8256 86.0159 45.8737C86.1882 45.9219 86.3623 45.9613 86.5383 45.9918C86.7143 46.0224 86.8922 46.0442 87.07 46.057C87.1965 46.0661 87.323 46.0706 87.4495 46.0706C87.6279 46.0706 87.807 46.0617 87.9848 46.0437C88.162 46.0257 88.3392 45.9988 88.514 45.963C88.6894 45.9272 88.8624 45.8826 89.0335 45.8294C89.204 45.7761 89.372 45.7143 89.5364 45.6442C89.7008 45.5739 89.8621 45.4955 90.0185 45.4091C90.1756 45.3227 90.3278 45.2285 90.4756 45.1267C90.6229 45.025 90.7653 44.916 90.9022 44.8C91.0385 44.6838 91.1693 44.561 91.2939 44.4317C91.4186 44.3024 91.5365 44.167 91.6471 44.0258C91.7583 43.8847 91.8622 43.738 91.9588 43.5864C92.0553 43.4348 92.1446 43.2784 92.2252 43.1179C92.3065 42.9572 92.3798 42.7927 92.4446 42.6247C92.5094 42.4568 92.5656 42.2858 92.6133 42.1121C92.6609 41.9386 92.7001 41.7627 92.7306 41.5852C92.7612 41.4077 92.7825 41.2287 92.7948 41.0491C92.8039 40.9218 92.8088 40.7943 92.8088 40.6667C92.8088 40.4865 92.7997 40.3065 92.7819 40.1272C92.7642 39.948 92.7373 39.7698 92.7019 39.5932C92.6664 39.4167 92.6218 39.242 92.5693 39.0699C92.5161 38.8977 92.455 38.7284 92.3853 38.5624C92.3157 38.3964 92.2381 38.2339 92.1525 38.0757C92.067 37.9176 91.9735 37.7639 91.8726 37.6151C91.7712 37.4663 91.663 37.3228 91.5481 37.185C91.4326 37.0472 91.311 36.9152 91.1833 36.7896C91.055 36.6641 90.9205 36.5452 90.7806 36.4332C90.6406 36.3212 90.4952 36.2164 90.3449 36.1191C90.1945 36.0217 90.0393 35.932 89.8798 35.8502C89.7203 35.7685 89.5572 35.6947 89.3909 35.6294C89.2247 35.5641 89.0548 35.5073 88.8825 35.4591C88.7108 35.4109 88.536 35.3714 88.36 35.3408C88.184 35.3102 88.0068 35.2885 87.8284 35.2758C87.7019 35.2667 87.5754 35.262 87.4489 35.262Z" fill="white"/>
<path d="M59.765 20.1297C57.3174 20.1258 55.1331 20.1359 53.171 20.1636L47.9106 20.3048C46.3521 20.3726 44.9753 20.461 43.7394 20.5754C43.1215 20.6324 42.5385 20.6963 41.9859 20.7666C41.4601 20.833 40.9357 20.9103 40.4131 20.9985C39.9155 21.0832 39.4433 21.1747 38.9905 21.2741C38.5378 21.3735 38.1054 21.4808 37.6881 21.5961C37.2803 21.7087 36.8755 21.8327 36.4745 21.9677C36.0815 22.1005 35.6981 22.2411 35.3195 22.3914C34.5623 22.6919 33.8237 23.0291 33.0631 23.407C32.4778 23.6979 31.9371 23.9924 31.4235 24.3042C30.9099 24.616 30.4233 24.9453 29.9468 25.304C29.4562 25.6752 28.9833 26.0693 28.5297 26.4851C28.0555 26.9178 27.5712 27.3936 27.068 27.9255C26.4357 28.59 25.8862 29.2096 25.3985 29.8177C25.1546 30.1216 24.9263 30.4221 24.7112 30.7243C24.4985 31.0221 24.2951 31.3265 24.1014 31.637C23.9097 31.9449 23.7282 32.2584 23.5545 32.5809C23.3781 32.909 23.2114 33.2422 23.0547 33.5801C22.7339 34.2704 22.4345 35.0137 22.1356 35.8435C21.9139 36.4569 21.7154 37.0785 21.5405 37.7069C21.3621 38.3491 21.2034 39.021 21.0618 39.7477C20.9203 40.4744 20.7968 41.2558 20.6883 42.12C20.5713 43.0674 20.4779 44.0175 20.4081 44.9694C20.3291 46.0161 20.2637 47.1678 20.2102 48.4497L20.0833 52.7121L20.0151 57.9078L19.9954 64.188L20.0532 73.3208L20.2336 80.2401L20.3726 82.9427L20.5462 85.1828C20.6019 85.7864 20.6715 86.3882 20.7551 86.9888C20.8312 87.522 20.913 87.9885 21.0009 88.3926C21.1794 89.2135 21.3904 90.0272 21.6336 90.8316C21.8663 91.6018 22.1325 92.3609 22.4314 93.1078C22.7251 93.8394 23.0465 94.5446 23.3961 95.2236C23.7456 95.9025 24.1234 96.5551 24.5294 97.182C24.9353 97.8083 25.3694 98.4095 25.8329 98.985C26.2958 99.5605 26.7883 100.111 27.3082 100.635C27.8288 101.161 28.378 101.66 28.9568 102.135C29.5424 102.616 30.1511 103.068 30.7807 103.488C31.3651 103.88 31.9434 104.238 32.5258 104.567C33.1082 104.896 33.6957 105.195 34.2996 105.466C34.9034 105.738 35.5225 105.982 36.1692 106.202C36.8159 106.421 37.4897 106.617 38.2018 106.79C38.9139 106.964 39.6677 107.116 40.4656 107.249C41.2633 107.381 42.1161 107.495 43.0273 107.593C43.9384 107.691 44.9104 107.772 45.9549 107.84C46.9994 107.908 48.1158 107.962 49.3153 108.005C51.1683 108.073 53.9733 108.112 57.208 108.127L67.6796 108.106L77.5956 107.967L81.366 107.86L83.822 107.734C84.3494 107.691 84.8652 107.64 85.3632 107.58C85.8612 107.521 86.352 107.453 86.8305 107.375C87.3083 107.298 87.7758 107.212 88.2347 107.116C88.6888 107.021 89.1404 106.915 89.589 106.799C90.0332 106.685 90.4714 106.557 90.9053 106.42C91.3385 106.284 91.7681 106.137 92.1947 105.978C92.6237 105.819 93.0484 105.649 93.4694 105.47C93.8929 105.289 94.3158 105.096 94.7405 104.891C95.3925 104.576 95.9175 104.314 96.3783 104.058C96.8121 103.82 97.2295 103.553 97.6286 103.26C98.0221 102.97 98.4132 102.639 98.8642 102.223C99.3152 101.807 99.8267 101.305 100.459 100.671C101.016 100.114 101.485 99.6296 101.889 99.1895C102.294 98.7493 102.635 98.3532 102.933 97.9712C103.218 97.6087 103.483 97.2316 103.729 96.841C103.967 96.4596 104.187 96.0635 104.411 95.6246C104.748 94.964 105.049 94.3518 105.317 93.761C105.578 93.1923 105.816 92.6125 106.031 92.0248C106.243 91.4414 106.427 90.8481 106.582 90.247C106.741 89.6286 106.878 88.9754 106.996 88.2591C107.114 87.5428 107.214 86.7635 107.301 85.8929C107.388 85.023 107.462 84.0606 107.527 82.98L107.699 79.3516L107.846 74.8393L107.952 69.8122L107.992 64.5558L107.898 54.2318L107.772 49.6076L107.6 45.6374L107.386 42.542C107.308 41.6806 107.224 41.0022 107.135 40.5435C107.036 40.0368 106.926 39.5324 106.805 39.0306C106.686 38.5424 106.556 38.0572 106.414 37.5753C106.276 37.1058 106.126 36.6399 105.964 36.1781C105.804 35.722 105.634 35.2755 105.456 34.8386C105.279 34.4017 105.086 33.975 104.887 33.5573C104.686 33.1396 104.477 32.732 104.257 32.3338C104.036 31.9356 103.807 31.5473 103.567 31.1685C103.327 30.7898 103.077 30.4206 102.817 30.0614C102.558 29.7033 102.288 29.3534 102.008 29.0122C101.728 28.6729 101.439 28.3425 101.139 28.0215C100.839 27.7009 100.529 27.3899 100.21 27.0889C99.8908 26.7879 99.5621 26.4964 99.2229 26.2145C98.8819 25.9317 98.533 25.6596 98.1749 25.3986C97.8137 25.1349 97.4446 24.8823 97.0676 24.6412C96.6856 24.3966 96.297 24.1634 95.901 23.9419C95.4989 23.7167 95.0894 23.5031 94.6751 23.3013C93.9864 22.9661 93.3496 22.6687 92.7251 22.4049C92.1103 22.1431 91.484 21.9106 90.8478 21.7082C90.208 21.5063 89.5419 21.3331 88.8092 21.1837C88.0759 21.0343 87.2766 20.9098 86.3721 20.8039C85.4677 20.698 84.4576 20.6124 83.302 20.5412C82.147 20.47 80.8474 20.4141 79.3637 20.3689L74.3214 20.256L67.9398 20.1806L59.7678 20.1303L59.765 20.1297ZM64.0091 27.8969L75.7939 27.9642L80.2396 28.05C81.4638 28.0845 82.3982 28.1249 82.9457 28.1714C83.6595 28.2316 84.3384 28.307 84.9886 28.3974C85.6119 28.4837 86.2328 28.5909 86.8488 28.7191C87.4409 28.8433 88.0056 28.9845 88.5464 29.1438C89.0866 29.3031 89.603 29.4816 90.098 29.679C90.5936 29.8764 91.0672 30.0936 91.5231 30.3314C91.9753 30.5674 92.4147 30.8271 92.8394 31.1095C93.2623 31.3905 93.6699 31.6933 94.0658 32.0195C94.4612 32.3457 94.845 32.6953 95.2196 33.0692C95.6156 33.4638 95.9804 33.8657 96.3165 34.2802C96.6514 34.6923 96.9619 35.1242 97.2448 35.5735C97.5314 36.0292 97.7893 36.5022 98.0178 36.9898C98.2513 37.4869 98.4609 38.0122 98.6491 38.5705C98.8379 39.1289 99.0054 39.7223 99.1539 40.3563C99.3097 41.0285 99.4398 41.7064 99.545 42.3884C99.6574 43.1114 99.754 43.8824 99.8358 44.7079C99.9171 45.5334 99.985 46.4138 100.041 47.3556C100.085 48.1111 100.124 49.1081 100.157 50.2855L100.24 54.3002L100.303 64.1341L100.231 73.9587L100.145 77.9618L100.026 80.8733C99.944 82.2368 99.8572 83.3829 99.7533 84.3802C99.7014 84.8791 99.6446 85.3407 99.5822 85.7736C99.5236 86.1825 99.4539 86.5896 99.3739 86.9949C99.3005 87.3647 99.2156 87.732 99.1184 88.0969C99.0261 88.444 98.9216 88.7887 98.8061 89.1297C98.6894 89.4719 98.5629 89.8104 98.426 90.1447C98.2812 90.4986 98.1284 90.8481 97.9677 91.1946C97.8247 91.5038 97.6744 91.805 97.5155 92.0977C97.3585 92.3878 97.191 92.6719 97.015 92.9505C96.8402 93.2266 96.6569 93.4947 96.465 93.7543C96.2744 94.0126 96.0745 94.2643 95.8655 94.5085C95.6578 94.7522 95.4408 94.9873 95.2153 95.215C94.9898 95.4421 94.7558 95.6613 94.5132 95.8731C94.2712 96.085 94.0194 96.2888 93.7591 96.4847C93.4994 96.6806 93.2299 96.8686 92.9518 97.0486C92.6732 97.2292 92.3866 97.4018 92.0902 97.5671C91.7938 97.7318 91.4882 97.8891 91.1741 98.0391C90.8539 98.1916 90.53 98.3342 90.2013 98.4671C89.8621 98.6042 89.5193 98.7315 89.1728 98.8497C88.4676 99.0903 87.7245 99.3015 86.9417 99.4833C86.1265 99.6725 85.3033 99.8268 84.4747 99.9462C84.1557 99.9927 83.4236 100.037 82.3749 100.077L78.3787 100.189L67.0487 100.336L55.1898 100.354L50.5326 100.305L47.5085 100.211L45.2786 100.053C44.5863 99.9951 43.9423 99.9302 43.3391 99.8562C42.7358 99.7827 42.1739 99.7007 41.6453 99.6076C41.1444 99.5213 40.6466 99.4172 40.1526 99.2972C39.7022 99.1876 39.2564 99.0597 38.8164 98.914C38.3921 98.7726 37.9864 98.6171 37.5917 98.4462C37.197 98.2754 36.8136 98.0881 36.4339 97.8836C36.0542 97.6792 35.6784 97.4575 35.2984 97.2151C35.0117 97.0327 34.7346 96.8478 34.4679 96.6525C34.2012 96.4566 33.9435 96.2613 33.6954 96.0568C33.4473 95.8523 33.2091 95.6417 32.9794 95.425C32.7511 95.2089 32.5307 94.9848 32.3186 94.7534C32.1071 94.522 31.905 94.2845 31.711 94.0384C31.5163 93.791 31.3308 93.5363 31.1549 93.2755C30.9762 93.0105 30.8073 92.7393 30.6483 92.4625C30.4875 92.1828 30.3348 91.8938 30.1896 91.595C30.0419 91.2914 29.9042 90.9828 29.7766 90.67C29.6469 90.351 29.524 90.0223 29.4084 89.6831C29.1772 89.0036 28.9743 88.2805 28.7978 87.5098C28.6213 86.739 28.4707 85.9199 28.3433 85.0469C28.2159 84.1745 28.1133 83.2488 28.0315 82.2656C27.9712 81.5414 27.9233 80.413 27.8866 78.9896L27.81 73.9272L27.8381 61.0218L28.06 48.6901L28.2292 44.3453L28.325 42.9091C28.3583 42.5256 28.3927 42.2415 28.4279 42.0709C28.5441 41.5097 28.661 40.9875 28.782 40.4987C28.895 40.0374 29.0207 39.5795 29.1589 39.1252C29.2903 38.6965 29.4287 38.2949 29.5767 37.9145C29.7194 37.5459 29.8785 37.184 30.0534 36.8297C30.2242 36.4852 30.4078 36.1552 30.6071 35.8341C30.8064 35.513 31.0215 35.2015 31.2561 34.8917C31.4906 34.5819 31.7432 34.276 32.018 33.9659C32.2929 33.6558 32.5898 33.3426 32.9117 33.0198C33.2869 32.6418 33.6776 32.2795 34.0828 31.9339C34.4654 31.6078 34.8643 31.3015 35.2781 31.0163C35.6849 30.7338 36.1021 30.4825 36.5366 30.2515C36.971 30.0205 37.4226 29.8117 37.8976 29.624C38.3726 29.4361 38.8716 29.2681 39.4002 29.1156C39.9555 28.9595 40.517 28.8264 41.0832 28.7165C41.6786 28.5996 42.311 28.4976 42.9861 28.4087C43.6613 28.3197 44.3796 28.2429 45.1475 28.1762C45.6832 28.1299 46.6061 28.0887 47.8215 28.054L52.2447 27.9664L64.0111 27.8944L64.0091 27.8969Z" fill="white"/>
<defs>
<radialGradient id="paint0_radial_1195_2422" cx="0" cy="0" r="1" gradientUnits="userSpaceOnUse" gradientTransform="translate(20.3927 137.331) rotate(-9.54784) scale(270.54 164.495)">
<stop stop-color="#FED576"/>
<stop offset="0.263" stop-color="#F47133"/>
<stop offset="0.609" stop-color="#BC3081"/>
<stop offset="1" stop-color="#4C63D2"/>
</radialGradient>
</defs>
</svg>
