<svg width="128" height="128" viewBox="0 0 128 128" fill="none" xmlns="http://www.w3.org/2000/svg">
<rect width="128" height="128" fill="#003D29"/>
<path d="M53.7565 64.6876L52.5479 64.5765C51.7554 64.5074 51.4363 64.2295 51.4363 63.7429C51.4363 63.1731 51.9223 62.7982 52.867 62.7982C53.7565 62.7982 54.2012 63.1865 54.2704 63.812H57.1051C56.9243 61.9645 55.6186 60.6582 52.9507 60.6582C50.1719 60.6582 48.6429 62.0755 48.6429 63.951C48.6429 65.702 49.6015 66.6607 51.9781 66.8555L53.1734 66.9525C54.1035 67.0223 54.4373 67.3415 54.4373 67.8972C54.4373 68.4809 53.9513 68.9117 52.9507 68.9117C52.0194 68.9117 51.4642 68.4949 51.3671 67.7589H48.3789C48.6429 69.7733 50.0602 71.1069 52.9368 71.1069C55.7296 71.1069 57.272 69.6762 57.272 67.7443C57.272 65.8689 56.2435 64.9102 53.7565 64.6876ZM43.9746 60.6582C42.1962 60.6582 41.1399 61.5889 40.6399 63.4929H40.4591V60.825H37.6523V70.9407H40.6399V65.0492C40.6399 63.701 41.3346 62.965 42.5851 62.965C43.8217 62.965 44.4333 63.7295 44.4333 65.0352V70.9407H47.4203V64.5074C47.4203 62.0616 46.1425 60.6582 43.9746 60.6582ZM34.7485 56.8788C33.734 56.8788 32.9695 57.5462 32.9695 58.5601C32.9695 59.5745 33.72 60.2414 34.7345 60.2414C35.749 60.2414 36.4989 59.5739 36.4989 58.5601C36.4989 57.5595 35.749 56.8788 34.7485 56.8788ZM36.235 60.825H33.2474V70.9407H36.235V60.825ZM61.9681 58.6851H60.0648C60.009 60.3111 59.3143 61.0192 57.758 61.1442V63.201H58.9812V67.6473C58.9812 69.8843 60.2589 71.1069 62.8018 71.1069C63.2799 71.1069 63.7562 71.0462 64.2192 70.9267V68.5222C63.9806 68.5618 63.739 68.5803 63.4971 68.5774C62.4268 68.5774 61.9681 68.1745 61.9681 67.049V63.201H64.5947V60.825H61.9681V58.6851ZM109.35 63.201V60.825H106.724V58.6851H104.848C104.806 59.8106 104.473 60.4634 103.736 60.825V67.6473C103.736 69.8843 105.015 71.1069 107.558 71.1069C108.036 71.1069 108.512 71.0462 108.975 70.9267V68.5222C108.736 68.5618 108.494 68.5803 108.252 68.5774C107.182 68.5774 106.724 68.1745 106.724 67.049V63.201H109.35ZM99.568 63.6458H99.3872V60.8244H96.6223V70.9407H99.6099V65.466C99.6099 63.951 100.291 63.3121 101.847 63.3121C102.111 63.3121 102.403 63.34 102.806 63.4092V60.7971C102.533 60.7016 102.246 60.6546 101.958 60.6582C100.749 60.6582 99.915 61.3529 99.568 63.6458ZM80.4902 68.5507C79.0868 68.5507 78.0723 67.6193 78.0723 65.8131C78.0723 64.2016 79.017 63.201 80.4623 63.201C81.6988 63.201 82.4075 63.8958 82.6162 65.0073H85.6451C85.3532 62.4086 83.4917 60.6582 80.5041 60.6582C77.2247 60.6582 75.0714 62.8813 75.0714 65.9247C75.0714 69.0786 77.1416 71.1069 80.4623 71.1069C83.4778 71.1069 85.437 69.4262 85.7148 66.7019H82.6854C82.5191 67.8141 81.7546 68.5507 80.4902 68.5507ZM69.7775 60.6582C67.1789 60.6582 65.6092 61.9366 65.3307 64.2289H68.1933C68.2904 63.4371 68.8049 63.0202 69.7078 63.0202C70.6245 63.0202 71.0414 63.4371 71.0414 64.0347C71.0414 64.5347 70.7222 64.7992 69.9025 64.9515L68.5404 65.2021C66.1371 65.6462 65.2197 66.6328 65.2197 68.203C65.2197 69.9953 66.4841 71.1215 68.2352 71.1215C69.6659 71.1215 70.5972 70.454 71.028 68.7867H71.2082V70.9407H74.0296V64.3405C74.0296 62.0476 72.6535 60.6582 69.7775 60.6582ZM69.4438 69.0786C68.6381 69.0786 68.1794 68.6478 68.1794 68.0083C68.1794 67.4804 68.4991 67.1194 69.2909 66.9386L69.8467 66.8136C70.326 66.7026 70.698 66.5545 71.042 66.2572V67.3275C71.042 68.564 70.3885 69.0786 69.4438 69.0786ZM91.0087 60.6582C88.41 60.6582 86.8404 61.9366 86.5625 64.2289H89.4245C89.5222 63.4371 90.0361 63.0202 90.9389 63.0202C91.8563 63.0202 92.2731 63.4371 92.2731 64.0347C92.2731 64.5347 91.9534 64.7992 91.1337 64.9515L89.7721 65.2021C87.3682 65.6462 86.4508 66.6328 86.4508 68.203C86.4508 69.9953 87.7153 71.1215 89.4663 71.1215C90.8976 71.1215 91.8284 70.454 92.2592 68.7867H92.44V70.9407H95.2607V64.3405C95.2607 62.0476 93.8846 60.6582 91.0087 60.6582ZM90.675 69.0786C89.8692 69.0786 89.4105 68.6478 89.4105 68.0083C89.4105 67.4804 89.7303 67.1194 90.5221 66.9386L91.0778 66.8136C91.5572 66.7026 91.9297 66.5545 92.2731 66.2572V67.3275C92.2731 68.564 91.6203 69.0786 90.675 69.0786Z" fill="white"/>
<path d="M24.208 66.0769C26.8838 66.0769 29.0771 68.0743 29.0711 70.9406H19.345C19.3395 68.0755 21.5323 66.0769 24.208 66.0769Z" fill="#FF7009"/>
<path d="M28.2186 59.299C27.6046 59.299 27.1665 59.5665 26.7624 60.1478L25.5975 61.8206V57.0455H22.8186V61.8206L21.6537 60.1478C21.2502 59.5665 20.8121 59.299 20.1975 59.299C19.2704 59.299 18.6533 59.9834 18.6503 60.8268C18.6479 61.5488 18.9882 62.0196 19.706 62.4819L24.208 65.3822L28.7101 62.4819C29.4279 62.0196 29.7682 61.5488 29.7658 60.8268C29.7634 59.9834 29.1457 59.299 28.2186 59.299Z" fill="#0AAD0A"/>
</svg>
