<svg width="128" height="128" viewBox="0 0 128 128" fill="none" xmlns="http://www.w3.org/2000/svg">
<rect width="128" height="128" fill="#444444"/>
<path fill-rule="evenodd" clip-rule="evenodd" d="M66.6331 24C63.6807 24 63.6749 28.588 66.6331 28.588C69.5855 28.588 69.5902 24 66.6331 24Z" fill="#FF932F"/>
<path fill-rule="evenodd" clip-rule="evenodd" d="M62.1986 66.6738C62.1902 66.6778 62.1819 66.6818 62.1735 66.6857L62.1753 66.6508C56.2708 72.4689 51.3857 79.6997 47.168 86.6988C45.8932 88.8177 44.7223 91.0148 43.9238 93.3601C43.5899 94.3408 43.3097 95.3378 43.1124 96.3546C43.0179 96.8449 42.3945 99.7004 42.8357 100.128C43.8759 101.137 47.4015 98.6427 48.36 98.0041C49.9582 96.9395 51.3918 95.6471 52.6899 94.2334C59.6717 86.6345 61.5278 76.8314 62.1986 66.6738ZM62.4626 61.3282C62.7386 53.8432 62.7482 46.3412 64.0372 39.5479C64.4774 37.2259 68.0146 38.2147 67.5769 40.5239C66.4412 46.5074 66.2204 52.583 66.0105 58.6588C66.019 58.6552 66.0274 58.6516 66.0359 58.648L66.0361 58.6506C68.5289 56.8998 71.1612 55.3619 73.8751 53.9142C78.079 51.6716 82.263 49.4231 85.2691 45.6162C86.7319 43.7623 89.313 46.3773 87.8643 48.2125C82.2673 55.3014 72.8699 57.8428 65.8805 63.3316L65.8794 63.3374C65.8637 63.363 65.848 63.3884 65.8324 63.4136C65.6048 68.6138 65.2122 73.7965 64.0863 78.904C62.0795 88.0134 57.3421 97.0749 49.0429 101.903C46.2703 103.516 40.8593 105.915 39.3977 101.394C38.0493 97.2278 40.4133 91.6429 42.2555 87.9772C44.6721 83.1709 47.949 78.7557 51.0812 74.3977C54.2274 70.0187 57.5873 65.7483 61.6184 62.1422C61.8924 61.8969 62.1689 61.6557 62.4479 61.4185L62.452 61.3394L62.4626 61.3282Z" fill="#FF932F"/>
</svg>
