<svg width="128" height="128" viewBox="0 0 128 128" fill="none" xmlns="http://www.w3.org/2000/svg">
<rect width="128" height="128" fill="#29ABE2"/>
<path fill-rule="evenodd" clip-rule="evenodd" d="M93.9996 70.324C93.9996 73.5924 91.3501 76.2419 88.0817 76.2419H39.9173C36.6489 76.2419 33.9994 73.5924 33.9994 70.324V45.544C33.9994 42.2766 36.6489 39.6271 39.9173 39.6271H88.0817C91.3501 39.6271 93.9996 42.2766 93.9996 45.544V70.324ZM104 43.7692C104 36.7177 98.2823 31 91.2308 31H36.7692C29.7167 31 24 36.7177 24 43.7692V72.0998C24 79.1513 29.7167 84.869 36.7692 84.869H39.8586C41.0458 84.869 42.141 85.5111 42.7205 86.5477L47.883 95.7795C48.1449 96.2487 48.6404 96.5389 49.1774 96.5389H49.3331C49.9561 96.5389 50.4607 96.0333 50.4607 95.4104V88.1475C50.4607 86.3363 51.9291 84.869 53.7402 84.869H91.2308C98.2823 84.869 104 79.1513 104 72.0998V43.7692Z" fill="white"/>
</svg>
