<svg width="128" height="128" viewBox="0 0 128 128" fill="none" xmlns="http://www.w3.org/2000/svg">
<rect width="128" height="128" fill="#B02936"/>
<path d="M85.6232 28C85.6232 28 47.7384 28 42.8927 28C38.047 28 37.6065 33.066 37.6065 33.066C37.3862 32.8457 37.3862 84.3865 37.3862 98.2629C37.3862 99.3642 38.7078 99.5845 39.3686 98.9237L52.3639 79.5408C52.3639 79.5408 81.6585 79.5408 86.0637 79.5408C90.4689 79.5408 90.4689 75.1356 90.4689 75.1356C90.4689 75.1356 90.4689 35.9294 90.4689 32.4052C90.4689 28.881 85.6232 28 85.6232 28ZM76.8128 51.5678L71.7468 55.5325C71.3063 55.973 71.086 56.6338 71.3063 57.2946L73.0684 63.2416C73.5089 64.5632 71.9671 65.8847 70.6455 65.0037L65.3592 61.6998C64.9187 61.2593 64.2579 61.2593 63.5972 61.6998L58.0907 65.4442C56.7691 66.3252 55.2273 65.2239 55.6678 63.6821L57.2096 57.2946C57.4299 56.6338 57.2096 55.973 56.7691 55.7528L51.9234 51.5678C50.8221 50.6868 51.4829 48.9247 52.8044 48.7044L59.192 48.4842C59.8527 48.4842 60.2933 48.0437 60.5135 47.3829L62.9364 41.6561C63.3769 40.3346 65.3592 40.3346 65.7998 41.6561L68.4429 47.8234C68.6632 48.4842 69.3239 48.9247 69.9847 48.7044L75.7115 48.4842C77.2533 48.7044 77.9141 50.6868 76.8128 51.5678Z" fill="white"/>
</svg>
