<svg width="128" height="128" viewBox="0 0 128 128" fill="none" xmlns="http://www.w3.org/2000/svg">
<rect width="128" height="128" fill="white"/>
<path d="M59.2879 73.6724C59.2879 75.1159 60.2079 76.0835 61.5086 76.0835C62.8093 76.0835 63.7294 75.1159 63.7294 73.6724V61.4742H64.9983C66.1404 61.4742 67.1239 60.9349 67.1239 59.5707C67.1239 58.1907 66.1404 57.6672 64.9983 57.6672H63.7294V55.0816C63.7294 53.6381 62.8093 52.6705 61.5086 52.6705C60.2079 52.6705 59.2879 53.6381 59.2879 55.0816V57.6672H58.3044C57.194 57.6672 56.3533 58.4762 56.3533 59.5707C56.3533 60.7445 57.0989 61.4742 58.3044 61.4742H59.2879V73.6724ZM29.1017 55.034C29.1017 53.5271 28.1182 52.6864 26.7858 52.6864C25.4533 52.6864 24.4699 53.5271 24.4699 55.034V69.5799C24.4699 70.5475 24.4699 72.1179 22.7409 72.1179C21.345 72.1179 20.2663 71.0075 19.0291 71.0075C18.0139 71.0075 17.3 72.0386 17.3 72.8475C17.3 75.4648 20.8532 76.2897 22.9947 76.2897C25.8023 76.2897 29.1176 74.9572 29.1176 69.8971V55.034H29.1017ZM30.339 69.9288C30.339 73.7834 32.9721 76.258 37.6674 76.258C42.3627 76.258 44.9958 73.7834 44.9958 69.9288V62.0928C44.9958 60.6493 44.0758 59.6817 42.7751 59.6817C41.4744 59.6817 40.5544 60.6493 40.5544 62.0928V69.8337C40.5544 71.642 39.1585 72.6413 37.6833 72.6413C36.1922 72.6413 34.8122 71.642 34.8122 69.8337V62.0928C34.8122 60.6493 33.8921 59.6817 32.5914 59.6817C31.2907 59.6817 30.3707 60.6493 30.3707 62.0928V69.9288H30.339ZM57.4637 62.648C57.4637 63.6473 56.6864 64.5832 55.6395 64.5832C54.7988 64.5832 53.1015 63.3142 51.6581 63.3142C50.8491 63.3142 50.1511 63.6791 50.1511 64.5198C50.1511 66.5343 57.8761 66.2329 57.8761 71.182C57.8761 74.0689 55.3699 76.2897 51.547 76.2897C49.0408 76.2897 45.3289 74.8938 45.3289 72.9427C45.3289 72.2765 46.011 71.0075 47.2483 71.0075C48.9773 71.0075 49.7546 72.4827 51.8484 72.4827C53.2126 72.4827 53.6091 72.0544 53.6091 71.2454C53.6091 69.2626 45.8841 69.564 45.8841 64.5832C45.8841 61.5694 48.3904 59.5231 51.9118 59.5231C54.1009 59.5072 57.4637 60.5066 57.4637 62.648Z" fill="#1274C0"/>
<path d="M105.495 73.4979C105.495 74.9414 106.431 75.909 107.748 75.909C109.064 75.909 110 74.9414 110 73.4979V54.9231C110 53.4796 109.064 52.512 107.748 52.512C106.431 52.512 105.495 53.4796 105.495 54.9231V73.4979ZM81.8919 54.9231C81.8919 53.4796 80.956 52.512 79.6394 52.512C78.3228 52.512 77.387 53.4796 77.387 54.9231V60.8239C76.1973 59.8245 74.6745 59.3169 73.1041 59.3169C68.2661 59.3169 65.855 63.695 65.855 67.9144C65.855 72.0069 68.7261 76.0835 73.2627 76.0835C74.8014 76.0835 76.5463 75.4173 77.387 74.0849C77.6725 75.227 78.3863 75.8932 79.6394 75.8932C80.956 75.8932 81.8919 74.9256 81.8919 73.4821V54.9231ZM77.387 67.5813C77.387 69.691 76.3242 72.1021 73.8496 72.1021C71.502 72.1021 70.344 69.7544 70.344 67.724C70.344 65.6778 71.502 63.2984 73.8496 63.2984C76.2607 63.2984 77.387 65.4716 77.387 67.5813ZM83.1292 73.4979C83.1292 74.9414 84.065 75.909 85.3816 75.909C86.6982 75.909 87.6341 74.9414 87.6341 73.4979V61.9184C87.6341 60.4749 86.6982 59.5073 85.3816 59.5073C84.065 59.5073 83.1292 60.4749 83.1292 61.9184V73.4979ZM85.3816 52.9878C84.0333 52.9878 82.8436 54.1299 82.8436 55.3672C82.8436 56.6996 84.0333 57.8735 85.3816 57.8735C86.7934 57.8735 87.9196 56.7314 87.9196 55.3672C87.9196 54.1141 86.7299 52.9878 85.3816 52.9878ZM104.258 62.3308C104.258 61.2204 104.258 59.4914 102.101 59.4914C101.006 59.4914 100.07 60.2528 99.9433 61.2997C98.944 59.9356 97.3102 59.3169 95.6605 59.3169C91.5362 59.3169 88.221 62.9653 88.221 67.724C88.221 72.6097 91.4411 76.0835 95.6605 76.0835C97.3736 76.0835 98.7854 75.3856 99.9433 74.0531C100.261 75.1952 100.784 75.8932 102.101 75.8932C104.258 75.8932 104.258 74.1642 104.258 73.0538V62.3308ZM92.7259 67.7399C92.7259 65.6619 93.8204 63.3143 96.295 63.3143C98.6743 63.3143 99.7688 65.6619 99.7688 67.7399C99.7688 69.8179 98.6426 72.1179 96.295 72.1179C93.8522 72.1021 92.7259 69.8179 92.7259 67.7399Z" fill="#FF6C00"/>
</svg>
