<svg width="128" height="129" viewBox="0 0 128 129" fill="none" xmlns="http://www.w3.org/2000/svg">
<rect width="128" height="128" transform="translate(0 0.555664)" fill="white"/>
<path d="M95.7127 61.0619C95.1829 60.298 94.5569 59.8314 93.8395 59.6577C93.1195 59.4847 92.26 59.4295 91.2611 59.4916L89.1033 59.6278L89.7848 70.5898L92.2662 70.4349C92.81 70.4017 93.2359 70.3593 93.5417 70.3118C93.8469 70.2639 94.164 70.1697 94.486 70.0322C94.8092 69.8936 95.0862 69.7107 95.3158 69.4827C96.352 68.4901 96.7991 66.862 96.659 64.5984C96.5598 63.0042 96.2435 61.8254 95.7127 61.0619Z" fill="#ED3237"/>
<path d="M79.3016 54.0769L74.0732 59.9269L74.3654 65.4867C74.5039 65.449 74.6466 65.4085 74.7669 65.3762L75.1665 65.2696C75.4682 65.183 75.7066 65.1266 75.9097 65.0818C76.2724 63.9696 77.3058 63.1601 78.5376 63.1601C80.0706 63.1601 81.3113 64.4029 81.3113 65.9357C81.3113 67.4693 80.0705 68.711 78.5376 68.711C77.5491 68.711 76.6849 68.1895 76.1941 67.4099C75.7676 67.4963 75.1869 67.6285 74.4895 67.8134L74.7143 72.0986L80.5832 77.2458L120.556 75.0347L119.294 51.8657L79.3016 54.0769ZM99.8885 67.084C99.7706 67.8951 99.5536 68.6333 99.2402 69.2969C98.9292 69.962 98.5144 70.5655 97.9951 71.1076C97.5837 71.524 97.1291 71.8658 96.6309 72.1329C96.1323 72.4008 95.5887 72.5987 95.0038 72.7325C94.4188 72.8652 93.7545 72.9527 93.0147 72.9997L88.7468 73.2677C88.1533 73.3044 87.7007 73.2415 87.3863 73.0818C87.0752 72.9204 86.8633 72.6783 86.7516 72.3577C86.6375 72.0356 86.5659 71.6147 86.5337 71.0938L85.7928 59.247C85.749 58.5423 85.8743 58.0215 86.1704 57.686C86.4674 57.3502 86.9676 57.1604 87.6728 57.1162L91.9375 56.8513C93.0472 56.7808 94.0047 56.8239 94.8103 56.9801C95.6164 57.1371 96.3615 57.4777 97.0421 58.002C98.8161 59.3378 99.7922 61.4742 99.9767 64.4128C100.039 65.3824 100.008 66.2749 99.8885 67.084ZM116.682 71.503C116.388 71.8343 116.022 72.0134 115.581 72.0417C115.324 72.0577 115.101 72.0243 114.911 71.9455C114.722 71.8647 114.559 71.7495 114.426 71.5963C114.291 71.4489 114.14 71.214 113.979 70.8976C113.815 70.5777 113.674 70.2992 113.554 70.0548L112.657 68.0759L106.089 68.4859L105.447 70.6051C105.198 71.4335 104.974 71.9932 104.779 72.2896C104.583 72.5857 104.243 72.7493 103.758 72.7808C103.347 72.8045 102.972 72.676 102.64 72.3971C102.304 72.1136 102.124 71.7808 102.101 71.3996C102.088 71.1799 102.109 70.9505 102.168 70.7105C102.228 70.4698 102.328 70.135 102.471 69.7063L105.95 58.9575C106.048 58.6503 106.165 58.2797 106.306 57.847C106.443 57.4135 106.598 57.0514 106.769 56.7615C106.937 56.471 107.17 56.229 107.465 56.0374C107.756 55.8457 108.128 55.7356 108.578 55.7075C109.033 55.6799 109.419 55.7424 109.733 55.8957C110.05 56.0494 110.309 56.2564 110.515 56.5162C110.718 56.7776 110.893 57.0591 111.044 57.3628C111.191 57.6683 111.38 58.0736 111.611 58.5835L116.482 68.7425C116.862 69.5157 117.064 70.0825 117.087 70.4413C117.11 70.8174 116.975 71.171 116.682 71.503Z" fill="#ED3237"/>
<path d="M106.794 65.9736L111.621 65.6724L108.771 59.1584L106.794 65.9736Z" fill="#ED3237"/>
<path d="M21.1047 72.9355L16.7676 66.1171L19.0137 64.0589C20.1591 63.0267 20.7325 62.2008 20.7325 61.5803C20.7325 61.0748 20.5563 60.6533 20.2062 60.3195C19.8544 59.9826 19.4161 59.8152 18.8889 59.8152C18.4453 59.8152 18.0685 59.9285 17.7596 60.1561C17.4501 60.3829 17 60.8064 16.4123 61.4255L11.656 66.4133V56.1608C11.656 55.2929 11.4651 54.637 11.0835 54.1929C10.7011 53.7491 10.185 53.5271 9.53531 53.5271C8.86318 53.5271 8.34605 53.7735 7.98515 54.2623C7.62478 54.7533 7.44434 55.4691 7.44434 56.4077V74.4379C7.44434 75.2824 7.62903 75.9232 8.00123 76.3557C8.3722 76.7915 8.88474 77.0075 9.53566 77.0075C10.0919 77.0075 10.5851 76.7882 11.0137 76.3493C11.443 75.9105 11.6563 75.2825 11.6563 74.4676V71.1066L13.9493 68.9382L17.6829 75.0704C18.1569 75.8046 18.534 76.3108 18.8126 76.5881C19.0913 76.8689 19.4891 77.0071 20.0056 77.0071C20.6042 77.0071 21.0865 76.8145 21.4529 76.4273C21.8206 76.0395 22.0022 75.5102 22.0022 74.8395C22.0022 74.6001 21.9336 74.3509 21.794 74.0885C21.6547 73.8239 21.423 73.4388 21.1047 72.9355Z" fill="#343333"/>
<path d="M55.8308 59.8149C55.1987 59.8149 54.6888 60.0264 54.2966 60.4515C53.9032 60.8732 53.7075 61.5029 53.7075 62.3403V67.4819C53.7075 69.5059 53.5889 70.8174 53.3512 71.4162C53.063 72.0974 52.6043 72.6504 51.9721 73.0738C51.3445 73.4955 50.6712 73.7092 49.9596 73.7092C49.226 73.7092 48.6447 73.519 48.2163 73.1424C47.7879 72.7661 47.491 72.2451 47.3266 71.5783C47.1615 70.9152 47.0781 70.0895 47.0781 69.1075V62.3403C47.0781 61.5029 46.8811 60.8733 46.4917 60.4515C46.0963 60.0266 45.5812 59.8149 44.9415 59.8149C44.3111 59.8149 43.8044 60.0248 43.4248 60.4414C43.0411 60.8612 42.8507 61.494 42.8507 62.3403V70.7192C42.8507 72.4012 43.113 73.6926 43.6409 74.5929C44.0845 75.3348 44.7116 75.9182 45.5218 76.3426C46.3321 76.7646 47.2494 76.9766 48.272 76.9766C49.1178 76.9766 49.8716 76.871 50.5333 76.66C51.194 76.4485 51.803 76.1234 52.3597 75.6915C52.9173 75.2581 53.45 74.7205 53.9569 74.0795V74.6224C53.9569 75.3776 54.1448 75.9637 54.5224 76.3797C54.8987 76.7979 55.3754 77.0071 55.954 77.0071C56.5318 77.0071 57.0056 76.8056 57.3716 76.4053C57.7369 76.0013 57.9202 75.3962 57.9202 74.5931V62.3403C57.9202 61.494 57.73 60.8612 57.3471 60.4414C56.9653 60.0247 56.4598 59.8149 55.8308 59.8149Z" fill="#343333"/>
<path d="M37.2779 59.536C36.6483 59.536 36.1367 59.7511 35.7434 60.1823C35.4198 60.5388 35.2323 61.0395 35.1763 61.6791C33.9234 60.6051 32.3642 59.9683 30.6739 59.9683C26.5372 59.9683 23.1845 63.7791 23.1845 68.481C23.1845 73.1836 26.5374 76.9953 30.6739 76.9953C32.427 76.9953 34.0392 76.3092 35.3149 75.1597C35.3866 75.6714 35.5632 76.0872 35.8442 76.4055C36.2206 76.83 36.6987 77.0448 37.2779 77.0448C37.8553 77.0448 38.3282 76.838 38.695 76.4278C39.0603 76.0193 39.2457 75.4032 39.2457 74.5834L39.368 62.1077C39.368 61.2456 39.1785 60.6015 38.7966 60.1751C38.4125 59.75 37.9069 59.536 37.2779 59.536ZM30.9609 73.4597C28.7014 73.4597 26.8686 71.2312 26.8686 68.481C26.8686 65.7338 28.7014 63.5028 30.9609 63.5028C33.2202 63.5028 35.0529 65.734 35.0529 68.481C35.0529 71.2312 33.2202 73.4597 30.9609 73.4597Z" fill="#343333"/>
<path d="M77.2542 65.6166L77.0456 65.649L76.9753 64.9167L76.4847 64.9726C76.4825 64.9729 76.2685 65.0017 75.9103 65.0816C75.7072 65.1263 75.4688 65.1827 75.1667 65.2697L74.7671 65.3762C74.6469 65.4084 74.5049 65.4491 74.3658 65.4865C74.2967 65.5063 74.2399 65.5205 74.1632 65.5422L73.7226 65.6679L73.8732 66.3418C72.7451 66.6498 71.3929 67.0745 69.9772 67.6629C68.8806 68.121 67.8951 68.5807 67.0289 69.0108V63.2374H68.0655C68.8182 63.2374 69.4108 63.1458 69.8406 62.9588C70.2674 62.7734 70.4832 62.3348 70.4832 61.6434C70.4832 60.6715 69.6773 60.1867 68.0655 60.1867H67.0289V59.1806C67.0289 58.3442 67.1374 57.7006 67.3553 57.2525C67.5704 56.8031 68.061 56.5785 68.8256 56.5785C69.1032 56.5785 69.4436 56.6094 69.8468 56.6705C70.2496 56.7343 70.5325 56.7642 70.7006 56.7642C71.05 56.7642 71.3542 56.6251 71.6131 56.3468C71.8715 56.0666 72.0003 55.7308 72.0003 55.3397C72.0003 54.1319 70.7649 53.5273 68.2977 53.5273C66.9046 53.5273 65.8085 53.7049 65.0061 54.0621C64.2075 54.4177 63.6389 54.9859 63.3026 55.7653C62.9673 56.5454 62.7996 57.5952 62.7996 58.9169V60.1869H61.7941C60.3777 60.1869 59.6706 60.6933 59.6706 61.7061C59.6706 62.1591 59.8419 62.5281 60.1819 62.8122C60.5221 63.0965 61.0076 63.2377 61.6375 63.2377H62.7996V74.4386C62.7996 75.2728 62.9989 75.9101 63.3968 76.3498C63.7939 76.7883 64.2911 77.0078 64.8914 77.0078C65.521 77.0078 66.034 76.7885 66.4312 76.3498C66.829 75.9101 67.0287 75.2726 67.0287 74.4386V70.7743C67.9999 70.274 69.1902 69.6999 70.5323 69.1402C71.9964 68.5315 73.3746 68.109 74.4902 67.8138C75.1874 67.6291 75.7678 67.4969 76.1948 67.4108C76.6621 67.3161 76.9587 67.2691 76.9679 67.2665L77.4344 67.2007L77.2542 65.6166Z" fill="#343333"/>
</svg>
