<svg width="128" height="128" viewBox="0 0 128 128" fill="none" xmlns="http://www.w3.org/2000/svg">
<rect width="128" height="128" fill="#DE261D"/>
<path d="M44.3071 64.2438C44.2084 64.3451 44.2521 64.4763 44.2521 64.5926C44.2521 65.6403 44.2521 66.6879 44.2521 67.7356C44.2521 68.1506 44.1946 68.2044 43.7858 68.2094C43.5883 68.2094 43.3907 68.2094 43.192 68.2094C42.8169 68.2094 42.7594 68.1469 42.7582 67.7706C42.7582 66.4845 42.7582 65.1981 42.7582 63.9112C42.7582 63.0361 42.7582 62.1485 42.7582 61.2671C42.7582 60.8708 42.8182 60.8095 43.2082 60.8095C44.8735 60.8095 46.5387 60.8095 48.209 60.8095C48.3795 60.7959 48.55 60.8358 48.6967 60.9237C48.8435 61.0115 48.9593 61.1429 49.0279 61.2996C49.3892 61.9997 49.7967 62.6748 50.1918 63.3587C50.3756 63.6762 50.4268 63.6712 50.6093 63.3649C51.0007 62.7048 51.4032 62.0522 51.7858 61.3871C51.8699 61.2152 52.0042 61.073 52.171 60.9792C52.3378 60.8855 52.5291 60.8446 52.7197 60.862C54.1661 60.8883 55.6126 60.8708 57.0603 60.872C57.4591 60.872 57.4967 60.907 57.4967 61.2933C57.4967 63.4412 57.4967 65.5882 57.4967 67.7343C57.4967 68.1544 57.4416 68.2119 57.0353 68.2119C55.4934 68.2119 53.9515 68.2119 52.4096 68.2119C52.0233 68.2119 51.9883 68.1731 51.9871 67.7768C51.9871 66.7404 51.9871 65.7028 51.9871 64.6651C51.9871 64.5676 52.0383 64.4151 51.9321 64.3826C51.8008 64.3388 51.792 64.5076 51.747 64.5863C51.1469 65.6403 50.5443 66.6942 49.9618 67.7593C49.7617 68.1256 49.5142 68.3144 49.0729 68.2919C48.4715 68.2594 47.8652 68.2719 47.2626 68.2919C46.8388 68.3019 46.5762 68.1344 46.37 67.7556C45.7449 66.6179 45.0935 65.5052 44.4509 64.3726C44.4134 64.3138 44.3909 64.25 44.3071 64.2438Z" fill="white"/>
<path d="M34.5419 60.7432C35.8121 60.7432 37.0823 60.7557 38.3525 60.7432C39.7814 60.7257 40.6991 61.4808 41.0216 62.7085C41.0536 62.8496 41.0675 62.9941 41.0629 63.1386C41.0629 64.0137 41.0379 64.8889 41.0704 65.7528C41.1154 66.9392 40.0327 68.1944 38.6675 68.2069C36.9285 68.2231 35.1895 68.2356 33.4517 68.2069C32.5878 68.1894 31.7277 68.1694 30.8638 68.2069C29.4711 68.2744 28.3635 67.4918 28.0472 66.2778C28.0091 66.114 27.9919 65.9459 27.9959 65.7778C27.9959 64.9376 27.9959 64.0975 27.9959 63.2574C27.9942 62.9265 28.0583 62.5986 28.1843 62.2926C28.3103 61.9867 28.4958 61.7088 28.73 61.475C28.9642 61.2413 29.2424 61.0563 29.5486 60.9309C29.8549 60.8055 30.1829 60.7422 30.5138 60.7445H34.5419V60.7432ZM35.6933 64.4025C35.6933 63.8225 35.6833 63.2411 35.6933 62.661C35.7008 62.3822 35.5908 62.2547 35.3183 62.256C34.7869 62.256 34.2569 62.246 33.7255 62.256C33.3505 62.266 33.2629 62.361 33.2592 62.756C33.2529 63.3574 33.2592 63.96 33.2592 64.5613C33.2592 65.0614 33.2504 65.5615 33.2679 66.054C33.2817 66.4479 33.378 66.5291 33.7605 66.5329C34.2694 66.5329 34.7807 66.5241 35.2895 66.5329C35.5821 66.5416 35.7058 66.4341 35.6983 66.1353C35.6833 65.5602 35.6933 64.9789 35.6933 64.4025Z" fill="white"/>
<path d="M93.8122 68.2094C92.5945 68.2094 91.3768 68.2094 90.1591 68.2094C89.5765 68.2094 88.9952 68.1719 88.4089 68.1481C88.1216 68.1368 87.8411 68.0581 87.5899 67.9185C87.3386 67.7789 87.1237 67.5822 86.9624 67.3443C86.6661 66.9559 86.4379 66.52 86.2873 66.0553C86.211 65.8053 86.306 65.7265 86.5373 65.7265H91.3143C91.6056 65.7265 91.7169 65.8778 91.7269 66.1541C91.7431 66.5479 91.7994 66.5967 92.1944 66.5992C92.7353 66.5992 93.2771 66.5992 93.8197 66.5992C94.186 66.5992 94.2222 66.5554 94.226 66.1803C94.226 65.9516 94.2172 65.724 94.226 65.4952C94.2347 65.2665 94.1472 65.1589 93.9009 65.1602C92.1769 65.1727 90.4567 64.9852 88.7314 65.0539C88.4189 65.063 88.1064 65.0396 87.7988 64.9839C87.4528 64.9286 87.1349 64.7604 86.8946 64.5055C86.6542 64.2507 86.5049 63.9235 86.4698 63.5749C86.3895 63.001 86.4286 62.4166 86.5848 61.8584C86.6384 61.6607 86.7442 61.481 86.8912 61.3383C87.0381 61.1955 87.2207 61.0949 87.42 61.0471C87.9913 60.902 88.5664 60.747 89.1627 60.7458C91.5881 60.7458 94.0135 60.7308 96.4376 60.762C97.0852 60.7695 97.7428 60.7945 98.3804 60.9733C99.2055 61.2033 99.443 61.7409 99.5293 62.4273C99.6231 63.1661 99.5918 63.1699 98.8404 63.1699H94.7498C94.326 63.1699 94.2622 63.1199 94.2222 62.6986C94.1997 62.466 94.0872 62.3623 93.8634 62.3623C93.2596 62.3623 92.6558 62.3623 92.0519 62.3623C91.8344 62.3623 91.7219 62.4535 91.7256 62.6786C91.7294 62.9036 91.7256 63.0936 91.7256 63.3037C91.7256 63.5637 91.8381 63.6787 92.1007 63.6787C92.4332 63.6687 92.7658 63.6787 93.1008 63.6787C94.6198 63.6787 96.14 63.6962 97.659 63.6787C99.2117 63.655 99.9681 65.0127 99.7443 66.2904C99.6879 66.6166 99.5957 66.9357 99.4693 67.2418C99.1992 67.8881 98.7192 68.2207 98.0253 68.2219L93.8122 68.2094Z" fill="white"/>
<path d="M106.297 60.6844C107.764 60.6844 108.861 60.6357 109.95 60.7007C110.767 60.7482 111.592 60.6669 112.406 60.8432C113.146 61.0045 113.666 61.5146 113.781 62.2634C113.789 62.3147 113.791 62.3672 113.803 62.4172C113.947 63.0561 113.947 63.0561 113.28 63.0561H108.969C108.569 63.0561 108.528 63.0285 108.542 62.6347C108.552 62.3334 108.442 62.2334 108.144 62.2434C107.583 62.2609 107.019 62.2434 106.458 62.2434C106.068 62.2434 105.934 62.3822 105.925 62.7673C105.907 63.5811 105.925 63.5999 106.749 63.5974C108.226 63.5974 109.702 63.6899 111.18 63.6599C111.531 63.6524 111.875 63.5636 112.235 63.6286C113.235 63.8049 113.86 64.4463 113.97 65.4589C114.068 66.1637 113.924 66.8807 113.561 67.493C113.285 67.9518 112.901 68.1918 112.393 68.1956C110.446 68.2081 108.498 68.2343 106.553 68.1881C105.46 68.1618 104.368 68.1343 103.276 68.1543C101.767 68.1831 100.985 67.3255 100.787 66.1015C100.738 65.804 100.787 65.7265 101.1 65.719C102.65 65.719 104.201 65.719 105.753 65.719C105.983 65.719 106.083 65.809 106.108 66.0453C106.164 66.5766 106.193 66.5928 106.722 66.5953C107.189 66.5953 107.658 66.5953 108.127 66.5953C108.491 66.5953 108.531 66.5491 108.534 66.1765C108.534 65.969 108.522 65.7602 108.534 65.5514C108.558 65.2564 108.443 65.1464 108.142 65.1501C107.123 65.1626 106.102 65.1401 105.083 65.1589C104.085 65.1739 103.088 65.1103 102.101 64.9688C101.186 64.8438 100.718 64.2825 100.711 63.3548C100.711 63.0636 100.711 62.7735 100.711 62.4797C100.704 61.3971 101.305 61.0482 102.128 60.8545C103.639 60.5132 105.159 60.7657 106.297 60.6844Z" fill="white"/>
<path d="M23.1039 63.7387C23.7152 63.5799 24.3053 63.7387 24.8904 63.8487C25.8181 64.0275 26.4269 64.7238 26.5769 65.6615C26.6954 66.3773 26.7122 67.1063 26.6269 67.8268C26.5994 68.0619 26.5019 68.1519 26.2694 68.1519C24.8116 68.1519 23.3531 68.1519 21.8937 68.1519C21.6124 68.1519 21.5049 68.0269 21.5061 67.7506C21.5061 67.0667 21.5061 66.3754 21.5061 65.6977C21.5061 65.3327 21.4599 65.2914 21.0873 65.2889C20.546 65.2889 20.0047 65.2952 19.4621 65.2889C19.2195 65.2889 19.1283 65.3789 19.1308 65.619C19.1395 66.3441 19.1308 67.0705 19.1308 67.7968C19.1308 68.1531 19.0745 68.2119 18.712 68.2131C17.2755 68.2131 15.8365 68.2131 14.4026 68.2131C14.125 68.2119 14 68.1106 14 67.8093C14.0075 65.559 14.0075 63.3086 14 61.0583C14 60.777 14.0863 60.6695 14.3751 60.672C15.8428 60.682 17.3105 60.682 18.7782 60.672C19.0533 60.672 19.1433 60.7795 19.1408 61.0408C19.1308 61.8197 19.1408 62.5973 19.1408 63.3749C19.1408 63.7187 19.2045 63.75 19.4896 63.5937C20.974 62.7561 22.4575 61.918 23.9403 61.0795C24.3247 60.848 24.7667 60.7297 25.2155 60.7382C25.8918 60.7595 26.5682 60.747 27.2445 60.7495C27.3183 60.7495 27.3908 60.7495 27.4633 60.7495C27.5671 60.7595 27.6858 60.7632 27.7221 60.8833C27.7583 61.0033 27.6371 61.0558 27.5521 61.1045C26.927 61.4709 26.2956 61.8372 25.6643 62.1972C24.8079 62.6848 23.9503 63.1674 23.0926 63.6524L23.1039 63.7387Z" fill="white"/>
<path d="M64.4152 60.7495C65.8517 60.7495 67.2906 60.7207 68.7246 60.7595C69.6735 60.7857 70.6374 60.7895 71.5513 61.1233C72.1626 61.3471 72.5664 61.7646 72.7127 62.401C72.8597 62.9644 72.8836 63.5528 72.7827 64.1262C72.5764 65.1627 71.8276 65.6365 70.8924 65.7227C68.9789 65.9098 67.0566 65.9933 65.134 65.9728C64.8953 65.9728 64.794 66.0578 64.799 66.3003C64.8077 66.8004 64.799 67.3005 64.799 67.7931C64.799 68.1681 64.684 68.2931 64.3114 68.2731C62.8249 68.1819 61.3372 68.2269 59.8507 68.2144C59.5844 68.2144 59.4857 68.0894 59.4857 67.8331C59.4915 65.5927 59.4915 63.3528 59.4857 61.1133C59.4857 60.8145 59.6232 60.7445 59.8882 60.7457C61.3972 60.752 62.9062 60.7457 64.4152 60.7457V60.7495ZM66.1492 64.2963C66.4492 64.2963 66.7505 64.3038 67.0518 64.2963C67.2944 64.2888 67.4269 64.1713 67.4269 63.905C67.4194 63.5299 67.4269 63.1548 67.4269 62.7873C67.4269 62.5998 67.3494 62.5248 67.1619 62.4785C66.4943 62.3135 65.8191 62.3997 65.1465 62.3885C64.9315 62.3885 64.8678 62.5385 64.8678 62.7248C64.8678 63.1173 64.8678 63.5112 64.8678 63.9037C64.8678 64.175 65.0115 64.3 65.2753 64.3013L66.1492 64.2963Z" fill="white"/>
<path d="M82.8855 68.0844C82.0429 68.0844 81.199 68.0844 80.3564 68.0844C79.9813 68.0844 79.685 67.9706 79.515 67.6168C79.4737 67.533 79.3987 67.4643 79.3675 67.3793C79.1174 66.7004 78.6074 66.5566 77.9273 66.5929C76.9521 66.6454 75.9707 66.6279 74.9931 66.5929C74.4467 66.5766 74.1067 66.8029 73.8866 67.2742C73.825 67.4057 73.7513 67.5313 73.6666 67.6493C73.4937 67.9058 73.2374 68.0945 72.9411 68.1834C72.6448 68.2723 72.3269 68.2558 72.0414 68.1369C71.8338 68.0581 71.8763 67.9293 71.9601 67.7918C72.2014 67.393 72.4464 66.9942 72.6902 66.5966C73.7754 64.8289 74.8618 63.0598 75.8757 61.2508C76.1157 60.822 76.3933 60.6257 76.9084 60.6445C78.3436 60.6807 79.7838 60.662 81.2178 60.652C81.3355 60.6416 81.4536 60.6666 81.557 60.7239C81.6603 60.7811 81.7442 60.868 81.7979 60.9733C83.1264 63.2128 84.4599 65.4485 85.7985 67.6805C85.971 67.9681 85.9147 68.0719 85.5747 68.0744C84.677 68.0881 83.7819 68.0844 82.8855 68.0844ZM76.6058 65.1602C76.9396 65.1602 77.2722 65.1602 77.606 65.1602C77.7822 65.1602 77.911 65.1002 77.7935 64.8976C77.4422 64.2975 77.0859 63.7024 76.7283 63.1061C76.6433 62.9661 76.5558 62.9336 76.4583 63.1061C76.1232 63.7024 75.7832 64.2963 75.4444 64.8901C75.3356 65.0814 75.4106 65.1602 75.6094 65.1614L76.6058 65.1602Z" fill="white"/>
</svg>
