<svg width="128" height="128" viewBox="0 0 128 128" fill="none" xmlns="http://www.w3.org/2000/svg">
<rect width="128" height="128" fill="#8FBF3F"/>
<path fill-rule="evenodd" clip-rule="evenodd" d="M52.8864 58.6335C51.2479 58.6335 49.7202 58.1628 48.4372 57.3366C46.1157 55.8551 44.5741 53.2751 44.5741 50.3075C44.5741 45.7106 48.2941 41.9952 52.8864 41.9952C54.0864 41.9952 55.2263 42.2352 56.251 42.706C59.1679 43.989 61.2171 46.9106 61.2171 50.3398C61.2171 54.9182 57.4971 58.6335 52.8864 58.6335ZM67.1432 24.8954C62.9986 22.4123 58.1294 21 52.9371 21C37.6234 21 25.2035 33.4199 25.2035 48.729C25.2035 54.0736 27.6265 60.812 31.8773 66.6181L38.7449 75.4842L48.0172 87.4333L53.4217 94.1717L58.3602 87.5164L74.0108 66.6181C78.0538 60.8905 80.68 54.0736 80.68 48.729C80.6661 38.5845 75.2431 29.7507 67.1432 24.8954Z" fill="white"/>
<path fill-rule="evenodd" clip-rule="evenodd" d="M128 106.5V55.5L67.1409 24.8981C75.227 29.735 80.6685 38.601 80.6685 48.7179C80.6685 54.0578 78.0377 60.8747 73.9947 66.607L58.344 87.5007L53.4056 94.156L78.5 106L104.5 116C118 120 128 112.283 128 106.5Z" fill="#698C2E"/>
<path fill-rule="evenodd" clip-rule="evenodd" d="M52.9357 40.614C58.271 40.614 62.5956 44.9386 62.5956 50.2739C62.5956 55.6093 58.271 59.9339 52.9357 59.9339C47.6003 59.9339 43.2758 55.6093 43.2758 50.2739C43.2758 44.9386 47.6003 40.614 52.9357 40.614Z" fill="#698C2E"/>
</svg>
