<svg width="129" height="128" viewBox="0 0 129 128" fill="none" xmlns="http://www.w3.org/2000/svg">
<rect width="128" height="128" transform="translate(0.833008)" fill="#163688"/>
<path d="M104.032 56.2097C104.007 53.8279 103.779 51.7118 103.442 49.5956C102.89 46.1473 101.878 42.8845 99.6146 40.1908C96.3265 36.283 92.4904 35.2671 87.6721 37.0545C84.4599 38.2475 82.2509 40.7177 79.8818 42.9899C79.3844 43.4662 79.22 44.1323 79.6331 44.714C80.0842 45.3506 80.746 45.182 81.332 44.87C82.2594 44.381 83.1446 43.8203 84.1311 43.4325C87.4655 42.1341 89.7545 43.2681 91.3438 45.8058C91.8833 46.6658 92.2838 47.6016 92.6084 48.567C93.1859 50.2996 93.3461 52.1122 93.696 53.8912C94.4506 57.7483 94.1302 61.4917 92.7686 65.1339C91.525 68.4641 89.2782 71.103 86.6266 73.3962C83.1151 76.4314 79.0809 78.7204 75.2111 81.2455C72.471 83.0329 69.8827 84.9846 67.7749 87.5224C67.2311 88.1758 66.856 88.8713 67.0667 89.7271C67.2016 90.2877 67.3028 90.9496 68.0026 91.1308C68.6855 91.3121 69.2293 91.017 69.6719 90.4985C70.5192 89.5121 71.4593 88.6268 72.4584 87.7964C75.4134 85.343 78.7605 83.5008 82.0655 81.5954C87.103 78.6909 92.1784 75.8581 96.5246 71.925C101.259 67.6463 104.243 62.554 104.032 56.2013V56.2097Z" fill="white"/>
<path d="M47.8272 38.0578C47.8272 38.0578 47.8314 38.0578 47.8357 38.0578C47.8357 37.4254 47.8357 36.7973 47.8357 36.165C47.8357 35.3219 47.4478 34.8877 46.5794 34.8161C45.3569 34.7107 44.1387 34.58 42.912 34.6179C35.9859 34.8203 31.0285 38.0072 28.0608 44.2967C27.0195 46.5098 26.4589 48.8494 26.0416 51.227C25.5483 54.0345 25.4598 56.9052 25.9446 59.6875C26.5727 63.3044 28.3306 66.4533 30.7966 69.2018C35.0416 73.9316 40.4754 76.9836 45.9303 80.023C50.424 82.527 55.0947 84.7359 59.2091 87.8723C61.4517 89.5837 63.3445 91.5692 63.6522 94.5875C63.7239 95.2957 64.1876 95.6288 64.8958 95.5697C65.5913 95.5149 65.6925 95.0049 65.7178 94.44C65.8274 91.8348 64.7482 89.6723 63.1295 87.7458C60.8405 85.0184 57.8559 83.1551 54.8882 81.2961C51.2376 79.0113 47.5026 76.8614 44.1134 74.1761C38.5658 69.7836 35.3831 64.2571 35.6529 56.9895C35.7077 55.5436 35.9648 54.1357 36.1503 52.7193C36.5339 49.8063 37.0861 46.9229 38.473 44.2714C39.9105 41.5229 42.4778 39.4573 46.0651 41.1435C46.0947 41.1604 46.1326 41.1688 46.1663 41.1772C47.1696 41.4512 47.7513 41.0718 47.823 40.0517C47.8694 39.3899 47.8314 38.7196 47.8314 38.0536L47.8272 38.0578Z" fill="white"/>
<path d="M50.5715 39.0737C50.5715 39.0737 50.5715 39.0737 50.5757 39.0737C50.5757 39.7735 50.5757 40.4732 50.5757 41.173C50.5757 41.6536 50.7359 42.0541 51.0942 42.3871C52.9575 44.1154 54.3992 46.1852 55.8367 48.2593C58.7158 52.4073 61.1777 56.8041 63.6269 61.2093C63.9473 61.7826 64.2297 62.5076 65.0264 62.4613C65.8527 62.4149 66.1014 61.6856 66.3628 61.0153C68.0574 56.6692 70.0513 52.4621 72.5258 48.5038C75.464 43.7993 78.9629 39.6006 83.6252 36.477C84.7128 35.7519 85.9058 35.2545 87.0524 34.6559C87.6341 34.3523 87.9798 33.8549 87.7227 33.1847C87.4782 32.5355 86.947 32.2994 86.2725 32.4849C84.1142 33.0708 81.9263 33.5514 79.8397 34.3734C73.8748 36.7299 68.7529 40.1655 65.174 45.6288C64.6428 46.4382 64.314 46.4213 63.7702 45.6541C63.589 45.3969 63.4372 45.1187 63.2728 44.8489C61.8564 42.5473 60.3304 40.3215 58.3322 38.4793C56.6081 36.8859 54.7406 35.558 52.2113 35.6802C50.8708 35.7435 50.601 35.9753 50.5715 37.2821C50.5589 37.8765 50.5715 38.4709 50.5715 39.0695V39.0737Z" fill="white"/>
</svg>
