<svg width="128" height="128" viewBox="0 0 128 128" fill="none" xmlns="http://www.w3.org/2000/svg">
<rect width="128" height="128" fill="white"/>
<path d="M47.9417 102.177C36.1865 101.65 23.4709 96.9235 17.3566 86.1266C11.6224 75.929 14.5648 63.0674 21.0186 53.9642C31.2553 39.2298 48.0473 30.016 65.3496 26.8013C78.6295 24.4226 93.5826 25.7194 104.432 34.5113C111.794 40.3613 115.12 50.4594 113.147 59.6544C110.235 73.8562 99.2399 84.9155 87.2514 92.0582C75.4417 99.0132 61.6383 102.829 47.9417 102.177Z" fill="url(#paint0_linear_644_158)"/>
<path d="M42.8219 50.3832C45.0298 51.1838 52.2138 53.7364 56.2208 56.4856C56.3531 56.5763 56.607 56.7584 56.607 56.7584L86.459 56.2861C86.511 56.2149 87.6096 54.2601 88.2613 52.9995C88.9745 51.6172 89.0228 50.4328 88.2146 49.6463C87.336 48.7926 85.9137 48.6569 83.0414 48.6569H42.9812C42.6617 48.6569 41.8494 48.6014 41.7184 49.2658C41.6777 49.4885 41.7433 49.7176 41.8953 49.8839C42.1641 50.1171 42.4805 50.2876 42.8219 50.3832Z" fill="#003DA5"/>
<path d="M102.852 57.9581C102.19 57.9767 58.4806 58.6519 57.8027 58.6788C57.4389 58.6933 57.3328 58.7773 57.3308 59.1735C57.314 62.3785 53.1153 65.4589 47.4018 68.2127C41.375 71.118 33.8088 74.0084 29.8764 75.4718C28.9392 75.8208 27.2589 76.4203 26.7174 76.6989C26.2852 76.9208 25.9858 77.2644 26.123 77.663C26.2602 78.0617 26.6965 78.2658 28.1928 77.8646C28.8617 77.685 29.6146 77.4995 30.4437 77.2813C37.9935 75.2942 51.8217 71.7965 65.2894 68.3965C79.2351 64.8777 92.9838 61.8325 103.063 59.9965C103.854 59.8524 104.508 59.4202 104.474 58.8113C104.443 58.2425 103.788 57.9316 102.852 57.9581Z" fill="#003DA5"/>
<path d="M66.9208 77.7097C66.9233 77.7097 68.887 77.7623 70.3207 76.8938C72.6293 75.4941 75.6643 72.9527 79.9641 66.8432L33.8853 78.2856L66.9208 77.7097Z" fill="#003DA5"/>
<defs>
<linearGradient id="paint0_linear_644_158" x1="21.1702" y1="57.8505" x2="84.2088" y2="90.564" gradientUnits="userSpaceOnUse">
<stop stop-color="#F0E63C"/>
<stop offset="1" stop-color="#E6AF32"/>
</linearGradient>
</defs>
</svg>
