<svg width="129" height="129" viewBox="0 0 129 129" fill="none" xmlns="http://www.w3.org/2000/svg">
<rect width="128" height="128" transform="translate(0.333008 0.69458)" fill="#121D2A"/>
<path d="M112.345 70.3333C112.345 68.5317 111.923 67.1512 111.105 66.1919C110.286 65.2326 109.046 64.7413 107.455 64.7413C105.84 64.7413 104.6 65.256 103.711 66.2387C102.845 67.2214 102.401 68.672 102.401 70.5672C102.401 71.7839 102.635 72.8134 103.126 73.6323C103.594 74.4512 104.249 75.0596 105.045 75.4573C105.84 75.8551 106.729 76.0422 107.712 76.0422C108.484 76.0422 109.186 75.9487 109.771 75.7849C110.379 75.5977 110.941 75.3403 111.455 74.966C111.619 74.849 111.689 74.7086 111.689 74.5448C111.689 74.4512 111.666 74.3342 111.619 74.2172L111.175 73.3047C111.081 73.024 110.894 73.0006 110.8 73.0006C110.707 73.0006 110.613 73.0474 110.496 73.1176C109.771 73.6089 108.929 73.8663 107.993 73.8663C107.033 73.8663 106.285 73.6323 105.77 73.1644C105.279 72.7198 105.021 72.1115 104.998 71.316H111.549C111.853 71.2692 112.345 71.1522 112.345 70.3333ZM105.021 69.3038C105.045 68.5784 105.255 67.9935 105.653 67.549C106.074 67.081 106.682 66.847 107.478 66.847C108.25 66.847 108.858 67.081 109.233 67.5256C109.584 67.9467 109.794 68.5551 109.818 69.3038H105.021ZM96.6449 64.7179C95.0304 64.7179 93.7904 65.2326 92.9013 66.2153C92.0356 67.198 91.591 68.6486 91.591 70.5438C91.591 71.7605 91.825 72.79 92.3163 73.6089C92.7843 74.4278 93.4394 75.0362 94.2349 75.4339C95.0304 75.8317 95.9195 76.0189 96.9022 76.0189C97.6744 76.0189 98.3763 75.9253 98.9612 75.7615C99.5695 75.5743 100.131 75.3169 100.646 74.9426C100.81 74.8256 100.88 74.6852 100.88 74.5214C100.88 74.4278 100.856 74.3108 100.81 74.1938L100.365 73.2813C100.271 73.0006 100.084 72.9772 99.9907 72.9772C99.8971 72.9772 99.8035 73.024 99.6865 73.0942C98.9612 73.5855 98.1189 73.8429 97.183 73.8429C96.2237 73.8429 95.475 73.6089 94.9603 73.141C94.4689 72.6964 94.2115 72.0881 94.1881 71.2926H100.739C101.02 71.2926 101.512 71.1756 101.512 70.3567C101.512 68.5551 101.09 67.1746 100.271 66.2153C99.476 65.2092 98.2593 64.7179 96.6449 64.7179ZM99.008 69.3038H94.1881C94.2115 68.5784 94.4221 67.9935 94.8199 67.549C95.241 67.081 95.8493 66.847 96.6449 66.847C97.417 66.847 98.0253 67.081 98.3997 67.5256C98.7974 67.9701 98.9846 68.5551 99.008 69.3038ZM91.9888 65.7941C92.0122 65.6772 92.0356 65.5602 91.9888 65.4666C91.9654 65.373 91.8952 65.2794 91.7782 65.1858C91.3804 64.8816 90.1638 64.8348 89.8596 64.8348C89.6256 64.8348 88.7833 64.8582 87.1221 65.3496C87.0285 65.2092 86.8881 65.1156 86.7243 65.1156H85.5077C85.2503 65.1156 85.0631 65.1858 84.9695 65.3262C84.8759 65.4432 84.8525 65.6304 84.8525 65.8877V74.7554C84.8525 75.0596 84.9227 75.2935 85.0631 75.4573L85.0865 75.4807C85.2269 75.6445 85.4609 75.7147 85.7416 75.7147H86.7009C87.0051 75.7147 87.2391 75.6211 87.3795 75.4573C87.5198 75.2935 87.5666 75.0596 87.5666 74.7554V67.5022C87.8006 67.3852 88.9471 67.1512 89.6256 67.1512C89.7192 67.1512 89.8128 67.1512 89.9064 67.1746C90.2106 67.198 90.4679 67.2682 90.7019 67.3852L90.8891 67.432H90.9359C91.0529 67.432 91.2401 67.3852 91.3102 67.1044L91.9888 65.7941ZM83.6359 65.3028C83.5189 65.139 83.3083 65.0688 83.0041 65.0688H81.1323V62.3547C81.1323 62.0739 81.0855 61.84 80.9452 61.6996C80.8048 61.5358 80.6176 61.4422 80.3368 61.4422H79.1903C78.9096 61.4422 78.699 61.5358 78.582 61.6996C78.465 61.8634 78.3948 62.0739 78.3948 62.3547V72.0647C78.3948 75.2233 80.3602 75.9019 81.3663 76.0189C81.6939 76.0656 81.9746 75.8083 81.9746 75.4807V74.0301C81.9746 73.8195 81.8577 73.6557 81.6939 73.5621C81.6003 73.5153 81.4833 73.4217 81.3897 73.3047C81.2025 73.0708 81.1323 72.6028 81.1323 71.9945V67.4554H83.0041C83.3083 67.4554 83.5189 67.3852 83.6359 67.2448C83.7528 67.1044 83.7996 66.8938 83.7996 66.5663V65.9813C83.7996 65.6772 83.7528 65.4432 83.6359 65.3028ZM75.0958 65.139C74.3237 64.8816 73.5047 64.7413 72.6858 64.7413C70.9076 64.7413 69.5272 65.256 68.5913 66.2387C67.6554 67.2448 67.164 68.672 67.164 70.5204C67.164 72.1349 67.5618 73.4217 68.3573 74.3342C69.1528 75.2467 70.2759 75.7147 71.7031 75.7147C72.3817 75.7147 72.9666 75.5977 73.4346 75.3871C73.7621 75.2467 74.0897 75.0362 74.3471 74.7554C74.3003 75.5275 74.1365 76.1124 73.8323 76.44C73.4813 76.8612 72.9432 77.0483 72.1711 77.0483C71.4458 77.0483 70.7438 76.9314 70.1589 76.7208C69.9249 76.6272 69.6676 76.8144 69.6676 77.0483L69.6208 78.616C69.6208 78.7798 69.7378 78.9435 69.9015 78.9903C70.3929 79.1073 71.4224 79.3413 72.3817 79.3413C73.9727 79.3413 75.166 78.8265 75.9381 77.7971C76.6868 76.791 77.0612 75.3637 77.0612 73.6089V66.0281C77.0846 66.0281 75.8679 65.3964 75.0958 65.139ZM74.3939 67.432V71.1288C74.3939 71.8073 74.2067 72.3688 73.8089 72.7432C73.4112 73.1176 72.8964 73.3281 72.2647 73.3281C71.4692 73.3281 70.8608 73.0942 70.4631 72.6262C70.0653 72.1349 69.8547 71.3861 69.8547 70.3801C69.8547 68.1807 70.7438 67.1278 72.5689 67.1278C72.9432 67.1278 73.3176 67.1512 73.6451 67.2214C73.9493 67.2448 74.1833 67.3384 74.3939 67.432ZM62.6249 64.7413C61.3147 64.7413 60.6595 64.905 59.6768 65.1624C59.5131 65.2092 59.3493 65.256 59.1855 65.2794C59.1153 65.139 58.9515 65.0454 58.7877 65.0454H57.5711C57.3137 65.0454 57.1265 65.1156 57.0329 65.256C56.9393 65.373 56.9159 65.5602 56.9159 65.8175V74.7554C56.9159 75.0596 56.9861 75.2935 57.1265 75.4573C57.2669 75.6211 57.5009 75.7147 57.805 75.7147H58.7643C59.0685 75.7147 59.3025 75.6211 59.4429 75.4573C59.5832 75.2935 59.63 75.0596 59.63 74.7554V67.4554C59.8874 67.3384 61.1977 67.1044 61.8762 67.1044C62.4377 67.1044 62.8355 67.2214 63.0695 67.4788C63.3034 67.7361 63.4204 68.2041 63.4204 68.8358V74.7788C63.4204 75.0829 63.4906 75.3169 63.631 75.4807C63.7714 75.6445 64.0054 75.7381 64.3095 75.7381H65.2922C65.5964 75.7381 65.8304 75.6445 65.9708 75.4807C66.1111 75.3169 66.1579 75.0829 66.1579 74.7788V68.672C66.1579 67.3852 65.8304 66.4025 65.1986 65.7474C64.5201 65.0688 63.6778 64.7413 62.6249 64.7413ZM54.6698 65.0688H53.7105C53.4063 65.0688 53.1723 65.1624 53.0319 65.3262C52.8916 65.49 52.8214 65.724 52.8214 66.0515V74.7788C52.8214 75.0829 52.8916 75.3169 53.0319 75.4807C53.1723 75.6445 53.4063 75.7381 53.7105 75.7381H54.6698C54.9739 75.7381 55.2079 75.6445 55.3483 75.4807C55.4887 75.3169 55.5355 75.0829 55.5355 74.7788V66.0515C55.5355 65.724 55.4653 65.49 55.3249 65.3262C55.2079 65.1624 54.9739 65.0688 54.6698 65.0688ZM51.2537 60.5999C50.4582 60.9509 48.797 62.3313 48.797 62.6589V65.4666C48.1887 64.9752 47.2996 64.7179 46.1999 64.7179C45.264 64.7179 44.4217 64.9518 43.7431 65.4432C43.0412 65.9111 42.5031 66.5897 42.1521 67.432C41.7778 68.2743 41.614 69.257 41.614 70.3567C41.614 74.1237 43.439 76.0189 47.0188 76.0189C47.8845 76.0189 48.7268 75.8785 49.5223 75.6211C50.3178 75.3403 51.5345 74.732 51.5345 74.732V60.8339C51.5345 60.7637 51.5111 60.7169 51.4877 60.6701C51.3941 60.6233 51.3239 60.5531 51.2537 60.5999ZM48.8204 68.9996V73.2813C48.3758 73.5621 47.7909 73.7025 47.0656 73.7025C46.1297 73.7025 45.4278 73.4451 44.9832 72.9538C44.5387 72.439 44.3047 71.5967 44.3047 70.4269C44.3047 69.374 44.5153 68.5317 44.9364 67.9467C45.3342 67.3852 45.9659 67.081 46.7848 67.081C47.3932 67.081 47.9079 67.2448 48.2823 67.5724C48.6332 67.8765 48.8204 68.3679 48.8204 68.9996ZM37.0749 64.7413C35.7646 64.7413 35.1095 64.905 34.1268 65.1624L34.0566 65.1858C33.9162 65.2326 33.7758 65.256 33.612 65.3028C33.5652 65.2092 33.4483 65.0688 33.2143 65.0688H31.9976C31.7402 65.0688 31.5531 65.139 31.4595 65.2794C31.3659 65.3964 31.3425 65.5836 31.3425 65.8409V74.7788C31.3425 75.0829 31.4127 75.3169 31.5531 75.4807C31.6934 75.6445 31.9274 75.7381 32.2316 75.7381H33.1909C33.495 75.7381 33.729 75.6445 33.8694 75.4807C34.0098 75.3169 34.0566 75.0829 34.0566 74.7788V67.4554C34.314 67.3384 35.6242 67.1044 36.3027 67.1044C36.8643 67.1044 37.262 67.2214 37.496 67.4788C37.73 67.7361 37.847 68.1807 37.847 68.8358V74.7788C37.847 75.0829 37.9172 75.3169 38.0576 75.4807C38.1979 75.6445 38.4319 75.7381 38.7361 75.7381H39.7188C40.0229 75.7381 40.2569 75.6445 40.3973 75.4807C40.5377 75.3169 40.5845 75.0829 40.5845 74.7788V68.672C40.5845 67.3852 40.2569 66.4025 39.6252 65.7474C38.9701 65.0688 38.1044 64.7413 37.0749 64.7413ZM25.3995 64.7179C23.7851 64.7179 22.545 65.2326 21.6559 66.2153C20.7902 67.198 20.3457 68.6486 20.3457 70.5438C20.3457 71.7605 20.5796 72.79 21.071 73.6089C21.5389 74.4278 22.1941 75.0362 22.9896 75.4339C23.7851 75.8317 24.6742 76.0189 25.6569 76.0189C26.429 76.0189 27.1309 75.9253 27.7159 75.7615C28.3242 75.5743 28.8857 75.3169 29.4005 74.9426C29.5643 74.8256 29.6345 74.6852 29.6345 74.5214C29.6345 74.4278 29.6111 74.3108 29.5643 74.1938L29.1197 73.2813C29.0261 73.0006 28.8389 72.9772 28.7454 72.9772C28.6518 72.9772 28.5582 73.024 28.4412 73.0942C27.7159 73.5855 26.8736 73.8429 25.9377 73.8429C24.9784 73.8429 24.2296 73.6089 23.7149 73.141C23.2235 72.6964 22.9662 72.0881 22.9428 71.2926H29.4941C29.7748 71.2926 30.2662 71.1756 30.2662 70.3567C30.2662 68.5551 29.845 67.1746 29.0261 66.2153C28.2306 65.2092 26.9905 64.7179 25.3995 64.7179ZM27.7627 69.3038H22.9428C22.9662 68.5784 23.1768 67.9935 23.5745 67.549C23.9957 67.081 24.604 66.847 25.3995 66.847C26.1716 66.847 26.78 67.081 27.1543 67.5256C27.5287 67.9701 27.7393 68.5551 27.7627 69.3038ZM19.3162 73.3047C19.129 73.0708 19.0588 72.6028 19.0588 71.9945V61.7932C19.0588 61.5124 19.012 61.2784 18.8716 61.138C18.7312 60.9743 18.5441 60.8807 18.2633 60.8807H17.1168C16.836 60.8807 16.6255 60.9743 16.5085 61.138C16.3915 61.3018 16.3213 61.5124 16.3213 61.7932V72.0647C16.3213 75.2233 18.2867 75.9019 19.2928 76.0189C19.6203 76.0656 19.9011 75.8083 19.9011 75.4807V74.0301C19.9011 73.8195 19.7841 73.6557 19.6203 73.5621C19.5267 73.5153 19.4332 73.4451 19.3162 73.3047Z" fill="white"/>
<path d="M66.2516 50.0476C65.5497 50.1646 60.9638 50.6559 57.5711 51.4983C52.7513 52.6915 52.8449 56.7159 52.8449 58.3069V63.6883C52.8449 63.7585 52.9151 63.7819 52.9384 63.7117C56.2843 59.2662 59.7471 56.3649 59.7471 56.3649C59.7471 56.3649 59.7705 56.3415 59.7237 56.3649C59.4196 56.4351 57.6881 56.9967 55.5824 58.1431V57.4646C55.559 54.7271 57.1734 53.9784 59.092 53.4402C60.6596 52.9957 63.5843 52.7617 63.5843 52.7617C63.5843 52.7617 63.3503 54.4697 63.0462 57.956C62.8122 60.5063 60.9638 61.0678 58.3433 61.0678H56.8692C55.6994 62.7524 55.5356 63.7585 55.5356 63.7585H58.4135C63.8885 63.7585 65.1051 61.3486 65.3625 57.7922C65.6901 53.2531 66.158 50.6325 66.275 50.1412C66.3218 50.0944 66.2984 50.0476 66.2516 50.0476Z" fill="url(#paint0_linear_532_650)"/>
<defs>
<linearGradient id="paint0_linear_532_650" x1="52.9544" y1="63.8315" x2="66.5067" y2="50.2792" gradientUnits="userSpaceOnUse">
<stop offset="0.05" stop-color="#078181"/>
<stop offset="0.213" stop-color="#07997D"/>
<stop offset="0.41" stop-color="#08AF7A"/>
<stop offset="0.599" stop-color="#08BC78"/>
<stop offset="0.77" stop-color="#08C177"/>
</linearGradient>
</defs>
</svg>
