<svg width="128" height="128" viewBox="0 0 128 128" fill="none" xmlns="http://www.w3.org/2000/svg">
<rect width="128" height="128" fill="#724485"/>
<g opacity="0.6">
<path d="M111.192 53.7087H109.666C109.699 53.5423 109.723 53.4367 109.739 53.3312C109.91 52.3125 109.91 52.2922 110.965 52.3085C111.42 52.3166 111.566 52.1664 111.61 51.7078C111.789 49.8733 113.01 48.6639 114.906 48.6558C115.551 48.6558 116.205 48.7653 116.846 48.8627C116.947 48.879 117.101 49.09 117.089 49.1996C117.057 49.5892 116.968 49.9789 116.89 50.4172C115.941 50.0925 114.995 49.7029 114.175 50.3644C113.652 50.7865 113.42 51.4805 113.477 52.3003C113.83 52.3003 114.163 52.3085 114.492 52.3003C114.776 52.2922 114.873 52.4302 114.873 52.7021C114.877 53.4002 114.585 53.7087 113.895 53.7087C113.157 53.7087 113.165 53.7087 113.027 54.4676C112.763 55.9043 112.532 57.3492 112.207 58.7737C111.967 59.833 111.712 60.9085 110.693 61.5863C109.788 62.191 108.814 62.3209 107.779 62.118C107.438 62.053 107.113 61.9272 106.781 61.8258C106.703 61.8014 106.565 61.7243 106.57 61.7121C106.712 61.3225 106.846 60.9248 107.04 60.5636C107.097 60.458 107.345 60.4053 107.503 60.4134C107.694 60.4256 107.876 60.527 108.067 60.5879C109.049 60.8923 110.019 60.2145 110.186 59.1755C110.336 58.2258 110.563 57.2924 110.742 56.3508C110.835 55.8597 110.896 55.3646 110.981 54.8694C111.042 54.5123 111.107 54.1592 111.192 53.7087Z" fill="white"/>
<path d="M115.36 58.3516C115.543 57.2436 115.713 56.2128 115.888 55.1819C116.018 54.427 116.156 53.6762 116.298 52.9253C116.359 52.6169 116.525 52.4221 116.886 52.4464C117.252 52.4667 117.617 52.4505 117.994 52.4505C117.958 52.8929 117.925 53.25 117.897 53.6072C117.954 53.6478 118.011 53.6884 118.063 53.733C118.323 53.4286 118.587 53.1242 118.843 52.8158C119.192 52.3937 119.666 52.4099 120.129 52.487C120.239 52.5073 120.393 52.7833 120.373 52.9172C120.316 53.2379 120.178 53.5463 120.056 53.8507C119.942 54.1429 119.776 54.3134 119.403 54.3458C119.102 54.3742 118.77 54.5812 118.546 54.8004C117.962 55.3686 117.621 56.0788 117.495 56.8906C117.43 57.3005 117.357 57.7063 117.264 58.1081C117.244 58.2015 117.13 58.3395 117.057 58.3435C116.493 58.3638 115.929 58.3557 115.36 58.3557V58.3516Z" fill="white"/>
<path d="M103.055 55.4132C103.055 54.4148 103.765 53.6843 104.735 53.6883C105.66 53.6883 106.468 54.5122 106.452 55.4254C106.435 56.3305 105.583 57.2233 104.702 57.1259C103.793 57.0285 103.051 56.5415 103.055 55.4092V55.4132Z" fill="white"/>
</g>
<path d="M77.7417 58.1406C77.7417 57.7266 77.7417 57.3938 77.7417 57.061C77.7417 55.7623 77.7336 54.4676 77.7458 53.1689C77.7458 52.8401 77.6605 52.6819 77.2993 52.6656C76.6215 52.6372 76.5607 52.552 76.5566 51.8823C76.5566 51.5292 76.5566 51.1761 76.5566 50.823C76.5607 50.474 76.7433 50.2914 77.0923 50.2914C79.1541 50.2914 81.2118 50.2548 83.2735 50.3076C84.2354 50.332 85.1932 50.5024 86.1429 50.6607C86.8613 50.7825 88.0748 51.8783 88.1357 52.8523C88.1965 53.8791 88.018 54.7436 87.1454 55.3727C86.9384 55.5188 86.7233 55.6527 86.5285 55.7826C86.9343 56.3995 87.3199 56.9677 87.6892 57.5481C87.9246 57.9174 88.1803 58.2218 88.6795 58.1447C89.0367 58.0919 89.1544 58.2624 89.1462 58.6074C89.13 59.1755 89.1422 59.7478 89.1422 60.4012H87.9043C87.2955 60.4012 86.6827 60.3485 86.082 60.4134C85.4124 60.4865 85.1161 60.178 84.8279 59.6301C84.2597 58.5424 83.6469 57.4669 82.9448 56.4604C82.8027 56.2534 82.198 56.3427 81.8084 56.3549C81.7475 56.3549 81.6744 56.6755 81.646 56.8541C81.6176 57.0367 81.6542 57.2234 81.6379 57.4101C81.5852 57.9052 81.7434 58.1934 82.2995 58.1447C82.6485 58.1163 82.7784 58.3638 82.7946 58.6479C82.819 59.1025 82.8352 59.5611 82.7824 60.0116C82.7662 60.1537 82.5308 60.385 82.3928 60.385C80.5868 60.4093 78.7807 60.4012 76.9746 60.4053C76.6662 60.4053 76.5566 60.2551 76.5607 59.967C76.5688 59.5286 76.581 59.0903 76.5566 58.652C76.5323 58.2421 76.7149 58.1041 77.1005 58.1366C77.2831 58.1528 77.4698 58.1366 77.7458 58.1366L77.7417 58.1406ZM81.6379 52.5155C81.6379 53.0593 81.6176 53.5423 81.6542 54.0252C81.6623 54.1348 81.8693 54.3093 81.991 54.3175C82.4577 54.3418 82.9326 54.3256 83.4034 54.2931C83.8092 54.2647 84.1826 53.8264 84.1948 53.4205C84.2029 53.0593 83.7118 52.5317 83.3303 52.5236C82.7946 52.5114 82.2589 52.5236 81.642 52.5236L81.6379 52.5155Z" fill="white"/>
<path d="M94.5884 50.1128C96.1469 50.2264 97.543 50.612 98.6916 51.655C99.4506 52.345 99.8767 53.2216 100.112 54.2363C100.315 55.1008 100.303 55.9287 100.072 56.7526C99.7752 57.824 99.3288 58.7616 98.3182 59.4596C96.849 60.4702 95.2784 60.7178 93.59 60.5514C92.3724 60.4337 91.2563 59.9264 90.3837 59.1025C89.7344 58.4896 89.2961 57.682 89.0566 56.7485C88.667 55.2225 88.874 53.8345 89.6978 52.5276C90.2823 51.6023 91.0859 50.9123 92.1736 50.6404C92.969 50.4375 93.7767 50.2873 94.5803 50.1128H94.5884ZM92.8595 55.4173C92.969 56.0505 93.0705 56.6836 93.1923 57.3127C93.2734 57.7226 93.935 58.2705 94.3855 58.3273C94.9902 58.4085 95.6396 58.1731 95.8181 57.6942C96.3904 56.1884 96.4919 54.6827 95.81 53.1689C95.5909 52.6859 95.2337 52.5317 94.7548 52.5033C94.1947 52.4668 93.7199 52.5682 93.3708 53.0796C92.8798 53.802 92.9528 54.6016 92.8635 55.4133L92.8595 55.4173Z" fill="white"/>
<path d="M60.2166 56.9677H58.8935V55.0845C59.2304 55.0845 59.5632 55.0845 59.8919 55.0845C61.008 55.0845 62.1201 55.0967 63.2362 55.0805C63.6095 55.0764 63.7313 55.2185 63.7475 55.5837C63.8125 56.8419 63.435 57.962 62.6396 58.9036C62.0998 59.5449 61.3611 59.9345 60.5372 60.2145C59.4008 60.6001 58.2482 60.7056 57.0875 60.5433C55.6954 60.3525 54.3682 59.9386 53.3901 58.8306C52.8747 58.2461 52.4688 57.5886 52.3755 56.7932C52.2943 56.087 52.1523 55.3767 52.1928 54.6746C52.2781 53.1729 53.0979 52.0974 54.2992 51.2167C55.6183 50.2508 57.0915 50.1574 58.6054 50.2589C59.1654 50.2954 59.7174 50.5673 60.2653 50.754C60.4642 50.823 60.594 50.9529 60.728 50.6363C60.797 50.474 61.0689 50.3198 61.2678 50.2995C61.7507 50.2508 62.2459 50.2914 62.737 50.2792C63.0373 50.2751 63.1672 50.4009 63.1631 50.7013C63.155 51.6429 63.1509 52.5885 63.1631 53.5301C63.1672 53.8507 63.0211 53.94 62.7329 53.9319C62.4285 53.9197 62.1241 53.9116 61.8197 53.9319C61.1541 53.9806 60.6468 53.8913 60.2328 53.2095C59.762 52.4302 58.1792 52.2922 57.3026 52.7509C56.5964 53.1242 56.4137 53.7655 56.2067 54.4636C55.9226 55.4295 56.1337 56.3467 56.5152 57.1584C57.1686 58.5546 58.9179 58.7494 59.8351 57.7307C59.9934 57.5562 60.0502 57.2924 60.2085 56.9596L60.2166 56.9677Z" fill="white"/>
<path d="M68.1106 56.9677C67.8995 57.8173 68.0727 58.2867 68.6301 58.376V60.4012C68.1917 60.4012 67.7778 60.4012 67.3597 60.4012C66.4141 60.4012 65.4684 60.3769 64.5228 60.4094C64.0439 60.4256 63.8897 60.247 63.9343 59.7965C63.9587 59.5449 63.9384 59.2933 63.9384 59.0376C63.9384 58.2543 63.9505 58.303 64.7136 58.1C64.9692 58.031 65.2209 57.6901 65.3345 57.4182C65.7566 56.3954 66.1259 55.3524 66.5034 54.3134C66.8849 53.2622 67.2786 52.2111 67.6235 51.1437C67.8549 50.4294 68.001 50.2792 68.7437 50.2792C69.6041 50.2792 70.4686 50.3076 71.329 50.267C71.7349 50.2467 71.9337 50.4578 72.0514 50.7459C72.4816 51.8336 72.8753 52.9376 73.2933 54.0334C73.7641 55.2631 74.2552 56.4847 74.722 57.7185C74.8315 58.0108 75.0101 58.1447 75.3186 58.1284C75.7325 58.1041 75.8908 58.3436 75.8989 58.7129C75.907 59.135 75.8989 59.5571 75.903 59.9751C75.907 60.2714 75.7731 60.3972 75.4728 60.3972C73.8169 60.3931 72.161 60.3891 70.5051 60.3972C70.1723 60.3972 70.0546 60.247 70.0627 59.9345C70.0708 59.6301 70.0749 59.3257 70.0627 59.0254C70.0424 58.5992 70.0627 58.2461 70.6593 58.2908C70.777 58.2989 71.0043 58.031 71.0287 57.8646C71.118 57.2883 70.7973 56.9636 70.2048 56.9636C69.5148 56.9636 68.8208 56.9636 68.1024 56.9636L68.1106 56.9677ZM70.3022 55.4742C70.0384 54.5894 69.7989 53.7858 69.5148 52.828C69.1901 53.7858 68.9101 54.6056 68.6138 55.4742H70.3022Z" fill="white"/>
<path d="M67.8996 63.4979C69.4215 63.3843 70.7649 63.9362 71.9947 64.6668C73.2082 65.3851 74.0686 66.485 74.5434 67.8527C74.8843 68.839 75.0426 69.8495 75.2009 70.8804C75.343 71.7936 75.1766 72.654 75.071 73.4982C74.9452 74.5047 74.5921 75.5518 74.0645 76.4203C73.265 77.7394 72.1732 78.8474 70.5579 79.2248C69.7543 79.4115 68.9548 79.6915 68.1431 79.7362C67.4004 79.7768 66.6292 79.6104 65.9028 79.4196C65.2169 79.241 64.4985 79.0219 63.9263 78.6241C63.1957 78.1168 62.5179 77.4837 61.97 76.7856C61.1705 75.771 60.7768 74.5493 60.6835 73.2506C60.6145 72.305 60.4602 71.339 60.5658 70.4056C60.7281 68.9688 61.1705 67.6214 62.0309 66.3835C62.9847 65.0077 64.2428 64.1838 65.8175 63.7942C66.4953 63.6278 67.2015 63.5913 67.8955 63.4938L67.8996 63.4979ZM73.5816 71.5825C73.4841 70.9088 73.407 70.231 73.2812 69.5654C72.989 67.9867 72.2585 66.6636 70.8664 65.8032C70.3347 65.4744 69.734 65.1822 69.1293 65.0726C68.3785 64.9387 67.6195 64.7642 66.8159 65.0239C65.9271 65.308 65.0626 65.5718 64.3402 66.2009C62.7696 67.5605 62.3434 69.4031 62.1932 71.3309C62.1364 72.0655 62.2947 72.8245 62.384 73.5672C62.4246 73.8919 62.4936 74.2287 62.6316 74.5209C63.078 75.4422 63.5326 76.3351 64.3443 77.0494C65.2493 77.8449 66.3046 78.1452 67.4166 78.3319C68.1999 78.4659 68.967 78.2426 69.7219 77.9951C71.0409 77.5608 72.0231 76.7369 72.6603 75.5193C73.3056 74.2937 73.5572 72.9706 73.5734 71.5825H73.5816Z" fill="white"/>
<path d="M41.0765 54.2769C41.0765 54.9181 41.0968 55.4701 41.0603 56.022C41.0522 56.1357 40.8533 56.3102 40.7275 56.3264C40.3419 56.367 39.9483 56.3711 39.5627 56.3346C39.096 56.2899 38.9499 56.4888 39.0067 56.9149C39.0148 56.9799 39.0067 57.0489 39.0067 57.1179C39.0067 58.0797 39.0067 58.0878 39.9888 58.1366C40.2973 58.1528 40.4637 58.2542 40.4596 58.583C40.4515 59.0375 40.4556 59.4921 40.4596 59.9467C40.4596 60.2632 40.3135 60.4012 39.997 60.4012C38.0529 60.3972 36.1129 60.3931 34.1689 60.4012C33.8361 60.4012 33.7224 60.2673 33.7306 59.9467C33.7468 59.5083 33.7549 59.07 33.7306 58.6317C33.7021 58.2177 33.8848 58.1203 34.2663 58.1284C34.9968 58.1406 35.0009 58.1244 35.0009 57.3695C35.0009 56.0058 34.9887 54.6381 35.009 53.2744C35.0171 52.8158 34.8548 52.6047 34.3962 52.6656C33.8888 52.7306 33.6818 52.5317 33.7306 52.0122C33.7671 51.6266 33.763 51.237 33.7306 50.8514C33.6981 50.4009 33.8807 50.267 34.319 50.2711C36.531 50.2873 38.7469 50.2792 40.9588 50.2792C41.8882 50.2792 42.8177 50.2914 43.7471 50.2751C44.1692 50.267 44.364 50.3807 44.3477 50.8433C44.3153 51.651 44.3315 52.4627 44.3437 53.2703C44.3477 53.595 44.2341 53.7249 43.9013 53.7127C43.329 53.6965 42.7527 53.6965 42.1764 53.7127C41.8152 53.7208 41.6204 53.5869 41.661 53.2135C41.7097 52.7874 41.5149 52.6494 41.109 52.6616C40.553 52.6819 39.9929 52.6737 39.4369 52.6616C39.1406 52.6575 39.027 52.7752 39.0067 53.0755C38.9377 54.2687 38.9255 54.2687 40.0984 54.2687C40.3988 54.2687 40.6991 54.2687 41.0806 54.2687L41.0765 54.2769Z" fill="white"/>
<path d="M35.5325 74.5737C35.6583 75.0567 35.7313 75.5396 35.9018 75.982C36.2995 77.0007 37.0707 77.7191 38.0731 78.0803C38.9295 78.3887 39.8386 78.4537 40.7802 78.2508C41.5148 78.0925 42.1682 77.8693 42.777 77.4188C44.0189 76.5015 44.2705 74.7158 43.2234 73.555C42.6877 72.9625 42.014 72.6865 41.2672 72.516C40.1105 72.2482 38.9335 72.0412 37.8053 71.6881C36.6689 71.3309 35.5812 70.783 35.0657 69.6182C34.6071 68.5792 34.461 67.5159 34.8831 66.3592C35.2687 65.2999 35.987 64.6303 36.8799 64.0945C37.2695 63.8632 37.7484 63.6806 38.1949 63.6684C39.2947 63.6359 40.3987 63.6968 41.4985 63.7536C42.2291 63.7901 42.8379 64.1351 43.4182 64.5775C44.4694 65.3811 44.928 66.4444 44.924 67.731C44.924 67.8446 44.7292 67.9704 44.6033 68.0638C44.5465 68.1044 44.441 68.076 44.3558 68.076C43.3939 68.1084 43.4142 68.1084 43.264 67.1668C43.1179 66.2334 42.5051 65.5962 41.6812 65.2837C40.979 65.0158 40.1917 64.8778 39.4409 64.8819C38.5683 64.8859 37.7038 65.17 37.0301 65.7666C35.7476 66.8949 35.9789 68.8917 37.5171 69.6994C38.3085 70.1174 39.1527 70.2716 39.9969 70.4908C41.3159 70.8317 42.6674 71.0874 43.8484 71.8585C44.6602 72.3861 45.066 73.1451 45.3258 74.0096C45.6951 75.2434 45.3907 76.3716 44.7576 77.4675C44.165 78.4902 43.2234 79.0178 42.1844 79.3831C41.5351 79.6104 40.8167 79.7565 40.1308 79.7402C39.1202 79.7159 38.0731 79.7321 37.1275 79.2492C36.7379 79.0503 36.3239 78.892 35.9546 78.6566C35.0901 78.1087 34.6234 77.2645 34.3311 76.3108C34.2175 75.9333 34.112 75.5518 33.9983 75.1744C33.8969 74.8497 34.0349 74.6184 34.3433 74.5818C34.737 74.5331 35.1428 74.5697 35.5365 74.5697L35.5325 74.5737Z" fill="white"/>
<path d="M90.3759 65.235V70.6694H90.9969C93.1926 70.6694 95.3883 70.6694 97.5839 70.6694C98.2536 70.6694 98.2536 70.6694 98.2576 71.335C98.2576 71.868 97.9938 72.1345 97.4662 72.1345C95.303 72.1345 93.1439 72.1345 90.9807 72.1345H90.3759C90.3678 72.3455 90.3516 72.5241 90.3516 72.7027C90.3516 74.2693 90.3678 75.8359 90.3394 77.4025C90.3313 77.8652 90.4612 78.0072 90.9279 78.0032C93.428 77.9829 95.928 77.991 98.4281 77.9951C99.1911 77.9951 99.5483 78.5308 99.2195 79.2329C99.1668 79.3506 98.8867 79.4115 98.7122 79.4156C96.2811 79.4277 93.846 79.4237 91.4149 79.4237C90.7209 79.4237 90.0269 79.3953 89.3369 79.4318C88.8337 79.4602 88.6754 79.31 88.6795 78.7865C88.6998 74.525 88.6916 70.2595 88.6916 65.998C88.6916 65.3932 88.6998 64.7845 88.6916 64.1797C88.6876 63.8956 88.8053 63.7901 89.0813 63.7942C92.2753 63.7982 95.4654 63.7982 98.6594 63.8023C98.7081 63.8023 98.7528 63.8266 98.838 63.851V65.235H90.3759Z" fill="white"/>
<path d="M78.4072 79.4196C77.9243 79.4196 77.5225 79.448 77.1247 79.4034C76.9948 79.3912 76.8528 79.2126 76.7797 79.0787C76.7229 78.9732 76.7635 78.8149 76.7635 78.6809C76.7635 73.9649 76.7635 69.2448 76.7635 64.5288C76.7635 63.7942 76.7635 63.7942 77.4859 63.7942C79.3772 63.7942 81.2685 63.7739 83.1598 63.8185C84.0689 63.8429 84.9212 64.1229 85.6842 64.6789C87.0032 65.6327 87.5471 66.9964 87.4659 68.5102C87.3644 70.3203 86.5121 71.8707 84.3571 72.5728C83.3424 72.9016 82.3237 72.934 81.2847 72.934C80.3431 72.934 79.4016 72.934 78.4153 72.934V79.4236L78.4072 79.4196ZM78.4235 65.2634V71.5622C80.0469 71.4729 81.6419 71.4283 83.2207 71.2781C84.3287 71.1726 85.2702 70.6328 85.5259 69.4924C85.6883 68.7578 85.668 67.9217 85.4894 67.1871C85.1647 65.8559 84.008 65.3892 82.8026 65.2918C81.3618 65.1781 79.9089 65.2634 78.4275 65.2634H78.4235Z" fill="white"/>
<path d="M53.5362 63.6075C55.3585 63.4614 56.9292 64.0783 58.1224 65.4054C58.7799 66.136 59.1857 67.0897 59.689 67.9542C59.7215 68.011 59.6281 68.218 59.5469 68.2546C59.3237 68.356 59.0802 68.4372 58.8367 68.4697C58.5079 68.5184 58.1995 68.5589 58.025 68.1084C57.6475 67.1547 57.0469 66.3349 56.223 65.7098C55.7684 65.3649 55.2449 65.1741 54.6807 65.0077C53.9218 64.7804 53.2278 64.9184 52.5135 65.0442C51.2066 65.2756 50.0621 65.7951 49.3478 66.9923C48.9744 67.6255 48.5726 68.2464 48.2642 68.908C48.0856 69.2854 48.0044 69.7359 47.9922 70.158C47.9557 71.1848 47.8989 72.2198 48.0003 73.2344C48.1059 74.2815 48.4752 75.2677 49.0921 76.1647C49.5913 76.8871 50.1798 77.4756 50.9793 77.8165C52.0914 78.2873 53.2197 78.5105 54.4535 78.2264C55.4924 77.9829 56.3691 77.5283 57.0996 76.7856C57.68 76.1931 58.0615 75.4747 58.2766 74.6711C58.4511 74.0136 58.6703 73.9852 59.1411 74.249C59.1979 74.2815 59.2669 74.2937 59.3318 74.3059C59.9609 74.4317 59.9041 74.4195 59.762 75.0851C59.482 76.396 58.719 77.366 57.7531 78.2386C57.0793 78.8474 56.3204 79.2451 55.4316 79.4237C54.8837 79.5333 54.3276 79.7687 53.7878 79.7403C52.8544 79.6916 51.9209 79.5292 51.0077 79.3141C50.4842 79.1924 49.9403 78.957 49.5182 78.6242C48.8161 78.0722 48.0896 77.4878 47.5783 76.7694C46.7463 75.5924 46.3363 74.2247 46.2876 72.7636C46.2795 72.5039 46.1456 72.2441 46.1537 71.9844C46.1781 70.5963 46.3282 69.2448 46.8761 67.9218C47.696 65.9371 49.0475 64.614 51.093 63.9728C51.442 63.8632 51.7707 63.6684 52.1238 63.6197C52.5865 63.5588 53.0654 63.6035 53.5403 63.6035L53.5362 63.6075Z" fill="white"/>
<path d="M45.281 60.3972C45.281 59.7032 45.2851 59.0984 45.281 58.4937C45.281 58.1893 45.4515 58.1487 45.7031 58.1366C46.5027 58.1082 46.5027 58.1 46.5027 57.3005C46.5027 55.9368 46.4905 54.5732 46.5108 53.2095C46.5148 52.828 46.4174 52.6656 46.0116 52.6616C45.281 52.6575 45.281 52.6372 45.281 51.8905C45.281 51.5049 45.2892 51.1153 45.281 50.7297C45.2729 50.4416 45.3784 50.2833 45.6869 50.2833C47.5254 50.2833 49.3639 50.2833 51.2065 50.2833C51.519 50.2833 51.6205 50.4334 51.6164 50.7216C51.6083 51.1599 51.5961 51.5982 51.6164 52.0325C51.6408 52.5033 51.3973 52.69 50.9833 52.6575C50.476 52.621 50.3502 52.8523 50.3583 53.311C50.3786 54.6746 50.3623 56.0383 50.3664 57.402C50.3664 57.6171 50.3989 57.8322 50.4192 58.1C50.687 58.1122 50.9305 58.1325 51.1781 58.1366C51.4703 58.1366 51.6124 58.2705 51.6124 58.5668C51.6124 59.0376 51.6367 59.5124 51.5961 59.9792C51.584 60.1253 51.3851 60.3769 51.2674 60.3769C49.299 60.4012 47.3306 60.3931 45.2892 60.3931L45.281 60.3972Z" fill="white"/>
<g opacity="0.6">
<path d="M23.6291 60.385C22.1599 60.385 20.6907 60.385 19.2174 60.385C18.7466 60.385 18.5099 60.1415 18.5072 59.6545C18.5072 59.3014 18.5153 58.9483 18.5072 58.5912C18.4991 58.2989 18.6208 58.1488 18.9252 58.161C19.3635 58.1813 19.5218 57.9296 19.5218 57.5319C19.5218 56.1154 19.5299 54.699 19.5178 53.2866C19.5137 52.8564 19.396 52.4871 18.8238 52.5074C18.7264 52.5074 18.6168 52.3248 18.5153 52.2192C18.4991 52.1989 18.5153 52.1543 18.5112 52.1218C18.4436 50.9908 18.9793 50.4254 20.1184 50.4254C22.789 50.4254 25.4595 50.4335 28.126 50.4172C28.5805 50.4172 28.755 50.5309 28.7307 51.0098C28.6942 51.7322 28.7104 52.4587 28.7266 53.1852C28.7347 53.5464 28.6089 53.7128 28.2274 53.6965C27.7039 53.6763 27.1803 53.6844 26.6568 53.6965C26.2631 53.7047 26.048 53.5383 26.0602 53.1324C26.0723 52.6981 25.8329 52.5358 25.4311 52.5358C24.8913 52.5358 24.3515 52.5399 23.8077 52.5358C23.3937 52.5277 23.2354 52.7347 23.2435 53.1284C23.2638 54.5164 23.0771 54.285 24.3759 54.2972C25.6827 54.3094 25.6827 54.2972 25.6787 55.5838C25.6787 56.0789 25.4243 56.3265 24.9156 56.3265C24.4936 56.3265 24.0715 56.3265 23.6494 56.3265C23.1096 56.3265 23.2029 56.7445 23.2638 57.0164C23.3531 57.4061 22.8742 58.0554 23.6534 58.1528C24.2703 58.23 24.9035 58.161 25.5285 58.1691C25.914 58.1731 26.0967 57.9986 26.0561 57.6131C26.0155 57.2275 26.2063 57.1139 26.5675 57.126C27.1397 57.1423 27.716 57.1463 28.2924 57.126C28.6292 57.1139 28.7347 57.2437 28.7266 57.5684C28.7104 58.3436 28.7023 59.1188 28.7266 59.894C28.7388 60.3079 28.5643 60.4053 28.1828 60.4013C26.6608 60.385 25.1429 60.3932 23.621 60.3932L23.6291 60.385Z" fill="white"/>
<path d="M12.1557 60.385C10.6175 60.385 9.08338 60.3729 7.54519 60.3932C7.1231 60.3972 6.96482 60.2552 6.99728 59.8412C7.02569 59.4881 7.01352 59.135 6.99728 58.7819C6.98511 58.3598 7.16774 58.1731 7.59795 58.165C8.29196 58.1528 8.36502 58.0595 8.36502 57.3574C8.36502 56.0586 8.36502 54.7639 8.36502 53.4652C8.36502 52.7753 8.16615 52.552 7.48431 52.5358C7.15151 52.5277 6.97699 52.4303 6.99323 52.0691C7.00946 51.6673 7.0054 51.2614 6.99323 50.8556C6.98511 50.5512 7.13122 50.4294 7.42343 50.4294C9.26602 50.4294 11.1045 50.4253 12.9471 50.4456C13.0689 50.4456 13.2759 50.6607 13.288 50.7906C13.3327 51.2411 13.3286 51.6997 13.288 52.1502C13.2759 52.2842 13.0892 52.4871 12.9593 52.5074C12.1354 52.6291 12.0908 52.6616 12.0908 53.4693C12.0908 54.699 12.0908 55.9287 12.0908 57.1585C12.0908 58.0757 12.176 58.1569 13.1014 58.161C13.491 58.161 13.8765 58.161 14.2662 58.161C14.6801 58.161 14.8871 57.9824 14.8749 57.5522C14.8628 57.1666 14.8831 56.777 14.8709 56.3914C14.8628 56.0749 14.9805 55.9287 15.3133 55.9369C15.853 55.9531 16.3928 55.949 16.9326 55.9369C17.237 55.9328 17.3588 56.0708 17.3588 56.363C17.3588 57.5765 17.3507 58.79 17.3588 60.0035C17.3588 60.381 17.1274 60.385 16.8555 60.385C15.2849 60.385 13.7142 60.385 12.1435 60.385H12.1557Z" fill="white"/>
</g>
</svg>
