<svg width="56" height="56" viewBox="0 0 56 56" fill="none" xmlns="http://www.w3.org/2000/svg">
<path d="M0 28C0 12.536 12.536 0 28 0C43.464 0 56 12.536 56 28C56 43.464 43.464 56 28 56C12.536 56 0 43.464 0 28Z" fill="#0A66C2"/>
<path d="M11.7266 8.91169H44.2634V8.9093C45.7936 8.88915 47.0711 10.1309 47.0916 11.6615V44.3356C47.0711 45.8668 45.7953 47.11 44.2634 47.0907H11.7266C10.1984 47.107 8.92711 45.8637 8.90918 44.3356V11.6637C8.9278 10.1364 10.1993 8.89444 11.7266 8.91169Z" fill="#0A66C2"/>
<path d="M36.0028 41.6385H41.6604L41.6628 31.6435C41.6628 26.7367 40.6055 22.9651 34.8714 22.9651C32.6822 22.8838 30.6185 24.0173 29.5126 25.908H29.4365V23.4182H24.0053V41.6378H29.6628V32.6247C29.6628 30.2479 30.1136 27.946 33.0604 27.946C35.9651 27.946 36.0028 30.6658 36.0028 32.7786V41.6385Z" fill="white"/>
<path d="M14.3379 17.6446C14.3379 19.4457 15.8206 20.9276 17.6217 20.9276C19.4225 20.9274 20.9042 19.4447 20.9042 17.6439C20.9039 15.8432 19.422 14.3615 17.6211 14.3615C15.82 14.3615 14.3379 15.8435 14.3379 17.6446Z" fill="white"/>
<path d="M14.7871 41.6385H20.4505V23.4182H14.7871V41.6385Z" fill="white"/>
<path d="M28 55C13.0883 55 1 42.9117 1 28H-1C-1 44.0163 11.9837 57 28 57V55ZM55 28C55 42.9117 42.9117 55 28 55V57C44.0163 57 57 44.0163 57 28H55ZM28 1C42.9117 1 55 13.0883 55 28H57C57 11.9837 44.0163 -1 28 -1V1ZM28 -1C11.9837 -1 -1 11.9837 -1 28H1C1 13.0883 13.0883 1 28 1V-1Z" fill="#E5E9F0"/>
</svg>
