<svg width="128" height="128" viewBox="0 0 128 128" fill="none" xmlns="http://www.w3.org/2000/svg">
<rect width="128" height="128" fill="black"/>
<path d="M91.9998 51.3663C92.0018 47.0562 91.016 42.8025 89.1175 38.9283C87.219 35.0542 84.4577 31.6616 81.0434 29.0085C77.6292 26.3554 73.6519 24.5116 69.4139 23.6172C65.1759 22.7228 60.7888 22.8014 56.5859 23.847C52.383 24.8926 48.475 26.8777 45.1591 29.6514C41.8431 32.4251 39.2063 35.9144 37.4492 39.854C35.6922 43.7937 34.861 48.08 35.0189 52.3872C35.1769 56.6944 36.3198 60.909 38.3607 64.7108L38.8377 65.4992C39.0064 65.7985 39.1825 66.0906 39.3586 66.3753L62.5533 105L86.9147 67.5506C87.289 67.0177 87.6485 66.4702 87.9787 65.9153L88.1622 65.6306C90.6932 61.2998 92.0179 56.3759 91.9998 51.3663ZM63.4999 66.2658C60.3895 66.2658 57.349 65.3481 54.7629 63.6287C52.1768 61.9094 50.1613 59.4657 48.9713 56.6067C47.7814 53.7477 47.4704 50.6018 48.0777 47.567C48.6851 44.5321 50.1835 41.7446 52.3834 39.5571C54.5833 37.3695 57.3858 35.8801 60.4366 35.2773C63.4874 34.6745 66.6494 34.9853 69.5226 36.1705C72.3958 37.3557 74.8512 39.362 76.5782 41.9356C78.3052 44.5092 79.2262 47.5346 79.2248 50.629C79.2248 52.683 78.818 54.717 78.0276 56.6146C77.2373 58.5122 76.0789 60.2363 74.6186 61.6884C73.1583 63.1405 71.4248 64.2922 69.517 65.0776C67.6092 65.863 65.5646 66.2667 63.4999 66.2658Z" fill="#E6C020"/>
<path d="M63.4999 66.2658C60.3895 66.2658 57.349 65.3481 54.7629 63.6288C52.1768 61.9094 50.1613 59.4657 48.9713 56.6067C47.7814 53.7477 47.4704 50.6018 48.0777 47.567C48.6851 44.5321 50.1834 41.7446 52.3833 39.5571C54.5832 37.3695 57.3858 35.8801 60.4366 35.2773C63.4874 34.6745 66.6494 34.9854 69.5226 36.1705C72.3958 37.3557 74.8512 39.362 76.5782 41.9356C78.3052 44.5092 79.2262 47.5346 79.2247 50.629C79.2247 52.6831 78.8179 54.717 78.0276 56.6146C77.2373 58.5122 76.0789 60.2363 74.6186 61.6884C73.1583 63.1405 71.4247 64.2922 69.517 65.0776C67.6092 65.863 65.5645 66.2667 63.4999 66.2658Z" fill="black"/>
</svg>
