<svg width="128" height="128" viewBox="0 0 128 128" fill="none" xmlns="http://www.w3.org/2000/svg">
<rect width="128" height="128" fill="#E31E0C"/>
<path fill-rule="evenodd" clip-rule="evenodd" d="M86.503 94.5554C86.4232 94.5273 86.3435 94.5017 86.2663 94.471C84.4962 93.8194 82.7029 93.4744 80.7888 93.684C78.0436 93.9804 75.2856 94.2385 72.561 93.431C65.4652 91.3254 59.9003 87.1448 55.6346 81.1882C55.2795 80.695 54.9605 80.1788 54.4974 79.4786C55.0608 79.6038 55.3876 79.6805 55.7169 79.752C58.3926 80.35 61.0915 80.6975 63.8341 80.4241C64.1608 80.3883 64.4593 80.0689 64.786 79.8696C64.8941 79.9386 65.2079 80.3142 65.4498 80.2733C66.7979 80.0459 68.1229 79.7188 69.4994 79.4173C68.9797 78.045 68.5371 76.8619 68.092 75.6762C68.1332 75.6609 68.177 75.6481 68.2233 75.6328C68.8742 76.7495 69.5277 77.8687 70.2686 79.1413C71.5988 78.344 72.8209 77.6106 74.0558 76.8696C72.2626 74.7716 70.5825 72.804 68.8973 70.8363C68.9591 70.7826 69.0182 70.729 69.08 70.6753C71.0122 72.4411 72.9469 74.2043 75 76.08C76.1217 74.6438 77.12 73.3661 78.1748 72.0143C75.813 70.6574 73.6441 69.413 71.4778 68.1685C71.5061 68.1148 71.537 68.0586 71.5628 68.0049C73.9014 69.0092 76.235 70.0135 78.7537 71.097C79.3738 69.5152 79.9912 67.9487 80.7013 66.137C77.7297 65.4036 75.0206 64.7366 72.4684 64.1054C75.1518 63.8346 77.9227 64.2485 80.8685 65.3831C80.8685 64.0364 80.8583 62.9146 80.8711 61.7954C80.8789 60.9598 80.5186 60.5637 79.667 60.3414C76.6183 59.5415 73.5258 59.3064 70.4127 59.5722C64.3203 60.0909 60.6464 64.453 61.2124 70.4837C61.3436 71.907 61.7964 73.2971 62.0563 74.7103C62.2853 75.9726 62.0383 76.5169 60.7802 76.7367C59.0333 77.0408 57.2426 77.0944 55.4699 77.2554L55.4416 76.9334C55.9768 76.8185 56.5171 76.7162 57.047 76.5859C57.6156 76.4454 58.1894 76.315 58.7425 76.1234C60.2039 75.6149 60.6773 74.7256 60.3248 73.2511C60.1679 72.5816 60.0083 71.9172 59.8823 71.2426C59.0796 66.878 60.7622 62.7102 64.4541 60.6046C66.0981 59.6667 67.9969 59.1378 69.8184 58.5373C70.5748 58.2894 71.429 58.3354 72.3063 58.2408C72.2574 57.4436 72.2111 56.7229 72.1596 55.8567C71.6219 56.0918 71.3106 56.2297 70.9967 56.3652C70.6648 56.5083 70.3304 56.6463 69.9959 56.7843C70.2841 56.3575 70.6494 56.056 71.0276 55.7723C72.2085 54.8907 72.242 54.6377 71.2566 53.3805C66.2088 57.8754 61.0169 62.2298 56.8618 67.5808C55.4545 69.3925 54.6132 71.6387 53.5378 73.7009C53.368 74.0254 53.3139 74.4087 53.2084 74.7665C53.0181 73.1183 53.2522 71.5799 54.1655 70.2179C55.156 68.7307 56.18 67.2613 57.2246 65.8099C60.1293 61.78 59.2622 58.1003 56.5891 54.8882C56.3215 54.5636 56.0617 54.2289 55.8095 53.9146C57.2014 54.3822 58.5033 55.0773 59.8617 55.205C61.3719 55.3456 62.4551 54.2698 63.2732 53.0202C62.2338 53.498 61.2484 54.096 59.944 53.4648C63.1857 52.0159 64.8015 49.2484 66.304 46.3711C64.4155 48.2672 62.1978 49.6241 59.7125 50.5645C58.0401 51.1956 56.3858 51.2851 54.6749 50.5798C52.5498 49.7033 50.3218 49.3149 47.996 49.4069C45.9789 49.4835 44.3632 50.2808 43.2492 51.9111C42.6317 52.8183 41.9062 53.0943 40.8487 53.1735C38.7571 53.3268 36.6705 53.6079 34.6046 53.9606C33.6037 54.1318 32.765 54.7067 32.3662 55.9103C36.6525 54.8166 40.8281 55.1974 45.0321 56.0892C43.9747 56.4699 42.8992 56.728 41.8058 56.8354C40.3933 56.9708 40.2904 57.0245 40.275 58.5781C40.6686 58.642 41.0777 58.7902 41.4714 58.7545C43.0459 58.6165 44.6204 58.4299 46.1898 58.2434C47.5766 58.0747 48.971 57.6761 50.2137 58.343C50.2137 58.9921 50.0645 59.5824 50.2394 60.0577C50.6897 61.2638 50.1828 62.1506 49.4136 62.9325C48.7421 63.6199 47.9702 64.2128 47.2164 64.8133C45.2508 66.3823 43.262 67.9257 41.2938 69.4871C38.4457 71.7486 36.6834 74.6924 35.5616 78.114C33.4545 84.5459 34.9416 89.925 40.0717 94.3407C40.1078 94.3714 40.1386 94.4071 40.1695 94.448L40.8204 95H87.141L86.503 94.5554Z" fill="white"/>
<path fill-rule="evenodd" clip-rule="evenodd" d="M52.3808 57.3088C54.0197 56.5396 54.9691 55.6197 54.9794 54.7074C54.9819 54.3522 54.6989 53.9944 54.5471 53.6367C54.4545 53.652 54.3593 53.6674 54.2641 53.6852C54.7066 55.3846 53.289 56.1001 52.3808 57.3088ZM47.5388 53.2381C49.4838 54.2577 51.3311 52.819 53.1912 53.164C51.2153 51.779 48.6477 51.802 47.5388 53.2381Z" fill="white"/>
<path fill-rule="evenodd" clip-rule="evenodd" d="M101.223 34C101.349 34.6772 101.532 35.3518 101.594 36.0341C102.119 42.1363 102.363 48.236 100.874 54.254C100.042 57.6245 98.6609 60.7523 96.2939 63.3664C93.6285 66.3154 90.3225 67.6953 86.3038 67.2941C85.4007 67.2046 85.0174 66.921 85.1486 65.8733C85.3158 64.5291 85.1898 63.1467 85.1898 61.7208C85.1589 61.7412 85.2129 61.6671 85.2669 61.6697C89.7024 61.8894 92.5377 59.2574 94.9844 56.1219C97.5675 52.8127 98.7227 48.8851 99.3504 44.8118C99.8418 41.6278 100.179 38.4208 100.601 35.2266C100.652 34.8126 100.791 34.4114 100.892 34.0026C101.002 34.0026 101.113 34 101.223 34Z" fill="white"/>
<path fill-rule="evenodd" clip-rule="evenodd" d="M83.0155 73.3986C83.669 71.6686 84.2813 70.0383 84.8422 68.551C86.53 68.551 88.2306 68.7708 89.8514 68.5025C93.3813 67.9173 95.9335 65.6813 98.0792 62.9931C98.9514 61.8994 99.6203 60.6396 100.366 59.4488C100.801 58.7563 101.203 58.0459 101.622 57.3431L101.933 57.4019C101.902 57.9769 101.944 58.5697 101.828 59.1268C100.629 64.8508 97.5878 69.4377 92.8822 72.8952C89.9569 75.0443 86.7718 75.4787 83.4555 73.6874C83.3062 73.6081 83.1725 73.5034 83.0155 73.3986Z" fill="white"/>
<path fill-rule="evenodd" clip-rule="evenodd" d="M98.9421 74.7585C96.9816 79.6776 93.8248 83.4647 88.5815 85.2535C83.3458 87.0448 76.9679 85.9945 73.9629 82.8897C75.2544 81.8906 76.5253 80.8659 77.8555 79.9204C78.0459 79.785 78.5476 79.9587 78.8434 80.1095C82.1726 81.8012 85.6382 82.4604 89.2478 81.2236C92.3403 80.1657 94.962 78.3539 97.1026 75.8752C97.5579 75.3488 98.0956 74.8965 98.5922 74.4059C98.7105 74.5234 98.8263 74.641 98.9421 74.7585Z" fill="white"/>
<path fill-rule="evenodd" clip-rule="evenodd" d="M78.9903 78.8962C80.1327 77.432 81.1875 76.0853 82.2732 74.6926C84.6711 75.9907 87.2439 76.4482 89.8475 75.6304C91.3552 75.1551 92.8989 74.4269 94.0926 73.42C95.9991 71.8127 97.6328 69.8834 99.3746 68.0818C99.7682 67.6704 100.136 67.2335 100.736 66.9038C100.71 67.1798 100.743 67.4788 100.648 67.7266C98.3583 73.673 94.5763 78.2395 88.3399 80.3221C85.0827 81.4056 81.9491 80.7105 78.9903 78.8962Z" fill="white"/>
<path fill-rule="evenodd" clip-rule="evenodd" d="M34.8885 64.8741C32.7994 63.4431 30.4993 64.3937 28.2018 63.9823C29.2001 65.2166 32.9332 65.651 34.8885 64.8741ZM27.7156 62.472C27.6358 63.1262 27.9291 63.4124 28.5903 63.3664C28.9325 63.3408 29.2876 63.3792 29.6195 63.3025C31.7961 62.817 33.8568 63.0674 35.7993 64.1867C35.964 64.2838 36.2213 64.2199 36.6895 64.2429C33.8208 62.1884 30.8107 62.3315 27.7156 62.472ZM28.773 61.6543C31.5388 61.7412 34.0061 61.9482 36.2573 63.1773C37.2838 63.737 37.4485 64.317 36.4888 64.9968C35.7633 65.5104 34.8345 65.8912 33.9521 65.9985C32.5936 66.1646 31.1966 66.1135 29.8227 66.0292C28.1427 65.9269 26.6839 63.9772 27.0595 62.3571C27.1547 61.938 27.5509 61.5547 27.8828 61.2276C29.4239 59.7122 30.9805 58.2174 32.5473 56.7276C32.7608 56.5257 33.0284 56.3238 33.3089 56.2574C35.5781 55.7029 37.873 55.7437 40.3455 55.9303C39.1851 58.6799 38.8352 61.4448 39.1439 64.6007C35.9202 62.5411 32.8175 60.8392 28.773 61.6543Z" fill="white"/>
<path fill-rule="evenodd" clip-rule="evenodd" d="M68.433 85.0026C69.8635 84.4762 71.0444 84.0085 72.2485 83.6124C72.5186 83.5256 72.9483 83.5818 73.1772 83.7453C78.0707 87.2513 83.3346 88.1278 89.0385 86.0119C89.1337 85.9762 89.2417 85.9685 89.3447 85.9659C89.409 85.9634 89.4759 85.9915 89.5402 86.0094C88.9073 87.5886 84.8474 89.8322 81.8398 90.1006C76.6042 90.5759 72.3668 88.391 68.433 85.0026Z" fill="white"/>
<path fill-rule="evenodd" clip-rule="evenodd" d="M80.8322 91.8852C76.0803 94.2336 64.7806 90.329 61.4926 85.4022C63.2292 85.3256 65.0044 85.2234 66.7796 85.1876C67.0575 85.1825 67.4151 85.4278 67.6158 85.6578C70.7855 89.3069 74.8016 91.2285 79.6204 91.553C79.8263 91.5658 80.0295 91.6118 80.2328 91.6629C80.3923 91.7038 80.5441 91.7754 80.8322 91.8852Z" fill="white"/>
<path fill-rule="evenodd" clip-rule="evenodd" d="M84.7089 41.8419C86.6205 48.0592 82.9594 55.9681 77.0883 58.4391C76.9648 57.1231 76.8259 55.848 76.7487 54.5703C76.7384 54.3761 77.0085 54.1154 77.2092 53.9698C80.9578 51.256 83.5126 47.7755 84.323 43.1554C84.3899 42.7772 84.5391 42.4118 84.7089 41.8419Z" fill="white"/>
<path fill-rule="evenodd" clip-rule="evenodd" d="M76.5309 53.0941C76.199 52.0898 75.8928 51.2645 75.6741 50.4161C75.6201 50.1912 75.7745 49.8309 75.9494 49.6418C78.993 46.4118 80.3901 42.4561 81.1156 38.1988C81.1851 37.8001 81.2828 37.4066 81.5067 37.0156C82.348 40.0795 82.4714 43.1511 81.625 46.2329C80.8326 49.1282 79.0728 51.3079 76.5309 53.0941Z" fill="white"/>
<path fill-rule="evenodd" clip-rule="evenodd" d="M66.6113 84.5836C64.5531 84.9567 62.5978 84.8493 60.6579 84.4992C60.3569 84.4456 60.0636 84.1568 59.8423 83.909C59.001 82.9711 58.1906 82.0052 57.4908 80.8246C57.941 80.8936 58.3912 80.9984 58.8415 81.0188C60.6347 81.1082 62.4254 81.2079 64.2186 81.2232C64.831 81.2309 65.1345 81.374 65.3584 81.9643C65.6825 82.8229 66.1456 83.6279 66.6113 84.5836Z" fill="white"/>
<path fill-rule="evenodd" clip-rule="evenodd" d="M78.6665 58.6402C81.494 56.9179 83.7452 54.7126 85.3815 51.8429C85.5771 53.4809 85.5899 55.0755 84.8181 56.5627C83.331 59.4119 81.8414 59.9205 78.6665 58.6402Z" fill="white"/>
<path fill-rule="evenodd" clip-rule="evenodd" d="M77.5183 79.4079C76.2216 80.3457 75.0175 81.2554 73.7646 82.0885C73.5639 82.2239 73.0236 82.1345 72.8358 81.9531C72.1488 81.2861 71.5494 80.5348 70.8882 79.7886C72.1437 78.9658 73.3041 78.1839 74.4875 77.4454C74.6342 77.3534 74.9686 77.3891 75.1127 77.499C75.8794 78.0714 76.6152 78.6822 77.5183 79.4079Z" fill="white"/>
<path fill-rule="evenodd" clip-rule="evenodd" d="M78.3548 78.5294C77.3643 77.7679 76.5565 77.1469 75.7075 76.4953C76.8112 75.164 77.8738 73.8888 79.0212 72.5064C79.8137 73.0225 80.6292 73.5515 81.6043 74.1852C80.5006 75.6597 79.4663 77.0422 78.3548 78.5294Z" fill="white"/>
<path fill-rule="evenodd" clip-rule="evenodd" d="M72.1992 83.0812C70.8125 83.5233 69.5801 83.9322 68.3374 84.3001C68.1496 84.3538 67.8074 84.2925 67.6994 84.1545C66.9661 83.2345 66.2766 82.2788 65.5073 81.2439C67.1745 80.8146 68.5921 80.4543 70.0329 80.0838C70.6967 81.0037 71.3733 81.9364 72.1992 83.0812Z" fill="white"/>
<path fill-rule="evenodd" clip-rule="evenodd" d="M81.493 66.7432C81.6062 66.7585 81.6808 66.7508 81.7425 66.7789C84.5983 68.1205 84.269 67.2926 83.3814 70.1904C83.0958 71.1231 82.6224 71.9996 82.1953 72.9936C81.2459 72.4851 80.4149 72.0405 79.5968 71.6009C80.2451 69.9399 80.86 68.3633 81.493 66.7432Z" fill="white"/>
<path fill-rule="evenodd" clip-rule="evenodd" d="M81.6639 60.9276C82.4794 61.109 83.223 61.2445 83.9485 61.454C84.1543 61.5128 84.4399 61.7862 84.4451 61.9676C84.4862 63.4625 84.4682 64.9574 84.4682 66.6695C83.4314 66.2811 82.6904 66.0332 81.9803 65.7189C81.8234 65.6499 81.6819 65.3561 81.6767 65.1619C81.651 63.8024 81.6639 62.4404 81.6639 60.9276Z" fill="white"/>
<path fill-rule="evenodd" clip-rule="evenodd" d="M76.1791 54.4267C76.2872 55.85 76.3824 57.1226 76.4802 58.4182C75.4176 58.4182 74.4991 58.4463 73.5832 58.3952C73.4134 58.385 73.1484 58.0834 73.1175 57.8841C73.0197 57.3143 72.9889 56.7265 73.0094 56.149C73.0172 55.9369 73.1947 55.6226 73.3799 55.5408C74.2495 55.1524 75.15 54.8279 76.1791 54.4267Z" fill="white"/>
<path fill-rule="evenodd" clip-rule="evenodd" d="M75.061 50.3927C75.2436 50.8476 75.3954 51.1517 75.4906 51.4711C75.6681 52.0537 75.8148 52.644 75.9949 53.3161C74.9323 53.8195 73.9238 54.2948 72.8818 54.7854C72.7609 54.5989 72.694 54.4864 72.6194 54.3817C71.8655 53.3467 72.2386 52.621 73.2086 51.9643C73.8286 51.5478 74.356 51.0009 75.061 50.3927Z" fill="white"/>
<path fill-rule="evenodd" clip-rule="evenodd" d="M41.9136 51.1862C41.8596 52.2109 41.3579 52.4383 40.4291 52.4332C38.9343 52.4255 37.4395 52.6249 35.9705 52.7373C37.455 50.5524 39.3537 50.0363 41.9136 51.1862Z" fill="white"/>
<path fill-rule="evenodd" clip-rule="evenodd" d="M84.126 60.0753C84.8541 58.9688 85.487 58.008 86.174 56.9705C86.6834 57.893 86.7297 58.8308 86.4158 59.7329C86.3232 60.0012 85.7752 60.2133 85.4098 60.2593C84.993 60.3104 84.5505 60.1443 84.126 60.0753Z" fill="white"/>
<path fill-rule="evenodd" clip-rule="evenodd" d="M46 52.4826C47.0433 50.5363 49.459 50.5086 51.3181 52.3856C49.568 51.9146 47.83 53.8643 46 52.4826Z" fill="black"/>
<path fill-rule="evenodd" clip-rule="evenodd" d="M50.5552 58C51.4096 56.362 52.7434 55.3923 52.3271 53.0894C52.4166 53.0652 52.5062 53.0444 52.5933 53.0236C52.7361 53.5084 53.0024 53.9933 53 54.4746C52.9903 55.7109 52.0971 56.9576 50.5552 58Z" fill="black"/>
</svg>
