<svg width="128" height="128" viewBox="0 0 128 128" fill="none" xmlns="http://www.w3.org/2000/svg">
<rect width="128" height="128" fill="#33A3D8"/>
<path fill-rule="evenodd" clip-rule="evenodd" d="M99.2142 60.0622C101.798 60.0622 103.421 61.2305 103.9 63.3718C104.38 65.514 103.083 67.6807 100.954 68.2133C100.435 68.343 99.8765 68.4089 99.3311 68.4089C75.7728 68.4207 52.2007 68.4207 28.6414 68.4089C25.9676 68.4089 24.1379 66.8514 24.0082 64.5657C23.8657 62.1257 25.605 60.2056 28.1226 60.0749C29.1219 60.0229 30.1213 60.0622 31.1344 60.0622H99.2142Z" fill="white"/>
<path fill-rule="evenodd" clip-rule="evenodd" d="M63.9217 58.3875C52.6289 58.3875 41.3234 58.4003 30.0307 58.3875C26.8508 58.3875 24.7862 55.5319 25.9291 52.7284C26.5521 51.2219 27.6811 50.3267 29.3301 50.1577C29.784 50.1066 30.238 50.1066 30.693 50.1066H97.2545C98.0328 50.1066 98.7993 50.0801 99.552 50.3405C101.448 51.0018 102.55 52.8581 102.278 54.8696C101.993 56.8948 100.344 58.3747 98.2284 58.4003C94.3075 58.4268 90.3877 58.4131 86.4679 58.4131C78.9653 58.3875 71.4371 58.3875 63.9217 58.3875Z" fill="white"/>
<path fill-rule="evenodd" clip-rule="evenodd" d="M30.2122 78.403C27.3959 78.403 25.5524 76.6627 25.6045 74.1324C25.6566 72.0423 27.2524 70.3167 29.3425 70.1212C29.8879 70.0701 30.4333 70.0828 30.9777 70.0828H96.982C97.4881 70.0828 97.9814 70.0701 98.4885 70.1094C100.72 70.2774 102.369 72.0688 102.342 74.2886C102.317 76.5075 100.642 78.3116 98.3971 78.3775C96.1635 78.4423 93.9319 78.403 91.6983 78.403H30.2122Z" fill="white"/>
<path fill-rule="evenodd" clip-rule="evenodd" d="M64.0383 40.0601C73.6566 40.0601 83.2749 40.0463 92.8804 40.0729C96.3846 40.0856 98.4492 43.4218 96.7875 46.3039C96.1635 47.3809 95.2427 48.0943 93.9967 48.2899C93.2833 48.4058 92.5434 48.4707 91.829 48.4707C73.2803 48.4835 54.7315 48.4835 36.1828 48.4707C35.5087 48.4707 34.8209 48.4186 34.1458 48.3154C32.0429 47.9774 30.5374 46.1732 30.6023 44.1096C30.6672 42.0716 32.3023 40.3067 34.3787 40.0856C34.872 40.0336 35.378 40.0601 35.8851 40.0601H64.0383Z" fill="white"/>
<path fill-rule="evenodd" clip-rule="evenodd" d="M35.8713 88.4628C32.601 88.4628 30.5758 86.8405 30.5885 84.2443C30.6023 81.6481 32.6266 80.0385 35.9106 80.0385H91.9715C92.5168 80.0385 93.075 80.0385 93.6076 80.1161C95.9689 80.4669 97.4488 82.2318 97.3456 84.543C97.2415 86.6715 95.4629 88.3852 93.1782 88.4491C91.2708 88.5012 89.3497 88.4628 87.4414 88.4628H35.8713Z" fill="white"/>
<path fill-rule="evenodd" clip-rule="evenodd" d="M63.9347 38.4244C57.6132 38.4244 51.279 38.4499 44.9575 38.4116C42.6993 38.3988 41.0121 36.9445 40.6869 34.9202C40.3891 32.9853 41.414 31.1163 43.2054 30.3901C44.0623 30.0393 44.9713 30 45.892 30H82.0815C82.9511 30 83.8198 30.0393 84.6374 30.338C86.3639 30.9483 87.5716 32.8949 87.3505 34.6342C87.0911 36.6978 85.5463 38.2553 83.4562 38.385C81.7817 38.4892 80.0945 38.4371 78.4083 38.4371C73.5913 38.4371 68.7635 38.4371 63.9347 38.4244Z" fill="white"/>
<path fill-rule="evenodd" clip-rule="evenodd" d="M63.9217 98.3921H44.9318C43.2318 98.3921 41.9337 97.6915 41.1416 96.1861C40.3889 94.7701 40.4803 93.356 41.3234 92.0314C42.2324 90.5918 43.6209 90.0847 45.2953 90.0847C57.0942 90.1113 68.8792 90.0985 80.679 90.0985C81.4966 90.0985 82.3142 90.0847 83.1317 90.0985C85.5461 90.1496 87.312 91.8899 87.3385 94.2129C87.3641 96.5359 85.6238 98.3538 83.1976 98.3666C76.7592 98.4177 70.3335 98.3921 63.9217 98.3921Z" fill="white"/>
</svg>
