<svg width="128" height="128" viewBox="0 0 128 128" fill="none" xmlns="http://www.w3.org/2000/svg">
<rect width="128" height="128" fill="#FED502"/>
<path d="M83.017 52.1891C83.0265 52.1815 83.0342 52.1718 83.0395 52.1607C83.0448 52.1496 83.0475 52.1375 83.0475 52.1252C83.0475 52.1129 83.0448 52.1008 83.0395 52.0897C83.0342 52.0786 83.0265 52.0689 83.017 52.0613C83.1484 51.2682 83.1484 50.4583 83.017 49.6651C82.7161 49.0884 83.0475 48.4419 82.819 47.8574C82.4381 46.6109 82.2096 45.3257 81.8249 44.0715C80.9351 41.3155 79.3717 38.8342 77.2812 36.8597C66.9484 26.6401 49.6191 31.2196 45.4943 45.2676C43.7576 51.1826 44.6945 56.7182 48.0347 61.8512C49.5581 64.2164 48.3546 67.0849 45.6733 67.3636C45.0537 67.4364 44.4265 67.3271 43.8662 67.0485C43.3059 66.7699 42.8359 66.3338 42.5122 65.7919C39.2063 60.9067 37.5914 55.4833 37.9685 49.5761C38.6235 39.3953 43.5253 31.9048 52.4413 27.2169C61.9629 22.1846 74.3105 24.244 81.9468 31.9009C85.5024 35.4598 88.0223 39.9473 89.2289 44.8689C89.5793 45.1283 89.2289 45.5657 89.4688 45.856C89.4688 46.2431 89.3965 46.6302 89.6821 46.9825C89.8954 47.4199 89.6364 47.9154 89.8459 48.3529C90.0514 50.0173 90.0514 51.7014 89.8459 53.3659C89.6517 53.753 89.8726 54.1633 89.6974 54.5272C89.5072 54.9374 89.4271 55.3915 89.465 55.8433C89.2403 56.1375 89.5755 56.575 89.2251 56.8382C88.3891 60.1542 86.9935 63.2976 85.1003 66.1287C84.9676 66.3778 84.7665 66.5822 84.5214 66.7171C82.1905 68.3894 79.5435 67.1894 79.0294 64.5996C78.942 64.419 78.8965 64.2203 78.8965 64.019C78.8965 63.8177 78.942 63.619 79.0294 63.4383C79.0675 62.5286 79.6807 61.8899 80.1072 61.1815C81.4608 58.9345 82.3859 56.4486 82.8342 53.8536C83.0475 53.2884 82.7199 52.7 83.017 52.1891Z" fill="white"/>
<path d="M73.069 89.87C72.1473 91.6042 71.218 93.3539 70.3001 95.0766C69.4203 96.7334 68.5672 98.3979 67.6721 100.039C67.0285 101.201 65.9659 101.859 64.7243 102.223C64.2322 102.404 63.6928 102.404 63.2008 102.223C61.5707 102.114 60.63 101.015 59.9368 99.7102C57.2708 94.6778 54.6276 89.6068 51.9844 84.5473C50.7123 82.1511 49.4212 79.7395 48.1986 77.2968C47.744 76.4589 47.5158 75.5135 47.5372 74.5569C47.5586 73.6002 47.8289 72.6664 48.3205 71.8503C48.8188 70.9768 49.5953 70.3022 50.5218 69.938C51.0426 69.6915 51.6226 69.6042 52.1913 69.6867C52.7599 69.7691 53.2928 70.0178 53.7249 70.4025C55.2712 71.6838 56.7718 73.0193 58.4857 74.0916C60.7709 75.5162 63.197 76.2168 65.8402 75.5549C67.7978 75.0671 69.4965 73.9832 71.0656 72.7096C71.9949 71.9625 72.9357 71.227 73.8421 70.4528C74.4683 69.9156 75.2585 69.616 76.0778 69.6051C76.3749 69.8218 76.7938 69.5044 77.0642 69.8335C78.7286 70.5767 79.6693 71.92 80.1454 73.6503C80.254 74.2205 80.254 74.8066 80.1454 75.3768C79.0409 79.0969 76.7786 82.2402 75.1523 85.7009C74.6153 86.8622 74.0097 87.9693 73.4498 89.0997C73.3356 89.3513 73.3356 89.6726 73.069 89.87Z" fill="white"/>
<path d="M77.666 54.1284C77.2317 55.3819 76.723 56.6074 76.1426 57.7982C75.5484 58.8743 74.8629 59.8344 73.6822 60.3066C72.9969 60.4895 72.2748 60.4721 71.5989 60.2563C69.207 58.9788 68.6738 57.0395 70.0754 54.7594C71.0122 53.2515 71.3869 51.4525 71.1315 49.6881C70.8761 47.9238 70.0075 46.3107 68.6831 45.1409C67.3586 43.9712 65.6659 43.3221 63.9113 43.3113C62.1567 43.3004 60.4563 43.9285 59.1179 45.0818C57.7795 46.2332 56.8963 47.8382 56.6317 49.6C56.367 51.3619 56.7388 53.1616 57.6783 54.6665C58.3143 55.7039 58.7218 56.7453 58.3258 57.9375C57.903 59.2189 57.0537 60.0898 55.6902 60.2911C55.0318 60.4205 54.3504 60.3457 53.7344 60.0765C53.1184 59.8073 52.5962 59.3561 52.2357 58.7814C50.5867 56.3344 49.7308 53.4249 49.7875 50.4595C49.8441 47.494 50.8106 44.6206 52.5519 42.2404C55.9796 37.7191 60.55 35.7022 66.0801 36.6197C71.9492 37.5952 75.7883 41.203 77.506 47.0212C78.0484 49.0052 78.1627 51.085 77.8412 53.1181C77.6394 53.4355 77.8831 53.8226 77.666 54.1284Z" fill="white"/>
</svg>
