<svg width="128" height="128" viewBox="0 0 128 128" fill="none" xmlns="http://www.w3.org/2000/svg">
<rect width="128" height="128" fill="#006367"/>
<path d="M63.5 103C85.3152 103 103 85.3152 103 63.5C103 41.6848 85.3152 24 63.5 24C41.6848 24 24 41.6848 24 63.5C24 85.3152 41.6848 103 63.5 103Z" fill="white"/>
<path d="M83.2988 57.1116C83.3058 53.9102 82.5383 50.7546 81.0617 47.9141C79.5852 45.0735 77.4434 42.6323 74.8192 40.7986C72.1949 38.965 69.166 37.7934 65.9909 37.3837C62.8159 36.9741 59.5888 37.3386 56.5851 38.4461C53.5813 39.5536 50.8901 41.3713 48.7409 43.7441C46.5918 46.1168 45.0485 48.9743 44.2427 52.0726C43.4369 55.171 43.3926 58.4182 44.1135 61.5374C44.8344 64.6566 46.2991 67.5551 48.3827 69.9857L49.2605 70.8634L49.7969 71.3999L67.3525 89.1017C67.5777 89.3185 67.8507 89.4795 68.1494 89.5716C68.4481 89.6638 68.7643 89.6847 69.0726 89.6325C69.3808 89.5803 69.6725 89.4566 69.9243 89.2713C70.1761 89.0859 70.3809 88.8441 70.5222 88.5653L81.6895 65.1091V64.7677C82.7375 62.3506 83.2849 59.7461 83.2988 57.1116ZM63.7926 63.5974C62.2494 63.5974 60.7409 63.1398 59.4578 62.2824C58.1747 61.4251 57.1746 60.2065 56.5841 58.7808C55.9935 57.3551 55.839 55.7863 56.1401 54.2727C56.4411 52.7592 57.1842 51.3689 58.2754 50.2777C59.3666 49.1865 60.7569 48.4434 62.2704 48.1424C63.7839 47.8413 65.3528 47.9958 66.7785 48.5864C68.2042 49.1769 69.4228 50.177 70.2801 51.4601C71.1375 52.7432 71.5951 54.2517 71.5951 55.7949C71.5951 56.8237 71.3917 57.8423 70.9965 58.7921C70.6014 59.7419 70.0223 60.6042 69.2926 61.3294C68.5629 62.0546 67.697 62.6283 66.7447 63.0175C65.7924 63.4067 64.7726 63.6038 63.7438 63.5974H63.7926Z" fill="#006367"/>
</svg>
