<svg width="129" height="129" viewBox="0 0 129 129" fill="none" xmlns="http://www.w3.org/2000/svg">
<rect width="128" height="128" transform="translate(0.333496 0.833496)" fill="black"/>
<path d="M51.3508 65.7084C51.0229 65.3501 50.728 64.978 50.3807 64.6611C49.9342 64.2532 48.5644 64.1732 48.0159 64.4351C47.1422 64.8485 46.8142 65.5844 46.5193 66.4608C46.2327 67.3125 46.3953 68.1035 46.6434 68.8228C47.021 69.928 47.8009 70.7383 49.1735 70.606C49.7743 70.5482 50.3559 70.3304 50.7362 69.7599C51.1579 69.126 51.4914 69.0461 52.2852 69.5256C52.8474 69.8674 53.4841 70.0796 54.0794 70.3745C54.435 70.5509 54.7822 70.7521 55.1102 70.9754C55.3004 71.1049 55.2453 71.7884 55.0744 72.031C54.5728 72.7448 53.9609 73.3484 53.214 73.7839C52.7069 74.0788 52.1336 74.2607 51.5906 74.4922C51.4942 74.5335 51.3646 74.5446 51.3067 74.6162C51.0008 74.9883 50.5957 75.0186 50.1574 75.0131C49.055 74.9993 47.9553 75.0159 46.8528 74.9911C46.6323 74.9855 46.4119 74.8532 46.1941 74.7733C45.9295 74.6741 45.6622 74.5804 45.4031 74.4646C44.9814 74.2772 44.5432 74.1118 44.1546 73.8721C43.1128 73.2326 42.2942 72.3534 41.7071 71.2896C41.2496 70.4627 41.0346 69.5587 41.0677 68.5968C41.076 68.3984 40.9354 68.1779 40.8114 68.0043C40.7535 67.9243 40.5606 67.8857 40.4503 67.9133C40.3759 67.9326 40.307 68.0925 40.2905 68.1999C40.1802 68.8862 40.0838 69.5725 39.9818 70.2615C39.9735 70.3222 39.9763 70.3911 39.946 70.4407C39.2376 71.7168 38.4632 72.9432 37.1402 73.6736C36.5228 74.0126 35.9523 74.4839 35.1944 74.517C35.0759 74.5225 34.9574 74.6383 34.8471 74.7154C34.4392 74.9966 33.9789 75.0214 33.5021 75.0159C32.4162 75.0021 31.3303 75.0159 30.2444 74.9911C30.068 74.9883 29.8916 74.8725 29.7152 74.8036C29.423 74.6934 29.1309 74.5804 28.8387 74.4674C28.632 74.3875 28.4281 74.3075 28.2241 74.2221C27.152 73.7784 26.237 73.1003 25.5093 72.2211C25.1207 71.7526 24.8837 71.16 24.5915 70.6171C24.1864 69.8619 24.0431 69.0406 23.9907 68.1917C23.9769 67.9602 23.7757 67.7259 23.8033 67.5082C23.8942 66.7778 24.0679 66.0584 24.1699 65.3281C24.2636 64.6611 24.5144 64.0547 24.8506 63.4952C25.2971 62.7566 25.7574 62.0069 26.5346 61.5411C26.8736 61.3372 27.2512 61.1773 27.5379 60.9155C28.0477 60.4497 28.7092 60.4028 29.2963 60.1493C30.2444 59.7359 31.2586 59.8351 32.2398 59.7414C32.9978 59.6697 33.8246 59.7276 34.5439 59.9646C35.3019 60.2127 36.1039 60.3753 36.8012 60.8797C37.4517 61.3537 38.2179 61.7065 38.6892 62.368C39.3148 63.2472 40.081 64.0713 40.0479 65.2867C40.0342 65.7856 40.2133 66.2899 40.3125 66.7916C40.3677 67.0727 40.5881 67.1085 40.7508 66.9514C40.9079 66.7971 41.0291 66.56 41.0705 66.3396C41.189 65.7194 41.1835 65.0635 41.3681 64.4681C41.5418 63.9059 41.8697 63.3822 42.1812 62.8751C42.443 62.4506 42.76 62.0538 43.099 61.6844C43.3029 61.4612 43.5703 61.271 43.8459 61.147C44.3282 60.9293 44.6617 60.4387 45.2543 60.4084C45.4775 60.3973 45.6897 60.2209 45.9185 60.152C46.2575 60.0501 46.5993 59.9563 46.9465 59.8957C47.393 59.8158 47.8506 59.7138 48.297 59.7248C49.1487 59.7496 50.0169 59.7579 50.8382 59.9481C51.5548 60.1134 52.2218 60.5048 52.897 60.8273C53.7818 61.2517 54.3495 62.0455 55.0275 62.7125C55.3197 62.9991 55.2232 63.7736 54.8649 63.9445C54.0078 64.3579 53.1423 64.7465 52.2852 65.1599C52.004 65.295 51.745 65.4769 51.3564 65.7084H51.3508ZM34.7672 67.453C34.8995 66.6317 34.6928 65.8903 34.1939 65.2399C33.6454 64.5288 32.9785 63.9748 32.0138 64.063C31.6555 64.0961 31.3 64.289 30.9637 64.4488C30.3822 64.7217 30.0955 65.2729 29.8144 65.8021C29.6794 66.0557 29.5581 66.3506 29.5416 66.6317C29.503 67.2408 29.5361 67.8527 29.5416 68.4618C29.5416 68.583 29.5305 68.7401 29.5967 68.8173C30.0845 69.3878 30.2775 70.1926 31.1153 70.4903C31.6996 70.697 32.1682 70.9836 32.8544 70.6694C33.9762 70.154 34.7341 69.2225 34.7644 68.0015C34.7699 67.8196 34.7644 67.6349 34.7644 67.453H34.7672Z" fill="white"/>
<path d="M66.0576 61.3317C66.2064 60.91 66.2836 60.5875 66.4324 60.3009C66.5151 60.1438 66.7135 59.9426 66.8624 59.9398C68.2845 59.9123 69.7067 59.904 71.1289 59.9453C71.3135 59.9508 71.5312 60.2485 71.658 60.4552C71.7407 60.593 71.6966 60.8135 71.6966 60.9954C71.6966 65.2867 71.6966 69.5753 71.6966 73.8666C71.6966 74.0181 71.6966 74.1725 71.6691 74.3213C71.5946 74.7402 71.3108 74.9745 70.8863 74.9745C69.6488 74.9745 68.4085 74.969 67.171 74.9773C66.7356 74.9773 66.4903 74.7926 66.4076 74.3599C66.3745 74.1863 66.2643 74.0264 66.2119 73.8555C66.1182 73.5441 65.8895 73.5909 65.7048 73.6984C65.4595 73.839 65.2721 74.087 65.0185 74.1973C64.3543 74.4867 63.8389 75.0958 62.9983 75.0269C62.1769 74.958 61.3473 75.0103 60.5233 74.9828C60.3634 74.9773 60.2091 74.856 60.0547 74.7843C59.8149 74.6769 59.5614 74.5914 59.3409 74.4509C58.7593 74.0788 58.1502 73.7315 57.6348 73.2822C57.0092 72.7393 56.5296 72.0806 56.1961 71.2841C55.9894 70.7879 55.824 70.2974 55.6532 69.7902C55.1736 68.3681 55.2949 66.9239 55.4713 65.51C55.5595 64.8044 55.824 64.0713 56.1575 63.3712C56.6509 62.3376 57.362 61.5604 58.2136 60.8797C58.5774 60.5875 59.0487 60.4359 59.4621 60.1989C60.187 59.7855 61.0138 59.7855 61.7938 59.7359C62.8908 59.6697 63.9739 59.9205 64.9441 60.4828C65.3162 60.7005 65.6359 60.9982 66.0631 61.3234L66.0576 61.3317ZM66.1899 67.4558C66.2284 67.4475 66.2698 67.4365 66.3084 67.4282C66.1375 66.7668 66.0851 66.0419 65.7709 65.4576C65.2555 64.5012 63.8527 63.5944 62.6014 64.3028C61.9868 64.6528 61.4769 65.0993 61.2261 65.7139C60.9284 66.4388 60.7934 67.2491 60.9505 68.0373C61.0524 68.5582 61.2674 69.0599 61.4714 69.556C61.6946 70.0989 62.2045 70.3635 62.6978 70.584C63.0534 70.7439 63.5164 70.9202 63.8527 70.8238C64.5445 70.6253 65.2252 70.2918 65.6304 69.6331C66.0355 68.9717 66.2588 68.2496 66.1871 67.4558H66.1899Z" fill="white"/>
<path d="M15.4936 54.637C16.3893 54.637 17.2437 54.637 18.0981 54.637C18.8009 54.637 19.5037 54.6315 20.2093 54.637C20.9507 54.6453 20.9838 54.6784 20.9838 55.4115C20.9838 59.8075 20.9838 64.2035 20.9645 68.5996C20.9617 69.3052 21.1822 69.8426 21.8051 70.154C22.0366 70.2698 22.3729 70.3194 22.6126 70.245C23.3816 70.0107 23.6572 70.1651 23.7068 70.9699C23.7289 71.3364 23.7123 71.703 23.7509 72.0668C23.7978 72.4995 23.8722 72.9295 23.9576 73.3567C24.0486 73.8142 23.9824 74.1449 23.5938 74.506C23.1418 74.9277 22.676 75.0241 22.1165 75.0131C21.2759 74.9938 20.4353 75.0159 19.5947 74.98C19.4073 74.9718 19.2198 74.8064 19.0407 74.7044C18.9497 74.652 18.8836 74.5418 18.7899 74.5198C17.8941 74.3268 17.2795 73.7039 16.709 73.0728C16.3865 72.7172 16.2322 72.2101 16.0062 71.7691C15.9649 71.6892 15.9621 71.5734 15.8987 71.5211C15.4219 71.1242 15.477 70.5812 15.477 70.0548C15.4715 65.08 15.4688 60.1024 15.4688 55.1248C15.4688 54.9898 15.4825 54.8547 15.4936 54.637Z" fill="white"/>
<path d="M74.4335 63.0818C74.4335 60.1327 74.4335 57.7046 74.4335 55.2792C74.4335 54.6756 74.461 54.6453 75.0453 54.6425C76.4813 54.637 77.92 54.648 79.3559 54.6343C79.7776 54.6315 79.9374 54.7721 79.9347 55.2158C79.9209 59.6725 79.9402 64.1291 79.9071 68.5858C79.9016 69.3107 80.1524 69.8123 80.734 70.1347C80.971 70.267 81.3541 70.3084 81.6049 70.2147C82.3573 69.9363 82.6633 70.1155 82.7046 70.8954C82.7542 71.8353 82.8672 72.7696 82.9306 73.7095C82.9664 74.2276 82.2967 74.98 81.7703 74.9911C80.7009 75.0131 79.6315 74.9993 78.5594 74.9993C78.4988 74.9993 78.4271 75.0048 78.3802 74.9773C77.8566 74.6576 77.3687 74.2662 76.812 74.0264C76.1092 73.726 75.7344 73.1307 75.3595 72.5629C75.0343 72.0696 74.7973 71.477 74.676 70.8982C74.1055 68.1365 74.6098 65.3363 74.4252 63.0846L74.4335 63.0818Z" fill="white"/>
<path d="M98.5716 72.8332C95.4681 72.8332 92.362 72.8525 89.2586 72.8167C88.5751 72.8084 87.8199 72.745 87.2301 72.4474C86.5493 72.1028 85.9512 71.5268 85.4331 70.948C85.0389 70.5043 84.5649 70.0495 84.5676 69.344C84.5676 69.0739 84.4188 68.7872 84.2838 68.5364C83.9833 67.9852 84.0247 67.467 84.2672 66.8993C84.4519 66.4666 84.4905 65.9732 84.6255 65.5129C84.6806 65.3228 84.7936 65.1381 84.9177 64.981C85.2732 64.529 85.6012 64.0412 86.0229 63.6608C86.3729 63.3439 86.8249 63.1234 87.2604 62.9194C87.5966 62.7623 87.9715 62.6851 88.3353 62.5942C88.6798 62.5087 89.0326 62.3875 89.3799 62.3847C94.9004 62.3709 100.421 62.3737 105.941 62.3737C106.493 62.3737 107.047 62.4095 107.592 62.3654C108.268 62.3075 108.885 62.5005 109.486 62.7403C110.051 62.9663 110.61 63.2253 111.131 63.5423C111.415 63.7132 111.669 63.9971 111.834 64.2892C112.17 64.8818 112.338 65.5984 112.763 66.1083C113.322 66.7835 113.185 67.5001 113.179 68.2305C113.179 68.3903 113.11 68.5557 113.047 68.7073C112.846 69.1731 112.691 69.6719 112.41 70.0826C111.999 70.6807 111.716 71.4083 110.988 71.7445C110.869 71.7997 110.77 71.8989 110.671 71.9898C109.888 72.7009 108.885 72.7974 107.929 72.8139C104.809 72.8691 101.689 72.8332 98.5716 72.8332ZM104.861 66.563C105.219 67.0426 105.285 67.5552 105.211 68.1175C105.164 68.4785 105.172 68.8479 105.184 69.2144C105.195 69.6196 105.611 70.0413 105.947 70.0192C106.258 69.9999 106.633 69.5479 106.639 69.1703C106.647 68.6522 106.644 68.134 106.644 67.6131C106.644 67.1749 106.87 66.8882 107.231 66.6705C107.523 66.4941 107.714 66.4969 107.772 66.8827C107.818 67.1776 107.901 67.4698 107.915 67.7647C107.94 68.3159 107.901 68.8699 107.94 69.4211C107.967 69.796 108.243 70.0082 108.609 70.0357C108.915 70.0605 109.373 69.6471 109.354 69.2916C109.298 68.2884 109.555 67.2741 109.166 66.2736C108.813 65.3641 107.62 65.0499 106.892 65.5295C106.52 65.7748 106.165 65.7362 105.79 65.5184C105.352 65.2649 104.897 65.3172 104.434 65.4826C104.271 65.5405 104.07 65.4964 103.888 65.4909C103.535 65.4799 103.133 65.3476 102.844 65.4771C102.524 65.6204 102.488 66.0366 102.573 66.4087C102.634 66.6733 102.689 66.9461 102.678 67.2135C102.653 67.8639 102.579 68.5144 102.549 69.1676C102.535 69.5093 102.912 69.9696 103.238 70.0275C103.593 70.0909 103.869 69.8952 103.941 69.5865C104.051 69.1152 104.133 68.6136 104.1 68.134C104.053 67.4532 104.189 66.913 104.853 66.5603L104.861 66.563ZM102.325 67.7426C102.287 67.7206 102.248 67.7013 102.21 67.6793C102.309 67.0371 101.667 66.1248 100.961 65.6645C100.575 65.4137 100.043 65.1436 99.6354 65.2153C98.9106 65.3448 98.1774 65.6039 97.662 66.2461C97.3065 66.687 97.0364 68.2415 97.3864 68.6274C97.8467 69.1317 98.2436 69.6747 98.9988 69.9145C99.7677 70.1543 100.349 69.9393 100.978 69.6444C101.375 69.457 101.634 69.1565 101.796 68.7348C101.929 68.3876 102.146 68.0706 102.325 67.7426ZM92.4998 67.66C92.6266 68.0017 92.723 68.3628 92.8912 68.6852C93.3735 69.6113 94.181 70.0385 95.2008 70.0413C95.504 70.0413 95.8264 69.931 96.1021 69.796C96.3391 69.6802 96.6119 69.4928 96.7001 69.2695C96.7856 69.0573 96.7305 68.586 96.6037 68.5337C96.3418 68.4179 95.9505 68.4096 95.6859 68.5254C94.9996 68.8258 94.4181 68.7045 94.0543 68.0761C93.8999 67.8088 93.9964 67.2162 94.2334 66.9957C94.7598 66.4969 94.9941 66.4528 95.6252 66.7367C95.9863 66.8993 96.4521 66.789 96.634 66.4721C96.8628 66.0752 96.5926 65.8271 96.306 65.6562C95.7575 65.331 95.2173 65.1464 94.5118 65.3503C93.4176 65.6645 92.6073 66.5134 92.4998 67.6655V67.66ZM90.6945 67.6159C90.78 66.5961 89.7657 65.8409 88.8727 65.8244C87.999 65.8078 87.0592 66.8221 87.0785 67.6875C87.0978 68.5419 88.0983 69.4955 88.9747 69.4955C89.7905 69.4955 90.7111 68.4923 90.6945 67.6159Z" fill="#EA4731"/>
<path d="M99.7016 68.6936C99.0153 68.6963 98.6432 68.3187 98.6487 67.6242C98.6515 67.0785 99.1559 66.5135 99.6409 66.5107C100.06 66.508 100.826 67.2245 100.832 67.6242C100.84 68.1644 100.286 68.6908 99.7043 68.6936H99.7016Z" fill="#EA4731"/>
</svg>
