<svg width="128" height="128" viewBox="0 0 128 128" fill="none" xmlns="http://www.w3.org/2000/svg">
<rect width="128" height="128" fill="#00AEEF"/>
<path fill-rule="evenodd" clip-rule="evenodd" d="M61.8311 74.7234C63.4982 74.7234 64.7918 74.118 65.8991 72.8182C67.1295 71.3694 68.0215 69.3132 68.5493 66.7085L69.7901 60.5583C70.2816 58.0747 70.0581 56.1064 69.1216 54.7156C68.2378 53.4044 66.9422 52.7928 65.0484 52.7928H63.1629L58.7824 74.7234H61.8311ZM83.8475 69.5035L83.4149 71.6384C82.9907 73.7319 83.6364 74.1707 83.8486 74.3145C84.7675 74.9396 86.0124 75.2563 87.5492 75.2563C88.4329 75.2563 89.2463 75.0017 90.039 74.477C90.9497 73.8737 91.1712 73.2693 91.2581 72.8678C91.4547 71.8412 91.3636 71.0941 90.9797 70.6874C90.631 70.3159 89.6334 69.5263 86.892 68.3879C84.0131 67.3904 81.6909 66.2489 79.8706 64.9284L79.3614 67.4317C79.2217 68.1303 79.0551 68.8226 78.8647 69.5035H83.8475ZM86.4098 84.5162C82.3439 84.5162 78.8419 83.473 76.0023 81.4168C75.0337 80.7152 74.2576 79.8883 73.6791 78.9445C73.4504 79.1774 73.2165 79.4009 72.9785 79.6141C69.7487 82.5137 65.7428 83.9843 61.0715 83.9843H24L32.0853 43.5319H43.0113L36.7794 74.7234H47.8544L54.0883 43.5319H66.5696C71.0878 43.5319 74.8381 45.2725 77.715 48.7041C77.7378 48.732 77.7616 48.76 77.7843 48.7879C78.6453 47.6237 79.7185 46.6168 80.9975 45.7765C83.7968 43.9345 87.1777 43 91.046 43C95.2692 43 98.6542 44.189 101.106 46.534C103.695 49.0094 104.553 52.3488 103.656 56.4613L103.607 56.6797L102.937 58.0136H92.6117L93.0235 55.8932C93.3671 54.1278 92.7742 53.4354 92.5806 53.2078C92.0353 52.5713 91.1608 52.2609 89.9055 52.2609C89.0425 52.2609 88.2632 52.5144 87.5264 53.036C86.6427 53.661 86.4336 54.2509 86.3539 54.641C86.2153 55.3096 86.1408 56.1881 86.5671 56.5752C86.949 56.9229 88.1101 57.7073 91.5882 59.0588C95.5103 60.4621 98.3344 62.2027 100.18 64.3635C102.164 66.6898 102.79 69.784 102.04 73.5571C101.301 77.2339 99.452 80.029 96.5472 81.8711C93.779 83.6272 90.3671 84.5162 86.4098 84.5162Z" fill="white"/>
</svg>
