<svg width="128" height="128" viewBox="0 0 128 128" fill="none" xmlns="http://www.w3.org/2000/svg">
<rect width="128" height="128" fill="white"/>
<path fill-rule="evenodd" clip-rule="evenodd" d="M104.37 49.1434C104.498 50.1926 104.614 51.1432 104.729 52.1005C103.384 52.1935 102.149 52.2787 100.933 52.3639V55.4616C102.249 55.4029 103.515 55.3454 104.856 55.2845C104.787 56.627 104.72 57.8897 104.652 59.2366C105.521 59.2366 106.297 59.1967 107.069 59.2487C107.686 59.2897 107.847 59.0385 107.857 58.4707C107.876 57.4337 107.962 56.399 108.021 55.352C109.069 55.4882 110.021 55.6121 111.06 55.7482C110.996 54.9658 110.865 54.2188 110.893 53.4784C110.916 52.8498 110.579 52.7103 110.106 52.6329C109.373 52.5111 108.636 52.4038 107.872 52.2854C107.688 51.2882 107.511 50.3187 107.332 49.3482C106.336 49.2796 105.373 49.212 104.37 49.1434ZM112.99 55.4871C113.227 59.8851 109.177 64.2101 104.112 63.9921C100.118 63.8194 95.7434 60.2514 96.0118 54.9791C96.2103 51.1034 99.7434 46.7187 105.072 47.0142C109.176 47.241 113.171 50.9319 112.99 55.4871Z" fill="#E3041C"/>
<path fill-rule="evenodd" clip-rule="evenodd" d="M76.9892 69.9543C75.8314 69.9543 74.8153 69.879 73.8157 69.9737C72.5074 70.0974 71.2222 70.3546 70.2599 71.3899C69.2284 72.5005 69.1197 75.3481 71.053 75.8625C71.8252 76.0691 72.6744 76.166 73.4675 76.0939C75.1613 75.94 76.5147 75.0145 76.7541 73.2044C76.8838 72.2197 76.9024 71.222 76.9892 69.9543ZM77.4308 77.7878C75.0251 80.3835 70.2665 80.3943 67.7158 79.1244C65.1552 77.8502 64.4028 75.093 64.6642 72.8513C65.1179 68.9728 68.1387 67.181 71.2727 66.5708C73.0182 66.2318 74.7615 66.1543 76.5202 66.4244C76.6344 66.4406 76.7574 66.4007 76.875 66.3878C76.6729 63.8201 75.0526 63.2282 72.6348 63.071C71.8252 63.0172 70.9893 63.1087 70.1863 63.2475C69.3943 63.3842 68.6286 63.664 67.7938 63.8986C67.4566 62.7277 67.1116 61.5299 66.7162 60.16C67.7389 59.8683 68.7231 59.4917 69.7436 59.3173C72.0856 58.9181 74.4363 58.917 76.7432 59.5767C79.4927 60.3634 81.0547 62.2542 81.3645 64.9533C81.6666 67.5835 81.627 70.2502 81.7808 72.8987C81.8522 74.1288 81.9544 75.3675 82.1917 76.5739C82.3015 77.1281 82.7112 77.664 83.099 78.1139C83.4143 78.4819 83.2945 78.6681 83.0693 78.9791C82.084 80.334 79.0434 80.4115 77.9152 78.5895C77.7494 78.3237 77.5923 78.0536 77.4308 77.7878Z" fill="black"/>
<path fill-rule="evenodd" clip-rule="evenodd" d="M38.6361 69.0378C38.5405 68.39 38.5054 67.303 38.2033 66.2925C37.6771 64.5362 36.7741 63.1791 34.0631 63.0091C32.2616 62.895 30.6786 63.7183 29.8317 65.4875C28.6486 67.9584 28.7508 70.5133 29.5329 73.0692C30.0141 74.6393 31.073 75.6843 32.7361 75.9533C34.62 76.259 36.2908 75.8414 37.4354 74.182C38.423 72.7496 38.5504 71.1084 38.6361 69.0378ZM33.7335 79.9976C28.2971 80.1063 24.793 76.4731 24.1372 71.9736C23.6571 68.6816 23.8801 65.5176 25.9793 62.7443C27.7512 60.4058 30.1733 59.1983 33.1579 59.0853C35.2978 59.0046 37.364 59.264 39.2381 60.3606C41.7305 61.8188 42.9883 64.1025 43.4617 66.8069C43.8528 69.0464 43.8583 71.3279 43.1245 73.5061C41.9458 77.0069 39.5797 79.269 35.7295 79.7996C35.0682 79.8911 34.3992 79.9331 33.7335 79.9976Z" fill="black"/>
<path fill-rule="evenodd" clip-rule="evenodd" d="M63.1272 61.0674C62.4439 62.2394 61.7738 63.3898 61.1048 64.537C60.37 64.169 59.7098 63.7342 58.9826 63.4942C56.5692 62.7 54.2734 62.8431 52.3818 64.7081C51.1745 65.8994 50.8054 67.4782 50.6901 69.0946C50.5978 70.385 50.7582 71.657 51.258 72.8795C51.961 74.5993 53.3144 75.5452 55.1082 75.8067C57.8973 76.2146 59.2264 75.8412 61.4871 74.2345C62.0792 75.4613 62.6658 76.6763 63.2787 77.9483C61.9935 78.8642 60.5765 79.5336 59.0089 79.7488C56.7911 80.0555 54.5579 80.1491 52.3653 79.5088C48.6865 78.4315 46.596 75.9929 45.8677 72.3371C45.4075 70.0201 45.4811 67.7429 46.3335 65.5357C47.6319 62.1737 50.1376 60.1333 53.7142 59.3864C56.4143 58.8236 59.0748 58.8892 61.6123 60.1171C61.899 60.256 62.177 60.4152 62.4472 60.5831C62.6746 60.7252 62.8855 60.8941 63.1272 61.0674Z" fill="black"/>
<path fill-rule="evenodd" clip-rule="evenodd" d="M85.8038 53.1128C87.3318 52.7544 88.8763 52.3917 90.546 52V52.8932C90.546 59.4988 90.5405 66.1033 90.5548 72.7089C90.5559 73.4859 90.591 74.278 90.7503 75.0356C91.0117 76.2894 91.5983 77.3623 93 77.8186C92.3431 79.1552 91.2545 79.7859 89.877 79.9225C89.0213 80.0075 88.1381 80.0258 87.3527 79.5233C86.2542 78.8216 85.7807 77.7293 85.7753 76.5552C85.7302 68.8013 85.7544 61.0464 85.7588 53.2925C85.7588 53.2451 85.7807 53.1989 85.8038 53.1128Z" fill="black"/>
<path fill-rule="evenodd" clip-rule="evenodd" d="M19.8008 52.0019V52.9436C19.8008 59.5438 19.7887 66.1461 19.814 72.7452C19.8184 73.6621 19.9348 74.5909 20.1226 75.4895C20.3533 76.5947 21.0421 77.3986 22.1933 77.8442C21.5155 79.1087 20.4566 79.7974 19.0362 79.9266C18.4991 79.9761 17.9311 79.9664 17.4094 79.8502C15.7946 79.4864 15.0509 78.1864 15.0377 76.6346C14.9707 68.8366 15.0125 61.0375 15.0169 53.2384C15.0169 53.2158 15.0322 53.1932 15.0619 53.1114C16.5932 52.7531 18.1563 52.3872 19.8008 52.0019Z" fill="black"/>
<path fill-rule="evenodd" clip-rule="evenodd" d="M110.403 79.664C110.403 78.3017 110.411 76.9908 110.4 75.6788C110.39 74.3829 109.259 73.7205 108.08 74.2907C107.598 74.5233 107.403 74.8609 107.412 75.3915C107.44 76.7989 107.421 78.2073 107.421 79.6694H105.897C105.879 79.3757 105.847 79.0938 105.847 78.8119C105.843 76.4505 105.845 74.0892 105.845 71.7289C105.845 70.3023 105.845 70.3023 107.427 70V73.0956C108.179 72.9959 108.806 72.8426 109.432 72.8458C110.959 72.8533 111.911 73.743 111.973 75.2297C112.026 76.4934 111.984 77.7614 111.984 79.0262V79.664H110.403Z" fill="#ADACA7"/>
<path fill-rule="evenodd" clip-rule="evenodd" d="M104.113 78.12C104.3 78.5048 104.468 78.8511 104.636 79.1919C103.28 80.2338 100.714 80.1137 99.5893 78.9733C98.3989 77.7653 98.3891 75.2581 99.5696 73.9204C100.654 72.6942 103.054 72.4402 104.572 73.4563C104.387 73.7961 104.197 74.1455 104.009 74.4896C102.339 73.8744 101.362 73.9987 100.744 74.8808C100.148 75.7298 100.172 77.2465 100.795 77.9753C101.454 78.7514 102.651 78.8221 104.113 78.12Z" fill="#ADACA7"/>
<path fill-rule="evenodd" clip-rule="evenodd" d="M96.1705 79.9999C95.5599 80.0095 95.025 79.5089 95.0009 78.9055C94.9746 78.2763 95.5084 77.7286 96.1551 77.7254C96.7722 77.7211 97.3017 78.2152 97.328 78.8176C97.3543 79.4446 96.8205 79.9902 96.1705 79.9999Z" fill="#ADACA7"/>
</svg>
