<svg width="129" height="129" viewBox="0 0 129 129" fill="none" xmlns="http://www.w3.org/2000/svg">
<rect width="128" height="128" transform="translate(0.666504 0.138916)" fill="#F0F2F4"/>
<path d="M110.282 61.4483C110.282 61.5583 110.339 61.638 110.463 61.638C110.586 61.638 110.643 61.5583 110.643 61.4483V60.1032H111.062C111.15 60.1032 111.203 60.0548 111.203 59.9582C111.203 59.8613 111.15 59.8128 111.062 59.8128H109.863C109.775 59.8128 109.722 59.8613 109.722 59.9582C109.722 60.0548 109.775 60.1032 109.863 60.1032H110.282L110.282 61.4483ZM111.556 61.4704C111.556 61.5628 111.631 61.638 111.723 61.638C111.816 61.638 111.891 61.5628 111.891 61.4704V60.2002H111.899L112.376 61.4746C112.42 61.5937 112.473 61.638 112.566 61.638C112.658 61.638 112.712 61.5937 112.756 61.4746L113.232 60.2002H113.241V61.4704C113.241 61.5628 113.316 61.638 113.408 61.638C113.501 61.638 113.575 61.5628 113.575 61.4704V60.0818C113.575 59.8789 113.478 59.7865 113.298 59.7865C113.183 59.7865 113.059 59.8173 113.003 59.9582L112.57 61.1094L112.129 59.9582C112.072 59.8173 111.948 59.7865 111.834 59.7865C111.654 59.7865 111.556 59.8789 111.556 60.0818V61.4704Z" fill="#727474"/>
<path d="M95.6186 68.2766C96.057 63.8639 99.6447 60.824 104.049 60.824C108.509 60.824 111.995 64.1532 111.995 68.6651C111.995 73.5688 108.257 76.999 103.52 76.999C100.609 76.999 98.1125 75.5657 96.7299 73.3351C95.3522 74.2737 93.6585 74.803 91.8149 74.8128C91.7323 74.815 91.6488 74.8128 91.5628 74.8128C88.7266 74.8128 86.3931 73.3351 87.143 69.0201L88.2626 62.6643H86.5272C86.28 62.6643 86.1154 62.47 86.1567 62.2262L86.6497 59.3039C86.676 59.1503 86.8646 58.9906 87.0205 58.9906H88.8885L90.2072 51.5888C90.2335 51.4374 90.4229 51.2788 90.5769 51.2788H94.0628C94.3126 51.2788 94.4764 51.4746 94.4325 51.7199L93.1381 58.9906H96.4928C96.7431 58.9906 96.9073 59.1867 96.8622 59.4332L96.3343 62.3558C96.3069 62.5057 96.1175 62.6643 95.9642 62.6643H92.5115L91.334 69.2936C91.0473 70.8209 91.467 71.0354 91.9731 71.0659C92.2875 71.0553 92.5862 71.0151 92.868 70.946C93.1953 70.866 93.4977 70.7491 93.7754 70.5977C94.6395 70.127 95.2778 69.3214 95.6186 68.2766ZM107.652 68.629C107.652 66.1982 106.205 64.6029 103.943 64.6029C101.559 64.6029 99.9171 66.4931 99.9171 69.2632C99.9171 71.6538 101.395 73.2536 103.626 73.2536C106.044 73.254 107.652 71.3634 107.652 68.629Z" fill="#C74A1B"/>
<path d="M65.1618 66.6411C65.1618 64.2403 63.9254 62.7213 61.9101 62.7213C59.5818 62.7213 58.0253 64.5882 58.0253 67.521C58.0253 69.8771 59.2531 71.3006 61.2056 71.3006C63.4486 71.301 65.1618 69.4108 65.1618 66.6411ZM41.5298 69.1572C41.5298 64.3308 45.1557 60.824 49.9693 60.824C51.6694 60.824 53.0783 61.2444 54.2054 61.9398C54.4748 62.0988 54.7333 62.2735 54.9805 62.4628C56.3451 60.2138 58.623 58.9064 61.1714 58.9064C63.2277 58.9064 65.0416 59.8216 66.1131 61.5408L66.3983 59.5462C66.4212 59.3854 66.6079 59.2235 66.7702 59.2235H70.2561C70.5044 59.2235 70.669 59.4192 70.6261 59.6638L68.6897 70.7558C68.6409 71.0872 68.6796 71.2206 68.7074 71.2649C68.7983 71.3198 68.8689 71.3359 68.9884 71.3359H70.4698L72.212 61.451C72.2387 61.2993 72.428 61.1407 72.5821 61.1407H76.0679C76.3271 61.1407 76.4894 61.341 76.4357 61.5946L76.1994 62.7063C77.2983 61.5266 78.7253 60.8236 80.505 60.8236C84.0427 60.8236 86.1857 63.7429 85.417 68.0252L84.6074 72.6723C84.5581 73.0041 84.5972 73.1367 84.6254 73.1814C84.7163 73.2366 84.7866 73.2532 84.9064 73.2532H86.1034C86.3514 73.2532 86.5159 73.4478 86.4739 73.692L86.0163 76.3685C85.99 76.5214 85.8014 76.6807 85.6458 76.6807H83.9559C80.9964 76.6807 79.8411 75.5762 80.4163 72.4721L81.1557 68.0725C81.5532 65.7875 80.7206 64.7088 78.9556 64.7088C76.9185 64.7088 75.7083 65.7739 75.2763 68.2014L74.6443 71.777L74.1717 74.4528C74.1446 74.6046 73.9553 74.7631 73.8012 74.7631H70.3143H68.0375C65.6164 74.7631 64.7467 74.0177 64.522 72.8361C63.3753 74.2683 61.942 75.0806 59.974 75.0806C56.4383 75.0806 53.7997 72.2425 53.6535 67.9685C53.5641 67.2963 53.3507 66.7132 53.0366 66.2301C52.3671 65.2423 51.3234 64.6386 49.934 64.6386C47.505 64.6386 45.873 66.5043 45.873 69.1564C45.873 71.5798 47.2037 73.2182 49.4058 73.2182C50.756 73.2182 51.6003 72.752 52.1672 72.3173C52.3299 72.1925 52.5767 72.2271 52.6981 72.392L54.533 74.8755C54.648 75.0314 54.6134 75.2771 54.4602 75.3958C53.2605 76.3238 51.6202 76.9982 49.4058 76.9982C44.836 76.9986 41.5298 73.7701 41.5298 69.1572Z" fill="#F8963C"/>
<path d="M26.0867 68.0859C26.0867 63.1836 29.8588 59.717 34.5612 59.717C38.1398 59.717 41.091 61.86 42.1186 65.0374C41.4987 66.2441 41.1538 67.6384 41.1538 69.1574C41.1538 70.0467 41.2721 70.8871 41.4942 71.6671C40.0717 74.2719 37.2885 75.8916 34.0333 75.8916C33.0231 75.8916 32.0628 75.7191 31.1821 75.4005L31.0134 76.3593C30.9867 76.5119 30.7977 76.6704 30.6433 76.6704H16.1354C15.8866 76.6704 15.7217 76.4747 15.7653 76.2297L19.9912 52.2847C20.0179 52.1329 20.2065 51.9744 20.3606 51.9744H23.988C24.2371 51.9744 24.4013 52.1701 24.3581 52.4154L20.7738 72.7142H27.5712C26.6334 71.4353 26.0867 69.8453 26.0867 68.0859ZM38.165 67.5223C38.165 65.0915 36.7182 63.497 34.4564 63.497C32.0729 63.497 30.4299 65.3868 30.4299 68.1561C30.4299 70.5475 31.9083 72.1469 34.1393 72.1469C36.557 72.1469 38.165 70.2567 38.165 67.5223Z" fill="#25408F"/>
</svg>
