<svg width="128" height="128" viewBox="0 0 128 128" fill="none" xmlns="http://www.w3.org/2000/svg">
<rect width="128" height="128" fill="#F6F6F6"/>
<path d="M88.3844 58.4223C88.3844 58.8786 88.3971 59.3386 88.3844 59.7913C88.3607 60.4528 88.0203 60.7791 87.3542 60.7827H86.5806C85.9508 60.7827 85.7725 60.6178 85.7597 59.9709C85.7433 59.0893 85.7597 58.206 85.7597 57.3245C85.7597 57.0698 85.7324 56.8608 85.463 56.7179C85.0517 56.4998 84.684 56.6336 84.573 57.0844C84.4256 57.7002 84.5056 58.327 84.4893 58.9482C84.4802 59.2689 84.4893 59.5878 84.4893 59.9067C84.4601 60.4565 84.1398 60.7626 83.5792 60.7772C83.3226 60.7772 83.0641 60.7772 82.8075 60.7772C82.0703 60.7772 81.7336 60.4602 81.7882 59.7124C81.8974 58.2683 81.81 56.8242 81.8446 55.38C81.8592 54.7368 81.9447 54.6378 82.5945 54.5297C83.0576 54.4422 83.5341 54.4578 83.9906 54.5755C84.1642 54.6319 84.3496 54.6401 84.5275 54.5993C85.2119 54.4161 85.9108 54.4564 86.6061 54.4747C86.9682 54.4918 87.3138 54.6323 87.5863 54.873C87.8587 55.1137 88.042 55.4405 88.1059 55.7997C88.1296 55.9353 88.064 56.1864 88.2479 56.1754C88.4317 56.1644 88.3916 55.9079 88.3916 55.7539C88.3916 55.2151 88.4171 54.7056 89.0542 54.5022C89.2216 54.4491 89.2107 54.2603 89.2198 54.1082C89.2417 53.8058 89.2562 53.5016 89.289 53.1919C89.3564 52.5897 89.6415 52.0335 90.09 51.6293C90.5384 51.2251 91.1188 51.0011 91.7207 51C93.0767 51 93.1167 51.033 93.1094 52.4056C93.1094 53.1772 93.0821 53.2193 92.365 53.2908C91.8535 53.3421 91.91 53.7453 91.8535 54.0697C91.7971 54.3941 92.0356 54.4601 92.2958 54.5059C92.9748 54.6232 93.0239 54.6891 93.0931 55.3819C93.1116 55.6394 93.1018 55.8981 93.0639 56.1534C93.0203 56.5456 92.8455 56.7784 92.4378 56.7894C91.9427 56.8022 91.8117 57.0753 91.8317 57.5371C91.8626 58.2207 91.8426 58.9061 91.8408 59.5915C91.8408 60.4583 91.5223 60.7791 90.6796 60.7809H90.4466C89.3545 60.7809 89.2125 60.6398 89.2071 59.5127C89.2071 58.7668 89.1834 58.0191 89.2071 57.275C89.2234 56.8792 88.9795 56.7252 88.7011 56.6134C88.3953 56.4961 88.388 56.7747 88.3807 56.9598C88.3643 57.4455 88.3807 57.9329 88.3807 58.4259L88.3844 58.4223Z" fill="#C21932"/>
<path d="M67.3817 55.8364C67.3817 54.5425 67.3817 53.2487 67.3817 51.9566C67.3817 51.2602 67.6129 51.0293 68.3082 51.0073C68.6103 51.0073 68.9143 50.9963 69.2183 51.0073C69.8608 51.0348 70.0919 51.2566 70.101 51.909C70.1174 53.0342 70.101 54.1595 70.101 55.2866C70.101 55.4698 70.0155 55.7099 70.1811 55.7961C70.3467 55.8822 70.4687 55.6311 70.6143 55.5413C70.8782 55.38 71.0548 55.1051 71.2841 54.8926C71.5111 54.6727 71.8073 54.5398 72.1214 54.5169C72.7528 54.4373 73.3924 54.4515 74.0198 54.559C74.5531 54.6708 74.6332 54.9255 74.2892 55.3361C73.7031 56.0288 72.9495 56.5493 72.3544 57.2347C72.1869 57.418 72.1905 57.4821 72.3635 57.6507C73.0478 58.3105 73.7122 58.9885 74.3783 59.6666C74.4914 59.7717 74.5732 59.9064 74.6143 60.0556C74.6555 60.2049 74.6545 60.3628 74.6113 60.5115C74.524 60.8047 74.2473 60.7754 73.9979 60.7809C73.9222 60.7763 73.8462 60.7763 73.7704 60.7809C72.4035 60.999 71.2786 60.6269 70.4741 59.443C70.4177 59.3606 70.3467 59.2305 70.2339 59.2598C70.0901 59.3019 70.1283 59.4595 70.1192 59.575C70.1083 59.7418 70.1192 59.9104 70.0956 60.0771C70.041 60.517 69.7971 60.7626 69.3457 60.7717C69.0271 60.7717 68.7086 60.7717 68.3919 60.7717C67.6293 60.7717 67.3981 60.5353 67.3927 59.7528C67.3763 58.4534 67.3817 57.1449 67.3817 55.8364Z" fill="#C21932"/>
<path d="M55.1031 57.6892C55.1031 58.3746 55.1141 59.06 55.1031 59.7454C55.0904 60.4785 54.7846 60.7754 54.0729 60.779C53.5433 60.779 53.0118 60.8249 52.4912 60.6764C52.3895 60.6465 52.2808 60.651 52.1818 60.6892C51.603 60.9678 50.9878 60.8835 50.3908 60.8432C49.4298 60.7754 48.891 60.0918 48.3686 59.3642C47.8772 58.6807 47.8899 57.9366 47.9081 57.165C47.9318 56.2231 48.5106 55.6439 49.1094 55.0373C49.9449 54.1925 50.9678 54.5004 51.9361 54.526C52.372 54.5654 52.8106 54.5654 53.2466 54.526C53.3957 54.4996 53.5466 54.4849 53.698 54.482C54.8319 54.471 55.1013 54.7368 55.1031 55.8602C55.105 56.4723 55.1031 57.0807 55.1031 57.6892ZM51.4228 58.4992C52.0981 58.4992 52.3711 58.2646 52.3784 57.647C52.3784 57.0019 52.1563 56.7674 51.5175 56.7655C50.824 56.7655 50.6565 56.9195 50.6511 57.5646C50.6438 58.3105 50.793 58.4919 51.4228 58.4992Z" fill="#C21932"/>
<path d="M55.378 57.0477C55.378 56.4081 55.378 55.7649 55.378 55.129C55.3691 55.0579 55.3749 54.9857 55.3949 54.917C55.4149 54.8483 55.4488 54.7844 55.4944 54.7294C55.5399 54.6744 55.5963 54.6294 55.6599 54.5973C55.7234 54.5651 55.7929 54.5465 55.8639 54.5425C56.1781 54.4928 56.4962 54.4732 56.814 54.4839C57.5985 54.5077 57.8825 54.7753 57.9061 55.5688C57.928 56.1919 57.9061 56.8168 57.9152 57.4418C57.9186 57.6392 57.9337 57.8363 57.9607 58.0319C58.0099 58.3984 58.1864 58.6312 58.5941 58.5817C59.0019 58.5322 59.2621 58.3416 59.2694 57.9164C59.2858 57.0954 59.2694 56.267 59.2803 55.4497C59.2803 54.658 59.4205 54.5168 60.1904 54.4894C61.6647 54.4362 61.7412 54.4894 61.7211 55.983C61.7084 56.9854 61.783 57.9989 61.6593 58.994C61.6251 59.3687 61.4584 59.7186 61.1897 59.98C60.6818 60.4766 60.1358 60.8762 59.3823 60.867C58.8362 60.867 58.2902 60.8542 57.7441 60.867C56.703 60.8927 56.0532 60.2751 55.5035 59.4998C55.3598 59.2964 55.3743 59.0362 55.3743 58.7906V57.0477H55.378Z" fill="#C21932"/>
<path d="M81.1165 57.0294C81.0855 57.5001 81.0891 57.9723 81.1274 58.4424C81.3094 59.6813 79.9771 60.8945 78.8158 60.8615C78.2261 60.845 77.6346 60.8487 77.0448 60.8615C75.8654 60.8854 74.6149 59.707 74.7314 58.4369C74.8224 57.4418 74.7442 56.432 74.7496 55.4277C74.7496 54.6562 74.9116 54.5114 75.6906 54.4839C75.7962 54.4839 75.9036 54.4839 76.0092 54.4839C77.0539 54.4839 77.2014 54.636 77.2014 55.7081V57.724C77.2014 58.1052 77.3324 58.4186 77.7128 58.5542C78.2115 58.7375 78.6229 58.3709 78.6502 57.7094C78.672 57.1028 78.6502 56.4943 78.6502 55.8859C78.6502 55.7338 78.6502 55.5816 78.6502 55.4295C78.6975 54.6965 78.8905 54.5132 79.6385 54.493C81.071 54.4656 81.1074 54.5022 81.1056 55.9463V57.0459L81.1165 57.0294Z" fill="#C21932"/>
<path d="M64.7971 56.4596C65.4087 56.5237 65.8783 56.6428 66.3023 56.9874C66.7264 57.3319 67.0668 57.682 67.1378 58.3197C67.2707 59.5146 66.5917 60.1359 65.7417 60.7022C65.6477 60.7508 65.545 60.7801 65.4396 60.7883C64.5883 60.9418 63.7161 60.9337 62.8677 60.7645C62.0214 60.5702 61.428 59.8811 62.187 58.9153C62.6002 58.3875 63.0225 58.5048 63.5121 58.5763C63.6941 58.6038 63.9871 58.798 64.0436 58.5011C64.0727 58.3454 63.7287 58.3454 63.543 58.3289C63.2455 58.3101 62.962 58.195 62.7347 58.0008C62.5074 57.8067 62.3485 57.5438 62.2817 57.2513C62.2216 57.0479 61.9995 56.8023 62.0523 56.6813C62.2871 56.17 62.2616 55.5817 62.7058 55.1199C63.3064 54.5005 64.0345 54.4638 64.7898 54.4473C65.2436 54.4397 65.6975 54.4568 66.1495 54.4986C66.8211 54.5573 67.0104 54.8853 66.7556 55.5029C66.4207 56.3148 66.4207 56.3148 65.5415 56.3148C65.2842 56.2755 65.0213 56.3266 64.7971 56.4596Z" fill="#C21932"/>
<path d="M93.8429 58.5138C93.8429 58.1949 93.832 57.876 93.8429 57.5572C93.8593 57.1796 93.8429 56.8241 93.4789 56.5987C93.4111 56.5469 93.3585 56.4778 93.3264 56.3984C93.2944 56.3191 93.2842 56.2325 93.2969 56.1479C93.3224 55.5486 93.1058 54.898 93.7483 54.4416C93.9303 54.3115 93.832 54.0091 93.8375 53.7837C93.8539 53.1918 94.0686 52.9535 94.6529 52.9242C95.0436 52.883 95.4373 52.8793 95.8287 52.9132C96.3747 52.9902 96.5568 53.1276 96.5568 53.6976C96.5458 54.2034 96.615 54.5608 97.2229 54.5864C97.4687 54.5974 97.5651 54.8137 97.5706 55.0501C97.5706 55.3378 97.5815 55.6274 97.5706 55.9169C97.5706 56.6133 97.5378 56.661 96.8516 56.8424C96.564 56.9194 96.564 57.1137 96.564 57.3299C96.564 58.0758 96.564 58.8217 96.564 59.5658C96.5602 59.7783 96.5407 59.9902 96.5058 60.1999C96.5012 60.2843 96.4794 60.3669 96.4418 60.4425C96.4043 60.5182 96.3517 60.5853 96.2875 60.6397C96.2232 60.6942 96.1485 60.7347 96.068 60.759C95.9876 60.7833 95.903 60.7907 95.8196 60.7808C95.472 60.7808 95.1243 60.7808 94.7748 60.7808C94.6539 60.7896 94.5324 60.7727 94.4184 60.7312C94.3043 60.6896 94.2002 60.6244 94.1128 60.5397C94.0255 60.455 93.9568 60.3528 93.9112 60.2396C93.8656 60.1264 93.8442 60.0048 93.8484 59.8828C93.8357 59.6556 93.8484 59.4265 93.8484 59.1992L93.8429 58.5138Z" fill="#C21932"/>
<path d="M24.8124 69.8196C24.8124 68.0566 24.8251 66.2917 24.8124 64.5269C24.8124 64.0852 24.9616 63.9368 25.3912 63.9551C26.5852 64.0046 27.7792 63.9313 28.975 64.0302C31.738 64.263 33.5691 65.8831 34.0077 68.6119C34.3481 70.7359 33.9386 72.6749 32.3823 74.2528C31.5287 75.1196 30.4439 75.521 29.2553 75.6694C27.9139 75.8362 26.5652 75.7244 25.2183 75.7556C24.8542 75.7556 24.8178 75.532 24.8178 75.2443C24.8191 73.4385 24.8172 71.6303 24.8124 69.8196ZM26.4833 69.8526C26.4833 71.1629 26.4833 72.4733 26.4833 73.7818C26.4833 74.1483 26.5797 74.2949 26.9674 74.2968C27.6643 74.2975 28.3606 74.2596 29.0533 74.1832C29.812 74.1004 30.5253 73.7781 31.091 73.2622C31.6566 72.7463 32.0456 72.0635 32.2021 71.3114C32.3346 70.686 32.386 70.046 32.355 69.4073C32.2731 67.5324 31.3358 66.2349 29.6539 65.6906C28.7894 65.4121 27.8902 65.4524 26.9965 65.4359C26.5907 65.4359 26.476 65.5788 26.4814 65.971C26.4942 67.2649 26.4833 68.5587 26.4833 69.8526Z" fill="#656565"/>
<path d="M107.592 75.0262C106.822 75.6383 106.029 76.0067 105.059 75.9847C104.564 75.9891 104.077 75.8638 103.644 75.6212C103.212 75.3787 102.85 75.0271 102.594 74.6011C101.598 73.0561 101.473 69.8087 102.776 68.086C103.814 66.7206 105.412 66.2771 107.168 66.9387C107.643 67.122 107.645 67.122 107.647 66.5942C107.647 65.7127 107.656 64.8293 107.647 63.946C107.647 63.5795 107.778 63.4237 108.149 63.4255C109.445 63.4255 109.23 63.3559 109.241 64.483C109.241 68.0292 109.241 71.5753 109.241 75.1234C109.241 75.7501 109.23 75.7611 108.608 75.7648H108.426C107.556 75.741 107.738 75.8033 107.592 75.0262ZM107.652 71.0915C107.652 70.3914 107.639 69.6932 107.652 68.9931C107.667 68.8571 107.632 68.7204 107.553 68.6086C107.475 68.4969 107.359 68.4179 107.226 68.3865C106.802 68.2206 106.352 68.1313 105.898 68.1226C105.079 68.1135 104.365 68.3847 103.977 69.1727C103.249 70.6609 103.3 72.171 103.965 73.6591C104.147 74.0751 104.54 74.3042 105.004 74.3921C105.892 74.5644 106.633 74.2419 107.339 73.7544C107.442 73.6912 107.525 73.6008 107.58 73.4932C107.635 73.3855 107.659 73.2648 107.65 73.1441C107.643 72.4605 107.65 71.7751 107.652 71.0915Z" fill="#656565"/>
<path d="M72.571 69.6033C72.571 67.7462 72.571 65.8897 72.571 64.0338C72.571 63.484 72.622 63.4291 73.1662 63.4291C74.3893 63.4291 74.2055 63.3393 74.2164 64.47C74.2255 65.4138 74.2164 66.3558 74.2164 67.2996C74.2164 67.4041 74.1782 67.5379 74.2746 67.5983C74.4112 67.6863 74.4912 67.5342 74.5786 67.4682C75.1338 67.0126 75.806 66.7247 76.5171 66.638C78.2626 66.4768 79.5148 67.6313 79.5621 69.5355C79.6113 71.4671 79.5731 73.4005 79.5803 75.3322C79.5803 75.6492 79.4493 75.7665 79.1453 75.7647C77.7766 75.7647 78.0259 75.8636 78.0005 74.6779C77.9659 73.0377 78.0587 71.3938 77.9313 69.7517C77.833 68.4689 77.0576 67.9007 75.8254 68.2691C75.323 68.4411 74.8538 68.699 74.4385 69.0315C74.22 69.1928 74.2128 69.398 74.2146 69.6399C74.2146 71.4817 74.2018 73.3236 74.2146 75.1636C74.2146 75.6199 74.0853 75.7848 73.6212 75.772C72.4745 75.7427 72.5583 75.8636 72.5564 74.7164L72.571 69.6033Z" fill="#656565"/>
<path d="M91.5987 72.3028C91.5987 73.2613 91.5768 74.2198 91.6078 75.1782C91.6224 75.6511 91.4422 75.8123 90.9999 75.7683C90.8181 75.7554 90.6356 75.7554 90.4538 75.7683C90.1571 75.7812 89.9915 75.6712 90.0097 75.3468C90.0297 74.9803 89.8805 75.0151 89.6457 75.1911C88.9904 75.6861 88.2001 75.9669 87.3814 75.9956C85.7306 76.0927 84.249 74.5606 84.5966 72.5594C84.8223 71.2545 85.6887 70.6296 86.8518 70.2759C87.7 70.0156 88.5791 69.9845 89.4509 69.9093C89.9715 69.8654 90.088 69.7261 89.9715 69.2148C89.9185 68.9511 89.7846 68.7108 89.5886 68.528C89.3927 68.3451 89.1446 68.2289 88.8794 68.1958C87.8474 67.9906 86.8627 68.1958 85.8962 68.5349C85.3301 68.7328 85.2591 68.6961 85.2701 68.0895C85.2901 67.0009 85.0316 67.0926 86.3203 66.836C87.3411 66.6006 88.3996 66.5837 89.4273 66.7865C90.7632 67.0816 91.5295 67.9686 91.5896 69.3412C91.5896 69.387 91.5896 69.431 91.5896 69.4768C91.5944 70.4188 91.5975 71.3608 91.5987 72.3028ZM90.0115 72.3999C90.0115 71.1665 90.0115 71.161 88.8102 71.3132C88.0913 71.403 87.3632 71.4634 86.7498 71.9289C85.9981 72.5007 86.0218 73.8551 86.8336 74.2674C87.5707 74.6339 88.3279 74.5258 89.0614 74.1758C89.7949 73.8257 90.1899 73.3346 90.0133 72.4897C90.0091 72.46 90.0085 72.4298 90.0115 72.3999Z" fill="#656565"/>
<path d="M39.5555 71.5643C38.7073 71.5643 37.8591 71.5753 37.0073 71.5643C36.6287 71.5643 36.5413 71.7237 36.5887 72.0701C36.8271 73.8276 38.0848 74.7659 39.834 74.4965C40.6006 74.3851 41.3323 74.1007 41.9744 73.6645C42.2966 73.4446 42.4004 73.4941 42.3913 73.8918C42.3585 75.4403 42.7061 75.1563 41.1445 75.6768C39.712 76.1551 38.2741 76.1203 36.9163 75.3835C35.5585 74.6468 35.0543 73.3859 34.9323 71.9436C34.8268 70.6956 34.9979 69.4805 35.7004 68.3956C36.7688 66.7462 39.0568 66.114 40.7968 67.0211C41.9635 67.6296 42.4022 68.709 42.5496 69.9424C42.5951 70.3089 42.5605 70.7029 42.5805 71.0823C42.6006 71.4616 42.4459 71.5716 42.0982 71.5679C41.25 71.5551 40.4018 71.5679 39.55 71.5679L39.5555 71.5643ZM38.7401 70.2704C39.3607 70.2704 39.9796 70.2613 40.5984 70.2704C40.9315 70.2704 41.0152 70.122 40.977 69.8178C40.8205 68.6339 40.1143 68.0016 38.9366 67.9998C37.759 67.9979 36.8052 68.7878 36.6396 69.8562C36.585 70.2026 36.7124 70.2796 37.02 70.2723C37.5934 70.2613 38.1667 70.2723 38.7401 70.2704Z" fill="#656565"/>
<path d="M93.4844 71.3021C93.4844 70.0193 93.4953 68.7364 93.4844 67.4646C93.4844 67.0357 93.6245 66.8378 94.065 66.8836C94.2612 66.9001 94.4585 66.9001 94.6547 66.8836C94.9987 66.858 95.168 66.9844 95.1425 67.3509C95.1189 67.6863 95.2517 67.6698 95.4756 67.4939C96.1472 66.9661 96.8899 66.6179 97.7672 66.6234C98.3722 66.607 98.9636 66.8055 99.4378 67.1841C99.9121 67.5628 100.239 68.0974 100.361 68.6943C100.448 69.0333 100.496 69.3814 100.503 69.7316C100.503 71.5642 100.492 73.3859 100.503 75.213C100.503 75.6345 100.363 75.7757 99.9568 75.7628C98.7591 75.7427 98.932 75.8343 98.9248 74.742C98.9248 73.4592 98.9248 72.1763 98.9248 70.9045C98.9188 70.4027 98.8854 69.9016 98.8247 69.4035C98.7064 68.4175 97.8873 67.9484 96.8134 68.2434C96.2778 68.4133 95.7792 68.6845 95.3446 69.0425C95.1261 69.2093 95.1425 69.4328 95.1425 69.6619C95.1425 71.4946 95.1425 73.3217 95.1425 75.1434C95.1425 75.739 95.1261 75.7555 94.5273 75.7555C93.417 75.7555 93.4953 75.8453 93.4953 74.7219L93.4844 71.3021Z" fill="#656565"/>
<path d="M50.8366 71.3717C50.8366 72.6545 50.8257 73.9374 50.8366 75.2074C50.8366 75.6216 50.6928 75.8012 50.2797 75.7572C50.0833 75.7453 49.8863 75.7453 49.69 75.7572C49.3914 75.7682 49.2331 75.6509 49.2531 75.3302C49.2786 74.9252 49.1039 74.9783 48.8618 75.1579C48.192 75.6583 47.4803 76.001 46.603 75.9735C45.1269 75.9295 44.0548 75.0077 43.9165 73.5305C43.7181 71.4487 43.8582 69.3613 43.8236 67.2775C43.8236 66.9843 43.9602 66.8597 44.2423 66.8798C44.2574 66.8808 44.2726 66.8808 44.2878 66.8798C45.6511 66.8927 45.4563 66.7204 45.4654 68.0234C45.4654 69.3924 45.4654 70.7632 45.4654 72.1341C45.4654 72.3467 45.4654 72.5592 45.4763 72.7718C45.5728 74.3021 46.3864 74.6595 47.7333 74.3094C48.2229 74.1848 48.627 73.8714 49.0274 73.5654C49.2568 73.3821 49.2513 73.153 49.2513 72.9074C49.2513 71.0968 49.264 69.2843 49.2422 67.4718C49.2422 67.0136 49.3769 66.856 49.8374 66.8707C50.9149 66.9055 50.8239 66.7644 50.8275 67.8475C50.836 69.024 50.8391 70.1988 50.8366 71.3717Z" fill="#656565"/>
<path d="M60.5963 75.9589C59.6953 76.0029 58.8726 75.75 58.0627 75.4311C57.7587 75.312 57.5931 75.1342 57.6204 74.7842C57.6459 74.4818 57.6204 74.1757 57.6204 73.8678C57.6204 73.7506 57.5894 73.6039 57.7132 73.5343C57.8643 73.45 57.9626 73.5911 58.0772 73.6644C58.9109 74.2289 59.8082 74.5972 60.8366 74.5624C61.1246 74.5502 61.4089 74.4927 61.6793 74.392C61.886 74.3361 62.0677 74.2112 62.1947 74.0377C62.3217 73.8642 62.3864 73.6525 62.3782 73.4372C62.3782 72.8874 62.2181 72.6088 61.7339 72.3981C61.2926 72.2369 60.8383 72.1142 60.3761 72.0315C60.1122 71.9655 59.8428 71.9124 59.5825 71.8299C58.2957 71.4268 57.6568 70.6387 57.6404 69.4475C57.624 68.2563 58.3029 67.2941 59.5261 66.8818C60.8584 66.4419 62.1543 66.6545 63.423 67.1732C63.5177 67.2036 63.5999 67.2646 63.6568 67.3468C63.7137 67.4289 63.7422 67.5276 63.7379 67.6277C63.7379 67.963 63.7379 68.2966 63.7379 68.6319C63.7379 68.9673 63.5868 69.037 63.312 68.8464C62.7331 68.4528 62.077 68.1891 61.3881 68.073C60.9533 68.0031 60.508 68.0427 60.0921 68.1884C59.6407 68.3314 59.3295 68.6173 59.2985 69.1323C59.2676 69.6472 59.4569 69.9588 59.9684 70.2044C60.4252 70.4261 60.9276 70.4829 61.4099 70.6076C61.6738 70.6735 61.9432 70.723 62.2053 70.7908C63.1536 71.0584 63.8434 71.61 63.9927 72.6363C64.1547 73.7139 63.8471 74.6284 62.937 75.2827C62.2593 75.7768 61.4311 76.0161 60.5963 75.9589Z" fill="#656565"/>
<path d="M71.4043 74.4049C71.3788 75.3212 71.6063 75.2204 70.5452 75.6273C68.7633 76.3127 66.8376 75.9425 65.7146 74.6945C65.0447 73.9504 64.7881 73.0286 64.6916 72.0591C64.5588 70.7396 64.7299 69.4751 65.4707 68.3388C66.317 67.0413 67.6002 66.6344 69.0454 66.6619C69.7444 66.7029 70.4285 66.8822 71.0585 67.1897C71.1672 67.2234 71.2611 67.2936 71.3244 67.3887C71.3877 67.4839 71.4166 67.598 71.4061 67.712C71.3916 68.0456 71.4061 68.3828 71.4061 68.7163C71.3934 69.1177 71.3097 69.1617 70.9839 68.9289C70.6271 68.6705 70.2378 68.4609 69.8262 68.3058C68.2773 67.7285 66.9923 68.3553 66.5209 69.9552C66.2709 70.807 66.2576 71.7116 66.4827 72.5704C66.9249 74.2986 68.3028 74.9675 69.9518 74.2968C70.3315 74.1418 70.6871 73.9325 71.0075 73.6755C71.0967 73.604 71.1895 73.4922 71.3279 73.571C71.4316 73.6352 71.4043 73.7543 71.4061 73.8643C71.4061 74.0402 71.4025 74.2235 71.4043 74.4049Z" fill="#656565"/>
<path d="M54.5589 70.9539C54.5589 71.7163 54.5498 72.4769 54.5589 73.2374C54.5716 74.1043 54.9593 74.4726 55.833 74.4745C56.167 74.4727 56.4981 74.4106 56.8104 74.2912C57.0888 74.1886 57.2144 74.2912 57.209 74.5753C57.209 74.6046 57.209 74.6357 57.209 74.6651C57.2417 75.6969 57.2436 75.7024 56.2261 75.8618C55.1013 76.0451 54.0692 75.9039 53.3503 74.8832C52.9863 74.3645 52.9153 73.7542 52.9098 73.1403C52.8989 71.6742 52.8953 70.219 52.9098 68.7584C52.9098 68.3644 52.8334 68.1371 52.3874 68.1976C52.0416 68.2434 51.8742 68.0877 51.9051 67.7285C51.9152 67.6065 51.9152 67.4839 51.9051 67.3619C51.876 67.0156 52.0161 66.8341 52.3747 66.8799C52.8006 66.9331 52.9335 66.7425 52.9116 66.3302C52.8843 65.8133 52.9116 65.2947 52.9116 64.7779C52.9116 64.4773 53.0136 64.3417 53.3284 64.3234C54.5625 64.2501 54.5625 64.2428 54.5625 65.4798C54.5625 65.784 54.5771 66.0901 54.5625 66.3961C54.5425 66.7443 54.6717 66.8964 55.0321 66.8836C55.5927 66.8653 56.1533 66.8946 56.7139 66.8836C57.0779 66.8708 57.2599 66.9991 57.2217 67.3821C57.2108 67.4728 57.2108 67.5645 57.2217 67.6552C57.2636 68.0602 57.1107 68.2379 56.6757 68.216C56.1169 68.1866 55.5545 68.2306 54.9957 68.2013C54.6226 68.183 54.537 68.3204 54.5479 68.6741C54.5752 69.4328 54.557 70.1952 54.557 70.9558L54.5589 70.9539Z" fill="#656565"/>
<path d="M81.5498 69.596C81.5498 67.7248 81.5607 65.8519 81.5498 63.9789C81.5498 63.561 81.6845 63.4144 82.0958 63.4291C83.3153 63.4511 83.2006 63.3283 83.2024 64.5287C83.2024 68.0315 83.2024 71.5331 83.2024 75.0335C83.2024 75.7574 83.1915 75.7665 82.4598 75.7665C81.4333 75.7665 81.5498 75.7959 81.5498 74.8502C81.5473 73.0994 81.5473 71.348 81.5498 69.596Z" fill="#656565"/>
<path d="M26.8436 58.9226C26.6616 59.1737 26.7472 59.4394 26.7326 59.685C26.6907 60.462 26.5014 60.6765 25.7352 60.7608C25.599 60.7733 25.4623 60.7776 25.3256 60.7736C24.381 60.7736 24.1134 60.4914 24.0952 59.5494C24.0861 59.0912 24.199 58.6111 23.9278 58.1511C23.8823 58.2042 23.8368 58.2317 23.8349 58.2647C23.733 59.5476 22.7938 60.1322 21.8073 60.6673C21.6277 60.7516 21.43 60.7894 21.2321 60.7773H19.8252C18.5256 60.7773 17.6738 60.0167 17.1114 58.9739C16.811 58.4241 16.9093 57.7057 16.9475 57.0441C17.0203 55.7943 17.8704 55.1254 18.815 54.6727C19.5431 54.3208 20.4531 54.4253 21.2795 54.5187C22.3224 54.6342 23.0286 55.2518 23.6038 56.071C23.8113 56.3642 23.7203 56.7546 23.8932 57.1193C24.1243 56.9177 24.0989 56.6739 24.0989 56.4449C24.0989 55.0429 24.0989 53.6427 24.0989 52.2426C24.0989 51.2804 24.2809 51.0917 25.2383 51.0898C26.6507 51.0898 26.7308 51.1668 26.729 52.5761C26.729 53.5951 26.729 54.6153 26.729 55.6367C26.729 55.7686 26.6944 55.9391 26.8491 56.0032C27.0038 56.0673 27.042 55.8951 27.1239 55.8199C27.4643 55.4772 27.8083 55.1382 28.145 54.7918C28.2154 54.722 28.2991 54.6673 28.3911 54.631C28.4831 54.5948 28.5814 54.5778 28.6802 54.5811C29.2863 54.5811 29.8924 54.5646 30.5003 54.5811C31.1082 54.5975 31.2174 54.8633 30.8898 55.3288C30.4985 55.8896 29.947 56.3056 29.4337 56.7344C28.6583 57.3795 28.6128 57.3667 29.3208 58.0356C29.9033 58.5854 30.3765 59.2433 31.0354 59.718C31.2684 59.8848 31.2629 60.222 31.1901 60.4822C31.1264 60.7076 30.8843 60.7681 30.6659 60.7718C30.1199 60.7718 29.5738 60.7901 29.0278 60.7718C28.5746 60.7498 28.2597 60.4474 27.9648 60.1322L26.8436 58.9226ZM20.3548 58.5854C21.0046 58.5854 21.4469 58.2189 21.4633 57.6562C21.4797 57.0936 21.0556 56.7106 20.4295 56.7033C19.8416 56.6941 19.2828 57.1523 19.2882 57.6361C19.2937 58.1199 19.8252 58.5836 20.3548 58.5854Z" fill="#F89620"/>
<path d="M37.6498 57.6067C37.6498 58.3526 37.6498 59.0985 37.6498 59.8444C37.6498 60.4858 37.5133 60.6489 36.8744 60.7369C36.3939 60.8011 35.9025 60.8634 35.4711 60.5537C35.4094 60.5095 35.3356 60.4857 35.26 60.4857C35.1843 60.4857 35.1105 60.5095 35.0488 60.5537C34.3317 60.9202 33.5654 60.7974 32.8191 60.7369C32.386 60.6984 32.0419 60.3704 31.7507 60.0808C31.0645 59.3954 30.6404 58.5231 30.6714 57.5609C30.6801 56.972 30.8431 56.3958 31.1438 55.8906C31.4446 55.3854 31.8724 54.9691 32.3841 54.6837C32.8893 54.422 33.4724 54.3567 34.0223 54.5004C34.9323 54.7166 35.8206 54.5554 36.7179 54.5664C37.506 54.5755 37.628 54.7056 37.6371 55.5065C37.6516 56.2066 37.6498 56.9067 37.6498 57.6067ZM34.1915 58.5854C34.7885 58.5854 35.2654 58.1822 35.2709 57.669C35.2642 57.4138 35.159 57.1712 34.9775 56.9929C34.7959 56.8146 34.5525 56.7146 34.2989 56.7142C33.6127 56.7051 33.1886 57.0569 33.1959 57.6306C33.198 57.7605 33.2259 57.8887 33.2781 58.0076C33.3302 58.1265 33.4056 58.2336 33.4996 58.3226C33.5936 58.4117 33.7044 58.4808 33.8255 58.5259C33.9465 58.5711 34.0753 58.5913 34.2043 58.5854H34.1915Z" fill="#F89620"/>
<path d="M44.519 58.2244C44.6245 58.2244 44.7301 58.2244 44.8375 58.2244C45.6056 58.2354 46.3719 58.393 47.1454 58.2244C47.3747 58.1768 47.5404 58.1053 47.6132 57.8671C47.8644 57.068 47.3256 55.5048 46.6048 55.0796C46.31 54.9073 46.0861 54.6141 45.7093 54.5664C45.1391 54.4853 44.5629 54.4553 43.9875 54.4766C42.646 54.55 41.6996 55.3288 41.3738 56.619C41.3425 56.7362 41.2979 56.8493 41.2409 56.9562C41.1488 57.1406 41.0976 57.343 41.0907 57.5493C41.0837 57.7555 41.1213 57.9609 41.2008 58.1511C41.2973 58.4095 41.3719 58.6679 41.4466 58.9318C41.6242 59.5184 42.0183 60.0142 42.5477 60.3173C43.1365 60.7217 43.859 60.8782 44.5608 60.7535C45.8549 60.9624 46.7577 60.3668 47.4512 59.357C47.7097 58.9905 47.6205 58.6753 47.2 58.6001C46.4101 58.4608 45.6147 58.3307 44.9085 58.919C44.8521 58.9662 44.7869 59.0015 44.7167 59.0227C44.6465 59.044 44.5728 59.0508 44.4999 59.0428C44.427 59.0347 44.3565 59.012 44.2926 58.976C44.2286 58.9399 44.1725 58.8912 44.1276 58.8329C44.0002 58.6991 43.6726 58.6313 43.7763 58.426C43.911 58.164 44.2532 58.2391 44.519 58.2244ZM44.8429 55.732C45.6711 55.732 45.8968 56.5659 45.8968 56.5659H43.9383C43.9383 56.5659 44.013 55.732 44.8429 55.732Z" fill="#F89620"/>
<path d="M38.3723 55.8052C38.3723 54.4967 38.3723 53.1882 38.3723 51.8796C38.3723 51.2492 38.5288 51.0989 39.1513 51.0934C39.4844 51.0934 39.8175 51.0934 40.1506 51.0934C40.273 51.0859 40.3937 51.1254 40.4883 51.204C40.5829 51.2826 40.6443 51.3944 40.6602 51.5168C40.7141 51.7572 40.7386 52.0034 40.733 52.2498C40.733 54.6836 40.733 57.1174 40.733 59.5511C40.7361 59.6881 40.7318 59.8252 40.7203 59.9617C40.6529 60.5463 40.5037 60.6947 39.9285 60.7662C39.8384 60.7751 39.7479 60.7794 39.6573 60.779C38.5398 60.8029 38.3705 60.6361 38.3705 59.5072L38.3723 55.8052Z" fill="#F89620"/>
<path d="M14.0007 55.8455C14.0007 54.5626 14.0007 53.2614 14.0007 51.9694C14.0117 51.2363 14.1609 51.0952 14.8926 51.0916H15.4823C16.1794 51.0916 16.3524 51.2272 16.3542 51.9401C16.3542 53.824 16.4015 55.708 16.3323 57.592C16.3087 58.2133 16.3578 58.8364 16.3633 59.4595C16.3575 59.6717 16.3398 59.8834 16.3105 60.0936C16.3098 60.1812 16.2918 60.2679 16.2575 60.3485C16.2233 60.4291 16.1735 60.502 16.111 60.5631C16.0485 60.6241 15.9746 60.672 15.8935 60.7041C15.8125 60.7361 15.7259 60.7516 15.6389 60.7496C14.3648 60.8211 13.9807 60.9128 14.0007 59.3568C14.0244 58.1876 14.0007 57.0165 14.0007 55.8455Z" fill="#F89620"/>
<path d="M113.38 58.5835C113.186 58.5634 112.991 58.534 112.794 58.5175C112.319 58.4772 111.855 58.4955 111.44 58.7778C110.894 59.1443 110.605 59.1113 110.137 58.6257C109.964 58.4424 110.009 58.3233 110.222 58.2591C110.37 58.2266 110.521 58.2142 110.672 58.2225C111.562 58.2225 112.452 58.3104 113.342 58.2225C113.582 58.1987 113.828 58.1803 113.888 57.9073C113.994 57.3575 114.088 56.7728 113.857 56.289C113.353 55.2389 112.556 54.504 111.3 54.4765C110.801 54.4634 110.301 54.4861 109.806 54.5443C109.176 54.6231 108.744 55.0025 108.298 55.3929C107.816 55.818 107.72 56.3972 107.598 56.9909C107.448 56.6745 107.38 56.3254 107.399 55.9756C107.399 54.6213 107.399 53.267 107.399 51.9126C107.399 51.4252 107.201 51.1484 106.773 51.1136C106.321 51.0806 105.866 51.0806 105.414 51.1136C105.336 51.1103 105.26 51.1234 105.188 51.1522C105.116 51.1809 105.052 51.2246 104.998 51.2803C104.944 51.3361 104.903 51.4026 104.877 51.4756C104.851 51.5486 104.84 51.6263 104.846 51.7037C104.837 52.3983 104.786 53.0947 104.833 53.7856C104.882 54.5187 104.795 54.6195 104.094 54.5278C103.208 54.4124 102.337 54.3721 101.573 55.0245C100.975 55.5603 100.547 56.2614 100.343 57.0404C100.073 57.9457 100.525 58.7741 100.965 59.5163C101.693 60.7332 102.891 61.0026 104.161 60.7131C104.662 60.6168 105.177 60.6168 105.677 60.7131C107.104 60.8963 107.521 60.5976 107.407 59.3422C107.36 58.9556 107.424 58.5637 107.589 58.2115C107.62 58.266 107.646 58.3237 107.665 58.3838C107.758 59.0557 108.093 59.6697 108.607 60.109C109.12 60.5482 109.776 60.7822 110.45 60.7662C110.737 60.7662 111.027 60.7515 111.313 60.7662C112.421 60.834 113.165 60.2366 113.766 59.4009C114.059 59.0014 113.879 58.6367 113.38 58.5835ZM111.225 55.7319C112.055 55.7319 112.281 56.5658 112.281 56.5658H110.322C110.322 56.5658 110.397 55.7319 111.225 55.7319ZM103.916 58.5817C103.284 58.5817 102.934 58.2335 102.942 57.6415C102.954 56.9085 103.142 56.7545 103.987 56.7545C104.705 56.7545 104.849 56.9011 104.842 57.636C104.826 58.2958 104.545 58.5908 103.916 58.5817Z" fill="#F89620"/>
<path d="M98.7647 60.7808C97.8673 60.7808 97.2976 60.231 97.2994 59.3899C97.2994 58.4735 97.8783 57.9439 98.8502 57.9494C99.6383 57.9494 100.368 58.655 100.352 59.3953C100.335 60.1834 99.6492 60.7827 98.7647 60.7808Z" fill="#F89620"/>
</svg>
