<svg width="128" height="128" viewBox="0 0 128 128" fill="none" xmlns="http://www.w3.org/2000/svg">
<rect width="128" height="128" fill="white"/>
<path d="M32.3524 61.7163C32.7355 58.5746 35.4175 56.7355 39.0957 56.8121C42.1608 56.8887 44.8428 59.0343 44.9961 62.0228C45.1493 66.0075 45.1493 69.9922 44.9961 73.9769C44.8428 76.8887 42.6206 78.9577 39.7087 79.1876C38.0995 79.3409 36.4903 79.1876 35.111 78.3447C33.042 77.1186 32.2757 75.1263 32.1991 72.8274C32.0459 71.2182 32.1225 63.7853 32.3524 61.7163ZM40.9348 63.3255C40.9348 61.9462 40.0918 61.1033 38.8658 61.0267C37.3332 60.95 36.4137 61.7163 36.337 63.3255C36.337 66.4673 36.337 69.5324 36.337 72.6742C36.337 74.2068 37.2566 75.1263 38.6359 75.0497C39.9386 75.0497 40.8581 74.1301 40.9348 72.6742C41.0114 71.1416 41.0114 64.9347 40.9348 63.3255Z" fill="#7A943E"/>
<path d="M61.1646 74.2068C60.7815 77.1187 58.7892 78.8812 55.8006 79.1877C54.0382 79.3409 52.3524 79.1111 50.8198 78.1149C48.9041 76.7356 48.3677 74.7432 48.2911 72.5976C48.2144 69.1494 48.2911 65.7011 48.4443 62.1762C48.5976 59.1111 51.2029 56.8888 54.2681 56.8122C58.0995 56.7356 60.7049 58.498 61.088 61.8697C61.4711 63.862 61.4711 72.1379 61.1646 74.2068ZM52.5823 72.521C52.5823 74.1302 53.5018 75.0498 54.8811 75.0498C56.2604 75.0498 57.18 74.1302 57.18 72.521C57.18 69.5325 57.18 66.6206 57.18 63.6321C57.18 61.9463 56.337 61.0268 54.8045 61.1034C53.3485 61.1034 52.5823 62.0229 52.5056 63.6321C52.5823 65.0881 52.5823 70.9885 52.5823 72.521Z" fill="#7A943E"/>
<path d="M89.9004 65.931C89.9004 65.0114 89.977 64.0153 89.9004 63.0191C89.8238 62.0229 89.2874 61.3333 88.2146 61.1034C87.0651 60.8735 85.9923 61.2566 85.4559 62.3294C85.1494 62.9425 85.226 63.249 85.226 63.249C85.226 63.249 81.8544 63.249 80.9349 63.249C80.7816 60.0306 83.4636 56.9655 86.682 56.7356C91.4329 56.3524 94.2682 58.9578 94.2682 63.7088C94.2682 68.4597 94.2682 79.0344 94.2682 79.0344C92.8123 79.0344 91.2797 79.0344 89.8238 79.0344C89.9004 79.0344 89.8238 76.8888 89.8238 76.8888C89.4406 77.272 89.2107 77.5019 88.9808 77.8084C87.4483 79.3409 85.7625 79.6474 83.8467 79.111C82.0843 78.6513 81.0881 77.1953 80.9349 75.5095C80.7816 73.5938 80.8582 71.6781 81.1647 69.7624C81.5479 67.6168 83.1571 66.544 85.226 66.2375C86.7586 66.0076 88.2146 66.0076 89.9004 65.931ZM89.8238 69.4559C89.1341 69.4559 88.5977 69.3792 87.9847 69.4559C85.6858 69.6091 84.5364 71.3716 85.1494 73.5938C85.4559 74.8965 86.2989 75.5095 87.6015 75.4329C88.8276 75.3563 89.7471 74.59 89.8238 73.3639C89.977 72.1379 89.8238 70.9118 89.8238 69.4559Z" fill="#444444"/>
<path d="M73.7318 72.7509C75.1877 72.7509 76.567 72.7509 77.8697 72.7509C78.2528 75.3563 76.3371 78.2682 73.5019 79.0345C71.4329 79.5709 69.4406 79.4176 67.5249 78.2682C65.6858 77.1187 64.8429 75.2797 64.8429 73.2107C64.7663 69.5325 64.7663 65.7778 64.9961 62.0996C65.1494 59.1877 67.5249 57.0421 70.2835 56.8122C73.885 56.4291 76.567 57.9617 77.4866 61.0268C77.7164 61.8697 77.9463 62.636 78.023 63.7088C77.1034 63.7088 74.3448 63.7088 73.7318 63.7088C73.1954 61.7164 72.7356 61.18 71.3563 61.1034C69.977 61.1034 69.0574 61.9463 69.0574 63.5555C69.0574 66.6207 69.0574 69.6858 69.0574 72.6743C69.0574 74.0536 69.7471 74.7433 71.0498 74.9731C72.2758 75.1264 73.0421 74.59 73.5019 73.364C73.6552 73.1341 73.7318 72.9808 73.7318 72.7509Z" fill="#444444"/>
<path d="M24 48C25.5326 48 26.8352 48 28.2912 48C28.2912 48.4598 28.3678 65.0881 28.3678 72.9042C28.3678 74.3602 28.6743 74.7433 30.5134 75.2797C30.5134 76.5824 30.5134 77.8851 30.5134 79.1877C25.9923 79.5709 24.2299 77.5785 24.0766 74.2835C24 73.1341 24 48.4598 24 48Z" fill="#444444"/>
<path d="M97.4866 48C99.0192 48 100.322 48 101.778 48C101.778 48.4598 101.854 65.0881 101.854 72.9042C101.854 74.3602 102.161 74.7433 104 75.2797C104 76.5824 104 77.8851 104 79.1877C99.4789 79.5709 97.7165 77.5785 97.5632 74.2835C97.41 73.1341 97.4866 48.4598 97.4866 48Z" fill="#444444"/>
</svg>
