<svg width="128" height="128" viewBox="0 0 128 128" fill="none" xmlns="http://www.w3.org/2000/svg">
<rect width="128" height="128" fill="white"/>
<path fill-rule="evenodd" clip-rule="evenodd" d="M89.8962 67.3283C89.8962 55.4309 82.7875 45.2238 72.6574 40.8687C74.8717 39.1511 76.3067 36.448 76.3067 33.3964C76.3067 28.2065 72.1744 24 67.0761 24C61.9777 24 57.8454 28.2065 57.8454 33.3964C57.8454 35.3718 58.4475 37.2019 59.4693 38.7152C47.0744 39.6996 36.9325 48.8349 34.2137 60.8656C38.3665 50.2782 48.5267 42.7928 60.4096 42.7928C75.9869 42.7928 88.6147 55.6473 88.6147 71.5043C88.6147 73.7266 88.3581 75.8878 87.888 77.9659C89.1792 74.6761 89.8962 71.088 89.8962 67.3283Z" fill="#236EAC"/>
<path fill-rule="evenodd" clip-rule="evenodd" d="M70.2178 102.173C54.9593 102.173 42.5891 89.582 42.5891 74.0495C42.5891 60.8148 51.5708 49.7238 63.6651 46.7278C50.6166 48.0838 40.2074 58.4963 38.5856 71.6906C37.0743 70.5914 35.2292 69.938 33.2307 69.938C28.1323 69.938 24 74.1457 24 79.3344C24 84.5243 28.1323 88.7308 33.2307 88.7308C36.0138 88.7308 38.504 87.4711 40.1966 85.488C44.2377 96.3081 54.516 104 66.5642 104C71.8536 104 76.8027 102.514 81.0338 99.9344C77.7108 101.374 74.0561 102.173 70.2178 102.173Z" fill="#CA4A44"/>
<path fill-rule="evenodd" clip-rule="evenodd" d="M94.7683 79.3341C94.1951 79.3341 93.637 79.3953 93.0928 79.4958C95.4606 75.2959 96.8194 70.4305 96.8194 65.2406C96.8194 58.2785 94.3851 51.8956 90.3354 46.9253C93.1368 51.3853 94.7683 56.6823 94.7683 62.3693C94.7683 78.2251 82.1405 91.0796 66.5642 91.0796C57.8262 91.0796 50.0166 87.0348 44.8431 80.6835C49.8545 88.6584 58.6248 93.951 68.6154 93.951C74.977 93.951 80.846 91.8051 85.5644 88.1886C85.5547 88.3689 85.5376 88.5481 85.5376 88.7316C85.5376 93.9204 89.6699 98.1269 94.7683 98.1269C99.8666 98.1269 104 93.9204 104 88.7316C104 83.5417 99.8666 79.3341 94.7683 79.3341Z" fill="#45B4B0"/>
</svg>
