<svg width="128" height="128" viewBox="0 0 128 128" fill="none" xmlns="http://www.w3.org/2000/svg">
<rect width="128" height="128" fill="#2B4651"/>
<path d="M100.267 63.1963C98.8614 63.1963 97.7475 64.3367 97.7475 65.7158C97.7475 67.1214 98.8879 68.2353 100.267 68.2353C101.673 68.2353 102.786 67.0949 102.786 65.7158C102.786 64.3367 101.673 63.1963 100.267 63.1963ZM109.602 57.1762L109.231 58.1574L108.86 57.1762H108.435V58.5552H108.7V57.4679L109.125 58.5552H109.31L109.735 57.4679V58.5552H110V57.1762H109.602ZM90.8521 69.8795H89.7383C87.484 69.8795 85.6541 68.0496 85.6541 65.7954V61.6847H90.7726C91.1704 61.6847 91.4886 61.3664 91.4886 60.9686V57.8922C91.4886 57.4944 91.1704 57.1762 90.7726 57.1762H85.6541V53.6489C85.6541 53.2511 85.3358 52.9329 84.938 52.9329H81.8882C81.4903 52.9329 81.1721 53.2511 81.1721 53.6489V65.7688C81.1721 70.516 85.0176 74.3615 89.7648 74.3615H90.8786C91.2765 74.3615 91.5947 74.0433 91.5947 73.6455V70.6221C91.5947 70.1978 91.2765 69.8795 90.8521 69.8795ZM106.181 71.6564C105.863 71.9747 105.359 71.9747 105.041 71.6564L102.548 69.1635C100.93 70.2508 98.7553 70.0652 97.3232 68.6596C95.7054 67.0418 95.7054 64.4428 97.3232 62.825C98.9409 61.2073 101.54 61.2073 103.158 62.825C104.563 64.2306 104.749 66.4319 103.662 68.0496L106.155 70.5425C106.499 70.8343 106.499 71.3382 106.181 71.6564ZM106.393 59.6161C103.025 56.2479 97.5353 56.2479 94.1672 59.6161C90.7991 62.9842 90.7991 68.4739 94.1672 71.8421C95.838 73.5129 98.0127 74.335 100.187 74.3615H108.197C108.594 74.3615 108.913 74.0433 108.913 73.6455V65.6362C108.886 63.4615 108.037 61.2603 106.393 59.6161ZM71.6247 57.0701C66.7714 56.9905 62.8198 61.1012 62.8198 65.9545V73.6455C62.8198 74.0433 63.1381 74.3615 63.5359 74.3615H66.6123C67.0101 74.3615 67.3283 74.0433 67.3283 73.6455V65.7158C67.3283 63.3555 69.3439 61.446 71.7308 61.6051C73.932 61.7642 75.5763 63.6737 75.5763 65.8749V73.672C75.5763 74.0698 75.8945 74.388 76.2923 74.388H79.3687C79.7665 74.388 80.0848 74.0698 80.0848 73.672V65.7158C80.1113 60.9951 76.3188 57.1496 71.6247 57.0701ZM35.2384 57.0701C33.435 57.1762 31.8172 57.9983 30.5973 59.1917C29.1387 57.7596 27.1231 56.911 24.8954 57.0701C20.9703 57.3353 18 60.783 18 64.708V73.6455C18 74.0433 18.3182 74.388 18.7426 74.388H21.7659C22.1637 74.388 22.5085 74.0698 22.5085 73.6455V64.655C22.5085 63.0637 23.7019 61.6581 25.2666 61.5786C26.964 61.499 28.343 62.825 28.343 64.4958V73.6455C28.343 74.0433 28.6613 74.388 29.0856 74.388H32.109C32.5068 74.388 32.8515 74.0698 32.8515 73.6455V64.655C32.8515 63.0637 34.045 61.6581 35.6097 61.5786C37.307 61.499 38.6861 62.825 38.6861 64.4958V73.6455C38.6861 74.0433 39.0043 74.388 39.4287 74.388H42.452C42.8498 74.388 43.1946 74.0698 43.1946 73.6455V64.4693C43.1415 60.1995 39.5613 56.8049 35.2384 57.0701ZM107.481 58.5552H107.746V57.3883H108.17V57.1762H107.056V57.3883H107.481V58.5552ZM55.7388 68.6596C54.1211 70.2773 51.5221 70.2773 49.9043 68.6596C48.2865 67.0418 48.2865 64.4428 49.9043 62.825C51.5221 61.2073 54.1211 61.2073 55.7388 62.825C57.3566 64.4163 57.3566 67.0418 55.7388 68.6596ZM58.9213 59.6161C55.5532 56.2479 50.0634 56.2479 46.6953 59.6161C43.3272 62.9842 43.3272 68.4739 46.6953 71.8421C48.3661 73.5129 50.5408 74.335 52.7155 74.3615H60.7247C61.1225 74.3615 61.4408 74.0433 61.4408 73.6455V65.6362C61.4408 63.4615 60.5921 61.2869 58.9213 59.6161Z" fill="#FF6B61"/>
</svg>
