<svg width="128" height="128" viewBox="0 0 128 128" fill="none" xmlns="http://www.w3.org/2000/svg">
<rect width="128" height="128" fill="black"/>
<path d="M64.5934 55.1621L68.6156 46.8867L72.6377 55.1621L80.9134 59.1844L72.6377 63.2065L68.6156 71.482L64.5934 63.2065L56.3179 59.1844L64.5934 55.1621Z" fill="white"/>
<path fill-rule="evenodd" clip-rule="evenodd" d="M22.7998 63.8999C22.7998 41.2001 41.2 22.7998 63.8999 22.7998C86.5998 22.7998 105 41.2001 105 63.8999C105 86.5998 86.5998 105 63.8999 105C41.2 105 22.7998 86.5998 22.7998 63.8999ZM44.2514 83.5485C44.2514 83.5485 69.3554 88.033 83.4098 73.9785C91.223 66.1653 90.9455 53.1741 82.7626 45.0374C74.5795 36.9005 61.6346 36.5769 53.8214 44.3901C39.7207 58.4908 44.2514 83.5485 44.2514 83.5485Z" fill="white"/>
</svg>
