<svg width="128" height="128" viewBox="0 0 128 128" fill="none" xmlns="http://www.w3.org/2000/svg">
<rect width="128" height="128" fill="white"/>
<path d="M31.5502 62.7465C31.5502 61.3467 31.5502 59.9506 31.5502 58.5508C31.5502 57.4744 31.8495 57.2466 32.9042 57.1621C34.4714 57.0408 35.5224 57.5736 36.0797 59.0725C36.4158 59.8907 36.8212 60.6797 37.2916 61.4312C37.7741 62.2615 38.3276 62.2358 38.7877 61.4055C39.3637 60.3364 39.9098 59.2489 40.5232 58.2018C41.0693 57.2796 43.2237 56.7322 44.1101 57.3017C44.2632 57.4202 44.3891 57.5692 44.4793 57.7389C44.5696 57.9086 44.6222 58.0952 44.6338 58.2863C44.6712 61.2953 44.6562 64.3042 44.6338 67.3168C44.6496 67.4622 44.6322 67.6091 44.5828 67.747C44.5333 67.8849 44.4532 68.0102 44.3481 68.1137C44.2431 68.2172 44.1158 68.2964 43.9756 68.3454C43.8354 68.3944 43.6859 68.412 43.5379 68.397C43.1344 68.4245 42.7295 68.4245 42.326 68.397C42.2008 68.3978 42.0768 68.3732 41.9617 68.3247C41.8466 68.2762 41.743 68.2048 41.6573 68.1151C41.5716 68.0255 41.5057 67.9193 41.4637 67.8035C41.4218 67.6876 41.4046 67.5644 41.4134 67.4417C41.4393 67.2301 41.433 67.0159 41.3947 66.8062C41.2666 66.521 41.1166 66.2459 40.9458 65.9832C40.702 66.1427 40.4763 66.3274 40.2726 66.5343C39.9846 66.9017 39.7901 67.3132 39.4946 67.6548C38.7054 68.5586 37.6806 68.6101 36.8315 67.7614C36.4575 67.394 36.2518 66.909 35.9226 66.5122C35.7159 66.3139 35.4861 66.14 35.2382 65.9942C35.0575 66.2125 34.9192 66.4615 34.8305 66.729C34.6584 68.2904 34.0562 68.7313 32.4554 68.4043C32.3164 68.3867 32.1824 68.3422 32.061 68.2735C31.9396 68.2047 31.8333 68.1131 31.7481 68.0038C31.6629 67.8945 31.6006 67.7698 31.5647 67.6368C31.5288 67.5037 31.5201 67.365 31.539 67.2287C31.5615 65.726 31.5502 64.2381 31.5502 62.7465Z" fill="black"/>
<path d="M72.7831 56.6293C77.6941 56.611 79.5493 60.9278 78.2851 64.7524C77.9896 65.6378 77.8624 66.2624 78.6591 66.9861C79.4558 67.7099 79.1267 68.7349 78.1018 69.0729C77.6941 69.2089 77.0845 69.286 76.7703 69.0729C75.4574 68.2353 74.0436 68.3381 72.5774 68.3051C69.185 68.2683 67.0306 66.0089 66.9258 62.5627C66.8211 59.1166 69.271 56.6404 72.7831 56.6293ZM72.9365 64.4511C73.4819 64.424 73.9974 64.1976 74.3815 63.8162C74.7656 63.4348 74.9906 62.9261 75.0123 62.3901C74.9938 61.8524 74.7686 61.3416 74.382 60.9606C73.9955 60.5795 73.4763 60.3565 72.929 60.3363C72.3687 60.354 71.8365 60.5815 71.4414 60.9722C71.0464 61.363 70.8186 61.8873 70.8045 62.4378C70.8407 62.974 71.0793 63.4776 71.4736 63.85C71.868 64.2224 72.3896 64.4367 72.9365 64.4511Z" fill="black"/>
<path d="M56.6625 65.5533C56.6625 63.9736 56.6625 62.3901 56.6625 60.8066C56.6625 59.5318 57.4106 59.0982 58.4878 59.7926C58.7234 59.9633 59.0062 60.0596 59.2988 60.0688C59.5914 60.078 59.8799 59.9996 60.126 59.8441C60.8293 59.4373 61.6454 59.2588 62.4579 59.334C63.2705 59.4092 64.0382 59.7342 64.6518 60.2629C65.3667 60.8098 65.9029 61.5505 66.194 62.3934C66.4852 63.2363 66.5186 64.1446 66.29 65.0059C66.1517 65.8092 65.7695 66.5526 65.1935 67.1387C64.6175 67.7249 63.8745 68.1263 63.0622 68.2904C62.3029 68.4434 61.5294 68.5172 60.7544 68.5109C60.0774 68.5109 59.7258 68.7754 59.6323 69.4514C59.5787 69.9966 59.453 70.5326 59.2583 71.0459C59.155 71.3709 58.9312 71.646 58.6313 71.8167C58.3314 71.9875 57.9772 72.0415 57.6388 71.968C56.8421 71.8321 56.6139 71.303 56.6214 70.5756C56.6738 68.8819 56.6625 67.2103 56.6625 65.5533ZM60.156 63.8891C60.1486 64.1023 60.1841 64.3149 60.2603 64.5147C60.3366 64.7145 60.4522 64.8975 60.6005 65.0534C60.9 65.3683 61.3146 65.5534 61.7531 65.568C62.1915 65.5827 62.6179 65.4256 62.9385 65.1314C63.2591 64.8372 63.4475 64.4299 63.4624 63.9993C63.4773 63.5686 63.3174 63.1497 63.0178 62.8349C62.7183 62.52 62.3037 62.3349 61.8653 62.3203C61.4268 62.3057 61.0004 62.4627 60.6798 62.7569C60.3593 63.0511 60.1708 63.4584 60.156 63.8891Z" fill="black"/>
<path d="M52.9072 67.8789C51.7851 68.1251 50.6631 68.6394 49.5634 68.5623C46.747 68.3639 44.9965 65.3917 45.8568 62.5701C46.7171 59.7485 49.3203 58.6096 52.032 59.8551C52.2679 59.9917 52.5396 60.0569 52.813 60.0425C53.0865 60.0281 53.3496 59.9348 53.5693 59.7742C53.7977 59.6569 54.0474 59.5851 54.3042 59.563C54.561 59.5409 54.8197 59.569 55.0654 59.6456C55.2861 59.7118 55.4394 60.3547 55.4394 60.7478C55.4731 62.8163 55.4805 64.8883 55.4394 66.9568C55.4394 67.4123 55.2524 68.1728 54.9831 68.2537C54.3323 68.4557 53.487 68.6468 53.0456 67.7503C53.0232 67.7063 52.9484 67.6842 52.8998 67.6548L52.9072 67.8789ZM50.1955 62.3276C49.7746 62.3462 49.3765 62.5212 49.0821 62.8173C48.7876 63.1133 48.6187 63.5083 48.6096 63.9221C48.6141 64.351 48.7863 64.7619 49.0905 65.0696C49.3947 65.3774 49.8078 65.5584 50.2441 65.5754C50.6796 65.5545 51.0911 65.3737 51.3973 65.0689C51.7035 64.764 51.8819 64.3574 51.8974 63.9295C51.8711 63.5011 51.6812 63.0982 51.3657 62.8012C51.0503 62.5043 50.6324 62.3352 50.1955 62.3276Z" fill="black"/>
<path d="M94.7948 68.3529C93.078 68.4521 91.4285 68.2868 90.1232 67.0229C88.5336 65.4982 88.3952 62.3938 89.8389 60.6376C91.2041 58.9697 94.1739 58.4884 96.0253 59.6824C96.5176 60.0101 96.9458 60.422 97.2896 60.8985C98.0376 61.9198 98.3855 63.1028 96.7098 63.9956C96.2423 64.3102 95.8098 64.6722 95.4194 65.0757C95.8832 65.3072 96.3358 65.5607 96.8108 65.7628C97.5215 66.064 97.9329 66.56 97.7982 67.3205C97.7829 67.4817 97.7334 67.6381 97.6531 67.7795C97.5727 67.9209 97.4632 68.0443 97.3316 68.1418C97.1999 68.2393 97.049 68.3087 96.8885 68.3457C96.728 68.3827 96.5614 68.3864 96.3994 68.3566C95.8533 68.3235 95.3222 68.3529 94.7948 68.3529ZM92.1579 62.8163C92.1354 63.4996 92.4571 63.709 93.0518 63.4004C93.3913 63.2509 93.7136 63.0662 94.0131 62.8493C94.2232 62.6266 94.4052 62.3799 94.5554 62.1145C94.2964 61.8814 93.9959 61.6971 93.669 61.5708C93.4856 61.55 93.2997 61.5662 93.1229 61.6183C92.9461 61.6704 92.7819 61.7574 92.6405 61.874C92.499 61.9906 92.3833 62.1343 92.3003 62.2963C92.2173 62.4583 92.1689 62.6352 92.1579 62.8163Z" fill="black"/>
<path d="M79.8187 62.8015C79.8187 62.0668 79.7925 61.332 79.8187 60.5972C79.8636 59.5317 80.4134 58.966 81.3148 58.9953C82.1376 59.0247 82.6875 59.6383 82.7398 60.6045C82.7885 61.4826 82.8446 62.3643 82.8633 63.2424C82.882 63.9111 83.1363 64.4254 83.8507 64.4364C84.5651 64.4475 84.8045 63.9625 84.8344 63.3343C84.8718 62.4525 84.9204 61.5744 84.9541 60.6927C84.9915 59.7044 85.4964 59.0615 86.2894 58.999C87.1721 58.9292 87.8191 59.4509 87.8678 60.509C87.9669 62.178 87.9669 63.8513 87.8678 65.5202C87.7369 67.3793 86.2482 68.4006 83.9292 68.43C81.0343 68.4925 79.7102 67.2103 79.7102 64.3556C79.7102 63.8376 79.7102 63.3196 79.7102 62.8015H79.8187Z" fill="black"/>
<path d="M102.717 58.988C103.537 59.1565 104.347 59.3674 105.144 59.6199C105.739 59.8403 106.438 60.2004 106.132 61.0123C105.844 61.7471 105.137 61.703 104.463 61.5524C104.177 61.4415 103.87 61.3914 103.562 61.4054C103.25 61.5299 102.961 61.7036 102.705 61.9198C102.896 62.1549 103.042 62.4635 103.289 62.6068C103.816 62.9154 104.445 63.066 104.942 63.4114C105.373 63.69 105.704 64.0945 105.889 64.5677C106.073 65.041 106.102 65.5592 105.971 66.0493C105.724 67.2139 104.916 67.8862 103.816 68.2206C103.073 68.4509 102.288 68.5232 101.515 68.4326C100.741 68.342 99.9953 68.0906 99.328 67.6952C99.0064 67.5152 98.6697 66.8539 98.7782 66.593C98.8867 66.3322 99.4926 66.0125 99.9003 65.9464C100.308 65.8803 100.813 66.1705 101.262 66.1411C101.561 66.1411 101.838 65.8141 102.126 65.6341C101.968 65.3776 101.781 65.1397 101.568 64.925C101.351 64.8081 101.118 64.7203 100.876 64.6642C99.3579 64.0323 98.6735 63.0648 98.8231 61.7618C98.9764 60.4465 100.054 59.4325 101.572 59.19C101.946 59.1313 102.32 59.1239 102.694 59.0945L102.717 58.988Z" fill="black"/>
<path d="M106.891 62.4745C106.891 60.9829 106.91 59.495 106.891 58.007C106.891 57.1473 107.265 56.7689 108.125 56.8387C108.404 56.8571 108.684 56.8571 108.963 56.8387C109.778 56.802 110.205 57.1547 110.13 57.974C110.055 58.7933 110.324 59.2598 111.222 59.3076C112.015 59.3554 112.011 59.9505 111.996 60.5163C111.981 61.0821 111.966 61.6589 111.151 61.6516C110.336 61.6442 110.126 62.0667 110.134 62.7538C110.134 64.2454 110.134 65.7333 110.134 67.2213C110.134 68.0258 109.831 68.3675 108.978 68.3638C106.891 68.3638 106.891 68.3896 106.891 66.3028V62.4745Z" fill="black"/>
<path d="M22.0276 70.1751C21.7028 70.2008 21.3761 70.1599 21.0683 70.0549C20.7605 69.9499 20.4784 69.7831 20.2397 69.5652C18.6597 68.1454 17.1613 66.6405 15.7514 65.0573C15.2963 64.5648 15.0313 63.9312 15.0026 63.2667C14.9739 62.6021 15.1833 61.9487 15.5943 61.4201C17.03 59.6219 18.6603 57.9823 20.4566 56.5301C21.459 55.6925 23.1721 55.8909 24.1558 56.8204C25.4986 58.0879 26.8301 59.3921 28.0981 60.7111C29.5942 62.2798 29.5942 63.9368 28.0981 65.5092C26.8338 66.8502 25.4799 68.1214 24.1633 69.4073C23.8835 69.6773 23.5483 69.8855 23.1799 70.0179C22.8116 70.1504 22.4187 70.204 22.0276 70.1751ZM19.2149 64.216C19.2149 64.5503 19.2149 64.8883 19.2149 65.2227C19.2149 65.557 19.2149 65.9905 19.6525 66.0089C20.2023 66.0272 20.1275 65.5533 20.1462 65.1859C20.1799 64.6091 20.1275 64.025 20.2098 63.4555C20.3407 62.5811 21.0701 62.537 21.7732 62.4856C22.3941 62.4415 22.5213 62.6913 22.5213 63.2975C22.4988 63.8413 22.9813 64.0323 23.4451 63.7127C24.1146 63.2424 25.1133 62.9081 25.233 62.0925C25.3527 61.2769 24.268 61.0307 23.7369 60.5274C23.6675 60.4653 23.5894 60.4133 23.505 60.3731C22.8579 60.0424 22.4465 60.2188 22.4839 60.8764C22.5213 61.534 22.1734 61.545 21.7096 61.5671C19.6749 61.67 19.2149 62.1586 19.2149 64.216Z" fill="#3EB860"/>
</svg>
