<svg width="128" height="128" viewBox="0 0 128 128" fill="none" xmlns="http://www.w3.org/2000/svg">
<rect width="128" height="128" fill="#F2AD46"/>
<path d="M98.0563 54.4473C96.2186 36.1534 80.1801 22.5905 61.909 23.8815C43.5923 25.1801 29.9156 39.6694 29.7713 57.9253C29.6574 72.6804 39.2106 85.9015 53.2898 90.4048C54.6416 90.8376 55.5756 91.5363 56.3122 92.7437C58.4309 96.1762 60.618 99.5631 62.8127 102.95C63.8986 104.628 64.1492 104.628 65.2503 102.912C67.3387 99.6846 69.4498 96.4648 71.4318 93.169C72.3279 91.673 73.467 90.7921 75.1301 90.2225C90.394 84.9978 99.6587 70.4782 98.0487 54.4397L98.0563 54.4473ZM73.4366 86.2964C70.9534 87.0786 69.2448 88.3012 68.0753 90.5718C67.2096 92.2425 66.0553 93.7613 65.0605 95.3788C64.3618 96.5179 63.7391 96.5711 63.0101 95.4016C61.6736 93.2601 60.2459 91.1793 58.9549 89.0151C58.2639 87.8608 57.3754 87.1925 56.0692 86.8128C41.8685 82.7121 33.2949 70.6148 34.0543 55.8598C34.8137 40.9604 47.9209 28.2784 62.8355 28.0202C78.6841 27.7393 91.3281 38.2341 93.7278 53.7031C93.948 55.1307 93.948 56.5888 94.0467 58.0316C93.9784 71.0401 85.8452 82.3779 73.4366 86.304V86.2964Z" fill="white"/>
<path d="M58.2411 30.6781C45.3313 33.5335 36.3477 44.4156 36.0515 57.5532C35.7629 70.3415 44.5112 81.7325 57.2311 85.0207C58.6208 85.3776 59.608 86.0079 60.3294 87.2305C61.2559 88.8025 62.3115 90.2985 63.2683 91.8552C63.8455 92.7893 64.3087 92.7893 64.8858 91.8552C65.6376 90.6174 66.5565 89.4707 67.2248 88.1949C68.2196 86.2661 69.6852 85.3016 71.8115 84.7169C83.7113 81.4439 91.9432 70.4098 91.9356 58.0089C91.9356 40.2162 75.4718 26.866 58.2411 30.6781ZM76.0945 54.8801C73.953 54.7814 73.1405 55.8142 73.0114 57.7507C72.9734 58.2519 72.8139 58.7379 72.7228 59.2391C72.3988 60.9604 73.0924 61.9198 74.8036 62.1172C76.3755 62.2919 77.5222 63.0589 77.4918 64.7144C77.4615 66.3926 76.2616 67.0837 74.6821 67.1444C74.3707 67.1596 74.0442 67.1976 73.7404 67.1596C71.7356 66.8862 70.8319 67.8279 70.6724 69.7643C70.6117 70.5086 70.4142 71.268 70.1409 71.959C69.6473 73.2272 68.6524 73.8575 67.2931 73.5993C65.8427 73.3259 65.2048 72.3083 65.182 70.8731C65.182 70.6832 65.22 70.501 65.2427 70.3111C65.506 68.2101 64.577 67.1621 62.4558 67.1672C60.3345 67.1723 59.0866 68.2076 58.7119 70.2731C58.6588 70.5162 58.6056 70.7668 58.5449 71.0098C58.1424 72.5361 57.2463 73.4778 55.568 73.288C54.1024 73.1209 53.1076 71.7388 53.4645 70.0453C53.867 68.1013 53.6164 67.0381 51.2926 67.0609C49.8649 67.0761 48.9309 66.0433 48.9613 64.5853C48.9916 63.1272 49.994 62.3602 51.3989 62.1324C53.8189 61.7527 55.2769 60.3352 55.7731 57.8798C56.2819 55.3814 56.411 54.8194 53.4797 54.8801C51.5812 54.9181 50.3054 53.6803 50.4421 52.2223C50.6092 50.4529 51.8318 49.815 53.4417 49.6783C57.1704 49.3517 57.1855 49.3517 58.1272 45.8053C58.5449 44.241 59.3194 43.1171 61.1192 43.2841C62.6532 43.4284 63.3594 44.7194 63.2759 46.7014C63.2303 47.7798 62.1368 49.4884 64.3618 49.5871C68.941 49.7846 69.2752 49.8529 69.6852 47.2634C69.7915 46.5799 69.951 45.8889 70.2092 45.2586C70.7332 43.998 71.7356 43.3753 73.0797 43.6638C74.4087 43.9448 75.0997 44.8865 75.1225 46.2534C75.1225 46.6938 75.077 47.1419 74.963 47.5671C74.6289 48.8353 74.8567 49.5947 76.3831 49.739C77.9323 49.8833 79.0486 50.7794 78.9499 52.4501C78.8436 54.1056 77.6133 54.9409 76.087 54.8726L76.0945 54.8801Z" fill="white"/>
<path d="M66.5413 54.5992C62.1444 54.1132 61.7951 54.3486 60.9673 58.6771C60.9294 58.8594 60.8914 59.0492 60.861 59.2315C60.4408 61.3679 61.3293 62.4387 63.5265 62.4438C65.7237 62.4488 67.002 61.3907 67.3615 59.2695C67.5513 58.2823 67.7488 57.295 67.9386 56.3154C68.1588 55.1915 67.65 54.7283 66.5489 54.6068L66.5413 54.5992Z" fill="white"/>
</svg>
