<svg width="128" height="128" viewBox="0 0 128 128" fill="none" xmlns="http://www.w3.org/2000/svg">
<rect width="128" height="128" fill="black"/>
<path d="M63.7381 67.3756C63.5994 67.3756 63.3335 67.1983 62.8827 66.3737C60.9958 62.8606 58.4051 59.7741 55.2723 57.3067C52.8137 55.3785 50.0845 53.823 47.1725 52.6904C46.7312 52.5111 46.288 52.3364 45.8431 52.1663C41.9435 50.625 37.9013 49.0336 34.1481 46.8603C33.7321 46.6248 33.321 46.3807 32.9151 46.1281C33.6626 44.818 34.5335 43.5656 35.4968 42.4212C36.8949 40.7502 38.5201 39.2832 40.3251 38.063C42.2631 36.7673 44.3582 35.7236 46.5598 34.9572C51.2532 33.2848 56.8753 32.4641 63.7381 32.4564C70.6087 32.4641 76.2269 33.2848 80.9203 34.9611C83.1236 35.7248 85.2201 36.7673 87.1589 38.063C88.9739 39.2922 90.5961 40.7565 91.9872 42.4173C92.9505 43.5656 93.8175 44.818 94.5689 46.1281C94.172 46.3747 93.752 46.6252 93.3359 46.868C89.575 49.0413 85.5405 50.6327 81.6332 52.1702L80.3038 52.6943C77.3946 53.8278 74.668 55.3832 72.2117 57.3106C69.0775 59.7781 66.4866 62.8662 64.6013 66.3814C64.1505 67.2022 63.8807 67.3794 63.7381 67.3794M63.7381 94.6305C57.7885 94.6227 52.9564 94.1334 48.9797 93.1392C45.0763 92.1682 41.8318 90.6731 39.0535 88.5614C36.9238 86.9259 35.1067 84.9196 33.6896 82.6388C32.362 80.5107 31.313 78.2211 30.5684 75.826C29.407 72.1037 28.8007 68.2306 28.7688 64.3314C28.7688 61.7343 28.9499 59.272 29.289 57.0062C33.5509 59.3028 37.5853 60.4549 41.1574 61.4761L41.9859 61.7073C46.9567 63.1369 50.9026 65.0096 54.0662 67.4411C55.8965 68.8591 57.4957 70.4968 58.8058 72.3118C60.2277 74.2693 61.3606 76.5042 62.1852 78.9588C62.5552 80.0724 62.9559 80.7622 63.7381 80.7622C64.5358 80.7622 64.925 80.0686 65.2988 78.9588C66.7696 74.3837 69.6022 70.3666 73.4178 67.445C76.5776 65.0096 80.5273 63.1369 85.4981 61.7073L86.3304 61.4761C89.8987 60.4549 93.9331 59.3028 98.1911 57.0062C98.5379 59.2758 98.7152 61.7343 98.7152 64.3276C98.7152 66.0924 98.5379 70.7396 96.9233 75.826C96.1792 78.2206 95.1315 80.5102 93.806 82.6388C92.3845 84.921 90.5621 86.9275 88.4267 88.5614C85.6407 90.6731 82.3962 92.1682 78.5081 93.1392C74.5199 94.1334 69.6916 94.6227 63.7381 94.6305ZM101.085 38.5408C93.7289 30.6414 81.8567 27.0193 63.7381 27C45.6273 27.0193 33.7551 30.6376 26.399 38.537C20.9311 44.398 17.5016 52.5093 17.5016 63.5145C17.5016 69.599 19.0044 85.0934 31.235 93.093C38.5564 97.8788 48.0126 100.977 63.7381 101C79.4714 100.977 88.9238 97.8788 96.249 93.093C108.476 85.0934 109.982 69.5951 109.982 63.5145C109.982 52.5401 106.526 44.371 101.081 38.5331L101.085 38.5408Z" fill="white"/>
</svg>
