<svg width="128" height="128" viewBox="0 0 128 128" fill="none" xmlns="http://www.w3.org/2000/svg">
<rect width="128" height="128" fill="#FDB830"/>
<path d="M93.4081 31H34.5895C30.3953 31 27 34.3445 27 38.4759V81.5604C27 85.6918 30.3953 89.0363 34.5895 89.0363H61.6521C62.0515 89.0363 62.3511 89.3314 62.3511 89.7248V96.4138C62.3511 96.8072 62.6507 97.1023 63.0501 97.1023H64.9475C65.3469 97.1023 65.6465 96.8072 65.6465 96.4138V89.7248C65.6465 89.3314 65.9461 89.0363 66.3456 89.0363H93.4081C97.6023 89.0363 100.998 85.6918 100.998 81.5604V38.4759C101.097 34.3445 97.7022 31 93.4081 31Z" fill="#333333"/>
<path d="M97.8028 81.4623C97.8028 83.8231 95.8056 85.7904 93.4089 85.7904H34.6902C32.2935 85.7904 30.2962 83.8231 30.2962 81.4623V38.5744C30.2962 36.2136 32.2935 34.2463 34.6902 34.2463H93.309C95.7057 34.2463 97.7029 36.2136 97.7029 38.5744L97.8028 81.4623Z" fill="white"/>
<path d="M92.9093 80.3796C92.9093 80.7731 92.6098 81.0682 92.2103 81.0682H35.7884C35.3889 81.0682 35.0894 80.7731 35.0894 80.3796V39.6559C35.0894 39.2624 35.3889 38.9673 35.7884 38.9673H92.2103C92.6098 38.9673 92.9093 39.2624 92.9093 39.6559V80.3796Z" fill="url(#paint0_linear_1195_2476)"/>
<defs>
<linearGradient id="paint0_linear_1195_2476" x1="63.9993" y1="38.9673" x2="63.9993" y2="81.137" gradientUnits="userSpaceOnUse">
<stop stop-color="#FFEC6A"/>
<stop offset="1" stop-color="#FFDA00"/>
</linearGradient>
</defs>
</svg>
