<svg width="128" height="128" viewBox="0 0 128 128" fill="none" xmlns="http://www.w3.org/2000/svg">
<rect width="128" height="128" fill="#006A76"/>
<path d="M21.4597 91.9409V34.3942H51.8097L63.6344 68.8828L75.262 34H105.809L105.612 73.6127H101.079L96.1523 63.5617L91.0283 73.2185H87.0867V48.7809L71.9117 92.3351H55.3571L40.5763 49.3721V92.3351C40.3792 92.3351 21.4597 91.9409 21.4597 91.9409Z" fill="white"/>
<path d="M92.6053 77.95L95.7585 72.4318C95.9556 72.2347 96.1527 72.2347 96.1527 72.4318L99.3059 78.5412C99.503 78.9354 99.8971 79.1324 100.291 79.1324L106.795 79.7237C106.992 79.7237 107.189 79.9208 106.992 80.1178L102.656 85.0448C102.262 85.4389 102.262 85.8331 102.262 86.2273L103.05 93.3221C103.05 93.5192 102.853 93.7162 102.656 93.5192L96.941 90.563C96.5468 90.3659 96.1527 90.3659 95.7585 90.563L89.8462 93.9133C89.6491 94.1104 89.452 93.9133 89.452 93.7162L90.4374 86.8185C90.4374 86.4243 90.4374 86.0302 90.0433 85.8331L85.1163 80.7091C84.9192 80.512 85.1163 80.3149 85.3134 80.3149L91.8169 78.9354C92.014 78.5412 92.4082 78.3441 92.6053 77.95Z" fill="#F7A721"/>
</svg>
