<svg width="128" height="129" viewBox="0 0 128 129" fill="none" xmlns="http://www.w3.org/2000/svg">
<rect width="128" height="128" transform="translate(0 0.972656)" fill="#3969BC"/>
<path d="M27.4067 62.7324C27.3829 63.1767 27.4067 63.6329 27.3274 64.0693C27.2322 64.5929 27.0497 65.1007 26.899 65.6125C26.7958 65.9616 26.6133 66.3027 26.5895 66.6558C26.5419 67.5047 26.5181 68.3259 26.1254 69.1273C25.8953 69.5954 25.8913 70.1746 25.7763 70.7022C25.6295 71.3726 25.4907 72.047 25.3161 72.7135C25.086 73.5902 24.8282 74.459 24.5822 75.3317C24.5782 75.3516 24.5782 75.3754 24.5703 75.3952C24.0705 76.4266 23.1263 75.9744 22.3567 76.022C21.8092 76.0537 21.5117 75.657 21.3848 75.1294C21.1507 74.1535 20.8809 73.1816 20.6509 72.2057C20.4842 71.4916 20.3375 70.7736 20.2145 70.0556C20.0399 69.0122 19.9328 67.957 19.7265 66.9216C19.6234 66.4019 19.3536 65.914 19.1791 65.4062C19.1037 65.184 19.0442 64.95 19.0283 64.7159C18.9847 64.2002 18.9728 63.6845 18.949 63.1688L18.7506 63.1529C18.7189 63.4742 18.6634 63.7995 18.6594 64.1209C18.6515 68.2902 18.6594 72.4596 18.6554 76.625C18.6554 77.0852 18.6356 77.5453 18.6197 78.0055C18.5999 78.4776 18.3063 78.7355 17.8779 78.7831C17.2908 78.8505 16.6917 78.8624 16.1007 78.8703C15.6524 78.8703 15.4183 78.6323 15.4223 78.1682C15.4263 77.6842 15.4025 77.2042 15.4025 76.7202C15.3985 70.841 15.4223 64.9619 15.3787 59.0787C15.3509 56.9564 15.1248 54.8419 15.0732 52.7235C15.0613 52.1404 15.2953 51.5413 15.4818 50.9741C15.5254 50.8392 15.8349 50.7241 16.0253 50.7202C16.9496 50.7003 17.8739 50.7202 18.7982 50.7202C19.2465 50.7202 19.4211 50.9423 19.425 51.3747C19.433 52.18 19.3854 52.9893 20.0796 53.632C20.2502 53.7907 20.1907 54.2151 20.2066 54.5166C20.2383 55.2307 20.1867 55.9408 20.6271 56.5993C20.8532 56.9365 20.8968 57.4007 20.9881 57.8172C21.1864 58.7217 21.3649 59.6341 21.5514 60.5426C21.6268 60.9036 21.6664 61.2725 21.7934 61.6176C22.2972 62.9982 22.0592 64.5652 22.8764 65.8703C23.0033 66.0726 22.9676 66.3781 22.9954 66.6399C23.039 67.0684 23.0668 67.4968 23.1025 67.9213C23.1699 67.9213 23.2374 67.9213 23.3048 67.9213C23.3246 67.592 23.3802 67.2628 23.3524 66.9375C23.2731 65.9893 23.5785 65.1483 24.0189 64.3351C24.0586 64.2597 24.0943 64.1764 24.1101 64.0891C24.2688 63.0696 24.3799 62.0382 24.5901 61.0305C24.7409 60.3046 25.0344 59.6064 25.2368 58.8883C25.3082 58.6424 25.3478 58.3686 25.3359 58.1147C25.2883 57.2579 25.5859 56.524 25.9707 55.7702C26.1889 55.3378 26.1413 54.7467 26.1373 54.231C26.1333 53.6558 26.3079 53.1996 26.649 52.7235C26.8752 52.4101 26.9069 51.9142 26.9188 51.4977C26.9347 50.9463 27.129 50.6964 27.7003 50.7083C28.5374 50.7241 29.3744 50.7241 30.2075 50.6884C30.7867 50.6646 31.0168 50.9542 31.0207 51.4699C31.0247 51.9738 30.9731 52.4776 30.9731 52.9814C30.9692 60.856 30.9652 68.7345 30.9612 76.6091C30.9612 77.0495 30.9414 77.4858 30.9295 77.9262C30.9136 78.4895 30.5843 78.7553 30.0567 78.795C29.5966 78.8307 29.1324 78.8346 28.6722 78.8584C27.9066 78.8981 27.7201 78.7553 27.7162 77.9817C27.7082 73.7687 27.7162 69.5557 27.7162 65.3467C27.7162 64.4819 27.7162 63.617 27.7162 62.7483C27.617 62.7443 27.5178 62.7364 27.4186 62.7324H27.4067Z" fill="white"/>
<path d="M48.4718 63.5496C48.444 63.859 48.3924 64.1645 48.3924 64.4739C48.3885 68.4886 48.3924 72.5032 48.3924 76.5139C48.3924 77.0415 48.3528 77.5652 48.3488 78.0928C48.3488 78.5887 48.1108 78.8069 47.6228 78.8108C47.119 78.8148 46.6112 78.8584 46.1074 78.8703C45.3418 78.8902 45.1593 78.7355 45.1553 77.9738C45.1394 75.1016 45.1315 72.2255 45.1315 69.3534C45.1236 63.6924 45.1236 58.0354 45.1196 52.3744C45.1196 52.0253 45.1394 51.6723 45.1394 51.3232C45.1394 50.9225 45.318 50.7043 45.7345 50.7083C46.6152 50.7122 47.4959 50.7083 48.3726 50.7241C48.9042 50.7321 49.1858 51.0018 49.1501 51.5572C49.0906 52.4538 49.2374 53.2868 49.8245 54.0168C49.9435 54.1636 49.9435 54.4373 49.9277 54.6515C49.8642 55.556 50.13 56.3653 50.5902 57.1309C50.6338 57.2063 50.6695 57.2896 50.6854 57.3729C50.856 58.325 50.9829 59.285 51.1971 60.2292C51.3558 60.9393 51.6494 61.6216 51.8319 62.3277C51.9271 62.7046 51.9191 63.1053 51.9548 63.498C51.9826 63.7916 52.0183 64.0852 52.05 64.3787C52.1135 64.3787 52.177 64.3787 52.2365 64.3787C52.2563 64.0693 52.292 63.7638 52.292 63.4544C52.292 59.5706 52.292 55.6909 52.292 51.8071C52.292 50.7281 52.3079 50.7202 53.4028 50.6964C54.0177 50.6845 54.6366 50.6765 55.2515 50.7003C56.1123 50.736 56.2789 50.9185 56.2789 51.7833C56.275 57.115 56.2631 62.4428 56.2551 67.7745C56.2551 70.7577 56.275 73.7409 56.2273 76.7242C56.2194 77.2558 55.9774 77.8191 55.7156 78.2991C55.5807 78.549 55.1761 78.7355 54.8666 78.787C54.3073 78.8822 53.7281 78.8584 53.1569 78.8743C52.6491 78.8862 52.3634 78.7156 52.2841 78.1364C52.2167 77.6406 51.9509 77.1685 51.7843 76.6845C51.6811 76.383 51.5938 76.0736 51.5185 75.7641C51.336 75.0382 51.1694 74.3082 50.9908 73.5783C50.9075 73.2451 50.8084 72.9198 50.7211 72.5865C50.491 71.7217 50.2688 70.8529 50.0388 69.9881C50.0269 69.9484 49.9951 69.9088 49.9872 69.8691C49.8206 69.0043 49.6738 68.1355 49.4913 67.2747C49.3921 66.8145 49.3326 66.3107 49.0906 65.9259C48.6781 65.2792 48.7574 64.5929 48.7058 63.9027C48.6979 63.7837 48.6622 63.6607 48.6424 63.5417C48.5908 63.5417 48.5352 63.5417 48.4837 63.5417L48.4718 63.5496Z" fill="white"/>
<path d="M70.1199 62.6451C70.1199 66.2432 70.1279 69.8413 70.108 73.4395C70.108 73.852 69.9295 74.2686 69.8145 74.6811C69.6598 75.2405 69.5011 75.7959 69.3186 76.3473C69.2631 76.5218 69.1401 76.6766 69.0369 76.8313C68.8862 77.0574 68.7513 77.3073 68.5569 77.4977C68.1087 77.942 67.7001 78.549 67.1486 78.7513C65.4904 79.3623 63.7409 79.5447 62.0867 78.787C61.2695 78.4141 60.6268 77.7596 60.1468 76.8828C59.643 75.9625 59.5914 74.9985 59.3137 74.0662C58.9646 72.9039 59.04 71.7773 59.0321 70.6347C58.9963 64.4462 59.0043 58.2615 59.0043 52.0729C59.0043 50.7955 59.1074 50.7043 60.4007 50.6964C60.9521 50.6924 61.5035 50.6884 62.051 50.7083C62.8563 50.74 62.9991 50.8907 62.9991 51.708C62.9951 56.3137 62.9832 60.9234 62.9793 65.5292C62.9793 67.9649 62.9793 70.4007 62.9951 72.8365C62.9991 73.6537 63.3403 74.2765 64.1257 74.6494C65.0937 75.1096 66.141 74.5463 66.141 73.4831C66.1529 66.8343 66.1489 60.1855 66.1529 53.5407C66.1529 52.9258 66.145 52.311 66.1648 51.6961C66.1846 51.101 66.5218 50.7479 67.109 50.7202C67.9222 50.6845 68.7355 50.7122 69.5527 50.7083C70.0723 50.7083 70.1557 51.0375 70.1517 51.4541C70.1438 53.3424 70.1438 55.2267 70.1398 57.115C70.1398 58.9597 70.1398 60.8004 70.1398 62.6451C70.1319 62.6451 70.1239 62.6451 70.116 62.6451H70.1199Z" fill="white"/>
<path d="M107.093 69.9207C107.061 70.2499 106.994 70.5792 107.006 70.9085C107.037 71.686 106.891 72.408 106.541 73.1142C106.355 73.491 106.323 73.9433 106.228 74.3638C106.006 75.3516 105.792 76.3433 105.573 77.3311C105.526 77.5453 105.534 77.7992 105.411 77.9579C105.177 78.2634 104.903 78.6998 104.594 78.7513C103.868 78.8703 103.106 78.7989 102.36 78.7989C101.975 78.7989 101.769 78.5728 101.817 78.2118C101.884 77.6882 102.015 77.1724 102.118 76.6528C102.15 76.502 102.178 76.3552 102.209 76.2045C102.352 75.5777 102.495 74.9549 102.638 74.3281C102.769 73.7489 102.896 73.1657 103.023 72.5826C103.086 72.289 103.062 71.9082 103.241 71.7217C103.729 71.2139 103.749 70.6189 103.82 69.9802C103.887 69.3732 104.137 68.7861 104.312 68.191C104.395 67.9054 104.51 67.6277 104.562 67.3381C104.725 66.4098 104.911 65.4816 105.006 64.5453C105.149 63.1569 104.685 61.8676 104.284 60.5624C104.038 59.765 103.947 58.9201 103.768 58.1028C103.717 57.8569 103.657 57.5911 103.522 57.3888C103.094 56.7421 102.927 56.0479 102.983 55.2823C103.015 54.8538 102.939 54.4849 102.547 54.1834C102.356 54.0406 102.293 53.7034 102.229 53.4376C102.09 52.8584 102.003 52.2673 101.872 51.6842C101.785 51.2954 102.158 50.736 102.642 50.7162C103.542 50.6765 104.455 50.6369 105.343 50.74C105.97 50.8114 106.113 51.4303 106.2 51.9777C106.339 52.8584 106.299 53.8065 106.629 54.6079C107.025 55.5679 106.978 56.516 107.029 57.484C107.041 57.6784 107.097 57.8688 107.129 58.0632C107.188 58.0632 107.252 58.0552 107.311 58.0513C107.327 57.8251 107.378 57.5951 107.359 57.3729C107.275 56.3653 107.672 55.4767 108.033 54.5761C108.097 54.4175 108.1 54.235 108.128 54.0644C108.283 53.1758 108.374 52.2673 108.628 51.4104C108.715 51.1129 109.195 50.7757 109.533 50.7321C110.31 50.6329 111.119 50.6408 111.901 50.7241C112.234 50.7598 112.619 51.0375 112.817 51.3152C112.912 51.4501 112.615 51.8508 112.504 52.1324C112.381 52.4419 112.179 52.7513 112.163 53.0687C112.131 53.7193 111.996 54.2905 111.599 54.838C111.393 55.1236 111.441 55.5838 111.342 55.9567C111.207 56.4684 111.044 56.9762 110.889 57.484C110.794 57.7894 110.592 58.0949 110.604 58.3924C110.643 59.2573 110.318 60.007 109.981 60.7608C109.961 60.8004 109.925 60.8361 109.921 60.8798C109.818 62.2127 109.057 63.4623 109.366 64.8468C109.513 65.4974 109.759 66.1242 109.925 66.7669C110.163 67.6793 110.362 68.5997 110.596 69.516C110.663 69.7818 110.762 70.0476 110.889 70.2936C111.25 70.9838 111.413 71.7098 111.381 72.4913C111.373 72.7373 111.405 73.0943 111.56 73.2173C112.155 73.6814 112.083 74.3162 112.155 74.943C112.206 75.3793 112.302 75.8792 112.559 76.2084C113.035 76.8154 112.96 77.47 112.825 78.0849C112.762 78.3665 112.317 78.6879 111.996 78.7593C111.425 78.8862 110.814 78.8584 110.223 78.8584C109.394 78.8584 109.053 78.4419 108.91 77.6168C108.771 76.8194 108.485 76.0458 108.271 75.2603C108.216 75.0501 108.144 74.8319 108.156 74.6216C108.219 73.5704 107.839 72.6302 107.482 71.6781C107.371 71.3806 107.414 71.0315 107.378 70.7062C107.351 70.4404 107.311 70.1746 107.279 69.9088C107.208 69.9088 107.14 69.9088 107.069 69.9088L107.093 69.9207Z" fill="white"/>
<path d="M82.755 70.7577C82.755 68.433 82.7629 66.1083 82.7471 63.7837C82.7471 63.4941 82.6241 63.2045 82.5527 62.9149C82.5368 62.8514 82.4733 62.7879 82.4852 62.7364C82.759 61.5819 82.3067 60.4474 82.4099 59.285C82.513 58.087 82.4297 56.8731 82.4257 55.6671C82.4257 54.4809 82.3385 53.2908 82.4495 52.1166C82.5447 51.0812 82.8224 50.625 83.8578 50.6765C85.3733 50.7519 86.8926 50.7122 88.412 50.7241C88.9039 50.7241 89.372 50.744 89.622 51.3113C89.7013 51.4858 90.0266 51.5374 90.2131 51.6762C91.1096 52.3506 91.7205 53.2154 91.9625 54.3222C91.9863 54.4294 91.9863 54.5603 92.0498 54.6317C92.7758 55.4648 92.7401 56.4724 92.7282 57.48C92.7163 58.4004 92.7282 59.3207 92.7282 60.245C92.7282 61.5383 92.3989 62.7522 92.0379 63.9939C91.6848 65.1999 90.9827 66.1044 90.1972 66.9811C89.8719 67.3421 89.3443 67.5206 88.9039 67.7705C88.7532 67.8578 88.539 67.8737 88.4358 67.9927C88.0748 68.4132 87.6186 68.5203 87.087 68.556C86.1865 68.6155 86.0318 68.8734 86.0358 69.7541C86.0477 72.4913 86.0119 75.2326 86.0119 77.9698C86.0119 78.5847 85.7501 78.8426 85.1352 78.8188C84.6989 78.8029 84.2545 78.8386 83.8182 78.8624C82.9692 78.91 82.7867 78.7712 82.7788 77.9301C82.7629 75.538 82.7748 73.1499 82.7748 70.7577C82.7669 70.7577 82.759 70.7577 82.751 70.7577H82.755ZM88.8087 59.5468C88.6818 58.924 88.4477 58.1742 88.3961 57.4126C88.3327 56.4526 88.1224 55.675 87.1465 55.2307C86.4761 54.9252 86.0477 55.1038 86.0477 55.8297C86.0477 58.3726 86.0476 60.9155 86.0556 63.4584C86.0556 64.0494 86.4126 64.3747 86.8807 64.0812C87.4321 63.7321 88.0748 63.2521 88.2771 62.6888C88.6143 61.7525 88.6342 60.7052 88.8087 59.5429V59.5468Z" fill="white"/>
<path d="M34.0555 64.6247C34.0555 60.4156 34.0555 56.2066 34.0555 51.9936C34.0555 50.7955 34.1428 50.7043 35.3131 50.6964C37.4672 50.6845 39.6253 50.6845 41.7794 50.6964C42.7513 50.6964 42.8029 50.7678 42.8029 51.7635C42.8029 52.2673 42.7949 52.7711 42.787 53.2749C42.7711 54.0922 42.2237 54.6594 41.3946 54.6793C40.5813 54.6991 39.7681 54.6872 38.9509 54.6793C38.3518 54.6753 38.0067 54.8657 38.0186 55.556C38.0503 57.3769 38.0464 59.1938 38.0265 61.0147C38.0226 61.5819 38.2288 61.8001 38.8041 61.7803C39.7284 61.7486 40.6527 61.7644 41.577 61.7724C42.4696 61.7803 42.8227 62.1175 42.783 63.018C42.7513 63.7678 42.6481 64.5176 42.5133 65.2594C42.4339 65.7037 42.0491 65.7791 41.6405 65.7751C40.6964 65.7672 39.7482 65.787 38.8041 65.7751C38.2685 65.7711 38.0107 65.9616 38.0146 66.5487C38.0345 68.9368 38.0226 71.329 38.0067 73.7171C38.0067 74.213 38.1892 74.4391 38.7009 74.4312C39.5816 74.4114 40.4663 74.4907 41.339 74.4114C42.3228 74.3201 42.7314 74.9192 42.7434 75.7998C42.7553 76.6726 42.5529 77.5612 42.3585 78.4221C42.3189 78.5966 41.8904 78.7831 41.6365 78.787C40.0537 78.8227 38.4669 78.8069 36.884 78.8108C36.3326 78.8108 35.7851 78.8386 35.2337 78.8227C34.4165 78.7989 34.0833 78.4697 34.0793 77.6406C34.0634 73.6061 34.0595 69.5716 34.0555 65.5371C34.0555 65.2316 34.0555 64.9222 34.0555 64.6167C34.0555 64.6167 34.0476 64.6167 34.0436 64.6167L34.0555 64.6247Z" fill="white"/>
<path d="M99.0873 64.589C99.0873 68.6671 99.0873 72.7452 99.0873 76.8233C99.0873 77.1724 99.1349 77.5453 99.0397 77.8706C98.9485 78.1801 98.7263 78.6561 98.5121 78.6879C97.6989 78.7989 96.8539 78.8307 96.0446 78.7236C95.8145 78.6918 95.513 78.0888 95.5011 77.7397C95.4377 76.1648 95.5924 74.5701 95.4337 73.007C94.7514 66.2512 95.3147 59.4834 95.1084 52.7235C95.0965 52.3943 95.0925 52.065 95.1203 51.7357C95.1719 51.1367 95.4813 50.744 96.1081 50.7202C96.8975 50.6924 97.6909 50.7122 98.4843 50.7083C98.885 50.7083 99.0992 50.8947 99.0953 51.3073C99.0953 51.7437 99.1032 52.184 99.1032 52.6243C99.1032 56.6152 99.1032 60.606 99.1032 64.5929H99.0913L99.0873 64.589Z" fill="white"/>
<path d="M76.2847 59.6897C76.8639 59.769 77.3201 59.8325 77.34 60.5227C77.34 60.6378 77.4312 60.7727 77.5145 60.8639C78.1612 61.5819 78.8832 62.2405 79.4346 63.022C79.6647 63.3473 79.6845 63.978 79.5377 64.3708C79.3552 64.8548 78.903 65.2356 78.5539 65.6561C78.1612 66.1282 77.574 66.5328 77.3955 67.0723C77.1932 67.6833 76.7052 67.7467 76.3204 68.0086C76.1895 68.0958 75.8166 68.0244 75.6937 67.8975C75.2176 67.3976 74.7852 66.8581 74.3607 66.3107C73.9085 65.7275 73.1904 65.3229 73.0675 64.5215C73.008 64.1447 72.9286 63.6646 73.1032 63.383C73.7934 62.2722 74.5511 61.2011 75.3446 60.1657C75.535 59.9158 75.9634 59.8444 76.2808 59.6897H76.2847Z" fill="white"/>
</svg>
