<svg width="128" height="128" viewBox="0 0 128 128" fill="none" xmlns="http://www.w3.org/2000/svg">
<g clip-path="url(#clip0_915_99)">
<path d="M128 0H0V128H128V0Z" fill="black"/>
<path fill-rule="evenodd" clip-rule="evenodd" d="M64.166 21.3311C75.6073 21.3312 86.3637 25.7866 94.4541 33.877C102.544 41.9675 107 52.7248 107 64.166C107 75.6076 102.544 86.3647 94.4541 94.4551C86.3637 102.545 75.6073 107 64.166 107C52.7249 107 41.9671 102.545 33.877 94.4551C25.7869 86.3647 21.3312 75.6076 21.3311 64.166C21.3311 52.7248 25.7868 41.9675 33.877 33.877C41.9672 25.7865 52.7248 21.3311 64.166 21.3311ZM64.3438 71.6055C64.1969 71.5597 64.106 71.5652 63.959 71.6182L63.9609 71.6152L32.5117 84.2461C33.9738 86.5411 35.6973 88.6934 37.668 90.6641C44.7459 97.7417 54.1568 101.64 64.166 101.64C74.1756 101.64 83.5863 97.7418 90.6641 90.6641C92.6341 88.6941 94.3546 86.5411 95.8164 84.2471L83.0137 79.1104L83.0107 79.1084L82.7588 79.0078C82.7588 79.0078 82.7566 79.0063 82.752 79.0039L82.6318 78.9561L82.6309 78.9551L82.5469 78.9219C82.5469 78.9219 82.5439 78.9199 82.5381 78.917L82.335 78.8359L82.333 78.835L82.165 78.7676L82.0381 78.7168C82.0381 78.7168 82.0342 78.7145 82.0264 78.7109L81.9961 78.6992L81.9941 78.6982L81.9111 78.665C81.9111 78.665 81.9102 78.664 81.9082 78.6631L81.7412 78.5967C81.7412 78.5967 81.7381 78.5953 81.7324 78.5928L81.6133 78.5449C81.6133 78.5449 81.6096 78.5433 81.6045 78.541L81.3174 78.4258C81.3174 78.4258 81.3136 78.4239 81.3066 78.4209L81.2744 78.4082C81.2744 78.4082 81.2727 78.4076 81.2695 78.4062L81.1045 78.3398C81.1045 78.3398 81.0958 78.3355 81.083 78.3301L80.9355 78.2715C80.9355 78.2715 80.9296 78.2685 80.918 78.2637L80.5107 78.1006C80.5088 78.0998 80.4907 78.0919 80.457 78.0781L80.2988 78.0146C80.2955 78.0133 80.2495 77.9942 80.165 77.96L80.1299 77.9463C80.1299 77.9463 80.0748 77.9234 79.9717 77.8818L64.3438 71.6055ZM70.5146 60.2598L70.5156 60.2568C70.5469 60.4093 70.5978 60.508 70.7109 60.6094L97.3818 81.5449C100.162 76.2465 101.64 70.3206 101.64 64.166C101.64 54.1568 97.7419 44.7456 90.6641 37.668C83.9549 30.9588 75.1493 27.1086 65.7246 26.7256L70.5146 60.2598ZM62.6055 26.7256C53.1817 27.109 44.3769 30.9592 37.668 37.668C30.5903 44.7457 26.6924 54.1567 26.6924 64.166C26.6924 70.3197 28.1669 76.2461 30.9463 81.5439L57.5938 60.5986L57.5908 60.5996C57.7096 60.4912 57.7698 60.394 57.7979 60.2363L62.6055 26.7256Z" fill="white"/>
</g>
<defs>
<clipPath id="clip0_915_99">
<rect width="128" height="128" fill="white"/>
</clipPath>
</defs>
</svg>
