<svg width="128" height="128" viewBox="0 0 128 128" fill="none" xmlns="http://www.w3.org/2000/svg">
<rect width="128" height="128" fill="white"/>
<path fill-rule="evenodd" clip-rule="evenodd" d="M35.6553 40.1155C28.4258 46.3539 24.001 54.9085 24 64.3379C24.001 73.7722 28.4258 82.3239 35.6553 88.5653C42.8828 94.7967 52.905 98.6798 64.0005 98.6778C72.2231 98.6778 79.8508 96.5451 86.1906 92.9048C86.5236 92.7162 86.9289 92.7042 87.2709 92.8797L98.0736 98.3869L94.8997 86.9272C94.7964 86.549 94.8937 86.1387 95.1665 85.8498C100.705 79.9404 103.998 72.4712 104 64.3379C104 54.9085 99.5742 46.3539 92.3427 40.1145C85.1182 33.8811 75.094 30 64.0005 30H63.9955C52.904 30.002 42.8818 33.8821 35.6553 40.1155Z" fill="#F15B50"/>
<path fill-rule="evenodd" clip-rule="evenodd" d="M90.9892 70.0446C90.0382 68.902 88.4693 68.7115 87.4221 69.522C86.1862 70.4238 84.6153 71.0427 82.905 71.0427C79.052 71.0427 75.8651 67.9049 75.8651 64.2435C75.8651 60.5801 79.053 57.3942 82.905 57.3942C84.6635 57.3942 86.1862 58.0132 87.4221 58.918C88.5175 59.7726 90.0392 59.584 90.9892 58.4425C91.7495 57.3942 91.5589 55.7782 90.4665 54.9225C88.4212 53.3547 85.7589 52.3064 82.905 52.3064C76.3416 52.3535 70.8244 57.632 70.8244 64.2435C70.8244 70.7598 76.3416 76.0844 82.905 76.0844C85.7589 76.0844 88.4212 75.0381 90.4665 73.5646C91.5609 72.6126 91.7505 71.0899 90.9892 70.0446ZM69.8845 64.2435C69.8845 66.8978 70.7261 69.4377 72.2809 71.5824V73.5094C72.2809 74.9188 71.1153 76.0854 69.7079 76.0854C68.2985 76.0854 67.0848 74.9198 67.0848 73.5094V61.9976C67.0848 59.2289 64.8498 56.993 62.1785 56.993C59.4099 56.993 57.2231 59.1798 57.1278 61.8511V61.9976V73.5094C57.1278 74.9188 55.9622 76.0854 54.5538 76.0854C53.1915 76.0854 51.9296 74.9198 51.9296 73.5094V61.9976V61.8511C51.8825 59.1798 49.6475 56.993 46.927 56.993C44.2557 56.993 42.0208 59.2289 42.0208 61.9976V73.5094C42.0208 73.6077 41.9726 73.7541 41.9726 73.8515V73.9949C41.9255 74.0922 41.9255 74.1895 41.8272 74.2858V74.5286C41.3898 75.4033 40.4188 76.0834 39.3986 76.0834C39.204 76.0834 39.0585 76.0342 38.9131 76.0342C37.7475 75.7443 36.8246 74.7723 36.8246 73.5074V61.9966V61.9474V54.419C36.8246 52.9143 37.9892 51.7948 39.4006 51.7948C40.4198 51.7948 41.3437 52.3285 41.7309 53.2523C43.2867 52.3285 45.0833 51.7948 46.93 51.7948C49.9896 51.7948 52.711 53.0587 54.5558 55.1462C56.3524 53.0587 59.121 51.7948 62.1805 51.7948C66.3856 51.7948 69.9828 54.3829 71.5055 58.0623C70.4723 59.903 69.8845 62.0076 69.8845 64.2435Z" fill="white"/>
</svg>
