<svg width="128" height="128" viewBox="0 0 128 128" fill="none" xmlns="http://www.w3.org/2000/svg">
<rect width="128" height="128" fill="#31577D"/>
<path fill-rule="evenodd" clip-rule="evenodd" d="M30.2284 58.5898C28.3849 58.5898 26.7584 59.5207 25.7946 60.9388C24.8299 59.5207 23.2034 58.5898 21.3599 58.5898C18.4002 58.5898 16 60.989 16 63.9487V69.5006H18.1031V64.2236C18.1031 62.3454 19.6254 60.8221 21.5036 60.8221C23.2343 60.8221 24.6592 62.1158 24.8733 63.7885C24.8714 63.8416 24.8695 63.8956 24.8695 63.9487V69.5006H26.7806V63.9834C26.7806 62.0791 28.3241 60.5356 30.2284 60.5356C32.1327 60.5356 33.6762 62.0791 33.6762 63.9834V69.5006H35.5883V63.9487C35.5883 60.989 33.1881 58.5898 30.2284 58.5898Z" fill="white"/>
<path fill-rule="evenodd" clip-rule="evenodd" d="M83.0096 69.5001C81.1661 69.5001 79.5396 68.5682 78.5749 67.1501C77.6111 68.5682 75.9856 69.5001 74.1411 69.5001C71.1804 69.5001 68.7812 67.1009 68.7812 64.1402V58.5893H70.8843V63.8662C70.8843 65.7436 72.4066 67.2668 74.2848 67.2668C76.0146 67.2668 77.4404 65.9741 77.6536 64.3013C77.6526 64.2483 77.6497 64.1942 77.6497 64.1402V58.5893H79.5627V64.1065C79.5627 66.0108 81.1053 67.5533 83.0096 67.5533C84.9139 67.5533 86.4575 66.0108 86.4575 64.1065V58.5893H88.3695V64.1402C88.3695 67.1009 85.9693 69.5001 83.0096 69.5001Z" fill="white"/>
<path fill-rule="evenodd" clip-rule="evenodd" d="M37.0802 69.6037H38.6112V61.4925H37.0802V69.6037Z" fill="white"/>
<path fill-rule="evenodd" clip-rule="evenodd" d="M39.5942 63.9676C39.6357 64.8513 40.1605 65.596 40.8985 65.9935C41.0249 66.0794 41.1686 66.1421 41.323 66.1749C41.5738 66.2559 41.8391 66.3012 42.1131 66.3012H45.559C45.8349 66.4363 46.0413 66.6958 46.0712 67.0151C46.1233 67.5534 45.7008 68.0068 45.1721 68.0068H40.3814V69.6516H45.1335C46.4533 69.6516 47.5897 68.6358 47.6524 67.3171C47.718 65.9086 46.596 64.7461 45.202 64.7461H41.978C41.5844 64.6709 41.2622 64.3574 41.2226 63.9503C41.1715 63.411 41.5941 62.9576 42.1227 62.9576H46.8652V61.3967H42.0446C40.6506 61.3967 39.5286 62.5601 39.5942 63.9676Z" fill="white"/>
<path fill-rule="evenodd" clip-rule="evenodd" d="M48.6675 58.0471L50.295 58.1108L50.2313 63.0877L53.4852 63.1513L53.5161 64.6505H50.2313C50.2313 64.6505 49.4653 68.0964 53.5161 68.0964V69.6911C53.5161 69.6911 49.3698 70.2342 48.763 66.086L48.6675 58.0471Z" fill="white"/>
<path fill-rule="evenodd" clip-rule="evenodd" d="M107.622 58.0471L109.249 58.1108L109.185 63.0877L112.438 63.1513L112.47 64.6505H109.185C109.185 64.6505 108.419 68.0964 112.47 68.0964V69.6911C112.47 69.6911 108.324 70.2342 107.717 66.086L107.622 58.0471Z" fill="white"/>
<path fill-rule="evenodd" clip-rule="evenodd" d="M56.1327 65.5122C56.1327 64.1375 57.2469 63.0233 58.6207 63.0233C59.05 63.0233 59.4523 63.1333 59.8044 63.3243L56.399 66.6274C56.2301 66.2927 56.1327 65.9135 56.1327 65.5122ZM58.6207 68.0002C58.2531 68.0002 57.9068 67.9124 57.5933 67.7687L60.879 64.4723L60.88 64.4733L60.9041 64.4482L60.9109 64.4424L60.9099 64.4414L61.0459 64.2996L62.0068 63.2896C61.2823 62.1888 60.0378 61.4605 58.6207 61.4605C56.3835 61.4605 54.5689 63.2751 54.5689 65.5122C54.5689 67.7494 56.3835 69.563 58.6207 69.563C60.0108 69.563 61.235 68.8636 61.9653 67.7976L60.8482 66.6168C60.4411 67.4359 59.5979 68.0002 58.6207 68.0002Z" fill="white"/>
<path fill-rule="evenodd" clip-rule="evenodd" d="M63.0632 69.6753L63.0835 65.3814C63.0893 64.2073 63.5938 63.0729 64.5141 62.3445C64.6974 62.1988 64.9048 62.0609 65.1364 61.9355C65.7519 61.6046 66.4435 61.4454 67.142 61.4338L67.8723 61.4203V63.0478L66.8391 63.097C66.2892 63.123 65.7547 63.315 65.3419 63.6768C64.9994 63.9768 64.6916 64.4196 64.6424 65.0572V69.6039L63.0632 69.6753Z" fill="white"/>
<path fill-rule="evenodd" clip-rule="evenodd" d="M93.92 61.3967C92.9022 61.3967 91.9809 61.8009 91.3018 62.454L91.3201 58L89.6927 58.0473L89.8374 69.5321L90.1393 69.5417V69.5957H91.4996V65.2642C91.4996 64.0005 92.5241 62.9769 93.7859 62.9769C95.0497 62.9769 96.0732 64.0005 96.0732 65.2642V69.5957H97.7007V65.1774C97.7007 63.0888 96.0076 61.3967 93.92 61.3967Z" fill="white"/>
<path fill-rule="evenodd" clip-rule="evenodd" d="M105.216 68.0804L102.573 67.9887L102.578 67.9839C101.283 67.9 100.256 66.8243 100.256 65.5085C100.256 64.1357 101.369 63.0234 102.741 63.0234C104.112 63.0234 105.225 64.1357 105.225 65.5085V65.5114L105.216 68.0804ZM106.792 65.4863V65.4805C106.792 63.2424 104.978 61.4288 102.741 61.4288C100.503 61.4288 98.6886 63.2424 98.6886 65.4805C98.6886 67.628 100.362 69.3808 102.474 69.5178L102.466 69.5255L106.777 69.6751L106.793 65.4854L106.792 65.4863Z" fill="white"/>
</svg>
