<svg width="128" height="128" viewBox="0 0 128 128" fill="none" xmlns="http://www.w3.org/2000/svg">
<rect width="128" height="128" fill="#094750"/>
<path d="M62.1407 102L41.2264 81.0009C35.3134 75.0339 32 67.0011 32 58.6333C32 50.2656 35.3134 42.2329 41.2264 36.2658C44.1332 33.3316 47.6 31.001 51.4244 29.4102C55.2488 27.8193 59.3542 27 63.5011 27C67.6481 27 71.7534 27.8193 75.5778 29.4102C79.4022 31.001 82.869 33.3316 85.7758 36.2658C91.6874 42.232 95 50.2634 95 58.6296C95 66.9958 91.6874 75.0271 85.7758 80.9934L72.5465 67.7208C74.9496 65.2977 76.2963 62.0346 76.2963 58.6352C76.2963 55.2359 74.9496 51.9728 72.5465 49.5497C71.3665 48.3595 69.9594 47.4142 68.4075 46.769C66.8555 46.1238 65.1895 45.7915 63.5068 45.7915C61.8241 45.7915 60.1581 46.1238 58.6062 46.769C57.0542 47.4142 55.6472 48.3595 54.4672 49.5497C52.0641 51.9728 50.7173 55.2359 50.7173 58.6352C50.7173 62.0346 52.0641 65.2977 54.4672 67.7208L75.3816 88.7199L62.1407 102Z" fill="#D5FCB5"/>
</svg>
