<svg width="128" height="128" viewBox="0 0 128 128" fill="none" xmlns="http://www.w3.org/2000/svg">
<rect width="128" height="128" fill="#02357D"/>
<path fill-rule="evenodd" clip-rule="evenodd" d="M79.9431 76.2777C79.661 75.8169 79.32 75.3816 79.1099 74.8904C78.7172 73.971 79.0572 73.422 80.0466 73.1886C81.4409 72.8608 82.4648 72.0997 82.7896 70.5907C79.456 70.2193 79.1343 69.9271 78.3539 66.5529C77.7379 63.8931 77.1767 61.2201 76.4968 58.5776C76.2167 57.4928 76.6298 57.2685 77.5674 57.2502C79.387 57.2147 79.5625 57.2959 79.9654 59.0515C80.5093 61.4139 80.9893 63.7906 81.5241 66.1551C81.6865 66.8695 81.8712 67.8173 82.8281 67.5809C83.3041 67.4621 83.8064 66.6929 83.9515 66.1287C84.5919 63.6566 85.0881 61.1481 85.6726 58.6618C85.9598 57.441 87.7002 56.685 88.7089 57.3771C88.9606 57.5496 89.0915 58.1646 89.0123 58.5157C88.0117 62.9057 87.0619 67.3109 85.8898 71.6563C85.219 74.1446 83.4949 75.7327 80.7965 76.0341C80.5926 76.0564 80.4018 76.1934 80.2049 76.2777H79.9431Z" fill="white"/>
<path fill-rule="evenodd" clip-rule="evenodd" d="M25.3924 58.4697C27.5072 56.4716 29.8464 56.639 32.1865 57.4366C33.9106 58.0252 34.6007 59.5484 34.6727 61.234C34.7823 63.7933 34.7032 66.3597 34.7194 68.9231C34.7275 70.1246 33.9279 70.1815 33.0389 70.1916C32.0972 70.2038 31.4112 70.0019 31.4244 68.846C31.4487 66.717 31.4345 64.5879 31.4264 62.4599C31.4193 60.5318 30.9494 60.0163 29.2294 60.0152C27.4717 60.0132 26.9329 60.5886 26.9207 62.5279C26.9085 64.526 26.875 66.5262 26.9339 68.5233C26.9664 69.6548 26.6294 70.2119 25.3995 70.2089C24.2234 70.2058 23.7738 69.7695 23.8134 68.5801C23.8814 66.5414 23.8448 64.4966 23.8276 62.4548C23.8083 60.3511 22.344 59.2998 20.4503 60.1878C19.9145 60.4394 19.4284 61.3639 19.3889 62.0083C19.2569 64.1729 19.2894 66.3516 19.3554 68.5233C19.3929 69.7887 18.8591 70.2058 17.6526 70.2079C16.4125 70.2109 15.9619 69.7248 16.0025 68.4868C16.0745 66.2735 16.0066 64.0551 16.0279 61.8398C16.0542 58.9132 17.887 57.0906 20.8177 56.9668C22.5124 56.8947 24.1209 57.0084 25.3924 58.4697Z" fill="white"/>
<path fill-rule="evenodd" clip-rule="evenodd" d="M67.4534 62.1663H72.5639C72.6786 60.5537 72.0311 59.8586 70.3993 59.7774C68.2693 59.6719 67.5011 60.2615 67.4534 62.1663ZM67.424 64.891C67.3844 66.2904 67.9395 67.0829 69.0923 67.155C70.6317 67.2504 72.1884 67.1915 73.7299 67.088C74.3814 67.0444 75.0958 66.6709 75.312 67.6025C75.519 68.4884 75.6956 69.5915 74.557 69.9345C71.746 70.7819 68.8589 70.9828 66.259 69.3977C65.3771 68.8598 64.549 67.6472 64.3917 66.6354C64.0975 64.7388 64.1482 62.7447 64.3603 60.8247C64.5582 59.0143 65.7292 57.6616 67.5589 57.3094C69.0202 57.0293 70.6074 56.8639 72.0494 57.1308C74.9395 57.6646 76.7347 61.261 75.5921 63.9969C75.4114 64.4292 74.6016 64.8037 74.0577 64.8412C72.4147 64.9539 70.7586 64.8879 69.1085 64.891C68.591 64.892 68.0744 64.891 67.424 64.891Z" fill="white"/>
<path fill-rule="evenodd" clip-rule="evenodd" d="M45.5327 63.7479C45.5327 60.4945 45.0121 59.915 42.2427 60.0155C40.9742 60.0622 39.9117 60.5269 39.8589 61.8837C39.7899 63.6586 39.0278 65.6446 40.8808 67.0582C41.0077 67.1556 41.2076 67.1576 41.374 67.2013C43.5335 67.7695 45.9345 67.3616 45.5347 64.1376C45.5185 64.0097 45.5327 63.8778 45.5327 63.7479ZM48.7587 63.6403C48.7587 64.4633 48.8703 65.3045 48.7384 66.1062C48.3071 68.7143 46.3891 70.3014 43.5294 70.4739C42.7541 70.5206 41.9535 70.545 41.1964 70.4059C37.9552 69.8113 36.6785 68.3946 36.4624 65.0478C36.3822 63.8057 36.4736 62.5321 36.6532 61.2971C37.0256 58.7459 38.8614 57.1314 41.4197 56.9984C42.2853 56.9538 43.156 56.9578 44.0216 56.9964C46.7545 57.1182 48.6268 58.958 48.8023 61.6888C48.8439 62.3363 48.8084 62.9898 48.8084 63.6403H48.7587Z" fill="white"/>
<path fill-rule="evenodd" clip-rule="evenodd" d="M59.0873 65.4365C59.0863 64.3497 59.1076 63.2608 59.0812 62.1739C59.0417 60.5837 58.4125 60.0378 56.6579 60.0155C54.6476 59.9891 53.9301 60.4772 53.8834 62.0958C53.8195 64.2695 53.8276 66.4472 53.8702 68.6199C53.8916 69.7159 53.4998 70.1979 52.3612 70.2091C51.2622 70.2192 50.5661 69.9107 50.5782 68.7092C50.6056 66.2331 50.5955 63.753 50.7071 61.2799C50.8116 58.9712 52.1826 57.4886 54.3675 57.171C56.0389 56.9284 57.8574 57.0035 59.4953 57.4034C61.6619 57.9331 62.2931 59.8653 62.3722 61.8827C62.4605 64.1416 62.3905 66.4056 62.4016 68.6676C62.4067 69.9747 61.6334 70.2172 60.5151 70.204C59.3491 70.1898 59.0102 69.6408 59.0741 68.5672C59.137 67.527 59.0883 66.4807 59.0873 65.4365Z" fill="white"/>
<path fill-rule="evenodd" clip-rule="evenodd" d="M103.749 63.7643C103.749 63.3736 103.751 62.9839 103.749 62.5932C103.734 59.8421 102.579 58.736 99.8189 58.8304C97.4534 58.9116 96.329 59.7843 96.1646 61.8382C96.0621 63.1311 95.9708 64.4716 96.2073 65.7279C96.3747 66.6139 96.8994 67.7271 97.6148 68.1635C100.649 70.0134 103.74 68.1858 103.75 64.6756C103.75 64.3722 103.75 64.0677 103.749 63.7643ZM96.1159 69.0707C96.1159 70.7491 96.1057 72.521 96.1199 74.2928C96.126 74.921 96.055 75.4162 95.2492 75.4233C94.479 75.4314 94.3268 75.0194 94.3298 74.3456C94.3512 70.1291 94.3055 65.9126 94.3633 61.6971C94.3958 59.2809 96.0854 57.5436 98.4854 57.2696C98.8731 57.2249 99.2628 57.1823 99.6535 57.163C103.683 56.9611 105.536 58.6994 105.584 62.7343C105.594 63.6902 105.57 64.6461 105.56 65.6021C105.518 69.506 102.446 70.8415 99.3186 70.3493C98.2642 70.1839 97.2839 69.5527 96.1159 69.0707Z" fill="white"/>
<path fill-rule="evenodd" clip-rule="evenodd" d="M107.972 60.0821C107.972 57.7805 107.979 55.4789 107.968 53.1774C107.965 52.5005 108.045 51.988 108.935 52.0002C109.822 52.0124 109.892 52.5381 109.891 53.2058C109.886 57.5917 109.903 61.9777 109.88 66.3636C109.874 67.5499 109.959 68.5566 111.502 68.6479C111.699 68.6601 112.023 69.2061 111.999 69.4781C111.973 69.751 111.623 70.1509 111.349 70.2158C109.796 70.5811 108.446 69.7318 108.168 68.1395C107.984 67.0811 107.997 65.9831 107.979 64.9023C107.951 63.2959 107.971 61.6885 107.972 60.0821Z" fill="white"/>
<path fill-rule="evenodd" clip-rule="evenodd" d="M90.4875 66.6579C91.6088 66.6377 92.3831 67.3622 92.4156 68.4643C92.4491 69.5623 91.5733 70.4746 90.5037 70.4594C89.494 70.4442 88.6334 69.5694 88.6253 68.5475C88.6172 67.4708 89.3976 66.6793 90.4875 66.6579Z" fill="#DB3156"/>
</svg>
