<svg width="128" height="128" viewBox="0 0 128 128" fill="none" xmlns="http://www.w3.org/2000/svg">
<rect width="128" height="128" fill="white"/>
<path d="M78.9643 72.9055C77.3705 70.0334 76.5227 66.8058 76.4988 63.5193C76.4749 60.2329 77.2757 56.9932 78.8275 54.0981L113.617 54C115.203 56.9187 116.023 60.1938 116 63.5174C115.976 66.841 115.11 70.1041 113.483 73L78.9643 72.9055Z" fill="url(#paint0_radial_39_3150)"/>
<path d="M111.873 58.8304C111.505 58.8567 111.135 58.8686 110.766 58.8767C110.618 58.8767 110.494 58.9112 110.436 59.0584C110.378 59.2055 110.319 59.3354 110.272 59.478C110.034 60.1992 109.802 60.9222 109.562 61.6425C109.301 62.4273 109.035 63.2103 108.768 63.9932C108.753 64.0377 108.696 64.1122 108.687 64.1077C108.62 64.0858 108.561 64.0466 108.514 63.9941C108.258 63.6136 108.008 63.2284 107.76 62.8424C107.261 62.0643 106.764 61.2853 106.267 60.5053C106.177 60.3636 106.051 60.3564 105.969 60.4917C105.86 60.6734 105.753 60.855 105.639 61.0276C105.025 61.9831 104.41 62.9369 103.792 63.8888C103.72 63.9746 103.636 64.0511 103.545 64.1168C103.511 64.0259 103.476 63.9351 103.443 63.8379C103.435 63.8161 103.433 63.7934 103.425 63.7725C103.229 63.2121 103.03 62.6526 102.836 62.0921C102.492 61.1048 102.149 60.1184 101.813 59.1283C101.795 59.0507 101.75 58.9821 101.686 58.9355C101.622 58.8889 101.543 58.8677 101.464 58.8758C100.951 58.8813 100.437 58.8813 99.9233 58.8758C99.7312 58.8758 99.6514 58.9494 99.7003 59.1365C99.7213 59.2244 99.7471 59.3111 99.7774 59.3963C99.9051 59.7596 100.038 60.1229 100.162 60.4862C100.381 61.1221 100.591 61.7697 100.809 62.41C101.036 63.0786 101.268 63.7462 101.496 64.4147C101.661 64.8979 101.82 65.3838 101.987 65.868C102.219 66.5356 102.458 67.1996 102.689 67.8663C102.763 68.0788 102.816 68.2986 102.891 68.5112C102.916 68.5796 102.966 68.6367 103.03 68.6719C103.054 68.6846 103.139 68.6147 103.174 68.5666C103.302 68.3849 103.421 68.1896 103.544 68.0007C104.038 67.2377 104.532 66.4744 105.026 65.7108C105.352 65.2058 105.674 64.6981 106 64.1931C106.071 64.0841 106.162 64.0804 106.233 64.1931C106.442 64.5137 106.643 64.8398 106.849 65.1622C107.144 65.6246 107.442 66.0851 107.738 66.5474C108.033 67.0097 108.332 67.4884 108.635 67.9553C108.801 68.2105 108.979 68.4576 109.193 68.7727C109.265 68.642 109.33 68.5077 109.389 68.3704C109.527 67.9743 109.652 67.5738 109.788 67.1769C109.898 66.8562 110.023 66.541 110.13 66.2204C110.354 65.5492 110.56 64.8734 110.791 64.2049C111.057 63.4292 111.343 62.6607 111.617 61.8887C111.834 61.271 112.042 60.6497 112.264 60.0348L112.642 58.8059L111.873 58.8304Z" fill="white"/>
<path d="M90.0192 63.8307C90.0092 61.0739 92.3462 58.8468 95.0383 58.8867C97.716 58.9267 99.9505 61.2038 99.9133 63.9142C99.8744 66.6555 97.6208 68.87 94.9033 68.8264C93.5956 68.8103 92.3476 68.2756 91.4322 67.3394C90.5169 66.4031 90.0088 65.1415 90.0192 63.8307Z" fill="white"/>
<path d="M89.0523 63.8216C89.0523 65.3693 89.0523 66.9168 89.0523 68.4639C89.0413 68.5572 89.0188 68.6487 88.9852 68.7364C88.9018 68.7124 88.8212 68.6792 88.7451 68.6374C88.0456 68.1533 87.3515 67.661 86.6519 67.1778C85.5446 66.413 84.4319 65.6545 83.3237 64.8897C82.8652 64.5736 82.4175 64.2457 81.9554 63.9306C81.8861 63.8974 81.8122 63.8754 81.7361 63.8652C81.7206 63.9333 81.7102 64.0025 81.7053 64.0723C81.7053 65.3106 81.7053 66.5486 81.7053 67.7863C81.7053 68.0279 81.7053 68.2695 81.7053 68.513C81.7104 68.5451 81.708 68.578 81.6981 68.609C81.6883 68.64 81.6713 68.6683 81.6485 68.6915C81.6258 68.7148 81.5979 68.7323 81.5672 68.7428C81.5364 68.7533 81.5037 68.7564 81.4715 68.7519C80.8599 68.7519 80.2491 68.7519 79.6375 68.7519C79.4264 68.7519 79.3965 68.6265 79.3974 68.4539C79.401 67.3137 79.401 66.1738 79.3974 65.0341C79.3974 63.071 79.3974 61.1081 79.3974 59.1456C79.4078 59.0681 79.4285 58.9923 79.459 58.9203C79.5418 58.9406 79.6219 58.9711 79.6973 59.0112C80.2736 59.4208 80.8454 59.8377 81.419 60.2492C81.8285 60.5426 82.2417 60.8323 82.6522 61.1239C83.2666 61.5599 83.8803 61.9965 84.4935 62.4337C85.1051 62.8715 85.715 63.3129 86.3257 63.7525C86.3534 63.7784 86.3838 63.8012 86.4163 63.8206C86.5151 63.8624 86.6166 63.8979 86.7172 63.936C86.7395 63.8383 86.7543 63.739 86.7616 63.639C86.7616 62.1597 86.7616 60.68 86.7616 59.2001C86.7616 58.8822 86.7942 58.8477 87.1113 58.8495C87.6623 58.8495 88.2132 58.8658 88.7641 58.8604C88.9979 58.8604 89.0577 58.9621 89.0568 59.1774C89.0505 60.7215 89.0568 62.2729 89.0568 63.8206L89.0523 63.8216Z" fill="white"/>
<path d="M45.6934 63.9505C45.7079 63.807 45.7251 63.7135 45.7251 63.6199C45.7251 61.6574 45.7251 59.6945 45.7251 57.7313C45.7251 57.4307 45.746 57.4043 46.0396 57.4043C46.7041 57.4043 47.3686 57.4043 48.0331 57.4043C48.3049 57.4043 48.3339 57.437 48.3339 57.6977C48.3339 61.6616 48.3339 65.6251 48.3339 69.5884C48.338 69.6258 48.338 69.6636 48.3339 69.701C48.3212 69.761 48.3113 69.8545 48.275 69.8682C48.2434 69.8739 48.2109 69.873 48.1797 69.8653C48.1484 69.8576 48.1192 69.8434 48.0938 69.8237C47.7386 69.5566 47.3906 69.2787 47.0372 69.0107L44.3188 66.9525C43.4731 66.3118 42.6289 65.6706 41.7861 65.0287C41.2008 64.5809 40.6218 64.1258 40.0346 63.6799C40.0053 63.6592 39.9722 63.6445 39.9372 63.6367C39.9022 63.6289 39.866 63.6282 39.8307 63.6344C39.799 63.6426 39.7754 63.7489 39.7754 63.8106C39.7754 65.7484 39.7794 67.6885 39.7872 69.6311C39.7872 69.8246 39.7211 69.8954 39.5217 69.8927C38.8421 69.8827 38.1625 69.8872 37.4829 69.8927C37.1884 69.8927 37.1594 69.8672 37.1594 69.572C37.1594 66.0599 37.1594 62.5493 37.1594 59.0402C37.1594 58.5506 37.1467 58.0601 37.1449 57.5697C37.1449 57.5252 37.1793 57.4416 37.1965 57.4416C37.2677 57.4382 37.3383 57.4559 37.3995 57.4925C37.6922 57.7159 37.9758 57.9521 38.2667 58.18C39.1384 58.8622 40.0128 59.5425 40.8845 60.2228C41.8511 60.9798 42.8155 61.7367 43.7778 62.4936C44.3342 62.9296 44.8942 63.361 45.4533 63.7943C45.514 63.8397 45.5783 63.8751 45.6934 63.9505Z" fill="black"/>
<path d="M26.2677 61.5908C26.2677 60.2846 26.2722 58.9785 26.2677 57.6723C26.2677 57.4652 26.3447 57.4089 26.5323 57.4107C27.182 57.4171 27.8308 57.4198 28.4805 57.4107C28.6925 57.4107 28.7705 57.477 28.7696 57.6996C28.7623 60.0702 28.7569 62.4409 28.7696 64.8116C28.7691 65.1951 28.8225 65.5767 28.9281 65.9452C29.1429 66.66 29.634 67.1314 30.3544 67.3603C30.9697 67.5714 31.6432 67.5312 32.2292 67.2486C32.7874 66.9816 33.2115 66.5628 33.3646 65.9488C33.4616 65.5703 33.513 65.1815 33.5177 64.7907C33.5304 62.4191 33.5241 60.0484 33.5177 57.6778C33.5177 57.4834 33.573 57.4053 33.7742 57.4053C34.4311 57.4143 35.0881 57.4098 35.745 57.4098C35.9027 57.4098 36.0169 57.4252 36.0169 57.6396C36.0087 60.1456 36.0169 62.6526 36.0006 65.1595C36.007 65.8198 35.8742 66.474 35.6109 67.0793C35.3476 67.6845 34.9598 68.2273 34.4728 68.6719C33.419 69.6629 32.1486 70.0389 30.7132 69.9436C29.6698 69.8654 28.6809 69.4455 27.8989 68.7487C27.1169 68.0518 26.5851 67.1165 26.3855 66.0869C26.317 65.6862 26.28 65.2808 26.275 64.8743C26.2605 63.7843 26.2704 62.6844 26.2704 61.5898L26.2677 61.5908Z" fill="black"/>
<path d="M66.3598 57.3217C65.5274 57.3141 64.7017 57.4723 63.9308 57.7872C63.1599 58.102 62.4591 58.5672 61.869 59.1558C61.2789 59.7443 60.8113 60.4445 60.4933 61.2157C60.1754 61.9869 60.0134 62.8136 60.0168 63.6481C60.0086 67.1042 62.8032 70.0062 66.3389 69.9599C69.891 70.0008 72.6493 67.1087 72.6701 63.7017C72.6799 62.8657 72.5237 62.0362 72.2107 61.2613C71.8977 60.4864 71.4341 59.7816 70.8469 59.1879C70.2597 58.5943 69.5606 58.1235 68.7903 57.8032C68.02 57.4828 67.1938 57.3191 66.3598 57.3217ZM66.4504 67.4793C65.4364 67.4914 64.4593 67.0992 63.7338 66.389C63.0084 65.6789 62.5941 64.7089 62.5821 63.6926C62.57 62.6762 62.9613 61.6967 63.6698 60.9695C64.3782 60.2423 65.3458 59.8271 66.3598 59.815C68.4439 59.7732 70.2951 61.499 70.2362 63.6472C70.296 65.7018 68.5562 67.4748 66.4477 67.4793H66.4504Z" fill="black"/>
<path d="M58.6966 60.568C58.2524 59.6471 57.5664 58.8649 56.7122 58.3054C55.8668 57.745 54.9588 57.4225 53.9349 57.4298C52.6065 57.4398 51.2781 57.4298 49.9479 57.4298C49.6443 57.4298 49.6226 57.447 49.6226 57.744V63.698C49.6226 65.6963 49.6226 67.6961 49.6226 69.6974C49.6226 69.8791 49.6833 69.9699 49.8681 69.9699C51.173 69.9653 52.4787 69.9699 53.7845 69.9553C55.0018 69.9552 56.1826 69.5387 57.1317 68.7745C58.2653 67.8735 58.9567 66.6754 59.2748 65.2639C59.639 63.6281 59.4188 62.0567 58.6966 60.568ZM56.9632 64.0241C56.8599 65.3121 56.357 66.4111 55.237 67.146C54.8618 67.4041 54.4229 67.5537 53.9684 67.5783C53.4347 67.5974 52.8983 67.5719 52.3627 67.571C52.1498 67.571 52.0827 67.4802 52.0836 67.2658C52.0927 66.0805 52.0882 64.8961 52.0882 63.7116V60.1765C52.0882 59.8831 52.1181 59.8422 52.4108 59.8495C53.0124 59.864 53.6168 59.8631 54.2167 59.9185C55.0821 59.9967 55.6973 60.5162 56.1894 61.1838C56.8064 62.0276 57.0457 62.9977 56.9632 64.0241Z" fill="black"/>
<path d="M12.0005 57.1564C11.9971 57.2415 12.0115 57.3265 12.0427 57.4058C12.0739 57.4851 12.1212 57.557 12.1817 57.6169C12.8658 58.349 13.5346 59.0947 14.2115 59.835C14.9781 60.6733 15.7519 61.5081 16.5131 62.3474C17.1582 63.0549 17.7989 63.7661 18.4422 64.4746C18.6235 64.6781 18.6552 64.6645 18.8364 64.4601C19.2242 64.0205 19.6266 63.5926 20.0225 63.1594L21.5159 61.5244C22.2408 60.7306 22.9684 59.9367 23.6988 59.1428C24.1854 58.6115 24.6701 58.0774 25.1839 57.5142C25.2208 57.5752 25.2474 57.6418 25.2628 57.7113C25.2628 60.1117 25.2603 62.5124 25.2555 64.9133C25.2555 66.5065 25.257 68.0997 25.26 69.6928C25.26 69.8809 25.2048 69.9653 24.9991 69.9653C24.3575 69.9544 23.7157 69.9544 23.0735 69.9653C22.8923 69.9653 22.8098 69.909 22.8107 69.7219C22.8174 67.8496 22.8213 65.9773 22.8225 64.1049C22.8225 64.0395 22.8107 63.9732 22.7999 63.8615C22.7205 63.899 22.646 63.946 22.5779 64.0014C21.8578 64.7886 21.1398 65.5788 20.424 66.3721C19.899 66.9534 19.3771 67.5365 18.8582 68.1215C18.6606 68.344 18.6144 68.3531 18.4205 68.1387C17.765 67.4187 17.1114 66.6985 16.4596 65.9779C15.8706 65.333 15.2798 64.6905 14.6872 64.0504C14.6445 64.0108 14.5994 63.9738 14.5522 63.9396C14.5321 64.0171 14.5182 64.0961 14.5105 64.1758C14.5105 66.0187 14.5105 67.8608 14.5168 69.7028C14.5168 69.9181 14.4262 69.9599 14.245 69.959C13.5808 69.959 12.9157 69.959 12.2515 69.959C12.1219 69.959 12.0041 69.959 12.0041 70.1406" fill="black"/>
<defs>
<radialGradient id="paint0_radial_39_3150" cx="0" cy="0" r="1" gradientUnits="userSpaceOnUse" gradientTransform="translate(96.0956 63.3078) rotate(-99.159) scale(13.576 22.4278)">
<stop offset="0.18" stop-color="#B82325"/>
<stop offset="0.49" stop-color="#C52528"/>
<stop offset="0.83" stop-color="#E72A30"/>
</radialGradient>
</defs>
</svg>
