<svg width="128" height="128" viewBox="0 0 128 128" fill="none" xmlns="http://www.w3.org/2000/svg">
<rect width="128" height="128" fill="#0F75BD"/>
<path d="M54.0159 62.561V70.3549C54.091 71.3516 53.7895 72.3401 53.1708 73.1251C52.8996 73.4247 52.5651 73.6602 52.1915 73.8145C51.8179 73.9688 51.4147 74.038 51.0111 74.0171C50.6078 74.0348 50.2056 73.9641 49.8325 73.81C49.4595 73.6559 49.1246 73.4221 48.8513 73.1251C48.2688 72.3238 47.9863 71.3433 48.0531 70.3549V60.9647C48.1159 59.8231 48.1159 58.6789 48.0531 57.5373C47.9665 56.8125 47.6731 56.1279 47.208 55.5653C46.9465 55.2846 46.6247 55.067 46.2669 54.9287C45.909 54.7905 45.5245 54.7352 45.1422 54.7671C44.3896 54.6723 43.626 54.8105 42.9544 55.1631C42.2828 55.5157 41.7354 56.0658 41.3861 56.7391C40.618 58.5802 40.2653 60.5681 40.3531 62.561V70.3549C40.4282 71.3516 40.1267 72.3401 39.508 73.1251C39.2368 73.4247 38.9023 73.6602 38.5287 73.8145C38.1551 73.9688 37.7519 74.038 37.3483 74.0171C36.952 74.0343 36.5569 73.9632 36.1915 73.8089C35.8261 73.6546 35.4995 73.421 35.2355 73.1251C34.6168 72.3401 34.3152 71.3516 34.3903 70.3549V53.7812C34.319 52.8867 34.5872 51.9983 35.1416 51.2927C35.3864 51.0137 35.6906 50.793 36.0318 50.6468C36.373 50.5005 36.7426 50.4325 37.1135 50.4476C37.4804 50.4299 37.8468 50.4921 38.1872 50.6299C38.5277 50.7677 38.8342 50.9779 39.0855 51.2458C39.3668 51.5364 39.5834 51.8833 39.7209 52.2637C39.8585 52.644 39.914 53.0492 39.8836 53.4525V53.969C40.7848 52.8928 41.8847 52.0002 43.1233 51.3397C44.3254 50.7683 45.6423 50.4792 46.9733 50.4946C48.2757 50.4637 49.5657 50.7539 50.7294 51.3397C51.7593 51.9873 52.6012 52.8939 53.1708 53.969C54.0285 52.8866 55.0992 51.9917 56.3166 51.3397C57.4686 50.7684 58.7399 50.4787 60.0257 50.4946C61.4611 50.4432 62.8852 50.7668 64.1574 51.4336C65.2701 52.0275 66.1599 52.9667 66.6928 54.1098C67.2609 55.6072 67.5165 57.205 67.444 58.8049V70.3549C67.5109 71.3433 67.2284 72.3238 66.6458 73.1251C66.3635 73.4233 66.0203 73.6573 65.6395 73.8112C65.2588 73.9651 64.8494 74.0354 64.4391 74.0171C63.721 73.9749 63.0475 73.655 62.5611 73.1251C61.9424 72.3401 61.6409 71.3516 61.716 70.3549V60.636C61.7758 59.6353 61.7758 58.6319 61.716 57.6312C61.6266 56.9122 61.3147 56.2391 60.8239 55.7062C60.5419 55.443 60.2089 55.2405 59.8454 55.1113C59.482 54.9821 59.0959 54.9288 58.7111 54.9549C57.9352 54.958 57.1799 55.2044 56.5513 55.6592C55.8458 56.0936 55.2891 56.7322 54.955 57.4903C54.3326 59.1084 54.0142 60.8274 54.0159 62.561Z" fill="white"/>
<path d="M78.5714 74.7683L79.1348 73.4537L71.9513 55.4714C71.5977 54.7524 71.3902 53.9705 71.3409 53.1708C71.4037 52.68 71.6169 52.2208 71.9513 51.8561C72.1951 51.4242 72.5523 51.067 72.9842 50.8232C73.4089 50.5677 73.8972 50.4375 74.3927 50.4476C74.7473 50.4155 75.1043 50.4716 75.432 50.6109C75.7596 50.7501 76.0478 50.9682 76.2708 51.2458C76.7762 51.9247 77.1577 52.6877 77.3976 53.4994L82.3275 67.5848L87.0226 54.2976C87.3982 53.2021 87.7269 52.3569 88.0086 51.7622C88.1952 51.2721 88.5218 50.8476 88.9476 50.5415C89.372 50.2894 89.864 50.1746 90.3562 50.2128C90.8013 50.1999 91.241 50.3139 91.6238 50.5415C92.0241 50.7531 92.3513 51.0803 92.5629 51.4805C92.7715 52.022 92.788 52.6186 92.6098 53.1708C92.6098 53.4525 92.6098 53.8281 92.3281 54.3445C92.2079 54.856 92.051 55.3581 91.8586 55.847L84.2995 75.6604C83.8062 77.0871 83.1608 78.4566 82.3745 79.7451C81.7802 80.7159 80.9373 81.5102 79.933 82.0458C78.6195 82.628 77.1899 82.901 75.7543 82.8439C74.4619 82.9087 73.1694 82.7172 71.9513 82.2805C71.5531 82.1221 71.2156 81.8411 70.9876 81.4781C70.7597 81.1152 70.6533 80.6891 70.6836 80.2616C70.6689 79.9788 70.7112 79.6959 70.8079 79.4297C70.9047 79.1635 71.0541 78.9195 71.247 78.7122C71.7735 78.3216 72.4251 78.1378 73.0781 78.1958C73.3737 78.1499 73.6746 78.1499 73.9702 78.1958H74.9562C75.4873 78.22 76.017 78.1237 76.5056 77.9141C76.9273 77.657 77.2814 77.3028 77.5385 76.8811C77.9437 76.2083 78.2893 75.5013 78.5714 74.7683Z" fill="white"/>
</svg>
