<svg width="129" height="129" viewBox="0 0 129 129" fill="none" xmlns="http://www.w3.org/2000/svg">
<rect width="128" height="128" fill="#F4CD0A"/>
<path d="M22.6484 125.438L3.58679 79.8336L36.9959 68.7655L48.3714 113.96L22.6484 125.438Z" fill="#818071"/>
<path d="M24.3907 122.159L9.12084 85.675L7.0712 86.5973L4.50916 80.2435L36.4835 69.5853L37.8158 74.8119L33.819 75.9392L44.2722 112.115L40.6853 113.243L30.1297 77.7839L22.7509 80.2435L36.586 116.727L33.5116 118.059L19.2666 81.4732L13.0152 84.2402L27.3626 120.519L24.3907 122.159Z" fill="#CDCBA4"/>
<path d="M24.2882 80.8583L27.7726 79.4236L32.5892 89.9792L28.7974 92.1313L24.2882 80.8583Z" fill="#CDCBA4"/>
<path d="M29.6173 95.1033C29.8223 95.0009 32.9992 93.4636 32.9992 93.4636L37.4059 105.044L34.229 107.299L29.6173 95.1033Z" fill="#CDCBA4"/>
<path d="M19.8815 99.1002C20.2914 98.7927 23.2634 96.948 23.4683 97.358C23.6733 97.7679 28.3875 110.168 28.3875 110.168C28.3875 110.168 24.9031 112.115 25.0056 112.013C25.0056 111.808 19.8815 99.1002 19.8815 99.1002Z" fill="#CDCBA4"/>
<path d="M18.8566 96.4356L22.4435 94.0786L18.1392 83.0105L14.5524 84.6502L18.8566 96.4356Z" fill="#CDCBA4"/>
<path fill-rule="evenodd" clip-rule="evenodd" d="M10.2482 71.84L12.1953 77.374L14.6549 76.2467L13.0152 71.0201L24.6981 66.6134L26.6453 72.5574L29.1049 71.5325L27.3627 66.101L31.9744 64.5638C31.9744 64.5638 28.49 55.2379 28.3875 55.0329C28.285 54.828 0.614868 63.9489 0.614868 63.9489L4.30422 74.1971L10.2482 71.84ZM26.6453 57.595C26.6453 57.595 4.50917 65.0761 4.09924 65.1786C4.09924 65.1786 6.45633 69.8928 6.45633 70.3027C6.45633 70.6102 28.49 62.3091 28.49 62.3091L26.6453 57.595Z" fill="#4C5243"/>
<path d="M11.1705 67.4332L10.863 67.2282C10.9655 67.1258 11.1705 66.8183 11.3754 66.5109C13.835 62.6166 14.3474 62.1041 14.7574 62.3091C15.1673 62.5141 15.2698 63.7439 15.2698 64.4612L17.7293 62.0017V62.4116C17.8318 63.7439 18.0368 64.9736 18.2417 65.0761C18.5492 64.9736 20.1889 63.2315 21.5212 61.4893L21.8286 61.6942C20.9063 62.8215 18.8566 65.3836 18.2417 65.3836C17.7293 65.3836 17.5244 64.0513 17.4219 62.8215L14.9623 65.2811V64.8712C14.9623 63.9488 14.8598 62.8215 14.6549 62.6166C14.1425 62.8215 12.4003 65.691 11.7854 66.7158C11.4779 67.0233 11.273 67.3307 11.1705 67.4332Z" fill="#213040"/>
<path d="M15.4748 65.1786C14.1425 65.1786 12.7078 64.8712 10.9656 64.1538L11.0681 63.8464C14.04 65.0762 16.4996 65.1786 18.1393 64.1538C20.189 62.924 20.3939 60.4645 20.3939 60.4645H20.7014C20.7014 60.567 20.3939 63.129 18.2418 64.3588C17.5244 64.8712 16.6021 65.1786 15.4748 65.1786Z" fill="#213040"/>
<path d="M128 122.056C120.314 121.954 112.32 121.646 112.423 121.339C112.73 120.621 119.084 82.703 119.084 82.703L128 84.6502" fill="#D3D3AE"/>
<path d="M128 101.662C127.488 101.56 126.975 101.56 126.565 101.457C126.873 97.0505 127.18 92.4388 127.488 87.9296L128.102 88.1346V87.0073C123.593 86.0849 119.699 85.1626 119.289 84.9576L118.879 85.9825C119.391 86.1874 122.671 86.9048 126.463 87.7247C126.258 91.0041 125.95 96.1282 125.54 101.355C121.236 100.637 117.649 100.227 117.137 100.33L117.342 101.457C117.854 101.457 121.134 101.867 125.438 102.585C125.13 106.581 124.926 110.578 124.721 113.55C120.314 113.14 116.42 112.73 115.907 112.833L116.01 113.96C116.42 113.858 120.109 114.267 124.618 114.677C124.413 117.137 124.311 118.674 124.311 118.982L124.823 119.084L125.335 119.289C125.335 119.187 125.54 117.547 125.745 114.882C126.463 114.985 127.283 115.087 128.102 115.087L128 101.662ZM128 113.755C127.283 113.653 126.463 113.55 125.745 113.55C125.95 110.681 126.258 106.786 126.463 102.585C126.975 102.687 127.488 102.79 128 102.79" fill="#828363"/>
<path d="M83.5228 67.7406C83.5228 67.7406 90.799 56.2626 100.842 57.185C110.886 58.1073 118.879 71.8399 118.879 71.8399L83.5228 67.7406Z" fill="#7A7E65"/>
<path d="M124.311 77.2715C124.311 76.7591 125.438 70.7126 124.311 70.6102C123.183 70.6102 80.5508 66.3059 80.5508 66.3059V73.3772L124.311 77.2715Z" fill="#7A7E65"/>
<path fill-rule="evenodd" clip-rule="evenodd" d="M84.6782 66.1943L117.046 69.44C116.827 69.1 117.405 70.4569 117.063 69.9655C116.165 68.6766 114.866 66.9498 113.258 65.1963C110.022 61.6665 105.622 58.1261 100.797 57.6829C95.98 57.2406 91.7844 59.771 88.7499 62.4894C87.2394 63.8426 86.0354 65.226 85.2089 66.2717C84.8779 66.6905 84.8824 65.9093 84.6782 66.1943ZM118.018 70.056C118.45 69.8045 119.311 71.588 119.311 71.588L119.304 71.5767L119.286 71.5454C119.27 71.5182 119.246 71.4783 119.215 71.4267C119.152 71.3233 118.198 69.3887 118.077 69.1972C117.836 68.8143 118.341 70.0519 117.883 69.3942C116.968 68.0794 115.641 66.3154 113.995 64.5205C110.725 60.9534 106.105 57.1663 100.888 56.6871C95.6613 56.2071 91.1971 58.9546 88.0827 61.7446C86.5188 63.1456 85.276 64.574 84.4243 65.6516C83.9981 66.1909 83.6689 66.6435 83.4455 66.9624C83.3338 67.122 83.5228 66.103 83.1906 67.3352C83.1617 67.3787 83.4139 66.2673 83.3989 66.2905L83.1072 67.4625L83.1025 67.4698L83.1012 67.4719C83.1012 67.4719 83.1005 67.473 83.5228 67.7407L83.1005 67.473L82.9484 67.0005L118.952 70.6677L119.311 71.588L118.018 70.056Z" fill="#44463D"/>
<path fill-rule="evenodd" clip-rule="evenodd" d="M80.601 65.8085L80.5508 66.306C80.601 65.8085 80.601 65.8085 80.601 65.8085L82.435 65.9934C83.6029 66.1111 85.2726 66.2792 87.2797 66.481C91.2941 66.8845 96.6582 67.4225 102.058 67.9605C107.457 68.4986 112.891 69.0365 117.046 69.44C119.123 69.6417 120.88 69.8098 122.153 69.9274C122.789 69.9862 123.303 70.0323 123.675 70.0636C123.862 70.0793 124.011 70.0912 124.122 70.0991C124.177 70.1031 124.221 70.106 124.255 70.1078C124.272 70.1088 124.285 70.1094 124.295 70.1098L124.307 70.1101C124.31 70.1102 124.311 70.1102 124.311 70.1102H124.333L124.356 70.1123C124.765 70.1494 124.985 70.4599 125.092 70.7044C125.202 70.9544 125.256 71.2645 125.284 71.5776C125.341 72.2132 125.302 73.0312 125.231 73.8313C125.16 74.6381 125.053 75.4549 124.964 76.097C124.947 76.2276 124.929 76.35 124.914 76.4636C124.89 76.632 124.869 76.7809 124.852 76.9085C124.838 77.0147 124.827 77.1015 124.82 77.1681C124.816 77.2014 124.814 77.2275 124.812 77.2471C124.811 77.2596 124.811 77.267 124.811 77.2703L124.811 77.2723V77.818L80.0508 73.8347V65.7529L80.601 65.8085ZM81.0508 66.8589V72.9197L123.867 76.7301C123.884 76.6102 123.903 76.4717 123.924 76.3199C123.94 76.2069 123.957 76.0864 123.974 75.9608C124.062 75.3219 124.166 74.5247 124.235 73.743C124.305 72.9546 124.337 72.2098 124.288 71.6669C124.263 71.3907 124.221 71.2075 124.176 71.1052C123.86 71.0864 123.11 71.0201 122.061 70.9231C120.786 70.8053 119.027 70.6371 116.949 70.4353C112.793 70.0317 107.358 69.4937 101.958 68.9556C96.5587 68.4176 91.1942 67.8795 87.1797 67.476C85.1725 67.2742 83.5027 67.1061 82.3347 66.9884L81.0508 66.8589Z" fill="#44463D"/>
<path d="M117.034 121.544L75.2218 119.289L79.4236 71.2251L120.929 76.1442L120.826 77.1691C117.444 120.109 117.342 120.519 117.342 120.621L117.034 121.544ZM77.6814 117.137L115.292 119.187C115.805 113.96 117.649 89.2619 118.572 78.0914L81.4732 73.6847L77.6814 117.137Z" fill="#C8C8AA"/>
<path d="M115.19 120.519L119.391 77.3739C119.391 77.3739 80.5508 72.5572 80.5508 73.0697C80.5508 73.5821 76.8615 117.649 76.8615 117.649L115.19 120.519Z" fill="#7C7E62"/>
<path d="M113.55 118.572L112.525 118.162L111.5 117.854C111.705 116.727 113.858 95.4108 115.292 80.6534L85.9824 77.7839L86.1874 75.5293L117.752 78.6038L117.649 79.7311C113.858 117.752 113.55 118.367 113.55 118.572Z" fill="#464F47"/>
<path d="M107.606 92.9513H111.5L112.628 82.3956H107.606V92.9513Z" fill="#454733"/>
<path d="M100.227 104.122H104.019L105.249 93.5662H100.227V104.122Z" fill="#454733"/>
<path d="M92.7462 115.19H96.5381L97.6654 104.634H92.7462V115.19Z" fill="#454733"/>
<path d="M107.606 92.9513H111.5L112.628 82.3956H107.606V92.9513Z" stroke="#D5D5AF" stroke-width="1.5" stroke-miterlimit="10"/>
<path d="M100.227 104.122H104.019L105.249 93.5662H100.227V104.122Z" stroke="#D5D5AF" stroke-width="1.5" stroke-miterlimit="10"/>
<path d="M92.7462 115.19H96.5381L97.6654 104.634H92.7462V115.19Z" stroke="#D5D5AF" stroke-width="1.5" stroke-miterlimit="10"/>
<path d="M91.6189 75.2218C91.8238 75.2218 96.333 75.6317 96.333 75.6317C96.333 75.6317 93.8735 82.2931 96.333 85.265C97.2554 86.3923 97.6653 88.032 97.9727 89.5693C98.4851 92.9512 97.6653 96.4356 95.6156 99.2026C95.3082 99.6125 95.1032 99.8175 94.8983 99.92C94.1809 100.125 93.771 98.4852 93.771 98.4852C93.771 98.4852 91.2089 99.4075 89.5692 98.7927C89.5692 98.7927 92.8486 96.2306 93.4635 94.3859C93.4635 94.3859 94.8983 91.4139 93.0536 86.5973C92.9511 86.3923 92.8486 86.1874 92.7462 85.9824C91.5164 83.6253 91.004 80.9608 91.2089 78.2963L91.6189 75.2218Z" fill="white"/>
<path d="M87.7246 76.2467C87.8271 76.2467 90.0817 76.4517 90.0817 76.4517C90.0817 76.4517 88.8519 79.8336 90.0817 81.3708C90.4916 81.8832 90.799 82.7031 90.9015 83.5229C91.209 85.2651 90.799 87.0073 89.7742 88.3396C89.6717 88.5445 89.4668 88.647 89.4668 88.7495C89.0569 88.852 88.8519 88.0321 88.8519 88.0321C88.8519 88.0321 87.6221 88.4421 86.8022 88.1346C86.8022 88.1346 88.442 86.8024 88.7494 85.88C88.7494 85.88 89.4668 84.3428 88.5444 81.9857C88.5444 81.8832 88.442 81.7807 88.442 81.6782C87.8271 80.4485 87.5196 79.1162 87.7246 77.7839V76.2467Z" fill="white"/>
<path d="M91.6189 75.2218C91.8238 75.2218 96.333 75.6317 96.333 75.6317C96.333 75.6317 93.8735 82.2931 96.333 85.265C97.2554 86.3923 97.6653 88.032 97.9727 89.5693C98.4851 92.9512 97.6653 96.4356 95.6156 99.2026C95.3082 99.6125 95.1032 99.8175 94.8983 99.92C94.1809 100.125 93.771 98.4852 93.771 98.4852C93.771 98.4852 91.2089 99.4075 89.5692 98.7927C89.5692 98.7927 92.8486 96.2306 93.4635 94.3859C93.4635 94.3859 94.8983 91.4139 93.0536 86.5973C92.9511 86.3923 92.8486 86.1874 92.7462 85.9824C91.5164 83.6253 91.004 80.9608 91.2089 78.2963L91.6189 75.2218Z" stroke="#626362" stroke-miterlimit="10"/>
<path d="M87.7246 76.2467C87.8271 76.2467 90.0817 76.4517 90.0817 76.4517C90.0817 76.4517 88.8519 79.8336 90.0817 81.3708C90.4916 81.8832 90.799 82.7031 90.9015 83.5229C91.209 85.2651 90.799 87.0073 89.7742 88.3396C89.6717 88.5445 89.4668 88.647 89.4668 88.7495C89.0569 88.852 88.8519 88.0321 88.8519 88.0321C88.8519 88.0321 87.6221 88.4421 86.8022 88.1346C86.8022 88.1346 88.442 86.8024 88.7494 85.88C88.7494 85.88 89.4668 84.3428 88.5444 81.9857C88.5444 81.8832 88.442 81.7807 88.442 81.6782C87.8271 80.4485 87.5196 79.1162 87.7246 77.7839V76.2467Z" stroke="#626362" stroke-miterlimit="10"/>
<path d="M46.5268 113.55L31.9744 47.9616L83.1129 42.3251L84.0352 113.55H46.5268Z" fill="#CECDA0"/>
<path d="M45.092 81.9856L59.6445 80.0385V86.2899L47.0392 90.2867L45.092 81.9856Z" fill="#7C7F68"/>
<path d="M64.2562 79.3212H79.2186V87.0073L65.0761 86.2899L64.2562 79.3212Z" fill="#7C7F68"/>
<path d="M34.5364 50.2162L81.4731 45.6045V71.4299C81.4731 71.4299 45.7069 73.787 41.0952 76.964L34.5364 50.2162Z" fill="#7C7F68"/>
<path d="M58.9271 73.2747C67.0774 73.2747 73.6845 66.6676 73.6845 58.5173C73.6845 50.367 67.0774 43.7599 58.9271 43.7599C50.7768 43.7599 44.1697 50.367 44.1697 58.5173C44.1697 66.6676 50.7768 73.2747 58.9271 73.2747Z" fill="#D1D0A0"/>
<path d="M58.9271 64.8711C62.4363 64.8711 65.281 62.0264 65.281 58.5172C65.281 55.0081 62.4363 52.1633 58.9271 52.1633C55.418 52.1633 52.5732 55.0081 52.5732 58.5172C52.5732 62.0264 55.418 64.8711 58.9271 64.8711Z" fill="#E2DECB"/>
<path d="M58.9271 70.2002C52.4707 70.2002 47.2441 64.9737 47.2441 58.5173C47.2441 52.0609 52.4707 46.8344 58.9271 46.8344C65.3835 46.8344 70.61 52.0609 70.61 58.5173C70.61 64.9737 65.3835 70.2002 58.9271 70.2002ZM58.9271 48.0641C53.0856 48.0641 48.3714 52.7783 48.3714 58.6198C48.3714 64.4612 53.0856 69.1754 58.9271 69.1754C64.7686 69.1754 69.4827 64.4612 69.4827 58.6198C69.4827 52.7783 64.7686 48.0641 58.9271 48.0641Z" fill="#777356"/>
<path d="M58.9271 58.2098C58.5171 57.2875 58.2097 56.2627 57.9022 55.3403C57.6973 54.8279 57.4923 54.418 57.4923 53.9056C57.4923 53.3932 57.4923 52.8808 57.6973 52.2659H57.7998C58.2097 52.6758 58.4146 53.1882 58.6196 53.7006C58.8246 54.213 58.7221 54.7254 58.8246 55.2378C58.9271 56.2627 59.0295 57.2875 59.132 58.3123L58.9271 58.2098Z" fill="#706E53"/>
<path d="M59.0296 58.6198C58.5172 59.7471 58.0048 60.8744 57.4924 61.8992C57.1849 62.4116 57.0825 63.0265 56.6725 63.5389C56.2626 64.0513 55.8527 64.4612 55.3403 64.8712L55.2378 64.7687C55.2378 64.0513 55.4428 63.5389 55.7502 62.924C55.9552 62.4116 56.4676 61.8992 56.775 61.3868C57.3899 60.4644 58.1073 59.4396 59.0296 58.6198Z" fill="#706E53"/>
<path d="M26.5428 48.9864C26.9528 48.9864 89.7742 42.1201 89.7742 42.1201L52.0609 12.2979L26.5428 48.9864Z" fill="#C9C7AB"/>
<path d="M54.008 22.1362C54.008 22.1362 38.3282 41.7103 39.3531 41.5053C40.3779 41.1979 73.1721 37.816 73.1721 37.816L54.008 22.1362Z" fill="#7C7C66"/>
<path fill-rule="evenodd" clip-rule="evenodd" d="M54.0287 27.272L65.1144 36.1405L45.5103 38.1243L54.0287 27.272ZM54.1921 28.6833L47.7482 36.8927L62.578 35.3921L54.1921 28.6833Z" fill="#BEC0A4"/>
<path fill-rule="evenodd" clip-rule="evenodd" d="M37.3495 68.1216L48.9589 114.245L22.3847 126.103L2.91748 79.5285L37.3495 68.1216ZM4.25625 80.1385L22.9124 124.773L47.7841 113.675L36.6425 69.4093L4.25625 80.1385Z" fill="black"/>
<path fill-rule="evenodd" clip-rule="evenodd" d="M83.6057 41.7678L84.5417 114.05H46.1256L31.3655 47.5258L83.6057 41.7678ZM32.5832 48.3976L46.928 113.05H83.5287L82.62 42.8825L32.5832 48.3976Z" fill="black"/>
<path fill-rule="evenodd" clip-rule="evenodd" d="M51.9539 11.5759L91.0412 42.4846L89.8285 42.6172L89.7741 42.1202C89.8285 42.6172 89.8289 42.6171 89.8285 42.6172L80.0061 43.6901C74.1102 44.3338 66.2447 45.1921 58.3663 46.0504C50.488 46.9087 42.5967 47.767 36.6494 48.4107C33.6758 48.7326 31.1879 49.0008 29.4305 49.1886C28.5519 49.2825 27.8555 49.3563 27.3722 49.4066C27.1307 49.4318 26.9417 49.4512 26.8096 49.4643C26.7437 49.4709 26.6909 49.4759 26.6523 49.4794L26.6472 49.4799C26.6226 49.4822 26.5756 49.4865 26.5428 49.4865H25.5859L51.9539 11.5759ZM88.5071 41.7556L52.1677 13.0199L27.5735 48.3801C28.0277 48.3324 28.6166 48.2699 29.3243 48.1942C31.0809 48.0065 33.5683 47.7383 36.5418 47.4165C42.4888 46.7728 50.3797 45.9145 58.258 45.0562C66.1363 44.198 74.0017 43.3397 79.8976 42.696L88.5071 41.7556Z" fill="black"/>
<path fill-rule="evenodd" clip-rule="evenodd" d="M53.0989 16.3954L82.1008 40.1339L31.5087 45.5046L53.0989 16.3954ZM53.2772 17.8336L33.6697 44.2696L79.6157 39.3921L53.2772 17.8336Z" fill="black"/>
<path d="M128 128L13.3226 128.512C13.3226 128.512 40.0704 109.143 64.1537 110.271C88.237 111.398 94.2834 117.034 94.2834 117.034C94.2834 117.034 114.472 120.621 128.102 116.727" fill="#058E5B"/>
</svg>
