<svg width="129" height="129" viewBox="0 0 129 129" fill="none" xmlns="http://www.w3.org/2000/svg">
<rect width="128" height="128" transform="translate(0.333008 0.833496)" fill="#5DA82A"/>
<path d="M21.5819 57.8184C19.6945 58.0352 18.5595 59.2085 17.8326 60.8536C17.2587 62.1416 17.0419 63.5062 17.0546 64.909C17.0546 65.4701 17.0546 66.0313 17.0419 66.6051C17.0291 67.0515 16.9399 67.5106 17.1312 67.9442C16.8506 68.3905 17.1694 68.8241 17.1439 69.2705C17.1822 69.6403 17.2204 69.9974 17.2587 70.3672C17.3735 70.8136 17.501 71.2599 17.6158 71.7063C17.654 72.1016 17.7688 72.4587 17.9601 72.803C17.9856 73.4407 18.3299 73.9763 18.4447 74.5884C17.348 74.6777 17.1822 74.5629 16.9016 73.4789C16.6211 72.3694 16.3787 71.2472 16.1237 70.1377C16.1364 70.0101 16.1492 69.8826 16.0472 69.7678C16.0344 69.5255 16.0217 69.2832 16.0089 69.0409C15.9962 68.9517 15.9962 68.8624 15.9834 68.7731C15.9707 68.6201 15.9452 68.467 15.9324 68.314C15.9452 66.7072 15.8431 65.0875 16.0472 63.4807C16.2512 61.7846 16.7613 60.2032 17.9984 58.9407C18.0239 58.9152 18.0621 58.8897 18.0876 58.8642C18.3809 58.6219 18.687 58.3923 18.9803 58.15C19.1716 58.1755 19.3374 58.099 19.5032 58.048C20.1791 57.8694 20.8677 57.6654 21.5819 57.8184Z" fill="#EAE7E7"/>
<path d="M70.5528 58.8515C70.5655 58.7877 70.5783 58.7239 70.6038 58.6602C70.6293 58.6091 70.6548 58.5454 70.6676 58.4944C70.6931 58.3158 70.6931 58.1373 70.7441 57.9715C70.9736 57.2063 71.1394 57.1043 72.1469 57.1553C72.0831 57.9205 71.726 58.6092 71.522 59.3361C70.9991 61.1597 70.7186 62.9961 70.7696 64.8963C70.6803 65.1386 70.7058 65.3809 70.7441 65.6232C70.7696 66.3501 70.7951 67.077 70.8333 67.8039C70.9099 68.3268 70.9864 68.8497 71.0756 69.3853C71.1012 69.8827 71.42 70.2652 71.5475 70.7243C71.624 71.1579 71.8791 71.4895 72.1469 71.8211C72.3382 72.3057 72.708 72.6373 73.1161 72.9178C73.6007 73.4662 74.2894 73.6192 74.9398 73.8615C74.774 73.8743 74.6209 73.887 74.4552 73.8998C72.0831 73.7978 70.9354 72.2802 70.2467 70.2525C69.9151 69.2833 69.7366 68.2758 69.7111 67.2428C69.6728 65.4829 69.6218 63.7358 69.8386 61.9886C69.8641 61.7463 69.9024 61.5168 69.9406 61.2745C69.9917 60.6496 70.1192 60.0247 70.3232 59.4253C70.4508 59.3998 70.4508 59.3106 70.438 59.2085C70.4508 59.1703 70.4508 59.132 70.4635 59.0938C70.5783 59.0427 70.5655 58.9535 70.5528 58.8515Z" fill="#EAE7E7"/>
<path d="M91.4164 58.15C90.8808 58.2648 90.7788 58.6729 90.6768 59.1448C90.3069 60.8919 90.2687 62.6773 90.1156 64.4372C90.1029 64.9601 90.1029 65.4829 90.0901 66.0058C90.0901 66.5287 90.0901 67.0643 90.0774 67.5871C90.0774 68.11 90.0774 68.6329 90.0774 69.1557C90.0774 69.5638 90.0774 69.9592 90.0774 70.3673C90.1156 70.7371 90.1539 71.0942 90.1922 71.464C90.2304 71.8721 90.2687 72.2674 90.3069 72.6755C90.3834 73.1984 90.46 73.7212 90.409 74.2569C90.2432 74.2569 90.0774 74.2186 89.9371 74.2569C89.3377 74.4227 89.3505 74.3716 89.2357 73.6957C88.8531 71.4257 89.0316 69.1302 88.9296 66.8602C88.9296 66.6562 88.9296 66.4521 88.9424 66.2608C88.9424 65.8528 88.9424 65.4574 88.9551 65.0493C88.9679 64.6923 88.9806 64.3224 88.9806 63.9653C88.9806 63.8888 88.9934 63.7995 88.9934 63.723C89.0317 63.672 89.0444 63.6083 88.9934 63.5572C89.1209 63.3787 89.0827 63.1874 89.0699 62.9961C89.0827 62.6773 89.0954 62.3457 89.1209 62.0269C89.2739 61.7081 89.2102 61.3765 89.2229 61.0449C89.3377 60.9047 89.3505 60.7389 89.325 60.5731C89.3377 60.4456 89.3505 60.3308 89.3505 60.2033C89.478 60.063 89.478 59.8972 89.4525 59.7186C89.4652 59.5656 89.4907 59.3998 89.4907 59.2468C89.5035 58.4306 89.5928 58.3286 90.4217 58.2648C90.7533 58.2266 91.0721 58.0608 91.4164 58.15Z" fill="#EAE7E7"/>
<path d="M34.8066 57.2829C34.5516 59.0173 34.7939 60.7007 35.4443 62.3075C35.8396 63.3022 36.3625 64.2332 37.2297 64.9091C37.2807 64.9474 37.3189 64.9856 37.3699 65.0239C37.8545 65.5722 38.5177 65.7763 39.1808 66.0058C39.1936 66.4522 39.1936 66.8858 39.2063 67.3321C39.2063 67.855 39.2063 68.3779 39.2063 68.9007C39.2574 69.3471 39.3466 69.7934 39.3084 70.2398C39.3084 70.7244 39.3084 71.209 39.3084 71.6936C39.3084 72.242 39.3084 72.7903 39.3084 73.3515C39.1043 73.3642 38.9003 73.3897 38.6962 73.4025C38.607 73.275 38.5304 73.2877 38.4667 73.4152C38.4284 73.4152 38.3774 73.428 38.3392 73.428C38.3009 73.4152 38.2626 73.4025 38.2244 73.377C38.2244 73.3387 38.2116 73.3005 38.2116 73.2622C38.2116 73.1857 38.2116 73.0964 38.2116 73.0199C38.2116 71.9614 38.2371 70.9029 38.1224 69.8444C38.1351 69.8317 38.1479 69.8189 38.1479 69.8062C38.1351 69.7807 38.1224 69.7552 38.1096 69.7424C38.1096 68.6329 38.0968 67.5234 38.1096 66.4139C38.1096 66.1844 38.1096 65.9803 37.829 65.8911C36.1202 65.3554 35.1637 64.0547 34.4495 62.4988C34.4113 62.4095 34.3603 62.3203 34.322 62.231C34.0542 61.8229 34.2072 61.2363 33.7736 60.9047C33.7481 60.7772 33.7864 60.6241 33.6589 60.5221C33.6844 60.3691 33.7099 60.2033 33.7354 60.0503C33.7609 59.8462 33.7481 59.6294 33.6461 59.4381C33.6334 58.9918 33.6334 58.5454 33.6206 58.0991C33.6206 58.0608 33.6206 58.0226 33.6206 57.9843C33.6589 57.7803 33.6844 57.5762 33.7226 57.3722C33.7354 57.1044 33.9394 57.1171 34.1307 57.1171C34.2455 57.1299 34.373 57.1426 34.4878 57.1426C34.5516 57.2829 34.6918 57.2702 34.8066 57.2829Z" fill="#EAE7E7"/>
<path d="M62.3399 56.8364C59.7383 57.3338 58.3738 59.1829 57.3791 61.4274C56.8945 62.5369 56.5501 63.6974 56.5119 64.9217C56.4864 65.0875 56.4481 65.2405 56.4226 65.4063C56.2951 66.2225 56.5246 67.0132 56.5374 67.8166C56.6266 68.2374 56.6777 68.6583 56.8689 69.0409C56.9837 69.653 57.2005 70.2396 57.5959 70.737C57.6851 71.1706 57.9529 71.4767 58.3228 71.7062C58.7181 72.1398 59.0369 72.6499 59.6618 72.803C60.1719 73.16 60.7968 73.1856 61.3579 73.3768C59.7001 73.5554 58.3483 72.956 57.226 71.7827C56.9965 71.5404 56.8307 71.2471 56.6394 70.9666C56.6139 70.9155 56.5884 70.8773 56.5629 70.8263C56.1931 70.1376 55.9125 69.4107 55.6574 68.6583C55.6447 68.5818 55.6447 68.4925 55.6319 68.416C55.6064 68.3522 55.5937 68.2885 55.5682 68.2247C55.5554 68.0844 55.5299 67.9569 55.5172 67.8166C55.3641 66.6433 55.3769 65.4701 55.5172 64.2968C55.5554 64.0928 55.5937 63.8887 55.6319 63.6847C55.6319 63.6464 55.6447 63.6082 55.6447 63.5699C55.6574 63.4679 55.6829 63.3786 55.6957 63.2766C55.9635 62.5242 56.2441 61.7718 56.5119 61.0193C56.6139 60.9683 56.6266 60.8791 56.6139 60.777C56.7924 60.4582 56.971 60.1394 57.1495 59.8206C57.3536 59.54 57.6214 59.3105 57.7106 58.9661C57.9147 58.5963 58.1952 58.303 58.5651 58.099C58.8966 57.8694 59.241 57.6398 59.5726 57.4103C59.7893 57.1425 60.2357 57.2573 60.4142 56.9257C60.529 57.015 60.6438 57.0022 60.7968 56.9895C61.3197 56.9384 61.8171 56.7216 62.3399 56.8364Z" fill="#EAE7E7"/>
<path d="M96.1349 61.6698C97.423 61.5168 97.8693 61.8866 97.9458 63.2384C97.9713 63.7995 97.9331 64.3606 97.9331 64.909C97.7545 65.2151 97.8821 65.5594 97.7928 65.8782C97.627 66.5286 97.4102 67.1535 97.3592 67.8294C97.1042 68.3268 97.1042 68.8751 96.9894 69.398C96.7726 69.9081 96.492 70.3927 96.5048 70.9666C96.1477 71.3364 96.1732 71.8465 96.0202 72.2929C95.6758 72.5862 95.7396 73.0708 95.5101 73.4151C95.3188 73.7085 95.408 73.7722 95.7013 73.9253C96.3773 74.2568 97.1424 74.4099 97.7163 74.9455C97.5122 75.2005 97.2699 75.2133 97.0021 75.073C96.2242 74.6649 95.4208 74.3078 94.6046 73.989C94.273 73.8615 94.324 73.6192 94.4388 73.3514C95.3698 71.1196 96.0584 68.8114 96.5558 66.4393C96.7981 65.2406 97.0021 64.0291 96.7853 62.792C96.6961 62.3202 96.492 61.9631 96.1349 61.6698Z" fill="#EAE7E7"/>
<path d="M48.9878 60.7515C49.1408 60.7388 49.3066 60.726 49.4596 60.7005C49.9697 60.6112 50.0973 60.828 50.11 61.3254C50.1483 62.5242 50.263 63.7229 50.3396 64.9217C50.3396 65.2405 50.3523 65.5593 50.3523 65.8909C50.3523 66.5413 50.2503 67.1917 50.4671 67.8294C50.4671 68.2757 50.4671 68.722 50.4671 69.1684C50.5053 69.5765 50.5436 69.9846 50.5691 70.3799C50.5691 70.788 50.5691 71.1833 50.5691 71.5914C50.5691 72.076 50.5691 72.5479 50.5691 73.0325C50.2886 73.0453 49.9952 73.0708 49.7147 73.0835C49.6764 73.0835 49.6382 73.0708 49.5999 73.0708L49.5616 73.0325H49.5106C49.4596 72.9815 49.4214 72.9305 49.3703 72.8795C49.4469 71.9485 49.4979 71.0048 49.4469 70.0611C49.3066 66.9494 49.1408 63.8505 48.9878 60.7515Z" fill="#EAE7E7"/>
<path d="M103.238 74.1675C101.529 74.6266 100.573 73.4024 100.509 72.3184C100.42 70.8135 101.797 69.7678 103.315 70.1249C102.537 70.3162 101.976 70.737 101.823 71.566C101.67 71.923 101.619 72.2929 101.797 72.6627C101.925 73.5171 102.448 73.9762 103.238 74.1675Z" fill="#EAE7E7"/>
<path d="M48.1588 57.1809C48.2863 58.3414 48.2736 59.5146 48.2863 60.6879C47.1896 60.8282 47.2023 60.8282 47.1768 59.7697C47.1641 58.9025 47.1131 58.0353 47.0875 57.1681C47.4064 57.1554 47.7252 57.1554 48.0313 57.1426C48.0823 57.1554 48.1205 57.1681 48.1588 57.1809Z" fill="#EAE7E7"/>
<path d="M82.6935 69.8954C83.3821 69.296 83.5097 68.4543 83.5224 67.6509C83.5862 64.1566 83.0378 60.7771 81.5457 57.5889C81.5075 57.4996 81.5202 57.3976 81.5075 57.2956C82.5022 57.0788 83.5097 56.862 84.5044 56.6579C84.6574 56.7344 84.8997 56.4921 85.0017 56.7854C84.3131 56.9385 83.6372 57.1298 82.9485 57.2573C82.6042 57.3211 82.5659 57.4358 82.7062 57.7292C83.2291 58.8897 83.6117 60.0884 83.9433 61.3127C84.2366 62.4222 84.3386 63.5572 84.5299 64.6922C84.5681 65.1003 84.6064 65.4956 84.6319 65.9037C84.6319 66.4648 84.6319 67.026 84.6447 67.5998C84.6574 68.2757 84.4151 68.9006 84.2621 69.5383C83.7647 69.7551 83.3439 70.2779 82.6935 69.8954Z" fill="#EAE7E7"/>
<path d="M40.3031 62.537C41.6804 62.1671 42.1012 60.7516 42.0629 59.4125C42.0502 58.6729 41.9482 57.9332 41.8972 57.1808C42.2797 57.1808 42.6623 57.1808 43.0449 57.1808C42.9811 58.3158 43.2745 59.4508 43.0704 60.5858C42.8409 62.0013 41.6931 62.8303 40.3031 62.537Z" fill="#EAE7E7"/>
<path d="M50.1865 54.1584C50.2375 54.9235 50.263 55.6887 50.3395 56.4411C50.3905 56.9767 50.263 57.2573 49.6764 57.1553C49.5361 57.1298 49.3958 57.1425 49.2555 57.1425C49.1918 56.3519 49.1408 55.5484 49.077 54.7578C49.077 54.5792 49.128 54.4007 48.975 54.2604C49.0005 54.2221 49.026 54.1966 49.0387 54.1584C49.2683 54.1456 49.4978 54.1329 49.7274 54.1201C49.8804 54.1201 50.0335 54.1456 50.1865 54.1584Z" fill="#EAE7E7"/>
<path d="M25.4078 59.3616C25.7776 58.9535 26.2495 58.6729 26.7086 58.3796C27.0656 58.2393 27.41 58.1118 27.7925 58.0735C27.8818 58.0608 27.9583 58.0353 28.0476 58.0225C28.1241 58.0098 28.2006 58.0098 28.2899 57.997C28.4047 58.0353 28.5195 58.0735 28.6342 58.099C27.7543 58.3286 27.0274 58.8132 26.4152 59.4636C25.8669 60.063 25.8796 60.063 25.4078 59.3616Z" fill="#EAE7E7"/>
<path d="M95.8034 57.9843C95.8671 57.9971 95.9181 58.0098 95.9819 58.0226C95.306 58.2266 94.6939 58.5454 94.12 59.1193C94.0817 58.6985 94.0435 58.3924 94.324 58.1501C94.4516 58.1246 94.5663 58.1118 94.6939 58.0863C94.9999 58.0353 95.306 57.9716 95.6121 57.9206C95.6503 57.9971 95.7269 57.9971 95.8034 57.9843Z" fill="#EAE7E7"/>
<path d="M61.7406 69.8826C62.646 69.4107 63.1816 68.6456 63.577 67.7274C64.2401 66.1715 64.6099 64.5647 64.4059 62.8558C64.2784 61.7845 63.9213 60.8663 62.9393 60.3052C63.7172 60.0884 64.5079 60.4582 64.9288 61.2489C65.5537 62.4094 65.5409 63.6464 65.4134 64.8962C65.3751 65.1385 65.3496 65.3808 65.3114 65.6231C65.0818 66.35 64.865 67.077 64.6355 67.8039C64.4697 68.0844 64.3039 68.365 64.1508 68.6583C63.8065 68.9644 63.6152 69.4107 63.1816 69.6275C62.7225 69.8571 62.2507 70.0356 61.7406 69.8826Z" fill="#EAE7E7"/>
<path d="M77.3628 58.5071C77.8857 60.6113 77.9622 62.7538 77.9877 64.909C77.9749 65.2278 77.9749 65.5594 77.9622 65.8782C77.7709 66.5159 77.8857 67.179 77.7326 67.8167C77.5669 68.2885 77.4011 68.7604 77.3628 69.2705C77.2225 69.3343 77.1843 69.4618 77.1078 69.5893C76.7252 70.2397 76.2788 70.38 75.5392 70.1249C76.2406 69.4873 76.4446 68.6201 76.5976 67.7529C76.993 65.4701 76.9547 63.1746 76.6742 60.8919C76.5849 60.1905 76.5084 59.4891 76.3171 58.8132C76.2406 58.5454 76.3553 58.4943 76.5721 58.5071C76.8272 58.5071 77.095 58.5071 77.3628 58.5071Z" fill="#EAE7E7"/>
<path d="M30.3428 58.1117C31.3121 58.3285 32.1665 58.7493 32.8552 59.4763C32.9062 59.5273 32.9444 59.591 32.9954 59.642C33.225 59.9354 33.3015 60.3307 33.6331 60.5475C33.7734 60.6495 33.7351 60.8025 33.7479 60.9301C33.8754 61.3892 33.9902 61.8355 34.2197 62.2564C34.2707 63.1491 34.5513 64.029 34.4365 64.9345C34.3217 65.0365 34.258 65.2278 34.0412 65.1385C33.6586 64.9727 33.2505 65.0747 32.8424 65.0492C32.192 64.9982 31.5161 65.1768 30.8785 64.9217C30.802 64.1438 30.8785 63.3531 30.5979 62.6007C30.2791 61.7718 29.7307 61.4912 28.9783 61.7973C28.3534 62.0268 28.1111 62.5752 27.9071 63.1363C27.6903 63.7229 27.55 64.3478 27.3714 64.96C26.2619 64.9472 25.1652 64.9472 24.0557 64.9345C23.9154 64.029 23.8134 63.1236 23.4053 62.2819C23.0227 61.4912 22.4871 61.2489 21.7347 61.5422C21.3138 61.6825 21.1481 62.0396 20.995 62.4094C20.6507 63.2638 20.6762 64.1693 20.5359 65.062C19.3754 65.0365 18.2022 65.1385 17.0544 64.9345C17.0544 63.5317 17.2584 62.1671 17.8323 60.8791C18.572 59.234 19.6942 58.0607 21.5817 57.8439C23.1503 57.6271 24.3745 58.2647 25.4075 59.387C25.8794 60.0884 25.8666 60.0756 26.415 59.489C27.0271 58.8386 27.754 58.354 28.634 58.1245C29.2078 58.1117 29.7817 58.1117 30.3428 58.1117Z" fill="white"/>
<path d="M37.0126 57.4997C37.0891 57.5124 37.1784 57.5124 37.2549 57.5252C37.3697 57.5634 37.4844 57.6399 37.5865 57.6399C38.1986 57.6527 38.3644 57.8822 38.3134 58.5326C38.2369 59.5529 38.4537 60.5731 38.951 61.4913C39.2443 62.0269 39.6142 62.4988 40.3028 62.5498C41.6929 62.8431 42.8406 62.0142 43.0702 60.6113C43.2615 59.4636 42.9682 58.3413 43.0447 57.2063C43.2487 57.1936 43.4655 57.1808 43.6696 57.1553C44.4985 57.1553 45.3147 57.1426 46.1436 57.1426C46.3349 57.1426 46.5772 57.0916 46.5772 57.4104C46.5772 59.4126 46.743 61.4403 45.9013 63.3532C45.608 64.0419 45.1999 64.654 44.5368 65.0621C43.9501 64.909 43.338 64.9218 42.7386 64.9346C40.9532 64.9728 39.1551 64.8325 37.3824 65.0493C37.3314 65.0111 37.2932 64.9728 37.2421 64.9346C36.375 64.2459 35.8521 63.3149 35.4568 62.333C34.8064 60.7134 34.5641 59.0427 34.8191 57.3084C34.9084 57.1426 35.0742 57.1936 35.2017 57.1681C35.6863 57.2573 36.1709 57.3466 36.6555 57.4359C36.7448 57.5124 36.8723 57.5252 37.0126 57.4997Z" fill="white"/>
<path d="M99.884 59.0299C99.986 59.132 100.075 59.2467 100.177 59.3488C100.203 59.387 100.241 59.4125 100.267 59.4508C100.764 60.0119 100.942 60.7388 101.223 61.402C101.351 62.3584 101.516 63.3149 101.465 64.2841C101.453 64.5009 101.516 64.7304 101.376 64.9217C100.228 64.9217 99.0806 64.9217 97.9328 64.909C97.9456 64.3479 97.9838 63.7867 97.9456 63.2384C97.869 61.8866 97.4227 61.5167 96.1347 61.6698C95.1399 61.8611 94.6936 62.6262 94.311 63.4424C94.1197 63.8377 93.9922 64.2713 93.8392 64.6794C93.6734 64.8835 93.4566 64.9217 93.2015 64.9217C92.3981 64.909 91.5819 64.8835 90.7785 64.9345C90.3704 64.96 90.1918 64.7942 90.1153 64.4499C90.2684 62.6772 90.3066 60.9046 90.6765 59.1575C90.7785 58.6856 90.8805 58.2775 91.4161 58.1627C92.2323 57.9587 93.074 58.048 93.9029 57.9332C94.158 57.8949 94.1835 58.1117 94.3238 58.1755C94.0432 58.4178 94.0815 58.7111 94.1197 59.1447C94.6936 58.5836 95.3057 58.252 95.9816 58.048C96.6448 58.0097 97.3079 57.9842 97.9583 58.1245C98.1879 58.1755 98.4047 58.2393 98.6342 58.2903C98.7872 58.4305 98.9658 58.5071 99.1698 58.5326C99.3866 58.6856 99.6034 58.8386 99.8202 58.9917L99.8457 59.0427L99.884 59.0299Z" fill="white"/>
<path d="M67.6704 59.1065C67.8999 59.5528 68.1167 60.0119 68.3463 60.4583C68.4355 60.7006 68.512 60.9429 68.6013 61.1724C68.6268 61.2872 68.6396 61.402 68.6651 61.5295C68.6906 61.5933 68.7161 61.657 68.7416 61.7208C68.7799 62.1417 68.7416 62.5753 68.8946 62.9833C68.8691 63.6337 68.9329 64.2841 68.7671 64.9218C67.6576 64.9218 66.5354 64.9218 65.4259 64.909C65.5534 63.6592 65.5661 62.4095 64.9413 61.2617C64.5204 60.471 63.7297 60.1012 62.9518 60.318C61.9698 60.3435 61.4852 61.0449 61.0261 61.7591C60.4012 62.7283 60.1079 63.825 59.8401 64.9345C58.7306 64.9345 57.6339 64.9218 56.5244 64.9218C56.5626 63.6975 56.907 62.537 57.3916 61.4275C58.3736 59.1958 59.7381 57.3338 62.3524 56.8365C63.3472 56.7472 64.3036 56.9385 65.2473 57.1681C65.6427 57.3721 66.0253 57.5761 66.4206 57.7802C66.4716 57.9077 66.5736 57.9842 66.7139 58.0097C66.9179 58.2138 67.1092 58.4178 67.3133 58.6091C67.3643 58.8259 67.5046 58.979 67.6704 59.1065Z" fill="white"/>
<path d="M55.8102 59.0937C55.8102 59.4125 55.823 59.7441 55.823 60.0629C55.823 60.1777 55.823 60.2924 55.8358 60.4072C55.4532 60.726 54.9686 60.4327 54.5605 60.5985C54.4967 60.6113 54.4329 60.6113 54.3692 60.624C54.1906 60.573 54.0248 60.5603 53.8463 60.6368C53.4255 60.7133 53.6805 60.9556 53.7315 61.1341C53.7443 61.453 53.757 61.7845 53.7698 62.1033C53.6933 62.7155 53.8463 63.3149 53.8846 63.927C53.8846 64.2076 53.8846 64.4881 53.8973 64.7687C53.8846 64.807 53.8718 64.858 53.8591 64.8962C52.6986 64.8962 51.5253 64.8962 50.3648 64.8962C50.2883 63.6975 50.1735 62.4987 50.1352 61.2999C50.1225 60.8026 49.995 60.5858 49.4848 60.675C49.3318 60.7005 49.166 60.7133 49.013 60.726C48.7834 60.7005 48.5539 60.6878 48.3116 60.6623C48.2988 59.489 48.3116 58.3158 48.1841 57.1553C48.5411 57.1425 48.8982 57.1297 49.268 57.117C49.4083 57.117 49.5486 57.1042 49.6889 57.1297C50.2755 57.2318 50.403 56.9512 50.352 56.4156C50.2755 55.6504 50.25 54.8852 50.199 54.1328C50.4286 53.9033 50.6836 54.1201 50.9132 54.1073C51.2702 54.0946 51.6401 54.1073 51.9971 54.1073C53.2214 54.1073 53.2214 54.1073 53.2597 55.3316C53.2724 55.6122 53.2852 55.8927 53.2979 56.1733C53.2852 56.2115 53.2852 56.2498 53.3107 56.2881C53.2724 56.4156 53.2852 56.5431 53.3489 56.6579C53.2597 56.9257 53.3872 57.0277 53.6423 57.015C53.9993 57.0022 54.3564 57.0022 54.7135 56.9895C54.9558 56.9895 55.2109 56.9895 55.4532 56.9895C55.721 57.015 55.7082 57.2445 55.7975 57.4103C55.7975 57.5633 55.8102 57.7164 55.8102 57.8694C55.7592 57.9459 55.7465 58.0224 55.823 58.0862C55.823 58.252 55.8358 58.4178 55.8358 58.5963C55.8102 58.7749 55.8102 58.9406 55.8102 59.0937Z" fill="white"/>
<path d="M71.5473 70.7243C71.4197 70.2652 71.1009 69.8826 71.0754 69.3853C72.2869 69.3853 73.4857 69.3853 74.6972 69.398C75.0033 69.6148 75.0671 70.0994 75.5389 70.1249C76.2786 70.38 76.7249 70.2397 77.1075 69.5893C77.184 69.4618 77.2223 69.3343 77.3626 69.2705C78.7271 69.5255 80.1172 69.3343 81.4945 69.3853C81.6985 69.398 81.8133 69.245 81.8898 69.0664C82.1576 69.3343 82.2596 69.7806 82.706 69.8826C83.3564 70.2652 83.7772 69.7423 84.2746 69.5C85.4861 69.449 86.6976 69.6403 87.9092 69.3853C87.8071 69.9591 87.6541 70.5075 87.3353 71.0049C87.1312 70.7116 86.8252 70.6988 86.5191 70.7243C84.7847 70.8136 83.0503 70.6223 81.3159 70.6988C79.5178 70.7753 77.7069 70.7243 75.896 70.6478C74.4422 70.5968 72.9883 70.7243 71.5473 70.7243Z" fill="white"/>
<path d="M57.6084 70.7371C57.2131 70.2397 56.9963 69.6658 56.8815 69.0409C58.0803 69.0409 59.2918 69.0409 60.4905 69.0409C60.8476 69.4235 61.1537 69.8571 61.7403 69.8826C62.2632 70.0357 62.7223 69.8571 63.1686 69.6403C63.6022 69.4363 63.7935 68.9772 64.1378 68.6711C64.3546 68.7986 64.597 68.7986 64.8393 68.7986C65.8212 68.7986 66.7904 68.7986 67.7724 68.7986C67.4791 69.6148 67.0582 70.3545 66.5736 71.0559C66.4206 70.6478 66.0635 70.7371 65.7575 70.7371C63.0411 70.7243 60.3248 70.7371 57.6084 70.7371Z" fill="white"/>
<path d="M28.9783 61.7718C29.7435 61.4657 30.2791 61.7463 30.5979 62.5752C30.8912 63.3277 30.802 64.1183 30.8785 64.8963C30.7765 65.4574 30.8402 66.0313 30.8275 66.5924C30.6362 67.0515 30.751 67.5616 30.6107 68.0335C30.5597 68.4415 30.6107 68.8624 30.4704 69.2577C30.2153 69.551 30.3939 69.9081 30.3429 70.2269C30.1898 70.635 30.024 71.0431 29.871 71.4512C29.7817 71.8083 29.7052 72.1781 29.616 72.5352C29.2971 72.9305 29.2079 73.4406 28.9656 73.8742C28.7488 74.2441 28.9145 74.3971 29.2716 74.4736C29.9858 74.6139 30.6999 74.7797 31.4141 74.9327C30.9422 75.2133 30.4321 75.0985 29.9858 74.9327C29.3354 74.7032 28.6595 74.6012 27.9836 74.4991C27.55 74.4226 27.6265 74.2441 27.7668 74.0018C28.7998 72.1016 29.2716 70.0229 29.5649 67.9187C29.769 66.4649 29.8455 64.9983 29.718 63.5317C29.6797 62.8558 29.4502 62.2564 28.9783 61.7718Z" fill="white"/>
<path d="M71.5473 70.7243C72.9883 70.7243 74.4421 70.584 75.8832 70.6478C77.6941 70.7243 79.505 70.7626 81.3031 70.6988C83.0503 70.635 84.7719 70.8136 86.5063 70.7243C86.8124 70.7116 87.1184 70.7116 87.3225 71.0049C87.2587 71.1579 87.195 71.2982 87.1439 71.4512C86.7614 71.6935 86.3788 71.617 85.9452 71.6043C84.147 71.5405 82.3616 71.5788 80.5635 71.5788C80.3212 71.5788 80.0916 71.6425 79.9003 71.8211C79.7856 71.7828 79.6708 71.7318 79.556 71.6935C79.301 71.6425 79.0587 71.566 78.7908 71.566C76.8397 71.5788 74.8757 71.5788 72.9245 71.566C72.644 71.566 72.3507 71.566 72.1466 71.8083C71.8788 71.5022 71.6238 71.1579 71.5473 70.7243Z" fill="white"/>
<path d="M21.7474 61.5168C22.4998 61.2107 23.0355 61.4658 23.4181 62.2564C23.8261 63.0981 23.9154 64.0163 24.0684 64.909C24.1067 65.3171 24.145 65.7125 24.1832 66.1205C24.1832 66.5669 24.1832 67.0132 24.1832 67.4468C24.1832 67.9697 24.1705 68.5053 24.1705 69.0282C24.1322 69.4745 24.094 69.9209 24.0557 70.3545C23.9664 70.7881 23.9027 71.2344 23.9282 71.6808C23.8134 72.1654 23.6859 72.6372 23.5711 73.1219C23.214 73.1219 22.7422 73.2494 22.5126 73.0708C22.2575 72.8668 22.6911 72.5097 22.7294 72.1909C23.0355 69.9847 23.163 67.7784 23.01 65.5594C22.9462 64.6795 22.8569 63.7995 22.5891 62.9451C22.4233 62.4095 22.181 61.8994 21.7474 61.5168Z" fill="white"/>
<path d="M111.566 72.0632C111.387 72.0632 111.196 72.0377 111.017 72.076C110.788 72.127 110.392 71.8847 110.367 72.2418C110.341 72.6244 110.533 73.0325 111.004 73.1472C111.349 73.2365 111.655 73.16 111.986 73.0324C112.139 72.9687 112.458 72.6881 112.497 73.058C112.522 73.364 112.815 73.8486 112.229 74.0272C110.953 74.4225 109.41 74.244 109.143 72.3055C109.015 71.4128 109.092 70.5329 109.678 69.7805C110.137 69.1811 110.775 69.0536 111.464 69.1683C112.088 69.2704 112.497 69.6657 112.688 70.2778C112.713 70.3799 112.739 70.4691 112.764 70.5712C113.083 72.0632 113.083 72.0632 111.566 72.0632ZM111.004 71.2215C111.247 71.1195 111.68 71.4256 111.655 70.8517C111.629 70.4691 111.527 70.1248 111.068 70.0865C110.711 70.0483 110.29 70.5456 110.341 70.9665C110.418 71.4256 110.813 71.094 111.004 71.2215Z" fill="white"/>
<path d="M97.7033 74.9455C97.1294 74.4099 96.3643 74.2568 95.6884 73.9253C95.4078 73.785 95.3058 73.7085 95.4971 73.4151C95.7266 73.0708 95.6629 72.5862 96.0072 72.2929C97.0274 72.2929 98.0476 72.2929 99.0806 72.3056C99.3229 72.3056 99.578 72.2546 99.731 72.5224C99.4249 73.2494 99.0934 73.9508 98.8256 74.6904C98.6598 75.175 98.4302 75.3026 97.9839 75.0348C97.9074 74.9965 97.8053 74.9837 97.7033 74.9455Z" fill="white"/>
<path d="M31.4141 74.9327C30.6999 74.7797 29.9858 74.6139 29.2716 74.4736C28.9018 74.3971 28.7488 74.2441 28.9656 73.8742C29.2206 73.4406 29.2971 72.9305 29.616 72.5352C30.5724 72.752 31.5544 72.6244 32.5236 72.6627C32.7276 72.6754 32.9699 72.5862 33.1357 72.7902C33.0337 73.5681 32.7021 74.2696 32.3195 74.9327C32.141 75.2515 31.7202 75.1368 31.4141 74.9327Z" fill="white"/>
<path d="M72.1466 71.821C72.3506 71.5787 72.6312 71.5787 72.9245 71.5787C74.8757 71.5787 76.8396 71.5787 78.7908 71.5787C79.0586 71.5787 79.3009 71.6552 79.556 71.7062C79.556 71.9995 79.1862 72.1016 79.1989 72.4076C79.0076 72.4586 78.9056 72.6117 78.8163 72.7647C78.7781 72.7775 78.7398 72.7775 78.7016 72.7775C78.625 72.7392 78.5613 72.6754 78.4848 72.6754C76.8141 72.6627 75.1435 72.6754 73.4729 72.6627C73.2944 72.6627 73.1541 72.7137 73.1286 72.9177C72.695 72.6372 72.3379 72.3056 72.1466 71.821Z" fill="white"/>
<path d="M97.359 67.8294C97.41 67.1535 97.6268 66.5286 97.7926 65.8782C98.7745 65.8782 99.7693 65.8782 100.751 65.8909C100.994 65.8909 101.185 65.8527 101.325 65.6486C101.223 66.35 101.121 67.0387 101.032 67.7273C101.019 67.7528 100.994 67.7783 100.981 67.8039C99.782 68.0717 98.5705 67.9314 97.359 67.8294Z" fill="white"/>
<path d="M57.6084 70.7371C60.3248 70.7371 63.0411 70.7371 65.7575 70.7371C66.0635 70.7371 66.4206 70.6606 66.5736 71.0559C66.3696 71.1069 66.3824 71.3746 66.2038 71.4511C65.63 71.6042 65.0433 71.5787 64.4694 71.5787C62.6713 71.5787 60.8859 71.5787 59.0877 71.5787C58.8199 71.5787 58.5649 71.5532 58.3226 71.7062C57.9527 71.4766 57.6977 71.1707 57.6084 70.7371Z" fill="white"/>
<path d="M87.8963 69.3979C86.6976 69.653 85.4733 69.4617 84.2618 69.5127C84.4148 68.8751 84.6571 68.2502 84.6444 67.5743C85.8049 67.5743 86.9781 67.587 88.1387 67.587C88.1514 67.7018 88.1642 67.8166 88.1769 67.9314C88.0749 68.416 88.1004 68.9261 87.8963 69.3979Z" fill="white"/>
<path d="M68.6269 65.8909C68.6014 66.5668 68.4101 67.2045 68.1423 67.8294C66.969 67.8294 65.7957 67.8294 64.6352 67.8294C64.8648 67.1025 65.0816 66.3755 65.3111 65.6486C65.5279 65.8272 65.7702 65.9037 66.0763 65.8909C66.918 65.8782 67.7724 65.8909 68.6269 65.8909Z" fill="white"/>
<path d="M39.206 67.3448C39.1933 66.8985 39.1933 66.4649 39.1805 66.0185C40.3538 65.7507 41.5398 65.942 42.7131 65.9038C42.7131 66.5031 42.7003 67.1153 42.7003 67.7147C41.7821 67.8422 40.8512 67.8167 39.933 67.8549C39.5249 67.8549 39.3081 67.7147 39.206 67.3448Z" fill="white"/>
<path d="M58.3226 71.7062C58.5649 71.5659 58.8199 71.5787 59.0877 71.5787C60.8859 71.5787 62.6713 71.5787 64.4694 71.5787C65.0561 71.5787 65.63 71.6169 66.2038 71.4511C65.936 71.7955 65.6299 72.1016 65.2346 72.3056C65.056 72.3056 64.8775 72.3056 64.8775 72.5479C63.3599 72.3567 61.8168 72.4459 60.2992 72.4204C60.0187 72.4204 59.6999 72.3694 59.6616 72.7902C59.0495 72.65 58.7179 72.127 58.3226 71.7062Z" fill="white"/>
<path d="M79.9003 71.8211C80.0916 71.6425 80.3212 71.5788 80.5635 71.5788C82.3616 71.566 84.1598 71.5405 85.9452 71.6043C86.366 71.617 86.7614 71.6935 87.1439 71.4512C87.1312 71.9231 86.5956 71.9486 86.4426 72.2929C85.6901 72.5479 84.9122 72.5479 84.1343 72.5352C83.1906 72.5224 82.2469 72.5224 81.3159 72.5352C81.1246 72.5352 80.9078 72.4714 80.7548 72.6627C80.3722 72.4842 80.1681 72.1271 79.9003 71.8211Z" fill="white"/>
<path d="M96.5045 70.9666C96.4918 70.3928 96.7723 69.8954 96.9891 69.398C98.2006 69.398 99.4122 69.398 100.636 69.398C100.445 69.9082 100.522 70.5075 100.203 70.9794C98.9658 70.9794 97.7415 70.9794 96.5045 70.9666Z" fill="white"/>
<path d="M18.4572 74.5756C18.3425 73.9634 17.9981 73.4278 17.9726 72.7902C18.4317 72.7902 18.8908 72.8029 19.3627 72.7902C20.0769 72.7647 20.8165 72.9304 21.4924 72.5606C21.6455 72.9687 21.7857 73.3768 21.9388 73.7849C21.9898 73.9124 22.079 74.091 21.8622 74.1165C20.7145 74.193 19.6178 74.6011 18.4572 74.5756Z" fill="white"/>
<path d="M108.275 71.6807C108.275 72.3694 108.25 73.058 108.288 73.7339C108.314 74.3461 107.88 74.091 107.625 74.1038C107.37 74.1165 107.013 74.2568 107.026 73.7212C107.064 72.3439 107.064 70.9793 107.026 69.602C107.013 69.0536 107.37 69.2194 107.625 69.2322C107.893 69.2449 108.314 69.0154 108.275 69.6148C108.25 70.3162 108.275 70.9921 108.275 71.6807Z" fill="white"/>
<path d="M42.7259 65.8909C41.5526 65.9419 40.3666 65.7506 39.1933 66.0057C38.5302 65.7761 37.867 65.5721 37.3824 65.0237C39.1678 64.7941 40.9532 64.9472 42.7386 64.9089C43.338 64.8962 43.9374 64.8834 44.5368 65.0364C44.0139 65.5083 43.4018 65.7634 42.7259 65.8909Z" fill="white"/>
<path d="M90.0899 69.1556C90.0899 68.6327 90.0899 68.1099 90.0899 67.587C91.2121 67.587 92.3344 67.587 93.4694 67.587C93.4949 68.0971 93.5076 68.62 93.5331 69.1301C92.3726 69.3979 91.2376 69.3086 90.0899 69.1556Z" fill="white"/>
<path d="M39.3081 73.3513C39.3081 72.803 39.3081 72.2546 39.3081 71.6935C40.4686 71.6935 41.6419 71.6935 42.8024 71.7062L42.8406 71.6935C42.8406 71.7317 42.8406 71.7827 42.8406 71.821C42.8534 72.1016 42.8661 72.3821 42.8789 72.6754C42.8661 72.8795 42.8534 73.0835 42.8406 73.2876C42.8024 73.3003 42.7514 73.3003 42.7131 73.3131C42.6748 73.3131 42.6238 73.3131 42.5856 73.3131C42.3815 73.3131 42.1902 73.3258 41.9862 73.3258C41.9097 73.3258 41.8204 73.3386 41.7439 73.3386C41.2593 73.3386 40.7747 73.3003 40.3028 73.3896C40.2136 73.3131 40.1243 73.3003 40.0478 73.4023C39.8055 73.2111 39.5376 73.5299 39.3081 73.3513Z" fill="white"/>
<path d="M30.8402 66.6051C30.853 66.044 30.7892 65.4701 30.8912 64.909C31.5289 65.164 32.2048 64.9855 32.8552 65.0365C33.2505 65.062 33.6586 64.96 34.0539 65.1258C34.258 65.215 34.3345 65.0238 34.4493 64.9217C34.513 65.4956 34.411 66.044 34.3473 66.6051C33.174 66.6051 32.0007 66.6051 30.8402 66.6051Z" fill="white"/>
<path d="M100.636 69.398C99.4249 69.398 98.2134 69.398 96.9891 69.398C97.1166 68.8752 97.1167 68.314 97.359 67.8294C98.5705 67.9441 99.7693 68.0717 100.981 67.8294C100.955 68.365 100.853 68.9007 100.636 69.398Z" fill="white"/>
<path d="M17.0417 66.6051C17.0417 66.044 17.0417 65.4828 17.0544 64.909C18.2149 65.113 19.3754 65.011 20.536 65.0365C20.536 65.5211 20.5232 66.0057 20.5232 66.4903C19.3627 66.6051 18.2022 66.6434 17.0417 66.6051Z" fill="white"/>
<path d="M93.4566 67.5871C92.3343 67.5871 91.2121 67.5871 90.0771 67.5871C90.0771 67.0643 90.0771 66.5287 90.0898 66.0058C90.5872 66.0058 91.0973 66.0313 91.5947 66.0058C92.2706 65.9675 92.9592 66.1333 93.6224 65.891C93.5586 66.4521 93.5076 67.0133 93.4566 67.5871Z" fill="white"/>
<path d="M23.5583 73.1473C23.6731 72.6627 23.8006 72.1908 23.9154 71.7062C24.9611 71.7062 26.0069 71.7062 27.0526 71.7062C27.1291 72.1525 27.2184 72.5861 27.2949 73.0325C27.3332 73.2493 27.3204 73.4788 27.0143 73.3896C26.3512 73.1728 25.6753 73.3386 25.0121 73.2875C24.5786 73.1855 24.1322 73.1728 23.6731 73.1983C23.6476 73.1728 23.6093 73.16 23.5583 73.1473Z" fill="white"/>
<path d="M50.5943 73.0198C50.5943 72.5352 50.5943 72.0633 50.5943 71.5787C51.5763 71.5787 52.571 71.5787 53.553 71.5787C53.7953 71.5787 54.0376 71.5532 54.1779 71.821C54.1906 71.9485 54.2161 72.0633 54.2289 72.1908C54.2289 72.3949 54.2416 72.5989 54.2416 72.803C53.7825 73.2238 53.1831 73.0453 52.6603 73.0835C52.3415 73.109 51.9971 73.058 51.6656 73.0708C51.6273 73.0708 51.589 73.0708 51.538 73.0708C51.232 73.0453 50.9131 73.0325 50.5943 73.0198Z" fill="white"/>
<path d="M30.8402 66.6051C32.0007 66.6051 33.174 66.6051 34.3345 66.6051C34.3472 67.0897 34.3983 67.5871 34.207 68.0589C33.0082 68.0589 31.8094 68.0462 30.6107 68.0462C30.7637 67.5871 30.6489 67.077 30.8402 66.6051Z" fill="white"/>
<path d="M73.1159 72.9177C73.1414 72.7137 73.2816 72.6627 73.4602 72.6627C75.1308 72.6627 76.8014 72.6627 78.472 72.6754C78.5486 72.6754 78.6123 72.7392 78.6888 72.7774C78.6761 72.8157 78.6633 72.854 78.6633 72.8922V72.8795C78.4338 73.0452 78.2042 73.2238 77.9619 73.3896C77.4518 73.6064 76.9417 73.8232 76.3806 73.8997C76.2275 73.8997 76.0618 73.9124 75.9087 73.9124C75.7812 73.9124 75.6664 73.8997 75.5389 73.8997C75.3349 73.8869 75.1308 73.8742 74.9395 73.8614C74.2891 73.6191 73.6005 73.4788 73.1159 72.9177Z" fill="white"/>
<path d="M42.8151 71.7062C41.6546 71.7062 40.4813 71.7062 39.3208 71.6934C39.3208 71.2088 39.3208 70.7242 39.3208 70.2396C40.4813 70.2396 41.6418 70.2396 42.8151 70.2396C42.8023 70.737 42.8023 71.2216 42.8151 71.7062Z" fill="white"/>
<path d="M96.5045 70.9666C97.7415 70.9666 98.9658 70.9794 100.203 70.9794C99.986 71.4768 99.9861 72.0378 99.731 72.5224C99.578 72.2674 99.3229 72.3184 99.0806 72.3056C98.0604 72.3056 97.0402 72.3057 96.0072 72.2929C96.1602 71.8593 96.1474 71.3492 96.5045 70.9666Z" fill="white"/>
<path d="M103.238 74.1676C102.435 73.9763 101.912 73.5299 101.797 72.6755C102.141 72.6755 102.473 72.6628 102.817 72.6755C103.837 72.7265 104.858 72.5352 105.865 72.803C105.61 73.9125 104.577 74.4354 103.238 74.1676Z" fill="white"/>
<path d="M101.835 71.5787C101.988 70.737 102.549 70.3289 103.327 70.1377C104.45 69.8571 105.457 70.38 105.929 71.4767C105.648 71.515 105.381 71.5915 105.1 71.5915C104.003 71.5915 102.919 71.5787 101.835 71.5787Z" fill="white"/>
<path d="M17.1564 69.2704C17.182 68.824 16.8631 68.3904 17.1437 67.9441C17.386 67.9441 17.6283 67.9568 17.8706 67.9313C18.7888 67.8803 19.7198 68.0589 20.638 67.8166C20.689 68.2629 20.7272 68.7093 20.7783 69.1556C20.5232 69.2194 20.2809 69.2831 20.0131 69.2831C19.0439 69.2704 18.1002 69.2704 17.1564 69.2704Z" fill="white"/>
<path d="M20.6252 67.8166C19.7197 68.0717 18.7888 67.8804 17.8578 67.9314C17.6155 67.9441 17.3732 67.9314 17.1309 67.9441C16.9396 67.5105 17.0289 67.0514 17.0417 66.6051C18.2022 66.6434 19.3627 66.6051 20.5232 66.4903C20.5615 66.9367 20.5869 67.3703 20.6252 67.8166Z" fill="white"/>
<path d="M101.835 71.5787C102.919 71.5787 104.016 71.5914 105.1 71.5787C105.38 71.5787 105.648 71.5022 105.929 71.4639C106.031 71.9103 106.158 72.3694 105.878 72.803C104.87 72.5352 103.85 72.7265 102.83 72.6754C102.486 72.6627 102.154 72.6754 101.81 72.6754C101.631 72.3056 101.682 71.9358 101.835 71.5787Z" fill="white"/>
<path d="M54.1779 71.821C54.0376 71.5659 53.7953 71.5787 53.553 71.5787C52.571 71.5787 51.5763 71.5787 50.5943 71.5787C50.5943 71.1706 50.5943 70.7752 50.5943 70.3671C50.9259 70.2651 51.2575 70.2524 51.6018 70.2396C52.4435 70.2268 53.2724 70.2779 54.1013 70.3671C54.1396 70.6477 54.1779 70.9283 54.2161 71.2088C54.2289 71.3746 54.2289 71.5276 54.2416 71.6934C54.2034 71.7444 54.1906 71.7827 54.1779 71.821Z" fill="white"/>
<path d="M90.4342 74.244C90.4979 73.7084 90.4214 73.1855 90.3322 72.6627C91.5437 72.6627 92.7424 72.6627 93.9539 72.6627C94.209 73.1218 94.107 73.3513 93.5841 73.5044C92.7169 73.7722 91.8497 74.0655 90.957 74.2695C90.7657 74.3333 90.6 74.4608 90.4342 74.244Z" fill="white"/>
<path d="M80.7548 72.6755C80.9078 72.4842 81.1246 72.5479 81.3159 72.5479C82.2596 72.5479 83.2033 72.5352 84.1343 72.5479C84.9122 72.5607 85.6901 72.5607 86.4425 72.3056C85.7922 73.2621 84.7719 73.4406 83.7517 73.6064C83.4074 73.6574 83.0375 73.6064 82.6805 73.6064C81.9408 73.4789 81.2776 73.2238 80.7548 72.6755Z" fill="white"/>
<path d="M24.1705 69.0408C24.1705 68.518 24.1832 67.9823 24.1832 67.4595C24.9484 67.4595 25.7136 67.485 26.466 67.4595C26.7848 67.4467 26.9378 67.5743 27.0654 67.8293C27.0654 68.1609 27.0654 68.4797 27.0526 68.8113C26.9506 68.875 26.9123 69.0026 26.721 69.0026C25.8666 68.9898 25.0249 69.0153 24.1705 69.0408Z" fill="white"/>
<path d="M17.6283 71.7063C17.5135 71.26 17.386 70.8136 17.2712 70.3673C18.4955 70.3673 19.7198 70.3545 20.9313 70.3545C21.0078 70.7116 21.0843 71.0559 21.1608 71.413C20.995 71.668 20.7272 71.566 20.4977 71.5788C19.5412 71.6553 18.572 71.4385 17.6283 71.7063Z" fill="white"/>
<path d="M33.1357 72.8029C32.97 72.5989 32.7276 72.6881 32.5236 72.6754C31.5544 72.6371 30.5724 72.7647 29.616 72.5479C29.7052 72.1908 29.7817 71.821 29.871 71.4639C30.5342 71.4639 31.1973 71.4511 31.8605 71.4639C32.4471 71.4766 33.0592 71.3618 33.6076 71.7062C33.4163 72.0505 33.4163 72.4841 33.1357 72.8029Z" fill="white"/>
<path d="M42.8024 70.2524C41.6418 70.2524 40.4813 70.2524 39.3081 70.2524C39.3463 69.8061 39.2698 69.3597 39.2061 68.9134C40.3793 68.9261 41.5526 69.2194 42.7386 68.9261C42.7513 69.0919 42.7641 69.2449 42.7896 69.4107C42.6876 69.5255 42.6876 69.6403 42.8024 69.7551C42.8024 69.9208 42.8024 70.0866 42.8024 70.2524Z" fill="white"/>
<path d="M93.9539 72.6754C92.7424 72.6754 91.5437 72.6754 90.3322 72.6754C90.2939 72.2674 90.2556 71.872 90.2174 71.4639C91.4161 71.4639 92.6149 71.4639 93.8137 71.4639C93.8264 71.872 94.005 72.2546 93.9539 72.6754Z" fill="white"/>
<path d="M27.0653 67.8166C26.9506 67.5615 26.7848 67.434 26.466 67.4468C25.7008 67.4723 24.9484 67.4468 24.1832 67.4468C24.1832 67.0005 24.1832 66.5541 24.1832 66.1205C24.7954 65.9675 25.4075 66.0184 26.0324 65.9929C26.4277 65.9802 26.8358 66.0822 27.2184 65.8782C27.2184 66.5413 27.1546 67.1789 27.0653 67.8166Z" fill="white"/>
<path d="M42.7386 68.9261C41.5653 69.2194 40.3921 68.9261 39.2061 68.9134C39.2061 68.3905 39.206 67.8677 39.206 67.3448C39.3081 67.7147 39.5121 67.8549 39.933 67.8421C40.8512 67.8166 41.7821 67.8294 42.7003 67.7018C42.8023 68.1099 42.8024 68.518 42.7386 68.9261Z" fill="white"/>
<path d="M17.6283 71.7063C18.572 71.4385 19.5412 71.6553 20.4977 71.5788C20.7272 71.566 20.995 71.668 21.1608 71.413C21.3266 71.7701 21.4158 72.1653 21.4796 72.5479C20.8037 72.9305 20.064 72.7519 19.3499 72.7775C18.8908 72.7902 18.4317 72.7775 17.9598 72.7775C17.7813 72.4459 17.6538 72.0889 17.6283 71.7063Z" fill="white"/>
<path d="M30.6235 68.0462C31.8222 68.0462 33.021 68.059 34.2197 68.059C34.1815 68.4671 34.1305 68.8752 34.0922 69.2705C32.8935 69.2705 31.6819 69.2705 30.4832 69.2705C30.6234 68.8752 30.5597 68.4543 30.6235 68.0462Z" fill="white"/>
<path d="M33.5948 71.7062C33.0464 71.3619 32.447 71.4766 31.8477 71.4639C31.1845 71.4511 30.5214 71.4639 29.8582 71.4639C30.0113 71.0558 30.177 70.6477 30.3301 70.2396C30.5469 70.3799 30.7892 70.3671 31.0315 70.3671C31.9879 70.3671 32.9572 70.3671 33.9136 70.3799C33.8116 70.8135 33.7096 71.2598 33.5948 71.7062Z" fill="white"/>
<path d="M27.0526 71.7062C26.0069 71.7062 24.9611 71.7062 23.9154 71.7062C23.8899 71.2598 23.9409 70.8136 24.043 70.38C25.0377 70.38 26.0452 70.38 27.0399 70.38C27.0526 70.8136 27.0526 71.2598 27.0526 71.7062Z" fill="white"/>
<path d="M93.6096 65.891C92.9465 66.1333 92.2578 65.9675 91.5819 66.0058C91.0846 66.0313 90.5872 66.0058 90.0771 66.0058C90.0899 65.4829 90.0898 64.96 90.1026 64.4372C90.1919 64.7942 90.3577 64.9473 90.7657 64.9218C91.5692 64.8835 92.3853 64.8963 93.1888 64.909C93.4438 64.909 93.6606 64.8708 93.8264 64.6667C93.8137 65.0876 93.7626 65.4956 93.6096 65.891Z" fill="white"/>
<path d="M33.9264 70.3799C32.9699 70.3799 32.0007 70.3672 31.0443 70.3672C30.802 70.3672 30.5596 70.3799 30.3428 70.2396C30.4066 69.9208 30.2281 69.5637 30.4704 69.2704C31.6691 69.2704 32.8807 69.2704 34.0794 69.2704C34.1177 69.653 34.0029 70.0101 33.9264 70.3799Z" fill="white"/>
<path d="M27.0526 70.3672C26.0579 70.3672 25.0504 70.3672 24.0557 70.3672C24.094 69.9208 24.1322 69.4744 24.1705 69.0408C25.0249 69.0281 25.8666 68.9898 26.721 69.0026C26.9123 69.0026 26.9506 68.875 27.0526 68.8113C27.0526 69.3214 27.0526 69.8443 27.0526 70.3672Z" fill="white"/>
<path d="M20.9313 70.3545C19.707 70.3545 18.4827 70.3673 17.2712 70.3673C17.233 69.9974 17.1947 69.6402 17.1564 69.2704C18.1002 69.2704 19.0439 69.2704 20.0003 69.2832C20.2681 69.2832 20.5104 69.2194 20.7655 69.1556C20.8165 69.551 20.8803 69.9592 20.9313 70.3545Z" fill="white"/>
<path d="M59.6616 72.7902C59.6999 72.3694 60.0187 72.4204 60.2992 72.4204C61.8296 72.4332 63.3599 72.3439 64.8775 72.5479C64.4822 72.9433 63.9975 73.1091 63.4747 73.2494C62.7605 73.4407 62.0719 73.4534 61.3577 73.3641C60.7966 73.1729 60.1717 73.1601 59.6616 72.7902Z" fill="white"/>
<path d="M90.0899 69.1556C91.2376 69.3086 92.3854 69.398 93.5204 69.1302C93.5714 69.5383 93.6224 69.9464 93.6734 70.3417C92.4874 70.3417 91.2886 70.3545 90.1026 70.3545C90.0899 69.9591 90.0899 69.5637 90.0899 69.1556Z" fill="white"/>
<path d="M90.0899 70.3673C91.2759 70.3673 92.4747 70.3545 93.6607 70.3545C93.7117 70.7243 93.7627 71.0942 93.8009 71.464C92.6022 71.464 91.4034 71.464 90.2047 71.464C90.1792 71.0942 90.1281 70.7371 90.0899 70.3673Z" fill="white"/>
<path d="M27.2057 65.8909C26.8231 66.095 26.415 65.9929 26.0196 66.0057C25.4075 66.0184 24.7826 65.9674 24.1705 66.1332C24.1322 65.7251 24.094 65.3298 24.0557 64.9217C25.1652 64.9344 26.262 64.9344 27.3714 64.9472C27.2822 65.2405 27.397 65.5976 27.2057 65.8909Z" fill="white"/>
<path d="M64.6352 67.8294C65.8085 67.8294 66.9818 67.8294 68.1423 67.8294C68.1295 68.1992 67.9382 68.4926 67.7724 68.7986C66.7904 68.7986 65.8212 68.7986 64.8393 68.7986C64.597 68.7986 64.3546 68.7986 64.1378 68.6711C64.3036 68.3905 64.4695 68.1099 64.6352 67.8294Z" fill="white"/>
<path d="M101.325 65.6486C101.185 65.8527 100.981 65.8909 100.751 65.8909C99.7693 65.8782 98.7745 65.8782 97.7926 65.8782C97.8818 65.5594 97.7415 65.215 97.9328 64.909C99.0806 64.909 100.228 64.909 101.376 64.9217C101.351 65.164 101.338 65.4063 101.325 65.6486Z" fill="white"/>
<path d="M68.6269 65.8909C67.7724 65.8909 66.918 65.8782 66.0635 65.8909C65.7702 65.9037 65.5279 65.8271 65.2984 65.6486C65.3366 65.4063 65.3621 65.164 65.4004 64.9217C66.5099 64.9217 67.6321 64.9217 68.7416 64.9344C68.7544 65.2405 68.8054 65.5849 68.6269 65.8909Z" fill="white"/>
<path d="M80.7548 72.6755C81.2776 73.2238 81.9408 73.4789 82.6805 73.5936C81.3159 73.7849 80.1426 73.4406 79.1989 72.3949C79.1862 72.0888 79.5688 71.9868 79.556 71.6935C79.6708 71.7318 79.7856 71.7828 79.9003 71.8211C80.1681 72.1271 80.3722 72.4842 80.7548 72.6755Z" fill="white"/>
<path d="M107.689 68.5562C107.23 68.5052 106.949 68.2757 106.924 67.7911C106.898 67.2809 107.217 67.0386 107.663 67.0259C108.11 67.0131 108.416 67.2299 108.416 67.7528C108.403 68.2629 108.161 68.4925 107.689 68.5562Z" fill="white"/>
<path d="M64.8775 72.5606C64.8775 72.3056 65.056 72.3183 65.2346 72.3183C65.1708 72.4586 65.0305 72.5224 64.8775 72.5606Z" fill="white"/>
<path d="M42.7896 69.7551C42.6748 69.6403 42.6748 69.5255 42.7768 69.4108C42.7896 69.5255 42.7896 69.6403 42.7896 69.7551Z" fill="white"/>
<path d="M42.8534 71.821C42.8534 71.7827 42.8534 71.7317 42.8534 71.6935C42.8661 71.719 42.8916 71.7572 42.8916 71.7827C42.8916 71.7955 42.8661 71.8082 42.8534 71.821Z" fill="white"/>
<path d="M38.1093 69.7551C38.122 69.7806 38.1348 69.8061 38.1475 69.8188C38.1475 69.8316 38.1348 69.8443 38.122 69.8571C38.0838 69.8316 38.0838 69.7933 38.1093 69.7551Z" fill="white"/>
<path d="M100.981 67.8166C100.994 67.7911 101.006 67.7656 101.032 67.7401C101.045 67.7783 101.032 67.8038 100.981 67.8166Z" fill="white"/>
<path d="M86.7869 58.3157C86.9272 58.6983 87.0547 59.0809 87.195 59.4635C87.1822 59.5655 87.2077 59.6548 87.2842 59.7185C87.297 60.1011 87.4883 60.4327 87.5776 60.7898C87.6158 61.0193 87.6413 61.2489 87.7689 61.4657C87.8199 61.8482 87.8836 62.2308 87.9346 62.6134C87.9219 62.7409 87.8836 62.8812 87.9984 62.9832C88.0239 63.3021 88.0367 63.6336 88.0622 63.9525C88.0367 63.9907 88.0494 64.029 88.0622 64.0672C88.0239 64.284 88.0749 64.4753 88.1387 64.6794C88.1259 64.7941 88.1259 64.9217 88.1132 65.0365C87.9219 64.9089 87.6923 64.9217 87.4755 64.9217C86.6976 64.9217 85.9197 64.9217 85.1418 64.9217C84.8867 64.9217 84.6699 64.9089 84.5169 64.6794C84.3256 63.5571 84.2236 62.4094 83.9303 61.2999C83.6114 60.0756 83.2289 58.8768 82.6932 57.7163C82.5529 57.423 82.5912 57.3082 82.9355 57.2445C83.6242 57.1169 84.3001 56.9384 84.9887 56.7726C85.1545 56.7854 85.3203 56.7726 85.4606 56.6706C85.7922 56.441 86.1365 56.1477 86.213 56.8874C86.2258 57.0659 86.366 57.2317 86.4553 57.4103C86.4298 57.525 86.4553 57.6143 86.5446 57.6908C86.5318 57.7291 86.5446 57.7546 86.5701 57.7801C86.5701 57.9841 86.6466 58.1627 86.7869 58.3157Z" fill="white"/>
<path d="M70.7693 64.909C70.7183 63.0216 70.9989 61.1724 71.5217 59.3488C71.7258 58.6219 72.0828 57.9332 72.1466 57.168C72.1849 57.1298 72.2231 57.0788 72.2614 57.0405C72.4272 57.066 72.5802 57.1043 72.746 57.1298C73.6259 57.2828 74.5059 57.4486 75.3986 57.4996C75.5899 57.5124 75.6536 57.6526 75.7429 57.7674C75.6026 57.9205 75.5644 58.1245 75.5006 58.3158C74.7227 60.4583 74.3911 62.6645 74.2891 64.9345C73.1286 64.909 71.9553 64.909 70.7693 64.909Z" fill="white"/>
<path d="M80.1427 58.3668C80.2064 58.3796 80.2575 58.3923 80.3212 58.3923C81.0481 58.3923 80.9844 58.3923 80.9206 59.132C80.7548 61.0577 80.8186 62.9833 80.9334 64.909C79.9514 64.909 78.9567 64.909 77.9747 64.909C77.9619 62.7538 77.8727 60.6113 77.3498 58.5071C78.0002 58.4561 78.6506 58.4051 79.301 58.3541C79.4668 58.3541 79.6198 58.3413 79.7856 58.3413C79.8239 58.3413 79.8621 58.3413 79.9131 58.3413C79.9896 58.3541 80.0662 58.3668 80.1427 58.3668Z" fill="white"/>
<path d="M37.3696 65.0365C37.3186 64.9982 37.2804 64.96 37.2294 64.9217C37.2804 64.96 37.3314 64.9982 37.3696 65.0365Z" fill="white"/>
<path d="M59.8274 64.9217C59.8019 65.2405 59.7636 65.5593 59.7381 65.8909C58.8709 65.8909 58.0037 65.8654 57.1365 65.9037C56.7284 65.9164 56.4989 65.7889 56.4096 65.4063C56.4351 65.2405 56.4734 65.0875 56.4989 64.9217C57.6211 64.9217 58.7179 64.9217 59.8274 64.9217Z" fill="white"/>
<path d="M53.8463 64.9217C53.8591 65.2278 53.8718 65.5466 53.8846 65.8527C52.7113 65.8654 51.5381 65.8782 50.3648 65.8782C50.3648 65.5594 50.3521 65.2405 50.3521 64.909C51.5126 64.9217 52.6731 64.9217 53.8463 64.9217Z" fill="white"/>
<path d="M74.3146 65.891C74.3401 66.5286 74.3784 67.1662 74.4039 67.8039C73.2179 67.8039 72.0191 67.8166 70.8331 67.8166C70.8076 67.0897 70.7821 66.3628 70.7438 65.6359C70.9734 65.8399 71.2539 65.9037 71.5728 65.891C72.491 65.8782 73.3964 65.891 74.3146 65.891Z" fill="white"/>
<path d="M70.8331 67.8166C72.0191 67.8166 73.2179 67.8039 74.4039 67.8039C74.4932 68.3395 74.5952 68.8751 74.6844 69.4107C73.4729 69.4107 72.2742 69.4107 71.0626 69.3979C70.9989 68.8623 70.9096 68.3395 70.8331 67.8166Z" fill="white"/>
<path d="M74.3146 65.891C73.3964 65.891 72.4909 65.8782 71.5727 65.9037C71.2539 65.9037 70.9861 65.8526 70.7438 65.6486C70.7055 65.4063 70.68 65.164 70.7693 64.9217C71.9553 64.9217 73.1286 64.9344 74.3146 64.9344C74.3146 65.2405 74.3146 65.5594 74.3146 65.891Z" fill="white"/>
<path d="M77.3626 69.2705C77.4008 68.7604 77.5666 68.2885 77.7324 67.8166C77.9364 67.9314 78.1532 67.9442 78.37 67.9314C79.3775 67.9187 80.3977 67.9824 81.4052 67.7784C81.4307 67.8294 81.4562 67.8804 81.4689 67.9314C81.6092 68.314 81.7495 68.6839 81.8898 69.0664C81.8133 69.245 81.6985 69.3853 81.4945 69.3853C80.1172 69.347 78.7271 69.5383 77.3626 69.2705Z" fill="white"/>
<path d="M56.4224 65.4064C56.5116 65.7889 56.7284 65.9165 57.1493 65.9037C58.0165 65.8655 58.8837 65.891 59.7508 65.891C59.7508 66.1333 59.7508 66.3756 59.7508 66.6306C59.7381 66.6434 59.7253 66.6561 59.7253 66.6561C59.7381 66.6816 59.7508 66.6944 59.7636 66.7199C59.8146 67.077 59.8784 67.4341 59.9294 67.7911C58.8071 67.7784 57.6721 67.9442 56.5499 67.8166C56.5244 67.0132 56.2948 66.2098 56.4224 65.4064Z" fill="white"/>
<path d="M56.5372 67.8166C57.6594 67.9441 58.7944 67.7911 59.9167 67.7911C60.108 68.212 60.2993 68.62 60.4778 69.0409C59.279 69.0409 58.0675 69.0409 56.8687 69.0409C56.6775 68.6583 56.6264 68.2247 56.5372 67.8166Z" fill="white"/>
<path d="M50.352 65.8782C51.5253 65.8655 52.6985 65.8527 53.8718 65.8527V65.8655C53.8973 65.9165 53.9101 65.9675 53.9356 66.0185C53.9483 66.6306 53.9611 67.23 53.9738 67.8422C52.8006 67.8422 51.64 67.8422 50.4668 67.8422C50.25 67.179 50.352 66.5286 50.352 65.8782Z" fill="white"/>
<path d="M50.4668 67.8166C51.6401 67.8166 52.8006 67.8166 53.9739 67.8166C54.0886 68.2502 54.1141 68.6965 54.0759 69.1556C52.8771 69.1556 51.6783 69.1556 50.4796 69.1556C50.4668 68.7093 50.4668 68.2629 50.4668 67.8166Z" fill="white"/>
<path d="M50.4796 69.1556C51.6783 69.1556 52.8771 69.1556 54.0759 69.1556C54.0759 69.5637 54.0758 69.9591 54.0886 70.3672C53.2597 70.2779 52.4307 70.2269 51.589 70.2396C51.2447 70.2524 50.9131 70.2651 50.5816 70.3672C50.5433 69.9591 50.5051 69.5509 50.4796 69.1556Z" fill="white"/>
<path d="M88.1259 65.8909C88.1387 65.9292 88.1642 65.9674 88.1769 66.0057C88.1642 66.5286 88.1514 67.0642 88.1259 67.587C86.9654 67.587 85.7922 67.5743 84.6317 67.5743C84.6317 67.0132 84.6317 66.452 84.6189 65.8782C85.7922 65.8909 86.9654 65.8909 88.1259 65.8909Z" fill="white"/>
<path d="M88.1259 65.8909C86.9654 65.8909 85.8049 65.8909 84.6317 65.8909C84.5934 65.4829 84.5551 65.0875 84.5296 64.6794C84.6827 64.909 84.8995 64.9217 85.1545 64.9217C85.9324 64.909 86.7104 64.9217 87.4883 64.9217C87.7051 64.9217 87.9219 64.909 88.1259 65.0365C88.1259 65.3171 88.1259 65.5976 88.1259 65.8909Z" fill="white"/>
<path d="M81.3924 67.7912C80.385 68.008 79.3775 67.9315 78.3573 67.9442C78.1405 67.9442 77.9237 67.9442 77.7196 67.8295C77.8727 67.1918 77.7579 66.5159 77.9492 65.891C78.9949 65.891 80.0279 65.891 81.0736 65.891C81.1884 66.5159 81.2904 67.1536 81.3924 67.7912Z" fill="white"/>
<path d="M81.0736 65.891C80.0279 65.891 78.9949 65.891 77.9492 65.891C77.9619 65.5722 77.9619 65.2405 77.9747 64.9217C78.9566 64.9217 79.9514 64.9217 80.9333 64.9217C80.9843 65.2405 81.0354 65.5594 81.0736 65.891Z" fill="white"/>
<path d="M81.4562 67.9441C81.4307 67.8931 81.4052 67.8422 81.3924 67.7912C81.418 67.8422 81.4435 67.8931 81.4562 67.9441Z" fill="white"/>
<path d="M53.9356 66.0058C53.9101 65.9547 53.8973 65.9037 53.8718 65.8527C53.9483 65.891 53.9611 65.942 53.9356 66.0058Z" fill="white"/>
<path d="M59.7509 66.7199C59.7381 66.6944 59.7254 66.6817 59.7126 66.6562C59.7126 66.6562 59.7254 66.6434 59.7381 66.6307C59.7764 66.6562 59.7764 66.6817 59.7509 66.7199Z" fill="white"/>
</svg>
