<svg width="128" height="128" viewBox="0 0 128 128" fill="none" xmlns="http://www.w3.org/2000/svg">
<rect width="128" height="128" fill="#E7E7E7"/>
<path d="M68.0505 69.879V51.0001H63.3489L41.5044 68.4323V72.6276H65.0125V77.7632H67.9782V72.6276H72.0288V69.879H68.0505ZM64.5785 69.879L45.121 69.662L64.5785 54.3274V69.879Z" fill="#FF0000"/>
<path d="M73.9097 77.7632H90.6185C91.2695 77.7632 91.9928 77.6908 92.6438 77.4738C94.1628 76.9675 96.4775 75.5932 96.4775 72.2659V55.1954C96.4775 54.7614 96.4051 54.3274 96.1881 53.9657C95.6818 52.8807 94.4522 51.0724 91.7758 51.0724H74.4883C74.1267 51.0724 73.765 51.1447 73.4033 51.2171C72.1013 51.6511 69.0634 52.953 69.0634 56.3527C69.0634 60.765 69.0634 62.6456 69.0634 62.6456C69.0634 62.6456 68.557 66.8409 73.114 66.8409H90.1122C90.6908 66.8409 91.1972 66.6963 91.7758 66.4793C92.4992 66.1899 93.3672 65.6113 93.4395 64.8156L93.3672 72.2659C93.3672 72.2659 93.2948 74.5082 91.1249 74.5082H74.85C74.3437 74.5082 73.8373 74.4359 73.331 74.1465C72.68 73.8572 72.246 73.3509 72.1737 72.4105C72.029 70.7469 72.1737 69.8066 72.1737 69.8066H69.859L69.9314 73.7125V73.9295C70.293 76.0272 71.8843 77.5462 73.9097 77.7632ZM92.9332 61.7776C92.9332 61.7776 92.6438 63.586 90.4739 63.6583C88.3039 63.7306 74.4883 63.6583 74.4883 63.6583C74.4883 63.6583 72.246 63.586 72.246 61.85C72.1737 60.0416 72.246 56.9313 72.246 56.9313C72.246 56.9313 72.029 54.3274 75.718 54.3274H90.0399C90.6185 54.3274 91.1972 54.472 91.7758 54.689C92.3545 54.9784 93.0055 55.557 93.0778 56.425C93.0055 58.2333 92.9332 61.7776 92.9332 61.7776Z" fill="#FF0000"/>
<path d="M41.5045 66.6962L49.0271 60.6926C48.6655 59.1736 48.0145 57.944 47.0018 57.0037C45.4828 55.6293 43.1682 54.906 40.0579 54.906C36.5136 54.906 33.6926 55.9187 31.5949 57.8716L31.3779 55.2677H24V77.7631H31.8119V61.9946C32.8969 60.548 34.5606 59.8246 36.8029 59.8246C38.4665 59.8246 39.6962 60.114 40.4195 60.6926C41.1429 61.2713 41.5045 62.2116 41.5045 63.4413V66.6962Z" fill="#545454"/>
<path d="M101.468 56.9313C100.094 56.9313 98.9368 55.774 98.9368 54.3997C98.9368 53.0254 100.094 51.868 101.468 51.868C102.843 51.868 104 53.0254 104 54.3997C104 55.8463 102.843 56.9313 101.468 56.9313ZM101.468 52.6637C100.456 52.6637 99.6601 53.4594 99.6601 54.472C99.6601 55.4847 100.456 56.2803 101.468 56.2803C102.481 56.2803 103.277 55.4847 103.277 54.472C103.204 53.4594 102.409 52.6637 101.468 52.6637Z" fill="#545454"/>
<path d="M41.5044 73.8573V77.7633H49.3163V73.8573H41.5767" fill="#545454"/>
</svg>
