<svg width="128" height="128" viewBox="0 0 128 128" fill="none" xmlns="http://www.w3.org/2000/svg">
<rect width="128" height="128" fill="#79859B"/>
<path fill-rule="evenodd" clip-rule="evenodd" d="M19.8135 66.6161V73.6339C19.8135 74.9304 18.7629 75.982 17.4664 75.982C16.1699 75.982 15.1193 74.9304 15.1193 73.6339V66.769L14.9998 60.4853C14.9998 60.4853 15.3575 58.442 17.6056 58.391C19.4186 58.3499 24.1245 58.442 25.8758 58.4783C26.4922 58.491 27.1066 58.59 27.6878 58.7977C29.0059 59.2711 31.0325 60.4177 31.3226 63.0401L31.4617 66.6161V73.6339C31.4617 74.9304 30.4102 75.982 29.1137 75.982C27.8171 75.982 26.7666 74.9304 26.7666 73.6339V64.6748C26.7666 64.6748 26.8695 62.0523 23.3268 62.1542C19.7851 62.2561 19.8194 64.4709 19.8194 64.4709L19.8135 66.6161Z" fill="white"/>
<path fill-rule="evenodd" clip-rule="evenodd" d="M102.473 75.9816C101.177 75.9816 100.125 74.931 100.125 73.6335V61.0964C100.125 59.7999 101.177 58.7493 102.473 58.7493C103.769 58.7493 104.821 59.7999 104.821 61.0964V73.6335C104.821 74.931 103.769 75.9816 102.473 75.9816Z" fill="white"/>
<path fill-rule="evenodd" clip-rule="evenodd" d="M110.102 75.9816C108.806 75.9816 107.755 74.931 107.755 73.6335V61.0964C107.755 59.7999 108.806 58.7493 110.102 58.7493C111.399 58.7493 112.45 59.7999 112.45 61.0964V73.6335C112.45 74.931 111.399 75.9816 110.102 75.9816Z" fill="white"/>
<path fill-rule="evenodd" clip-rule="evenodd" d="M42.0754 71.8262C39.8881 71.8262 38.1143 69.8594 38.1143 67.4339C38.1143 65.0074 39.8881 63.0396 42.0754 63.0396C44.2638 63.0396 46.0376 65.0074 46.0376 67.4339C46.0376 69.8594 44.2638 71.8262 42.0754 71.8262ZM48.7649 58.8001C47.6075 58.8001 46.6472 59.639 46.4551 60.7424C45.0596 59.4077 43.2456 58.5953 41.2581 58.5953C36.857 58.5953 33.2888 62.5525 33.2888 67.4339C33.2888 72.3142 36.857 76.2705 41.2581 76.2705C43.2485 76.2705 45.0635 75.4571 46.46 74.1204C46.6638 75.2082 47.6173 76.0324 48.7649 76.0324C50.0615 76.0324 51.112 74.9818 51.112 73.6853V61.1472C51.112 59.8506 50.0615 58.8001 48.7649 58.8001Z" fill="white"/>
<path fill-rule="evenodd" clip-rule="evenodd" d="M97.0241 65.3437C96.9938 63.0936 95.9422 60.9337 94.0841 59.6646C90.6238 57.3009 86.8714 59.3883 85.421 60.3928C85.0447 60.6525 84.5488 60.6437 84.1813 60.3722C78.9873 56.5482 75.3495 60.5065 74.8987 61.0376C74.8674 59.7685 73.8305 58.7493 72.5536 58.7493C71.2581 58.7493 70.2075 59.7999 70.2075 61.0964V73.6335C70.2075 74.931 71.2581 75.9816 72.5536 75.9816C73.8511 75.9816 74.9017 74.931 74.9017 73.6335V64.4862C74.9634 64.4157 75.0908 64.2775 75.2809 64.104C77.5741 62.0264 81.2521 63.6748 81.2756 66.7696V73.6335C81.2756 74.931 82.3261 75.9816 83.6227 75.9816C84.9182 75.9816 85.9698 74.931 85.9698 73.6335V66.6158L85.9639 66.2022C85.9335 64.2206 87.5672 62.535 89.5438 62.6713C89.634 62.6781 89.7251 62.6879 89.8172 62.7016C91.2951 62.927 92.3447 64.2765 92.3466 65.773L92.3476 73.6335C92.3476 74.931 93.3981 75.9816 94.6937 75.9816C95.9902 75.9816 97.0418 74.931 97.0418 73.6335V66.6158L97.0241 65.3437Z" fill="white"/>
<path fill-rule="evenodd" clip-rule="evenodd" d="M105.235 54.5255C105.235 56.0867 103.969 57.3518 102.408 57.3518C100.846 57.3518 99.581 56.0867 99.581 54.5255C99.581 52.9644 100.846 51.6992 102.408 51.6992C103.969 51.6992 105.235 52.9644 105.235 54.5255Z" fill="white"/>
<path fill-rule="evenodd" clip-rule="evenodd" d="M113 54.5255C113 56.0867 111.735 57.3518 110.173 57.3518C108.611 57.3518 107.346 56.0867 107.346 54.5255C107.346 52.9644 108.611 51.6992 110.173 51.6992C111.735 51.6992 113 52.9644 113 54.5255Z" fill="white"/>
<path fill-rule="evenodd" clip-rule="evenodd" d="M67.1993 59.0914C65.9861 58.6357 64.6327 59.2502 64.177 60.4634L61.8338 66.706L60.7392 69.7146L59.7935 67.0088L57.3337 60.4046C56.8809 59.1894 55.5295 58.572 54.3153 59.0248C53.1001 59.4766 52.4817 60.828 52.9345 62.0432L54.5446 66.365L58.2705 74.8419C58.3029 74.9164 58.3382 74.9899 58.3744 75.0634C58.7792 76.0571 59.7121 76.752 60.7989 76.752C61.9357 76.752 62.902 75.9895 63.2734 74.9223C63.2823 74.9027 63.295 74.886 63.3028 74.8664L65.4559 70.0047C66.0596 68.6317 66.3663 67.8291 66.8181 66.7834L68.5713 62.1137C69.027 60.9005 68.4125 59.5471 67.1993 59.0914Z" fill="white"/>
</svg>
