<svg width="128" height="129" viewBox="0 0 128 129" fill="none" xmlns="http://www.w3.org/2000/svg">
<rect width="128" height="128" transform="translate(0 0.555664)" fill="#2E3136"/>
<path d="M31.4971 52.2871V104.876H50.7458V92.7555C50.7458 82.9669 47.5268 73.441 41.6142 65.6233L31.4971 52.2871Z" fill="#FF3333"/>
<path d="M62.4396 58.1669L49.202 40.9546H31.4971V41.0532C31.4971 44.6993 32.6796 48.2797 34.9132 51.2031L59.2863 83.3282L75.9072 104.909H93.6121C93.6121 101.263 92.4296 97.6827 90.196 94.7592L62.4396 58.1669Z" fill="#FF3333"/>
<path d="M96.5027 38.3269L84.0205 24.2023L71.5384 38.3926L74.429 40.9218V59.1195C74.429 65.0978 76.3999 70.9447 80.0131 75.7076L93.5792 93.5767V40.9547L96.5027 38.3269Z" fill="#FF3333"/>
</svg>
