<svg width="129" height="129" viewBox="0 0 129 129" fill="none" xmlns="http://www.w3.org/2000/svg">
<rect width="128" height="128" transform="translate(0.666504 0.69458)" fill="#00CD76"/>
<path d="M114.805 60.7588C115.251 60.7588 115.697 60.8182 116.142 60.9073V57.1647C115.726 57.1053 115.34 57.0756 114.954 57.0756C113.023 57.0756 111.003 57.8479 110.231 59.7489V57.3132H106.578V73.7687H110.498V65.4816C110.498 64.1449 110.855 62.9568 111.598 62.1251C112.34 61.2637 113.409 60.7588 114.805 60.7588ZM99.9242 73.7687H103.786V63.5806C103.786 62.4816 103.726 61.2934 103.31 60.2538C102.36 57.7885 99.9539 56.8974 97.1321 56.8974C93.4787 56.8974 90.538 58.5311 90.3004 62.1845H94.1321C94.2509 60.6994 95.3202 59.8974 97.1321 59.8974C99.3896 59.8974 99.9242 60.937 99.9242 62.4816V63.4915L95.0826 63.8479C91.9341 64.0558 89.4984 65.8677 89.4984 69.0162C89.4984 69.2539 89.5281 69.4915 89.5578 69.7291C89.8846 72.1351 91.9044 74.1549 95.4688 74.1549C95.5579 74.1549 95.7361 74.1549 95.7361 74.1549C97.8153 74.0063 99.3896 72.9073 99.9539 71.6895V73.7687H99.9242ZM99.9242 67.2044C99.9242 69.64 98.1717 70.9766 95.7064 70.9766C94.4588 70.9766 93.3598 70.1747 93.3598 68.9271C93.3598 67.5905 94.5182 66.8776 95.7361 66.7885L99.9242 66.4618V67.2044ZM84.4786 73.9766C85.637 73.9766 86.7361 73.8281 87.8351 73.5311V70.2638C86.7658 70.3826 86.1123 70.4123 85.3103 70.4123C84.6568 70.4123 84.1816 70.2638 83.8846 69.9667C83.5578 69.6697 83.439 69.1945 83.439 68.541V62.1845H87.5974V58.9766H83.439V54.3132L79.5479 57.4321V68.9271C79.5182 72.1054 81.1519 73.9766 84.4786 73.9766ZM71.439 63.8479C70.8152 63.7588 70.3103 63.6994 69.4192 63.5806C68.5281 63.4618 67.4588 63.0756 67.4588 61.8578C67.4588 61.1449 67.9637 60.7291 68.4687 60.4618C68.9736 60.1647 69.7162 60.0459 70.4588 60.0459C72.0628 60.0459 73.1618 60.7291 73.934 61.5905L74.0529 61.7093L76.7855 59.541C76.7558 59.5113 76.7261 59.4519 76.6964 59.4222C76.6667 59.3925 76.6667 59.3627 76.637 59.333L76.6073 59.3033C76.5182 59.1845 76.4291 59.0954 76.34 58.9766C76.2509 58.8875 76.1618 58.7984 76.0727 58.7093C74.6766 57.4023 72.6271 56.8677 70.637 56.8677C68.9439 56.8677 67.2509 57.2835 65.9439 58.1152C64.934 58.7687 64.1914 59.6895 63.8944 60.8776C63.8053 61.2043 63.7756 61.5311 63.7756 61.8875C63.7756 61.9469 63.7756 62.0954 63.7756 62.2439C63.7756 62.2736 63.7756 62.3034 63.7756 62.3331C63.7756 62.541 63.8053 62.8083 63.835 62.9271C64.132 64.7093 65.5578 66.1944 67.5182 66.6103C67.637 66.64 67.7261 66.6697 67.8449 66.6697C67.9043 66.6697 67.9637 66.6994 68.0231 66.6994C68.0528 66.6994 68.0825 66.6994 68.1122 66.7291C69.4192 66.9667 70.8152 67.0558 72.0925 67.2341C73.043 67.3826 73.7855 67.9172 73.7855 68.7489C73.7855 69.4915 73.3103 69.8776 72.9538 70.1153C72.5083 70.4123 72.033 70.5905 71.6469 70.6796C71.1717 70.7984 70.6073 70.8281 70.2212 70.8281C69.5677 70.8281 69.0033 70.739 68.5875 70.6202C67.2806 70.2638 66.0924 69.2836 65.4984 68.541L62.736 70.7687C62.9439 71.0657 63.8647 72.1054 65.0528 72.7885C66.7756 73.7687 68.3499 74.1252 69.9835 74.1252C71.7954 74.1252 73.5776 73.7984 74.9737 72.9667C76.34 72.1351 77.3202 70.8578 77.3499 69.0162C77.3499 68.8974 77.3499 68.7786 77.3499 68.6598C77.3499 66.0756 75.4786 64.442 72.8647 64.0261C72.5083 63.9667 72.2113 63.937 71.9439 63.8776C71.8548 63.8776 71.7657 63.8479 71.7063 63.8479C71.6469 63.8479 71.5875 63.8182 71.5281 63.8182C71.5578 63.8776 71.4984 63.8479 71.439 63.8479ZM57.3895 75.0757L60.8944 72.2836V57.3132H57.0033V66.0162C57.0033 67.3529 56.7657 68.8677 55.7855 69.7588C55.3102 70.2341 54.6568 70.5905 53.7063 70.5905C52.637 70.5905 51.9241 70.2935 51.4488 69.7291C50.9736 69.1648 50.7954 68.3628 50.7954 67.4123V57.3132H46.9043V68.3034C46.9043 71.8083 49.0726 74.1846 52.5776 74.1846C54.6568 74.1846 56.5875 73.2638 57.3597 71.6598V75.0757H57.3895ZM44.4389 65.6598C44.4389 65.4816 44.4389 65.3034 44.4389 65.1548C44.4389 63.2836 44.1122 61.5905 43.0132 59.9271C41.6468 57.8776 39.4488 56.8974 37.0132 56.8974C34.7557 56.8974 33.0033 57.7291 31.7557 58.9766C30.1815 60.5806 29.3795 62.9271 29.3795 65.5707C29.3795 68.2737 30.2706 70.5608 31.9042 72.1648C33.2112 73.4123 34.8448 74.1846 37.1023 74.1846C39.1815 74.1846 41.2607 73.5311 42.627 71.8677C43.2508 71.1252 43.9043 69.8479 44.0231 68.8677H40.2805C40.1023 69.4618 39.835 69.9073 39.4785 70.2638C38.8845 70.8578 38.1716 71.0657 37.0429 71.0657C35.9439 71.0657 35.1419 70.5905 34.5775 70.0261C33.8052 69.2836 33.3597 68.1251 33.3597 66.8776C33.3597 66.8479 33.3597 66.7885 33.3597 66.7588V66.7291H44.4389C44.4092 66.3727 44.4389 65.6598 44.4389 65.6598ZM40.5478 63.9073H33.3003V63.8776C33.33 62.7786 33.5973 62.0063 34.1617 61.2934C34.7557 60.5212 35.7359 60.0162 36.9538 60.0162C38.1122 60.0162 38.9439 60.4024 39.5082 60.9964C40.1617 61.7093 40.5181 62.6598 40.5478 63.9073ZM23.2607 73.7687H27.1518V62.7786C27.1518 59.3627 25.1022 56.8974 21.5973 56.8974C19.6963 56.8974 17.7359 57.6994 16.7557 59.4222L16.6666 59.5707V57.3132H13.1616V73.7687H17.0527V66.64C17.0527 65.3331 17.0824 63.8182 17.5874 62.6301C18.122 61.4123 19.0725 60.4915 20.4983 60.4915C21.5676 60.4915 22.2508 60.7885 22.6963 61.3529C23.1121 61.8875 23.2904 62.6895 23.2904 63.6697V73.7687H23.2607ZM113.023 72.1648C113.023 73.0559 113.677 73.739 114.598 73.739C115.489 73.739 116.172 73.0261 116.172 72.1351C116.172 71.244 115.518 70.5608 114.598 70.5608C113.677 70.5905 113.023 71.2737 113.023 72.1648ZM113.32 72.1648C113.32 71.4222 113.825 70.8578 114.598 70.8578C115.37 70.8578 115.875 71.4222 115.875 72.1648C115.875 72.937 115.37 73.4717 114.598 73.4717C113.825 73.4717 113.32 72.937 113.32 72.1648ZM114.657 71.3034H114.033V72.9667H114.33V72.343H114.657L114.924 72.9667H115.251L114.954 72.3133C115.162 72.2242 115.251 72.0459 115.251 71.838C115.251 71.4816 114.954 71.3034 114.657 71.3034ZM114.33 71.5707H114.657C114.805 71.5707 114.954 71.6598 114.954 71.838C114.954 72.0162 114.835 72.1054 114.657 72.1054H114.33V71.5707Z" fill="white"/>
</svg>
