<svg width="128" height="128" viewBox="0 0 128 128" fill="none" xmlns="http://www.w3.org/2000/svg">
<rect width="128" height="128" fill="#76D40E"/>
<path d="M68.6937 33.62C60.0179 34.799 51.684 40.2092 48.3728 48.5079C43.4931 45.5717 41.0998 40.0331 40.8885 34.5151C35.3022 34.4095 29.7262 34.5151 24.1502 34.397C23.4892 48.0935 33.5326 60.671 46.3816 64.668C46.3816 74.7238 46.1226 84.8003 46.5225 94.8561C52.1917 94.738 57.8733 94.939 63.5446 94.6552C63.3685 83.4328 63.5094 72.2 63.4514 60.9777C63.3685 57.6644 64.3009 54.1999 66.6921 51.8066C70.8404 47.1735 78.8801 47.0098 83.1838 51.5124C85.8008 53.9761 86.8845 57.6188 86.8389 61.131C86.9094 72.3534 86.8037 83.5737 86.8617 94.7961C92.5309 94.8189 98.2022 94.8085 103.871 94.8085C103.849 83.1385 103.919 71.481 103.849 59.8111C103.849 52.822 101.656 45.5241 96.3643 40.7044C89.1969 33.5972 78.2833 32.2524 68.6999 33.62" fill="white"/>
</svg>
