<svg width="128" height="128" viewBox="0 0 128 128" fill="none" xmlns="http://www.w3.org/2000/svg">
<rect width="128" height="128" fill="#D7E8F0"/>
<path d="M50.4595 102.429C42.2375 103.481 37.0981 98.7012 33.0586 92.0508C30.5387 87.903 28.7852 83.4088 27.0836 78.8886C26.6333 77.6979 26.6983 76.7497 28.1141 76.3254C30.911 75.4898 33.7297 74.7148 36.5007 73.7925C37.9857 73.2946 38.5313 73.7752 38.9859 75.191C40.2675 79.196 41.8824 83.0451 44.2248 86.5997C47.1387 91.016 50.8839 92.7392 56.1964 91.6525C59.8853 90.8948 63.7214 90.8602 67.3626 89.7258C68.2026 89.466 68.7221 89.834 68.9733 90.6697C69.6271 92.8648 70.1769 95.1032 70.9996 97.2378C71.7053 99.0779 70.8134 99.7533 69.3196 100.087C67.0076 100.602 64.6912 101.143 62.3489 101.438C58.5128 101.922 54.6983 102.767 50.4682 102.425L50.4595 102.429Z" fill="#005782"/>
<path d="M20.7189 49.7111C19.9266 42.0519 24.5723 36.6182 31.5518 32.6738C36.3274 29.9764 41.2243 27.5345 46.4243 25.7074C47.9483 25.1705 48.3639 25.4173 48.5891 26.911C48.9181 29.1018 49.4291 31.2667 49.8447 33.4488C50.1218 34.9079 49.3122 35.5054 48.0652 36.0856C44.1815 37.8954 40.2804 39.6619 36.6998 42.0952C34.3401 43.6972 33.327 45.8447 33.1884 48.4945C32.9546 52.9627 33.2837 57.3746 34.7384 61.6697C35.8252 64.8693 35.665 65.1205 32.3961 66.2029C30.2096 66.9259 27.9582 67.4542 25.7803 68.1989C24.3602 68.6838 23.806 68.2248 23.4033 66.8567C21.8446 61.5744 20.6323 56.2489 20.7189 49.7111Z" fill="#9EAF2C"/>
<path d="M107.3 71.9483C107.906 78.8932 104.498 83.9979 98.4974 87.795C93.436 91.0033 88.0066 93.4496 82.5555 95.8655C80.789 96.6492 79.5074 96.3937 78.9619 94.2462C78.4899 92.4018 77.8664 90.5963 77.2343 88.7995C76.7667 87.4832 77.1867 86.7688 78.4553 86.2493C81.538 84.9807 84.5948 83.6818 87.526 82.0452C94.3106 78.2567 96.0987 74.7367 94.7609 67.0125C94.6007 66.073 94.6613 65.0512 94.2976 64.2025C92.8212 60.7431 94.2976 58.7385 97.3414 57.2491C98.978 56.4524 100.498 55.409 102.039 54.4304C103.598 53.439 104.446 53.8243 104.966 55.6038C106.49 60.8211 107.434 66.1076 107.3 71.944V71.9483Z" fill="#EA8B31"/>
<path d="M55.2264 25.4258C58.1143 28.6254 59.6124 32.4529 61.4049 36.1114C64.2711 41.9522 67.0118 47.8535 69.7482 53.7592C70.3933 55.1534 71.0167 55.5257 72.7876 55.3655C78.3426 54.8633 83.8499 53.6596 89.3746 53.7116C89.669 54.4866 89.2967 54.7767 88.9893 54.9585C81.2348 59.587 73.4457 64.1678 65.7129 68.8352C64.1802 69.7574 63.5221 69.6189 63.154 67.7874C61.656 60.2624 60.0367 52.7634 58.5343 45.2384C57.3739 39.428 56.3045 33.6002 55.2394 27.7768C55.1008 27.0191 55.2221 26.2138 55.2221 25.4301L55.2264 25.4258Z" fill="#636564"/>
</svg>
