<svg width="40" height="41" viewBox="0 0 40 41" fill="none" xmlns="http://www.w3.org/2000/svg">
<path d="M0 20.75C0 9.70431 8.95431 0.75 20 0.75C31.0457 0.75 40 9.70431 40 20.75C40 31.7957 31.0457 40.75 20 40.75C8.95431 40.75 0 31.7957 0 20.75Z" fill="#F5F7F9"/>
<path d="M29.275 26.3L28 23.75V20.25C28 16.625 25.475 13.725 21.975 13C21.975 11.525 21.25 10.75 20 10.75C18.875 10.75 18 11.525 18.025 13C14.575 13.875 12 17.025 12 20.75V23.75L10.725 26.3C10.4 26.975 10.875 27.75 11.625 27.75H16.15C16.6 29.475 18.15 30.75 20 30.75C21.875 30.75 23.425 29.475 23.875 27.75H28.4C29.125 27.75 29.625 26.975 29.275 26.3ZM13.25 25.75L13.8 24.65C13.925 24.375 14 24.05 14 23.75V20.75C14 17.45 16.7 14.75 20 14.75C23.175 14.75 26 16.95 26 20.25V23.75C26 24.05 26.075 24.375 26.225 24.65L26.775 25.75H13.25ZM20 28.75C19.275 28.75 18.625 28.35 18.275 27.75H21.725C21.375 28.35 20.75 28.75 20 28.75Z" fill="#B6C1D3"/>
<path d="M20 39.75C9.50659 39.75 1 31.2434 1 20.75H-1C-1 32.348 8.40202 41.75 20 41.75V39.75ZM39 20.75C39 31.2434 30.4934 39.75 20 39.75V41.75C31.598 41.75 41 32.348 41 20.75H39ZM20 1.75C30.4934 1.75 39 10.2566 39 20.75H41C41 9.15202 31.598 -0.25 20 -0.25V1.75ZM20 -0.25C8.40202 -0.25 -1 9.15202 -1 20.75H1C1 10.2566 9.50659 1.75 20 1.75V-0.25Z" fill="#E6E9F0"/>
</svg>
