<svg width="128" height="128" viewBox="0 0 128 128" fill="none" xmlns="http://www.w3.org/2000/svg">
<rect width="128" height="128" fill="#049ADD"/>
<path d="M20.2104 88.1423V46.3191L33.3025 48.7372L38.01 39.8946C38.01 39.8946 71.6774 38.0632 76.8428 56.3778C76.8428 56.3778 79.9763 48.3938 89.0764 51.3842C98.4197 54.4462 101.482 57.823 101.482 57.823L103.313 63.7466L107.792 65.2347V88.1566H106.304V67.2808L103.943 66.4795L104.916 69.5272V88.1423H103.428V70.5001L101.41 63.1456V88.1423H99.8362V59.2395C99.8362 59.2395 93.283 54.8182 89.0334 54.1314C85.3991 53.5448 81.0637 53.3731 79.1178 58.2093C78.5884 59.54 78.3451 60.9708 78.3451 62.4016V88.1423H75.6981V63.1027C75.6981 63.1027 75.8555 57.4366 71.9064 52.3572C67.6568 46.8914 55.9383 44.4876 42.0878 44.4876V88.1423H38.4106V48.5082L33.0164 57.7514V88.1423H28.8813V56.3206L31.0132 52.4716L24.5744 51.3842V88.1566C24.5744 88.1423 20.0959 88.1423 20.2104 88.1423Z" fill="white"/>
</svg>
