<svg width="128" height="128" viewBox="0 0 128 128" fill="none" xmlns="http://www.w3.org/2000/svg">
<rect width="128" height="128" fill="white"/>
<path d="M36.2179 83.6203V81.4538H36.7286C36.8949 81.4501 37.0611 81.4656 37.2238 81.5002C37.3486 81.5291 37.4685 81.576 37.5797 81.6395C37.7282 81.7318 37.8486 81.8629 37.9279 82.0186C38.0098 82.1819 38.0522 82.3621 38.0517 82.5448C38.0564 82.7372 38.0082 82.9272 37.9124 83.0942C37.8248 83.2568 37.6899 83.389 37.5256 83.4733C37.2992 83.5824 37.0492 83.633 36.7982 83.6203H36.2179ZM36.4345 83.4269H36.7363C36.8975 83.4308 37.0586 83.4152 37.2161 83.3805C37.3336 83.3535 37.4427 83.2976 37.5333 83.218C37.6279 83.1387 37.7022 83.0378 37.75 82.9239C37.8029 82.8019 37.8293 82.6701 37.8273 82.5371C37.8274 82.381 37.7902 82.2271 37.719 82.0883C37.6476 81.9602 37.5435 81.8534 37.4172 81.7788C37.3291 81.7352 37.2353 81.704 37.1387 81.6859C37.0049 81.6722 36.8701 81.6722 36.7363 81.6859H36.4345V83.4269Z" fill="black"/>
<path d="M40.729 82.8929H39.2821C39.2839 82.9699 39.3021 83.0456 39.3354 83.115C39.3688 83.1844 39.4165 83.2458 39.4755 83.2953C39.5904 83.4044 39.7427 83.4653 39.9011 83.4655C40.0247 83.4606 40.1437 83.4173 40.2415 83.3417C40.3417 83.2793 40.42 83.1874 40.4659 83.0787H40.6903C40.6339 83.2429 40.5286 83.386 40.3886 83.4887C40.2504 83.5924 40.0815 83.6469 39.9088 83.6435C39.7948 83.6462 39.6815 83.6251 39.5761 83.5816C39.4738 83.5428 39.3809 83.4827 39.3036 83.4053C39.2262 83.328 39.1661 83.2351 39.1273 83.1328C39.0838 83.0274 39.0627 82.9141 39.0654 82.8001C39.0624 82.6532 39.0988 82.5083 39.171 82.3803C39.2431 82.2524 39.3483 82.1462 39.4755 82.0728C39.6054 81.9995 39.752 81.9611 39.9011 81.9611C40.0502 81.9611 40.1968 81.9995 40.3267 82.0728C40.4597 82.1481 40.5674 82.2612 40.6362 82.3977C40.672 82.4625 40.6956 82.5333 40.7058 82.6067C40.7248 82.7008 40.7326 82.7969 40.729 82.8929ZM39.2821 82.6995H40.5124C40.4832 82.553 40.4071 82.4199 40.2957 82.3204C40.1823 82.2278 40.0397 82.1785 39.8933 82.1811C39.7492 82.1775 39.6087 82.2271 39.4987 82.3204C39.3849 82.418 39.3084 82.5519 39.2821 82.6995Z" fill="black"/>
<path d="M43.2051 82.0186V83.6203H42.9885V83.3417C42.9443 83.4348 42.871 83.5109 42.7795 83.5584C42.6856 83.6119 42.5778 83.6362 42.47 83.628C42.3574 83.6345 42.2451 83.6104 42.145 83.5584C42.0468 83.5201 41.9647 83.449 41.9129 83.3572C41.8184 83.2073 41.775 83.0308 41.7891 82.8542V82.0186H42.0058V82.8852C41.9974 83.0196 42.0269 83.1536 42.0909 83.2721C42.1295 83.3341 42.1862 83.3827 42.2534 83.4113C42.3256 83.4468 42.405 83.4653 42.4855 83.4653C42.566 83.4653 42.6454 83.4468 42.7176 83.4113C42.7858 83.3773 42.8443 83.3268 42.8879 83.2643C42.9627 83.1384 42.9978 82.9927 42.9885 82.8465V82.0186H43.2051Z" fill="black"/>
<path d="M44.5359 83.6203V82.2198H44.1877V82.0186H44.5359V81.4537H44.7526V82.0186H45.1085V82.2198H44.7526V83.6203H44.5359Z" fill="black"/>
<path d="M45.9597 83.1483H46.1995C46.1985 83.2334 46.2288 83.316 46.2846 83.3804C46.3131 83.4086 46.3469 83.4307 46.3842 83.4453C46.4214 83.4599 46.4613 83.4668 46.5013 83.4655C46.5378 83.4666 46.5742 83.4602 46.6081 83.4465C46.642 83.4328 46.6726 83.4122 46.6981 83.3859C46.7236 83.3597 46.7433 83.3285 46.7561 83.2942C46.7688 83.26 46.7743 83.2234 46.7721 83.187C46.7742 83.1558 46.7698 83.1246 46.7591 83.0953C46.7484 83.066 46.7318 83.0392 46.7102 83.0167C46.637 82.9554 46.553 82.9082 46.4626 82.8774L46.1995 82.7846L46.1067 82.7227C46.0687 82.6855 46.0388 82.6409 46.0188 82.5916C45.9989 82.5424 45.9892 82.4895 45.9906 82.4364C45.9881 82.3767 45.9978 82.317 46.0191 82.2612C46.0404 82.2053 46.0728 82.1544 46.1144 82.1114C46.1579 82.0678 46.2099 82.0337 46.2671 82.011C46.3243 81.9884 46.3856 81.9778 46.4471 81.9799C46.5056 81.978 46.5639 81.988 46.6184 82.0093C46.673 82.0306 46.7226 82.0627 46.7644 82.1037C46.8069 82.143 46.8407 82.191 46.8633 82.2443C46.886 82.2977 46.8971 82.3552 46.8959 82.4132H46.6793C46.6773 82.3499 46.6526 82.2895 46.6096 82.243C46.5649 82.1999 46.5053 82.1759 46.4433 82.1759C46.3812 82.1759 46.3216 82.1999 46.2769 82.243C46.2541 82.2633 46.2361 82.2884 46.224 82.3165C46.212 82.3445 46.2063 82.3749 46.2073 82.4054C46.2097 82.4525 46.2256 82.498 46.253 82.5363C46.2805 82.5747 46.3183 82.6045 46.362 82.6221L46.656 82.7459C46.7402 82.7756 46.8126 82.8314 46.8627 82.9052C46.9128 82.979 46.938 83.0669 46.9346 83.156C46.9389 83.2873 46.8917 83.415 46.8031 83.5119C46.7564 83.5583 46.7008 83.5946 46.6396 83.6185C46.5783 83.6425 46.5128 83.6536 46.4471 83.6512C46.379 83.6544 46.311 83.6437 46.2471 83.6197C46.1833 83.5958 46.125 83.5591 46.0757 83.5119C45.9915 83.4103 45.9499 83.2799 45.9597 83.1483Z" fill="black"/>
<path d="M49.3487 83.1483H49.5885C49.5531 83.2212 49.5116 83.2911 49.4647 83.3572C49.4239 83.4067 49.3772 83.4509 49.3255 83.4888C49.1791 83.6066 48.9948 83.6671 48.807 83.659C48.6506 83.6626 48.4958 83.6253 48.3583 83.5507C48.2302 83.4793 48.1234 83.3751 48.0487 83.2489C47.9717 83.1176 47.9315 82.9679 47.9327 82.8156C47.9308 82.6681 47.971 82.5231 48.0487 82.3978C48.1189 82.2681 48.2269 82.1629 48.3583 82.096C48.4965 82.0103 48.656 81.965 48.8186 81.965C48.9813 81.965 49.1408 82.0103 49.279 82.096C49.4205 82.1856 49.5291 82.3186 49.5885 82.4751H49.3487C49.2892 82.377 49.2069 82.2947 49.1088 82.2353C49.0125 82.1792 48.903 82.1498 48.7916 82.1502C48.7067 82.1477 48.6224 82.163 48.5438 82.195C48.4652 82.2269 48.3941 82.2749 48.335 82.3359C48.2168 82.4584 48.1508 82.6221 48.1508 82.7924C48.1508 82.9627 48.2168 83.1263 48.335 83.2489C48.3961 83.3093 48.4686 83.3569 48.5484 83.3888C48.6281 83.4207 48.7134 83.4363 48.7993 83.4346C48.9022 83.4337 49.0033 83.4071 49.0933 83.3572C49.1925 83.3068 49.2796 83.2355 49.3487 83.1483Z" fill="black"/>
<path d="M50.6409 83.6203V81.4537H50.842V82.2275C50.8972 82.1481 50.9718 82.0841 51.0587 82.0418C51.1553 82.0003 51.2592 81.9789 51.3643 81.9789C51.4694 81.9789 51.5734 82.0003 51.67 82.0418C51.7646 82.0782 51.8476 82.1397 51.9099 82.2198C52.0127 82.378 52.0615 82.5653 52.0491 82.7537V83.6125H51.8479V82.7614C51.8566 82.612 51.8128 82.4642 51.7241 82.3436C51.6819 82.2905 51.6256 82.2503 51.5617 82.2275C51.4961 82.1974 51.4249 82.1816 51.3527 82.1811C51.2696 82.1796 51.1873 82.1982 51.1129 82.2352C51.0442 82.272 50.9857 82.3252 50.9426 82.39C50.8799 82.4977 50.8503 82.6215 50.8575 82.7459V83.6203H50.6409Z" fill="black"/>
<path d="M53.1636 83.6203V81.4537H53.3802V83.6203H53.1636Z" fill="black"/>
<path d="M56.1734 82.0186V83.6203H55.9567V83.3417C55.8876 83.4448 55.7947 83.5297 55.6859 83.5894C55.5792 83.6381 55.4627 83.6619 55.3454 83.659C55.1888 83.6645 55.0336 83.6271 54.8967 83.5507C54.7708 83.4825 54.6663 83.3807 54.5949 83.2566C54.5171 83.1256 54.4769 82.9757 54.4788 82.8233C54.4778 82.6745 54.5151 82.528 54.5872 82.3977C54.6616 82.2694 54.7683 82.1627 54.8967 82.0882C55.0269 82.0162 55.1734 81.9789 55.3222 81.9799C55.4479 81.9758 55.5728 82.0023 55.6859 82.0573C55.7947 82.1169 55.8876 82.2018 55.9567 82.3049V82.0186H56.1734ZM55.3222 82.1811C55.2396 82.1811 55.1578 82.1976 55.0817 82.2296C55.0056 82.2617 54.9366 82.3087 54.879 82.3678C54.8213 82.427 54.776 82.497 54.7458 82.5739C54.7156 82.6508 54.7012 82.733 54.7032 82.8156C54.7032 82.9853 54.7695 83.1483 54.8881 83.2698C55.0066 83.3912 55.168 83.4615 55.3377 83.4656C55.4202 83.4677 55.5022 83.4523 55.5783 83.4203C55.6543 83.3882 55.7227 83.3404 55.7788 83.2798C55.8696 83.19 55.9315 83.0751 55.9567 82.9499C55.9819 82.8247 55.9691 82.6948 55.9201 82.5769C55.8711 82.4589 55.7881 82.3583 55.6816 82.2878C55.5751 82.2173 55.45 82.1801 55.3222 82.1811Z" fill="black"/>
<path d="M57.3032 83.6203V82.0186H57.5199V82.2275C57.5819 82.1497 57.6608 82.087 57.7506 82.0441C57.8404 82.0012 57.9388 81.9792 58.0383 81.9799C58.1446 81.979 58.25 82.0001 58.3478 82.0418C58.4348 82.0788 58.5118 82.136 58.5724 82.2087C58.6329 82.2813 58.6753 82.3673 58.696 82.4596C58.7068 82.5677 58.7068 82.6765 58.696 82.7846V83.6203H58.4794V82.7846C58.4936 82.6975 58.4936 82.6086 58.4794 82.5215C58.4638 82.4569 58.4348 82.3962 58.3942 82.3436C58.3475 82.2895 58.289 82.2468 58.2234 82.2187C58.1577 82.1906 58.0865 82.1777 58.0151 82.1811C57.9318 82.178 57.8491 82.1966 57.7752 82.2352C57.7156 82.2617 57.6633 82.3024 57.6228 82.3536C57.5824 82.4048 57.555 82.4651 57.5431 82.5293C57.5329 82.6011 57.5329 82.6741 57.5431 82.7459V83.6203H57.3032Z" fill="black"/>
<path d="M61.497 81.4537V83.6203H61.2804V83.3417C61.2113 83.4448 61.1184 83.5297 61.0096 83.5893C60.9049 83.6446 60.7874 83.6713 60.6691 83.6667C60.515 83.6712 60.3625 83.6338 60.2281 83.5584C60.0965 83.4925 59.9865 83.3905 59.9108 83.2644C59.833 83.1334 59.7928 82.9834 59.7947 82.831C59.7937 82.6822 59.831 82.5357 59.9031 82.4055C59.9775 82.2771 60.0842 82.1704 60.2126 82.096C60.3459 82.0248 60.4947 81.9876 60.6459 81.9876C60.7673 81.9834 60.888 82.0078 60.9982 82.0589C61.1085 82.11 61.2051 82.1863 61.2804 82.2817V81.4537H61.497ZM60.6382 82.1811C60.5557 82.1789 60.4736 82.1943 60.3976 82.2264C60.3215 82.2584 60.2532 82.3062 60.1971 82.3668C60.1379 82.4268 60.0916 82.4982 60.061 82.5767C60.0304 82.6552 60.0162 82.7391 60.0191 82.8233C60.0181 82.9079 60.034 82.9919 60.0659 83.0703C60.0978 83.1487 60.1451 83.2199 60.2049 83.2797C60.2648 83.3396 60.336 83.3869 60.4144 83.4188C60.4928 83.4507 60.5767 83.4666 60.6614 83.4655C60.7441 83.4648 60.8259 83.4473 60.9017 83.4141C60.9776 83.3808 61.0458 83.3325 61.1024 83.2721C61.1626 83.2125 61.2101 83.1413 61.242 83.0628C61.2739 82.9844 61.2896 82.9003 61.2881 82.8156C61.2899 82.732 61.2744 82.6489 61.2424 82.5717C61.2104 82.4944 61.1628 82.4246 61.1024 82.3668C60.9781 82.2462 60.8113 82.1794 60.6382 82.1811Z" fill="black"/>
<path d="M61.9148 83.6203V83.2566H62.1315V83.6203H61.9148Z" fill="black"/>
<path d="M65.0254 81.415C65.1747 81.4153 65.3223 81.447 65.4587 81.5079C65.5949 81.5624 65.7187 81.644 65.8224 81.7477C65.9262 81.8515 66.0078 81.9752 66.0622 82.1114C66.1241 82.2475 66.1557 82.3953 66.1551 82.5447C66.1548 82.6941 66.1232 82.8417 66.0622 82.978C66.0053 83.1107 65.9239 83.2314 65.8224 83.334C65.7141 83.4357 65.5882 83.517 65.451 83.5738C65.1679 83.6875 64.8519 83.6875 64.5689 83.5738C64.4326 83.5152 64.307 83.4341 64.1975 83.334C64.0976 83.23 64.0165 83.1096 63.9576 82.978C63.8967 82.8417 63.8651 82.6941 63.8647 82.5447C63.8648 82.3435 63.9182 82.146 64.0195 81.9721C64.1202 81.803 64.2645 81.6641 64.4373 81.5698C64.6167 81.4682 64.8193 81.4149 65.0254 81.415ZM65.0254 81.6162C64.8639 81.6167 64.7058 81.6622 64.5689 81.7478C64.4292 81.8255 64.3139 81.9408 64.2362 82.0805C64.1507 82.2203 64.1053 82.3809 64.1046 82.5447C64.1051 82.7062 64.1506 82.8643 64.2362 83.0013C64.3159 83.1415 64.4305 83.2588 64.5689 83.3417C64.7111 83.4205 64.8706 83.463 65.0331 83.4655C65.1557 83.4637 65.2768 83.4374 65.3891 83.3881C65.4991 83.3441 65.5991 83.2783 65.6831 83.1947C65.8573 83.0228 65.9573 82.7895 65.9617 82.5447C65.9591 82.4197 65.9328 82.2963 65.8843 82.1811C65.8383 82.0702 65.7698 81.9701 65.6831 81.887C65.5058 81.7172 65.2709 81.6204 65.0254 81.6162ZM64.7082 80.8966H64.9248V81.2603H64.7082V80.8966ZM65.1415 80.8966H65.3581V81.2603H65.1415V80.8966Z" fill="black"/>
<path d="M67.0913 83.1483H67.3002C67.3021 83.2343 67.3351 83.3168 67.3931 83.3804C67.4489 83.4321 67.5221 83.4608 67.5982 83.4608C67.6742 83.4608 67.7474 83.4321 67.8032 83.3804C67.8456 83.325 67.8674 83.2566 67.8651 83.1869C67.8682 83.1564 67.865 83.1255 67.8557 83.0962C67.8464 83.0669 67.8311 83.0399 67.8109 83.0167C67.7354 82.9546 67.6488 82.9073 67.5556 82.8774L67.3467 82.7846C67.316 82.7673 67.2875 82.7465 67.2616 82.7227C67.2226 82.6859 67.1915 82.6415 67.1702 82.5923C67.1489 82.5431 67.1379 82.49 67.1378 82.4364C67.1367 82.3762 67.1478 82.3163 67.1704 82.2605C67.1929 82.2046 67.2265 82.1539 67.2691 82.1112C67.3117 82.0686 67.3625 82.0351 67.4183 82.0125C67.4742 81.9899 67.534 81.9788 67.5943 81.9799C67.654 81.9774 67.7136 81.9871 67.7695 82.0084C67.8254 82.0297 67.8763 82.0621 67.9193 82.1037C67.9996 82.1872 68.0464 82.2974 68.0508 82.4132H67.8651C67.8631 82.3499 67.8384 82.2895 67.7955 82.243C67.7751 82.2207 67.7498 82.2035 67.7216 82.1927C67.6934 82.182 67.663 82.178 67.633 82.181C67.6024 82.1795 67.5718 82.185 67.5437 82.1971C67.5155 82.2091 67.4905 82.2275 67.4705 82.2507C67.4477 82.271 67.4297 82.2961 67.4176 82.3242C67.4056 82.3523 67.3999 82.3827 67.4008 82.4132C67.4017 82.4597 67.4161 82.5049 67.4422 82.5433C67.4683 82.5818 67.505 82.6118 67.5479 82.6298L67.8496 82.7536C67.9338 82.7833 68.0062 82.8391 68.0563 82.9129C68.1064 82.9867 68.1316 83.0746 68.1282 83.1637C68.1306 83.2294 68.1195 83.2949 68.0955 83.3562C68.0716 83.4174 68.0353 83.4731 67.9889 83.5197C67.9435 83.5654 67.8891 83.6014 67.8292 83.6254C67.7693 83.6493 67.7052 83.6608 67.6407 83.6589C67.5714 83.6627 67.502 83.6523 67.4368 83.6284C67.3716 83.6044 67.312 83.5674 67.2616 83.5197C67.2076 83.4741 67.1644 83.4172 67.1349 83.353C67.1055 83.2888 67.0906 83.2189 67.0913 83.1483Z" fill="black"/>
<path d="M69.3506 83.6203V82.2198H69.0024V82.0186H69.3506V81.4537H69.5673V82.0186H69.931V82.2198H69.5673V83.6203H69.3506Z" fill="black"/>
<path d="M72.4458 82.893H70.9988C71.0006 82.9699 71.0188 83.0456 71.0522 83.115C71.0855 83.1844 71.1333 83.2459 71.1923 83.2953C71.3071 83.4044 71.4594 83.4654 71.6178 83.4656C71.7397 83.4651 71.8586 83.4273 71.9583 83.3572C72.0584 83.2948 72.1368 83.2029 72.1827 83.0941H72.4071C72.3507 83.2584 72.2454 83.4015 72.1053 83.5042C71.9672 83.6079 71.7983 83.6624 71.6256 83.659C71.5141 83.6613 71.4032 83.6413 71.2995 83.6001C71.1959 83.5589 71.1015 83.4974 71.022 83.4191C70.947 83.3402 70.8868 83.2485 70.8441 83.1483C70.7981 83.0434 70.7744 82.9301 70.7744 82.8156C70.7735 82.6658 70.8137 82.5186 70.8905 82.39C70.9608 82.2631 71.0654 82.1586 71.1923 82.0882C71.3222 82.015 71.4687 81.9766 71.6178 81.9766C71.7669 81.9766 71.9135 82.015 72.0434 82.0882C72.1764 82.1636 72.2841 82.2767 72.3529 82.4132C72.3853 82.4795 72.4087 82.5497 72.4226 82.6222C72.4403 82.7113 72.4481 82.8021 72.4458 82.893ZM70.9988 82.6995H72.2291C72.2007 82.5509 72.1214 82.4168 72.0047 82.3204C71.8944 82.2338 71.7581 82.1867 71.6178 82.1867C71.4775 82.1867 71.3413 82.2338 71.2309 82.3204C71.1114 82.4156 71.0292 82.5498 70.9988 82.6995Z" fill="black"/>
<path d="M73.5059 83.6203V82.0185H73.7225V82.2507C73.76 82.1695 73.8189 82.1 73.8927 82.0495C73.9828 82.0082 74.08 81.9845 74.179 81.9799V82.1965C74.1153 82.1951 74.0521 82.2072 73.9934 82.2321C73.9348 82.257 73.8821 82.2942 73.8389 82.341C73.7957 82.3878 73.763 82.4434 73.7429 82.5038C73.7229 82.5643 73.7159 82.6284 73.7225 82.6917V83.6203H73.5059Z" fill="black"/>
<path d="M75.1694 83.6203V82.0185H75.3861V82.2507C75.4236 82.1695 75.4824 82.1 75.5563 82.0495C75.6464 82.0082 75.7436 81.9845 75.8426 81.9799V82.1965C75.7789 82.1951 75.7156 82.2072 75.657 82.2321C75.5983 82.257 75.5457 82.2942 75.5025 82.341C75.4593 82.3878 75.4266 82.4434 75.4065 82.5038C75.3864 82.5643 75.3795 82.6284 75.3861 82.6917V83.6203H75.1694Z" fill="black"/>
<path d="M78.342 82.893H76.8873C76.891 82.9696 76.91 83.0447 76.9432 83.1138C76.9764 83.1829 77.0232 83.2447 77.0808 83.2954C77.1992 83.4036 77.3536 83.4643 77.5141 83.4656C77.6358 83.4642 77.7544 83.4265 77.8545 83.3572C77.9525 83.2943 78.0282 83.2023 78.0712 83.0942H78.2956C78.2441 83.261 78.1378 83.4055 77.9938 83.5043C77.8577 83.6063 77.6919 83.6607 77.5218 83.659C77.4077 83.6632 77.2941 83.6421 77.1891 83.5971C77.0873 83.5576 76.995 83.4969 76.9183 83.4192C76.8405 83.3425 76.7798 83.2502 76.7403 83.1483C76.6943 83.0434 76.6706 82.9301 76.6707 82.8156C76.6706 82.6669 76.7079 82.5206 76.779 82.39C76.855 82.2676 76.9583 82.1643 77.0808 82.0883C77.2089 82.0181 77.3525 81.9809 77.4986 81.9799C77.6534 81.9778 77.8059 82.0179 77.9396 82.096C78.0698 82.1726 78.1747 82.2855 78.2414 82.421C78.2798 82.4853 78.306 82.5561 78.3188 82.6299C78.336 82.7165 78.3438 82.8047 78.342 82.893ZM76.8951 82.6995H78.1253C78.0936 82.5522 78.0148 82.4192 77.901 82.3204C77.7882 82.2266 77.6452 82.1771 77.4986 82.1811C77.3548 82.1797 77.215 82.229 77.104 82.3204C76.9949 82.4207 76.9216 82.5538 76.8951 82.6995Z" fill="black"/>
<path d="M79.4019 81.7943V81.4229H79.6185V81.7943H79.4019ZM79.4019 83.5894V82.0187H79.6185V83.6204L79.4019 83.5894Z" fill="black"/>
<path d="M82.1023 83.1483H82.3499C82.3121 83.2216 82.2681 83.2915 82.2184 83.3572C82.1805 83.4067 82.1363 83.451 82.0868 83.4888C81.9361 83.6042 81.7504 83.6643 81.5607 83.659C81.4065 83.6635 81.2541 83.6261 81.1196 83.5507C80.987 83.4827 80.8769 83.378 80.8024 83.2489C80.7253 83.1176 80.6852 82.9679 80.6863 82.8156C80.687 82.6687 80.7268 82.5246 80.8016 82.3981C80.8764 82.2717 80.9835 82.1674 81.1119 82.096C81.2432 82.0189 81.3929 81.9788 81.5452 81.9799C81.7196 81.9726 81.8914 82.0244 82.0327 82.127C82.1741 82.2165 82.2827 82.3496 82.3422 82.5061H82.1023C82.045 82.4063 81.9622 82.3236 81.8624 82.2662C81.7661 82.2102 81.6566 82.1808 81.5452 82.1811C81.4615 82.1788 81.3783 82.1942 81.301 82.2262C81.2237 82.2582 81.154 82.3061 81.0964 82.3668C81.0056 82.4567 80.9437 82.5715 80.9185 82.6967C80.8933 82.822 80.906 82.9518 80.955 83.0698C81.004 83.1877 81.0871 83.2884 81.1936 83.3589C81.3001 83.4294 81.4252 83.4665 81.5529 83.4656C81.6561 83.4668 81.7577 83.44 81.847 83.3882C81.9493 83.3288 82.0366 83.2468 82.1023 83.1483Z" fill="black"/>
<path d="M83.3945 83.6203V81.4537H83.6189V82.2275C83.6731 82.1501 83.7446 82.0865 83.8278 82.0418C83.9203 82.0005 84.0206 81.9794 84.1219 81.9799C84.234 81.9793 84.3448 82.0031 84.4469 82.0495C84.538 82.0884 84.6178 82.1496 84.679 82.2275C84.7818 82.3858 84.8307 82.5731 84.8183 82.7614V83.6203H84.6016V82.7614C84.6125 82.6129 84.5715 82.4652 84.4855 82.3436C84.4388 82.292 84.3804 82.2522 84.3153 82.2275C84.2523 82.1978 84.1837 82.182 84.1141 82.1811C84.031 82.1796 83.9487 82.1982 83.8743 82.2352C83.8056 82.272 83.7472 82.3252 83.704 82.39C83.6444 82.4987 83.6176 82.6223 83.6267 82.7459V83.6203H83.3945Z" fill="black"/>
<path d="M85.2361 83.6203V83.2566H85.4527V83.6203H85.2361Z" fill="black"/>
<path d="M87.302 83.0167H87.5341C87.5284 83.0733 87.5284 83.1304 87.5341 83.187C87.5525 83.2324 87.5786 83.2743 87.6115 83.3108C87.65 83.3593 87.7008 83.3967 87.7585 83.4191C87.8183 83.4499 87.8847 83.4658 87.952 83.4655C88.0672 83.4655 88.178 83.4212 88.2615 83.3417C88.3388 83.2575 88.3804 83.1465 88.3775 83.0322C88.3818 82.9723 88.3705 82.9123 88.3447 82.8581C88.319 82.8039 88.2796 82.7572 88.2305 82.7227C88.1283 82.6577 88.0158 82.6106 87.8978 82.5834C87.8072 82.5579 87.7192 82.5243 87.6347 82.4828C87.5828 82.461 87.5355 82.4295 87.4954 82.39C87.4432 82.3438 87.4033 82.2853 87.3794 82.2197C87.3509 82.1512 87.3377 82.0773 87.3407 82.0031C87.3374 81.9253 87.3508 81.8477 87.3802 81.7756C87.4096 81.7035 87.4542 81.6386 87.5109 81.5853C87.5668 81.5298 87.6333 81.4862 87.7064 81.457C87.7795 81.4277 87.8578 81.4135 87.9365 81.415C88.0162 81.4096 88.0961 81.4209 88.1712 81.4482C88.2463 81.4755 88.3148 81.5183 88.3724 81.5736C88.43 81.629 88.4753 81.6959 88.5055 81.7698C88.5357 81.8438 88.5501 81.9232 88.5478 82.0031H88.3234C88.3207 81.899 88.2794 81.7997 88.2073 81.7245C88.1543 81.6704 88.0862 81.6334 88.012 81.6183C87.9377 81.6032 87.8606 81.6107 87.7906 81.6399C87.7207 81.669 87.661 81.7185 87.6195 81.7818C87.5779 81.8452 87.5562 81.9196 87.5573 81.9953C87.5459 82.0411 87.5459 82.0889 87.5573 82.1346C87.5712 82.1782 87.5951 82.2179 87.627 82.2507L87.7353 82.3126L87.952 82.3822L88.1996 82.4673C88.2553 82.4908 88.3074 82.522 88.3543 82.5602C88.424 82.6079 88.4778 82.6752 88.5091 82.7536C88.5554 82.8466 88.5779 82.9495 88.5745 83.0533C88.5712 83.157 88.5422 83.2583 88.49 83.3481C88.4378 83.4379 88.3642 83.5132 88.2757 83.5675C88.1872 83.6218 88.0866 83.6532 87.9829 83.659C87.8093 83.6668 87.6396 83.6056 87.5109 83.4887C87.382 83.3649 87.307 83.1954 87.302 83.0167Z" fill="black"/>
<path d="M90.993 83.1483H91.2406C91.2051 83.2212 91.1637 83.2911 91.1168 83.3572C91.076 83.4067 91.0292 83.4509 90.9775 83.4888C90.8268 83.6042 90.641 83.6643 90.4513 83.659C90.3377 83.6643 90.2242 83.6463 90.1178 83.6062C90.0114 83.5661 89.9143 83.5047 89.8324 83.4257C89.7506 83.3467 89.6857 83.2519 89.6418 83.147C89.5978 83.0421 89.5758 82.9293 89.577 82.8156C89.5777 82.6687 89.6175 82.5246 89.6922 82.3981C89.767 82.2717 89.8741 82.1674 90.0025 82.096C90.1362 82.0179 90.2887 81.9778 90.4436 81.9799C90.6091 81.9853 90.7698 82.0377 90.9068 82.1308C91.0438 82.224 91.1515 82.3541 91.2173 82.5061H90.9697C90.9132 82.4083 90.8335 82.3259 90.7376 82.2662C90.6381 82.2112 90.5264 82.1819 90.4126 82.1811C90.329 82.1793 90.246 82.1949 90.1687 82.2268C90.0915 82.2588 90.0217 82.3065 89.9638 82.3668C89.8413 82.4738 89.7639 82.6232 89.7473 82.785C89.7307 82.9468 89.776 83.1089 89.8742 83.2385C89.9724 83.3681 90.1162 83.4557 90.2764 83.4835C90.4367 83.5112 90.6015 83.4772 90.7376 83.3882C90.8379 83.3261 90.9247 83.2446 90.993 83.1483Z" fill="black"/>
<path d="M92.293 83.6203V81.4537H92.5096V82.2275C92.5638 82.1501 92.6353 82.0865 92.7185 82.0418C92.8162 81.9992 92.9215 81.9772 93.028 81.9772C93.1346 81.9772 93.2399 81.9992 93.3376 82.0418C93.43 82.0784 93.5104 82.14 93.5697 82.2198C93.6725 82.378 93.7214 82.5653 93.709 82.7537V83.6125H93.4923V82.7614C93.5032 82.6129 93.4622 82.4652 93.3763 82.3436C93.334 82.2905 93.2777 82.2503 93.2138 82.2275C93.1457 82.1966 93.0718 82.1808 92.9971 82.1811C92.9163 82.1786 92.8363 82.1973 92.765 82.2352C92.694 82.2717 92.633 82.3248 92.587 82.39C92.5274 82.4987 92.5005 82.6223 92.5096 82.7459V83.6203H92.293Z" fill="black"/>
<path d="M95.2873 83.6203L94.676 82.0186H94.8927L95.4034 83.3649L95.7825 82.2198H95.9605L96.3396 83.3417L96.858 81.9954H97.0747L96.448 83.5971H96.2236L95.8676 82.5679L95.5272 83.628L95.2873 83.6203Z" fill="black"/>
<path d="M99.5896 82.8929H98.1349C98.14 82.97 98.1604 83.0453 98.195 83.1144C98.2295 83.1835 98.2775 83.245 98.3361 83.2953C98.4372 83.395 98.5702 83.4558 98.7117 83.4671C98.8533 83.4785 98.9942 83.4395 99.1099 83.3572C99.2097 83.2964 99.286 83.2037 99.3266 83.0941H99.5587C99.5021 83.2604 99.3936 83.4042 99.2492 83.5042C99.1131 83.6063 98.9472 83.6607 98.7772 83.659C98.6631 83.6631 98.5494 83.642 98.4445 83.5971C98.3433 83.5562 98.2513 83.4957 98.1736 83.4191C98.0959 83.3424 98.0352 83.2501 97.9957 83.1483C97.9497 83.0434 97.926 82.9301 97.926 82.8156C97.926 82.6669 97.9633 82.5206 98.0344 82.39C98.1104 82.2675 98.2136 82.1642 98.3361 82.0882C98.4667 82.0171 98.613 81.9799 98.7617 81.9799C98.914 81.9787 99.0637 82.0189 99.195 82.0959C99.3251 82.1725 99.43 82.2855 99.4968 82.4209C99.5351 82.4852 99.5614 82.5561 99.5742 82.6299C99.5888 82.7167 99.594 82.8049 99.5896 82.8929ZM98.1427 82.6995H99.373C99.3446 82.5508 99.2652 82.4167 99.1486 82.3203C99.0386 82.2271 98.8981 82.1775 98.754 82.1811C98.6076 82.1785 98.465 82.2278 98.3516 82.3203C98.2426 82.4206 98.1692 82.5537 98.1427 82.6995Z" fill="black"/>
<path d="M100.65 81.7943V81.4229H100.866V81.7943H100.65ZM100.65 83.5894V82.0187H100.866V83.6204L100.65 83.5894Z" fill="black"/>
<path d="M101.841 83.6203V83.4268L102.731 82.2197H101.911V82.0186H103.017V82.2043L102.135 83.4268H103.072V83.6203H101.841Z" fill="black"/>
<path d="M103.458 83.6203V83.2566H103.675V83.6203H103.458Z" fill="black"/>
<path d="M30.3683 79.8057V74.3893H33.1152V75.341H31.3742V76.61H33.0455V77.5695H31.3742V79.7824L30.3683 79.8057Z" fill="black"/>
<path d="M33.9818 79.8057V74.3893H36.7287V75.341H34.9877V76.61H36.6513V77.5695H34.9877V79.7824L33.9818 79.8057Z" fill="black"/>
<path d="M37.5952 79.8057V74.3893H38.7404L40.9766 78.3123V74.4125H41.9747V79.8289H40.8528L38.6011 75.9059V79.8289L37.5952 79.8057Z" fill="black"/>
<path d="M43.0039 74.4125H44.0098V77.8248C43.9993 77.9768 43.9993 78.1293 44.0098 78.2813C44.0282 78.3826 44.0649 78.4796 44.1181 78.5676C44.1852 78.6838 44.2847 78.778 44.4044 78.8384C44.5266 78.9007 44.662 78.9326 44.7991 78.9313C44.9412 78.9335 45.0818 78.9017 45.2092 78.8384C45.3289 78.778 45.4284 78.6838 45.4955 78.5676C45.5519 78.4812 45.5889 78.3835 45.6038 78.2813C45.6143 78.1293 45.6143 77.9768 45.6038 77.8248V74.4125H46.6019V77.8248C46.6033 78.0851 46.5748 78.3448 46.5168 78.5986C46.4569 78.8138 46.3572 79.0159 46.2228 79.1944C46.0508 79.4046 45.834 79.5737 45.5883 79.6896C45.333 79.8044 45.0558 79.8625 44.7758 79.8598C44.4623 79.8636 44.1531 79.7863 43.8783 79.6354C43.6095 79.4953 43.3846 79.2838 43.2283 79.0241C43.0318 78.6421 42.9385 78.2153 42.9575 77.7861L43.0039 74.4125Z" fill="black"/>
<path d="M47.6851 79.8057V74.3893H48.8302L51.0587 78.3123V74.4125H52.0646V79.8289H50.9426L48.691 75.9059V79.8289L47.6851 79.8057Z" fill="black"/>
<path d="M55.067 77.9873V77.051H58.5799V77.1516C58.5827 77.4972 58.5142 77.8396 58.3787 78.1575C58.1673 78.6739 57.804 79.1139 57.337 79.4193C56.8699 79.7246 56.3212 79.881 55.7634 79.8676C55.3662 79.8705 54.9721 79.7969 54.6027 79.6509C54.2565 79.5154 53.9389 79.3159 53.6665 79.0628C53.4044 78.8079 53.1964 78.5026 53.0552 78.1653C52.8999 77.8199 52.8207 77.4452 52.823 77.0665C52.8219 76.6913 52.8983 76.3198 53.0474 75.9755C53.186 75.6409 53.3914 75.3381 53.651 75.0857C54.1974 74.579 54.9177 74.3019 55.6628 74.3119C56.0498 74.3104 56.4334 74.384 56.7925 74.5286C57.1411 74.6629 57.4594 74.8655 57.7287 75.1244C57.9875 75.3621 58.1841 75.6597 58.3013 75.991H57.1407C56.9816 75.7617 56.7656 75.5777 56.5139 75.4571C56.0224 75.2471 55.4696 75.2305 54.9664 75.4107C54.7481 75.4971 54.5522 75.632 54.3938 75.8053C54.2332 75.9785 54.1072 76.1807 54.0224 76.4011C53.9324 76.625 53.8852 76.8639 53.8831 77.1052C53.8787 77.3487 53.9245 77.5905 54.0177 77.8155C54.1109 78.0405 54.2495 78.2438 54.4247 78.4129C54.6006 78.5839 54.809 78.7179 55.0376 78.807C55.2662 78.896 55.5104 78.9383 55.7556 78.9313C56.0754 78.9381 56.391 78.8579 56.6687 78.6992C56.9474 78.5386 57.1692 78.2952 57.3032 78.0028L55.067 77.9873Z" fill="black"/>
<path d="M58.9744 78.2658H60.019C60.0163 78.3635 60.0354 78.4606 60.0749 78.55C60.1145 78.6394 60.1734 78.7188 60.2476 78.7826C60.3217 78.8463 60.4091 78.8927 60.5034 78.9184C60.5977 78.9441 60.6965 78.9485 60.7927 78.9312C60.9841 78.9391 61.1716 78.8757 61.3189 78.7533C61.3842 78.6935 61.436 78.6205 61.4707 78.5391C61.5054 78.4577 61.5222 78.3697 61.5201 78.2813C61.5241 78.1722 61.5015 78.0638 61.4544 77.9654C61.4072 77.867 61.3368 77.7816 61.2492 77.7164C61.1731 77.6573 61.09 77.6079 61.0016 77.5694L60.3362 77.3141C60.0069 77.2065 59.7164 77.0047 59.5005 76.7337C59.2938 76.4368 59.1976 76.0768 59.2287 75.7164C59.2598 75.3559 59.4162 75.0177 59.6708 74.7606C59.8172 74.6153 59.9912 74.5008 60.1826 74.4237C60.3739 74.3466 60.5787 74.3086 60.785 74.3118C61.0366 74.3103 61.2853 74.3659 61.5123 74.4743C61.735 74.5747 61.9291 74.7289 62.0772 74.9231C62.1689 75.0514 62.2419 75.1921 62.2938 75.3409C62.3454 75.5038 62.374 75.6731 62.3789 75.8439H61.3034C61.2991 75.6886 61.2386 75.5402 61.1332 75.4261C61.0799 75.3751 61.0166 75.3357 60.9474 75.3104C60.8781 75.2851 60.8044 75.2744 60.7308 75.279C60.6585 75.2755 60.5862 75.2867 60.5184 75.312C60.4506 75.3373 60.3886 75.3761 60.3362 75.4261C60.2334 75.5344 60.1778 75.6791 60.1814 75.8284C60.1854 75.9317 60.2169 76.0321 60.2727 76.1192C60.3285 76.2063 60.4065 76.2768 60.4987 76.3236C60.6863 76.4149 60.8802 76.4925 61.079 76.5558C61.2774 76.6262 61.4712 76.7089 61.6593 76.8034C61.7798 76.8692 61.8916 76.9497 61.9921 77.0432C62.1451 77.1858 62.2653 77.3601 62.3441 77.5538C62.423 77.7476 62.4586 77.9562 62.4486 78.1652C62.4541 78.3943 62.413 78.6222 62.3279 78.835C62.2427 79.0478 62.1154 79.2411 61.9534 79.4032C61.7941 79.5648 61.6035 79.692 61.3933 79.7772C61.183 79.8623 60.9576 79.9036 60.7308 79.8984C60.4452 79.9 60.1627 79.8393 59.9029 79.7205C59.6567 79.6052 59.4438 79.4296 59.2839 79.2098C59.1817 79.083 59.103 78.9388 59.0517 78.7842C59.0017 78.6159 58.9756 78.4414 58.9744 78.2658Z" fill="black"/>
<path d="M62.8821 78.9545L64.9326 75.3642H62.9904V74.4125H66.0855V75.3023L64.0582 78.8462H66.2248V79.8056H62.8821V78.9545Z" fill="black"/>
<path d="M66.9907 79.8057V74.3893H69.8924V75.341H67.9966V76.61H69.815V77.5695H67.9966V78.823H69.8924V79.7824L66.9907 79.8057Z" fill="black"/>
<path d="M70.8208 79.8057V74.3893H71.819V79.8057H70.8208Z" fill="black"/>
<path d="M73.3898 79.8056V75.3642H72.3916V74.4125H75.3938V75.3642H74.3879V79.8056H73.3898Z" fill="black"/>
<path d="M75.9587 79.8057V74.3893H78.8604V75.341H76.9646V76.61H78.783V77.5695H76.9646V78.823H78.8604V79.7824L75.9587 79.8057Z" fill="black"/>
<path d="M79.7888 79.8057V74.3893H80.9263L83.1624 78.3123V74.4125H84.1606V79.8289H83.0464L80.787 75.8827V79.8057H79.7888Z" fill="black"/>
<path d="M85.2361 79.8057V74.3893H86.4973C86.7569 74.3872 87.0161 74.4105 87.2711 74.4589C87.4699 74.5041 87.6588 74.5854 87.8282 74.6988C87.983 74.8189 88.1054 74.9759 88.1841 75.1553C88.2667 75.3566 88.3088 75.5722 88.3079 75.7898C88.3161 76.023 88.2655 76.2545 88.1609 76.463C88.0558 76.652 87.8969 76.8055 87.7044 76.904C87.9815 77.0024 88.2219 77.1834 88.3931 77.4225C88.5504 77.6634 88.6289 77.9474 88.6175 78.2349C88.6251 78.5021 88.5694 78.7672 88.455 79.0087C88.3597 79.2199 88.2034 79.3978 88.0062 79.5194C87.8224 79.6271 87.6205 79.7005 87.4104 79.736C87.1193 79.7881 86.8239 79.8114 86.5283 79.8057H85.2361ZM85.7777 76.7106H86.4354C86.6261 76.7212 86.8173 76.7212 87.008 76.7106C87.1357 76.6895 87.2604 76.6531 87.3794 76.6023C87.5135 76.543 87.6228 76.4391 87.6889 76.3082C87.7636 76.1595 87.8008 75.9949 87.7973 75.8285C87.7983 75.6773 87.7694 75.5274 87.7122 75.3875C87.6653 75.2688 87.5846 75.1665 87.48 75.0934C87.36 75.0177 87.2257 74.9677 87.0854 74.9464C86.8638 74.931 86.6415 74.931 86.42 74.9464H85.7777V76.7106ZM85.7777 79.295H86.5128C86.9126 79.3199 87.3127 79.2511 87.6812 79.0938C87.8142 79.0184 87.9219 78.9053 87.9907 78.7688C88.0691 78.6129 88.1089 78.4404 88.1068 78.2659C88.113 78.0482 88.0566 77.8334 87.9443 77.6469C87.8356 77.4795 87.6711 77.3562 87.48 77.2987C87.1367 77.2274 86.7855 77.2014 86.4354 77.2213H85.7932L85.7777 79.295Z" fill="black"/>
<path d="M89.4299 74.4125H89.9638V77.7784C89.9413 78.1656 90.0271 78.5514 90.2114 78.8926C90.323 79.0532 90.4752 79.1814 90.6525 79.264C90.8399 79.3573 91.0467 79.405 91.256 79.4033C91.4704 79.406 91.6824 79.3582 91.875 79.264C92.0503 79.1815 92.2 79.0532 92.3083 78.8926C92.4963 78.5527 92.5823 78.1659 92.5559 77.7784V74.4125H93.0976V77.7784C93.1021 78.0644 93.0736 78.35 93.0125 78.6295C92.9526 78.8471 92.8529 79.0518 92.7184 79.2331C92.5559 79.4465 92.3433 79.6166 92.0994 79.7283C91.8339 79.8454 91.5462 79.9035 91.256 79.8985C90.971 79.902 90.6886 79.8439 90.4281 79.7283C90.1819 79.6168 89.9667 79.4468 89.8013 79.2331C89.6662 79.0532 89.5689 78.8479 89.515 78.6295C89.4501 78.3507 89.4215 78.0646 89.4299 77.7784V74.4125Z" fill="black"/>
<path d="M98.6764 78.3896H99.2799C99.0642 78.8602 98.7156 79.2574 98.2771 79.5323C97.8385 79.8073 97.3291 79.948 96.8116 79.9371C96.4253 79.9386 96.0421 79.8678 95.6819 79.7282C95.3473 79.5924 95.0425 79.3927 94.7843 79.1402C94.5298 78.888 94.3274 78.5883 94.1885 78.2581C94.0238 77.8505 93.9515 77.4114 93.9769 76.9726C94.0023 76.5337 94.1248 76.1059 94.3355 75.7201C94.5687 75.2989 94.9143 74.9506 95.3337 74.7142C95.7738 74.4702 96.2698 74.3449 96.7729 74.3505C97.3011 74.3412 97.8213 74.4807 98.274 74.7529C98.7081 75.0077 99.0517 75.3919 99.2567 75.8516H98.6454C98.5637 75.7107 98.4678 75.5784 98.3591 75.457C98.2602 75.353 98.1484 75.262 98.0264 75.1862C97.6562 74.96 97.23 74.842 96.7961 74.8457C96.4881 74.8449 96.183 74.9054 95.8986 75.0237C95.6261 75.1327 95.3787 75.2959 95.1712 75.5035C94.9678 75.7127 94.8074 75.9598 94.6992 76.2308C94.5809 76.5206 94.5204 76.8308 94.5212 77.1438C94.5215 77.4493 94.5819 77.7517 94.6992 78.0337C94.8114 78.32 94.9768 78.5826 95.1867 78.8074C95.6171 79.2344 96.1976 79.476 96.8039 79.4806C97.0517 79.4823 97.2979 79.4404 97.5312 79.3568C97.7632 79.2829 97.9787 79.1647 98.1657 79.0086C98.364 78.8271 98.5359 78.6188 98.6764 78.3896Z" fill="black"/>
<path d="M100.147 79.8057V74.3893H100.688V76.757H103.458V74.4125H104V79.8289H103.458V77.2677H100.665V79.8057H100.147Z" fill="black"/>
<path d="M26.8554 74.3119C27.2254 74.3124 27.5915 74.3888 27.9309 74.5363C28.4327 74.7531 28.8603 75.1117 29.1613 75.568C29.4623 76.0243 29.6236 76.5586 29.6254 77.1052C29.6312 77.602 29.5029 78.0912 29.254 78.5212C29.0161 78.9435 28.6686 79.2936 28.2481 79.5348C27.8188 79.7776 27.3331 79.903 26.8399 79.8985C26.4577 79.9014 26.0789 79.8277 25.7257 79.6819C25.3898 79.5442 25.0827 79.3447 24.8203 79.0938C24.5673 78.8375 24.3651 78.5356 24.2245 78.204C24.0762 77.8566 23.9999 77.4829 24.0002 77.1052C23.9961 76.7272 24.0726 76.3526 24.2245 76.0065C24.3623 75.6733 24.5648 75.3709 24.8203 75.1166C25.3725 74.6043 26.1023 74.3269 26.8554 74.3429V74.3119ZM26.7857 75.2791C26.5508 75.2768 26.3179 75.3222 26.1011 75.4126C25.8842 75.5031 25.6881 75.6367 25.5245 75.8053C25.3551 75.9759 25.2218 76.179 25.1328 76.4024C25.0437 76.6258 25.0006 76.8648 25.0061 77.1052C25.0029 77.346 25.0478 77.585 25.1382 77.8082C25.2285 78.0314 25.3625 78.2343 25.5322 78.4051C25.6981 78.5713 25.8954 78.7028 26.1125 78.792C26.3408 78.8856 26.5854 78.9329 26.8321 78.9313C27.0685 78.9378 27.3037 78.8958 27.5233 78.808C27.7429 78.7202 27.9422 78.5883 28.1089 78.4206C28.4237 78.0741 28.5927 77.6196 28.5809 77.1516C28.5884 76.9086 28.5464 76.6667 28.4572 76.4405C28.3681 76.2143 28.2338 76.0087 28.0624 75.8362C27.8953 75.6574 27.6927 75.5154 27.4675 75.4195C27.2423 75.3235 26.9995 75.2757 26.7548 75.2791H26.7857ZM25.5632 73.925V72.9501H26.5304V73.925H25.5632ZM27.1107 73.925V72.9501H28.0779V73.925H27.1107Z" fill="#4298D5"/>
<path fill-rule="evenodd" clip-rule="evenodd" d="M32.8521 73.6155V50.9905L36.8525 52.0274L35.8234 54.3023L35.7537 73.6465H38.075L37.9357 55.3004L41.5957 49.3656L41.557 73.6852H43.7622V47.1294C43.7622 47.1294 63.1451 45.2647 64.592 57.6836L64.6617 73.6155L65.8997 73.5536L65.9694 58.1634C65.9694 58.1634 66.3872 47.4003 79.5645 56.0974L79.5258 73.7238H80.2995V58.3723L81.7155 62.8524V73.6852H82.4429L82.5125 62.2721L81.7929 60.4073L83.4488 61.065V73.7238L84.2844 73.7935L84.1142 59.68L81.3828 58.8211L80.2454 55.1302C80.2454 55.1302 69.2114 46.2009 65.1414 54.7124C65.1414 54.7124 64.4218 43.6397 41.201 44.3671L38.1988 49.7835L30.2677 48.2978L30.3683 73.6852L32.8521 73.6155Z" fill="#4298D5"/>
</svg>
