<svg width="128" height="128" viewBox="0 0 128 128" fill="none" xmlns="http://www.w3.org/2000/svg">
<g clip-path="url(#clip0_75_1578)">
<rect width="128" height="128" fill="white"/>
<path fill-rule="evenodd" clip-rule="evenodd" d="M90.455 85.023L99.9977 85.0189V37.7286H82.9901V45.2058H90.455V85.023ZM29.9807 85.023L39.5274 85.0189V37.7286H22.5198V45.2058H29.9807V85.023ZM0 128H128V0.000305176H0V128ZM59.7504 64.1088L68.7114 76.0282C67.0136 77.4362 65.0476 78.5124 62.1056 78.5124C57.3256 78.5124 54.0733 76.0282 53.9515 72.1401C53.8726 69.5903 55.5571 66.8849 59.7504 64.1088ZM61.9141 43.9627C64.2662 43.9627 65.75 45.3185 65.75 47.433C65.75 49.5414 64.555 51.7123 61.3284 54.0409C58.6056 50.546 58.0157 49.4687 58.0157 47.5016C58.0157 45.4659 59.6347 43.9627 61.9141 43.9627ZM45.3417 72.3756C45.9663 81.0253 52.5435 85.8791 62.1056 85.9364C66.9891 85.9641 70.015 84.9319 73.4556 82.1743L75.564 85.0128H84.9029L78.8664 76.9969C81.7326 73.3535 82.6675 69.5832 82.6675 63.6122C82.6675 63.2456 82.5672 61.7741 82.5672 60.7573H74.9773C75.049 61.9216 75.1278 62.9886 75.1432 63.349C75.262 66.4047 74.6793 70.176 73.9953 70.7915L65.8278 59.7036C71.3421 55.114 73.1361 51.87 73.1361 47.4955C73.1361 41.5245 68.5035 37.1643 61.9581 37.1643C54.8987 37.1643 49.9118 41.4498 49.9118 47.2825C49.9118 50.7057 50.7904 52.594 55.0554 58.057C48.428 61.8837 44.972 67.2024 45.3417 72.3756Z" fill="#0D2375"/>
</g>
<defs>
<clipPath id="clip0_75_1578">
<rect width="128" height="128" fill="white"/>
</clipPath>
</defs>
</svg>
