<svg width="129" height="128" viewBox="0 0 129 128" fill="none" xmlns="http://www.w3.org/2000/svg">
<rect width="128" height="128" transform="translate(0.574219)" fill="#C6BFFA"/>
<path d="M54.7052 64.7968C54.7052 60.997 57.3021 58.3484 61.1048 58.3484C65.2124 58.3484 67.3612 61.296 67.3612 64.6798V65.7148H58.1746C58.2926 67.2581 59.4491 68.3635 61.1725 68.3635C62.6146 68.3635 63.5809 67.6723 63.9351 66.9125H67.2403C66.6734 69.4688 64.4074 71.1045 61.031 71.1045C57.4201 71.108 54.7052 68.4593 54.7052 64.7968ZM63.9594 63.3458C63.8179 62.0567 62.7318 61.0656 61.1031 61.0656C59.5447 61.0656 58.4116 62.1481 58.2467 63.3458H63.9594Z" fill="#111E21"/>
<path d="M69.9052 58.6474H73.352V59.9831H73.5412C74.037 59.1539 75.2178 58.3484 76.8934 58.3484C79.656 58.3484 81.3551 60.1678 81.3551 62.7013V70.809H77.6965V63.8066C77.6965 62.5632 76.9412 61.6645 75.6902 61.6645C74.4147 61.6645 73.5647 62.7013 73.5647 63.9913V70.809H69.9052V58.6474Z" fill="#111E21"/>
<path d="M30.6556 58.1681C29.3194 58.1681 28.0132 58.5546 26.9023 59.2788C25.7913 60.003 24.9254 61.0324 24.4142 62.2367C23.9028 63.441 23.7691 64.7662 24.0297 66.0447C24.2903 67.3232 24.9338 68.4976 25.8786 69.4193C26.8234 70.3411 28.0271 70.9688 29.3376 71.2231C30.648 71.4774 32.0064 71.3468 33.2408 70.848C34.4753 70.3492 35.5303 69.5044 36.2726 68.4206C37.015 67.3367 37.4111 66.0624 37.4111 64.7589C37.4111 63.0109 36.6994 61.3345 35.4325 60.0985C34.1656 58.8625 32.4473 58.1681 30.6556 58.1681ZM30.6556 68.0037C29.9977 68.0037 29.3547 67.8134 28.8077 67.4569C28.2608 67.1004 27.8345 66.5936 27.5827 66.0006C27.331 65.4078 27.2652 64.7553 27.3935 64.1259C27.5218 63.4964 27.8386 62.9183 28.3037 62.4644C28.7689 62.0106 29.3615 61.7016 30.0067 61.5764C30.6519 61.4512 31.3206 61.5155 31.9284 61.761C32.5361 62.0066 33.0555 62.4226 33.421 62.9562C33.7865 63.4898 33.9815 64.1171 33.9815 64.7589C33.9808 65.6191 33.6301 66.4436 33.0064 67.0516C32.3827 67.6596 31.5372 68.0011 30.6556 68.0011V68.0037Z" fill="#111E21"/>
<path d="M43.5598 74.5963V69.4266H43.7527C44.1538 70.0941 45.2399 71.108 47.268 71.108C50.62 71.108 52.9104 68.4822 52.9104 64.6587C52.9104 60.8352 50.5731 58.3484 47.1732 58.3484C45.1001 58.3484 44.0573 59.4538 43.7031 60.0069H43.5147V58.6474H39.9003V74.5963H43.5598ZM46.3458 61.5722C48.0449 61.5722 49.2022 62.8164 49.2022 64.7282C49.2022 66.5933 48.0449 67.8833 46.3458 67.8833C44.6693 67.8833 43.4885 66.6628 43.4885 64.7282C43.4885 62.9088 44.5981 61.5722 46.3458 61.5722Z" fill="#111E21"/>
<path d="M92.8475 54.8443V60.0325H92.6582C92.2337 59.387 91.1007 58.3511 89.143 58.3511C85.7908 58.3511 83.477 60.9769 83.477 64.7995C83.477 68.6221 85.8142 71.1107 89.2376 71.1107C91.2908 71.1107 92.3301 69.9825 92.6844 69.4294H92.8754V70.8117H96.5115V54.8443H92.8475ZM90.0614 67.8834C88.338 67.8834 87.1816 66.6171 87.1816 64.7283C87.1816 62.8623 88.338 61.5723 90.038 61.5723C91.7145 61.5723 92.9223 62.7937 92.9223 64.7283C92.9187 66.5248 91.8091 67.8834 90.0614 67.8834Z" fill="#111E21"/>
<path d="M102.91 58.6314H99.2507V70.7921H102.91V58.6314Z" fill="#111E21"/>
<path d="M106.942 66.5836V61.4253H104.934V58.6614H106.115C106.776 58.6614 107.13 58.2217 107.13 57.5789V55.3445H110.601V58.6377H113.859V61.4253H110.601V66.3999C110.601 67.2977 111.12 67.8508 112.205 67.8508H113.812V70.7992H111.288C108.57 70.7992 106.942 69.256 106.942 66.5836Z" fill="#111E21"/>
<path d="M118.655 55.3275C118.655 55.8487 118.442 56.3486 118.065 56.7172C117.687 57.0858 117.174 57.2928 116.64 57.2928C116.106 57.2928 115.594 57.0858 115.216 56.7172C114.838 56.3486 114.626 55.8487 114.626 55.3275C114.626 54.2661 115.527 53.4149 116.647 53.4149C117.766 53.4149 118.655 54.2661 118.655 55.3275ZM115.128 55.3275C115.128 56.1787 115.774 56.8549 116.66 56.8549C117.521 56.8549 118.155 56.1787 118.155 55.3389C118.155 54.4991 117.523 53.7991 116.648 53.7991C115.773 53.7991 115.128 54.4877 115.128 55.3275ZM116.335 56.3299H115.885V54.4173C116.134 54.375 116.386 54.3556 116.639 54.3593C117.009 54.3593 117.18 54.4173 117.32 54.4991C117.383 54.5506 117.432 54.6151 117.465 54.6879C117.498 54.7607 117.514 54.8399 117.511 54.9194C117.511 55.1287 117.343 55.2923 117.105 55.3591V55.382C117.296 55.4523 117.403 55.5921 117.465 55.8489C117.524 56.14 117.56 56.257 117.609 56.3264H117.118C117.058 56.257 117.022 56.082 116.963 55.8604C116.927 55.6502 116.807 55.557 116.557 55.557H116.342L116.335 56.3299ZM116.348 55.2457H116.563C116.815 55.2457 117.013 55.1639 117.013 54.966C117.013 54.7902 116.882 54.6741 116.596 54.6741C116.51 54.6721 116.426 54.6801 116.344 54.6978L116.348 55.2457Z" fill="#111E21"/>
<path d="M101.081 57.2729C102.176 57.2729 103.064 56.4067 103.064 55.3383C103.064 54.2698 102.176 53.4037 101.081 53.4037C99.986 53.4037 99.0978 54.2698 99.0978 55.3383C99.0978 56.4067 99.986 57.2729 101.081 57.2729Z" fill="#111E21"/>
<g opacity="0.2">
<path d="M20.5739 58.1681C19.6926 58.167 18.8478 57.8246 18.225 57.2162C17.6022 56.6078 17.2524 55.7831 17.2524 54.9233H13.8183C13.8822 56.6296 14.6219 58.2453 15.8818 59.4304C17.1418 60.6155 18.8237 61.2777 20.5739 61.2777C22.3241 61.2777 24.006 60.6155 25.266 59.4304C26.5259 58.2453 27.2656 56.6296 27.3295 54.9233H23.899C23.899 55.7837 23.5487 56.6089 22.9251 57.2174C22.3016 57.8259 21.4559 58.1679 20.5739 58.1681Z" fill="#111E21"/>
<path d="M20.5739 71.3498C21.0107 71.3499 21.4433 71.434 21.8468 71.5972C22.2504 71.7604 22.617 71.9996 22.9257 72.3011C23.2346 72.6026 23.4794 72.9605 23.6464 73.3543C23.8134 73.7481 23.8992 74.1702 23.899 74.5964H27.3295C27.3295 72.8484 26.6178 71.172 25.3509 69.936C24.084 68.6999 22.3656 68.0056 20.5739 68.0056C18.7822 68.0056 17.0639 68.6999 15.797 69.936C14.53 71.172 13.8183 72.8484 13.8183 74.5964H17.2524C17.2519 73.7362 17.6015 72.9111 18.2244 72.3023C18.8472 71.6936 19.6922 71.351 20.5739 71.3498Z" fill="#111E21"/>
<path d="M13.8192 64.7589C13.8184 65.619 13.4677 66.4437 12.844 67.0517C12.2204 67.6596 11.3748 68.0012 10.4932 68.0012V71.3471C12.2861 71.3471 14.0055 70.6523 15.2733 69.4154C16.5411 68.1785 17.2533 66.501 17.2533 64.7519C17.2502 63.0047 16.5366 61.3301 15.2692 60.0957C14.0017 58.8614 12.284 58.1681 10.4932 58.1681V61.5141C11.3753 61.5141 12.2212 61.8559 12.845 62.4645C13.4687 63.073 13.8192 63.8983 13.8192 64.7589Z" fill="#111E21"/>
</g>
</svg>
