<svg width="128" height="128" viewBox="0 0 128 128" fill="none" xmlns="http://www.w3.org/2000/svg">
<rect width="128" height="128" fill="#FEB945"/>
<path fill-rule="evenodd" clip-rule="evenodd" d="M36 49.4053C36 33.6917 47.734 21 63.5 21C79.266 21 92 33.6917 92 49.4053C92 67.8385 63.2979 106.5 63.2979 106.5C63.2979 106.5 36 69 36 49.4053ZM56.2035 39.2074L63.1791 29.1801C63.5769 28.6081 64.4231 28.6081 64.8209 29.1801L71.7996 39.212C71.9293 39.3984 72.1187 39.5352 72.3364 39.5997L83.9809 43.0499C84.6858 43.2587 84.9319 44.1312 84.4401 44.6777L76.7817 53.187C76.6016 53.3871 76.5098 53.6515 76.5271 53.9203L77.374 67.0462C77.4265 67.8607 76.5339 68.3917 75.8432 67.9568L64.543 60.8419C64.2121 60.6336 63.7902 60.6372 63.4629 60.8512L52.5472 67.9883C51.8821 68.4232 51 67.946 51 67.1514V53.8837C51 53.6367 50.9086 53.3984 50.7433 53.2148L43.0714 44.6905C42.5768 44.1409 42.8291 43.2631 43.54 43.06L55.6573 39.5979C55.879 39.5346 56.0719 39.3967 56.2035 39.2074Z" fill="white"/>
</svg>
