<svg width="128" height="128" viewBox="0 0 128 128" fill="none" xmlns="http://www.w3.org/2000/svg">
<rect width="128" height="128" fill="white"/>
<path d="M100.049 56.5572C100.978 53.7961 101.3 50.8712 100.991 47.9778C100.683 45.0843 99.753 42.2891 98.2623 39.7787C96.0524 35.9842 92.6779 32.9801 88.6255 31.1993C84.573 29.4186 80.052 28.9532 75.7141 29.8704C73.2497 27.1663 70.1073 25.1495 66.6027 24.0225C63.098 22.8955 59.3543 22.6979 55.7477 23.4497C52.1412 24.2015 48.7986 25.8762 46.0558 28.3055C43.313 30.7348 41.2665 33.8333 40.1219 37.2896C37.232 37.8742 34.5018 39.0605 32.1139 40.7691C29.726 42.4778 27.7353 44.6696 26.2749 47.198C24.0409 50.9861 23.0861 55.3769 23.5486 59.7355C24.011 64.0942 25.8667 68.1948 28.8474 71.4446C27.9145 74.2043 27.5898 77.1288 27.8951 80.0223C28.2003 82.9158 29.1285 85.7116 30.6174 88.2228C32.8302 92.0186 36.2076 95.0234 40.2629 96.8042C44.3182 98.585 48.842 99.0497 53.1822 98.1314C55.1401 100.306 57.5459 102.044 60.2389 103.229C62.9319 104.414 65.8502 105.018 68.7988 105.002C73.245 105.006 77.5774 103.616 81.1708 101.033C84.7642 98.4503 87.4325 94.808 88.7908 90.6319C91.6803 90.0463 94.4101 88.8596 96.7978 87.1509C99.1856 85.4423 101.177 83.251 102.638 80.7232C104.845 76.9406 105.784 72.5663 105.319 68.2259C104.854 63.8855 103.009 59.801 100.049 56.5572ZM68.7988 99.6347C65.1574 99.6404 61.6303 98.3815 58.8357 96.0787L59.3272 95.804L75.878 86.3802C76.2899 86.1419 76.6319 85.802 76.8704 85.3938C77.1089 84.9857 77.2356 84.5234 77.2382 84.0524V61.0347L84.2349 65.0274C84.2695 65.0447 84.2995 65.0698 84.3223 65.1007C84.3452 65.1316 84.3604 65.1673 84.3665 65.2051V84.2789C84.3578 88.3489 82.7148 92.2498 79.7971 95.1277C76.8795 98.0056 72.9249 99.6262 68.7988 99.6347ZM35.3367 85.5397C33.5106 82.4292 32.8549 78.7832 33.485 75.2429L33.9769 75.534L50.5439 84.9578C50.9538 85.1951 51.4205 85.3202 51.8958 85.3202C52.3711 85.3202 52.8378 85.1951 53.2477 84.9578L73.4856 73.4488V81.4178C73.4837 81.4591 73.4723 81.4995 73.4524 81.5359C73.4325 81.5722 73.4045 81.6037 73.3706 81.6279L56.6068 91.1648C53.0292 93.1978 48.78 93.7473 44.7921 92.6926C40.8041 91.6379 37.4035 89.0653 35.3367 85.5397ZM30.978 49.9784C32.8168 46.848 35.7192 44.4603 39.1714 43.238V62.6351C39.1652 63.1037 39.2866 63.5654 39.5229 63.9719C39.7593 64.3785 40.1019 64.715 40.515 64.9465L60.6545 76.4069L53.6574 80.3993C53.6196 80.4191 53.5774 80.4295 53.5345 80.4295C53.4916 80.4295 53.4494 80.4191 53.4115 80.3993L36.6807 70.8788C33.1098 68.8371 30.5047 65.4827 29.4358 61.5502C28.367 57.6178 28.9215 53.4278 30.978 49.8978V49.9784ZM88.4631 63.1524L68.2581 51.5788L75.2389 47.6018C75.2768 47.582 75.319 47.5716 75.3619 47.5716C75.4048 47.5716 75.447 47.582 75.4848 47.6018L92.2157 57.1387C94.7738 58.5947 96.8593 60.7385 98.2286 63.3198C99.5979 65.9011 100.195 68.8134 99.9488 71.7166C99.7032 74.6198 98.6253 77.3942 96.8411 79.7158C95.0569 82.0374 92.6399 83.8105 89.8725 84.828V65.4309C89.858 64.9631 89.7204 64.5071 89.4732 64.1075C89.2261 63.708 88.8782 63.3791 88.4631 63.1524ZM95.4276 52.8235L94.9358 52.5324L78.4017 43.0279C77.9892 42.7892 77.5197 42.6633 77.0414 42.6633C76.5632 42.6633 76.0937 42.7892 75.6812 43.0279L55.4603 54.5366V46.5679C55.456 46.5274 55.4629 46.4865 55.4802 46.4495C55.4975 46.4125 55.5246 46.3808 55.5587 46.3578L72.2896 36.8369C74.8538 35.3798 77.7856 34.673 80.7422 34.7991C83.6987 34.9252 86.5577 35.8791 88.9849 37.5493C91.412 39.2194 93.3068 41.5366 94.4478 44.23C95.5888 46.9234 95.9288 49.8816 95.428 52.7586L95.4276 52.8235ZM51.6416 66.9503L44.6448 62.974C44.6098 62.9532 44.5799 62.9251 44.5571 62.8916C44.5344 62.8581 44.5194 62.8201 44.5132 62.7803V43.7553C44.517 40.8367 45.3631 37.9795 46.9525 35.5178C48.5419 33.056 50.809 31.0914 53.4886 29.8538C56.1682 28.6161 59.1496 28.1564 62.0842 28.5286C65.0189 28.9007 67.7855 30.0893 70.0606 31.9552L69.5688 32.2303L53.0184 41.6534C52.6065 41.8917 52.2645 42.2316 52.026 42.6397C51.7875 43.0478 51.6608 43.5101 51.6582 43.9812L51.6416 66.9503ZM55.4434 58.8686L64.456 53.7443L73.4856 58.8686V69.1165L64.4889 74.2404L55.46 69.1165L55.4434 58.8686Z" fill="black"/>
</svg>
