<svg width="128" height="129" viewBox="0 0 128 129" fill="none" xmlns="http://www.w3.org/2000/svg">
<rect width="128" height="128" transform="translate(0 0.555664)" fill="#F0F2F4"/>
<path d="M56.9949 86.7228C50.6299 77.0803 43.7713 69.7788 39.4435 59.8326C33.9516 47.2416 38.292 33.0563 49.6934 26.0585C61.5757 18.7697 76.5204 21.4524 85.2644 32.4362C92.1989 41.1676 92.9582 52.9867 86.4286 63.3884C81.3922 71.4112 75.5333 78.9151 70.0414 86.6595C67.9155 89.1524 65.7896 91.6453 63.4359 94.4166C61.1708 91.7339 59.0829 89.2283 56.9949 86.7228ZM64.3597 28.9183C53.8567 28.7538 45.2645 36.7513 44.8595 47.0645C44.4546 57.1372 52.895 66.0838 63.1449 66.4381C74.1034 66.8051 82.8854 58.5419 82.9614 47.8111C83.012 37.2828 74.9259 29.0702 64.3597 28.9183Z" fill="#EE287C"/>
<path d="M53.5024 42.7241L64.828 54.0496L72.7622 46.1028L69.2316 42.5722L64.7647 46.6975L57.1342 39.105L53.5024 42.7241Z" fill="#EE287C"/>
<path d="M66.1692 107.008C73.8883 106.438 84.6443 104.274 84.6443 98.0611C84.6443 90.5065 69.8136 90.342 69.8136 90.342L69.5732 90.8356L69.6744 90.6837C69.7377 90.5825 69.8009 90.4939 69.8009 90.4939L69.6744 90.6837C69.3581 91.1772 68.6368 92.5692 70.2945 93.1133C72.3065 93.7713 75.9003 95.1886 75.9003 98.7571C75.9003 101.781 68.7253 102.338 64.0306 102.439L64.018 102.465L64.0053 102.439C59.3106 102.338 52.1357 101.781 52.1357 98.7571C52.1357 95.1886 55.7295 93.7713 57.7415 93.1133C59.3992 92.5692 58.6779 91.1772 58.3615 90.6837L58.235 90.4939C58.235 90.4939 58.2856 90.5698 58.3615 90.6837L58.4628 90.8356L58.2223 90.342C58.2223 90.342 43.3916 90.4939 43.3916 98.0611C43.3916 104.287 54.1477 106.438 61.8668 107.008L64.0306 107.134L66.1692 107.008Z" fill="#A3A3A3"/>
</svg>
