<svg width="129" height="128" viewBox="0 0 129 128" fill="none" xmlns="http://www.w3.org/2000/svg">
<rect width="128" height="128" transform="translate(0.666992)" fill="#DA3743"/>
<path d="M76.0567 33.8596C70.0944 33.8546 64.2646 35.618 59.3047 38.9268C54.3449 42.2356 50.4777 46.9411 48.1926 52.4481C45.9075 57.9551 45.307 64.0161 46.4671 69.8644C47.6272 75.7127 50.4958 81.0855 54.7099 85.3033C58.9241 89.521 64.2945 92.3941 70.1419 93.5591C75.9892 94.7241 82.0507 94.1288 87.5596 91.8483C93.0685 89.5678 97.7772 85.7046 101.09 80.7475C104.403 75.7905 106.172 69.9621 106.172 63.9999C106.173 60.0435 105.396 56.1255 103.883 52.4696C102.371 48.8137 100.153 45.4915 97.3563 42.6928C94.5599 39.894 91.2396 37.6734 87.585 36.1578C83.9304 34.6422 80.0131 33.8613 76.0567 33.8596ZM76.0567 71.5318C74.5667 71.533 73.1099 71.0924 71.8704 70.2655C70.631 69.4387 69.6646 68.2628 69.0936 66.8866C68.5225 65.5104 68.3725 63.9958 68.6624 62.5344C68.9523 61.0729 69.6691 59.7303 70.7222 58.6763C71.7753 57.6223 73.1174 56.9043 74.5786 56.6132C76.0398 56.322 77.5545 56.4708 78.9312 57.0407C80.3078 57.6106 81.4845 58.576 82.3124 59.8147C83.1403 61.0535 83.5822 62.5099 83.5822 63.9999C83.5822 64.989 83.3874 65.9684 83.0089 66.8822C82.6304 67.796 82.0756 68.6263 81.3762 69.3257C80.6768 70.0251 79.8465 70.5799 78.9326 70.9584C78.0188 71.3369 77.0394 71.5318 76.0503 71.5318H76.0567ZM23.1621 63.9999C23.1621 62.5102 23.6038 61.054 24.4315 59.8154C25.2591 58.5768 26.4354 57.6114 27.8117 57.0413C29.1879 56.4712 30.7024 56.3221 32.1634 56.6127C33.6244 56.9033 34.9665 57.6207 36.0198 58.674C37.0732 59.7274 37.7905 61.0694 38.0812 62.5305C38.3718 63.9915 38.2226 65.5059 37.6526 66.8822C37.0825 68.2585 36.1171 69.4348 34.8785 70.2624C33.6399 71.09 32.1837 71.5318 30.694 71.5318C28.6964 71.5318 26.7807 70.7382 25.3681 69.3257C23.9556 67.9132 23.1621 65.9975 23.1621 63.9999Z" fill="white"/>
</svg>
