<svg width="129" height="128" viewBox="0 0 129 128" fill="none" xmlns="http://www.w3.org/2000/svg">
<rect width="128" height="128" transform="translate(0.765625)" fill="white"/>
<path d="M35.156 73.9642L22.4457 89.1308C21.4128 90.5165 22.9622 93.4264 24.688 93.4516L49.9448 94.0562L68.7898 108.14C69.722 108.87 71.0698 108.694 71.7879 107.749L84.5989 90.718L105.812 83.3866C107.462 82.8198 107.916 79.2171 106.455 78.2345L89.2472 67.8169L85.6445 49.3372C85.3799 47.9515 83.8557 47.2209 82.596 47.8633L63.8644 57.5252L33.2413 53.1541C31.7675 52.9399 30.5456 54.2752 30.8857 55.7238L35.156 73.9516V73.9642Z" fill="#C6A645"/>
<path d="M34.7533 72.4399L22.6477 88.5388C21.6147 89.9245 22.5721 91.8896 24.2979 91.9274L50.1845 92.3557L68.3996 106.628C69.3318 107.359 70.6797 107.182 71.3977 106.237L84.2088 89.2064L105.888 81.7994C107.538 81.2326 107.828 79.0155 106.379 78.0456L88.857 66.3178L85.2543 47.8382C84.9898 46.4525 83.4656 45.7219 82.2059 46.3643L63.4743 56.0262L32.8512 51.655C31.3773 51.4409 30.1554 52.7762 30.4955 54.2248L34.7659 72.4525L34.7533 72.4399Z" fill="#EFDF9E" stroke="#A99D75" stroke-width="0.629846" stroke-miterlimit="10"/>
<path d="M63.7637 80.6909L53.3964 38.466C53.3964 38.466 48.786 19.6085 71.2462 19.4573C89.2094 19.3439 88.5166 19.4573 88.5166 19.4573L63.7511 80.6783L63.7637 80.6909Z" fill="#4065C5"/>
<path d="M81.2234 37.4709L88.5296 19.4447C88.5296 19.4447 88.3911 19.3565 71.2593 19.4447C48.799 19.5581 53.1323 36.7277 53.1323 36.7277C53.1323 36.7277 64.1672 38.1133 81.236 37.4709H81.2234Z" fill="#597ACD"/>
<path d="M63.7134 81.1822L85.0274 48.3295L88.1388 64.7558L91.6911 68.7491L63.7134 81.1822Z" fill="#B5AD85"/>
</svg>
