<svg width="129" height="129" viewBox="0 0 129 129" fill="none" xmlns="http://www.w3.org/2000/svg">
<rect width="128" height="128" transform="translate(0.666504 0.111328)" fill="white"/>
<path d="M106.597 83.7618C106.789 85.2205 106.331 86.6269 106.27 88.0668C106.247 88.5838 105.862 88.7031 105.414 88.6926C104.828 88.678 104.56 88.5001 104.541 88.0187C104.516 87.3929 104.514 86.7651 104.556 86.1414C104.657 84.6471 104.671 83.1548 104.556 81.6605C104.523 81.244 104.533 80.8254 104.529 80.4089C104.518 79.6471 104.59 78.879 104.221 78.1591C104.123 77.9686 104.119 77.7196 104.108 77.4956C104.077 76.8531 104.068 76.2106 103.75 75.6204C103.688 75.5032 103.671 75.3504 103.673 75.2144C103.681 74.2433 103.288 73.3496 103.02 72.458C102.685 71.3363 102.365 70.1956 101.833 69.1178C101.429 68.2974 101.107 67.4121 100.743 66.5603C100.446 65.8654 100.082 65.1936 99.6943 64.5427C99.0079 63.3895 98.3193 62.2364 97.5491 61.1313C96.5759 59.7395 95.4772 58.4524 94.3847 57.1569C92.7857 55.2649 90.8833 53.6994 88.9369 52.1988C87.6958 51.2403 86.3961 50.3466 85.0148 49.5723C84.0081 49.0072 82.9826 48.4798 81.9843 47.8979C81.6034 47.6761 81.1597 47.5191 80.7516 47.3915C79.7135 47.065 78.7445 46.569 77.7148 46.2174C76.9718 45.9641 76.1305 45.9704 75.4628 45.4786C75.2787 45.3425 75.0296 45.3676 74.8015 45.3614C74.431 45.3509 74.0794 45.2797 73.7487 45.0977C73.6148 45.0244 73.4578 44.9867 73.3071 44.9512C71.5847 44.5347 69.8141 44.4447 68.0645 44.2124C67.9096 44.1914 67.7547 44.16 67.6061 44.1161C66.9448 43.9256 66.6392 43.2141 66.9468 42.6008C67.0557 42.3832 67.2503 42.3204 67.4701 42.3288C68.5563 42.3727 69.6655 42.1676 70.712 42.6678C71.0615 42.8352 71.4717 42.7243 71.8505 42.7745C72.8111 42.9001 73.7801 43.1094 74.6822 43.3731C75.4733 43.6033 76.3188 43.6682 77.1058 44.0366C77.6939 44.3107 78.418 44.4468 79.0459 44.6979C79.6842 44.9553 80.3497 45.1353 80.9797 45.4304C81.4862 45.6669 82.0178 45.893 82.541 46.1106C83.24 46.3994 83.9244 46.7448 84.5648 47.1445C85.2513 47.5736 85.9901 47.8938 86.6661 48.3437C87.7 49.0302 88.7673 49.6685 89.751 50.4283C90.6133 51.0938 91.4525 51.7865 92.2834 52.4918C93.9535 53.9108 95.4479 55.4951 96.8585 57.1757C97.6056 58.0631 98.2858 58.9987 98.9953 59.9091C99.5876 60.6688 100.019 61.552 100.569 62.3473C101.053 63.0463 101.463 63.7935 101.817 64.5469C102.202 65.3652 102.675 66.1438 103.009 66.9956C103.225 67.5439 103.439 68.1153 103.675 68.6636C103.924 69.2371 104.179 69.8252 104.343 70.4447C104.554 71.24 104.855 72.0102 105.119 72.7929C105.13 72.8264 105.163 72.8557 105.163 72.8871C105.186 73.9377 105.787 74.8732 105.772 75.9322C105.766 76.3027 105.82 76.6564 105.996 76.9913C106.143 77.2717 106.186 77.5856 106.191 77.9038C106.203 79.1888 106.302 80.4675 106.544 81.7337C106.674 82.4077 106.572 83.0878 106.599 83.7639L106.597 83.7618Z" fill="#0059A9"/>
<path d="M103.374 83.8936C103.386 85.1264 103.382 86.3612 103.357 87.596C103.34 88.4582 102.35 88.9626 101.618 88.5085C101.333 88.3306 101.277 88.0292 101.325 87.7236C101.597 85.9823 101.729 84.2222 101.57 82.4747C101.39 80.4948 101.294 78.5044 100.862 76.5413C100.668 75.6518 100.44 74.7582 100.209 73.8854C100.032 73.2115 99.8767 72.4895 99.5188 71.8407C99.2865 71.4179 99.1609 70.9072 99.0144 70.4384C98.7151 69.4778 98.2547 68.5925 97.857 67.6821C97.4573 66.7696 96.955 65.8927 96.4171 65.0513C95.467 63.5675 94.5 62.092 93.3594 60.7421C91.9781 59.1075 90.5256 57.5462 88.8995 56.144C87.8488 55.2377 86.7626 54.3776 85.6136 53.6074C84.699 52.9942 83.7802 52.3768 82.7861 51.8745C82.0536 51.504 81.3211 51.1168 80.6053 50.7024C80.1449 50.4367 79.6091 50.3069 79.1361 50.0599C78.5355 49.7481 77.8762 49.5995 77.2567 49.34C76.6079 49.0679 75.9089 48.9214 75.2475 48.6744C74.2555 48.304 73.207 48.17 72.194 47.8833C71.4678 47.6761 70.685 47.6615 69.9295 47.5547C69.2409 47.4564 68.5566 47.3413 67.868 47.2513C67.5248 47.2073 67.3259 47.0566 67.2966 46.6967C67.2841 46.5439 67.2338 46.3911 67.192 46.2425C67.0518 45.7549 67.4243 45.2672 67.9098 45.3991C68.8516 45.6544 69.8311 45.4451 70.7625 45.6774C71.9052 45.9641 73.0751 46.0855 74.2178 46.3995C74.9964 46.6129 75.7687 46.8808 76.5577 47.0755C77.2253 47.2387 77.9348 47.402 78.5543 47.7598C78.975 48.0047 79.4563 48.1052 79.9021 48.2852C81.0553 48.7519 82.1541 49.3232 83.2549 49.8841C84.4039 50.4701 85.4734 51.2173 86.5638 51.9163C88.6441 53.2495 90.5152 54.8547 92.2439 56.5981C93.531 57.8978 94.7847 59.254 95.8165 60.7881C96.346 61.5771 96.955 62.3159 97.4615 63.1196C98.0852 64.1095 98.713 65.0974 99.2049 66.1647C99.5858 66.9935 100.092 67.77 100.412 68.6197C100.636 69.212 100.94 69.7708 101.103 70.3987C101.262 71.0035 101.457 71.6188 101.704 72.1986C101.819 72.4727 101.936 72.7385 101.978 73.0294C102.108 73.9001 102.449 74.7163 102.623 75.5786C102.752 76.2253 102.97 76.8573 102.941 77.5208C102.916 78.0838 103.209 78.5589 103.278 79.0946C103.374 79.8418 103.372 80.5869 103.376 81.334C103.38 82.1858 103.376 83.0356 103.376 83.8874L103.374 83.8936Z" fill="#0075C0"/>
<path d="M68.1146 77.981C68.1355 78.7072 67.7337 79.0358 67.1686 78.6486C66.501 78.1945 65.7685 78.2029 65.0653 78.1882C64.2344 78.1715 63.3721 78.1505 62.5894 78.6298C62.0117 78.9835 61.7208 78.7219 61.7292 78.0459C61.7627 75.4737 62.3424 72.9413 62.2922 70.3608C62.2796 69.7392 62.5831 69.1657 62.6249 68.5274C62.7128 67.2089 62.537 65.8673 62.8363 64.576C63.1084 63.4082 63.1335 62.2299 63.1837 61.0558C63.2256 60.0596 63.4474 59.0968 63.5584 58.1174C63.6818 57.0249 63.5207 55.9198 63.7446 54.8399C64.2218 52.5335 63.956 50.156 64.4332 47.8454C64.5734 47.1694 64.5609 46.462 64.6425 45.7735C64.6613 45.604 64.6592 45.3256 64.9229 45.3507C65.1469 45.3716 65.1594 45.6186 65.195 45.8049C65.3708 46.7488 65.1866 47.7303 65.4169 48.6596C65.8459 50.3862 65.6701 52.1526 65.8459 53.8939C65.9233 54.6494 66.1577 55.3819 66.1724 56.1563C66.2184 58.9189 66.5596 61.6669 66.8463 64.4023C67.1058 66.8866 67.0681 69.4001 67.56 71.8614C67.6918 72.5186 67.606 73.2155 67.6751 73.8873C67.8132 75.2498 68.1334 76.5934 68.1146 77.9726V77.981Z" fill="#008ACB"/>
<path d="M68.2946 48.4966C68.8618 48.4715 69.2887 48.5427 69.701 48.6976C69.8308 48.7457 69.9689 48.8001 70.1029 48.8001C71.4172 48.8001 72.6646 49.2208 73.9287 49.4803C74.634 49.6247 75.3539 49.8738 76.0571 50.1103C76.7101 50.33 77.3213 50.6565 77.9952 50.8239C78.4765 50.9453 78.9307 51.1902 79.3786 51.3995C80.8499 52.086 82.3107 52.8101 83.6732 53.6912C84.5438 54.2542 85.3914 54.859 86.2328 55.4702C87.8129 56.6192 89.2068 57.9691 90.5818 59.3357C92.0468 60.7924 93.313 62.4227 94.4516 64.1473C95.1736 65.2398 95.7973 66.3909 96.4419 67.5294C96.8835 68.3121 97.2958 69.1179 97.6056 69.9383C97.9928 70.9638 98.4197 71.9831 98.7629 73.0337C99.0308 73.852 99.0497 74.7373 99.4745 75.5096C99.644 75.8152 99.5227 76.217 99.6315 76.5309C100.144 78.0106 99.9873 79.5908 100.36 81.0872C100.414 81.3048 100.439 81.535 100.437 81.759C100.423 83.1131 100.567 84.463 100.454 85.8192C100.389 86.604 100.157 87.3512 100.056 88.1277C99.9789 88.7179 99.4159 88.5839 98.9932 88.6048C98.5809 88.6258 98.4637 88.3704 98.3946 88.0293C98.3151 87.64 98.4595 87.2717 98.4574 86.8887C98.449 84.8711 98.4448 82.8515 98.4574 80.8339C98.4637 79.8461 98.0744 78.9336 97.9802 77.9625C97.8358 76.4389 97.3565 74.9759 96.9233 73.5255C96.6198 72.5084 96.2305 71.4871 95.7492 70.5097C95.3724 69.7458 95.0104 68.9609 94.6567 68.1803C94.3658 67.5399 93.9137 66.9748 93.5788 66.3511C92.8212 64.9384 91.7936 63.7141 90.8392 62.4437C90.1465 61.5228 89.2717 60.7317 88.4471 59.9134C87.7564 59.229 87.0616 58.5383 86.2998 57.9398C85.0357 56.9477 83.7422 55.9976 82.3651 55.1499C81.0361 54.3316 79.6548 53.6179 78.2337 53.0068C77.2459 52.582 76.2267 52.199 75.1928 51.8599C74.3849 51.5941 73.5561 51.3786 72.7441 51.1902C71.4005 50.8784 70.0589 50.42 68.6525 50.4954C67.8886 50.5372 67.2105 49.8612 67.4323 48.911C67.5663 48.3376 68.0581 48.5469 68.2967 48.5008L68.2946 48.4966Z" fill="#0085D1"/>
<path d="M97.1999 83.3682C97.1999 84.8269 97.1999 85.8022 97.1999 86.7754C97.1999 87.2693 97.0869 87.736 96.8755 88.186C96.7499 88.4539 96.5783 88.5816 96.279 88.6004C95.3539 88.6548 95.1572 88.525 95.2284 87.6063C95.3393 86.2082 95.5946 84.829 95.5507 83.41C95.5005 81.7399 95.2577 80.0865 95.0421 78.4436C94.883 77.2297 94.5984 75.9844 94.1484 74.8271C93.5959 73.3997 93.1501 71.9347 92.4553 70.5534C91.5323 68.72 90.4084 67.0352 89.2113 65.3735C87.8091 63.4229 86.1243 61.7653 84.3077 60.2354C82.8678 59.0215 81.2792 57.9981 79.6279 57.071C78.4476 56.4075 77.2086 55.8864 75.9779 55.3569C75.3752 55.0974 74.6908 54.9257 74.086 54.6767C73.2195 54.3188 72.2756 54.3439 71.4364 53.9525C71.1664 53.827 70.8629 53.8165 70.5636 53.8165C69.7683 53.8144 69.0254 53.5402 68.2656 53.3603C67.9831 53.2933 67.755 52.5357 67.8533 52.1129C67.935 51.7592 68.2133 51.7341 68.5063 51.732C69.2577 51.7236 69.9986 51.7613 70.7143 52.0417C70.9676 52.1401 71.2606 52.1317 71.5326 52.1778C72.6251 52.3682 73.682 52.6633 74.7306 53.0317C75.3459 53.2472 75.9779 53.4544 76.5954 53.6658C77.5037 53.9777 78.3994 54.3544 79.2429 54.8336C80.1135 55.3297 81.0114 55.7775 81.8715 56.2903C83.1335 57.0437 84.3035 57.9269 85.4525 58.8436C86.9405 60.0303 88.3072 61.3425 89.4959 62.818C90.241 63.741 90.9945 64.6598 91.6621 65.6581C92.4427 66.8238 93.1648 68.0168 93.7947 69.2558C94.2133 70.0783 94.6005 70.928 94.9542 71.7903C95.4272 72.9455 95.7683 74.1385 96.1283 75.321C96.4904 76.5077 96.6641 77.755 96.9027 78.9794C97.2187 80.6076 97.1706 82.2275 97.1936 83.3723L97.1999 83.3682Z" fill="#39B1E8"/>
<path d="M109.667 83.7996C109.512 85.093 109.562 86.3989 109.527 87.7028C109.506 88.4667 109.119 88.7618 108.311 88.6865C107.635 88.6237 107.344 88.2616 107.474 87.5312C107.662 86.468 107.75 85.4048 107.781 84.3228C107.832 82.6066 107.557 80.926 107.405 79.2308C107.365 78.7808 107.352 78.3287 107.344 77.8767C107.338 77.4183 107.275 76.9746 107.068 76.5602C106.973 76.3698 106.932 76.1689 106.923 75.9554C106.896 75.3296 106.881 74.7038 106.559 74.1346C106.517 74.0613 106.511 73.9671 106.498 73.8813C106.333 72.7679 105.908 71.7298 105.609 70.6562C105.418 69.9739 105.13 69.3293 104.931 68.6533C104.765 68.0945 104.558 67.5148 104.223 66.9978C103.974 66.6127 103.836 66.1481 103.675 65.7211C103.37 64.9112 102.897 64.1933 102.545 63.4106C102.3 62.8643 101.946 62.3348 101.599 61.8242C101.172 61.1963 100.783 60.5433 100.377 59.9029C99.8765 59.1181 99.3323 58.3625 98.7421 57.6447C98.0368 56.7908 97.3943 55.8845 96.6137 55.0913C96.1072 54.5765 95.6321 54.0323 95.1089 53.5363C94.322 52.7892 93.5811 51.9918 92.7167 51.3304C91.7958 50.6272 90.8959 49.8968 89.9771 49.1894C88.8909 48.3543 87.7063 47.6846 86.5783 46.9207C85.9399 46.4896 85.2116 46.1882 84.5188 45.8408C83.7194 45.4389 82.9303 45.0078 82.1078 44.6645C81.5407 44.4281 80.9714 44.1853 80.4021 43.9488C79.7136 43.6621 78.979 43.5344 78.305 43.2037C77.7986 42.9547 77.2209 42.7956 76.6872 42.6847C75.7078 42.4796 74.7325 42.2159 73.7698 41.9773C72.447 41.6487 71.0762 41.7178 69.7765 41.3117C69.0859 41.0962 68.3575 41.1841 67.6459 41.1736C66.7041 41.1569 66.2249 40.4955 66.499 39.5893C66.5974 39.267 66.8067 39.1058 67.1478 39.0891C67.7087 39.0598 68.2759 39.0828 68.8075 39.2377C69.5735 39.4637 70.3562 39.4239 71.1327 39.493C71.5869 39.5328 72.0347 39.5453 72.4533 39.7546C72.5601 39.809 72.6877 39.8614 72.8028 39.8572C73.8304 39.8132 74.7764 40.1983 75.7496 40.4243C76.6496 40.6336 77.5349 40.9078 78.4202 41.1862C79.0899 41.3955 79.7617 41.6152 80.4314 41.8308C81.0488 42.0296 81.6474 42.3017 82.2334 42.5821C82.6206 42.7684 83.0203 42.9484 83.4096 43.1095C84.9793 43.7541 86.4129 44.6352 87.8863 45.4536C89.4643 46.3305 90.9085 47.3895 92.3379 48.4673C93.7297 49.518 95.0482 50.6649 96.2788 51.9122C97.6162 53.2684 98.9242 54.6456 100.086 56.1608C100.787 57.0754 101.434 58.0235 102.093 58.9653C102.624 59.7271 103.125 60.5077 103.583 61.3093C104.031 62.0983 104.47 62.8936 104.883 63.7036C105.28 64.4842 105.628 65.2858 106.019 66.0686C106.272 66.575 106.39 67.1318 106.662 67.6424C107.04 68.3498 107.25 69.1472 107.482 69.9111C107.691 70.5955 107.993 71.2673 108.07 71.9894C108.122 72.4854 108.39 72.9165 108.462 73.3874C108.639 74.5511 109.108 75.6603 109.104 76.8553C109.104 77.209 109.177 77.5397 109.307 77.8704C109.479 78.3141 109.495 78.7934 109.512 79.258C109.564 80.769 109.487 82.2843 109.661 83.8016L109.667 83.7996Z" fill="#004294"/>
<path d="M20.0011 83.8811C20.1539 81.7694 20.2418 79.7372 20.4741 77.7217C20.5641 76.939 20.6708 76.1374 20.8508 75.3735C21.0894 74.3585 21.3238 73.3308 21.5959 72.32C21.7989 71.5624 22.0354 70.7984 22.2698 70.0534C22.4749 69.3983 22.5984 68.7014 22.9542 68.0777C23.2158 67.6214 23.3477 67.0877 23.5402 66.5938C23.7913 65.9492 24.143 65.359 24.392 64.7249C24.708 63.9212 25.1664 63.195 25.5222 62.4143C25.8194 61.7613 26.2672 61.1795 26.6251 60.5516C27.2907 59.3817 28.0901 58.2976 28.8541 57.1946C29.4735 56.301 30.204 55.4827 30.8946 54.6392C31.1227 54.3588 31.3823 54.1034 31.625 53.8355C32.0394 53.3793 32.4999 53.3793 32.8933 53.8418C33.5024 54.5555 33.5024 54.725 32.8452 55.4282C32.1483 56.1754 31.5832 57.0293 30.9176 57.7953C29.9151 58.9464 29.1659 60.2691 28.3162 61.5165C27.862 62.182 27.4727 62.925 27.119 63.6721C26.7737 64.4026 26.3384 65.0911 26.0203 65.8362C25.7859 66.3866 25.5891 66.958 25.3066 67.4854C24.9738 68.1091 24.8399 68.8018 24.5364 69.4381C24.2518 70.0366 24.0278 70.6875 23.9211 71.3384C23.8248 71.9307 23.5402 72.4455 23.3916 73.0148C23.0819 74.1973 23.0191 75.4258 22.611 76.5895C22.4435 77.0667 22.4665 77.6192 22.4498 78.1382C22.4289 78.7326 22.3598 79.3144 22.1987 79.8879C22.0856 80.2897 22.0229 80.702 22.0249 81.1248C22.0291 82.9854 22.0229 84.848 22.0312 86.7086C22.0333 87.123 22.1128 87.5395 22.117 87.9539C22.1212 88.4018 21.8847 88.6655 21.4159 88.6948C20.788 88.7345 20.3904 88.5357 20.3423 88.0543C20.202 86.6395 20.1058 85.2206 19.999 83.8832L20.0011 83.8811Z" fill="#004294"/>
<path d="M60.2959 83.904C60.1704 81.7692 62.0602 79.2222 65.0259 79.2891C67.5583 79.3456 69.4879 81.4302 69.4754 83.7972C69.4649 86.2647 67.5248 88.3325 64.8919 88.3702C62.3114 88.4079 60.252 86.0513 60.2938 83.904H60.2959Z" fill="#005EA4"/>
<path d="M93.9471 81.5389C93.9576 82.1877 93.8299 82.3259 93.2146 82.3322C92.5365 82.3384 92.4235 82.2212 92.3837 81.5683C92.2916 80.0718 91.9358 78.6256 91.5947 77.169C91.4126 76.3904 91.1636 75.6328 90.9291 74.8752C90.6571 74.0024 90.3055 73.1465 89.9015 72.3281C89.3909 71.2921 88.8718 70.2583 88.2461 69.2788C87.5533 68.1947 86.8082 67.1545 85.9857 66.1687C84.5416 64.4358 82.8966 62.9122 81.0737 61.5937C79.9143 60.7523 78.6983 59.9905 77.4112 59.3355C76.5593 58.9022 75.672 58.5632 74.8181 58.1404C74.4037 57.9353 73.939 57.7909 73.4954 57.68C72.0031 57.3012 70.5569 56.7214 68.9977 56.6272C68.4724 56.5959 68.1522 56.0664 68.2631 55.4008C68.351 54.8776 68.757 54.9864 69.1275 55.0053C70.2304 55.0659 71.2915 55.3841 72.3422 55.6499C73.5037 55.945 74.6653 56.2924 75.7787 56.7947C77.1558 57.4142 78.5706 57.9583 79.8389 58.7829C81.0695 59.5845 82.3483 60.3149 83.4533 61.3132C84.3575 62.1295 85.293 62.9122 86.1197 63.808C87.4843 65.2876 88.7777 66.8238 89.7529 68.607C90.0585 69.1658 90.408 69.7078 90.7554 70.2415C91.0819 70.7438 91.2326 71.3173 91.4712 71.8468C91.6805 72.3093 91.917 72.7739 92.1095 73.2532C92.5993 74.4796 92.8609 75.7688 93.2816 77.012C93.4134 77.4013 93.4176 77.8324 93.4846 78.2447C93.6667 79.3393 93.9576 80.4193 93.9471 81.541V81.5389Z" fill="#7FC2EE"/>
<path d="M61.5307 78.8457C61.5391 79.1513 61.401 79.3145 61.2377 79.4443C60.7689 79.8147 60.3901 80.2626 60.0301 80.7314C59.8104 81.0182 59.5613 81.0098 59.3165 80.7817C58.7974 80.2961 58.2847 79.8043 57.7761 79.3083C56.1164 77.6988 54.4588 76.0873 52.7992 74.4758C50.5054 72.2468 48.2011 70.0284 45.9198 67.7848C44.2518 66.1419 42.6361 64.4487 40.9597 62.8121C39.3837 61.2738 37.7555 59.7858 36.1586 58.2684C35.9074 58.0298 35.694 57.7515 35.47 57.4857C35.3884 57.3873 35.2063 57.2848 35.3298 57.1445C35.4554 57.0001 35.6312 57.111 35.7547 57.1968C36.1398 57.4626 36.5458 57.7117 36.889 58.0256C37.7492 58.8063 38.668 59.5179 39.5407 60.2776C40.8236 61.3931 42.1191 62.4961 43.4209 63.5906C44.842 64.7836 46.2694 65.9682 47.6925 67.1569C48.6783 67.9794 49.6598 68.8061 50.6456 69.6286C51.9369 70.7044 53.2366 71.7738 54.5237 72.8538C55.9448 74.0446 57.3282 75.2857 58.787 76.4284C59.6471 77.1044 60.4341 77.8621 61.2984 78.5297C61.4303 78.6323 61.5203 78.7474 61.5265 78.8457H61.5307Z" fill="#49B2E4"/>
<path d="M69.3475 58.3206C70.5698 58.5047 71.8046 58.7329 72.9766 59.2435C73.4475 59.4486 73.9602 59.5512 74.45 59.7228C76.4612 60.4344 78.2423 61.5583 80.0254 62.678C80.668 63.0819 81.2205 63.6323 81.8128 64.1158C81.8525 64.1472 81.9111 64.1911 81.9111 64.2309C81.9153 64.6432 81.5386 64.7792 81.3084 65.0115C81.1556 65.1664 80.9547 65.315 80.7224 65.0806C79.5985 63.9442 78.213 63.1635 76.8777 62.3305C76.1368 61.868 75.3164 61.5164 74.4856 61.2192C74.0314 61.056 73.5982 60.8362 73.1524 60.6541C72.4554 60.3716 71.7146 60.2607 71.0239 59.9739C70.62 59.8044 70.1805 59.773 69.7431 59.7647C69.2659 59.7542 68.9059 59.5742 68.7573 59.0761C68.6003 58.555 68.7845 58.2954 69.3496 58.3226L69.3475 58.3206Z" fill="#AAD3F3"/>
</svg>
