<svg width="128" height="128" viewBox="0 0 128 128" fill="none" xmlns="http://www.w3.org/2000/svg">
<rect width="128" height="128" fill="#65B339"/>
<circle cx="51.2339" cy="65.9332" r="26.0701" fill="#FE4E33"/>
<path d="M103.79 90.3165H94.2953V84.6413C92.7189 86.8483 90.8514 88.4975 88.6929 89.5889C86.5586 90.656 84.4001 91.1896 82.2174 91.1896C77.7791 91.1896 73.9714 89.407 70.7943 85.8418C67.6414 82.2524 66.0649 77.2563 66.0649 70.8535C66.0649 64.3052 67.605 59.3334 70.6851 55.938C73.7652 52.5183 77.6578 50.8085 82.3629 50.8085C86.6799 50.8085 90.4148 52.6032 93.5677 56.1927V36.9844H103.79V90.3165ZM76.5058 70.1623C76.5058 74.2853 77.0757 77.2684 78.2156 79.1116C79.8648 81.7794 82.1689 83.1133 85.1277 83.1133C87.4802 83.1133 89.4811 82.119 91.1303 80.1302C92.7795 78.1173 93.6041 75.122 93.6041 71.1446C93.6041 66.7063 92.8037 63.517 91.2031 61.5768C89.6024 59.6123 87.553 58.6301 85.0549 58.6301C82.6297 58.6301 80.5924 59.6002 78.9432 61.5404C77.3183 63.4564 76.5058 66.3304 76.5058 70.1623Z" fill="white"/>
</svg>
