<svg width="128" height="128" viewBox="0 0 128 128" fill="none" xmlns="http://www.w3.org/2000/svg">
<rect width="128" height="128" fill="#E9EBEF"/>
<path d="M47.9261 54.2186C45.1399 59.6292 45.8365 64.8283 48.9087 69.8658C49.257 70.4877 49.5928 71.0972 49.9411 71.7191L49.9535 71.7688C50.252 72.1047 50.5505 72.4529 50.8491 72.7888L50.8117 72.7639C51.1476 73.05 51.4958 73.336 51.8317 73.6221L51.8939 73.6719C59.6553 80.3761 69.979 79.5925 76.8076 71.7813C77.0812 71.4454 77.3673 71.122 77.6409 70.7862L77.7031 70.6618C78.0514 70.0772 78.4121 69.4802 78.7603 68.8956C81.5216 64.4801 81.7082 59.8779 79.743 55.1265C77.2802 47.7507 73.2751 45.1511 64.8296 44.6287C54.4561 43.9819 50.4635 47.7134 47.9261 54.2186ZM52.8765 58.2858C53.685 52.1538 59.1329 49.3055 64.4316 49.7284C70.3273 50.1886 74.7428 53.6464 74.7428 59.2933C74.6433 62.6392 73.6856 65.7239 71.8572 68.5473C68.0013 72.7639 62.031 73.0873 56.6204 69.9031L56.5831 69.8658C56.2721 69.5797 55.9736 69.2812 55.6626 68.9951L55.588 68.908C55.3019 68.5847 55.0159 68.2488 54.7298 67.9254C52.9511 64.9278 52.6028 61.669 52.8765 58.2858Z" fill="#FD7E0D"/>
<path d="M79.6934 83.2867C79.5317 83.2867 79.3824 83.2121 79.2954 83.0752L75.2156 76.8313C75.0664 76.6074 75.1286 76.3089 75.3525 76.1721C75.5763 76.0228 75.8749 76.085 76.0117 76.3089L80.1038 82.5528C80.2531 82.7767 80.1909 83.0752 79.967 83.2121C79.88 83.2618 79.7929 83.2867 79.6934 83.2867Z" fill="#3B8183"/>
<path d="M85.7881 92.6153C85.6264 92.6153 85.4771 92.5407 85.3901 92.4039L81.3103 86.1599C81.1611 85.936 81.2233 85.6375 81.4472 85.5007C81.6711 85.3514 81.9696 85.4136 82.1064 85.6375L86.1861 91.8815C86.3354 92.1054 86.2732 92.4039 86.0493 92.5407C85.9747 92.5905 85.8876 92.6153 85.7881 92.6153Z" fill="#3B8183"/>
<path d="M57.2922 88.4361C57.2549 88.4361 57.2176 88.4361 57.1927 88.4237C56.9315 88.3615 56.7698 88.1127 56.832 87.8515L58.4365 80.5627C58.4987 80.3015 58.7475 80.1398 59.0087 80.202C59.2699 80.2642 59.4316 80.513 59.3694 80.7742L57.7649 88.063C57.7151 88.2868 57.5161 88.4361 57.2922 88.4361Z" fill="#3B8183"/>
<path d="M41.1226 77.4656C40.9609 77.4656 40.8116 77.391 40.7245 77.2542C40.5753 77.0303 40.6375 76.7318 40.8614 76.595L47.1053 72.5152C47.3292 72.366 47.6277 72.4282 47.7646 72.6521C47.9138 72.8759 47.8516 73.1745 47.6277 73.3113L41.3838 77.391C41.2967 77.4408 41.2096 77.4656 41.1226 77.4656Z" fill="#3B8183"/>
<path d="M43.3117 59.4427C43.2993 59.4427 43.2744 59.4427 43.2619 59.4427L35.8488 58.6467C35.5876 58.6218 35.3886 58.3855 35.4259 58.1118C35.4508 57.8506 35.6871 57.6516 35.9607 57.6889L43.3739 58.485C43.6351 58.5098 43.8341 58.7462 43.7968 59.0198C43.7595 59.2561 43.548 59.4427 43.3117 59.4427Z" fill="#3B8183"/>
<path d="M33.0129 58.3357C33.0004 58.3357 32.9756 58.3357 32.9631 58.3357L25.55 57.5397C25.2888 57.5148 25.0898 57.2785 25.1271 57.0048C25.1519 56.7436 25.3883 56.5446 25.6619 56.5819L33.0751 57.378C33.3363 57.4028 33.5353 57.6392 33.498 57.9128C33.4606 58.1491 33.2492 58.3357 33.0129 58.3357Z" fill="#3B8183"/>
<path d="M54.6429 42.5019C54.4812 42.5019 54.3319 42.4273 54.2449 42.2904L50.1651 36.034C50.0159 35.8101 50.0781 35.5116 50.3019 35.3748C50.5258 35.2256 50.8244 35.2877 50.9612 35.5116L55.0409 41.7556C55.1902 41.9795 55.128 42.278 54.9041 42.4148C54.8294 42.477 54.7424 42.5019 54.6429 42.5019Z" fill="#3B8183"/>
<path d="M78.2008 47.3279C78.0391 47.3279 77.8898 47.2533 77.8028 47.1165C77.6535 46.8926 77.7157 46.5941 77.9396 46.4572L84.1836 42.3775C84.4074 42.2283 84.706 42.2904 84.8428 42.5143C84.992 42.7382 84.9299 43.0367 84.706 43.1736L78.462 47.2533C78.3749 47.2906 78.2879 47.3279 78.2008 47.3279Z" fill="#3B8183"/>
<path d="M86.7583 41.4198C86.5966 41.4198 86.4473 41.3451 86.3602 41.2083C86.211 40.9844 86.2732 40.6859 86.4971 40.5491L92.741 36.4694C92.9649 36.3201 93.2635 36.3823 93.4003 36.6062C93.5495 36.8301 93.4873 37.1286 93.2634 37.2654L87.0195 41.3451C86.9448 41.3949 86.8453 41.4198 86.7583 41.4198Z" fill="#3B8183"/>
<path d="M87.9024 101.608C85.9621 101.173 85.1412 99.643 85.0541 97.5658C84.967 95.3891 86.3228 94.2448 88.2258 94.1577C91.012 94.0333 91.522 96.3468 91.6588 98.4116C91.8205 100.626 90.0542 101.26 87.9024 101.608Z" fill="#61999B"/>
<path d="M23.2114 57.3158C22.7264 59.6915 20.6989 59.8159 19.1193 59.8532C17.3282 59.903 16.2212 58.3233 16.3083 56.6317C16.3953 54.7536 17.9625 53.9575 19.7039 54.0819C21.6442 54.2187 22.7264 55.5247 23.2114 57.3158Z" fill="#61999B"/>
<path d="M40.3513 80.3638C40.0403 82.4907 38.896 83.7843 36.9556 83.8092C35.1397 83.834 34.779 82.0429 34.6297 80.7618C34.3934 78.6971 36.0601 78.1871 37.7019 78.0627C39.3935 77.9259 40.3761 78.7468 40.3513 80.3638Z" fill="#61999B"/>
<path d="M58.8717 93.2622C58.4986 94.7548 58.1379 96.4215 56.3592 96.2349C54.7796 96.0732 53.3367 95.0657 53.374 93.1627C53.4114 91.5955 54.2945 90.4263 55.9487 90.2894C58.0757 90.1278 58.2374 91.9935 58.8717 93.2622Z" fill="#61999B"/>
<path d="M64.2077 55.9227C68.0138 56.7934 68.8223 58.1243 69.1457 61.2836C69.6059 65.7116 65.7998 65.4006 63.3246 65.6992C60.8618 65.9977 57.9637 64.1568 58.312 61.7936C58.6603 59.5049 59.9041 55.2511 64.2077 55.9227Z" fill="#61999B"/>
<path d="M97.7908 37.452C95.8504 37.0167 95.0295 35.4868 94.9425 33.4096C94.8554 31.2329 96.2111 30.0886 98.1142 30.0016C100.9 29.8772 101.41 32.1907 101.547 34.2554C101.709 36.4694 99.9302 37.1038 97.7908 37.452Z" fill="#61999B"/>
<path d="M51.782 31.4444C51.471 33.5713 50.3267 34.8649 48.3863 34.8898C46.5704 34.9147 46.2096 33.1236 46.0604 31.8424C45.8241 29.7777 47.4908 29.2677 49.1326 29.1433C50.8242 29.019 51.8068 29.8274 51.782 31.4444Z" fill="#61999B"/>
</svg>
