<svg width="128" height="128" viewBox="0 0 128 128" fill="none" xmlns="http://www.w3.org/2000/svg">
<rect width="128" height="128" fill="#F8CD46"/>
<path d="M86.0067 100.815C69.4425 108.467 39.7901 87.1204 31.8113 70.4861C23.8324 53.8519 33.7243 37.6609 50.3119 29.6821C55.5916 27.178 61.3594 25.8715 67.2028 25.856C72.6917 25.6698 78.1114 27.124 82.7698 30.0329C87.4282 32.9418 91.1138 37.1733 93.3557 42.1869C101.311 58.3312 102.501 92.8595 86.0067 100.815Z" fill="black"/>
<path d="M48.8423 43.1201H59.3641C61.9405 42.9035 64.5235 43.4521 66.7895 44.6971C69.0554 45.9422 70.9035 47.8283 72.1022 50.1191L87.7333 83.2709C86.9721 84.0317 85.9399 84.459 84.8637 84.459C83.7875 84.459 82.7553 84.0317 81.9941 83.2709C81.8167 83.0947 81.702 82.8653 81.6675 82.6177L68.2761 63.5105C67.8195 62.8359 67.2337 62.2587 66.5525 61.8121C65.8714 61.3655 65.1084 61.0585 64.3077 60.9088C63.5071 60.7591 62.6847 60.7696 61.8882 60.9399C61.0917 61.1102 60.3368 61.4367 59.6674 61.9007C59.3641 61.9007 59.3641 62.2273 59.0375 62.5539L55.2114 66.0534C54.4501 66.8142 53.418 67.2415 52.3418 67.2415C51.2656 67.2415 50.2334 66.8142 49.4722 66.0534L49.1456 65.7268L52.6684 61.0608C53.8035 59.3738 54.4348 57.3984 54.4886 55.3657C54.5423 53.3331 54.0161 51.3271 52.9717 49.5825L48.8423 43.1201ZM54.8847 77.8584C54.3457 78.8317 54.1254 79.9495 54.2548 81.0546C54.2548 83.3875 57.1244 85.2073 57.1244 85.2073L66.993 68.2931C67.3237 67.4777 67.3237 66.5655 66.993 65.7501C66.5114 64.8637 65.7554 64.1573 64.8385 63.7367C63.9216 63.3161 62.8931 63.2039 61.907 63.4171L54.8847 77.8584Z" fill="white"/>
</svg>
