<svg width="128" height="128" viewBox="0 0 128 128" fill="none" xmlns="http://www.w3.org/2000/svg">
<rect width="128" height="128" fill="white"/>
<path d="M64.0398 78.9998C72.3323 78.9998 79.0547 72.284 79.0547 63.9998C79.0547 55.7155 72.3323 48.9998 64.0398 48.9998C55.7473 48.9998 49.0249 55.7155 49.0249 63.9998C49.0249 72.284 55.7473 78.9998 64.0398 78.9998Z" fill="#E48636"/>
<path d="M52.2026 48.6031H27.0983C25.1122 53.3651 24 58.5238 24 64C24 69.4762 25.1122 74.6349 27.0983 79.3968H52.1231C47.5154 75.8254 44.576 70.2698 44.576 64C44.576 57.7301 47.5154 52.0952 52.2026 48.6031Z" fill="#5B5A54"/>
<path d="M64.0397 23.9999C49.0248 23.9999 35.9165 32.2538 29.0844 44.5554H64.0397C74.7646 44.5554 83.5034 53.2856 83.5034 63.9999C83.5034 74.7142 74.7646 83.4443 64.0397 83.4443C63.8013 83.4443 63.563 83.4443 63.3247 83.4443H29.0844C35.9165 95.6665 49.0248 104 64.0397 104C86.1251 104 104 86.1427 104 64.0792C104 42.0158 86.1251 23.9999 64.0397 23.9999Z" fill="#5B5A54"/>
</svg>
