<svg width="128" height="128" viewBox="0 0 128 128" fill="none" xmlns="http://www.w3.org/2000/svg">
<rect width="128" height="128" fill="#FFED00"/>
<path fill-rule="evenodd" clip-rule="evenodd" d="M65.629 97.2802C47.2914 97.2802 32.1698 85.0413 25.2983 76.4659C23.2542 73.9168 23.6694 70.1957 26.2225 68.157C28.7756 66.1156 32.502 66.5309 34.5448 69.0799C35.2534 69.9626 52.143 90.6577 73.974 84.2443C92.1589 78.9037 92.1589 52.0148 92.1589 37.5671C92.1589 34.3027 94.8098 31.6559 98.0808 31.6559C101.35 31.6559 104 34.3027 104 37.5671C104 53.8566 104 87.7511 77.316 95.5857C73.3136 96.7605 69.4023 97.2802 65.629 97.2802Z" fill="#231F20"/>
<path fill-rule="evenodd" clip-rule="evenodd" d="M31.0397 48.7335C27.77 48.7335 25.1192 46.0866 25.1192 42.8223V36.9111C25.1192 33.6455 27.77 31 31.0397 31C34.3094 31 36.9602 33.6455 36.9602 36.9111V42.8223C36.9602 46.0866 34.3094 48.7335 31.0397 48.7335Z" fill="#231F20"/>
</svg>
