<svg width="128" height="128" viewBox="0 0 128 128" fill="none" xmlns="http://www.w3.org/2000/svg">
<rect width="128" height="128" fill="white"/>
<path d="M47.9757 105C41.7359 105 35.5023 105 29.2687 105C25.2308 105 23.0661 102.821 23.0661 98.7745C23.0413 87.1205 22.9172 75.4913 23.0909 63.8622C23.2522 52.812 27.1164 43.1501 34.8758 35.2251C41.9096 28.0285 50.5126 23.764 60.4677 23.1166C77.1093 22.0209 90.2402 28.651 99.0788 42.9011C108.947 58.7698 106.212 79.9425 92.8763 93.1031C85.1478 100.723 75.8439 104.745 64.9646 104.932C59.3016 105.044 53.6325 104.932 47.9633 104.932L47.9757 105Z" fill="#FBD51A"/>
<path d="M44.7069 63.0841C41.6056 63.0841 38.5043 63.0841 35.403 63.0841C32.953 63.0841 32.2459 63.7751 32.3761 66.2653C32.5383 69.8321 33.2734 73.3491 34.5532 76.6805C41.618 94.7343 63.3705 102.348 79.9376 92.4558C90.0044 86.4482 95.1339 77.3342 95.686 65.6241C95.7666 63.9183 95.1339 63.1339 93.8872 63.0966C92.6405 63.0592 91.859 63.9432 91.7783 65.5867C91.7349 66.5143 91.7783 67.4544 91.6605 68.3757C89.7129 82.7316 78.0148 92.8854 63.5317 92.848C50.1217 92.848 38.2066 82.2212 36.5753 68.8862C36.3458 67.0186 36.383 67.0186 38.312 67.0186C43.3609 67.0186 48.4098 67.0186 53.4587 67.0186C54.1264 67.021 54.7922 66.9479 55.4436 66.8007C55.8544 66.7026 56.2169 66.4607 56.4659 66.1183C56.7149 65.776 56.8341 65.3557 56.8019 64.9331C56.8453 63.9494 56.1817 63.4265 55.3257 63.2024C54.8225 63.0948 54.3076 63.053 53.7937 63.0779C50.7544 63.0779 47.7151 63.0841 44.7069 63.0841Z" fill="white"/>
<path d="M44.589 48.168H35.6325C33.3375 48.168 32.3513 48.7905 32.4071 50.1228C32.463 51.455 33.5484 52.1149 35.7131 52.1211C41.68 52.1211 47.649 52.1211 53.62 52.1211C54.2899 52.1556 54.9605 52.067 55.5986 51.8597C55.9507 51.7585 56.2612 51.5467 56.4845 51.2554C56.7077 50.964 56.8321 50.6085 56.8391 50.241C56.8805 49.8454 56.7896 49.4471 56.5808 49.109C56.3719 48.7709 56.057 48.5121 55.6855 48.3734C55.1054 48.1569 54.4844 48.0739 53.8681 48.1306L44.589 48.168Z" fill="white"/>
<path d="M44.5332 55.6136H35.7317C33.381 55.6136 32.4258 56.1552 32.4071 57.4812C32.3885 58.8073 33.5112 59.573 35.769 59.5792H53.682C54.3513 59.614 55.0211 59.5189 55.6545 59.2991C56.0005 59.1842 56.3012 58.9619 56.513 58.6642C56.7249 58.3665 56.8369 58.0089 56.8329 57.6431C56.8534 57.278 56.7614 56.9155 56.5694 56.6047C56.3775 56.294 56.0948 56.0501 55.7599 55.9062C55.1882 55.665 54.5662 55.5688 53.9487 55.6261L44.5332 55.6136Z" fill="white"/>
</svg>
