<svg width="128" height="128" viewBox="0 0 128 128" fill="none" xmlns="http://www.w3.org/2000/svg">
<rect width="128" height="128" fill="#2C2C2E"/>
<path fill-rule="evenodd" clip-rule="evenodd" d="M90.4194 57.5666C90.4194 57.3454 90.382 57.135 90.3542 56.9213C90.3649 56.8753 90.3777 56.8294 90.3884 56.7824H90.3403C89.961 54.3956 87.9108 52.5655 85.4172 52.5655H71.6884C68.9255 52.5655 66.6862 54.8048 66.6862 57.5666V69.0336C66.0089 69.1244 65.324 69.1864 64.6221 69.1864C55.81 69.1864 48.6657 61.7814 48.6657 52.6477C48.6657 43.5141 55.81 36.1102 64.6221 36.1102C70.4095 36.1102 75.4619 39.3132 78.259 44.0921C78.259 44.0921 80.8263 45.4543 83.3904 44.7096C86.1875 43.8976 86.8905 42.7983 87.2772 40.7395C87.5251 39.4168 87.8296 37.9029 85.946 35.2768C81.0507 28.4498 73.0613 24 64.0174 24C49.0963 24 37 36.0952 37 51.0174C37 52.5975 37.1635 54.1371 37.4241 55.6435C37.5833 57.4598 37.8088 59.5079 38.0748 60.5036C41.1571 72.0464 60.6498 102.346 60.6498 102.346C60.6498 102.346 62.386 103.978 63.1306 104C63.9458 104.022 65.9426 102.346 65.9426 102.346C65.9426 102.346 85.7783 73.8819 89.0967 62.4887C89.2847 61.8444 90.4194 57.5666 90.4194 57.5666Z" fill="#FDD200"/>
</svg>
