<svg width="128" height="128" viewBox="0 0 128 128" fill="none" xmlns="http://www.w3.org/2000/svg">
<rect width="128" height="128" fill="white"/>
<path fill-rule="evenodd" clip-rule="evenodd" d="M105.585 59.4491C105.585 60.6317 104.626 61.5894 103.444 61.5894C102.261 61.5894 101.303 60.6317 101.303 59.4491C101.303 58.2674 102.261 57.3087 103.444 57.3087C104.626 57.3087 105.585 58.2674 105.585 59.4491Z" fill="white"/>
<path fill-rule="evenodd" clip-rule="evenodd" d="M28.313 65.4935L29.7022 61.3649L31.1068 65.4935H28.313ZM22.5129 62.9283C22.2057 63.1646 21.6728 63.2842 20.9141 63.2842H19.9506V60.7219H21.07C21.8058 60.7219 22.3062 60.8482 22.5722 61.098C22.8391 61.3486 22.9721 61.6538 22.9721 62.0155C22.9721 62.3858 22.8181 62.6901 22.5129 62.9283ZM40.6116 65.7125H43.2408V66.7946C42.7261 67.0711 42.2687 67.2673 41.8697 67.3821C41.4698 67.4969 41.0507 67.5543 40.6116 67.5543C39.6854 67.5543 38.963 67.2883 38.4454 66.7554C37.9278 66.2225 37.6685 65.3346 37.6685 64.0917C37.6685 62.9206 37.9239 62.0652 38.4368 61.5256C38.9487 60.984 39.6356 60.7142 40.4977 60.7142C41.0775 60.7142 41.5521 60.829 41.9262 61.0587C42.2993 61.2883 42.5634 61.6203 42.7213 62.0537L46.5131 61.4433C46.2825 60.7018 45.9361 60.0885 45.4759 59.6053C45.0166 59.1221 44.4368 58.7652 43.7403 58.5356C43.0437 58.306 41.9913 58.1912 40.5857 58.1912C39.1266 58.1912 37.966 58.3768 37.104 58.7471C35.9989 59.2274 35.1598 59.9316 34.5876 60.8587C34.1924 61.4978 33.9437 62.2202 33.8202 63.0134L31.8952 58.3873H27.6068L26.628 60.7381C26.4596 60.166 26.1745 59.6799 25.7382 59.3039C25.0283 58.6925 23.9624 58.3873 22.5387 58.3873H16V69.8736H19.9506V65.6111H22.1034C23.2018 65.6111 24.0906 65.4436 24.7996 65.1317L22.8248 69.8736H26.8385L27.4585 67.9782H31.9229L32.5592 69.8736H36.6753L36.3845 69.1732C36.4983 69.2402 36.6055 69.3129 36.727 69.3732C37.679 69.8372 38.9094 70.0697 40.4202 70.0697C41.6478 70.0697 42.7069 69.9406 43.6015 69.6822C44.4952 69.4229 45.5237 68.9369 46.6872 68.2203V63.3234H40.6116V65.7125Z" fill="#122C79"/>
<path fill-rule="evenodd" clip-rule="evenodd" d="M46.7573 69.8742H50.3214V58.3879H46.7573V69.8742Z" fill="#122C79"/>
<path fill-rule="evenodd" clip-rule="evenodd" d="M59.6548 64.7422L55.3225 58.3872H52.0015V69.8735H55.3455V63.5663L59.6548 69.8735H63.0065V58.3872H59.6548V64.7422Z" fill="#122C79"/>
<path fill-rule="evenodd" clip-rule="evenodd" d="M66.7645 67.2724V65.0077H71.2155V62.6655H66.7645V60.839H71.5628V58.3867H63.8979V69.874H71.7015V67.2724H66.7645Z" fill="#122C79"/>
<path fill-rule="evenodd" clip-rule="evenodd" d="M74.5607 70.1307H77.5095V65.2453C77.5095 64.6301 78.009 64.1306 78.6232 64.1306C79.2385 64.1306 79.7379 64.6301 79.7379 65.2453V70.0321L82.5499 70.0503V65.3142C82.5499 64.6999 83.0494 64.1995 83.6636 64.1995C84.2779 64.1995 84.7773 64.6999 84.7773 65.3142V70.0656L88.1357 70.0867L88.1089 63.5346C88.1089 62.3501 87.0306 61.3885 85.7045 61.3885C84.4654 61.3885 83.4177 62.2572 83.3201 63.3662L82.7059 63.3585C82.6312 62.2343 81.6955 61.354 80.5761 61.354C79.4107 61.354 78.451 62.3022 78.4348 63.4685L77.8176 63.4638V61.3885H74.5607V70.1307ZM78.1267 70.7488H73.9426V60.7714H78.4348V61.7636C78.9428 61.1378 79.7159 60.7369 80.5761 60.7369C81.64 60.7369 82.5748 61.3531 83.0322 62.2563C83.5316 61.3646 84.5391 60.7714 85.7045 60.7714C87.3712 60.7714 88.726 62.0104 88.726 63.5327L88.7557 70.7077L84.1602 70.679V65.3142C84.1602 65.0396 83.9373 64.8167 83.6636 64.8167C83.389 64.8167 83.1661 65.0396 83.1661 65.3142V70.6713L79.1208 70.6445V65.2453C79.1208 64.9717 78.8969 64.7478 78.6233 64.7478C78.3487 64.7478 78.1267 64.9717 78.1267 65.2453V70.7488Z" fill="#122C79"/>
<path fill-rule="evenodd" clip-rule="evenodd" d="M94.6666 64.5375C94.1566 64.5375 93.7423 65.0772 93.7423 65.7402C93.7423 66.4042 94.1566 66.9448 94.6666 66.9448C95.1775 66.9448 95.5918 66.4042 95.5918 65.7402C95.5918 65.0772 95.1775 64.5375 94.6666 64.5375ZM94.6666 67.561C93.8169 67.561 93.1252 66.7439 93.1252 65.7402C93.1252 64.7365 93.8169 63.9204 94.6666 63.9204C95.5171 63.9204 96.2089 64.7365 96.2089 65.7402C96.2089 66.7439 95.5171 67.561 94.6666 67.561ZM96.1601 69.9597H99.4515V61.56H96.1601V63.4047L95.6109 62.7225C94.9718 61.9284 94.1269 61.4912 93.2285 61.4912C91.3666 61.4912 89.852 63.3799 89.852 65.701C89.852 68.0232 91.3666 69.9109 93.2285 69.9109C94.1279 69.9109 94.9727 69.4737 95.6109 68.6795L96.1601 67.9964V69.9597ZM100.069 70.5768H95.543V69.6373C94.8732 70.2171 94.0724 70.5281 93.2285 70.5281C91.0269 70.5281 89.2349 68.3628 89.2349 65.701C89.2349 63.0402 91.0269 60.874 93.2285 60.874C94.0724 60.874 94.8732 61.1859 95.543 61.7648V60.9429H100.069V70.5768Z" fill="#122C79"/>
<path fill-rule="evenodd" clip-rule="evenodd" d="M101.681 69.925H105.177V61.6286H101.681V69.925ZM101.064 70.543H105.795V61.0115H101.064V70.543Z" fill="#122C79"/>
<path fill-rule="evenodd" clip-rule="evenodd" d="M107.44 70.0962H111.382V57.9258H107.44V70.0962ZM106.824 70.7134H112V57.3087H106.824V70.7134Z" fill="#122C79"/>
<path fill-rule="evenodd" clip-rule="evenodd" d="M103.443 57.6171C102.433 57.6171 101.612 58.439 101.612 59.4494C101.612 60.4598 102.433 61.2817 103.443 61.2817C104.453 61.2817 105.275 60.4598 105.275 59.4494C105.275 58.439 104.453 57.6171 103.443 57.6171ZM103.443 61.8988C102.093 61.8988 100.994 60.8004 100.994 59.4494C100.994 58.0984 102.093 57 103.443 57C104.794 57 105.893 58.0984 105.893 59.4494C105.893 60.8004 104.794 61.8988 103.443 61.8988Z" fill="#122C79"/>
<path fill-rule="evenodd" clip-rule="evenodd" d="M74.7234 60.2871H75.3702V57.8004H74.7234V60.2871Z" fill="#868789"/>
<path fill-rule="evenodd" clip-rule="evenodd" d="M80.2223 57.8013V58.2998H79.8386V60.288H79.1928V58.2998H78.8091V57.8013H80.2223Z" fill="#868789"/>
<path fill-rule="evenodd" clip-rule="evenodd" d="M84.3101 59.4003C84.2775 59.1181 84.244 58.7698 84.2106 58.3555C84.1455 58.832 84.1044 59.1803 84.0881 59.4003H84.3101ZM84.6516 57.8015L85.0219 60.2873H84.3617L84.3273 59.8404H84.0948L84.0565 60.2873H83.3887L83.7178 57.8015H84.6516Z" fill="#868789"/>
<path fill-rule="evenodd" clip-rule="evenodd" d="M89.0706 57.8013V59.7904H89.4629V60.288H88.4238V57.8013H89.0706Z" fill="#868789"/>
<path fill-rule="evenodd" clip-rule="evenodd" d="M92.9111 60.2871H93.5579V57.8004H92.9111V60.2871Z" fill="#868789"/>
<path fill-rule="evenodd" clip-rule="evenodd" d="M97.8826 59.4003C97.85 59.1181 97.8175 58.7698 97.7831 58.3555C97.718 58.832 97.6769 59.1803 97.6606 59.4003H97.8826ZM98.2251 57.8015L98.5944 60.2873H97.9342L97.8998 59.8404H97.6683L97.629 60.2873H96.9612L97.2903 57.8015H98.2251Z" fill="#868789"/>
</svg>
