<svg width="128" height="128" viewBox="0 0 128 128" fill="none" xmlns="http://www.w3.org/2000/svg">
<rect width="128" height="128" fill="black"/>
<path d="M68.6262 67.1504C68.7109 66.9232 68.844 66.7017 68.8746 66.4659C69.1159 64.5982 69.3407 62.7261 69.5682 60.8555C69.6875 59.868 70.6335 59.4593 71.4784 59.9795C71.7564 60.1481 72.087 60.1993 72.4009 60.1224C73.4981 59.7423 74.533 59.5937 75.536 60.3925C75.6747 60.5082 76.0062 60.4225 76.2379 60.3739C77.0092 60.2096 77.7638 59.9038 78.5434 59.8709C79.5769 59.8266 80.3052 60.5983 80.3232 61.6658C80.3165 62.5732 80.2613 63.4797 80.1582 64.3809C80.0888 65.154 79.9431 65.92 79.8807 66.6931C79.8335 67.2862 79.5672 67.5277 79.004 67.4777C78.789 67.4591 78.5712 67.4777 78.3548 67.4777C77.4087 67.4777 77.3504 67.3676 77.5225 66.3844C77.7333 65.1626 77.9039 63.9336 78.0621 62.7032C78.1425 62.0802 77.7846 61.7815 77.1992 61.923C76.4474 62.1045 76.07 62.5389 75.9632 63.3134C75.7995 64.501 75.6164 65.6857 75.4652 66.8732C75.4097 67.3019 75.2238 67.4905 74.791 67.482C72.7435 67.4377 73.1597 67.7678 73.2526 65.75C73.2914 64.8925 73.519 64.0451 73.6161 63.1877C73.6702 62.7161 73.9212 62.1131 73.2221 61.9016C72.7213 61.7472 71.8265 62.3303 71.6864 62.8719C71.6 63.2605 71.5365 63.6542 71.4964 64.0508C71.3577 65.0397 71.2522 66.0329 71.0802 67.0147C71.0423 67.1235 70.9787 67.221 70.8952 67.2983C70.8116 67.3756 70.7108 67.4304 70.6016 67.4577C70.0024 67.4791 69.4003 67.3762 68.7983 67.3791C68.113 67.3791 67.4277 67.4362 66.7438 67.4848C66.1584 67.5263 65.7727 67.3419 65.7464 66.666C65.7394 66.5997 65.7235 66.5348 65.6992 66.4731C65.2068 64.914 65.2068 64.9154 63.5546 64.9125C63.1384 64.9125 62.7347 64.8997 62.3241 64.884C62.2659 64.884 62.209 64.8297 61.9815 64.7153C62.3311 64.0994 62.6127 63.4406 63.0469 62.9147C63.2175 62.7075 63.7308 62.7561 64.0859 62.7633C64.656 62.7733 64.7698 62.5446 64.5673 62.0302C64.3647 61.5157 64.2052 60.9984 64.0262 60.4811L63.8362 60.5154C63.4381 61.2385 63.0233 61.9516 62.6432 62.6832C61.8858 64.1423 61.1519 65.6142 60.3917 67.0718C60.3085 67.2304 60.1143 67.4234 59.9631 67.4319C59.2695 67.4705 58.562 67.4491 57.72 67.4491C58.2416 66.4488 58.673 65.5913 59.128 64.7525C60.1545 62.8576 61.1936 60.9698 62.227 59.0778C62.406 58.7505 62.5558 58.4033 62.7611 58.0946C62.947 57.8088 63.1648 57.3915 63.4159 57.3529C64.0567 57.2734 64.7048 57.2796 65.3441 57.3715C65.4898 57.3886 65.6521 57.7273 65.7159 57.9431C66.5773 60.8855 67.4208 63.8322 68.2725 66.776C68.3167 66.8961 68.3696 67.0127 68.4306 67.1247L68.6262 67.1504Z" fill="white"/>
<path d="M81.831 62.2031C81.4648 60.7741 81.9697 59.9495 83.2862 59.9167C84.3774 59.8631 85.471 59.9408 86.5448 60.1482C87.6337 60.3854 88.1525 61.2514 88.0332 62.3846C87.8682 63.9465 87.6171 65.5013 87.3937 67.0561C87.3313 67.4706 86.6003 67.6806 86.0232 67.3862C85.5931 67.1662 85.2491 67.2591 84.8094 67.3205C83.9174 67.4575 83.0104 67.4536 82.1196 67.3091C81.2789 67.1533 80.7323 66.4517 80.6893 65.5514C80.6325 64.4839 81.0597 63.5764 81.9836 63.0534C82.8839 62.5432 83.8883 62.4075 84.9245 62.5118C85.1257 62.5318 85.3407 62.3689 85.5557 62.3003C85.3892 62.1703 85.22 61.9259 85.0563 61.9287C84.1352 61.9445 83.2168 62.0173 82.2971 62.0802C82.1386 62.1074 81.9827 62.1485 81.831 62.2031ZM85.3129 64.5782C84.7081 64.5782 84.0949 64.5225 83.4984 64.5982C83.1086 64.6468 82.9616 65.2313 83.2557 65.3227C83.6718 65.4542 84.1643 65.4285 84.611 65.3699C84.9495 65.3299 85.3545 65.2213 85.3129 64.5782Z" fill="white"/>
<path d="M106.605 59.7194C107.317 59.8751 108.038 59.9937 108.737 60.1952C109.493 60.4124 110.044 61.1298 109.986 61.9301C109.872 63.502 109.708 65.074 109.503 66.6288C109.393 67.4719 108.798 67.772 107.985 67.3833C107.562 67.1804 107.238 67.2976 106.833 67.339C105.92 67.429 104.953 67.5105 104.08 67.2918C103.089 67.0432 102.656 66.1843 102.731 65.2826C102.838 63.9865 103.523 62.9961 104.603 62.7861C105.418 62.6275 106.268 62.6432 107.1 62.5517C107.265 62.5331 107.418 62.4088 107.576 62.3302C107.46 62.203 107.343 61.9672 107.227 61.9672C106.306 61.9672 105.379 61.9672 104.462 62.0558C103.718 62.1301 103.639 62.0959 103.828 61.3713C104.179 60.0223 104.179 60.018 105.549 59.8766C105.894 59.8408 106.243 59.838 106.586 59.8194L106.605 59.7194ZM107.438 64.611C106.752 64.611 106.097 64.5438 105.465 64.6338C105.383 64.6401 105.306 64.6723 105.243 64.726C105.18 64.7797 105.135 64.8523 105.115 64.9335C105.094 65.0148 105.098 65.1008 105.127 65.1795C105.155 65.2582 105.207 65.3257 105.275 65.3726C105.791 65.7913 107.145 65.3712 107.438 64.6038V64.611Z" fill="white"/>
<path d="M112.963 62.3247C113.211 62.432 113.468 62.5167 113.73 62.5776C114.199 62.6405 114.677 62.629 115.148 62.6876C116.238 62.8305 116.708 63.3493 116.76 64.4511C116.847 66.3088 116.079 67.2963 114.263 67.4692C113.296 67.538 112.324 67.5131 111.362 67.3949C110.616 67.3206 110.487 67.0591 110.603 66.3203C110.793 65.1141 110.789 65.137 111.961 65.3957C112.508 65.5189 113.066 65.5793 113.626 65.5757C113.926 65.5757 114.222 65.3628 114.521 65.2456L114.5 64.9598C114.26 64.8873 114.017 64.83 113.77 64.7883C113.215 64.7254 112.652 64.7083 112.096 64.6454C111.315 64.5554 110.94 63.9895 110.76 63.2921C110.37 61.7859 111.391 60.1011 112.907 59.921C113.988 59.7924 115.099 59.881 116.192 59.9525C116.482 59.971 116.977 60.2626 116.993 60.4626C117.036 60.9914 116.883 61.5401 116.764 62.0703C116.751 62.1232 116.431 62.136 116.262 62.1103C115.518 61.9974 114.78 61.8145 114.034 61.7602C113.688 61.7359 113.326 61.9531 112.971 62.0603L112.963 62.3247Z" fill="white"/>
<path d="M29.9268 67.492C29.5995 67.462 29.1084 67.492 28.6603 67.3649C27.5658 67.049 26.9249 66.1988 26.8708 65.0212C26.7987 63.4764 26.9624 61.9831 28.1998 60.8885C29.4372 59.7938 30.8923 59.8267 32.3739 60.0025C32.8608 60.061 33.4837 60.0596 33.7722 60.3611C33.9761 60.5769 33.725 61.2529 33.6668 61.723C33.4101 63.7894 33.1979 65.8672 32.8733 67.9165C32.7082 68.9582 31.973 69.7414 30.9936 69.89C29.7964 70.0715 28.5535 69.9857 27.3341 69.9328C26.7571 69.9071 26.893 69.3798 26.9554 68.9954C27.0276 68.5553 27.3161 68.6324 27.649 68.6796C28.3916 68.7955 29.1412 68.8575 29.8922 68.8654C30.1979 68.8643 30.4972 68.7749 30.7561 68.6074C31.0151 68.44 31.2232 68.2011 31.3571 67.9179C31.5346 67.5806 31.4958 67.3549 31.0422 67.3992C30.7245 67.4363 30.3985 67.4563 29.9268 67.492ZM28.2761 64.3081C28.3218 64.5382 28.3343 64.9069 28.4647 65.2227C28.8601 66.183 30.8549 66.5403 31.5887 65.7943C31.6826 65.7025 31.7469 65.5834 31.7732 65.4528C31.9272 64.2667 32.084 63.0806 32.1894 61.8902C32.206 61.7102 31.9952 61.3443 31.8856 61.3415C31.1837 61.33 30.429 61.2429 29.7881 61.4686C28.5965 61.8974 28.3856 63.0377 28.2761 64.3081Z" fill="white"/>
<path d="M16.1504 58.5619C14.5787 58.5619 14.544 58.5548 14.3165 60.1339C13.9975 62.3517 13.6978 64.5725 13.4745 66.8003C13.3968 67.5763 12.9598 67.4734 12.491 67.4791C11.8875 67.4806 11.9971 67.0218 12.0276 66.6689C12.1608 65.3703 12.3111 64.0694 12.4785 62.7662C12.6907 61.1599 12.9307 59.5608 13.1069 57.9517C13.1693 57.433 13.3718 57.2615 13.8477 57.2701C15.1891 57.2958 16.5333 57.2529 17.8706 57.323C19.8862 57.4273 20.7116 59.1378 19.6185 60.8956C18.8777 62.0817 17.7124 62.659 16.4737 63.1048C16.0555 63.2672 15.6201 63.378 15.1766 63.435C14.981 63.4535 14.6217 63.2635 14.5787 63.0977C14.4747 62.7219 14.4747 62.3189 14.9949 62.1445C15.7509 61.893 16.4903 61.5858 17.2269 61.28C17.4238 61.188 17.6036 61.0613 17.7582 60.9056C18.2215 60.4768 18.6016 59.9753 18.3908 59.2779C18.1799 58.5805 17.546 58.6205 16.9911 58.5676C16.7136 58.5405 16.4362 58.5619 16.1504 58.5619Z" fill="white"/>
<path d="M22.6926 61.2171C22.2681 61.2728 21.8172 61.3243 21.3705 61.3971C21.0931 61.4429 20.6769 61.6829 20.6534 61.2099C20.6325 60.8884 20.86 60.3168 21.0862 60.251C22.3624 59.8809 23.6719 59.738 24.9704 60.2267C25.3543 60.3861 25.676 60.6723 25.8852 61.0403C26.0943 61.4083 26.179 61.8374 26.1259 62.2603C25.9234 63.8637 25.6959 65.4656 25.4711 67.0676C25.4143 67.4734 24.9953 67.6535 24.5708 67.3534C24.1783 67.0833 23.8772 67.249 23.4888 67.2905C22.5982 67.3891 21.6854 67.4505 20.7962 67.3319C20.1318 67.2433 19.6573 66.6932 19.5477 65.9558C19.409 64.9769 19.5824 64.028 20.4023 63.4592C20.9474 63.0805 21.6577 62.9133 22.3166 62.7604C22.7702 62.6561 23.2641 62.7319 23.7399 62.7461C24.1047 62.7576 24.5417 62.8805 24.6111 62.3374C24.6804 61.7944 24.3711 61.4386 23.8772 61.3214C23.511 61.2385 23.1101 61.2514 22.6926 61.2171ZM22.8077 63.9966C22.47 64.0404 22.1348 64.1024 21.8034 64.1823C21.2485 64.3381 21.0071 64.7997 21.0224 65.3399C21.0404 65.9115 21.4538 66.243 21.9712 66.2216C22.5917 66.2021 23.2064 66.0919 23.7968 65.8943C24.4238 65.6742 24.4307 65.014 24.3322 64.4853C24.2976 64.2952 23.8176 64.1709 23.5249 64.0566C23.3501 64.0066 23.142 64.0237 22.8077 63.9966Z" fill="white"/>
<path d="M48.4034 62.7691C48.6622 62.7872 48.9219 62.7839 49.1802 62.7591C49.4077 62.7191 49.81 62.5905 49.8086 62.5104C49.8035 62.1817 49.715 61.86 49.552 61.5773C49.4466 61.4115 49.1358 61.3029 48.9208 61.3043C48.1259 61.3143 47.3311 61.3944 46.5348 61.4144C46.3295 61.4144 46.1186 61.3015 45.9119 61.2386C46.0201 60.9085 46.0604 60.3426 46.249 60.284C47.5918 59.8681 48.9721 59.7124 50.3122 60.3011C51.0377 60.6198 51.4219 61.2472 51.3387 62.0589C51.1736 63.668 50.9697 65.2728 50.7464 66.8747C50.6631 67.4792 50.3482 67.6493 49.8475 67.3635C49.4604 67.142 49.1469 67.2534 48.7543 67.2991C47.8443 67.4092 46.8677 67.5464 46.0049 67.3206C44.5427 66.939 44.3319 64.6054 45.5887 63.4908C46.4002 62.7619 47.3949 62.7091 48.4034 62.7691ZM48.1828 64.0309V63.9795C47.8221 64.0395 47.4545 64.0709 47.1022 64.1667C46.5306 64.3225 46.2532 64.7254 46.2809 65.3428C46.3087 65.9601 46.7193 66.2188 47.2228 66.2202C47.7589 66.2121 48.2918 66.1334 48.8084 65.9859C49.4618 65.8144 49.6879 65.3371 49.57 64.5154C49.4868 63.9223 48.9707 64.1481 48.6392 64.0381C48.4882 64.0129 48.3345 64.0105 48.1828 64.0309Z" fill="white"/>
<path d="M44.1974 62.7092C44.0281 63.8524 43.8131 65.4543 43.5468 67.0491C43.4247 67.7765 42.8254 67.4464 42.437 67.435C42.0056 67.425 42.1374 67.0463 42.1748 66.7691C42.3371 65.5401 42.4745 64.3054 42.6714 63.0821C42.9489 61.3916 41.9556 60.9843 40.6017 61.403C39.7583 61.6631 39.2436 62.1776 39.2145 63.2222C39.1798 64.4569 38.9371 65.6887 38.7623 66.9162C38.6901 67.4136 37.6331 67.7322 37.296 67.3678C37.2169 67.2821 37.2155 67.082 37.2336 66.9391C37.4416 65.3815 37.6576 63.8248 37.8814 62.269C37.9757 61.6117 38.0798 60.9557 38.2185 60.3069C38.2518 60.1555 38.4377 59.9382 38.5611 59.9311C38.7692 59.9197 39.1285 60.0026 39.1729 60.1355C39.4115 60.85 39.7777 60.4841 40.1883 60.3641C40.8639 60.1669 41.5672 59.9354 42.2539 59.9511C43.569 59.984 44.2126 60.8157 44.1974 62.7092Z" fill="white"/>
<path d="M54.285 67.5135C53.7052 67.452 53.1184 67.4306 52.5496 67.3163C52.43 67.2868 52.3188 67.2288 52.2248 67.147C52.1309 67.0653 52.0568 66.962 52.0085 66.8455C51.9603 66.729 51.9391 66.6024 51.9469 66.476C51.9546 66.3495 51.9909 66.2267 52.053 66.1173C52.1335 65.9916 52.4192 65.9373 52.5996 65.9587C53.135 66.023 53.6636 66.2102 54.1963 66.2188C54.7316 66.2181 55.2641 66.1387 55.7777 65.983C56.2507 65.8472 56.3326 65.4114 56.2632 64.9498C56.1938 64.4882 55.8332 64.5211 55.5127 64.5211C54.9953 64.5054 54.4709 64.5454 53.959 64.4782C51.9892 64.221 51.9406 62.4461 52.5996 61.1643C52.9311 60.5226 53.5706 60.2768 54.2393 60.0868C55.4392 59.7495 56.6072 59.9553 57.76 60.2411C58.265 60.3669 58.0222 60.8685 57.9736 61.2143C57.914 61.6273 57.6268 61.5458 57.3258 61.5087C56.4935 61.4072 55.6611 61.3157 54.8288 61.2915C54.5291 61.2885 54.2404 61.4077 54.0256 61.623C53.9206 61.7493 53.8411 61.8958 53.7915 62.054C53.742 62.2123 53.7235 62.379 53.7371 62.5447C53.7718 62.7376 54.1671 62.9563 54.4307 62.9963C54.9398 63.0749 55.4669 63.0092 55.983 63.052C57.1607 63.1521 57.6698 63.6008 57.8307 64.624C57.9917 65.6472 57.4895 66.7289 56.5628 67.0748C55.8332 67.342 55.066 67.4363 54.3197 67.6121L54.285 67.5135Z" fill="white"/>
<path d="M98.6045 57.2744C99.7945 57.2744 99.843 57.4173 99.628 58.622C99.3507 60.2097 99.1856 61.8216 98.9748 63.4236C98.825 64.5668 98.6711 65.7029 98.5324 66.8447C98.4755 67.3048 98.2439 67.5135 97.7946 67.4749C97.6656 67.4649 97.5352 67.4749 97.4062 67.4749C96.0388 67.4749 96.0582 67.4749 96.2537 66.0659C96.6014 63.545 96.9352 61.0204 97.2551 58.492C97.4076 57.2901 97.3979 57.2744 98.6045 57.2744Z" fill="white"/>
<path d="M100.6 67.4734H100.406C99.364 67.4734 99.4347 67.4834 99.6053 66.4259C99.8466 64.9683 99.9687 63.4892 100.16 62.0216C100.345 60.5926 100.553 59.1707 100.749 57.7445C100.748 57.7223 100.751 57.7001 100.756 57.6788C101.224 56.8385 101.985 57.4072 102.601 57.3015C103.05 57.2229 102.995 57.6216 102.952 57.9503C102.599 60.6235 102.249 63.2977 101.903 65.9729C101.892 66.0615 101.883 66.1501 101.876 66.2373C101.776 67.4734 101.776 67.4734 100.6 67.4734Z" fill="white"/>
<path d="M91.3944 60.2682C91.8966 60.1096 92.3197 59.9481 92.7553 59.8395C93.1909 59.7309 93.3934 59.9353 93.4003 60.4111C93.417 61.4743 93.3157 61.6358 92.31 61.9731C91.4915 62.246 91.3057 62.529 91.2197 63.3864C91.099 64.5753 90.9422 65.76 90.773 66.9433C90.7494 67.1105 90.5982 67.382 90.4955 67.392C89.8747 67.4413 89.2515 67.4499 88.6297 67.4177C88.5562 67.4177 88.423 67.1005 88.4438 66.9461C88.6186 65.5871 88.8323 64.231 89.0126 62.8734C89.0986 62.216 89.0889 61.5429 89.2165 60.8956C89.29 60.5226 89.512 59.9224 89.7326 59.8952C90.2847 59.8066 90.9894 59.5294 91.3944 60.2682Z" fill="white"/>
<path d="M93.9592 67.4734C93.808 67.4734 93.6568 67.4663 93.5056 67.4734C92.9814 67.502 92.7997 67.3305 92.8885 66.7303C93.1936 64.6525 93.4349 62.5647 93.6832 60.4797C93.7345 60.051 93.9286 59.8381 94.3461 59.8367H94.4113C96.1366 59.7381 96.1255 59.7366 95.8828 61.4772C95.629 63.2921 95.3877 65.1084 95.1699 66.9261C95.1228 67.3148 94.9855 67.4906 94.6068 67.4734C94.3919 67.462 94.1755 67.4734 93.9592 67.4734Z" fill="white"/>
<path d="M35.0834 67.462C34.5092 67.5435 34.3303 67.3405 34.4218 66.7146C34.7117 64.7211 34.9419 62.7205 35.1888 60.7198C35.2456 60.2596 35.3663 59.9152 35.9238 59.9138C36.6395 59.9138 36.7643 60.0153 36.6714 60.7598C36.4231 62.7605 36.143 64.7511 35.9169 66.7503C35.8573 67.3291 35.6201 67.5506 35.0834 67.462Z" fill="white"/>
<path d="M95.2674 57.2744C95.3756 57.2744 95.4838 57.2744 95.5919 57.2744C96.4615 57.2816 96.4768 57.293 96.2854 58.1633C96.2133 58.4934 96.1467 59.0678 95.9914 59.095C95.3881 59.2036 94.757 59.1579 94.1371 59.1322C94.0567 59.1322 93.9166 58.9078 93.9207 58.792C93.9228 58.4161 93.9694 58.0418 94.0594 57.6774C94.1005 57.5869 94.1601 57.5066 94.234 57.442C94.308 57.3774 94.3946 57.33 94.488 57.303C94.7307 57.2387 95.0011 57.2858 95.2591 57.2858L95.2674 57.2744Z" fill="white"/>
<path d="M22.0461 59.1479C22.1238 58.2419 22.2334 57.6903 23.017 57.5445C23.4941 57.4545 23.9337 57.1758 24.4038 57.0358C24.6396 56.9672 24.9087 57.0186 25.1639 57.0172C25.1001 57.3459 25.132 57.8832 24.9558 57.9689C24.0654 58.4119 23.1168 58.7335 22.0461 59.1479Z" fill="white"/>
<path d="M35.9557 58.5549C35.8933 58.4691 35.5937 58.2433 35.5785 57.9975C35.5396 57.3702 35.7768 57.2444 36.5756 57.2716C36.9251 57.283 37.1678 57.3445 37.111 57.7932C37.043 58.3448 36.7878 58.6435 35.9557 58.5549Z" fill="white"/>
</svg>
