<svg width="128" height="128" viewBox="0 0 128 128" fill="none" xmlns="http://www.w3.org/2000/svg">
<rect width="128" height="128" fill="#303030"/>
<path d="M18.9437 61.3114H18.603C18.5272 60.0443 18.0426 59.7064 16.8461 59.7064C16.3766 59.7064 15.6118 59.645 15.6118 60.052V66.18C15.6118 67.1399 15.7935 67.5008 17.0279 67.5545V67.854C16.3236 67.8387 15.6118 67.8156 14.9075 67.8003C14.2335 67.8156 13.5671 67.8387 12.878 67.854V67.5545C14.1124 67.5008 14.2941 67.1399 14.2941 66.18V60.052C14.2941 59.6604 13.7337 59.7064 13.2264 59.7064C11.9617 59.7064 11.3483 59.7679 11.3029 61.3114H11V59.2918H18.8302L18.9437 61.3114Z" fill="white"/>
<path d="M21.1922 63.2465H21.2149C21.6465 62.5477 22.3659 62.133 23.1762 62.133C24.3878 62.133 25.0921 62.7166 25.0921 63.9453V66.2875C25.0921 67.1398 24.9785 67.5315 25.9705 67.5929V67.854C25.4707 67.8386 24.9861 67.8156 24.4939 67.8002C24.0319 67.8156 23.5624 67.8386 23.1308 67.854V67.5929C24.0849 67.5238 24.0092 67.2166 24.0092 66.3642V64.4521C24.0092 63.6228 23.9335 62.5477 22.8506 62.5477C22.3053 62.5477 21.6768 62.9393 21.4193 63.4538C21.2149 63.8685 21.1922 64.383 21.1922 64.8668V66.2875C21.1922 67.1398 21.0861 67.5315 22.0857 67.5929V67.854C21.6162 67.8386 21.1543 67.8156 20.6848 67.8002C20.2001 67.8156 19.7003 67.8386 19.2157 67.854V67.5929C20.1699 67.5238 20.1093 67.2166 20.1093 66.3642V61.3958C20.1093 61.0733 20.1093 60.2824 19.9805 60.0136C19.8291 59.6911 19.4429 59.7141 19.1551 59.6757V59.4146L21.1997 58.9999V63.2465H21.1922Z" fill="white"/>
<path d="M30.9375 66.8941C30.3393 67.6467 29.6199 67.9922 28.6657 67.9922C27.083 67.9922 25.7805 66.8634 25.7805 65.2124C25.7805 63.5921 26.9921 62.133 28.6506 62.133C29.9001 62.133 31.089 62.8472 31.089 64.2448C31.089 64.4137 30.8997 64.36 30.7709 64.36H27.1133L27.0603 64.982C27.0603 66.2107 27.6964 67.5852 29.0595 67.5852C29.7107 67.5852 30.2863 67.1475 30.6649 66.6253L30.9375 66.8941ZM29.2791 64.0144C29.4836 64.0144 29.9076 64.0759 29.9076 63.7533C29.9076 62.947 29.476 62.4325 28.6733 62.4325C27.7191 62.4325 27.3329 63.1697 27.1815 64.0068H29.2791V64.0144Z" fill="white"/>
<path d="M36.3058 65.3967C36.3058 65.8114 36.3058 66.7713 36.4345 67.1168C36.6162 67.6236 37.2145 67.5315 37.6613 67.5545V67.854C36.9949 67.8387 36.336 67.8156 35.6697 67.8003C35.0411 67.8156 34.4353 67.8387 33.7916 67.854V67.5545C34.2006 67.5545 34.7382 67.5545 34.8745 67.1168C34.9881 66.7713 34.9881 65.8114 34.9881 65.3967V61.7645C34.9881 61.3344 34.9881 60.3822 34.8745 60.029C34.7231 59.5759 34.2006 59.5913 33.7916 59.5913V59.2918C34.4429 59.3071 35.079 59.3302 35.7151 59.3455C36.3285 59.3302 36.9267 59.3071 37.5401 59.2918C38.9183 59.3455 40.4707 59.8831 40.4707 61.5264C40.4707 63.4155 38.676 63.8685 37.1539 63.8685C36.9267 63.8685 36.3512 63.8301 36.2982 63.8301V65.3967H36.3058ZM36.3058 63.4846C36.5481 63.4999 36.8056 63.5383 37.0479 63.5383C38.3655 63.5383 39.0092 62.9701 39.0092 61.5725C39.0092 60.3208 38.4185 59.668 37.1842 59.668C37.0327 59.668 36.5178 59.668 36.3966 59.7448C36.2982 59.8063 36.3058 59.9522 36.3058 60.2747V63.4846Z" fill="white"/>
<path d="M43.9157 64.3139C44.0444 64.2525 44.0141 64.0835 44.0141 63.9376C44.0141 63.0545 43.9384 62.4325 42.8934 62.4325C42.2573 62.4325 41.7348 62.4863 41.6969 63.1697C41.6742 63.4539 41.5076 63.738 41.1895 63.738C40.9093 63.738 40.7049 63.5537 40.7049 63.2696C40.7049 62.3097 42.4012 62.133 43.0524 62.133C44.4685 62.133 45.1198 62.5093 45.1198 63.9914V66.1262C45.1198 66.4487 45.0667 67.4086 45.5665 67.4086C45.824 67.4086 45.9452 67.1782 46.0891 66.9939L46.3314 67.1245C46.1269 67.5545 45.6574 67.9922 45.1803 67.9922C44.6578 67.9922 44.211 67.5929 44.0823 67.0707C43.484 67.5622 42.7419 67.9922 41.9544 67.9922C41.2804 67.9922 40.6292 67.5776 40.6292 66.8557C40.6292 65.773 41.8408 65.3045 42.6586 64.9282L43.9157 64.3139ZM44.0293 64.6364C43.2644 65.0127 41.8105 65.5195 41.8105 66.5486C41.8105 67.0247 42.1058 67.4777 42.6283 67.4777C43.1281 67.4777 43.6734 67.0861 44.0293 66.7405V64.6364Z" fill="white"/>
<path d="M48.2696 66.2875C48.2923 67.1398 48.156 67.5315 49.1632 67.5929V67.854C48.6634 67.8386 48.1787 67.8156 47.694 67.8002C47.2245 67.8156 46.7626 67.8386 46.2931 67.854V67.5929C47.2473 67.5315 47.1867 67.2166 47.1867 66.3642V61.3958C47.1867 61.0733 47.1867 60.2824 47.0579 60.0136C46.9065 59.6911 46.5203 59.7141 46.2249 59.6757V59.4146L48.2696 58.9999V66.2875Z" fill="white"/>
<path d="M51.2225 66.2875C51.2376 67.1398 51.0861 67.5315 52.0782 67.5929V67.854C51.6162 67.8386 51.1619 67.8156 50.6999 67.8003C50.2153 67.8156 49.7306 67.8386 49.246 67.854V67.5929C50.2001 67.5315 50.1396 67.2166 50.1396 66.3643V64.7747C50.1396 64.4137 50.1396 63.5076 50.079 63.2081C49.9805 62.7397 49.6322 62.7934 49.2233 62.7934V62.5324C49.8897 62.4556 50.3592 62.2482 50.9801 62.133L51.124 63.1774C51.6087 62.517 52.222 62.133 53.0475 62.133C53.7972 62.133 54.5393 62.4018 54.7968 63.1774C55.2435 62.494 55.9175 62.133 56.7354 62.133C57.2957 62.133 57.8561 62.2866 58.2272 62.755C58.568 63.1851 58.568 63.93 58.568 64.4598V66.2798C58.5831 67.1322 58.4392 67.5238 59.4388 67.5852V67.8463C58.9693 67.831 58.4922 67.8079 58.0227 67.7926C57.5532 67.8079 57.0761 67.831 56.6066 67.8463V67.5852C57.5532 67.5238 57.4775 67.209 57.4851 66.3566V64.7286C57.4851 63.8225 57.5911 62.54 56.2962 62.54C55.7736 62.54 55.2738 62.9163 55.0618 63.3924C54.8952 63.7687 54.8952 64.2448 54.8952 64.7286V66.2798C54.9179 67.1322 54.7513 67.5238 55.7585 67.5852V67.8463C55.2966 67.831 54.8271 67.8079 54.3651 67.7926C53.8805 67.8079 53.411 67.831 52.9263 67.8463V67.5852C53.8805 67.5238 53.7972 67.209 53.8047 66.3566V64.7286C53.8047 63.8225 53.9108 62.54 52.6158 62.54C52.0933 62.54 51.5935 62.9163 51.3815 63.3924C51.2149 63.7687 51.2149 64.2448 51.2149 64.7286V66.2875H51.2225Z" fill="white"/>
<path d="M63.1787 61.7491C63.1787 61.3344 63.1787 60.3745 63.0651 60.0289C62.9212 59.5759 62.3911 59.5912 61.9822 59.5912V59.2917C62.5956 59.3071 63.1938 59.3301 63.8072 59.3455C64.3146 59.3301 64.8144 59.3071 65.3217 59.2917C66.6621 59.2533 68.4568 59.5989 68.4568 61.319C68.4568 62.494 67.5102 63.0008 66.5409 63.3003V63.3233C67.2528 63.3847 67.904 63.5076 68.4038 63.8532C69.0021 64.2678 69.3883 64.8898 69.3883 65.6347C69.3883 66.4871 68.8658 67.1245 68.1539 67.5084C67.4648 67.8694 66.5485 67.8463 65.8064 67.8463C65.246 67.831 64.6932 67.8079 64.1328 67.7926C63.421 67.8079 62.694 67.831 61.9746 67.8463V67.5468C62.3835 67.5468 62.9212 67.5622 63.0575 67.1091C63.1711 66.7636 63.1711 65.8037 63.1711 65.389V61.7491H63.1787ZM64.4887 63.1851H64.8977C65.458 63.1851 65.92 63.2081 66.4122 62.9163C66.9499 62.5707 67.0635 62.0102 67.0635 61.3882C67.0635 60.2363 66.4501 59.668 65.3142 59.668C65.1476 59.668 64.6629 59.645 64.5645 59.7295C64.4736 59.8062 64.4887 60.1672 64.4887 60.2747V63.1851ZM64.4887 65.3352C64.4887 65.773 64.4887 66.5793 64.6402 66.9632C64.8598 67.5161 65.4959 67.5084 65.9806 67.5084C67.2301 67.5084 67.7904 66.7559 67.7904 65.5272C67.7904 64.79 67.533 64.168 66.8741 63.8071C66.291 63.4999 65.5338 63.5383 64.8825 63.5383H64.4887V65.3352Z" fill="white"/>
<path d="M75.0593 66.8941C74.4611 67.6467 73.7493 67.9922 72.7875 67.9922C71.2048 67.9922 69.9023 66.8634 69.9023 65.2124C69.9023 63.5921 71.114 62.133 72.7724 62.133C74.0219 62.133 75.2108 62.8472 75.2108 64.2448C75.2108 64.4137 75.0215 64.36 74.8927 64.36H71.2351L71.1821 64.982C71.1821 66.2107 71.8182 67.5852 73.1813 67.5852C73.8326 67.5852 74.4081 67.1475 74.7867 66.6253L75.0593 66.8941ZM73.4009 64.0144C73.6054 64.0144 74.0295 64.0759 74.0295 63.7533C74.0295 62.947 73.5978 62.4325 72.7951 62.4325C71.841 62.4325 71.4547 63.1697 71.3033 64.0068H73.4009V64.0144Z" fill="white"/>
<path d="M79.1178 64.3139C79.2466 64.2525 79.2163 64.0835 79.2163 63.9376C79.2163 63.0545 79.1406 62.4325 78.0955 62.4325C77.4594 62.4325 76.9369 62.4863 76.899 63.1697C76.8763 63.4539 76.7097 63.738 76.3917 63.738C76.1115 63.738 75.907 63.5537 75.907 63.2696C75.907 62.3097 77.6033 62.133 78.2546 62.133C79.6706 62.133 80.3219 62.5093 80.3219 63.9914V66.1262C80.3219 66.4487 80.2689 67.4086 80.7687 67.4086C81.0262 67.4086 81.1549 67.1782 81.2912 66.9939L81.5335 67.1245C81.3291 67.5545 80.8596 67.9922 80.3825 67.9922C79.86 67.9922 79.4132 67.5929 79.2844 67.0707C78.6862 67.5622 77.9441 67.9922 77.1565 67.9922C76.4826 67.9922 75.8313 67.5776 75.8313 66.8557C75.8313 65.773 77.0429 65.3045 77.8608 64.9282L79.1178 64.3139ZM79.2314 64.6364C78.4666 65.0127 77.0126 65.5195 77.0126 66.5486C77.0126 67.0247 77.308 67.4777 77.8305 67.4777C78.3303 67.4777 78.8755 67.0861 79.2314 66.7405V64.6364Z" fill="white"/>
<path d="M86.6293 67.0016C86.0916 67.6697 85.2132 67.9999 84.3878 67.9999C82.8051 67.9999 81.6465 66.8634 81.6465 65.2585C81.6465 63.4462 83.002 62.1407 84.774 62.1407C85.2738 62.1407 86.4324 62.2943 86.4324 63.0085C86.4324 63.2389 86.2431 63.4846 86.0083 63.4846C85.7054 63.4846 85.5388 63.2235 85.448 62.9778C85.2965 62.5938 85.1905 62.4863 84.721 62.4863C83.3428 62.4863 82.9263 63.9069 82.9263 65.0435C82.9263 66.2875 83.32 67.5776 84.7664 67.5776C85.4025 67.5776 85.9629 67.2397 86.3718 66.7636L86.6293 67.0016Z" fill="white"/>
<path d="M88.2721 63.2465H88.3024C88.7341 62.5477 89.4535 62.133 90.2637 62.133C91.4754 62.133 92.1796 62.7166 92.1796 63.9453V66.2875C92.1796 67.1398 92.066 67.5315 93.0581 67.5929V67.854C92.5583 67.8386 92.0736 67.8156 91.5814 67.8002C91.1195 67.8156 90.65 67.8386 90.2183 67.854V67.5929C91.1725 67.5238 91.0967 67.2166 91.0967 66.3642V64.4521C91.0967 63.6228 91.021 62.5477 89.9381 62.5477C89.3929 62.5477 88.7644 62.9393 88.5069 63.4538C88.3024 63.8685 88.2797 64.383 88.2797 64.8668V66.2875C88.2797 67.1398 88.1813 67.5315 89.1733 67.5929V67.854C88.7038 67.8386 88.2418 67.8156 87.7723 67.8002C87.2877 67.8156 86.7879 67.8386 86.3032 67.854V67.5929C87.2574 67.5238 87.1968 67.2166 87.1968 66.3642V61.3958C87.1968 61.0733 87.1968 60.2824 87.0681 60.0136C86.9166 59.6911 86.5304 59.7141 86.2427 59.6757V59.4146L88.2797 58.9999V63.2465H88.2721Z" fill="white"/>
<path d="M99.1759 65.3967C99.1759 65.8114 99.1759 66.7713 99.3046 67.1168C99.4788 67.6236 100.085 67.5315 100.531 67.5545V67.854C99.865 67.8387 99.2062 67.8156 98.5398 67.8003C97.9188 67.8156 97.3054 67.8387 96.6617 67.854V67.5545C97.0707 67.5545 97.6083 67.5545 97.7446 67.1168C97.8582 66.7713 97.8582 65.8114 97.8582 65.3967V61.7645C97.8582 61.3344 97.8582 60.3822 97.7446 60.029C97.5932 59.5759 97.0707 59.5913 96.6617 59.5913V59.2918C97.313 59.3071 97.9491 59.3302 98.5852 59.3455C99.1986 59.3302 99.7968 59.3071 100.41 59.2918C101.788 59.3455 103.341 59.8831 103.341 61.5264C103.341 63.4155 101.546 63.8685 100.024 63.8685C99.7968 63.8685 99.2213 63.8301 99.1683 63.8301V65.3967H99.1759ZM99.1759 63.4846C99.4182 63.4999 99.6757 63.5383 99.918 63.5383C101.236 63.5383 101.879 62.9701 101.879 61.5725C101.879 60.3208 101.296 59.668 100.054 59.668C99.9029 59.668 99.3879 59.668 99.2667 59.7448C99.1607 59.8063 99.1759 59.9522 99.1759 60.2747V63.4846Z" fill="white"/>
<path d="M108.694 65.0511C108.694 66.7943 107.293 67.9999 105.62 67.9999C103.961 67.9999 102.56 66.7098 102.56 64.9974C102.56 63.3387 104.067 62.1407 105.62 62.1407C107.202 62.1407 108.694 63.3771 108.694 65.0511ZM103.832 65.0511C103.832 66.2798 104.188 67.7005 105.68 67.7005C107.074 67.7005 107.414 66.2798 107.414 65.1279C107.414 63.8839 107.074 62.4402 105.567 62.4402C104.181 62.4326 103.832 63.9223 103.832 65.0511Z" fill="white"/>
<path d="M109.39 67.9078H109.261L109.208 66.0571H109.466C109.67 66.8865 110.102 67.7005 111.049 67.7005C111.609 67.7005 112.124 67.4163 112.124 66.7943C112.124 66.0571 111.382 65.7576 110.837 65.4735C110.094 65.0895 109.307 64.6595 109.307 63.6919C109.307 62.8011 110.011 62.1407 110.89 62.1407C111.283 62.1407 111.768 62.2559 112.124 62.4633L112.381 62.1561H112.533L112.51 63.7764H112.253C112.025 63.1314 111.745 62.4402 110.943 62.4402C110.518 62.4402 110.125 62.686 110.125 63.1544C110.125 63.8302 110.829 64.0605 111.314 64.3293C112.192 64.7977 112.995 65.1279 112.995 66.2952C112.995 67.3549 112.101 67.9999 111.117 67.9999C110.632 67.9999 110.094 67.8464 109.716 67.5315L109.39 67.9078Z" fill="white"/>
<path d="M113.335 62.4786C113.971 62.1023 114.607 61.5878 114.88 60.8506H115.069V62.3634H116.523V62.709H115.069V66.395C115.069 66.9786 115.183 67.5853 115.857 67.5853C116.304 67.5853 116.531 67.3242 116.773 67.0016L117 67.1706C116.773 67.7926 116.137 67.9999 115.524 67.9999C114.607 67.9999 113.979 67.639 113.979 66.6714V62.7167H113.335V62.4786Z" fill="white"/>
</svg>
