<svg width="128" height="128" viewBox="0 0 128 128" fill="none" xmlns="http://www.w3.org/2000/svg">
<rect width="128" height="128" fill="white"/>
<path fill-rule="evenodd" clip-rule="evenodd" d="M97.2 74.4799C98.16 71.2799 98.8 67.9199 98.8 64.3999C98.8 45.3599 83.44 29.9999 64.4 29.9999C45.36 29.9999 30 45.3599 30 64.3999C30 80.0799 40.56 93.3599 54.96 97.3599L97.2 74.4799Z" fill="#E9E9EA"/>
<path fill-rule="evenodd" clip-rule="evenodd" d="M32.5599 64.3999C32.5599 79.9199 43.5999 92.7199 58.3199 95.5999L93.8399 76.2399C95.2799 72.5591 96.2391 68.5599 96.2391 64.3999C96.2391 46.7999 81.9999 32.5599 64.3999 32.5599C46.7999 32.5599 32.5599 46.7999 32.5599 64.3999Z" fill="url(#paint0_linear_80_1121)"/>
<path fill-rule="evenodd" clip-rule="evenodd" d="M72.4 71.2799H66.48L69.52 58.4799H66.96L68.08 53.5199H70.48V53.0399C71.76 47.9199 75.28 44.8799 79.92 44.8799C80.88 44.8799 81.68 45.0399 82.32 45.0399L83.76 45.3599L82.32 50.6399L80.88 50.1599C80.72 50.1599 80.4 49.9999 79.6 49.9999C77.68 49.9999 76.72 51.5999 76.4 52.8799L76.24 53.3599H80.24L78.8 58.3199H74.96L72.4 71.2799Z" fill="#0054A6"/>
<path fill-rule="evenodd" clip-rule="evenodd" d="M53.52 65.5198H53.2L53.84 63.1198C54.64 59.9198 56.88 58.3198 57.84 58.3198C58 58.3198 58.32 58.3198 58.64 58.6398C58.8 58.7998 58.96 59.2798 58.96 59.9198C58.64 62.9598 55.76 65.5198 53.52 65.5198ZM62.96 54.6397C61.84 53.5197 60.4 52.8797 58.96 52.8797H58.8C56.24 52.8797 55.44 53.5197 54.64 53.9997H54.48V53.1997H49.84L44.08 78.6397H50L51.76 70.6397H52.88C58.32 70.6397 64.24 66.4797 64.56 59.7598C64.88 57.1997 63.76 55.5997 62.96 54.6397Z" fill="#0054A6"/>
<path fill-rule="evenodd" clip-rule="evenodd" d="M78.32 74.32C64.24 77.52 54.8 87.28 54.9608 97.36L97.2 74.48C94.16 73.72 90.8968 73.3168 87.5288 73.3168C84.5152 73.3168 81.4176 73.64 78.32 74.32Z" fill="url(#paint1_linear_80_1121)"/>
<defs>
<linearGradient id="paint0_linear_80_1121" x1="100.044" y1="78.209" x2="83.2859" y2="26.4788" gradientUnits="userSpaceOnUse">
<stop stop-color="#FDB515"/>
<stop offset="0.219938" stop-color="#FEC00F"/>
<stop offset="0.493586" stop-color="#FED207"/>
<stop offset="0.794077" stop-color="#FFDC02"/>
<stop offset="1" stop-color="#FFDF00"/>
</linearGradient>
<linearGradient id="paint1_linear_80_1121" x1="41.694" y1="86.7229" x2="52.2457" y2="119.321" gradientUnits="userSpaceOnUse">
<stop stop-color="white"/>
<stop offset="1"/>
</linearGradient>
</defs>
</svg>
