<svg width="129" height="129" viewBox="0 0 129 129" fill="none" xmlns="http://www.w3.org/2000/svg">
<rect width="128" height="128" transform="translate(0.666504 0.972656)" fill="white"/>
<path d="M38.5286 65.9306C37.9779 65.6926 37.4374 65.4224 36.8734 65.2241C35.7381 64.8261 34.5528 64.6543 33.3559 64.5735C33.2384 64.5661 33.1003 64.6175 32.999 64.6822C31.6933 65.5134 30.5565 66.5548 29.4153 67.5887C29.0893 67.8839 28.7618 68.1791 28.4313 68.4685C28.33 68.5581 28.3021 68.6374 28.3344 68.7828C28.6942 70.366 28.7148 71.9508 28.2433 73.5164C27.9437 74.5136 27.3783 75.3317 26.4677 75.8869C25.1179 76.7093 22.5947 76.7035 21.292 75.3023C21.2655 75.2744 21.2318 75.2539 21.1598 75.198V80.1578H16.1177C16.1089 80.0609 16.0942 79.964 16.0942 79.867C16.0928 75.2348 16.0928 70.5995 16.0928 65.9643C16.0928 65.8674 16.0928 65.7719 16.0928 65.6559H20.8514C20.8807 66.0246 20.9116 66.3932 20.9483 66.8412C21.4212 66.2258 21.9764 65.8248 22.674 65.5546C22.5888 65.5061 22.5506 65.4826 22.5095 65.462C20.8602 64.6322 20.0876 63.2722 20.1111 61.4525C20.1273 60.1791 20.5635 59.01 21.101 57.8777C21.5828 56.8628 22.1012 55.8656 22.5859 54.8536C22.721 54.5702 22.8268 54.2647 22.8943 53.9577C23.0441 53.2821 22.6035 52.7828 21.9103 52.7563C21.173 52.727 20.5517 53.0383 19.9231 53.3512C20.2492 53.0662 20.6413 52.8973 21.0438 52.7607C21.5886 52.5771 22.1291 52.6183 22.6681 52.8239C23.2306 53.0383 23.495 53.4481 23.3364 54.0282C23.2042 54.5114 23.0118 54.9799 22.8179 55.444C22.6197 55.917 22.395 56.3781 22.1673 56.8364C22.0851 57.0009 22.0763 57.1448 22.1702 57.2946C22.3597 57.5957 22.4376 57.9188 22.3803 58.2713C22.3729 58.3183 22.3788 58.3682 22.3803 58.4182C22.4023 58.8221 22.5007 58.8852 22.8826 58.7545C23.3056 58.6091 23.7285 58.4608 24.1559 58.3359C24.4453 58.2507 24.692 58.3506 24.9108 58.5621C25.4851 59.1143 26.0153 59.7018 26.2709 60.4714C26.3722 60.7784 26.381 61.1162 26.4368 61.4393C26.4559 61.548 26.4691 61.664 26.5191 61.7595C27.1212 62.9183 28.0759 63.635 29.3228 63.9831C29.3463 63.9889 29.3683 63.9977 29.4462 64.0242C28.3285 64.7321 27.1814 65.274 25.8978 65.6192C26.1078 65.744 26.2899 65.8454 26.4633 65.957C27.227 66.4446 27.7205 67.151 28.0553 67.9765C28.0847 68.047 28.0568 68.1689 28.0113 68.2364C27.741 68.63 27.4576 69.0134 27.202 69.429C27.4135 69.2469 27.6412 69.0794 27.8336 68.8797C28.6825 68.0014 29.4991 67.0894 30.3759 66.2405C30.8253 65.8042 30.8899 65.2256 31.1469 64.7203C31.5743 63.8803 31.9812 63.024 32.482 62.228C32.7038 61.8755 33.1253 61.642 33.4734 61.3791C33.7318 61.1837 34.0212 61.028 34.2944 60.8503C34.359 60.8077 34.4163 60.7549 34.4765 60.7064C34.4677 60.677 34.4589 60.6462 34.4515 60.6168C34.1049 60.6697 33.7568 60.7226 33.4102 60.7754C33.4014 60.7593 33.3926 60.7431 33.3838 60.727C33.4513 60.6814 33.5159 60.633 33.5864 60.5918C34.6043 59.9867 35.7175 59.6137 36.847 59.3038C38.2672 58.9146 39.7021 58.5753 41.1297 58.214C41.2002 58.1964 41.2707 58.1788 41.35 58.1582C41.3368 58.1288 41.3338 58.0995 41.3191 58.0921C40.3278 57.6251 39.3246 57.205 38.1982 57.2124C37.5167 57.2168 36.9263 57.4547 36.4049 57.8821C36.2933 57.9746 36.1787 58.0642 36.0113 58.1979C35.998 58.0657 35.9584 57.9702 35.9907 57.9159C36.1141 57.7029 36.2228 57.4562 36.4049 57.3078C37.151 56.6998 38.0116 56.572 38.9369 56.7864C39.8901 57.0067 40.717 57.4944 41.5453 57.9849C41.629 58.0348 41.7465 58.0804 41.8361 58.0627C42.9949 57.8351 44.1552 57.6163 45.3037 57.3504C45.7399 57.2491 46.1512 57.0361 46.5844 56.8687C46.5697 57.5296 46.2789 58.1127 45.8001 58.5797C45.3375 59.0306 44.8146 59.4213 44.305 59.8472C45.9015 60.7372 47.6125 61.2146 49.488 60.9267C49.4939 60.9473 49.4998 60.9678 49.5057 60.9884C49.0665 61.1044 48.6333 61.2528 48.1882 61.3335C46.4273 61.6478 44.75 61.3482 43.1477 60.5874C42.9846 60.5096 42.8569 60.514 42.6894 60.5816C41.5864 61.0236 40.479 61.4598 39.3687 61.8828C38.0307 62.3925 36.6854 62.8859 35.3445 63.3882C35.271 63.4161 35.202 63.4587 35.0728 63.5248C36.2433 63.9273 37.3096 64.4207 38.2966 65.0714C39.2879 65.7249 40.1633 66.5078 40.9006 67.3875C40.3571 67.0233 39.7917 66.6297 39.2116 66.2595C39.003 66.1259 38.7577 66.0495 38.5286 65.9467C38.5271 65.9408 38.5242 65.935 38.5213 65.9306H38.5286ZM23.5699 71.1092C23.5215 70.4586 23.4935 69.9886 23.448 69.5186C23.4319 69.3585 23.3805 69.1999 23.3276 69.0471C23.1308 68.4758 22.743 68.2261 22.1512 68.2819C21.6562 68.3275 21.2993 68.6477 21.2611 69.2204C21.1965 70.1766 21.1848 71.1356 21.1803 72.0932C21.1803 72.3532 21.2567 72.6278 21.3566 72.8716C21.5358 73.3078 21.9309 73.5061 22.4522 73.4767C22.8928 73.4518 23.2321 73.2271 23.332 72.7644C23.4612 72.1652 23.5097 71.5483 23.5699 71.1077V71.1092Z" fill="#BF2E26"/>
<path d="M91.4179 65.653V76.1116H86.4904C86.4479 75.599 86.4053 75.0908 86.3641 74.5827C86.3406 74.568 86.3186 74.5533 86.2951 74.5386C86.276 74.5797 86.2613 74.6238 86.2393 74.662C85.3507 76.113 84.0157 76.583 82.3884 76.4097C81.397 76.304 80.5437 75.9397 79.9724 75.0747C79.5406 74.4211 79.3731 73.6809 79.3673 72.9172C79.3496 70.5232 79.3599 68.1277 79.3584 65.7338C79.3584 65.7176 79.3658 65.7029 79.3746 65.6647H84.421V65.9496C84.421 68.0014 84.4196 70.0547 84.424 72.1064C84.424 72.3003 84.4401 72.4986 84.4857 72.6866C84.5885 73.1066 84.8896 73.3431 85.3067 73.3622C85.7605 73.3842 86.1409 73.1654 86.2672 72.76C86.3377 72.5324 86.3597 72.2812 86.3597 72.0403C86.3671 70.0209 86.3641 68 86.3641 65.9805V65.6559H91.4179V65.653Z" fill="#BF2E26"/>
<path d="M38.5286 65.9306C38.5286 65.9306 38.5345 65.9408 38.536 65.9467C39.4304 66.4402 40.1412 67.1114 40.5686 68.0543C40.9094 68.8048 41.0842 69.5979 41.1209 70.4174C41.1414 70.8698 41.1238 71.3236 41.1238 71.798H33.8978C33.8905 72.3473 33.864 72.879 34.168 73.349C34.4794 73.8307 34.9744 73.9012 35.4869 73.8512C35.9951 73.8028 36.3358 73.5061 36.5209 73.0332C36.5503 72.9583 36.5694 72.879 36.5958 72.7923H41.0137C40.8257 73.9511 40.2969 74.8691 39.2982 75.4933C38.5433 75.9647 37.7061 76.1924 36.8367 76.3113C35.553 76.4846 34.2694 76.5302 32.996 76.2408C31.4377 75.8869 30.2011 75.0791 29.571 73.5707C28.8719 71.8979 28.8176 70.1692 29.48 68.4729C30.1203 66.8338 31.4407 65.9511 33.1018 65.5678C34.8525 65.1639 36.5943 65.1962 38.2936 65.8571C38.3685 65.8865 38.4478 65.9071 38.5257 65.932L38.5286 65.9306ZM35.2387 69.5964C35.6221 69.5964 36.0054 69.6023 36.3887 69.5906C36.4563 69.5891 36.5694 69.5303 36.5811 69.4789C36.7089 68.912 36.3212 68.1924 35.7954 67.9926C34.782 67.6093 33.7847 68.373 33.8919 69.4466C33.9066 69.5876 33.983 69.595 34.0902 69.595C34.4735 69.5935 34.8569 69.595 35.2402 69.595L35.2387 69.5964Z" fill="#BF2E26"/>
<path d="M105.995 71.7995C105.979 72.2915 105.961 72.7629 106.172 73.2036C106.437 73.7558 106.929 73.8792 107.483 73.8615C108.001 73.8454 108.44 73.5325 108.605 73.0273C108.671 72.8261 108.76 72.7732 108.962 72.7747C110.25 72.7835 111.538 72.7791 112.827 72.7791H113.099C113.04 73.2608 112.901 73.697 112.686 74.1053C112.2 75.038 111.405 75.6093 110.435 75.9471C109.064 76.4244 107.644 76.4964 106.211 76.4083C105.509 76.3642 104.823 76.2232 104.168 75.9574C102.891 75.4389 101.972 74.5577 101.528 73.2447C100.989 71.6526 100.956 70.0444 101.573 68.4626C102.01 67.342 102.816 66.5459 103.893 66.026C105.121 65.4341 106.432 65.2594 107.775 65.3387C108.421 65.3769 109.079 65.4591 109.702 65.6309C111.658 66.1685 112.738 67.5168 113.099 69.4775C113.238 70.2338 113.253 70.9961 113.234 71.7995H105.995ZM108.685 69.5979C108.677 69.4099 108.681 69.2483 108.659 69.0912C108.586 68.5977 108.381 68.1879 107.883 67.997C106.87 67.6078 105.91 68.3422 105.982 69.4407C105.992 69.5994 106.077 69.5994 106.192 69.5994C106.688 69.5979 107.184 69.5994 107.681 69.5994C108.004 69.5994 108.327 69.5994 108.687 69.5994L108.685 69.5979Z" fill="#BF2E26"/>
<path d="M71.9562 68.7196H70.8488V65.6427H71.9577C71.9577 65.4826 71.9503 65.346 71.9577 65.2124C71.9958 64.6616 71.9694 64.0962 72.0943 63.566C72.41 62.2265 73.3647 61.4921 74.6322 61.1103C75.3195 60.9032 76.0304 60.8665 76.7397 60.9194C77.4374 60.9708 78.1306 61.0721 78.8268 61.1499C78.9531 61.1646 79.0339 61.2013 79.0324 61.3585C79.0265 62.2382 79.0295 63.118 79.028 63.9977C79.028 64.0359 79.0133 64.0756 79.0045 64.1152C78.6461 64.1152 78.298 64.1138 77.9485 64.1152C77.2979 64.1197 77.0496 64.3546 77.01 65.0038C76.9836 65.4278 77.1789 65.6398 77.596 65.6398C77.9852 65.6398 78.3744 65.6398 78.7798 65.6398V68.7093H77.0144V76.1145H71.9547V68.7181L71.9562 68.7196Z" fill="#BF2E26"/>
<path d="M58.6601 68.7181H57.3001C57.1547 67.6959 57.0092 66.6855 56.8609 65.6427H58.6557V62.4409H63.7139V65.6265H65.9903V68.7181H63.7388C63.733 68.8165 63.7241 68.8944 63.7241 68.9722C63.7241 69.9577 63.7241 70.9432 63.7241 71.9287C63.7241 72.0022 63.7241 72.0756 63.7285 72.149C63.7609 72.7791 64.0208 73.0376 64.648 73.0273C65.0283 73.0214 65.4087 72.9788 65.8023 72.9524C65.8082 72.9877 65.8214 73.0332 65.8214 73.0802C65.8214 73.9849 65.8214 74.8882 65.8258 75.7929C65.8258 75.9265 65.7979 75.997 65.6511 76.0264C64.4908 76.2555 63.3305 76.4905 62.1409 76.4332C61.6885 76.4112 61.2288 76.3554 60.7897 76.2452C59.368 75.8913 58.6674 74.9763 58.6615 73.512C58.6557 72.0212 58.6615 70.5305 58.6615 69.0413C58.6615 68.9458 58.6615 68.8489 58.6615 68.7196L58.6601 68.7181Z" fill="#BF2E26"/>
<path d="M98.5323 68.7181C98.5264 68.818 98.5161 68.8959 98.5161 68.9737C98.5161 69.9842 98.5161 70.9932 98.5161 72.0036C98.5161 72.0844 98.5162 72.1667 98.5235 72.2474C98.569 72.7791 98.826 73.0302 99.3621 73.0244C99.7601 73.0214 100.157 72.9818 100.586 72.9553C100.59 73.0112 100.603 73.0875 100.603 73.1654C100.603 74.029 100.603 74.8926 100.606 75.7547C100.606 75.8986 100.591 75.9955 100.417 76.0293C99.2637 76.2511 98.1123 76.489 96.93 76.4288C96.4526 76.4053 95.968 76.348 95.5082 76.2247C94.1365 75.856 93.4609 74.9513 93.455 73.5325C93.4491 72.0345 93.455 70.5349 93.4535 69.0369V68.7211H92.1053V65.6383C92.468 65.6383 92.8235 65.6236 93.1774 65.6442C93.4124 65.6574 93.4609 65.5693 93.4579 65.3534C93.4477 64.4736 93.4535 63.5939 93.4535 62.7141V62.438H98.5176C98.5176 62.5335 98.5176 62.6201 98.5176 62.7068C98.5176 63.6027 98.5235 64.4986 98.5132 65.3945C98.5117 65.5884 98.569 65.6456 98.7614 65.6427C99.3724 65.6324 99.9848 65.6383 100.596 65.6398C100.699 65.6398 100.8 65.6177 100.823 65.7822C100.962 66.7472 101.113 67.7121 101.266 68.7181H98.5323Z" fill="#BF2E26"/>
<path d="M42.685 62.4248H47.7271C47.7271 62.5246 47.7271 62.6098 47.7271 62.6965C47.7271 63.5924 47.7344 64.4883 47.7241 65.3842C47.7212 65.5898 47.7858 65.6471 47.987 65.6427C48.6538 65.6309 49.3221 65.6383 50.0182 65.6383C50.1651 66.662 50.3105 67.6739 50.4603 68.7152H47.7418C47.7359 68.8298 47.7285 68.9164 47.7285 69.0031C47.7285 69.9886 47.7285 70.9741 47.7285 71.9596C47.7285 72.0403 47.7271 72.1226 47.7359 72.2034C47.8079 72.8143 48.0458 73.0347 48.6641 73.0244C49.0445 73.017 49.4234 72.9759 49.8156 72.9495V76.0014C49.2134 76.1072 48.6156 76.2232 48.0149 76.3128C46.9942 76.4655 45.9705 76.514 44.9512 76.2878C44.4871 76.1835 44.0436 76.0235 43.6617 75.7297C42.9244 75.1657 42.6762 74.3844 42.6748 73.4958C42.6748 72.0139 42.6748 70.5305 42.6748 69.0486C42.6748 68.9458 42.6748 68.8415 42.6748 68.7152H41.3353V65.6368C41.7039 65.6368 42.0667 65.6265 42.4309 65.6412C42.6278 65.6486 42.6806 65.5795 42.6792 65.3915C42.6748 64.5603 42.6821 63.7304 42.6865 62.8992C42.6865 62.7464 42.6865 62.5937 42.6865 62.4233L42.685 62.4248Z" fill="#BF2E26"/>
<path d="M56.175 65.6588V76.1145C56.1031 76.1204 56.0311 76.1321 55.9606 76.1321C54.4287 76.1321 52.8954 76.1292 51.3636 76.1365C51.1638 76.1365 51.1198 76.0719 51.1198 75.8854C51.1242 72.547 51.1227 69.2072 51.1242 65.8689C51.1242 65.8042 51.13 65.7411 51.1345 65.6588H56.1765H56.175Z" fill="#BF2E26"/>
<path d="M49.5468 52.8826C49.77 52.9884 49.9257 53.0618 50.146 53.1646C49.9419 51.9838 49.6599 50.8881 49.2031 49.7866C49.8332 50.1979 50.1196 50.7516 50.1578 51.4272C50.1857 51.9368 50.1695 52.4494 50.1592 52.9619C50.1563 53.1264 50.1945 53.2351 50.3399 53.3247C50.4838 53.4143 50.6116 53.5318 50.7423 53.642C51.5295 54.3132 51.7102 55.1444 51.3988 56.1079C51.3783 56.1696 51.365 56.2327 51.3504 56.2959C51.3474 56.3106 51.3548 56.3267 51.3592 56.3605C51.5839 56.3914 51.8189 56.4031 52.0421 56.4589C52.2286 56.5059 52.4166 56.5808 52.5767 56.6836C52.8249 56.8452 52.8323 57.089 52.5767 57.2285C52.3256 57.3651 52.0392 57.4738 51.7572 57.509C51.2182 57.5766 50.685 57.5384 50.2062 57.2182C50.1196 57.161 49.9903 57.1566 49.8787 57.1463C49.2222 57.0875 48.6039 56.9069 48.0105 56.6219C47.8446 56.5412 47.6566 56.5044 47.4789 56.4501C46.7871 56.2386 46.1335 55.9507 45.6019 55.447C45.4388 55.2928 45.2905 55.1092 45.1759 54.9168C44.7956 54.275 44.9248 53.5538 45.4902 53.0662C45.5886 52.981 45.6944 52.9061 45.8163 52.8092C45.1789 51.8663 44.5209 50.9528 43.6544 50.1846C43.7631 50.2125 43.8732 50.2375 43.9804 50.2713C44.0965 50.308 44.2125 50.3491 44.3256 50.3932C45.4785 50.8294 46.3715 51.6196 47.1837 52.5125C47.5391 52.9047 47.8593 53.3277 48.2029 53.7301C48.3013 53.8461 48.4203 53.9474 48.5422 54.04C48.8036 54.2368 49.021 54.4571 49.0504 54.8066C49.0548 54.8595 49.0812 54.9183 49.1135 54.9623C49.4778 55.472 49.842 55.9816 50.215 56.4854C50.2547 56.5382 50.3693 56.5808 50.4265 56.5617C50.478 56.5441 50.5294 56.434 50.5279 56.3664C50.5249 55.9845 50.5176 55.6012 50.4882 55.2208C50.431 54.4586 50.2709 53.7286 49.7495 53.1279C49.6981 53.0677 49.6481 53.006 49.5497 52.8856L49.5468 52.8826Z" fill="#BF2E26"/>
<path d="M53.8912 65.0772C53.0159 65.0523 52.2756 64.7673 51.7631 64.0257C51.2652 63.306 51.2637 62.5481 51.7484 61.8138C52.5988 60.5272 54.7945 60.3892 55.7917 61.5582C56.8594 62.8081 56.2044 64.644 54.5668 64.9847C54.345 65.0302 54.1159 65.0449 53.8912 65.0743V65.0772Z" fill="#BF2E26"/>
<path d="M111.394 62.4409C110.909 62.9667 110.452 63.4631 109.995 63.961C109.94 64.0212 109.872 64.0727 109.831 64.1402C109.449 64.7688 108.895 64.9318 108.18 64.8731C107.394 64.8099 106.6 64.8584 105.808 64.8584C105.722 64.8584 105.635 64.8584 105.501 64.8584C105.666 64.5661 105.805 64.3121 105.948 64.0594C106.225 63.5704 106.5 63.0798 106.788 62.5981C106.836 62.5173 106.952 62.4292 107.039 62.4292C108.45 62.4174 109.86 62.4204 111.272 62.4204C111.295 62.4204 111.317 62.4277 111.392 62.4409H111.394Z" fill="#BF2E26"/>
<path d="M26.8011 58.5973C26.7643 58.073 26.7408 57.5472 26.6865 57.0244C26.5382 55.5748 26.196 54.1883 25.3103 52.9869C25.1723 52.7989 25.2119 52.5948 25.2648 52.3333C25.3779 52.4391 25.4631 52.5067 25.535 52.5874C26.0594 53.1823 26.3428 53.8946 26.5411 54.6495C26.8833 55.9478 26.876 57.2711 26.8011 58.5973Z" fill="#BF2E26"/>
<path d="M108.685 69.5979C108.326 69.5979 108.002 69.5979 107.679 69.5979C107.183 69.5979 106.687 69.5979 106.19 69.5979C106.077 69.5979 105.99 69.5979 105.98 69.4393C105.907 68.3407 106.869 67.6063 107.882 67.9955C108.38 68.1865 108.586 68.5962 108.658 69.0897C108.681 69.2469 108.675 69.4084 108.684 69.5964L108.685 69.5979Z" fill="white"/>
<path d="M48.9447 54.9133C49.0905 54.7906 49.0292 54.4778 48.8077 54.2147C48.5862 53.9516 48.2885 53.8378 48.1427 53.9605C47.9968 54.0833 48.0582 54.3961 48.2796 54.6592C48.5011 54.9223 48.7989 55.0361 48.9447 54.9133Z" fill="black"/>
<path d="M51.0673 55.0036C51.2324 54.9083 51.2268 54.5896 51.0548 54.2918C50.8829 53.9939 50.6097 53.8297 50.4446 53.925C50.2795 54.0203 50.2851 54.3391 50.457 54.6369C50.629 54.9348 50.9022 55.0989 51.0673 55.0036Z" fill="black"/>
<path d="M52.7628 57.0104C52.7744 56.6846 52.1904 56.3992 51.4584 56.3732C50.7264 56.3471 50.1236 56.5901 50.112 56.916C50.1004 57.2419 50.6844 57.5272 51.4164 57.5533C52.1484 57.5793 52.7512 57.3363 52.7628 57.0104Z" fill="black"/>
</svg>
