<svg width="128" height="128" viewBox="0 0 128 128" fill="none" xmlns="http://www.w3.org/2000/svg">
<rect width="128" height="128" fill="white"/>
<path d="M86.2425 45.333C86.3817 42.5838 85.9639 39.8348 85.0145 37.2531C84.065 34.6715 82.6038 32.3112 80.7196 30.3157C78.8354 28.3203 76.5677 26.7314 74.0543 25.6456C71.5408 24.5599 68.8343 24 66.0991 24C63.364 24 60.6574 24.5599 58.144 25.6456C55.6306 26.7314 53.3628 28.3203 51.4787 30.3157C49.5945 32.3112 48.1332 34.6715 47.1838 37.2531C46.2343 39.8348 45.8165 42.5838 45.9558 45.333C45.9558 45.5661 45.9558 45.7916 45.9558 46.0247L45.8213 64.9636L64.9151 65.5726C65.2662 65.5726 65.6173 65.5726 65.9759 65.5726H66.0954C71.4305 65.5666 76.5459 63.4335 80.3218 59.6403C84.0978 55.847 86.2267 50.7025 86.2425 45.333Z" fill="#EF7022"/>
<path d="M38 102.473C38 102.473 73.1622 109.991 90 68.2341C90 68.2341 71.4291 86.797 47.0389 77.7073C47.0389 77.7073 47.4124 96.0221 38 102.473Z" fill="#BBD762"/>
</svg>
