<svg width="128" height="129" viewBox="0 0 128 129" fill="none" xmlns="http://www.w3.org/2000/svg">
<rect width="128" height="128" transform="translate(0 0.972656)" fill="#416157"/>
<path d="M36.3969 39.1295C37.9836 39.1295 39.5703 39.0724 41.1506 39.1422C44.8888 39.3009 48.6652 39.2374 52.3399 39.8086C54.8215 40.1957 57.227 41.554 58.8136 43.6167C61.7522 47.4501 63.4341 51.7849 62.3869 56.71C61.5618 60.6196 60.0893 64.1865 56.3638 66.3825C53.7299 67.9375 51.0516 69.2576 47.9289 69.321C45.0729 69.3782 42.2232 69.3528 39.3672 69.3845C37.571 69.4036 36.8602 69.8796 36.7967 71.663C36.6571 75.5599 36.6761 79.4632 36.7396 83.3601C36.7586 84.5723 37.6091 85.2324 38.8594 85.2451C40.2303 85.2578 41.6076 85.2705 42.9785 85.2641C43.9495 85.2641 44.4827 85.7147 44.4953 86.6794C44.508 87.4157 44.5525 88.1709 44.4001 88.8818C44.1399 90.1257 43.4862 90.862 41.9947 90.8366C36.8665 90.7604 31.7384 90.7604 26.6165 90.8366C25.2773 90.8556 24.8077 90.2717 24.7061 89.1103C24.6871 88.9008 24.6617 88.6914 24.649 88.4819C24.4713 85.372 24.5475 85.2959 27.6256 85.2641C30.4753 85.2387 30.9704 84.7564 30.9704 81.9511C30.9704 70.7745 30.9704 59.5915 30.9704 48.4148C30.9704 47.7801 30.9704 47.1455 30.9006 46.5171C30.6721 44.6575 30.1072 44.1561 28.2476 44.0736C27.8795 44.0546 27.5051 44.0609 27.1369 44.0609C24.7506 44.0546 24.6363 43.9403 24.6427 41.592C24.6554 39.3072 24.814 39.1358 27.0417 39.1358C30.158 39.1358 33.2806 39.1358 36.3969 39.1358V39.1295ZM36.6761 54.2411C36.6761 56.6085 36.6254 58.9758 36.6888 61.3432C36.7586 63.647 37.6218 64.434 39.8939 64.4404C41.8424 64.4404 43.8289 64.6498 45.7393 64.3579C47.783 64.0469 49.9155 63.5582 51.718 62.5998C54.885 60.9116 55.7037 57.624 56.2749 54.3744C56.4019 53.6509 56.0909 52.8258 55.8878 52.0705C55.672 51.2645 55.2468 50.5092 55.0881 49.6969C54.739 47.9388 53.457 46.7837 52.1305 46.0348C49.8901 44.7654 47.5164 43.642 44.7175 44.0228C43.1625 44.2323 41.5568 44.0609 39.9765 44.0609C37.3552 44.0609 36.7396 44.6321 36.6825 47.2914C36.6317 49.608 36.6698 51.9246 36.6761 54.2348V54.2411Z" fill="white"/>
<path d="M74.9789 50.5219C74.9789 53.4224 74.9471 56.3229 75.0042 59.2233C75.0169 59.839 75.2645 60.8799 75.6135 60.9751C76.2672 61.1528 77.3335 61.0449 77.7651 60.6006C80.7481 57.5668 84.4927 57.1162 88.3959 57.3828C91.3091 57.5795 94.0445 58.595 95.7709 61.0512C97.1862 63.0568 98.1699 65.3607 98.1636 67.9311C98.1572 72.6785 98.1636 77.4195 98.1636 82.1669C98.1636 82.7444 98.1509 83.3284 98.208 83.9059C98.4175 86.1209 98.83 86.489 101.058 86.5208C103.127 86.5462 103.8 87.4664 103.19 89.4276C102.911 90.3352 102.384 90.8175 101.35 90.8112C97.2306 90.7794 93.1052 90.7985 88.9862 90.7985C87.355 90.7985 87.19 89.637 87.1012 88.4185C87.006 87.0729 87.6597 86.5398 88.9862 86.5017C91.8549 86.4319 92.2421 86.0321 92.2421 83.1951C92.2421 78.5048 92.1976 73.8082 92.1786 69.1179C92.1659 66.8775 90.9664 65.0941 89.6653 63.4884C88.1992 61.6795 84.2896 61.3114 82.0555 62.035C79.8976 62.7331 78.0824 63.7549 76.8892 65.6399C75.8611 67.271 74.9154 68.9529 74.9598 71.041C75.0423 75.0458 74.9662 79.057 74.9852 83.0618C74.9979 85.537 75.7976 86.3431 78.2601 86.5208C79.3835 86.6033 80.583 86.7048 80.6719 88.209C80.7608 89.618 79.5993 90.7668 78.057 90.7795C74.3061 90.8112 70.5552 90.8112 66.8042 90.7795C65.2937 90.7668 64.2401 89.7195 64.2465 88.3486C64.2465 86.7302 65.3572 86.4827 66.6202 86.5144C67.807 86.5398 68.5432 85.9813 68.8035 84.8643C69.0256 83.8996 69.2731 82.9095 69.2795 81.9321C69.3112 70.8062 69.3112 59.6803 69.2795 48.5608C69.2795 47.6786 69.051 46.8027 68.9114 45.9205C68.6892 44.5242 67.8134 44.0482 66.4488 44.0355C64.5004 44.0102 63.4087 42.0427 64.4178 40.3735C64.6336 40.018 65.281 39.7451 65.7316 39.7324C68.3211 39.669 70.9106 39.7007 73.5001 39.7007C74.725 39.7007 74.9725 40.5004 74.9725 41.5032C74.9725 44.5115 74.9725 47.5136 74.9725 50.5219H74.9789Z" fill="white"/>
</svg>
