<svg width="128" height="128" viewBox="0 0 128 128" fill="none" xmlns="http://www.w3.org/2000/svg">
<rect width="128" height="128" fill="white"/>
<g clip-path="url(#clip0_1195_2598)">
<path d="M22.4452 52.3867C23.6059 52.3867 24.7666 52.3867 25.9298 52.3867C25.9298 53.5027 25.9298 54.6213 25.9298 55.7372C24.7666 55.7372 23.6059 55.7372 22.4452 55.7372C22.4452 54.6213 22.4452 53.5027 22.4452 52.3867Z" fill="#C61C83"/>
<path d="M40.5651 70.6212C40.5651 65.4871 40.5651 60.3557 40.5651 55.2217C41.7257 55.2217 42.889 55.2217 44.0497 55.2217C44.0547 57.5567 44.0395 59.8918 44.0573 62.2268C45.4891 60.5645 46.9134 58.8969 48.3249 57.2191C49.777 57.2243 51.2292 57.2114 52.6813 57.2268C51.2266 58.8969 49.7188 60.5206 48.2641 62.1882C49.6681 65.0078 51.1151 67.8042 52.5394 70.6134C51.2064 70.6263 49.8759 70.6186 48.5454 70.6212C47.6128 68.6444 46.6726 66.6753 45.707 64.7165C45.1343 65.2887 44.5641 65.866 44.037 66.482C44.0598 67.8634 44.0471 69.2423 44.0497 70.6212C42.889 70.6212 41.7257 70.6212 40.5651 70.6212Z" fill="#C61C83"/>
<path d="M12.0522 58.6779C13.7705 56.1237 17.8075 56.4304 19.6448 58.6804C21.173 60.5181 21.4898 63.0722 21.2465 65.3943C21.0488 67.2139 20.3063 69.1134 18.7553 70.1624C16.6772 71.5567 13.6007 71.1263 12.1029 69.049C12.1333 70.5387 12.1131 72.0309 12.1181 73.5206C10.9574 73.5206 9.79423 73.5206 8.63354 73.5206C8.63354 68.0876 8.63354 62.6521 8.63354 57.2191C9.74608 57.2191 10.8611 57.2242 11.9762 57.2139C11.9864 57.7036 12.0142 58.1907 12.0522 58.6779ZM13.9022 60.0335C12.5287 60.6134 11.9205 62.2268 11.961 63.6521C11.9838 64.9459 12.1283 66.4485 13.1749 67.3376C14.442 68.3119 16.6342 67.9433 17.2829 66.3763C17.9342 64.7758 17.9697 62.8222 17.1385 61.2784C16.5455 60.1289 15.1009 59.5129 13.9022 60.0335Z" fill="#C61C83"/>
<path d="M30.6612 59.0414C31.9106 56.861 34.8224 56.3559 36.9816 57.2914C38.4718 57.9564 39.2498 59.6523 39.232 61.245C39.2422 64.3688 39.2295 67.495 39.2346 70.6213C38.0511 70.6213 36.8701 70.6213 35.6866 70.6213C35.679 67.7631 35.6993 64.9048 35.6816 62.0492C35.674 61.3043 35.4611 60.3816 34.6603 60.1445C33.6643 59.843 32.4377 59.8739 31.6293 60.6136C31.0008 61.2553 30.8614 62.2064 30.869 63.0749C30.8716 65.5904 30.8716 68.1059 30.8716 70.6213C29.7083 70.6213 28.5476 70.6213 27.387 70.6213C27.387 66.1548 27.387 61.6883 27.387 57.2193C28.4868 57.2193 29.5867 57.2193 30.6866 57.2218C30.6815 57.8275 30.6764 58.4358 30.6612 59.0414Z" fill="#C61C83"/>
<path d="M22.4452 57.2192C23.6059 57.2192 24.7691 57.2192 25.9298 57.2192C25.9298 61.6857 25.9298 66.1548 25.9298 70.6213C24.7666 70.6213 23.6059 70.6213 22.4452 70.6213C22.4452 66.1548 22.4452 61.6857 22.4452 57.2192Z" fill="#C61C83"/>
<path d="M56.655 58.4561C58.1604 56.1237 61.65 56.1314 63.6369 57.7963C65.2334 59.1572 65.9 61.3402 65.9278 63.402C65.9887 65.4381 65.6237 67.6701 64.1868 69.1932C62.8639 70.7061 60.5907 71.0541 58.7737 70.384C57.9298 70.0927 57.3139 69.4046 56.7133 68.7654C56.7285 70.2654 56.7184 71.7654 56.7209 73.2628C55.5602 73.2628 54.397 73.2628 53.2363 73.2628C53.2363 67.8298 53.2363 62.3943 53.2363 56.9613C54.3767 56.9613 55.5171 56.9613 56.6601 56.9613C56.6576 57.4613 56.655 57.9587 56.655 58.4561ZM58.5304 59.7783C56.2571 60.835 56.2495 63.9716 57.0326 66.0335C57.7676 68.1417 61.1406 68.1159 61.9339 66.067C62.5472 64.4664 62.5852 62.5257 61.7438 61.0025C61.1406 59.8737 59.7215 59.2396 58.5304 59.7783Z" fill="black"/>
<path d="M67.9831 58.3557C68.9563 57.1366 70.5655 56.7423 72.0379 56.6521C73.6903 56.5773 75.5124 56.6624 76.8784 57.732C77.9985 58.6186 78.3862 60.1289 78.3888 61.5155C78.3888 64.4639 78.3888 67.415 78.3888 70.3634C77.3041 70.3634 76.2194 70.3634 75.1373 70.3634C75.0689 70.0103 75.0081 69.6598 74.9498 69.3067C73.3912 70.7423 71.1129 70.9691 69.1388 70.4846C68.1124 70.2062 67.2001 69.4562 66.863 68.415C66.3587 66.6469 66.6476 64.3273 68.3633 63.3376C70.0916 62.317 72.1748 62.4871 74.0349 61.8995C74.8738 61.6985 75.1348 60.4639 74.4429 59.9356C73.5965 59.3041 72.4307 59.3067 71.4703 59.6366C70.7657 59.9433 70.5073 60.7346 70.2817 61.415C69.1996 61.4021 68.1149 61.4098 67.0303 61.4072C67.1443 60.3454 67.2736 59.2036 67.9831 58.3557ZM70.9558 65.2191C70.0384 65.6933 69.8433 67.2217 70.7151 67.8351C71.9873 68.5 73.6877 67.8866 74.4429 66.6933C75.0055 65.915 74.9042 64.9098 74.9092 64C73.6573 64.6237 72.1951 64.5696 70.9558 65.2191Z" fill="black"/>
<path d="M82.3142 57.4974C84.3163 56.1211 87.4334 56.3118 88.845 58.469C88.8425 57.9665 88.8425 57.4639 88.8399 56.9613C90.0234 56.9613 91.2069 56.9613 92.3904 56.9613C92.3929 61.1494 92.3879 65.3376 92.3929 69.5257C92.3904 70.969 92.3346 72.5077 91.5465 73.7628C90.6494 75.3273 88.9616 76.2654 87.2357 76.5309C85.0233 76.8531 82.4967 76.4768 80.8951 74.7577C79.8991 73.7603 79.5012 72.3299 79.4379 70.9433C80.5251 70.9381 81.6148 70.9536 82.702 70.933C82.7577 71.7113 82.9934 72.536 83.6878 72.9716C85.112 73.8763 87.2104 73.6134 88.3179 72.3041C89.1238 71.3015 88.7563 69.9304 88.8526 68.75C87.9859 70.1933 86.1764 70.6237 84.6204 70.4381C82.9605 70.3531 81.3385 69.4226 80.5073 67.9458C79.7141 66.6314 79.5266 65.0541 79.4708 63.5438C79.4733 61.25 80.3578 58.7886 82.3142 57.4974ZM85.1551 59.8969C84.2605 60.134 83.6042 60.933 83.3736 61.8221C83.0669 63.0335 83.0111 64.3556 83.4166 65.5515C83.7689 66.4922 84.5368 67.3634 85.5479 67.5438C86.5794 67.7654 87.6919 67.2732 88.2824 66.3969C88.9134 65.4768 89.0477 64.2912 88.9261 63.1984C88.8348 62.2809 88.6473 61.2912 88.0138 60.5876C87.3168 59.7757 86.1308 59.652 85.1551 59.8969Z" fill="black"/>
<path d="M95.3935 58.1263C96.9394 56.6959 99.2025 56.415 101.194 56.7604C102.735 57.0026 104.134 58.0026 104.864 59.4047C105.703 61.0001 105.88 62.848 105.898 64.6264C102.892 64.6341 99.8868 64.6212 96.8811 64.6341C97.0104 65.6186 97.3044 66.6882 98.1407 67.299C99.39 68.2681 101.504 67.9099 102.152 66.3738C103.351 66.366 104.547 66.3635 105.746 66.3738C105.186 68.3892 103.602 70.1083 101.549 70.531C99.5269 70.9047 97.2283 70.732 95.5557 69.4073C93.8654 68.0258 93.3813 65.6856 93.3965 63.5851C93.3231 61.6057 93.8882 59.4743 95.3935 58.1263ZM98.057 60.1083C97.3804 60.6263 97.1675 61.5001 96.9774 62.2939C98.7514 62.3222 100.528 62.3119 102.304 62.3016C102.17 61.5877 102.018 60.8171 101.478 60.2965C100.622 59.348 99.0023 59.2423 98.057 60.1083Z" fill="black"/>
<path d="M107.429 58.5644C108.496 57.0644 110.45 56.67 112.16 56.6339C113.805 56.6108 115.683 56.737 116.904 58.0051C117.73 58.8015 118.032 59.9664 118.164 61.0772C117.039 61.0901 115.913 61.085 114.791 61.0824C114.598 60.4381 114.302 59.7087 113.595 59.5154C112.649 59.2525 111.562 59.2422 110.68 59.719C110.069 60.1288 110.328 61.0102 110.923 61.2834C112.827 62.2138 115.016 62.3556 116.909 63.3195C118.666 64.1906 118.861 66.6597 118.083 68.2757C117.158 70.0618 115.031 70.6855 113.176 70.6881C111.266 70.7809 109.19 70.4458 107.723 69.1004C106.866 68.3118 106.466 67.1468 106.41 65.9948C107.604 65.9638 108.797 65.9999 109.991 65.969C110.12 66.5515 110.285 67.201 110.84 67.5128C111.886 68.1623 113.26 68.1082 114.37 67.6546C115.148 67.3659 115.201 66.2525 114.545 65.8015C113.612 65.2293 112.492 65.1546 111.471 64.835C110.082 64.4226 108.599 63.9484 107.593 62.8324C106.732 61.6185 106.658 59.8427 107.429 58.5644Z" fill="black"/>
</g>
<defs>
<clipPath id="clip0_1195_2598">
<rect width="111" height="25" fill="white" transform="translate(8 52)"/>
</clipPath>
</defs>
</svg>
