<svg width="128" height="128" viewBox="0 0 128 128" fill="none" xmlns="http://www.w3.org/2000/svg">
<g clip-path="url(#clip0_1226_810)">
<rect width="128" height="128" fill="#E60023"/>
<g clip-path="url(#clip1_1226_810)">
<path d="M128 63.9999C128 99.3458 99.3467 128 64.0004 128C28.6544 128 0.000488281 99.3458 0.000488281 63.9999C0.000488281 28.6534 28.6544 0 64.0004 0C99.3467 0 128 28.6534 128 63.9999Z" fill="white"/>
<path d="M64 0C28.654 0 0 28.6539 0 63.9999C0 91.1138 16.8693 114.292 40.6767 123.617C40.1175 118.554 39.6117 110.766 40.8987 105.238C42.0618 100.243 48.4034 73.4259 48.4034 73.4259C48.4034 73.4259 46.4891 69.5919 46.4891 63.9239C46.4891 55.0247 51.6472 48.3808 58.0696 48.3808C63.5299 48.3808 66.1672 52.4803 66.1672 57.396C66.1672 62.8872 62.6711 71.0971 60.8669 78.7052C59.3591 85.0751 64.0613 90.2702 70.3443 90.2702C81.7191 90.2702 90.4631 78.276 90.4631 60.9629C90.4631 45.6391 79.4523 34.9253 63.7298 34.9253C45.5196 34.9253 34.8308 48.5838 34.8308 62.6994C34.8308 68.2001 36.9498 74.0984 39.594 77.3049C40.117 77.9387 40.1936 78.4938 40.0378 79.1406C39.5519 81.162 38.4723 85.509 38.2604 86.3988C37.9812 87.5702 37.3328 87.8189 36.1198 87.2544C28.1267 83.5338 23.1291 71.8473 23.1291 62.4607C23.1291 42.2721 37.7976 23.7314 65.4164 23.7314C87.618 23.7314 104.871 39.5519 104.871 60.6949C104.871 82.7516 90.9644 100.503 71.6611 100.503C65.1756 100.503 59.079 97.1333 56.992 93.1538C56.992 93.1538 53.7829 105.373 53.0049 108.368C51.5601 113.927 47.6595 120.895 45.0505 125.146C51.0386 127 57.4023 128 64 128C99.3467 128 128 99.3458 128 63.9999C128 28.6539 99.3467 0 64 0Z" fill="#E60023"/>
</g>
</g>
<defs>
<clipPath id="clip0_1226_810">
<rect width="128" height="128" fill="white"/>
</clipPath>
<clipPath id="clip1_1226_810">
<rect width="128" height="128" rx="64" fill="white"/>
</clipPath>
</defs>
</svg>
