<svg width="128" height="128" viewBox="0 0 128 128" fill="none" xmlns="http://www.w3.org/2000/svg">
<rect width="128" height="128" fill="#2D5CAB"/>
<path d="M64 22.2434C55.7413 22.2434 47.6681 24.6924 40.8013 29.2807C33.9345 33.8689 28.5824 40.3904 25.422 48.0204C22.2615 55.6505 21.4346 64.0463 23.0458 72.1463C24.657 80.2463 28.6339 87.6866 34.4737 93.5264C40.3134 99.3661 47.7537 103.343 55.8537 104.954C63.9537 106.565 72.3495 105.738 79.9796 102.578C87.6096 99.4176 94.1311 94.0655 98.7193 87.1987C103.308 80.3319 105.757 72.2587 105.757 64C105.757 52.9255 101.357 42.3045 93.5264 34.4736C85.6955 26.6427 75.0745 22.2434 64 22.2434ZM64 103.53C56.1818 103.53 48.5392 101.211 42.0386 96.8676C35.538 92.5241 30.4714 86.3504 27.4795 79.1273C24.4876 71.9042 23.7047 63.9561 25.23 56.2882C26.7553 48.6202 30.5201 41.5767 36.0484 36.0484C41.5767 30.5201 48.6202 26.7552 56.2882 25.23C63.9562 23.7047 71.9042 24.4875 79.1273 27.4794C86.3504 30.4713 92.5241 35.5379 96.8677 42.0385C101.211 48.5391 103.53 56.1818 103.53 64C103.53 69.1911 102.507 74.3313 100.521 79.1273C98.534 83.9232 95.6223 88.281 91.9516 91.9516C88.281 95.6223 83.9233 98.534 79.1273 100.521C74.3314 102.507 69.1911 103.53 64 103.53ZM50.143 32.3887H49.6791C41.8843 35.9221 35.6717 42.2133 32.2366 50.0518C28.8015 57.8903 28.3867 66.7223 31.0719 74.8483C33.7572 82.9743 39.3528 89.8202 46.782 94.0686C54.2112 98.317 62.9492 99.6677 71.3144 97.861C79.6797 96.0542 87.0813 91.2176 92.0949 84.2818C97.1086 77.3459 99.38 68.8009 98.4722 60.291C97.5643 51.7811 93.5414 43.9076 87.1775 38.1855C80.8135 32.4634 72.5582 29.297 64 29.2956H63.0412C62.3298 29.2956 61.9276 29.7905 61.9276 30.5947C61.9276 31.3989 62.3297 31.8938 63.0102 31.8938H63.8763C71.7622 31.9003 79.3672 34.8228 85.228 40.099C91.0888 45.3752 94.7914 52.6325 95.6234 60.4744C96.4553 68.3163 94.3579 76.1889 89.7347 82.5774C85.1114 88.966 78.2889 93.4191 70.5799 95.0801C62.8709 96.741 54.8199 95.4925 47.9761 91.5746C41.1323 87.6567 35.979 81.3464 33.5079 73.8576C31.0368 66.3689 31.4224 58.2308 34.5904 51.0092C37.7585 43.7876 43.4852 37.9927 50.6688 34.7395C51.2875 34.4611 51.4421 33.8425 51.1328 33.1001C51.0386 32.9096 50.8991 32.7452 50.7265 32.6211C50.554 32.4971 50.3536 32.4173 50.143 32.3887ZM49.7409 40.8019C49.4725 40.7972 49.2105 40.8845 48.9986 41.0493C45.208 43.5376 42.0958 46.9295 39.9421 50.9197C37.7883 54.9098 36.6607 59.3729 36.6607 63.9072C36.6607 68.4415 37.7883 72.9046 39.9421 76.8947C42.0958 80.8849 45.208 84.2768 48.9986 86.7651C49.2105 86.9299 49.4725 87.0172 49.7409 87.0125C50.0116 86.9994 50.2742 86.9153 50.5022 86.7687C50.7302 86.6221 50.9157 86.4182 51.04 86.1774C51.1754 86.0315 51.2786 85.8589 51.3431 85.6706C51.4076 85.4824 51.4318 85.2827 51.4144 85.0845C51.3969 84.8863 51.338 84.694 51.2415 84.5199C51.1451 84.3459 51.0132 84.194 50.8544 84.0741C47.5301 81.8782 44.8021 78.8923 42.9148 75.3837C41.0274 71.875 40.0394 67.9531 40.0394 63.9691C40.0394 59.985 41.0274 56.0631 42.9148 52.5544C44.8021 49.0458 47.5301 46.0599 50.8544 43.864C51.0147 43.759 51.1521 43.6227 51.2584 43.4632C51.3647 43.3038 51.4377 43.1245 51.473 42.9361C51.4866 42.504 51.356 42.0796 51.1019 41.7298C50.9797 41.4668 50.7888 41.2418 50.5492 41.0784C50.3096 40.9151 50.0303 40.8195 49.7409 40.8019ZM63.4123 88.0023C62.6391 88.0023 62.0514 88.5281 62.0514 89.6416C62.0514 90.7551 62.5772 91.25 63.4123 91.25H64C71.2518 91.25 78.2065 88.3693 83.3343 83.2415C88.4621 78.1137 91.3428 71.159 91.3428 63.9072C91.3428 56.6554 88.4621 49.7007 83.3343 44.5729C78.2065 39.4451 71.2518 36.5644 64 36.5644H63.4123C62.5772 36.5644 62.0514 37.2139 62.0514 38.2037C62.0514 39.1935 62.5772 39.843 63.4123 39.843H64C70.3904 39.843 76.5191 42.3816 81.0378 46.9003C85.5565 51.419 88.0951 57.5477 88.0951 63.9381C88.0951 70.3285 85.5565 76.4572 81.0378 80.9759C76.5191 85.4946 70.3904 88.0332 64 88.0332L63.4123 88.0023ZM47.9469 52.3081C48.0988 52.1108 48.2908 51.9479 48.5102 51.8302C48.7296 51.7124 48.9714 51.6425 49.2198 51.625C49.4682 51.6074 49.7175 51.6427 49.9512 51.7285C50.185 51.8142 50.3979 51.9485 50.576 52.1226C50.7954 52.2414 50.9864 52.4062 51.1362 52.6057C51.2859 52.8052 51.3908 53.0346 51.4437 53.2784C51.4965 53.5222 51.4961 53.7745 51.4425 54.0181C51.3888 54.2617 51.2832 54.4908 51.1328 54.6898C49.2199 57.4059 48.1931 60.6469 48.1931 63.9691C48.1931 67.2912 49.2199 70.5322 51.1328 73.2483C51.2832 73.4473 51.3888 73.6764 51.4425 73.92C51.4961 74.1636 51.4965 74.4159 51.4437 74.6597C51.3908 74.9035 51.2859 75.133 51.1362 75.3324C50.9864 75.5319 50.7954 75.6967 50.576 75.8156C50.3979 75.9896 50.185 76.1239 49.9512 76.2096C49.7175 76.2954 49.4682 76.3307 49.2198 76.3132C48.9714 76.2956 48.7296 76.2257 48.5102 76.1079C48.2908 75.9902 48.0988 75.8273 47.9469 75.63C45.5138 72.2285 44.2057 68.1512 44.2057 63.9691C44.2057 59.787 45.5138 55.7096 47.9469 52.3081Z" fill="url(#paint0_linear_1195_2632)"/>
<path d="M64.0619 75.1969C62.7937 75.1969 62.0514 74.2381 62.0514 72.7843C62.0514 71.3306 62.7937 70.4027 64.0619 70.4027C65.76 70.3452 67.3657 69.6156 68.5258 68.3743C69.686 67.1329 70.3055 65.4816 70.248 63.7835C70.1906 62.0854 69.461 60.4796 68.2197 59.3195C66.9783 58.1594 65.327 57.5399 63.6289 57.5973C62.0063 57.5124 60.4062 58.0056 59.113 58.9892V88.7756C59.113 90.1984 58.1232 90.9098 56.7313 90.9098C55.3394 90.9098 54.3496 90.1984 54.3496 88.7756V57.1643C54.4968 56.668 54.7463 56.2079 55.0818 55.8137C55.4174 55.4196 55.8318 55.0999 56.2982 54.8754C58.6631 53.5478 61.3194 52.8253 64.0309 52.7721C65.5488 52.6922 67.067 52.9223 68.4931 53.4481C69.9192 53.974 71.2232 54.7847 72.3259 55.8308C73.4285 56.877 74.3066 58.1367 74.9067 59.5331C75.5067 60.9296 75.8162 62.4336 75.8162 63.9536C75.8162 65.4735 75.5067 66.9776 74.9067 68.374C74.3066 69.7705 73.4285 71.0302 72.3259 72.0764C71.2232 73.1225 69.9192 73.9332 68.4931 74.4591C67.067 74.9849 65.5488 75.2149 64.0309 75.1351L64.0619 75.1969ZM64.0619 83.9194C62.7937 83.9194 62.0514 82.9606 62.0514 81.5068C62.0514 80.0531 62.7937 79.1251 64.0619 79.1251C68.0733 79.1251 71.9205 77.5316 74.757 74.6951C77.5935 71.8586 79.187 68.0114 79.187 64C79.187 59.9885 77.5935 56.1414 74.757 53.3049C71.9205 50.4684 68.0733 48.8748 64.0619 48.8748C62.0765 48.8453 60.1035 49.1917 58.2469 49.8955C57.6594 50.1606 57.0325 50.3278 56.391 50.3904C56.1054 50.3866 55.8234 50.3254 55.5619 50.2105C55.3003 50.0957 55.0645 49.9295 54.8683 49.7218C54.6722 49.5141 54.5197 49.2692 54.42 49.0015C54.3203 48.7338 54.2753 48.4488 54.2877 48.1634V30.3782C54.2877 29.11 55.1847 28.3368 56.6694 28.3368C58.1541 28.3368 59.0511 29.11 59.0511 30.3782V44.792C60.6567 44.3735 62.3099 44.1656 63.9691 44.1733C69.1041 44.376 73.9613 46.5584 77.5228 50.2631C81.0842 53.9679 83.0734 58.9074 83.0734 64.0464C83.0734 69.1854 81.0842 74.1249 77.5228 77.8296C73.9613 81.5344 69.1041 83.7168 63.9691 83.9194H64.0619Z" fill="white"/>
<defs>
<linearGradient id="paint0_linear_1195_2632" x1="34.492" y1="34.4611" x2="93.9101" y2="93.8791" gradientUnits="userSpaceOnUse">
<stop stop-color="white"/>
<stop offset="0.12" stop-color="white" stop-opacity="0.79"/>
<stop offset="0.24" stop-color="white" stop-opacity="0.62"/>
<stop offset="0.35" stop-color="white" stop-opacity="0.5"/>
<stop offset="0.44" stop-color="white" stop-opacity="0.43"/>
<stop offset="0.5" stop-color="white" stop-opacity="0.4"/>
<stop offset="0.56" stop-color="white" stop-opacity="0.43"/>
<stop offset="0.66" stop-color="white" stop-opacity="0.51"/>
<stop offset="0.77" stop-color="white" stop-opacity="0.65"/>
<stop offset="0.9" stop-color="white" stop-opacity="0.84"/>
<stop offset="1" stop-color="white"/>
</linearGradient>
</defs>
</svg>
