<svg width="128" height="128" viewBox="0 0 128 128" fill="none" xmlns="http://www.w3.org/2000/svg">
<rect width="128" height="128" fill="#FFCD04"/>
<g clip-path="url(#clip0_1195_2575)">
<path d="M3 44.0891H124V84.5776H3V44.0891ZM74.9283 44.7879C73.7882 45.2385 72.9149 46.7764 73.7004 47.8947C74.3347 48.8106 75.182 49.671 76.2554 50.0367C76.9125 50.2848 77.7191 49.862 77.8411 49.1616C77.8655 48.2539 77.4963 47.3935 77.0914 46.6017C76.7628 45.9895 76.418 45.3527 75.8683 44.9103C75.613 44.6834 75.2357 44.703 74.9283 44.7879ZM19.4944 45.9764C14.9796 46.6703 10.6828 48.8971 7.57328 52.2652C5.54523 54.4741 4.10103 57.2805 3.77414 60.2878C3.40984 63.3538 4.28319 66.4818 5.91116 69.0744C7.65785 71.8629 9.98352 74.2432 12.5092 76.3281C15.1585 78.4912 18.086 80.3442 21.2703 81.6013C23.274 82.3719 25.3996 82.9319 27.561 82.8682C29.755 82.8797 31.9701 82.0128 33.4696 80.3834C35.6261 78.1255 36.5612 75.0007 37.0459 71.9804C37.5761 68.4655 37.472 64.8737 36.9402 61.3653C36.5238 58.7254 35.8668 56.1034 34.7576 53.6659C33.5411 50.9999 31.474 48.7012 28.8556 47.3706C26.003 45.8654 22.6544 45.5225 19.4944 45.9764ZM51.6732 52.448C51.2813 52.7337 51.2764 53.2709 51.2634 53.71C51.2601 55.1385 51.0812 56.5573 50.8877 57.9695C49.8924 64.8443 48.1099 71.5674 46.5372 78.3215C46.3795 79.2406 45.9517 80.243 46.4185 81.141C46.7714 81.7891 47.2366 82.5613 48.0335 82.674C48.5702 82.3703 48.7198 81.7124 48.9296 81.1769C49.8371 78.2153 50.4421 75.1722 51.1512 72.1584C53.0995 72.6269 55.1243 72.0866 56.8824 71.2213C59.5268 69.9136 61.8948 68.01 63.6659 65.6378C64.8385 64.0493 65.8549 62.2583 66.0924 60.2633C66.3916 57.8176 65.6077 55.2414 63.9716 53.4031C63.1633 52.4921 61.8558 52.3272 60.7255 52.6113C58.2339 53.1549 56.3311 55.0602 54.8104 57.0062C54.9194 56.2308 55.03 55.4063 54.7389 54.6537C54.412 53.8129 53.7631 53.1288 53.0296 52.626C52.6425 52.3631 52.1058 52.1999 51.6732 52.448ZM72.697 52.6815C72.0042 53.3737 71.8399 54.412 71.565 55.3181C69.7289 62.1799 68.5043 69.1969 66.512 76.0179C66.12 77.1721 65.7395 78.3884 64.9247 79.3222C64.4026 79.9116 63.4805 80.1842 62.773 79.7679C61.5061 79.0512 60.7466 77.7533 59.8017 76.6905C59.5301 76.3672 59.0048 76.1028 58.634 76.426C58.029 77.066 57.559 78.0406 57.9428 78.9141C58.4112 79.9883 59.304 80.8063 60.2034 81.523C61.3955 82.4617 62.9552 82.9793 64.4693 82.7034C66.1135 82.4895 67.5057 81.363 68.3481 79.9704C69.589 78.0194 69.955 75.6979 70.5583 73.5037C71.8431 68.423 73.2093 63.3636 74.5038 58.2846C74.7201 57.3197 75.008 56.3581 75.0519 55.3638C75.0991 54.3369 74.4664 53.3868 73.6484 52.8252C73.3752 52.6635 72.993 52.5133 72.697 52.6815ZM84.9352 56.6324C83.5089 58.6715 83.1836 61.3212 83.6406 63.7309C84.0554 65.8598 85.3109 67.8565 87.1942 68.965C89.406 70.2858 92.2505 70.4099 94.6168 69.4385C96.7913 68.5389 98.3639 66.4949 98.899 64.2207C97.7638 64.0101 96.627 63.8044 95.4918 63.6019C95.1942 64.6844 94.5762 65.7145 93.6118 66.3186C92.0212 67.383 89.6955 67.0386 88.4693 65.5709C87.4935 64.4264 87.2153 62.8542 87.269 61.3881C87.3146 60.0331 87.7211 58.6078 88.7181 57.6462C89.9688 56.4022 92.0895 56.2128 93.5646 57.1581C94.4526 57.705 94.9795 58.6568 95.3308 59.6119C96.4985 59.3588 97.6695 59.1156 98.8388 58.8625C98.3395 57.1597 97.3426 55.5483 95.8285 54.5818C94.1224 53.4635 91.987 53.2072 90.0013 53.4896C87.983 53.7933 86.0915 54.9345 84.9352 56.6324ZM106.273 53.5631C103.869 53.999 101.756 55.71 100.862 57.9989C101.934 58.3531 103.012 58.6878 104.082 59.0519C104.565 57.9744 105.391 56.9866 106.546 56.6242C107.766 56.2422 109.295 56.2814 110.241 57.2495C110.9 57.9205 111.046 58.8935 111.085 59.7931C109.382 60.1767 107.673 60.531 105.97 60.9179C104.492 61.2853 102.971 61.7669 101.81 62.7987C100.028 64.3856 100.161 67.6181 102.09 69.0352C103.42 70.0409 105.195 70.2189 106.798 69.9642C108.485 69.6948 110.038 68.7512 111.074 67.3896C111.064 68.2189 111.127 69.0467 111.173 69.8744C112.451 69.8956 113.73 69.8793 115.008 69.8842C114.769 66.1325 114.962 62.3677 114.876 58.6111C114.769 56.8528 113.777 55.1549 112.224 54.3043C110.422 53.3231 108.259 53.2153 106.273 53.5631ZM79.0202 65.7472C78.1566 66.0917 77.563 67.0141 77.6427 67.9479C77.6313 69.1348 78.7714 70.1258 79.9293 70.0556C81.2174 70.1144 82.3753 68.8589 82.1623 67.5659C82.0485 66.0998 80.3392 65.1627 79.0202 65.7472ZM70.4477 80.4161L70.4559 80.6985C70.6575 80.6985 70.8592 80.7002 71.0625 80.7018C71.0609 81.2993 71.0609 81.8968 71.0625 82.496C71.1828 82.496 71.3048 82.496 71.4284 82.4976C71.4284 81.8985 71.4284 81.2993 71.4284 80.7018C71.6285 80.7002 71.8301 80.7002 72.0334 80.6985L72.0464 80.4161C71.513 80.4128 70.9812 80.4128 70.4477 80.4161ZM72.2416 80.4177C72.2416 81.1099 72.2416 81.8022 72.2416 82.4944L72.5669 82.496C72.5669 81.9915 72.5669 81.4887 72.5669 80.9842C72.8596 81.4969 72.8645 82.2626 73.4223 82.5613C73.6354 82.016 73.8501 81.4724 74.0696 80.9304C74.0712 81.4511 74.0712 81.9736 74.0712 82.496C74.1525 82.496 74.3152 82.496 74.3965 82.496C74.3965 81.8022 74.3965 81.1083 74.3965 80.4144C74.2778 80.4144 74.0436 80.4128 73.9249 80.4112C73.7248 80.9108 73.5264 81.412 73.3329 81.9132C73.1263 81.412 72.9279 80.9075 72.723 80.4079C72.562 80.4112 72.401 80.4144 72.2416 80.4177Z" fill="#FFCD04"/>
<path d="M59.374 56.598C60.0619 56.1866 60.9662 55.6984 61.7485 56.1327C62.547 56.7384 62.5974 57.86 62.6495 58.7808C62.7779 60.6387 62.0493 62.4492 60.9564 63.9169C59.4016 66.0948 57.1996 67.8107 54.6901 68.7314C53.7908 69.058 52.8361 69.1951 51.8831 69.2033C52.1904 67.9756 52.475 66.7413 52.8084 65.5218C54.038 61.9839 56.2449 58.7024 59.374 56.598Z" fill="#FFCD04"/>
<path d="M106.452 63.4207C107.985 63.0354 109.532 62.7056 111.071 62.3367C111.025 63.0975 111.178 63.886 110.979 64.6272C110.093 66.6092 107.579 67.7504 105.525 67.0467C104.607 66.7724 104.074 65.6786 104.461 64.7905C104.799 63.9938 105.676 63.6444 106.452 63.4207Z" fill="#FFCD04"/>
<path d="M74.9284 44.7878C75.2357 44.7029 75.613 44.6833 75.8684 44.9102C76.4181 45.3526 76.7629 45.9894 77.0914 46.6016C77.4964 47.3934 77.8655 48.2538 77.8411 49.1615C77.7192 49.8619 76.9125 50.2847 76.2554 50.0366C75.1821 49.6709 74.3347 48.8105 73.7005 47.8946C72.9149 46.7763 73.7883 45.2384 74.9284 44.7878Z" fill="#231F20"/>
<path d="M51.6732 52.4479C52.1058 52.1998 52.6425 52.363 53.0296 52.6259C53.7631 53.1287 54.412 53.8128 54.7389 54.6536C55.03 55.4062 54.9194 56.2307 54.8104 57.0062C56.3311 55.0601 58.2339 53.1549 60.7255 52.6112C61.8558 52.3271 63.1633 52.492 63.9716 53.403C65.6077 55.2413 66.3916 57.8176 66.0924 60.2632C65.8549 62.2582 64.8385 64.0492 63.6659 65.6377C61.8948 68.0099 59.5268 69.9135 56.8824 71.2212C55.1243 72.0865 53.0995 72.6269 51.1512 72.1583C50.4421 75.1721 49.8371 78.2153 48.9296 81.1768C48.7198 81.7123 48.5702 82.3702 48.0335 82.6739C47.2366 82.5612 46.7714 81.789 46.4185 81.1409C45.9518 80.2429 46.3795 79.2405 46.5372 78.3214C48.1099 71.5673 49.8924 64.8443 50.8877 57.9694C51.0812 56.5572 51.2601 55.1385 51.2634 53.7099C51.2764 53.2708 51.2813 52.7336 51.6732 52.4479ZM59.374 56.598C56.2449 58.7024 54.0379 61.984 52.8084 65.5218C52.475 66.7413 52.1904 67.9756 51.883 69.2033C52.8361 69.1951 53.7907 69.058 54.6901 68.7315C57.1995 67.8107 59.4016 66.0948 60.9564 63.917C62.0493 62.4492 62.7779 60.6387 62.6494 58.7808C62.5974 57.86 62.547 56.7384 61.7484 56.1327C60.9662 55.6984 60.0619 56.1866 59.374 56.598Z" fill="#231F20"/>
<path d="M72.6969 52.6814C72.9929 52.5133 73.3751 52.6635 73.6483 52.8251C74.4664 53.3867 75.099 54.3369 75.0519 55.3638C75.0079 56.358 74.7201 57.3196 74.5038 58.2845C73.2092 63.3635 71.8431 68.4229 70.5583 73.5036C69.9549 75.6978 69.589 78.0194 68.3481 79.9703C67.5056 81.3629 66.1135 82.4894 64.4692 82.7033C62.9551 82.9792 61.3954 82.4617 60.2033 81.5229C59.304 80.8062 58.4111 79.9883 57.9427 78.914C57.5589 78.0406 58.0289 77.0659 58.6339 76.4259C59.0047 76.1027 59.53 76.3672 59.8016 76.6904C60.7465 77.7532 61.506 79.0512 62.773 79.7679C63.4804 80.1842 64.4026 79.9115 64.9246 79.3222C65.7394 78.3883 66.12 77.172 66.5119 76.0178C68.5042 69.1968 69.7288 62.1799 71.565 55.3181C71.8398 54.412 72.0041 53.3736 72.6969 52.6814Z" fill="#231F20"/>
<path d="M84.9351 56.6324C86.0915 54.9345 87.9829 53.7933 90.0012 53.4896C91.987 53.2072 94.1224 53.4635 95.8284 54.5818C97.3425 55.5483 98.3395 57.1597 98.8387 58.8625C97.6694 59.1156 96.4984 59.3588 95.3307 59.6119C94.9794 58.6568 94.4525 57.705 93.5645 57.1581C92.0894 56.2128 89.9687 56.4022 88.718 57.6462C87.7211 58.6078 87.3145 60.0331 87.2689 61.3881C87.2153 62.8542 87.4934 64.4264 88.4692 65.5708C89.6954 67.0386 92.0211 67.383 93.6117 66.3186C94.5761 65.7145 95.1941 64.6843 95.4917 63.6019C96.6269 63.8044 97.7637 64.0101 98.8989 64.2207C98.3638 66.4949 96.7912 68.5389 94.6168 69.4385C92.2504 70.4099 89.4059 70.2858 87.1941 68.965C85.3108 67.8565 84.0553 65.8598 83.6406 63.7309C83.1836 61.3212 83.5088 58.6715 84.9351 56.6324Z" fill="#231F20"/>
<path d="M106.273 53.563C108.259 53.2153 110.422 53.323 112.224 54.3042C113.777 55.1548 114.769 56.8527 114.876 58.611C114.962 62.3676 114.769 66.1324 115.008 69.8841C113.73 69.8792 112.451 69.8955 111.173 69.8743C111.127 69.0466 111.064 68.2189 111.074 67.3895C110.038 68.7511 108.485 69.6947 106.798 69.9641C105.195 70.2188 103.42 70.0408 102.09 69.0352C100.161 67.6181 100.028 64.3855 101.81 62.7986C102.971 61.7668 104.492 61.2852 105.97 60.9179C107.673 60.5309 109.382 60.1767 111.085 59.793C111.046 58.8934 110.9 57.9204 110.241 57.2494C109.295 56.2813 107.766 56.2421 106.546 56.6241C105.391 56.9866 104.565 57.9743 104.082 59.0518C103.012 58.6877 101.934 58.3531 100.862 57.9988C101.756 55.7099 103.869 53.9989 106.273 53.563ZM106.452 63.4206C105.676 63.6443 104.799 63.9937 104.461 64.7904C104.074 65.6785 104.607 66.7724 105.525 67.0466C107.579 67.7503 110.093 66.6091 110.979 64.6271C111.178 63.8859 111.025 63.0974 111.071 62.3366C109.532 62.7056 107.985 63.0353 106.452 63.4206Z" fill="#231F20"/>
<path d="M79.0202 65.747C80.3391 65.1625 82.0484 66.0996 82.1623 67.5657C82.3753 68.8587 81.2174 70.1142 79.9293 70.0554C78.7713 70.1256 77.6313 69.1346 77.6427 67.9477C77.563 67.0139 78.1566 66.0914 79.0202 65.747Z" fill="#231F20"/>
<path d="M19.4944 45.9762C22.6544 45.5224 26.003 45.8652 28.8557 47.3705C31.4741 48.701 33.5412 50.9997 34.7577 53.6658C35.8668 56.1033 36.5239 58.7252 36.9402 61.3651C37.472 64.8736 37.5761 68.4653 37.0459 71.9803C36.5613 75.0006 35.6261 78.1254 33.4696 80.3833C31.9701 82.0126 29.755 82.8795 27.5611 82.8681C25.3997 82.9318 23.274 82.3718 21.2704 81.6012C18.086 80.3441 15.1586 78.4911 12.5093 76.3279C9.98355 74.2431 7.65788 71.8627 5.91119 69.0743C4.28322 66.4817 3.40987 63.3536 3.77417 60.2876C4.10107 57.2804 5.54526 54.4739 7.57331 52.265C10.6829 48.897 14.9797 46.6701 19.4944 45.9762ZM13.0134 54.0903C13.69 55.158 14.3747 56.2208 15.048 57.2918C15.9376 58.7072 16.0157 60.5913 15.2301 62.0704C14.6121 63.1463 13.7778 64.0785 13.0736 65.0972C13.7176 65.9103 14.9407 66.1894 15.827 65.6131C16.85 64.8621 17.6095 63.7814 18.7056 63.1267C19.9173 62.4818 21.5501 62.8867 22.3308 64.0165C24.5621 67.1706 26.7707 70.3428 29.0069 73.4953C29.7046 74.4292 31.1521 74.4292 31.9831 73.6717C29.433 68.302 26.891 62.9275 24.3458 57.5563C23.8384 56.5114 23.0642 55.5792 22.0575 54.9915C20.9272 54.3188 19.5936 54.0723 18.2925 54.0854C16.5328 54.0919 14.7731 54.0837 13.0134 54.0903ZM19.3724 63.7683C18.2389 66.2123 17.0533 68.6351 15.9051 71.0742C15.6693 71.5395 15.6497 72.075 15.6953 72.586C15.8498 73.3713 16.4889 73.9198 17.0614 74.421C18.6943 71.6734 20.3336 68.9273 21.9291 66.1584C22.4788 64.725 20.7142 63.3634 19.3724 63.7683Z" fill="black"/>
<path d="M70.4478 80.416C70.9812 80.4128 71.513 80.4128 72.0464 80.416L72.0334 80.6985C71.8301 80.7001 71.6285 80.7001 71.4284 80.7017C71.4284 81.2993 71.4284 81.8984 71.4284 82.4976C71.3048 82.496 71.1829 82.496 71.0625 82.496C71.0609 81.8968 71.0609 81.2993 71.0625 80.7017C70.8592 80.7001 70.6576 80.6985 70.4559 80.6985L70.4478 80.416Z" fill="black"/>
<path d="M72.2416 80.4178C72.401 80.4145 72.562 80.4112 72.723 80.408C72.9279 80.9075 73.1263 81.412 73.3329 81.9132C73.5264 81.412 73.7248 80.9108 73.9248 80.4112C74.0436 80.4129 74.2778 80.4145 74.3965 80.4145C74.3965 81.1083 74.3965 81.8022 74.3965 82.4961C74.3152 82.4961 74.1525 82.4961 74.0712 82.4961C74.0712 81.9736 74.0712 81.4512 74.0696 80.9304C73.85 81.4724 73.6354 82.0161 73.4223 82.5614C72.8645 82.2626 72.8596 81.4969 72.5668 80.9843C72.5668 81.4887 72.5668 81.9916 72.5668 82.4961L72.2416 82.4944C72.2416 81.8022 72.2416 81.11 72.2416 80.4178Z" fill="black"/>
<path d="M13.0134 54.0903C14.7731 54.0838 16.5328 54.092 18.2925 54.0855C19.5936 54.0724 20.9272 54.3189 22.0575 54.9915C23.0642 55.5793 23.8384 56.5115 24.3458 57.5564C26.891 62.9276 29.433 68.3021 31.9831 73.6717C31.152 74.4293 29.7046 74.4293 29.0069 73.4954C26.7707 70.3429 24.5621 67.1707 22.3308 64.0166C21.5501 62.8868 19.9173 62.4819 18.7056 63.1268C17.6095 63.7815 16.85 64.8622 15.827 65.6132C14.9406 66.1895 13.7176 65.9104 13.0736 65.0973C13.7778 64.0786 14.6121 63.1464 15.2301 62.0705C16.0157 60.5914 15.9376 58.7073 15.048 57.2919C14.3747 56.2209 13.69 55.1581 13.0134 54.0903Z" fill="white"/>
<path d="M19.3724 63.7684C20.7141 63.3635 22.4787 64.7251 21.929 66.1586C20.3336 68.9274 18.6942 71.6735 17.0614 74.4211C16.4889 73.9199 15.8497 73.3714 15.6952 72.5861C15.6497 72.0751 15.6692 71.5396 15.905 71.0743C17.0532 68.6352 18.2388 66.2124 19.3724 63.7684Z" fill="white"/>
</g>
<defs>
<clipPath id="clip0_1195_2575">
<rect width="121" height="40.4885" fill="white" transform="translate(3 44.0891)"/>
</clipPath>
</defs>
</svg>
