<svg width="128" height="128" viewBox="0 0 128 128" fill="none" xmlns="http://www.w3.org/2000/svg">
<rect width="128" height="128" fill="#F2F3F2"/>
<path d="M63.5577 29.2428C55.623 29.2428 48.4998 32.9878 43.5003 38.9454V29.9044H28.873V109.657H43.0321V79.9262V79.4035C48.0473 85.6872 55.3718 89.6709 63.5545 89.6709C78.6702 89.6709 90.9256 76.1438 90.9256 59.4569C90.9256 42.7699 78.6748 29.2428 63.5577 29.2428ZM62.1424 79.5127C52.109 79.5127 43.9746 70.5326 43.9746 59.4569C43.9746 48.3811 52.109 39.401 62.1424 39.401C72.1758 39.401 80.3101 48.3811 80.3101 59.4569C80.3101 70.5326 72.1773 79.5127 62.1439 79.5127H62.1424Z" fill="#0F3E73"/>
<path d="M75.5322 18.3434L99.1271 43.3535V18.3434H75.5322Z" fill="#B1D81E"/>
</svg>
