<svg width="128" height="128" viewBox="0 0 128 128" fill="none" xmlns="http://www.w3.org/2000/svg">
<rect width="128" height="128" fill="black"/>
<path d="M69.2648 65.9497C69.7477 65.4302 70.0597 64.775 70.1587 64.0726L71.6336 55.1341C71.6336 55.1341 72.0716 52.2916 70.2391 53.1676L69.962 53.2928L67.5755 54.1866C67.5755 54.1866 66.3777 54.276 66.4045 56.6C66.4313 58.924 67.1643 65.4402 67.1643 65.4402C67.1643 65.4402 67.5576 67.7285 69.2648 65.9497Z" fill="#ED612A"/>
<path d="M68.3262 73.6011C69.6739 73.6011 70.7664 72.5086 70.7664 71.1609C70.7664 69.8132 69.6739 68.7206 68.3262 68.7206C66.9785 68.7206 65.886 69.8132 65.886 71.1609C65.886 72.5086 66.9785 73.6011 68.3262 73.6011Z" fill="#ED612A"/>
<path d="M51.3698 55.6257C54.6194 54.8901 57.9631 54.661 61.2826 54.9464L61.8279 57.6279L58.5743 57.8335V73.6279L55.1955 73.2257L55.0257 58.3698L52.0759 58.781L51.3698 55.6257Z" fill="white"/>
<path d="M87.8659 74.1821L85.5062 71.3307C86.7368 69.2631 87.3566 66.8892 87.2939 64.4838C87.2939 59.228 84.6123 54.9643 81.3408 54.9643C78.0693 54.9643 75.4146 59.2012 75.4146 64.4838C75.4146 69.7665 78.0961 74.0034 81.3766 74.0034C82.0677 74.0138 82.7492 73.8411 83.352 73.5028L84.4782 75.2905L87.8659 74.1821ZM81.3766 71.0715C79.7497 71.0715 78.4447 68.1218 78.4447 64.4838C78.4447 60.8458 79.7497 57.8961 81.3766 57.8961C83.0034 57.8961 84.3084 60.8458 84.3084 64.4838C84.3334 66.0093 84.0695 67.5257 83.5307 68.9531L80.8492 68.5419L81.3497 70.3296L81.7967 71.0358C81.6589 71.0665 81.5176 71.0785 81.3766 71.0715Z" fill="white"/>
<path d="M90.1273 55.4648L93.372 55.7777L93.1575 67.7285C93.1439 68.1946 93.2073 68.6597 93.3452 69.1051C93.4232 69.5291 93.6423 69.9144 93.9668 70.1983C94.2913 70.4822 94.7022 70.6482 95.1329 70.6693C96.9206 70.6157 97.0278 67.9877 97.0278 67.9877V54.9643L100.773 55.4112L100.898 65.5565C100.926 66.9148 100.702 68.2665 100.237 69.543C99.5306 71.4559 98.1005 73.6369 95.2669 73.7352C94.223 73.8078 93.1833 73.5429 92.3013 72.9796C91.4193 72.4163 90.7418 71.5845 90.3686 70.6067C89.9225 69.5916 89.7146 68.4878 89.7608 67.3799L90.1273 55.4648Z" fill="white"/>
<path d="M104.492 55.9386L112.956 55.3218L113.162 58.7095L107.54 58.638L107.477 63.0447L112.071 62.7676L112.545 65.4492H107.406L107.54 70.4547C109.243 70.353 110.938 70.1501 112.617 69.8469L113.314 72.6536C113.314 72.6536 109.738 74.3162 104.188 73.2704L104.492 55.9386Z" fill="white"/>
<path d="M25.1173 59.4693C25.0434 58.8113 24.8287 58.177 24.4879 57.6094C24.147 57.0418 23.688 56.5543 23.1419 56.1799C19.4682 53.6592 14.8737 55.6257 14.8737 55.6257L14.686 73.6905L18.2614 74.0391L18.1006 67.8268C18.6646 67.7875 19.224 67.6978 19.7721 67.5586C21.5005 67.1011 23.0003 66.024 23.9859 64.5323C24.9716 63.0407 25.3743 61.2386 25.1173 59.4693ZM17.9665 65.2078L18.1363 57.762C18.1363 57.762 21.9262 56.8681 21.8905 60.5061C21.8547 64.1441 17.9665 65.2078 17.9665 65.2078Z" fill="white"/>
<path d="M33.9576 65.9766L35.4861 64.6805C36.896 63.5056 37.8118 61.843 38.0514 60.0235C38.2112 59.1965 38.1114 58.3404 37.7658 57.5724C37.4202 56.8043 36.8456 56.1619 36.1207 55.733C32.152 53.3375 26.9587 56.0011 26.9587 56.0011L26.7799 73.5028L30.3017 74.0391L30.3464 66.352L36.1654 74.3341L38.5252 72.3765L33.9576 65.9766ZM30.3196 64.8324L30.4269 57.9676C31.0778 57.5511 31.8461 57.3566 32.6168 57.4134C32.945 57.4167 33.2692 57.4861 33.5699 57.6175C33.8707 57.749 34.1418 57.9397 34.3672 58.1784C34.5925 58.4171 34.7673 58.6987 34.8813 59.0065C34.9952 59.3144 35.0458 59.642 35.0302 59.9699C35.057 62.4637 30.3196 64.8324 30.3196 64.8324Z" fill="white"/>
<path d="M48.295 55.733L43.3877 55.295L38.7844 74.0659L42.6727 74.2715L43.6201 69.4L47.1956 69.3285L47.8391 72.9844L51.495 73.1899L48.295 55.733ZM43.8883 66.8615L45.4168 59.0492H45.819L46.838 66.6559L43.8883 66.8615Z" fill="white"/>
</svg>
