<svg width="128" height="128" viewBox="0 0 128 128" fill="none" xmlns="http://www.w3.org/2000/svg">
<rect width="128" height="128" fill="#249ED8"/>
<path d="M66.9029 59.3894C71.4423 59.3894 75.1222 55.7095 75.1222 51.1701C75.1222 46.6306 71.4423 42.9507 66.9029 42.9507C62.3634 42.9507 58.6835 46.6306 58.6835 51.1701C58.6835 55.7095 62.3634 59.3894 66.9029 59.3894Z" fill="white"/>
<path d="M66.9028 23.3069C51.7888 23.3069 39.5381 35.5576 39.5381 50.6716C39.5381 58.6915 42.9996 65.9138 48.4982 70.928L33.9825 97.438L33.7974 97.7657C33.7404 97.9224 33.7404 98.0933 33.7546 98.2927C33.9398 99.6033 35.9056 101.541 38.6976 103.022C41.333 104.418 43.9113 104.988 45.1791 104.546C45.3643 104.489 45.5068 104.404 45.635 104.304L45.9911 103.649L60.4213 77.2813C62.5011 77.7799 64.6663 78.0648 66.8886 78.0648C82.0025 78.0648 94.2533 65.8141 94.2533 50.7001C94.2817 35.5576 82.0168 23.3069 66.9028 23.3069ZM66.9028 66.4693C58.1848 66.4693 51.1051 59.4038 51.1051 50.6716C51.1051 41.9536 58.1706 34.8738 66.9028 34.8738C75.6208 34.8738 82.7005 41.9394 82.7005 50.6716C82.7005 59.4038 75.635 66.4693 66.9028 66.4693Z" fill="white"/>
</svg>
