<svg width="128" height="128" viewBox="0 0 128 128" fill="none" xmlns="http://www.w3.org/2000/svg">
<rect width="128" height="128" fill="white"/>
<path fill-rule="evenodd" clip-rule="evenodd" d="M66.3372 78.3781C66.3372 74.8711 67.9009 71.6609 70.4916 69.166C66.6116 71.3139 64.1418 74.5223 64.1418 78.113C64.1418 81.3446 66.1381 84.2702 69.367 86.3892C67.4544 84.0999 66.3372 81.3437 66.3372 78.3781Z" fill="#FECF0F"/>
<path fill-rule="evenodd" clip-rule="evenodd" d="M76.0129 77.396C76.0976 72.636 78.6892 68.8871 81.159 65.5243C81.5497 64.9932 77.7841 65.1029 78.1394 64.5643C74.2594 67.9439 72.5125 72.9941 72.5125 78.6443C72.5125 83.7299 74.0194 88.0592 77.2473 91.3941C76.9757 90.8815 81.4538 91.2425 81.0901 90.7764C78.8948 87.9625 75.8762 85.0815 76.0129 77.396Z" fill="#FECF0F"/>
<path fill-rule="evenodd" clip-rule="evenodd" d="M91.8178 75.1994C90.9852 75.1994 90.2122 75.3687 89.5694 75.6571C88.935 75.9426 87.3499 72.8515 87.0373 73.324C86.815 73.6617 87.8271 78.4496 87.935 78.6952C88.4299 79.8217 89.9815 80.644 91.8178 80.644C94.0531 80.644 95.8661 79.4245 95.8661 77.9222C95.8661 76.4189 94.0531 75.1994 91.8178 75.1994Z" fill="#0C0C0B"/>
<path fill-rule="evenodd" clip-rule="evenodd" d="M92.8307 87.2988L87.894 83.0653C87.1461 82.4244 86.0195 82.5109 85.3777 83.2579C84.7367 84.0067 84.8233 85.1332 85.5712 85.7741L89.053 88.7593C87.2456 89.2755 85.2912 89.6132 83.2316 89.7109C81.3079 87.2681 79.3321 84.1946 79.4428 77.9444C79.5256 73.3602 81.9321 69.7183 84.3163 66.4514C93.0474 67.2179 99.7879 72.109 99.7879 78.0448C99.7879 81.816 97.0567 85.1602 92.8307 87.2988ZM77.2149 89.3276C75.2047 86.8197 73.013 83.762 73.1302 77.1899C73.2037 73.0951 75.133 69.7518 77.2419 66.7565C78.227 66.5816 79.2391 66.4523 80.2828 66.389C77.306 69.7044 75.9442 74.2141 75.9442 79.1927C75.9442 83.1462 76.8679 86.6346 78.7888 89.562C78.2549 89.4997 77.7312 89.4197 77.2149 89.3276ZM57.9823 56.7173C51.1265 52.4857 46.7712 47.108 48.2549 44.7052C49.7377 42.3034 56.4967 43.7871 63.3516 48.0187C70.2074 52.2504 74.5619 57.628 73.0791 60.0308C71.5963 62.4327 64.8363 60.949 57.9823 56.7173ZM65.1907 37.2514C66.4037 36.3416 71.1181 40.5769 75.7209 46.7118C80.3256 52.8458 83.0735 58.5565 81.8614 59.4662C80.6484 60.3769 75.934 56.1407 71.3302 50.0067C66.7265 43.8718 63.9777 38.1611 65.1907 37.2514ZM67.2586 84.71C65.254 82.8179 64.0726 80.523 64.0726 78.0449C64.0726 75.4746 65.3507 73.1053 67.4921 71.1742C66.7237 73.4049 66.3377 75.8532 66.3377 78.4384C66.3377 80.6877 66.6502 82.7779 67.2586 84.71ZM87.8549 62.6067C87.307 58.6457 84.28 52.4197 79.5898 46.1704C72.7553 37.0625 64.9814 31.3555 62.2251 33.4234C60.4893 34.7267 61.1628 38.8067 63.6056 43.923C54.8781 39.2755 46.6167 38.2681 44.4037 41.8532C41.9563 45.8178 47.827 53.8811 57.5163 59.8625C61.6558 62.4178 65.8177 64.176 69.4195 65.043C63.8642 67.9778 60.2307 72.775 60.2307 78.2085C60.2307 87.1462 70.0279 94.3918 82.1144 94.3918C94.2019 94.3918 104 87.1462 104 78.2085C104 70.7416 97.1526 64.4736 87.8549 62.6067Z" fill="#0C0C0B"/>
<path fill-rule="evenodd" clip-rule="evenodd" d="M47.1526 82.2007C44.547 82.3189 41.8754 82.5803 39.4735 82.6156C38.36 82.6231 37.1098 82.4166 35.8326 82.2407L31.9647 81.6789C29.3563 81.3347 26.7256 81.0054 24 80.9635C26.3628 82.3291 28.8437 83.3254 31.3749 84.1924C32.6419 84.6193 33.9293 84.9886 35.2474 85.3021C36.5619 85.6007 37.9209 85.8919 39.4521 85.9077C42.3321 85.8659 44.9033 85.3626 47.5237 84.7635C50.1172 84.1198 52.6772 83.3505 55.1526 82.1989C52.4335 81.9924 49.7833 82.0789 47.1526 82.2007Z" fill="#0C0C0B"/>
<path fill-rule="evenodd" clip-rule="evenodd" d="M55.2898 74.9251C52.74 74.0823 50.1623 73.5828 47.5791 73.167C44.9949 72.7707 42.4005 72.5028 39.8014 72.3493C37.1958 72.2628 34.58 72.3568 31.9679 72.5419C29.354 72.7577 26.7419 73.0516 24.1372 73.6907C26.1595 74.2628 28.1772 74.6228 30.193 74.9019C28.1716 75.1056 26.1521 75.3921 24.1372 75.8861C26.7288 76.6191 29.313 77.0079 31.8963 77.3177C34.4795 77.6154 37.0619 77.7447 39.6507 77.8349C42.2395 77.9921 44.833 78.0349 47.4367 77.9484C50.0405 77.8433 52.6516 77.6554 55.2898 77.1205C53.3084 76.4656 51.3102 76.0209 49.3056 75.6582C51.2907 75.5363 53.2823 75.3316 55.2898 74.9251Z" fill="#0C0C0B"/>
</svg>
