<svg width="128" height="129" viewBox="0 0 128 129" fill="none" xmlns="http://www.w3.org/2000/svg">
<g clip-path="url(#clip0_546_1611)">
<rect width="128" height="128" transform="translate(0 0.111328)" fill="#ABC552"/>
<path d="M96.9732 67.6067L96.8399 67.5436C97.8636 66.534 98.5226 65.4263 98.5226 64.2484C98.5226 62.5658 97.8916 61.1355 96.7979 59.8525C95.4167 58.2329 93.6219 57.1182 91.9532 55.9052C90.2005 54.6292 88.7001 53.0447 86.8071 51.937C86.071 51.5023 85.482 51.4252 84.7739 51.8388C84.1429 52.2034 83.5189 52.6311 82.8389 52.8414C81.6259 53.213 81.2474 53.9772 81.2614 55.1901C81.2754 56.8798 81.2824 58.5765 81.2824 60.2661C81.2824 63.1617 81.2824 66.0573 81.2824 68.9528C81.2824 69.4506 81.325 70.3081 81.128 70.6417L71.1994 65.1632C71.2064 62.3869 71.2566 58.3521 71.2566 55.5757C71.2566 50.8222 71.2566 46.0617 71.2846 41.3082C71.2917 40.0953 70.7939 39.4223 69.8614 38.7562C67.9754 37.4101 66.2016 35.9027 64.3507 34.5075C61.4832 32.3481 58.8821 29.782 55.7411 28.0433C54.0024 27.0898 52.0323 26.3116 49.929 26.3256C49.4242 26.3256 48.9194 26.3466 48.4146 26.3186C45.6732 26.1503 43.0932 26.7463 40.4851 27.5736C38.3537 28.2466 36.3906 29.2141 34.5327 30.357C32.3102 31.7171 30.4452 33.5259 29.6179 36.1341C29.4777 36.5968 29.4777 37.1296 29.4777 37.6274L31.574 41.2521C34.7851 44.2949 38.4519 46.7488 41.9153 49.4691C44.86 51.7827 47.8607 54.0333 50.7773 56.382C53.3363 58.4433 56.0146 60.3432 58.5315 62.4606C61.1537 64.6761 63.9581 66.6812 66.6854 68.7776C68.0315 69.8152 69.3286 70.9299 70.7448 71.8624C71.9226 72.6336 73.1776 73.2716 74.5308 73.7764C77.4964 74.8702 80.5322 74.4355 83.5189 74.3093C85.2997 74.2322 87.1016 73.5451 88.8123 72.844C90.4809 72.1499 92.0935 71.3576 93.6289 70.3831C94.4982 69.8292 95.1643 69.072 95.8934 68.3849C96.216 68.1325 96.5104 67.8731 96.7839 67.6067C96.8399 67.5927 96.903 67.5927 96.9732 67.6067ZM82.4322 54.9728C83.0422 54.5942 83.3366 55.1621 83.7152 55.4425C86.085 57.1672 88.4617 58.8779 90.8174 60.6237C92.7174 62.0329 93.054 63.8137 92.2547 65.4052C92.0724 65.7698 91.834 66.1204 91.5396 66.4569C91.5045 66.4919 91.4695 66.534 91.4414 66.5691C91.3293 66.6953 91.2031 66.8145 91.0769 66.9336C91.0348 66.9757 90.9927 67.0178 90.9436 67.0528C90.7754 67.2001 90.5931 67.3473 90.3968 67.4875C88.7211 68.6934 86.8913 69.5698 84.9492 70.2218C84.5145 70.3691 84.0378 70.4111 83.575 70.4251C82.257 70.4672 81.9905 70.2078 81.9835 68.9038C81.9695 66.8074 81.9835 64.7111 81.9835 62.6148C81.9835 61.9418 81.9835 61.2687 81.9835 60.6027C81.9835 59.1794 81.9835 57.7562 81.9835 56.3329C81.9835 55.8351 81.9134 55.2953 82.4322 54.9728ZM51.3522 51.2149C48.4286 48.9292 45.54 46.6016 42.6164 44.323C41.1862 43.2082 39.6858 42.1846 38.2696 41.0488C38.1013 40.9156 37.933 40.7824 37.7578 40.6492C37.7437 40.6422 37.7367 40.6282 37.7227 40.6211C37.5544 40.4879 37.3862 40.3547 37.2249 40.2145C37.2109 40.2075 37.2039 40.1935 37.1899 40.1865C36.8463 39.892 36.5168 39.5835 36.2364 39.233C35.9209 38.8473 35.6615 38.4197 35.4862 37.9009C34.9744 36.3795 36.012 34.7669 36.9585 33.9186C38.8024 32.264 40.9969 31.1632 43.3175 30.5533C46.76 29.6418 50.2865 29.4455 53.3924 31.7311C55.9094 33.582 58.3282 35.5732 60.8101 37.4802C62.1913 38.5389 63.5304 39.6466 64.8835 40.7333C65.6407 41.3363 65.837 41.9883 65.837 42.8296C65.837 45.7042 65.837 48.5857 65.837 51.4602C65.837 51.9931 65.837 52.5329 65.837 53.0658C65.837 55.3654 65.837 57.672 65.837 59.9717C65.837 60.1469 65.8511 60.3362 65.8511 60.5325L52.6633 52.2315C52.2286 51.8949 51.7869 51.5584 51.3522 51.2149Z" fill="white"/>
<path d="M31.863 36.8541L31.3367 128.106H28.7432L29.4946 36.9092L31.863 36.8541Z" fill="white"/>
<path d="M98.5198 64.1771L97.9933 128.111H95.3998L96.1514 64.2322L98.5198 64.1771Z" fill="white"/>
<path d="M31.6936 64.4881C31.6936 56.9442 31.5244 50.7083 31.5244 43.1644C31.5244 42.7788 31.5033 42.3792 31.5664 42.0006C31.6646 41.3836 31.938 41.1522 32.4849 41.6711C35.6959 44.7139 37.1158 45.8842 40.5792 48.6045C43.5239 50.9182 46.5246 53.1687 49.4412 55.5174C52.0002 57.5787 54.6785 59.4787 57.1954 61.596C59.8176 63.8115 62.622 65.8167 65.3493 67.913C66.6954 68.9506 67.9925 70.0654 69.4087 70.9978C70.5865 71.769 71.8415 72.407 73.1947 72.9118C76.1603 74.0056 79.1961 73.5709 82.1828 73.4447C83.9636 73.3676 85.7655 72.6805 87.4762 71.9794C89.1448 71.2853 90.7574 70.493 92.2928 69.5185C93.3304 68.8524 94.0666 67.9059 94.978 67.1277C95.1743 66.9595 95.3075 66.644 95.6371 66.7421C96.0087 66.8543 96.0157 67.2048 96.0297 67.5063C96.0577 68.0462 96.0507 68.593 96.0507 69.1399C96.0507 74.931 95.9526 80.7292 96.1068 86.5203C96.1559 88.3572 95.4127 89.4018 94.0806 90.3203C90.7083 92.655 87.35 95.0317 83.543 96.5952C81.2153 97.5487 78.8736 98.4742 76.3917 99.1051C75.0806 99.4347 73.6293 99.4066 72.4164 100.157C72.2902 100.234 72.122 100.269 71.9677 100.283C67.2703 100.746 62.5799 101.545 57.8404 100.837C55.3305 100.458 52.7714 100.255 50.3526 99.5539C47.9128 98.8457 45.4729 98.0395 43.0822 97.107C39.5556 95.7328 36.4287 93.6996 33.2176 91.7996C31.8995 91.0214 31.8642 90.9702 31.9126 88.9404C31.4638 88.5548 31.6111 87.9238 31.6111 87.3839C31.6111 79.7629 31.8522 74.4873 31.8522 66.8662L31.6936 64.4881Z" fill="#ABC552"/>
<path d="M66.1387 51.39C66.1387 54.2295 66.1387 57.0689 66.1387 59.9084C66.1387 60.4413 66.2719 61.1704 65.7671 61.4158C65.2482 61.6682 64.6523 61.2475 64.1966 60.904C62.4789 59.5859 60.7891 58.2328 59.0784 56.9077C56.6105 54.9937 54.1216 53.0937 51.6607 51.1726C48.7371 48.887 45.8485 46.5594 42.9249 44.2808C41.4947 43.166 39.9943 42.1424 38.5781 41.0066C37.4773 40.1232 36.2504 39.331 35.8017 37.8587C35.3039 36.2181 36.0681 34.9981 37.1759 33.9605C39.0338 32.2148 41.3194 31.0649 43.7312 30.476C47.7415 29.4874 51.6046 29.5926 54.9769 32.6915C57.2415 34.7738 59.8708 36.4564 62.3176 38.3424C63.4534 39.2118 64.5542 40.1232 65.6479 41.0487C66.1737 41.4974 66.1527 42.1564 66.1527 42.7804C66.1527 45.6549 66.1527 48.5365 66.1527 51.411L66.1387 51.39Z" fill="#ABC552"/>
<path d="M82.2711 62.5516C82.2711 60.4202 82.2711 58.2819 82.2711 56.1505C82.2711 55.6808 82.2501 55.197 82.7338 54.9095C83.2877 54.587 83.5471 55.0778 83.9257 55.3162C86.4287 56.8656 88.581 58.8708 91.0139 60.5254C93.9515 62.5236 93.3696 65.5173 90.6774 67.4453C89.0017 68.6512 87.1718 69.5206 85.2298 70.1796C84.76 70.3339 84.2412 70.3409 83.7434 70.3829C82.7198 70.4671 82.2501 70.0184 82.2641 68.9597C82.2991 66.8283 82.2711 64.69 82.2711 62.5586V62.5516Z" fill="#ABC552"/>
<path d="M71.0394 53.0586C71.0394 56.7114 71.0394 60.3641 71.0394 64.0169C71.0394 64.4656 71.1796 65.0195 70.6818 65.2859C70.177 65.5593 69.8124 65.1457 69.4479 64.8723C68.6767 64.2903 67.9195 63.7014 67.1553 63.1055C66.7065 62.7549 66.6505 62.2571 66.6505 61.7383C66.6505 55.5966 66.6505 49.462 66.6364 43.3203C66.6364 42.6121 66.9449 42.0933 67.4778 41.7638C68.1228 41.3572 68.8239 41.0066 69.546 40.7753C70.822 40.3616 71.0254 40.5158 71.0324 41.869C71.0534 45.5989 71.0394 49.3287 71.0394 53.0586Z" fill="#ABC552"/>
</g>
<defs>
<clipPath id="clip0_546_1611">
<rect width="128" height="128" fill="white" transform="translate(0 0.111328)"/>
</clipPath>
</defs>
</svg>
