<svg width="128" height="128" viewBox="0 0 128 128" fill="none" xmlns="http://www.w3.org/2000/svg">
<rect width="128" height="128" fill="#2A385A"/>
<path d="M95.5293 38.0589C95.3825 37.7665 95.0911 37.6197 94.7997 37.6197H89.0361C88.7446 37.6197 88.4532 37.7665 88.3075 38.0589L78.1683 57.3206C78.0225 55.6359 77.0004 53.9522 75.6146 52.9258C73.3534 51.3156 69.4149 50.2169 64.9638 49.8499C62.4111 49.6298 54.8979 49.2639 52.5644 48.4588C50.8137 47.7993 49.9384 46.8463 49.9384 45.4552C49.9384 41.6475 57.0857 41.3529 59.4937 41.3529C64.7457 41.3529 68.831 42.4516 72.26 44.2097C72.6238 44.4288 73.0609 44.2831 73.28 43.9172L74.6669 41.2806C74.886 40.8413 74.8116 40.3287 74.301 40.0351C70.2892 37.7643 65.5477 36.8135 60.0042 36.8135C55.8456 36.8135 51.8337 37.3985 48.5504 39.3757C47.8942 39.7426 47.3836 40.1819 46.8731 40.6211C45.4139 38.6439 42.3496 37.6176 39.2142 37.6176H16.4554C15.9438 37.6176 15.5801 37.9845 15.5801 38.4238V67.4269C15.5801 67.9395 15.9438 68.3054 16.4554 68.3054H19.8834C20.3205 68.3054 20.6864 67.9385 20.6864 67.4269V42.9653C20.6864 42.526 21.0512 42.1591 21.4894 42.1591H37.9028C41.987 42.1591 44.1024 43.8438 44.1024 47.2856C44.1024 50.436 42.1327 52.0463 38.1942 52.0463H26.2309L23.824 56.5878H38.1219C41.7679 56.5878 44.5406 55.7816 46.437 54.1713C47.0933 53.5853 47.6038 52.9258 48.042 52.1941C50.0841 53.146 53.5854 53.8778 58.6184 54.1713C64.3086 54.5361 67.8089 54.9031 69.1224 55.27C71.6038 55.9294 72.8429 57.1728 72.8429 59.1511C72.8429 63.8394 65.5487 64.5711 61.756 64.5711C56.5763 64.5711 51.471 63.5448 47.1667 60.689C46.7295 60.3965 46.3636 60.4688 46.1445 60.8358L44.613 63.6926C44.3215 64.2052 44.5406 64.5711 44.8321 64.7913C50.1575 68.2341 56.2859 69.0382 62.0474 69.0382C65.9135 69.0382 71.457 68.014 73.2811 66.6951L72.8439 67.5003C72.6993 67.7938 72.8439 68.3065 73.4278 68.3065H77.4397C77.7322 68.3065 78.0236 68.0863 78.1704 67.8672L91.0813 43.3322C91.226 43.0397 91.3728 42.893 91.7376 42.893H92.1747C92.5385 42.893 92.6852 43.0397 92.8309 43.3322L99.4688 55.9305C99.7603 56.5155 99.5412 56.8824 98.9583 56.8824H88.0161L85.6092 61.424H101.876C102.167 61.424 102.46 61.5697 102.605 61.8632L105.669 67.8683C105.815 68.0874 106.106 68.3075 106.399 68.3075H110.411C111.067 68.3075 111.067 67.7215 110.922 67.3556L95.5293 38.0589ZM94.3625 90.5717H88.4543V84.9336H94.1445V85.7377H89.403V87.2033H93.4883V88.0818H89.403V89.7666H94.3636L94.3625 90.5717ZM81.961 87.5692C82.6907 87.5692 83.0555 87.2756 83.0555 86.6907C83.0555 86.0312 82.6907 85.7377 81.8887 85.7377H78.532V87.5692H81.961ZM82.1078 84.9336C82.6907 84.9336 83.1278 85.0793 83.4937 85.3729C83.8585 85.7377 84.0042 86.1046 84.0042 86.6907C84.0042 87.2756 83.8596 87.6426 83.4937 88.0085C83.1289 88.3009 82.6183 88.4477 81.9621 88.4477H78.5331V90.5707H77.6577V84.9325L82.1078 84.9336ZM72.8429 88.7413C72.8429 89.3273 72.5514 89.84 71.9675 90.2069C71.3847 90.5717 70.5817 90.7919 69.634 90.7919C68.6842 90.7919 67.8833 90.5717 67.2994 90.2069C66.7155 89.84 66.4241 89.3273 66.4241 88.7413V84.9336H67.3717V88.5222C67.3717 88.9614 67.5185 89.3284 67.9556 89.5485C68.3204 89.7676 68.9033 89.9133 69.634 89.9133C70.3636 89.9133 70.9475 89.7676 71.3113 89.5485C71.6761 89.3284 71.8952 88.9625 71.8952 88.5222V84.9336H72.8429V88.7413ZM61.3188 87.7149C61.3188 87.0555 61.0263 86.5428 60.4435 86.1036C59.9319 85.7366 59.349 85.5909 58.6184 85.5909C57.8887 85.5909 57.2325 85.8111 56.723 86.1759C56.2114 86.6151 55.9923 87.1289 55.9923 87.7138C55.9923 88.3733 56.2114 88.887 56.723 89.3262C57.1602 89.6921 57.8175 89.9112 58.6184 89.9112C59.4214 89.9112 60.0776 89.6921 60.5881 89.3262C61.0253 88.887 61.3188 88.3733 61.3188 87.7138V87.7149ZM62.2665 87.7149C62.2665 88.6679 61.9017 89.3996 61.0997 89.9867C60.4435 90.4994 59.6405 90.7919 58.6184 90.7919C57.6707 90.7919 56.7954 90.4994 56.1381 89.9867C55.4084 89.4007 54.9713 88.6689 54.9713 87.7149C54.9713 86.8364 55.4084 86.1036 56.1381 85.5175C56.8677 85.0049 57.6696 84.7124 58.6184 84.7124C59.6405 84.7124 60.4435 85.0049 61.0997 85.5175C61.9017 86.1036 62.2665 86.8353 62.2665 87.7149ZM48.7716 87.5692C49.5023 87.5692 49.8661 87.2756 49.8661 86.6907C49.8661 86.0312 49.5023 85.7377 48.6993 85.7377H45.417V87.5692H48.7716ZM50.8871 90.5717H49.7927L48.2611 88.4488H45.416V90.5717H44.4683V84.9336H48.9173C49.5012 84.9336 50.0118 85.0793 50.3032 85.3729C50.6691 85.7377 50.8148 86.1769 50.8148 86.6907C50.8148 87.2033 50.6691 87.5692 50.45 87.8627C50.1585 88.1552 49.7937 88.302 49.3555 88.3754L50.8871 90.5717ZM39.8725 87.6426C39.8725 88.5945 39.58 89.3273 38.9228 89.9123C38.2665 90.4983 37.3912 90.7919 36.2967 90.7919C35.2768 90.7919 34.4737 90.4994 33.8164 89.9867C33.0134 89.4007 32.6497 88.6689 32.6497 87.7149C32.6497 86.8364 33.0134 86.1036 33.8164 85.5175C34.4727 85.0049 35.348 84.7124 36.3701 84.7124C37.6092 84.7124 38.6313 85.1516 39.4333 86.1036L38.5579 86.5428C37.974 85.8834 37.2455 85.5909 36.2957 85.5909C35.5671 85.5909 34.9832 85.7366 34.4727 86.1036C33.8888 86.5428 33.5973 87.0555 33.5973 87.7149C33.5973 88.3743 33.8888 88.888 34.3259 89.3273C34.8375 89.6932 35.4937 89.9123 36.2957 89.9123C37.5358 89.9123 38.3388 89.3996 38.7026 88.4488H36.0766V87.5703H39.8704V87.6426H39.8725ZM32.8698 77.1683H94.3625V77.9745H32.8698V77.1683Z" fill="white"/>
</svg>
