<svg width="128" height="128" viewBox="0 0 128 128" fill="none" xmlns="http://www.w3.org/2000/svg">
<rect width="128" height="128" fill="#EEC337"/>
<path d="M56.667 98.3745L28.3438 68.6925C26.7914 67.058 25.9495 64.8752 26.0023 62.6216C26.0551 60.368 26.9983 58.227 28.6255 56.667L58.3075 28.3438C59.942 26.7914 62.1248 25.9495 64.3784 26.0023C66.632 26.0551 68.773 26.9983 70.333 28.6255L98.6562 58.3075C100.209 59.942 101.05 62.1248 100.998 64.3784C100.945 66.632 100.002 68.773 98.3745 70.333L83.5914 84.4394L84.2363 96.1893L83.049 97.3222C82.6774 97.6345 82.2385 97.8564 81.7667 97.9706C81.295 98.0848 80.8032 98.0882 80.3299 97.9804L71.8133 95.9549C71.7434 95.9383 71.6705 95.9392 71.601 95.9573C71.5315 95.9754 71.4675 96.0102 71.4145 96.0588L68.6925 98.6562C67.058 100.209 64.8752 101.05 62.6216 100.998C60.368 100.945 58.227 100.002 56.667 98.3745ZM65.9893 32.7704C65.5313 32.2903 64.9013 32.012 64.238 31.9964C63.5747 31.9809 62.9324 32.2295 62.4524 32.6875L32.7704 61.0107C32.2903 61.4687 32.012 62.0987 31.9964 62.762C31.9809 63.4253 32.2295 64.0676 32.6875 64.5476L61.0107 94.2296C61.4687 94.7097 62.0987 94.9881 62.762 95.0036C63.4253 95.0191 64.0676 94.7705 64.5476 94.3125L67.2697 91.7151C68.041 90.9765 68.9842 90.4419 70.014 90.1596C71.0438 89.8773 72.1278 89.8561 73.1679 90.098L77.9404 91.2148L77.5559 84.666C77.5174 83.8291 77.6599 82.9937 77.9736 82.2169C78.2874 81.44 78.7651 80.7401 79.3741 80.1647L94.2296 65.9893C94.7097 65.5313 94.9881 64.9013 95.0036 64.238C95.0191 63.5747 94.7705 62.9324 94.3125 62.4524L65.9893 32.7704Z" fill="#1E1E1E"/>
</svg>
