<svg width="128" height="128" viewBox="0 0 128 128" fill="none" xmlns="http://www.w3.org/2000/svg">
<rect width="128" height="128" fill="white"/>
<rect width="128" height="128" fill="white"/>
<path d="M64 112.79C37.0971 112.79 15.21 90.9029 15.21 64C15.21 37.0971 37.0971 15.21 64 15.21C90.9029 15.21 112.79 37.0971 112.79 64C112.855 90.9029 90.968 112.79 64 112.79Z" fill="#52A2A6"/>
<path d="M64 18.923C88.8835 18.923 109.012 39.1165 109.012 63.9349C109.012 88.8184 88.8184 108.947 64 108.947C39.1816 108.947 18.9881 88.7533 18.9881 63.9349C18.9881 39.1165 39.1816 18.923 64 18.923ZM64 11.4319C35.0126 11.4319 11.4319 35.0126 11.4319 64C11.4319 92.9874 35.0126 116.568 64 116.568C92.9874 116.568 116.568 92.9874 116.568 64C116.568 35.0126 92.9874 11.4319 64 11.4319Z" fill="#3D9A9E"/>
<path d="M63.2183 106.993C61.5898 106.993 60.4824 105.755 59.831 103.28L48.5618 57.5511L44.1974 76.3766C43.6763 78.5263 42.4386 80.0245 40.7449 80.4153C39.0513 80.8062 37.2925 80.0245 35.9246 78.2657L34.4264 76.3766C33.1887 74.8133 30.1922 73.3802 28.1729 73.3802H19.9001C19.9001 73.3802 19.6395 72.2728 19.4441 71.1003C19.2487 69.9278 19.1184 68.7552 19.1184 68.7552H28.1729C31.5602 68.7552 35.9246 70.8397 38.0742 73.5105L39.5724 75.3995C39.5724 75.4647 39.6376 75.4647 39.6376 75.5298C39.6376 75.4647 39.6376 75.4647 39.7027 75.3995L45.1093 52.0142C45.6956 49.4737 46.803 48.2361 48.4966 48.2361C50.1251 48.2361 51.2977 49.4737 51.8839 52.0142L63.0229 97.2866L77.2234 29.4106C77.7446 26.8701 78.852 25.5673 80.5456 25.5673C82.2392 25.5022 83.3466 26.805 83.9329 29.3454L92.8571 65.8891C93.2479 67.5176 95.0719 68.9506 96.7655 68.9506H108.686C108.686 68.9506 108.556 70.3837 108.426 71.1654C108.295 71.9471 107.97 73.5756 107.97 73.5756H96.8958C93.1176 73.5756 89.4047 70.6443 88.4927 66.9964L80.8062 35.5337L66.6056 103.41C66.0845 105.69 64.9771 106.993 63.2183 106.993Z" fill="white"/>
</svg>
