<svg width="128" height="128" viewBox="0 0 128 128" fill="none" xmlns="http://www.w3.org/2000/svg">
<rect width="128" height="128" fill="black"/>
<path d="M57.6567 48.9572C62.7171 39.5087 68.0327 29.5835 70.5423 24.9064C71.4487 23.2147 71.9901 22.2092 72.0178 22.1616C72.1224 22.3368 79.0813 35.3289 85.7985 47.8698C88.891 53.6433 91.9322 59.3211 94.2298 63.6087C94.4837 64.0787 94.5035 64.4258 94.2456 64.9057C85.7119 80.8329 68.4342 113.169 68.2716 113.486C68.8067 113.486 69.3366 113.487 69.8623 113.488C71.77 113.49 73.6233 113.491 75.4766 113.467C75.667 113.465 75.9228 113.207 76.0319 113.004C80.6123 104.452 85.1888 95.8978 89.7652 87.3437C93.7984 79.805 97.8314 72.2665 101.867 64.7292C102.052 64.3841 102.04 64.1322 101.859 63.7971C93.2442 47.7073 84.639 31.6116 76.0398 15.5119C75.8534 15.1648 75.6491 15.0359 75.2545 15.0399C73.1364 15.0597 71.0163 15.0696 68.8982 15.0339C68.3827 15.026 68.1486 15.2164 67.9185 15.6467C59.365 31.6671 50.8014 47.6815 42.2261 63.686C41.992 64.1243 42.0099 64.4416 42.238 64.866C44.103 68.3434 46.6303 73.0592 49.1515 77.7636C53.9736 86.7612 58.7735 95.7175 58.8751 95.8894C59.1941 95.2943 59.5082 94.7052 59.8197 94.1209C60.645 92.573 61.4521 91.0592 62.2843 89.559C62.5619 89.0592 62.548 88.6903 62.2803 88.1926C60.1601 84.2495 58.047 80.3028 55.9338 76.356C53.8901 72.539 51.8464 68.7219 49.796 64.9077C49.5382 64.4297 49.556 64.0827 49.8079 63.6107C51.961 59.5921 54.7672 54.3523 57.6567 48.9572Z" fill="white"/>
<path d="M58.0619 20.0677C59.5021 17.3743 60.4763 15.5525 60.7453 15.0498C60.2248 15.0498 59.71 15.0493 59.1997 15.0488C57.264 15.0468 55.3932 15.0449 53.5224 15.0716C53.3321 15.0736 53.0762 15.3334 52.9671 15.5357C48.3858 24.09 43.8083 32.646 39.2306 41.2025C35.1983 48.7399 31.1656 56.2776 27.1299 63.8149C26.9454 64.162 26.9613 64.4119 27.1397 64.747C35.7549 80.8368 44.36 96.9326 52.9572 113.032C53.1417 113.381 53.3499 113.506 53.7426 113.502C55.8607 113.482 57.9807 113.473 60.0988 113.508C60.6183 113.516 60.8503 113.322 61.0785 112.893C69.6321 96.873 78.1955 80.8587 86.7729 64.8522C87.0069 64.4139 86.9871 64.0966 86.759 63.6722C85.2555 60.8683 83.3187 57.2547 81.3011 53.4904C76.0451 43.684 70.2408 32.8548 70.1219 32.6528C69.8128 33.2297 69.5083 33.8011 69.2062 34.3681C68.372 35.9333 67.5562 37.4642 66.7148 38.9812C66.4371 39.481 66.4549 39.8518 66.7227 40.3476C68.808 44.2258 70.8864 48.1079 72.9648 51.99C75.0432 55.8722 77.1216 59.7543 79.2069 63.6325C79.4668 64.1124 79.445 64.4595 79.1931 64.9295C76.675 69.6279 73.2636 75.9967 69.8706 82.3314C63.443 94.3316 57.0811 106.209 56.9812 106.377C56.8781 106.203 50.1246 93.594 43.5026 81.2306C40.3068 75.2641 37.1416 69.3547 34.7692 64.9275C34.5173 64.4575 34.4975 64.1104 34.7554 63.6305C40.6322 52.6649 52.6444 30.1997 58.0619 20.0677Z" fill="white"/>
</svg>
