<svg width="129" height="129" viewBox="0 0 129 129" fill="none" xmlns="http://www.w3.org/2000/svg">
<rect width="128" height="128" transform="translate(0.666504 0.972656)" fill="white"/>
<path d="M109.937 90.2294C106.837 88.1494 103.837 85.9294 101.027 83.4694C98.8271 81.5394 98.8671 81.0294 101.297 79.5094C103.717 78.0094 105.817 76.1494 107.757 74.0894C115.047 66.3194 116.167 56.7194 110.677 47.6394C107.247 41.9694 101.827 38.5394 96.1071 35.6494C90.1471 32.6394 83.7571 31.4294 77.1071 32.2494C71.3571 31.6494 65.8571 32.4094 60.4871 34.4694C53.9171 36.9994 48.1971 40.6294 44.0371 46.4094C42.4971 48.5594 42.7971 49.2994 45.3871 49.5494C50.5571 50.0394 55.5271 51.1694 60.1171 53.6894C65.9971 56.9194 70.4771 61.4794 72.6471 67.8894L72.6771 70.7794C74.4471 71.6294 76.7471 72.3294 79.2371 72.3294C81.7271 72.3294 83.4671 71.3594 83.4671 69.5994C83.4671 67.8394 82.0571 66.8694 78.7971 65.7594C74.0771 64.1694 70.8571 61.9694 70.8571 57.6894C70.8571 53.8094 73.5871 50.7694 78.3071 49.8394V45.6494H82.6271V49.5294C85.5771 49.6594 87.5671 50.2794 89.0171 50.9894L87.7371 55.9694C86.5871 55.4894 84.5571 54.4694 81.3871 54.4694C78.5171 54.4694 77.5971 55.6994 77.5971 56.9394C77.5971 58.3994 79.1371 59.3194 82.8871 60.7294C88.1371 62.5794 90.2471 65.0094 90.2471 68.9794C90.2471 72.9494 87.4671 76.2594 82.3971 77.1394V81.6394H78.0771V77.4494C76.1471 77.3594 74.2571 76.9894 72.7171 76.4794L72.7371 78.5394C72.3471 79.9594 71.7171 81.3294 71.0771 82.6694C69.9071 85.1194 70.1271 85.5994 72.8771 86.0394C77.1971 86.7394 81.5171 86.3894 85.7171 85.3794C88.8971 84.6194 91.5971 84.6694 94.3271 86.7394C98.6271 90.0094 103.627 91.7694 108.937 92.6194C109.857 92.7694 111.157 93.3594 111.567 92.1594C111.887 91.2294 110.677 90.7094 109.937 90.2194V90.2294Z" fill="#41B9D2"/>
<path d="M66.5972 64.3693C61.8372 57.6693 54.9472 54.6993 47.2072 53.5793C37.5072 52.1793 28.6372 54.4293 21.0072 60.8493C15.0072 65.8893 13.8072 73.8193 16.7272 80.4693C18.2472 83.9193 20.9572 86.6093 24.1872 88.6293C25.7372 89.5993 25.6372 90.4293 24.2572 91.3993C22.2272 92.8393 20.2072 94.2893 18.2172 95.7793C17.6772 96.1793 16.5672 96.3193 16.9372 97.3093C17.2472 98.1693 18.2172 97.9093 18.9272 97.9093C23.3572 97.9593 27.0872 96.0693 30.6172 93.6493C31.4972 93.0493 32.3372 92.0693 33.4972 92.5893C36.2972 93.8493 39.2372 93.1393 41.1472 93.3393C50.6972 93.7993 58.3372 91.4293 64.4572 85.2193C70.2372 79.3593 71.7972 71.6693 66.5872 64.3493L66.5972 64.3693ZM44.3372 84.4293V87.9593H40.9472V84.6693C38.6272 84.5693 36.3772 83.9393 35.0572 83.1793L36.0972 79.1293C37.5472 79.9293 39.5972 80.6493 41.8472 80.6493C43.8172 80.6493 45.1772 79.8893 45.1772 78.4993C45.1772 77.1093 44.0672 76.3493 41.5072 75.4893C37.7972 74.2393 35.2772 72.5093 35.2772 69.1493C35.2772 66.0993 37.4272 63.7093 41.1272 62.9793V59.6893H44.5172V62.7393C46.8372 62.8393 48.3972 63.3293 49.5372 63.8793L48.5372 67.7893C47.6372 67.4093 46.0472 66.6093 43.5472 66.6093C41.2972 66.6093 40.5672 67.5793 40.5672 68.5493C40.5672 69.6893 41.7772 70.4193 44.7272 71.5293C48.8472 72.9893 50.5072 74.8893 50.5072 78.0093C50.5072 81.1293 48.3272 83.7293 44.3372 84.4193V84.4293Z" fill="#B11908"/>
<path d="M99.0371 61.8093V59.1493C97.1571 59.0693 95.3371 58.5593 94.2671 57.9393L95.1071 54.6593C96.2871 55.3093 97.9371 55.8893 99.7671 55.8893C101.367 55.8893 102.457 55.2693 102.457 54.1493C102.457 53.0293 101.557 52.4093 99.4871 51.7093C96.4871 50.6993 94.4371 49.2993 94.4371 46.5793C94.4371 44.1093 96.1771 42.1793 99.1771 41.5893V38.9293H101.927V41.3993C103.807 41.4793 105.067 41.8793 105.997 42.3293L105.187 45.4993C104.457 45.1893 103.167 44.5493 101.147 44.5493C99.3271 44.5493 98.7371 45.3393 98.7371 46.1193C98.7371 47.0493 99.7171 47.6293 102.107 48.5293C105.447 49.7093 106.787 51.2493 106.787 53.7693C106.787 56.2893 105.017 58.3993 101.797 58.9593V61.8193H99.0471L99.0371 61.8093Z" fill="#7DCFDF"/>
<path d="M63.9571 55.0893V53.0493C62.5171 52.9893 61.1271 52.5993 60.3071 52.1293L60.9471 49.6193C61.8471 50.1093 63.1171 50.5593 64.5071 50.5593C65.7271 50.5593 66.5671 50.0893 66.5671 49.2293C66.5671 48.3693 65.8771 47.8993 64.2871 47.3593C61.9871 46.5893 60.4271 45.5093 60.4271 43.4293C60.4271 41.5393 61.7571 40.0593 64.0571 39.6093V37.5693H66.1571V39.4593C67.5971 39.5193 68.5571 39.8293 69.2671 40.1693L68.6471 42.5993C68.0871 42.3593 67.0971 41.8693 65.5571 41.8693C64.1571 41.8693 63.7071 42.4693 63.7071 43.0693C63.7071 43.7793 64.4571 44.2293 66.2871 44.9193C68.8371 45.8193 69.8671 46.9993 69.8671 48.9293C69.8671 50.8593 68.5171 52.4693 66.0471 52.8993V55.0893H63.9471H63.9571Z" fill="#7DCFDF"/>
</svg>
