<svg width="128" height="128" viewBox="0 0 128 128" fill="none" xmlns="http://www.w3.org/2000/svg">
<rect width="128" height="128" fill="white"/>
<rect width="128" height="128" fill="#1F7072"/>
<path fill-rule="evenodd" clip-rule="evenodd" d="M85.9554 34.0193C86.9316 30.6982 83.0876 28.0681 80.3457 30.1811L65.2737 41.7964C64.0475 42.7414 62.3522 42.7893 61.0746 41.9152L45.3703 31.1701C42.5133 29.2154 38.8241 32.0585 39.9865 35.3192L47.2453 55.6822L49.925 63.1037C50.193 63.8651 49.3118 64.5123 48.6654 64.029L42.4527 59.3835L30.1191 68.8884C27.3772 71.0015 28.9411 75.3887 32.4013 75.2908L51.4222 74.753C52.9696 74.7092 54.3693 75.6669 54.8891 77.1251L61.2784 95.0488C62.4407 98.3094 67.0965 98.1778 68.0727 94.8566L72.3267 80.3843L80.0444 89.181C81.8802 91.2734 85.068 91.4726 87.1499 89.6249C89.2151 87.7921 89.4123 84.6355 87.5913 82.5599L80.0322 73.944L95.7871 73.4985C99.2474 73.4006 100.561 68.932 97.704 66.9773L81.9997 56.2323C80.722 55.3581 80.1526 53.7606 80.5891 52.2754L85.9554 34.0193ZM76.3206 69.1812C76.4752 69.3648 76.7027 69.4711 76.9427 69.4719L90.9568 69.5175C91.7754 69.5202 92.0886 68.451 91.3979 68.0116L61.2884 48.8543C60.4997 48.3525 59.6231 49.3545 60.2252 50.0696L76.3206 69.1812Z" fill="#CFFC40"/>
</svg>
