<svg width="128" height="128" viewBox="0 0 128 128" fill="none" xmlns="http://www.w3.org/2000/svg">
<rect width="128" height="128" fill="white"/>
<path d="M64.0398 78.9998C72.3323 78.9998 79.0547 72.284 79.0547 63.9998C79.0547 55.7155 72.3323 48.9998 64.0398 48.9998C55.7473 48.9998 49.0249 55.7155 49.0249 63.9998C49.0249 72.284 55.7473 78.9998 64.0398 78.9998Z" fill="#E48636"/>
<path d="M52.2026 48.6032H27.0983C25.1122 53.3651 24 58.5238 24 64C24 69.4762 25.1122 74.635 27.0983 79.3969H52.1231C47.5154 75.8254 44.576 70.2699 44.576 64C44.576 57.7302 47.5154 52.0953 52.2026 48.6032Z" fill="#5B5A54"/>
<path d="M64.0398 23.9999C49.0249 23.9999 35.9166 32.2539 29.0845 44.5555H64.0398C74.7647 44.5555 83.5035 53.2857 83.5035 63.9999C83.5035 74.7142 74.7647 83.4444 64.0398 83.4444C63.8015 83.4444 63.5631 83.4444 63.3248 83.4444H29.0845C35.9166 95.6666 49.0249 104 64.0398 104C86.1252 104 104 86.1428 104 64.0793C104 42.0158 86.1252 23.9999 64.0398 23.9999Z" fill="#5B5A54"/>
</svg>
