<svg width="128" height="128" viewBox="0 0 128 128" fill="none" xmlns="http://www.w3.org/2000/svg">
<rect width="128" height="128" fill="#009DE6"/>
<path fill-rule="evenodd" clip-rule="evenodd" d="M63.9993 23.1079C66.6759 23.1079 68.97 25.1509 69.0975 27.8324L87.8331 30.6416C88.7254 28.5986 91.147 27.7047 93.1861 28.5986C95.2255 29.4924 96.1175 31.9185 95.2255 33.9615C94.7155 35.1107 93.8234 35.8769 92.6763 36.2599V75.2053C94.843 75.8438 96.1175 78.1421 95.4804 80.1852C94.843 82.356 92.5488 83.6328 90.5096 82.9943C89.9998 82.8665 89.6174 82.6112 89.2352 82.356L68.8426 97.6786C69.9896 100.232 68.8426 103.297 66.2935 104.446C63.7444 105.595 60.6856 104.446 59.5385 101.892C58.9012 100.615 58.9012 99.0832 59.5385 97.6786L39.146 82.356C37.3616 83.7605 34.8126 83.505 33.4106 81.7175C32.0086 79.9297 32.2635 77.3759 34.0478 75.9713C34.5576 75.5883 35.0675 75.333 35.5773 75.2053V36.2599C33.1557 35.6215 31.8811 33.4508 32.5184 31.2801C33.1557 29.1093 35.3224 27.8324 37.4891 28.4709C38.6361 28.8539 39.5283 29.6201 40.0381 30.7693L58.9012 27.9601C59.0287 25.2786 61.3228 23.1079 63.9993 23.1079ZM48.1951 79.4189L40.4205 79.5467C40.4205 79.8021 40.293 80.1852 40.1656 80.4405L60.5581 95.7633C60.6856 95.6356 60.813 95.5078 60.9405 95.5078L54.4404 83.2497C52.0188 84.1435 49.2148 82.8665 48.3226 80.4405C48.3226 80.1852 48.3226 79.8021 48.1951 79.4189ZM37.9989 75.333L49.7246 56.9456C47.6853 55.2857 47.5579 52.2212 49.2148 50.1781C49.2148 50.0504 49.3422 50.0504 49.3422 49.9226L38.3812 35.8769C38.1263 36.0046 37.8714 36.1323 37.4891 36.2599V75.0775C37.744 75.2053 37.8714 75.2053 37.9989 75.333ZM50.8717 57.5841L39.146 75.9713C39.7832 76.6098 40.293 77.3759 40.4205 78.2699L48.1951 78.1421C48.5775 75.5883 50.8717 73.673 53.5482 74.056C54.6953 74.1838 55.5873 74.6945 56.3522 75.4606L70.372 67.2886C70.1171 66.3946 70.1171 65.5008 70.372 64.607L56.3522 56.4348C54.9502 58.0948 52.7835 58.4779 50.8717 57.5841ZM55.7149 82.6112L62.215 94.8693C63.1072 94.4863 64.1268 94.4863 65.019 94.6141L72.9211 70.3531C72.4113 70.0977 71.9014 69.8424 71.5191 69.3316L57.4991 77.5036C58.0091 79.4189 57.2443 81.462 55.7149 82.6112ZM74.0681 70.7362L66.1661 95.1248C66.5484 95.3801 66.9308 95.5078 67.3131 95.8909L87.7056 80.5682C87.1958 79.4189 87.3234 78.1421 87.8331 77.1206L78.1466 69.4592C77.127 70.4807 75.5976 70.9914 74.0681 70.7362ZM79.0388 68.4376L88.7254 76.0991C89.2352 75.716 89.7449 75.333 90.3821 75.2053V36.2599H90.2547L77.5094 62.0532C79.6761 63.4578 80.3133 66.267 79.0388 68.4376ZM76.4899 61.5424L89.2352 35.7492C88.8527 35.4938 88.5978 35.2384 88.3429 34.8553L79.5486 39.1968C80.3133 41.7506 79.0388 44.432 76.4899 45.1982C74.7054 45.8367 72.7936 45.326 71.5191 43.9212L57.4991 52.0934C57.754 52.9872 57.754 53.881 57.4991 54.775L71.5191 62.947C72.7936 61.4147 74.7054 60.9039 76.4899 61.5424ZM78.7839 37.9199L87.5782 33.5785C87.4507 33.3231 87.4507 33.1954 87.4507 32.94L68.7151 30.1308C68.4602 30.6416 68.2053 31.1523 67.8229 31.6631L72.2838 36.643L72.5387 36.5153C74.7054 35.2384 77.5094 35.8769 78.7839 37.9199ZM71.2642 37.4091L66.8033 32.4293C65.5288 33.3231 63.8719 33.5785 62.4699 33.0677L55.3324 49.1566C55.7149 49.4119 55.9698 49.6674 56.2247 49.9226L70.2446 41.7506C69.8622 40.346 70.2446 38.686 71.2642 37.4091ZM54.1855 48.7736L61.3228 32.6846C60.3032 32.0462 59.6658 31.1523 59.1561 30.1308L40.4205 32.94C40.4205 33.7061 40.0381 34.4723 39.4009 35.1107L50.4893 49.1566C51.6364 48.5181 52.9109 48.3904 54.1855 48.7736Z" fill="white"/>
</svg>
