<svg width="128" height="128" viewBox="0 0 128 128" fill="none" xmlns="http://www.w3.org/2000/svg">
<rect width="128" height="128" fill="#1428A0"/>
<path d="M15.9693 60.326C15.9081 60.0687 15.9029 59.8012 15.954 59.5417C16.0556 59.0662 16.3797 58.535 17.3212 58.535C18.1937 58.535 18.7095 59.0777 18.7095 59.8907V60.815H22.4334V59.7661C22.4334 56.5177 19.5053 56 17.3941 56C14.7402 56 12.5753 56.8802 12.1764 59.3193C12.0548 59.986 12.0652 60.67 12.2071 61.3327C12.8533 64.3854 18.1611 65.2675 18.9319 67.2004C19.0499 67.557 19.0606 67.9404 18.9626 68.303C18.8399 68.8054 18.5024 69.3116 17.5034 69.3116C16.5695 69.3116 16.0115 68.767 16.0115 67.9521V66.5139H12V67.6644C12 70.9952 14.6213 72 17.4286 72C20.1266 72 22.3432 71.0796 22.7037 68.581C22.8344 67.7709 22.8292 66.9446 22.6884 66.1361C22.0575 63.0029 16.395 62.0729 15.9693 60.326ZM64.5407 60.3624C64.488 60.1098 64.4841 59.8495 64.5292 59.5954C64.6347 59.1179 64.9569 58.5964 65.8715 58.5964C66.7344 58.5964 67.2406 59.1333 67.2406 59.9386V60.8533H70.9223V59.8082C70.9262 56.5906 68.0403 56.0844 65.9521 56.0844C63.3212 56.0844 61.1735 56.9511 60.7747 59.373C60.6533 60.0343 60.6676 60.7135 60.8169 61.3691C61.4573 64.3873 66.7114 65.2637 67.4746 67.1716C67.5838 67.5271 67.5937 67.9058 67.5034 68.2665C67.3883 68.7632 67.0546 69.2637 66.0633 69.2637C65.1333 69.2637 64.5753 68.7287 64.5753 67.9214V66.4851H60.6098V67.6242C60.6098 70.9243 63.1985 71.9156 65.9808 71.9156C68.6481 71.9156 70.8514 71.0048 71.2042 68.5331C71.3316 67.7307 71.3225 66.9125 71.1774 66.1131C70.5599 63.0221 64.9588 62.0901 64.5407 60.3624ZM98.4449 68.4986L94.9281 56.4756H89.3864V71.2541H93.0527L92.8399 58.8456L96.6155 71.2541H101.933V56.4756H98.2416L98.4449 68.4986ZM27.9885 56.4756L25.2311 71.4094H29.2579L31.3404 57.5858L33.3749 71.4094H37.3806L34.627 56.4756H27.9885ZM50.5427 56.4756L48.6577 68.1496L46.7766 56.4756H40.6846L40.3624 71.4094H44.094L44.1956 57.5858L46.7632 71.4094H50.5427L53.1122 57.5858L53.2272 71.4094H56.9684L56.629 56.4756H50.5427ZM85.2502 56.4756H81.4727V67.5225C81.4826 67.7149 81.4716 67.9078 81.4401 68.0978C81.3615 68.4698 81.047 69.1831 80.0038 69.1831C78.9607 69.1831 78.6615 68.4698 78.581 68.0978C78.5454 67.9082 78.5325 67.7151 78.5427 67.5225V56.4756H74.7632V67.1812C74.7632 67.4554 74.7804 68.0211 74.7958 68.1668C75.0566 70.9569 77.256 71.8619 80 71.8619C82.744 71.8619 84.9492 70.9569 85.2138 68.1668C85.2452 67.8393 85.2561 67.5101 85.2464 67.1812L85.2502 56.4756ZM111.177 63.0278V65.2042H112.711V67.3653C112.719 67.5579 112.706 67.7507 112.673 67.9406C112.612 68.3432 112.23 69.0297 111.139 69.0297C110.048 69.0297 109.684 68.3432 109.618 67.9406C109.589 67.7502 109.576 67.5578 109.578 67.3653V60.5407C109.573 60.3036 109.597 60.0668 109.647 59.8351C109.72 59.4708 110.042 58.7536 111.131 58.7536C112.282 58.7536 112.558 59.511 112.623 59.8351C112.653 60.0254 112.668 60.2177 112.669 60.4104V61.2407H116.43V60.7498C116.438 60.4203 116.429 60.0906 116.401 59.7622C116.123 56.9588 113.81 56.0748 111.164 56.0748C108.518 56.0748 106.251 56.9684 105.921 59.7622C105.893 60.0173 105.847 60.4775 105.847 60.7498V67.0278C105.848 67.3572 105.868 67.6863 105.906 68.0134C106.151 70.7383 108.512 71.7028 111.154 71.7028C113.797 71.7028 116.155 70.744 116.405 68.0134C116.449 67.5129 116.454 67.302 116.46 67.0278V63.0278H111.177Z" fill="white"/>
</svg>
