<svg width="128" height="128" viewBox="0 0 128 128" fill="none" xmlns="http://www.w3.org/2000/svg">
<rect width="128" height="128" fill="white"/>
<path fill-rule="evenodd" clip-rule="evenodd" d="M18.0671 67.9103C17.0706 66.697 16.483 65.202 16.483 63.3952C16.483 57.1115 21.7377 52.018 28.4556 52.018C31.8491 52.018 34.9179 53.3171 37.1241 55.4137C39.386 53.3171 42.5502 52.018 46.1071 52.018C49.4133 52.018 52.4252 53.1415 54.6902 54.9847C56.9096 53.1415 59.8779 52.018 63.1841 52.018C67.565 52.018 71.4283 53.9904 73.7238 56.9944C75.9594 53.9904 79.7477 52.018 84.1275 52.018C87.0339 52.018 89.714 52.8861 91.8573 54.3477L92.7452 53.7794L93.6007 53.2969C93.4282 52.3481 93.5022 51.4901 93.826 50.7219C95.1462 47.5775 97.0013 46.0705 100.36 46.0018C103.491 45.9392 105.861 47.4887 106.901 50.2263C107.123 50.8137 107.253 51.7687 107.291 53.09C110.431 54.1852 112 56.2818 112 59.3807C112 62.4786 110.431 64.5399 107.291 65.5664V75.0086C106.393 78.9373 104.282 80.9016 100.958 80.9016C97.6345 80.9016 95.338 79.5449 94.0685 76.8336C90.8973 79.6509 87.3871 81.0076 83.5379 80.9016C79.6878 80.7956 76.478 79.1543 73.9095 75.9756C71.5369 78.9585 68.3738 80.6008 64.4181 80.9016C60.4624 81.2024 57.2729 80.2354 54.8506 78.0015C51.8407 80.0355 48.7628 81.0015 45.6179 80.9016C42.4731 80.8017 39.5312 79.5702 36.7922 77.2091C32.866 80.7784 28.342 81.8272 23.2162 80.3555C20.7949 79.66 16 77.7431 16 73.017C16 71.0819 16.6718 69.3831 18.0164 67.9194L18.0671 67.9103Z" fill="#93BB0D"/>
<path fill-rule="evenodd" clip-rule="evenodd" d="M27.5523 80.1989C26.2401 80.1989 24.857 79.992 23.4403 79.5862C21.7466 79.0986 20.2782 78.4001 19.1934 77.5643C17.6093 76.3439 16.8055 74.8136 16.8055 73.0168C16.8055 71.3614 17.3383 69.9351 18.4302 68.6622L19.5709 68.4744L18.691 67.4034C17.7605 66.2709 17.2886 64.9223 17.2886 63.396C17.2886 60.5656 18.4323 57.9129 20.5085 55.9283C22.6051 53.9226 25.4273 52.8183 28.4554 52.8183C31.5323 52.8183 34.4133 53.9468 36.5677 55.9939L37.1178 56.5158L37.6739 56C39.8861 53.9489 42.8818 52.8183 46.1069 52.8183C49.1056 52.8183 51.9734 53.8075 54.1806 55.6043L54.6961 56.0232L55.2076 55.5993C57.365 53.8065 60.1984 52.8183 63.1839 52.8183C67.1538 52.8183 70.8537 54.5616 73.0822 57.4798L73.7317 58.3298L74.371 57.4707C76.5397 54.5585 80.1869 52.8183 84.1273 52.8183C86.7861 52.8183 89.3008 53.5764 91.4024 55.0088L91.8438 55.3096L93.1631 54.4647L94.4955 53.7137L94.394 53.1534C94.2479 52.354 94.3058 51.6595 94.5696 51.0306C95.8208 48.0478 97.4496 46.8627 100.377 46.8032C100.433 46.8021 100.49 46.8021 100.545 46.8021C103.25 46.8021 105.24 48.1184 106.147 50.5098C106.277 50.854 106.443 51.5848 106.487 53.1131L106.503 53.6642L107.025 53.8469C109.831 54.826 111.194 56.6359 111.194 59.3796C111.194 62.1161 109.835 63.8907 107.041 64.8052L106.486 64.9859V74.9186C105.665 78.4051 103.856 80.1 100.958 80.1C97.9489 80.1 95.9335 78.921 94.799 76.4953L94.3413 75.5172L93.5315 76.2359C90.6423 78.8039 87.4203 80.106 83.9538 80.106C83.8229 80.106 83.692 80.104 83.56 80.1C79.925 80.001 76.973 78.4879 74.5365 75.4738L73.9032 74.6915L73.2771 75.4788C71.0303 78.3042 68.1128 79.8173 64.357 80.102C63.9105 80.1363 63.4691 80.1535 63.0438 80.1535C59.9416 80.1535 57.3701 79.2319 55.3973 77.4139L54.9275 76.9808L54.3978 77.3382C51.6781 79.1753 48.8742 80.107 46.0612 80.107C45.9222 80.107 45.7831 80.105 45.6441 80.1C42.7032 80.0071 39.9024 78.8311 37.3197 76.6033L36.7778 76.137L36.2481 76.6175C33.636 78.9946 30.7093 80.1989 27.5523 80.1989Z" fill="#96BC0F"/>
<path fill-rule="evenodd" clip-rule="evenodd" d="M19.186 68L110.992 59.5197C110.995 59.4322 111 59.3457 111 59.2561C111 56.5818 109.636 54.8183 106.827 53.8643L106.304 53.6862L106.289 53.1502C106.244 51.6611 106.078 50.949 105.948 50.6126C105.04 48.2835 103.048 47 100.34 47C100.284 47 100.228 47 100.172 47.001C97.2417 47.059 95.6113 48.2137 94.3578 51.1211C94.0947 51.7329 94.0368 52.4096 94.1831 53.1886L94.2847 53.7344L92.9509 54.4672L91.6303 55.2904L91.1884 54.9963C89.0847 53.6007 86.5675 52.863 83.906 52.863C79.9616 52.863 76.3107 54.5577 74.1399 57.3962L73.5 58.2332L72.8498 57.4041C70.6191 54.5606 66.9154 52.863 62.9415 52.863C59.953 52.863 57.1168 53.8249 54.9572 55.5717L54.4452 55.9858L53.9292 55.5776C51.7197 53.8269 48.849 52.863 45.8473 52.863C42.619 52.863 39.6203 53.9636 37.4058 55.9632L36.8491 56.4648L36.2986 55.9563C34.142 53.9616 31.2581 52.863 28.1781 52.863C25.1469 52.863 22.3219 53.939 20.2232 55.8924C18.1448 57.827 17 60.4108 17 63.1687C17 64.6569 17.4724 65.9709 18.4039 67.0745L19.186 68Z" fill="#C2CD02"/>
<path fill-rule="evenodd" clip-rule="evenodd" d="M62.8428 77C68.2787 77 72.6867 72.3174 72.6867 66.5403C72.6867 60.7632 68.2787 56.0796 62.8428 56.0796C57.4069 56.0796 53 60.7632 53 66.5403C53 72.3174 57.4069 77 62.8428 77Z" fill="#562F84"/>
<path fill-rule="evenodd" clip-rule="evenodd" d="M84.1572 76.9204C89.5941 76.9204 94 72.2378 94 66.4607C94 60.6826 89.5941 56 84.1572 56C78.7203 56 74.3144 60.6826 74.3144 66.4607C74.3144 72.2378 78.7203 76.9204 84.1572 76.9204Z" fill="#562F84"/>
<path fill-rule="evenodd" clip-rule="evenodd" d="M75.6138 61.3343C77.3484 58.1425 80.5556 56 84.2233 56C88.0125 56 91.3091 58.2848 93 61.6502C90.6658 63.0716 87.736 63.9184 84.5548 63.9184C81.1418 63.9184 78.0198 62.9458 75.6138 61.3343Z" fill="#9F87BB"/>
<path fill-rule="evenodd" clip-rule="evenodd" d="M54 61.417C55.7346 58.2251 58.9407 56.0827 62.6105 56.0827C66.3986 56.0827 69.6942 58.3675 71.3851 61.7329C69.0519 63.1542 66.1222 64 62.9399 64C59.5279 64 56.4059 63.0275 54 61.417Z" fill="#9F87BB"/>
<path fill-rule="evenodd" clip-rule="evenodd" d="M29.2889 70.2216C29.0062 69.6776 27.2449 69.1356 26.8011 68.9331C25.6286 68.3981 24.5099 68.0899 23.7113 67.5982C22.8733 67.0824 22.2511 66.752 21.7505 66.1505C20.1555 64.2354 20.2548 61.5143 21.4536 59.453C22.4244 57.7837 24.1511 56.5979 26.0188 56.2302C28.0789 55.8252 30.4269 56.2373 33.1184 57.3475C34.5959 57.956 35.2961 59.6414 34.683 61.1093C34.071 62.5781 32.4921 63.1776 31.045 62.4472C29.3446 61.5888 27.7668 61.3138 27.0088 61.4619C26.9632 61.4921 26.4748 61.5979 26.3157 62.1318C26.1566 62.6658 26.6815 63.244 26.8011 63.3176C27.3574 63.6601 28.3161 63.9392 29.2889 64.3825C29.6902 64.5658 31.5487 65.2871 31.6764 65.3405C32.9816 65.9017 33.1194 66.1294 33.5896 66.5062C34.9891 67.6264 35.5859 69.5758 35.2383 71.5807C34.8249 73.9582 33.3606 75.9207 30.8687 76.5897C28.2907 77.2828 24.8159 77.1861 21.7799 75.6124C20.3287 74.8599 19.6326 73.3155 20.194 71.8265C20.7554 70.3375 22.1092 69.8227 23.606 70.3818C26.0603 71.2966 27.5165 72.2577 29.2889 71.4719C29.524 71.3691 29.5716 70.7656 29.2889 70.2216Z" fill="white"/>
<path fill-rule="evenodd" clip-rule="evenodd" d="M103.173 56.8778H105.426C106.847 56.8778 108 58.0233 108 59.4367C108 60.8502 106.847 61.9956 105.426 61.9956H103.173V73.9903C103.173 75.58 101.877 76.8706 100.278 76.8706C98.6781 76.8706 97.381 75.58 97.381 73.9903V61.9956H96.4163C94.9955 61.9956 93.8423 60.8502 93.8423 59.4367C93.8423 58.0233 94.9955 56.8778 96.4163 56.8778H97.381V52.8793C97.381 51.2895 98.6781 50 100.278 50C101.877 50 103.173 51.2895 103.173 52.8793V56.8778Z" fill="white"/>
<path fill-rule="evenodd" clip-rule="evenodd" d="M50.2995 56.7693C51.854 57.144 53.4946 59.039 53.1177 60.5845C52.7407 62.1299 51.5399 62.9348 49.9854 62.5601C48.8494 62.286 47.5817 61.8256 46.7294 61.7773C45.3918 61.7017 44.3126 62.3354 43.664 62.7273C42.7804 63.2602 42.2443 64.4339 42.1916 66.6191C42.1389 68.771 42.8716 69.8661 43.664 70.3547C44.2903 70.7415 45.406 71.2321 46.7294 71.2321C48.0661 71.2321 49.1848 70.666 50.2995 70.5199C51.547 70.3547 52.6019 70.7939 52.9799 72.3403C53.3568 73.8848 52.1205 75.3304 50.6856 75.95C49.2517 76.5686 47.9586 76.762 46.7294 76.8406C44.2051 77.0018 42.0629 76.3338 40.3331 75.268C37.5565 73.5553 36.3029 70.4897 36.4012 66.478C36.4985 62.5006 37.8726 59.4863 40.6584 57.8049C43.2668 56.2313 46.0322 55.7397 50.2995 56.7693Z" fill="white"/>
<path fill-rule="evenodd" clip-rule="evenodd" d="M88.4944 65.7954C88.0942 65.5647 87.6432 65.4348 87.1659 65.4348C85.5222 65.4348 84.1897 66.9741 84.1897 68.8732C84.1897 69.8675 84.5545 70.7641 85.1392 71.3918C84.8342 71.4704 84.516 71.5127 84.1897 71.5127C81.791 71.5127 79.8464 69.257 79.8464 66.4744C79.8464 63.6919 81.791 61.4362 84.1897 61.4362C86.3907 61.4362 88.2087 63.3342 88.4944 65.7954Z" fill="white"/>
<path fill-rule="evenodd" clip-rule="evenodd" d="M67.4198 65.8752C67.0195 65.6445 66.5685 65.5145 66.0902 65.5145C64.4466 65.5145 63.115 67.0539 63.115 68.9539C63.115 69.9473 63.4798 70.8439 64.0645 71.4715C63.7585 71.5501 63.4413 71.5924 63.115 71.5924C60.7164 71.5924 58.7707 69.3367 58.7707 66.5542C58.7707 63.7716 60.7164 61.5159 63.115 61.5159C65.315 61.5159 67.134 63.414 67.4198 65.8752Z" fill="white"/>
</svg>
