<svg width="129" height="128" viewBox="0 0 129 128" fill="none" xmlns="http://www.w3.org/2000/svg">
<rect width="128" height="128" transform="translate(0.5)" fill="#F8D347"/>
<path d="M91.0377 46.8798C91.0396 42.8665 90.1217 38.9057 88.3539 35.2983C86.5861 31.6909 84.0149 28.532 80.8358 26.0615C77.6567 23.5911 73.9533 21.8743 70.0071 21.0415C66.0609 20.2087 61.9759 20.2819 58.0624 21.2555C54.1489 22.2291 50.5101 24.0775 47.4224 26.6602C44.3347 29.2429 41.8796 32.4919 40.2435 36.1603C38.6074 39.8286 37.8335 43.8198 37.9805 47.8304C38.1276 51.841 39.1918 55.7654 41.0922 59.3055L41.5363 60.0396C41.6934 60.3183 41.8574 60.5902 42.0214 60.8553L64.028 107.533L86.3028 61.9497C86.6513 61.4534 86.9861 60.9436 87.2935 60.427L87.4643 60.1619C89.8211 56.1293 91.0546 51.5445 91.0377 46.8798ZM64.5003 60.7533C61.6041 60.7533 58.7729 59.8988 56.3649 58.2979C53.9569 56.697 52.0802 54.4215 50.9722 51.7594C49.8642 49.0972 49.5746 46.168 50.1401 43.3421C50.7056 40.5162 52.1008 37.9207 54.1492 35.8838C56.1977 33.8468 58.8073 32.46 61.648 31.8987C64.4887 31.3374 67.433 31.6268 70.1083 32.7304C72.7837 33.834 75.07 35.7021 76.6781 38.0985C78.2861 40.4949 79.1437 43.3119 79.1424 46.1933C79.1424 48.1059 78.7636 49.9998 78.0277 51.7667C77.2918 53.5337 76.2131 55.1391 74.8534 56.4912C73.4937 57.8433 71.8795 58.9156 70.1031 59.6469C68.3267 60.3783 66.4228 60.7542 64.5003 60.7533Z" fill="black"/>
<path d="M64.5 60.7538C61.6038 60.7538 58.7726 59.8993 56.3646 58.2984C53.9565 56.6974 52.0798 54.422 50.9718 51.7599C49.8638 49.0977 49.5742 46.1685 50.1398 43.3426C50.7053 40.5167 52.1005 37.9212 54.1489 35.8842C56.1973 33.8473 58.8069 32.4605 61.6476 31.8992C64.4884 31.3379 67.4326 31.6273 70.108 32.7309C72.7833 33.8345 75.0696 35.7026 76.6777 38.099C78.2858 40.4954 79.1434 43.3124 79.142 46.1938C79.142 48.1064 78.7632 50.0003 78.0273 51.7672C77.2914 53.5342 76.2128 55.1396 74.853 56.4917C73.4933 57.8438 71.8791 58.9161 70.1027 59.6474C68.3263 60.3787 66.4225 60.7547 64.5 60.7538Z" fill="#F8D347"/>
</svg>
