<svg width="128" height="128" viewBox="0 0 128 128" fill="none" xmlns="http://www.w3.org/2000/svg">
<rect width="128" height="128" fill="white"/>
<path fill-rule="evenodd" clip-rule="evenodd" d="M63.607 66.896C53.503 66.896 45.311 58.704 45.311 48.6C45.311 38.495 53.503 30.303 63.607 30.303C73.711 30.303 81.903 38.495 81.903 48.6C81.903 58.704 73.711 66.896 63.607 66.896ZM88.175 45.346C88.054 42.458 87.304 39.631 85.978 37.062C84.397 33.942 82.112 31.234 79.303 29.15C76.379 26.951 73.013 25.413 69.437 24.641C67.912 24.305 66.36 24.102 64.798 24.036C64.725 24.028 64.653 24.016 64.582 24H62.683C62.603 24.016 62.523 24.028 62.441 24.036C56.545 24.336 51.396 26.28 47.031 29.901C43.849 32.494 41.459 35.928 40.132 39.812C39.67 41.153 39.356 42.54 39.194 43.948C39.141 44.423 39.101 44.9 39.05 45.375C39.038 45.45 39.022 45.523 39 45.596V47.053C39.037 47.159 39.065 47.269 39.083 47.38C39.241 48.949 39.539 50.5 39.973 52.016C40.735 54.759 41.637 57.461 42.675 60.111C44.142 63.968 45.772 67.77 47.468 71.548C49.981 77.147 52.655 82.68 55.409 88.181C58.027 93.408 60.721 98.6 63.491 103.758C63.527 103.826 63.567 103.892 63.629 104C63.69 103.895 63.737 103.826 63.777 103.745C64.904 101.621 66.042 99.5 67.154 97.37C70.995 90.002 74.71 82.582 78.192 75.066C80.07 71.011 81.876 66.93 83.539 62.798C84.527 60.34 85.461 57.866 86.288 55.358C86.89 53.58 87.392 51.769 87.791 49.933C88 49.052 88.127 48.154 88.172 47.25C88.18 47.183 88.194 47.117 88.214 47.053V45.594C88.196 45.512 88.183 45.43 88.175 45.346Z" fill="#F7931E"/>
<path fill-rule="evenodd" clip-rule="evenodd" d="M63.607 56.043C59.495 56.043 56.162 52.71 56.162 48.598C56.162 44.486 59.495 41.153 63.607 41.153C67.718 41.153 71.052 44.486 71.052 48.598C71.053 52.71 67.72 56.043 63.609 56.044L63.607 56.043ZM63.607 35.579C56.415 35.579 50.585 41.409 50.585 48.601C50.585 55.793 56.415 61.624 63.607 61.624C70.799 61.624 76.629 55.793 76.629 48.601C76.629 41.409 70.799 35.579 63.607 35.579Z" fill="#F7931E"/>
<path fill-rule="evenodd" clip-rule="evenodd" d="M63.607 45.7017C65.208 45.7017 66.504 46.9987 66.504 48.5997C66.504 50.2007 65.208 51.4977 63.607 51.4977C62.006 51.4977 60.709 50.2007 60.709 48.5997C60.709 46.9987 62.006 45.7017 63.607 45.7017Z" fill="#F7931E"/>
</svg>
