<svg width="128" height="128" viewBox="0 0 128 128" fill="none" xmlns="http://www.w3.org/2000/svg">
<rect width="128" height="128" fill="#FFFC00"/>
<path d="M64.4404 102.053C64.2131 102.053 63.9962 102.045 63.8312 102.037C63.7003 102.048 63.5652 102.053 63.4298 102.053C58.6542 102.053 55.4611 99.7956 52.6432 97.802C50.6236 96.3754 48.7188 95.0285 46.4873 94.6573C45.3914 94.4755 44.3012 94.3833 43.2478 94.3833C41.3499 94.3833 39.85 94.6777 38.7549 94.8918C38.081 95.0231 37.5 95.1362 37.0509 95.1362C36.5805 95.1362 36.009 95.0319 35.7708 94.2186C35.582 93.5771 35.4466 92.9556 35.316 92.357C34.989 90.8614 34.7519 89.9485 34.1919 89.8619C28.2023 88.9377 24.6633 87.5763 23.9583 85.9276C23.8845 85.7544 23.8432 85.5801 23.834 85.4077C23.8066 84.9162 24.1535 84.4852 24.638 84.4049C29.3946 83.6217 33.6241 81.1076 37.2094 76.93C39.9868 73.6959 41.3507 70.6058 41.4972 70.2646C41.5036 70.2493 41.511 70.2331 41.5187 70.2184C42.2098 68.8162 42.3473 67.6045 41.9286 66.6179C41.1568 64.7979 38.6008 63.987 36.9097 63.4504C36.4892 63.3173 36.0914 63.1913 35.7744 63.0655C34.2754 62.4734 31.81 61.2223 32.1384 59.4955C32.3776 58.2363 34.0431 57.3594 35.3892 57.3594C35.7629 57.3594 36.0941 57.4249 36.3729 57.5558C37.8939 58.2685 39.2623 58.6296 40.4391 58.6296C41.9027 58.6296 42.6095 58.0724 42.7804 57.9141C42.7383 57.1333 42.6868 56.3079 42.637 55.5272C42.637 55.5264 42.6359 55.517 42.6359 55.517C42.2924 50.0522 41.8639 43.2514 43.6035 39.3514C48.8101 27.6775 59.8519 26.7698 63.1109 26.7698C63.1978 26.7698 64.5315 26.7566 64.5315 26.7566C64.5917 26.7555 64.6571 26.7546 64.7247 26.7546C67.9928 26.7546 79.0575 27.6635 84.2673 39.3444C86.0069 43.2469 85.578 50.0535 85.2334 55.524L85.2172 55.7858C85.17 56.5287 85.1263 57.2317 85.0895 57.9132C85.2504 58.0614 85.8973 58.5722 87.2133 58.6239C88.3352 58.5809 89.6244 58.2214 91.0441 57.5567C91.483 57.3507 91.9689 57.3079 92.2988 57.3079C92.7975 57.3079 93.3049 57.4049 93.7278 57.5814L93.7504 57.5901C94.9551 58.0177 95.7441 58.8723 95.7611 59.7701C95.7762 60.607 95.1543 61.8579 92.0953 63.066C91.782 63.1901 91.3823 63.3169 90.96 63.4508C89.2674 63.988 86.7135 64.7985 85.9417 66.6175C85.5224 67.604 85.6604 68.8153 86.3517 70.2171C86.3594 70.2325 86.366 70.248 86.3734 70.2642C86.5862 70.7631 91.7382 82.5102 103.233 84.4039C103.717 84.4846 104.064 84.916 104.037 85.4066C104.027 85.5828 103.984 85.7591 103.909 85.9313C103.209 87.5708 99.6707 88.9302 93.6793 89.8557C93.117 89.9425 92.8801 90.8514 92.5561 92.3392C92.422 92.9537 92.2856 93.556 92.0994 94.189C91.925 94.7843 91.5372 95.0753 90.9144 95.0753H90.8206C90.4151 95.0753 89.8407 95.0016 89.1161 94.8599C87.8497 94.6134 86.4294 94.384 84.6232 94.384C83.57 94.384 82.48 94.4763 81.3828 94.6579C79.1537 95.0291 77.2492 96.3739 75.2331 97.7991C72.4097 99.7953 69.2156 102.053 64.4404 102.053Z" fill="white"/>
<path d="M64.7245 27.7165C67.8012 27.7165 78.3957 28.543 83.3884 39.7363C85.0324 43.4221 84.611 50.0989 84.273 55.4624C84.2202 56.3135 84.1679 57.1385 84.1253 57.9263L84.1074 58.2649L84.3335 58.5171C84.4248 58.6184 85.2793 59.5115 87.18 59.585L87.2107 59.5867L87.2426 59.586C88.4993 59.5381 89.9147 59.1478 91.4518 58.4277C91.6783 58.3217 91.9797 58.27 92.2985 58.27C92.6619 58.27 93.048 58.3383 93.3664 58.4724L93.4145 58.4916C94.2205 58.774 94.7903 59.3065 94.799 59.7884C94.8037 60.0609 94.6 61.0423 91.7428 62.171C91.4636 62.2813 91.096 62.3986 90.6699 62.5329C88.8104 63.1233 86.0013 64.0143 85.0559 66.2421C84.5235 67.497 84.6693 68.978 85.4888 70.6433C85.8259 71.4302 91.1334 83.3853 103.076 85.3532C103.074 85.4099 103.06 85.4718 103.028 85.5448C102.825 86.0216 101.539 87.6688 93.5322 88.9041C92.2794 89.0961 91.9725 90.5005 91.6166 92.133C91.488 92.7175 91.3573 93.3075 91.1777 93.9168C91.1228 94.1009 91.1126 94.1114 90.9153 94.1114C90.888 94.1114 90.8561 94.1114 90.8212 94.1114C90.4662 94.1114 89.9272 94.0377 89.3025 93.9151C88.1649 93.6936 86.6107 93.4218 84.6238 93.4218C83.5149 93.4218 82.3725 93.5182 81.2263 93.7095C78.7763 94.1169 76.7838 95.5261 74.6737 97.0178C71.8399 99.0202 68.9109 101.092 64.442 101.092C64.2469 101.092 64.0564 101.086 63.8654 101.076L63.8152 101.074L63.7648 101.078C63.6552 101.087 63.5447 101.092 63.4319 101.092C58.9636 101.092 56.0334 99.0209 53.2009 97.0178C51.0903 95.5261 49.0968 94.1169 46.6471 93.7095C45.502 93.5188 44.3586 93.4218 43.2504 93.4218C41.2639 93.4218 39.7078 93.7257 38.5725 93.9477C37.9478 94.0699 37.4069 94.1746 37.0529 94.1746C36.7631 94.1746 36.7575 94.1576 36.6962 93.9481C36.5166 93.3383 36.3853 92.7343 36.2573 92.1507C35.9006 90.5164 35.5935 89.1044 34.3413 88.9122C26.3356 87.6758 25.0487 86.0258 24.8457 85.5503C24.8139 85.4754 24.7997 85.4116 24.7965 85.3549C36.7392 83.3887 42.0456 71.4332 42.3839 70.6433C43.2048 68.9793 43.3504 67.4985 42.8164 66.2421C41.8709 64.0155 39.0622 63.1233 37.2041 62.5339C36.7769 62.3988 36.4091 62.2813 36.1296 62.171C33.7168 61.2177 32.9746 60.2573 33.0849 59.6754C33.2128 59.0043 34.3762 58.3219 35.3915 58.3219C35.6197 58.3219 35.8197 58.3588 35.9677 58.4279C37.6166 59.2008 39.1218 59.5926 40.4421 59.5926C42.5175 59.5926 43.4413 58.6269 43.5405 58.5167L43.7654 58.2651L43.7473 57.9282C43.7054 57.1409 43.6537 56.3161 43.5992 55.4666C43.2623 50.1019 42.8408 43.4296 44.4842 39.7436C49.4584 28.5913 60.0012 27.7317 63.1135 27.7317C63.1901 27.7317 64.5431 27.7178 64.5431 27.7178C64.5985 27.7174 64.66 27.7165 64.7245 27.7165ZM64.7245 25.7928H64.7209C64.65 25.7928 64.5834 25.7928 64.5199 25.7937C64.0142 25.7988 63.1828 25.8069 63.1081 25.8077C61.2849 25.8077 57.637 26.0653 53.7185 27.7949C51.4781 28.7831 49.4629 30.1193 47.729 31.7666C45.6619 33.7292 43.9779 36.149 42.7246 38.9599C40.8893 43.0754 41.325 50.0076 41.6749 55.5784L41.6762 55.5871C41.7136 56.1837 41.753 56.8067 41.789 57.4137C41.5197 57.5374 41.0832 57.6679 40.4397 57.6679C39.4045 57.6679 38.1734 57.3369 36.7816 56.6847C36.3721 56.494 35.9047 56.3976 35.3889 56.3976C34.5603 56.3976 33.6868 56.6415 32.9291 57.087C31.9757 57.6468 31.3598 58.4379 31.1925 59.3151C31.0822 59.8953 31.0875 61.0421 32.3614 62.2051C33.0621 62.8453 34.0914 63.4357 35.42 63.9608C35.7686 64.0981 36.1824 64.2292 36.6207 64.3682C38.1414 64.8516 40.4431 65.5819 41.0434 66.9945C41.3475 67.7107 41.2166 68.6532 40.6553 69.7924C40.6407 69.8234 40.626 69.8539 40.6126 69.8858C40.4723 70.2134 39.1637 73.1774 36.4795 76.3035C34.9543 78.0812 33.2743 79.5668 31.489 80.7204C29.3099 82.1288 26.952 83.0496 24.4815 83.4566C23.5113 83.6158 22.8185 84.4801 22.8726 85.4624C22.8892 85.7455 22.9556 86.0277 23.0707 86.3008C23.0716 86.3025 23.0727 86.3042 23.0735 86.3057C23.4658 87.2233 24.3753 88.0027 25.8539 88.6902C27.6607 89.5295 30.363 90.2355 33.885 90.7878C34.0629 91.1262 34.2477 91.9767 34.3756 92.5591C34.5095 93.178 34.6491 93.8145 34.8481 94.4904C35.0628 95.2228 35.6199 96.0981 37.0508 96.0981C37.5931 96.0981 38.2168 95.9759 38.939 95.8358C39.9966 95.6283 41.4429 95.3452 43.248 95.3452C44.2488 95.3452 45.286 95.4333 46.33 95.6068C48.3425 95.9418 50.0774 97.1674 52.0847 98.5866C55.0228 100.664 58.3485 103.014 63.4297 103.014C63.5683 103.014 63.7073 103.01 63.8446 103C64.0125 103.008 64.2207 103.014 64.4403 103.014C69.5231 103.014 72.8479 100.663 75.7828 98.5875L75.7875 98.5832C77.7953 97.1657 79.5283 95.9418 81.5401 95.6068C82.5837 95.4336 83.6206 95.3452 84.6219 95.3452C86.3463 95.3452 87.7117 95.5651 88.9309 95.8028C89.7265 95.9595 90.3448 96.0349 90.8193 96.0349L90.8657 96.0357H90.9138C91.9603 96.0357 92.7293 95.4612 93.0229 94.456C93.2178 93.7942 93.357 93.1727 93.4943 92.5434C93.6139 91.9976 93.8051 91.1228 93.983 90.7808C97.5073 90.2274 100.208 89.5229 102.016 88.6838C103.491 87.9995 104.399 87.2209 104.794 86.3072C104.912 86.0333 104.981 85.7493 104.997 85.4603C105.052 84.4797 104.359 83.6136 103.388 83.4544C92.4082 81.6448 87.4618 70.3632 87.2573 69.8839C87.2441 69.8524 87.2292 69.8211 87.2137 69.7907C86.6524 68.6511 86.5228 67.7097 86.8271 66.9922C87.4261 65.5808 89.7263 64.8505 91.2481 64.3674C91.6887 64.2286 92.104 64.0966 92.4499 63.96C93.9481 63.3683 95.0189 62.7263 95.7253 61.9973C96.5691 61.1283 96.7334 60.2956 96.7232 59.7508C96.6974 58.4324 95.6896 57.2609 94.0864 56.6873C93.545 56.4634 92.9275 56.3452 92.2988 56.3452C91.8707 56.3452 91.2369 56.404 90.6369 56.6841C89.3523 57.2852 88.2017 57.6138 87.2139 57.6606C86.6886 57.634 86.3202 57.5201 86.0816 57.4114C86.1116 56.8971 86.1448 56.3689 86.179 55.818L86.1933 55.5822C86.5451 50.0078 86.9823 43.0703 85.1461 38.9518C83.8876 36.1309 82.1976 33.7049 80.1221 31.738C78.3815 30.0898 76.3594 28.7537 74.1109 27.7661C70.198 26.0493 66.5503 25.7928 64.7245 25.7928Z" fill="#020202"/>
</svg>
