<svg width="128" height="128" viewBox="0 0 128 128" fill="none" xmlns="http://www.w3.org/2000/svg">
<rect width="128" height="128" fill="#FFFC00"/>
<path d="M64.4404 102.053C64.2131 102.053 63.9962 102.045 63.8312 102.037C63.7003 102.048 63.5652 102.053 63.4298 102.053C58.6542 102.053 55.4611 99.7956 52.6432 97.802C50.6236 96.3754 48.7188 95.0285 46.4873 94.6573C45.3914 94.4755 44.3012 94.3833 43.2478 94.3833C41.3499 94.3833 39.85 94.6777 38.7549 94.8918C38.081 95.0231 37.5 95.1362 37.0509 95.1362C36.5805 95.1362 36.009 95.0319 35.7708 94.2186C35.582 93.5771 35.4466 92.9556 35.316 92.357C34.989 90.8614 34.7519 89.9485 34.1919 89.8619C28.2023 88.9377 24.6633 87.5763 23.9583 85.9276C23.8845 85.7544 23.8432 85.5801 23.834 85.4077C23.8066 84.9162 24.1535 84.4852 24.638 84.4049C29.3946 83.6217 33.6241 81.1076 37.2094 76.93C39.9868 73.6959 41.3507 70.6058 41.4972 70.2646C41.5036 70.2493 41.511 70.2331 41.5187 70.2184C42.2098 68.8162 42.3473 67.6045 41.9286 66.6179C41.1568 64.7979 38.6008 63.987 36.9097 63.4504C36.4892 63.3173 36.0914 63.1913 35.7744 63.0655C34.2754 62.4734 31.81 61.2223 32.1384 59.4955C32.3776 58.2363 34.0431 57.3594 35.3892 57.3594C35.7629 57.3594 36.0941 57.4249 36.3729 57.5558C37.8939 58.2685 39.2623 58.6296 40.4391 58.6296C41.9027 58.6296 42.6095 58.0724 42.7804 57.9141C42.7383 57.1333 42.6868 56.3079 42.637 55.5272C42.637 55.5264 42.6359 55.517 42.6359 55.517C42.2924 50.0522 41.8639 43.2514 43.6035 39.3514C48.8101 27.6775 59.8519 26.7698 63.1109 26.7698C63.1978 26.7698 64.5315 26.7566 64.5315 26.7566C64.5917 26.7555 64.6571 26.7546 64.7247 26.7546C67.9928 26.7546 79.0575 27.6635 84.2673 39.3444C86.0069 43.2469 85.578 50.0535 85.2334 55.524L85.2172 55.7858C85.17 56.5287 85.1263 57.2317 85.0895 57.9132C85.2504 58.0614 85.8973 58.5722 87.2133 58.6239C88.3352 58.5809 89.6244 58.2214 91.0441 57.5567C91.483 57.3507 91.9689 57.3079 92.2988 57.3079C92.7975 57.3079 93.3049 57.4049 93.7278 57.5814L93.7504 57.5901C94.9551 58.0177 95.7441 58.8723 95.7611 59.7701C95.7762 60.607 95.1543 61.8579 92.0953 63.066C91.782 63.1901 91.3823 63.3169 90.96 63.4508C89.2674 63.988 86.7135 64.7985 85.9417 66.6175C85.5224 67.604 85.6604 68.8153 86.3517 70.2171C86.3594 70.2325 86.366 70.248 86.3734 70.2642C86.5862 70.7631 91.7382 82.5102 103.233 84.4039C103.717 84.4846 104.064 84.916 104.037 85.4066C104.027 85.5828 103.984 85.7591 103.909 85.9313C103.209 87.5708 99.6707 88.9302 93.6793 89.8557C93.117 89.9425 92.8801 90.8514 92.5561 92.3392C92.422 92.9537 92.2856 93.556 92.0994 94.189C91.925 94.7843 91.5372 95.0753 90.9144 95.0753H90.8206C90.4151 95.0753 89.8407 95.0016 89.1161 94.8599C87.8497 94.6134 86.4294 94.384 84.6232 94.384C83.57 94.384 82.48 94.4763 81.3828 94.6579C79.1537 95.0291 77.2492 96.3739 75.2331 97.7991C72.4097 99.7953 69.2156 102.053 64.4404 102.053Z" fill="white"/>
<path d="M64.7245 27.7164C67.8012 27.7164 78.3957 28.5429 83.3884 39.7362C85.0324 43.422 84.611 50.0988 84.273 55.4622C84.2202 56.3134 84.1679 57.1384 84.1253 57.9261L84.1074 58.2648L84.3335 58.517C84.4248 58.6183 85.2793 59.5114 87.18 59.5848L87.2107 59.5865L87.2426 59.5859C88.4993 59.538 89.9147 59.1476 91.4518 58.4276C91.6783 58.3216 91.9797 58.2699 92.2985 58.2699C92.6619 58.2699 93.048 58.3382 93.3664 58.4723L93.4145 58.4914C94.2205 58.7739 94.7903 59.3064 94.799 59.7883C94.8037 60.0607 94.6 61.0422 91.7428 62.1709C91.4636 62.2811 91.096 62.3984 90.6699 62.5327C88.8104 63.1232 86.0013 64.0141 85.0559 66.242C84.5235 67.4969 84.6693 68.9779 85.4888 70.6432C85.8259 71.4301 91.1334 83.3851 103.076 85.3531C103.074 85.4097 103.06 85.4717 103.028 85.5447C102.825 86.0214 101.539 87.6686 93.5322 88.904C92.2794 89.096 91.9725 90.5003 91.6166 92.1329C91.488 92.7173 91.3573 93.3073 91.1777 93.9167C91.1228 94.1008 91.1126 94.1112 90.9153 94.1112C90.888 94.1112 90.8561 94.1112 90.8212 94.1112C90.4662 94.1112 89.9272 94.0376 89.3025 93.915C88.1649 93.6934 86.6107 93.4216 84.6238 93.4216C83.5149 93.4216 82.3725 93.5181 81.2263 93.7094C78.7763 94.1168 76.7838 95.526 74.6737 97.0176C71.8399 99.0201 68.9109 101.092 64.442 101.092C64.2469 101.092 64.0564 101.086 63.8654 101.076L63.8152 101.074L63.7648 101.078C63.6552 101.087 63.5447 101.092 63.4319 101.092C58.9636 101.092 56.0334 99.0207 53.2009 97.0176C51.0903 95.526 49.0968 94.1168 46.6471 93.7094C45.502 93.5187 44.3586 93.4216 43.2504 93.4216C41.2639 93.4216 39.7078 93.7256 38.5725 93.9476C37.9478 94.0697 37.4069 94.1745 37.0529 94.1745C36.7631 94.1745 36.7575 94.1574 36.6962 93.948C36.5166 93.3382 36.3853 92.7341 36.2573 92.1505C35.9006 90.5163 35.5935 89.1043 34.3413 88.9121C26.3356 87.6757 25.0487 86.0257 24.8457 85.5502C24.8139 85.4753 24.7997 85.4114 24.7965 85.3548C36.7392 83.3885 42.0456 71.4331 42.3839 70.6432C43.2048 68.9792 43.3504 67.4984 42.8164 66.242C41.8709 64.0154 39.0622 63.1232 37.2041 62.5338C36.7769 62.3986 36.4091 62.2811 36.1296 62.1709C33.7168 61.2176 32.9746 60.2572 33.0849 59.6753C33.2128 59.0042 34.3762 58.3218 35.3915 58.3218C35.6197 58.3218 35.8197 58.3586 35.9677 58.4278C37.6166 59.2006 39.1218 59.5925 40.4421 59.5925C42.5175 59.5925 43.4413 58.6268 43.5405 58.5166L43.7654 58.265L43.7473 57.928C43.7054 57.1407 43.6537 56.316 43.5992 55.4665C43.2623 50.1017 42.8408 43.4295 44.4842 39.7434C49.4584 28.5912 60.0012 27.7315 63.1135 27.7315C63.1901 27.7315 64.5431 27.7177 64.5431 27.7177C64.5985 27.7173 64.66 27.7164 64.7245 27.7164ZM64.7245 25.7927H64.7209C64.65 25.7927 64.5834 25.7927 64.5199 25.7936C64.0142 25.7987 63.1828 25.8068 63.1081 25.8076C61.2849 25.8076 57.637 26.0652 53.7185 27.7947C51.4781 28.783 49.4629 30.1192 47.729 31.7664C45.6619 33.7291 43.9779 36.1489 42.7246 38.9597C40.8893 43.0753 41.325 50.0074 41.6749 55.5782L41.6762 55.587C41.7136 56.1836 41.753 56.8066 41.789 57.4136C41.5197 57.5373 41.0832 57.6677 40.4397 57.6677C39.4045 57.6677 38.1734 57.3368 36.7816 56.6846C36.3721 56.4939 35.9047 56.3975 35.3889 56.3975C34.5603 56.3975 33.6868 56.6414 32.9291 57.0869C31.9757 57.6467 31.3598 58.4378 31.1925 59.3149C31.0822 59.8952 31.0875 61.042 32.3614 62.205C33.0621 62.8452 34.0914 63.4356 35.42 63.9607C35.7686 64.098 36.1824 64.2291 36.6207 64.3681C38.1414 64.8515 40.4431 65.5817 41.0434 66.9944C41.3475 67.7106 41.2166 68.6531 40.6553 69.7922C40.6407 69.8233 40.626 69.8537 40.6126 69.8857C40.4723 70.2132 39.1637 73.1773 36.4795 76.3034C34.9543 78.0811 33.2743 79.5667 31.489 80.7203C29.3099 82.1287 26.952 83.0495 24.4815 83.4564C23.5113 83.6157 22.8185 84.48 22.8726 85.4623C22.8892 85.7454 22.9556 86.0276 23.0707 86.3007C23.0716 86.3024 23.0727 86.3041 23.0735 86.3056C23.4658 87.2232 24.3753 88.0026 25.8539 88.6901C27.6607 89.5293 30.363 90.2353 33.885 90.7877C34.0629 91.1261 34.2477 91.9766 34.3756 92.559C34.5095 93.1779 34.6491 93.8143 34.8481 94.4903C35.0628 95.2227 35.6199 96.0979 37.0508 96.0979C37.5931 96.0979 38.2168 95.9758 38.939 95.8357C39.9966 95.6282 41.4429 95.3451 43.248 95.3451C44.2488 95.3451 45.286 95.4332 46.33 95.6067C48.3425 95.9417 50.0774 97.1673 52.0847 98.5865C55.0228 100.663 58.3485 103.014 63.4297 103.014C63.5683 103.014 63.7073 103.01 63.8446 103C64.0125 103.008 64.2207 103.014 64.4403 103.014C69.5231 103.014 72.8479 100.663 75.7828 98.5874L75.7875 98.5831C77.7953 97.1656 79.5283 95.9417 81.5401 95.6067C82.5837 95.4334 83.6206 95.3451 84.6219 95.3451C86.3463 95.3451 87.7117 95.565 88.9309 95.8027C89.7265 95.9594 90.3448 96.0347 90.8193 96.0347L90.8657 96.0356H90.9138C91.9603 96.0356 92.7293 95.4611 93.0229 94.4558C93.2178 93.7941 93.357 93.1726 93.4943 92.5432C93.6139 91.9975 93.8051 91.1227 93.983 90.7807C97.5073 90.2273 100.208 89.5227 102.016 88.6837C103.491 87.9994 104.399 87.2208 104.794 86.3071C104.912 86.0331 104.981 85.7492 104.997 85.4602C105.052 84.4796 104.359 83.6135 103.388 83.4543C92.4082 81.6447 87.4618 70.3631 87.2573 69.8838C87.2441 69.8523 87.2292 69.821 87.2137 69.7905C86.6524 68.651 86.5228 67.7095 86.8271 66.992C87.4261 65.5807 89.7263 64.8504 91.2481 64.3672C91.6887 64.2285 92.104 64.0965 92.4499 63.9599C93.9481 63.3681 95.0189 62.7262 95.7253 61.9972C96.5691 61.1282 96.7334 60.2955 96.7232 59.7506C96.6974 58.4323 95.6896 57.2608 94.0864 56.6872C93.545 56.4632 92.9275 56.3451 92.2988 56.3451C91.8707 56.3451 91.2369 56.4039 90.6369 56.684C89.3523 57.285 88.2017 57.6137 87.2139 57.6605C86.6886 57.6339 86.3202 57.52 86.0816 57.4113C86.1116 56.897 86.1448 56.3687 86.179 55.8179L86.1933 55.5821C86.5451 50.0077 86.9823 43.0702 85.1461 38.9516C83.8876 36.1308 82.1976 33.7048 80.1221 31.7379C78.3815 30.0896 76.3594 28.7536 74.1109 27.766C70.198 26.0492 66.5503 25.7927 64.7245 25.7927Z" fill="#020202"/>
</svg>
