<svg width="128" height="128" viewBox="0 0 128 128" fill="none" xmlns="http://www.w3.org/2000/svg">
<rect width="128" height="128" fill="#3D4250"/>
<path d="M76.6931 58.1742C75.0705 58.1742 73.4479 58.1625 71.8253 58.1742C71.3872 58.1742 71.2169 58.0492 71.2392 57.6195C71.2676 57.0863 71.2513 56.5491 71.2392 56.0159C71.2392 55.6936 71.367 55.5432 71.7178 55.5471C75.2612 55.5842 78.8166 55.5042 82.3478 55.68C85.0352 55.8147 87.5441 57.557 88.1769 60.352C88.3418 61.0522 88.3397 61.7793 88.1708 62.4786C88.0018 63.1779 87.6703 63.8312 87.2013 64.3893C86.6197 65.14 85.8774 65.7614 85.0246 66.2117C84.1718 66.6619 83.2285 66.9303 82.2585 66.9988C80.5305 67.1395 78.7862 67.1102 77.0501 67.1473C76.3767 67.1609 75.7013 67.1629 75.0218 67.1473C74.6425 67.1473 74.5229 67.3113 74.5269 67.6532C74.5371 68.7235 74.5148 69.8017 74.5391 70.8623C74.5492 71.3174 74.4032 71.501 73.9043 71.4756C73.164 71.4404 72.4196 71.458 71.6732 71.4756C71.3021 71.4756 71.1337 71.3779 71.1378 70.9756C71.156 69.0224 71.1621 67.0828 71.1378 65.1394C71.1378 64.6296 71.3304 64.5124 71.8152 64.5143C74.8035 64.5274 77.7917 64.5274 80.78 64.5143C81.7941 64.5143 82.7879 64.36 83.6316 63.7135C85.6335 62.1802 85.2664 59.4692 82.8913 58.5434C82.3144 58.3266 81.7032 58.2064 81.0842 58.1879C79.632 58.139 78.1635 58.1742 76.6931 58.1742Z" fill="#EF2D42"/>
<path d="M23.7218 55.6194C25.6466 55.6194 27.5754 55.6311 29.4961 55.6194C29.9444 55.6194 30.129 55.7307 30.1046 56.1878C30.0701 56.8831 30.0742 57.5824 30.1046 58.2777C30.1229 58.7074 29.9991 58.8637 29.5144 58.8637C25.9184 58.8481 22.3223 58.8637 18.7263 58.8637C18.1624 58.8637 17.6026 58.8793 17.2071 59.3579C16.8116 59.8364 16.7041 60.3345 16.9597 60.8599C17.091 61.1362 17.3059 61.3679 17.5762 61.5248C17.8465 61.6816 18.1597 61.7562 18.4748 61.7388C20.5172 61.7525 22.5596 61.7603 24.602 61.7388C26.0644 61.7232 27.4213 62.0006 28.5652 62.9225C30.1168 64.1686 30.5934 65.821 30.2364 67.6512C29.8896 69.4228 28.6686 70.6064 26.9162 71.1943C26.1603 71.4174 25.3722 71.5229 24.5817 71.5069C21.0384 71.5362 17.4931 71.5069 13.9477 71.5069C13.2703 71.5069 13.2602 71.5069 13.248 70.8682C13.2358 70.1767 13.248 69.4794 13.2358 68.7841C13.2358 68.4208 13.3636 68.2821 13.7693 68.2841C17.2822 68.2997 20.793 68.2958 24.3039 68.2841C24.6578 68.2992 25.0124 68.2809 25.3626 68.2294C26.2064 68.0653 26.8655 67.2156 26.7824 66.4715C26.7217 66.048 26.503 65.6604 26.167 65.381C25.831 65.1017 25.4008 64.9498 24.957 64.9538C23.3202 64.9343 21.6814 64.9538 20.0446 64.9538C19.286 64.9538 18.5255 64.9538 17.7689 64.9109C15.6393 64.7702 13.7287 63.2916 13.3514 61.3013C12.8586 58.6996 14.0694 56.557 17.0083 55.7854C17.4996 55.6713 18.004 55.6187 18.5092 55.6292C20.2474 55.6096 21.9876 55.6292 23.7258 55.6292L23.7218 55.6194Z" fill="white"/>
<path d="M32.5608 67.0515C32.5608 65.739 32.5121 64.4225 32.5608 63.1119C32.7494 59.0805 36.1548 56.3206 39.3533 55.76C43.1481 55.0979 46.5231 56.5979 48.4337 59.4242C49.2371 60.6345 49.6598 62.0427 49.6506 63.4791C49.679 65.991 49.6506 68.5047 49.673 71.0166C49.673 71.4072 49.5107 71.5225 49.1355 71.5166C48.3749 71.5029 47.6163 71.499 46.8557 71.5166C46.44 71.5303 46.296 71.376 46.296 70.9853C46.3102 68.9266 46.3243 66.8679 46.296 64.8093C46.2838 63.9713 46.2696 63.1061 46.0505 62.3052C45.5009 60.2856 44.0223 59.143 41.9332 58.7465C39.0937 58.2015 35.9844 60.3774 35.9439 63.5299C35.9114 65.9617 35.9317 68.3934 35.9256 70.8252C35.9256 71.5283 35.9256 71.5244 35.1894 71.5225C34.4531 71.5205 33.7372 71.5107 33.0131 71.5225C32.6379 71.5225 32.5182 71.3974 32.5223 71.04C32.5405 69.7099 32.5223 68.3797 32.5223 67.0515H32.5608Z" fill="white"/>
<path d="M68.9066 60.3306C68.9066 61.5787 68.9512 62.8287 68.8965 64.0749C68.7728 66.9461 67.2516 69.038 64.7305 70.4384C63.1979 71.2846 61.4338 71.6609 59.6735 71.5171C57.9132 71.3733 56.2401 70.7164 54.8774 69.6337C53.9213 68.9197 53.1518 68.0004 52.6303 66.9491C52.1087 65.8978 51.8496 64.7436 51.8736 63.5788C51.8736 61.0982 51.8736 58.6176 51.8614 56.137C51.8614 55.7347 52.0013 55.596 52.4171 55.6116C53.1595 55.635 53.9038 55.6409 54.6482 55.6116C55.0903 55.594 55.2201 55.7327 55.2201 56.1624C55.2019 58.4809 55.2201 60.7993 55.21 63.1178C55.21 65.5632 56.3215 67.2293 58.6702 68.1493C60.4956 68.8661 62.179 68.4247 63.6961 67.3133C64.9678 66.3836 65.5316 65.073 65.5742 63.5924C65.6432 61.1626 65.6209 58.7309 65.6331 56.2991C65.6331 55.6253 65.6331 55.6233 66.3145 55.6214C66.996 55.6194 67.7343 55.6214 68.4422 55.6214C68.8113 55.6214 68.9411 55.7425 68.937 56.1038C68.9188 57.514 68.937 58.9262 68.937 60.3364L68.9066 60.3306Z" fill="white"/>
<path d="M104.678 55.6174H112.53C113.211 55.6174 113.221 55.6174 113.234 56.2932C113.244 56.8792 113.207 57.4652 113.234 58.0511C113.256 58.4887 113.12 58.6371 112.637 58.6371C110.812 58.6117 108.986 58.6273 107.161 58.6273C106.396 58.6273 106.396 58.6273 106.396 59.3852C106.396 63.2291 106.386 67.0711 106.409 70.9091C106.409 71.417 106.242 71.5498 105.745 71.5264C105.037 71.4912 104.328 71.4912 103.62 71.5264C103.113 71.5537 102.948 71.4033 102.952 70.9013C102.975 68.0321 102.963 65.1608 102.963 62.2916C102.963 61.3345 102.963 60.3774 102.963 59.4223C102.963 58.6273 102.963 58.6234 102.113 58.6215C100.358 58.6215 98.6019 58.6215 96.8394 58.6215C96.0727 58.6215 96.0727 58.6215 96.0727 57.8636C96.0727 57.3616 96.0727 56.8577 96.0727 56.3557C96.0727 55.6272 96.0727 55.6272 96.811 55.6272H104.662L104.678 55.6174Z" fill="white"/>
<path d="M90.56 55.6311C91.6106 55.6311 92.6045 55.6194 93.6024 55.6448C93.7078 55.6448 93.8721 55.8499 93.8985 55.9788C93.929 56.2198 93.9351 56.4632 93.9167 56.7054V70.8525C93.9167 71.4795 93.8721 71.5244 93.2393 71.5205C92.5315 71.5205 91.8196 71.4834 91.1137 71.5205C90.6209 71.5439 90.5235 71.3447 90.5255 70.9228C90.5377 67.6981 90.5255 64.4772 90.5255 61.2485C90.5255 59.5961 90.5255 57.9437 90.5255 56.2913C90.5296 56.094 90.5458 55.9026 90.56 55.6311Z" fill="white"/>
</svg>
