<svg width="128" height="128" viewBox="0 0 128 128" fill="none" xmlns="http://www.w3.org/2000/svg">
<rect width="128" height="128" fill="#C6C6C6"/>
<path d="M60.443 21.9026H67.2697C67.3684 22.0957 67.5557 22.0242 67.7088 22.0456C68.9059 22.2015 70.1117 22.3002 71.2988 22.5162C79.5758 24.018 86.8159 27.6137 92.9089 33.4206C100.071 40.245 104.334 48.5677 105.698 58.389C105.834 59.3573 105.781 60.3528 106.093 61.2967V62.441C105.861 63.4707 105.861 64.5392 106.093 65.569V66.8491C105.95 66.8977 105.964 67.0222 105.95 67.1351C105.794 68.4496 105.701 69.7769 105.468 71.0784C103.637 81.3063 98.753 89.7879 90.7663 96.433C84.6161 101.551 77.5348 104.608 69.5982 105.698C68.6313 105.831 67.6373 105.776 66.6976 106.097H65.4175C64.4349 105.871 63.4136 105.871 62.4311 106.097H61.151C61.0594 105.893 60.8649 105.966 60.7219 105.954C55.0608 105.501 49.6558 104.072 44.6598 101.37C32.0887 94.5717 24.6383 84.1049 22.3089 69.97C22.1659 69.1204 22.2431 68.2365 21.907 67.4169V60.4414C22.1187 60.3571 22.0386 60.1554 22.06 60.0124C22.2445 58.748 22.3847 57.4765 22.6092 56.2207C25.7559 38.654 40.3762 24.6745 58.043 22.2973C58.8425 22.1886 59.6778 22.2416 60.443 21.9026ZM30.46 63.9528C30.5516 82.8839 45.7082 97.028 63.0847 97.4628C81.8929 97.9319 97.0238 82.9011 97.4686 64.8095C97.9191 46.4762 83.3074 30.5357 64.0458 30.4714C45.508 30.4099 30.4629 45.4607 30.46 63.9528Z" fill="#F69522"/>
<path d="M30.46 63.953C30.4628 45.4609 45.5079 30.4101 64.0458 30.4716C83.3116 30.536 97.9248 46.475 97.4728 64.8083C97.028 82.8999 81.8971 97.9307 63.0889 97.4616C45.7082 97.0282 30.5515 82.8842 30.46 63.953ZM49.0622 56.035C47.9008 56.035 46.7394 56.0221 45.5794 56.035C43.8002 56.0593 42.543 57.3222 42.5272 59.0915C42.5167 60.229 42.5167 61.3666 42.5272 62.5041C42.543 64.2791 43.8059 65.5478 45.5809 65.5563C47.9027 65.5678 50.2245 65.5678 52.5463 65.5563C54.3127 65.5478 55.5799 64.2805 55.6043 62.5041C55.62 61.3599 55.6214 60.23 55.6043 59.0929C55.5757 57.3165 54.317 56.0579 52.5449 56.035C51.3835 56.0221 50.2221 56.0336 49.0622 56.0336V56.035ZM63.6939 78.22C62.5096 78.22 61.3268 78.2086 60.1425 78.22C58.4548 78.2401 57.1933 79.5073 57.1747 81.205C57.1618 82.365 57.1661 83.5249 57.1747 84.6849C57.1861 86.4184 58.4105 87.7042 60.1626 87.7314C62.5292 87.7686 64.8963 87.7686 67.2639 87.7314C68.9673 87.7042 70.196 86.4441 70.2446 84.7349C70.2775 83.5521 70.2818 82.3664 70.2446 81.185C70.1902 79.4386 68.9201 78.2315 67.1738 78.2186C66.0138 78.2129 64.8539 78.2186 63.6939 78.2186V78.22ZM63.7311 67.1282C62.5711 67.1282 61.4112 67.1168 60.2512 67.1282C58.4148 67.1511 57.1833 68.3969 57.1733 70.2248C57.1733 71.3132 57.1733 72.4031 57.1733 73.4915C57.1733 75.3723 58.399 76.6381 60.2655 76.6467C62.5616 76.6648 64.8577 76.6648 67.1538 76.6467C68.9387 76.6324 70.2031 75.3895 70.246 73.6174C70.2746 72.4579 70.2746 71.298 70.246 70.1375C70.1974 68.3625 68.9302 67.1454 67.1409 67.1339C66.0038 67.1168 64.8682 67.1268 63.7311 67.1268V67.1282ZM49.0564 67.1282C47.8965 67.1282 46.7365 67.1139 45.5766 67.1282C43.783 67.1554 42.553 68.3883 42.5272 70.1862C42.511 71.3218 42.511 72.4579 42.5272 73.5945C42.553 75.3852 43.7873 76.6281 45.5852 76.6453C47.9051 76.6663 50.225 76.6663 52.5449 76.6453C54.3113 76.6296 55.5699 75.358 55.6014 73.5831C55.6214 72.4474 55.6214 71.3113 55.6014 70.1747C55.5714 68.3883 54.3256 67.1511 52.5363 67.1268C51.3778 67.1139 50.2178 67.1268 49.0579 67.1268L49.0564 67.1282ZM63.7054 65.5549C64.8653 65.5549 66.0253 65.5678 67.1852 65.5549C68.9016 65.532 70.1759 64.3335 70.2389 62.6414C70.2846 61.4128 70.2832 60.1785 70.2389 58.9499C70.1759 57.3094 68.9516 56.0722 67.3225 56.045C64.9082 56.0049 62.4939 56.0049 60.0796 56.045C58.3804 56.0765 57.1876 57.378 57.1761 59.0943C57.169 60.2071 57.1761 61.3199 57.1761 62.4326C57.1847 64.3006 58.4176 65.5363 60.2999 65.5549C61.4341 65.5706 62.5697 65.5606 63.7068 65.5606L63.7054 65.5549ZM78.3428 65.5549H81.8213C83.5734 65.5192 84.8248 64.3249 84.8778 62.5685C84.9164 61.3871 84.915 60.2014 84.8778 59.0185C84.8263 57.3237 83.6234 56.0693 81.9643 56.0407C79.5509 55.9997 77.1371 55.9997 74.7228 56.0407C73.0208 56.0722 71.8308 57.368 71.8208 59.0872C71.8208 60.2 71.8208 61.3113 71.8208 62.424C71.8279 64.2991 73.0508 65.532 74.9359 65.5506C76.0715 65.5706 77.2043 65.5606 78.3485 65.5606L78.3428 65.5549ZM78.3171 76.6553H81.7955C83.5562 76.6195 84.8163 75.4353 84.8778 73.6918C84.9207 72.486 84.9221 71.276 84.8778 70.0717C84.8134 68.3769 83.5905 67.1583 81.9242 67.1368C79.5342 67.1068 77.1428 67.1025 74.7528 67.1368C73.0465 67.1625 71.8365 68.4455 71.8236 70.1561C71.815 71.2689 71.8236 72.3802 71.8236 73.493C71.8236 75.4095 73.0508 76.6396 74.9831 76.651C76.0916 76.6553 77.2043 76.6553 78.3171 76.6553ZM78.36 45.0547H74.6627C74.2885 45.0538 73.9179 45.127 73.5721 45.2701C73.2264 45.4133 72.9125 45.6235 72.6485 45.8887C72.3845 46.1539 72.1757 46.4688 72.0341 46.8152C71.8925 47.1615 71.821 47.5325 71.8236 47.9067C71.8093 49.1382 71.8036 50.3711 71.8236 51.604C71.8251 51.9842 71.9017 52.3604 72.049 52.711C72.1964 53.0615 72.4115 53.3795 72.6821 53.6467C72.9527 53.9138 73.2734 54.1248 73.6259 54.2676C73.9783 54.4105 74.3554 54.4822 74.7357 54.4788C77.129 54.4922 79.5223 54.4922 81.9157 54.4788C83.549 54.4703 84.8148 53.2731 84.8749 51.6369C84.9207 50.3825 84.9235 49.1239 84.8749 47.8695C84.8063 46.1947 83.5877 45.0647 81.9142 45.0547C80.7285 45.0462 79.5443 45.0533 78.3586 45.0533L78.36 45.0547ZM63.6968 54.486C64.881 54.486 66.0653 54.4946 67.2496 54.486C68.8915 54.4717 70.1502 53.3146 70.2274 51.6698C70.2875 50.394 70.2889 49.111 70.2274 47.8352C70.1488 46.1761 68.9116 45.0247 67.261 45.0147C64.8682 45.0004 62.4767 44.9961 60.0839 45.0147C58.4262 45.029 57.189 46.3019 57.1733 47.9639C57.1628 49.1482 57.1628 50.3325 57.1733 51.5167C57.1904 53.2188 58.4376 54.4645 60.1425 54.4831C61.3282 54.5032 62.5125 54.486 63.6968 54.486ZM49.0107 54.486C50.2193 54.486 51.4264 54.496 52.635 54.486C54.2627 54.4688 55.5356 53.2703 55.5957 51.6455C55.6414 50.3911 55.6386 49.1339 55.5957 47.8795C55.5914 47.4992 55.5121 47.1234 55.3625 46.7737C55.2128 46.424 54.9957 46.1073 54.7235 45.8416C54.4513 45.5759 54.1294 45.3665 53.7762 45.2254C53.4229 45.0842 53.0454 45.0141 52.665 45.019C50.2727 44.9999 47.8803 44.9999 45.4879 45.019C43.7844 45.0319 42.5472 46.2862 42.5272 47.994C42.5139 49.1544 42.5139 50.3148 42.5272 51.4753C42.5472 53.2302 43.7859 54.4788 45.5308 54.4889C46.6893 54.5017 47.8507 54.486 49.0107 54.486Z" fill="#FEFEFD"/>
<path d="M63.6939 78.2185C64.8538 78.2185 66.0138 78.2185 67.1738 78.2185C68.9201 78.23 70.1888 79.4385 70.2446 81.1849C70.2818 82.3677 70.2775 83.5535 70.2446 84.7349C70.1959 86.4512 68.9673 87.7041 67.2639 87.7313C64.8972 87.7694 62.5301 87.7694 60.1625 87.7313C58.4104 87.7041 57.1861 86.4183 57.1747 84.6848C57.1675 83.5248 57.1632 82.3649 57.1747 81.2049C57.1933 79.5115 58.4619 78.24 60.1425 78.2199C61.3282 78.2071 62.5111 78.2185 63.6939 78.2185Z" fill="#C6C6C6"/>
<path d="M63.7311 67.1267C64.8667 67.1267 66.0038 67.1167 67.1394 67.1267C68.9273 67.1453 70.1959 68.3624 70.2446 70.1303C70.276 71.2897 70.276 72.4497 70.2446 73.6101C70.2016 75.3837 68.9373 76.6252 67.1523 76.6395C64.8562 76.6585 62.5601 76.6585 60.2641 76.6395C58.3976 76.6252 57.1775 75.3636 57.1718 73.4843C57.1718 72.3958 57.1718 71.3059 57.1718 70.2175C57.1818 68.3896 58.4133 67.1438 60.2498 67.121C61.4111 67.1152 62.5711 67.1267 63.7311 67.1267Z" fill="#C6C6C6"/>
<path d="M49.0578 67.1267C50.2178 67.1267 51.3778 67.1138 52.5377 67.1267C54.327 67.151 55.5728 68.3867 55.6028 70.1746C55.6219 71.3102 55.6219 72.4464 55.6028 73.5829C55.5713 75.3579 54.3155 76.6294 52.5463 76.6452C50.2264 76.6652 47.9065 76.6652 45.5866 76.6452C43.7887 76.6294 42.5544 75.3865 42.5286 73.5944C42.5115 72.4587 42.5115 71.3226 42.5286 70.186C42.5544 68.3882 43.783 67.1538 45.578 67.1281C46.7394 67.1124 47.8979 67.1267 49.0578 67.1267Z" fill="#C6C6C6"/>
<path d="M63.7068 65.5605C62.5711 65.5605 61.434 65.5691 60.2984 65.5605C58.4162 65.5419 57.1818 64.3062 57.1747 62.4382C57.1747 61.3255 57.1747 60.2127 57.1747 59.0999C57.1861 57.3836 58.3804 56.0806 60.0781 56.0506C62.4915 56.0067 64.9058 56.0067 67.3211 56.0506C68.9487 56.0778 70.1816 57.3135 70.2374 58.9555C70.2846 60.1841 70.2846 61.4184 70.2374 62.647C70.1745 64.3391 68.8972 65.5376 67.1838 65.5605C66.0267 65.5734 64.8667 65.5605 63.7068 65.5605Z" fill="#C6C6C6"/>
<path d="M78.3485 65.5605C77.2129 65.5605 76.0758 65.5705 74.9402 65.5605C73.0551 65.5405 71.8322 64.309 71.825 62.4339C71.825 61.3212 71.825 60.2099 71.825 59.0971C71.8365 57.3808 73.025 56.0821 74.7271 56.0506C77.1404 56.0058 79.5542 56.0058 81.9685 56.0506C83.6277 56.0792 84.8291 57.3379 84.882 59.0284C84.9178 60.2113 84.9192 61.3956 84.882 62.5784C84.8262 64.3333 83.579 65.5276 81.8255 65.5648H78.3485V65.5605Z" fill="#C6C6C6"/>
<path d="M78.3171 76.6552C77.2043 76.6552 76.0915 76.6638 74.9802 76.6552C73.0479 76.638 71.8336 75.4137 71.8207 73.4971C71.8207 72.3844 71.8136 71.273 71.8207 70.1603C71.835 68.4439 73.0436 67.1667 74.7499 67.141C77.1399 67.1052 79.5314 67.1095 81.9213 67.141C83.5891 67.161 84.8105 68.3796 84.8749 70.0759C84.9206 71.2816 84.9192 72.4902 84.8749 73.6959C84.8134 75.4394 83.5533 76.6223 81.7926 76.6595H78.3171V76.6552Z" fill="#C6C6C6"/>
<path d="M78.3585 45.0532C79.5428 45.0532 80.7285 45.0532 81.9128 45.0532C83.5848 45.0632 84.8034 46.1974 84.8734 47.868C84.9249 49.1223 84.9221 50.381 84.8734 51.6353C84.8134 53.2716 83.5476 54.4687 81.9142 54.4773C79.5209 54.4887 77.1275 54.4887 74.7342 54.4773C74.354 54.4807 73.9768 54.4089 73.6244 54.2661C73.272 54.1233 72.9513 53.9123 72.6807 53.6451C72.4101 53.378 72.1949 53.06 72.0476 52.7094C71.9003 52.3589 71.8236 51.9827 71.8222 51.6024C71.8007 50.371 71.805 49.1381 71.8222 47.9052C71.8193 47.5309 71.8907 47.1597 72.0322 46.8132C72.1737 46.4666 72.3825 46.1516 72.6465 45.8863C72.9105 45.6209 73.2245 45.4105 73.5703 45.2673C73.9162 45.1241 74.2869 45.0508 74.6613 45.0518H78.3585V45.0532Z" fill="#C6C6C6"/>
<path d="M49.0621 56.0332C50.2235 56.0332 51.3849 56.0204 52.5449 56.0332C54.3156 56.0561 55.5756 57.3205 55.6042 59.0912C55.6228 60.2283 55.62 61.3653 55.6042 62.5024C55.5799 64.2788 54.317 65.546 52.5463 65.5546C50.2245 65.5661 47.9027 65.5661 45.5808 65.5546C43.8059 65.546 42.5429 64.2774 42.5272 62.5024C42.5167 61.3648 42.5167 60.2273 42.5272 59.0898C42.5429 57.3191 43.8001 56.0576 45.5794 56.0332C46.7394 56.0204 47.9008 56.0332 49.0621 56.0332Z" fill="#4278BB"/>
<path d="M63.6967 54.4857C62.5125 54.4857 61.3282 54.4957 60.1439 54.4857C58.439 54.4671 57.1918 53.2213 57.1747 51.5193C57.1623 50.335 57.1623 49.1507 57.1747 47.9665C57.1904 46.3016 58.4276 45.0315 60.0853 45.0172C62.4782 44.9972 64.8696 45.0015 67.2624 45.0172C68.913 45.0272 70.1502 46.1786 70.2288 47.8377C70.2903 49.1135 70.2889 50.3965 70.2288 51.6723C70.1516 53.3171 68.8929 54.4742 67.251 54.4885C66.0653 54.5 64.881 54.4857 63.6967 54.4857Z" fill="#4278BB"/>
<path d="M49.0106 54.4857C47.8507 54.4857 46.6893 54.4943 45.5293 54.4857C43.7873 54.4699 42.5472 53.227 42.5258 51.4721C42.5124 50.3116 42.5124 49.1512 42.5258 47.9908C42.5458 46.2816 43.783 45.0272 45.4864 45.0158C47.8788 44.9986 50.2712 44.9986 52.6636 45.0158C53.0439 45.0109 53.4215 45.081 53.7747 45.2222C54.1279 45.3633 54.4498 45.5727 54.722 45.8384C54.9942 46.1041 55.2114 46.4209 55.361 46.7706C55.5107 47.1202 55.5899 47.496 55.5942 47.8764C55.6371 49.1307 55.64 50.3879 55.5942 51.6423C55.5341 53.2671 54.2612 54.4657 52.6335 54.4828C51.4264 54.5028 50.2192 54.4857 49.0106 54.4857Z" fill="#4278BB"/>
</svg>
