<svg width="128" height="128" viewBox="0 0 128 128" fill="none" xmlns="http://www.w3.org/2000/svg">
<rect width="128" height="128" fill="#003559"/>
<path d="M69.7067 91.3147C71.8924 89.7788 73.4874 89.8969 75.4368 88.0066C77.209 86.2344 74.787 84.1668 72.9557 82.8081C71.0063 81.3313 72.1877 81.095 74.6688 80.6224C81.6986 79.2637 91.0322 76.9598 94.931 75.8965C104.678 73.1791 113.244 66.3266 113.185 58.4108C113.126 53.0351 109.345 48.4274 105.328 45.1783C101.311 41.9293 97.0577 40.0389 95.699 39.6254C92.8634 38.7984 94.3403 40.6887 94.3403 40.6887C94.3403 40.6887 96.8804 41.5749 102.197 45.5328C106.096 48.4274 109.818 52.9169 109.877 57.761C109.995 70.2845 92.9225 74.0652 92.9225 74.0652C92.9225 74.0652 108.459 69.4575 108.341 57.761C108.282 52.7988 103.024 46.3007 95.9353 41.5748C90.6777 38.0895 84.5932 36.1401 83.2935 35.9629C79.631 35.3721 81.4032 37.1443 81.4032 37.1443C81.4032 37.1443 86.2472 38.3849 92.4499 42.6382C97.5302 46.1235 102.374 51.7355 102.433 58.2336C102.492 66.622 94.104 70.9934 90.4414 72.8247C84.7704 75.6602 78.6858 77.078 78.6858 77.078C78.6858 77.078 85.6565 75.2467 91.2094 71.7023C96.2897 68.5123 100.661 63.0776 100.661 58.2336C100.602 49.2544 91.1503 42.1656 83.2935 38.0304C79.0993 35.8447 75.3186 34.6042 73.7237 34.2497C71.8924 33.8362 69.2341 33.7181 72.365 35.6675C74.6688 37.0853 77.9179 39.2119 80.6943 41.7521C85.6565 46.3598 90.087 52.7397 90.1461 58.588C90.2051 66.0313 85.1839 71.8795 79.5128 74.1834C74.3735 76.31 69.2931 76.8417 67.6982 77.1961C65.3352 77.6687 65.4534 79.6181 65.8669 80.0907C67.0484 81.5676 70.1792 82.6309 70.1792 85.171C70.1792 89.4834 64.331 90.0151 63.6812 90.0151C62.9723 90.0151 57.1831 89.5425 57.1831 85.171C57.1831 82.6309 60.2549 81.5676 61.4955 80.0907C61.8499 79.6181 62.0271 77.6687 59.6051 77.1961C58.0101 76.9008 52.9298 76.31 47.8495 74.1834C42.1784 71.8795 37.0981 66.0313 37.2163 58.588C37.2754 52.7397 41.7059 46.3598 46.668 41.7521C49.3854 39.2119 52.6344 37.1443 54.9974 35.6675C58.1283 33.7181 55.47 33.8362 53.6387 34.2497C51.9846 34.6042 48.2039 35.9038 44.0688 38.0304C36.212 42.1065 26.7603 49.2544 26.7012 58.2336C26.6421 63.0776 31.0726 68.4533 36.153 71.7023C41.7059 75.2467 48.6765 77.078 48.6765 77.078C48.6765 77.078 42.592 75.6602 36.9209 72.8247C33.2584 70.9934 24.8109 66.622 24.8699 58.2336C24.929 51.6764 29.773 46.1235 34.8533 42.6382C41.0561 38.3849 45.9001 37.1443 45.9001 37.1443C45.9001 37.1443 47.6723 35.3721 44.0097 35.9629C42.7101 36.1992 36.6255 38.0895 31.368 41.5748C24.2201 46.3007 18.9626 52.7988 18.9035 57.761C18.7854 69.4575 34.2626 74.0652 34.2626 74.0652C34.2626 74.0652 17.1313 70.2845 17.3085 57.761C17.3676 52.9169 21.0892 48.4864 24.9881 45.5328C30.3047 41.5749 32.8448 40.6887 32.8448 40.6887C32.8448 40.6887 34.3217 38.7984 31.4862 39.6254C30.1275 40.0389 25.8742 41.8702 21.8572 45.1783C17.8402 48.4274 14.0595 53.0351 14.0004 58.4108C13.9414 66.3266 22.507 73.2382 32.2541 75.8965C36.153 76.9598 45.5456 79.2637 52.5163 80.6224C54.9974 81.095 56.1788 81.3313 54.2294 82.8081C52.3982 84.1668 49.9761 86.2344 51.7483 88.0066C53.6978 89.956 55.2927 89.7788 57.4785 91.3147C59.6642 92.8506 60.4321 94.6228 63.7402 94.6228C66.753 94.6228 67.5209 92.8506 69.7067 91.3147Z" fill="white"/>
</svg>
