<svg width="128" height="128" viewBox="0 0 128 128" fill="none" xmlns="http://www.w3.org/2000/svg">
<rect width="128" height="128" fill="white"/>
<path fill-rule="evenodd" clip-rule="evenodd" d="M37 52.4053C37 36.6917 48.734 24 64.5 24C80.266 24 93 36.6917 93 52.4053C93 70.8385 64.2979 109.5 64.2979 109.5C64.2979 109.5 37 72 37 52.4053ZM57.2035 42.2074L64.1791 32.1801C64.5769 31.6081 65.4231 31.6081 65.8209 32.1801L72.7996 42.212C72.9293 42.3984 73.1187 42.5352 73.3364 42.5997L84.9809 46.0499C85.6858 46.2587 85.9319 47.1312 85.4401 47.6777L77.7817 56.187C77.6016 56.3871 77.5098 56.6515 77.5271 56.9203L78.374 70.0462C78.4265 70.8607 77.5339 71.3917 76.8432 70.9568L65.543 63.8419C65.2121 63.6336 64.7902 63.6372 64.4629 63.8512L53.5472 70.9883C52.8821 71.4232 52 70.946 52 70.1514V56.8837C52 56.6367 51.9086 56.3984 51.7433 56.2148L44.0714 47.6905C43.5768 47.1409 43.8291 46.2631 44.54 46.06L56.6573 42.5979C56.879 42.5346 57.0719 42.3967 57.2035 42.2074Z" fill="#EE9F37"/>
</svg>
