<svg width="128" height="128" viewBox="0 0 128 128" fill="none" xmlns="http://www.w3.org/2000/svg">
<rect width="128" height="128" fill="white"/>
<path d="M28.5925 79.1118L57.8076 58.8502H69.8431L99.0582 77.9344L99.5291 82.8795L69.5867 102.424C69.5867 102.424 63.459 106.904 57.5512 102.66L28.1216 83.115L28.5925 79.1118Z" fill="#223A71"/>
<path d="M33.7834 75.428L58.2837 91.9219C58.2837 91.9219 62.9932 94.9832 70.5338 91.9219L95.5102 75.6635L62.5432 55.4019L33.7834 75.428Z" fill="#1D325F"/>
<path d="M29.0635 61.4405L58.2785 41.1998H70.3141L99.5291 60.2788L100 65.2291L70.0577 84.7686C70.0577 84.7686 63.93 89.2427 58.0221 85.0041L28.5925 65.4489L29.0635 61.4405Z" fill="#2C4985"/>
<path d="M34.2493 57.9083L58.7495 74.4023C58.7495 74.4023 63.4591 77.4635 70.9996 74.4023L95.9708 58.1438L63.0038 37.8822L34.2493 57.9083Z" fill="#254177"/>
<path d="M28.5925 44.7163L57.8076 24.4547H69.8431L99.0582 43.5389L99.5291 48.484L69.5867 68.0392C69.5867 68.0392 63.459 72.5132 57.5512 68.2746L28.1216 48.7195L28.5925 44.7163Z" fill="#324E8D"/>
</svg>
