<svg width="128" height="128" viewBox="0 0 128 128" fill="none" xmlns="http://www.w3.org/2000/svg">
<rect width="128" height="128" fill="white"/>
<path d="M46.5644 63.6861C46.5644 64.9929 46.548 66.2997 46.5644 67.6066C46.5644 68.0901 46.4603 68.336 45.9288 68.3139C45.2685 68.2835 44.6055 68.2973 43.9452 68.3139C43.4274 68.3139 43.1397 68.1067 43.0849 67.5624C43.0334 67.3519 42.9503 67.1507 42.8384 66.9656C42.6517 67.0279 42.4767 67.1213 42.3206 67.2419C40.9014 68.8112 39.1123 68.7338 37.3233 68.2641C36.3233 67.9879 35.6795 67.2364 35.3836 66.1533C35.011 64.7083 35.3425 63.4264 36.3562 62.4483C36.9983 61.8757 37.7681 61.4682 38.6 61.2603C39.7343 60.9591 40.9288 60.879 42.0986 60.7436C42.9836 60.6414 43.2192 60.2436 42.9206 59.3871C42.6219 58.5306 42.0986 58.0388 41.1808 58.0056C40.7351 57.9706 40.2894 58.0738 39.9035 58.3014C39.5177 58.5291 39.21 58.8703 39.0219 59.2793C38.9206 59.4672 38.6904 59.7186 38.5206 59.7158C37.748 59.701 36.9769 59.642 36.211 59.539C35.8466 59.4921 35.6987 59.2627 35.8028 58.84C36.148 57.4586 37.1452 56.7706 38.3343 56.2678C39.8274 55.6351 41.4 55.624 42.9699 55.8368C44 55.9257 44.9616 56.3938 45.6712 57.1519C46.3754 57.9449 46.4932 58.9201 46.5233 59.9148C46.5644 61.1746 46.5233 62.4373 46.5233 63.6971L46.5644 63.6861ZM43.0603 63.4347C43.0603 62.9291 43.0384 62.4179 42.3891 62.4594C41.1891 62.5395 40.0466 62.813 39.2795 63.8712C38.8247 64.4984 38.8849 65.167 39.4165 65.8052C39.6238 66.08 39.9179 66.2752 40.2502 66.3586C40.5824 66.442 40.933 66.4085 41.2439 66.2638C42.5123 65.7416 42.8329 64.6199 43.0603 63.4347Z" fill="#454545"/>
<path d="M104.323 63.0782C104.323 64.6779 104.323 66.2804 104.304 67.8829C104.28 67.9898 104.23 68.0887 104.157 68.1705C104.085 68.2522 103.993 68.3139 103.89 68.3498C103.095 68.3967 102.297 68.3967 101.501 68.3498C101.392 68.3202 101.291 68.2654 101.206 68.1896C101.122 68.1138 101.056 68.0192 101.014 67.9132C100.707 66.9103 100.551 66.844 99.8301 67.6121C98.5562 68.9714 95.4027 69.0515 93.9781 67.7088C92.4219 66.2417 92.7726 63.1059 94.6849 62.114C95.6048 61.693 96.5702 61.3814 97.5616 61.1857C98.4438 60.9702 99.3589 60.9094 100.255 60.7353C100.338 60.7141 100.415 60.6736 100.48 60.617C100.544 60.5604 100.595 60.4892 100.627 60.4093C100.734 59.76 100.734 59.0472 100.145 58.6577C99.6769 58.3283 99.1188 58.1536 98.5479 58.1576C97.8137 58.2267 97.1151 58.5748 96.8438 59.434C96.789 59.6108 96.4164 59.7849 96.1863 59.7904C95.4822 59.807 94.7753 59.7518 94.0712 59.7048C93.4877 59.6661 93.3945 59.2931 93.5698 58.8317C93.8818 57.9339 94.5163 57.1866 95.3479 56.7375C96.3749 56.1826 97.5088 55.8585 98.6717 55.7874C99.8346 55.7163 100.999 55.9 102.085 56.3258C103.312 56.7789 104.192 57.6713 104.17 59.1577C104.148 60.4646 104.17 61.7714 104.17 63.0755L104.323 63.0782ZM100.688 63.6308C100.711 63.3816 100.692 63.1302 100.63 62.8876C100.551 62.708 100.277 62.4621 100.131 62.487C99.0109 62.6804 97.8986 62.9318 97.1178 63.885C96.737 64.3519 96.7808 65.4875 97.1781 65.9433C97.4032 66.2359 97.7266 66.4354 98.0874 66.5041C98.4483 66.5728 98.8216 66.506 99.137 66.3163C100.238 65.7637 100.668 64.8299 100.688 63.6446V63.6308Z" fill="#454545"/>
<path d="M28.748 62.8213C28.748 61.7161 28.726 60.611 28.748 59.5224C28.7671 58.9008 28.4904 58.666 27.9096 58.6135C26.9754 58.5278 26.9754 58.5112 26.9589 57.547C26.9589 57.4779 26.9589 57.4089 26.9589 57.3425C26.9589 56.2927 26.9589 56.265 27.9644 56.2623C28.5644 56.2623 28.7671 56.0053 28.7507 55.4334C28.7233 54.5659 28.7507 53.6928 28.7507 52.8253C28.7507 52.3639 28.885 52.1511 29.3726 52.1705C30.0986 52.1981 30.8302 52.187 31.5644 52.1843C31.9891 52.1843 32.1726 52.3583 32.1617 52.8059C32.137 53.6983 32.1617 54.5935 32.1617 55.4859C32.1617 56.0385 32.3863 56.2788 32.937 56.2595C34.2384 56.2153 34.1699 56.2263 34.1671 57.5663C34.1671 58.5057 34.0904 58.5748 33.1617 58.6135C32.3178 58.6466 32.1671 58.793 32.1644 59.6357C32.1644 61.3984 32.1644 63.1639 32.1644 64.9266C32.1644 65.8853 32.3836 66.1312 33.3315 66.1146C33.9836 66.0898 34.1644 66.366 34.1644 67.0126C34.1397 68.5183 34.1644 68.5294 32.6521 68.5128C31.9668 68.5196 31.282 68.4771 30.6028 68.3857C30.0981 68.3339 29.631 68.0932 29.2937 67.7111C28.9564 67.329 28.7734 66.8333 28.7808 66.3218C28.7288 65.1559 28.7808 63.9872 28.7808 62.8213H28.748Z" fill="#454545"/>
<path d="M18 66.786L19.5014 64.9294C19.9534 65.2609 20.3205 65.6311 20.7671 65.8135C21.3074 66.0223 21.8791 66.1363 22.4575 66.1506C23.063 66.1671 23.3753 65.7057 23.5096 65.1449C23.5827 64.898 23.568 64.633 23.4679 64.3959C23.3679 64.1588 23.1888 63.9644 22.9616 63.8463C22.3342 63.4872 21.6466 63.2357 20.9973 62.9097C20.2932 62.5561 19.5342 62.2632 19.1397 61.4951C18.3342 59.9286 18.6959 57.0469 20.8466 56.1822C22.6849 55.4445 24.3123 55.9059 25.9288 56.7485C26.2603 56.9226 26.3918 57.1851 26.0849 57.5221C25.9127 57.7055 25.761 57.9075 25.6329 58.1244C25.2658 58.7848 24.8521 59.0168 24.1671 58.4809C23.8741 58.3126 23.5427 58.2241 23.2055 58.2239C22.6986 58.1825 22.0329 58.6908 21.9726 59.1357C21.8877 59.7573 22.3425 60.0474 22.7945 60.2767C23.6959 60.7492 24.6438 61.1304 25.5342 61.6278C25.9306 61.8493 26.2654 62.1679 26.5076 62.5542C26.7499 62.9404 26.8919 63.3819 26.9205 63.838C27.1205 65.6367 26.6137 67.1258 25.0521 68.0846C23.6822 68.93 22.1342 68.9134 20.6219 68.5432C19.5613 68.3076 18.6262 67.6809 18 66.786Z" fill="#454545"/>
<path d="M58.4165 62.5642C58.4165 61.4591 58.4165 60.3539 58.4165 59.2681C58.4165 58.6796 58.211 58.3895 57.5754 58.3923C56.737 58.3923 56.7041 58.3122 56.7096 57.2402C56.7096 56.3201 56.7617 56.2262 57.5781 56.2317C58.2247 56.2317 58.4192 55.9195 58.4137 55.3448C58.4137 54.4745 58.4137 53.6042 58.4137 52.7339C58.3973 52.643 58.402 52.5496 58.4273 52.4608C58.4526 52.372 58.4979 52.2903 58.5597 52.2221C58.6215 52.1539 58.6981 52.101 58.7835 52.0676C58.8689 52.0342 58.9609 52.0211 59.0521 52.0294C59.7343 52.0073 60.422 52.0045 61.1014 52.0294C61.5726 52.0432 61.7699 52.3057 61.7562 52.7947C61.7315 53.6236 61.7398 54.4524 61.7562 55.2813C61.7726 56.1102 61.9014 56.1986 62.7151 56.2593C63.0411 56.2815 63.6028 56.4113 63.6302 56.5688C63.7058 57.1287 63.6882 57.6973 63.5781 58.2514C63.5617 58.3481 63.0959 58.4116 62.8357 58.4199C61.8329 58.4558 61.7589 58.5138 61.7535 59.5251C61.7535 61.2436 61.7535 62.9621 61.7535 64.6778C61.7535 65.6558 62.0274 65.9819 62.9809 66.0288C63.5507 66.0565 63.7206 66.3051 63.7233 66.8383C63.7233 68.3966 63.748 68.3994 62.2192 68.4021C61.7425 68.4021 61.2631 68.4021 60.7863 68.3634C59.3315 68.2723 58.4548 67.3439 58.422 65.8769V65.7387C58.4201 64.6833 58.4183 63.6251 58.4165 62.5642Z" fill="#454545"/>
<path d="M92.0274 59.8181C90.948 59.3318 90.0411 58.6301 88.9863 59.1274C88.3534 59.423 87.6658 59.8457 87.2849 60.4066C86.8288 61.0423 86.5858 61.8082 86.5912 62.5928C86.5966 63.3775 86.8502 64.1399 87.3151 64.7691C87.863 65.5041 88.5891 66.1285 89.5069 66.0815C90.3288 66.0373 91.1233 65.6754 92.011 65.4295C92.011 66.2196 92.0274 67.1203 91.9891 68.0183C91.9891 68.1398 91.7151 68.2945 91.5397 68.3553C88.137 69.4853 85.0384 68.3001 83.7534 64.9846C82.6055 61.9925 83.5754 58.3372 86.7863 56.801C87.541 56.4161 88.373 56.2102 89.2187 56.1992C90.0644 56.1882 90.9014 56.3723 91.6658 56.7375C91.811 56.8066 91.9973 56.9834 92.0027 57.116C92.0411 57.9697 92.0274 58.8262 92.0274 59.8181Z" fill="#454545"/>
<path d="M55.4164 59.1301C54.4904 58.8207 53.6575 58.6577 52.8301 59.1301C52.4457 59.3343 52.1216 59.6374 51.8907 60.0085C51.6597 60.3797 51.5301 60.8058 51.515 61.2437C51.4328 63.3462 51.4109 65.4543 51.4164 67.5596C51.4164 68.1481 51.252 68.405 50.6575 68.3885C49.9972 68.3664 49.337 68.3719 48.6767 68.3885C48.2328 68.3885 48 68.2365 48.0027 67.753C48.0027 64.1115 48.0027 60.471 48.0027 56.8314C48.0027 56.3949 48.1753 56.2042 48.6137 56.2153C49.3178 56.2346 50.0274 56.1877 50.7287 56.2429C50.8627 56.2618 50.991 56.3095 51.1049 56.3829C51.2189 56.4564 51.3158 56.5537 51.389 56.6684C51.6191 57.1298 51.8082 57.0276 52.1041 56.7596C52.4846 56.3964 52.9411 56.1239 53.4399 55.9623C53.9388 55.8007 54.4672 55.754 54.9863 55.8257C55.7726 55.9224 55.9589 56.2125 55.7918 56.9668C55.6328 57.652 55.5342 58.3537 55.4164 59.1301Z" fill="#454545"/>
<path d="M68.137 60.2213V67.4352C68.137 68.3635 68.1123 68.3856 67.1671 68.3911C66.6877 68.3911 66.2082 68.3745 65.7315 68.3911C65.1835 68.4188 64.9616 68.1784 64.9671 67.6175C64.9863 65.4653 64.9671 63.313 64.9671 61.1607C64.9671 58.4365 64.9671 55.7114 64.9671 52.9854C64.9671 52.0875 65.0466 52.0156 65.9534 52.0074C66.3616 52.0074 66.7753 52.0074 67.1836 52.0074C68.0603 52.0074 68.1233 52.0709 68.126 52.9357C68.1333 55.3652 68.137 57.7937 68.137 60.2213Z" fill="#454545"/>
<path d="M105.564 60.1607C105.564 57.7349 105.581 55.3091 105.564 52.8805C105.564 52.2257 105.786 51.9605 106.438 52.0047C106.937 52.0379 107.438 52.024 107.94 52.0047C108.441 51.9854 108.597 52.1953 108.592 52.6623C108.592 53.7149 108.592 54.7676 108.592 55.8202C108.592 59.7131 108.578 63.6032 108.605 67.4961C108.605 68.1868 108.397 68.4078 107.71 68.4023C105.575 68.4023 105.575 68.4023 105.575 66.2694L105.564 60.1607Z" fill="#454545"/>
<path d="M60.0027 73.7816V70.2617H60.8247V73.8258C60.8247 74.1546 60.9808 74.2734 61.2411 74.2734C61.5014 74.2734 61.6575 74.1546 61.6575 73.8258V70.2617H62.4438V73.7816C62.4438 74.5193 62.0274 74.942 61.2274 74.942C60.4274 74.942 60.0027 74.5193 60.0027 73.7816Z" fill="#629640"/>
<path d="M66.7672 70.2921H67.4878V74.9088H66.7672V70.2921Z" fill="#629640"/>
<path d="M68.3672 70.2921H69.3206L70.0631 73.055H70.0768V70.2921H70.7562V74.9088H69.9727L69.0576 71.5382H69.0439V74.9088H68.3672V70.2921Z" fill="#629640"/>
<path d="M78.3179 73.8258V73.5495H79.1207V73.8672C79.111 73.9278 79.1155 73.9897 79.134 74.0481C79.1525 74.1065 79.1844 74.1597 79.2272 74.2033C79.2699 74.2469 79.3222 74.2797 79.3799 74.2991C79.4375 74.3185 79.4989 74.3239 79.559 74.3148C79.833 74.3148 80.0001 74.196 80.0001 73.8534C80.0001 73.5108 79.8303 73.2263 79.2741 72.8118C78.5645 72.2786 78.3344 71.9029 78.3344 71.3751C78.3344 70.6485 78.7727 70.2286 79.5974 70.2286C80.422 70.2286 80.833 70.6485 80.833 71.389V71.5796H80.0303V71.3392C80.0303 71.0105 79.8768 70.8834 79.6056 70.8834C79.3344 70.8834 79.1809 71.0104 79.1809 71.3254C79.1809 71.6404 79.359 71.9056 79.9152 72.3228C80.6248 72.856 80.8467 73.2235 80.8467 73.7982C80.8467 74.5497 80.4001 74.9724 79.5672 74.9724C78.7344 74.9724 78.3179 74.5524 78.3179 73.8258Z" fill="#629640"/>
<path d="M74.97 73.8258V73.5495H75.7727V73.8672C75.763 73.9278 75.7676 73.9897 75.7861 74.0481C75.8046 74.1065 75.8365 74.1597 75.8792 74.2033C75.9219 74.2469 75.9742 74.2797 76.0319 74.2991C76.0896 74.3185 76.1509 74.3239 76.2111 74.3148C76.485 74.3148 76.6522 74.196 76.6522 73.8534C76.6522 73.5108 76.4823 73.2263 75.9261 72.8118C75.2165 72.2786 74.9864 71.8918 74.9864 71.3751C74.9864 70.6485 75.4248 70.2286 76.2494 70.2286C77.0741 70.2286 77.485 70.6485 77.485 71.389V71.5796H76.6823V71.3392C76.6823 71.0105 76.5289 70.8834 76.2576 70.8834C75.9864 70.8834 75.833 71.0104 75.833 71.3254C75.833 71.6404 76.0111 71.9056 76.5672 72.3228C77.2768 72.856 77.4987 73.2235 77.4987 73.7982C77.4987 74.5497 77.0522 74.9724 76.2193 74.9724C75.3864 74.9724 74.97 74.5524 74.97 73.8258Z" fill="#629640"/>
<path d="M63.2521 73.8258V73.5495H64.0549V73.8672C64.0452 73.9278 64.0497 73.9897 64.0682 74.0481C64.0867 74.1065 64.1186 74.1597 64.1614 74.2033C64.2041 74.2469 64.2564 74.2797 64.3141 74.2991C64.3717 74.3185 64.4331 74.3239 64.4932 74.3148C64.7672 74.3148 64.9343 74.196 64.9343 73.8534C64.9343 73.5108 64.7645 73.2263 64.2083 72.8118C63.4987 72.2786 63.2686 71.9029 63.2686 71.3751C63.2686 70.6485 63.7069 70.2286 64.5316 70.2286C65.3562 70.2286 65.7672 70.6485 65.7672 71.389V71.5796H64.9645V71.3392C64.9645 71.0105 64.811 70.8834 64.5398 70.8834C64.2686 70.8834 64.1152 71.0104 64.1152 71.3254C64.1152 71.6404 64.2932 71.9056 64.8494 72.3228C65.559 72.856 65.7836 73.2235 65.7836 73.7982C65.7836 74.5497 65.3343 74.9724 64.5015 74.9724C63.6686 74.9724 63.2521 74.5524 63.2521 73.8258Z" fill="#629640"/>
<path d="M86.7452 70.2921H87.463V74.9088H86.7452V70.2921Z" fill="#629640"/>
<path d="M91.5234 70.2921H94.0932V70.9524H92.4631V72.1681H93.759V72.8312H92.4631V74.2485H94.0932V74.9088H91.5234V70.2921Z" fill="#629640"/>
<path d="M71.7836 70.2921H74.3534V70.9524H72.7233V72.1681H74.0192V72.8312H72.7233V74.2485H74.3534V74.9088H71.7836V70.2921Z" fill="#629640"/>
<path d="M94.9864 73.8396V71.3531C94.9864 70.6402 95.3836 70.2203 96.1398 70.2203C96.896 70.2203 97.296 70.6402 97.296 71.3531V71.8421H96.5535V71.3144C96.5535 71.0132 96.3974 70.8861 96.1617 70.8861C95.9261 70.8861 95.7699 71.0132 95.7699 71.3144V73.8949C95.7699 74.196 95.9261 74.3148 96.1617 74.3148C96.3974 74.3148 96.5535 74.196 96.5535 73.8949V73.1876H97.296V73.8396C97.296 74.5525 96.896 74.9752 96.1398 74.9752C95.3836 74.9752 94.9864 74.5525 94.9864 73.8396Z" fill="#629640"/>
<path d="M98.9343 70.9524H98.1809V70.2921H100.406V70.9524H99.6439V74.9088H98.9261L98.9343 70.9524Z" fill="#629640"/>
<path d="M101.164 73.8258V71.389C101.164 70.6485 101.551 70.2286 102.26 70.2286C102.97 70.2286 103.356 70.6485 103.356 71.389V73.8258C103.356 74.5635 102.97 74.9862 102.26 74.9862C101.551 74.9862 101.164 74.5524 101.164 73.8258ZM102.63 73.87V71.3392C102.63 71.0105 102.488 70.8834 102.258 70.8834C102.027 70.8834 101.885 71.0105 101.885 71.3392V73.8562C101.885 74.1877 102.027 74.3121 102.258 74.3121C102.488 74.3121 102.63 74.1905 102.63 73.859V73.87Z" fill="#629640"/>
<path d="M108.411 72.9445L107.542 70.2921H108.307L108.797 71.9885H108.811L109.299 70.2921H110L109.129 72.9445V74.9088H108.411V72.9445Z" fill="#629640"/>
<path d="M56.3973 75V70.2009H57.9288C58.8412 70.2009 59.0987 70.7203 59.0987 71.3751C59.1185 71.6173 59.0572 71.8592 58.9246 72.062C58.792 72.2649 58.5957 72.417 58.3672 72.4941C58.9809 72.588 59.2631 73.0052 59.2631 73.6683C59.2631 74.6491 58.6439 74.9862 57.8056 74.9862L56.3973 75ZM57.5234 72.1847C57.9069 72.1847 58.2905 72.099 58.2905 71.5409C58.2905 70.9828 58.0165 70.9883 57.6467 70.9883H57.2193V72.1819L57.5234 72.1847ZM57.6412 74.2126C58.0878 74.2126 58.3891 74.1131 58.3891 73.5882C58.3891 73.0633 58.0878 72.9583 57.7206 72.9583H57.2193V74.2126H57.6412Z" fill="#629640"/>
<path d="M83.1151 74.9309V70.2617H84.4357C85.7425 70.2617 86.3042 71.1348 86.3042 72.53C86.3042 73.9253 85.6959 74.9309 84.348 74.9309H83.1151ZM84.3124 74.1297C85.1809 74.1297 85.4822 73.544 85.4822 72.5742C85.4822 71.4111 85.1179 71.0546 84.3699 71.0546H83.9179V74.138L84.3124 74.1297Z" fill="#629640"/>
<path d="M91.0822 74.9005H90.2164L89.474 73.1544H88.9589V74.9005H88.1616V70.3031H89.6301C90.5671 70.3031 90.8794 70.9193 90.8794 71.5989C90.8794 72.2786 90.6055 72.7041 90.2274 72.9113L91.0822 74.9005ZM89.3698 72.3863C89.4628 72.3981 89.5572 72.3882 89.6458 72.3575C89.7344 72.3267 89.8148 72.276 89.881 72.209C89.9471 72.1421 89.9971 72.0607 90.0272 71.9713C90.0574 71.8818 90.0668 71.7866 90.0548 71.6929C90.0548 71.2563 89.8301 71.0906 89.4027 71.0906H88.9589V72.3863H89.3698Z" fill="#629640"/>
<path d="M107.249 74.9586H106.384L105.641 73.1683H105.123V74.9586H104.329V70.2341H105.797C106.734 70.2341 107.047 70.8668 107.047 71.563C107.047 72.2593 106.773 72.6903 106.395 72.9113L107.249 74.9586ZM105.537 72.3808C105.631 72.391 105.726 72.3794 105.815 72.347C105.904 72.3145 105.984 72.2621 106.05 72.1936C106.116 72.1252 106.165 72.0425 106.194 71.9519C106.224 71.8613 106.232 71.7652 106.219 71.6708C106.219 71.2204 105.995 71.0491 105.567 71.0491H105.123V72.3808H105.537Z" fill="#629640"/>
<path d="M77.3234 68.1509C76.4067 68.1544 75.5017 67.9425 74.6803 67.532C73.8589 67.1215 73.1437 66.5237 72.5913 65.7859C72.0388 65.0481 71.6645 64.1907 71.4978 63.2816C71.3312 62.3726 71.3768 61.4368 71.6311 60.5487C71.8855 59.6605 72.3415 58.8443 72.9631 58.1647C73.5846 57.4852 74.3546 56.961 75.212 56.6338C76.0694 56.3066 76.9906 56.1853 77.9025 56.2795C78.8145 56.3738 79.6921 56.681 80.4658 57.1768C79.5029 56.3032 78.3095 55.7298 77.0301 55.5259C75.7507 55.3221 74.4401 55.4965 73.257 56.028C72.0738 56.5596 71.0687 57.4255 70.3634 58.5211C69.6581 59.6167 69.2827 60.8949 69.2827 62.2011C69.2827 63.5073 69.6581 64.7855 70.3634 65.8811C71.0687 66.9766 72.0738 67.8426 73.257 68.3741C74.4401 68.9057 75.7507 69.0801 77.0301 68.8762C78.3095 68.6723 79.5029 68.0989 80.4658 67.2253C79.5268 67.8286 78.4368 68.1497 77.3234 68.1509Z" fill="#548A30"/>
<path d="M78.0001 66.8137C76.8091 66.8137 75.667 66.3366 74.8249 65.4874C73.9828 64.6381 73.5097 63.4863 73.5097 62.2854C73.5097 61.0844 73.9828 59.9326 74.8249 59.0833C75.667 58.2341 76.8091 57.757 78.0001 57.757C79.175 57.7547 80.3059 58.2077 81.159 59.0224C80.605 58.3126 79.8681 57.7702 79.029 57.4545C78.1898 57.1388 77.2806 57.062 76.4011 57.2325C75.5215 57.4029 74.7054 57.8141 74.042 58.421C73.3786 59.028 72.8936 59.8072 72.6401 60.6735C72.3865 61.5398 72.3741 62.4597 72.6043 63.3326C72.8344 64.2055 73.2983 64.9978 73.9451 65.6226C74.5918 66.2475 75.3966 66.6808 76.2713 66.8753C77.1459 67.0698 78.0568 67.0179 78.9042 66.7253C78.6064 66.7842 78.3036 66.8138 78.0001 66.8137Z" fill="#548A30"/>
<path d="M77.8549 58.3925C77.2022 58.3923 76.561 58.566 75.9963 58.8959C75.4315 59.2258 74.9631 59.7002 74.6384 60.2712C74.9995 59.9701 75.4355 59.7745 75.899 59.7056C76.3626 59.6367 76.836 59.6973 77.2679 59.8806C77.6997 60.064 78.0735 60.3632 78.3486 60.7457C78.6237 61.1281 78.7896 61.5793 78.8284 62.0502C78.8671 62.5211 78.7771 62.9937 78.5683 63.4167C78.3594 63.8397 78.0397 64.1969 77.6437 64.4495C77.2477 64.7021 76.7907 64.8405 76.3222 64.8496C75.8537 64.8587 75.3917 64.7382 74.9864 64.5012C75.3822 64.991 75.8946 65.3718 76.4757 65.6082C77.0569 65.8445 77.6879 65.9286 78.31 65.8527C78.9321 65.7768 79.525 65.5434 80.0335 65.1741C80.542 64.8048 80.9495 64.3118 81.2181 63.7409C81.4867 63.17 81.6076 62.5398 81.5696 61.909C81.5316 61.2783 81.3359 60.6675 81.0007 60.1336C80.6655 59.5997 80.2017 59.16 79.6526 58.8556C79.1035 58.5512 78.487 58.3918 77.8603 58.3925H77.8549Z" fill="#548A30"/>
</svg>
