<svg width="128" height="128" viewBox="0 0 128 128" fill="none" xmlns="http://www.w3.org/2000/svg">
<rect width="128" height="128" fill="#303030"/>
<path d="M32.0662 60.1285L31.1894 61.1042L30.6396 60.6839C30.6025 60.6539 30.5505 60.6314 30.4985 60.6314C30.4539 60.6314 30.4167 60.6539 30.3944 60.6839L30.283 60.7965L30.2013 60.7214L31.0557 59.7383L31.5906 60.1586C31.6352 60.1961 31.6872 60.2186 31.7392 60.2261C31.7838 60.2261 31.8358 60.2111 31.8655 60.1736L31.9844 60.0535L32.0662 60.1285Z" fill="white"/>
<path d="M37.2742 66.7853L36.3752 67.7909C36.0483 67.5133 35.7065 67.2581 35.3499 67.0254V67.0029C35.4465 66.9129 35.4539 66.8228 35.4539 66.6052V63.0704L34.5401 62.44L34.332 62.6051V66.5301C34.332 66.7928 34.4137 66.9129 34.5921 66.9804V67.0029C34.3469 67.2356 34.0051 67.6108 33.8639 67.7834C33.5816 67.5358 33.2918 67.3106 32.9872 67.093V67.0705C33.1432 66.9729 33.2027 66.8228 33.2027 66.5676V62.9353L32.9724 62.7252C32.9426 62.6952 32.9055 62.6727 32.8609 62.6727C32.8015 62.6802 32.742 62.7102 32.6975 62.7627L32.5414 62.9278L32.4448 62.8378L33.4256 61.7421L34.3394 62.4325L35.2385 61.7196C35.7362 62.0648 36.2489 62.38 36.7839 62.6652V62.6877C36.6501 62.7927 36.5758 62.9654 36.6055 63.138V66.6652L36.8359 66.8153C36.873 66.8453 36.925 66.8678 36.977 66.8678C37.0439 66.8678 37.0959 66.8303 37.1405 66.7778L37.2222 66.6802L37.2742 66.7853Z" fill="white"/>
<path d="M32.6902 66.6952L31.754 67.7759C31.4123 67.4907 31.0631 67.2356 30.6916 66.9954V66.9729C30.803 66.8753 30.8625 66.7327 30.8476 66.5901V62.7627L30.6173 62.6051C30.5876 62.5826 30.5578 62.5751 30.5207 62.5751C30.4687 62.5826 30.4241 62.6126 30.3944 62.6576L30.2384 62.8453L30.1418 62.7477L31.0408 61.7346L32.1478 62.4625C32.0067 62.5751 31.9398 62.7477 31.9621 62.9278V66.6877L32.1775 66.8078C32.2221 66.8378 32.2741 66.8453 32.3261 66.8528C32.393 66.8453 32.445 66.8078 32.4822 66.7553L32.601 66.6202L32.6902 66.6952Z" fill="white"/>
<path d="M30.2759 66.6577L29.2951 67.7909C28.8716 67.4983 28.2401 67.1005 27.8463 66.8829V66.8603C27.9429 66.7703 27.9875 66.6427 27.9726 66.5076V62.5826H27.3411L27.5566 62.1774H27.9875V61.4419C27.9875 61.2768 27.9875 61.1492 27.8612 61.0441V61.0216C28.4184 60.9616 28.7156 60.2862 29.3174 60.2711L29.3323 60.3162C29.1911 60.4137 29.0871 60.6314 29.0871 61.0516V62.1323H30.0678L29.8227 62.6577C29.7409 62.5976 29.6443 62.5601 29.5403 62.5676H29.0797V66.4551L29.6295 66.7478C29.6963 66.7928 29.7781 66.8153 29.8598 66.8228C29.9415 66.8228 30.0084 66.7778 30.053 66.7102L30.1941 66.5602L30.2759 66.6577Z" fill="white"/>
<path d="M23.731 66.7403L22.8172 67.7834L21.8587 67.0705L20.93 67.7984C20.5808 67.5358 19.9121 67.1155 19.4366 66.8228V66.8003C19.5778 66.7027 19.6521 66.5301 19.6223 66.365V62.8453L19.3772 62.6952C19.34 62.6577 19.2954 62.6427 19.2509 62.6352C19.1988 62.6352 19.1543 62.6577 19.1245 62.7027L18.9834 62.8603L18.8868 62.7852L19.8378 61.7271L20.9003 62.5151C20.774 62.6201 20.7145 62.7777 20.7294 62.9428V66.4326L21.6433 67.0405L21.8959 66.8453V62.9278C21.8959 62.6952 21.8439 62.5826 21.6507 62.5001L22.3565 61.7421L23.2407 62.4325C23.0921 62.5376 23.0029 62.7102 23.0103 62.8978V66.6652L23.1738 66.7853C23.2258 66.8303 23.2927 66.8603 23.3595 66.8678C23.4115 66.8603 23.4561 66.8303 23.4858 66.7853L23.6047 66.6502L23.731 66.7403Z" fill="white"/>
<path d="M27.371 61.7196C27.3487 61.8471 27.3041 61.9672 27.2447 62.0798L25.937 64.1736L27.2447 64.834V64.8566C27.1258 64.9316 27.0738 65.0367 27.0738 65.2543V66.8678C26.4274 67.0705 25.8256 67.3857 25.2906 67.7984C25.09 67.5883 24.8151 67.4682 24.5328 67.4607C24.0424 67.4607 23.7452 67.6934 23.7452 68.0011C23.7452 68.4063 24.1687 68.5639 24.4511 68.5639L24.3247 68.7215C23.9087 68.699 23.5818 68.3538 23.5743 67.9335C23.5743 67.5283 23.827 67.2431 23.983 66.9879L25.1272 65.1793L23.6709 64.4138V64.3913C23.827 64.2862 23.8418 64.1586 23.8418 63.911V62.7852C24.4956 62.5676 25.0974 62.2074 25.6027 61.7346C25.937 62.0198 26.2491 62.2299 26.5611 62.2299C26.9772 62.2299 27.2149 61.9672 27.2149 61.7646C27.2298 61.637 27.1704 61.5094 27.0663 61.4344L27.2372 61.3143C27.3338 61.4194 27.3858 61.5695 27.371 61.7196ZM26.6206 62.8153C26.4051 62.9053 26.1748 62.9503 25.937 62.9579C25.5358 62.9428 25.1495 62.7552 24.8894 62.44V63.8284L25.7067 64.2562L26.6206 62.8153ZM26.041 67.0104V65.4194L25.3575 65.0592L24.2133 66.8678C24.5105 66.7027 24.8523 66.6202 25.1866 66.6352C25.5135 66.6577 25.8107 66.7928 26.041 67.0104Z" fill="white"/>
<path d="M19.2366 66.6502L18.2113 67.8059C17.8473 67.5132 17.4609 67.243 17.0671 66.9954V66.9729C17.1489 66.9278 17.2009 66.8453 17.2157 66.7552C17.2232 66.7102 17.2232 66.6577 17.2157 66.6126L16.6882 64.8265H16.6733L16.4727 65.2918C16.3093 65.2092 16.1235 65.1717 15.9378 65.1942H14.1546L13.7534 66.5976C14.0209 66.6201 14.281 66.7027 14.5113 66.8303C14.5559 66.8528 14.6004 66.8678 14.6524 66.8753C14.697 66.8753 14.7342 66.8528 14.7565 66.8228L14.8753 66.6877L14.9719 66.7627L14.0358 67.7834C13.7906 67.5732 13.486 67.4457 13.1665 67.4232C12.6167 67.4232 12.3343 67.7609 12.3343 68.1136C12.3343 68.5564 12.5795 68.804 12.9659 68.804C13.1962 68.8115 13.4265 68.7515 13.6346 68.6389L13.5677 68.8566C13.3597 68.9316 13.1368 68.9691 12.9139 68.9541C12.4086 68.9541 12 68.5414 12 68.031C12 68.016 12 67.9935 12 67.9785C12 67.1305 12.7504 66.5901 13.5083 66.5751L14.3775 63.4906C14.2438 63.4156 14.1026 63.3781 13.9466 63.3631C13.6866 63.3481 13.4488 63.4982 13.3448 63.7383H13.3002C13.2779 63.6558 13.2631 63.5732 13.2556 63.4831C13.2259 62.9728 13.6123 62.5375 14.1175 62.5075H14.1398C14.3032 62.515 14.4741 62.545 14.6302 62.6051L15.2691 60.2936C15.0982 59.9184 14.697 59.7533 14.2438 59.7533C13.8426 59.7758 13.4637 59.9559 13.1962 60.2561L13.1293 60.2111C13.3448 59.4606 14.0432 58.9653 14.8085 59.0103C15.3137 59.0103 15.7966 59.2279 16.1384 59.6032C16.1978 59.393 16.3613 59.2204 16.5693 59.1604L16.5916 59.1829C16.5025 59.378 16.4579 59.5882 16.4579 59.7983C16.4579 59.9559 16.4876 60.1135 16.5322 60.2636L18.5457 66.6952L18.6943 66.7852C18.7314 66.8153 18.7834 66.8303 18.8354 66.8303C18.8874 66.8228 18.932 66.7928 18.9617 66.7552L19.1326 66.5601L19.2366 66.6502ZM16.6139 64.5863L15.44 60.6613H15.4251L14.3255 64.5863H16.6139Z" fill="white"/>
<path d="M77.0863 63.0479L76.4176 64.1586C75.9941 64.1286 75.5781 64.0686 75.1694 63.971C75.1174 63.9635 75.0654 63.9635 75.006 63.971C74.9242 63.971 74.902 64.0235 74.8499 64.1061L74.7905 64.2036L74.6865 64.1361L75.3552 63.0104C75.7638 63.0479 76.165 63.123 76.5588 63.2205C76.6182 63.228 76.6777 63.228 76.7371 63.2205C76.8188 63.2205 76.8634 63.168 76.9154 63.0779L76.9749 62.9804L77.0863 63.0479Z" fill="white"/>
<path d="M74.6797 66.7853L73.7807 67.7909C73.4538 67.5132 73.112 67.2581 72.7554 67.0254V67.0029C72.852 66.9129 72.8594 66.8228 72.8594 66.6052V63.0704L71.9455 62.44L71.7301 62.6051V66.5301C71.7301 66.7928 71.8118 66.9129 71.9976 66.9804V67.0029C71.7524 67.2356 71.4106 67.6108 71.2694 67.7834C70.9871 67.5358 70.6973 67.3106 70.3927 67.093V67.0705C70.5562 66.9729 70.6082 66.8228 70.6082 66.5676V62.9353L70.3779 62.7252C70.3481 62.6952 70.3036 62.6727 70.259 62.6727C70.1995 62.6802 70.1401 62.7102 70.103 62.7627L69.9469 62.9203L69.8503 62.8303L70.8311 61.7346L71.7449 62.425L72.6439 61.7121C73.1343 62.0573 73.6544 62.3725 74.1893 62.6577V62.6802C74.0556 62.7852 73.9813 62.9578 74.011 63.1305V66.6577L74.2414 66.8078C74.2785 66.8378 74.3305 66.8603 74.3825 66.8603C74.442 66.8603 74.5014 66.8228 74.5385 66.7703L74.6203 66.6727L74.6797 66.7853Z" fill="white"/>
<path d="M61.9458 60.1285L61.0691 61.1042L60.5193 60.6839C60.4822 60.6464 60.4302 60.6314 60.3781 60.6314C60.3336 60.6314 60.2964 60.6539 60.2741 60.6839L60.1627 60.7965L60.081 60.7214L60.9354 59.7383L61.4778 60.1586C61.5149 60.1961 61.5669 60.2186 61.6264 60.2261C61.6709 60.2261 61.7229 60.2111 61.7527 60.1736L61.8641 60.0535L61.9458 60.1285Z" fill="white"/>
<path d="M66.032 62.2599C65.8908 62.5826 65.6531 63.0029 65.1404 63.0029C64.7392 62.9954 64.3677 62.7777 64.1597 62.4325L64.1374 62.4475V66.2449L65.0513 66.7252C65.133 66.7778 65.2296 66.8078 65.3262 66.8153C65.4153 66.8078 65.4971 66.7628 65.5565 66.6952L65.6902 66.5451L65.772 66.6202L64.7392 67.7984C64.1894 67.4682 63.3424 67.0104 62.8595 66.7778C62.9858 66.6727 63.0527 66.5076 63.0304 66.3425V62.8303C63.6916 62.6201 64.2934 62.2449 64.7689 61.7346C65.1033 62.0723 65.5639 62.2599 66.0394 62.2524V62.2599H66.032Z" fill="white"/>
<path d="M62.5625 66.6952L61.6263 67.7759C61.2845 67.4907 60.9353 67.2356 60.5638 66.9954V66.9729C60.6753 66.8753 60.7347 66.7327 60.7199 66.5901V62.7627L60.4895 62.6051C60.4598 62.5826 60.4301 62.5751 60.393 62.5751C60.3409 62.5826 60.2964 62.6126 60.2666 62.6576L60.118 62.8453L60.0215 62.7477L60.9205 61.7346L62.0424 62.455C61.9012 62.5601 61.8269 62.7402 61.8492 62.9203V66.6802L62.0572 66.8003C62.1018 66.8303 62.1538 66.8378 62.2058 66.8453C62.2727 66.8378 62.3247 66.8003 62.3619 66.7477L62.4807 66.6127L62.5625 66.6952Z" fill="white"/>
<path d="M60.0295 62.2674C59.8883 62.6351 59.5985 63.0179 59.1825 63.0179C58.8259 63.0179 58.4841 62.8753 58.224 62.6351H58.2017V66.6052L58.5138 66.7778C58.6252 66.8378 58.6698 66.8678 58.7218 66.8603C58.7887 66.8453 58.8407 66.8078 58.8779 66.7477L59.0562 66.5526L59.1528 66.6427L58.1572 67.7834C57.7485 67.4982 57.325 67.2431 56.8792 67.0179V67.0029C57.013 66.8828 57.0873 66.7027 57.065 66.5226V62.8378L56.8124 62.6501C56.7752 62.6201 56.7307 62.6051 56.6861 62.6051C56.6341 62.6126 56.5895 62.6351 56.5598 62.6802L56.3889 62.8678L56.2923 62.7702L57.2062 61.7421L58.1423 62.5226L58.8036 61.7346C59.1156 62.0648 59.5465 62.2524 59.9998 62.2524L60.0295 62.2674Z" fill="white"/>
<path d="M52.7566 66.6952L51.761 67.8059C51.3969 67.5282 50.9363 67.2055 50.6911 67.0254V67.0104C50.8546 66.8903 50.8546 66.8003 50.8546 66.6052V63.168L49.9927 62.5451L49.7252 62.7777V66.6352C49.7252 66.7928 49.8292 66.9279 49.9778 66.9804V67.0029L49.2497 67.7909C48.9748 67.5583 48.5959 67.2581 48.3656 67.1005V67.078C48.5142 66.9879 48.6033 66.8228 48.5959 66.6502V63.1455L47.682 62.5L47.4368 62.7102V66.6127C47.4368 66.7853 47.5483 66.9429 47.7118 66.9954V67.0179L46.9688 67.8059C46.7384 67.6183 46.3744 67.3331 46.0921 67.123V67.1005C46.2481 66.9879 46.3372 66.8003 46.3224 66.6052V62.8603L46.1218 62.7027C46.0846 62.6727 46.04 62.6576 45.9955 62.6576C45.936 62.6651 45.8766 62.6952 45.8394 62.7477L45.6611 62.9428L45.5645 62.8453L46.5601 61.7346L47.4443 62.5L48.373 61.7346C48.7668 62.0498 49.3017 62.455 49.6286 62.6576L50.6317 61.7346C51.0032 62.0272 51.7461 62.5376 52.1696 62.8077V62.8303C52.0062 62.9503 51.9913 63.0854 51.9913 63.3106V66.6352L52.1994 66.7778C52.2439 66.8153 52.3034 66.8378 52.3628 66.8453C52.4148 66.8453 52.4594 66.8078 52.5337 66.7327L52.6749 66.5901L52.7566 66.6952Z" fill="white"/>
<path d="M70.0513 66.6802L69.0929 67.7909L68.1418 67.123L67.1017 67.7909C66.4553 67.4757 66.0244 66.8378 65.9798 66.1099C65.9798 64.9992 67.0497 64.5639 67.8447 64.1736L68.1716 64.0235V63.0779L66.9011 62.41L66.8045 62.5001C66.7673 62.6652 66.7525 62.8378 66.7599 63.0029C66.7525 63.2656 66.8713 63.5207 67.0794 63.6858L67.0125 63.7609C66.5519 63.7309 66.2547 63.2806 66.1952 62.8153C66.6707 62.4701 67.1314 62.1023 67.5698 61.7046L69.5015 62.6051V62.6352C69.3603 62.7702 69.2935 62.9654 69.3083 63.1605V66.6502L69.4866 66.7853C69.5312 66.8228 69.5832 66.8528 69.6427 66.8604C69.7095 66.8528 69.7764 66.8078 69.8136 66.7478L69.9473 66.5827L70.0513 66.6802ZM68.179 66.9129V64.1661L67.8372 64.3387C67.3766 64.5714 67.1017 65.0892 67.1017 65.8322C67.1091 66.365 67.3914 66.8528 67.8521 67.1305L68.179 66.9129Z" fill="white"/>
<path d="M56.4189 63.3406L54.2568 64.849V66.2749L55.2153 66.7928C55.2673 66.8228 55.3341 66.8453 55.3936 66.8453C55.4679 66.8453 55.5273 66.8003 55.609 66.7102L55.7725 66.5301L55.8691 66.6202L54.8438 67.7759C54.1379 67.3256 53.447 66.9279 52.9417 66.6652V66.6427C53.12 66.5526 53.1423 66.41 53.1423 66.1774V62.9428C53.8779 62.6651 54.5614 62.2599 55.1484 61.7346C55.5496 62.2974 55.9731 62.8303 56.4189 63.3406ZM55.3341 63.9259C55.0592 63.5732 54.5317 62.9053 54.2865 62.5226L54.2568 62.5451V64.6764L55.3341 63.9259Z" fill="white"/>
<path d="M45.9069 66.6502L44.8816 67.8059C44.5175 67.5133 44.1312 67.2431 43.7374 66.9954V66.9729C43.8191 66.9279 43.8711 66.8453 43.886 66.7553C43.8934 66.7102 43.8934 66.6577 43.886 66.6127L43.3585 64.819H43.3362L43.1356 65.2843C42.9721 65.2018 42.7789 65.1643 42.5932 65.1868H40.8398L40.4385 66.5902C40.706 66.6127 40.9661 66.6952 41.1964 66.8228C41.241 66.8453 41.2855 66.8678 41.3375 66.8678C41.3821 66.8678 41.4193 66.8453 41.4416 66.8153L41.5604 66.6802L41.657 66.7628L40.7283 67.7834C40.4831 67.5733 40.1785 67.4457 39.859 67.4232C39.3092 67.4232 39.0269 67.7609 39.0269 68.1136C39.0269 68.5564 39.2646 68.8041 39.6584 68.8041C39.8887 68.8116 40.1191 68.7515 40.3271 68.639L40.2602 68.8566C40.0522 68.9317 39.8293 68.9692 39.6064 68.9542C39.1012 68.9542 38.6925 68.5414 38.6925 68.0311C38.6925 68.0161 38.6925 67.9936 38.6925 67.9786C38.6925 67.1305 39.4429 66.5902 40.2008 66.5752L41.0626 63.4907C40.9289 63.4156 40.7803 63.3706 40.6317 63.3556C40.3717 63.3406 40.1339 63.4907 40.0299 63.7308H39.9853C39.963 63.6483 39.9482 63.5657 39.9407 63.4757C39.911 62.9654 40.2974 62.5301 40.8026 62.5001H40.8323C40.9958 62.5076 41.1667 62.5376 41.3227 62.5976L41.9691 60.2862C41.7982 59.9109 41.397 59.7458 40.9438 59.7458C40.5426 59.7683 40.1636 59.9484 39.8962 60.2486L39.8367 60.2036C40.0448 59.4531 40.7432 58.9578 41.5159 59.0028C42.0211 59.0103 42.504 59.2355 42.8458 59.6182C42.9052 59.4081 43.0687 59.243 43.2767 59.1754L43.299 59.198C43.2024 59.3781 43.1504 59.5807 43.1504 59.7908C43.1504 59.9484 43.1727 60.106 43.2247 60.2561L45.2382 66.6877L45.3868 66.7778C45.4239 66.8078 45.476 66.8228 45.528 66.8228C45.58 66.8153 45.6245 66.7928 45.6543 66.7478L45.8177 66.5526L45.9069 66.6502ZM43.2916 64.5864L42.1177 60.6614H42.0954L40.9958 64.5864H43.2916Z" fill="white"/>
<path d="M116 66.7853L115.101 67.7909C114.774 67.5133 114.432 67.2581 114.076 67.0254V67.0029C114.172 66.9129 114.18 66.8228 114.18 66.6052V63.0704L113.266 62.44C113.184 62.5001 113.088 62.5751 113.05 62.6051V66.5301C113.05 66.7928 113.132 66.9129 113.318 66.9804V67.0029C113.065 67.2506 112.82 67.5133 112.59 67.7834C112.307 67.5358 112.018 67.3106 111.713 67.093V67.0705C111.876 66.9729 111.921 66.8228 111.921 66.5676V62.9353L111.691 62.7252C111.661 62.6952 111.616 62.6727 111.572 62.6727C111.512 62.6802 111.453 62.7102 111.416 62.7627L111.252 62.9278L111.156 62.8378L112.136 61.7421L113.05 62.4325L113.949 61.7196C114.447 62.0648 114.96 62.38 115.495 62.6652V62.6877C115.354 62.8003 115.287 62.9729 115.316 63.153V66.6802L115.547 66.8303C115.584 66.8603 115.636 66.8829 115.688 66.8829C115.755 66.8829 115.807 66.8453 115.844 66.7928L115.926 66.6952L116 66.7853Z" fill="white"/>
<path d="M107.249 66.6952L106.253 67.8059C105.889 67.5282 105.436 67.2055 105.183 67.0254V67.0104C105.354 66.8903 105.354 66.8003 105.354 66.6052V63.168L104.485 62.5451L104.217 62.7777V66.6352C104.225 66.7928 104.321 66.9279 104.47 66.9804V67.0029L103.742 67.7909C103.467 67.5583 103.088 67.2581 102.858 67.1005V67.0629C103.006 66.9729 103.096 66.8078 103.088 66.6352V63.1304L102.174 62.485L101.929 62.6952V66.5977C101.929 66.7703 102.04 66.9279 102.204 66.9804V67.0029L101.483 67.7909C101.253 67.6033 100.889 67.3181 100.607 67.108V67.0855C100.77 66.9729 100.852 66.7853 100.837 66.5901V62.8603L100.636 62.7027C100.599 62.6727 100.555 62.6576 100.51 62.6576C100.451 62.6651 100.391 62.6952 100.354 62.7477L100.176 62.9428L100.079 62.8453L101.075 61.7346L101.959 62.5L102.887 61.7346C103.281 62.0498 103.816 62.455 104.143 62.6576L105.139 61.7346C105.51 62.0272 106.253 62.5376 106.677 62.8077V62.8303C106.513 62.9503 106.498 63.0854 106.498 63.3106V66.6352L106.714 66.7778C106.758 66.8153 106.81 66.8378 106.87 66.8453C106.922 66.8453 106.966 66.8078 107.041 66.7327L107.182 66.5901L107.249 66.6952Z" fill="white"/>
<path d="M92.6206 66.6577L91.6399 67.7909C91.2164 67.4983 90.5848 67.1005 90.1911 66.8829V66.8603C90.2876 66.7703 90.3322 66.6427 90.3174 66.5076V62.5826H89.6858L89.9013 62.1774H90.3322V61.4419C90.3322 61.2768 90.3322 61.1492 90.2059 61.0441V61.0216C90.7631 60.9616 91.0603 60.2862 91.6622 60.2711L91.6844 60.3162C91.5359 60.4137 91.4393 60.6314 91.4393 61.0516V62.1323H92.42L92.1748 62.6577C92.0931 62.5976 91.9965 62.5601 91.8925 62.5676H91.4318V66.4551L91.9816 66.7478C92.0485 66.7928 92.1302 66.8153 92.212 66.8228C92.2863 66.8153 92.3606 66.7778 92.3977 66.7102L92.5389 66.5602L92.6206 66.6577Z" fill="white"/>
<path d="M85.5556 66.6577L84.5749 67.7909C84.1514 67.4983 83.5198 67.1005 83.1335 66.8829V66.8603C83.2301 66.7703 83.2747 66.6427 83.2598 66.5076V62.5826H82.6283L82.8437 62.1774H83.2746V61.4419C83.2746 61.2768 83.2746 61.1492 83.1483 61.0441V61.0216C83.7056 60.9616 84.0028 60.2862 84.6046 60.2711L84.6269 60.3162C84.4783 60.4137 84.3817 60.6314 84.3817 61.0516V62.1323H85.3624L85.1172 62.6577C85.0355 62.5976 84.9389 62.5601 84.8349 62.5676H84.3743V66.4551L84.9241 66.7478C84.9909 66.7928 85.0727 66.8153 85.1544 66.8228C85.2287 66.8153 85.303 66.7778 85.3401 66.7102L85.4813 66.5602L85.5556 66.6577Z" fill="white"/>
<path d="M81.6033 65.4495C81.6033 65.6821 81.5438 65.9072 81.4249 66.1099H81.3878C81.4027 66.0048 81.4101 65.8997 81.4101 65.7947C81.4101 65.1943 81.2763 64.5939 80.3996 64.1361C80.043 63.9485 79.7384 63.7834 79.5155 63.6708L79.1366 64.3913C78.8171 65.0067 78.401 65.2768 77.9404 65.2768C77.8141 65.2693 77.6878 65.2318 77.5837 65.1718L77.8363 64.7065C77.9106 64.8115 78.0295 64.8716 78.1558 64.8716C78.5348 64.8641 78.8765 64.6389 79.0326 64.2937L79.404 63.6033C79.1737 63.4982 78.9805 63.3931 78.5793 63.198C77.9107 62.8678 77.5317 62.5301 77.5317 61.9672C77.5317 61.7946 77.5763 61.622 77.6506 61.4644H77.6803C77.71 62.0123 77.8438 62.365 78.6833 62.8003C79.3446 63.1455 79.9761 63.4682 80.6151 63.8059C81.2541 64.0836 81.6478 64.744 81.6033 65.4495Z" fill="white"/>
<path d="M111.372 66.6802L110.413 67.7909L109.462 67.123L108.43 67.7909C107.783 67.4757 107.352 66.8303 107.315 66.1099C107.315 64.9992 108.385 64.5639 109.18 64.1736L109.499 64.0235V63.0779L108.222 62.4175L108.125 62.5076C108.088 62.6727 108.08 62.8453 108.08 63.0104C108.073 63.2731 108.184 63.5282 108.392 63.6933L108.333 63.7759C107.872 63.7459 107.575 63.2956 107.508 62.8303C107.991 62.4851 108.452 62.1173 108.89 61.7196L110.822 62.6201V62.6351C110.688 62.7777 110.614 62.9654 110.636 63.1605V66.6502L110.815 66.7853C110.859 66.8228 110.911 66.8528 110.971 66.8603C111.037 66.8528 111.104 66.8078 111.141 66.7478L111.283 66.5827L111.372 66.6802ZM109.499 66.9129V64.1661L109.158 64.3387C108.697 64.5714 108.422 65.0892 108.422 65.8322C108.43 66.365 108.719 66.8528 109.173 67.1305L109.499 66.9129Z" fill="white"/>
<path d="M100.161 61.7196C100.139 61.8472 100.102 61.9672 100.035 62.0798L98.7275 64.1736L100.035 64.8341V64.8566C99.9088 64.9466 99.842 65.0967 99.8643 65.2543V66.8678C99.2253 67.0705 98.6161 67.3857 98.0811 67.7909C97.8805 67.5808 97.6056 67.4532 97.3233 67.4457C96.8329 67.4457 96.5357 67.6784 96.5357 67.9861C96.5357 68.3913 96.9592 68.5489 97.2415 68.5489L97.1152 68.7065C96.6992 68.6765 96.3797 68.3388 96.3723 67.9185C96.3723 67.5133 96.6249 67.2281 96.7809 66.9729L97.9251 65.1643L96.4688 64.3988V64.3763C96.6174 64.2712 96.6323 64.1436 96.6323 63.896V62.7852C97.2861 62.5676 97.8879 62.2149 98.3932 61.7421C98.7275 62.0273 99.0321 62.2374 99.3516 62.2374C99.7677 62.2374 100.005 61.9747 100.005 61.7721C100.02 61.6445 99.9608 61.5169 99.8568 61.4419L100.028 61.3218C100.132 61.4344 100.176 61.577 100.161 61.7196ZM99.4185 62.8153C99.203 62.8978 98.9727 62.9504 98.7349 62.9579C98.3337 62.9428 97.9474 62.7552 97.6873 62.44V63.8284L98.5046 64.2562L99.4185 62.8153ZM98.8315 67.0104V65.4194L98.148 65.0592L97.0038 66.8678C97.301 66.7027 97.6428 66.6202 97.9771 66.6352C98.2966 66.6577 98.6012 66.7928 98.8315 67.0104Z" fill="white"/>
<path d="M96.2758 63.3406L94.1137 64.849V66.2749L95.0721 66.7928C95.1241 66.8228 95.191 66.8453 95.2505 66.8453C95.3248 66.8453 95.3842 66.8003 95.4659 66.7102L95.6219 66.5376L95.7185 66.6277L94.6932 67.7834C93.9874 67.3331 93.2964 66.9354 92.7912 66.6727V66.6502C92.9695 66.5601 92.9918 66.4175 92.9918 66.1849V62.9428C93.7273 62.6651 94.4109 62.2599 94.9978 61.7346C95.399 62.2974 95.8225 62.8303 96.2758 63.3406ZM95.1836 63.9259C94.9013 63.5732 94.3812 62.9053 94.136 62.5226L94.1063 62.5451V64.6764L95.1836 63.9259Z" fill="white"/>
<path d="M89.7978 66.6802L88.8393 67.7909L87.8883 67.123L86.8556 67.7909C86.2092 67.4757 85.7782 66.8303 85.7411 66.1099C85.7411 64.9991 86.811 64.5639 87.606 64.1736L87.9254 64.0235V63.0779L86.6475 62.4175L86.5509 62.5076C86.5212 62.6727 86.5064 62.8453 86.5064 63.0104C86.4989 63.273 86.6178 63.5282 86.8258 63.6933L86.7664 63.7684C86.3057 63.7383 86.0086 63.2881 85.9417 62.8228C86.4246 62.4775 86.8853 62.1098 87.3236 61.7121L89.2554 62.6126V62.6351C89.1216 62.7777 89.0473 62.9653 89.0696 63.1605V66.6502L89.2479 66.7853C89.2925 66.8228 89.352 66.8528 89.4114 66.8603C89.4783 66.8528 89.5451 66.8078 89.5823 66.7478L89.7235 66.5827L89.7978 66.6802ZM87.918 66.9129V64.1661L87.5762 64.3387C87.1156 64.5714 86.8407 65.0892 86.8407 65.8322C86.8481 66.365 87.1305 66.8528 87.5837 67.1305L87.918 66.9129Z" fill="white"/>
<path d="M82.6436 64.5939C82.6436 65.9222 81.6406 66.7102 80.2289 67.7984C79.8351 67.4457 79.3151 67.0705 78.7801 67.0705C77.8365 67.0705 77.153 67.4532 77.153 67.9936C77.153 68.5339 77.6359 68.8191 78.0891 68.8191C78.3195 68.8191 78.5424 68.759 78.743 68.6465L78.691 68.8791C78.4829 68.9617 78.26 69.0067 78.0371 68.9992C77.3239 68.9992 76.7889 68.5789 76.7889 67.8059C76.7889 66.5226 77.9331 65.9973 79.0624 65.9973C79.8351 66.0273 80.5781 66.3425 81.1428 66.8753C81.5811 66.5001 81.8412 65.9598 81.8635 65.3819C81.9006 64.6389 81.5069 63.9485 80.8605 63.5958C80.2215 63.273 79.6197 62.9804 78.9882 62.6727C78.2303 62.3049 77.844 61.9447 77.844 61.1042C77.844 60.076 78.6612 59.0704 80.1546 59.0704C80.7044 59.0629 81.2394 59.2055 81.7075 59.4981L81.8858 59.213L82.0121 59.288C81.5143 60.0685 80.7564 61.3293 80.3924 62.0498L81.3285 62.5151C82.287 62.9954 82.6436 63.6333 82.6436 64.5939ZM81.1948 60.3687C80.853 59.9259 80.3255 59.6708 79.7683 59.6783C78.8396 59.6783 78.3938 59.9559 78.3938 60.4663C78.3938 60.864 78.7355 61.1567 79.2408 61.4344L80.2735 61.9747C80.489 61.577 80.957 60.7514 81.1948 60.3687Z" fill="white"/>
</svg>
