<svg width="128" height="128" viewBox="0 0 128 128" fill="none" xmlns="http://www.w3.org/2000/svg">
<rect width="128" height="128" fill="white"/>
<path fill-rule="evenodd" clip-rule="evenodd" d="M100.784 76.8454H27.2173C25.44 76.8454 24 75.4054 24 73.6289V55.2165C24 53.44 25.44 52 27.2173 52H100.784C102.56 52 104 53.44 104 55.2165V73.6289C104 75.4054 102.56 76.8454 100.784 76.8454Z" fill="#028031"/>
<path fill-rule="evenodd" clip-rule="evenodd" d="M27.2231 74.9897C26.4248 74.9897 25.7749 74.3398 25.7749 73.5406V55.6932C25.7749 54.894 26.4248 54.2441 27.2231 54.2441H100.403C101.202 54.2441 101.852 54.894 101.852 55.6932V73.5406C101.852 74.3398 101.202 74.9897 100.403 74.9897H27.2231Z" stroke="white"/>
<path fill-rule="evenodd" clip-rule="evenodd" d="M101.423 64.8866L91.2168 55.1959V60.5567H27.2993V69.2165H91.2168V74.2681L101.423 64.8866Z" fill="white"/>
<path fill-rule="evenodd" clip-rule="evenodd" d="M28.3561 66.1873L29.0109 66.0842C29.0472 66.3465 29.1495 66.5478 29.3186 66.6871C29.486 66.8273 29.721 66.8974 30.0229 66.8974C30.3264 66.8974 30.5524 66.8356 30.6992 66.7119C30.8468 66.5873 30.9202 66.443 30.9202 66.2756C30.9202 66.1263 30.855 66.0084 30.7256 65.9226C30.6348 65.8632 30.4089 65.789 30.0485 65.6974C29.5627 65.5754 29.2262 65.469 29.0381 65.3799C28.8509 65.29 28.7082 65.1663 28.6117 65.008C28.5144 64.8496 28.4666 64.6748 28.4666 64.4842C28.4666 64.3102 28.5062 64.1486 28.5862 64.0001C28.6654 63.8517 28.7742 63.7288 28.9111 63.6298C29.0142 63.5548 29.1553 63.4896 29.3326 63.4368C29.5107 63.3849 29.7012 63.3577 29.9049 63.3577C30.2117 63.3577 30.4806 63.4022 30.7124 63.4904C30.9441 63.5787 31.1157 63.6983 31.2254 63.8492C31.3359 64.0001 31.4117 64.2022 31.4538 64.4537L30.8064 64.5428C30.7767 64.3416 30.6917 64.184 30.5507 64.0719C30.4097 63.9589 30.2101 63.902 29.9528 63.902C29.6485 63.902 29.4315 63.9531 29.3012 64.0529C29.1717 64.1535 29.1066 64.2723 29.1066 64.4067C29.1066 64.4925 29.133 64.57 29.1874 64.6385C29.241 64.7094 29.326 64.768 29.4414 64.815C29.5074 64.8397 29.7021 64.8966 30.0262 64.984C30.4946 65.1094 30.8212 65.2117 31.0068 65.2917C31.1915 65.3717 31.3375 65.4871 31.4431 65.6389C31.5487 65.7915 31.6014 65.9803 31.6014 66.2055C31.6014 66.4265 31.5363 66.6344 31.4076 66.829C31.279 67.0245 31.0934 67.1746 30.8501 67.2818C30.6076 67.3882 30.333 67.4418 30.0262 67.4418C29.519 67.4418 29.1313 67.337 28.8658 67.1259C28.5994 66.9148 28.4295 66.6022 28.3561 66.1873Z" fill="#181716"/>
<path fill-rule="evenodd" clip-rule="evenodd" d="M33.834 66.7616L33.9297 67.3464C33.7433 67.3859 33.5767 67.4049 33.4291 67.4049C33.1891 67.4049 33.0027 67.367 32.8699 67.2911C32.7371 67.2152 32.6448 67.1154 32.5903 66.9909C32.5367 66.8672 32.5095 66.6074 32.5095 66.209V63.9608H32.0237V63.4461H32.5095V62.4787L33.1676 62.0812V63.4461H33.834V63.9608H33.1676V66.2461C33.1676 66.435 33.18 66.5562 33.2031 66.6099C33.2262 66.6643 33.2641 66.708 33.3169 66.7393C33.3697 66.7715 33.4448 66.7872 33.5429 66.7872C33.6171 66.7872 33.7136 66.7789 33.834 66.7616Z" fill="#181716"/>
<path fill-rule="evenodd" clip-rule="evenodd" d="M34.4743 67.3536V63.4468H35.0706V64.0381C35.2224 63.7618 35.3626 63.5788 35.4912 63.4905C35.6207 63.4023 35.7626 63.3577 35.9168 63.3577C36.1403 63.3577 36.3663 63.4287 36.5972 63.5713L36.3688 64.1858C36.2071 64.0901 36.0455 64.0423 35.883 64.0423C35.7387 64.0423 35.6084 64.086 35.4937 64.1734C35.3783 64.26 35.2958 64.3812 35.2471 64.5355C35.1737 64.7705 35.1366 65.0287 35.1366 65.3082V67.3536H34.4743Z" fill="#181716"/>
<path fill-rule="evenodd" clip-rule="evenodd" d="M37.491 65.0244H39.6733C39.6428 64.6961 39.5595 64.4495 39.4226 64.2854C39.2115 64.0305 38.9376 63.9027 38.602 63.9027C38.2985 63.9027 38.042 64.005 37.835 64.2079C37.6279 64.4116 37.5133 64.6837 37.491 65.0244ZM39.665 66.0957L40.3496 66.1798C40.2415 66.5798 40.0419 66.8899 39.75 67.111C39.458 67.332 39.0852 67.4425 38.6316 67.4425C38.0601 67.4425 37.6073 67.266 37.2716 66.9138C36.9376 66.5617 36.7694 66.0685 36.7694 65.4326C36.7694 64.7753 36.9393 64.2656 37.2774 63.9027C37.6156 63.5398 38.0551 63.3576 38.5945 63.3576C39.1174 63.3576 39.5438 63.5357 39.8753 63.8912C40.2061 64.2475 40.3718 64.7473 40.3718 65.3922C40.3718 65.4318 40.3702 65.4903 40.3677 65.5695H37.4547C37.4786 65.9984 37.5999 66.3275 37.8184 66.5551C38.037 66.7835 38.3092 66.8974 38.6349 66.8974C38.8782 66.8974 39.0852 66.833 39.2568 66.706C39.4283 66.579 39.5644 66.3753 39.665 66.0957Z" fill="#181716"/>
<path fill-rule="evenodd" clip-rule="evenodd" d="M41.6816 65.0244H43.8639C43.8334 64.6961 43.7501 64.4495 43.6132 64.2854C43.4021 64.0305 43.1282 63.9027 42.7926 63.9027C42.4891 63.9027 42.2326 64.005 42.0256 64.2079C41.8186 64.4116 41.7039 64.6837 41.6816 65.0244ZM43.8556 66.0957L44.5402 66.1798C44.4321 66.5798 44.2326 66.8899 43.9406 67.111C43.6486 67.332 43.2759 67.4425 42.8222 67.4425C42.2507 67.4425 41.7979 67.266 41.4622 66.9138C41.1282 66.5617 40.96 66.0685 40.96 65.4326C40.96 64.7753 41.1299 64.2656 41.468 63.9027C41.8062 63.5398 42.2457 63.3576 42.7851 63.3576C43.308 63.3576 43.7344 63.5357 44.066 63.8912C44.3967 64.2475 44.5625 64.7473 44.5625 65.3922C44.5625 65.4318 44.5608 65.4903 44.5583 65.5695H41.6453C41.6693 65.9984 41.7905 66.3275 42.009 66.5551C42.2276 66.7835 42.4998 66.8974 42.8255 66.8974C43.0688 66.8974 43.2759 66.833 43.4474 66.706C43.6189 66.579 43.755 66.3753 43.8556 66.0957Z" fill="#181716"/>
<path fill-rule="evenodd" clip-rule="evenodd" d="M46.8177 66.7616L46.9134 67.3464C46.727 67.3859 46.5604 67.4049 46.4127 67.4049C46.1727 67.4049 45.9863 67.367 45.8536 67.2911C45.7208 67.2152 45.6284 67.1154 45.574 66.9909C45.5204 66.8672 45.4932 66.6074 45.4932 66.209V63.9608H45.0074V63.4461H45.4932V62.4787L46.1513 62.0812V63.4461H46.8177V63.9608H46.1513V66.2461C46.1513 66.435 46.1637 66.5562 46.1868 66.6099C46.2099 66.6643 46.2478 66.708 46.3006 66.7393C46.3534 66.7715 46.4284 66.7872 46.5266 66.7872C46.6008 66.7872 46.6973 66.7789 46.8177 66.7616Z" fill="#181716"/>
<path fill-rule="evenodd" clip-rule="evenodd" d="M47.907 65.4038C47.907 65.9035 48.0118 66.2788 48.2229 66.5254C48.4341 66.7737 48.6831 66.8982 48.9701 66.8982C49.2596 66.8982 49.5054 66.7794 49.7083 66.5427C49.9103 66.306 50.011 65.944 50.011 65.4582C50.011 64.9246 49.9087 64.5312 49.7025 64.2821C49.4963 64.0314 49.2423 63.9068 48.9404 63.9068C48.646 63.9068 48.4002 64.0264 48.2031 64.2664C48.006 64.5073 47.907 64.8858 47.907 65.4038ZM50.0002 67.3534V66.8611C49.7528 67.2479 49.3882 67.4425 48.9074 67.4425C48.5957 67.4425 48.3095 67.3559 48.048 67.1844C47.7874 67.0128 47.5845 66.7728 47.4418 66.4652C47.2983 66.1576 47.2266 65.8029 47.2266 65.4037C47.2266 65.0136 47.2909 64.6598 47.4212 64.3423C47.5507 64.0248 47.7462 63.7807 48.006 63.6116C48.2666 63.4425 48.5569 63.3584 48.8785 63.3584C49.1136 63.3584 49.3231 63.4079 49.507 63.5068C49.6917 63.6058 49.841 63.7361 49.9557 63.8953V61.9604H50.6146V67.3534H50.0002Z" fill="#181716"/>
<path fill-rule="evenodd" clip-rule="evenodd" d="M51.6598 67.3534H52.3221V63.4466H51.6598V67.3534ZM51.6598 62.7217H52.3221V61.9604H51.6598V62.7217Z" fill="#181716"/>
<path fill-rule="evenodd" clip-rule="evenodd" d="M53.3222 67.3536V63.4468H53.9185V64.0381C54.0702 63.7618 54.2105 63.5788 54.3391 63.4905C54.4686 63.4023 54.6105 63.3577 54.7647 63.3577C54.9882 63.3577 55.2142 63.4287 55.4451 63.5713L55.2166 64.1858C55.055 64.0901 54.8933 64.0423 54.7309 64.0423C54.5865 64.0423 54.4562 64.086 54.3416 64.1734C54.2261 64.26 54.1436 64.3812 54.095 64.5355C54.0216 64.7705 53.9845 65.0287 53.9845 65.3082V67.3536H53.3222Z" fill="#181716"/>
<path fill-rule="evenodd" clip-rule="evenodd" d="M56.3393 65.0244H58.5216C58.491 64.6961 58.4077 64.4495 58.2708 64.2854C58.0597 64.0305 57.7859 63.9027 57.4502 63.9027C57.1467 63.9027 56.8902 64.005 56.6832 64.2079C56.4762 64.4116 56.3616 64.6837 56.3393 65.0244ZM58.5133 66.0957L59.1978 66.1798C59.0898 66.5798 58.8902 66.8899 58.5982 67.111C58.3063 67.332 57.9335 67.4425 57.4799 67.4425C56.9084 67.4425 56.4556 67.266 56.1199 66.9138C55.7859 66.5617 55.6176 66.0685 55.6176 65.4326C55.6176 64.7753 55.7875 64.2656 56.1257 63.9027C56.4638 63.5398 56.9034 63.3576 57.4428 63.3576C57.9657 63.3576 58.3921 63.5357 58.7236 63.8912C59.0543 64.2475 59.2201 64.7473 59.2201 65.3922C59.2201 65.4318 59.2185 65.4903 59.216 65.5695H56.303C56.3269 65.9984 56.4481 66.3275 56.6667 66.5551C56.8853 66.7835 57.1574 66.8974 57.4832 66.8974C57.7265 66.8974 57.9335 66.833 58.1051 66.706C58.2766 66.579 58.4127 66.3753 58.5133 66.0957Z" fill="#181716"/>
<path fill-rule="evenodd" clip-rule="evenodd" d="M62.5793 65.9224L63.2308 66.0074C63.1591 66.4552 62.9768 66.8074 62.684 67.0614C62.3904 67.3146 62.0308 67.4424 61.6044 67.4424C61.0692 67.4424 60.6395 67.2676 60.3145 66.9179C59.9896 66.5682 59.8271 66.0676 59.8271 65.4152C59.8271 64.9929 59.8972 64.6243 60.0366 64.3076C60.1768 63.9909 60.3896 63.7534 60.6749 63.5958C60.9611 63.4367 61.2721 63.3583 61.6077 63.3583C62.0316 63.3583 62.3789 63.4655 62.6486 63.68C62.9191 63.8944 63.0923 64.1995 63.1673 64.5946L62.524 64.6936C62.4622 64.4305 62.3541 64.2334 62.1982 64.1014C62.0424 63.9686 61.8543 63.9026 61.6341 63.9026C61.3001 63.9026 61.0288 64.0222 60.8209 64.2614C60.6123 64.5006 60.5075 64.8783 60.5075 65.3962C60.5075 65.9216 60.6081 66.3026 60.8094 66.5402C61.0106 66.7785 61.2729 66.8981 61.597 66.8981C61.8568 66.8981 62.0737 66.8181 62.2477 66.6589C62.4226 66.4989 62.5323 66.2531 62.5793 65.9224Z" fill="#181716"/>
<path fill-rule="evenodd" clip-rule="evenodd" d="M65.2427 66.7616L65.3384 67.3464C65.152 67.3859 64.9854 67.4049 64.8378 67.4049C64.5978 67.4049 64.4114 67.367 64.2786 67.2911C64.1458 67.2152 64.0534 67.1154 63.999 66.9909C63.9454 66.8672 63.9182 66.6074 63.9182 66.209V63.9608H63.4324V63.4461H63.9182V62.4787L64.5763 62.0812V63.4461H65.2427V63.9608H64.5763V66.2461C64.5763 66.435 64.5887 66.5562 64.6118 66.6099C64.6349 66.6643 64.6728 66.708 64.7256 66.7393C64.7784 66.7715 64.8534 66.7872 64.9516 66.7872C65.0258 66.7872 65.1223 66.7789 65.2427 66.7616Z" fill="#181716"/>
<path fill-rule="evenodd" clip-rule="evenodd" d="M66.3248 65.3997C66.3248 65.9003 66.4337 66.2756 66.6514 66.5238C66.87 66.7729 67.1446 66.8974 67.4762 66.8974C67.8052 66.8974 68.0782 66.7721 68.2968 66.5222C68.5145 66.2723 68.6242 65.8913 68.6242 65.3783C68.6242 64.895 68.5137 64.5288 68.2951 64.2797C68.0749 64.0306 67.8019 63.9061 67.4762 63.9061C67.1446 63.9061 66.87 64.0306 66.6514 64.2781C66.4337 64.5255 66.3248 64.8999 66.3248 65.3997ZM65.6444 65.3997C65.6444 64.6764 65.8448 64.1412 66.2473 63.7923C66.583 63.5028 66.9937 63.3577 67.4762 63.3577C68.0131 63.3577 68.4527 63.5341 68.7933 63.8863C69.1339 64.2385 69.3046 64.7242 69.3046 65.3453C69.3046 65.8475 69.2287 66.2426 69.0786 66.5313C68.9277 66.8199 68.7083 67.0434 68.4197 67.2034C68.131 67.3626 67.8176 67.4426 67.4762 67.4426C66.9285 67.4426 66.4865 67.2669 66.15 66.9156C65.8127 66.5651 65.6444 66.0603 65.6444 65.3997Z" fill="#181716"/>
<path fill-rule="evenodd" clip-rule="evenodd" d="M70.074 67.3536V63.4468H70.6703V64.0381C70.8212 63.7618 70.9623 63.5788 71.0909 63.4905C71.2196 63.4023 71.3614 63.3577 71.5157 63.3577C71.7392 63.3577 71.966 63.4287 72.1961 63.5713L71.9685 64.1858C71.8068 64.0901 71.6443 64.0423 71.4827 64.0423C71.3375 64.0423 71.208 64.086 71.0926 64.1734C70.9779 64.26 70.8955 64.3812 70.8468 64.5355C70.7726 64.7705 70.7363 65.0287 70.7363 65.3082V67.3536H70.074Z" fill="#181716"/>
<path fill-rule="evenodd" clip-rule="evenodd" d="M72.5603 68.8581L72.4869 68.2362C72.6313 68.2758 72.7574 68.2948 72.8655 68.2948C73.0131 68.2948 73.1302 68.2709 73.2193 68.2222C73.3067 68.1727 73.3793 68.1043 73.4362 68.016C73.4774 67.9492 73.5451 67.7851 73.6391 67.5228C73.6506 67.4857 73.6704 67.4321 73.6976 67.3612L72.2148 63.4461H72.9282L73.7414 65.7092C73.8469 65.9954 73.9418 66.2981 74.0242 66.614C74.1009 66.3096 74.1917 66.0136 74.2964 65.7233L75.1319 63.4461H75.7941L74.308 67.4198C74.1488 67.8486 74.0242 68.1447 73.9368 68.3064C73.8181 68.5249 73.6836 68.6849 73.5319 68.7864C73.3793 68.8886 73.1979 68.9398 72.9875 68.9398C72.8597 68.9398 72.717 68.9117 72.5603 68.8581Z" fill="#181716"/>
<path fill-rule="evenodd" clip-rule="evenodd" d="M75.9864 67.3534H76.7402V66.5996H75.9864V67.3534Z" fill="#181716"/>
<path fill-rule="evenodd" clip-rule="evenodd" d="M80.4413 65.9224L81.0929 66.0074C81.0211 66.4552 80.8388 66.8074 80.5469 67.0614C80.2533 67.3146 79.8937 67.4424 79.4665 67.4424C78.932 67.4424 78.5015 67.2676 78.1774 66.9179C77.8516 66.5682 77.6891 66.0676 77.6891 65.4152C77.6891 64.9929 77.7593 64.6243 77.8995 64.3076C78.0388 63.9909 78.2524 63.7534 78.537 63.5958C78.8232 63.4367 79.1341 63.3583 79.4698 63.3583C79.8945 63.3583 80.2417 63.4655 80.5114 63.68C80.7811 63.8944 80.9543 64.1995 81.0302 64.5946L80.3869 64.6936C80.325 64.4305 80.217 64.2334 80.0611 64.1014C79.9052 63.9686 79.7164 63.9026 79.4962 63.9026C79.1621 63.9026 78.8916 64.0222 78.683 64.2614C78.4743 64.5006 78.3704 64.8783 78.3704 65.3962C78.3704 65.9216 78.4702 66.3026 78.6714 66.5402C78.8735 66.7785 79.1357 66.8981 79.4599 66.8981C79.7188 66.8981 79.9366 66.8181 80.1106 66.6589C80.2846 66.4989 80.3943 66.2531 80.4413 65.9224Z" fill="#181716"/>
<path fill-rule="evenodd" clip-rule="evenodd" d="M82.0932 65.3997C82.0932 65.9003 82.202 66.2756 82.4198 66.5238C82.6383 66.7729 82.913 66.8974 83.2445 66.8974C83.5736 66.8974 83.8466 66.7721 84.0651 66.5222C84.2829 66.2723 84.3926 65.8913 84.3926 65.3783C84.3926 64.895 84.282 64.5288 84.0635 64.2797C83.8433 64.0306 83.5703 63.9061 83.2445 63.9061C82.913 63.9061 82.6383 64.0306 82.4198 64.2781C82.202 64.5255 82.0932 64.8999 82.0932 65.3997ZM81.4128 65.3997C81.4128 64.6764 81.6132 64.1412 82.0157 63.7923C82.3513 63.5028 82.762 63.3577 83.2445 63.3577C83.7814 63.3577 84.221 63.5341 84.5616 63.8863C84.9022 64.2385 85.073 64.7242 85.073 65.3453C85.073 65.8475 84.9971 66.2426 84.847 66.5313C84.6961 66.8199 84.4767 67.0434 84.188 67.2034C83.8994 67.3626 83.586 67.4426 83.2445 67.4426C82.6969 67.4426 82.2548 67.2669 81.9183 66.9156C81.581 66.5651 81.4128 66.0603 81.4128 65.3997Z" fill="#181716"/>
<path fill-rule="evenodd" clip-rule="evenodd" d="M85.8496 67.3536V63.4468H86.4418V63.9944C86.5639 63.8031 86.7272 63.6497 86.9317 63.5326C87.1346 63.4171 87.3663 63.3577 87.6261 63.3577C87.9156 63.3577 88.1531 63.4188 88.3387 63.5383C88.5235 63.6588 88.6538 63.827 88.7296 64.0423C89.0389 63.5862 89.4414 63.3577 89.9371 63.3577C90.3247 63.3577 90.6224 63.4649 90.8311 63.6802C91.0397 63.8946 91.1437 64.2254 91.1437 64.6715V67.3536H90.4847V64.8926C90.4847 64.627 90.4641 64.4365 90.4204 64.3202C90.3775 64.2039 90.2999 64.1099 90.187 64.0381C90.074 63.968 89.942 63.9326 89.7894 63.9326C89.5148 63.9326 89.2872 64.0233 89.1049 64.2064C88.9243 64.3887 88.8327 64.6814 88.8327 65.0839V67.3536H88.1705V64.815C88.1705 64.5206 88.1169 64.3004 88.0088 64.1528C87.9008 64.0051 87.7243 63.9326 87.4793 63.9326C87.2929 63.9326 87.1206 63.9812 86.963 64.0785C86.8039 64.1767 86.6901 64.3202 86.6183 64.5099C86.5474 64.6979 86.5119 64.9701 86.5119 65.3264V67.3536H85.8496Z" fill="#181716"/>
</svg>
