<svg width="128" height="128" viewBox="0 0 128 128" fill="none" xmlns="http://www.w3.org/2000/svg">
<rect width="128" height="128" fill="#163267"/>
<path d="M64.0013 39C74.7636 39 86.3017 41.1809 95.4846 46.9749C101.448 50.7688 107 56.5176 107 64.0101C107 72.7588 99.4848 79.1206 92.2855 82.8442C83.7191 87.2538 73.5961 89 63.9987 89C53.2389 89 41.7236 86.8442 32.5381 81.0276C26.5745 77.2337 21 71.4849 21 64.0101C21 55.2211 28.495 48.8819 35.7145 45.1558C44.3061 40.7487 54.4064 39 64.0013 39ZM63.9103 41.6583C53.9035 41.6583 43.1185 43.5201 34.4358 48.7211C28.9751 51.9698 23.5826 57.0829 23.5826 63.8744C23.5826 71.8518 30.893 77.4347 37.4278 80.6407C45.5166 84.5678 54.975 86.0955 63.9103 86.0955C73.9373 86.0955 84.7248 84.2286 93.4075 79.0276C98.8455 75.7563 104.261 70.6683 104.261 63.8769C104.261 55.8819 96.9705 50.2915 90.4156 47.1131C82.3242 43.1784 72.8658 41.6583 63.9103 41.6583ZM26.1424 58.3543L42.6156 55.5603L47.5735 44.8593L52.5112 55.5603L68.9819 58.3543L52.5112 61.1734L47.5735 71.897L42.6156 61.1734L26.1424 58.3543ZM62.3562 66.5075L69.6212 65.2387L71.7919 60.3995L73.9625 65.2387L81.2301 66.5075L73.9625 67.7563L71.7919 72.598L69.6212 67.7563L62.3562 66.5075ZM77.3916 53.6055L84.6566 52.3568L86.8273 47.4975L88.9979 52.3568L96.2629 53.6055L88.9979 54.8769L86.8273 59.7186L84.6541 54.8769L77.3916 53.6055ZM69.6212 76.5075L76.8635 75.2588L79.0341 70.397L81.2275 75.2588L88.4925 76.5075L81.2275 77.7789L79.0341 82.6206L76.8635 77.7789L69.6212 76.5075ZM47.3006 78.2563L54.5656 77.0075L56.759 72.1407L58.9271 77.0075L66.1947 78.2563L58.9271 79.5276L56.759 84.3693L54.5656 79.5276L47.3006 78.2563ZM83.8354 66.309L91.0776 65.0352L93.2483 60.196L95.4417 65.0352L102.707 66.309L95.4417 67.5578L93.2458 72.392L91.0751 67.5553L83.8354 66.309Z" fill="white"/>
</svg>
