<svg width="128" height="128" viewBox="0 0 128 128" fill="none" xmlns="http://www.w3.org/2000/svg">
<rect width="128" height="128" fill="#023859"/>
<path fill-rule="evenodd" clip-rule="evenodd" d="M26.5844 65.7024C26.492 65.5857 26.355 65.4213 26.2779 65.3665C26.1125 65.2498 25.8263 65.1362 25.529 65.054C25.2641 64.9657 24.981 64.917 24.6877 64.917H23.8972L19.1246 64.8571C18.7075 64.8571 18.3706 64.5192 18.3706 64.1031V63.7743C18.3706 63.3572 18.7075 63.0193 19.1246 63.0193H24.021C24.4381 63.0193 24.776 63.3572 24.776 63.7743V64.1031C24.776 64.2452 24.844 64.2827 24.776 64.3964L24.8572 64.5699L27.177 64.5517C27.1892 64.4512 27.1973 64.3497 27.1973 64.2462V63.4831C27.1973 62.0015 25.9958 60.7999 24.5132 60.7999H18.7552C17.2726 60.7999 16.0721 62.0015 16.0721 63.4831V64.2462C16.0721 64.987 16.3724 65.6588 16.8585 66.1449C16.9499 66.2616 17.0869 66.425 17.165 66.4808C17.3294 66.5965 17.6166 66.7101 17.9139 66.7933C18.1778 66.8806 18.4609 66.9293 18.7552 66.9293H19.5447L24.3173 66.9892C24.7344 66.9892 25.0723 67.3271 25.0723 67.7442V68.073C25.0723 68.4891 24.7344 68.827 24.3173 68.827H18.9307C18.5137 68.827 18.1757 68.4891 18.1757 68.073V67.7442C18.1757 67.6011 18.1077 67.5646 18.1757 67.4509L18.0945 67.2774L16.0193 67.2947C16.0081 67.3961 16 67.4976 16 67.6001V68.3632C16 69.8459 17.2015 71.0474 18.6831 71.0474H24.6877C26.1693 71.0474 27.3708 69.8459 27.3708 68.3632V67.6001C27.3708 66.8593 27.0705 66.1885 26.5844 65.7024Z" fill="white"/>
<path fill-rule="evenodd" clip-rule="evenodd" d="M37.399 60.9838V67.1659C37.399 68.1188 36.6268 68.8911 35.6739 68.8911H32.5036C31.5507 68.8911 30.7785 68.1188 30.7785 67.1659V60.9838H28.5723V67.9483C28.5723 69.8064 30.0782 71.3124 31.9363 71.3124H34.9777C35.9296 71.3124 36.7871 70.9156 37.399 70.2804V71.0668H39.3951V60.9838H37.399Z" fill="white"/>
<path fill-rule="evenodd" clip-rule="evenodd" d="M50.0606 66.8075V67.806C50.0606 68.4565 49.5329 68.9832 48.8834 68.9832H44.6487C43.9982 68.9832 43.4715 68.4565 43.4715 67.806V64.307C43.4715 63.6565 43.9982 63.1288 44.6487 63.1288H48.8834C49.5329 63.1288 50.0606 63.6565 50.0606 64.307V64.8458H52.2363V64.2238C52.2363 62.2652 50.6492 60.677 48.6906 60.677H44.6263C42.6678 60.677 41.0806 62.2652 41.0806 64.2238V67.7979C41.0806 69.7555 42.6678 71.3436 44.6263 71.3436H48.6906C50.6492 71.3436 52.2363 69.7555 52.2363 67.7979V66.8075H50.0606Z" fill="white"/>
<path fill-rule="evenodd" clip-rule="evenodd" d="M62.0856 60.8613H58.3349C57.453 60.8613 56.6604 61.2327 56.0982 61.8254V57H53.8302V71.2823H56.0982V71.0357H56.1114V64.9834C56.1114 63.925 56.97 63.0665 58.0284 63.0665H60.9236C61.9821 63.0665 62.8406 63.925 62.8406 64.9834V71.0357H65.1696V63.9453C65.1696 62.2425 63.7894 60.8613 62.0856 60.8613Z" fill="white"/>
<path fill-rule="evenodd" clip-rule="evenodd" d="M96.891 66.8075V67.806C96.891 68.4565 96.3633 68.9832 95.7139 68.9832H91.4781C90.8276 68.9832 90.3019 68.4565 90.3019 67.806V64.307C90.3019 63.6565 90.8276 63.1288 91.4781 63.1288H95.7139C96.3633 63.1288 96.891 63.6565 96.891 64.307V64.8458H99.0668V64.2238C99.0668 62.2652 97.4786 60.677 95.52 60.677H91.4578C89.4982 60.677 87.91 62.2652 87.91 64.2238V67.7979C87.91 69.7555 89.4982 71.3436 91.4578 71.3436H95.52C97.4786 71.3436 99.0668 69.7555 99.0668 67.7979V66.8075H96.891Z" fill="white"/>
<path fill-rule="evenodd" clip-rule="evenodd" d="M108.916 60.8613H105.165C104.283 60.8613 103.49 61.2327 102.929 61.8254V57H100.661V71.2823H102.929V71.0357H102.942V64.9834C102.942 63.925 103.8 63.0665 104.859 63.0665H107.754C108.813 63.0665 109.671 63.925 109.671 64.9834V71.0357H112V63.9453C112 62.2425 110.62 60.8613 108.916 60.8613Z" fill="white"/>
<path fill-rule="evenodd" clip-rule="evenodd" d="M70.3922 63.1292H74.628C75.2775 63.1292 75.8052 63.6569 75.8052 64.3064V64.4059H69.2161V64.3064C69.2161 63.6569 69.7417 63.1292 70.3922 63.1292ZM77.9911 66.817V64.4058H77.9809V64.2231C77.9809 62.2646 76.3927 60.6774 74.4342 60.6774H70.3709C68.4124 60.6774 66.8242 62.2646 66.8242 64.2231V67.7973C66.8242 69.7558 68.4124 71.343 70.3709 71.343H74.4342C76.3927 71.343 77.9809 69.7558 77.9809 67.7973V67.369H75.8052V67.8064C75.8052 68.4569 75.2775 68.9825 74.628 68.9825H70.3922C69.7417 68.9825 69.2161 68.4569 69.2161 67.8064V66.817H77.9911Z" fill="white"/>
<path fill-rule="evenodd" clip-rule="evenodd" d="M81.0001 70.8365H85.245V68.3229H81.0001V70.8365Z" fill="#EA5820"/>
</svg>
