<svg width="128" height="128" viewBox="0 0 128 128" fill="none" xmlns="http://www.w3.org/2000/svg">
<rect width="128" height="128" fill="white"/>
<path d="M24 34.5768C24.7798 32.0034 27.2035 31.7695 29.4993 32.0814C31.2596 32.3263 32.9368 32.9847 34.3935 34.0029C34.6235 34.1953 34.9085 34.31 35.2076 34.3307C35.5068 34.3514 35.8048 34.2771 36.0592 34.1183C38.7106 32.7521 41.3817 31.418 44.0726 30.1163C44.6965 29.8043 44.7901 29.5641 44.4345 28.9559C43.8761 28.0201 43.3427 26.9595 44.1226 25.8896C44.9648 24.7729 46.1906 24.9133 47.3167 25.2127C48.6996 25.5473 49.9988 26.1632 51.1333 27.0218C52.2678 27.8805 53.2133 28.9636 53.9109 30.2036C54.1132 30.604 54.4599 30.9128 54.881 31.0676C58.9569 32.5233 63.0296 33.979 67.0993 35.4346C67.6607 35.6405 67.9851 35.7279 68.191 34.9699C68.4218 34.1308 69.2079 33.9779 69.9815 34.0622C72.9854 34.3897 76.2419 37.7367 76.5102 40.7686C76.55 41.131 76.7248 41.4651 76.9999 41.7044C79.7033 44.3933 82.3963 47.0831 85.0789 49.774C85.2124 49.9389 85.392 50.0601 85.5948 50.1224C85.7976 50.1846 86.0144 50.185 86.2174 50.1234C86.8783 49.9639 87.5746 50.0469 88.1794 50.3573C89.3077 50.8613 90.3201 51.5922 91.1535 52.5045C91.987 53.4168 92.6236 54.491 93.0237 55.6601C93.5165 57.0669 93.2732 57.6378 91.9631 58.3926C91.4329 58.7046 91.7635 59.0165 91.8914 59.3284C92.9083 61.6086 93.947 63.8764 94.9795 66.1441C95.6626 67.6413 96.3551 69.1292 97.0257 70.6296C97.2408 71.0969 97.6191 71.4695 98.0894 71.6777C100.713 73.0159 102.491 75.0809 103.277 77.9475C103.416 78.4796 103.449 79.034 103.374 79.5789C103.349 79.8767 103.26 80.1656 103.113 80.4259C102.967 80.6862 102.765 80.9116 102.523 81.0867C102.281 81.2619 102.004 81.3825 101.711 81.4405C101.418 81.4984 101.116 81.4922 100.825 81.4224C100.1 81.2962 99.4123 81.0118 98.81 80.5895C98.3577 80.2776 98.0707 80.2776 97.8742 80.8765C96.9322 83.8648 95.9787 86.8489 95.0138 89.8289C94.8703 90.278 95.0512 90.565 95.3101 90.8957C96.9259 92.9575 98.0333 95.2065 97.9179 97.9203C97.8056 100.497 96.0463 101.757 93.6164 100.837C91.1864 99.9167 89.6174 98.0576 88.5506 95.8148C88.0297 94.7262 87.4215 94.4173 86.2611 94.4329C81.3264 94.5016 76.3885 94.4735 71.4507 94.4485C70.6615 94.4485 70.3558 94.5702 70.4088 95.4997C70.5398 97.861 69.8973 99.9728 67.798 101.37C67.2972 101.658 66.7759 101.908 66.2383 102.119H63.4934C63.3589 102.049 63.2191 101.989 63.0754 101.941C58.0845 100.506 54.8186 94.2427 56.4001 89.8351C56.6216 89.2113 56.3127 88.8681 55.9197 88.4938C53.7113 86.3997 51.509 84.3004 49.3131 82.196C46.2478 79.2347 43.1909 76.2651 40.1423 73.2873C39.8055 72.9566 39.5185 72.6634 38.957 72.9098C34.2562 74.9623 28.1112 71.946 26.0151 67.919C24.9358 65.8633 24.7081 63.7453 26.2209 61.7646C27.4125 60.2049 29.125 59.6185 31.0402 59.5811C32.4346 59.5468 32.4751 59.5561 32.3971 58.1431C32.2256 55.0488 32.0103 51.9575 31.8107 48.8663C31.6984 47.1382 31.6017 45.4101 31.4613 43.6821C31.4021 42.9833 31.4426 42.2628 30.5256 41.9009C27.5279 40.7 25.1479 38.8191 24 35.6717V34.5768ZM79.3019 72.7008C80.063 72.8194 80.1597 72.4107 80.1036 71.765C79.9601 70.0931 80.4873 69.2696 82.0282 68.8423C82.6521 68.6645 82.6895 68.3837 82.4836 67.8441C80.8886 63.633 79.3071 59.4178 77.7392 55.1985C77.5839 54.8007 77.2874 54.4741 76.9063 54.2814C75.6399 53.5359 74.3641 52.7436 73.5905 51.474C73.2558 50.8809 72.7836 50.3768 72.2137 50.0039C71.6438 49.631 70.9928 49.4003 70.3153 49.3311C70.1361 49.2942 69.9599 49.2442 69.7881 49.1814C66.2383 48.1832 62.6792 47.1819 59.1357 46.2118C58.7895 46.1151 58.3091 45.8188 58.1095 46.374C57.4575 48.1988 56.032 48.4047 54.4006 48.1894C53.8828 48.1208 53.6364 48.2237 53.7768 48.8133C54.829 53.6877 55.8688 58.5642 56.8961 63.4428C56.929 63.6219 57.016 63.7867 57.1454 63.915C57.2747 64.0432 57.4403 64.1288 57.6197 64.1602C59.0984 64.5438 60.4688 65.2627 61.6248 66.2613C62.7808 67.2598 63.6913 68.5112 64.2857 69.9184C64.366 70.1457 64.5128 70.3435 64.7068 70.4865C64.9009 70.6294 65.1334 70.7108 65.3743 70.7201C66.884 70.9041 68.3875 71.1443 69.8973 71.3439L79.3019 72.7008ZM59.7221 77.0273C59.7221 77.0897 59.7221 77.1489 59.7502 77.2082C60.293 79.9116 60.8357 82.6254 61.3785 85.3496C61.399 85.5474 61.4913 85.7308 61.6378 85.8653C61.7843 85.9998 61.975 86.076 62.1739 86.0795C64.2046 86.3041 65.8578 87.3022 67.2927 88.6841C67.7543 89.127 68.0538 89.0958 68.5061 88.6841C72.5611 84.9628 76.6537 81.2695 80.715 77.5482C82.022 76.3535 81.9845 76.3348 81.1111 74.7876C80.7992 74.2418 80.5309 73.7739 79.8041 73.674C75.1564 73.0336 70.5128 72.3733 65.8734 71.6933C65.1653 71.5904 64.8378 71.7526 64.7629 72.5573C64.5477 74.928 63.0847 76.2568 60.6766 76.4003L60.2181 76.419C59.8344 76.4409 59.6847 76.6592 59.7221 77.0273ZM50.723 67.7349C51.3656 67.869 51.5995 67.5852 51.7024 67.0923C52.0923 65.2457 53.3307 64.285 55.1118 64.0105C55.9291 63.8919 56.0476 63.6019 55.8729 62.8782C54.8841 58.3926 53.8891 53.9071 52.9907 49.4028C52.763 48.2674 52.3668 47.5313 51.2657 47.001C50.436 46.5861 50.0804 46.7202 49.5532 47.3628C45.8704 51.8588 42.1657 56.337 38.4392 60.7976C38.0212 61.2998 37.9651 61.5962 38.5421 62.0453C39.9092 63.0336 40.9715 64.3856 41.6084 65.9476C41.6836 66.1944 41.8335 66.4118 42.0374 66.5699C42.2413 66.728 42.4892 66.819 42.7469 66.8303L50.723 67.7349ZM78.8216 93.5502H86.0365C87.5556 93.5502 87.5556 93.5502 87.3466 92.0404C87.0752 90.1127 87.7895 88.7153 89.5301 87.9199C89.9949 87.7077 89.9169 87.4613 89.7921 87.1338C88.9218 84.863 88.0453 82.5952 87.1813 80.3213C87.1202 80.1357 87.0164 79.967 86.8783 79.8288C86.7401 79.6907 86.5714 79.5869 86.3858 79.5258C85.2312 79.1202 84.186 78.4529 83.3321 77.5763C82.7581 77.0117 82.4462 77.1614 81.9315 77.6387C79.3924 79.9937 76.8096 82.3176 74.2487 84.6415C72.5175 86.2198 70.8175 87.82 69.0644 89.3797C68.556 89.8351 68.4842 90.2188 68.8929 90.7709C69.3078 91.3355 69.6194 91.9691 69.813 92.6425C70.0158 93.3505 70.4369 93.5783 71.1543 93.5627C73.7059 93.5283 76.2637 93.5502 78.8216 93.5502ZM32.4221 44.2747H32.394C32.4626 45.092 32.55 45.9092 32.603 46.7265C32.8546 50.794 33.1063 54.8595 33.3579 58.9229C33.3446 59.1347 33.4098 59.344 33.541 59.5108C33.6722 59.6777 33.8601 59.7904 34.0691 59.8275C34.8338 60.0308 35.5791 60.3011 36.2962 60.6354C36.9388 60.9473 37.2944 60.8694 37.7467 60.3048C39.6183 57.9809 41.5398 55.7038 43.4394 53.4018C45.3391 51.0997 47.2231 48.7977 49.1165 46.4925C49.2975 46.2742 49.6375 46.0402 49.3068 45.7221C48.3187 44.8111 47.4695 43.7602 46.7864 42.6028C46.6639 42.4657 46.5013 42.3707 46.3217 42.3314C43.9177 41.5349 41.5179 40.7395 39.1223 39.9451C38.8697 39.864 38.642 39.7705 38.4579 40.1541C37.4597 42.2565 36.0873 42.9865 33.8039 42.6901C32.3316 42.4967 32.3316 42.4967 32.4065 43.9098C32.4221 44.0283 32.4221 44.1531 32.4221 44.2747ZM42.6534 67.7349C42.1855 67.6257 42.1324 68.0032 42.1075 68.443C42.0451 69.5659 41.7675 70.6515 40.944 71.4375C40.2453 72.0988 40.4605 72.4794 41.0469 73.0315C43.4238 75.2545 45.781 77.4993 48.1184 79.766C50.9008 82.4424 53.6749 85.1333 56.4406 87.8388C56.8836 88.2723 57.183 88.3566 57.6073 87.8388C58.1736 87.11 58.9603 86.5838 59.85 86.3384C60.452 86.1824 60.5862 85.8674 60.4739 85.2653C59.9093 82.5859 59.3665 79.9033 58.8706 77.2144C58.8342 76.8893 58.7031 76.5819 58.4934 76.3307C58.2838 76.0795 58.0049 75.8954 57.6915 75.8014C54.7968 74.6348 52.7755 72.5885 51.8584 69.5628C51.6962 69.0201 51.4529 68.7456 50.8789 68.6832C48.1589 68.3806 45.4701 68.0468 42.6534 67.7349ZM51.9707 33.8719C50.4859 33.8313 50.4828 33.8313 50.723 35.0822C50.9008 35.9743 51.1129 36.8633 51.2533 37.7616C51.2731 38.0327 51.3747 38.2913 51.5445 38.5035C51.7144 38.7157 51.9445 38.8714 52.2046 38.9501C53.468 39.4089 54.6067 40.1566 55.5298 41.1336C56.1849 41.8417 56.8181 42.0694 57.6852 41.6514C57.8884 41.5766 58.097 41.5171 58.3091 41.4736C61.6436 40.5378 64.975 39.549 68.3189 38.6288C68.9927 38.4416 69.0395 38.2358 68.7338 37.64C68.5808 37.3465 68.3689 37.0877 68.1112 36.88C67.8536 36.6723 67.5558 36.52 67.2365 36.4328C63.2812 35.0291 59.3353 33.5911 55.3832 32.1781C55.0526 32.0596 54.5909 31.7009 54.4193 32.3434C54.0325 33.7565 52.9907 33.9436 51.9707 33.8719ZM71.4975 48.7291C72.0215 48.832 72.0121 48.5232 72.0371 48.1395C72.1213 46.8263 72.558 46.3615 73.9087 46.2679C74.5325 46.218 74.6168 45.9841 74.439 45.4601C74.1925 44.7426 73.9492 44.0189 73.7683 43.2765C73.5156 42.2222 73.0727 41.3831 71.9841 40.9308C71.3231 40.6111 70.7357 40.1575 70.2591 39.5989C70.1497 39.4536 69.9981 39.3457 69.825 39.2899C69.6519 39.234 69.4658 39.233 69.2921 39.287C65.4554 40.3912 61.6155 41.4705 57.7788 42.5778C57.5542 42.6402 57.2922 42.6808 57.2828 43.0176C57.2828 43.6134 58.3185 45.0421 58.9267 45.2012L66.675 47.3628C68.2784 47.812 69.8858 48.2674 71.4975 48.7291ZM86.5013 70.2304C86.4077 70.4518 86.6447 70.692 86.8912 70.9384C87.2998 71.3439 87.8582 71.6933 88.0765 72.1861C88.9842 74.2605 90.8184 74.4008 92.6806 74.5475C92.8646 74.5475 93.0455 74.5786 93.2264 74.6036C94.3619 74.7627 94.3712 74.7627 94.4024 73.5742C94.4274 72.6977 94.6488 71.8898 95.5098 71.5342C96.1867 71.2535 96.1929 70.9322 95.9246 70.3551C94.155 66.5142 92.3998 62.6671 90.6593 58.8137C90.4684 58.4005 90.1367 58.0688 89.7235 57.878C89.2556 57.644 89.0061 57.6783 88.9062 58.2523C88.7316 59.238 88.5101 60.2174 88.3104 61.2031L86.5013 70.2304ZM88.1264 57.4413C88.1607 57.2908 88.1557 57.134 88.112 56.986C88.0683 56.838 87.9873 56.7037 87.8769 56.5959C87.1697 55.8877 86.5421 55.1043 86.0053 54.2596C85.8389 54.0024 85.5815 53.8175 85.2847 53.7418C84.2647 53.4298 83.2416 53.1179 82.2309 52.806C81.7194 52.6407 81.5353 52.7873 81.4605 53.3238C81.3045 54.453 80.8054 54.9521 79.67 54.9957C78.8184 55.0269 78.7093 55.2765 79.0025 56.0345C80.2502 59.2941 81.4667 62.585 82.6926 65.8384C83.0233 66.7211 83.357 67.6008 83.6814 68.4835C83.8224 68.824 84.0626 69.1142 84.3709 69.3162C84.6791 69.5181 85.041 69.6226 85.4095 69.6159C85.9647 69.6439 85.8462 68.8454 85.9367 68.4087C86.6635 64.8995 87.3528 61.384 88.0515 57.8717C88.0827 57.6752 88.1233 57.4662 88.1264 57.4413ZM49.6094 38.2514C50.489 38.5633 50.4017 38.0112 50.2738 37.3998C50.0367 36.2675 49.8028 35.1383 49.5876 34.006C49.56 33.7948 49.4799 33.5939 49.3545 33.4217C49.2292 33.2495 49.0626 33.1115 48.8701 33.0203C47.7786 32.4731 46.7882 31.7442 45.9411 30.8649C45.8343 30.7173 45.676 30.6152 45.4975 30.5788C45.319 30.5424 45.1333 30.5744 44.9772 30.6684C42.2052 32.0617 39.428 33.4487 36.6456 34.8295C36.2027 35.0479 36.1372 35.2787 36.4959 35.653C37.2541 36.404 37.8544 37.2991 38.2614 38.2857C38.3141 38.4292 38.3996 38.5584 38.5112 38.663C38.6228 38.7675 38.7573 38.8445 38.904 38.8877C41.1842 39.6488 43.4675 40.4037 45.7477 41.1741C46.1813 41.3208 46.3061 41.2241 46.3716 40.7499C46.5806 39.0374 47.7534 38.1235 49.6094 38.2514ZM90.2257 76.9711C90.3349 78.3998 89.8607 79.3137 88.666 79.7224C88.064 79.9282 88.1358 80.262 88.3104 80.7081C89.0216 82.5516 89.7578 84.3888 90.416 86.251C90.7747 87.271 91.1927 88.1226 92.3686 88.4345C92.8061 88.5748 93.2032 88.8188 93.5259 89.1457C94.0967 89.6791 94.2745 89.4577 94.4617 88.8338C95.2197 86.3602 95.9683 83.8866 96.8168 81.4442C97.2441 80.2121 97.4843 79.1266 96.2335 78.2376C96.0639 78.1055 95.937 77.9265 95.8685 77.7229C95.2446 75.9293 93.8784 75.3803 92.1253 75.3803C91.9132 75.3803 91.7011 75.3366 91.5015 75.3148C90.0916 75.1776 90.0947 75.1776 90.2319 76.5376C90.2406 76.682 90.2386 76.827 90.2257 76.9711ZM75.487 41.929C74.3547 41.929 74.2861 42.0164 74.6292 43.1019C74.8944 43.941 75.1751 44.7769 75.4028 45.6285C75.471 45.9058 75.6018 46.1638 75.7851 46.3828C75.9683 46.6017 76.1993 46.7759 76.4603 46.8918C78.2502 47.7632 79.7433 49.1434 80.7524 50.8595C80.9092 51.2286 81.2051 51.5211 81.5759 51.6737C82.5928 51.9856 83.6066 52.2975 84.6297 52.6095C84.8387 52.6719 85.2255 52.7904 85.1974 52.4254C85.1475 51.8515 85.2754 51.2401 84.7545 50.7285C81.9471 47.9586 79.1397 45.1544 76.3324 42.3626C76.1109 42.1193 75.8707 41.8822 75.487 41.929Z" fill="#9C9B9B"/>
<path d="M77.6518 63.7485C77.6518 67.3357 75.278 69.0513 71.7251 68.3089C69.3077 67.7974 67.249 66.5653 65.4086 64.9807C62.6979 62.6474 60.6361 59.8775 59.7939 56.334C59.5983 55.4709 59.5687 54.5785 59.7065 53.7044C59.9873 51.6519 61.5625 50.3325 63.7616 50.2482C65.1678 50.2187 66.56 50.5335 67.8167 51.1653C72.3085 53.2958 75.5088 56.6366 77.2182 61.3342C77.3874 61.8224 77.5137 62.3244 77.5957 62.8346C77.6376 63.1374 77.6564 63.4429 77.6518 63.7485ZM63.5526 52.5347C63.0629 52.8123 62.6948 53.3488 62.2144 53.7543C61.7341 54.1598 61.7652 54.4374 62.2144 54.8586C63.2687 55.8661 64.27 56.9329 65.315 57.9498C65.733 58.3522 65.7798 58.6734 65.315 59.0758C64.8502 59.4782 64.4073 59.9711 63.9456 60.414C63.6743 60.676 63.5152 60.9162 63.8521 61.2531C64.8003 62.1993 65.7413 63.1507 66.675 64.1073C66.7166 64.1716 66.7736 64.2246 66.8409 64.2612C66.9082 64.2979 66.9836 64.3171 67.0602 64.3171C67.1369 64.3171 67.2123 64.2979 67.2796 64.2612C67.3469 64.2246 67.4039 64.1716 67.4455 64.1073C67.9103 63.6269 68.4062 63.1715 68.8585 62.6849C69.2391 62.2731 69.5479 62.3105 69.9222 62.6849C70.6552 63.4553 71.4007 64.2164 72.1681 64.9526C73.8837 66.5902 73.2162 66.6713 75.0784 64.8964C75.4433 64.5502 75.4808 64.2944 75.1033 63.9263C74.4077 63.2463 73.7652 62.5133 73.0789 61.8239C71.4101 60.1333 71.3945 60.1239 73.1382 58.4707C73.6342 57.9997 73.762 57.6534 73.185 57.1575C72.6984 56.7488 72.2804 56.256 71.8312 55.8037C70.2716 54.2253 70.2716 54.2253 68.7119 55.76C68.621 55.8416 68.5346 55.928 68.453 56.0189C68.0413 56.5367 67.6857 56.4338 67.2646 55.9909C66.3007 54.974 65.3056 53.9945 64.3168 53.0026C64.1288 52.7574 63.8565 52.5906 63.5526 52.5347Z" fill="#CE281E"/>
<path d="M63.5494 52.5315C63.0597 52.8091 62.6916 53.3487 62.2112 53.7511C61.7309 54.1535 61.762 54.4374 62.2112 54.8554C63.2655 55.866 64.2668 56.9297 65.3118 57.9497C65.7298 58.3521 65.7766 58.6734 65.3118 59.0758C64.847 59.4782 64.4041 59.971 63.9424 60.4139C63.6711 60.6728 63.512 60.9162 63.8489 61.253C64.7971 62.1951 65.7329 63.1464 66.6562 64.1072C66.6983 64.1709 66.7555 64.2232 66.8227 64.2593C66.89 64.2955 66.9651 64.3144 67.0415 64.3144C67.1178 64.3144 67.1929 64.2955 67.2602 64.2593C67.3274 64.2232 67.3846 64.1709 67.4267 64.1072C67.8915 63.6268 68.3874 63.1714 68.8397 62.6817C69.2203 62.273 69.5291 62.3074 69.9034 62.6817C70.6364 63.4553 71.3819 64.2164 72.1493 64.9494C73.8649 66.587 73.1974 66.6712 75.0627 64.8964C75.4245 64.5501 75.462 64.2943 75.0845 63.9231C74.3889 63.2463 73.7464 62.5132 73.0601 61.8207C71.3913 60.1332 71.3757 60.1239 73.1194 58.4675C73.6154 57.9996 73.7432 57.6503 73.1662 57.1574C72.6796 56.7488 72.2616 56.2559 71.8124 55.8005C70.2528 54.2409 70.2528 54.2409 68.6931 55.76C68.6022 55.8404 68.5158 55.9258 68.4342 56.0157C68.0225 56.5335 67.6669 56.4337 67.2458 55.9877C66.2819 54.9739 65.2869 53.9913 64.298 53.0025C64.1144 52.7594 63.8481 52.5918 63.5494 52.5315Z" fill="white"/>
</svg>
