<svg width="128" height="128" viewBox="0 0 128 128" fill="none" xmlns="http://www.w3.org/2000/svg">
<rect width="128" height="128" fill="#767676"/>
<path d="M92.1275 61.97V60.1523C92.1275 58.9831 92.584 57.9776 93.497 57.1358C94.41 56.2939 95.5152 55.8733 96.8125 55.8737C98.0246 55.8737 99.062 56.2572 99.9246 57.024C100.787 57.7908 101.219 58.7543 101.219 59.9143C101.219 60.3385 101.166 60.6871 101.058 60.9632C100.95 61.2392 100.787 61.4323 100.566 61.5459C100.376 61.6483 100.17 61.7196 99.957 61.7569C99.716 61.7889 99.4729 61.8034 99.2298 61.8H94.8869V62.121C94.8869 62.7335 95.1146 63.229 95.5699 63.6077C96.0252 63.9863 96.6316 64.1749 97.3891 64.1734C97.9304 64.1734 98.4649 64.0382 98.9926 63.7676C99.5203 63.4971 99.8625 63.3618 100.02 63.3618C100.319 63.3618 100.568 63.4998 100.768 63.7788C100.967 64.0577 101.067 64.3237 101.067 64.5807C101.067 64.9794 100.708 65.3748 99.989 65.7669C99.2701 66.1589 98.3752 66.355 97.3042 66.3553C95.778 66.3553 94.5339 65.9525 93.5717 65.1468C92.6096 64.3412 92.1282 63.2822 92.1275 61.97ZM94.8869 60.1728H98.0106C98.2374 60.1728 98.3984 60.1368 98.4915 60.0631C98.5846 59.9894 98.6313 59.8475 98.6313 59.6318C98.6313 59.1662 98.4491 58.7867 98.0846 58.4934C97.7201 58.2001 97.2749 58.0534 96.7489 58.0534C96.2493 58.0534 95.814 58.1964 95.443 58.4823C95.0721 58.7681 94.8867 59.1446 94.8869 59.6117V60.1728ZM101.618 64.5149C101.618 64.259 101.712 63.9917 101.899 63.713C102.086 63.4351 102.304 63.2967 102.549 63.2967C102.706 63.2967 102.905 63.3686 103.144 63.5124C103.383 63.6562 103.695 63.8 104.086 63.9513C104.477 64.1026 104.937 64.1741 105.471 64.1741C106.524 64.1741 107.052 63.8762 107.053 63.2802C107.053 62.9473 106.878 62.6838 106.53 62.4894C106.181 62.2951 105.76 62.1357 105.267 62.0113C104.775 61.887 104.279 61.7379 103.78 61.5642C103.284 61.3928 102.844 61.0902 102.506 60.6886C102.156 60.2793 101.981 59.7553 101.982 59.1167C101.982 58.2317 102.288 57.4703 102.902 56.8324C103.515 56.1945 104.485 55.8751 105.813 55.8741C106.696 55.8741 107.484 56.0095 108.177 56.2803C108.87 56.5511 109.215 56.879 109.214 57.2641C109.214 57.5074 109.118 57.7882 108.926 58.1092C108.734 58.4301 108.495 58.5908 108.209 58.5908C108.096 58.5908 107.786 58.5016 107.279 58.323C106.773 58.1445 106.298 58.0553 105.856 58.0556C105.37 58.0556 104.999 58.1529 104.742 58.3475C104.485 58.5412 104.356 58.7562 104.356 58.992C104.356 59.2278 104.485 59.4233 104.742 59.5746C104.998 59.726 105.317 59.846 105.693 59.9283C106.104 60.0211 106.51 60.1358 106.909 60.272C107.324 60.4097 107.728 60.5801 108.115 60.7817C108.485 60.9761 108.798 61.2781 109.048 61.6875C109.298 62.0969 109.426 62.5919 109.426 63.1745C109.426 64.163 109.08 64.9401 108.388 65.5059C107.696 66.0717 106.73 66.3548 105.49 66.3553C104.421 66.3553 103.508 66.1702 102.752 65.7999C101.996 65.4297 101.618 65.0013 101.618 64.5149ZM64.5552 65.5685C65.3013 66.0785 66.1851 66.3492 67.0889 66.3445C68.3657 66.3445 69.4811 65.8891 70.4084 64.9887C71.4066 64.003 71.9127 62.7015 71.9127 61.1206C71.9127 59.5646 71.4066 58.2695 70.411 57.2745C69.4969 56.3608 68.3829 55.8971 67.0972 55.8971C66.1442 55.8923 65.2146 56.1919 64.4437 56.7522C64.3792 56.6075 64.2883 56.4761 64.1756 56.3647C63.6774 55.868 62.8014 55.8691 62.3064 56.3647C62.1843 56.4858 62.0878 56.6302 62.0226 56.7894C61.9574 56.9485 61.9248 57.1191 61.9269 57.291V69.6363C61.9269 69.8542 62.052 70.0486 62.3036 70.2172C62.5552 70.3858 62.864 70.4721 63.2317 70.4721C63.5847 70.4721 63.8945 70.3836 64.1587 70.2079C64.4229 70.0321 64.5552 69.8412 64.5552 69.6389V65.5685ZM69.1015 62.3334C68.7219 63.3481 68.012 63.8208 66.8668 63.8208C65.9944 63.8208 65.2367 63.4844 64.5552 62.7906V59.4499C65.2381 58.7562 65.993 58.4179 66.8668 58.4179C67.6094 58.4179 68.1799 58.6307 68.6004 59.0606C69.0594 59.5505 69.2834 60.2245 69.2834 61.1206C69.2816 61.5825 69.2201 61.9941 69.1 62.3334H69.1015ZM80.0014 57.166C79.239 56.3227 78.1682 55.8957 76.8131 55.8957C75.6796 55.8963 74.5581 56.1278 73.517 56.5761C72.8462 56.8615 72.7467 57.3579 72.7467 57.6286C72.7467 58.0319 72.8656 58.35 73.1 58.5732C73.472 58.9269 73.8732 58.9499 74.2948 58.8392C76.0288 58.2853 77.4084 58.3273 77.9799 58.8209C78.1995 59.0103 78.3311 59.332 78.3753 59.7784H76.7412C75.2919 59.7784 74.1471 60.0883 73.3397 60.6993C72.5436 61.2953 72.1403 62.1264 72.1403 63.1691C72.1403 64.1245 72.4857 64.911 73.1679 65.5081C73.8052 66.0638 74.6057 66.3445 75.5471 66.3445C76.4569 66.3445 77.2286 66.181 77.8404 65.8589C78.0388 65.7539 78.2218 65.645 78.3943 65.5325C78.4073 65.7357 78.532 65.9171 78.7685 66.0767C79.0201 66.2471 79.3282 66.3308 79.6966 66.3308C80.0496 66.3308 80.3587 66.2431 80.624 66.0677C80.8893 65.8923 81.0218 65.7023 81.0215 65.4976V59.9089C81.023 58.8194 80.6772 57.8956 80.0014 57.166ZM77.4641 63.5667C77.0657 63.7959 76.6135 63.9149 76.1539 63.9114C74.7704 63.9114 74.7704 63.2895 74.7704 62.9908C74.7704 62.6781 74.8911 62.4959 75.1844 62.3632C75.5931 62.1806 76.1887 62.0872 76.9558 62.0872H78.3936V62.878C78.1153 63.1473 77.8028 63.3789 77.4641 63.5667ZM89.2166 56.3788C89.1132 56.485 89.0282 56.6077 88.965 56.7418C88.1926 56.1793 87.3155 55.8957 86.3464 55.8957C85.0603 55.8957 83.9532 56.327 83.0553 57.1696C82.0129 58.1325 81.4863 59.4309 81.4863 61.0311C81.4863 62.6314 82.0147 63.9297 83.0524 64.8887C83.9511 65.7367 85.0452 66.1662 86.3015 66.1662C87.2425 66.1662 88.0937 65.911 88.8435 65.4045V65.5016C88.8435 67.1612 88.1584 68.4059 86.6225 68.4059C85.6678 68.4118 84.7252 68.1923 83.8713 67.7654C83.6835 67.6923 83.4836 67.6557 83.2821 67.6576C83.0772 67.6576 82.7721 67.7262 82.4784 68.058C82.258 68.3057 82.1455 68.613 82.1455 68.9717C82.1455 69.3768 82.3458 69.723 82.7268 69.9563C83.913 70.6119 85.2789 70.9458 86.7824 70.9458C88.2666 70.9458 89.4352 70.4846 90.2562 69.576C91.0628 68.6834 91.4733 66.8988 91.4733 65.2701V57.3097C91.4747 57.1352 91.4409 56.9622 91.3737 56.8011C91.3066 56.64 91.2075 56.4941 91.0825 56.3723C90.5739 55.863 89.7109 55.8658 89.2166 56.3788ZM88.8439 62.6576C88.1505 63.3373 87.4586 63.6792 86.7828 63.6792C86.3191 63.6792 85.9277 63.6235 85.6178 63.5135C84.5938 63.1461 84.1164 62.3571 84.1164 61.0311C84.1164 60.1232 84.3504 59.4628 84.8252 59.0182C85.0551 58.8114 85.324 58.6525 85.616 58.5509C85.9287 58.4402 86.3198 58.3845 86.7828 58.3845C87.1921 58.3779 87.5946 58.4903 87.9413 58.708C88.2653 58.909 88.5677 59.1428 88.8439 59.4057V62.6576ZM17 56.6839C17 56.3712 17.1996 56.1039 17.5988 55.882C17.9975 55.6609 18.3983 55.551 18.7969 55.551C19.2098 55.551 19.4734 55.7004 19.5877 55.9992L21.7275 62.0739L23.3313 56.79C23.4456 56.419 23.7596 56.2334 24.2731 56.2332C24.7871 56.2332 25.0998 56.419 25.2149 56.79L26.7964 62.0944L31.8399 48.449C31.9542 48.1496 32.2178 48 32.6307 48C33.0163 48 33.8348 48.3267 34.2345 48.555C34.6342 48.7832 34.8334 49.0543 34.8334 49.3681C34.8387 49.5017 34.8091 49.6344 34.7475 49.753L28.1447 65.5609C28.0165 65.889 27.6529 66.0533 27.0538 66.0541C26.4266 66.0541 26.0473 65.8891 25.9197 65.562L24.2731 60.8985L22.6473 65.5411C22.5184 65.8829 22.1259 66.0542 21.4698 66.0551C20.886 66.0551 20.5299 65.8838 20.4015 65.5411L17.1078 57.0908C17.0403 56.9656 17.0033 56.8262 17 56.6839ZM32.6982 56.4208L34.6393 51.7839C34.8028 51.3526 34.993 51.3817 34.993 51.3817C35.2162 51.4018 35.2086 51.8224 35.2086 51.8224V57.4075C35.4218 56.9467 35.7654 56.5589 36.2345 56.2425C36.7036 55.9262 37.2622 55.767 37.9041 55.767C38.8881 55.767 39.7473 56.195 40.4818 57.0509C41.2162 57.9069 41.5832 58.9263 41.5828 60.1091V65.1817C41.5828 65.453 41.4437 65.6666 41.1658 65.8226C40.8878 65.9786 40.5636 66.0572 40.1931 66.0584C39.8607 66.0644 39.5324 65.9833 39.2409 65.8233C38.962 65.6662 38.8233 65.4538 38.8233 65.1835V60.1257C38.8233 59.6421 38.6379 59.2014 38.2672 58.8036C37.8965 58.4058 37.4616 58.2066 36.9624 58.2058C36.4927 58.2058 36.0828 58.3838 35.7327 58.7396C35.3826 59.0955 35.2079 59.5575 35.2086 60.1257V65.1817C35.2086 65.3945 35.0695 65.5947 34.7917 65.7794C34.5138 65.9642 34.1892 66.0566 33.8179 66.0566C33.4331 66.0566 33.1085 65.9672 32.8442 65.7884C32.5799 65.6097 32.4481 65.4068 32.4488 65.1799V57.5171C32.4668 57.1399 32.5513 56.7688 32.6982 56.4208ZM42.6165 65.1817V56.7508C42.6165 56.4938 42.7402 56.2882 42.986 56.1307C43.2319 55.9733 43.5493 55.8957 43.9314 55.8957C44.3135 55.8957 44.6348 55.9737 44.889 56.1307C45.1431 56.2878 45.2693 56.4938 45.2693 56.7508V65.1817C45.2693 65.3945 45.1348 65.5947 44.867 65.7805C44.5992 65.9664 44.289 66.0584 43.9325 66.0584C43.5622 66.0584 43.2517 65.9689 42.9979 65.7902C42.7441 65.6116 42.6165 65.4074 42.6165 65.1817ZM46.4342 62.6296V52.3774C46.4342 52.1387 46.578 51.9367 46.8623 51.7746C47.1489 51.6126 47.4731 51.529 47.8023 51.5323C48.1736 51.5323 48.4989 51.61 48.7768 51.7685C49.0546 51.927 49.1937 52.1214 49.1937 52.3544V55.8957H51.7174C51.9331 55.8957 52.1028 56.0035 52.2314 56.2192C52.3601 56.4348 52.4234 56.6908 52.4234 56.9855C52.4234 57.2803 52.3594 57.5348 52.2314 57.7508C52.1035 57.9668 51.9324 58.0761 51.7174 58.0761H49.1937V62.5379C49.1937 62.9312 49.2825 63.2112 49.4608 63.3737C49.6391 63.5361 49.95 63.617 50.3918 63.617H51.2257C51.5959 63.617 51.886 63.7371 52.0916 63.9764C52.2978 64.2108 52.409 64.5137 52.4036 64.8258C52.4036 65.1695 52.2983 65.4603 52.0916 65.6982C51.8849 65.9362 51.5959 66.0577 51.2257 66.0577H50.3929C47.7531 66.0569 46.4335 64.9143 46.4342 62.6296Z" fill="white"/>
<path d="M52.2735 61.864V60.0455C52.2735 58.8759 52.7297 57.8706 53.6423 57.0297C54.5548 56.1889 55.66 55.768 56.9578 55.767C58.1706 55.767 59.2085 56.1504 60.0714 56.9172C60.9343 57.684 61.3657 58.6473 61.3654 59.8068C61.3654 60.2321 61.3126 60.58 61.2055 60.8553C61.0983 61.1307 60.9341 61.3255 60.7134 61.438C60.5225 61.5414 60.3161 61.613 60.1023 61.6501C59.8614 61.6822 59.6185 61.6966 59.3755 61.6932H55.0323V62.0139C55.0323 62.6256 55.2606 63.1213 55.7174 63.5009C56.1742 63.8776 56.7788 64.067 57.5358 64.067C58.0782 64.067 58.612 63.9315 59.1408 63.6598C59.6695 63.388 60.0096 63.2547 60.1666 63.2547C60.4664 63.2547 60.7158 63.3937 60.9147 63.6716C61.1149 63.9498 61.2144 64.2158 61.2144 64.4739C61.2144 64.8722 60.855 65.2676 60.1361 65.6601C59.4172 66.0526 58.5223 66.2486 57.4514 66.2482C55.9251 66.2482 54.681 65.8456 53.7188 65.0404C52.7567 64.2353 52.2749 63.1764 52.2735 61.864ZM55.0323 60.0667H58.157C58.3856 60.0667 58.5455 60.0308 58.639 59.9564C58.7324 59.882 58.7777 59.7407 58.7777 59.525C58.7777 59.0594 58.5957 58.68 58.2317 58.3866C57.8677 58.0933 57.4221 57.947 56.8949 57.9478C56.3958 57.9478 55.9608 58.0907 55.5901 58.3766C55.2188 58.6641 55.0333 59.0398 55.0333 59.5049L55.0323 60.0667ZM45.2693 52.8572C45.2695 53.1196 45.192 53.3762 45.0465 53.5945C44.9009 53.8128 44.6939 53.983 44.4516 54.0836C44.2092 54.1843 43.9425 54.2107 43.6851 54.1598C43.4278 54.1088 43.1913 53.9826 43.0056 53.7972C42.82 53.6118 42.6935 53.3755 42.6422 53.1182C42.5908 52.8609 42.617 52.5941 42.7172 52.3517C42.8175 52.1092 42.9875 51.902 43.2056 51.7561C43.4237 51.6103 43.6802 51.5324 43.9425 51.5323C44.6747 51.5321 45.2685 52.1251 45.2693 52.8572ZM111.355 56.657C111.346 57.1083 110.978 57.4693 110.526 57.4693C110.075 57.4693 109.706 57.1083 109.697 56.657C109.697 56.2091 110.066 55.8497 110.528 55.8497C110.996 55.8497 111.355 56.2091 111.355 56.657ZM109.903 56.657C109.903 57.0164 110.169 57.304 110.533 57.304C110.888 57.304 111.149 57.0164 111.149 56.6638C111.149 56.3112 110.888 56.0121 110.529 56.0121C110.169 56.0121 109.903 56.3033 109.903 56.657ZM110.4 57.0804H110.214V56.2731C110.316 56.255 110.42 56.2467 110.524 56.2483C110.676 56.2483 110.745 56.2731 110.804 56.3076C110.83 56.3294 110.85 56.3566 110.864 56.3873C110.877 56.4179 110.884 56.4513 110.883 56.4848C110.883 56.5732 110.814 56.6422 110.716 56.6721V56.6818C110.794 56.7113 110.839 56.7702 110.863 56.8788C110.888 57.0017 110.903 57.0509 110.922 57.0804H110.72C110.696 57.0509 110.681 56.9772 110.656 56.8838C110.642 56.795 110.593 56.7555 110.489 56.7555H110.4V57.0804ZM110.405 56.6228H110.493C110.596 56.6228 110.68 56.5869 110.68 56.5046C110.68 56.4305 110.626 56.3813 110.508 56.3813C110.473 56.3805 110.438 56.3839 110.404 56.3913L110.405 56.6228ZM19.441 80.1707C19.3727 80.1195 19.3172 80.0531 19.2792 79.9766C19.2412 79.9001 19.2217 79.8158 19.2221 79.7304C19.2221 79.6589 19.2363 79.5882 19.2639 79.5222C19.2915 79.4563 19.3319 79.3965 19.3828 79.3463C19.4337 79.2962 19.4941 79.2566 19.5604 79.23C19.6268 79.2034 19.6977 79.1902 19.7692 79.1912C19.8889 79.1908 20.0057 79.2285 20.1024 79.2991C20.5043 79.596 20.9439 79.7786 21.4597 79.7796C21.9378 79.7796 22.2264 79.5913 22.2268 79.28V79.2649C22.2268 78.9691 22.0449 78.817 21.1581 78.5884C20.0913 78.312 19.3993 78.014 19.4011 76.9601V76.945C19.4011 75.9817 20.1779 75.3455 21.2627 75.3473C21.9076 75.3473 22.4687 75.5166 22.9457 75.8207C23.0473 75.882 23.1259 75.9752 23.1692 76.0858C23.2125 76.1964 23.218 76.3182 23.185 76.4323C23.152 76.5463 23.0822 76.6463 22.9866 76.7167C22.8909 76.787 22.7747 76.8238 22.6559 76.8214C22.5514 76.8216 22.449 76.7926 22.3601 76.7376C21.9733 76.5094 21.6099 76.3782 21.2458 76.3782C20.7979 76.3782 20.5629 76.5816 20.5629 76.8397V76.8548C20.5629 77.2038 20.7893 77.3178 21.707 77.5547C22.7835 77.8375 23.3899 78.225 23.3881 79.1506V79.1657C23.3881 80.2207 22.5815 80.8105 21.436 80.8087C20.7207 80.8094 20.0231 80.5864 19.441 80.1707ZM24.4686 80.1549L24.4758 76.0126C24.4754 75.9358 24.4903 75.8596 24.5196 75.7885C24.5489 75.7175 24.5921 75.653 24.6465 75.5987C24.7009 75.5445 24.7656 75.5016 24.8368 75.4726C24.9079 75.4435 24.9842 75.4289 25.061 75.4296L28.0042 75.4346C28.2931 75.4358 28.5267 75.6705 28.5265 75.9594C28.5261 76.0277 28.5122 76.0952 28.4856 76.1581C28.459 76.221 28.4203 76.278 28.3716 76.3259C28.3228 76.3737 28.2652 76.4114 28.2018 76.4369C28.1384 76.4623 28.0707 76.475 28.0024 76.4741L25.6358 76.4702L25.634 77.5485L27.6591 77.5521C27.9479 77.5531 28.1816 77.7874 28.1818 78.0762C28.1811 78.1444 28.167 78.2117 28.1403 78.2744C28.1135 78.3371 28.0747 78.3939 28.026 78.4415C27.9773 78.4892 27.9196 78.5267 27.8564 78.5521C27.7931 78.5774 27.7255 78.59 27.6573 78.5891L25.6322 78.5856L25.6304 79.6998L28.0347 79.7038C28.3237 79.705 28.5572 79.9397 28.557 80.2286C28.557 80.2971 28.5433 80.3649 28.5169 80.4281C28.4905 80.4913 28.4518 80.5486 28.403 80.5967C28.3543 80.6448 28.2965 80.6827 28.2329 80.7084C28.1694 80.734 28.1014 80.7467 28.0329 80.7458L25.0517 80.7401C24.9748 80.7405 24.8987 80.7256 24.8276 80.6963C24.7565 80.667 24.692 80.6239 24.6378 80.5694C24.5835 80.515 24.5407 80.4503 24.5116 80.3791C24.4826 80.308 24.468 80.2318 24.4686 80.1549ZM29.3259 79.9968L31.1839 75.8214C31.3136 75.5338 31.5491 75.3595 31.8668 75.3599H31.9355C32.254 75.3599 32.4811 75.5353 32.6095 75.8239L34.4534 80.0075C34.4903 80.0806 34.5109 80.1608 34.5138 80.2426C34.5146 80.316 34.5009 80.3887 34.4733 80.4567C34.4458 80.5247 34.405 80.5865 34.3534 80.6386C34.3017 80.6907 34.2403 80.7321 34.1726 80.7602C34.1048 80.7884 34.0322 80.8028 33.9588 80.8026C33.6856 80.8026 33.5041 80.6427 33.3981 80.4001L33.0433 79.5643L30.7069 79.5604L30.3356 80.4306C30.236 80.6581 30.0387 80.794 29.7964 80.7937C29.7249 80.7937 29.6542 80.7795 29.5882 80.7519C29.5223 80.7243 29.4625 80.6839 29.4123 80.6329C29.3622 80.582 29.3226 80.5217 29.296 80.4553C29.2694 80.389 29.2562 80.318 29.2572 80.2466C29.2623 80.1594 29.2857 80.0743 29.3259 79.9968ZM32.613 78.5306L31.8812 76.7772L31.1411 78.528L32.613 78.5306ZM35.3679 76.0317C35.3674 75.9548 35.3823 75.8786 35.4116 75.8075C35.4408 75.7364 35.484 75.6718 35.5384 75.6175C35.5929 75.5633 35.6576 75.5203 35.7287 75.4913C35.7999 75.4622 35.8762 75.4476 35.9531 75.4483L37.7963 75.4515C38.4717 75.4515 38.9947 75.6435 39.3419 75.9928C39.6378 76.2898 39.7963 76.7071 39.7952 77.2078V77.2232C39.7952 78.0575 39.3754 78.5726 38.7302 78.8372L39.5404 79.8249C39.6539 79.9687 39.7298 80.0906 39.7294 80.2725C39.7294 80.5992 39.4555 80.8116 39.1744 80.8116C38.9092 80.8116 38.7348 80.6822 38.5993 80.5068L37.4638 79.0636H36.5292L36.5275 80.2243C36.5275 80.5469 36.266 80.8084 35.9433 80.8084C35.6207 80.8084 35.3592 80.5469 35.3592 80.2243L35.3679 76.0317ZM37.7162 78.0313C38.2848 78.0313 38.6115 77.729 38.6126 77.2811V77.2664C38.6126 76.7657 38.2647 76.5072 37.696 76.5061H36.5354L36.5325 78.0309L37.7162 78.0313ZM40.6119 78.1269V78.1122C40.6144 76.6025 41.7542 75.3678 43.385 75.3706C44.1816 75.3706 44.72 75.5863 45.1596 75.9123C45.2303 75.9671 45.2875 76.0373 45.3268 76.1176C45.3661 76.198 45.3863 76.2862 45.3861 76.3757C45.3858 76.4509 45.3705 76.5253 45.3413 76.5947C45.312 76.664 45.2693 76.7268 45.2157 76.7796C45.162 76.8323 45.0984 76.8739 45.0286 76.9019C44.9587 76.93 44.884 76.9439 44.8088 76.9429C44.6842 76.9407 44.5632 76.9005 44.4619 76.8278C44.1359 76.5841 43.7948 76.4475 43.3775 76.4468C42.4825 76.4468 41.8365 77.1877 41.8351 78.0974V78.1132C41.8351 79.023 42.4616 79.7825 43.3721 79.7843C43.8649 79.7843 44.1913 79.6344 44.5256 79.3692C44.5794 79.32 44.6425 79.2823 44.7113 79.2582C44.78 79.2341 44.8529 79.2241 44.9256 79.2289C44.9983 79.2336 45.0693 79.253 45.1343 79.2859C45.1993 79.3188 45.257 79.3644 45.304 79.4201C45.3509 79.4758 45.3861 79.5404 45.4075 79.6101C45.4288 79.6797 45.4359 79.753 45.4283 79.8254C45.4206 79.8979 45.3984 79.968 45.363 80.0317C45.3276 80.0953 45.2797 80.1512 45.2222 80.1959C44.7437 80.6125 44.1819 80.8616 43.3322 80.8601C41.7661 80.8594 40.609 79.6513 40.6119 78.1269ZM46.4785 76.0054C46.4785 75.6828 46.74 75.4213 47.0626 75.4213C47.3852 75.4213 47.6467 75.6828 47.6467 76.0054L47.6438 77.5683L49.7983 77.5723L49.8012 76.009C49.7994 75.9311 49.8132 75.8536 49.8419 75.7812C49.8705 75.7087 49.9133 75.6427 49.9678 75.587C50.0223 75.5313 50.0874 75.4871 50.1593 75.457C50.2311 75.4268 50.3083 75.4114 50.3862 75.4115C50.4641 75.4117 50.5413 75.4274 50.613 75.4578C50.6848 75.4882 50.7497 75.5327 50.804 75.5885C50.8583 75.6444 50.9009 75.7106 50.9292 75.7832C50.9576 75.8558 50.9711 75.9333 50.9691 76.0112L50.9619 80.2441C50.9614 80.5667 50.6995 80.8278 50.3769 80.8273C50.0543 80.8268 49.7932 80.5649 49.7937 80.2423L49.7965 78.6492L47.642 78.6456L47.6395 80.2383C47.6395 80.5609 47.378 80.8224 47.0554 80.8224C46.7328 80.8224 46.4713 80.5609 46.4713 80.2383L46.4785 76.0054ZM52.8342 79.5284C53.2135 79.5284 53.4938 79.8106 53.4931 80.1754V80.1909C53.4931 80.555 53.2113 80.835 52.8321 80.8343C52.4529 80.8335 52.1725 80.5528 52.1732 80.1873V80.1707C52.1739 79.8084 52.455 79.528 52.8342 79.5284ZM56.8363 76.0683C56.836 75.9915 56.8509 75.9153 56.8801 75.8443C56.9095 75.7732 56.9526 75.7087 57.007 75.6544C57.0615 75.6002 57.1261 75.5573 57.1973 75.5283C57.2685 75.4992 57.3447 75.4846 57.4215 75.4853L60.3949 75.4903C60.4658 75.4885 60.5364 75.5009 60.6024 75.5267C60.6685 75.5526 60.7287 75.5914 60.7795 75.6409C60.8303 75.6904 60.8706 75.7496 60.8982 75.8149C60.9258 75.8803 60.94 75.9505 60.94 76.0214C60.94 76.0924 60.9258 76.1626 60.8982 76.2279C60.8706 76.2933 60.8303 76.3524 60.7795 76.4019C60.7287 76.4514 60.6685 76.4903 60.6024 76.5161C60.5364 76.542 60.4658 76.5544 60.3949 76.5525L58.0056 76.5486L58.0035 77.6794L60.0523 77.6826C60.1931 77.6829 60.3281 77.739 60.4275 77.8388C60.5269 77.9385 60.5826 78.0736 60.5823 78.2144C60.5821 78.3552 60.526 78.4902 60.4262 78.5896C60.3265 78.689 60.1913 78.7447 60.0505 78.7444L58.0017 78.7408L57.9992 80.2581C57.999 80.3348 57.9838 80.4107 57.9543 80.4815C57.9248 80.5523 57.8817 80.6166 57.8273 80.6708C57.773 80.7249 57.7085 80.7678 57.6376 80.7971C57.5667 80.8263 57.4907 80.8412 57.414 80.8411C57.3373 80.841 57.2613 80.8257 57.1905 80.7962C57.1197 80.7667 57.0554 80.7236 57.0013 80.6693C56.9471 80.6149 56.9042 80.5504 56.875 80.4795C56.8458 80.4086 56.8308 80.3326 56.831 80.2559L56.8363 76.0683ZM61.7799 76.0317C61.7799 75.7091 62.0414 75.4476 62.364 75.4476C62.6866 75.4476 62.9481 75.7091 62.9481 76.0317L62.9405 80.2649C62.9423 80.3428 62.9285 80.4203 62.8999 80.4928C62.8713 80.5652 62.8284 80.6313 62.7739 80.6869C62.7194 80.7426 62.6543 80.7868 62.5824 80.8169C62.5106 80.8471 62.4334 80.8625 62.3555 80.8624C62.2776 80.8622 62.2005 80.8465 62.1287 80.8161C62.057 80.7857 61.992 80.7413 61.9377 80.6854C61.8834 80.6295 61.8408 80.5633 61.8125 80.4907C61.7841 80.4182 61.7706 80.3406 61.7727 80.2627L61.7799 76.0317ZM64.3258 76.0511C64.3254 75.9742 64.3402 75.898 64.3694 75.8269C64.3987 75.7558 64.4418 75.6912 64.4963 75.637C64.5508 75.5827 64.6155 75.5398 64.6867 75.5108C64.7579 75.4818 64.8341 75.4673 64.911 75.468H65.0322C65.3129 75.468 65.4793 75.6054 65.6382 75.8102L67.8862 78.7728L67.8909 76.0342C67.8915 75.7157 68.1502 75.4579 68.4687 75.4585C68.7872 75.4591 69.0449 75.7178 69.0443 76.0363L69.0371 80.262C69.0375 80.3389 69.0226 80.415 68.9933 80.4861C68.964 80.5571 68.9209 80.6217 68.8665 80.6759C68.812 80.7302 68.7473 80.773 68.6762 80.8021C68.605 80.8311 68.5288 80.8457 68.452 80.8451H68.4138C68.1331 80.8451 67.9667 80.707 67.8078 80.5021L65.4764 77.4335L65.4714 80.2778C65.4714 80.5962 65.2133 80.8542 64.895 80.8542C64.5767 80.8542 64.3186 80.5961 64.3186 80.2778L64.3258 76.0511ZM70.4034 76.0917C70.403 76.0148 70.4179 75.9386 70.4473 75.8675C70.4766 75.7964 70.5198 75.7318 70.5743 75.6776C70.6289 75.6233 70.6936 75.5804 70.7649 75.5514C70.8361 75.5224 70.9124 75.5079 70.9893 75.5087L72.476 75.5112C74.1449 75.5141 75.2962 76.6614 75.2937 78.156V78.1718C75.2908 79.6657 74.1356 80.8246 72.4666 80.8217L70.9803 80.8192C70.9034 80.8196 70.8272 80.8047 70.7561 80.7755C70.6851 80.7462 70.6205 80.7031 70.5662 80.6486C70.5119 80.5942 70.469 80.5295 70.4399 80.4583C70.4109 80.3871 70.3963 80.3109 70.3969 80.234L70.4034 76.0917ZM72.4677 79.7674C73.4239 79.7674 74.0698 79.1251 74.0716 78.1858V78.1711C74.0716 77.2301 73.4296 76.569 72.4735 76.5676L71.5709 76.5658L71.5651 79.7674H72.4677ZM76.6265 79.5694C77.0058 79.5694 77.2861 79.8515 77.2854 80.2164V80.2318C77.2854 80.596 77.0033 80.876 76.6244 80.8752C76.2455 80.8745 75.9648 80.5938 75.9655 80.2282V80.2131C75.9662 79.8494 76.247 79.569 76.6265 79.5694ZM80.6287 76.064C80.6293 75.7414 80.8912 75.4804 81.2138 75.481C81.5365 75.4816 81.7975 75.7436 81.7969 76.0662L81.7936 77.8487L83.9503 75.7132C84.0941 75.5694 84.2379 75.486 84.4439 75.4864C84.5151 75.4847 84.586 75.4975 84.6522 75.524C84.7183 75.5505 84.7784 75.5902 84.8288 75.6406C84.8792 75.691 84.9189 75.7511 84.9454 75.8173C84.9719 75.8834 84.9847 75.9543 84.983 76.0256C84.983 76.2078 84.8993 76.3437 84.7699 76.4648L83.2728 77.858L84.9 79.9101C84.9909 80.0241 85.0589 80.1456 85.0585 80.3199C85.0585 80.6463 84.8069 80.8882 84.4661 80.8878C84.2383 80.8878 84.102 80.7732 83.9733 80.6064L82.4593 78.6165L81.7915 79.2362V80.298C81.7913 80.3747 81.7761 80.4506 81.7466 80.5214C81.7171 80.5922 81.674 80.6565 81.6196 80.7107C81.5653 80.7648 81.5008 80.8077 81.4299 80.8369C81.359 80.8662 81.283 80.8811 81.2063 80.881C81.1296 80.8809 81.0537 80.8656 80.9829 80.8361C80.912 80.8066 80.8477 80.7635 80.7936 80.7092C80.7394 80.6548 80.6965 80.5903 80.6673 80.5194C80.6381 80.4485 80.6231 80.3725 80.6233 80.2958L80.6287 76.064ZM86.0172 76.0885C86.0167 76.0116 86.0316 75.9354 86.0609 75.8643C86.0902 75.7933 86.1333 75.7287 86.1877 75.6745C86.2422 75.6202 86.3069 75.5773 86.3781 75.5483C86.4492 75.5193 86.5255 75.5047 86.6023 75.5054H86.7235C87.0046 75.5054 87.171 75.6427 87.3299 75.8476L89.5779 78.8102L89.5826 76.0716C89.5832 75.7531 89.8417 75.4955 90.1602 75.4961C90.4786 75.4967 90.7363 75.7553 90.7357 76.0737L90.7285 80.299C90.729 80.3759 90.7141 80.4522 90.6849 80.5233C90.6556 80.5944 90.6125 80.659 90.558 80.7133C90.5036 80.7676 90.4389 80.8105 90.3677 80.8395C90.2965 80.8686 90.2202 80.8832 90.1433 80.8824H90.1073C89.8263 80.8824 89.6598 80.7448 89.501 80.5399L87.1696 77.4713L87.1645 80.3145C87.1645 80.6328 86.9064 80.8909 86.5882 80.8909C86.2699 80.8909 86.0118 80.6328 86.0118 80.3145L86.0172 76.0885ZM91.8097 78.215V78.2002C91.8122 76.6905 93.0052 75.4558 94.6436 75.4587C96.282 75.4616 97.4559 76.6848 97.4534 78.1941V78.2099C97.4509 79.7196 96.2579 80.9532 94.6195 80.9504C92.9811 80.9475 91.8068 79.7246 91.8097 78.215ZM96.2309 78.2225V78.2078C96.2309 77.2969 95.5663 76.5378 94.6256 76.536C93.6849 76.5342 93.0315 77.2768 93.03 78.1866V78.2024C93.0282 79.1121 93.6943 79.872 94.635 79.8735C95.5757 79.8749 96.2295 79.133 96.2309 78.2225ZM98.0127 76.2991C97.9867 76.2284 97.9714 76.1543 97.9674 76.0791C97.9674 75.7524 98.2413 75.5101 98.5677 75.5108C98.6946 75.5101 98.8184 75.5505 98.9205 75.6259C99.0226 75.7013 99.0975 75.8077 99.1342 75.9292L100.183 79.1855L101.252 75.9652C101.344 75.692 101.549 75.5029 101.845 75.5033H101.938C102.234 75.5033 102.438 75.6859 102.528 75.967L103.585 79.193L104.645 75.94C104.721 75.7125 104.919 75.523 105.207 75.5238C105.526 75.5238 105.783 75.7671 105.783 76.0859C105.778 76.1637 105.763 76.2405 105.737 76.3138L104.243 80.4834C104.135 80.7789 103.916 80.9604 103.635 80.9601H103.513C103.233 80.9601 103.021 80.7854 102.915 80.4817L101.872 77.4375L100.82 80.4763C100.712 80.7796 100.5 80.9532 100.22 80.9529H100.098C99.8175 80.9529 99.5982 80.7703 99.4922 80.4741L98.0127 76.2991ZM106.741 79.6215C107.12 79.6215 107.4 79.9033 107.4 80.2685V80.284C107.4 80.6481 107.118 80.9281 106.739 80.9274C106.359 80.9267 106.079 80.6459 106.08 80.2804V80.2653C106.081 79.9011 106.362 79.6208 106.741 79.6215Z" fill="white"/>
</svg>
