<svg width="128" height="128" viewBox="0 0 128 128" fill="none" xmlns="http://www.w3.org/2000/svg">
<rect width="128" height="128" fill="#171B26"/>
<path d="M105.628 68.2986H110.24V72.7897H105.628V68.2986Z" fill="#E20074"/>
<path d="M17.7603 62.71V60.3942H19.7734V59.5918L22.327 56.2757H23.5697V60.3942H26.0156V62.71H23.5697V68.5786C23.5697 69.3329 23.6511 69.8287 23.8134 70.0655C23.9842 70.3022 24.3356 70.4208 24.8669 70.4208C25.1644 70.4208 25.502 70.3595 25.8804 70.2368V72.8816C25.1291 73.0362 24.3643 73.1155 23.5973 73.1184C23.1559 73.1184 22.7369 73.0874 22.3408 73.0267C21.1783 72.8421 20.4263 72.3067 20.0841 71.4211C19.954 71.0825 19.8677 70.7286 19.8273 70.3681C19.7911 70.0259 19.7734 69.3856 19.7734 68.4473V62.71H17.7603ZM31.495 64.9696V67.1879H26.4215V64.9696H31.495ZM39.5939 60.0125C40.4949 60.0125 41.3055 60.1397 42.026 60.3942C43.4493 60.9033 44.512 61.7935 45.2148 63.0654C45.7553 64.0479 46.0253 65.2493 46.0253 66.6709C46.0253 68.6972 45.3856 70.316 44.1067 71.526C42.9448 72.6226 41.4356 73.1711 39.5807 73.1711C37.6077 73.1711 36.0319 72.5572 34.8517 71.3288C33.6898 70.1268 33.1091 68.5436 33.1091 66.5786C33.1091 64.6578 33.672 63.1095 34.7978 61.9339C36.0228 60.6533 37.6214 60.0125 39.5939 60.0125ZM39.4322 62.6051C39.0447 62.6051 38.7025 62.6968 38.405 62.8814C37.4053 63.4867 36.9055 64.7191 36.9055 66.5786C36.9055 67.1839 36.964 67.7629 37.0809 68.3154C37.2339 69.009 37.5269 69.561 37.9591 69.9737C38.3918 70.3773 38.8963 70.5791 39.4723 70.5791C39.8216 70.5818 40.1658 70.4956 40.4726 70.3286C41.49 69.776 41.999 68.5436 41.999 66.6314C41.999 66.0438 41.9452 65.4867 41.8368 64.9604C41.693 64.2411 41.4 63.6707 40.9587 63.2494C40.5265 62.8195 40.0175 62.6051 39.4322 62.6051ZM47.7547 72.7894V60.3942H51.578V61.5389C52.4699 60.5215 53.6501 60.0125 55.1181 60.0125C56.8206 60.0125 58.0639 60.5651 58.8474 61.6708C59.3335 62.3546 59.5771 63.4248 59.5771 64.8808V72.7894H55.7802V65.4603C55.7802 64.6005 55.681 63.9952 55.4833 63.6444C55.168 63.0918 54.6498 62.8155 53.9299 62.8155C52.9927 62.8155 52.3123 63.2586 51.8892 64.1442C51.664 64.6005 51.551 65.4471 51.551 66.6835V72.7894H47.7547ZM62.5762 72.7894V54.8284H66.3731V72.7894H62.5762ZM69.6966 58.4207V54.8284H73.7228V58.4207H69.6966ZM69.8049 72.7894V60.3942H73.6013V72.7894H69.8049ZM76.7494 72.7894V60.3942H80.5733V61.5389C81.4646 60.5215 82.6449 60.0125 84.1128 60.0125C85.8153 60.0125 87.0586 60.5651 87.8422 61.6708C88.3282 62.3546 88.5719 63.4248 88.5719 64.8808V72.7894H84.7749V65.4603C84.7749 64.6005 84.6757 63.9952 84.478 63.6444C84.1627 63.0918 83.6445 62.8155 82.924 62.8155C81.9874 62.8155 81.307 63.2586 80.884 64.1442C80.6587 64.6005 80.5463 65.4471 80.5463 66.6835V72.7894H76.7494ZM102.758 67.4866H94.3005C94.4083 69.6184 95.2056 70.684 96.692 70.684C97.6016 70.684 98.2454 70.2454 98.6237 69.3684H102.434C102.254 70.0259 101.921 70.6404 101.434 71.2102C100.335 72.5171 98.7727 73.1705 96.7458 73.1705C94.8095 73.1705 93.2647 72.6054 92.1114 71.4738C90.8957 70.2718 90.2875 68.6663 90.2875 66.6577C90.2875 64.7977 90.8418 63.2494 91.9492 62.013C93.1386 60.6791 94.6834 60.0125 96.5836 60.0125C98.0969 60.0125 99.3803 60.4556 100.434 61.3418C101.2 61.9906 101.768 62.8023 102.137 63.7762C102.506 64.7409 102.713 65.9773 102.758 67.4866ZM98.7458 65.2763C98.6913 64.7059 98.579 64.2233 98.4076 63.8289C98.0207 62.9341 97.4033 62.4865 96.5567 62.4865C96.1514 62.4865 95.7955 62.6005 95.4894 62.8287C94.8227 63.3021 94.4312 64.1184 94.3137 65.2763H98.7458Z" fill="white"/>
</svg>
