<svg width="129" height="128" viewBox="0 0 129 128" fill="none" xmlns="http://www.w3.org/2000/svg">
<rect width="128" height="128" transform="translate(0.666504)" fill="#018BC7"/>
<path d="M54.2933 67.8688C54.9376 62.8081 56.9243 59.2642 61.2736 57.4386C66.3746 55.2908 71.771 55.6532 76.9122 57.8681C77.919 58.2977 79.1003 58.8481 78.6707 60.2844C78.3217 61.4523 77.1941 61.5328 76.1874 61.5597C73.6234 61.6134 71.0461 61.4925 68.4821 61.6402C63.408 61.9489 60.8977 63.9894 60.4011 67.9762C59.703 73.5605 62.1998 78.9165 66.1867 80.4066C68.7238 81.3596 70.7642 80.1649 72.0797 78.3662C78.6439 69.4931 84.8859 60.4723 85.2752 48.7937C85.3826 45.6928 85.7048 42.6188 85.1544 39.5313C84.6174 36.5513 83.463 35.9338 80.8051 37.3567C76.8048 39.4911 73.3013 42.4577 68.6835 43.5719C61.475 45.3035 55.0316 43.3303 48.7761 40.1757C47.7291 39.6522 46.4941 38.5783 47.0713 37.2627C47.7962 35.5982 49.3802 36.3768 50.6018 36.7392C57.1391 38.6856 63.5556 38.6051 69.9051 35.9472C71.7844 35.1552 73.4086 34.0545 74.9792 32.7658C76.5229 31.504 78.1338 30.269 79.8655 29.3025C85.6779 26.0674 90.9803 28.6179 92.3629 35.1821C94.1617 43.7061 92.7925 52.0154 90.2554 60.1099C87.7989 67.9762 84.2416 75.4129 78.8989 81.8026C76.5498 84.6082 73.865 87.199 69.8782 87.6151C63.8912 88.2594 60.8306 84.1652 57.8371 80.0978C57.7566 79.9904 57.6626 79.8965 57.5955 79.7891C56.0518 77.5205 54.79 75.3055 54.4544 72.7013C54.253 71.1039 54.1322 69.2917 54.3067 67.8822L54.2933 67.8688Z" fill="white"/>
<path d="M53.0582 72.3255C53.0582 72.3255 54.4542 73.4665 54.2529 76.2989C53.7428 80.5005 53.3401 82.3798 51.9306 85.2794C50.7896 87.6554 53.3132 87.4809 54.414 87.5882C58.535 88.0044 62.5756 88.7158 66.6296 89.5347C73.8381 90.971 81.0735 92.1792 88.3089 93.4947C94.7254 94.6626 101.142 95.1055 107.585 93.7632C108.552 93.5618 109.733 93.1994 110.109 94.5417C110.458 95.7633 109.424 96.3137 108.525 96.7701C105.048 98.5688 101.545 99.777 97.4638 100.019C87.3289 100.623 77.8383 97.5084 68.1062 95.8036C53.8367 93.3068 39.6881 89.7226 25.0966 93.5215C23.8213 93.8571 22.4387 93.8169 21.1097 93.9108C20.3848 93.9645 19.3646 94.3941 19.1767 93.2933C19.0022 92.2731 19.9016 91.7093 20.7339 91.3603C24.4388 89.8032 28.2511 88.5548 32.2246 87.8567C36.9094 87.0379 41.5809 86.1788 46.5611 86.1788C39.97 80.3663 35.7147 73.1309 31.7547 65.6807C27.6873 58.0158 25.9557 49.8408 26.8417 41.2764C27.6068 33.8263 37.0571 24.1612 48.6015 29.6112C50.1989 30.3629 51.7024 31.3563 53.179 32.3362C54.0247 32.9 54.8435 33.7323 54.3334 34.833C53.7562 36.0814 52.4407 36.0143 51.3936 35.6922C49.474 35.1015 47.6216 34.484 45.5543 34.4975C38.8156 34.5511 33.6206 39.4777 33.5132 46.1224C33.3253 58.3917 38.6948 68.6205 45.702 78.1648C47.8229 81.0509 50.5077 80.9167 51.7292 77.5205" fill="white"/>
</svg>
