<svg width="128" height="128" viewBox="0 0 128 128" fill="none" xmlns="http://www.w3.org/2000/svg">
<rect width="128" height="128" fill="#1C5ABF"/>
<path d="M64 27C56.6821 27 49.5285 29.17 43.4439 33.2356C37.3593 37.3012 32.6169 43.0798 29.8165 49.8407C27.016 56.6016 26.2833 64.041 27.711 71.2183C29.1386 78.3956 32.6625 84.9884 37.8371 90.1629C43.0116 95.3375 49.6044 98.8614 56.7817 100.289C63.959 101.717 71.3984 100.984 78.1593 98.1835C84.9202 95.3831 90.6988 90.6407 94.7644 84.5561C98.83 78.4715 101 71.3179 101 64C101 54.187 97.1018 44.7759 90.163 37.837C83.2241 30.8982 73.813 27 64 27V27ZM64 83.6106C60.1214 83.6106 56.3299 82.4605 53.1049 80.3056C49.88 78.1508 47.3664 75.088 45.8821 71.5047C44.3979 67.9213 44.0095 63.9782 44.7662 60.1741C45.5229 56.3701 47.3906 52.8758 50.1332 50.1332C52.8758 47.3906 56.3701 45.5229 60.1742 44.7662C63.9783 44.0095 67.9213 44.3979 71.5047 45.8821C75.088 47.3664 78.1508 49.88 80.3057 53.1049C82.4605 56.3299 83.6106 60.1214 83.6106 64C83.6106 69.2011 81.5445 74.1891 77.8668 77.8668C74.1891 81.5445 69.2011 83.6106 64 83.6106Z" fill="white"/>
<path d="M64 75.614C70.4143 75.614 75.6141 70.4143 75.6141 64C75.6141 57.5857 70.4143 52.3859 64 52.3859C57.5858 52.3859 52.386 57.5857 52.386 64C52.386 70.4143 57.5858 75.614 64 75.614Z" fill="#90D62C"/>
</svg>
