<svg width="128" height="128" viewBox="0 0 128 128" fill="none" xmlns="http://www.w3.org/2000/svg">
<rect width="128" height="128" fill="#DE0019"/>
<path d="M39.9283 30.7178C38.6724 30.7178 37.6257 31.5551 37.2071 32.811L36.7885 34.6949C36.7885 34.6949 36.3698 36.7881 38.463 36.7881H40.3469C41.6029 36.7881 42.6495 35.9508 43.0681 34.6949L43.4868 32.811C43.4868 32.811 43.9054 30.7178 41.8122 30.7178H39.9283Z" fill="white"/>
<path d="M48.7192 30.7178C47.4633 30.7178 46.4167 31.5551 45.998 32.811L45.5794 34.6949C45.5794 34.6949 45.1608 36.7881 47.254 36.7881H49.1379C50.3938 36.7881 51.4404 35.9508 51.8591 34.6949L52.2777 32.811C52.2777 32.811 52.6964 30.7178 50.6031 30.7178H48.7192Z" fill="white"/>
<path d="M57.3017 30.7178C56.0457 30.7178 54.9991 31.5551 54.5805 32.811L54.1618 34.6949C54.1618 34.6949 53.7432 36.7881 55.8364 36.7881H57.7203C58.9762 36.7881 60.0229 35.9508 60.4415 34.6949L60.8601 32.811C60.8601 32.811 61.2788 30.7178 59.1856 30.7178H57.3017Z" fill="white"/>
<path d="M65.8841 30.7178C64.6281 30.7178 63.5815 31.5551 63.1629 32.811L62.7442 34.6949C62.7442 34.6949 62.3256 36.7881 64.4188 36.7881H66.3027C67.5587 36.7881 68.6053 35.9508 69.0239 34.6949L69.4426 32.811C69.4426 32.811 69.8612 30.7178 67.768 30.7178H65.8841Z" fill="white"/>
<path d="M74.4665 30.7178C73.2106 30.7178 72.164 31.5551 71.7453 32.811L71.3267 34.6949C71.3267 34.6949 70.908 36.7881 73.0012 36.7881H74.8852C76.1411 36.7881 77.1877 35.9508 77.6064 34.6949L78.025 32.811C78.025 32.811 78.4436 30.7178 76.3504 30.7178H74.4665Z" fill="white"/>
<path d="M83.2574 30.7178C82.0015 30.7178 80.9549 31.5551 80.5362 32.811L80.1176 34.6949C80.1176 34.6949 79.699 36.7881 81.7922 36.7881H83.6761C84.932 36.7881 85.9786 35.9508 86.3973 34.6949L86.8159 32.811C86.8159 32.811 87.2346 30.7178 85.1414 30.7178H83.2574Z" fill="white"/>
<path d="M91.8399 30.7178C90.5839 30.7178 89.5373 31.5551 89.1187 32.811L88.7 34.6949C88.7 34.6949 88.2814 36.7881 90.3746 36.7881H92.2585C93.5145 36.7881 94.5611 35.9508 94.9797 34.6949L95.3984 32.811C95.3984 32.811 95.817 30.7178 93.7238 30.7178H91.8399Z" fill="white"/>
<path d="M100.422 30.7178C99.1666 30.7178 98.1199 31.5551 97.9106 32.811L97.492 34.6949C97.492 34.6949 97.0733 36.7881 99.1666 36.7881H101.05C102.306 36.7881 103.353 35.9508 103.772 34.6949L104.19 32.811C104.19 32.811 104.609 30.7178 102.516 30.7178H100.422Z" fill="white"/>
<path d="M38.0438 39.2999C36.7878 39.2999 35.7412 40.1372 35.3226 41.3932L35.1133 43.2771C35.1133 43.2771 34.6946 45.3703 36.7879 45.3703H38.6717C39.9277 45.3703 41.1836 44.533 41.3929 43.2771L41.8116 41.3932C41.8116 41.3932 42.2302 39.2999 40.137 39.2999H38.0438Z" fill="white"/>
<path d="M46.8355 39.2999C45.5796 39.2999 44.533 40.1372 44.1143 41.3932L43.6957 43.2771C43.6957 43.2771 43.2771 45.3703 45.3703 45.3703H47.2542C48.5101 45.3703 49.5567 44.533 49.9754 43.2771L50.394 41.3932C50.394 41.3932 50.8127 39.2999 48.7194 39.2999H46.8355Z" fill="white"/>
<path d="M55.418 39.2999C54.162 39.2999 53.1154 40.1372 52.6968 41.3932L52.2781 43.2771C52.2781 43.2771 51.8595 45.3703 53.9527 45.3703H56.0459C57.3019 45.3703 58.3485 44.533 58.7671 43.2771L59.1858 41.3932C59.1858 41.3932 59.6044 39.2999 57.5112 39.2999H55.418Z" fill="white"/>
<path d="M98.5386 39.2999C97.2827 39.2999 96.2361 40.1372 95.8174 41.3932L95.3988 43.2771C95.3988 43.2771 94.9801 45.3703 97.0733 45.3703H98.9572C100.213 45.3703 101.26 44.533 101.678 43.2771L102.097 41.3932C102.097 41.3932 102.516 39.2999 100.423 39.2999H98.5386Z" fill="white"/>
<path d="M36.1599 47.8821C34.9039 47.8821 33.8573 48.7194 33.4387 49.9753L33.02 51.8592C33.02 51.8592 32.6014 53.9525 34.6946 53.9525H36.5785C37.8345 53.9525 38.8811 53.1152 39.2997 51.8592L39.7184 49.9753C39.7184 49.9753 40.137 47.8821 38.0438 47.8821H36.1599Z" fill="white"/>
<path d="M44.9518 47.8821C43.6959 47.8821 42.6493 48.7194 42.2306 49.9753L41.812 51.8592C41.812 51.8592 41.3934 53.9525 43.4866 53.9525H45.3705C46.6264 53.9525 47.673 53.1152 48.0917 51.8592L48.5103 49.9753C48.5103 49.9753 48.929 47.8821 46.8357 47.8821H44.9518Z" fill="white"/>
<path d="M53.5343 47.8821C52.2783 47.8821 51.2317 48.7194 50.8131 49.9753L50.3944 51.8592C50.3944 51.8592 49.9758 53.9525 52.069 53.9525H53.9529C55.2088 53.9525 56.2555 53.1152 56.6741 51.8592L57.0927 49.9753C57.0927 49.9753 57.5114 47.8821 55.4182 47.8821H53.5343Z" fill="white"/>
<path d="M62.1157 47.8821C60.8597 47.8821 59.8131 48.7194 59.3945 49.9753L58.9758 51.8592C58.9758 51.8592 58.5572 53.9525 60.6504 53.9525H62.5343C63.7902 53.9525 64.8369 53.1152 65.2555 51.8592L65.6741 49.9753C65.6741 49.9753 66.0928 47.8821 63.9996 47.8821H62.1157Z" fill="white"/>
<path d="M96.6539 47.8821C95.3979 47.8821 94.3513 48.7194 93.9327 49.9753L93.5141 51.8592C93.5141 51.8592 93.0954 53.9525 95.1886 53.9525H97.0725C98.3285 53.9525 99.3751 53.1152 99.7937 51.8592L100.212 49.9753C100.212 49.9753 100.631 47.8821 98.5378 47.8821H96.6539Z" fill="white"/>
<path d="M34.2762 56.6738C33.0202 56.6738 31.9736 57.5111 31.555 58.767L31.1363 60.6509C31.1363 60.6509 30.7177 62.7442 32.8109 62.7442H34.6948C35.9508 62.7442 36.9974 61.9069 37.416 60.6509L37.8347 58.767C37.8347 58.767 38.2533 56.6738 36.1601 56.6738H34.2762Z" fill="white"/>
<path d="M43.0681 56.6738C41.8122 56.6738 40.7656 57.5111 40.3469 58.767L39.9283 60.6509C39.9283 60.6509 39.5096 62.7442 41.6029 62.7442H43.4868C44.7427 62.7442 45.7893 61.9069 46.208 60.6509L46.6266 58.767C46.6266 58.767 47.0453 56.6738 44.952 56.6738H43.0681Z" fill="white"/>
<path d="M51.6495 56.6738C50.3936 56.6738 49.347 57.5111 48.9283 58.767L48.5097 60.6509C48.5097 60.6509 48.0911 62.7442 50.1843 62.7442H52.0682C53.3241 62.7442 54.3707 61.9069 54.7894 60.6509L55.208 58.767C55.208 58.767 55.6267 56.6738 53.5334 56.6738H51.6495Z" fill="white"/>
<path d="M94.7702 56.6738C93.5142 56.6738 92.4676 57.5111 92.049 58.767L91.6303 60.6509C91.6303 60.6509 91.2117 62.7442 93.3049 62.7442H95.1888C96.4448 62.7442 97.4914 61.9069 97.91 60.6509L98.3287 58.767C98.3287 58.767 98.7473 56.6738 96.6541 56.6738H94.7702Z" fill="white"/>
<path d="M32.602 65.256C31.3461 65.256 30.2995 66.0933 29.8808 67.3492L29.4622 69.2331C29.4622 69.2331 29.0435 71.3263 31.1367 71.3263H33.0206C34.2766 71.3263 35.3232 70.4891 35.7418 69.2331L36.1605 67.3492C36.1605 67.3492 36.5791 65.256 34.4859 65.256H32.602Z" fill="white"/>
<path d="M41.1834 65.256C39.9275 65.256 38.8809 66.0933 38.4622 67.3492L38.0436 69.2331C38.0436 69.2331 37.6249 71.3263 39.7181 71.3263H41.6021C42.858 71.3263 43.9046 70.4891 44.3233 69.2331L44.7419 67.3492C44.7419 67.3492 45.1605 65.256 43.0673 65.256H41.1834Z" fill="white"/>
<path d="M75.7216 65.256C74.4657 65.256 73.4191 66.0933 73.0004 67.3492L72.5818 69.2331C72.5818 69.2331 72.1631 71.3263 74.2564 71.3263H76.1403C77.3962 71.3263 78.4428 70.4891 78.8615 69.2331L79.2801 67.3492C79.2801 67.3492 79.6988 65.256 77.6055 65.256H75.7216Z" fill="white"/>
<path d="M92.8865 65.256C91.6305 65.256 90.5839 66.0933 90.1653 67.3492L89.7466 69.2331C89.7466 69.2331 89.328 71.3263 91.4212 71.3263H93.3051C94.5611 71.3263 95.6077 70.4891 96.0263 69.2331L96.445 67.3492C96.445 67.3492 96.8636 65.256 94.7704 65.256H92.8865Z" fill="white"/>
<path d="M30.5088 73.8382C29.2529 73.8382 28.2062 74.6755 27.7876 75.9314L27.3689 77.8153C27.3689 77.8153 26.9503 79.9085 29.0435 79.9085H30.9274C32.1834 79.9085 33.23 79.0712 33.6486 77.8153L34.0673 75.9314C34.0673 75.9314 34.4859 73.8382 32.3927 73.8382H30.5088Z" fill="white"/>
<path d="M39.2997 73.8382C38.0438 73.8382 36.9972 74.6755 36.5785 75.9314L36.1599 77.8153C36.1599 77.8153 35.7412 79.9085 37.8345 79.9085H39.7184C40.9743 79.9085 42.0209 79.0712 42.4396 77.8153L42.8582 75.9314C42.8582 75.9314 43.2768 73.8382 41.1836 73.8382H39.2997Z" fill="white"/>
<path d="M47.8821 73.8382C46.6262 73.8382 45.5796 74.6755 45.161 75.9314L44.7423 77.8153C44.7423 77.8153 44.3237 79.9085 46.4169 79.9085H48.3008C49.5567 79.9085 50.6033 79.0712 51.022 77.8153L51.4406 75.9314C51.4406 75.9314 51.8593 73.8382 49.7661 73.8382H47.8821Z" fill="white"/>
<path d="M65.2555 73.8382C63.9996 73.8382 62.953 74.6755 62.5343 75.9314L62.1157 77.8153C62.1157 77.8153 61.697 79.9085 63.7902 79.9085H65.6741C66.9301 79.9085 67.9767 79.0712 68.3953 77.8153L68.814 75.9314C68.814 75.9314 69.2326 73.8382 67.1394 73.8382H65.2555Z" fill="white"/>
<path d="M73.8379 73.8382C72.582 73.8382 71.5354 74.6755 71.1167 75.9314L70.6981 77.8153C70.6981 77.8153 70.2795 79.9085 72.3727 79.9085H74.2566C75.5125 79.9085 76.5591 79.0712 76.9778 77.8153L77.3964 75.9314C77.3964 75.9314 77.8151 73.8382 75.7218 73.8382H73.8379Z" fill="white"/>
<path d="M82.4204 73.8382C81.1644 73.8382 80.1178 74.6755 79.6992 75.9314L79.2805 77.8153C79.2805 77.8153 78.8619 79.9085 80.9551 79.9085H82.839C84.095 79.9085 85.1416 79.0712 85.5602 77.8153L85.9789 75.9314C85.9789 75.9314 86.3975 73.8382 84.3043 73.8382H82.4204Z" fill="white"/>
<path d="M91.0028 73.8382C89.7468 73.8382 88.7002 74.6755 88.2816 75.9314L87.8629 77.8153C87.8629 77.8153 87.4443 79.9085 89.5375 79.9085H91.4214C92.6774 79.9085 93.724 79.0712 94.1426 77.8153L94.5613 75.9314C94.5613 75.9314 94.9799 73.8382 92.8867 73.8382H91.0028Z" fill="white"/>
<path d="M28.8336 82.6299C27.5777 82.6299 26.531 83.4672 26.1124 84.7231L25.6938 86.607C25.6938 86.607 25.2751 88.7002 27.3683 88.7002H29.2522C30.5082 88.7002 31.5548 87.8629 31.9734 86.607L32.3921 84.7231C32.3921 84.7231 32.8107 82.6299 30.7175 82.6299H28.8336Z" fill="white"/>
<path d="M37.416 82.6299C36.1601 82.6299 35.1135 83.4672 34.6948 84.7231L34.2762 86.607C34.2762 86.607 33.8575 88.7002 35.9508 88.7002H37.8347C39.0906 88.7002 40.1372 87.8629 40.5559 86.607L40.9745 84.7231C40.9745 84.7231 41.3931 82.6299 39.2999 82.6299H37.416Z" fill="white"/>
<path d="M45.9984 82.6299C44.7425 82.6299 43.6959 83.4672 43.2773 84.7231L42.8586 86.607C42.8586 86.607 42.44 88.7002 44.5332 88.7002H46.4171C47.673 88.7002 48.7196 87.8629 49.1383 86.607L49.5569 84.7231C49.5569 84.7231 49.9756 82.6299 47.8824 82.6299H45.9984Z" fill="white"/>
<path d="M54.5809 82.6299C53.3249 82.6299 52.2783 83.4672 51.8597 84.7231L51.441 86.607C51.441 86.607 51.0224 88.7002 53.1156 88.7002H54.9995C56.2554 88.7002 57.3021 87.8629 57.7207 86.607L58.1394 84.7231C58.1394 84.7231 58.558 82.6299 56.4648 82.6299H54.5809Z" fill="white"/>
<path d="M63.3718 82.6297C62.1159 82.6297 61.0692 83.4669 60.6506 84.7229L60.232 86.3975C60.232 86.3975 59.8133 88.4907 61.9066 88.4907H63.7904C65.0464 88.4907 66.093 87.6534 66.5116 86.3975L66.9303 84.5136C66.9303 84.5136 67.3489 82.4203 65.2557 82.4203H63.3718V82.6297Z" fill="white"/>
<path d="M71.9542 82.6299C70.6983 82.6299 69.6517 83.4672 69.233 84.7231L68.8144 86.607C68.8144 86.607 68.3958 88.7002 70.489 88.7002H72.3729C73.6288 88.7002 74.6754 87.8629 75.0941 86.607L75.5127 84.7231C75.5127 84.7231 75.9314 82.6299 73.8381 82.6299H71.9542Z" fill="white"/>
<path d="M80.5367 82.6299C79.2807 82.6299 78.2341 83.4672 77.8155 84.7231L77.3968 86.607C77.3968 86.607 76.9782 88.7002 79.0714 88.7002H80.9553C82.2113 88.7002 83.2579 87.8629 83.6765 86.607L84.0952 84.7231C84.0952 84.7231 84.5138 82.6299 82.4206 82.6299H80.5367Z" fill="white"/>
<path d="M89.1191 82.6299C87.8632 82.6299 86.8165 83.4672 86.3979 84.7231L85.9793 86.607C85.9793 86.607 85.5606 88.7002 87.6538 88.7002H89.5377C90.7937 88.7002 91.8403 87.8629 92.2589 86.607L92.6776 84.7231C92.6776 84.7231 93.0962 82.6299 91.003 82.6299H89.1191Z" fill="white"/>
<path d="M26.9499 91.212C25.694 91.212 24.6474 92.0493 24.2287 93.3053L23.8101 95.1892C23.8101 95.1892 23.3914 97.2824 25.4846 97.2824H27.3685C28.6245 97.2824 29.6711 96.4451 30.0897 95.1892L30.5084 93.3053C30.5084 93.3053 30.927 91.212 28.8338 91.212H26.9499Z" fill="white"/>
<path d="M35.5323 91.212C34.2764 91.212 33.2298 92.0493 32.8111 93.3053L32.3925 95.1892C32.3925 95.1892 31.9738 97.2824 34.0671 97.2824H35.951C37.2069 97.2824 38.2535 96.4451 38.6722 95.1892L39.0908 93.3053C39.0908 93.3053 39.5094 91.212 37.4162 91.212H35.5323Z" fill="white"/>
<path d="M44.1147 91.212C42.8588 91.212 41.8122 92.0493 41.3936 93.3053L40.9749 95.1892C40.9749 95.1892 40.5563 97.2824 42.6495 97.2824H44.5334C45.7893 97.2824 46.8359 96.4451 47.2546 95.1892L47.6732 93.3053C47.6732 93.3053 48.0919 91.212 45.9986 91.212H44.1147Z" fill="white"/>
<path d="M52.9057 91.212C51.6497 91.212 50.6031 92.0493 50.1845 93.3053L49.7658 95.1892C49.7658 95.1892 49.3472 97.2824 51.4404 97.2824H53.3243C54.5803 97.2824 55.6269 96.4451 56.0455 95.1892L56.4642 93.3053C56.4642 93.3053 56.8828 91.212 54.7896 91.212H52.9057Z" fill="white"/>
<path d="M61.4881 91.212C60.2322 91.212 59.1856 92.0493 58.7669 93.3053L58.3483 95.1892C58.3483 95.1892 57.9296 97.2824 60.0229 97.2824H61.9068C63.1627 97.2824 64.2093 96.4451 64.6279 95.1892L65.0466 93.3053C65.0466 93.3053 65.4652 91.212 63.372 91.212H61.4881Z" fill="white"/>
<path d="M70.0705 91.212C68.8146 91.212 67.768 92.0493 67.3493 93.3053L66.9307 95.1892C66.9307 95.1892 66.5121 97.2824 68.6053 97.2824H70.4892C71.7451 97.2824 72.7917 96.4451 73.2104 95.1892L73.629 93.3053C73.629 93.3053 74.0477 91.212 71.9544 91.212H70.0705Z" fill="white"/>
<path d="M78.653 91.212C77.397 91.212 76.3504 92.0493 75.9318 93.3053L75.5131 95.1892C75.5131 95.1892 75.0945 97.2824 77.1877 97.2824H79.0716C80.3275 97.2824 81.3742 96.4451 81.7928 95.1892L82.2114 93.3053C82.2114 93.3053 82.6301 91.212 80.5369 91.212H78.653Z" fill="white"/>
<path d="M87.4439 91.212C86.188 91.212 85.1413 92.0493 84.7227 93.3053L84.3041 95.1892C84.3041 95.1892 83.8854 97.2824 85.9786 97.2824H87.8625C89.1185 97.2824 90.1651 96.4451 90.5837 95.1892L91.0024 93.3053C91.0024 93.3053 91.421 91.212 89.3278 91.212H87.4439Z" fill="white"/>
</svg>
