<svg width="128" height="128" viewBox="0 0 128 128" fill="none" xmlns="http://www.w3.org/2000/svg">
<rect width="128" height="128" fill="black"/>
<path d="M77.7146 69.8082L76.1432 69.3855C75.2702 69.5095 74.3053 69.8036 73.3221 69.7485C72.7591 69.7443 72.2193 69.5241 71.814 69.1333C71.4087 68.7426 71.169 68.2111 71.1442 67.6487C71.0734 67.0778 71.2098 66.5005 71.5285 66.0216C71.8472 65.5427 72.3271 65.1941 72.881 65.039C73.426 64.8724 73.9891 64.7721 74.558 64.7403C75.0864 64.6898 75.6194 64.7403 76.2351 64.7403C76.3683 63.8214 76.3362 63.0587 75.4586 62.6635C75.0478 62.4549 74.5799 62.3869 74.1267 62.4699C73.6735 62.5529 73.2601 62.7824 72.9499 63.123C72.5397 63.4411 72.0923 63.708 71.6175 63.9179L71.3556 63.6192C71.402 63.3465 71.4791 63.0798 71.5853 62.8244C72.2469 61.6298 73.9883 61.0279 75.624 61.4092C77.0299 61.7354 77.7054 62.613 77.7237 64.2349C77.7329 66.0314 77.7146 67.8325 77.7146 69.8082ZM76.157 65.5995C75.238 65.7282 74.3191 65.7052 73.5518 66.0268C73.2996 66.174 73.0882 66.3817 72.9365 66.6312C72.7849 66.8807 72.6979 67.1641 72.6834 67.4557C72.7898 67.7278 72.9595 67.9705 73.1784 68.1639C73.3974 68.3573 73.6593 68.4957 73.9424 68.5676C75.5964 68.8617 76.4648 67.7268 76.157 65.5995Z" fill="white"/>
<path d="M31.6167 65.9671H26.1032C25.9842 66.445 26.034 66.9494 26.2442 67.3948C26.4543 67.8402 26.8119 68.1993 27.2564 68.4114C28.4924 69.0776 29.6089 68.6733 30.6105 67.6717L31.4145 68.2736C30.6105 69.5876 29.4159 69.946 28.0651 69.8679C27.393 69.8701 26.7355 69.6726 26.1759 69.3003C25.6164 68.9281 25.1801 68.398 24.9223 67.7774C24.5946 67.0497 24.4406 66.2558 24.4725 65.4584C24.5044 64.661 24.7213 63.8819 25.1061 63.1827C25.4494 62.5195 25.9957 61.9835 26.6652 61.6528C27.3348 61.3222 28.0925 61.2143 28.8278 61.3449C30.2062 61.5379 31.1618 62.5165 31.4743 64.1017C31.5603 64.7199 31.6079 65.3429 31.6167 65.9671ZM30.151 64.7541C29.8937 63.0817 29.2045 62.3741 28.0283 62.4568C26.8521 62.5395 26.1905 63.4538 26.2226 64.7541H30.151Z" fill="white"/>
<path d="M43.9073 65.9395H38.2835C38.2835 67.1341 38.6557 68.0163 39.6297 68.4711C40.8473 69.0409 41.927 68.6503 42.8873 67.6763L43.7281 68.2506C42.9011 69.5922 41.6605 69.9506 40.2638 69.8633C39.5714 69.8571 38.8977 69.6376 38.3345 69.2348C37.7713 68.8319 37.346 68.2652 37.1165 67.612C36.8461 66.9228 36.7223 66.1848 36.7532 65.4451C36.7841 64.7054 36.9688 63.9803 37.2957 63.316C37.6303 62.6013 38.194 62.0187 38.8973 61.6608C39.6006 61.3029 40.4034 61.1901 41.1781 61.3403C42.5565 61.5746 43.5122 62.6176 43.7695 64.2671C43.843 64.7771 43.8522 65.2963 43.9073 65.9395ZM42.3268 64.7449C42.2854 63.2884 41.6789 62.5349 40.5624 62.4706C39.3678 62.4016 38.5454 63.2471 38.3984 64.7449H42.3268Z" fill="white"/>
<path d="M57.6728 67.2903C58.3712 67.1755 58.8996 67.0284 59.2947 67.8647C59.7312 68.7836 61.5093 68.9995 62.341 68.3609C62.5043 68.2553 62.6343 68.1055 62.7156 67.9288C62.797 67.7521 62.8264 67.5559 62.8003 67.3632C62.7743 67.1704 62.694 66.9891 62.5687 66.8403C62.4434 66.6915 62.2784 66.5815 62.0928 66.523C61.3846 66.2508 60.6604 66.0222 59.9242 65.8384C58.4401 65.379 57.8153 64.6254 57.9209 63.4676C58.0266 62.3098 59.0145 61.5057 60.3928 61.3357C62.5018 61.0692 63.8756 61.9468 64.1053 63.7479C63.4161 63.9133 62.9337 63.9179 62.4053 63.1919C62.0745 62.7325 61.1601 62.5257 60.5169 62.5441C60.1126 62.5441 59.5382 63.1368 59.4096 63.5687C59.3315 63.8306 59.8691 64.4463 60.2918 64.6392C61.0427 64.9259 61.8098 65.1683 62.5891 65.3652C63.5631 65.7006 64.2339 66.3117 64.2431 67.4236C64.2523 68.5355 63.5861 69.2614 62.5615 69.5968C61.9739 69.8269 61.3421 69.9216 60.7129 69.8738C60.0837 69.8261 59.4733 69.6372 58.9272 69.3212C58.5477 69.1356 58.2285 68.8463 58.0066 68.487C57.7846 68.1276 57.6689 67.7127 57.6728 67.2903Z" fill="white"/>
<path d="M86.0768 63.7846C85.4427 63.8765 84.9465 63.973 84.4457 63.2471C84.1241 62.7876 83.2235 62.5487 82.5803 62.5441C82.3222 62.5948 82.0814 62.7105 81.8804 62.8801C81.6794 63.0497 81.525 63.2677 81.4316 63.5135C81.3719 63.8398 81.9324 64.4325 82.3505 64.6668C83.0931 64.9563 83.8526 65.2003 84.6249 65.3973C85.6081 65.7373 86.2468 66.3806 86.2284 67.4925C86.21 68.6044 85.5714 69.2017 84.6019 69.5922C82.5895 70.4009 80.2278 69.5509 79.7178 67.8095C79.6913 67.6471 79.6806 67.4824 79.6857 67.3179C80.407 67.1019 80.9078 67.0974 81.3259 67.9152C81.7854 68.8341 83.6232 68.9903 84.3905 68.3287C84.5366 68.2194 84.6507 68.073 84.7213 67.9048C84.7918 67.7366 84.8161 67.5526 84.7918 67.3718C84.7674 67.191 84.6953 67.02 84.5827 66.8765C84.4702 66.7329 84.3214 66.622 84.1516 66.5552C83.4851 66.281 82.7984 66.0582 82.0978 65.889C80.4484 65.3927 79.8005 64.6484 79.9292 63.4217C80.0624 62.273 81.1651 61.4276 82.6859 61.3219C84.7214 61.1749 85.9803 62.08 86.0768 63.7846Z" fill="white"/>
<path d="M19.0826 59.7873H15.5723L15.4482 58.6524H24.1275L24.178 59.7184H20.585V69.6887H19.0826V59.7873Z" fill="white"/>
<path d="M52.5774 68.5676V69.7025C52.3109 69.7025 52.0904 69.7485 51.8652 69.7485H45.8555V58.6387H47.2339V68.5676H52.5774Z" fill="white"/>
<path d="M69.5545 62.4476L68.0751 62.5808C68.0751 64.3314 67.9924 66.0314 68.1302 67.713C68.1669 68.1495 68.8883 68.5309 69.2972 68.9398L69.6051 68.7193V69.6703C67.6018 70.1298 66.6967 69.4912 66.6553 67.543C66.6277 65.9211 66.6553 64.2992 66.6553 62.5992L65.2769 62.4384C65.0702 61.4873 65.0702 61.4873 66.6094 61.3265V59.5116H67.9878C68.0291 60.0906 68.0705 60.6787 68.1072 61.2116C68.5942 61.6757 69.9634 60.8946 69.5545 62.4476Z" fill="white"/>
<path d="M34.7457 69.6933H33.5005V58H34.7457V69.6933Z" fill="white"/>
<path d="M54.3187 61.4643H55.5731V69.6933L54.3187 69.7485V61.4643Z" fill="white"/>
<path d="M56.152 59.2911C55.5685 59.6219 55.2331 59.9757 54.939 59.9343C54.645 59.893 54.3877 59.4749 54.1166 59.213C54.4198 58.9419 54.7001 58.5192 55.0355 58.4595C55.2836 58.4181 55.6145 58.8684 56.152 59.2911Z" fill="white"/>
<path d="M107.465 68.4205C106.578 69.7208 105.246 69.8724 103.826 69.7024C103.234 69.6475 102.671 69.4251 102.201 69.0614C101.732 68.6976 101.376 68.2076 101.175 67.6486C100.898 66.9601 100.77 66.2205 100.801 65.479C100.832 64.7375 101.021 64.0111 101.354 63.3481C101.692 62.658 102.248 62.0979 102.935 61.7535C103.622 61.4091 104.403 61.2995 105.158 61.4413C106.606 61.7445 107.543 62.9024 107.667 64.5702C107.694 64.9424 107.667 65.3192 107.667 65.8521H102.254C102.135 66.336 102.172 66.8453 102.36 67.3067C102.549 67.7682 102.878 68.1581 103.302 68.4205C104.29 69.1051 105.31 68.9305 106.302 68.3103C106.641 68.1586 106.998 68.0505 107.364 67.9886L107.465 68.4205ZM106.339 64.8505C106.385 63.2562 105.691 62.4062 104.414 62.4016C103.137 62.397 102.337 63.3205 102.3 64.8505H106.339Z" fill="#FFB74D"/>
<path d="M92.4587 61.4137L93.9014 62.0524C94.7878 61.7518 95.7021 61.541 96.6306 61.4229C96.8819 61.3956 97.1362 61.4204 97.3775 61.4958C97.6188 61.5713 97.842 61.6957 98.033 61.8613C98.2241 62.0268 98.3789 62.2301 98.4878 62.4582C98.5967 62.6864 98.6574 62.9346 98.666 63.1872C98.813 65.1491 98.8084 67.1248 98.7763 69.0913C98.7763 69.3348 98.2249 69.5508 97.9309 69.8081L97.6001 69.5692C97.6001 67.837 97.6828 66.0956 97.5587 64.3727C97.5128 63.7478 97.0993 62.8564 96.603 62.6405C96.2533 62.5422 95.8873 62.516 95.5272 62.5634C95.167 62.6108 94.8203 62.7308 94.5079 62.9162C94.2688 63.1104 94.0733 63.3527 93.934 63.6273C93.7947 63.902 93.7147 64.2029 93.6992 64.5105C93.5936 66.1692 93.6625 67.837 93.6625 69.6013L92.4587 69.6886V61.4137Z" fill="#FFB74D"/>
<path d="M110.015 62.4889C109.669 62.4813 109.325 62.446 108.986 62.3832C108.908 62.3508 108.84 62.2999 108.787 62.235C108.734 62.1701 108.698 62.0932 108.682 62.011C108.682 61.8732 108.866 61.6021 108.944 61.6113C110.323 61.7399 110.056 60.7291 110.125 59.9526C110.153 59.8328 110.196 59.717 110.254 59.608H111.274C111.318 59.8846 111.339 60.1642 111.338 60.4443C111.274 61.1794 111.499 61.6067 112.34 61.5745C112.523 61.5745 112.716 61.8226 112.9 61.9559C112.703 62.1121 112.491 62.4153 112.303 62.4153C111.384 62.3464 111.324 62.8748 111.338 63.5502C111.366 64.7632 111.366 65.9716 111.338 67.1846C111.338 68.2275 111.66 68.8846 113.112 68.7605C112.863 69.1878 112.749 69.6381 112.546 69.6794C111.747 69.8494 110.869 69.8816 110.474 68.9811C110.236 68.381 110.108 67.7428 110.097 67.0973C110.038 65.9256 110.097 64.7494 110.074 63.5778C110.097 63.2148 110.038 62.8518 110.015 62.4889Z" fill="#FFB74D"/>
<path d="M89.0449 67.9105C89.3987 68.3976 89.7892 68.7054 89.7433 68.9259C89.6905 69.0949 89.5978 69.2486 89.473 69.3742C89.3483 69.4997 89.1951 69.5934 89.0265 69.6473C88.8243 69.684 88.3189 69.2384 88.3281 69.0224C88.3373 68.7146 88.6957 68.4159 89.0449 67.9105Z" fill="#FFB74D"/>
</svg>
