<svg width="128" height="128" viewBox="0 0 128 128" fill="none" xmlns="http://www.w3.org/2000/svg">
<rect width="128" height="128" fill="white"/>
<path fill-rule="evenodd" clip-rule="evenodd" d="M24.1949 46.6836L60.4431 27L104 57.4994L44.4627 87.2192L24.1949 46.6836Z" fill="#8DC90C"/>
<path fill-rule="evenodd" clip-rule="evenodd" d="M24 55.8433L44.1701 100.569L102.148 69.193L101.759 66.7567L44.8529 97.8403L44.4631 87.2189L24.1944 46.6833L24 55.8433Z" fill="#7BA729"/>
<path fill-rule="evenodd" clip-rule="evenodd" d="M72.0656 51.0377C69.6591 51.5698 67.4256 50.7233 67.0768 49.1466C66.7289 47.5689 68.3968 45.8601 70.8033 45.328C73.2089 44.7959 75.4423 45.6424 75.7912 47.2191C76.14 48.7959 74.4721 50.5056 72.0656 51.0377ZM71.0424 60.2945C68.6359 60.8265 66.4024 59.98 66.0536 58.4033C65.7047 56.8266 67.3726 55.1168 69.7791 54.5847C72.1856 54.0526 74.4191 54.8991 74.7679 56.4759C75.1168 58.0526 73.4479 59.7624 71.0424 60.2945ZM61.8341 47.1884C59.4276 47.7214 57.1941 46.874 56.8452 45.2972C56.4973 43.7205 58.1652 42.0107 60.5717 41.4787C62.9773 40.9466 65.2108 41.7931 65.5596 43.3698C65.9085 44.9465 64.2406 46.6563 61.8341 47.1884ZM56.4266 66.6767C54.0201 67.2097 51.7867 66.3632 51.4378 64.7856C51.089 63.2088 52.7569 61.4991 55.1634 60.967C57.5699 60.4349 59.8024 61.2814 60.1513 62.8591C60.5001 64.4349 58.8322 66.1446 56.4266 66.6767ZM46.1579 62.1455C43.7523 62.6785 41.5188 61.832 41.17 60.2544C40.8212 58.6776 42.4891 56.9679 44.8956 56.4358C47.3011 55.9037 49.5346 56.7511 49.8834 58.3269C50.2323 59.9037 48.5644 61.6134 46.1579 62.1455ZM47.8555 46.4238C50.2611 45.8917 52.4946 46.7382 52.8434 48.3149C53.1922 49.8926 51.5244 51.6014 49.1179 52.1335C46.7114 52.6656 44.4779 51.8191 44.129 50.2424C43.7811 48.6656 45.449 46.9559 47.8555 46.4238ZM81.5167 47.2386C78.8907 38.8675 66.8749 35.1847 54.6787 39.0108C42.4816 42.8368 34.7235 52.7242 37.3495 61.0953C39.9756 69.4655 51.9913 73.1492 64.1884 69.3222C76.3847 65.4962 84.1428 55.6088 81.5167 47.2386Z" fill="white"/>
</svg>
