<svg width="128" height="128" viewBox="0 0 128 128" fill="none" xmlns="http://www.w3.org/2000/svg">
<rect width="128" height="128" fill="#2B59AA"/>
<path d="M54.6837 22.6521C55.3228 22.6504 56.0556 22.6911 56.7599 22.6716L57.0597 22.6599C57.3925 22.6409 57.7815 22.7676 58.1427 23.0164C58.5026 23.2642 58.7881 23.6015 58.9308 23.9333L58.9318 23.9343C59.0473 24.201 59.1063 24.5024 59.171 24.8572C59.2315 25.1889 59.2995 25.59 59.4503 25.947C59.6377 26.3936 59.6459 26.867 59.6769 27.4685C59.7052 28.0193 59.7573 28.672 60.1241 29.282C60.0373 30.0595 60.1196 30.8082 60.2482 31.5164C60.3144 31.8812 60.3942 32.2428 60.4708 32.5916C60.5481 32.9436 60.6224 33.2837 60.6818 33.6208C60.7793 34.176 60.7864 34.6884 60.8585 35.3357C60.9248 35.9303 61.0446 36.5673 61.3683 37.1755C61.4189 38.2069 61.6135 39.2447 61.7472 40.2068C61.8684 41.0789 61.9451 41.9179 61.8654 42.7527L61.8214 43.1111C61.6779 44.0644 61.105 44.6768 60.173 45.0164C59.0773 45.414 57.9558 45.7043 56.7931 45.9558C56.0575 46.1136 55.3358 46.1787 54.5929 46.2136L53.8409 46.241C53.5547 46.2494 53.3017 46.3204 53.088 46.4568C52.8752 46.5926 52.733 46.7735 52.6359 46.9539C52.541 47.1301 52.4849 47.3138 52.4464 47.4666C52.427 47.5437 52.4107 47.6189 52.3966 47.6843C52.3818 47.7527 52.37 47.8083 52.3575 47.8591V47.8601C52.2019 48.4964 52.1314 49.3227 52.6388 50.1111V50.1121C52.7381 50.267 52.7926 50.4726 52.8331 50.7634C52.8683 51.0158 52.8976 51.4049 52.9728 51.7263C53.071 52.1493 53.2427 52.608 53.3507 52.9617C53.4534 53.298 53.5221 53.6028 53.5255 53.9041L53.5226 54.033C53.5023 54.4034 53.6051 54.7324 53.7189 54.9988C53.7761 55.1328 53.8403 55.259 53.8976 55.3699L54.0499 55.6697C54.1922 55.974 54.2615 56.3011 54.3361 56.6902C54.4075 57.0629 54.4856 57.5048 54.6661 57.9333V57.9343C54.8933 58.4698 55.1166 58.8998 55.1779 59.3523L55.1935 59.5486C55.2012 59.8694 55.3393 60.1181 55.4357 60.2859V60.2869C55.9025 61.1264 56.2136 62.0419 56.4357 62.9988V62.9998C56.488 63.223 56.5962 63.3953 56.6642 63.5017C56.7464 63.6305 56.765 63.6608 56.7736 63.6892V63.6912C56.9735 64.3451 57.2328 64.9694 57.4835 65.5701C57.6738 66.0259 57.8586 66.4678 58.0216 66.9138L58.1769 67.3621C58.5092 68.3854 59.1137 69.3647 59.5519 70.2332C60.039 71.2032 60.5288 72.1792 61.0402 73.1433C61.346 73.7196 61.5852 74.272 61.8937 74.8923C62.1905 75.4892 62.5292 76.0966 62.9816 76.657V76.658C63.3475 77.111 63.5935 77.7022 63.8439 78.3259L63.8448 78.3289C64.1403 79.0491 64.6356 79.6574 64.9816 80.1394V80.1404C65.3934 80.7113 65.7402 81.3019 66.1495 81.9324C66.5489 82.5476 66.9917 83.1731 67.5538 83.7263L67.5548 83.7273C67.6791 83.8487 67.777 84.0076 67.9161 84.241C68.0442 84.4558 68.2091 84.7351 68.4513 84.9773L68.4523 84.9792C68.9035 85.4277 69.4421 85.5832 69.964 85.4255C70.4451 85.28 70.814 84.8966 71.0519 84.4802L71.0509 84.4792C71.633 83.467 72.436 82.6467 73.4767 82.0642L73.4777 82.0652C73.8512 81.8579 74.2546 81.7152 74.7062 81.5564C75.1444 81.4023 75.6288 81.231 76.0909 80.9714L76.0919 80.9724C76.3147 80.8479 76.544 80.8486 76.84 80.949C77.1677 81.0602 77.4682 81.2505 77.8615 81.4578V81.4568C79.5566 82.3557 80.7797 83.8506 82.0197 85.3806V85.3816C82.6882 86.2044 83.431 86.9474 84.1456 87.6687C84.7765 88.3055 85.387 88.9262 85.9376 89.5916L86.1691 89.8796C86.8911 90.8024 87.6899 91.644 88.4806 92.4607C89.2761 93.2824 90.0602 94.0747 90.7823 94.9236V94.9246C91.5979 95.8883 91.6654 97.2262 90.8693 98.3152L90.6984 98.5291C89.9604 99.38 89.0813 100.051 88.1359 100.721L87.171 101.398C86.5469 101.834 85.8774 102.186 85.1779 102.537C84.4867 102.883 83.7555 103.233 83.0597 103.649C82.7593 103.829 82.3231 103.937 81.8839 104.026C81.258 104.153 80.6529 104.335 80.0704 104.52C79.6279 104.661 79.2034 104.802 78.7794 104.928L78.3546 105.051C77.8107 105.199 77.2671 105.239 76.7267 105.256C76.2099 105.271 75.6416 105.264 75.1554 105.339L75.1144 105.344C74.3653 105.343 73.8142 105.329 73.2784 105.345H73.2745C72.8512 105.361 72.4428 105.275 72.0089 105.138C71.7912 105.07 71.5746 104.992 71.3448 104.909C71.1184 104.827 70.8793 104.743 70.6349 104.668L70.6339 104.667C69.8975 104.443 69.2192 104.163 68.5441 103.803H68.5431C67.5508 103.277 66.642 102.863 65.795 102.231H65.7941C64.4955 101.265 63.2199 100.348 62.0753 99.2683H62.0763C61.5026 98.726 60.9337 98.1907 60.3771 97.6453L59.8253 97.0964C58.4167 95.6693 56.986 94.3351 55.6964 92.8796L55.1525 92.2478C54.4142 91.3611 53.6724 90.5201 53.0197 89.6111L52.7452 89.2175C51.7722 87.7622 50.6548 86.3218 49.672 84.9207H49.673C49.2246 84.2795 48.8295 83.6078 48.4103 82.9148C47.9954 82.2291 47.5589 81.5288 47.0431 80.8699V80.8689C46.6965 80.4263 46.4958 79.8741 46.1886 79.2322L46.1876 79.2312L46.0021 78.8708C45.808 78.5175 45.5936 78.1837 45.3995 77.8699C45.1343 77.441 44.8972 77.0373 44.7277 76.6003C44.4831 75.9701 44.147 75.3752 43.8595 74.8269C43.5644 74.2641 43.3084 73.7288 43.1632 73.1501L43.1622 73.1472C43.0566 72.7351 42.8544 72.3631 42.6788 72.0476C42.4928 71.7131 42.336 71.4395 42.2394 71.1531L42.2384 71.1521L42.1017 70.7722C41.9595 70.3963 41.8034 70.0311 41.6515 69.6775C41.4464 69.2003 41.2497 68.7433 41.088 68.2742L41.087 68.2722C40.9858 67.9822 40.9341 67.7237 40.8312 67.364C40.7364 67.0327 40.6083 66.666 40.3751 66.3201V66.3191L40.3204 66.2253C40.2699 66.1234 40.2304 65.9967 40.1925 65.8337C40.1497 65.6499 40.0958 65.3458 40.0206 65.1042C39.847 64.5397 39.6625 63.838 39.3995 63.2585C39.2606 62.9521 39.2164 62.6272 39.1476 62.2019C39.0827 61.801 38.9948 61.3181 38.7159 60.8621V60.8611L38.6456 60.7263C38.5832 60.5808 38.5418 60.4043 38.5089 60.1892C38.4871 60.0465 38.4714 59.9032 38.4523 59.7439C38.4338 59.5901 38.4119 59.4238 38.38 59.2605V59.2585C38.2862 58.7856 38.1368 58.3052 38.0245 57.8845C37.9076 57.4464 37.8186 57.034 37.8058 56.6111V56.6101L37.7823 56.1287C37.7214 55.1651 37.5773 54.1974 37.3878 53.2742L37.2902 52.8162C37.1741 52.2881 37.1466 51.7584 37.1241 51.1921C37.1022 50.6382 37.085 50.0387 36.9728 49.4412L36.9718 49.4392L36.8947 49.0095C36.5781 47.149 36.5195 45.269 36.6027 43.3816L36.6505 42.5105C36.7758 40.6182 36.8916 38.7321 37.1066 36.8718C37.2381 35.7442 37.5602 34.6051 38.3419 33.6345C39.1071 32.6843 39.751 31.5558 40.3829 30.5593C40.6241 30.179 40.9384 29.8304 41.296 29.4753C41.625 29.1487 42.0693 28.7443 42.4191 28.3865V28.3855C42.574 28.2268 42.7406 28.075 42.92 27.9109C43.0956 27.7503 43.284 27.578 43.463 27.3923C44.4293 26.3905 45.5855 25.656 46.8761 25.0613C47.2421 24.8925 47.5931 24.7011 47.9279 24.5173C48.2672 24.3311 48.5889 24.153 48.9191 23.9958L48.923 23.9939C49.3292 23.7963 49.7881 23.6994 50.3087 23.5603L50.3126 23.5593C50.987 23.3729 51.803 23.1856 52.4825 22.9548H52.4835C53.1977 22.7118 53.9211 22.6541 54.6837 22.6521Z" fill="#C41919" stroke="black"/>
</svg>
