<svg width="128" height="128" viewBox="0 0 128 128" fill="none" xmlns="http://www.w3.org/2000/svg">
<rect width="128" height="128" fill="black"/>
<path fill-rule="evenodd" clip-rule="evenodd" d="M110.893 66.3771C110.251 66.3655 109.837 65.9529 109.847 65.3335C109.857 64.7623 110.349 64.3111 110.948 64.3236C111.541 64.3362 112.008 64.8107 112 65.3905C111.99 65.9887 111.541 66.3897 110.893 66.3771Z" fill="#F39511"/>
<path fill-rule="evenodd" clip-rule="evenodd" d="M106.58 63.487C106.58 62.8898 106.618 62.2887 106.56 61.6964C106.537 61.4528 106.358 61.1194 106.156 61.0247C105.944 60.9252 105.554 60.9735 105.363 61.1165C105.141 61.2828 104.936 61.6152 104.918 61.8877C104.855 62.8666 104.856 63.8504 104.876 64.8312C104.881 65.0564 105.005 65.3936 105.173 65.4758C105.513 65.6439 105.923 65.7222 106.304 65.7212C106.396 65.7212 106.548 65.2786 106.567 65.0303C106.609 64.5191 106.581 64.0021 106.58 63.487ZM106.647 66.847C106.605 66.5378 106.582 66.358 106.55 66.1194C106.324 66.2653 106.143 66.3909 105.953 66.503C104.584 67.3089 102.993 66.6769 102.552 65.1569C101.774 62.4714 103.445 60.3879 106.209 60.5937C106.307 60.6015 106.406 60.5947 106.542 60.5947C106.581 59.7752 106.861 58.9074 105.718 58.5112C105.746 58.4639 105.772 58.4165 105.799 58.3692C106.801 58.2793 107.803 58.1894 108.836 58.0957C108.865 58.2542 108.906 58.3682 108.905 58.4822C108.892 60.7677 108.854 63.0531 108.875 65.3385C108.879 65.698 109.148 66.0556 109.322 66.4798C108.54 66.5871 107.621 66.7127 106.647 66.847Z" fill="white"/>
<path fill-rule="evenodd" clip-rule="evenodd" d="M87.8669 63.4889H87.864C87.864 62.8714 87.8853 62.2539 87.8582 61.6373C87.8341 61.0884 87.348 60.7541 86.8648 60.9976C86.6049 61.13 86.2927 61.4518 86.2725 61.7098C86.1855 62.7844 86.1942 63.8677 86.1845 64.9471C86.1835 65.0804 86.2686 65.2225 86.342 65.3443C86.6174 65.8071 87.0513 65.8642 87.5268 65.7714C88.0235 65.6738 87.8466 65.2669 87.8611 64.9703C87.8843 64.4774 87.8669 63.9827 87.8669 63.4889ZM90.7361 66.4614C89.8335 66.587 88.9319 66.7116 87.9974 66.8411C87.9288 66.5899 87.8786 66.4024 87.8119 66.1579C87.6389 66.2623 87.4882 66.3493 87.3403 66.442C85.8367 67.3833 84.1291 66.6469 83.7802 64.9075C83.4024 63.0202 84.1194 61.3638 85.6347 60.8468C86.2995 60.6207 87.0359 60.6052 87.8399 60.4777C87.8399 59.7867 88.1878 58.9025 86.9557 58.4986C87.0011 58.4541 87.0485 58.4087 87.0958 58.3633C88.0844 58.2763 89.073 58.1903 90.1031 58.0995C90.1311 58.2657 90.1727 58.4 90.1727 58.5353C90.1717 60.699 90.1621 62.8626 90.1611 65.0263C90.1601 65.5462 90.0026 66.1434 90.8675 66.3048C90.824 66.356 90.7805 66.4092 90.7361 66.4614Z" fill="white"/>
<path fill-rule="evenodd" clip-rule="evenodd" d="M55.4554 62.4555C55.497 62.8227 55.5018 63.2412 55.61 63.6316C55.6535 63.791 55.9125 63.9727 56.0855 63.9872C56.2159 63.9978 56.4807 63.762 56.4875 63.6258C56.5261 62.8498 56.5281 62.069 56.4817 61.293C56.4739 61.1519 56.184 60.9209 56.0265 60.9238C55.87 60.9258 55.6255 61.1442 55.5801 61.3114C55.4844 61.6621 55.4931 62.0419 55.4554 62.4555ZM56.1048 66.8041V66.7829C55.899 66.7829 55.6931 66.78 55.4873 66.7838C55.1481 66.7906 54.749 66.6872 54.6775 67.2071C54.607 67.7212 54.5915 68.2643 55.1607 68.4769C55.9396 68.7687 56.7687 68.7552 57.479 68.3C57.7177 68.1474 57.881 67.669 57.8462 67.3665C57.822 67.1549 57.4249 66.9056 57.1494 66.8264C56.8267 66.7326 56.4556 66.8041 56.1048 66.8041ZM57.9583 61.0611C57.9979 61.1248 58.0298 61.1964 58.079 61.2524C59.0348 62.3434 58.7362 63.6925 57.3427 64.1051C56.6227 64.3187 55.8081 64.2336 55.036 64.2423C54.7954 64.2452 54.4852 64.0771 54.4939 64.4617C54.4977 64.6086 54.8099 64.8559 54.9954 64.8714C55.6506 64.9226 56.3116 64.8917 56.9706 64.8927C57.1562 64.8936 57.3417 64.8898 57.5263 64.9014C58.2317 64.9487 58.9169 65.083 59.1846 65.8455C59.459 66.6282 59.2744 67.3549 58.7101 67.9637C58.1167 68.6035 57.3263 68.8828 56.4971 68.932C55.7047 68.9784 54.8968 68.9108 54.1073 68.8064C53.5836 68.7368 53.1033 68.4663 53.0762 67.8323C53.0492 67.2206 53.5062 66.9964 53.9894 66.8176C54.0822 66.7838 54.175 66.7529 54.2822 66.7152C53.1332 65.746 53.1245 65.2551 54.3083 63.9099C54.2243 63.8732 54.1112 63.8529 54.0387 63.7881C53.1091 62.958 53.2241 61.6196 54.3025 60.9799C55.1858 60.4561 56.1347 60.4658 57.1156 60.6823C57.39 60.7431 57.7118 60.6165 58.0066 60.5518C58.3979 60.4668 58.7855 60.2812 59.172 60.2909C59.3595 60.2957 59.66 60.6301 59.6861 60.8427C59.7122 61.0524 59.5044 61.4215 59.3141 61.493C59.1295 61.5616 58.8299 61.3539 58.5951 61.2389C58.4095 61.149 58.2453 61.0147 58.0713 60.9007C58.0336 60.9538 57.9959 61.0069 57.9583 61.0611Z" fill="white"/>
<path fill-rule="evenodd" clip-rule="evenodd" d="M76.5208 66.5309C77.0958 66.4101 77.2233 66.0362 77.1992 65.4902C77.1586 64.5654 77.1905 63.6377 77.1866 62.7109C77.1847 62.0625 77.3431 61.3542 76.458 61.0188C76.4908 60.9686 76.5237 60.9193 76.5575 60.869C77.4765 60.7724 78.3955 60.6758 79.359 60.5753C79.4063 60.8623 79.445 61.0952 79.5 61.4199C79.7416 61.2759 79.931 61.1261 80.1465 61.042C80.5824 60.87 81.023 60.6574 81.4801 60.5956C82.5083 60.4583 83.1519 61.0227 83.1819 62.0596C83.2128 63.1709 83.1906 64.2832 83.1925 65.3955C83.1935 66.1898 83.1944 66.1898 83.9134 66.6372H80.5969C80.6935 66.2275 80.8616 65.8052 80.8819 65.3771C80.9254 64.432 80.9071 63.483 80.8887 62.536C80.8752 61.8808 80.2335 61.5126 79.6759 61.8383C79.5696 61.9001 79.4972 62.104 79.4952 62.2432C79.4817 63.4589 79.4653 64.6746 79.5078 65.8883C79.5165 66.1367 79.7648 66.3773 79.9552 66.7097C79.1299 66.7097 78.2805 66.7261 77.432 66.701C77.1325 66.6913 76.8339 66.5812 76.5362 66.5155L76.5208 66.5309Z" fill="white"/>
<path fill-rule="evenodd" clip-rule="evenodd" d="M22.6988 63.5516V66.6284H16.0184C17.0891 66.2284 16.6977 65.3181 16.717 64.5894C16.7538 63.1679 16.7315 61.7445 16.7257 60.322C16.7238 59.7374 16.8639 59.0706 16 58.858C16.1276 58.8357 16.2542 58.7942 16.3817 58.7942C18.2159 58.7903 20.051 58.8019 21.8851 58.7836C22.3084 58.7797 22.4823 58.9121 22.4698 59.3431C22.4495 59.9954 22.464 60.6496 22.3432 61.3618C22.1731 61.039 22.004 60.7143 21.832 60.3925C21.2512 59.3054 20.8666 59.0735 19.7852 59.2223C19.6364 59.2435 19.3977 59.43 19.3938 59.547C19.361 60.4689 19.3764 61.3927 19.3764 62.3088C20.5515 62.6857 20.8463 61.8904 21.0772 61.0052C21.1236 61.04 21.169 61.0748 21.2154 61.1096V64.1091C20.8173 63.4269 20.6414 62.4489 19.3967 62.878C19.3967 63.8424 19.3832 64.8445 19.4122 65.8467C19.4161 65.9771 19.6113 66.1607 19.7582 66.2177C20.4433 66.4854 21.2396 66.211 21.629 65.5538C21.9914 64.9421 22.3016 64.3005 22.6988 63.5516Z" fill="white"/>
<path fill-rule="evenodd" clip-rule="evenodd" d="M37.8595 66.6225H34.6579C35.4436 66.2668 35.2107 65.5788 35.2194 64.9845C35.23 64.2017 35.2242 63.419 35.2213 62.6362C35.2174 61.9897 35.3914 61.2756 34.4115 60.9828C34.4695 60.9325 34.5284 60.8823 34.5874 60.8311C35.5112 60.7373 36.435 60.6436 37.3956 60.545C37.442 60.8417 37.4787 61.0717 37.5261 61.3761C37.7474 61.2485 37.9087 61.1278 38.0894 61.0572C38.5446 60.8784 38.9988 60.6368 39.4723 60.575C40.5855 60.4281 41.1934 60.9876 41.2166 62.1144C41.2378 63.1648 41.234 64.2153 41.2185 65.2657C41.2108 65.8049 41.1634 66.3383 41.8196 66.6147H38.2818C39.0838 66.2833 38.9273 65.7218 38.9302 65.2174C38.935 64.3109 38.9427 63.4045 38.9253 62.498C38.9128 61.8999 38.6635 61.7037 38.0682 61.7143C37.6594 61.7221 37.4884 61.8718 37.499 62.3077C37.5251 63.4199 37.4845 64.5332 37.5232 65.6435C37.5348 65.9547 37.729 66.2581 37.8595 66.6225Z" fill="white"/>
<path fill-rule="evenodd" clip-rule="evenodd" d="M49.9252 66.612C50.4934 66.3434 50.4122 65.8534 50.4093 65.3886C50.4035 64.4416 50.419 63.4945 50.4026 62.5475C50.391 61.8856 50.0528 61.6024 49.4053 61.7454C49.2372 61.7831 48.9994 62.0382 48.9946 62.1987C48.9608 63.4114 48.955 64.6281 48.9965 65.8418C49.0043 66.0892 49.2488 66.3298 49.4014 66.6033H46.1091C46.8474 66.3521 46.6947 65.7461 46.6976 65.2108C46.7024 64.3459 46.6898 63.481 46.7014 62.6161C46.7101 61.9696 46.7836 61.3096 45.9573 60.9946C45.9834 60.9424 46.0095 60.8902 46.0356 60.838C46.916 60.7482 47.7954 60.6293 48.6776 60.6032C48.8013 60.5993 48.9385 61.0477 49.0729 61.2922C49.4971 61.0951 49.9581 60.8158 50.4577 60.6602C51.8347 60.2302 52.6784 60.8689 52.6851 62.2992C52.689 63.2877 52.6832 64.2754 52.687 65.263C52.6899 65.7819 52.5344 66.3791 53.2843 66.612H49.9252Z" fill="white"/>
<path fill-rule="evenodd" clip-rule="evenodd" d="M65.1151 61.1928C65.0089 61.015 64.917 60.8265 64.7934 60.6613C64.4513 60.2032 64.1507 59.694 63.7323 59.3171C63.1979 58.8349 62.3146 58.9721 61.9745 59.491C61.5966 60.065 61.8276 60.7386 62.5717 61.1087C63.0317 61.3358 63.5265 61.4914 64.0009 61.6905C65.4089 62.279 65.9298 63.0066 65.8216 64.2223C65.7124 65.4505 64.8223 66.5377 63.5236 66.7097C62.564 66.8363 61.5648 66.6798 60.5849 66.6256C60.4467 66.6179 60.2109 66.4816 60.1993 66.385C60.1075 65.6255 60.0611 64.862 59.9993 64.1005L60.2119 64.0551C60.3742 64.3276 60.5163 64.6146 60.7028 64.8698C61.0284 65.3153 61.3261 65.8042 61.7339 66.1628C62.3678 66.7174 63.3515 66.5899 63.6994 65.9946C64.0869 65.3307 63.8067 64.5354 63.0133 64.1537C62.5321 63.9218 62.0131 63.771 61.5261 63.5507C60.4177 63.0463 59.9432 62.336 60.0022 61.2488C60.063 60.125 60.6525 59.3567 61.6894 58.9547C62.7302 58.5517 63.7932 58.6387 64.8455 58.9257C64.9808 58.9624 65.178 59.1035 65.1896 59.2127C65.2562 59.8515 65.2756 60.4941 65.3104 61.1367C65.2456 61.1551 65.1799 61.1735 65.1151 61.1928Z" fill="white"/>
<path fill-rule="evenodd" clip-rule="evenodd" d="M94.0294 63.964C93.524 63.8838 93.1954 64.0229 93.1317 64.4588C93.0602 64.9497 92.9123 65.513 93.4013 65.8735C93.6448 66.0523 93.9956 66.0242 94.0217 65.5981C94.0545 65.0579 94.0294 64.5129 94.0294 63.964ZM97.0638 66.5335C96.6666 66.6292 96.2743 66.7577 95.8723 66.8118C95.2103 66.9036 94.5909 66.8041 94.1406 66.1489C93.5666 66.7307 92.8814 66.9288 92.1016 66.8012C91.4048 66.6853 90.9651 66.289 90.8675 65.686C90.7525 64.9816 91.0086 64.423 91.6976 64.1341C92.3016 63.8819 92.9452 63.7176 93.5791 63.5456C93.9106 63.4567 94.0652 63.3001 94.041 62.9455C94.0072 62.4739 94.0584 61.9897 93.9695 61.5307C93.928 61.3133 93.6738 61.0263 93.4651 60.9741C93.0776 60.8774 93.0399 61.234 92.9954 61.5317C92.8582 62.4574 92.606 62.7068 91.8387 62.5831C91.5894 62.5425 91.227 62.3598 91.171 62.1675C91.0927 61.9008 91.1584 61.4882 91.3304 61.2698C92.0503 60.3566 95.1765 60.2947 95.939 61.1857C96.1689 61.4544 96.2926 61.8873 96.31 62.2516C96.3603 63.2586 96.3332 64.2684 96.3265 65.2773C96.3245 65.6918 96.3468 66.0629 96.8676 66.175C96.9517 66.1934 96.9923 66.4185 97.0532 66.549L97.0638 66.5335Z" fill="white"/>
<path fill-rule="evenodd" clip-rule="evenodd" d="M73.5302 63.9909C73.4539 63.9338 73.3775 63.8778 73.3002 63.8217C73.0702 64.0208 72.6653 64.2054 72.6479 64.4228C72.6093 64.8963 72.6817 65.424 72.875 65.8559C72.9948 66.1246 73.5031 65.9197 73.5225 65.5737C73.5515 65.048 73.5302 64.5185 73.5302 63.9909ZM76.5362 66.5155C76.2009 66.6082 75.8697 66.7324 75.5286 66.7904C74.8067 66.9122 74.1226 66.8571 73.6123 66.1565C73.0122 66.7575 72.301 66.9421 71.5008 66.7856C70.9056 66.6696 70.4755 66.3536 70.3567 65.7274C70.2224 65.0307 70.4523 64.4624 71.0901 64.1822C71.7067 63.9107 72.3696 63.7319 73.0248 63.5579C73.4094 63.4555 73.5785 63.2748 73.5399 62.8709C73.4964 62.4205 73.5447 61.9557 73.4461 61.5199C73.3968 61.3025 73.1118 61.1372 72.9349 60.9488C72.7803 61.1478 72.5271 61.3295 72.4875 61.5489C72.328 62.435 72.072 62.7153 71.3027 62.5809C71.0563 62.5384 70.6988 62.3432 70.6485 62.15C70.576 61.8794 70.6485 61.4677 70.8254 61.2522C71.5685 60.3458 74.7024 60.311 75.4378 61.2058C75.6629 61.4812 75.777 61.9132 75.7963 62.2804C75.8456 63.2468 75.8147 64.217 75.8118 65.1853C75.8108 65.6288 75.7828 66.0724 76.3819 66.1874C76.4486 66.2 76.4756 66.4116 76.522 66.5304C76.5211 66.5304 76.5362 66.5155 76.5362 66.5155Z" fill="white"/>
<path fill-rule="evenodd" clip-rule="evenodd" d="M30.9114 62.9227C32.5223 63.0406 32.8074 62.7197 32.3629 61.4151C32.2924 61.2074 32.0218 60.9262 31.8498 60.93C31.6256 60.9349 31.2806 61.1484 31.212 61.3485C31.0458 61.8336 31.009 62.3631 30.9114 62.9227ZM31.0371 63.2937C30.8322 65.411 31.7193 65.9473 34.4319 65.4323C34.3749 65.5608 34.3546 65.6739 34.2889 65.7502C33.2326 66.9939 30.7636 67.1737 29.5672 66.0971C28.1312 64.8051 28.5091 61.9399 30.2553 60.9696C31.212 60.4381 32.2228 60.4005 33.2365 60.7773C34.1768 61.1281 34.6812 62.022 34.6619 63.2937H31.0371Z" fill="white"/>
<path fill-rule="evenodd" clip-rule="evenodd" d="M97.0532 66.549C97.6011 66.4011 97.742 66.0395 97.716 65.4916C97.6705 64.5475 97.7034 63.5995 97.7034 62.6525C97.7034 61.6426 97.7024 61.6426 96.995 60.8782C97.9952 60.7729 98.9123 60.6763 99.8796 60.5738C99.9163 60.8599 99.9453 61.0957 99.9878 61.4252C100.158 61.3005 100.281 61.1788 100.429 61.1073C100.812 60.9217 101.191 60.6879 101.599 60.6057C102.062 60.512 102.467 60.7352 102.594 61.23C102.724 61.7238 102.64 62.2079 102.146 62.4582C101.69 62.6882 101.24 62.6409 100.862 62.2157C100.709 62.0417 100.471 61.9422 100.271 61.8088C100.182 62.0533 100.025 62.2959 100.017 62.5433C99.9879 63.5096 100.026 64.4779 99.9975 65.4433C99.982 65.9767 100.007 66.4377 100.874 66.5411C100.572 66.6426 100.475 66.7034 100.376 66.7034C99.409 66.7112 98.4417 66.716 97.4753 66.7015C97.3371 66.6986 97.201 66.5915 97.0638 66.5335L97.0532 66.549Z" fill="white"/>
<path fill-rule="evenodd" clip-rule="evenodd" d="M70.198 65.8401C69.6974 66.6905 68.6431 67.0277 67.5395 66.7659C66.808 66.5909 66.4601 66.1049 66.4369 65.1289C66.4128 64.0804 66.4495 63.0299 66.4137 61.9824C66.405 61.7166 66.2234 61.4577 66.1393 61.2441C66.7201 60.6527 67.3753 59.9695 68.0546 59.3114C68.1648 59.2032 68.3899 59.151 68.5446 59.1761C68.6238 59.1896 68.675 59.4293 68.7195 59.5733C68.7417 59.6477 68.7233 59.7366 68.7243 59.8187C68.7272 60.8373 68.6615 60.7029 69.6095 60.7368C69.7911 60.7426 69.967 60.9242 70.1439 61.0247C69.9632 61.132 69.7825 61.3291 69.5988 61.334C68.6499 61.361 68.7282 61.2518 68.7243 62.2655C68.7224 63.1285 68.7214 63.9924 68.7253 64.8563C68.7282 65.8053 68.849 65.9135 69.8153 65.8585C69.9129 65.8527 70.0124 65.8488 70.198 65.8401Z" fill="white"/>
<path fill-rule="evenodd" clip-rule="evenodd" d="M27.7029 60.7511H29.3544C29.0529 61.3107 28.705 61.8499 28.4585 62.4336C27.9377 63.6666 27.4593 64.9181 26.9878 66.1705C26.8534 66.528 26.6756 66.6865 26.2736 66.6817C25.8764 66.6778 25.6339 66.5889 25.4706 66.1917C24.8888 64.7828 24.2858 63.3825 23.6577 61.9929C23.4635 61.5619 23.1658 61.1773 22.9088 60.7608H26.722C25.9344 61.3561 25.9325 61.3609 26.2997 62.3215C26.5674 63.0221 26.838 63.7208 27.1076 64.4204C27.1636 64.4214 27.2187 64.4223 27.2748 64.4233C27.5772 63.4956 27.9242 62.5785 28.1503 61.6325C28.2063 61.3957 27.872 61.0652 27.7029 60.7511Z" fill="white"/>
<path fill-rule="evenodd" clip-rule="evenodd" d="M45.84 66.6187H42.2287C42.9003 66.3491 42.8124 65.7973 42.8056 65.2706C42.7959 64.3864 42.8056 63.5022 42.8017 62.618C42.7998 61.9879 42.9641 61.2912 42.0306 61.0109C42.075 60.9539 42.1175 60.8969 42.162 60.8399C43.1168 60.7413 44.0715 60.6427 45.1103 60.5364C45.1103 60.9317 45.1103 61.2525 45.1103 61.5724C45.1084 62.8682 45.1055 64.1641 45.1065 65.46C45.1065 66.1722 45.1084 66.1722 45.84 66.6187Z" fill="white"/>
<path fill-rule="evenodd" clip-rule="evenodd" d="M43.8902 60.1198C43.2476 60.115 42.7914 59.7091 42.7798 59.1332C42.7682 58.5476 43.2688 58.0944 43.9192 58.1021C44.5599 58.1088 45.0073 58.5166 45.015 59.0994C45.0228 59.7217 44.5773 60.1256 43.8902 60.1198Z" fill="white"/>
</svg>
