<svg width="128" height="128" viewBox="0 0 128 128" fill="none" xmlns="http://www.w3.org/2000/svg">
<rect width="128" height="128" fill="#E41C29"/>
<path fill-rule="evenodd" clip-rule="evenodd" d="M90.4822 81.7783C90.4822 81.7783 86.7208 82.4912 81.8629 83.5302C81.9391 83.553 82.0076 83.5833 82.0761 83.6212C82.1523 83.6667 82.2284 83.7122 82.297 83.7729C82.3655 83.826 82.4264 83.8867 82.4949 83.9549C82.5482 84.0383 82.6015 84.1066 82.6396 84.1824C82.6929 84.2583 82.7234 84.3417 82.7538 84.4251C82.769 84.501 82.8071 84.5768 82.8147 84.6602C82.8147 84.6982 82.8223 84.7361 82.8223 84.7664V84.8726C82.8223 84.9333 82.8223 85.0015 82.8147 85.0622C82.7995 85.1077 82.7843 85.1532 82.769 85.1835C82.7462 85.2518 82.731 85.2973 82.731 85.2973L82.6091 85.2897C82.6091 85.2897 82.5939 85.2518 82.5787 85.1759C82.5711 85.138 82.5558 85.1001 82.5406 85.0698C82.533 85.0243 82.5178 84.9788 82.4949 84.9257C82.4721 84.8726 82.4416 84.8195 82.4188 84.7664C82.3959 84.7133 82.3579 84.6602 82.335 84.5996C82.297 84.5465 82.2665 84.4858 82.236 84.4403C82.1904 84.3796 82.1523 84.3265 82.1066 84.2735C82.0685 84.2204 82.0228 84.1673 81.9695 84.1294C81.9315 84.0839 81.8782 84.0459 81.8325 83.9928C81.7792 83.9625 81.7411 83.9094 81.6726 83.8791C81.6269 83.8412 81.5888 83.8184 81.5355 83.7957C81.4898 83.7577 81.4442 83.735 81.4061 83.7122C81.3604 83.6895 81.3223 83.6667 81.2995 83.6591C81.2995 83.6591 81.2919 83.6591 81.2919 83.6516H81.2843C80.9569 83.735 80.6066 83.8108 80.264 83.8791C80.2868 83.8867 80.3173 83.8943 80.3401 83.9094C80.4239 83.9322 80.4924 83.9625 80.5761 84.008C80.6447 84.0459 80.7208 84.099 80.7893 84.1521C80.8579 84.2052 80.9188 84.2734 80.9797 84.3417C81.0406 84.4175 81.0939 84.4782 81.1396 84.5616C81.1777 84.6375 81.2157 84.7209 81.2462 84.7967C81.269 84.8802 81.2919 84.9636 81.2995 85.0394C81.2995 85.0774 81.3071 85.1077 81.3147 85.1456V85.2518C81.3223 85.32 81.3071 85.3883 81.2995 85.4414C81.2843 85.4945 81.2843 85.54 81.2614 85.5703C81.2462 85.6386 81.2233 85.6765 81.2233 85.6765H81.1015C81.1015 85.6765 81.0863 85.631 81.0711 85.5627C81.0634 85.5248 81.0482 85.4793 81.033 85.4414C81.0178 85.4035 81.0025 85.358 80.9797 85.3049C80.9645 85.2594 80.9416 85.1987 80.9112 85.1456C80.8883 85.0925 80.8502 85.0394 80.8274 84.9864C80.7893 84.9333 80.7665 84.8726 80.7208 84.8119C80.6903 84.7664 80.6447 84.7133 80.6066 84.6602C80.5609 84.6071 80.5076 84.5541 80.4695 84.5086C80.4239 84.4631 80.3706 84.4251 80.3249 84.3796C80.2716 84.3417 80.2259 84.2886 80.1726 84.2659C80.1269 84.2279 80.0736 84.1976 80.0279 84.1673C79.9822 84.1445 79.9365 84.1218 79.8985 84.099C79.8528 84.0763 79.8223 84.0535 79.7919 84.0383C79.7538 84.0232 79.7157 84.0004 79.7157 84.0004H79.7081C79.6929 84.0004 76.9518 81.657 76.9518 81.657L77.0508 80.9592L76.769 79.3135L77.0431 78.6006L77.0355 76.2571L74.0203 78.9495L73.9442 78.866L82.8071 68.4835L82.7233 68.3091L80.1497 67.8389V67.7251H84.7944C85.2665 68.3318 86.302 68.4911 87.0482 68.2863L87.0787 68.1802L86.1497 66.6937C86.1497 66.6937 86.3553 66.5344 86.5228 66.4358C86.9035 66.2083 87.231 66.2993 87.5964 66.8226C87.9467 67.3307 88.1066 67.9678 87.7107 68.3622L87.7716 68.4759C88.0761 68.4304 88.8071 68.2636 89.3096 67.5962C89.835 66.9136 89.7513 65.867 89.0964 65.1162C88.5482 64.4867 87.5584 63.5008 87.5584 63.5008C87.6574 62.3329 87.0482 61.2939 85.8985 60.8312C83.401 59.8301 81.4975 59.1172 81.4975 59.1172L75.467 59.1097L75.4518 58.9732L81.4518 58.2678L83.2487 56.6904C83.2487 56.6904 89.8046 54.089 90.0635 53.9753C90.5203 53.7857 90.8249 53.4747 91.0076 53.0045C91.8832 50.5852 94.6091 43.3425 94.6091 43.3425L103 32.0575L102.931 31.9589L97.4264 35.8722L97.3503 35.7888L99.6802 31.1246L99.5812 31.0639L95.9721 36.2287L95.8579 36.1907L96.2843 31.026L96.1624 30.9957L94.8452 36.2438H94.7233L92.5914 30.9881L92.4772 31.0336L94.0304 37.2904L93.8477 40.2406L93.7335 40.2482L93.3909 37.6696L89.6751 31.3673L89.5685 31.428L92.5609 38.0792L92.7893 42.9784L92.6675 42.9936L92.0127 38.4053L87.1548 32.2622L87.0482 32.3381L91.2589 38.7617L91.533 45.5115L91.4112 45.5191L90.5584 39.1333L85.1447 33.4984L85.0609 33.5818L89.6599 39.5656L90.2005 47.3165L90.0787 47.3241L88.8376 39.9448L83.203 35.1517L83.1269 35.2503L87.9772 40.4833L88.8147 48.583L88.7005 48.5982L87.0482 40.9838L81.3528 37.116L81.2843 37.2146L86.1497 41.5147L87.4822 49.5159L87.3528 49.5462L85.236 42.0684L79.8223 39.1182L79.7538 39.2244L84.4061 42.5917L85.9213 50.3501L85.7995 50.3805L83.3782 43.2742L78.2919 41.3479L78.231 41.4692L82.5102 43.8809L84.269 50.972L84.1472 51.0023L81.4594 44.6469L76.6396 43.7824L76.6167 43.9037L80.6066 45.3295L82.6396 51.5105L82.5406 51.5636L79.4645 46.2927L75.4137 45.959L75.3909 46.0803L78.566 47.1193L80.9492 52.1096L80.8503 52.1779L77.5305 48.1659L73.8604 48.3859L73.8452 48.5072L76.7538 49.0532L79.4188 52.9287L79.335 53.0121L75.8629 50.1757L71.9569 51.0478L71.9721 51.1768L75.1853 51.1844L78.132 53.9449L78.0711 54.0511L74.4848 52.3826L70.4035 53.0197V53.1486L74.0584 53.3003L77.1421 55.2418L77.0964 55.3556L73.6929 54.2028L68.203 55.2342L68.2183 55.3556L73.3579 55.2418L76.5101 56.6752L76.4721 56.7965L73.1751 56.0154L64.8756 57.4033L64.8832 57.5246L71.3858 58.0176L71.401 58.1389L66.1853 59.0566L66.2005 59.1779L69.7487 59.3827L69.7563 59.5116L65.6675 60.5658L65.6904 60.5582L65.6827 60.5658H65.6675L67.4035 62.8182L67.3122 62.9168L63.3376 59.5799L53.1345 45.4433L43.8223 40.7032L36.4442 34.09L34.2132 28L34.099 28.0379L34.9137 34.9015L38.4924 40.635L38.3934 40.7108L33.1929 36.4107L30.7107 31.6403L30.5736 31.6707L31.4492 37.2677L33.9848 41.856L33.901 41.947L29.7513 38.5797L27.6117 35.3793L27.4975 35.4323L28.4797 39.7628L31.1371 43.6383L31.0457 43.7217L26.934 41.363L25.1218 39.0878L25 39.1409L26.1802 42.5158L28.0761 44.8972L28.0228 44.9882L26.1193 44.6318L26.066 44.7455L30.1168 48.5224L30.0711 48.6361L26.5609 48.4389L26.5305 48.6058L31.5406 51.6925L31.5178 51.8062L29.1954 51.9958L29.1878 52.1172L34.9898 54.3241L34.9975 54.4379L32.7284 55.2266L32.7437 55.3556L46.769 56.3718L46.7614 56.4932L38.9569 56.5463L38.8046 58.1465L48.6041 57.9872V58.1086L41.5914 58.8594L41.2868 60.7478L50.8122 59.4509L50.8274 59.5647L43.3883 61.2635L43.2741 63.4553L53.066 60.7933L53.1041 60.9147L45.0406 64.0544L45.0863 66.0566L54.9619 61.9537L55.0152 62.0599L47.0279 66.3448L47.3173 68.4001L56.9873 63.4856L57.0482 63.5918L49.1447 68.5897L49.5863 70.3264L58.9289 65.2224L58.9898 65.321L51.7411 70.1444L52.4416 71.9949L60.132 67.4066L60.2157 67.5203L55.1599 71.2441L56.0431 73.0036L59.7817 70.7208L59.8503 70.8118L58.4492 72.0404L59.1421 73.4359C59.3401 73.36 59.6294 73.2615 59.9721 73.1401C60.3147 73.0188 60.7107 72.8747 61.1447 72.723C61.3579 72.6396 61.5863 72.5637 61.7919 72.4803C61.9061 72.4424 61.9975 72.3893 62.1117 72.3362C62.2183 72.2907 62.3173 72.23 62.4162 72.1693C62.6142 72.048 62.8046 71.9191 62.9797 71.7674L63.1091 71.6536L63.2386 71.5323C63.3223 71.464 63.3909 71.373 63.467 71.2972C63.5431 71.2062 63.5964 71.1228 63.6726 71.0393C63.7335 70.9559 63.7868 70.8725 63.8477 70.7815C63.901 70.698 63.9543 70.607 64 70.5312C64.0457 70.4478 64.0914 70.3643 64.1294 70.2809C64.198 70.1217 64.2665 69.97 64.3122 69.8259C64.3655 69.697 64.3959 69.5756 64.4264 69.4694C64.4569 69.3784 64.4721 69.2874 64.4797 69.2343C64.4949 69.1737 64.5025 69.1433 64.5025 69.1433L64.6244 69.1661C64.6244 69.1661 64.6244 69.204 64.6244 69.2571C64.6091 69.3178 64.6015 69.3936 64.5787 69.4998C64.5558 69.606 64.533 69.7425 64.4949 69.8866C64.4568 70.0382 64.4036 70.1975 64.335 70.3795C64.3046 70.4629 64.2665 70.554 64.2208 70.645C64.1827 70.7284 64.1371 70.827 64.0914 70.9256C64.0305 71.0166 63.9772 71.1152 63.9239 71.2062C63.8553 71.3048 63.7944 71.4034 63.7259 71.502C63.6497 71.593 63.5812 71.6916 63.4975 71.7826C63.4594 71.8281 63.4137 71.8736 63.3756 71.9191L63.2462 72.048C63.0711 72.23 62.8731 72.3893 62.6675 72.5486C62.5609 72.6168 62.4543 72.6926 62.3477 72.7533C62.2335 72.814 62.1269 72.8898 62.0127 72.9353C61.7766 73.0567 61.5635 73.1401 61.3503 73.2387C60.9315 73.4131 60.2081 73.7317 60.2081 73.7317L49.4112 77.7512L42.3604 88.7632L42.7792 89.0438L50.6523 79.9354L50.7437 80.0112L46.0685 86.8672L48.9467 86.4197L53.2716 80.0491L53.3706 80.1098L50.2107 86.2984L52.9213 86.1164L55.8528 80.1477L55.967 80.2008L53.9797 86.0557L56.7208 85.8737L58.4416 80.2615L58.5634 80.2918L57.6041 85.7751L60.4061 85.2366L61.0076 80.1857L61.1294 80.2008V84.9939L63.2005 83.8336L62.9035 80.2084L63.0178 80.1857L63.7487 83.5075L64.4873 83.917L65.0355 85.4111L65.8579 85.6917L67.5025 87.0113L68.1421 87.5194L68.1193 87.5498L68.0888 87.618L67.0076 87.1478C60.33 88.9755 55.099 90.6137 55.099 90.6137C55.099 90.6137 55.099 90.6213 55.1066 90.6213C56.1421 91.2128 57.6421 92.0622 59.1345 92.9268C59.8198 93.3136 60.4898 93.6928 61.1218 94.0568C61.4416 94.2389 61.7462 94.4057 62.0355 94.5726C62.1117 94.6105 62.1802 94.656 62.2563 94.6939C62.2868 94.7167 62.3249 94.7394 62.3553 94.7546L62.4086 94.7849L62.4315 94.8001L62.4467 94.8152L62.4772 94.8304C62.599 94.8987 62.7437 95.02 62.8503 95.1262C63.0711 95.3537 63.2233 95.6116 63.2919 95.8542C63.3604 96.1045 63.3528 96.3321 63.3376 96.5065C63.3147 96.6809 63.269 96.8174 63.2386 96.9084C63.2005 96.9919 63.1777 97.0449 63.1777 97.0449L63.0406 96.9843C63.0406 96.9843 63.0482 96.9388 63.0787 96.8629C63.1015 96.7795 63.1396 96.6506 63.1472 96.4837C63.1548 96.332 63.1396 96.1424 63.0634 95.9301C62.9873 95.7253 62.8503 95.5206 62.6447 95.3461C62.5381 95.2551 62.4391 95.1944 62.2944 95.111L62.2716 95.0959H62.264H62.2563V95.0883L62.203 95.0655C62.165 95.0504 62.1269 95.0352 62.0888 95.02C62.0127 94.9821 61.9365 94.9518 61.868 94.9138C61.5634 94.7849 61.236 94.6408 60.901 94.5043C60.2234 94.2085 59.5152 93.8976 58.8071 93.5866C58.3503 93.3819 57.901 93.1923 57.467 92.9951C56.4619 93.3136 54.9467 93.799 54.368 93.981C53.0431 94.4057 53.1421 96.15 54.3832 96.6127C56.5228 97.4241 57.4975 97.773 60.0254 98.6679C61.6091 99.2291 62.7208 99.0395 64.1447 98.3949C65.1574 97.9399 66.9772 97.1056 69.0787 96.1576C72.5888 94.2995 77.5305 90.3407 77.5305 90.3407L77.6218 90.4317L73.7538 94.072C76.3731 92.9117 78.9162 91.8044 80.6066 91.1294C83.7132 89.5823 86.3401 87.6863 86.3401 87.6863L86.4239 87.7697L83.7741 90.1662C86.7741 89.5823 91.7005 89.1348 94.3579 89.1348C97.8909 89.1348 97.967 86.086 96.1015 85.0622C95.0812 84.4934 95.3934 84.6678 90.4822 81.7783Z" fill="white"/>
</svg>
