<svg width="128" height="128" viewBox="0 0 128 128" fill="none" xmlns="http://www.w3.org/2000/svg">
<rect width="128" height="128" fill="#E31211"/>
<path fill-rule="evenodd" clip-rule="evenodd" d="M16 76H112V52H16V76Z" fill="#E31211"/>
<path fill-rule="evenodd" clip-rule="evenodd" d="M31.0384 63.6479C31.2939 62.8313 31.4985 62.2031 31.6878 61.5688C32.2638 59.6393 32.846 57.7109 33.3997 55.7754C33.533 55.3111 33.7203 55.0708 34.2556 55.0779C36.2698 55.1064 38.284 55.1034 40.2982 55.08C40.8387 55.0749 41.027 55.248 41.0249 55.7998C41.0086 61.2857 41.0097 66.7717 41.0249 72.2576C41.0259 72.7962 40.8611 73.0049 40.3064 72.9927C39.0769 72.9622 37.8444 72.9581 36.6149 72.9937C36.0042 73.012 35.8607 72.7575 35.8648 72.1985C35.8841 69.4006 35.8729 66.6016 35.8729 63.8027V62.9922L35.6887 62.9688C35.3976 64.1387 35.1035 65.3085 34.8164 66.4805C34.3462 68.4099 33.8679 70.3373 33.4211 72.2729C33.301 72.7962 33.0659 73.0182 32.5091 72.9947C31.588 72.955 30.6608 72.9489 29.7407 72.9958C29.1016 73.0283 28.8135 72.8257 28.6466 72.1741C27.9047 69.2743 27.1006 66.3909 26.3159 63.5033C26.2528 63.2742 26.1673 63.0512 25.9393 62.8425V63.6336C25.9393 66.4601 25.9251 69.2865 25.9495 72.113C25.9556 72.7422 25.809 73.0283 25.1149 72.9978C23.9984 72.9469 22.8768 72.9662 21.7583 72.9907C21.2433 73.0019 20.998 72.8654 21 72.2891C21.0153 66.7757 21.0132 61.2623 21.002 55.7479C21.001 55.2235 21.2178 55.0789 21.7064 55.083C23.7206 55.0993 25.7347 55.1064 27.7489 55.0789C28.2904 55.0708 28.4644 55.3325 28.5998 55.7866C29.3 58.1457 30.0237 60.4987 30.7433 62.8537C30.8054 63.0553 30.8898 63.2518 31.0384 63.6479Z" fill="white"/>
<path fill-rule="evenodd" clip-rule="evenodd" d="M68.8748 62.4001C69.2381 61.9185 69.4448 61.6335 69.6636 61.3585C70.8625 59.8618 72.5001 59.5798 74.2731 59.7396C74.437 59.7539 74.7026 60.0451 74.7067 60.2131C74.7433 61.6111 74.7484 63.01 74.7036 64.407C74.6975 64.5688 74.3403 64.8326 74.1255 64.855C73.4894 64.9222 72.837 64.8315 72.204 64.912C70.5155 65.1258 69.5811 66.2163 69.5669 67.9268C69.5537 69.3532 69.5353 70.7797 69.5628 72.2062C69.574 72.7713 69.4183 73.0065 68.8117 72.9942C67.1354 72.9617 65.4581 72.9667 63.7808 72.9922C63.2373 73.0014 63.0439 72.8161 63.0459 72.2703C63.0622 68.4399 63.0643 64.6075 63.0439 60.7761C63.0409 60.1744 63.2688 60.0125 63.8347 60.0247C65.2596 60.0553 66.6866 60.0563 68.1115 60.0247C68.6906 60.0125 68.9338 60.1988 68.8819 60.7914C68.8443 61.2343 68.8748 61.6833 68.8748 62.4001Z" fill="white"/>
<path fill-rule="evenodd" clip-rule="evenodd" d="M56.0994 62.1893C56.2938 61.9296 56.4852 61.6669 56.6857 61.4104C57.8877 59.8719 59.5446 59.5736 61.3502 59.7416C61.511 59.7569 61.7695 60.0531 61.7736 60.2232C61.8061 61.728 61.7919 63.2349 61.7919 64.8457H60.1828C57.7116 64.8457 56.6348 65.9076 56.6327 68.3482C56.6317 69.6627 56.6185 70.9761 56.6389 72.2896C56.646 72.7813 56.4882 72.9962 55.9681 72.9901C54.2359 72.9697 52.5036 72.9728 50.7713 72.988C50.3113 72.9921 50.1179 72.8312 50.1199 72.3588C50.1291 68.4459 50.1271 64.5321 50.121 60.6182C50.1199 60.1865 50.3052 60.0277 50.7276 60.0318C52.2644 60.044 53.8013 60.047 55.3381 60.0307C55.8338 60.0256 55.9641 60.2619 55.9468 60.7027C55.9284 61.1752 55.9427 61.6496 55.9427 62.1241L56.0994 62.1893Z" fill="white"/>
<path fill-rule="evenodd" clip-rule="evenodd" d="M101.292 62.2101C101.467 61.9729 101.642 61.7357 101.818 61.4995C103.01 59.907 104.683 59.5649 106.524 59.7462C106.698 59.7625 106.963 60.1494 106.971 60.3703C107.014 61.6552 106.977 62.9422 107 64.2282C107.009 64.7383 106.839 64.9165 106.317 64.8839C105.679 64.8452 105.026 64.837 104.395 64.9246C102.79 65.1476 101.864 66.2167 101.836 67.8356C101.812 69.2895 101.803 70.7445 101.825 72.1974C101.834 72.7503 101.699 73.0069 101.083 72.9946C99.407 72.9621 97.7307 72.9672 96.0544 72.9916C95.5139 72.9997 95.3195 72.8175 95.3226 72.2677C95.3389 68.4383 95.3409 64.6079 95.3206 60.7786C95.3165 60.1728 95.5475 60.015 96.1094 60.0251C97.5353 60.0537 98.9612 60.0577 100.385 60.0241C100.974 60.0109 101.194 60.2145 101.144 60.7969C101.106 61.2408 101.137 61.6899 101.137 62.1358C101.188 62.1613 101.24 62.1857 101.292 62.2101Z" fill="white"/>
<path fill-rule="evenodd" clip-rule="evenodd" d="M42.3145 66.4977C42.3145 64.6242 42.3338 62.7498 42.3033 60.8763C42.2931 60.2838 42.4285 60.017 43.088 60.0323C44.7358 60.072 46.3856 60.0628 48.0355 60.0363C48.5912 60.0282 48.8375 60.1738 48.8344 60.7837C48.8141 64.6151 48.8161 68.4465 48.8314 72.2778C48.8334 72.8348 48.6166 72.9997 48.0853 72.9916C46.408 72.9682 44.7307 72.9621 43.0544 72.9946C42.4448 73.0069 42.2972 72.7625 42.3053 72.2025C42.3308 70.3006 42.3145 68.3986 42.3145 66.4977Z" fill="white"/>
<path fill-rule="evenodd" clip-rule="evenodd" d="M45.5438 59.258C44.6767 59.258 43.8095 59.2428 42.9424 59.2631C42.4701 59.2754 42.2991 59.0829 42.3093 58.6176C42.3307 57.6106 42.3276 56.6026 42.3103 55.5957C42.3032 55.164 42.4711 54.997 42.9027 55C44.693 55.0133 46.4832 54.9899 48.2725 55.0306C48.4588 55.0347 48.7865 55.3645 48.7956 55.556C48.8486 56.5884 48.8089 57.6259 48.8262 58.6614C48.8343 59.1593 48.5809 59.2723 48.1453 59.2631C47.2791 59.2458 46.411 59.258 45.5438 59.258Z" fill="white"/>
<path fill-rule="evenodd" clip-rule="evenodd" d="M79.2543 71.7068C81.0211 72.6374 82.9336 72.9927 84.9213 72.9876C86.9955 73.0019 88.9914 72.6333 90.8173 71.6212C92.9638 70.431 94.1709 68.6074 94.178 66.1149C94.1852 63.655 93.0422 61.7755 90.8865 60.6697C87.0027 58.6782 83.0221 58.6792 79.1219 60.6158C76.8808 61.7297 75.7398 63.6652 75.7724 66.1913C75.806 68.7174 77.0477 70.544 79.2543 71.7068ZM81.9584 65.5199C81.943 65.642 81.9293 65.7512 81.9136 65.841C81.9253 66.033 81.9332 66.1924 81.9401 66.331C81.9518 66.5665 81.9606 66.7422 81.9798 66.9172C82.1457 68.3895 83.1044 69.319 84.4886 69.3577C85.9298 69.3974 87.0056 68.5249 87.1532 67.0159C87.2356 66.1729 87.1786 65.2779 86.9822 64.4542C86.7318 63.3984 85.7629 62.8007 84.6352 62.7844C83.4606 62.7671 82.5141 63.3637 82.1701 64.4288C82.0484 64.8056 81.998 65.2057 81.9584 65.5199Z" fill="white"/>
</svg>
