<svg width="128" height="128" viewBox="0 0 128 128" fill="none" xmlns="http://www.w3.org/2000/svg">
<rect width="128" height="128" fill="#222222"/>
<path d="M57.5265 61.5964C57.4072 61.6133 57.2904 61.6447 57.1789 61.6899C55.5449 62.5868 54.8334 62.7548 52.7804 62.6818L53.4801 62.0346C52.9037 61.63 52.3868 61.833 51.9649 62.0478C50.4423 62.8205 48.8232 62.7943 47.106 62.7241L47.8918 62.2362L47.8428 62.1237L44.1766 62.9111L44.0786 62.6628L44.9283 61.8944L44.8184 61.6606L43.4621 61.9981C43.2274 61.2195 44.0831 61.1742 44.502 60.7432L41.4909 61.7103L41.3795 61.5058L42.048 61.1581L41.8786 60.9025H38.5898C39.3177 60.172 40.0381 59.5877 41.1151 59.9602C41.3305 60.0362 41.7464 60.2246 41.7227 59.6608C41.7227 59.6169 42.0034 59.5804 42.1326 59.5044C42.343 59.3604 42.5453 59.2053 42.7387 59.0399C43.8498 59.3832 44.9491 60.4218 46.4078 60.4671L46.491 60.2363L44.45 59.6812C45.111 59.243 44.502 59.0662 44.1395 58.7463C44.3972 58.7429 44.6545 58.7263 44.9105 58.6966C45.16 58.6528 45.4036 58.5739 45.6532 58.5111C45.5626 58.3022 45.4705 58.0947 45.3665 57.8566C46.188 57.7412 47.1253 58.4935 47.9289 57.3526C47.8977 57.8069 47.8249 58.0275 47.8814 58.2116C47.9765 58.5603 48.1269 58.8921 48.327 59.1947C48.382 59.2736 48.8945 59.1947 48.9078 59.1217C48.9488 58.8284 48.9583 58.5317 48.9361 58.2364L49.8689 57.7573L49.1589 56.6806C50.6339 55.9239 52.4017 57.0868 53.9391 56.3987C53.9124 56.9304 53.8381 57.4403 53.8871 57.937C53.9035 58.102 54.2392 58.2364 54.4293 58.3854C54.4991 58.1108 54.6492 57.8274 54.615 57.5659C54.5897 57.3731 54.3253 57.208 54.0921 56.9465C56.0901 57.2255 57.1091 55.3659 58.853 55.0781C58.5173 55.4857 58.1875 55.8407 57.9142 56.2336C57.7051 56.501 57.5594 56.8109 57.4879 57.1408C57.4507 57.4038 57.6275 57.6945 57.7092 57.9735L58.4609 57.4812C58.8619 59.0954 60.3311 59.744 61.7363 60.4029L61.2907 59.221C61.0604 59.335 60.7589 59.5979 60.6148 59.5307C60.3563 59.4124 60.1558 59.1173 59.9939 58.8588C59.673 58.3402 59.3759 57.7982 59.0937 57.2913C59.2422 57.116 59.4264 56.9027 59.6879 56.593L60.5672 56.6412C60.5346 56.406 60.5063 56.2029 60.4766 55.9999C60.7737 55.7238 61.3783 56.3227 61.7244 57.2387C62.4285 57.0093 62.5815 55.9619 61.9888 54.9276C62.3676 54.7479 62.7316 54.5215 63.1208 54.4134C63.4179 54.3301 63.764 54.3973 64.171 54.3973C64.1799 54.3433 64.2066 54.1768 64.2319 54.0102H64.3091C64.3329 54.1855 64.3567 54.3608 64.3938 54.6457C64.471 54.4207 64.5067 54.3141 64.5691 54.13C64.6642 54.5025 64.7429 54.8108 64.8276 55.1351L65.4425 55.0226C65.5213 54.672 65.5911 54.3331 65.6743 54L65.799 54.0088V55.2052L65.8748 55.1964C65.9535 54.8502 66.0323 54.5055 66.1422 54.0278C66.2402 54.577 66.1882 55.0869 66.4244 55.3425C66.5953 55.528 67.1479 55.3776 67.6499 55.3776C66.7676 56.0028 67.7495 56.5988 67.6113 57.2445C67.5694 57.5269 67.6101 57.8152 67.7287 58.0757C67.8772 57.62 68.0748 57.1744 68.158 56.7084C68.2753 56.0393 68.2397 56.0379 68.9007 55.9999C68.9304 55.9999 68.9512 55.826 68.9779 55.7223L70.7694 56.7288L70.0831 58.793L70.3802 58.926C70.7248 58.3927 71.071 57.861 71.4067 57.3424C71.5433 57.5528 71.6934 57.7807 71.8761 58.0655C72.4079 56.8968 72.2994 56.3023 71.5166 55.1307C72.0959 55.4229 72.7183 55.6668 73.2472 56.0364C74.4073 56.8501 74.388 56.8764 75.4872 56.8004C75.5258 57.2454 75.5902 57.6877 75.6804 58.1254C75.6893 58.1634 76.2329 58.1911 76.3815 58.0626C76.9757 57.5498 76.585 57.0196 76.2329 56.479C77.506 56.9933 77.3857 58.2788 75.9789 59.5585C76.8702 59.6491 77.3634 59.0311 77.8892 58.5943C78.4151 58.1575 78.8429 57.5498 79.2262 56.8545L77.4882 57.972C77.5179 57.6652 77.5461 57.3512 77.5847 56.9494L80.2125 56.7376C80.2214 56.799 80.2303 56.8589 80.2407 56.9202C79.9763 57.0663 79.6718 57.1802 79.4623 57.3848C79.3405 57.5031 79.3702 57.7719 79.3316 57.9691C79.5128 57.9983 79.7193 58.0962 79.8708 58.0436C80.3581 57.8756 80.826 57.6521 81.435 57.3935C81.1781 57.7763 80.93 58.0407 80.8141 58.3518C80.7406 58.614 80.7452 58.8913 80.8275 59.1509C80.8468 59.2225 81.2731 59.297 81.3385 59.2283C81.5142 59.022 81.6379 58.7777 81.6994 58.5155C81.7425 58.346 81.6534 58.1444 81.6207 57.9457L82.9576 58.5023C82.1599 60.4686 80.1724 59.6973 78.8087 60.2188C79.1058 60.2699 79.4995 60.3284 79.8842 60.4043C81.2018 60.6643 82.1466 60.0493 83.0378 59.1977C83.4969 58.7594 83.9291 58.029 84.7907 58.5783C84.7714 58.6148 84.7595 58.6688 84.7328 58.6776C84.3302 58.8003 83.7717 58.926 83.9975 59.446C84.2411 60.004 84.7179 59.5687 85.0774 59.4343C85.2699 59.3363 85.4512 59.2183 85.6181 59.0823C85.9969 60.0347 86.7664 59.0472 87.3398 59.4475L86.6802 59.8258C87.83 60.6191 88.8327 59.9354 89.8294 60.0099C90.1933 60.0376 90.5573 60.0523 91.0178 60.0771C90.1265 60.993 89.1431 61.2019 87.9072 60.9244C88.0305 61.1756 88.0914 61.2998 88.1493 61.4152L86.8258 61.9864L86.8897 62.1807L85.223 61.817C85.2972 62.1091 85.3374 62.2771 85.3715 62.4013C84.2099 63.0294 83.2919 61.9251 82.2179 61.8579L82.1421 62.0507C82.3159 62.188 82.4912 62.3239 82.818 62.578C81.6772 62.578 80.6671 62.6935 79.6985 62.5444C78.7775 62.3984 77.8996 61.9849 77.0024 61.6884L76.8539 61.9499L77.2995 62.5488C75.7517 62.6131 74.2083 62.7899 72.9768 61.5759C72.8921 61.4912 72.7109 61.5014 72.5742 61.4678L71.6637 60.8835L72.0543 60.7622C71.2017 60.4993 71.0888 61.0778 70.866 61.5818C71.5151 62.0536 72.0543 61.7585 72.5832 61.4547C72.3381 62.2581 73.158 62.1851 73.4908 62.5678C71.5062 62.3589 69.3567 63.2982 67.5564 61.6081L69.0745 61.3378C68.1609 60.4949 67.6217 60.4394 66.7809 61.0544H68.057C66.9102 61.8184 65.649 62.1325 64.3076 62.169C64.1392 62.1572 63.9787 62.0939 63.8486 61.9879C63.149 61.4532 62.4389 61.4737 61.7289 61.9426C60.1929 62.9652 58.4861 62.6014 56.9754 62.6263C57.1581 62.2684 57.3349 61.9207 57.5131 61.573C58.0122 61.741 58.5128 61.9177 59.0209 61.5394C58.5218 61.0412 58.1385 61.0675 57.5265 61.5964ZM53.1176 57.4344L52.8206 57.4534C52.7671 57.9706 52.4789 58.6732 52.7166 58.9625C53.076 59.4007 53.801 59.5468 54.3714 59.8258L54.5006 59.6169C53.3464 59.3218 53.2187 58.3825 53.1176 57.4344ZM51.7258 60.5226C50.1319 60.4277 49.8585 60.5358 49.453 61.4868L51.3202 60.8543C51.298 61.0763 51.2772 61.275 51.2564 61.4737L51.3752 61.4897C51.4851 61.1888 51.5936 60.8864 51.7258 60.5226ZM85.2972 59.6958L82.2283 60.5723C82.252 60.6439 82.2773 60.7184 82.3011 60.79C83.3676 60.8104 84.406 60.7199 85.2898 59.6973L85.2972 59.6958ZM51.9337 58.3007L52.1239 58.2394L51.6886 56.8793L50.27 56.9713L51.9337 58.3007ZM47.4135 58.5607L47.2263 58.6279C47.2768 58.9406 47.2263 59.3467 47.4001 59.5483C47.972 60.1896 48.7251 60.4365 49.6862 60.1969C48.8885 59.5979 47.4476 60.0333 47.406 58.5607H47.4135ZM57.525 59.5965C56.451 59.6345 55.7915 58.4103 54.6328 58.7083C55.432 59.484 56.4332 59.6681 57.5176 59.5965H57.525ZM51.6381 59.1684C50.1155 58.2481 50.1155 58.2481 49.1559 58.5067L51.6381 59.1684ZM57.3497 58.5841C56.8818 57.7076 55.7291 57.0429 54.7472 57.135L57.3497 58.5841ZM49.0876 59.2225C49.814 60.0347 50.8924 60.2451 51.9233 59.8068L49.0876 59.2225ZM73.2234 57.915C73.1447 57.8026 73.0748 57.6857 72.9827 57.582C72.962 57.5557 72.8936 57.5688 72.9441 57.582L70.9625 59.4051L71.0888 59.5512C71.7676 59.0224 72.448 58.5038 73.216 57.9209L73.2234 57.915ZM48.3924 61.18C47.9274 61.2969 47.6675 60.5124 47.1728 60.9667C46.7985 61.3115 46.4078 61.6373 46.026 61.9703L48.3924 61.18ZM73.1372 59.5643L73.158 59.6827H74.6643L75.1099 58.9522L74.9956 58.8208L73.1372 59.5643ZM57.2071 60.2129C56.4169 59.8419 55.9861 60.3211 55.5345 60.7578L55.6325 60.9638L57.2071 60.2129ZM59.0788 59.8974L59.2571 59.7236L57.831 58.1955L57.6468 58.3635L59.0788 59.8974ZM46.393 60.8557L46.3113 60.622L44.4886 61.2531L44.5837 61.5175L46.393 60.8557ZM53.8203 60.7286C53.0775 60.4847 52.8428 60.6147 52.5101 61.5306L53.8203 60.7286ZM77.6575 60.847C78.2324 61.6913 78.3156 61.7059 78.9811 61.1654L77.6575 60.847Z" fill="white"/>
<path d="M90.7699 65.3946C90.0539 67.317 89.3374 69.2385 88.6204 71.159C88.4719 71.5681 88.3233 71.9844 88.154 72.3832C88.0594 72.5376 87.9445 72.679 87.8123 72.8039C87.6801 72.6578 87.49 72.5249 87.4231 72.3511C86.6136 70.246 85.8233 68.1351 85.0271 66.0256C84.9418 65.7498 84.7888 65.499 84.5814 65.2952V66.1834C84.5814 67.9014 84.6067 69.6208 84.5696 71.3387C84.5562 71.9435 84.6423 72.3847 85.339 72.4972C85.4118 72.5074 85.4683 72.6038 85.6361 72.7572H83.1509C83.1688 72.6622 83.1688 72.5819 83.1866 72.5775C84.0066 72.3861 84.0779 71.8295 84.0615 71.1167C84.0095 69.4235 84.0452 67.729 84.0452 66.0344C84.0452 64.9344 84.0452 64.9344 83.1539 64.3398C84.1611 64.3398 85.1697 64.3179 86.1739 64.3661C86.309 64.3661 86.471 64.7196 86.5482 64.9329C87.178 66.5603 87.7915 68.1921 88.4793 70.0181C88.8224 69.1153 89.1047 68.382 89.381 67.6442C89.7286 66.7137 90.094 65.7875 90.4089 64.8467C90.5575 64.4275 90.7773 64.2872 91.2155 64.3018C92.031 64.3311 92.8495 64.3106 93.7512 64.4187C92.5079 64.5984 92.8169 65.4632 92.8109 66.1586C92.8005 67.7567 92.8109 69.3534 92.8109 70.9516C92.8109 72.1392 92.8109 72.1392 93.7943 72.7499H90.0806C90.0806 72.7002 90.0806 72.6169 90.094 72.6155C90.9422 72.446 90.9764 71.8646 90.9615 71.1546C90.9214 69.2468 90.9481 67.3375 90.9481 65.4281L90.7699 65.3946Z" fill="white"/>
<path d="M33.1322 72.7644H29.4691C29.4884 72.6709 29.4913 72.5906 29.5077 72.5877C30.3143 72.4416 30.4287 71.9274 30.3811 71.2276C30.3232 70.3657 30.3678 69.4965 30.3678 68.5806H27.122C27.122 69.7259 27.0685 70.8595 27.1606 71.9814C27.1814 72.2429 27.6924 72.465 28.0296 72.7498H24.3457C25.5044 72.4577 25.1954 71.5695 25.1998 70.8288C25.2102 69.2073 25.2102 67.5858 25.2102 65.9642C25.2102 64.9022 25.2102 64.9022 24.1867 64.3851H27.994C27.9836 64.4362 27.9791 64.518 27.9658 64.5195C27.0997 64.6246 27.0611 65.2002 27.1072 65.8795C27.1532 66.5588 27.1176 67.2235 27.1176 67.951H30.3588C30.3588 66.981 30.4138 66.0168 30.3187 65.0673C30.295 64.8335 29.781 64.648 29.4096 64.3807H33.1381C33.1307 64.4304 33.1278 64.5136 33.1159 64.5151C32.2513 64.6217 32.2246 65.2002 32.2454 65.8795C32.281 67.5478 32.2454 69.219 32.2617 70.8887C32.2617 71.6191 31.9646 72.5059 33.3342 72.5906L33.1322 72.7644Z" fill="white"/>
<path d="M67.4793 68.1146C67.4674 71.8223 64.6064 73.8353 61.6043 72.6695C59.9836 72.0414 59.0686 70.4535 59.1577 68.4229C59.3062 65.1039 62.5059 63.1405 65.3669 64.6379C66.9296 65.4603 67.4406 66.8744 67.4793 68.1146ZM65.5378 68.6537C65.3818 67.7947 65.2897 66.9007 65.0476 66.049C64.7861 65.1258 64.1563 64.6714 63.3705 64.6525C62.5223 64.6335 61.8716 65.0483 61.5671 65.9877C61.0153 67.6555 61.0033 69.4506 61.533 71.1254C61.83 72.0648 62.4584 72.4913 63.3155 72.4942C64.1726 72.4972 64.801 72.056 65.0788 71.1138C65.3045 70.3322 65.3833 69.5097 65.5378 68.6537Z" fill="white"/>
<path d="M36.9367 64.8277V67.9744C37.9854 68.2446 38.899 68.1585 39.4516 66.9708L39.5734 67.1373V69.5214C38.9792 68.4725 38.0434 68.4083 36.8996 68.6537C36.8996 69.7537 36.8862 70.8815 36.9203 72.0136C36.9203 72.1261 37.2011 72.3058 37.366 72.3262C38.5677 72.4928 39.6343 72.3394 40.1884 71.0757C40.287 70.9085 40.4118 70.7577 40.5582 70.6287C40.585 70.5995 40.6489 70.601 40.8732 70.5425L40.6652 72.7659H34.1292C35.325 72.4416 34.9729 71.5155 34.9803 70.7587C34.9952 69.1854 34.9892 67.6121 34.9803 66.0388C34.9803 65.3726 35.221 64.5662 34.1247 64.372H40.4661V66.5822C39.8853 65.8839 39.5466 65.1564 38.9807 64.8847C38.4147 64.613 37.6586 64.8277 36.9367 64.8277Z" fill="white"/>
<path d="M103.904 64.312C104.727 64.312 105.552 64.2843 106.373 64.3325C106.56 64.3442 106.767 64.591 106.903 64.7707C107.943 66.1556 108.959 67.5463 109.986 68.9429C110.125 69.1313 110.283 69.311 110.571 69.6733C110.571 68.0269 110.583 66.5895 110.552 65.1535C110.552 65.0074 110.301 64.8423 110.137 64.7269C109.974 64.6115 109.806 64.5808 109.662 64.3748H112C112 64.4362 112 64.5209 111.981 64.5209C111.156 64.7064 111.089 65.263 111.101 65.9818C111.149 67.9875 111.118 69.9961 111.118 72.0048V72.782L110.922 72.9193C110.687 72.7396 110.397 72.5994 110.228 72.3729C108.726 70.3614 107.245 68.3425 105.758 66.3221L105.41 65.8576C105.375 66.1644 105.339 66.3338 105.339 66.5033C105.339 67.9554 105.339 69.406 105.339 70.858C105.339 71.9931 105.339 71.9931 106.321 72.7454H103.891C103.906 72.6636 103.907 72.5848 103.924 72.5818C104.83 72.4065 104.815 71.7594 104.804 71.0509C104.775 69.3578 104.796 67.6632 104.796 65.9701C104.796 64.8832 104.796 64.8832 103.904 64.312Z" fill="white"/>
<path d="M76.6071 70.2956C76.9665 70.8274 77.3498 71.3504 77.684 71.9025C78.1505 72.652 78.8575 72.4869 79.5304 72.3832C80.2568 72.2707 80.6371 71.7813 80.7426 71.0962C80.8481 70.411 80.5302 69.907 79.9196 69.6134C79.3908 69.3592 78.8278 69.1752 78.2767 68.9575C76.8937 68.4184 76.2773 67.4981 76.4585 66.2316C76.6264 65.0848 77.5756 64.2609 78.9689 64.1864C79.8073 64.1628 80.6462 64.1985 81.4794 64.293C81.5701 64.3226 81.6517 64.3743 81.7167 64.4432C81.7816 64.5122 81.8277 64.5962 81.8507 64.6875C81.8953 65.2324 81.8686 65.7831 81.8686 66.3309L81.6383 66.4449C81.3085 66.0066 80.9818 65.5567 80.6505 65.1155C80.0444 64.3076 78.4639 64.4508 78.0361 65.3507C77.7271 66.0037 77.9603 66.7005 78.6837 67.0569C79.2779 67.3491 79.9137 67.5536 80.5257 67.8107C81.8938 68.3863 82.5727 69.3534 82.3944 70.449C82.1716 71.8134 81.1214 72.8258 79.6879 72.9149C78.7818 72.9719 77.8652 72.8784 76.9547 72.8214C76.8061 72.8112 76.5551 72.6505 76.5387 72.5292C76.4422 71.8237 76.4006 71.1093 76.3397 70.3979L76.6071 70.2956Z" fill="white"/>
<path d="M49.8049 64.1645V66.3324L49.6564 66.4142C49.3311 65.9906 49.0043 65.5684 48.6819 65.1433C48.4716 64.8765 48.1754 64.6879 47.8419 64.6083C47.5083 64.5287 47.1571 64.5628 46.8459 64.705C46.4365 64.9343 46.1292 65.3058 45.9843 65.7466C45.7764 66.4288 46.2428 66.8861 46.8637 67.1505C47.4282 67.3915 48.0149 67.5887 48.5794 67.8269C49.9743 68.4229 50.5774 69.352 50.3872 70.5718C50.1971 71.7916 49.1335 72.7513 47.7921 72.9091C47.2984 72.9557 46.8016 72.9625 46.3067 72.9296C45.7437 72.9077 45.1822 72.8463 44.5702 72.7966C44.487 71.961 44.4082 71.1897 44.3295 70.4067L44.5835 70.2825C44.8806 70.7208 45.2252 71.1196 45.4674 71.5783C45.965 72.5278 46.4849 72.5614 47.5827 72.3642C48.2764 72.2415 48.6225 71.7638 48.7295 71.1035C48.8364 70.4432 48.5809 69.9422 47.9867 69.6427C47.4401 69.368 46.8533 69.1694 46.2799 68.9488C44.8895 68.4127 44.2909 67.523 44.4587 66.2316C44.6073 65.098 45.5743 64.2639 46.9662 64.1718C47.9021 64.1163 48.8364 64.1645 49.8049 64.1645Z" fill="white"/>
<path d="M103.322 72.7484H99.5919L99.5518 72.6169L100.543 72.2809C100.246 71.5271 100.097 70.6857 99.6157 70.0896C99.0378 69.3694 98.0604 69.891 97.2642 69.7975C97.08 69.777 96.7695 70.0443 96.67 70.2518C96.3729 70.8551 96.1575 71.4935 95.902 72.1407L96.8081 72.6023L96.7606 72.7411H94.2918C95.6049 72.2298 95.6213 70.9457 96.0669 69.9582C96.8364 68.2577 97.4974 66.512 98.2372 64.7985C98.3411 64.556 98.6308 64.3894 98.8314 64.1878C99.0349 64.388 99.3245 64.5516 99.4255 64.7926C100.272 66.775 101.068 68.7793 101.917 70.7616C102.229 71.4964 102.288 72.4401 103.322 72.7484ZM99.3008 69.2073L98.1703 66.3835L97.0577 69.2073H99.3008Z" fill="white"/>
<path d="M58.6585 71.0159C57.9514 72.2766 56.9784 72.8127 55.7707 72.915C52.6929 73.1954 50.6206 70.7237 51.3352 67.6808C51.8551 65.4676 53.5262 64.1426 55.8465 64.1455C56.5818 64.1455 57.3156 64.2303 58.1148 64.2814C58.1534 64.9987 58.1891 65.6546 58.2247 66.3105L57.9989 66.3923C57.7806 66.1001 57.5533 65.8197 57.3453 65.5158C56.6739 64.5268 55.6103 64.2785 54.5735 64.8862C54.2378 65.0741 53.9519 65.3371 53.7387 65.6538C53.5256 65.9705 53.3912 66.3321 53.3465 66.7093C53.2321 67.5858 53.1578 68.5003 53.2871 69.3666C53.544 71.0699 55.0458 71.9362 56.9012 71.5578C57.4226 71.4497 57.9217 71.2467 58.6585 71.0159Z" fill="white"/>
<path d="M72.6471 64.9066C72.6471 67.2221 72.6471 69.5638 72.665 71.9055C72.665 72.075 72.8967 72.2649 73.0586 72.4007C73.1878 72.5103 73.375 72.5468 73.5043 72.7528H69.8886C69.8823 72.7043 69.8823 72.6552 69.8886 72.6067C70.7264 72.4256 70.7576 71.8442 70.7428 71.1459C70.7027 69.3096 70.7294 67.4704 70.7294 65.6327V64.8876C69.1088 64.2244 68.8518 65.732 67.9813 66.5851V64.3384H75.4086V66.5077C74.4817 65.8401 74.3094 64.1864 72.6471 64.9066Z" fill="white"/>
<path d="M23.4068 64.3325V66.5238C22.5006 65.7934 22.2942 64.1865 20.6275 64.9169V65.7379C20.6275 67.504 20.6275 69.2702 20.6275 71.0363C20.6275 71.7565 20.4358 72.5702 21.749 72.5439L21.5752 72.7294H17.8808L17.8437 72.6301C18.0108 72.5783 18.1694 72.5031 18.3146 72.4066C18.4899 72.2503 18.7454 72.0458 18.7484 71.8588C18.7751 69.5857 18.7617 67.3112 18.7558 65.0381C18.743 64.9662 18.72 64.8963 18.6874 64.8307C17.86 64.6262 17.1856 64.7284 16.7757 65.5742C16.6048 65.9024 16.3336 66.1696 16.0002 66.3383V64.3325H23.4068Z" fill="white"/>
</svg>
