<svg width="128" height="128" viewBox="0 0 128 128" fill="none" xmlns="http://www.w3.org/2000/svg">
<rect width="128" height="128" fill="#EE3E33"/>
<path fill-rule="evenodd" clip-rule="evenodd" d="M44.3255 52.0008L44.8582 52.0562C45.1429 51.9823 45.4093 52.1291 45.6756 52.1106C45.8 52.166 45.9603 52.0747 46.0663 52.1845C46.2617 52.166 46.457 52.203 46.6534 52.2399C47.5592 52.2953 48.3757 52.5888 49.265 52.755C49.7617 52.9387 50.3128 53.1049 50.7919 53.3256C51.379 53.5822 52.0185 53.9505 52.5512 54.3374C53.7059 55.1286 54.5942 56.3425 54.915 57.8141C54.8965 57.8704 54.8255 57.9064 54.7546 57.9249C53.0848 58.2932 51.379 58.5868 49.7442 58.9551C49.265 59.1213 48.7314 59.1573 48.2337 59.2681C48.1628 59.3235 48.0034 59.305 47.914 59.3235C47.3988 59.4518 46.9012 59.5626 46.3686 59.6355C46.2976 59.6549 46.2617 59.5626 46.2442 59.5072C46.1197 59.1573 45.9603 58.8259 45.7115 58.5323C45.4802 58.3302 45.2848 58.0911 45.0001 57.9618C44.6628 57.7596 44.3255 57.6488 43.9698 57.539C43.5616 57.4282 43.2058 57.4097 42.7801 57.3174L42.4428 57.2999L41.1268 57.2814C40.3988 57.3728 39.5814 57.4836 38.9059 57.8141C38.4442 58.0726 38.0535 58.5323 38.071 59.1029C38.2673 59.9669 39.2441 60.0039 39.9546 60.2614C40.9849 60.4821 42.0861 60.6288 43.1174 60.8135C43.4731 60.8505 43.8629 60.9418 44.2361 60.9603C44.3071 61.0341 44.4499 60.9972 44.5384 61.0341C45.107 61.108 45.6221 61.2548 46.1732 61.3287C46.2976 61.3841 46.4395 61.3656 46.5639 61.4385C46.8837 61.4385 47.1325 61.5862 47.4173 61.6601C48.0209 61.7699 48.607 61.9731 49.1756 62.1752C50.5975 62.6534 52.0185 63.5554 52.765 64.9161C53.0313 65.4867 53.2442 66.0941 53.2442 66.7745C53.2976 67.1798 53.2267 67.6026 53.1732 67.9895C53.0488 68.4852 52.9604 69.0382 52.7115 69.497C51.8232 71.5585 49.993 73.0485 48.0384 73.9874C47.2744 74.4656 46.3686 74.7047 45.5162 75.0361C45.0185 75.2189 44.4849 75.3676 43.9523 75.4774C43.7385 75.6057 43.4906 75.5872 43.2593 75.6611C41.9627 75.9362 40.6301 76.1393 39.2976 76.2676C39.0663 76.2501 38.8175 76.3415 38.5686 76.323C38.3198 76.3794 38.107 76.3415 37.8406 76.3794C37.379 76.323 36.7919 76.3969 36.3477 76.3794C35.5663 76.3415 34.8198 76.3415 34.0199 76.2501C33.2744 76.1762 32.5104 76.0285 31.7465 75.9002C31.4442 75.8088 31.1069 75.8263 30.8222 75.6971C29.3827 75.3297 27.9977 74.8145 26.771 73.968C26.5232 73.7658 26.2559 73.6006 26.0605 73.3615C25.457 72.8278 24.8884 72.1465 24.5686 71.3932C24.2488 70.7304 24.036 69.9577 24 69.1665C24.0535 69.0557 24.2313 69.1665 24.3013 69.0742C24.8884 69.0382 25.4745 68.9643 26.0605 68.872C26.3094 68.7797 26.6476 68.8351 26.8955 68.7622C27.1977 68.7427 27.5175 68.6873 27.8373 68.6504L28.1221 68.6144C28.8151 68.5406 29.4721 68.4677 30.1651 68.3753C30.4139 68.3015 30.7337 68.3209 30.9825 68.2461C31.2848 68.2091 31.6221 68.1362 31.9243 68.1547C32.2082 68.0993 32.5104 68.0808 32.7768 68.0254C33.0071 68.007 33.2209 67.97 33.4338 67.9895C33.5057 68.5775 33.7545 69.148 34.1443 69.5349C34.4466 69.8284 34.8023 70.1423 35.193 70.2891C35.3709 70.4543 35.6557 70.4718 35.886 70.5642C36.1873 70.7109 36.5615 70.675 36.8988 70.7858C37.0582 70.7488 37.2545 70.8402 37.4139 70.8227C37.6093 70.8956 37.8581 70.7858 38.036 70.8956C38.5336 70.9141 39.1197 70.8956 39.5814 70.8771C40.1675 70.8227 40.7895 70.7488 41.3406 70.6011C41.9092 70.4174 42.5128 70.1229 42.7616 69.5164C42.8686 69.2209 42.8326 68.8895 42.6732 68.6329C42.3534 68.1362 41.7489 67.97 41.2337 67.7863C40.0965 67.5472 38.9244 67.3451 37.7512 67.1798C37.2895 67.1244 36.8104 67.0136 36.3662 66.9407C35.8685 66.8659 35.3709 66.7386 34.8733 66.6093C32.7593 66.0757 30.5199 65.4867 28.9745 63.9043C28.2815 63.1316 27.8198 62.1383 27.8907 61.0157C27.9442 59.2496 28.8151 57.7956 29.8803 56.5816C30.7697 55.6437 31.8884 54.7417 33.0965 54.1342C34.4466 53.4179 36.0279 52.9018 37.6093 52.5704C38.071 52.4975 38.5336 52.3867 39.0313 52.3322C39.5464 52.2214 40.114 52.203 40.6301 52.1476C40.7546 52.0562 40.8965 52.1291 41.0034 52.0931C41.3406 52.0931 41.6779 52.0193 41.9977 52.0562C42.1396 52.0747 42.2815 51.9454 42.4428 52.0377C43.0639 51.9454 43.686 52.0931 44.3255 52.0008Z" fill="white"/>
<path fill-rule="evenodd" clip-rule="evenodd" d="M99.8584 58.422C101.007 58.5853 102.121 58.9478 102.952 59.6544C103.659 60.2162 103.995 61.159 103.978 62.1378C104.049 62.2466 103.925 62.3011 103.96 62.3915C103.925 63.515 103.629 64.5502 103.359 65.5814C102.965 67.0841 100.604 76.062 100.604 76.062L91.4034 76.0795C91.4034 76.0795 91.5317 75.6052 91.5842 75.4604C92.0799 73.6107 92.5746 71.7621 93.0343 69.8959C93.5116 68.1736 93.9353 66.4513 94.3776 64.694C94.4845 64.1322 94.466 63.4431 93.9888 63.135C93.6885 62.9358 93.3181 62.8988 92.9459 62.8813C92.7875 62.8444 92.6281 62.9173 92.4327 62.8988C91.4792 62.9358 90.5597 63.3527 89.9941 64.1322C89.476 64.9215 88.9356 67.2065 88.9356 67.2065L86.6972 76.0717L77.4034 76.0523C77.5268 75.2368 82.0386 58.6222 82.0386 58.6222L90.6297 58.6038L90.1 60.9782L90.1535 60.9957C90.6657 60.4339 91.2663 59.9081 91.9555 59.5456C93.1403 58.839 94.5195 58.5309 95.9337 58.3316C96.3574 58.2956 96.7472 58.2412 97.171 58.2412C97.5773 58.1683 98.073 58.3131 98.5327 58.2597C98.5327 58.2597 99.5046 58.3501 99.8584 58.422Z" fill="white"/>
<path fill-rule="evenodd" clip-rule="evenodd" d="M80.2096 58.6132L75.6113 76.0452L66.8802 76.0267C66.8802 76.0267 67.34 74.3248 67.5577 73.2576H67.4867C66.5809 74.387 65.3368 75.1889 64.0217 75.6438C62.8845 76.0821 61.5879 76.2639 60.3448 76.3912C60.1135 76.4272 58.4252 76.3912 58.4252 76.3912C57.1461 76.2824 55.8845 76.0452 54.8183 75.3891C54.0728 74.8973 53.4682 74.078 53.3973 73.1488L53.3613 72.8028L53.4332 71.9834C53.6995 70.4535 54.1972 68.9956 54.5169 67.5017C54.6589 67.1003 54.7473 66.6824 54.8542 66.2625C55.5297 63.7315 56.8496 58.6151 56.8496 58.6151C56.8496 58.6151 65.9588 58.5753 66.1007 58.6122C65.4787 61.3998 64.6263 64.132 63.9332 66.9001C63.8263 67.2646 63.7729 67.6475 63.6485 67.9751C63.4891 68.8498 63.0799 69.6507 63.1333 70.5809C63.1868 70.8346 63.2762 71.0542 63.4891 71.236C63.7019 71.3993 64.0042 71.4362 64.2705 71.4906C64.8391 71.6189 65.4077 71.4547 65.9403 71.3458C67.0066 71.0542 67.8415 70.2164 68.1613 69.1414C68.3926 68.4853 68.517 67.7748 68.7298 67.1003C69.1381 65.4247 69.5822 63.7675 70.0264 62.0918C70.3297 60.9255 70.632 59.7786 70.9148 58.6122L80.2096 58.6132Z" fill="white"/>
<path fill-rule="evenodd" clip-rule="evenodd" d="M65.2306 56.4823L66.1618 53.1028H64.8146L65.1082 52.0006H69.688L69.3449 53.1028H68.0959L67.0676 56.5007L65.2306 56.4823Z" fill="white"/>
<path fill-rule="evenodd" clip-rule="evenodd" d="M69.0511 56.507L70.3001 52H72.2595L71.7939 53.6902H73.3374L73.8273 52H75.7372L74.5125 56.4827H72.6026L73.0186 54.7924H71.4761L70.9863 56.507H69.0511Z" fill="white"/>
<path fill-rule="evenodd" clip-rule="evenodd" d="M75.5168 56.4823L76.7415 52.0006H81.5663L81.2727 53.0046H78.3821L78.1858 53.7151H80.5613L80.292 54.6696H77.9409L77.7212 55.453H80.6108L80.3416 56.458L75.5168 56.4823Z" fill="white"/>
</svg>
