<svg width="128" height="128" viewBox="0 0 128 128" fill="none" xmlns="http://www.w3.org/2000/svg">
<rect width="128" height="128" fill="#0977B6"/>
<path d="M103.859 65.7476C103.614 66.0782 103.409 66.3359 103.227 66.6091C102.364 67.9162 100.189 67.9022 99.3759 66.5299C99.3231 66.4394 99.2639 66.3527 99.1988 66.2707C98.8907 65.8966 98.7783 65.9106 98.3701 66.1853C97.5721 66.7224 96.7326 67.1866 95.7822 67.3899C95.1953 67.5141 94.5914 67.719 94.0107 67.6787C92.5473 67.5746 91.2765 67.0205 90.5063 65.6606C90.3368 65.3611 90.2413 65.0211 90.0842 64.7122C90.0349 64.6159 89.8994 64.557 89.8023 64.4902C89.7412 64.5803 89.6896 64.6765 89.6483 64.7774C89.2308 66.1745 88.3251 67.05 86.9202 67.4303C86.1577 67.6367 85.4014 67.8059 84.6096 67.6352C83.5098 67.3977 82.453 67.1012 81.7106 66.1372C81.5273 65.8982 81.2808 65.982 81.0651 66.1527C80.623 66.4989 80.2194 66.9382 79.7234 67.1648C78.6806 67.6398 77.3836 67.9177 76.5671 66.932C76.1536 66.432 75.9159 65.8081 75.8909 65.1577C75.8678 64.633 75.8832 64.1052 75.8832 63.579C75.8832 60.7165 75.8832 57.8541 75.8832 54.9916C75.8832 54.1254 76.1466 53.8802 76.9815 54.0509C77.5318 54.1618 78.0722 54.3175 78.5974 54.5166C79.1905 54.7432 79.4385 55.2183 79.4354 55.8594C79.4261 58.3865 79.4261 60.9137 79.4354 63.4408C79.4423 63.8267 79.4716 64.2118 79.5232 64.5942C79.5725 64.9932 79.859 65.2788 80.1563 65.2586C80.5075 65.2338 80.8911 64.8472 80.8834 64.4824C80.8726 63.9562 80.8187 63.4284 80.8156 62.9022C80.8063 61.2598 81.5041 59.9885 82.9105 59.1766C83.3773 58.9281 83.8862 58.7701 84.4109 58.711C86.0514 58.475 87.6072 58.6923 88.7887 59.987C89.1785 60.4154 89.3695 61.0254 89.6591 61.547C89.7472 61.6905 89.8439 61.8284 89.9487 61.9599C90.075 61.8497 90.2567 61.7643 90.3184 61.6246C90.8791 60.2524 91.8588 59.3816 93.2621 58.9128C94.0723 58.6395 94.8703 58.4672 95.7098 58.6582C96.6695 58.877 97.5167 59.2791 98.0635 60.1701C98.4948 60.8749 98.3177 62.1602 97.6353 62.6274C97.4295 62.7642 97.1905 62.8416 96.9442 62.8512C96.6979 62.8608 96.4537 62.8022 96.2381 62.6818C95.8915 62.5126 95.642 61.9599 95.6959 61.5191C95.719 61.3281 95.7637 61.1388 95.7914 60.9478C95.8469 60.5737 95.7005 60.4169 95.3293 60.4449C94.7486 60.4883 94.4174 60.8842 94.1509 61.3313C93.5625 62.3185 93.5948 63.3989 93.7612 64.4809C93.7964 64.6975 93.889 64.9005 94.0292 65.0685C94.1693 65.2365 94.3519 65.3633 94.5576 65.4356C95.7052 65.9152 96.7572 65.566 97.8032 65.1003C97.8136 65.0921 97.825 65.0853 97.8371 65.0801C98.6073 64.9466 98.6566 64.3784 98.6073 63.7622C98.521 62.8308 98.7906 61.9553 99.1418 61.1372C99.4684 60.375 100.089 59.8178 100.836 59.4141C101.958 58.8082 103.222 58.5232 104.493 58.5899C105.303 58.6302 106.108 58.8227 106.913 58.9609C107.05 58.978 107.174 59.048 107.261 59.1561C107.347 59.2642 107.388 59.4018 107.375 59.5399C107.375 61.0223 107.366 62.5048 107.364 63.9888C107.364 64.3552 107.303 64.7308 107.697 64.9854C108.145 65.2741 108.906 65.0087 109.02 64.4855C109.06 64.2811 109.077 64.0729 109.073 63.8646C109.073 61.1062 109.073 58.3462 109.073 55.5862C109.076 55.2905 109.103 54.9956 109.154 54.7044C109.231 54.2387 109.526 53.9686 109.983 54.0137C110.881 54.1021 111.776 54.2915 112.448 54.945C112.667 55.1546 112.736 55.5908 112.756 55.9292C112.796 56.8171 112.77 57.7082 112.77 58.5976V64.2061C112.763 64.3619 112.772 64.5179 112.796 64.6718C112.81 64.7676 112.846 64.8585 112.902 64.9372C112.958 65.0158 113.032 65.0797 113.118 65.1237C113.203 65.1676 113.298 65.1902 113.394 65.1897C113.49 65.1891 113.584 65.1654 113.669 65.1204C113.947 64.9932 114.21 64.8333 114.487 64.7044C114.607 64.6639 114.731 64.6364 114.857 64.6222C114.877 64.765 114.963 64.9481 114.906 65.0428C114.651 65.473 114.372 65.8877 114.068 66.2847C113.415 67.1276 112.519 67.5157 111.48 67.6228C110.743 67.6988 109.835 67.1338 109.518 66.3809C109.33 65.9416 109.312 65.9401 108.94 66.2536C108.273 66.8171 107.588 67.2999 106.688 67.4955C105.627 67.733 104.576 67.3713 104.113 66.2536C104.04 66.1046 103.966 65.9602 103.859 65.7476ZM86.2763 63.1195V62.3899C86.2763 62.1322 86.284 61.8746 86.2763 61.6138C86.2625 61.3313 86.2917 61.0254 86.1947 60.774C85.902 60.0227 85.3906 59.706 84.8515 60.2338C84.642 60.4356 84.5572 60.8376 84.531 61.1481C84.4663 62.0981 84.4386 63.0528 84.4448 64.0043C84.4593 64.5449 84.5108 65.0838 84.5988 65.6172C84.6466 65.9525 84.8083 66.2303 85.1842 66.2971C85.56 66.3638 85.8573 66.2738 85.9867 65.8857C86.1173 65.5692 86.2084 65.2376 86.2578 64.8985C86.3071 64.3086 86.2763 63.7125 86.2763 63.1195ZM103.749 62.2875C103.749 61.7597 103.765 61.2319 103.741 60.7041C103.741 60.5163 103.671 60.1981 103.575 60.1748C103.346 60.1297 103.109 60.1654 102.903 60.2757C102.133 60.6964 101.807 61.3856 101.825 62.2564C101.825 62.5265 101.811 62.7982 101.825 63.0667C101.828 63.4262 101.863 63.7847 101.93 64.1378C102.047 64.6144 102.558 64.9637 102.95 64.8985C103.427 64.8208 103.738 64.4219 103.741 63.8724C103.745 63.3229 103.749 62.8168 103.749 62.2875Z" fill="#F6931D"/>
<path d="M37.088 63.3974C37.088 64.5849 37.088 65.7709 37.088 66.9568C37.088 67.3232 37.2282 67.4706 37.5902 67.4582C38.0523 67.4427 38.5144 67.4582 38.9766 67.4582C39.508 67.4582 39.565 67.3977 39.565 66.8497C39.565 65.5085 39.5881 64.1673 39.5558 62.8277C39.5446 62.6159 39.5825 62.4043 39.6665 62.2098C39.7504 62.0153 39.8781 61.8431 40.0394 61.7069C40.2167 61.5813 40.4049 61.4722 40.6017 61.3809C41.1485 61.0487 41.3241 61.0705 41.7863 61.4973C42.0035 61.696 42.0189 61.9429 42.0189 62.2036C42.0189 63.7642 42.0189 65.3243 42.0189 66.8839C42.0189 67.3837 42.0851 67.4473 42.5688 67.4536C43.0525 67.4598 43.493 67.4536 43.9552 67.4536C44.4173 67.4536 44.4851 67.3946 44.4866 66.9149C44.4866 65.6006 44.4866 64.2853 44.4866 62.9689C44.4866 61.932 44.7762 61.516 45.7497 61.2241C46.0855 61.1232 46.389 61.1651 46.6201 61.516C46.8381 61.8351 46.9513 62.2152 46.9435 62.6026C46.9343 64.0338 46.9435 65.465 46.9435 66.8963C46.9435 67.3837 47.0175 67.452 47.5058 67.4567C47.9417 67.4567 48.3792 67.4567 48.8151 67.4567C49.3327 67.4489 49.4113 67.3682 49.4113 66.8357C49.4113 65.2632 49.4113 63.6892 49.4113 62.1167C49.4293 61.4492 49.3435 60.783 49.1571 60.1422C48.9553 59.4902 48.4824 59.2605 47.9648 59.0975C47.0406 58.8072 46.238 59.2527 45.5002 59.7432C44.9256 60.1235 44.4851 60.1096 44.0414 59.6175C43.77 59.2885 43.3845 59.0759 42.9631 59.023C42.0389 58.9221 41.2687 59.276 40.5385 59.7727C39.9778 60.1561 39.6497 60.0832 39.4849 59.4359C39.4682 59.3338 39.4135 59.2419 39.3319 59.1791C39.2503 59.1162 39.148 59.087 39.0459 59.0975C38.6104 59.0812 38.1748 59.1267 37.7519 59.2325C37.0896 59.3971 37.0834 59.3769 37.0834 60.0708C37.0855 61.1802 37.087 62.289 37.088 63.3974Z" fill="white"/>
<path d="M18.8619 61.1652C18.8619 63.0735 18.8619 64.9813 18.8619 66.8886C18.8619 67.39 18.9251 67.4489 19.4149 67.4536C19.8771 67.4536 20.3392 67.4536 20.8013 67.4536C21.4067 67.4536 21.4683 67.39 21.4683 66.7939C21.4683 65.4791 21.5145 64.1549 21.456 62.8494C21.4113 61.842 22.2739 61.3965 22.9563 61.1714C23.0253 61.1534 23.0977 61.1534 23.1666 61.1713C23.2356 61.1892 23.2989 61.2245 23.3507 61.2738C23.5111 61.3816 23.6423 61.5281 23.7321 61.7C23.822 61.8719 23.8677 62.0637 23.8652 62.258C23.8498 63.7793 23.8652 65.3005 23.8652 66.8218C23.8652 67.407 23.9145 67.452 24.5091 67.4551C24.9573 67.4551 25.4071 67.4551 25.8554 67.4551C26.3283 67.4551 26.4069 67.3837 26.4007 66.9227C26.3745 64.8224 26.4531 62.7222 26.3545 60.6219C26.3237 59.9684 25.612 59.2465 25.0775 59.0928C24.1363 58.8227 23.3106 59.1891 22.5466 59.6734C22.2678 59.8519 22.0259 60.018 21.7102 59.8923C21.3944 59.7666 21.4005 59.4406 21.4005 59.158C21.4005 57.9162 21.4005 56.6837 21.4005 55.4465C21.4005 54.9078 21.3035 54.8085 20.7643 54.8535C20.3423 54.8876 19.9217 54.9171 19.4981 54.9171C18.9097 54.9171 18.8666 54.9621 18.8666 55.5582C18.8625 57.4272 18.8609 59.2962 18.8619 61.1652Z" fill="white"/>
<path d="M74.9604 63.8631C74.9604 62.8836 74.9142 61.901 74.9743 60.9262C75.0328 59.9824 74.0023 58.9392 73.038 59.0059C72.2998 59.051 71.5913 59.3151 71.0016 59.765C70.4394 60.1842 70.1066 60.1158 69.9141 59.467C69.8887 59.3602 69.8278 59.2654 69.7414 59.1985C69.6551 59.1315 69.5485 59.0964 69.4396 59.0991C68.8789 59.0463 68.3459 59.1907 67.8083 59.3118C67.5619 59.3676 67.4926 59.5462 67.4926 59.7774C67.4926 62.1887 67.4926 64.5989 67.4926 67.0081C67.4926 67.3186 67.6266 67.4598 67.9347 67.4567C68.3706 67.4567 68.8065 67.4567 69.2425 67.4567C69.9387 67.4567 69.9634 67.4319 69.9649 66.7473C69.9649 65.4837 69.9649 64.2202 69.9649 62.9581C69.9591 62.53 70.1057 62.1139 70.3781 61.7853C70.6505 61.4566 71.0307 61.2372 71.4499 61.1668C71.5503 61.1485 71.6538 61.1576 71.7497 61.1931C71.8455 61.2286 71.9303 61.2891 71.9952 61.3686C72.3818 61.7504 72.4142 62.2332 72.4142 62.7284C72.4142 64.1255 72.4142 65.5132 72.4142 66.9057C72.4142 67.3714 72.4881 67.449 72.9471 67.4552C73.4062 67.4614 73.896 67.4552 74.3705 67.4552C74.8911 67.4552 74.9512 67.3946 74.9527 66.8808C74.9651 65.8749 74.962 64.8737 74.9604 63.8631Z" fill="white"/>
<path d="M54.2697 59.0198C54.128 59.0198 53.9863 59.0307 53.8461 59.0198C52.9296 58.9344 52.2456 59.3877 51.5864 59.9512C51.1812 60.2974 51.1119 60.7864 50.9055 61.221C50.5327 61.9972 50.9055 62.6833 51.3014 63.239C51.7635 63.8755 52.5861 64.0788 53.3378 64.2573C53.7275 64.3505 54.1003 64.4126 54.4376 64.6578C54.6702 64.8255 54.8243 64.9869 54.7688 65.2787C54.7134 65.5706 54.5547 65.805 54.222 65.8345C53.4672 65.9012 52.7139 65.9354 52.01 65.5706C51.8477 65.492 51.6708 65.4487 51.4908 65.4433C51.2043 65.4247 50.9086 65.4666 50.81 65.7537C50.6791 66.1356 50.5774 66.5423 50.7345 66.9521C50.7524 66.9868 50.7827 67.0135 50.8192 67.0266C51.1951 67.216 51.5463 67.4427 51.9976 67.4535C52.9943 67.4753 53.9909 67.5901 54.9891 67.4535C55.1663 67.4287 55.3542 67.4535 55.5113 67.3464C56.032 67.0111 56.5896 66.7565 56.947 66.1744C57.4014 65.4386 57.3814 64.6702 57.118 63.9608C56.8545 63.2514 56.1429 62.8649 55.4343 62.7097C54.8628 62.5839 54.3868 62.2579 53.8199 62.1369C53.421 62.0515 53.2161 61.398 53.4564 61.1946C53.8092 60.895 54.1896 60.687 54.6887 60.8841C55.1878 61.0813 55.6962 61.0549 56.2045 61.0953C56.5357 61.1217 56.7313 60.9556 56.7714 60.6078C56.7848 60.3133 56.8489 60.0234 56.9608 59.751C56.9739 59.7322 56.9819 59.7102 56.9838 59.6873C56.9858 59.6644 56.9817 59.6414 56.9721 59.6206C56.9624 59.5998 56.9474 59.5819 56.9286 59.5689C56.9099 59.5558 56.8881 59.5479 56.8653 59.5461C56.1798 59.366 55.5637 58.9251 54.8073 59.0198C54.6283 59.0315 54.4488 59.0315 54.2697 59.0198Z" fill="white"/>
<path d="M12.9283 63.9422C12.9653 64.664 12.8513 65.5178 12.9961 66.3623C13.031 66.6143 13.1405 66.8498 13.3104 67.0381C13.4802 67.2264 13.7024 67.3588 13.948 67.4178C15.0263 67.6615 16.1185 67.528 17.2014 67.4178C17.625 67.3728 17.776 67.0003 17.6835 66.4399C17.6142 66.0145 17.3462 65.7801 16.9549 65.8019C16.7115 65.8158 16.4697 65.8407 16.2263 65.8376C15.6887 65.8376 15.4807 65.6373 15.4746 65.0863C15.4623 63.9391 15.4653 62.7919 15.4746 61.6448C15.4746 61.2365 15.6286 61.0844 16.0322 61.0611C16.3773 61.0394 16.7239 61.0471 17.0704 61.044C17.1816 61.052 17.2919 61.02 17.3818 60.9538C17.4718 60.8876 17.5355 60.7914 17.5618 60.6823C17.6502 60.3722 17.6907 60.0502 17.682 59.7277C17.682 59.4995 17.5279 59.4172 17.3215 59.4172C16.9888 59.4172 16.6545 59.4172 16.3218 59.4172C15.6702 59.4095 15.4838 59.2294 15.4684 58.5619C15.4576 58.0853 15.4684 57.6088 15.4684 57.1322C15.4684 56.8419 15.3298 56.7022 15.0433 56.71C14.6212 56.7224 14.196 56.71 13.7771 56.755C13.2672 56.8047 13.1609 56.932 13.0577 57.4473C13.0153 57.7928 12.9968 58.1409 13.0022 58.4889C12.9791 58.9344 12.8482 59.2977 12.3491 59.4203C12.2549 59.4366 12.1694 59.4861 12.1082 59.5601C12.0469 59.634 12.0138 59.7276 12.0148 59.8239C12.0148 60.0801 12.0148 60.3393 12.004 60.6001C11.9963 60.6543 11.9997 60.7096 12.0141 60.7624C12.0284 60.8153 12.0535 60.8646 12.0876 60.9072C12.1217 60.9499 12.1641 60.985 12.2123 61.0104C12.2605 61.0359 12.3133 61.051 12.3676 61.0549C12.7835 61.1232 12.9375 61.3855 12.9298 61.7954C12.916 62.466 12.9283 63.1366 12.9283 63.9422Z" fill="white"/>
<path d="M35.9389 63.1071C35.9389 62.8478 35.9389 62.629 35.9389 62.4101C35.9312 61.3514 35.5677 60.479 34.7189 59.7991C34.1782 59.366 33.5174 59.3132 32.9135 59.1269C31.8553 58.7994 30.8263 59.1859 29.8219 59.543C29.7657 59.5696 29.7137 59.6047 29.6679 59.647C29.3321 59.8984 28.9347 60.0739 28.6836 60.4231C28.4001 60.8252 28.0551 61.1993 27.9657 61.7069C27.9152 62.0637 27.8248 62.4137 27.6962 62.75C27.5977 63.0165 27.5624 63.3025 27.593 63.5852C27.6253 64.0943 27.8564 64.5569 27.901 65.0552C27.9223 65.5049 28.084 65.9363 28.3632 66.2878C28.8992 66.9273 29.5154 67.3961 30.3765 67.452C30.5567 67.4644 30.7339 67.4846 30.9125 67.497C32.2866 67.5932 33.6206 67.5389 34.722 66.533C35.3089 65.9959 35.6323 65.2912 35.8341 64.5616C35.9516 64.0864 35.987 63.5944 35.9389 63.1071ZM33.3926 63.6178C33.371 64.1975 33.2125 64.7637 32.9305 65.2694C32.53 66.0285 31.4147 66.1372 30.8478 65.4945C30.6028 65.2306 30.462 64.8856 30.452 64.5243C30.435 64.1378 30.3903 63.7482 30.3857 63.3648C30.4042 63.031 30.4212 62.6957 30.4443 62.362C30.4982 61.5718 30.9634 61.1201 31.6658 60.8531C32.0216 60.7243 32.7318 61.0549 32.9351 61.3871C33.3633 62.0794 33.4157 62.8385 33.3926 63.6178Z" fill="white"/>
<path d="M66.4204 63.0372C66.4321 62.8822 66.4321 62.7266 66.4204 62.5715C66.3419 62.0391 66.4297 61.4741 66.2032 60.9711C65.6795 59.7991 64.6366 59.3132 63.4813 59.1083C62.5994 58.9241 61.6828 59.0129 60.8519 59.3629C60.1787 59.6516 59.5518 59.9559 59.1066 60.524C58.7754 60.9478 58.4458 61.3871 58.3718 61.9724C58.2601 63.0104 58.2601 64.0576 58.3718 65.0956C58.4281 65.5908 58.644 66.0538 58.9864 66.4135C59.5471 67.0344 60.2711 67.5001 61.1877 67.4613C61.3545 67.4583 61.5213 67.4676 61.6868 67.4893C62.993 67.6212 64.2146 67.4008 65.2297 66.5066C65.7898 66.0321 66.1706 65.3775 66.308 64.6532C66.4064 64.1206 66.4442 63.5784 66.4204 63.0372ZM63.2626 65.4588C62.782 66.1232 61.7299 66.0208 61.2801 65.3564C60.9814 64.9198 60.8396 64.3935 60.8781 63.8646C60.8935 63.4921 60.8781 63.118 60.8781 62.7454C60.8673 61.8218 61.3294 61.204 62.1196 60.7973C62.1873 60.7594 62.2625 60.7371 62.3397 60.732C62.4169 60.7269 62.4943 60.7391 62.5663 60.7678C63.238 61.0503 63.8711 61.6603 63.8079 62.4753C63.7879 62.7314 63.8079 62.9907 63.8079 63.2515C63.7909 63.4824 63.7909 63.7144 63.8079 63.9453C63.9034 64.5632 63.5815 65.0289 63.2626 65.4588Z" fill="white"/>
<path d="M75.0328 70.7274C74.9919 70.7972 74.9688 70.8762 74.9656 70.9572C74.9624 71.0382 74.9792 71.1188 75.0144 71.1917C75.0497 71.2646 75.1023 71.3276 75.1676 71.3749C75.2329 71.4223 75.3089 71.4526 75.3887 71.4632C75.4112 71.4657 75.4339 71.4657 75.4565 71.4632C102.477 69.9559 112.617 71.741 112.617 71.741C114.312 71.8373 113.107 73 113.107 73C115.786 71.6805 115.066 70.8267 114.289 70.4138C113.927 70.2229 113.532 70.1028 113.126 70.0599C97.398 68.2468 78.1922 70.3036 75.2316 70.5985L75.0328 70.7274Z" fill="white"/>
</svg>
