<svg width="129" height="129" viewBox="0 0 129 129" fill="none" xmlns="http://www.w3.org/2000/svg">
<rect width="128" height="128" transform="translate(0.666992 0.416748)" fill="#D2312E"/>
<path d="M28.1939 59.6441L27.1051 62.5887H24.3523V70.8223C24.3523 71.8677 24.4822 72.5667 24.7359 72.9193C24.9895 73.272 25.4844 73.4452 26.2082 73.4452C26.5051 73.4452 27.0185 73.34 27.7423 73.1235L28.2867 75.6598C27.0928 76.1485 25.9298 76.3898 24.7977 76.3898C23.709 76.3898 22.7625 76.1732 21.9645 75.734C21.1665 75.2948 20.6345 74.7195 20.3809 73.9895C20.1891 73.4575 20.0901 72.6163 20.0901 71.4656V62.5887H18.457V59.6441H20.0901C20.0901 57.8749 20.1458 56.582 20.251 55.7717L24.606 54.6829C24.4327 56.2851 24.3523 57.9368 24.3523 59.6441H28.1939Z" fill="white"/>
<path d="M31.9426 52.4683C32.6664 52.4683 33.285 52.722 33.7861 53.2354C34.2872 53.7488 34.5408 54.3798 34.5408 55.1221C34.5408 55.8459 34.2872 56.4707 33.7737 56.9965C33.2603 57.5223 32.6293 57.7821 31.887 57.7821C31.1632 57.7821 30.5446 57.5223 30.0312 56.9965C29.5177 56.4707 29.2641 55.8521 29.2641 55.1221C29.2641 54.3984 29.524 53.7736 30.0497 53.2478C30.557 52.7281 31.1941 52.4683 31.9426 52.4683ZM29.728 59.9287L34.0212 59.2544V76.0372H29.728V59.9287Z" fill="white"/>
<path d="M47.9213 71.6512L49.573 74.2122C47.7172 75.7278 45.6572 76.4886 43.3931 76.4886C41.0424 76.4886 39.1681 75.7216 37.7577 74.1812C36.3472 72.6409 35.642 70.581 35.642 68.0014C35.642 65.1806 36.3163 63.0278 37.6587 61.5308C39.001 60.0338 40.7331 59.2915 42.8488 59.2915C44.8777 59.2915 46.4552 59.8668 47.5873 61.0236C49.041 62.5206 49.7647 64.9084 49.7647 68.1994V69.1891H40.3496V69.3191C40.3496 71.9666 41.494 73.2905 43.7829 73.2905C45.249 73.2843 46.6284 72.74 47.9213 71.6512ZM40.3496 66.0466H45.3108V65.8549C45.3108 64.7476 45.1376 63.9248 44.7973 63.3866C44.3891 62.7433 43.7643 62.4278 42.9106 62.4278C41.2033 62.4278 40.3496 63.6155 40.3496 65.9848V66.0466Z" fill="white"/>
<path d="M50.5812 60.3123L54.3918 59.2236C54.8 59.9288 54.9981 60.6093 54.9981 61.2712C55.3816 60.9928 56.0125 60.5907 56.8848 60.0525C57.757 59.5824 58.7406 59.3473 59.8294 59.3473C60.7449 59.3473 61.5676 59.5638 62.2976 60.003C63.0213 60.4422 63.5162 61.0114 63.7698 61.7166C63.9801 62.2919 64.0915 63.0713 64.0915 64.0549V76.0311H59.8294V65.4035C59.8294 64.5931 59.7674 64.0425 59.6376 63.7394C59.4458 63.2507 59.0313 63.0033 58.4003 63.0033C57.5096 63.0033 56.526 63.492 55.4434 64.4756V76.0434H51.1503V64.16C51.1565 62.6816 50.9647 61.4011 50.5812 60.3123Z" fill="white"/>
<path d="M79.476 53.0127V70.049C79.476 73.1421 79.6801 75.1402 80.0822 76.0372H76.2407C76.1355 75.8268 76.0489 75.5051 75.987 75.0783C74.9416 75.9938 73.6796 76.4578 72.2074 76.4578C70.1351 76.4578 68.4895 75.7031 67.2586 74.1999C66.0275 72.6967 65.4151 70.6738 65.4151 68.1314C65.4151 65.5704 66.0647 63.4857 67.3699 61.8834C68.669 60.2813 70.3577 59.4833 72.4301 59.4833C73.6054 59.4833 74.5766 59.7926 75.3437 60.4112C75.2571 59.9411 75.2138 59.1307 75.2138 57.9801V52.3446L79.476 53.0127ZM75.2818 63.962C74.49 63.263 73.7106 62.9104 72.9435 62.9104C71.1062 62.9104 70.1907 64.6548 70.1907 68.1438C70.1907 69.8882 70.4011 71.1007 70.834 71.7811C71.2609 72.4616 72.0404 72.8018 73.1724 72.8018C74.0075 72.8018 74.7065 72.4492 75.288 71.7502V63.962H75.2818Z" fill="white"/>
<path d="M92.9058 71.6512L94.5575 74.2122C92.7017 75.7278 90.6418 76.4886 88.3776 76.4886C86.027 76.4886 84.1526 75.7216 82.7421 74.1812C81.3317 72.6409 80.6266 70.581 80.6266 68.0014C80.6266 65.1806 81.3009 63.0278 82.6432 61.5308C83.9856 60.0338 85.7177 59.2915 87.8333 59.2915C89.8623 59.2915 91.4397 59.8668 92.5718 61.0236C94.0255 62.5206 94.7493 64.9084 94.7493 68.1994V69.1891H85.3341V69.3191C85.3341 71.9666 86.4785 73.2905 88.7673 73.2905C90.2334 73.2843 91.6129 72.74 92.9058 71.6512ZM85.3403 66.0466H90.3015V65.8549C90.3015 64.7476 90.1283 63.9248 89.788 63.3866C89.3798 62.7433 88.755 62.4278 87.9013 62.4278C86.194 62.4278 85.3403 63.6155 85.3403 65.9848V66.0466Z" fill="white"/>
<path d="M103.416 59.3225C105.742 59.3225 107.598 60.1453 108.99 61.7907C110.252 63.263 110.876 65.2611 110.876 67.7788C110.876 70.4697 110.196 72.5791 108.841 74.1071C107.486 75.6351 105.674 76.396 103.41 76.396C101.189 76.396 99.4072 75.6289 98.0587 74.0886C96.7163 72.5483 96.0424 70.4883 96.0424 67.9087C96.0424 65.323 96.7163 63.2506 98.0587 61.6794C99.4134 60.1081 101.196 59.3225 103.416 59.3225ZM103.478 62.4897C102.389 62.4897 101.653 63.0465 101.269 64.1538C100.972 65.0323 100.824 66.2447 100.824 67.8035C100.824 69.7027 101.01 71.0945 101.387 71.9668C101.758 72.8452 102.482 73.2782 103.546 73.2782C105.315 73.2782 106.206 71.4348 106.206 67.7355C106.206 65.558 105.915 64.0981 105.34 63.3496C104.888 62.7805 104.27 62.4897 103.478 62.4897Z" fill="white"/>
</svg>
