<svg width="128" height="128" viewBox="0 0 128 128" fill="none" xmlns="http://www.w3.org/2000/svg">
<rect width="128" height="128" fill="black"/>
<path d="M56.1949 55.5062V52.3887C55.1128 52.2173 54.0198 52.1234 52.9242 52.1078C42.3178 52.0851 32.9277 58.9584 29.7426 69.0752C26.5575 79.1919 30.3171 90.2051 39.023 96.2623C35.8306 92.8457 33.6952 88.5779 32.8748 83.9745C32.0543 79.3709 32.5838 74.6283 34.3994 70.3191C36.215 66.0099 39.239 62.3183 43.1064 59.6898C46.9737 57.0614 51.5193 55.6085 56.1942 55.5065L56.1949 55.5062Z" fill="#25F4EE"/>
<path d="M56.7829 90.8195C62.713 90.8118 67.5874 86.1401 67.8471 80.2156V27.3475H77.5054C77.3083 26.2428 77.2142 25.1221 77.2245 24H64.0139V76.817C63.7942 82.7712 58.9081 87.4879 52.9497 87.4979C51.1691 87.4823 49.4175 87.0445 47.8393 86.2201C48.8622 87.6373 50.2055 88.7929 51.7598 89.5918C53.314 90.3912 55.0352 90.8118 56.7829 90.8195ZM95.5456 45.285V42.3465C91.9911 42.3479 88.515 41.299 85.5545 39.3315C88.15 42.3486 91.6567 44.4384 95.5456 45.285Z" fill="#25F4EE"/>
<path d="M85.5545 39.3315C82.6381 36.0106 81.0305 31.7415 81.0319 27.3217H77.5054C77.9609 29.7653 78.9095 32.0905 80.2934 34.1554C81.6774 36.2202 83.4675 37.9815 85.5545 39.3315ZM52.9242 65.3183C50.4509 65.3309 48.0528 66.1699 46.1111 67.702C44.1695 69.2341 42.7957 71.3713 42.2083 73.7739C41.6209 76.1764 41.8534 78.7064 42.869 80.9618C43.8846 83.2168 45.625 85.0679 47.8135 86.2201C46.6169 84.5679 45.9004 82.6173 45.743 80.5834C45.5857 78.5499 45.9936 76.5122 46.9217 74.6957C47.8498 72.8792 49.262 71.3547 51.0023 70.2905C52.7425 69.2263 54.7431 68.6639 56.7829 68.6655C57.8919 68.68 58.9931 68.8526 60.0533 69.1781V55.7361C58.9705 55.5738 57.8777 55.4884 56.7829 55.4807H56.1949V65.7014C55.1291 65.4156 54.0273 65.2865 52.9242 65.3183Z" fill="#FE2C55"/>
<path d="M95.5456 45.285L95.5456 55.5061C88.965 55.4933 82.5554 53.4103 77.2245 49.5523V76.4079C77.1962 89.8084 66.3248 100.657 52.9242 100.657C47.9473 100.666 43.0902 99.1307 39.023 96.2623C42.3396 99.8296 46.6535 102.315 51.403 103.396C56.1524 104.476 61.1172 104.102 65.6506 102.32C70.184 100.539 74.076 97.434 76.8194 93.409C79.5629 89.3845 81.0308 84.6268 81.0319 79.7562V52.9765C86.3806 56.8092 92.7984 58.8649 99.3784 58.8536V45.6929C98.09 45.689 96.8056 45.5524 95.5456 45.285Z" fill="#FE2C55"/>
<path d="M77.2245 76.4079V49.5523C82.5715 53.3884 88.99 55.4445 95.5712 55.4294V45.2086C91.6834 44.3875 88.1678 42.3249 85.5545 39.3315C83.4675 37.9815 81.6774 36.2202 80.2934 34.1554C78.9095 32.0905 77.9609 29.7653 77.5054 27.3217H67.8471V80.2162C67.7531 82.5184 66.9442 84.7345 65.5328 86.5556C64.1214 88.3773 62.1777 89.714 59.9717 90.3801C57.7657 91.0457 55.407 91.0084 53.2235 90.2718C51.0399 89.5357 49.14 88.1373 47.7876 86.2718C45.5988 85.1195 43.8581 83.2684 42.8422 81.0134C41.8263 78.7579 41.5936 76.2277 42.1811 73.8249C42.7686 71.4221 44.1425 69.2847 46.0845 67.7526C48.0264 66.2205 50.4249 65.3815 52.8984 65.3692C54.0077 65.3792 55.1096 65.5514 56.1691 65.8805V55.6593C51.469 55.739 46.8936 57.1845 43.0009 59.8196C39.1081 62.4547 36.0661 66.1654 34.2458 70.4995C32.4256 74.8335 31.9056 79.6034 32.7494 84.2279C33.5932 88.8523 35.7643 93.1312 38.9979 96.5429C43.1051 99.3168 47.969 100.754 52.9242 100.657C66.3248 100.657 77.1962 89.8084 77.2245 76.4079Z" fill="white"/>
</svg>
