<svg width="128" height="128" viewBox="0 0 128 128" fill="none" xmlns="http://www.w3.org/2000/svg">
<rect width="128" height="128" fill="#403643"/>
<path fill-rule="evenodd" clip-rule="evenodd" d="M21.7083 61.1265V59.2917H19.9608V56.5244H17.4268V59.2917H16V61.1265H17.4268V66.027C17.4268 67.4548 18.5837 68.6117 20.0115 68.6117H21.6494V66.37H20.9543C20.4053 66.37 19.9608 65.9245 19.9608 65.3755V61.1265H21.7083Z" fill="#FEFEFE"/>
<path fill-rule="evenodd" clip-rule="evenodd" d="M23.0197 57.9515H25.437V56H23.0197V57.9515Z" fill="#FEFEFE"/>
<path fill-rule="evenodd" clip-rule="evenodd" d="M22.9903 68.1736H25.4076V59.292H22.9903V68.1736Z" fill="#FEFEFE"/>
<path fill-rule="evenodd" clip-rule="evenodd" d="M31.7735 66.5885C30.6024 66.5885 29.6526 65.3098 29.6526 63.7328C29.6526 62.1558 30.6024 60.8771 31.7735 60.8771C32.9446 60.8771 33.8945 62.1558 33.8945 63.7328C33.8945 65.3098 32.9446 66.5885 31.7735 66.5885ZM32.4464 58.942C31.3422 58.942 30.3457 59.49 29.6303 60.3708V59.3499H27.213V71.1755H29.6303V67.0066C30.3457 67.8865 31.3422 68.4345 32.4464 68.4345C34.6231 68.4345 36.3879 66.3105 36.3879 63.6892C36.3879 61.067 34.6231 58.942 32.4464 58.942Z" fill="#FEFEFE"/>
<path fill-rule="evenodd" clip-rule="evenodd" d="M42.492 66.5013C41.3209 66.5013 40.3711 65.2227 40.3711 63.6457C40.3711 62.0676 41.3209 60.79 42.492 60.79C43.6631 60.79 44.6129 62.0676 44.6129 63.6457C44.6129 65.2227 43.6631 66.5013 42.492 66.5013ZM43.1648 58.8548C42.0607 58.8548 41.0642 59.4028 40.3487 60.2836V59.2627H37.9315V71.0882H40.3487V66.9184C41.0642 67.7993 42.0607 68.3473 43.1648 68.3473C45.3416 68.3473 47.1063 66.2233 47.1063 63.601C47.1063 60.9798 45.3416 58.8548 43.1648 58.8548Z" fill="#FEFEFE"/>
<path fill-rule="evenodd" clip-rule="evenodd" d="M62.2935 60.8783C63.4646 60.8783 64.4134 62.1569 64.4134 63.7339C64.4134 65.3109 63.4646 66.5896 62.2935 66.5896C61.1224 66.5896 60.1726 65.3109 60.1726 63.7339C60.1726 62.1569 61.1224 60.8783 62.2935 60.8783ZM61.6207 68.5248C62.7238 68.5248 63.7213 67.9768 64.4368 67.096V68.1169H66.854V56.2914H64.4368V60.4602C63.7213 59.5793 62.7238 59.0313 61.6207 59.0313C59.4439 59.0313 57.6792 61.1563 57.6792 63.7776C57.6792 66.3988 59.4439 68.5248 61.6207 68.5248Z" fill="#FEFEFE"/>
<path fill-rule="evenodd" clip-rule="evenodd" d="M50.1065 62.9177C50.1065 61.7517 51.0067 60.8059 52.1158 60.8059C53.226 60.8059 54.1252 61.7517 54.1252 62.9177C54.1252 62.9227 54.1241 62.9268 54.1241 62.9319H50.1075C50.1075 62.9268 50.1065 62.9227 50.1065 62.9177ZM53.8481 65.6699C53.4848 66.2148 52.8851 66.573 52.2031 66.573C51.0939 66.573 50.1938 65.6272 50.1938 64.4612C50.1938 64.4562 50.1948 64.4521 50.1948 64.447H56.6956C56.7261 64.2126 56.7474 63.9751 56.7474 63.7316C56.7474 60.9875 54.7371 58.7631 52.2589 58.7631C49.7797 58.7631 47.7704 60.9875 47.7704 63.7316C47.7704 66.4746 49.7797 68.6991 52.2589 68.6991C54.116 68.6991 55.7093 67.4508 56.3922 65.6699H53.8481Z" fill="#FEFEFE"/>
<path fill-rule="evenodd" clip-rule="evenodd" d="M69.1649 68.1757H70.951V66.3115H69.1649V68.1757Z" fill="#9C84A4"/>
<path fill-rule="evenodd" clip-rule="evenodd" d="M90.8351 68.2529H92.9317V66.1563H90.8351V68.2529Z" fill="#9C84A4"/>
<path fill-rule="evenodd" clip-rule="evenodd" d="M85.1846 67.2913C83.6939 67.2913 82.4852 65.7356 82.4852 63.8155C82.4852 61.8966 83.6939 60.3409 85.1846 60.3409C86.6754 60.3409 87.884 61.8966 87.884 63.8155C87.884 65.7356 86.6754 67.2913 85.1846 67.2913ZM85.1085 58.9942C82.7806 58.9942 80.893 61.1801 80.893 63.8754C80.893 66.5718 82.7806 68.7576 85.1085 68.7576C87.4365 68.7576 89.323 66.5718 89.323 63.8754C89.323 61.1801 87.4365 58.9942 85.1085 58.9942Z" fill="#9C84A4"/>
<path fill-rule="evenodd" clip-rule="evenodd" d="M78.5884 65.1842C78.1612 66.3807 77.2255 67.2138 76.1356 67.2138C74.6448 67.2138 73.4362 65.6571 73.4362 63.7381C73.4362 61.8191 74.6448 60.2624 76.1356 60.2624C77.1342 60.2624 78.0039 60.9626 78.4717 61.9998H79.9756C79.3576 60.1944 77.8384 58.9158 76.0595 58.9158C73.7315 58.9158 71.844 61.1017 71.844 63.798C71.844 66.4944 73.7315 68.6792 76.0595 68.6792C77.9714 68.6792 79.5829 67.2047 80.0994 65.1842H78.5884Z" fill="#9C84A4"/>
<path fill-rule="evenodd" clip-rule="evenodd" d="M100.938 59.3596V65.1907C100.938 66.2786 100.056 67.1604 98.9674 67.1604C97.8806 67.1604 96.9987 66.2786 96.9987 65.1907V59.3596H95.1842V65.4759C95.1842 67.1391 96.5319 68.4858 98.1941 68.4858H98.5483C99.7448 68.4858 100.776 67.7856 101.261 66.7748V68.1753H102.758V59.3596H100.938Z" fill="#9C84A4"/>
<path fill-rule="evenodd" clip-rule="evenodd" d="M104.505 56.0199H105.864V63.0484L109.67 59.3596H111.767L108.31 62.6598L112 68.0585H110.174L107.107 63.5153L105.903 64.6802V68.1367H104.389L104.505 56.0199Z" fill="#9C84A4"/>
</svg>
