<svg width="128" height="128" viewBox="0 0 128 128" fill="none" xmlns="http://www.w3.org/2000/svg">
<rect width="128" height="128" fill="#FF1400"/>
<path d="M76.493 81.7822C76.0216 81.1537 75.5502 80.6821 75.0788 80.3678C73.9788 79.4249 71.9359 79.1108 69.7359 80.8394L69.5788 80.9965C66.5931 83.668 61.8788 88.068 58.1073 87.2822C55.1216 86.6537 54.9645 83.9822 55.1216 81.468C55.1216 80.8394 55.2788 80.2108 55.4359 79.4251C55.5931 78.9537 55.5931 78.4821 55.7502 78.0107C56.2216 76.1249 59.2073 62.6107 60.7788 55.8535C61.0931 54.7535 61.2502 53.6535 61.0931 52.7107C60.7788 51.2964 59.8359 50.6678 58.1073 50.3535C56.2216 49.8821 53.5502 50.8251 52.9216 52.868C52.1359 55.3822 51.3502 58.8392 49.1502 69.2107C48.9931 69.6821 48.8359 70.3107 48.6788 70.7821V70.6251C48.2073 71.7251 48.0502 72.8249 46.4788 72.6678C45.2216 72.1964 45.0645 70.6251 45.0645 69.6822V69.368L44.9073 66.6965C44.7502 62.768 44.7502 58.6822 44.9073 54.1251L45.0645 51.4535L45.3788 47.0537C45.3788 45.7965 45.2216 45.168 44.7502 44.6965C44.2788 44.2251 43.1788 44.068 41.9216 44.2251C40.9788 44.3822 40.0359 44.6965 39.4073 45.4822C38.7788 46.1108 38.6216 47.0535 38.4645 47.9964C38.1502 50.1964 37.9931 52.5535 37.9931 54.7535C37.6788 59.3108 37.6788 63.7107 37.9931 68.4249C37.9931 68.8964 37.9931 69.0537 37.9931 69.368V69.5249C37.9931 71.7249 37.6788 72.5107 36.4216 72.5107C35.1644 72.5107 34.693 71.2535 34.3787 70.3107L34.2216 69.6822C33.7502 67.0108 33.1216 64.3392 32.9645 61.8249L32.6502 60.2535C32.1787 57.5821 31.8645 55.6965 31.5502 53.3394C31.5502 52.868 31.2359 52.0822 30.7645 51.768C30.4502 51.6108 29.8216 51.4537 28.8787 52.0822H28.7216C27.3073 53.0251 26.6788 54.2822 26.6788 56.0108C26.6788 58.0537 26.993 60.5678 27.1502 62.4535C27.6216 67.1678 28.2502 70.3108 29.1931 73.9251L29.3502 74.3965C29.6644 75.4965 29.5073 76.2821 29.0359 76.5964C28.7216 76.9107 28.4073 76.9108 27.9359 76.7537C27.1502 76.4394 26.3645 75.0251 26.0502 74.3965L25.893 74.2392C24.6359 71.4107 23.8502 68.268 22.9073 65.1251V64.8107C22.9073 64.8107 22.7502 64.1821 22.2787 64.1821C21.8073 64.0249 21.3359 64.1822 20.5502 65.1251C19.4502 66.3822 20.2359 69.6822 20.7073 71.4108C22.593 80.8394 30.1359 95.2964 43.8073 100.954C54.4931 105.196 61.0931 99.6965 74.4502 88.068C75.5502 87.1251 76.8073 85.5537 77.1216 84.1394C77.1216 83.1965 77.1216 82.568 76.493 81.7822Z" fill="white"/>
<path d="M105.564 47.0537C101.479 34.9536 94.4073 29.2965 93.3073 28.3536C92.8359 28.0393 90.6359 26.3108 89.3788 25.8393C88.9073 25.6822 88.7502 25.6822 88.2788 25.6822H87.9645C87.6502 25.6822 87.493 25.6822 87.3359 25.8393L87.1788 26.3108C87.1788 26.7822 87.8073 27.5679 88.7502 28.3536C90.793 30.2393 93.4645 33.3822 94.5645 34.6393C95.193 35.425 95.5073 36.5251 94.5645 37.1536C94.2502 37.3108 93.9359 37.4679 93.3073 37.1536C92.993 36.9965 92.6788 36.6822 92.0502 36.2108C89.0645 33.225 82.3073 27.4108 78.2216 24.7393C76.3359 23.4822 74.7645 23.325 73.193 23.6393L72.8788 23.7965L72.7216 23.9536L72.4073 24.1108L72.2502 24.2679C72.0931 24.4251 71.9359 24.5822 71.9359 24.7393C71.7788 25.0536 71.7788 25.6822 72.4073 25.9965C74.293 27.5679 83.0931 35.5822 84.6645 37.3108C86.0788 38.8822 86.0788 39.8251 85.6073 40.2965C84.8216 41.0822 83.5645 40.2965 83.2502 40.1394H83.4073C83.093 39.9822 82.7788 39.668 82.3073 39.3537C77.9073 35.7393 68.3216 29.6108 65.9645 28.3536C63.4502 27.0965 62.5073 26.7822 60.4645 27.8822L60.1502 28.0393C59.2073 28.5108 58.8931 29.2965 58.8931 29.7679C58.7359 30.2393 59.0502 31.025 60.1502 31.8108C69.5788 38.0965 71.6216 39.1965 79.0073 44.8537C79.4788 45.3251 80.8931 46.5822 79.6359 47.8394C79.3216 48.1537 79.0073 48.3108 78.3788 48.1537H78.5359C77.9073 47.9965 77.1216 47.6822 76.3359 47.0537C72.2502 44.5394 65.0216 40.768 61.2502 39.5108C58.5788 38.4108 57.0073 39.5108 56.0645 40.768C55.2788 41.868 55.1216 42.968 55.2788 43.9108C55.5931 45.0108 56.5359 45.4822 57.1645 45.9537C62.5073 48.9394 66.5931 50.8251 71.7788 53.968C73.3502 55.068 73.8216 55.2251 75.3931 56.168C77.2788 57.4251 79.9502 59.1537 80.893 61.5108C81.0502 61.9822 81.2073 62.6108 81.2073 63.0822C81.2073 64.1822 80.893 65.1251 79.4788 66.068C76.9645 67.7965 72.4073 67.3251 68.3216 67.0108C67.5359 67.0108 66.1216 66.8537 65.1788 66.8537C63.1359 66.8537 62.0359 67.3251 61.4073 68.268C60.9359 69.2108 60.7788 70.6251 60.7788 71.4108C60.7788 71.568 60.7788 71.8822 60.9359 72.1965C60.9359 72.668 61.2502 72.9822 61.2502 73.1394V73.2965C62.1931 74.5537 64.0788 74.868 66.1216 75.1822C69.8931 75.4965 73.8216 75.4965 78.2216 75.6537C88.7502 75.968 100.85 75.1822 105.407 68.7394C108.236 64.3394 107.922 53.968 105.564 47.0537Z" fill="white"/>
</svg>
