<svg width="128" height="129" viewBox="0 0 128 129" fill="none" xmlns="http://www.w3.org/2000/svg">
<rect width="128" height="128" transform="translate(0 0.111328)" fill="#1FA2DB"/>
<path d="M86.6478 59.6884C86.7537 58.3695 86.1376 57.6763 85.7525 56.9062C84.2025 53.8255 82.9414 50.6293 82.0942 47.2791C81.2855 44.054 80.8716 40.8001 82.3926 37.652C83.0858 36.2176 82.2771 35.8325 81.1893 35.4282C75.182 33.2139 69.0014 32.1261 62.5898 32.7711C59.4995 33.0792 56.7172 34.1959 54.2527 36.1406C52.6546 37.4017 51.9422 38.8265 52.4524 40.9349C53.0878 43.5919 53.4729 46.3068 53.9735 49.0023C53.7906 49.0601 53.5981 49.1275 53.4151 49.1853C52.8183 47.9145 52.0674 46.6918 51.6534 45.3633C51.0084 43.3127 50.0842 43.0336 48.1395 43.9674C40.6689 47.5775 32.871 48.4151 24.7842 46.3453C24.2162 46.2009 23.6097 45.7676 22.9551 46.3068C23.0225 46.5282 23.0321 46.7785 23.1476 46.9614C30.0984 57.9266 45.7231 64.6848 58.4886 62.2492C59.7594 62.0085 60.9435 61.5079 61.9832 60.7281C63.0807 59.9002 63.3214 58.9856 62.118 57.9844C61.6752 57.6186 60.6836 57.5512 61.0109 56.6944C61.2612 56.0494 62.0891 56.1071 62.686 55.9435C69.011 54.3069 75.2012 54.6053 81.2374 57.195C82.9895 57.9459 84.7031 58.7738 86.6478 59.6691V59.6884Z" fill="white"/>
<path d="M105.045 95.636C103.312 94.654 101.656 93.4699 99.8272 92.7286C97.4493 91.7659 96.5732 90.1293 96.1593 87.684C93.4252 71.5202 90.5563 55.3852 87.7163 39.2406C87.4949 37.9794 87.6586 36.0444 85.6946 36.3428C83.4323 36.6894 84.7416 38.5474 84.9245 39.6449C87.6201 55.4911 90.3734 71.318 93.1749 87.1449C93.5118 89.0607 93.1268 89.7346 91.1339 89.0896C78.9557 85.1617 66.5849 85.1521 54.1467 87.5011C47.4944 88.7623 41.025 90.6588 34.9022 93.6721C58.5174 86.6924 81.9497 84.3531 105.045 95.6264V95.636Z" fill="white"/>
<path d="M62.7532 52.1119C62.3874 51.4957 62.6666 50.947 62.8687 50.4656C63.9758 47.8663 64.2647 45.604 61.0781 44.1695C60.0384 43.6978 60.1635 42.9373 61.3862 42.6485C61.7712 42.5618 62.166 42.4174 62.5607 42.427C64.9289 42.4752 65.9205 41.0889 66.4019 38.9805C66.604 38.0949 66.6907 37.084 67.8267 36.1021C68.385 39.9721 69.9831 42.4559 74.2191 40.6557C74.5079 42.0131 73.6126 42.3885 73.0638 42.7929C70.994 44.3236 70.272 46.1335 71.3887 48.5884C71.6583 49.1852 72.1589 50.0806 71.4657 50.5812C70.7822 51.0722 70.0987 50.3212 69.5981 49.888C67.7978 48.3092 66.3634 48.7617 64.9193 50.4368C64.3417 51.1107 63.7833 51.9771 62.7436 52.1215L62.7532 52.1119Z" fill="#1FA3DC"/>
</svg>
