<svg width="128" height="128" viewBox="0 0 128 128" fill="none" xmlns="http://www.w3.org/2000/svg">
<rect width="128" height="128" fill="white"/>
<path d="M42.2675 59.3711C42.2675 57.7419 42.2675 56.1132 42.2675 54.4849C42.2675 54.0165 42.2675 54.0139 42.7452 54.0139C43.2228 54.0139 43.7294 54.0229 44.2209 54.0139C44.4924 54.0063 44.598 54.1081 44.5905 54.3831C44.5792 55.2193 44.5905 56.0542 44.5905 56.8904C44.5905 57.2964 44.6056 57.3066 44.9575 57.1552C45.4603 56.9388 45.9631 56.7733 46.5326 56.8077C47.7431 56.8815 48.8643 57.7928 49.0592 59.086C49.2917 60.6451 49.1145 62.2106 49.1748 63.7711C49.1849 64.0142 49.1748 64.2573 49.1748 64.5004C49.1748 64.7129 49.0718 64.8084 48.8656 64.8084C48.2999 64.8084 47.7343 64.8084 47.1699 64.8084C46.8883 64.8084 46.8506 64.6378 46.8519 64.4113C46.8519 63.0681 46.8519 61.7249 46.8519 60.3817C46.8582 60.2339 46.8459 60.0859 46.8154 59.9413C46.6507 59.3049 46.2937 59.0503 45.6728 59.1242C44.9889 59.2018 44.6018 59.5849 44.5942 60.2467C44.5817 61.5577 44.5942 62.8699 44.5942 64.1809C44.5942 64.7842 44.5716 64.8071 43.977 64.8084C43.5484 64.8084 43.1198 64.8084 42.6898 64.8084C42.3127 64.8084 42.2738 64.7677 42.2725 64.3884C42.2725 62.7176 42.2725 61.0465 42.2725 59.3749L42.2675 59.3711Z" fill="#CCC3BD"/>
<path d="M23.1833 64.806C21.0125 64.9002 19.1382 62.8968 19.1407 60.7509C19.1407 58.5325 21.0263 56.6589 23.2311 56.6602C25.324 56.6602 27.2008 58.4968 27.2096 60.7764C27.2171 62.9681 25.2273 64.9066 23.1833 64.806ZM23.2122 58.9627C22.7484 58.9657 22.3047 59.1551 21.9787 59.4892C21.6527 59.8234 21.4711 60.2749 21.4738 60.7446C21.465 61.6724 22.2531 62.515 23.1293 62.5265C23.3597 62.5282 23.5881 62.4831 23.801 62.3939C24.0139 62.3046 24.207 62.173 24.3687 62.0069C24.5305 61.8407 24.6577 61.6434 24.7427 61.4266C24.8278 61.2097 24.869 60.9778 24.864 60.7446C24.864 59.7365 24.1487 58.9627 23.2122 58.9627Z" fill="#CCC3BD"/>
<path d="M34.8511 59.4846C34.8159 60.1515 34.9165 60.989 34.8008 61.8201C34.6236 63.1031 33.9636 64.0335 32.7795 64.5464C32.3368 64.7393 31.8589 64.8357 31.3769 64.8292C30.895 64.8227 30.4198 64.7134 29.9823 64.5086C29.5449 64.3037 29.1549 64.0079 28.8379 63.6403C28.5209 63.2727 28.2839 62.8416 28.1424 62.375C28.0153 61.9494 27.9497 61.5074 27.9475 61.0628C27.9387 59.8155 27.9475 58.5682 27.9475 57.3208C27.9475 56.8677 28.0053 56.8117 28.4503 56.8117C28.9217 56.8117 29.3931 56.8219 29.8632 56.8117C30.1624 56.8028 30.2692 56.9212 30.2667 57.2215C30.2579 58.5529 30.2554 59.8855 30.2667 61.2168C30.2667 61.7005 30.4201 62.1574 30.8714 62.3941C31.6482 62.804 32.4904 62.2859 32.5206 61.3937C32.5419 60.793 32.5268 60.1897 32.5268 59.5864C32.5268 58.8469 32.5268 58.1074 32.5268 57.3679C32.5268 56.8894 32.6098 56.8168 33.0762 56.8155C33.5425 56.8143 33.9963 56.8257 34.4589 56.8155C34.7392 56.8079 34.8561 56.9148 34.8511 57.205C34.8435 57.9025 34.8511 58.6102 34.8511 59.4846Z" fill="#CCC3BD"/>
<path d="M15.009 58.6037C15.009 57.2406 15.009 56.1409 15.009 55.0399C15.009 54.5575 15.0542 54.5194 15.5331 54.5181C15.9832 54.5181 16.4332 54.5181 16.8832 54.5181C17.2905 54.5181 17.3231 54.555 17.3257 54.9776C17.3257 55.4536 17.3382 55.9296 17.3257 56.4043C17.3156 56.7111 17.4426 56.8244 17.7354 56.8065C17.9755 56.7925 18.2169 56.8065 18.457 56.8065C18.6581 56.8065 18.775 56.888 18.775 57.1044C18.775 57.644 18.775 58.1833 18.775 58.7221C18.775 58.9359 18.6656 59.025 18.462 59.0237C18.1792 59.0237 17.8976 59.0237 17.6148 59.0237C17.4174 59.0237 17.3294 59.1116 17.3294 59.3101C17.3294 60.0827 17.3169 60.854 17.3407 61.6253C17.3558 62.1688 17.7417 62.5061 18.2885 62.5162C18.7712 62.5264 18.7712 62.5264 18.7712 63.0126C18.764 63.4034 18.7774 63.7943 18.8115 64.1836C18.863 64.6265 18.7059 64.7792 18.2659 64.8034C17.5117 64.8454 16.7814 64.7525 16.1466 64.2943C15.4715 63.7992 15.1485 63.0915 15.0655 62.2719C14.9348 60.9609 15.0467 59.6499 15.009 58.6037Z" fill="#CCC3BD"/>
<path d="M39.6202 56.6857C40.1771 56.6335 40.6899 56.776 41.189 56.9733C41.5661 57.1222 41.5988 57.2279 41.4165 57.5906C41.1915 58.0323 40.969 58.4816 40.7528 58.9207C40.6472 59.1358 40.519 59.1663 40.2965 59.0709C39.5121 58.7336 38.592 59.09 38.1457 59.8791C37.9481 60.2487 37.8841 60.6765 37.9649 61.0888C38.0457 61.5011 38.2662 61.8718 38.5882 62.137C39.1237 62.5494 39.7082 62.6461 40.3254 62.3674C40.5592 62.2592 40.6673 62.3203 40.7679 62.5277C41.0042 63.0101 41.2531 63.4861 41.4881 63.9698C41.5862 64.1696 41.5485 64.3185 41.3222 64.428C39.1639 65.4691 36.763 64.3376 35.9019 62.2388C34.9931 60.0242 36.2476 57.5448 38.4248 56.8397C38.8076 56.7015 39.2154 56.6489 39.6202 56.6857Z" fill="#CCC3BD"/>
<path d="M57.4309 56.6143C59.6936 56.566 61.5074 58.5452 61.476 60.8018C61.4634 61.8952 61.0251 62.9393 60.2563 63.7072C59.4876 64.4752 58.4505 64.9048 57.3706 64.9027C55.0853 64.8849 53.3054 63.1628 53.2765 60.7356C53.275 60.1868 53.382 59.6431 53.5914 59.1369C53.8007 58.6306 54.108 58.1718 54.4952 57.7877C54.8824 57.4036 55.3416 57.1019 55.8458 56.9004C56.35 56.6989 56.889 56.6016 57.4309 56.6143Z" fill="#E6186C"/>
<path d="M73.282 64.9294H71.8377C70.2991 64.9294 69.0019 64.3949 68.1433 63.0674C67.5374 62.1306 67.2483 61.1124 67.5148 59.9452C67.7561 58.8927 68.2439 58.0488 69.0823 57.3997C69.5267 57.0498 70.0404 56.8011 70.5884 56.6706C71.1364 56.5401 71.7057 56.5309 72.2575 56.6436C73.7899 56.944 74.9224 57.8172 75.3737 59.4119C75.5407 59.9908 75.6254 60.5908 75.6251 61.1938C75.6251 62.2515 75.6251 63.3092 75.6251 64.3656C75.6251 64.8251 75.5233 64.9282 75.0733 64.9307C74.4749 64.932 73.8791 64.9294 73.282 64.9294ZM73.1111 60.7776C73.2104 59.6321 72.3569 59.025 71.5146 59.0199C70.6724 59.0148 69.9044 59.7047 69.9094 60.7445C69.9094 61.7259 70.6046 62.4513 71.5436 62.4526C72.3732 62.4564 73.2481 61.7933 73.1111 60.7776Z" fill="#E6186C"/>
<path d="M61.8783 60.7178C61.8267 59.0187 62.6488 57.8032 64.0743 57.0382C65.2169 56.426 66.44 56.4273 67.6392 56.9797C67.873 57.0879 67.9434 57.2342 67.8215 57.4799C67.5826 57.947 67.3388 58.4128 67.115 58.8888C66.9743 59.1841 66.7555 59.2134 66.4865 59.1205C66.2233 59.0214 65.9395 58.9919 65.6619 59.0348C65.3843 59.0777 65.1221 59.1915 64.9 59.3655C64.6779 59.5395 64.5034 59.768 64.3928 60.0293C64.2821 60.2907 64.2392 60.5763 64.2679 60.8591C64.386 62.1688 65.4834 62.7517 66.6562 62.2783C66.8398 62.2044 66.9453 62.2121 67.0333 62.3954C67.2847 62.9045 67.5613 63.4021 67.8077 63.9138C67.9698 64.2498 67.9208 64.3402 67.5877 64.5005C66.7178 64.9167 65.804 65.0529 64.8863 64.7716C63.6394 64.3898 62.7067 63.6019 62.1687 62.3737C62.0433 62.1189 61.9488 61.8496 61.8871 61.5719C61.8602 61.288 61.8573 61.0022 61.8783 60.7178Z" fill="#E6186C"/>
<path d="M78.7602 59.4107V64.2969C78.7602 64.848 78.6822 64.9333 78.1505 64.9333C77.6892 64.9333 77.2291 64.9333 76.7678 64.9333C76.4121 64.9333 76.319 64.8442 76.314 64.4853C76.3052 63.9558 76.314 63.4276 76.314 62.8981C76.314 60.098 76.314 57.2949 76.314 54.4889C76.314 54.0167 76.3241 54.0065 76.7854 54.0052H78.2624C78.7501 54.0052 78.7589 54.0154 78.7652 54.4965V59.4107H78.7602Z" fill="#E6186C"/>
<path d="M52.6304 59.4082C52.6304 61.0475 52.6304 62.686 52.6304 64.3236C52.6304 64.8429 52.5449 64.9282 52.0258 64.9295C51.6068 64.9295 51.1878 64.9295 50.7687 64.9295C50.2659 64.9295 50.1792 64.8404 50.1792 64.3415C50.1792 62.2057 50.1792 60.0704 50.1792 57.9356C50.1792 56.7633 50.1792 55.5898 50.1792 54.4163C50.1792 54.0345 50.2106 54.0027 50.5928 54.0001C51.1257 54.0001 51.6587 54.0001 52.193 54.0001C52.5952 54.0001 52.6241 54.0307 52.6241 54.4303C52.6241 56.09 52.6241 57.7493 52.6241 59.4082H52.6304Z" fill="#E6186C"/>
<path d="M112.994 61.9818C112.994 62.7454 112.988 63.5091 112.994 64.2728C112.994 64.535 112.896 64.6304 112.642 64.6241C112.192 64.6126 111.742 64.6241 111.292 64.6241C110.842 64.6241 110.797 64.5617 110.795 64.1315C110.795 62.8409 110.795 61.5507 110.795 60.261C110.799 60.0599 110.778 59.8591 110.735 59.6628C110.702 59.4947 110.622 59.3397 110.505 59.2158C110.389 59.0918 110.239 59.0041 110.075 58.9627C109.723 58.8597 109.394 58.8902 109.116 59.1702C108.988 59.2867 108.887 59.4296 108.818 59.5892C108.75 59.7488 108.716 59.9215 108.719 60.0955C108.734 61.4498 108.725 62.8027 108.719 64.157C108.719 64.5795 108.685 64.6126 108.275 64.6152C107.815 64.6152 107.354 64.6037 106.892 64.6152C106.601 64.6253 106.515 64.5057 106.515 64.2219C106.525 62.9631 106.515 61.7056 106.515 60.4468C106.532 60.1506 106.489 59.854 106.39 59.575C106.17 59.0658 105.73 58.8278 105.229 58.9246C104.729 59.0213 104.421 59.3891 104.388 59.9988C104.371 60.3246 104.388 60.6543 104.388 60.9814C104.388 62.0492 104.388 63.1184 104.388 64.1862C104.388 64.5681 104.348 64.6075 103.976 64.6101C103.505 64.6101 103.033 64.6101 102.562 64.6101C102.319 64.6101 102.185 64.5299 102.194 64.2639C102.211 62.6678 102.114 61.0679 102.27 59.4782C102.396 58.2296 103.386 56.995 104.784 56.7939C105.704 56.6667 106.554 56.7748 107.307 57.3654C107.518 57.5309 107.709 57.5143 107.936 57.3489C109.372 56.2797 111.455 56.6527 112.389 58.0514C112.78 58.6175 112.991 59.2905 112.994 59.981C112.996 60.6492 112.994 61.3161 112.994 61.9818Z" fill="#E1DBD7"/>
<path d="M97.3352 64.7424C95.2687 64.8837 93.3555 62.874 93.3718 60.7523C93.3881 58.5885 95.1756 56.7265 97.3729 56.7417C99.5941 56.757 101.291 58.4969 101.306 60.8057C101.324 62.9733 99.4256 64.8812 97.3352 64.7424ZM97.3239 62.5787C97.7969 62.5631 98.2459 62.3643 98.5783 62.0233C98.9106 61.6822 99.101 61.225 99.1101 60.7459C99.1101 59.748 98.2553 58.88 97.3402 58.8953C96.8661 58.9093 96.4166 59.1122 96.0894 59.4599C95.7622 59.8076 95.5838 60.2721 95.593 60.7523C95.603 61.7819 96.366 62.5851 97.3264 62.5851L97.3239 62.5787Z" fill="#E1DBD7"/>
<path d="M91.0148 64.7463C89.4561 64.7297 88.3097 63.9966 87.5668 62.6296C86.5135 60.695 87.147 58.5567 88.8691 57.3909C90.0281 56.6094 91.3165 56.5445 92.6213 57.0536C92.8614 57.149 92.9381 57.284 92.7948 57.5423C92.556 57.9751 92.3435 58.4244 92.1311 58.8724C92.0406 59.0633 91.9363 59.1066 91.7339 59.0328C90.9947 58.7642 90.3247 58.8915 89.783 59.4808C89.2412 60.0701 89.1909 60.7268 89.4411 61.4549C89.744 62.3458 90.8364 62.846 91.666 62.4731C91.9174 62.3585 92.0795 62.4438 92.1952 62.6831C92.4076 63.1184 92.6289 63.5499 92.8426 63.9851C92.9444 64.1913 92.8589 64.3199 92.6628 64.4103C92.1399 64.647 91.6044 64.8074 91.0148 64.7463Z" fill="#E1DBD7"/>
<path d="M84.6179 60.6695C84.7612 61.7679 83.748 62.501 83.078 62.5787C82.8367 62.601 82.5935 62.5746 82.3623 62.501C82.1312 62.4273 81.9168 62.308 81.7315 62.1498C81.5463 61.9916 81.3939 61.7977 81.2833 61.5795C81.1726 61.3612 81.1059 61.1228 81.0869 60.8782C81.0278 59.9428 81.7154 59.0314 82.5463 58.9691C83.7593 58.8774 84.5136 59.5049 84.6179 60.6695Z" fill="#E1DBD7"/>
<path d="M90.9483 69.5051C90.9483 70.1606 90.9483 70.8161 90.9483 71.4703C90.9483 71.6052 90.9659 71.7617 90.8012 71.8203C90.7283 71.8532 90.6455 71.8558 90.5707 71.8275C90.4959 71.7991 90.4351 71.7421 90.4015 71.6688C90.3198 71.5237 90.2318 71.5696 90.1161 71.6345C89.1268 72.1958 88.0747 71.889 87.5518 70.9026C87.405 70.5913 87.3505 70.2434 87.3952 69.9014C87.4398 69.5593 87.5815 69.2377 87.8032 68.9756C88.4795 68.198 89.289 68.0847 90.1664 68.6663C90.3399 68.7809 90.3889 68.716 90.3902 68.5391C90.3902 68.1903 90.3902 67.8416 90.3902 67.4928C90.3902 67.3045 90.4304 67.1543 90.6604 67.1505C90.8905 67.1466 90.9546 67.3006 90.9533 67.5043C90.9533 67.8429 90.9533 68.1814 90.9533 68.5225L90.9483 69.5051ZM90.4316 70.0982C90.3336 69.4147 89.9691 68.8776 89.1746 68.8674C88.3802 68.8573 87.9716 69.5102 87.9578 70.1249C87.9415 70.8097 88.565 71.4168 89.191 71.3977C89.5232 71.3843 89.8375 71.2418 90.0685 70.9997C90.2996 70.7577 90.4296 70.4348 90.4316 70.0982Z" fill="#C0B7B2"/>
<path d="M32.2816 71.483C32.1735 71.5683 32.2376 71.7236 32.127 71.7936C32.0777 71.8242 32.022 71.8427 31.9644 71.8476C31.9068 71.8524 31.8488 71.8435 31.7952 71.8216C31.6468 71.7656 31.6519 71.6268 31.6519 71.5008C31.6519 70.3596 31.6519 69.2179 31.6519 68.0758C31.6519 67.876 31.6519 67.6749 31.6519 67.4738C31.6519 67.2727 31.7223 67.1492 31.9448 67.1556C32.1673 67.1619 32.2125 67.2828 32.2125 67.4661C32.2125 67.8047 32.2125 68.1432 32.2125 68.4844C32.2125 68.5633 32.1761 68.6676 32.2716 68.7122C32.3458 68.7465 32.4086 68.6753 32.4639 68.6307C33.2684 67.9943 34.6009 68.2222 35.1301 69.5777C35.4003 70.2802 35.0446 71.1941 34.3947 71.6408C34.0919 71.8402 33.7349 71.9384 33.3741 71.9215C33.0133 71.9046 32.6668 71.7735 32.3835 71.5467C32.3509 71.5232 32.3169 71.502 32.2816 71.483ZM32.2125 70.0702C32.1396 70.8695 32.7731 71.357 33.4054 71.343C34.1332 71.3277 34.5694 70.8517 34.6134 70.0957C34.6511 69.4593 34.0603 68.8229 33.3991 68.8547C32.6713 68.8967 32.2138 69.3295 32.2125 70.0702Z" fill="#C0B7B2"/>
<path d="M93.5226 69.4695V67.5349C93.5226 67.3465 93.5302 67.1632 93.7866 67.153C94.043 67.1429 94.0883 67.3198 94.087 67.5349C94.087 67.862 94.087 68.1904 94.087 68.5175C94.087 68.7186 94.1386 68.7644 94.3221 68.6447C95.3918 67.9676 96.5596 68.3813 97.0008 69.5891C97.2384 70.2383 96.909 71.1534 96.2629 71.6396C95.7601 72.0214 94.8337 72.0011 94.3171 71.5963C94.2165 71.5174 94.1285 71.385 94.0657 71.6332C94.0254 71.805 93.8846 71.8572 93.7225 71.8343C93.5239 71.8063 93.5214 71.6472 93.5214 71.4958C93.5214 70.8225 93.5226 70.1453 93.5226 69.4695ZM96.4766 70.1275C96.4825 69.967 96.4569 69.8069 96.4014 69.6564C96.3458 69.5059 96.2614 69.368 96.1529 69.2508C96.0444 69.1335 95.9141 69.0392 95.7695 68.9732C95.6248 68.9071 95.4687 68.8708 95.3101 68.8662C94.5194 68.8586 94.0531 69.3002 94.043 70.0652C94.0342 70.8696 94.4817 71.3379 95.2674 71.3379C95.4258 71.3407 95.5831 71.3113 95.7301 71.2516C95.8771 71.1919 96.0109 71.1031 96.1235 70.9903C96.2362 70.8776 96.3254 70.7432 96.3861 70.595C96.4467 70.4468 96.4775 70.2879 96.4766 70.1275Z" fill="#C0B7B2"/>
<path d="M79.4503 70.5959C79.6552 70.3554 79.7017 70.0665 79.8274 69.817C80.0109 69.4352 80.1643 69.0457 80.3402 68.6639C80.437 68.45 80.5841 68.4386 80.706 68.641C80.9713 69.0839 81.1322 69.5764 81.3421 70.041C81.4175 70.209 81.4565 70.4903 81.6212 70.4967C81.8223 70.5056 81.8198 70.2077 81.8977 70.0474C82.1026 69.6324 82.266 69.1972 82.447 68.7746C82.4722 68.7056 82.506 68.6401 82.5476 68.5799C82.6532 68.4411 82.7852 68.3049 82.9699 68.3966C83.1748 68.4997 83.0617 68.6702 83.0026 68.8102C82.6142 69.7305 82.2208 70.6494 81.8298 71.5696C81.7909 71.6613 81.7431 71.7453 81.635 71.7542C81.5269 71.7631 81.4804 71.6638 81.4414 71.5773C81.19 71.0325 80.9386 70.4865 80.6872 69.9417C80.6545 69.8692 80.6545 69.7546 80.5514 69.747C80.4484 69.7394 80.4119 69.8514 80.3755 69.9379C80.1467 70.4687 79.9179 71.0007 79.6841 71.5302C79.6388 71.6333 79.5948 71.7771 79.4729 71.7847C79.3309 71.7949 79.268 71.646 79.2215 71.5302C78.8255 70.5998 78.4371 69.6668 78.0487 68.73C78.0173 68.68 78.0047 68.6202 78.0132 68.5615C78.0218 68.5029 78.0509 68.4493 78.0952 68.4106C78.147 68.3722 78.211 68.3544 78.2749 68.3605C78.3388 68.3666 78.3983 68.3962 78.4422 68.4437C78.6144 68.5926 78.6734 68.8115 78.7614 69.0139C78.9827 69.537 79.1612 70.0779 79.4503 70.5959Z" fill="#C0B7B2"/>
<path d="M67.5878 70.2026C67.2208 70.2026 66.855 70.2026 66.4892 70.2026C66.1913 70.2026 66.1322 70.2968 66.2114 70.6035C66.3371 71.0796 66.943 71.455 67.4382 71.3774C67.6152 71.3586 67.7862 71.3025 67.9404 71.2126C68.0946 71.1227 68.2284 71.0011 68.3332 70.8556C68.4677 70.6659 68.6224 70.5641 68.826 70.7423C69.0296 70.9205 68.8712 71.0923 68.7657 71.2374C68.1912 72.0265 67.3176 72.0303 66.6501 71.7949C65.9122 71.5339 65.5024 70.7906 65.5778 69.9761C65.6533 69.1615 66.1975 68.4971 66.9254 68.3456C67.3108 68.2557 67.7149 68.2999 68.0725 68.471C68.4301 68.6421 68.7203 68.9302 68.8964 69.2888C68.912 69.3163 68.9258 69.3448 68.9379 69.374C69.2182 70.1046 69.1516 70.2001 68.3709 70.2013L67.5878 70.2026ZM67.2912 69.6935C67.5727 69.6935 67.8543 69.6935 68.1346 69.6935C68.3747 69.6935 68.4351 69.584 68.3068 69.3728C68.0655 68.9769 67.6934 68.8637 67.261 68.8751C67.0618 68.8686 66.865 68.9211 66.6948 69.0262C66.5246 69.1314 66.3885 69.2846 66.3031 69.467C66.2114 69.6515 66.2868 69.6935 66.4477 69.6935C66.728 69.691 67.0096 69.6897 67.2924 69.6897L67.2912 69.6935Z" fill="#C0B7B2"/>
<path d="M76.2611 70.2026C75.884 70.2026 75.5069 70.2103 75.1298 70.2026C74.8608 70.2026 74.8093 70.3299 74.8646 70.5616C74.9815 71.0707 75.5672 71.4525 76.0877 71.3825C76.27 71.3644 76.4464 71.3073 76.6053 71.2149C76.7641 71.1225 76.9018 70.997 77.0091 70.8467C77.1159 70.6939 77.2341 70.5921 77.4214 70.7308C77.6087 70.8696 77.5471 71.021 77.4553 71.1776C77.0631 71.814 76.4597 71.9743 75.7721 71.9043C75.0431 71.8318 74.5327 71.422 74.3203 70.7308C74.0928 69.9965 74.226 69.3002 74.8231 68.7606C75.3523 68.2795 75.9544 68.1891 76.6307 68.436C77.273 68.6715 77.5596 69.1882 77.7369 69.7954C77.8148 70.0639 77.708 70.1937 77.4239 70.2001C77.0367 70.2077 76.6495 70.2001 76.2624 70.2001L76.2611 70.2026ZM76.0235 68.8662C75.5082 68.8662 75.1198 69.0915 74.9664 69.4593C74.9073 69.6032 74.9161 69.6859 75.0921 69.6872C75.6666 69.6872 76.241 69.6973 76.8142 69.6872C77.0568 69.6872 77.097 69.5599 76.9563 69.3562C76.8561 69.1997 76.7175 69.0722 76.5539 68.9863C76.3904 68.9004 76.2076 68.859 76.0235 68.8662Z" fill="#C0B7B2"/>
<path d="M85.4224 70.2026C85.0453 70.2026 84.6682 70.2026 84.2911 70.2026C83.9906 70.2026 83.9001 70.3617 84.0221 70.6328C84.4193 71.5238 85.5079 71.651 86.1276 70.8937C86.1807 70.816 86.2456 70.7473 86.3199 70.6901C86.433 70.6188 86.5386 70.6748 86.6279 70.7626C86.7398 70.8746 86.7134 70.9803 86.6417 71.1037C86.291 71.7083 85.6562 71.9692 84.8907 71.9069C84.0309 71.8369 83.4174 70.965 83.3822 70.1797C83.3667 69.8676 83.4321 69.5569 83.5719 69.2783C83.7117 68.9997 83.9211 68.763 84.1792 68.5917C84.4373 68.4205 84.7352 68.3206 85.0433 68.3019C85.3513 68.2833 85.6589 68.3467 85.9353 68.4856C86.3639 68.6995 86.8604 69.4275 86.8642 69.9111C86.8642 70.1122 86.7787 70.2013 86.5826 70.2001C86.1955 70.2001 85.8083 70.2001 85.4211 70.2001L85.4224 70.2026ZM85.1157 69.6935C85.3985 69.6935 85.6801 69.6935 85.9629 69.6935C86.1628 69.6935 86.2495 69.5891 86.1351 69.4109C86.0296 69.239 85.8809 69.0985 85.7042 69.0038C85.5276 68.909 85.3293 68.8632 85.1295 68.8713C84.9352 68.8616 84.7419 68.906 84.5706 68.9995C84.3994 69.0931 84.2566 69.2323 84.1578 69.402C84.0321 69.6019 84.1138 69.6948 84.3313 69.6948L85.1157 69.6935Z" fill="#C0B7B2"/>
<path d="M57.661 70.2026C57.2839 70.2026 56.9068 70.2026 56.5297 70.2026C56.2293 70.2026 56.1375 70.3591 56.2594 70.6315C56.3429 70.8295 56.4759 71.002 56.6451 71.1322C56.8144 71.2624 57.0142 71.3458 57.225 71.3742C57.4357 71.4025 57.6501 71.3749 57.8471 71.294C58.0441 71.2131 58.2169 71.0818 58.3486 70.9128C58.3888 70.8644 58.4215 70.8097 58.463 70.7626C58.5073 70.712 58.5686 70.6799 58.635 70.6727C58.7014 70.6655 58.7681 70.6837 58.8219 70.7237C58.8757 70.7637 58.9129 70.8227 58.926 70.889C58.9391 70.9553 58.9273 71.0241 58.8929 71.0821C58.7702 71.3166 58.5903 71.5154 58.3703 71.6595C58.1502 71.8037 57.8974 71.8884 57.6359 71.9056C56.6818 71.9832 56.0973 71.6803 55.7503 70.7842C55.6201 70.4752 55.5809 70.1346 55.6376 69.8035C55.6942 69.4724 55.8443 69.165 56.0696 68.9183C56.2738 68.6772 56.5388 68.4968 56.8364 68.3964C57.134 68.2959 57.4529 68.2793 57.7592 68.3481C58.0654 68.417 58.3473 68.5689 58.5749 68.7875C58.8025 69.006 58.9672 69.2831 59.0513 69.5891C59.0664 69.64 59.0852 69.6884 59.1016 69.7393C59.2197 70.1008 59.1531 70.1949 58.7672 70.1988C58.4014 70.1988 58.0344 70.1988 57.6686 70.1988L57.661 70.2026ZM57.3606 69.6935C57.6422 69.6935 57.9237 69.6935 58.2053 69.6935C58.3788 69.6935 58.4643 69.6184 58.3876 69.4389C58.2619 69.1182 57.7704 68.8662 57.3053 68.8802C56.8829 68.8916 56.4857 69.1589 56.3613 69.4924C56.2946 69.6706 56.3801 69.6986 56.5159 69.6998C56.7974 69.6909 57.079 69.6897 57.3618 69.6884L57.3606 69.6935Z" fill="#C0B7B2"/>
<path d="M48.8593 70.2025C48.4935 70.2025 48.1277 70.2025 47.7607 70.2025C47.4188 70.2025 47.3346 70.3502 47.4791 70.6658C47.5656 70.8531 47.6967 71.0155 47.8607 71.1386C48.0247 71.2617 48.2164 71.3415 48.4185 71.3708C48.6205 71.4001 48.8266 71.378 49.0182 71.3065C49.2097 71.2349 49.3806 71.1162 49.5155 70.9611C49.5645 70.9064 49.6035 70.8427 49.65 70.7855C49.6691 70.7542 49.6946 70.7275 49.7248 70.7072C49.755 70.6869 49.7891 70.6734 49.825 70.6678C49.8608 70.6621 49.8974 70.6643 49.9323 70.6743C49.9672 70.6843 49.9995 70.7018 50.0271 70.7256C50.1691 70.8351 50.1729 70.956 50.0799 71.1075C49.7103 71.726 49.0743 72.0061 48.266 71.8941C47.8737 71.8325 47.5153 71.6328 47.2539 71.3302C46.9925 71.0276 46.8448 70.6414 46.8368 70.2394C46.8091 69.5598 47.0291 69.0112 47.5633 68.6192C48.5752 67.8772 50.0535 68.4919 50.2886 69.7265C50.3602 70.1083 50.2798 70.1987 49.8913 70.2013C49.5507 70.2038 49.205 70.2013 48.8593 70.2025ZM48.5727 69.6934C48.8442 69.6934 49.1158 69.7011 49.386 69.6934C49.6299 69.6832 49.6827 69.5763 49.5595 69.3739C49.151 68.7057 48.0284 68.7006 47.6048 69.365C47.4791 69.57 47.5219 69.682 47.7607 69.6921C48.0309 69.6985 48.3025 69.6883 48.5727 69.6896V69.6934Z" fill="#C0B7B2"/>
<path d="M27.8218 70.1187C27.8218 70.5731 27.8218 71.0262 27.8218 71.4806C27.8218 71.6269 27.8318 71.7924 27.637 71.8331C27.5663 71.8571 27.4891 71.8521 27.4221 71.819C27.3551 71.7859 27.3036 71.7274 27.2787 71.6562C27.2159 71.4908 27.1304 71.5544 27.0374 71.6155C26.0104 72.2951 24.7458 71.8128 24.37 70.6304C24.1488 69.9329 24.4354 69.103 25.1066 68.5939C25.3925 68.3957 25.7322 68.2921 26.0787 68.2976C26.4252 68.3031 26.7615 68.4173 27.0412 68.6245C27.1845 68.7365 27.2322 68.725 27.3039 68.5634C27.3286 68.4918 27.3797 68.4327 27.4465 68.3985C27.5133 68.3643 27.5906 68.3577 27.6621 68.3801C27.8331 68.4284 27.8205 68.585 27.8205 68.7199C27.8218 69.1896 27.8218 69.6541 27.8218 70.1187ZM24.8703 70.106C24.8703 70.7665 25.451 71.408 26.0833 71.3864C26.7747 71.3635 27.3152 70.9753 27.3165 70.1365C27.3165 69.3805 26.8463 68.8892 26.1386 68.8637C25.9745 68.8604 25.8114 68.8899 25.6585 68.9505C25.5057 69.0112 25.3662 69.1019 25.2482 69.2173C25.1301 69.3328 25.0357 69.4707 24.9704 69.6232C24.9051 69.7757 24.8702 69.9398 24.8678 70.106H24.8703Z" fill="#C0B7B2"/>
<path d="M18.0534 71.9119C17.0315 71.9119 16.2936 71.1648 16.2735 70.1173C16.2717 69.8793 16.3163 69.6434 16.4049 69.4229C16.4935 69.2025 16.6243 69.002 16.7898 68.833C16.9552 68.6639 17.152 68.5297 17.3689 68.438C17.5858 68.3462 17.8184 68.2988 18.0534 68.2985C19.1156 68.2985 19.8309 69.2735 19.8359 70.1364C19.8363 70.3722 19.7902 70.6056 19.7004 70.8231C19.6106 71.0406 19.4788 71.2378 19.3129 71.4031C19.1469 71.5685 18.95 71.6986 18.7338 71.786C18.5175 71.8734 18.2862 71.9162 18.0534 71.9119ZM18.0635 71.343C18.7398 71.343 19.3029 70.7906 19.2589 70.1224C19.2124 69.4338 18.7762 68.8585 17.9956 68.8687C17.3005 68.8776 16.8806 69.388 16.8857 70.2179C16.8857 70.9268 17.3281 71.3468 18.0635 71.343Z" fill="#C0B7B2"/>
<path d="M107.643 71.9132C107.409 71.921 107.176 71.8808 106.958 71.7952C106.74 71.7096 106.542 71.5804 106.374 71.4151C106.207 71.2499 106.074 71.0522 105.984 70.8338C105.894 70.6153 105.849 70.3808 105.85 70.1441C105.843 69.6619 106.026 69.1968 106.358 68.8509C106.69 68.5051 107.144 68.3069 107.62 68.2998C108.657 68.2909 109.4 69.1831 109.415 70.1212C109.416 70.3571 109.371 70.5909 109.283 70.8092C109.194 71.0274 109.064 71.2256 108.899 71.3923C108.734 71.559 108.538 71.6909 108.322 71.7803C108.107 71.8697 107.876 71.9149 107.643 71.9132ZM107.6 71.343C108.447 71.3825 108.808 70.7856 108.846 70.1415C108.883 69.4682 108.285 68.8688 107.633 68.8688C107.473 68.8694 107.315 68.9021 107.168 68.9649C107.021 69.0277 106.888 69.1194 106.776 69.2347C106.665 69.35 106.576 69.4866 106.517 69.6366C106.458 69.7865 106.429 69.9469 106.431 70.1084C106.422 70.8632 106.875 71.3418 107.594 71.343H107.6Z" fill="#C0B7B2"/>
<path d="M43.2089 70.1288C43.2089 69.6846 43.2089 69.2378 43.2089 68.7974C43.2089 68.6269 43.2089 68.4398 43.4163 68.3851C43.6238 68.3303 43.7293 68.4461 43.7759 68.6396C43.8073 68.7669 43.884 68.7465 43.9594 68.6829C44.0818 68.5842 44.2141 68.4989 44.3541 68.4283C44.9939 68.0847 45.9719 68.4614 46.1303 69.3065C46.271 70.0562 46.1906 70.7995 46.2145 71.5454C46.2182 71.5857 46.2129 71.6263 46.199 71.6643C46.1851 71.7023 46.163 71.7366 46.1343 71.7648C46.1057 71.793 46.0711 71.8144 46.0332 71.8273C45.9953 71.8402 45.955 71.8443 45.9153 71.8394C45.7004 71.8394 45.6639 71.6956 45.6639 71.5212C45.6639 71.0452 45.6639 70.5704 45.6639 70.0957C45.6639 69.9786 45.6639 69.8615 45.6639 69.7469C45.6111 69.1945 45.3547 68.8802 44.9487 68.8662C44.3377 68.8433 43.943 69.1424 43.845 69.7037C43.8023 69.9323 43.7821 70.1646 43.7847 70.3973C43.7847 70.7244 43.7909 71.0515 43.7847 71.3786C43.7847 71.5823 43.8362 71.8356 43.5106 71.8419C43.1851 71.8483 43.224 71.6026 43.2215 71.3939C43.2052 70.9739 43.2077 70.5513 43.2089 70.1288Z" fill="#C0B7B2"/>
<path d="M38.7491 69.8068C38.6976 70.1886 38.8585 70.6901 38.6121 71.1509C38.4085 71.5327 38.1332 71.8165 37.687 71.8776C37.0962 71.9591 36.523 71.9387 36.1107 71.4207C35.877 71.1044 35.7484 70.7211 35.7436 70.3261C35.716 69.8094 35.7361 69.2901 35.7361 68.772C35.7361 68.5646 35.7763 68.3813 36.0302 68.3698C36.2841 68.3584 36.3407 68.562 36.347 68.7517C36.3621 69.2264 36.3533 69.7024 36.3608 70.1785C36.3589 70.3367 36.3715 70.4948 36.3985 70.6507C36.4827 71.077 36.6575 71.2603 37.0471 71.3151C37.4368 71.3698 37.8227 71.3392 38.0704 70.9409C38.1512 70.8048 38.191 70.6477 38.1847 70.489C38.1847 69.9608 38.1847 69.4313 38.1847 68.9031C38.1847 68.8179 38.1847 68.7326 38.1923 68.6486C38.1916 68.6085 38.1995 68.5688 38.2153 68.532C38.2311 68.4953 38.2545 68.4624 38.2839 68.4357C38.3134 68.4089 38.3481 68.3888 38.3859 68.3768C38.4236 68.3648 38.4635 68.3611 38.5028 68.366C38.6976 68.366 38.7466 68.5009 38.7479 68.6651C38.7504 69.0177 38.7491 69.3664 38.7491 69.8068Z" fill="#C0B7B2"/>
<path d="M112.995 69.8005C112.984 70.1912 113.076 70.7576 112.766 71.2731C112.666 71.4714 112.507 71.6324 112.31 71.7325C111.345 72.1576 110.047 71.9387 109.988 70.3159C109.97 69.7877 109.988 69.2595 109.988 68.7313C109.988 68.5468 110.039 68.3788 110.257 68.3762C110.476 68.3737 110.599 68.5277 110.603 68.744C110.613 69.2926 110.603 69.8425 110.611 70.391C110.611 71.0414 110.862 71.3163 111.468 71.3392C112.047 71.3622 112.404 71.0351 112.427 70.4203C112.448 69.8819 112.433 69.3435 112.435 68.8039C112.419 68.6879 112.445 68.5701 112.507 68.4717C112.544 68.4258 112.594 68.393 112.65 68.3779C112.707 68.3627 112.766 68.3662 112.82 68.3877C112.876 68.4045 112.924 68.4403 112.957 68.489C112.989 68.5377 113.004 68.5964 112.999 68.655C112.996 68.9821 112.995 69.3092 112.995 69.8005Z" fill="#C0B7B2"/>
<path d="M22.1891 71.9132C21.1357 71.9132 20.3915 71.2768 20.3035 70.2318C20.2769 69.8095 20.3987 69.3912 20.6474 69.0511C20.8961 68.711 21.2556 68.471 21.6624 68.3736C22.36 68.1992 23.0112 68.3086 23.5479 68.8381C23.6736 68.9654 23.7993 69.0927 23.617 69.262C23.4599 69.416 23.3267 69.3574 23.1796 69.2327C22.9516 69.019 22.6615 68.8856 22.3526 68.8523C22.0436 68.819 21.7323 68.8877 21.465 69.0481C21.0037 69.3027 20.8755 69.7316 20.9132 70.2305C20.9509 70.7295 21.1747 71.0986 21.6485 71.2717C22.1991 71.4728 22.7195 71.4193 23.1645 70.9993C23.3355 70.8364 23.5027 70.8338 23.6522 71.0082C23.8018 71.1826 23.6623 71.3175 23.5404 71.4346C23.162 71.7986 22.6982 71.9233 22.1891 71.9132Z" fill="#C0B7B2"/>
<path d="M103.429 72.9963C103.113 72.9963 103.052 72.9174 103.178 72.6705C103.291 72.4567 103.329 72.2123 103.47 72.0087C103.721 71.6459 103.595 71.2934 103.429 70.9357C103.097 70.209 102.782 69.4733 102.458 68.7427C102.405 68.6231 102.338 68.4882 102.484 68.408C102.547 68.3675 102.623 68.3521 102.696 68.3648C102.77 68.3775 102.836 68.4173 102.883 68.4767C103.056 68.6689 103.125 68.9196 103.231 69.1475C103.444 69.6171 103.649 70.0906 103.859 70.5615C103.884 70.615 103.889 70.7079 103.967 70.6888C104.016 70.6799 104.069 70.615 104.093 70.5615C104.344 70.004 104.579 69.4427 104.822 68.8827C104.872 68.7669 104.918 68.6485 104.977 68.5378C104.993 68.5008 105.016 68.4674 105.045 68.4397C105.073 68.4119 105.108 68.3903 105.145 68.3762C105.182 68.362 105.222 68.3556 105.262 68.3574C105.301 68.3591 105.34 68.369 105.376 68.3863C105.561 68.4614 105.521 68.6167 105.458 68.7682L104.172 71.7541C104.026 72.0914 103.876 72.4274 103.742 72.7723C103.676 72.9467 103.564 73.018 103.429 72.9963Z" fill="#C0B7B2"/>
<path d="M98.4125 72.995C98.1397 72.995 98.0694 72.8958 98.1611 72.6565C98.2705 72.3943 98.3761 72.1283 98.5081 71.8775C98.5628 71.7756 98.5915 71.6614 98.5915 71.5453C98.5915 71.4293 98.5628 71.3151 98.5081 71.2131C98.1661 70.4431 97.8343 69.6693 97.5024 68.8967C97.4846 68.8584 97.4695 68.8188 97.4572 68.7783C97.417 68.6332 97.3629 68.4729 97.5439 68.3965C97.5784 68.381 97.6157 68.3726 97.6535 68.3718C97.6912 68.3711 97.7288 68.3779 97.7639 68.392C97.799 68.4061 97.831 68.4272 97.858 68.454C97.8849 68.4807 97.9064 68.5127 97.921 68.5479C98.0756 68.8458 98.2064 69.1576 98.3459 69.4643C98.5068 69.8182 98.6652 70.1746 98.8273 70.5284C98.8562 70.5946 98.8801 70.676 98.9744 70.6697C99.0687 70.6633 99.0813 70.5831 99.1102 70.5144C99.3188 70.0053 99.5275 69.4962 99.7387 68.9972C99.8019 68.8392 99.8811 68.6882 99.975 68.5467C100.068 68.4194 100.213 68.3048 100.379 68.4029C100.544 68.5009 100.482 68.6752 100.417 68.8229C100.116 69.5178 99.804 70.2064 99.5149 70.9064C99.2535 71.5428 98.9995 72.1728 98.7029 72.7889C98.6338 72.9339 98.5483 73.009 98.4125 72.995Z" fill="#C0B7B2"/>
<path d="M40.245 71.9119C39.9851 71.9048 39.7326 71.8227 39.5172 71.6752C39.3626 71.5784 39.2557 71.4333 39.3626 71.25C39.4694 71.0668 39.6354 71.0769 39.7988 71.1839C39.929 71.2744 40.0811 71.3272 40.2387 71.3366C40.4901 71.348 40.7051 71.2691 40.7931 71.0146C40.8811 70.76 40.7202 70.5806 40.5178 70.4724C40.3154 70.3642 40.1093 70.2178 39.9056 70.0905C39.5285 69.8487 39.3953 69.4987 39.4556 69.0596C39.5084 68.6778 39.7485 68.4614 40.0917 68.3545C40.5128 68.2272 40.871 68.3748 41.1916 68.6434C41.2168 68.6581 41.2386 68.678 41.2557 68.7018C41.2728 68.7257 41.2848 68.7529 41.2908 68.7817C41.2969 68.8105 41.2969 68.8402 41.2908 68.869C41.2848 68.8978 41.2728 68.925 41.2557 68.9489C41.2252 68.9994 41.1783 69.0376 41.123 69.0569C41.0677 69.0762 41.0075 69.0753 40.9527 69.0545C40.8459 69.0163 40.7466 68.9539 40.6397 68.9119C40.3607 68.8012 40.0565 68.8776 39.9823 69.0914C39.888 69.3638 40.054 69.5305 40.2601 69.6591C40.5097 69.7924 40.7466 69.9488 40.9678 70.1262C41.3449 70.4736 41.4643 70.8173 41.3173 71.1877C41.1224 71.6904 40.7969 71.9119 40.245 71.9119Z" fill="#C0B7B2"/>
<path d="M54.1187 71.912C53.8124 71.9141 53.5138 71.8144 53.2689 71.6282C53.1294 71.5263 53.0502 71.4016 53.1885 71.2298C53.3142 71.0771 53.4499 71.0503 53.5945 71.1725C53.6808 71.242 53.7806 71.2921 53.8875 71.3195C53.9943 71.3469 54.1057 71.351 54.2142 71.3316C54.3033 71.3231 54.3878 71.2874 54.4565 71.2292C54.5252 71.171 54.5748 71.0931 54.5988 71.0058C54.6258 70.9297 54.6253 70.8465 54.5974 70.7708C54.5696 70.6951 54.5162 70.6318 54.4468 70.5921C54.2569 70.4458 54.042 70.3376 53.8459 70.1925C53.5731 69.9977 53.2827 69.803 53.2174 69.4428C53.1394 69.0482 53.3142 68.7415 53.6159 68.5048C53.9389 68.2502 54.2896 68.2502 54.6529 68.4131C54.672 68.4214 54.6898 68.4326 54.7057 68.4462C54.8591 68.5824 55.1758 68.6588 55.0401 68.9337C54.9043 69.2086 54.663 69.0457 54.4706 68.9426C54.2067 68.8077 53.915 68.851 53.822 69.0431C53.6888 69.3181 53.822 69.5077 54.0495 69.6515C54.2544 69.7788 54.4656 69.8946 54.6655 70.0334C55.1054 70.3287 55.2374 70.7372 55.0803 71.2794C54.9734 71.6383 54.5662 71.9069 54.1187 71.912Z" fill="#C0B7B2"/>
<path d="M60.4729 71.9119C60.2215 71.8902 59.9261 71.8597 59.6936 71.6458C59.5679 71.5287 59.4912 71.3913 59.5943 71.2271C59.6974 71.0629 59.857 71.0896 60.0028 71.1876C60.176 71.3111 60.3889 71.3634 60.5987 71.334C60.6935 71.3288 60.7846 71.2948 60.8602 71.2364C60.9357 71.1781 60.9922 71.0981 61.0223 71.0069C61.0418 70.9232 61.0349 70.8353 61.0024 70.7559C60.9699 70.6764 60.9135 70.6092 60.8413 70.564C60.6853 70.439 60.5168 70.331 60.3384 70.242C60.1812 70.1582 60.0389 70.0485 59.9173 69.9174C59.4937 69.477 59.5038 68.9348 59.9425 68.5594C60.3812 68.1839 61.0914 68.2462 61.4132 68.6675C61.4541 68.7099 61.477 68.7668 61.477 68.826C61.477 68.8852 61.4541 68.9421 61.4132 68.9845C61.3744 69.0359 61.3177 69.0705 61.2547 69.0811C61.1917 69.0917 61.127 69.0777 61.0738 69.0417C60.9423 68.9362 60.7813 68.8752 60.6137 68.8674C60.4176 68.8674 60.2542 68.9246 60.1889 69.1219C60.1562 69.2128 60.157 69.3126 60.1909 69.403C60.2248 69.4934 60.2897 69.5684 60.3736 69.6145C60.6175 69.7787 60.8765 69.9238 61.109 70.0969C61.5125 70.3909 61.6721 70.7333 61.5716 71.0527C61.3969 71.6166 61.0311 71.9119 60.4729 71.9119Z" fill="#C0B7B2"/>
<path d="M51.6739 71.9106C51.4225 71.8903 51.1271 71.8585 50.8958 71.6434C50.7701 71.525 50.6896 71.3888 50.8078 71.2259C50.926 71.063 51.073 71.0846 51.2163 71.2068C51.297 71.2662 51.3888 71.3081 51.4861 71.33C51.5834 71.3519 51.6841 71.3533 51.782 71.3341C51.958 71.3175 52.1176 71.2526 52.1692 71.0642C52.2053 70.9688 52.2088 70.8638 52.1789 70.7662C52.149 70.6685 52.0876 70.5839 52.0045 70.5259C51.8159 70.3986 51.6098 70.2904 51.4137 70.1695C50.6494 69.6947 50.618 68.8331 51.3496 68.4181C51.7267 68.203 52.3678 68.3316 52.6443 68.6727C52.6745 68.7081 52.6911 68.7532 52.6911 68.8C52.6911 68.8467 52.6745 68.8919 52.6443 68.9272C52.6075 68.9868 52.549 69.0292 52.4815 69.0454C52.4139 69.0616 52.3428 69.0503 52.2835 69.0138C52.1382 68.9304 51.978 68.8772 51.8122 68.8572C51.5859 68.8483 51.42 68.9222 51.3446 69.1423C51.2691 69.3625 51.42 69.4885 51.5595 69.5916C51.7946 69.766 52.0523 69.9098 52.2936 70.0766C52.7235 70.3731 52.8593 70.727 52.7185 71.161C52.5714 71.6421 52.2081 71.9132 51.6739 71.9106Z" fill="#C0B7B2"/>
<path d="M69.5336 68.679C69.5274 68.4028 69.6744 68.315 69.8831 68.4334C70.1232 68.5695 70.1672 68.8394 70.2765 69.0596C70.4928 69.4936 70.6863 69.9378 70.8912 70.3782C70.9214 70.4431 70.9415 70.5258 71.0333 70.5271C71.125 70.5283 71.1363 70.4405 71.1678 70.3756C71.4192 69.8309 71.6731 69.2874 71.9295 68.7452C71.961 68.6671 72.0011 68.5928 72.0489 68.5237C72.147 68.3964 72.2777 68.3163 72.4261 68.4041C72.5744 68.4919 72.5518 68.6395 72.499 68.7706C72.416 68.9756 72.3142 69.1728 72.2237 69.3752C71.9082 70.0765 71.5952 70.7753 71.2784 71.4791C71.2243 71.5975 71.2067 71.7642 71.027 71.7617C70.8472 71.7591 70.8535 71.6013 70.8032 71.4918C70.4002 70.623 69.9983 69.7528 69.5978 68.8814C69.5716 68.8156 69.5501 68.7479 69.5336 68.679Z" fill="#C0B7B2"/>
<path d="M63.6859 70.1364C63.6859 69.7024 63.6859 69.2696 63.6859 68.8356C63.6859 68.6562 63.7198 68.4945 63.892 68.4054C64.0441 68.3278 64.1434 68.4194 64.2465 68.5238C64.3496 68.6282 64.4577 68.5582 64.5532 68.4932C64.6387 68.4231 64.7374 68.3711 64.8432 68.3405C64.9491 68.3099 65.0599 68.3012 65.1691 68.3151C65.3124 68.3418 65.4381 68.4054 65.4205 68.5798C65.4184 68.6493 65.392 68.7157 65.3459 68.7672C65.2999 68.8188 65.2372 68.852 65.1691 68.8611C64.5218 69.0036 64.4501 69.0851 64.3584 69.7317C64.2751 70.3063 64.2394 70.887 64.2515 71.4677C64.2515 71.6586 64.2402 71.8381 63.9838 71.8496C63.7273 71.861 63.6833 71.6816 63.6846 71.4677C63.6871 71.0235 63.6859 70.5793 63.6859 70.1364Z" fill="#C0B7B2"/>
<path d="M29.1379 69.5267V71.488C29.1379 71.6649 29.1278 71.8431 28.8865 71.8469C28.6451 71.8508 28.5735 71.7069 28.5735 71.4995C28.5735 70.1597 28.5735 68.8203 28.5735 67.4813C28.5735 67.2802 28.6476 67.158 28.8664 67.1606C29.0851 67.1631 29.1366 67.3133 29.1354 67.5017C29.1362 68.1728 29.1371 68.8478 29.1379 69.5267Z" fill="#C0B7B2"/>
<path d="M73.1085 70.111C73.1085 69.6562 73.1085 69.2018 73.1085 68.7478C73.1085 68.5518 73.155 68.3724 73.3926 68.3762C73.6301 68.38 73.6691 68.562 73.6704 68.758C73.6704 69.6668 73.6704 70.5743 73.6704 71.4831C73.6704 71.6905 73.61 71.8382 73.3762 71.8432C73.1173 71.8432 73.106 71.6638 73.106 71.4741C73.106 71.0198 73.106 70.5654 73.106 70.1123L73.1085 70.111Z" fill="#C0B7B2"/>
<path d="M41.9482 70.0918C41.9482 69.6501 41.9482 69.2008 41.9482 68.7643C41.9482 68.6014 41.918 68.3824 42.1594 68.3824C42.4007 68.3824 42.5038 68.5504 42.5076 68.7783C42.5139 69.1257 42.5076 69.4732 42.5076 69.8207C42.5076 70.3688 42.5076 70.917 42.5076 71.4651C42.5076 71.6318 42.4787 71.7909 42.2851 71.8329C42.0613 71.8813 41.9457 71.7795 41.9457 71.5491C41.9457 71.0642 41.9457 70.5793 41.9457 70.0943L41.9482 70.0918Z" fill="#C0B7B2"/>
<path d="M72.9841 67.4775C72.9841 67.1988 73.1488 67.0206 73.3713 67.0346C73.6227 67.0512 73.7409 67.2204 73.7597 67.4534C73.7748 67.6494 73.5498 67.8517 73.3399 67.8352C73.2932 67.8359 73.2468 67.8271 73.2035 67.8094C73.1602 67.7917 73.1209 67.7654 73.0877 67.7321C73.0546 67.6988 73.0284 67.6591 73.0106 67.6154C72.9928 67.5717 72.9838 67.5248 72.9841 67.4775Z" fill="#C0B7B2"/>
<path d="M42.1619 67.0321C42.441 67.0321 42.539 67.2014 42.5541 67.4139C42.5597 67.4667 42.5544 67.52 42.5385 67.5705C42.5227 67.621 42.4966 67.6676 42.4619 67.7074C42.4273 67.7471 42.3848 67.7791 42.3373 67.8014C42.2898 67.8236 42.2382 67.8356 42.1858 67.8365C41.991 67.8365 41.7635 67.6252 41.7785 67.433C41.7866 67.3316 41.8293 67.2361 41.8992 67.163C41.9692 67.0898 42.062 67.0436 42.1619 67.0321Z" fill="#C0B7B2"/>
</svg>
