<svg width="128" height="128" viewBox="0 0 128 128" fill="none" xmlns="http://www.w3.org/2000/svg">
<rect width="128" height="128" fill="black"/>
<path fill-rule="evenodd" clip-rule="evenodd" d="M52.2911 65.4332C52.2911 64.9582 52.3079 64.0255 52.3079 64.0255C38.2947 61.8262 28.1676 55.7913 27.8877 48.6962C24.4376 52.9993 22.4801 57.9271 22.4801 63.1778C22.4801 78.6283 39.4402 91.288 60.9976 92.4162C56.0036 89.2683 52.2911 78.3754 52.2911 65.4332ZM16 64.3051C16 47.017 37.5139 33 64.0547 33C90.5946 33 112.109 47.017 112.109 64.3051C112.109 81.5932 90.5942 95.6106 64.0547 95.6106C37.5139 95.6106 16 81.5928 16 64.3051ZM75.1536 56.1259C85.1241 54.5661 92.1031 50.9869 92.1031 46.822C92.1031 41.232 79.544 36.7056 64.0546 36.7056C48.5641 36.7056 36.0062 41.2324 36.0062 46.822C36.0062 50.9869 42.984 54.5661 52.9557 56.1259C54.5731 45.2903 58.9323 37.518 64.0546 37.518C69.1782 37.518 73.5362 45.2899 75.1536 56.1259ZM67.1119 92.4158C88.6683 91.288 105.631 78.6279 105.631 63.1774C105.631 57.9271 103.671 52.9993 100.221 48.6958C99.9405 55.7909 89.8162 61.8258 75.8014 64.0252C75.8014 64.0252 75.8189 64.9579 75.8189 65.4328C75.8189 78.375 72.1038 89.268 67.1119 92.4158H67.1119ZM70.7149 56.6556C69.6508 49.7058 67.0702 44.7997 64.0547 44.7997C61.0392 44.7997 58.4589 49.7058 57.3936 56.6556C61.8945 57.0253 66.3296 57.0312 70.7149 56.6556ZM56.874 64.5913C57.0501 74.6553 60.1959 82.6828 64.0546 82.6828C67.9119 82.6828 71.0584 74.6557 71.2366 64.5913C66.3066 65.0196 61.4937 65.0193 56.874 64.5913Z" fill="white"/>
</svg>
