<svg width="128" height="128" viewBox="0 0 128 128" fill="none" xmlns="http://www.w3.org/2000/svg">
<rect width="128" height="128" fill="#34E0A1"/>
<path d="M64 120C94.9279 120 120 94.9279 120 64C120 33.0721 94.9279 8 64 8C33.0721 8 8 33.0721 8 64C8 94.9279 33.0721 120 64 120Z" fill="#34E0A1"/>
<path d="M98.5834 53.0712L105.343 45.7169H90.3587C82.5927 40.4316 73.4161 37.6052 64.0222 37.6052C54.6283 37.6052 45.4517 40.4316 37.6857 45.7169H22.6616L29.4217 53.0712C27.4204 54.9059 25.8004 57.1171 24.6544 59.5784C23.5084 62.0397 22.8588 64.7027 22.7427 67.4153C22.6267 70.1278 23.0465 72.8366 23.9781 75.3868C24.9098 77.9369 26.335 80.2784 28.1722 82.2774C30.0095 84.2763 32.2228 85.8935 34.6855 87.0364C37.1483 88.1793 39.8121 88.8255 42.5248 88.9381C45.2375 89.0507 47.9458 88.6274 50.4947 87.6925C53.0437 86.7576 55.3834 85.3295 57.38 83.4896L64.0031 90.6951L70.6215 83.4944C74.4355 87.0372 79.4504 89.003 84.656 88.9958C96.0649 88.9958 105.322 79.747 105.322 68.3382C105.326 65.4642 104.728 62.6212 103.567 59.992C102.407 57.3627 100.709 55.0053 98.5834 53.0712ZM43.3407 82.3179C40.5758 82.3179 37.8729 81.498 35.574 79.9619C33.275 78.4258 31.4832 76.2424 30.4251 73.688C29.367 71.1335 29.0902 68.3227 29.6296 65.6108C30.169 62.899 31.5004 60.4081 33.4555 58.453C35.4106 56.4979 37.9016 55.1664 40.6134 54.627C43.3252 54.0876 46.1361 54.3645 48.6905 55.4226C51.245 56.4806 53.4283 58.2725 54.9644 60.5714C56.5006 62.8704 57.3205 65.5732 57.3205 68.3382C57.3205 70.174 56.9589 71.9919 56.2563 73.688C55.5538 75.3841 54.524 76.9252 53.2259 78.2233C51.9277 79.5215 50.3866 80.5512 48.6905 81.2538C46.9944 81.9563 45.1766 82.3179 43.3407 82.3179ZM64.0031 67.9357C64.0031 58.7357 57.3109 50.842 48.4861 47.4662C53.4024 45.4181 58.6755 44.3636 64.0013 44.3636C69.3272 44.3636 74.6003 45.4181 79.5166 47.4662C70.6929 50.8432 64.0031 58.7369 64.0031 67.9357ZM84.656 82.3179C81.8911 82.3179 79.1882 81.498 76.8893 79.9619C74.5903 78.4258 72.7985 76.2424 71.7404 73.688C70.6823 71.1335 70.4055 68.3227 70.9449 65.6108C71.4843 62.899 72.8157 60.4081 74.7708 58.453C76.7259 56.4979 79.2169 55.1664 81.9287 54.627C84.6405 54.0876 87.4514 54.3645 90.0058 55.4226C92.5603 56.4806 94.7436 58.2725 96.2797 60.5714C97.8159 62.8704 98.6358 65.5732 98.6358 68.3382C98.6358 72.0458 97.1629 75.6016 94.5412 78.2233C91.9195 80.8451 88.3637 82.3179 84.656 82.3179ZM84.656 61.0101C83.2064 61.0101 81.7893 61.44 80.584 62.2454C79.3787 63.0508 78.4392 64.1955 77.8845 65.5348C77.3298 66.8742 77.1848 68.3479 77.4677 69.7697C77.7506 71.1914 78.4487 72.4974 79.4739 73.5223C80.499 74.5473 81.805 75.2453 83.2269 75.5279C84.6487 75.8106 86.1224 75.6653 87.4616 75.1104C88.8008 74.5554 89.9454 73.6158 90.7506 72.4104C91.5558 71.205 91.9855 69.7878 91.9853 68.3382C91.9853 67.3757 91.7957 66.4227 91.4273 65.5336C91.059 64.6444 90.5191 63.8365 89.8385 63.156C89.1579 62.4755 88.3499 61.9358 87.4607 61.5676C86.5715 61.1994 85.6184 61.0099 84.656 61.0101ZM50.67 68.3382C50.6702 69.7878 50.2405 71.205 49.4353 72.4104C48.6301 73.6158 47.4855 74.5554 46.1463 75.1104C44.8071 75.6653 43.3334 75.8106 41.9116 75.5279C40.4898 75.2453 39.1837 74.5473 38.1586 73.5223C37.1334 72.4974 36.4353 71.1914 36.1524 69.7697C35.8695 68.3479 36.0146 66.8742 36.5693 65.5348C37.124 64.1955 38.0634 63.0508 39.2687 62.2454C40.474 61.44 41.8911 61.0101 43.3407 61.0101C45.2843 61.0101 47.1484 61.7821 48.5229 63.1564C49.8973 64.5306 50.6696 66.3945 50.67 68.3382Z" fill="black"/>
</svg>
