<svg width="128" height="128" viewBox="0 0 128 128" fill="none" xmlns="http://www.w3.org/2000/svg">
<rect width="128" height="128" fill="white"/>
<g clip-path="url(#clip0_1195_2737)">
<path d="M41.65 54.1001H47.65L52.3 66.5501H52.45L56.65 54.1001H62.35L55.15 72.4001H49.15L41.65 54.1001Z" fill="#F48F00"/>
<path d="M19.6 58.5999H14.05V64.7499C14.05 65.7999 14.2 67.1499 15.1 67.7499C16 68.3499 17.35 68.1999 18.4 68.0499C19 68.0499 19.3 67.8999 19.6 67.5999V72.2499C18.85 72.3999 18.25 72.5499 17.5 72.6999C13.6 73.1499 7.9 72.3999 7.9 67.2999V58.5999H4V54.0999H7.9V48.6999H14.05V54.0999H19.6V58.5999ZM35.35 54.0999H40.9V72.3999H35.35V54.0999ZM35.05 49.1499C35.05 47.4999 36.4 46.1499 38.05 46.1499C39.7 46.1499 41.05 47.4999 41.05 49.1499C41.05 50.7999 39.7 52.1499 38.05 52.1499C36.55 52.1499 35.05 50.7999 35.05 49.1499Z" fill="#007FAD"/>
<path d="M104.65 63.25C104.65 65.65 106.15 67.9 108.7 67.9C111.4 67.9 112.75 65.8 112.75 63.25C112.75 60.85 111.25 58.6 108.7 58.6C106 58.6 104.65 60.7 104.65 63.25ZM99.55 63.25C99.55 59.35 101.65 55.6 105.4 54.25C109.15 52.9 113.65 53.95 116.05 57.1C118.3 60.1 118.6 64.6 116.8 68.05C115 71.65 110.8 73.3 106.9 72.55C102.25 71.8 99.55 67.75 99.55 63.25Z" fill="#C94A30"/>
<path d="M120.55 59.1999C119.2 59.1999 118.15 58.1499 118.15 56.7999C118.15 55.4499 119.2 54.3999 120.55 54.3999C121.9 54.3999 122.95 55.4499 122.95 56.7999C123.1 57.9999 121.9 59.1999 120.55 59.1999ZM120.55 53.6499C118.9 53.6499 117.55 54.9999 117.55 56.6499C117.55 58.2999 118.9 59.6499 120.55 59.6499C122.2 59.6499 123.55 58.2999 123.55 56.6499C123.55 54.9999 122.35 53.6499 120.55 53.6499ZM121 56.1999C121 55.8999 120.7 55.8999 120.4 55.8999H120.1V56.4999H120.25C120.7 56.4999 121 56.4999 121 56.1999ZM122.2 58.1499H121.3L120.55 57.0999H120.25V58.1499H119.5V55.2999H121.15C121.75 55.4499 122.05 56.0499 121.6 56.6499C121.45 56.7999 121.3 56.9499 121.15 56.9499L122.2 58.1499Z" fill="#CDD0D2"/>
<path d="M93.55 53.9499V56.4999H93.4C93.25 56.3499 93.1 56.1999 92.8 55.7499C89.2 52.5999 82.9 53.1999 80.65 57.6999C79.45 59.9499 79.3 62.7999 79.6 65.3499C79.9 67.5999 80.8 70.1499 82.75 71.4999C85 72.9999 88 73.2999 90.55 72.2499C91.75 71.7999 92.5 70.8999 92.8 70.4499V72.2499C92.8 73.5999 92.5 74.6499 91.75 75.3999C90.1 77.0499 87.1 76.8999 85 76.4499C83.95 76.1499 82.75 75.6999 81.7 74.9499L79.15 78.9999C80.65 80.0499 82 80.6499 83.5 81.0999C87.55 82.1499 93.1 82.1499 96.1 78.9999C97.9 77.1999 98.5 74.6499 98.5 71.0499V53.9499H93.55ZM92.2 66.5499C90.7 68.3499 87.7 68.3499 86.2 66.5499C84.7 64.7499 84.7 61.5999 86.2 59.7999C87.7 57.9999 90.7 57.9999 92.2 59.7999C93.7 61.5999 93.7 64.7499 92.2 66.5499C92.95 65.6499 91.45 67.4499 92.2 66.5499Z" fill="#C94A30"/>
<path d="M21.1 54.1H26.8V57.1C27.4 55.9 28.15 55.15 28.9 54.55C30.7 53.35 33.55 53.8 33.85 53.95V59.05C32.65 58.75 30.25 58.3 28.6 59.35C27.55 59.95 26.65 60.85 26.65 64.9V72.55H20.95V54.1H21.1Z" fill="#007FAD"/>
<path d="M67.6 65.0501C66.55 65.8001 65.65 67.1501 66.7 68.2001C67.75 69.2501 69.55 69.1001 70.75 68.6501C72.1 68.2001 73.15 67.1501 73.15 65.5001V64.3001C73.3 64.4501 69.1 64.1501 67.6 65.0501ZM73.3 70.1501C72.55 71.0501 71.8 71.8001 70.75 72.2501C66.7 73.9001 61 72.2501 61 67.3001C61 62.0501 66.7 61.0001 70.75 60.8501H73.3C73.3 59.8001 73 59.0501 72.25 58.4501C70.9 57.2501 68.8 57.4001 67.15 58.1501C66.4 58.6001 65.65 59.0501 65.05 59.8001L62.05 56.6501C63.1 55.7501 64.3 55.0001 65.8 54.4001C68.2 53.5001 71.2 53.3501 73.6 54.1001C76 54.7001 77.5 56.6501 78.1 59.0501C78.4 60.2501 78.4 61.6001 78.4 63.1001V72.4001H73.3V70.1501Z" fill="#F48F00"/>
</g>
<defs>
<clipPath id="clip0_1195_2737">
<rect width="120" height="36" fill="white" transform="translate(4 46)"/>
</clipPath>
</defs>
</svg>
