<svg width="128" height="128" viewBox="0 0 128 128" fill="none" xmlns="http://www.w3.org/2000/svg">
<rect width="128" height="128" fill="#003662"/>
<path d="M27.2395 65.3667C27.3142 64.1924 27.5105 63.0841 28.0767 62.067C28.3373 61.58 28.6961 61.1572 29.1286 60.8276C29.5611 60.4979 30.0571 60.2692 30.5825 60.1571C31.6324 59.8966 32.7309 59.9389 33.7593 60.2794C35.3364 60.7937 36.0633 62.0806 36.3754 63.6276C36.6604 65.0049 36.596 66.4355 36.1885 67.7793C35.656 69.5844 34.2713 70.7082 32.4419 70.749C31.5524 70.7723 30.6685 70.7761 29.8257 70.4015C28.6466 69.8755 27.9832 68.8856 27.6375 67.6842C27.4245 66.935 27.3666 66.1392 27.2395 65.3667ZM34.5273 65.357L34.4357 65.3298C34.4325 64.9288 34.4075 64.5283 34.361 64.1303C34.1872 63.0666 33.8247 62.1369 32.6624 61.8574C31.5767 61.5954 30.2163 61.935 29.7641 63.2161C29.3016 64.5437 29.2779 65.9936 29.6968 67.3367C29.9827 68.3208 30.6423 68.9186 31.7019 68.9807C32.795 69.0448 33.6658 68.6838 34.0564 67.591C34.3105 66.8826 34.3778 66.1042 34.5292 65.357H34.5273Z" fill="white"/>
<path d="M42.0729 67.659C42.3775 66.77 42.6485 65.9897 42.9138 65.2075C43.4146 63.7227 43.9005 62.234 44.4256 60.7588C44.4736 60.657 44.543 60.5677 44.6287 60.4975C44.7144 60.4273 44.8143 60.378 44.9208 60.3532C45.3557 60.3106 45.7932 60.306 46.2288 60.3396C46.511 60.3493 46.6512 60.4522 46.5203 60.8015C45.3991 63.7919 44.2873 66.7875 43.1848 69.7882C42.9979 70.2851 42.7681 70.5219 42.2056 70.4986C40.7649 70.4384 41.0844 70.6597 40.5855 69.3593C39.7053 67.0806 38.8794 64.7786 38.0273 62.4882C37.8273 61.9506 37.6087 61.4188 37.4031 60.8811C37.2518 60.4813 37.334 60.3512 37.747 60.3299C37.9189 60.3299 38.0889 60.3299 38.2609 60.3299C39.4138 60.3299 39.4045 60.3299 39.7894 61.4518C40.4547 63.3798 41.128 65.3098 41.8094 67.2417C41.8838 67.3895 41.972 67.5293 42.0729 67.659Z" fill="white"/>
<path d="M15.5846 65.3686C15.5846 64.435 15.5753 63.5014 15.5846 62.5698C15.5846 62.1816 15.4389 62.0302 15.0577 62.0243C14 62.0146 14.0224 61.9972 14 60.8908C14 60.4308 14.1495 60.3085 14.5606 60.3221C15.7229 60.359 15.5753 60.3105 15.5809 59.2352C15.5809 58.8664 15.5809 58.4957 15.5809 58.1249C15.5733 58.0645 15.5794 58.003 15.5989 57.9455C15.6184 57.888 15.6506 57.8361 15.693 57.794C15.7354 57.7518 15.7868 57.7206 15.8429 57.7029C15.8991 57.6852 15.9585 57.6815 16.0163 57.6921H16.063C17.8681 57.7135 17.6121 57.4534 17.6289 59.2449C17.6402 60.4347 17.5318 60.3221 18.6941 60.3299C20.0208 60.3299 19.8527 60.1785 19.8676 61.5896C19.8676 61.8982 19.7499 62.0321 19.4565 62.0282C18.9893 62.0282 18.5222 62.0399 18.0569 62.0282C17.7579 62.0282 17.6308 62.1563 17.6308 62.4572C17.6308 64.3884 17.6177 66.3216 17.6551 68.251C17.6719 69.1516 18.4512 69.8911 19.5462 70.1822C20.2208 70.3608 20.2582 70.4481 19.961 71.1003C19.9405 71.143 19.9199 71.1857 19.9012 71.2303C19.5611 72.0844 19.3649 72.1562 18.4997 71.7932C17.3262 71.3002 16.3153 70.6073 15.8332 69.336C15.6783 68.8832 15.5956 68.4072 15.5884 67.9268C15.5566 67.0767 15.5846 66.2227 15.5846 65.3686Z" fill="white"/>
<path d="M22.8743 61.805C23.1359 61.4575 23.3452 61.1664 23.5676 60.885C24.4496 59.7747 25.4829 59.8 26.6658 60.3939C26.9405 60.5317 26.9611 60.7355 26.8527 60.9917C26.72 61.3159 26.5686 61.6342 26.4528 61.9622C26.3369 62.2902 26.1239 62.3504 25.8698 62.1835C24.3748 61.2479 23.8142 62.0903 23.2779 63.2316C23.0159 63.8158 22.8929 64.4568 22.9191 65.1007C22.9397 66.6768 22.9191 68.2529 22.9191 69.8289C22.9191 70.4112 22.8481 70.4714 22.3081 70.4792C22.0595 70.4792 21.811 70.4792 21.5606 70.4792C20.9813 70.4792 20.9197 70.4151 20.9178 69.8134C20.9178 67.6783 20.9327 65.5336 20.9178 63.3946C20.9084 62.56 20.83 61.7254 20.7496 60.8947C20.7104 60.4968 20.8281 60.3357 21.2168 60.3124C22.409 60.2677 22.409 60.2677 22.8743 61.805Z" fill="white"/>
<path d="M102.788 62.4494C102.788 64.0022 102.765 65.5394 102.788 67.0825C102.804 67.9171 102.905 68.7478 102.974 69.5786C103.029 70.254 102.988 70.3045 102.348 70.3084C102.007 70.3084 101.663 70.2948 101.323 70.3084C100.855 70.3297 100.42 70.3336 100.201 69.7707C100.11 69.5262 99.9099 69.5436 99.7585 69.73C98.1085 71.7563 94.3674 70.223 93.7956 67.7385C93.4125 66.081 93.3714 64.4777 93.8461 62.8473C94.4067 60.918 96.2884 59.7592 98.1608 60.3046C98.6373 60.4425 99.0279 60.8869 99.4689 61.1936C99.6146 61.2926 99.7772 61.3644 99.9304 61.4479C100.004 61.2827 100.055 61.1076 100.082 60.9277C100.095 59.4972 100.082 58.0648 100.082 56.6323C100.082 56.05 100.125 56.0054 100.697 56.0015C101.21 56.0015 101.724 56.0209 102.236 56.0015C102.644 55.9821 102.782 56.1471 102.78 56.5625C102.78 58.5209 102.788 60.4871 102.788 62.4494ZM100.082 65.6792C100.319 64.5903 99.7996 63.7499 99.1269 62.9618C98.6971 62.4611 98.1664 62.2301 97.5385 62.4378C96.9107 62.6454 96.565 63.1423 96.4304 63.8081C96.2286 64.8366 96.2286 65.8968 96.4304 66.9253C96.5911 67.7754 97.1181 68.2257 97.8955 68.4082C98.557 68.5635 99.0802 68.3092 99.5193 67.8065C99.7692 67.5239 99.9505 67.1835 100.048 66.8135C100.146 66.4435 100.158 66.0547 100.082 65.6792Z" fill="#61C562"/>
<path d="M56.3289 64.8444C56.2679 66.4524 56.4029 68.0619 56.7306 69.6347C56.8446 70.186 56.7456 70.3005 56.2074 70.3063C55.6692 70.3121 55.1797 70.3063 54.6676 70.3063C54.5209 70.3258 54.3723 70.2906 54.2481 70.2071C54.124 70.1236 54.0323 69.9972 53.9893 69.8502C53.8529 69.4232 53.6156 69.5241 53.3371 69.6929C52.941 69.9713 52.5242 70.2166 52.0907 70.4266C51.7241 70.5918 51.3257 70.6668 50.9266 70.646C49.925 70.545 48.871 70.4519 48.1516 69.6037C47.492 68.8447 47.307 67.9519 47.5499 66.9232C47.9535 65.219 49.1196 64.495 50.6444 64.233C51.4428 64.1235 52.2462 64.0588 53.0512 64.0389C53.6492 64.002 53.8865 63.6371 53.6118 63.0684C53.531 62.8744 53.399 62.708 53.231 62.5885C53.0631 62.469 52.866 62.4012 52.6626 62.393C51.6214 62.3291 50.5784 62.4808 49.5942 62.8394C48.8038 63.1247 48.744 63.1286 48.501 62.358C48.3689 61.9814 48.2167 61.6127 48.0451 61.2536C47.9199 60.9722 48.0301 60.8111 48.288 60.7567C49.1084 60.5859 49.9231 60.3588 50.7509 60.2851C51.7121 60.1997 52.6786 60.1997 53.6399 60.2851C54.7162 60.3841 55.6543 60.8441 56.1401 61.9446C56.2505 62.2083 56.3108 62.4917 56.3177 62.7792C56.3457 63.4605 56.3289 64.1495 56.3289 64.8444ZM52.9541 65.9741L52.926 66.0653C52.8177 66.0653 52.7074 66.0653 52.6009 66.0653C51.9357 66.1313 51.2685 66.1934 50.7322 66.6883C50.138 67.2396 50.3024 67.9965 51.0219 68.3149C52.0571 68.7729 53.111 68.0761 53.5819 67.3056C53.7445 67.0416 53.7053 66.5796 53.6156 66.2477C53.5819 66.106 53.1877 66.0633 52.9541 65.9741Z" fill="#61C562"/>
<path d="M110.61 66.64C109.676 66.64 108.741 66.64 107.807 66.64C107.155 66.64 107.076 66.7778 107.343 67.3698C107.488 67.7203 107.728 68.0194 108.033 68.2304C108.339 68.4414 108.697 68.5551 109.064 68.5576C110.072 68.6256 111.002 68.3441 111.905 67.9385C112.172 67.8181 112.31 67.8608 112.421 68.1112C112.607 68.5382 112.776 68.9691 112.968 69.3884C113.14 69.763 112.994 69.9881 112.656 70.091C111.324 70.4947 109.961 70.7956 108.569 70.6422C106.024 70.3608 104.307 68.4198 104.288 65.8092C104.279 64.5786 104.41 63.4063 105.015 62.3155C105.735 61.0441 106.816 60.3279 108.235 60.2678C109.169 60.2231 110.115 60.1532 111.051 60.4735C111.483 60.605 111.884 60.8281 112.228 61.1288C112.572 61.4295 112.853 61.8012 113.052 62.2204C113.637 63.4471 113.768 64.798 113.987 66.1237C114.056 66.5623 113.854 66.6691 113.456 66.6574C112.508 66.6322 111.559 66.6574 110.61 66.6574V66.64ZM109.089 64.6C109.586 64.6 110.083 64.6116 110.584 64.6C110.907 64.5903 111.051 64.435 110.984 64.0643C110.797 63.053 110.174 62.43 109.279 62.3989C108.106 62.3601 107.448 62.8512 107.2 63.9517C107.089 64.4447 107.2 64.6019 107.697 64.6136C108.151 64.6078 108.618 64.6 109.083 64.6H109.089Z" fill="#61C562"/>
<path d="M78.1437 66.6418C77.2094 66.6418 76.275 66.6418 75.3407 66.6418C74.8081 66.6418 74.7465 66.7679 74.967 67.2823C75.3127 68.1033 75.9144 68.5031 76.7777 68.5594C77.7868 68.6274 78.7099 68.3168 79.6143 67.9247C79.8629 67.818 79.9974 67.8626 80.0964 68.0975C80.2702 68.509 80.4459 68.9185 80.6085 69.3339C80.8159 69.8638 80.7953 69.9977 80.2441 70.1103C79.0911 70.3354 77.9288 70.5392 76.7609 70.6557C75.8994 70.7391 75.0791 70.4616 74.3073 70.0385C73.7099 69.7212 73.1936 69.2609 72.8012 68.6957C72.4087 68.1304 72.1512 67.4763 72.05 66.7873C71.7585 65.1065 71.9323 63.4489 72.904 61.9815C73.225 61.4731 73.6592 61.0524 74.1699 60.7551C74.6806 60.4578 75.2526 60.2926 75.8378 60.2735C76.7908 60.2249 77.7475 60.1551 78.7024 60.4675C80.0105 60.8965 80.7579 61.8534 81.0588 63.1461C81.2849 64.1049 81.3167 65.1123 81.4325 66.0983C81.4811 66.5175 81.298 66.6651 80.8944 66.6553C79.9768 66.6321 79.0593 66.6553 78.1418 66.6553L78.1437 66.6418ZM76.7571 64.5979C77.2542 64.5979 77.7531 64.6096 78.2521 64.5979C78.5604 64.5882 78.7622 64.4562 78.6837 64.0797C78.4782 63.0937 77.798 62.424 76.9664 62.3949C75.7742 62.3542 75.2005 62.7831 74.8829 63.9322C74.7502 64.4135 74.8679 64.5863 75.3631 64.6018C75.8265 64.6096 76.2918 64.5979 76.7571 64.5979Z" fill="#61C562"/>
<path d="M91.8055 66.5061C91.8055 67.5833 91.7924 68.6625 91.8055 69.7397C91.8055 70.1473 91.6896 70.3336 91.2748 70.322C90.7628 70.2968 90.2489 70.322 89.735 70.322C89.1744 70.322 89.0959 70.225 89.0959 69.633C89.0959 67.8647 89.0959 66.0946 89.0959 64.3244C89.0959 64.0022 89.0324 63.682 89.0417 63.3539C89.0735 62.3834 87.8551 61.7468 87.0142 62.5387C86.3172 63.1928 85.7566 63.9556 85.7884 65.0678C85.8407 66.5449 85.8033 68.0278 85.7996 69.5087C85.7996 70.2696 85.7585 70.3065 85.0521 70.3084H83.8879C83.0732 70.3084 83.0377 70.2735 83.0377 69.4486C83.0377 67.3562 83.0489 65.2638 83.0377 63.1715C83.0377 62.4339 82.9686 61.6963 82.9013 60.9607C82.8714 60.6405 82.963 60.5162 83.275 60.5221C83.8506 60.5318 84.4261 60.5337 84.9998 60.5221C85.1224 60.5055 85.2464 60.5402 85.3444 60.6184C85.4425 60.6966 85.5067 60.812 85.523 60.9394C85.7099 61.5838 85.8631 61.6323 86.3209 61.1723C87.5561 59.9301 88.9688 60.0213 90.432 60.59C91.0188 60.819 91.342 61.378 91.527 61.9642C91.6827 62.4842 91.7713 63.0233 91.7905 63.5674C91.8354 64.5476 91.8036 65.5298 91.8036 66.5119L91.8055 66.5061Z" fill="#61C562"/>
<path d="M63.0635 62.7404C62.8755 62.7012 62.685 62.6753 62.4936 62.6628C61.3425 62.6628 60.1914 62.6434 59.0403 62.6628C58.618 62.6628 58.4685 62.5172 58.4648 62.0805C58.4498 60.5277 58.4367 60.5277 59.9597 60.5277C61.6415 60.5277 63.3233 60.5374 65.0051 60.5277C65.3526 60.5277 65.5507 60.6345 65.6685 60.9741C65.8385 61.4574 66.0422 61.9272 66.229 62.4008C66.2947 62.5388 66.312 62.6963 66.2779 62.8462C66.2438 62.9961 66.1604 63.1289 66.0422 63.2218C64.5659 64.5999 63.1084 66.0032 61.6508 67.4007C61.552 67.478 61.46 67.5644 61.3761 67.6588C61.3089 67.7539 61.2136 67.9247 61.2491 67.981C61.2894 68.0338 61.3397 68.0774 61.3969 68.1092C61.4541 68.1409 61.517 68.16 61.5817 68.1654C62.0787 68.1868 62.5758 68.1771 63.0766 68.179C63.9007 68.179 64.7248 68.179 65.5489 68.179C65.902 68.179 66.0665 68.3207 66.0497 68.6953C66.0328 69.0699 66.0403 69.4717 66.0497 69.8599C66.0497 70.1918 65.9058 70.318 65.5956 70.318C63.4186 70.318 61.2397 70.318 59.0552 70.2985C58.9506 70.2803 58.851 70.2387 58.7633 70.1767C58.6756 70.1148 58.6018 70.0338 58.547 69.9395C58.3022 69.493 58.1247 69.0097 57.9191 68.5439C57.8324 68.3913 57.8045 68.2103 57.8409 68.0371C57.8773 67.864 57.9753 67.7115 58.1153 67.6103C59.6831 66.1662 61.2304 64.6989 62.787 63.2373C62.8972 63.1344 62.9944 63.0141 63.099 62.9015L63.0635 62.7404Z" fill="#61C562"/>
<path d="M70.4111 65.4307C70.4111 66.8612 70.4018 68.2917 70.4111 69.7241C70.4111 70.1647 70.256 70.3316 69.8356 70.3064C69.3404 70.2831 68.8414 70.3064 68.3406 70.3064C67.752 70.3064 67.6978 70.2482 67.6978 69.6465C67.6978 67.2513 67.6978 64.8575 67.6978 62.4649C67.6978 61.9836 67.7072 61.4944 67.6978 61.0189C67.6978 60.6753 67.8155 60.5162 68.1612 60.5239C68.7499 60.5395 69.3422 60.5434 69.9309 60.5239C70.3046 60.5123 70.4111 60.687 70.4092 61.0461C70.4055 62.5037 70.4111 63.9672 70.4111 65.4307Z" fill="#61C562"/>
<path d="M68.9872 58.6374C68.6602 58.6374 68.3332 58.6374 68.0062 58.6374C67.7408 58.6374 67.6007 58.5345 67.6044 58.2492C67.6138 57.7348 67.6044 57.2185 67.6044 56.6964C67.6044 56.4033 67.7427 56.3082 68.0099 56.3082C68.6789 56.316 69.3479 56.316 70.0169 56.3082C70.2878 56.3082 70.4205 56.4169 70.4186 56.6964C70.4186 57.2108 70.4186 57.7271 70.4186 58.2492C70.4186 58.5403 70.2747 58.649 70.0094 58.6374C69.6712 58.6316 69.3292 58.6374 68.9872 58.6374Z" fill="#61C562"/>
</svg>
