<svg width="128" height="128" viewBox="0 0 128 128" fill="none" xmlns="http://www.w3.org/2000/svg">
<rect width="128" height="128" fill="white"/>
<path d="M25.0465 46.3477C29.2858 46.555 33.5232 46.7873 37.7605 46.9905C39.2945 47.0631 40.8307 47.0734 42.3647 47.1397C48.0186 47.3871 53.6711 47.6413 59.3223 47.9025C62.6122 48.0559 65.9021 48.2344 69.1921 48.3961C72.0335 48.5343 74.8764 48.6725 77.7206 48.8107C80.5648 48.9489 83.4249 49.0871 86.3009 49.2253C87.9594 49.302 89.6178 49.3994 91.2638 49.4326C92.744 49.4616 93.8904 50.125 94.7714 51.2216C97.3973 54.4915 99.9983 57.7807 102.574 61.0893C103.098 61.7601 103.57 62.4705 103.984 63.2141C104.324 63.8236 104.073 64.4372 103.667 64.9347C102.285 66.6236 100.888 68.3014 99.4773 69.9682C98.1028 71.5976 96.7222 73.2229 95.3187 74.8275C95.0257 75.1551 94.6665 75.4169 94.2648 75.5956C93.8632 75.7742 93.4282 75.8658 92.9886 75.864C88.1107 76.0423 83.2328 76.2411 78.355 76.4236C75.3387 76.5355 72.3224 76.6309 69.304 76.7325C65.4772 76.8693 61.6524 77.0165 57.8255 77.1471C54.6019 77.2591 51.3783 77.3544 48.1547 77.4684C43.8013 77.6259 39.4666 77.8022 35.1236 77.9577C31.8647 78.0752 28.6066 78.181 25.3491 78.2749C24.7487 78.3092 24.1465 78.2987 23.5476 78.2438C23.1807 78.2161 22.8389 78.0469 22.5944 77.7719C22.3499 77.4968 22.2219 77.1374 22.2375 76.7698C22.2712 76.1053 22.362 75.4451 22.509 74.7963C22.6272 74.191 22.82 73.6002 22.963 72.999C23.274 71.6992 23.5601 70.3931 23.8814 69.0954C24.2027 67.7977 24.5427 66.5413 24.8723 65.2643C25.0382 64.6155 25.2144 63.9709 25.3491 63.3158C25.401 63.0629 25.3967 62.8017 25.3367 62.5507C25.0174 61.2343 24.6609 59.9283 24.3416 58.6119C24.0224 57.2955 23.7363 55.9357 23.417 54.6027C23.0978 53.2697 22.7454 51.943 22.4199 50.61C22.2665 49.9778 22.0571 49.3434 22.0053 48.7008C21.9244 47.5129 22.7785 46.5137 24.0576 46.3417C24.3848 46.3199 24.7131 46.3199 25.0402 46.3417L25.0465 46.3477ZM28.8028 77.002V76.9584C31.0832 76.8423 33.3843 76.7036 35.6771 76.6165C40.0899 76.4479 44.5041 76.2965 48.9197 76.1624C50.8518 76.1023 52.7859 76.1044 54.7242 76.0298C60.2925 75.8225 65.8586 75.5715 71.4268 75.3538C73.22 75.2834 75.0173 75.2876 76.8167 75.2129C82.074 75.0056 87.3292 74.7341 92.5864 74.5455C93.0045 74.5498 93.4181 74.4587 93.7956 74.2791C94.1732 74.0994 94.5048 73.836 94.7652 73.5089C97.3275 70.4491 99.8967 67.3963 102.473 64.3503C102.863 63.888 102.869 63.494 102.473 62.9965C101.523 61.7762 100.568 60.5592 99.6079 59.3458C97.8313 57.0924 96.0215 54.8619 94.2801 52.5794C93.3058 51.3045 92.178 50.5063 90.4864 50.6659C89.8872 50.6973 89.2865 50.6849 88.6891 50.6287C84.4 50.4048 80.1108 50.1622 75.8217 49.9569C72.1503 49.7787 68.4789 49.6606 64.8076 49.4865C60.2241 49.2792 55.6426 49.0199 51.0591 48.8002C49.6805 48.7338 48.2978 48.7463 46.913 48.6779C42.485 48.4602 38.059 48.2156 33.631 47.9938C31.4087 47.8819 29.1843 47.7989 26.962 47.7035C26.083 47.6641 25.204 47.6103 24.325 47.5958C23.7363 47.5958 23.1786 48.1763 23.2885 48.6987C23.5269 49.8223 23.7943 50.9396 24.0701 52.0529C24.3976 53.3858 24.7562 54.7106 25.0858 56.0415C25.4694 57.588 25.8363 59.1364 26.2115 60.685C26.3566 61.2841 26.595 61.8812 26.6261 62.4866C26.6214 63.0979 26.5349 63.7058 26.3691 64.2942C26.0125 65.8303 25.6166 67.3561 25.2393 68.8881C25.0672 69.5867 24.9096 70.2895 24.7397 70.9881C24.5323 71.8049 24.325 72.6195 24.1426 73.4363C23.9353 74.2862 23.7073 75.132 23.5663 75.9924C23.415 76.9169 23.5663 77.029 24.5199 77.0145C25.9441 76.9959 27.3766 77.002 28.807 77.002H28.8028Z" fill="white"/>
<path d="M24.3624 81.2416C23.8077 81.1525 23.2582 81.0335 22.7164 80.8851C22.5986 80.8435 22.4911 80.7772 22.401 80.6907C22.3109 80.6042 22.2403 80.4994 22.194 80.3834C22.1477 80.2674 22.1267 80.1428 22.1324 80.018C22.1381 79.8932 22.1704 79.7711 22.2272 79.6599C22.4345 79.3137 22.8283 79.2452 23.017 79.5831C23.2761 80.0475 23.6555 80.0433 24.0763 80.0267C27.1258 79.9106 30.1773 79.7842 33.2268 79.6805C38.5711 79.5001 43.9175 79.3385 49.2618 79.1622C52.2954 79.0627 55.3289 78.9572 58.3625 78.8452C62.774 78.6835 67.1861 78.5169 71.5989 78.3456C74.5302 78.2378 77.4594 78.1506 80.3907 78.0304C84.3026 77.8707 88.2124 77.6883 92.1242 77.5121C92.572 77.4914 93.0177 77.4355 93.4634 77.4147C94.9726 77.3484 96.0858 76.5648 97.0083 75.4599C98.805 73.3081 100.595 71.1499 102.38 68.9857C103.06 68.1564 103.735 67.3417 104.403 66.5083C104.666 66.1787 104.934 65.8534 104.708 65.3538C104.652 65.2253 104.826 64.8769 104.981 64.794C105.052 64.7535 105.131 64.7283 105.213 64.7199C105.294 64.7115 105.377 64.7201 105.455 64.7452C105.533 64.7704 105.605 64.8115 105.666 64.8659C105.727 64.9203 105.776 64.987 105.81 65.0614C106.155 65.6834 105.997 66.2928 105.603 66.7986C104.467 68.2498 103.298 69.6677 102.125 71.0856C100.634 72.8892 99.1477 74.6969 97.6157 76.4653C96.5025 77.7464 95.1177 78.5113 93.3556 78.5735C89.1328 78.7228 84.9121 78.9261 80.6893 79.096C77.9134 79.2059 75.1376 79.2826 72.3639 79.3924C67.2787 79.5997 62.2059 79.8195 57.1104 80.0143C54.5253 80.1138 51.9277 80.147 49.3509 80.232C45.3686 80.3605 41.3863 80.5098 37.404 80.6466C34.4395 80.7482 31.4729 80.8436 28.5085 80.9535C27.1299 81.0032 25.7534 81.0819 24.3748 81.1482L24.3624 81.2416Z" fill="#349EA7"/>
<path d="M28.8069 77.0022C27.3765 77.0022 25.9441 77.0022 24.5137 77.0022C23.5497 77.0022 23.4087 76.9048 23.56 75.9802C23.701 75.1199 23.9353 74.2741 24.1363 73.4241C24.3291 72.6073 24.5364 71.7927 24.7334 70.9759C24.9034 70.2773 25.0609 69.5744 25.233 68.8758C25.6103 67.3438 26.0062 65.8182 26.3628 64.282C26.5287 63.6936 26.6151 63.0855 26.6199 62.4742C26.5908 61.8689 26.3524 61.2719 26.2052 60.6728C25.83 59.1243 25.4631 57.5756 25.0796 56.0291C24.75 54.6982 24.3913 53.3735 24.0638 52.0405C23.7881 50.9273 23.5207 49.81 23.2823 48.6864C23.1724 48.164 23.73 47.5752 24.3188 47.5835C25.1978 47.598 26.0767 47.652 26.9557 47.6914C29.178 47.7867 31.4024 47.8697 33.6247 47.9817C38.0527 48.2035 42.4787 48.4481 46.9067 48.6657C48.2853 48.7341 49.668 48.7217 51.0528 48.788C55.6364 49.0078 60.2178 49.2606 64.8013 49.4741C68.4727 49.6482 72.1441 49.7665 75.8154 49.9448C80.1046 50.1521 84.3937 50.3926 88.6829 50.6165C89.2841 50.6775 89.889 50.694 90.4926 50.6661C92.1842 50.4961 93.312 51.3047 94.2863 52.5796C96.0277 54.86 97.8375 57.0926 99.6141 59.346C100.575 60.5608 101.53 61.7778 102.479 62.9967C102.867 63.4942 102.86 63.8882 102.479 64.3505C99.9098 67.4034 97.3406 70.4562 94.7714 73.5091C94.511 73.8362 94.1794 74.0996 93.8018 74.2793C93.4243 74.4589 93.0107 74.55 92.5926 74.5457C87.3354 74.7343 82.0802 74.9955 76.8229 75.2131C75.0298 75.2878 73.2324 75.2836 71.433 75.354C65.8648 75.5613 60.2986 75.8165 54.7304 76.03C52.8004 76.1046 50.8663 76.1025 48.9259 76.1626C44.5034 76.3008 40.0892 76.4522 35.6833 76.6167C33.3905 76.7038 31.0997 76.8425 28.809 76.9586L28.8069 77.0022ZM71.6071 63.7907C71.6071 62.6899 71.632 61.5869 71.5947 60.4882C71.5635 60.0819 71.4683 59.6833 71.3128 59.3067C71.1469 58.8672 70.7758 58.7427 70.3364 58.8733C69.8969 59.0039 69.8969 59.3584 69.9031 59.7025C69.93 61.5683 69.9653 63.4506 69.9881 65.3246C69.9881 65.9797 69.9881 66.6327 69.9674 67.2857C69.9404 67.8786 69.5963 68.2001 69.02 68.2312C68.0373 68.283 67.5502 67.9036 67.5232 66.8402C67.4693 64.8272 67.4859 62.8143 67.5232 60.8014C67.5357 60.0468 67.8155 59.429 68.7132 59.315C68.7918 59.3068 68.8678 59.2825 68.9367 59.2438C69.0055 59.205 69.0657 59.1524 69.1135 59.0895C69.1613 59.0266 69.1957 58.9545 69.2145 58.8777C69.2334 58.801 69.2363 58.7212 69.2231 58.6433C69.2257 58.5645 69.2121 58.486 69.1833 58.4125C69.1545 58.3391 69.111 58.2722 69.0556 58.2161C69.0001 58.1601 68.9337 58.116 68.8606 58.0864C68.7875 58.0568 68.7091 58.0423 68.6302 58.0441C68.2396 58.0377 67.8515 58.1081 67.488 58.2514C66.468 58.7157 66.0493 59.6052 66.0368 60.6666C66.0016 62.5593 66.0244 64.4519 66.0099 66.3446C65.9871 66.9619 66.0996 67.5769 66.3395 68.1461C67.0568 69.7631 68.9495 70.1569 70.355 69.3153C71.2195 68.797 71.6258 67.9472 71.6258 66.9252C71.6258 65.9032 71.6071 64.8397 71.6071 63.7907ZM50.9119 63.3303C50.9119 62.2938 50.9243 61.2574 50.9119 60.2353C50.9119 59.6694 50.858 59.1035 50.8082 58.5397C50.7751 58.1375 50.5076 57.9736 50.1283 57.9985C49.7489 58.0234 49.5063 58.2058 49.469 58.5955C49.4504 58.8028 49.4462 59.0101 49.4442 59.2174C49.4255 61.9 49.4027 64.5826 49.3965 67.2651C49.3965 67.7149 49.2576 68.055 48.8202 68.1856C48.5674 68.2384 48.3079 68.2516 48.0511 68.2249C47.4872 68.2083 47.2218 67.9595 47.2011 67.3957C47.1845 67.035 47.1907 66.6743 47.1887 66.3136C47.17 63.9047 47.1597 61.4979 47.1265 59.0911C47.1222 58.8187 47.0448 58.5522 46.9026 58.3198C46.8472 58.2214 46.7651 58.1408 46.6658 58.087C46.5666 58.0332 46.4541 58.0086 46.3414 58.0159C46.2287 58.0233 46.1204 58.0624 46.029 58.1287C45.9376 58.1949 45.8667 58.2857 45.8246 58.3905C45.7074 58.6515 45.6447 58.9336 45.6401 59.2197C45.6049 61.782 45.5717 64.3441 45.5717 66.9064C45.5717 68.4238 46.2765 69.6015 47.9308 69.6202C48.5658 69.6473 49.1999 69.5485 49.7966 69.3298C50.6445 68.9754 50.9181 68.171 50.9243 67.29C50.9181 65.9798 50.9139 64.655 50.9119 63.3303ZM74.0513 67.1408C74.1985 66.6598 74.3643 66.3281 74.3892 65.984C74.4348 65.2999 74.3995 64.6095 74.4016 63.9213C74.4016 62.7873 74.4016 61.6409 74.4327 60.5174C74.4528 60.2233 74.579 59.9464 74.7881 59.7385C74.9971 59.5307 75.2745 59.4059 75.5687 59.3875C76.2363 59.3875 76.6509 59.7378 76.7276 60.424C76.7732 60.8386 76.7545 61.2533 76.8271 61.6555C76.8996 62.0577 77.1173 62.4099 77.5796 62.3456C77.772 62.3283 77.9506 62.2383 78.0788 62.0938C78.2071 61.9493 78.2755 61.7614 78.2699 61.5683C78.2824 61.1723 78.2699 60.7764 78.2699 60.3825C78.2691 60.0647 78.2044 59.7503 78.0798 59.458C77.9552 59.1656 77.7731 58.9012 77.5444 58.6806C76.8789 57.9799 76.0207 57.9654 75.1438 58.0214C74.128 58.0836 73.0894 58.9481 73.0479 59.9556C72.9608 62.0493 72.9712 64.1472 72.9712 66.2452C72.9814 66.3609 73.0153 66.4733 73.071 66.5754C73.1266 66.6774 73.2028 66.7669 73.2946 66.8381C73.6325 67.0765 73.5765 67.2651 73.3257 67.491C73.0749 67.717 73.0686 68.0134 73.2137 68.3202C73.9518 69.9206 75.7843 69.9786 77.0385 69.4106C77.3847 69.251 77.818 68.8903 77.8678 68.5628C78.0017 67.6871 78.0537 66.8009 78.0232 65.9156C78.0251 65.8233 78.0079 65.7316 77.9725 65.6463C77.9372 65.561 77.8845 65.4839 77.8179 65.42C77.7513 65.3561 77.6721 65.3068 77.5854 65.275C77.4987 65.2433 77.4064 65.2298 77.3143 65.2356C76.9618 65.2356 76.6136 65.6689 76.5949 66.1063C76.5762 66.5437 76.6219 66.9355 76.568 67.3501C76.5306 67.6279 76.4125 68.0922 76.2611 68.1233C75.8113 68.2124 75.2598 68.2644 74.8743 68.0737C74.4887 67.8829 74.2586 67.3875 74.0513 67.1408ZM82.2543 66.9189C83.9128 67.0205 84.4849 65.7269 84.1698 64.4728C84.089 64.1556 83.9625 63.8509 83.9107 63.5296C83.6163 62.0162 83.3385 60.4986 83.0462 58.9852C83.0128 58.7363 82.8982 58.5054 82.7201 58.3281C82.5421 58.1508 82.3107 58.0372 82.0615 58.0048C81.4852 57.9571 81.0727 58.1913 80.9151 58.8194C80.6166 60.0156 80.372 61.2243 80.1357 62.4329C79.945 63.4093 79.8081 64.394 79.6257 65.3704C79.435 66.4069 79.2111 67.4226 79.0038 68.4488C78.9796 68.6024 78.974 68.7583 78.9872 68.9132C78.9836 68.9957 78.9965 69.078 79.0251 69.1555C79.0537 69.233 79.0974 69.3043 79.1538 69.3647C79.2101 69.4251 79.2779 69.4735 79.3533 69.5074C79.4286 69.5413 79.5099 69.5599 79.5925 69.562C79.9553 69.6056 80.2538 69.5103 80.3471 69.1102C80.486 68.509 80.6145 67.9058 80.7472 67.3046C80.8343 66.9045 80.969 66.6163 81.4832 66.8215C81.7377 66.8875 81.9997 66.9202 82.2626 66.9189H82.2543ZM38.8073 64.0415H38.8529C38.8529 65.5735 38.8405 67.1055 38.8529 68.6355C38.8529 69.2864 39.1183 69.5725 39.5764 69.56C40.0346 69.5476 40.1507 69.334 40.1652 68.6043V68.5525C40.188 65.9197 40.2149 63.287 40.2315 60.6542C40.2315 59.3233 40.2315 59.3232 41.5811 59.3709C42.2527 59.3937 42.6176 59.7047 42.6653 60.3639C42.7171 60.9642 42.713 61.568 42.6528 62.1675C42.6016 62.5941 42.4503 63.0025 42.2113 63.3595C42.0848 63.5399 41.6806 63.5191 41.4132 63.6186C41.0504 63.7513 40.7 63.9026 40.727 64.396C40.756 64.9267 41.1706 65.0717 41.5562 65.0821C42.1615 65.1028 42.8249 64.9992 43.1835 64.4705C43.5422 63.9419 43.9112 63.3055 44.0128 62.6795C44.1175 61.7391 44.1175 60.7902 44.0128 59.8499C43.9589 59.201 43.5857 58.6992 42.9762 58.351C42.1615 57.8887 41.2971 58.0378 40.4492 58.0441C39.4293 58.0441 38.826 58.6909 38.8198 59.7025C38.799 61.1495 38.8073 62.5966 38.8073 64.0415ZM61.0387 63.4466H60.9765C60.9765 64.2758 60.9765 65.105 60.9765 65.9342C60.9765 66.639 60.9496 67.3458 61.0076 68.0465C61.0781 68.911 61.4596 69.6263 62.6122 69.6139C63.3688 69.6139 64.1276 69.6346 64.8925 69.6139C65.4419 69.5973 65.6989 69.3465 65.6865 68.9298C65.6741 68.5484 65.3465 68.2684 64.8573 68.2538C64.3224 68.2373 63.7876 68.2538 63.2548 68.2538C62.5458 68.2538 62.5355 68.2394 62.5334 67.5262C62.5334 64.8244 62.5265 62.1239 62.5127 59.4248C62.5285 59.2016 62.516 58.9773 62.4753 58.7573C62.38 58.3945 62.1996 58.0856 61.7539 58.0669C61.3082 58.0483 61.188 58.3924 61.0885 58.7241C61.0521 58.8746 61.0374 59.0295 61.0449 59.1842C61.0367 60.5918 61.0387 62.0182 61.0387 63.4466ZM86.0915 63.5336H86.048C86.048 65.0988 86.0356 66.664 86.048 68.2291C86.048 69.0397 86.5062 69.5309 87.3126 69.5744C88.1874 69.6221 89.0685 69.5973 89.9474 69.5973C90.362 69.5973 90.6398 69.3899 90.6709 68.9525C90.6979 68.5918 90.3558 68.2767 89.9267 68.2601C89.3753 68.2373 88.8238 68.2415 88.2682 68.2332C87.6152 68.2208 87.5738 68.1773 87.5717 67.5139C87.5717 65.1568 87.5717 62.7997 87.5427 60.4447C87.5427 59.8228 87.4888 59.2009 87.4287 58.5935C87.3976 58.2805 87.2214 57.9716 86.8627 58.0669C86.5862 58.1558 86.3414 58.3229 86.1579 58.548C86.0542 58.662 86.0853 58.9086 86.0833 59.0952C86.0895 60.5795 86.0915 62.0534 86.0915 63.5336ZM35.791 64.0498H35.8118C35.8118 62.4494 35.8242 60.849 35.8118 59.2486C35.8118 58.4007 35.422 58.0338 34.568 58.0048C33.9129 57.9903 33.2578 58.0048 32.6027 58.0214C32.5155 58.018 32.4286 58.0329 32.3476 58.0653C32.2666 58.0977 32.1933 58.1467 32.1325 58.2093C32.0717 58.2718 32.0247 58.3466 31.9947 58.4285C31.9646 58.5104 31.9521 58.5978 31.958 58.6848C31.9543 58.7722 31.969 58.8592 32.0013 58.9405C32.0335 59.0218 32.0826 59.0953 32.1452 59.1563C32.2078 59.2173 32.2825 59.2646 32.3646 59.2948C32.4466 59.325 32.5341 59.3375 32.6214 59.3316C33.0173 59.3316 33.4153 59.371 33.8092 59.3316C34.3109 59.2964 34.4601 59.4932 34.4581 59.9845C34.4456 62.7894 34.4581 65.5942 34.4705 68.399C34.4705 68.5876 34.4705 68.7785 34.483 68.965C34.5286 69.5144 35.0883 69.8254 35.5195 69.4916C35.7007 69.298 35.7995 69.0415 35.7952 68.7764C35.8035 67.2133 35.791 65.6316 35.791 64.0498ZM52.4169 61.3237C52.4563 61.8917 52.4791 62.5095 52.5537 63.121C52.6138 63.6103 52.9683 63.8964 53.3954 64.0788C54.2246 64.4229 55.0891 64.3504 55.9452 64.2861C56.3598 64.2509 56.7745 64.0787 56.8014 63.5543C56.8221 63.1645 56.4448 62.8496 55.9038 62.8143C55.4062 62.7811 54.9046 62.7748 54.405 62.7665C54.0588 62.7665 53.9137 62.6028 53.9199 62.2566C53.9323 61.5517 53.9199 60.8469 53.9199 60.142C53.9199 59.5968 54.1272 59.3938 54.6745 59.3772C55.2217 59.3606 55.8126 59.3564 56.3806 59.3523C56.818 59.3523 57.0626 59.1346 57.0709 58.6951C57.0792 58.2556 56.8201 58.0379 56.3889 58.0337C55.6654 58.0337 54.9377 58.0068 54.2184 58.0337C53.8026 58.0364 53.4021 58.1909 53.0921 58.468C52.7822 58.7451 52.5841 59.126 52.5351 59.5389C52.4687 60.1028 52.4584 60.6893 52.4107 61.3237H52.4169ZM52.4729 66.5954H52.4211C52.4625 67.2173 52.4957 67.8394 52.5517 68.4447C52.571 68.6717 52.6566 68.8877 52.7977 69.0665C52.9389 69.2452 53.1294 69.3787 53.3456 69.4501C54.4323 69.8101 55.5957 69.8718 56.7143 69.6285C57.2907 69.5165 57.4171 68.9069 56.9652 68.5379C56.7723 68.4014 56.5441 68.3237 56.308 68.314C55.7587 68.2684 55.2052 68.2747 54.6496 68.2561C53.9282 68.2291 53.9095 68.2104 53.9074 67.4724C53.9054 66.7344 53.9074 65.9922 53.9074 65.2522C53.9074 64.7795 53.5675 64.3754 53.1922 64.4023C52.7134 64.4355 52.4998 64.7609 52.475 65.2003C52.4501 65.6398 52.4729 66.1311 52.4729 66.5914V66.5954ZM43.9734 66.9023C43.9734 66.5748 43.992 66.2494 43.9734 65.9239C43.9381 65.3683 43.623 65.0325 43.169 65.0325C42.715 65.0325 42.4165 65.3662 42.4082 65.9445C42.4082 66.6307 42.4082 67.3168 42.4227 68.003C42.4497 69.1453 43.3991 69.8688 44.4958 69.5475C44.6215 69.492 44.7315 69.4062 44.8158 69.2977C44.9001 69.1891 44.9561 69.0611 44.9788 68.9256C44.9788 68.7058 44.7238 68.3037 44.5455 68.283C43.9651 68.2208 43.9506 67.8808 43.9734 67.4538C43.9837 67.2796 43.9754 67.091 43.9754 66.9023H43.9734ZM83.4982 67.3438C83.7055 68.03 83.8485 68.6292 84.0724 69.1972C84.131 69.2931 84.2101 69.3747 84.304 69.4363C84.3979 69.498 84.5043 69.5381 84.6155 69.5537C85.1276 69.618 85.4448 69.2676 85.3639 68.6996C85.2776 68.1579 85.1451 67.6247 84.968 67.1056C84.9415 67.012 84.8947 66.9254 84.8311 66.8519C84.7674 66.7784 84.6884 66.7198 84.5996 66.6802C84.5108 66.6407 84.4144 66.6211 84.3172 66.6229C84.22 66.6248 84.1244 66.6481 84.0372 66.691C83.8153 66.7863 83.6827 67.1117 83.5065 67.3438H83.4982ZM37.2691 57.9922V58.0214C37.0618 58.0214 36.8545 58.0048 36.6472 58.0214C36.5648 58.02 36.4829 58.0358 36.4069 58.0678C36.3309 58.0997 36.2624 58.1472 36.2057 58.207C36.1489 58.2669 36.1053 58.3377 36.0774 58.4154C36.0496 58.493 36.0382 58.5756 36.044 58.6579C36.044 59.0725 36.2513 59.317 36.6493 59.344C37.0473 59.3709 37.464 59.4332 37.8247 59.3233C37.9659 59.2686 38.0922 59.1816 38.1937 59.0693C38.2953 58.9569 38.3691 58.8225 38.4093 58.6765C38.4321 58.4858 38.1025 58.2039 37.8703 58.0546C37.721 57.9509 37.4682 58.0068 37.2629 57.9922H37.2691Z" fill="#232752"/>
</svg>
