<svg width="128" height="128" viewBox="0 0 128 128" fill="none" xmlns="http://www.w3.org/2000/svg">
<rect width="128" height="128" fill="#1465A4"/>
<path fill-rule="evenodd" clip-rule="evenodd" d="M39.1945 23.5348C37.9957 23.8103 35.6978 24.6881 35.3023 25.0218C35.2173 25.0933 40.9571 28.4343 40.9571 28.4343C47.9399 32.3798 61.9326 40.2706 61.9326 40.2706L61.792 38.8447C61.6101 36.9981 60.8721 34.652 59.9006 32.8329C57.2803 27.9258 52.5992 24.6792 46.0838 23.2505C43.6515 22.717 41.5263 22.9985 39.1945 23.5348ZM82.1571 23.5531C75.1274 24.9559 69.5224 29.535 67.4748 35.5479C66.9688 37.034 66.4012 40.1363 66.5991 40.3342L93.1539 25.4C93.4047 25.162 91.3497 24.2978 89.2042 23.7389C87.1176 23.1955 84.3191 23.1216 82.1571 23.5531ZM34.7743 26.6423C34.7743 27.5241 35.2321 29.6805 35.7138 31.0675C37.3798 35.8654 42.2801 40.3845 47.8825 42.29C50.6181 43.2204 54.567 43.3788 57.2719 42.6665C58.8108 42.2611 61.1589 41.3125 61.2423 41.0623L35.0601 26.0615C34.8421 25.9778 34.7743 26.1155 34.7743 26.6423ZM67.2132 41.3002C67.2447 41.4074 67.8781 41.743 68.6204 42.0458C74.4263 44.4148 80.8194 43.5196 86.2519 39.5772C87.7201 38.5116 90.2946 35.8792 91.1767 34.5414C92.1423 33.0768 93.0073 30.8725 93.4751 28.6831C93.8857 26.7615 93.94 26.1864 93.7103 26.1919L67.2132 41.3002ZM63.178 40.9428L63.048 46.6435L42.2814 46.7599C39.6491 46.7599 37.2117 49.5873 37.2117 51.8297C37.1867 61.9646 37.1588 85.5631 37.1588 93.6552C37.1588 98.335 40.7215 100.772 42.7689 100.772H86.3494C88.8842 100.772 91.2241 98.0425 91.2241 95.8976V73.7661V51.6347C91.1767 49.2948 88.6892 46.7599 86.1544 46.7599L65.3878 46.6435V41.0077L63.178 40.9428ZM85.6138 59.8898C76.1147 64.8845 68.9913 75.1465 66.5744 87.318C66.0986 89.7144 65.5828 94.3291 65.5828 96.1907V97.5732L83.6195 97.4575C86.3494 97.4575 87.9623 95.5076 87.9093 92.9727L87.9623 76.0226C87.9914 66.6999 87.9475 59.0077 87.8648 58.9289C87.782 58.8501 86.7692 59.2824 85.6138 59.8898ZM40.7215 93.3627C40.7215 95.0201 42.0864 97.4575 44.1339 97.4575C50.6564 97.4575 57.1789 97.4575 63.7014 97.4575L63.6591 96.0926C63.592 93.9342 63.0558 89.8486 62.5377 87.5499C59.7612 75.2333 52.5688 65.2979 42.6985 60.1457C41.6411 59.5934 40.7198 59.1418 40.6511 59.1418C40.4849 59.1418 40.7009 89.7439 40.7215 93.3627ZM52.226 84.7669C49.7925 85.8532 49.6521 89.2876 51.9974 90.3525C54.5126 91.4943 57.0292 89.5961 56.5298 86.9337C56.1886 85.1158 53.9592 83.9934 52.226 84.7669ZM73.4839 84.9366C71.8122 85.8833 71.3589 87.9777 72.5013 89.4754C72.7996 89.8665 73.3589 90.3183 73.7438 90.4792C74.6349 90.8514 76.1578 90.7198 76.858 90.2099C77.4806 89.7568 78.2572 88.3136 78.2572 87.6105C78.2572 86.6459 77.4463 85.4016 76.5097 84.9294C75.41 84.3748 74.4719 84.377 73.4839 84.9366Z" fill="white"/>
</svg>
