<svg width="128" height="128" viewBox="0 0 128 128" fill="none" xmlns="http://www.w3.org/2000/svg">
<rect width="128" height="128" fill="white"/>
<path d="M101 51.8271C101 34.3628 84.2321 20.1664 63.5 20.1664C42.7679 20.1664 26 34.3628 26 51.8271C26.0219 57.1243 27.5451 62.3068 30.3929 66.7735L30.9821 67.6307C31.2324 67.9572 31.4649 68.297 31.6786 68.6485L55.7857 102.666C56.5524 103.707 57.5531 104.554 58.707 105.137C59.8609 105.72 61.1357 106.024 62.4286 106.024C63.7215 106.024 64.9963 105.72 66.1502 105.137C67.3041 104.554 68.3047 103.707 69.0714 102.666L94.3571 69.6664C94.8393 69.0771 95.3214 68.4878 95.75 67.845V67.5235C99.0498 62.9441 100.881 57.4703 101 51.8271Z" fill="#FF8402"/>
<path d="M87.0178 107.649C92.0476 107.649 96.125 103.571 96.125 98.5414C96.125 93.5116 92.0476 89.4342 87.0178 89.4342C81.9881 89.4342 77.9107 93.5116 77.9107 98.5414C77.9107 103.571 81.9881 107.649 87.0178 107.649Z" fill="#FF8402"/>
<path d="M52.7858 36.8271L60.5536 35.595V44.6485H74.9108L73.5715 50.0057H60.7679V65.5414C60.6686 66.6821 60.6686 67.8293 60.7679 68.97C60.8696 69.7434 61.2281 70.4603 61.7858 71.0057C62.366 71.5351 63.0958 71.872 63.8751 71.97C65.0438 72.1603 66.2267 72.2499 67.4108 72.2378H74.2144L72.8751 77.595H67.5179C65.0602 77.6446 62.6031 77.4653 60.1786 77.0593C58.5265 76.7643 56.9667 76.0853 55.6251 75.0771C54.5124 74.1186 53.7105 72.8504 53.3215 71.4342C52.9225 69.5506 52.7427 67.6271 52.7858 65.7021V36.8271Z" fill="white"/>
</svg>
