<svg width="129" height="129" viewBox="0 0 129 129" fill="none" xmlns="http://www.w3.org/2000/svg">
<rect width="128" height="128" transform="translate(0.666504 0.277832)" fill="black"/>
<path d="M67.2236 56.1209H78.5519V58.8578H70.2833V62.7725H78.3319V65.4276H70.2833V69.3971H78.5519V72.1348H67.2236V56.1209ZM109.337 72.4358C112.81 72.4358 114.767 70.7934 114.767 68.5211C114.767 66.9064 113.609 65.7016 111.183 65.1814L108.62 64.6612C107.131 64.3879 106.663 64.1139 106.663 63.5667C106.663 62.8551 107.38 62.4167 108.703 62.4167C110.136 62.4167 111.184 62.7995 111.487 64.1132H114.491C114.326 61.6503 112.534 60.0071 108.896 60.0071C105.754 60.0071 103.548 61.2945 103.548 63.7852C103.548 65.5102 104.761 66.6324 107.38 67.1797L110.246 67.8365C111.376 68.0557 111.679 68.3567 111.679 68.8221C111.679 69.5615 110.825 70.0269 109.447 70.0269C107.711 70.0269 106.718 69.6441 106.332 68.3297H103.3C103.741 70.7934 105.588 72.4358 109.337 72.4358ZM102.488 69.4519H100.227C99.5382 69.4519 99.0968 69.1509 99.0968 68.5211V62.9917H102.488V60.3088H99.0968V56.9421H96.0649V60.3088H93.7768V62.9917H96.0649V69.2875C96.0649 70.8752 97.1946 72.1341 99.2349 72.1341H102.488V69.4519ZM92.497 60.3088V72.1348H89.4928V71.0674C88.4261 71.9585 87.0784 72.4432 85.6884 72.4358C82.1325 72.4358 79.3491 69.6711 79.3491 66.2218C79.3491 62.7725 82.1333 60.0078 85.6884 60.0078C87.0785 60.0006 88.4262 60.4857 89.4928 61.377V60.3096L92.497 60.3088ZM89.5476 66.2218C89.5519 65.7463 89.4615 65.2747 89.2816 64.8345C89.1017 64.3944 88.8359 63.9944 88.4998 63.658C88.1637 63.3216 87.764 63.0556 87.324 62.8753C86.8839 62.695 86.4124 62.6042 85.9369 62.6081C85.4621 62.6066 84.9916 62.6991 84.5527 62.8802C84.1137 63.0613 83.715 63.3275 83.3794 63.6634C83.0437 63.9993 82.7779 64.3983 82.5971 64.8374C82.4164 65.2765 82.3243 65.747 82.3262 66.2218C82.3244 66.6966 82.4166 67.167 82.5974 67.606C82.7782 68.045 83.044 68.4439 83.3796 68.7797C83.7152 69.1156 84.114 69.3817 84.5529 69.5627C84.9917 69.7438 85.4621 69.8363 85.9369 69.8348C87.9487 69.8348 89.5476 68.2471 89.5476 66.2218ZM20.9473 70.2581C23.1813 70.2581 24.9086 68.5421 24.9086 66.0026V56.1201H27.328V72.1333H24.9319V70.647C23.8494 71.767 22.3518 72.408 20.6703 72.408C17.2158 72.408 14.5659 69.9143 14.5659 66.14V56.1209H16.9853V66.0034C16.9853 68.5879 18.6893 70.2581 20.9473 70.2581ZM29.1243 72.1333H31.4281V70.6695C31.9768 71.2226 32.6299 71.6611 33.3495 71.9597C34.069 72.2583 34.8408 72.4109 35.6198 72.4088C39.0751 72.4088 41.7933 69.6861 41.7933 66.3232C41.7933 62.9377 39.0759 60.2157 35.6198 60.2157C34.8442 60.2135 34.0759 60.3661 33.3599 60.6647C32.644 60.9632 31.9949 61.4016 31.4506 61.9543V56.1209H29.1236V72.1341L29.1243 72.1333ZM35.4592 70.3722C34.9265 70.3746 34.3987 70.2716 33.9061 70.069C33.4134 69.8664 32.9658 69.5683 32.5889 69.1919C32.212 68.8155 31.9133 68.3683 31.7101 67.8759C31.5069 67.3835 31.4031 66.8558 31.4048 66.3232C31.4031 65.7906 31.5069 65.2629 31.71 64.7706C31.9132 64.2783 32.2118 63.831 32.5886 63.4547C32.9654 63.0783 33.413 62.7802 33.9055 62.5776C34.3981 62.3749 34.9258 62.2718 35.4584 62.2741C35.9893 62.2741 36.515 62.3789 37.0052 62.5826C37.4955 62.7863 37.9407 63.0849 38.3152 63.4611C38.6898 63.8373 38.9863 64.2838 39.1878 64.775C39.3894 65.2662 39.4919 65.7923 39.4895 66.3232C39.4895 68.5654 37.6714 70.3722 35.4592 70.3722ZM48.7497 60.2383C45.3177 60.2383 42.7144 63.006 42.7144 66.2999C42.7144 69.777 45.4333 72.3855 48.9569 72.3855C51.0993 72.3855 52.8498 71.4472 54.0246 69.8918L52.3431 68.6562C51.4679 69.8228 50.3163 70.3722 48.9576 70.3722C46.9759 70.3722 45.3867 68.9535 45.0639 67.0551H54.6237V66.2999C54.6237 62.8228 52.136 60.2383 48.7497 60.2383ZM45.1105 65.2249C45.5256 63.4406 46.9766 62.2515 48.7039 62.2515C50.4319 62.2515 51.883 63.4406 52.2748 65.2249H45.1097H45.1105ZM61.8345 62.5255V60.3756H61.0283C59.7387 60.3756 58.7943 60.9702 58.2186 61.9085V60.4672H55.9148V72.1341H58.2419V65.4997C58.2419 63.6928 59.3468 62.5255 60.8669 62.5255H61.8345Z" fill="white"/>
</svg>
