<svg width="128" height="128" viewBox="0 0 128 128" fill="none" xmlns="http://www.w3.org/2000/svg">
<rect width="128" height="128" fill="#010202"/>
<path d="M30.0551 72.1398C30.427 73.1413 30.9419 73.9974 31.5998 74.7085C32.2577 75.4198 33.0372 75.964 33.9381 76.3414C34.8392 76.7188 35.8189 76.9074 36.8773 76.9074C37.9071 76.9074 38.8724 76.7115 39.7735 76.3194C40.6746 75.9276 41.4612 75.3761 42.1333 74.665C42.8055 73.954 43.3276 73.1049 43.6995 72.1181C44.0713 71.1311 44.2572 70.0282 44.2572 68.809V50H48.7624V80.4775H44.3001V77.6475C43.299 78.7213 42.119 79.5486 40.7603 80.1292C39.4015 80.7098 37.9357 81 36.3624 81C34.7605 81 33.266 80.7169 31.8786 80.1509C30.4914 79.585 29.2899 78.7796 28.2745 77.7344C27.2592 76.6895 26.4581 75.4344 25.8718 73.9684C25.2854 72.5026 24.9922 70.87 24.9922 69.0702V50H29.4973V68.809C29.4973 70.0282 29.6833 71.1383 30.0551 72.1398Z" fill="white"/>
<path d="M56.528 50V61.1025C57.5292 60.0866 58.6877 59.2812 60.0035 58.6861C61.3192 58.091 62.7495 57.7935 64.2942 57.7935C65.8961 57.7935 67.3977 58.0983 68.7993 58.7078C70.2008 59.3173 71.4164 60.1446 72.4464 61.1896C73.4762 62.2346 74.2914 63.4681 74.892 64.8904C75.4926 66.3128 75.793 67.8221 75.793 69.4186C75.793 71.0149 75.4926 72.517 74.892 73.9247C74.2914 75.3326 73.4762 76.559 72.4464 77.6038C71.4164 78.6487 70.2008 79.476 68.7993 80.0857C67.3977 80.6952 65.8959 81 64.2942 81C62.7495 81 61.3122 80.7025 59.982 80.1072C58.6519 79.5122 57.4863 78.7069 56.4852 77.691V80.4775H52.1945V50H56.528ZM57.0215 72.4227C57.4076 73.3516 57.9439 74.1643 58.6304 74.8609C59.3169 75.5576 60.118 76.1091 61.0332 76.5155C61.9487 76.922 62.9354 77.125 63.9938 77.125C65.0237 77.125 65.996 76.922 66.9114 76.5155C67.8266 76.1091 68.6205 75.5578 69.2928 74.8609C69.9649 74.1645 70.5012 73.3516 70.9017 72.4227C71.3023 71.4939 71.5023 70.4926 71.5023 69.4186C71.5023 68.3446 71.3023 67.3359 70.9017 66.3925C70.5012 65.4492 69.9649 64.6292 69.2928 63.9326C68.6205 63.2361 67.8269 62.6917 66.9114 62.2999C65.996 61.9081 65.0235 61.7121 63.9938 61.7121C62.9642 61.7121 61.9915 61.908 61.0763 62.2999C60.1609 62.6918 59.36 63.2361 58.6735 63.9326C57.987 64.6292 57.4435 65.4492 57.0429 66.3925C56.6426 67.3359 56.4423 68.3446 56.4423 69.4186C56.4423 70.4926 56.6354 71.4939 57.0215 72.4227Z" fill="white"/>
<path d="M78.2383 64.9342C78.8102 63.541 79.5971 62.3147 80.5982 61.2552C81.5991 60.1958 82.7863 59.3613 84.1593 58.7517C85.5323 58.1422 87.0197 57.8374 88.6216 57.8374C90.1949 57.8374 91.6537 58.1277 92.9981 58.7082C94.3424 59.2887 95.501 60.0942 96.4735 61.1247C97.4462 62.155 98.2042 63.3742 98.7475 64.7819C99.291 66.1897 99.5628 67.7209 99.5628 69.3754V70.8122H81.7567C81.8997 71.7121 82.1857 72.5465 82.6149 73.3157C83.0438 74.0848 83.5802 74.7524 84.2238 75.3184C84.8673 75.8846 85.5968 76.3272 86.4119 76.6464C87.2272 76.9657 88.0925 77.1254 89.0078 77.1254C91.6108 77.1254 93.7134 76.0368 95.3151 73.8599L98.4473 76.2109C97.3602 77.6914 96.0161 78.8524 94.4141 79.6941C92.8122 80.5359 91.0102 80.9567 89.008 80.9567C87.3774 80.9567 85.8544 80.6663 84.4385 80.0859C83.0224 79.5055 81.7926 78.6926 80.7484 77.6477C79.7044 76.6027 78.8821 75.3763 78.2813 73.9686C77.6807 72.5609 77.3803 71.0297 77.3803 69.3752C77.3801 67.8079 77.6663 66.3275 78.2383 64.9342ZM84.2667 63.2144C83.0511 64.2448 82.243 65.6163 81.8424 67.3289H95.1864C94.8145 65.6163 94.0208 64.2448 92.805 63.2144C91.5894 62.184 90.1663 61.6688 88.5359 61.6688C86.9054 61.6688 85.4823 62.184 84.2667 63.2144Z" fill="white"/>
<path d="M107.672 63.7148C106.757 64.7307 106.299 66.1094 106.299 67.851V80.4775H101.965V58.2724H106.256V61.0154C106.799 60.1156 107.507 59.4044 108.38 58.882C109.252 58.3594 110.289 58.0981 111.49 58.0981H112.992V62.1909H111.19C109.76 62.191 108.587 62.6989 107.672 63.7148Z" fill="white"/>
</svg>
