<svg width="128" height="128" viewBox="0 0 128 128" fill="none" xmlns="http://www.w3.org/2000/svg">
<rect width="128" height="128" fill="white"/>
<path fill-rule="evenodd" clip-rule="evenodd" d="M57.7844 33.0625V68.0876C59.4851 68.0876 69.046 68.3411 77.1345 67.6017C79.167 67.3905 81.158 67.137 83.066 66.799C87.7117 65.8906 91.6315 64.4752 93.0003 63.3134V36.5481C89.4538 33.8652 74.542 33.0625 57.7844 33.0625Z" fill="#00C56E"/>
<path fill-rule="evenodd" clip-rule="evenodd" d="M93.0003 63.7783V63.3136C91.6315 64.4755 87.7117 65.8908 83.0453 66.7992C81.1787 67.1161 79.167 67.3907 77.1345 67.602C69.046 68.3413 59.5058 68.0878 57.7844 68.0878V68.7005L57.8259 72.6297L57.8674 73.7493C57.9089 75.4393 57.9918 77.1293 58.0955 78.777C58.3029 82.2415 58.697 85.4948 59.2777 88.1987C59.9413 91.2196 60.8746 93.5856 62.1812 94.832L62.2434 94.8953L63.5293 94.9376C73.5258 94.9376 82.3401 89.8676 87.6702 82.1148C89.7041 78.9802 91.159 75.4938 91.9633 71.8269C92.6477 69.2919 93.0003 66.588 93.0003 63.7995V63.7783Z" fill="#1717EF"/>
<path fill-rule="evenodd" clip-rule="evenodd" d="M62.1816 94.8319C60.875 93.5856 59.9417 91.2407 59.278 88.1987C58.6585 85.0918 58.2634 81.9428 58.0959 78.777C57.8741 75.4159 57.7703 72.0479 57.7848 68.6793V68.0878C50.0282 68.0878 43.2878 67.4963 40.0731 66.9048C36.6926 66.2711 34.4527 65.0036 34.0587 64.3698C33.9411 70.7306 35.8232 76.9631 39.4302 82.157C42.02 85.9192 45.4243 89.0246 49.38 91.2334C53.3357 93.4421 57.737 94.695 62.2438 94.8953L62.1816 94.8319Z" fill="#FF161F"/>
<path fill-rule="evenodd" clip-rule="evenodd" d="M35.1994 35.1328C34.5772 35.1328 34.0587 35.6609 34.0587 36.2946V64.3696C34.4528 65.0034 36.6926 66.2709 40.0732 66.9046L41.919 67.1792C45.507 67.6651 51.2726 68.0876 57.7848 68.0876V46.498C50.443 36.865 39.0777 35.1328 35.1994 35.1328Z" fill="#E621BB"/>
</svg>
