<svg width="128" height="128" viewBox="0 0 128 128" fill="none" xmlns="http://www.w3.org/2000/svg">
<rect width="128" height="128" fill="#FFB901"/>
<path d="M63.5386 91.4608C80.0898 91.4608 93.5072 78.0434 93.5072 61.4922C93.5072 44.9411 80.0898 31.5237 63.5386 31.5237C46.9875 31.5237 33.5701 44.9411 33.5701 61.4922C33.5701 78.0434 46.9875 91.4608 63.5386 91.4608Z" fill="#FFB901" stroke="#747371" stroke-width="1.5"/>
<path d="M58.4243 103.17L58.4298 103.171C64.7691 104.366 70.8387 100.321 72.1255 93.9786L72.1262 93.9753L77.9347 64.3167L77.9354 64.3132C79.1285 57.9805 75.0911 51.815 68.7385 50.6166L64.3409 49.7371L64.3409 49.737L64.3354 49.736C58.0025 48.5428 51.8366 52.5806 50.6387 58.9339C50.6386 58.9344 50.6384 58.935 50.6383 58.9355L44.8305 88.5906L44.8305 88.5906L44.8298 88.5941C43.6367 94.9268 47.6741 101.092 54.0269 102.291C54.0277 102.291 54.0286 102.291 54.0294 102.291L58.4243 103.17ZM84.0392 40.3815C84.6767 37.3318 83.5442 34.2582 81.2853 31.7639C79.0259 29.2692 75.6166 27.3214 71.5994 26.4817C67.5823 25.6419 63.6782 26.0611 60.6087 27.4419C57.5398 28.8225 55.271 31.1851 54.6335 34.2348C53.996 37.2844 55.1285 40.358 57.3874 42.8523C59.6468 45.347 63.0561 47.2949 67.0733 48.1346C71.0904 48.9743 74.9945 48.5552 78.064 47.1743C81.1329 45.7938 83.4017 43.4311 84.0392 40.3815Z" fill="white" stroke="#747371"/>
<path d="M69.627 53.2531C69.8368 51.8101 68.3302 50.3965 66.2619 50.0957C64.1936 49.795 62.3468 50.721 62.137 52.164C61.9272 53.607 63.4338 55.0205 65.5021 55.3213C67.5703 55.622 69.4171 54.6961 69.627 53.2531Z" fill="#747371"/>
<path d="M64.0668 68.2689L62.1306 68.0049C61.0745 67.8289 60.3705 66.8608 60.5465 65.8927L61.7786 57.532C61.9546 56.4759 62.9227 55.7718 63.8908 55.9478L65.827 56.2119C66.883 56.3879 67.5871 57.356 67.4111 58.3241L66.179 66.6848C66.091 67.6529 65.1229 68.4449 64.0668 68.2689Z" fill="#747371"/>
</svg>
