<svg width="128" height="128" viewBox="0 0 128 128" fill="none" xmlns="http://www.w3.org/2000/svg">
<rect width="128" height="128" fill="#353C4C"/>
<path d="M52.1197 70.3101C52.0251 70.2055 51.9136 70.3556 51.8342 70.445C51.8179 70.4659 51.8037 70.4885 51.792 70.5124L51.3631 70.9205L50.8682 71.2678L50.3447 71.5932L49.5003 72.0097L48.3603 72.3925C48.3192 72.4001 48.2793 72.4137 48.2421 72.4329C48.1459 72.4464 48.0479 72.4565 47.9516 72.4734C45.3475 72.9101 43.0541 72.2289 41.1592 70.4365C38.0096 67.4622 38.0518 62.6095 41.2065 59.6452C41.8525 59.0271 42.626 58.5575 43.4729 58.2693C43.4053 58.4953 43.3614 58.6369 43.3192 58.7752C43.2905 58.878 43.2179 58.9994 43.3445 59.0753C43.4442 59.1343 43.5286 59.0449 43.6063 58.9876C43.9576 58.733 44.3173 58.4818 44.6568 58.217C44.8881 58.0316 45.0671 57.9995 45.312 58.217C45.6364 58.4842 45.9746 58.7341 46.3253 58.9657C46.4233 59.0348 46.5313 59.163 46.6631 59.0669C46.7948 58.9708 46.68 58.8544 46.6496 58.7566C46.5128 58.3165 46.376 57.8764 46.2122 57.4465C46.1652 57.3524 46.1565 57.2438 46.188 57.1436C46.2195 57.0433 46.2887 56.959 46.381 56.9086C46.7306 56.6506 47.0701 56.3808 47.4112 56.1127C47.4872 56.0537 47.5936 55.993 47.5548 55.8801C47.5159 55.7671 47.3977 55.7738 47.3014 55.7738C46.8944 55.7738 46.4857 55.7603 46.0787 55.7738C45.9749 55.7908 45.8685 55.7672 45.7817 55.7078C45.6948 55.6485 45.6343 55.558 45.6126 55.4551C45.4792 55.0437 45.3272 54.639 45.1752 54.2327C45.1262 54.1399 45.1144 54 44.9692 54C44.856 54 44.8375 54.1366 44.8003 54.2243C44.6635 54.5902 44.5216 54.956 44.4085 55.3304C44.3122 55.6541 44.1467 55.8177 43.7786 55.7806C43.4411 55.7611 43.1028 55.7611 42.7653 55.7806C42.6437 55.7806 42.4816 55.7334 42.4275 55.8666C42.3735 55.9998 42.5356 56.0672 42.615 56.1549C42.6422 56.1871 42.6748 56.2145 42.7112 56.2358C43.0963 56.4601 42.9291 56.5731 42.6319 56.7012C41.7208 57.1098 40.8951 57.6865 40.1983 58.4008C38.6549 59.9184 37.7422 61.9618 37.6426 64.1222C37.5431 66.2827 38.264 68.4011 39.6612 70.0538C40.7285 71.3129 42.1464 72.2269 43.7349 72.6799C45.3234 73.133 47.011 73.1045 48.5833 72.5982C49.0089 72.5157 49.412 72.3432 49.7654 72.0923C50.0728 72.0485 50.2721 71.8242 50.5203 71.6674C50.7281 71.6168 50.8581 71.4567 51.027 71.3403L51.4543 71.0031L51.9609 70.5799C52.047 70.5242 52.2564 70.4601 52.1197 70.3101Z" fill="#BF2134"/>
<path d="M35.3784 65.0948C35.0778 65.0442 34.5813 65.2634 34.3753 64.9953C34.2064 64.7559 34.4563 64.3208 34.5239 63.96C34.6809 63.1355 34.6928 63.1372 35.5372 63.1372C35.8158 63.1372 36.0962 63.1456 36.3816 63.1372C36.6045 63.1287 36.6839 63.2029 36.6433 63.4306C36.5657 63.8831 36.5402 64.343 36.5673 64.8014C36.5842 65.0493 36.4728 65.1133 36.2465 65.1015C35.9763 65.0863 35.7111 65.0948 35.3784 65.0948Z" fill="#FEFEFE"/>
<path d="M101.374 60.3017C101.751 59.9732 102.191 59.7269 102.669 59.5785C103.146 59.4301 103.649 59.383 104.146 59.4401C104.49 59.4538 104.828 59.5372 105.139 59.685C105.45 59.8328 105.728 60.042 105.956 60.3C106.149 60.5226 106.245 60.5259 106.478 60.3388C107.736 59.3271 109.145 59.1163 110.617 59.7672C111.526 60.1668 111.956 60.9694 111.995 61.9592C112.051 63.384 111.608 64.7447 111.414 66.1374C111.34 66.6635 111.21 67.1812 111.153 67.7055C111.114 68.0428 110.972 68.1473 110.646 68.1288C110.155 68.0993 109.663 68.0993 109.172 68.1288C108.802 68.1524 108.759 68.0057 108.817 67.6971C109.055 66.4072 109.28 65.1139 109.509 63.819C109.546 63.6133 109.58 63.4059 109.619 63.2019C109.764 62.46 109.55 61.8529 109.043 61.5832C108.732 61.4328 108.383 61.3778 108.04 61.4252C107.698 61.4726 107.377 61.6203 107.118 61.8496C106.835 62.105 106.645 62.4474 106.579 62.8225C106.295 64.3883 106.014 65.9542 105.735 67.5201C105.63 68.1153 105.635 68.117 105.009 68.117C104.544 68.117 104.081 68.1069 103.617 68.117C103.369 68.1254 103.313 68.0563 103.359 67.805C103.639 66.2673 103.908 64.7273 104.166 63.185C104.318 62.2795 104.027 61.686 103.357 61.4769C102.971 61.3585 102.555 61.3778 102.181 61.5316C101.807 61.6854 101.499 61.9641 101.308 62.32C101.08 62.75 101.052 63.2305 100.971 63.6942C100.719 65.0532 100.474 66.4123 100.248 67.7764C100.206 68.031 100.131 68.1305 99.8594 68.122C99.2835 68.1018 98.7076 68.1085 98.1317 68.122C97.9223 68.122 97.8649 68.063 97.902 67.8522C98.2702 65.7918 98.6333 63.7302 98.9913 61.6675C99.0842 61.1313 99.1957 60.5968 99.2632 60.0572C99.3071 59.7099 99.4152 59.5362 99.8121 59.5733C100.232 59.607 100.655 59.607 101.075 59.5733C101.454 59.548 101.56 59.6744 101.413 60.0218C101.392 60.1138 101.379 60.2075 101.374 60.3017Z" fill="#FEFEFE"/>
<path d="M57.5222 66.4341C57.7823 64.9503 58.0289 63.4648 58.3126 61.9844C58.3818 61.6202 58.2991 61.5275 57.9343 61.5376C57.1575 61.5578 57.1575 61.5376 57.2858 60.7771C57.2943 60.7232 57.3061 60.6675 57.3196 60.6085C57.4006 60.2848 57.3348 59.875 57.5594 59.6525C57.784 59.4299 58.1741 59.5918 58.4916 59.5783C58.6909 59.5698 58.75 59.4822 58.7787 59.3017C58.8643 58.779 58.9589 58.258 59.0624 57.7387C59.5184 55.4742 61.2191 54.7407 63.2761 55.0779C64.0901 55.2112 64.0884 55.2466 63.9651 56.0441C63.9127 56.3813 63.9381 56.8062 63.7472 57.0558C63.5564 57.3053 63.1207 57.071 62.7947 57.0777C61.8811 57.0929 61.4791 57.4149 61.2951 58.3271C61.2309 58.6425 61.1785 58.9595 61.1093 59.2731C61.0553 59.5142 61.1363 59.5985 61.3846 59.5901C61.8051 59.5766 62.229 59.5901 62.6495 59.5901C62.8842 59.5901 62.945 59.6794 62.9045 59.8919C62.815 60.3573 62.7356 60.8243 62.6495 61.2914C62.6491 61.3328 62.6395 61.3737 62.6214 61.411C62.6034 61.4483 62.5773 61.4812 62.545 61.5073C62.5127 61.5334 62.4751 61.5521 62.4348 61.562C62.3945 61.5719 62.3524 61.5727 62.3117 61.5645C61.8912 61.5494 61.4673 61.573 61.0468 61.5645C60.785 61.5527 60.6922 61.6421 60.6466 61.9018C60.2801 64.06 59.895 66.2166 59.5117 68.3732C59.3293 69.3849 58.9831 70.3258 58.0542 70.9024C56.9616 71.5887 55.7946 71.5364 54.6073 71.1874C54.4503 71.1418 54.4233 71.0491 54.452 70.9007C54.5415 70.4488 54.6344 69.997 54.6968 69.5417C54.7323 69.2938 54.8505 69.2601 55.065 69.2921C55.3429 69.3472 55.6266 69.3665 55.9094 69.3495C56.6778 69.2669 57.0308 68.9566 57.2064 68.2029C57.2368 68.0663 57.2655 67.9297 57.2959 67.7932C57.4192 67.3463 57.4294 66.8843 57.5222 66.4341Z" fill="#FEFEFE"/>
<path d="M50.2435 60.2797C50.6705 59.9 51.1846 59.6311 51.7404 59.4967C52.2962 59.3623 52.8765 59.3666 53.4303 59.5091C54.0809 59.6508 54.6555 60.0291 55.042 60.5706C55.4285 61.112 55.5993 61.7777 55.521 62.438C55.315 64.2674 54.9029 66.0666 54.6124 67.8842C54.5787 68.0882 54.4689 68.122 54.2933 68.1203C53.7461 68.1203 53.1972 68.095 52.65 68.1203C52.2836 68.1422 52.2346 68.0039 52.292 67.692C52.5639 66.2385 52.8206 64.7834 53.0841 63.3283C53.1626 63.0007 53.1626 62.6593 53.0841 62.3317C52.8544 61.5528 51.9661 61.1852 51.0777 61.5055C50.7881 61.5983 50.5298 61.7693 50.3316 61.9997C50.1333 62.23 50.0029 62.5107 49.9547 62.8106C49.6541 64.4141 49.3636 66.0143 49.1103 67.6296C49.0478 68.0107 48.9177 68.1473 48.5276 68.1203C48.0371 68.0941 47.5455 68.0941 47.055 68.1203C46.7746 68.1304 46.6919 68.0579 46.7459 67.7662C46.9807 66.4898 47.1918 65.21 47.4214 63.9319C47.6579 62.583 47.9045 61.2341 48.1308 59.8852C48.1713 59.644 48.2557 59.5479 48.5074 59.5631C48.9573 59.5894 49.4085 59.5894 49.8584 59.5631C50.2468 59.5344 50.3752 59.6609 50.2671 60.0302C50.251 60.1124 50.2431 60.196 50.2435 60.2797Z" fill="#FEFEFE"/>
<path d="M20.7329 68.3243C20.1134 68.3375 19.4984 68.2155 18.931 67.9669C18.2796 67.6907 17.7394 67.2048 17.3967 66.5867C17.0539 65.9685 16.9281 65.2536 17.0395 64.5558C17.2624 63.0096 17.558 61.4735 17.8079 59.9307C17.8518 59.6559 17.9599 59.5615 18.2419 59.5733C18.7756 59.5952 19.3093 59.5918 19.8429 59.5733C20.125 59.5631 20.2128 59.6407 20.1587 59.9307C19.8953 61.3707 19.6521 62.8157 19.392 64.2574C19.1978 65.3078 19.5896 66.016 20.4796 66.1897C20.7065 66.2415 20.9417 66.2459 21.1704 66.2026C21.3991 66.1593 21.6164 66.0693 21.8086 65.9382C22.0008 65.8071 22.1638 65.6377 22.2873 65.4408C22.4109 65.2438 22.4923 65.0234 22.5265 64.7936C22.8169 63.1883 23.1007 61.5798 23.3709 59.9695C23.4198 59.6744 23.5127 59.5615 23.8201 59.5733C24.3386 59.5952 24.8587 59.5952 25.3772 59.5733C25.6896 59.5615 25.7673 59.666 25.715 59.9611C25.4819 61.224 25.264 62.4903 25.0394 63.7515C24.9584 64.2051 24.8874 64.6604 24.7861 65.1004C24.32 67.1289 22.8169 68.3193 20.7329 68.3243Z" fill="#FEFEFE"/>
<path d="M83.3326 66.1087C83.7507 65.9401 84.1225 65.6741 84.4169 65.3331C84.557 65.1645 84.6584 65.1645 84.8222 65.3078C85.1599 65.6197 85.5146 65.9216 85.8777 66.2065C86.0905 66.3751 86.0466 66.5033 85.9047 66.6871C84.8019 68.0495 83.3377 68.4946 81.659 68.2687C79.7439 68.0107 78.3776 66.7259 78.099 65.0229C77.7477 62.8781 78.6783 60.9306 80.5022 59.9745C82.3075 59.0337 84.5554 59.2782 85.8355 60.5546C85.8642 60.5849 85.8946 60.6136 85.9233 60.6456C86.7019 61.4718 86.6917 61.5713 85.7629 62.1817L85.7274 62.2053C85.4673 62.3739 85.2207 62.642 84.9472 62.6825C84.6195 62.7297 84.5385 62.293 84.3139 62.0991C83.6518 61.5292 82.9121 61.3386 82.0829 61.6017C81.176 61.89 80.6339 62.5358 80.4363 63.4564C80.1779 64.662 80.639 65.5961 81.7198 66.1205C82.2423 66.3046 82.8129 66.3004 83.3326 66.1087Z" fill="#FEFEFE"/>
<path d="M29.7359 68.3244C28.4609 68.2839 27.3175 67.8573 26.4444 66.8186C26.2147 66.5455 26.1556 66.3465 26.4934 66.1104C26.7662 65.9104 27.019 65.6846 27.2483 65.436C27.4999 65.173 27.6671 65.1392 27.9373 65.4512C28.4862 66.097 29.1617 66.5252 30.0669 66.4342C30.2639 66.4196 30.4553 66.362 30.6276 66.2656C30.7207 66.221 30.8002 66.1526 30.8582 66.0674C30.9162 65.9821 30.9505 65.8831 30.9578 65.7803C30.965 65.6775 30.9448 65.5747 30.8992 65.4822C30.8537 65.3897 30.7845 65.311 30.6986 65.2539C30.4462 65.0765 30.1706 64.9346 29.8795 64.8323C29.381 64.6429 28.9015 64.4069 28.4474 64.1275C27.5878 63.5576 27.174 62.7668 27.2736 61.74C27.3733 60.7131 27.9492 60.0285 28.9084 59.6458C30.327 59.0775 32.1814 59.4417 33.2217 60.4787C33.4699 60.7249 33.5696 60.907 33.2217 61.1667C32.9277 61.4053 32.6528 61.6663 32.3992 61.9474C32.2303 62.116 32.1189 62.116 31.95 61.9474C31.6126 61.6043 31.1804 61.3695 30.7087 61.2729C30.5156 61.2307 30.3157 61.2307 30.1227 61.2729C29.8423 61.3403 29.5738 61.4314 29.513 61.7669C29.4837 61.9122 29.4991 62.063 29.5573 62.1993C29.6155 62.3357 29.7137 62.4512 29.839 62.5308C30.1497 62.755 30.5145 62.8545 30.8522 63.0197C31.19 63.185 31.516 63.3249 31.8301 63.507C32.6559 63.9842 33.22 64.6317 33.171 65.6586C33.1186 66.7175 32.5461 67.4223 31.6511 67.8978C31.0591 68.1993 30.4002 68.3461 29.7359 68.3244Z" fill="#FEFEFE"/>
<path d="M43.164 68.1203H42.6169C41.992 68.1203 41.9886 68.1203 42.0984 67.4964C42.5476 64.9672 43.0019 62.4481 43.4393 59.9223C43.4849 59.6575 43.5795 59.5698 43.8412 59.585C44.3884 59.6002 44.9373 59.6069 45.4828 59.585C45.7969 59.5715 45.8324 59.7081 45.7868 59.961C45.449 61.8259 45.1169 63.6919 44.7904 65.559C44.6637 66.2723 44.5235 66.9838 44.4205 67.7004C44.3749 68.0191 44.2736 68.1776 43.9223 68.1355C43.67 68.1161 43.4169 68.111 43.164 68.1203Z" fill="#FEFEFE"/>
<path d="M73.1894 66.7225C73.1891 66.4066 73.2824 66.0977 73.4574 65.8346C73.6325 65.5715 73.8816 65.3659 74.1733 65.2438C74.4651 65.1216 74.7865 65.0883 75.0972 65.148C75.4078 65.2078 75.6939 65.3579 75.9193 65.5795C76.1448 65.8011 76.2996 66.0843 76.3643 66.3935C76.429 66.7027 76.4007 67.024 76.2829 67.3172C76.1651 67.6104 75.9632 67.8623 75.7024 68.0412C75.4417 68.22 75.1338 68.318 74.8175 68.3226C74.6035 68.3312 74.3901 68.2959 74.1903 68.2189C73.9906 68.1418 73.8088 68.0247 73.6562 67.8747C73.5036 67.7247 73.3835 67.5451 73.3032 67.3469C73.2229 67.1487 73.1842 66.9362 73.1894 66.7225Z" fill="#FEFEFE"/>
<path d="M96.3061 61.686C95.3418 59.8683 93.2662 59.0252 91.0707 59.5631C90.0613 59.8265 89.1675 60.4158 88.5284 61.2392C87.8894 62.0627 87.5411 63.074 87.5377 64.1157C87.5272 64.8744 87.734 65.6203 88.1339 66.2655C89.1759 67.9972 91.2835 68.7323 93.4013 68.1102C96.1929 67.2941 97.6149 64.1494 96.3061 61.686ZM91.3258 66.1138C90.4813 65.8575 90.0727 65.2252 89.9561 64.3804C89.8024 63.2676 90.3902 62.1243 91.341 61.6944C92.8778 61.0014 94.4281 62.0552 94.3808 63.765C94.3335 65.4747 92.8812 66.5808 91.3258 66.1138Z" fill="#FEFEFE"/>
<path d="M67.7903 59.4029C65.1523 59.4029 62.9991 61.4735 62.9889 64.0112C62.9788 66.4965 64.8331 68.3226 67.3714 68.3243C70.0313 68.3277 72.2268 66.2655 72.2403 63.7228C72.2572 61.2712 70.3286 59.3996 67.7903 59.4029ZM66.777 66.1138C65.9427 65.8642 65.5424 65.2471 65.409 64.4276C65.1304 62.701 66.5557 61.224 68.1905 61.5477C69.2156 61.75 69.8624 62.6218 69.8388 63.7667C69.7966 65.4427 68.3256 66.5792 66.7702 66.1138H66.777Z" fill="#FEFEFE"/>
</svg>
