<svg width="128" height="128" viewBox="0 0 128 128" fill="none" xmlns="http://www.w3.org/2000/svg">
<rect width="128" height="128" fill="white"/>
<path fill-rule="evenodd" clip-rule="evenodd" d="M49.9722 60.2391V44.604L53.4914 42.2586L57.2045 43.6251V51.2461H58.9652V35.8102L60.9186 33.8557H65.4124V50.6592L66.5851 45.1909V38.9364L68.5408 37.1768H72.2527V45.7734H77.5283V58.8682V65.7075L62.6783 69.6187H53.8845L49.9722 62.3864V60.2391Z" fill="#006837"/>
<path fill-rule="evenodd" clip-rule="evenodd" d="M50.7571 60.2391V44.604L54.272 42.2586L57.9861 43.6251V51.2461H59.7457V35.8102L61.6992 33.8557H66.1929V50.6592L67.3668 45.1909V38.9364L69.3213 37.1768H73.0333V45.7734H78.3132V58.8682V65.7075L63.4588 69.6187H54.665L50.7571 62.3864V60.2391Z" fill="#39B54A"/>
<path fill-rule="evenodd" clip-rule="evenodd" d="M55.4454 64.5352V59.2607H59.7454L61.505 56.9141V51.2465H68.7341V60.2396H70.2988V49.8789H76.1613V67.8606L56.4243 72.3544L55.4454 64.5352Z" fill="#006837"/>
<path fill-rule="evenodd" clip-rule="evenodd" d="M56.2303 64.5352V59.2607H60.5259L62.2856 56.9141V51.2465H69.519V60.2396H71.0804V49.8789H76.9462V67.8606L57.2049 72.3544L56.2303 64.5352Z" fill="#8CC63F"/>
<path fill-rule="evenodd" clip-rule="evenodd" d="M64.2597 66.8968C53.4797 66.8968 44.7407 58.7052 44.7407 48.5997C44.7407 38.4931 53.4797 30.3016 64.2597 30.3016C75.0397 30.3016 83.7776 38.4931 83.7776 48.5997C83.7776 58.7052 75.0397 66.8968 64.2597 66.8968ZM90.4712 45.3455C90.3365 42.4394 89.5339 39.6034 88.1258 37.0587C86.4023 33.8931 83.9583 31.1787 80.992 29.1321C77.8374 26.9258 74.2612 25.3961 70.4857 24.6417C68.8542 24.3044 67.1997 24.1018 65.5353 24.035C65.4587 24.0285 65.381 24.0164 65.3054 24H63.2731C63.1855 24 63.1023 24.0318 63.0147 24.035C56.7252 24.3362 51.2328 26.2786 46.5726 29.9008C43.2219 32.4324 40.6685 35.8706 39.2121 39.8093C38.7205 41.1451 38.3832 42.5336 38.2091 43.9472C38.15 44.4224 38.1106 44.8976 38.0547 45.3728C38.0416 45.4484 38.023 45.5217 38 45.5951V47.0536C38.0405 47.1598 38.0712 47.2704 38.0909 47.3821C38.2595 48.9545 38.5781 50.5072 39.0424 52.0193C39.856 54.7677 40.8185 57.4712 41.9233 60.1167C43.5088 63.9721 45.229 67.7771 47.0357 71.5537C49.7184 77.1534 52.584 82.6863 55.5087 88.1984C58.3041 93.4116 61.1828 98.5985 64.1447 103.758C64.1841 103.826 64.2279 103.893 64.2915 104C64.355 103.897 64.4064 103.823 64.4491 103.746C65.6394 101.623 66.8679 99.5018 68.0527 97.3699C72.1501 90.0029 76.1128 82.579 79.827 75.0653C81.8319 71.0106 83.759 66.9285 85.5296 62.7797C86.5841 60.3225 87.5827 57.8446 88.463 55.3404C89.0992 53.5654 89.6281 51.7532 90.0475 49.9148C90.2665 49.0355 90.399 48.1365 90.4439 47.2321C90.4515 47.1642 90.4668 47.0974 90.4877 47.0339V45.5754C90.4767 45.4987 90.4723 45.4221 90.4712 45.3455Z" fill="#29ABE2"/>
</svg>
