<svg width="128" height="128" viewBox="0 0 128 128" fill="none" xmlns="http://www.w3.org/2000/svg">
<rect width="128" height="128" fill="black"/>
<path fill-rule="evenodd" clip-rule="evenodd" d="M29.6971 65H32.3029C32.7579 65 33 64.8364 33 64.2481V62.9079V60.9469V60.7508C33 60.13 32.7278 60 32.3029 60H29.6971C29.2431 60 29 60.1625 29 60.7508V64.2481C29 64.8364 29.2732 65 29.6971 65Z" fill="#F14C00"/>
<path fill-rule="evenodd" clip-rule="evenodd" d="M18.354 72.2976H20.72C21.266 72.2976 21.4178 72.2065 21.7215 71.5651L26.9693 56.7938C27.09 56.4579 26.9995 56.0917 26.5138 56.0917H23.9055C23.2378 56.0917 23.086 56.2748 22.8738 56.8858L19.5677 67.0794L16.2303 56.8544C16.0483 56.2748 15.8663 56.0613 15.2298 56.0613H12.4998C12.0443 56.0613 11.9226 56.4579 12.0443 56.7634L17.3535 71.5651C17.626 72.2065 17.808 72.2976 18.354 72.2976Z" fill="white"/>
<path fill-rule="evenodd" clip-rule="evenodd" d="M46.747 66.7429C48.2633 66.225 50.1446 64.4242 50.1446 61.8293C50.1446 60.243 49.6288 58.8388 48.7188 57.9536C47.6871 56.9156 46.5046 56.3663 43.835 56.3663H37.6771C37.101 56.3663 36.9793 56.6415 36.9793 57.0684V71.8701C36.9793 72.4508 37.2216 72.6036 37.6771 72.6036H40.1035C40.559 72.6036 40.8013 72.4508 40.8013 71.8701V59.815H44.0783C45.3513 59.815 46.3227 60.6396 46.3227 61.9213C46.3227 63.0807 45.2005 63.9356 43.9868 63.9356H43.5011C42.925 63.9356 42.8033 64.2108 42.8033 64.668V66.6519C42.8033 67.354 42.8647 67.6282 43.0768 67.9023L45.7153 71.8701C46.0491 72.3891 46.3528 72.6036 46.929 72.6036H49.8108C50.2663 72.6036 50.387 72.1453 50.1748 71.8094L46.747 66.7429Z" fill="white"/>
<path fill-rule="evenodd" clip-rule="evenodd" d="M66.858 67.8425V64.2713C66.858 63.813 66.7062 63.5692 66.1602 63.5692H60.7917C60.2156 63.5692 60.0939 63.8444 60.0939 64.2713V66.1945C60.0939 66.6518 60.2457 66.8966 60.7917 66.8966H63.0059C63.0059 68.7874 61.8837 69.5512 60.2759 69.5512C58.668 69.5512 57.576 68.6357 57.576 67.0483V62.1043C57.576 60.5181 58.668 59.4497 60.2759 59.4497C61.9139 59.4497 62.7937 60.1811 63.0662 60.945C63.1879 61.2809 63.0974 61.7988 63.764 61.7988H66.1311C66.7062 61.7988 66.8289 61.7078 66.8289 61.0977C66.858 57.7703 63.3397 56.001 60.2759 56.001C57.3639 56.001 53.6625 57.6479 53.6625 61.555V67.628C53.6625 71.5048 57.3639 73 60.2759 73C63.0662 72.9686 66.6459 71.4127 66.858 67.8425Z" fill="white"/>
<path fill-rule="evenodd" clip-rule="evenodd" d="M82.9965 56.3669H80.5702C80.1146 56.3669 79.8723 56.5197 79.8723 57.068V71.8707C79.8723 72.328 80.0242 72.5728 80.5702 72.5728H90.7621C91.3383 72.5728 91.46 72.2976 91.46 71.8707V69.8565C91.46 69.3992 91.3082 69.1544 90.7621 69.1544H83.6943V57.0993C83.6943 56.5197 83.4208 56.3669 82.9965 56.3669Z" fill="white"/>
<path fill-rule="evenodd" clip-rule="evenodd" d="M112.148 67.0484C112.148 68.6357 111.026 69.5513 109.388 69.5513C107.78 69.5513 106.658 68.6357 106.658 67.0484V61.9213C106.658 60.334 107.78 59.4184 109.388 59.4184C110.996 59.4184 112.148 60.334 112.148 61.9213V67.0484ZM109.418 56H109.388C106.476 56 102.835 57.6783 102.835 61.5854V67.4147C102.835 71.3207 106.476 72.999 109.388 72.999C112.3 72.999 116 71.3207 116 67.4147V61.5854C116 57.6783 112.33 56 109.418 56Z" fill="white"/>
<path fill-rule="evenodd" clip-rule="evenodd" d="M74.5333 72.6031C74.9878 72.6031 75.2312 72.4504 75.2312 71.901V57.0993C75.2312 56.5186 74.9576 56.3972 74.5333 56.3972H72.2578C71.8033 56.3972 71.561 56.55 71.561 57.0993V71.901C71.561 72.4807 71.8335 72.6031 72.2578 72.6031H74.5333Z" fill="white"/>
<path fill-rule="evenodd" clip-rule="evenodd" d="M97.9514 56.3969H95.6759C95.2214 56.3969 94.9791 56.5497 94.9791 57.099V71.9007C94.9791 72.4804 95.2516 72.6028 95.6759 72.6028H97.9514C98.4059 72.6028 98.6493 72.4511 98.6493 71.9007V57.099C98.6493 56.5193 98.4059 56.3969 97.9514 56.3969Z" fill="white"/>
<path fill-rule="evenodd" clip-rule="evenodd" d="M28.7889 71.565C28.7889 72.1457 29.0624 72.2671 29.4868 72.2671H32.0951C32.5506 72.2671 32.7929 72.1143 32.7929 71.565V68.3003C32.7929 67.7196 32.5194 67.5982 32.0951 67.5982H29.4868C29.0312 67.5982 28.7889 67.75 28.7889 68.3003V71.565Z" fill="white"/>
</svg>
