<svg width="129" height="129" viewBox="0 0 129 129" fill="none" xmlns="http://www.w3.org/2000/svg">
<rect width="128" height="128" transform="translate(0.333008 0.69458)" fill="#3E1952"/>
<path d="M32.4867 57.4466H37.9157L30.6397 77.5815H25.3367L18.0747 57.4466H23.5037L27.9952 70.2915L32.4867 57.4466Z" fill="white"/>
<path d="M44.8698 77.5815H39.7207V57.4466H44.8698V77.5815Z" fill="white"/>
<path d="M59.9954 72.936V77.5814H55.0422C51.4462 77.5814 49.893 75.6645 49.893 72.4323V62.078H47.0386V57.4326H49.893V51.402H55.0422V57.4466H59.9954V62.092H55.0422V71.3409C55.0422 72.2784 55.28 72.95 56.5253 72.95H59.9954V72.936Z" fill="white"/>
<path d="M74.5893 64.4707C74.2395 62.6797 72.9522 61.5324 70.8394 61.5324C69.0484 61.5324 67.7891 62.3859 67.2854 63.7571H62.0943C62.9198 59.5315 65.9281 56.887 70.8394 56.887C76.6182 56.887 79.8224 60.5669 79.8224 66.1358V77.5815H74.6733V75.2727C73.7358 76.7979 72.1407 77.9592 69.0484 77.9592C64.445 77.9592 61.7025 75.6925 61.7025 71.9846C61.7025 69.0602 62.7239 67.2972 65.5363 65.9679C67.5232 65.0304 71.553 64.7226 74.5893 64.4847V64.4707ZM66.8656 71.4249C66.8656 72.3903 67.6072 73.4537 69.9159 73.4537C72.5744 73.4537 74.6733 71.9706 74.6733 69.424V68.7664C71.7489 68.9622 68.9365 69.2001 67.957 69.7038C67.1035 70.1236 66.8656 70.5574 66.8656 71.4249Z" fill="white"/>
<path d="M89.6309 72.936V77.5814H87.1263C83.5303 77.5814 81.9772 75.6645 81.9772 72.4323V51.402H87.1263V71.3409C87.1263 72.2784 87.3642 72.95 88.6095 72.95H89.6309V72.936Z" fill="white"/>
<path d="M90.4565 71.061H95.6056C95.8295 72.6282 97.6765 73.3278 99.3556 73.3278C100.363 73.3278 101.888 73.1039 101.888 71.7746C101.888 70.9491 101.3 70.4873 100.083 70.2215L95.8575 69.284C93.6747 68.7803 90.9043 67.0593 90.9043 63.1134C90.9043 59.1816 94.4583 56.9009 98.6 56.9009C102.7 56.9009 106.058 58.8598 106.408 63.4213H101.133C100.867 62.134 99.7333 61.5463 98.4321 61.5463C96.9489 61.5463 96.0954 62.134 96.0534 63.0715C96.0534 63.939 96.753 64.3588 97.6205 64.5546L102.154 65.5621C104.337 66.0658 107.037 67.591 107.037 71.7746C107.037 76.2661 103.413 77.9872 99.1877 77.9872C95.032 77.9732 90.6524 75.8324 90.4565 71.061Z" fill="white"/>
<path d="M44.8698 51.402H39.7207V55.9634H44.8698V51.402Z" fill="white"/>
<path d="M108.632 55.3338C107.555 55.3338 106.687 54.4383 106.701 53.3469C106.701 52.2695 107.583 51.402 108.646 51.402C109.71 51.402 110.577 52.2835 110.591 53.3609C110.591 54.4383 109.71 55.3338 108.632 55.3338ZM110.13 53.4029C110.144 52.5353 109.472 51.8217 108.632 51.8217C107.821 51.8217 107.121 52.5353 107.121 53.3749C107.121 54.2004 107.793 54.914 108.604 54.928C109.444 54.928 110.13 54.2424 110.13 53.4029Z" fill="white"/>
<path d="M108.94 53.5568C109.094 53.7946 109.234 54.0045 109.374 54.2284C109.416 54.2984 109.5 54.3683 109.416 54.4663C109.36 54.5362 109.178 54.5222 109.094 54.4383C109.052 54.3963 109.024 54.3403 108.982 54.2844C108.856 54.0885 108.73 53.8786 108.604 53.6827C108.534 53.5708 108.367 53.5148 108.241 53.5568C108.171 53.5848 108.171 53.6267 108.171 53.6827C108.171 53.8646 108.171 54.0325 108.171 54.2144C108.171 54.2704 108.171 54.3403 108.157 54.3963C108.143 54.4663 108.087 54.4943 108.017 54.4943C107.947 54.4943 107.877 54.4803 107.849 54.3963C107.835 54.3403 107.835 54.2704 107.835 54.2144C107.835 53.6547 107.835 53.095 107.835 52.5214C107.835 52.2695 107.835 52.2695 108.087 52.2695C108.353 52.2695 108.618 52.2555 108.884 52.2835C109.36 52.3255 109.598 52.6753 109.458 53.137C109.416 53.3049 109.304 53.4169 109.15 53.4728C109.094 53.5008 109.038 53.5288 108.94 53.5568ZM108.548 53.221C108.632 53.221 108.73 53.235 108.814 53.221C109.024 53.193 109.122 53.081 109.136 52.8991C109.136 52.7312 109.038 52.6193 108.828 52.6053C108.66 52.5913 108.478 52.5913 108.297 52.5913C108.227 52.5913 108.185 52.6333 108.185 52.7033C108.185 52.7592 108.185 52.8152 108.185 52.8572C108.185 53.2769 108.129 53.221 108.548 53.221Z" fill="white"/>
</svg>
