<svg width="128" height="128" viewBox="0 0 128 128" fill="none" xmlns="http://www.w3.org/2000/svg">
<rect width="128" height="128" fill="white"/>
<path fill-rule="evenodd" clip-rule="evenodd" d="M63.9216 58.0448C62.8007 57.3489 61.5108 56.9875 60.1985 57.0017C59.0451 56.972 57.9149 57.3354 56.9868 58.0344C56.523 58.3627 56.1501 58.8074 55.904 59.3256C55.6579 59.8438 55.547 60.4179 55.582 60.9925C55.6169 61.5672 55.7966 62.1229 56.1036 62.6061C56.4106 63.0892 56.8346 63.4835 57.3346 63.7508C57.739 63.9777 58.1657 64.1593 58.5912 64.3403L58.5912 64.3404C58.8113 64.434 59.0311 64.5275 59.2473 64.6271C59.5111 64.7482 59.7782 64.8617 60.0447 64.9749C60.6046 65.2129 61.1619 65.4498 61.6816 65.7537C61.8453 65.8415 61.9896 65.9626 62.1055 66.1097C62.2214 66.2567 62.3065 66.4264 62.3554 66.6083C62.4043 66.7903 62.416 66.9805 62.3899 67.1672C62.3637 67.354 62.3002 67.5333 62.2033 67.6939C62.0779 67.9197 61.9076 68.1162 61.7032 68.2707C61.4989 68.4252 61.265 68.5343 61.0168 68.591C60.1578 68.8275 59.2427 68.7192 58.4597 68.2885C58.1528 68.1195 57.846 67.9167 57.5391 67.7139C57.3345 67.5788 57.13 67.4436 56.9254 67.3184C56.7387 67.1519 56.496 67.0654 56.2482 67.0771C56.0004 67.0887 55.7666 67.1976 55.5957 67.381C55.3872 67.5561 55.2455 67.8001 55.195 68.0707C55.1446 68.3413 55.1886 68.6213 55.3196 68.8623C55.4954 69.1815 55.736 69.4589 56.0253 69.6759C57.001 70.4116 58.1561 70.8599 59.3645 70.9722C60.5729 71.0844 61.7884 70.8561 62.8783 70.3122C63.5105 70.0309 64.048 69.5667 64.4243 68.9771C64.8006 68.3876 64.9992 67.6985 64.9956 66.995C65.0292 66.3255 64.8686 65.6607 64.5339 65.0837C64.1992 64.5067 63.7052 64.0431 63.1136 63.7508C62.5695 63.4517 62.0094 63.1835 61.4361 62.9476C61.2457 62.8699 61.0541 62.7933 60.862 62.7166C60.2291 62.4636 59.591 62.2086 58.9711 61.9045C58.7351 61.807 58.5361 61.6348 58.4035 61.4131C58.2708 61.1915 58.2117 60.9322 58.2346 60.6736C58.2542 60.3969 58.357 60.1332 58.5291 59.9185C58.7012 59.7037 58.9342 59.5485 59.1961 59.4739C59.4714 59.3795 59.7562 59.3166 60.0451 59.2862C60.7496 59.2587 61.4456 59.4516 62.0396 59.839C62.4592 60.0809 62.9012 60.2801 63.3591 60.4336C63.5111 60.4824 63.6723 60.4943 63.8296 60.4683C63.987 60.4423 64.1362 60.3791 64.2654 60.2839C64.3945 60.1886 64.5001 60.0639 64.5736 59.9197C64.6471 59.7754 64.6866 59.6156 64.6888 59.4531C64.7016 59.1689 64.6366 58.8866 64.5012 58.6379C64.3657 58.3892 64.165 58.1839 63.9216 58.0448ZM20.6488 65.6793L20.6487 65.6794C20.5479 65.9766 20.4445 66.2816 20.3385 66.5985C20.2464 66.3899 20.1953 66.2752 20.1544 66.2021C19.6293 64.5818 19.094 62.9649 18.5485 61.3515C18.4502 61.0591 18.3527 60.763 18.2548 60.4662L18.2548 60.4662C17.9862 59.651 17.7158 58.8303 17.4234 58.0656C17.3406 57.7433 17.1358 57.4677 16.8538 57.2995C16.5718 57.1312 16.2358 57.0841 15.9198 57.1685C15.6038 57.2529 15.3335 57.4618 15.1686 57.7494C15.0036 58.037 14.9574 58.3796 15.0402 58.7019C15.368 59.8102 15.756 60.9184 16.1411 62.0187L16.2471 62.3216C17.1336 64.8252 18.0269 67.3287 18.927 69.8323C19.0112 70.114 19.1759 70.3638 19.4 70.5496C19.6241 70.7354 19.8974 70.8488 20.1851 70.8754C20.5213 70.9203 20.862 70.8393 21.1441 70.6475C21.4262 70.4557 21.6306 70.1661 21.7193 69.8323C22.5444 67.5096 23.3661 65.1868 24.1844 62.8641C24.3067 62.5196 24.4304 62.1758 24.5541 61.8322L24.5542 61.8319C24.9061 60.8542 25.2576 59.8776 25.5754 58.8897C25.6499 58.6993 25.6794 58.4937 25.6614 58.2896C25.6433 58.0854 25.5784 57.8885 25.4718 57.7147C25.3652 57.541 25.2199 57.3953 25.0478 57.2895C24.8756 57.1837 24.6814 57.1208 24.481 57.1059C23.8366 57.0642 23.3763 57.4397 23.1002 58.2847L21.167 64.1263C21.0027 64.6357 20.83 65.145 20.6488 65.6793ZM32.1011 59.0671C32.5707 58.231 33.2864 57.5668 34.1468 57.1686C34.4068 57.0503 34.6905 56.9962 34.9749 57.0107C35.2592 57.0252 35.5362 57.1079 35.7834 57.2521C35.9784 57.3564 36.1416 57.5131 36.2556 57.7052C36.3695 57.8973 36.4297 58.1176 36.4297 58.3422C36.4297 58.5667 36.3695 58.787 36.2556 58.9791C36.1416 59.1713 35.9784 59.328 35.7834 59.4322C35.416 59.6097 35.0323 59.7494 34.6378 59.8495C33.8686 60.0036 33.1826 60.4428 32.7123 61.0824C32.2419 61.7219 32.0206 62.5165 32.0909 63.3127V69.436C32.1141 69.7282 32.0453 70.0203 31.8944 70.2699C31.7436 70.5194 31.5186 70.7133 31.2522 70.8234C31.0737 70.8929 30.8821 70.9201 30.6918 70.9029C30.5015 70.8857 30.3175 70.8244 30.1539 70.7239C29.9903 70.6234 29.8512 70.4861 29.7473 70.3226C29.6434 70.1591 29.5774 69.9736 29.5543 69.7802C29.5441 69.6483 29.5441 69.5158 29.5543 69.3839V58.6812C29.5477 58.4667 29.5718 58.2523 29.6259 58.0449C29.699 57.7723 29.8598 57.5327 30.0823 57.3644C30.3048 57.1961 30.5763 57.1088 30.8533 57.1165C31.1372 57.1102 31.4128 57.2146 31.6238 57.4085C31.8347 57.6023 31.9652 57.871 31.9886 58.1596C32.0284 58.346 32.0496 58.5577 32.0763 58.8239V58.8239C32.0839 58.9003 32.092 58.9811 32.1011 59.0671ZM42.9125 67.6939C42.109 66.9895 41.5763 66.0175 41.409 64.9504L51.5965 64.9921C51.7372 65 51.8779 64.9781 52.0099 64.9278C52.1419 64.8775 52.2623 64.8 52.3636 64.7C52.4609 64.6001 52.5373 64.4811 52.5883 64.3502C52.6393 64.2194 52.6637 64.0793 52.6602 63.9385C52.6514 63.0154 52.46 62.1036 52.0976 61.2577C51.7494 60.4402 51.2532 59.6971 50.635 59.0671C49.6712 58.0986 48.4481 57.4422 47.1196 57.1805C45.7911 56.9188 44.4164 57.0635 43.1682 57.5962C42.3605 57.9511 41.625 58.457 40.9998 59.0879C40.3792 59.7199 39.8828 60.467 39.5372 61.289C39.1784 62.1492 38.9909 63.0736 38.9857 64.0084C38.9804 64.9432 39.1574 65.8698 39.5065 66.7342C40.0403 67.9806 40.9207 69.0401 42.0387 69.7817C43.1567 70.5233 44.4633 70.9144 45.7969 70.9068C46.3016 70.9087 46.8053 70.8598 47.3005 70.7607C47.7304 70.6663 48.1514 70.5336 48.5586 70.3643C48.9198 70.2089 49.2628 70.013 49.5815 69.7802C49.8802 69.5648 50.1577 69.3202 50.41 69.05C50.5228 68.9596 50.6157 68.846 50.6826 68.7166C50.7496 68.5872 50.7891 68.4449 50.7986 68.2989C50.8151 68.0435 50.7467 67.7899 50.6043 67.5791C50.4911 67.3767 50.3146 67.2188 50.1031 67.1306C49.9273 67.0795 49.7418 67.0738 49.5633 67.1138C49.3848 67.1539 49.2188 67.2385 49.0803 67.3601C48.7111 67.8094 48.2457 68.1663 47.7199 68.4032C47.1318 68.6731 46.4929 68.8084 45.8481 68.7996C45.3034 68.7995 44.7631 68.7006 44.2525 68.5075C43.7653 68.3127 43.3127 68.0378 42.9125 67.6939ZM49.9599 61.5289C50.2271 62.0197 50.4006 62.5577 50.4713 63.1145H41.2964C41.3699 62.5664 41.5397 62.0363 41.7976 61.5497C42.0619 61.067 42.4083 60.6361 42.8205 60.2771C43.228 59.9115 43.6954 59.622 44.2013 59.4217C44.7327 59.2109 45.2984 59.1047 45.8685 59.1088C46.9944 59.0965 48.0858 59.5047 48.9371 60.2562C49.3455 60.6191 49.6912 61.0493 49.9599 61.5289Z" fill="#F18F43"/>
<path fill-rule="evenodd" clip-rule="evenodd" d="M109.756 59.2743L109.756 59.2741L109.756 59.2738C109.729 59.0788 109.7 58.879 109.671 58.6719L110.187 58.9775C110.64 59.3472 111.116 59.6875 111.612 59.9961C111.741 60.0817 111.89 60.1316 112.045 60.1412C112.199 60.1508 112.353 60.1195 112.492 60.0506C112.631 59.9817 112.749 59.8774 112.836 59.7482C112.923 59.6189 112.974 59.4691 112.986 59.3136C113.013 59.1196 112.972 58.922 112.871 58.7548C112.77 58.5875 112.614 58.461 112.43 58.3968C112.263 58.32 112.099 58.2449 111.936 58.1705C111.429 57.9392 110.937 57.714 110.409 57.4596L110.641 57.3588L110.641 57.3588C111.292 57.0755 111.869 56.8245 112.43 56.5326C112.545 56.4935 112.65 56.4299 112.738 56.346C112.826 56.2622 112.894 56.1601 112.94 56.0469C112.985 55.9336 113.005 55.8119 112.999 55.69C112.993 55.5681 112.961 55.449 112.905 55.3408C112.854 55.2289 112.782 55.1287 112.691 55.046C112.601 54.9634 112.495 54.9002 112.38 54.8601C112.264 54.8201 112.142 54.8042 112.021 54.8132C111.899 54.8223 111.78 54.8562 111.672 54.9129C111.316 55.1099 110.978 55.3383 110.662 55.5954C110.401 55.7736 110.149 55.9604 109.843 56.1876L109.843 56.1878L109.762 56.2474V55.7584C109.787 55.5823 109.817 55.4071 109.847 55.2323L109.847 55.2322L109.847 55.2321C109.916 54.8306 109.985 54.4311 109.985 54.0267C110.003 53.8956 109.992 53.7621 109.953 53.6358C109.914 53.5095 109.847 53.3935 109.758 53.2961C109.67 53.1987 109.56 53.1224 109.439 53.0726C109.317 53.0228 109.186 53.0007 109.055 53.008C108.918 52.9895 108.779 53.0032 108.648 53.0478C108.517 53.0925 108.398 53.167 108.3 53.2655C108.202 53.3641 108.128 53.484 108.084 53.616C108.04 53.748 108.026 53.8885 108.045 54.0267C108.05 54.235 108.07 54.4427 108.105 54.6481C108.166 55.1574 108.237 55.6566 108.328 56.2881L107.731 55.8501C107.277 55.5152 106.805 55.2057 106.317 54.9231C106.213 54.8664 106.098 54.832 105.981 54.8219C105.863 54.8119 105.744 54.8264 105.632 54.8647C105.52 54.9029 105.418 54.9641 105.33 55.0442C105.243 55.1244 105.173 55.2219 105.124 55.3306C105.069 55.4351 105.036 55.5502 105.028 55.6684C105.019 55.7866 105.036 55.9052 105.076 56.0167C105.116 56.1281 105.178 56.2298 105.26 56.3152C105.341 56.4005 105.44 56.4677 105.549 56.5122C105.762 56.6378 105.999 56.7475 106.232 56.8554L106.327 56.8993L107.6 57.4698L107.377 57.57C106.722 57.8639 106.142 58.1241 105.579 58.4172C105.459 58.4569 105.349 58.5235 105.259 58.6119C105.168 58.7004 105.098 58.8084 105.054 58.9279C105.01 59.0474 104.994 59.1753 105.006 59.302C105.018 59.4288 105.059 59.5512 105.124 59.66C105.183 59.7722 105.264 59.8709 105.362 59.95C105.461 60.029 105.574 60.0866 105.696 60.1192C105.817 60.1517 105.944 60.1585 106.068 60.1391C106.193 60.1196 106.312 60.0744 106.418 60.0063C106.67 59.8657 106.913 59.7092 107.145 59.5377C107.509 59.2831 107.863 59.0182 108.277 58.7024V59.0895C108.251 59.2937 108.218 59.4979 108.186 59.7021L108.186 59.7022C108.115 60.1397 108.045 60.5773 108.045 61.0148C108.035 61.1872 108.071 61.3591 108.151 61.5118C108.231 61.6646 108.351 61.7924 108.498 61.8816C108.644 61.9707 108.812 62.0178 108.984 62.0176C109.155 62.0175 109.323 61.9701 109.469 61.8807C109.668 61.768 109.823 61.591 109.909 61.3783C109.995 61.1657 110.008 60.9299 109.944 60.7092C109.894 60.2342 109.827 59.7697 109.756 59.2744L109.756 59.2743ZM99.001 57.8368C98.5306 58.2617 98.082 58.7105 97.657 59.1815C97.6368 58.9166 97.6267 58.6619 97.6267 58.4073C97.6101 58.1426 97.4982 57.8932 97.3122 57.7056C97.1262 57.5181 96.8788 57.4054 96.6163 57.3886C96.3758 57.336 96.1249 57.3631 95.9009 57.4659C95.6769 57.5687 95.4919 57.7416 95.3734 57.9591C95.2271 58.2781 95.1546 58.6264 95.1612 58.9777V69.2868C95.1511 69.4632 95.1511 69.6401 95.1612 69.8165C95.201 70.0915 95.3349 70.3438 95.5397 70.5298C95.7445 70.7158 96.0074 70.8239 96.2828 70.8352C96.4694 70.8508 96.6571 70.8251 96.8328 70.7598C97.0085 70.6946 97.1679 70.5913 97.2998 70.4574C97.4317 70.3234 97.5329 70.162 97.5964 69.9844C97.6599 69.8068 97.684 69.6174 97.6671 69.4294V63.3173C97.6217 62.5876 97.8374 61.8656 98.2749 61.2824C98.7125 60.6993 99.343 60.2936 100.052 60.139C100.187 60.0936 100.324 60.0549 100.461 60.0161C100.662 59.9591 100.864 59.902 101.062 59.8232C101.34 59.7552 101.583 59.5845 101.742 59.3449C101.901 59.1054 101.965 58.8144 101.921 58.5295C101.891 58.2443 101.767 57.9774 101.569 57.7709C101.372 57.5643 101.112 57.4298 100.83 57.3886C100.511 57.318 100.181 57.3217 99.864 57.3994C99.547 57.477 99.2519 57.6267 99.001 57.8368ZM69.0505 69.4187C69.0518 69.2208 69.0922 69.0251 69.1695 68.8431C69.2468 68.6612 69.3593 68.4966 69.5004 68.359C69.6416 68.2215 69.8086 68.1137 69.9916 68.042C70.1746 67.9703 70.37 67.9362 70.5662 67.9416C70.9558 67.9496 71.327 68.1105 71.6006 68.3902C71.8743 68.6699 72.0289 69.0463 72.0314 69.4391C72.0314 69.8444 71.8717 70.233 71.5875 70.5196C71.3032 70.8061 70.9177 70.9671 70.5157 70.9671C70.1137 70.9671 69.7282 70.8061 69.4439 70.5196C69.1597 70.233 69 69.8444 69 69.4391L69.0505 69.4187ZM89.8057 63.7041C89.8004 63.6362 89.8004 63.5681 89.8057 63.5003L89.836 58.1522C89.841 58.0106 89.8166 57.8696 89.7644 57.738C89.7122 57.6064 89.6333 57.4873 89.5329 57.3882C89.3266 57.1919 89.0536 57.0826 88.77 57.0826C88.4863 57.0826 88.2134 57.1919 88.0071 57.3882C87.906 57.4853 87.8261 57.6023 87.7722 57.7321C87.7182 57.8618 87.6916 58.0014 87.6938 58.1421V58.9163C87.0705 58.3815 86.3592 57.9609 85.592 57.6735C83.9274 56.9884 82.0628 56.9884 80.3982 57.6735C79.5912 58.0245 78.8549 58.5217 78.2257 59.1404C77.599 59.7661 77.1011 60.5104 76.7605 61.3305C76.4073 62.1771 76.2253 63.0862 76.2253 64.0046C76.2253 64.9229 76.4073 65.8321 76.7605 66.6786C77.1039 67.4943 77.6016 68.2347 78.2257 68.8586C78.849 69.4871 79.5866 69.9886 80.3982 70.3357C82.0628 71.0207 83.9274 71.0207 85.592 70.3357C86.3666 70.0174 87.0784 69.562 87.6938 68.991V69.1031C87.6926 69.712 87.5831 70.3158 87.3705 70.8858C87.1522 71.4448 86.8298 71.9566 86.4206 72.3934C86.0212 72.8247 85.5402 73.1711 85.006 73.4121C84.4611 73.6659 83.8682 73.798 83.2679 73.7992C82.7017 73.8125 82.1376 73.7263 81.6007 73.5445C81.0559 73.348 80.5521 73.0509 80.1153 72.6685C80.0041 72.5768 79.8829 72.4953 79.7616 72.4138C79.6387 72.3313 79.5016 72.2726 79.3574 72.2406C79.2108 72.2101 79.0595 72.2101 78.9128 72.2406C78.7261 72.2855 78.555 72.3805 78.4177 72.5157C78.3012 72.6104 78.2091 72.7322 78.1493 72.8705C78.0895 73.0088 78.0637 73.1597 78.0741 73.3102C78.0851 73.6354 78.2231 73.943 78.4581 74.1659C79.0287 74.7596 79.7174 75.2248 80.479 75.531C81.2965 75.8401 82.1624 75.9988 83.0355 75.9995C84.3548 76.015 85.649 75.6363 86.755 74.9111C87.8609 74.1859 88.7291 73.1468 89.2499 71.9248C89.6181 71.0447 89.8071 70.099 89.8057 69.1438V64.3458C89.8007 64.2746 89.8007 64.2031 89.8057 64.1319V63.7041ZM78.7006 65.7312C78.4573 65.1584 78.3335 64.5412 78.3368 63.918V63.9563C78.337 63.3114 78.4712 62.6737 78.7309 62.0844C79.201 60.9583 80.0896 60.0625 81.2066 59.5886C82.3523 59.1131 83.6379 59.1131 84.7837 59.5886C85.3133 59.8036 85.7996 60.1143 86.2185 60.5054C87.0676 61.3056 87.593 62.3941 87.6938 63.5614V64.3458C87.6333 64.9192 87.4652 65.4757 87.1987 65.9859C86.9458 66.5013 86.6036 66.967 86.1882 67.3611C85.7693 67.7523 85.283 68.063 84.7533 68.2779C84.1999 68.5117 83.6052 68.6295 83.0052 68.6243C82.3765 68.6252 81.7542 68.497 81.1763 68.2474C80.0634 67.757 79.1779 66.8571 78.7006 65.7312Z" fill="black"/>
</svg>
