<svg width="128" height="128" viewBox="0 0 128 128" fill="none" xmlns="http://www.w3.org/2000/svg">
<rect width="128" height="128" fill="#FDEF5A"/>
<path d="M59.3655 52.8963C60.5954 52.8963 61.7753 52.8963 62.9651 52.8963C63.0351 52.8963 63.1451 53.0244 63.1851 53.1131C63.2004 53.2275 63.2004 53.3434 63.1851 53.4579V61.5456L64.745 59.664C65.4149 58.8563 66.0948 58.0583 66.7447 57.2407C66.8117 57.1496 66.9008 57.0766 67.0039 57.0284C67.107 56.9802 67.2207 56.9584 67.3347 56.9648H71.6642L67.5547 61.9594C68.1429 62.2501 68.7108 62.5792 69.2545 62.9445C70.279 63.7621 70.9536 64.9297 71.1443 66.215C71.3447 67.8226 71.4049 69.4441 71.3243 71.0618H67.4947C67.4947 70.8943 67.4947 70.7367 67.4947 70.5791C67.4947 69.3871 67.4347 68.1951 67.3547 67.013C67.3125 66.6279 67.19 66.2556 66.9947 65.9195C66.8479 65.6496 66.635 65.42 66.3754 65.2515C66.1158 65.083 65.8177 64.9809 65.508 64.9545C65.1982 64.9281 64.8868 64.9782 64.6016 65.1003C64.3165 65.2223 64.0668 65.4125 63.875 65.6535C63.4653 66.1191 63.2351 66.7121 63.2251 67.3282C63.2251 68.4315 63.2251 69.5349 63.2251 70.6382C63.2251 70.9731 63.1451 71.0815 62.7952 71.0716C61.7753 71.0716 60.7554 71.0716 59.7355 71.0716C59.4355 71.0716 59.3655 70.9633 59.3655 70.6874C59.3655 64.9015 59.3655 59.1157 59.3655 53.3298C59.3455 53.2017 59.3555 53.0835 59.3655 52.8963Z" fill="black"/>
<path d="M79.4333 71.318C77.9736 71.3043 76.5504 70.8662 75.3425 70.0584C74.1346 69.2507 73.1959 68.1094 72.644 66.7778C72.0922 65.4463 71.952 63.9838 72.2409 62.574C72.5298 61.1642 73.235 59.8699 74.268 58.8535C75.3009 57.8372 76.6156 57.1442 78.047 56.8614C79.4783 56.5787 80.9626 56.7188 82.3134 57.2642C83.6642 57.8097 84.8213 58.7361 85.6396 59.9272C86.4578 61.1183 86.9007 62.521 86.9126 63.9592C86.9316 64.9316 86.7511 65.8977 86.3819 66.7997C86.0126 67.7016 85.4623 68.5208 84.7638 69.208C84.0653 69.8952 83.2331 70.4364 82.3171 70.7989C81.4012 71.1615 80.4203 71.3381 79.4333 71.318ZM79.4333 60.4325C78.4829 60.481 77.5898 60.8954 76.9465 61.5864C76.3031 62.2773 75.961 63.1896 75.9937 64.1267C75.9759 64.5993 76.0559 65.0706 76.2288 65.5119C76.4017 65.9532 76.6639 66.3552 76.9994 66.6934C77.335 67.0317 77.7369 67.2992 78.1807 67.4796C78.6245 67.6601 79.1009 67.7496 79.581 67.743C80.061 67.7363 80.5347 67.6334 80.9731 67.4407C81.4115 67.248 81.8056 66.9694 82.1313 66.6219C82.457 66.2744 82.7076 65.8653 82.8678 65.4194C83.0279 64.9735 83.0943 64.5001 83.063 64.0282C83.0683 63.0831 82.6937 62.1745 82.0211 61.5007C81.3485 60.827 80.4325 60.4429 79.4733 60.4325H79.4333Z" fill="black"/>
<path d="M93.7519 74.8544L94.8717 72.1355C95.1517 72.2734 95.4017 72.3916 95.6617 72.5C96.7113 73.0635 97.9211 73.2679 99.1013 73.0812C99.3731 73.0472 99.6349 72.9584 99.8705 72.8205C100.106 72.6826 100.31 72.4985 100.471 72.2796C100.631 72.0606 100.744 71.8116 100.802 71.5479C100.861 71.2842 100.864 71.0114 100.811 70.7465C99.6569 71.2729 98.3539 71.3912 97.1215 71.0815C96.0757 70.8152 95.1352 70.2456 94.422 69.4463C93.7089 68.6471 93.2559 67.6552 93.1219 66.5992C92.966 65.3951 93.2266 64.1743 93.8616 63.134C94.4966 62.0938 95.4689 61.2947 96.6215 60.8659C97.396 60.5848 98.2262 60.4844 99.0466 60.5727C99.8671 60.6609 100.656 60.9354 101.35 61.3745C102.045 61.8136 102.627 62.4054 103.05 63.1034C103.474 63.8014 103.727 64.5866 103.791 65.3974C103.926 67.4475 103.926 69.5042 103.791 71.5543C103.722 72.6602 103.259 73.7065 102.483 74.5086C101.708 75.3107 100.669 75.817 99.5512 75.938C97.5515 76.16 95.5303 75.7824 93.7519 74.8544ZM95.9916 65.8801C95.9836 66.1983 96.0394 66.515 96.1557 66.8121C96.272 67.1091 96.4466 67.3806 96.6694 67.6112C96.8923 67.8417 97.159 68.0267 97.4545 68.1557C97.75 68.2846 98.0683 68.3549 98.3914 68.3625C99.0257 68.3341 99.6267 68.0744 100.078 67.6338C100.528 67.1933 100.797 66.6033 100.831 65.9786C100.85 65.3244 100.605 64.6895 100.149 64.2131C99.6939 63.7367 99.0653 63.4576 98.4014 63.437C98.0793 63.4382 97.7608 63.5027 97.4644 63.6268C97.168 63.7509 96.8997 63.932 96.6753 64.1595C96.4509 64.3871 96.2748 64.6565 96.1574 64.9519C96.04 65.2473 95.9836 65.5629 95.9916 65.8801Z" fill="black"/>
<path d="M16 56.9942C16.0856 56.9727 16.1724 56.9563 16.26 56.9449C17.4498 56.9449 18.6397 56.9449 19.8196 56.9449C20.1096 56.9449 20.1596 57.142 20.2296 57.3193C21.1595 59.4767 22.0894 61.6439 23.0093 63.8013L23.3892 64.6682C23.6892 63.9786 23.9592 63.3383 24.2291 62.698C24.9791 60.9149 25.739 59.122 26.4789 57.3291C26.5097 57.2075 26.5847 57.1012 26.6898 57.0303C26.7948 56.9595 26.9226 56.9292 27.0488 56.9449C28.1287 56.9449 29.2186 56.9449 30.2985 56.9449H30.7985C30.6585 57.27 30.5585 57.536 30.4385 57.802L25.369 69.6824C25.2648 69.9344 25.1412 70.1781 24.9991 70.4114C24.8344 70.6894 24.5986 70.92 24.3153 71.0803C24.0319 71.2405 23.7109 71.3249 23.3842 71.3249C23.0575 71.3249 22.7365 71.2405 22.4532 71.0803C22.1699 70.92 21.9341 70.6894 21.7694 70.4114C21.4729 69.8548 21.2157 69.2788 20.9995 68.6874L16.2 57.467C16.11 57.3193 16.06 57.1715 16 56.9942Z" fill="black"/>
<path d="M48.2566 67.2001C48.8965 67.4661 49.4965 67.7616 50.1264 67.9882C51.0253 68.3229 52.0135 68.3438 52.9261 68.0473C53.242 67.9438 53.5248 67.7604 53.746 67.5154C53.8392 67.4127 53.9072 67.2903 53.9446 67.1576C53.982 67.0249 53.9879 66.8855 53.9618 66.7502C53.9357 66.6149 53.8783 66.4874 53.794 66.3775C53.7098 66.2676 53.601 66.1783 53.4761 66.1165C53.0531 65.9326 52.619 65.7746 52.1762 65.6437C51.3992 65.4176 50.6349 65.1512 49.8864 64.8457C49.2889 64.5425 48.7754 64.1002 48.3908 63.5572C48.0061 63.0141 47.7617 62.3868 47.679 61.7296C47.5962 61.0724 47.6775 60.4053 47.9158 59.7861C48.1542 59.1669 48.5423 58.6144 49.0465 58.1765C50.1836 57.1918 51.6638 56.6798 53.1761 56.7481C54.5854 56.7375 55.9815 57.016 57.2757 57.5658C57.5856 57.7037 57.6456 57.8317 57.5256 58.1371C57.1957 58.9646 56.9057 59.802 56.5957 60.6688L55.9958 60.4423C54.9644 59.989 53.8212 59.8418 52.7061 60.0187C52.4406 60.0569 52.1856 60.1473 51.9562 60.2847C51.82 60.3546 51.7058 60.46 51.6261 60.5894C51.5464 60.7188 51.5043 60.8672 51.5043 61.0186C51.5043 61.1699 51.5464 61.3184 51.6261 61.4478C51.7058 61.5772 51.82 61.6826 51.9562 61.7525C52.4107 61.9881 52.8859 62.1827 53.3761 62.3337C54.096 62.6095 54.8459 62.8164 55.5359 63.1513C56.1941 63.5081 56.747 64.0271 57.1406 64.6576C57.5342 65.2881 57.7548 66.0084 57.781 66.7481C57.8072 67.4878 57.6381 68.2216 57.2901 68.8776C56.9421 69.5335 56.4272 70.0893 55.7958 70.4904C54.4036 71.3159 52.7649 71.643 51.1563 71.4164C49.8478 71.2947 48.5698 70.9549 47.3767 70.4116C47.1167 70.2934 47.0467 70.1653 47.1667 69.8895C47.5467 68.9635 47.8966 68.0867 48.2566 67.2001Z" fill="black"/>
<path d="M31.1284 61.4176C31.2332 60.2543 31.7617 59.1676 32.6163 58.3582C33.4709 57.5488 34.5939 57.0714 35.7779 57.0141C37.1378 56.9353 38.4876 57.0141 39.8475 56.9452C40.1075 56.9452 40.1775 57.0437 40.1775 57.2801C40.1775 58.216 40.1775 59.1518 40.1775 60.0975C40.1775 60.3832 40.0475 60.4325 39.7975 60.4325C38.7976 60.4325 37.7377 60.4325 36.7078 60.4325C36.4737 60.4107 36.2377 60.4392 36.0158 60.5158C35.7939 60.5924 35.5915 60.7154 35.4224 60.8764C35.2533 61.0374 35.1216 61.2325 35.0363 61.4483C34.9509 61.6642 34.914 61.8956 34.928 62.1269C34.928 62.3239 34.928 62.5308 34.928 62.7376C34.928 65.3679 34.928 68.008 34.928 70.6185C34.928 70.9436 34.848 71.0717 34.4981 71.0618C33.4982 71.0618 32.4983 71.0618 31.4984 71.0618C31.1684 71.0618 31.0784 70.9436 31.0884 70.6382C31.0684 69.2197 30.9984 63.0233 31.1284 61.4176Z" fill="black"/>
<path d="M41.8273 56.9452H45.6069C45.6069 57.0634 45.6069 57.1915 45.6069 57.3097C45.6069 61.7624 45.6069 66.1757 45.6069 70.6579C45.6069 70.9929 45.5369 71.1308 45.167 71.1209C44.1671 71.1209 43.1672 71.1209 42.1673 71.1209C41.8973 71.1209 41.7773 71.1209 41.7773 70.7663C41.7773 66.2676 41.7773 61.7657 41.7773 57.2604C41.7853 57.1542 41.802 57.0488 41.8273 56.9452Z" fill="black"/>
<path d="M105.121 71.052V70.5496C105.121 68.4809 105.191 66.4023 105.121 64.3434C105.087 63.7963 105.17 63.2483 105.363 62.7344C105.557 62.2205 105.857 61.7521 106.245 61.359C106.632 60.9659 107.099 60.6568 107.615 60.4515C108.131 60.2462 108.684 60.1491 109.24 60.1666H111.64C111.8 60.1666 112 60.1666 112 60.3931V62.8362H111C110.49 62.8362 110 62.8362 109.46 62.8362C109.274 62.8255 109.087 62.8559 108.913 62.9251C108.74 62.9944 108.585 63.1008 108.458 63.2366C108.332 63.3724 108.238 63.5343 108.183 63.7104C108.128 63.8865 108.113 64.0725 108.14 64.2548C108.14 65.3187 108.14 66.3925 108.14 67.4564C108.14 68.5203 108.14 69.5842 108.14 70.6481C108.14 70.9437 108.07 71.0619 107.75 71.052H105.511C105.371 71.0914 105.271 71.0619 105.121 71.052Z" fill="black"/>
<path d="M43.6871 55.2902C43.4006 55.2954 43.116 55.2442 42.8498 55.1395C42.5837 55.0348 42.3415 54.8787 42.1375 54.6805C41.9335 54.4822 41.7718 54.2458 41.6618 53.9851C41.5519 53.7244 41.496 53.4446 41.4974 53.1623C41.5 52.5909 41.7316 52.0437 42.1416 51.6397C42.5517 51.2356 43.1072 51.0075 43.6871 51.0049C43.9851 50.985 44.2841 51.0256 44.5655 51.1243C44.8469 51.223 45.1047 51.3775 45.3229 51.5784C45.5412 51.7794 45.7152 52.0223 45.8341 52.2922C45.9531 52.5622 46.0145 52.8533 46.0145 53.1475C46.0145 53.4418 45.9531 53.7329 45.8341 54.0029C45.7152 54.2728 45.5412 54.5157 45.3229 54.7166C45.1047 54.9175 44.8469 55.0721 44.5655 55.1708C44.2841 55.2694 43.9851 55.3101 43.6871 55.2902Z" fill="black"/>
<path d="M89.6023 67.9587C89.8305 67.9412 90.0598 67.9704 90.2759 68.0444C90.4921 68.1184 90.6903 68.2356 90.8583 68.3887C91.0263 68.5418 91.1603 68.7275 91.2519 68.9341C91.3436 69.1406 91.3909 69.3636 91.3909 69.5891C91.3909 69.8145 91.3436 70.0375 91.2519 70.2441C91.1603 70.4506 91.0263 70.6363 90.8583 70.7894C90.6903 70.9425 90.4921 71.0597 90.2759 71.1337C90.0598 71.2077 89.8305 71.2369 89.6023 71.2194C89.3863 71.2237 89.1717 71.1842 88.9718 71.1035C88.7719 71.0228 88.5909 70.9026 88.44 70.7503C88.2891 70.5979 88.1716 70.4167 88.0946 70.2178C88.0176 70.019 87.9829 69.8066 87.9925 69.594C87.9872 69.382 88.0248 69.171 88.1032 68.9734C88.1816 68.7759 88.2992 68.5957 88.4491 68.4435C88.5989 68.2912 88.7781 68.1699 88.9761 68.0867C89.1742 68.0035 89.387 67.96 89.6023 67.9587Z" fill="black"/>
</svg>
