<svg width="128" height="128" viewBox="0 0 128 128" fill="none" xmlns="http://www.w3.org/2000/svg">
<rect width="128" height="128" fill="#001E50"/>
<path d="M64.3907 102.881C43.2801 102.881 25.9847 85.5012 25.9847 64.3907C25.9847 59.6429 26.8325 55.1495 28.4434 50.9104L50.9104 96.0989C51.1648 96.6923 51.5887 97.201 52.2669 97.201C52.9452 97.201 53.3691 96.6923 53.6234 96.0989L63.9668 72.9536C64.0515 72.6992 64.2211 72.4449 64.4754 72.4449C64.7298 72.4449 64.8146 72.6992 64.9841 72.9536L75.3274 96.0989C75.5818 96.6923 76.0057 97.201 76.6839 97.201C77.3622 97.201 77.7861 96.6923 78.0404 96.0989L100.507 50.9104C102.118 55.1495 102.966 59.6429 102.966 64.3907C102.797 85.5012 85.5012 102.881 64.3907 102.881ZM64.3907 55.6582C64.1363 55.6582 64.0515 55.4038 63.882 55.1495L51.843 28.0195C55.743 26.5782 59.982 25.8152 64.3907 25.8152C68.7993 25.8152 73.0384 26.5782 76.9383 28.0195L64.8993 55.1495C64.7298 55.4886 64.645 55.6582 64.3907 55.6582ZM52.0974 83.5512C51.843 83.5512 51.7582 83.2969 51.5887 83.0425L32.089 43.704C35.565 38.3628 40.228 33.8694 45.9083 30.7325L59.982 62.0168C60.1516 62.5255 60.5755 62.695 60.9994 62.695H67.7819C68.2906 62.695 68.6297 62.6102 68.8841 62.0168L82.9578 30.7325C88.5533 33.8694 93.3011 38.3628 96.7771 43.704L77.1079 83.0425C77.0231 83.2969 76.8535 83.5512 76.5992 83.5512C76.3448 83.5512 76.26 83.2969 76.0905 83.0425L68.7145 66.2558C68.4602 65.6624 68.121 65.5776 67.6124 65.5776H60.8298C60.3212 65.5776 59.982 65.6624 59.7277 66.2558L52.6061 83.0425C52.5213 83.2969 52.3517 83.5512 52.0974 83.5512ZM64.3907 106.781C87.8751 106.781 106.781 87.8751 106.781 64.3907C106.781 40.9062 87.8751 22 64.3907 22C40.9062 22 22 40.9062 22 64.3907C22 87.8751 40.9062 106.781 64.3907 106.781Z" fill="white"/>
</svg>
