<svg width="128" height="128" viewBox="0 0 128 128" fill="none" xmlns="http://www.w3.org/2000/svg">
<rect width="128" height="128" fill="#18A1C8"/>
<path d="M64.1568 103C85.6094 103 103 85.6094 103 64.1568C103 42.7042 85.6094 25.3135 64.1568 25.3135C42.7042 25.3135 25.3135 42.7042 25.3135 64.1568C25.3135 85.6094 42.7042 103 64.1568 103Z" fill="#18A1C8"/>
<path d="M87.6435 52.1122H50.908C48.8002 52.1122 46.9935 50.3055 46.9935 48.1978C46.9935 46.09 48.8002 44.2833 50.908 44.2833H87.3424C89.4502 44.2833 91.2569 46.09 91.2569 48.1978C91.558 50.3055 89.7513 52.1122 87.6435 52.1122Z" fill="white"/>
<path d="M40.0677 52.1122C37.6588 52.1122 35.8522 50.3055 35.8522 48.1978C35.8522 46.09 37.6588 44.2833 39.7666 44.2833H40.0677C42.1755 44.2833 43.9822 46.09 43.9822 48.1978C44.2833 50.3055 42.4766 52.1122 40.0677 52.1122Z" fill="white"/>
<path d="M40.0677 67.1683C37.6588 67.1683 35.8522 65.3616 35.8522 63.2538C35.8522 61.146 37.6588 59.3394 39.7666 59.3394H40.0677C42.1755 59.3394 43.9822 61.146 43.9822 63.2538C44.2833 65.3616 42.4766 67.1683 40.0677 67.1683Z" fill="white"/>
<path d="M40.0677 82.2234C37.6588 82.2234 35.8522 80.4168 35.8522 78.309C35.8522 76.2012 37.6588 74.3945 39.7666 74.3945H40.0677C42.1755 74.3945 43.9822 76.2012 43.9822 78.309C44.2833 80.4168 42.4766 82.2234 40.0677 82.2234Z" fill="white"/>
<path d="M87.6435 82.5248H50.908C48.8002 82.5248 46.9935 80.7181 46.9935 78.6103C46.9935 76.5025 48.8002 74.6959 50.908 74.6959H87.3424C89.4502 74.6959 91.2569 76.5025 91.2569 78.6103C91.558 80.7181 89.7513 82.5248 87.6435 82.5248Z" fill="white"/>
<path d="M91.8591 67.7705H50.908C48.8002 67.7705 46.9935 65.9638 46.9935 63.856C46.9935 61.7482 48.8002 59.9416 50.908 59.9416H91.8591C93.9669 59.9416 95.7735 61.7482 95.7735 63.856C95.7735 65.9638 93.9669 67.7705 91.8591 67.7705Z" fill="white"/>
</svg>
