<svg width="128" height="128" viewBox="0 0 128 128" fill="none" xmlns="http://www.w3.org/2000/svg">
<rect width="128" height="128" fill="#32CCFE"/>
<path d="M67.0379 36.0933C73.4339 36.0933 79.4574 38.6197 83.9906 43.2278C86.2233 45.4858 87.9933 48.1715 89.198 51.1295C90.4028 54.0875 91.0184 57.259 91.0093 60.4605C91.0193 63.662 90.4045 66.8338 89.2006 69.7922C87.9968 72.7506 86.2276 75.4369 83.9956 77.6957C79.4899 82.2511 73.3977 84.8149 67.0429 84.8303H60.8919C60.5485 83.1093 59.6327 81.5609 58.2986 80.4454C56.9644 79.3299 55.2931 78.7153 53.5657 78.7048C52.3089 78.7043 51.0718 79.0216 49.9657 79.6281C48.8597 80.2347 47.9194 81.1114 47.2296 82.1793V82.2403C44.9835 81.0812 42.9462 79.5447 41.2036 77.6957C39.0933 75.5505 37.9131 73.5934 37.4155 72.3327C38.8005 71.9969 40.0551 71.2481 41.0186 70.1825C42.3066 68.7786 43.0178 66.9272 43.0064 65.0076V60.4605C43.0064 55.0975 44.7467 49.793 48.0373 45.5636C52.6955 39.5017 59.5892 36.0933 67.0404 36.0933H67.0379Z" fill="white"/>
<path d="M67.0377 33C58.7789 33 51.0776 36.7871 45.7967 43.5429C42.0086 48.4052 40.0208 54.4011 40.0208 60.5876V65.0076C40.0208 67.2798 38.4705 69.425 35.365 69.6157C34.6199 69.6792 33.9973 70.185 33.9973 70.9424C33.8723 73.0266 36.0476 76.8137 39.0281 79.8434C41.0785 81.9886 43.4989 83.6941 46.1093 85.0183C45.9162 86.1163 45.9624 87.2439 46.2446 88.3218C46.5269 89.3996 47.0383 90.4014 47.7429 91.2565C48.4474 92.1115 49.3279 92.799 50.3223 93.2706C51.3167 93.7421 52.4007 93.9861 53.498 93.9854C55.2224 93.9987 56.8974 93.4007 58.2349 92.2944C59.5725 91.188 60.489 89.6424 60.8267 87.9235H67.1002C67.9079 92.2164 72.3161 95.1826 77.0368 93.5406C81.1375 92.1529 82.9378 87.4177 81.4451 83.567C83.0858 82.4713 84.6241 81.2248 86.0408 79.8434C88.5677 77.2999 90.572 74.271 91.937 70.933C93.302 67.595 94.0006 64.0144 93.9921 60.3995C93.9921 53.0743 91.1967 46.1939 86.1033 41.019C81.0277 35.9092 74.1812 33.0296 67.0377 33ZM67.0377 36.0932C73.4338 36.0932 79.4572 38.6197 83.9905 43.2278C86.2232 45.4858 87.9931 48.1715 89.1979 51.1295C90.4026 54.0875 91.0183 57.259 91.0091 60.4605C91.0191 63.662 90.4044 66.8337 89.2005 69.7921C87.9966 72.7506 86.2275 75.4369 83.9955 77.6957C79.4897 82.251 73.3976 84.8149 67.0427 84.8302H60.8917C60.5483 83.1093 59.6326 81.5609 58.2984 80.4454C56.9642 79.3299 55.293 78.7152 53.5655 78.7048C52.3088 78.7043 51.0716 79.0216 49.9656 79.6281C48.8595 80.2347 47.9192 81.1114 47.2295 82.1793V82.2403C44.9834 81.0811 42.9461 79.5447 41.2035 77.6957C39.0931 75.5505 37.913 73.5934 37.4154 72.3327C38.8003 71.9968 40.055 71.2481 41.0185 70.1825C42.3065 68.7786 43.0177 66.9272 43.0063 65.0076V60.4605C43.0063 55.0975 44.7466 49.793 48.0371 45.5636C52.6954 39.5017 59.589 36.0932 67.0402 36.0932H67.0377ZM61.0117 51.3078C60.2217 51.3085 59.4642 51.628 58.9058 52.1961C58.3474 52.7642 58.0337 53.5344 58.0337 54.3375C58.0334 54.7356 58.1103 55.1299 58.2599 55.4977C58.4095 55.8656 58.629 56.1999 58.9058 56.4815C59.1826 56.7631 59.5113 56.9865 59.8731 57.1389C60.2348 57.2913 60.6226 57.3698 61.0142 57.3698C61.4056 57.3694 61.7931 57.2907 62.1546 57.1382C62.5161 56.9856 62.8445 56.7622 63.121 56.4806C63.3975 56.199 63.6168 55.8648 63.7663 55.4971C63.9158 55.1294 63.9925 54.7354 63.9922 54.3375C63.9922 53.534 63.6782 52.7634 63.1192 52.1952C62.5603 51.627 61.8022 51.3078 61.0117 51.3078ZM79.0247 51.3078C78.2342 51.3078 77.4761 51.627 76.9171 52.1952C76.3582 52.7634 76.0442 53.534 76.0442 54.3375C76.0439 54.7356 76.1207 55.1299 76.2703 55.4977C76.42 55.8656 76.6395 56.1999 76.9163 56.4815C77.1931 56.7631 77.5217 56.9865 77.8835 57.1389C78.2453 57.2913 78.6331 57.3698 79.0247 57.3698C79.4163 57.3698 79.8041 57.2913 80.1658 57.1389C80.5276 56.9865 80.8563 56.7631 81.1331 56.4815C81.4099 56.1999 81.6294 55.8656 81.779 55.4977C81.9286 55.1299 82.0055 54.7356 82.0052 54.3375C82.0052 53.534 81.6911 52.7634 81.1322 52.1952C80.5732 51.627 79.8151 51.3078 79.0247 51.3078ZM60.5792 63.4292C60.3283 63.4272 60.081 63.4897 59.8602 63.6108C59.6395 63.7319 59.4523 63.9077 59.3162 64.1218C59.18 64.336 59.0993 64.5817 59.0814 64.836C59.0635 65.0904 59.1091 65.3452 59.2139 65.5769C60.1871 67.6707 61.7248 69.4407 63.6485 70.6811C65.5721 71.9216 67.8026 72.5816 70.0807 72.5844C72.362 72.5953 74.5985 71.941 76.5251 70.6989C78.4516 69.4569 79.9873 67.6793 80.95 65.5769C81.0549 65.345 81.1005 65.09 81.0825 64.8354C81.0645 64.5808 80.9835 64.335 80.8471 64.1208C80.7106 63.9065 80.5231 63.7308 80.302 63.6099C80.0809 63.489 79.8333 63.4268 79.5823 63.4292H79.5197C79.2407 63.4282 78.9677 63.5118 78.7356 63.6693C78.5035 63.8269 78.323 64.0512 78.217 64.3137C77.4906 65.8824 76.3395 67.2083 74.8985 68.136C73.4576 69.0637 71.7864 69.555 70.0807 69.5521C68.3751 69.5546 66.7041 69.0633 65.2631 68.1356C63.8222 67.2079 62.6711 65.8822 61.9444 64.3137C61.8147 64.0562 61.6199 63.8385 61.3799 63.683C61.1399 63.5275 60.8635 63.4399 60.5792 63.4292Z" fill="black"/>
</svg>
