<svg width="128" height="128" viewBox="0 0 128 128" fill="none" xmlns="http://www.w3.org/2000/svg">
<rect width="128" height="128" fill="#A1D5FB"/>
<path d="M36.5525 35.2044V105.378H91.4477V35.2044H36.5525ZM44.751 39.001H49.5931V43.4946H44.751V39.001ZM63.7341 94.0613C57.5898 94.0613 54.4168 93.8962 48.1991 92.6857L48.7127 82.1578C51.9224 84.9457 59.0205 84.7439 62.8721 84.7439C66.9989 84.7439 69.0898 84.4321 69.0898 81.9744C69.0898 79.3149 66.9989 79.7735 63.0188 78.1595L57.223 75.6467C52.3993 73.7576 47.9974 69.7775 47.9974 63.2114C47.9974 55.5998 53.2613 51.2162 62.8171 50.0791C67.4207 49.5288 73.4917 50.3175 77.6368 53.2521V61.0838C73.6751 59.3597 67.6592 59.213 64.5595 59.5248C61.2214 59.8733 58.9287 61.524 58.9471 62.5144C59.0021 65.1739 61.8083 66.0726 65.8617 67.6866L71.5108 69.9976C77.1599 72.2352 80.5163 75.9952 80.5163 82.3596C80.5163 89.9712 74.6655 94.0613 63.7158 94.0613H63.7341ZM83.3776 43.4763H78.5355V38.9827H83.3776V43.4763Z" fill="#058ED6"/>
<path d="M78.6639 37.5887C78.6088 37.4603 73.8401 24.4748 64.2477 24.4748C54.6553 24.4748 50.4001 37.2769 50.3451 37.4053L48.5293 37.442C48.7127 36.8734 53.3347 22.6223 64.2294 22.6223C75.124 22.6223 80.3696 36.8918 80.5897 37.4787L78.6455 37.5704L78.6639 37.5887Z" fill="#058ED6"/>
</svg>
