<svg width="128" height="128" viewBox="0 0 128 128" fill="none" xmlns="http://www.w3.org/2000/svg">
<rect width="128" height="128" fill="#FFD700"/>
<path fill-rule="evenodd" clip-rule="evenodd" d="M44.5909 63.1077C44.4029 62.0736 44.4969 61.1336 44.4969 60.1936C44.4969 59.7236 44.4969 59.2536 44.5909 58.7836C44.6849 57.8435 44.7789 56.9975 44.8729 56.0575C44.9669 55.2115 45.0609 54.3655 45.1549 53.5194C45.2489 52.5794 45.4369 51.6394 45.5309 50.6994C45.6249 49.8534 45.6249 48.9133 45.7189 48.0673C45.7189 47.5973 45.8129 47.1273 45.9069 46.7513C46.0009 46.5633 46.0949 46.2813 46.2829 46.0933C46.4709 45.9053 46.753 45.8113 47.035 45.7173C47.223 45.7173 47.505 45.8113 47.693 45.9993C48.069 46.2813 48.351 46.5633 48.539 46.9393C48.633 47.0333 48.727 47.1273 48.821 47.2213C48.915 47.3153 49.009 47.3153 49.103 47.3153C49.761 47.5973 50.043 48.0673 50.137 48.7253C50.231 49.4774 50.231 50.2294 50.043 50.9814C49.949 51.4514 49.949 51.9214 49.949 52.2974C49.949 53.6134 49.761 54.8355 49.479 56.0575C49.385 56.7155 49.291 57.3735 49.197 58.0315C49.103 58.7836 49.009 59.4416 49.009 60.1936C48.915 60.9456 48.915 61.7916 49.103 62.5436H48.915C49.573 62.4496 50.325 62.4496 50.983 62.4496H53.6151C54.6491 62.4496 55.6832 62.4496 56.7172 62.3556C57.2812 62.2616 57.7512 62.2616 58.3152 62.2616C58.5972 62.2616 58.5972 62.1676 58.5032 61.9796C58.4092 61.8856 58.3152 61.6976 58.2212 61.6036C58.0332 61.5096 57.8452 61.4156 57.5632 61.3216C56.7172 61.1336 56.3412 60.5696 56.3412 59.7236C56.3412 59.3476 56.1532 59.0656 56.0592 58.6896C55.9652 58.4076 55.9652 58.1255 55.9652 57.8435V54.1775C55.9652 52.7674 56.1532 51.3574 56.1532 49.9474C56.1532 49.3834 56.0592 48.9133 56.0592 48.3493C56.0592 47.5973 55.9652 46.9393 56.1532 46.1873C56.1532 46.0933 56.2472 45.9993 56.2472 45.9053C56.5292 45.3413 56.7172 45.1533 57.3752 45.2473H57.9392C58.0332 45.2473 58.1272 45.1533 58.2212 45.1533C58.7852 44.5893 59.6312 44.5893 60.2893 45.0593C60.6653 45.3413 60.8533 45.7173 60.7593 46.1873C60.6653 46.7513 60.6653 47.3153 60.3833 47.8793V49.0073C60.3833 49.2894 60.2893 49.4774 60.1953 49.6654C60.1012 49.7594 60.1012 49.9474 60.1012 50.0414V58.5956C60.1012 58.9716 60.1012 59.2536 60.1953 59.6296C60.1953 59.9116 60.3833 60.0996 60.4773 60.3816C60.8533 60.8516 60.8533 61.3216 60.7593 61.8856C60.7593 62.2616 60.7593 62.2616 61.0413 62.2616C62.3573 62.2616 63.6733 62.3556 64.9894 62.3556C66.1174 62.4496 67.3394 62.5436 68.4674 62.5436C69.0314 62.5436 69.6895 62.5436 70.2546 62.6376C71.0055 62.7316 71.6635 62.8257 72.4155 62.9197C72.8855 63.0137 73.3555 63.0137 73.9196 63.1077C74.5776 63.2017 75.3296 63.2957 75.9876 63.3897C77.2096 63.6717 78.4317 63.9537 79.5597 64.1417H79.8417C80.4057 64.1417 81.0637 64.2357 81.6277 64.2357C81.1577 63.6717 81.0637 62.9197 81.1577 62.1676V60.7576C81.1577 60.5696 81.0637 60.3816 80.9697 60.1936C80.7817 59.9116 80.6877 59.5356 80.6877 59.2536C80.6877 58.2196 80.5937 57.2795 80.5937 56.2455V51.5454C80.5937 50.6994 80.5937 49.7594 80.6877 48.9133C80.6877 47.9733 80.5008 47.2213 79.9357 46.4693C79.6537 45.9993 79.5597 45.6233 79.6537 45.0593C79.7477 44.4952 80.0297 44.0252 80.3117 43.6492C80.4997 43.3672 80.8757 43.3672 81.1577 43.3672C81.4397 43.3672 81.7217 43.4612 82.0977 43.4612C82.3797 43.4612 82.5677 43.6492 82.5677 43.9312C82.6617 44.3072 82.7558 44.5893 83.1318 44.8713C83.7898 45.3413 83.9778 45.9993 83.9778 46.7513C83.9778 47.6913 84.1658 48.5373 84.2598 49.3834V49.8534C84.2598 50.1354 84.2598 50.3234 84.3538 50.6054C84.4478 50.9814 84.5418 51.3574 84.5418 51.8274V59.9116C84.5418 61.1336 84.3538 62.3556 84.0718 63.4837C84.0718 63.5777 83.9778 63.7657 83.7898 63.8597C83.4138 64.0477 83.0378 64.1417 82.8498 64.3297C84.2598 64.6117 85.6698 64.9877 87.1738 65.2697C88.1139 65.4577 89.0539 65.8337 89.9939 66.0217C90.2759 66.1146 90.6519 66.2097 90.9339 66.1146C91.6859 66.0217 92.344 66.2097 93.002 66.4917C94.036 66.8677 95.07 66.9617 96.198 67.1497C97.4201 67.3377 98.5481 67.6187 99.6761 68.0898C100.24 68.2778 100.804 68.4658 101.368 68.4658C102.026 68.4658 102.591 68.7478 102.966 69.3118C103.248 69.7818 103.342 70.2518 103.248 70.7218C103.248 71.0038 102.966 71.0978 102.778 71.1918C102.402 71.2858 102.12 71.3798 101.744 71.3798H99.5821C99.3941 71.3798 99.2061 71.2858 99.1121 71.0978C99.0181 70.9098 98.8301 70.8158 98.6421 70.9098C98.1732 71.0038 97.7961 70.8158 97.5141 70.4398C97.0441 69.8758 96.4801 69.7818 95.822 69.6878C94.788 69.4998 93.66 69.3118 92.626 69.0287C91.7799 68.8418 90.841 68.5598 89.9939 68.2778C88.4899 67.9018 86.9858 67.6187 85.4818 67.3378C84.0718 67.0557 82.6617 66.8677 81.3457 66.5857C79.6537 66.3037 78.0556 65.9277 76.3636 65.6457C75.3296 65.4577 74.2016 65.3637 73.1675 65.2697C72.0395 65.0817 70.8175 64.9877 69.6895 64.8937C69.1255 64.7997 68.4674 64.7997 67.9034 64.7057C67.0574 64.6117 66.3054 64.6117 65.4594 64.5177C65.1774 64.5177 64.8954 64.5177 64.6133 64.4237C63.6733 64.4237 62.7333 64.4237 61.8873 64.3297C60.8533 64.3297 59.7252 64.2357 58.6912 64.2357C57.5632 64.2357 56.4352 64.3297 55.2131 64.4237H52.5811C51.4531 64.4237 50.325 64.4237 49.291 64.5177C48.257 64.6117 47.223 64.7057 46.0949 64.8937C45.2489 64.9877 44.4969 65.0817 43.6509 65.2697C43.2749 65.3637 42.8989 65.4577 42.4289 65.5517C42.0529 65.6457 41.5828 65.7397 41.2068 65.7397C39.8908 65.7397 38.6688 66.0217 37.3527 66.3037C36.8827 66.3977 36.4127 66.4917 36.0367 66.5857C35.5667 66.6797 35.0967 66.9617 34.8147 67.4318C34.6267 67.7138 34.3447 67.9958 33.9687 68.0898C33.6867 68.1838 33.4987 68.1838 33.2167 68.1838C32.3706 68.2778 31.5246 68.5598 30.7726 68.9358C30.4906 69.0287 30.2086 69.2178 29.9266 69.3118C29.5506 69.4058 29.1746 69.4998 28.7986 69.5938C28.3285 69.6878 27.7645 69.7818 27.2945 69.9698C26.7305 70.0638 26.1665 70.1578 25.6025 70.3458C25.3205 70.4398 25.0385 70.3458 24.8505 70.1578C24.7565 70.1578 24.7565 70.0638 24.7565 69.9698C24.6625 69.5938 24.5685 69.1238 24.3805 68.7478C23.9105 68.7478 23.9105 68.7478 24.1925 68.4658C25.0385 67.7138 25.9785 67.2438 27.1065 66.9617C27.3885 66.8677 27.6705 66.7737 27.8585 66.7737C28.2345 66.6797 28.6106 66.4917 28.8926 66.2097C29.0806 66.0217 29.3626 65.8337 29.6446 65.9277H30.5846C30.8666 65.9277 31.1486 65.8337 31.3366 65.6457C31.5246 65.5517 31.6186 65.4577 31.8066 65.3637C32.2766 65.0817 32.7466 64.8937 33.3107 64.9877C34.3447 65.0817 35.2847 64.8937 36.3187 64.6117C37.3527 64.3297 38.2928 64.1417 39.3268 64.0477C40.1728 63.9537 41.0188 63.8597 41.8648 63.6717C42.8989 63.3897 43.7449 63.2957 44.5909 63.1077Z" fill="black"/>
<path fill-rule="evenodd" clip-rule="evenodd" d="M48.8211 41.3929C48.5391 40.9229 48.1631 41.1109 47.7871 41.1109C47.5991 41.1109 47.4111 41.2049 47.3171 41.2989C46.5651 41.7689 45.625 41.8629 44.779 42.0509C44.309 42.1449 43.933 42.1449 43.463 42.3329C43.087 42.5209 42.617 42.5209 42.147 42.3329C42.053 42.3329 41.959 42.2389 41.865 42.0509C41.677 41.7689 41.583 41.3929 41.489 41.0169C41.489 40.9229 41.489 40.7349 41.583 40.6409C41.771 40.4529 41.865 40.1709 42.053 40.0769C42.429 39.8889 42.805 39.7009 43.275 39.5129C44.027 39.2309 44.873 38.9489 45.7191 38.7608C46.5651 38.5728 47.4111 38.3848 48.2571 38.1028C48.5391 38.0088 48.8211 38.0088 49.1031 37.9148C49.6671 37.7268 50.1371 37.8208 50.7012 37.9148C51.2652 38.0088 51.8292 38.0088 52.2992 37.8208C53.0512 37.6328 53.8032 37.5388 54.5552 37.3508C55.8713 37.1628 57.2813 36.9748 58.5973 36.8808C59.4434 36.7868 60.3834 36.6928 61.2294 36.6928C62.1694 36.5988 63.0154 36.5988 63.9555 36.5048C64.8955 36.4108 65.7404 36.4108 66.6815 36.3168C68.1855 36.2228 69.7836 36.1288 71.2876 36.1288C73.2617 36.1288 75.3297 36.1288 77.3978 36.0348C77.8678 36.0348 78.3378 35.9408 78.8078 35.9408H83.4128C83.4128 35.5648 83.3199 35.4708 82.9439 35.3768C82.1919 35.2828 81.4398 35.2828 80.6878 35.1888C80.0298 35.0948 79.2778 35.0948 78.6198 35.0008C77.7738 34.7188 76.9277 34.8128 75.9877 34.7188C75.7057 34.7188 75.3297 34.6248 75.0477 34.6248C73.9197 34.4368 72.6976 34.5308 71.5696 34.7188H71.2876C71.0056 34.5308 70.7236 34.5308 70.3476 34.5308C69.8776 34.5308 69.3136 34.4368 68.8436 34.5308C68.2795 34.5308 67.6215 34.6248 67.0575 34.6248H65.5535C65.0835 34.6248 64.6135 34.6248 64.1435 34.8128C63.9555 34.9068 63.6734 34.8128 63.3914 34.8128C62.5454 34.7188 61.6054 34.6248 60.7594 35.0008C60.4774 35.0948 60.1954 35.0948 60.0074 35.0948C58.4093 35.0948 56.8113 35.2828 55.2133 35.5648C54.2732 35.7528 53.3332 35.8468 52.2992 35.9408C52.0172 36.0348 51.6412 36.1288 51.3592 36.2228C50.4192 36.5988 49.4791 36.8808 48.4451 36.9748C47.7871 37.0688 47.2231 37.2568 46.5651 37.5388C45.8131 37.9148 44.967 37.9148 44.121 37.7268C44.027 37.7268 43.839 37.5388 43.839 37.4448C43.557 36.8808 43.463 36.3168 43.651 35.6588C43.651 35.5648 43.839 35.3768 43.933 35.3768C44.121 35.2828 44.215 35.1888 44.403 35.1888C45.9071 34.8128 47.3171 34.3427 48.8211 34.0607C49.9491 33.8727 51.0772 33.6847 52.2992 33.4967C53.5212 33.3087 54.6493 33.2147 55.8713 33.0267C56.3413 32.9327 56.9053 32.8387 57.3753 32.7447C58.0333 32.5567 58.6913 32.5567 59.3494 32.5567C59.9134 32.4627 60.4774 32.3687 61.0414 32.3687C61.6054 32.3687 62.0754 32.2747 62.6394 32.2747C63.5794 32.2747 64.6135 32.3687 65.5535 32.1807C66.3055 31.9927 67.1515 32.1807 67.9035 32.0867C68.8436 32.0867 69.7836 31.9927 70.6296 31.9927H71.4756C72.4156 31.9927 73.3557 31.9927 74.2957 32.0867C75.1417 32.0867 75.9877 32.1807 76.8337 32.2747C77.3037 32.2747 77.7738 32.3687 78.2438 32.3687C79.8418 32.4627 81.5338 32.5567 83.1319 32.9327C83.6959 33.0267 84.1659 33.1207 84.7299 33.2147C85.1999 33.3087 85.4819 33.4967 85.5759 34.0607C85.5759 34.4368 85.5759 34.7188 85.6699 35.0948C85.6699 35.4708 85.5759 35.7528 85.1999 35.9408C85.1059 35.9408 85.0119 36.0348 85.0119 36.1288C84.9179 36.2228 85.0119 36.3168 85.1999 36.4108C85.7639 36.5048 86.3269 36.5988 86.986 36.5988C87.174 36.5988 87.456 36.6928 87.644 36.6928C87.738 36.6928 87.926 36.7868 88.02 36.7868C88.49 36.8808 88.772 37.1628 88.866 37.6328C88.866 37.8208 88.96 38.1028 88.96 38.2908C89.054 38.9488 88.772 39.2309 88.114 39.3249C87.926 39.3249 87.8309 39.4189 87.738 39.6069C87.738 39.9829 87.644 40.2649 87.55 40.6409C87.362 41.1109 87.174 41.2989 86.61 41.2989C85.8579 41.2989 85.1059 41.2049 84.4479 41.0169C83.8839 40.8289 83.3199 40.9229 82.8499 40.9229C82.3799 40.9229 81.9088 41.0169 81.4398 41.0169C81.3458 41.0169 81.3458 41.0169 81.2518 40.9229C80.7818 40.5469 80.3118 40.5469 79.7478 40.5469C79.1838 40.5469 78.5258 40.6409 77.9618 40.7349C77.1157 40.7349 76.3637 40.8289 75.5177 40.8289C74.9537 40.8289 74.4837 40.7349 73.9197 40.7349H72.6976C72.1336 40.7349 71.6625 40.8289 71.0996 40.8289C70.6296 40.8289 70.1585 40.9229 69.6896 40.9229H66.3995C65.1775 40.9229 64.0495 41.1109 62.9214 41.3929C61.9814 41.5809 61.0414 41.6749 60.0074 41.5809C59.8194 41.5809 59.7254 41.6749 59.5374 41.6749C58.9733 41.7689 58.4093 41.9569 57.8453 42.0509C56.9993 42.2389 56.1533 42.3329 55.3073 42.4269C54.8373 42.5209 54.3672 42.7089 53.8972 42.8029C52.8632 42.9909 51.8292 43.1789 50.7952 43.3669H50.2312C50.0431 43.3669 49.8551 43.3669 49.6671 43.4609C48.9151 43.837 48.0691 44.025 47.3171 44.401C46.7531 44.589 46.1891 44.871 45.625 45.153C45.249 45.341 44.779 45.435 44.403 45.247C43.839 45.059 43.463 44.495 43.369 43.837C43.275 43.3669 43.463 42.9909 43.839 42.8029C44.027 42.7089 44.309 42.5209 44.591 42.4269C45.437 42.1449 46.2831 42.0509 47.0351 41.5809C47.3171 41.3929 47.6931 41.4869 47.9751 41.3929C48.3511 41.5809 48.5391 41.4869 48.8211 41.3929Z" fill="black"/>
<path fill-rule="evenodd" clip-rule="evenodd" d="M30.9609 98.264C31.0549 97.888 31.0549 97.419 31.1489 97.043C31.4309 95.3499 31.713 93.7519 32.089 92.0598C32.465 90.2738 32.841 88.5828 33.217 86.7968C33.217 86.7017 33.311 86.6077 33.405 86.6077H36.8831C37.2591 88.4888 37.6351 90.3678 38.0111 92.3418C38.3871 94.223 38.7631 96.1959 39.0451 98.076C39.0451 97.888 39.0451 97.794 39.1391 97.6059C39.4211 95.5379 39.7971 93.4699 40.2671 91.4029C40.6432 89.8989 40.9252 88.3948 41.3012 86.8908C41.3012 86.7017 41.3952 86.6077 41.6772 86.6077H44.8732C44.7792 87.0788 44.6852 87.5477 44.5912 88.0177C43.3692 93.0009 42.2412 97.888 41.0192 102.87C40.9252 103.153 40.8312 103.153 40.6431 103.153H37.5411C37.3531 103.153 37.3531 103.153 37.2591 102.965C36.6951 100.239 36.131 97.513 35.567 94.7859C35.379 93.8459 35.285 92.8129 35.097 91.8718C35.003 92.2478 35.003 92.5298 34.909 92.9069C34.533 95.1619 34.063 97.419 33.687 99.674C33.499 100.802 33.217 101.93 33.029 103.059C33.029 103.153 33.029 103.247 32.841 103.247H29.2689C27.9529 97.794 26.6368 92.2478 25.3208 86.7017H28.7989C29.3629 90.5558 30.3969 94.317 30.9609 98.264Z" fill="black"/>
<path fill-rule="evenodd" clip-rule="evenodd" d="M62.4512 89.4279V93.188C63.4852 93.188 64.4263 93.188 65.4592 93.094C65.8363 93.094 66.0243 92.9071 66.2113 92.6251C66.4933 92.1539 66.6813 91.6839 66.6813 91.1199C66.5873 90.1799 66.2113 89.6159 65.2712 89.5219C64.3312 89.4279 63.3912 89.4279 62.4512 89.4279ZM62.5452 100.333H65.0832C66.0243 100.333 66.5873 99.8622 66.9633 98.9233C67.1513 98.5472 67.1513 98.0761 67.0573 97.7001C66.9633 96.8541 66.3993 95.9152 65.3652 95.9152H62.6392C62.5452 97.4192 62.5452 98.9233 62.5452 100.333ZM67.5284 94.3172C67.7153 94.4112 67.9033 94.5052 68.0913 94.5052C69.8773 95.2561 70.7234 96.5721 70.7234 98.4522C70.7234 99.7682 70.2544 100.99 69.2193 101.93C68.4673 102.588 67.5284 102.965 66.4933 102.965C64.7072 102.965 62.9212 102.965 61.1352 103.059H59.1611V86.7019H64.9892C66.1173 86.7019 67.1513 86.891 68.0913 87.4539C70.1594 88.583 70.7234 91.4031 69.3133 93.188C68.9384 93.7521 68.3733 94.1292 67.7153 94.3172H67.5284C67.6213 94.3172 67.6213 94.3172 67.5284 94.3172Z" fill="black"/>
<path fill-rule="evenodd" clip-rule="evenodd" d="M82.8498 100.427H84.7298C85.7638 100.427 86.5158 99.9557 87.0798 99.0168C87.4559 98.3577 87.6439 97.6068 87.7379 96.8537C87.927 95.7267 87.8319 94.5987 87.7379 93.4707C87.6439 92.6247 87.5499 91.8726 87.2679 91.0255C86.8918 90.0866 86.1398 89.4275 85.1058 89.2406C84.4478 89.1466 83.7898 89.1466 83.2258 89.1466H82.9438C82.8498 93.0007 82.8498 96.6667 82.8498 100.427ZM79.4657 103.059V86.7014H79.6537C81.3457 86.7014 83.1318 86.7014 84.8238 86.7965C86.1398 86.7965 87.2679 87.0785 88.3959 87.8305C89.6179 88.6765 90.4639 89.8985 90.9339 91.3086C91.4039 92.8126 91.4979 94.4106 91.4039 96.0087C91.3099 97.3247 91.0279 98.5467 90.3699 99.6748C89.7119 100.897 88.8659 101.931 87.5499 102.495C86.8918 102.776 86.2338 102.965 85.5758 102.965C83.6018 102.965 81.6277 102.965 79.5597 103.059H79.4657Z" fill="black"/>
<path fill-rule="evenodd" clip-rule="evenodd" d="M56.3412 103.059H46.753V86.7014H56.0592C55.9652 87.5485 55.7772 88.4885 55.6832 89.3334H50.1371V93.1886H54.8372V95.9147H50.2311V100.333H56.4352C56.3412 101.178 56.3412 102.119 56.3412 103.059Z" fill="black"/>
<path fill-rule="evenodd" clip-rule="evenodd" d="M103.624 86.7016C103.53 87.6417 103.342 88.4888 103.248 89.4277H97.7018V93.1889H102.402V95.9149H97.7958V100.333H104V103.153H94.5058V86.7967C97.3258 86.7016 100.428 86.7016 103.624 86.7016Z" fill="black"/>
<path fill-rule="evenodd" clip-rule="evenodd" d="M68.4672 47.7855C68.3732 47.2215 68.3732 46.5634 68.3732 45.9994C68.3732 45.5294 68.3732 45.1534 68.4672 44.6834C68.5612 44.3074 68.7492 44.0254 69.1263 43.9314H69.2192C69.6893 43.5554 70.1593 43.8374 70.4424 44.1194C70.5364 44.2134 70.5364 44.3074 70.6304 44.3074C71.0053 44.8714 71.4753 45.3414 72.0404 45.6234C72.5093 45.9054 72.6033 46.1874 72.6973 46.6575C72.6973 47.4095 72.6973 48.0675 72.6033 48.8195C72.5093 49.3835 72.6033 49.9475 72.6033 50.5115C72.6973 51.0755 72.6973 51.5456 72.6973 52.1096C72.6973 53.6136 72.7913 55.2116 72.7913 56.7157C72.7913 57.6557 72.8853 58.5017 73.0733 59.4417C73.2624 60.1938 72.9793 60.7578 72.3213 61.1338C71.9464 61.3218 71.6633 61.6038 71.2873 61.7918C71.0053 61.9798 70.6304 61.9798 70.3484 62.0738C70.2544 62.0738 70.0653 62.0738 69.9713 61.9798C69.5953 61.6978 69.3132 61.3218 69.0323 60.9458C68.9383 60.7578 69.0323 60.4758 69.0323 60.2878C69.1263 59.5357 69.0323 58.6897 68.7492 58.0317C68.6552 57.8437 68.6552 57.5617 68.6552 57.3737C68.6552 56.9037 68.5612 56.3397 68.5612 55.8697V55.5876C68.5612 54.2716 68.5612 52.9556 68.6552 51.6396V51.3576C68.6552 51.1695 68.6552 51.0755 68.5612 50.8875C68.4672 50.6055 68.3732 50.3235 68.3732 50.0415C68.3732 49.5715 68.3732 49.1015 68.4672 48.6315C68.3732 48.2555 68.3732 48.0675 68.4672 47.7855Z" fill="black"/>
<path fill-rule="evenodd" clip-rule="evenodd" d="M64.4259 27.011C64.3319 27.105 64.3319 27.105 64.4259 27.011C64.0499 27.293 64.0499 27.5751 64.2379 27.9511C64.3319 28.3271 64.5199 28.6091 64.6139 28.9851C64.6139 29.0791 64.7079 29.1731 64.8019 29.1731H64.8959C64.9899 28.8911 64.9899 28.7031 65.0839 28.4211C65.2708 27.6691 65.3648 26.823 65.5528 26.071C65.6468 25.789 65.7408 25.507 65.8359 25.225C65.9299 24.943 66.1179 24.943 66.3999 25.131C66.7748 25.319 66.9628 25.601 66.9628 26.071C66.9628 26.447 67.0568 26.823 67.0568 27.199C67.0568 27.481 67.1508 27.6691 67.1508 27.9511C67.1508 28.0451 67.2448 28.1391 67.4339 28.1391C67.5279 28.0451 67.7159 27.9511 67.8099 27.8571C67.9039 27.6691 67.9979 27.481 68.0919 27.293C68.1849 27.105 68.1849 27.105 68.3729 27.199C68.4669 27.293 68.4669 27.387 68.4669 27.481C68.5609 27.7631 68.75 28.1391 68.75 28.4211C68.75 28.6091 68.75 28.7971 68.6549 28.9851C68.5609 29.2671 68.5609 29.3611 68.844 29.5491C69.032 29.6431 69.126 29.7371 69.314 29.8311C69.502 29.9251 69.502 30.0191 69.314 30.2071C68.844 30.6771 68.2789 31.0531 67.6219 31.1471H67.0568C66.9628 31.1471 66.8688 31.1471 66.7748 31.3351C66.7748 31.4291 66.6808 31.4291 66.6808 31.5231C66.5879 31.6171 66.3999 31.6171 66.3059 31.5231C66.2119 31.3351 66.1179 31.3351 65.9299 31.4291C65.7408 31.5231 65.4588 31.6171 65.2708 31.8051C64.8019 32.0872 64.3319 32.0872 63.8608 31.8051C63.4858 31.6171 63.0147 31.4291 62.6398 31.2411C62.4507 31.1471 62.3567 30.8651 62.3567 30.6771C62.3567 30.3951 62.3567 30.0191 62.4507 29.7371C62.7338 28.8911 63.1087 28.2331 63.7668 27.6691C63.8608 27.199 64.0499 27.105 64.4259 27.011Z" fill="black"/>
<path fill-rule="evenodd" clip-rule="evenodd" d="M76.6458 101.366C76.6458 102.494 75.7058 103.435 74.5767 103.435C73.4497 103.435 72.5097 102.494 72.5097 101.366C72.5097 100.239 73.3557 99.2981 74.5767 99.2981C75.7998 99.2981 76.6458 100.145 76.6458 101.366Z" fill="black"/>
</svg>
