<svg width="128" height="128" viewBox="0 0 128 128" fill="none" xmlns="http://www.w3.org/2000/svg">
<rect width="128" height="128" fill="white"/>
<path d="M63.987 104.973C86.6229 104.973 104.973 86.6225 104.973 63.9864C104.973 41.3502 86.6229 23 63.987 23C41.351 23 23.001 41.3502 23.001 63.9864C23.001 86.6225 41.351 104.973 63.987 104.973Z" fill="#FDB738" stroke="#D36D00" stroke-width="2"/>
<path d="M100.568 47.8228C99.5546 47.9228 98.6182 48.0364 98.0228 48.1228C96.2319 48.3773 92.6365 49.9091 90.8183 50.6773C89.0001 51.4455 84.132 53.3318 80.6138 55.55C74.9639 59.1091 70.8821 63.7318 65.2503 66.3C61.4186 68.0409 56.7641 67.4182 54.1732 66.8364C52.5567 66.4774 50.9206 66.2134 49.2732 66.0455C45.0025 65.6205 40.7615 64.9374 36.5733 64C34.1143 63.4228 28.0916 59.6955 24.4825 57.7818C23.5812 63.5321 23.9456 69.4097 25.5504 75.0046C27.1551 80.5994 29.9615 85.7767 33.7737 90.1749C37.5859 94.5732 42.312 98.0865 47.6222 100.47C52.9324 102.853 58.6986 104.048 64.5185 103.973C86.3365 103.686 104.064 85.6637 103.973 63.8318C103.958 58.3174 102.799 52.866 100.568 47.8228Z" fill="#F49B2F"/>
<path d="M92.5366 54C94.696 57.0582 95.8537 60.7108 95.8502 64.4545C95.8502 74.4136 87.8957 82.4864 78.0776 82.4864C75.4942 82.488 72.9424 81.9183 70.605 80.8182C74.182 83.5089 78.6612 84.7118 83.105 84.1752C87.5488 83.6385 91.6128 81.4038 94.4464 77.9388C97.28 74.4738 98.6636 70.0471 98.3077 65.5852C97.9517 61.1232 95.8838 56.9719 92.5366 54Z" fill="#FEFDFD"/>
<path d="M56.3595 85.9454L44.2051 98.5545L49.0732 100.727L59.2549 89.8863L56.3595 85.9454Z" fill="#282725"/>
<path d="M56.864 68.2591C56.8638 63.8557 58.0397 59.5321 60.27 55.7354C62.5004 51.9386 65.7044 48.8065 69.5506 46.6628C73.3969 44.519 77.746 43.4415 82.1482 43.5415C86.5504 43.6415 90.846 44.9155 94.591 47.2318C92.1508 44.7198 89.2048 42.755 85.948 41.4675C82.6912 40.18 79.198 39.5993 75.6998 39.7639C72.2016 39.9284 68.7783 40.8344 65.6567 42.4218C62.5351 44.0093 59.7864 46.2419 57.5928 48.9719C55.3992 51.7018 53.8108 54.8667 52.9327 58.2569C52.0546 61.6471 51.9069 65.1852 52.4994 68.6368C53.0919 72.0884 54.4111 75.3747 56.3695 78.2779C58.328 81.1812 60.881 83.6352 63.8594 85.4772C59.3688 80.8715 56.8581 74.6917 56.864 68.2591Z" fill="#282725"/>
<path d="M102.891 54.7182C101.478 51.5755 99.489 48.7249 97.0273 46.3136C101.222 51.8279 103.175 58.7249 102.494 65.6196C101.813 72.5143 98.5493 78.8962 93.3575 83.4838C88.1658 88.0714 81.4306 90.5249 74.5046 90.3517C67.5786 90.1785 60.9746 87.3913 56.0186 82.55C58.5127 85.829 61.7133 88.5041 65.3828 90.3768C69.0524 92.2494 73.0966 93.2715 77.2152 93.3671C81.3338 93.4628 85.4211 92.6295 89.1736 90.9292C92.926 89.2288 96.2474 86.7052 98.891 83.5454C103.785 74.7772 105.212 64.4923 102.891 54.7227V54.7182Z" fill="#282725"/>
</svg>
