<svg width="128" height="129" viewBox="0 0 128 129" fill="none" xmlns="http://www.w3.org/2000/svg">
<rect width="128" height="128" transform="translate(0 0.277832)" fill="#132E46"/>
<path d="M107.508 55.691C104.755 53.5614 99.5289 53.6678 99.5289 53.6678H90.5068C89.4559 53.6678 89.0948 53.7391 89.1605 54.1752C89.1966 54.4141 89.5633 54.4817 89.7253 54.5252C90.3744 54.7049 90.8522 55.0465 90.879 55.6817C90.9123 56.4132 90.9957 58.7122 90.9957 59.5094V69.2389L90.9818 73.3083C90.9827 74.1926 91.7096 74.9102 92.6095 74.9148H97.9669C97.9669 74.9148 101.83 74.9148 104.616 73.65C108.807 71.7778 111.22 68.1806 111.22 63.7714C111.22 60.4807 109.825 57.4613 107.507 55.6891L107.508 55.691ZM98.4428 73.038H98.2391C96.9891 73.038 95.6975 73.038 95.0262 72.387C94.6817 72.0445 94.5114 71.5426 94.5114 70.851V61.0872C94.5114 59.0733 94.4614 58.127 94.5299 55.8697C95.7641 55.6974 97.0086 55.6132 98.2548 55.6169C100.62 55.6169 103.091 55.9289 105.153 58.1817C106.565 59.7437 107.252 61.7085 107.252 64.1501C107.257 69.5463 103.795 73.038 98.4428 73.038ZM89.1753 74.1092C88.5272 73.887 88.0328 73.138 88.0226 72.7528C88.0115 72.3676 87.6115 55.3299 87.6115 55.3299C87.592 54.4475 87.6355 53.8049 87.3929 53.7188C87.1031 53.6086 85.8754 53.6354 85.5504 53.6354C84.7671 53.6354 84.1874 53.6141 84.0439 53.7771C83.7328 54.2845 83.481 54.8252 83.2939 55.3882L81.7014 58.8511L80.1782 61.7557L77.7671 66.3408C77.3533 67.1251 76.6635 67.1334 76.2366 66.3575L73.7181 61.8261L72.1561 59.0076L70.3904 55.3484C70.0339 54.5345 69.8608 53.9077 69.6867 53.7586C69.5126 53.6095 68.9089 53.629 68.0089 53.6336H65.896C64.8479 53.6336 64.3729 53.6336 64.4423 54.0817C64.4775 54.3206 64.8451 54.3873 64.9932 54.4317C65.6451 54.6104 65.8821 55.3891 65.8821 55.7882C65.8821 56.1863 65.8821 71.6954 65.7942 72.3732C65.7942 72.487 65.7386 72.712 65.7358 72.725L65.7219 72.7667C65.646 73.4074 65.1877 73.9426 64.5581 74.1231C64.3951 74.1667 64.0303 74.237 64.0062 74.475C63.9395 74.9102 64.4257 74.9259 65.4738 74.9259H68.9497C69.9987 74.9259 70.4867 74.9129 70.4172 74.4759C70.3821 74.237 70.0145 74.1694 69.8663 74.1231C69.2145 73.9444 68.9497 73.5426 68.7126 72.7667C68.633 72.3778 68.5765 71.9861 68.5441 71.5917C68.5089 70.7074 68.4886 69.2639 68.4978 68.3825V68.1112C68.4978 67.2288 68.5302 65.7834 68.5534 64.9038L68.6358 61.4261C68.6571 60.5437 69.0219 60.4576 69.4469 61.2335L71.7691 65.4631C72.1968 66.2408 74.4376 70.401 74.8376 71.188C75.1801 71.8574 75.2487 72.1074 76.2996 72.1204C77.4773 72.1343 77.4773 71.8148 77.9551 70.7963C78.3107 70.0482 83.3236 60.3678 83.3236 60.3678C83.7319 59.5807 84.0856 59.6594 84.1106 60.5437C84.1106 60.5437 84.1735 72.3491 84.0884 72.8778C84.0884 72.9593 84.0634 73.0139 84.0578 73.0537C83.9134 73.563 83.5134 73.9611 82.9986 74.1092C82.8356 74.1528 82.4708 74.2231 82.4467 74.462C82.3801 74.8963 82.8661 74.9129 83.9143 74.9129H88.2818C89.3355 74.9129 89.8188 74.8991 89.7522 74.462C89.7022 74.2157 89.3355 74.1565 89.1753 74.1102V74.1092ZM41.3528 55.7632C41.501 55.3928 41.8343 54.6799 42.3028 54.4502C42.5435 54.3299 43.0139 54.3354 43.0926 54.0243C43.1713 53.7123 42.8824 53.6299 41.7222 53.6299H38.2427C37.1779 53.6299 36.6853 53.6438 36.7519 54.0725C36.789 54.3039 37.1612 54.3734 37.313 54.4151C38.3214 54.6817 38.9936 55.1715 38.6834 56.1724C38.3704 57.1743 33.9835 69.4482 33.9835 69.4482C33.8122 69.8899 33.3862 70.0149 33.2492 69.3575L30.9326 59.0354C30.7428 58.1882 30.527 57.1021 30.4511 56.6224C30.3307 56.2076 29.9233 55.928 29.4696 55.9465C29.0622 55.9345 28.6845 56.153 28.5095 56.503C28.215 57.0835 27.6354 58.1882 27.2224 58.9604L21.4216 69.5223C21.1836 69.9139 20.8809 69.7889 20.8447 69.3278L20.1262 58.6233C20.1262 57.7789 20.0392 56.1391 20.0448 55.8567C20.0485 55.1789 20.5373 54.591 21.2299 54.4299C21.3957 54.3873 21.7901 54.2993 21.8271 54.0651C21.8938 53.6354 21.3762 53.641 20.3114 53.641H15.9318C15.2115 53.6595 14.8809 53.728 14.9319 54.0827C14.9689 54.3141 15.3411 54.3836 15.492 54.4262C15.9457 54.5465 16.3179 54.8567 16.5013 55.2706C16.5578 55.4141 16.6078 55.5604 16.6494 55.7095C16.6494 55.7336 16.6494 55.7632 16.6661 55.7891C16.6828 55.8169 16.6661 55.8317 16.68 55.8558C16.6846 55.8836 16.6911 55.9113 16.6994 55.9391C16.9115 56.89 17.0624 57.853 17.1503 58.8224L18.0864 71.8945C18.1457 72.7593 18.117 74.0241 18.392 74.5565C18.6661 75.0889 19.9494 75.0676 20.4568 74.3407C20.5966 74.1333 27.8196 61.2409 27.8196 61.2409C28.24 60.4724 28.7363 60.5381 28.9187 61.3881L31.1965 72.0195C31.3372 72.8102 31.5353 73.5917 31.79 74.3565C32.1011 75.1268 33.6511 74.9907 34.0622 74.2426C34.4696 73.4731 34.8251 72.6796 35.127 71.8676C35.127 71.8676 41.0843 56.4391 41.3528 55.7632ZM60.4414 60.8057C57.6146 60.8057 55.0341 63.2501 53.336 65.0973C53.4258 64.5659 53.5638 64.0418 53.748 63.5325L56.3989 55.1502C56.5452 54.791 56.485 54.3854 56.2415 54.079C55.9971 53.7715 55.6026 53.6058 55.1998 53.641H52.9721C51.9045 53.641 51.4138 53.654 51.4786 54.0827C51.5156 54.3169 51.8879 54.3836 52.0388 54.4262C53.0952 54.7058 53.4397 55.8317 53.1591 57.0437C53.1591 56.9447 50.5231 66.9538 50.5231 66.9538C50.1925 67.9399 49.6221 68.838 48.8592 69.576C48.8592 69.576 45.6842 73.2685 42.462 73.2685C40.9861 73.2685 39.8843 72.4704 39.8843 70.9741C39.8741 70.225 39.9565 69.4778 40.1315 68.7482C43.4926 68.4501 49.5064 66.9769 49.5064 62.9224C49.5064 61.2826 47.8398 60.7928 46.424 60.7928C41.8658 60.7928 37.3686 66.0695 37.3686 70.8408C37.3686 72.838 38.3436 74.8666 41.238 74.8666C46.6759 74.8666 49.6434 69.8315 49.7971 69.663C49.6583 70.3278 49.5703 71 49.5342 71.6769C49.5342 73.8546 51.2156 74.8713 53.2776 74.8713C54.7934 74.8713 56.385 74.3574 57.8813 73.5056C59.0665 72.8176 60.135 71.9593 61.047 70.963C62.809 69.0723 64.0007 66.751 64.0007 64.5733C63.997 62.3261 62.9609 60.8057 60.4414 60.8057ZM45.7009 61.7501C46.5194 61.7501 46.9925 62.2594 46.9925 63.0316C46.9925 66.2816 43.188 67.7121 40.2936 67.8927C40.7954 65.9334 43.2806 61.7511 45.7009 61.7511V61.7501ZM60.0415 68.8362C59.3452 70.15 58.4378 71.3528 57.3517 72.4009C56.2471 73.4287 55.0147 74.0972 53.7786 74.0972C52.3332 74.0972 51.8601 72.787 51.8601 71.5621C51.8601 68.2288 55.6952 62.0168 59.5952 62.0168C61.0414 62.0168 61.4812 62.9705 61.4812 64.1075C61.4812 65.4066 60.9257 67.1584 60.0415 68.8362ZM110.554 55.0113C110.584 54.4104 111.082 53.9391 111.683 53.9391C112.285 53.9391 112.782 54.4114 112.813 55.0113C112.834 55.428 112.623 55.8234 112.265 56.0382C111.907 56.253 111.459 56.253 111.101 56.0382C110.743 55.8234 110.532 55.4289 110.554 55.0113ZM111.687 56.4076C112.057 56.4104 112.411 56.2641 112.672 56.003C112.932 55.7419 113.077 55.3863 113.073 55.0178C113.073 54.2512 112.452 53.6299 111.684 53.6299C110.918 53.6299 110.295 54.2512 110.295 55.0178C110.293 55.3873 110.438 55.7428 110.7 56.0039C110.961 56.266 111.318 56.4113 111.687 56.4076ZM111.394 55.1262H111.687L112.097 55.8224H112.376L111.919 55.1197C112.033 55.1188 112.142 55.0706 112.22 54.9873C112.298 54.9039 112.339 54.7928 112.332 54.678C112.332 54.3623 112.144 54.2215 111.764 54.2215H111.155V55.8224H111.397L111.394 55.1262ZM111.394 54.9206V54.4206H111.722C111.893 54.4206 112.074 54.4558 112.074 54.6549C112.074 54.9002 111.889 54.9151 111.682 54.9151L111.394 54.9206Z" fill="white"/>
</svg>
