<svg width="128" height="128" viewBox="0 0 128 128" fill="none" xmlns="http://www.w3.org/2000/svg">
<rect width="128" height="128" fill="white"/>
<rect width="128" height="128" fill="#21252E"/>
<g clip-path="url(#clip0_1125_824)">
<path fill-rule="evenodd" clip-rule="evenodd" d="M73.5026 38.0435V41.7335H73.6103C74.5988 40.3302 75.7921 39.2394 77.19 38.4637C78.5852 37.6906 80.1878 37.3055 81.9898 37.3055C83.7217 37.3055 85.3027 37.6395 86.7384 38.3047C88.1686 38.9727 89.2568 40.1525 89.9975 41.8413C90.8109 40.6427 91.9179 39.5895 93.3131 38.6737C94.7111 37.758 96.3622 37.3028 98.2745 37.3028C99.6356 37.2928 100.991 37.4704 102.304 37.8307C103.543 38.1808 104.602 38.7438 105.485 39.5168C106.371 40.2925 107.058 41.3026 107.554 42.5524C108.052 43.7994 108.297 45.3051 108.297 47.0639V65.3123H100.766V49.8598C100.766 48.944 100.731 48.0821 100.658 47.274C100.609 46.538 100.411 45.8196 100.076 45.1623C99.7544 44.5629 99.2662 44.0691 98.6705 43.7402C98.051 43.39 97.2106 43.2096 96.1521 43.2096C95.0908 43.2096 94.2343 43.4143 93.5798 43.8183C92.9406 44.2066 92.4112 44.7518 92.0418 45.4021C91.6701 46.0485 91.4223 46.7919 91.2984 47.6188C91.1733 48.4479 91.1103 49.2852 91.1099 50.1237V65.3123H83.5816V50.0133C83.5816 49.2053 83.5654 48.4053 83.5304 47.6161C83.5041 46.8661 83.352 46.1259 83.0806 45.4263C82.8194 44.764 82.3556 44.2012 81.7554 43.8183C81.1359 43.4143 80.2228 43.2096 79.0215 43.2096C78.6687 43.2096 78.2 43.2904 77.6155 43.4493C77.0338 43.6055 76.4654 43.9072 75.9186 44.3462C75.3692 44.7853 74.9032 45.4182 74.5153 46.2451C74.1221 47.072 73.9309 48.1548 73.9309 49.4908V65.3123H66.3972V38.0435H73.5026ZM45.8702 65.3123L40.9896 47.0074H40.8819L36.2167 65.3096H28.4191L19.7192 38.0435H27.6784L32.7152 56.5558H32.823L37.383 38.0435H44.7039L49.3717 56.5046H49.4794L54.5163 38.0435H62.26L53.6139 65.3123H45.8729H45.8702Z" fill="#00CDBE"/>
<path fill-rule="evenodd" clip-rule="evenodd" d="M64.3286 81.2929C80.6107 81.2929 88.8501 75.1437 88.8501 75.1437L92.3543 79.8573C92.3543 79.8573 80.1959 90.106 64.3286 90.106C48.4613 90.106 36.303 79.8573 36.303 79.8573L39.8072 75.1437C39.8072 75.1437 48.0492 81.2929 64.3286 81.2929Z" fill="white"/>
</g>
<defs>
<clipPath id="clip0_1125_824">
<rect width="88" height="54" fill="white" transform="translate(20 37)"/>
</clipPath>
</defs>
</svg>
