<svg width="129" height="129" viewBox="0 0 129 129" fill="none" xmlns="http://www.w3.org/2000/svg">
<rect width="128" height="128" transform="translate(0.666992 0.138916)" fill="#75C60C"/>
<path d="M55.4006 72.5665C56.3413 69.8475 57.2378 67.2755 58.1196 64.7035C59.751 59.9416 61.3677 55.165 63.0285 50.4178C63.2636 49.7564 63.2049 49.2273 62.8815 48.6247C61.206 45.4648 58.7369 43.1868 55.4153 41.8493C55.0185 41.6877 54.5776 41.6289 54.5629 40.9969C54.5482 40.2032 54.607 39.8358 55.6358 39.8799C57.6493 39.9828 59.6628 40.0857 61.6323 40.556C68.4224 42.1433 72.8462 46.3761 75.1831 52.8428C77.4464 59.0891 79.651 65.3501 81.885 71.6112C82.0026 71.9492 82.1495 72.2725 82.3994 72.9339C86.5734 60.3384 90.6592 48.0515 94.7744 35.6618C97.8755 38.4249 100.256 41.5848 102.182 45.1121C105.636 51.4172 106.532 58.2073 106.444 65.262C106.312 75.1532 102.432 83.4277 96.2442 90.9527C89.0866 99.6387 79.798 103.93 68.8486 104.783C50.3742 106.238 33.3548 95.0091 27.4025 77.4459C23.2579 65.1738 24.5953 53.3866 31.4001 42.2902C31.4148 42.2608 31.4295 42.2168 31.4442 42.1874C33.252 40.6882 32.5024 39.0275 31.6941 37.3961C29.9451 33.8247 27.2555 31.2233 23.6106 29.6654C22.6847 29.2685 22.8904 28.6365 22.9345 28.0487C22.9933 27.2844 23.64 27.6812 24.0074 27.6959C29.5042 27.7547 34.4571 29.2979 38.5577 33.0898C39.1015 33.5895 39.3219 33.2368 39.6453 32.9575C44.0985 29.1216 49.1396 26.3732 54.8275 24.8594C61.8233 22.9781 68.8339 22.8312 75.8738 24.683C76.1384 24.7565 76.6234 24.6977 76.5793 25.0651C76.5058 25.5795 76.0502 25.2709 75.7563 25.2268C69.6128 24.3303 63.4988 24.4772 57.517 26.138C51.4912 27.7988 46.0679 30.6648 41.5118 35.0004C41.2472 35.2503 40.9239 35.4267 41.2619 35.9117C42.9374 38.3073 43.6576 41.1145 44.6717 43.8041C48.1843 53.1662 51.6382 62.5577 55.1214 71.9198C55.1655 72.0815 55.2537 72.2431 55.4006 72.5665ZM95.6563 48.0221C95.4652 48.5219 95.3329 48.8305 95.23 49.1391C90.6004 62.8516 85.9561 76.5641 81.3412 90.2913C81.1354 90.9086 81.0179 91.4965 80.1213 91.3789C79.2836 91.276 78.4899 91.5993 78.049 90.3354C74.7569 81.0761 71.3765 71.8757 68.0255 62.6459C67.3201 60.7205 66.6293 58.7952 65.821 56.5906C64.9097 59.2802 64.0867 61.6758 63.2783 64.0715C60.2948 72.831 57.3113 81.5906 54.3131 90.3354C54.1955 90.6881 54.2249 91.1731 53.7252 91.3348C52.5788 91.7022 51.6382 91.2613 51.2266 90.1443C45.6711 75.3001 40.1303 60.4413 34.5894 45.5971C34.4571 45.2297 34.4424 44.7888 33.9868 44.5095C30.7975 50.5501 29.0927 56.9433 29.078 63.7481C29.0633 70.597 30.9298 76.9315 34.4424 82.8104C37.9698 88.6893 42.5847 93.363 48.8163 96.3612C55.577 99.6093 62.6611 100.697 70.0831 99.6828C76.8733 98.7422 83.0314 96.2437 88.0137 91.4524C96.9496 82.8692 101.138 72.3901 99.8744 59.9269C99.4481 55.6941 98.0078 51.7993 95.6563 48.0221Z" fill="white"/>
</svg>
