<svg width="129" height="128" viewBox="0 0 129 128" fill="none" xmlns="http://www.w3.org/2000/svg">
<rect width="128" height="128" transform="translate(0.666504)" fill="#2073DD"/>
<path d="M27.8445 76.0965C29.4012 77.6532 32.0356 77.6532 33.5923 76.0965L47.7224 61.9664L61.8524 76.0965C63.4091 77.6532 65.804 77.6532 67.3607 76.2162L81.6105 61.9664L95.7406 76.0965C97.2973 77.6532 99.9317 77.6532 101.488 76.0965L104.722 72.8633C106.278 71.3066 106.278 68.6722 104.722 67.1155L87.5978 50.1116C87.8373 48.6746 87.9571 47.2377 87.9571 45.9205C88.3163 33.1076 78.1379 22.4502 65.2053 22.2107C52.3925 21.9712 41.7351 32.0299 41.4956 44.9625C41.4956 45.3217 41.4956 45.5612 41.4956 46.0402C41.4956 47.4772 41.7351 48.9141 41.8548 50.2313L24.6114 67.2353C23.0547 68.792 23.0547 71.4264 24.6114 72.9831L27.8445 76.0965ZM64.7263 35.1433C70.5939 35.1433 75.3837 39.8134 75.5035 45.8007C75.5035 46.5192 75.3837 47.2377 75.264 47.8364C74.785 49.8721 73.7073 51.788 72.2703 53.3447L66.0435 59.4518C65.3251 60.0505 64.1276 60.0505 63.5289 59.4518L57.1823 53.225C55.6256 51.6683 54.6676 49.8721 54.1887 47.7167C54.0689 47.1179 54.0689 46.3994 54.0689 45.8007C54.0689 39.9332 58.8588 35.2631 64.7263 35.1433Z" fill="white"/>
<path d="M40.1335 87.4723C39.894 87.4723 39.6545 87.592 39.5348 87.7118C39.2953 87.8315 39.2953 87.9513 39.1756 88.1908L36.3017 97.5309L33.4277 88.4302C33.308 88.1908 33.1882 87.9513 32.9488 87.8315C32.4698 87.592 31.871 87.592 31.3921 87.8315C31.1526 88.071 31.0328 88.1908 30.9131 88.4302L28.2787 97.6507L25.4048 88.3105C25.285 88.071 25.1653 87.9513 25.0455 87.8315C24.806 87.7118 24.6863 87.592 24.4468 87.592C24.2073 87.592 23.8481 87.7118 23.7283 87.8315C23.4888 88.071 23.4888 88.3105 23.4888 88.55C23.4888 88.6697 23.4888 88.7895 23.6086 88.9092L27.0812 99.0877C27.2009 99.3271 27.3207 99.6864 27.6799 99.6864C27.9194 99.9259 28.2787 99.9259 28.5182 99.9259C28.7576 99.9259 29.1169 99.8061 29.3564 99.6864C29.5959 99.4469 29.8354 99.2074 29.9551 98.9679L32.4698 90.9449L35.2239 98.9679C35.3437 99.2074 35.4634 99.5666 35.8227 99.6864C36.0622 99.9259 36.4214 99.9259 36.6609 99.9259C36.9004 99.9259 37.2596 99.8061 37.4991 99.6864C37.7386 99.4469 37.9781 99.3271 38.0978 99.0877L41.5705 88.9092C41.6902 88.7895 41.6902 88.6697 41.6902 88.55C41.6902 88.3105 41.5705 87.9513 41.4507 87.8315C40.7323 87.7118 40.4928 87.4723 40.1335 87.4723Z" fill="white"/>
<path d="M51.9883 88.1909C51.0304 87.5922 50.0724 87.3527 48.8749 87.3527C47.6775 87.3527 46.48 87.5922 45.6418 88.3107C44.8036 88.9094 44.0851 89.7476 43.7258 90.7056C43.3666 91.7833 43.1271 92.7413 43.1271 93.9387C43.0074 95.7349 43.6061 97.4114 44.6838 98.7286C45.8813 99.926 47.5577 100.525 49.3539 100.405C50.1921 100.405 50.9106 100.285 51.7488 100.166C52.3476 99.9261 53.066 99.6865 53.6648 99.4471C54.024 99.2076 54.2635 98.8483 54.2635 98.4891C54.2635 98.2496 54.1438 97.8904 54.024 97.8904C53.7845 97.6509 53.545 97.6509 53.4253 97.6509C53.1858 97.6509 53.1858 97.6509 52.9463 97.7706C52.4673 98.0101 51.9883 98.2496 51.3896 98.3693C50.7909 98.4891 50.3119 98.6088 49.7132 98.6088C48.6354 98.7286 47.5577 98.3693 46.7195 97.6509C46.001 97.0521 45.522 96.0942 45.522 95.0165H53.7845C54.024 95.0165 54.3832 94.8967 54.503 94.777C54.6227 94.6572 54.7425 94.298 54.7425 94.0585C54.7425 92.9808 54.503 92.0228 54.1438 91.0648C53.545 89.5081 52.9463 88.7897 51.9883 88.1909ZM45.2825 92.861C45.2825 92.1425 45.522 91.4241 45.8813 90.8253C46.1208 90.3464 46.5998 89.8674 47.1985 89.7476C48.2762 89.1489 49.4737 89.1489 50.4316 89.7476C51.0304 89.9871 51.5093 90.3464 51.7488 90.8253C52.1081 91.4241 52.3476 92.1425 52.3476 92.861H45.2825Z" fill="white"/>
<path d="M74.5006 88.0711C73.9019 87.4724 72.9439 87.2329 72.1057 87.2329C70.4293 86.9934 68.7528 87.7119 67.6751 89.0291C66.5974 87.7119 65.0407 87.1131 63.484 87.2329C62.047 87.2329 60.7298 87.8316 59.8916 89.0291V88.6698C59.8916 88.0711 59.4126 87.5921 58.8139 87.5921C58.2152 87.5921 57.7362 88.0711 57.7362 88.6698V99.2075C57.7362 99.8062 58.2152 100.285 58.8139 100.285C59.4126 100.285 59.8916 99.8062 59.8916 99.2075V91.7832C60.2508 91.1845 60.7298 90.5858 61.4483 90.1068C62.047 89.6278 62.7655 89.508 63.484 89.508C64.2025 89.3883 65.0407 89.7475 65.3999 90.2265C65.8789 90.8252 65.9987 91.7832 65.9987 92.6214V99.2075C65.9987 99.8062 66.4776 100.285 67.0764 100.285C67.6751 100.285 68.1541 99.8062 68.1541 99.2075V99.0877C68.1541 99.0877 68.0343 92.6214 68.1541 91.7832C68.7528 90.3463 70.07 89.3883 71.6267 89.3883C73.6624 89.3883 74.1414 91.424 74.1414 92.382V98.968C74.1414 99.5667 74.6204 100.046 75.2191 100.046C75.8178 100.046 76.2968 99.5667 76.2968 98.968V91.7832C76.2968 91.0648 76.0573 90.2265 75.8178 89.508C75.5783 89.0291 75.2191 88.5501 74.5006 88.0711Z" fill="white"/>
<path d="M87.5529 88.0711C86.7147 87.5921 85.7568 87.3526 84.6791 87.4724C83.2421 87.4724 81.8051 87.7119 80.4879 88.3106C80.1287 88.4304 79.8892 88.9093 79.8892 89.2686C79.8892 89.7476 80.1287 90.1068 80.6077 90.1068H80.7274C80.8472 90.1068 80.9669 90.1068 80.9669 89.9871C81.5656 89.7476 82.0446 89.7476 82.5236 89.5081C83.1223 89.3883 83.6013 89.2686 84.0803 89.2686C84.9185 89.1488 85.8765 89.5081 86.595 89.8673C87.1937 90.3463 87.4332 91.0648 87.3135 91.903V92.1425H84.3198C82.7631 92.0227 81.4459 92.382 80.1287 93.2202C79.1707 93.9387 78.6917 95.1361 78.6917 96.3336C78.6917 96.9323 78.9312 97.7706 79.2905 98.2495C79.6497 98.8483 80.1287 99.3273 80.8472 99.447C81.4459 99.6865 82.1644 99.926 82.7631 99.926C84.4395 100.165 86.116 99.6865 87.3135 98.489V98.7285C87.3135 99.3273 87.7924 99.8062 88.3912 99.8062C88.9899 99.8062 89.4689 99.3273 89.4689 98.7285V91.7833C89.4689 90.945 89.2294 90.2266 88.8702 89.3883C88.7504 89.0291 88.2714 88.4304 87.5529 88.0711ZM87.6727 96.3336C87.6727 96.4533 87.553 96.5731 87.4332 96.5731C86.9542 97.0521 86.4752 97.4113 85.8765 97.6508C85.2778 98.01 84.4395 98.2495 83.8408 98.2495C83.1223 98.2495 82.2841 98.01 81.6854 97.6508C81.3262 97.2916 81.0867 96.8126 81.0867 96.3336C81.0867 95.1361 82.6434 94.2979 85.0383 94.2979H86.9542C87.553 94.2979 87.5529 94.2979 87.5529 94.8967V96.2139H87.6727V96.3336Z" fill="white"/>
<path d="M105.036 90.3462C104.437 89.3882 103.719 88.6698 102.88 88.071C102.042 87.4723 100.965 87.3526 100.007 87.3526C98.4499 87.2328 96.8932 87.9513 95.8154 89.029V88.55C95.8154 87.9513 95.3364 87.4723 94.7377 87.4723C94.139 87.4723 93.66 87.9513 93.66 88.55V104.716C93.66 105.314 94.139 105.793 94.7377 105.793C94.7377 105.793 94.7377 105.793 94.8575 105.793C95.097 105.793 95.4562 105.674 95.5759 105.554C95.6957 105.434 95.8154 105.075 95.8154 104.835V98.6087C96.8932 99.6864 98.3301 100.405 100.007 100.285C102.162 100.285 104.078 99.2074 105.036 97.2915C106.114 95.1361 106.114 92.5016 105.036 90.3462ZM102.521 97.1717C101.803 97.8902 100.725 98.2495 99.6473 98.2495C98.9288 98.2495 98.2104 98.01 97.6116 97.6507C97.0129 97.1717 96.4142 96.6928 95.8154 96.094L95.9352 91.7832C97.0129 90.7055 98.3301 89.8672 99.7671 89.6277C100.845 89.3882 101.922 89.8672 102.641 90.7055C103.359 91.6634 103.719 92.7411 103.719 93.9386C103.838 95.1361 103.359 96.2138 102.521 97.1717Z" fill="white"/>
</svg>
