<svg width="128" height="128" viewBox="0 0 128 128" fill="none" xmlns="http://www.w3.org/2000/svg">
<rect width="128" height="128" fill="white"/>
<path d="M44.4329 89C43.0587 88.9977 41.7403 88.4488 40.7612 87.4714L25.3924 72.1723C24.4783 71.1693 23.9799 69.8482 24.0006 68.4828C24.0213 67.1174 24.5595 65.8125 25.5036 64.8384C26.4478 63.8643 27.7255 63.2958 29.0719 63.2506C30.4183 63.2055 31.7303 63.6872 32.7359 64.5959L44.3804 76.1599L78.9994 40.6703C79.4794 40.154 80.0566 39.7403 80.6968 39.4535C81.3371 39.1668 82.0275 39.0129 82.7273 39.0008C83.4272 38.9887 84.1223 39.1187 84.7718 39.3832C85.4213 39.6476 86.0121 40.0412 86.5092 40.5407C87.0063 41.0401 87.3998 41.6354 87.6664 42.2914C87.9331 42.9474 88.0675 43.6509 88.0618 44.3603C88.056 45.0698 87.9103 45.7709 87.6331 46.4224C87.3559 47.0739 86.9528 47.6626 86.4477 48.1537L48.1701 87.4183C47.6817 87.9198 47.0998 88.3179 46.4582 88.5895C45.8166 88.861 45.1281 89.0006 44.4329 89Z" fill="#55CFA5"/>
<path d="M60.5359 88.8405C59.1635 88.8417 57.8454 88.2978 56.8641 87.3252L41.5217 72.0395C41.011 71.5553 40.6009 70.9725 40.3157 70.3253C40.0304 69.6782 39.8757 68.9797 39.8606 68.2711C39.8455 67.5624 39.9704 66.8579 40.2278 66.1989C40.4853 65.5399 40.8702 64.9397 41.3598 64.4336C41.8494 63.9276 42.4339 63.5259 43.079 63.2521C43.724 62.9784 44.4165 62.8381 45.1158 62.8396C45.8151 62.8411 46.507 62.9844 47.1508 63.2609C47.7947 63.5374 48.3776 63.9416 48.8651 64.4497L60.5359 76.0138L95.1155 40.5241C96.1011 39.5617 97.4188 39.0278 98.7873 39.0365C100.156 39.0451 101.467 39.5956 102.441 40.5704C103.414 41.5453 103.974 42.8672 103.999 44.2542C104.024 45.6412 103.514 46.9834 102.577 47.9942L64.2994 87.2588C63.8078 87.7635 63.2216 88.1635 62.5753 88.4352C61.929 88.7068 61.2355 88.8446 60.5359 88.8405Z" fill="#35B1A5"/>
</svg>
