<svg width="128" height="128" viewBox="0 0 128 128" fill="none" xmlns="http://www.w3.org/2000/svg">
<rect width="128" height="128" fill="white"/>
<path fill-rule="evenodd" clip-rule="evenodd" d="M75.1587 57.7424C75.0714 57.3791 74.8187 56.3257 72.3345 55.73C70.93 53.8465 69.9802 53.8465 69.6504 53.8465L69.5722 53.8486C69.2079 53.8638 68.2936 53.9024 67.0819 55.8244C66.2396 56.0476 65.6916 56.3176 65.3263 56.5824C64.8798 56.2141 64.1461 55.8325 62.9151 55.5453C61.3615 53.4335 60.3436 53.4335 59.9925 53.4335L59.9123 53.4355C59.5622 53.4508 58.5545 53.4934 57.2109 55.6488C56.0997 55.936 55.4452 56.2963 55.0494 56.6301C54.5704 56.2141 53.7464 55.7726 52.2912 55.4418C51.6295 54.5183 50.4219 53.0763 49.1027 53.0763L49.0195 53.0783C48.6471 53.0936 47.5683 53.1392 46.0877 55.5524C44.938 55.8396 44.2276 56.1938 43.7821 56.5297C43.1347 55.9614 42.0925 55.5169 40.6606 55.2013C39.384 53.4254 38.2058 52.5263 37.1555 52.5263L37.0692 52.5283C36.6694 52.5456 35.5044 52.5943 33.8543 55.3231C32.3463 55.6904 31.5152 56.1491 31.0423 56.5601C30.338 55.9959 29.24 55.5494 27.7503 55.2267C26.3671 53.2884 25.1047 52.3081 23.9925 52.3081L23.9052 52.3091C22.8082 52.3558 21.6534 53.3807 20.4661 55.3576C17.2532 56.1238 16.8615 57.2573 16.7276 57.647C16.3541 58.7237 16.9305 60.2276 18.4405 62.1202C17.9017 65.675 19.0027 66.4057 19.3802 66.6564C19.7791 66.9192 20.2692 67.0521 20.8395 67.0521C21.9071 67.0521 23.2821 66.5589 24.1589 66.1906C24.8997 66.6188 25.9196 67.0988 26.7659 67.0988C27.0278 67.0988 27.2764 67.0582 27.5057 66.977C28.6961 66.5559 29.4663 64.9657 29.7992 62.245C30.3918 61.5773 30.8241 61.0029 31.1438 60.5077C31.3599 60.8517 31.6218 61.2282 31.9516 61.6443C31.4706 64.92 32.5168 65.6142 32.8761 65.8526C33.2617 66.1084 33.7356 66.2372 34.2826 66.2372C35.2517 66.2372 36.4867 65.8029 37.2975 65.467C37.9815 65.8557 38.906 66.2799 39.6833 66.2799C39.937 66.2799 40.1786 66.2393 40.4018 66.1601C40.8331 66.0079 42.1067 65.5583 42.5775 61.7792C43.0454 61.2495 43.4026 60.7857 43.6816 60.3747C43.8623 60.6619 44.0774 60.9725 44.3423 61.3114C43.9333 64.235 44.9095 64.8815 45.2475 65.1047C45.6169 65.3503 46.0664 65.4741 46.584 65.4741C47.4283 65.4741 48.4857 65.1149 49.2123 64.8196C49.8425 65.1717 50.629 65.5106 51.318 65.5106C51.5626 65.5106 51.796 65.4721 52.0111 65.396C52.414 65.2529 53.6013 64.8338 54.0356 61.4586C54.4659 60.9664 54.7907 60.5371 55.0403 60.1566C55.1935 60.4021 55.3752 60.665 55.5944 60.9501C55.2463 63.5846 56.1647 64.1934 56.4833 64.4045C56.8395 64.641 57.2708 64.7607 57.763 64.7607C58.514 64.7607 59.4192 64.4654 60.0808 64.2005C60.645 64.508 61.3371 64.7932 61.9541 64.7932C62.1906 64.7932 62.4159 64.7556 62.6269 64.6816C63.0065 64.5476 64.1217 64.1528 64.5266 61.1054C64.8108 60.7807 65.0381 60.4864 65.2309 60.2144C65.3334 60.3697 65.446 60.53 65.577 60.7015C65.44 61.7041 65.4166 63.1695 66.4548 63.8565C66.7998 64.0849 67.2128 64.2005 67.6847 64.2005C68.3433 64.2005 69.1267 63.956 69.7173 63.7256C70.2217 63.9915 70.8285 64.23 71.3806 64.23C71.6099 64.23 71.8301 64.1924 72.0351 64.1204C72.3923 63.9935 73.4437 63.6221 73.8232 60.873C75.457 58.9824 75.25 58.1219 75.1587 57.7424Z" fill="#F9F9F9" stroke="#B5B5B5" stroke-width="0.5"/>
<path fill-rule="evenodd" clip-rule="evenodd" d="M23.9698 53.8451C23.018 53.8857 21.4592 56.7149 21.4592 56.7149C21.4592 56.7149 18.4727 57.3035 18.1794 58.1488C17.8526 59.0967 20.0761 61.6844 20.0761 61.6844C20.0761 61.6844 19.4601 64.8638 20.2293 65.3732C21.1416 65.978 24.2773 64.4518 24.2773 64.4518C24.2773 64.4518 26.2491 65.7903 26.9929 65.5285C27.9742 65.1804 28.3254 61.5829 28.3254 61.5829C28.3254 61.5829 30.6391 59.0886 30.426 58.2006C30.1906 57.2193 26.8397 56.6124 26.8397 56.6124C26.8397 56.6124 24.9654 53.8025 23.9698 53.8451Z" fill="#71B1D7"/>
<path fill-rule="evenodd" clip-rule="evenodd" d="M37.135 54.0642C36.2674 54.1007 34.8466 56.6793 34.8466 56.6793C34.8466 56.6793 32.125 57.2161 31.8581 57.9864C31.5587 58.8499 33.5852 61.2094 33.5852 61.2094C33.5852 61.2094 33.0251 64.1066 33.7263 64.5714C34.5574 65.1214 37.4151 63.7301 37.4151 63.7301C37.4151 63.7301 39.2123 64.9509 39.8902 64.7114C40.7842 64.3948 41.1039 61.115 41.1039 61.115C41.1039 61.115 43.2126 58.8418 43.0188 58.033C42.8037 57.139 39.7502 56.5859 39.7502 56.5859C39.7502 56.5859 38.0422 54.0256 37.135 54.0642Z" fill="#59AD23"/>
<path fill-rule="evenodd" clip-rule="evenodd" d="M49.0845 54.6141C48.3234 54.6466 47.0783 56.9066 47.0783 56.9066C47.0783 56.9066 44.6925 57.3764 44.4591 58.0523C44.1973 58.8093 45.9742 60.8765 45.9742 60.8765C45.9742 60.8765 45.482 63.4155 46.097 63.8234C46.8246 64.3065 49.3301 63.0867 49.3301 63.0867C49.3301 63.0867 50.9051 64.1563 51.4987 63.9462C52.2832 63.6692 52.5633 60.7943 52.5633 60.7943C52.5633 60.7943 54.4122 58.8022 54.2417 58.0929C54.053 57.3094 51.3759 56.8244 51.3759 56.8244C51.3759 56.8244 49.8801 54.5807 49.0845 54.6141Z" fill="#E8B83C"/>
<path fill-rule="evenodd" clip-rule="evenodd" d="M60.1171 55.0003C59.4433 55.0287 58.3412 57.0299 58.3412 57.0299C58.3412 57.0299 56.2294 57.446 56.0234 58.0447C55.791 58.7145 57.364 60.5442 57.364 60.5442C57.364 60.5442 56.9276 62.792 57.4726 63.1532C58.117 63.5805 60.3343 62.5007 60.3343 62.5007C60.3343 62.5007 61.7286 63.4475 62.2543 63.2618C62.9494 63.0162 63.197 60.4721 63.197 60.4721C63.197 60.4721 64.8329 58.7084 64.6827 58.0802C64.5153 57.3871 62.1467 56.9569 62.1467 56.9569C62.1467 56.9569 60.8214 54.9709 60.1171 55.0003Z" fill="#59AD23"/>
<path fill-rule="evenodd" clip-rule="evenodd" d="M69.6368 55.3841C69.0431 55.4095 68.071 57.1742 68.071 57.1742C68.071 57.1742 66.2078 57.5415 66.0251 58.0692C65.8212 58.6599 67.2074 60.2744 67.2074 60.2744C67.2074 60.2744 66.8248 62.2573 67.3038 62.575C67.8731 62.9525 69.8286 62.0006 69.8286 62.0006C69.8286 62.0006 71.0585 62.8347 71.5223 62.6714C72.1352 62.4542 72.3534 60.2105 72.3534 60.2105C72.3534 60.2105 73.7975 58.6548 73.6645 58.1007C73.5164 57.4888 71.4269 57.1103 71.4269 57.1103C71.4269 57.1103 70.2579 55.3577 69.6368 55.3841Z" fill="#67A7CD"/>
<path fill-rule="evenodd" clip-rule="evenodd" d="M102.869 68.8937V66.8063C102.964 66.7586 103.054 66.7069 103.141 66.649C103.267 66.5658 103.38 66.4684 103.485 66.3659C103.625 66.4014 103.769 66.4278 103.913 66.4379C103.908 66.4552 103.904 66.4704 103.898 66.4866C103.73 67.0052 103.644 67.5968 103.644 68.2463C103.644 68.64 103.696 69.0003 103.799 69.3291C103.522 69.114 103.204 68.9648 102.869 68.8937ZM110.806 60.956C110.401 60.1523 109.815 59.5068 109.064 59.036C108.304 58.559 107.434 58.3175 106.479 58.3175C105.438 58.3175 104.502 58.6077 103.697 59.1821C103.267 59.4866 102.896 59.8448 102.582 60.2466C102.478 60.0112 102.342 59.791 102.176 59.5901C101.651 58.9538 100.937 58.6027 100.167 58.6027C99.6099 58.6027 99.0802 58.7823 98.6327 59.1212C98.2623 59.4023 97.9649 59.7819 97.7812 60.1969C97.6229 60.545 97.5265 60.9367 97.4981 61.3578C97.4788 61.6095 97.4707 61.9302 97.4707 62.3361V62.3787C97.4342 62.4071 97.4027 62.4437 97.3682 62.4741C97.0303 62.2458 96.6497 62.057 96.2266 61.9129C95.6836 61.7293 95.0829 61.6359 94.4405 61.6359C93.5434 61.6359 92.7407 61.8419 92.0547 62.2488C91.6326 62.4995 91.2754 62.8121 90.9729 63.1713C90.769 62.947 90.5457 62.74 90.3012 62.5512C89.5066 61.9424 88.5232 61.6197 87.4567 61.6197C86.654 61.6197 85.899 61.7952 85.216 62.1433C84.6041 62.4548 84.0804 62.8953 83.6471 63.4412C83.4127 63.1216 83.1499 62.8374 82.8556 62.5959C82.1016 61.9789 81.1811 61.6521 80.1917 61.6521C80.0608 61.6521 79.9309 61.6572 79.8041 61.6674V61.437C79.8041 60.6586 79.6387 60.0224 79.2967 59.4937C78.8167 58.7458 78.0292 58.3175 77.1402 58.3175C76.2411 58.3175 75.4526 58.7671 74.9787 59.5515C74.656 60.0822 74.5007 60.7307 74.5007 61.5354V62.3402C74.2186 62.1717 73.9121 62.0266 73.5762 61.9129C73.0333 61.7293 72.4326 61.6359 71.7902 61.6359C71.4523 61.6359 71.1285 61.6653 70.819 61.7232C70.7967 61.2401 70.7186 60.7967 70.5836 60.4039C70.3756 59.8093 70.0498 59.3242 69.6135 58.9609C69.105 58.5397 68.4992 58.3175 67.865 58.3175C67.0267 58.3175 66.2616 58.6747 65.7085 59.3282C65.2305 59.8945 64.9789 60.6069 64.9789 61.3883C64.9789 61.9992 65.1382 62.5756 65.4436 63.0789C65.4396 63.083 65.4376 63.0891 65.4335 63.0952C65.2366 62.8932 65.0245 62.7045 64.7932 62.534C63.9702 61.9271 62.9959 61.6197 61.8969 61.6197C61.079 61.6197 60.3108 61.7912 59.6146 62.1321C59.3711 62.2519 59.1458 62.396 58.9286 62.5512C58.8251 62.4619 58.7155 62.3767 58.5978 62.2975C57.9362 61.8581 57.2238 61.6359 56.4779 61.6359C56.0222 61.6359 55.597 61.7201 55.2134 61.8835C54.8694 61.7222 54.4828 61.6359 54.0688 61.6359C53.2518 61.6359 52.3497 62.0093 51.8159 62.947C51.6616 62.8009 51.4983 62.6629 51.3247 62.534C50.5017 61.9271 49.5265 61.6197 48.4275 61.6197C47.6085 61.6197 46.8424 61.7922 46.1452 62.1321C45.5038 62.4467 44.9548 62.8953 44.5012 63.4544C44.2039 63.0008 43.8416 62.6162 43.4083 62.3199C42.7446 61.8663 41.9855 61.6359 41.1544 61.6359C41.0306 61.6359 40.9088 61.641 40.7881 61.6511V61.5182C40.7881 60.68 40.6034 60.0061 40.2218 59.4571C39.7195 58.7326 38.9208 58.3175 38.0329 58.3175C37.1429 58.3175 36.3473 58.7356 35.849 59.4642C35.4776 60.0082 35.297 60.68 35.297 61.5182V61.643C35.2554 61.641 35.2148 61.6359 35.1732 61.6359C34.4415 61.6359 33.7819 61.914 33.3181 62.4163C33.2197 62.5228 33.1294 62.6355 33.0482 62.7542C32.9751 62.6558 32.894 62.5594 32.8077 62.467C32.3003 61.9231 31.6143 61.6359 30.8248 61.6359C30.0393 61.6359 29.3564 61.9231 28.85 62.467C28.7678 62.5533 28.6917 62.6436 28.6206 62.7359C28.1711 62.0428 27.3948 61.6359 26.4956 61.6359C25.7041 61.6359 24.9887 61.985 24.4813 62.6203C24.0693 63.1368 23.8511 63.7568 23.8511 64.4124C23.8511 64.794 23.9363 65.2547 24.1301 65.9295L25.5762 71.2846C25.6168 71.4328 25.6726 71.6307 25.7447 71.8783C25.8462 72.2365 25.973 72.5612 26.1202 72.8474C26.3515 73.2939 26.6641 73.6562 27.0487 73.9231C27.4972 74.2356 28.0371 74.4 28.6115 74.4C29.5512 74.4 30.3448 74.0012 30.8491 73.2929C30.9141 73.3802 30.9831 73.4644 31.0572 73.5446C31.5625 74.0956 32.2749 74.4 33.0644 74.4C33.8418 74.4 34.5207 74.1179 35.0281 73.5852C35.2594 73.3426 35.4482 73.0686 35.5953 72.7743C36.0713 73.8845 37.0536 74.4 38.0329 74.4C38.9249 74.4 39.7246 73.9799 40.2269 73.2472C40.2624 73.1965 40.2949 73.1447 40.3263 73.093C40.8419 73.986 41.7288 74.4 42.6096 74.4C43.4773 74.4 44.2648 73.9901 44.7712 73.2797C44.831 73.1955 44.8848 73.1072 44.9356 73.0179C45.8803 73.9211 47.1164 74.4 48.5574 74.4C49.3063 74.4 49.9984 74.2681 50.6154 74.0063C51.1025 73.7993 51.5307 73.5354 51.9001 73.2249C51.9153 73.2452 51.9275 73.2675 51.9417 73.2878C52.4522 73.9941 53.2326 74.4 54.0809 74.4C54.9212 74.4 55.6985 74.0063 56.214 73.3193C56.6332 72.7611 56.8371 72.067 56.8371 71.1984V70.2881C57.0594 71.1101 57.4085 71.8367 57.8895 72.4577C58.8779 73.7282 60.3088 74.4 62.0268 74.4C62.7757 74.4 63.4678 74.2681 64.0848 74.0063C64.6805 73.7526 65.195 73.4177 65.6131 73.0108C66.0271 72.6069 66.3488 72.1644 66.568 71.6956C66.8126 71.173 66.9313 70.6879 66.9313 70.2089C66.9313 69.7523 66.8319 69.3301 66.6421 68.9587C66.8735 68.5375 67.0348 67.9754 67.0348 67.2244C67.0348 67.1128 67.0247 67.0022 67.0186 66.8895C67.117 66.9027 67.2155 66.9118 67.3159 66.9118C67.3312 66.9118 67.3464 66.9088 67.3616 66.9088C67.454 67.4121 67.6285 67.8739 67.8893 68.2869C67.8558 68.3244 67.8244 68.365 67.7939 68.4056C67.4123 68.9019 67.2094 69.5077 67.2094 70.1602C67.2094 70.8543 67.3971 71.5353 67.7655 72.1807C68.143 72.8444 68.7082 73.3893 69.443 73.7983C70.1584 74.1981 70.9926 74.4 71.9221 74.4C72.8527 74.4 73.6838 74.2194 74.3901 73.8642C74.655 73.7323 74.9006 73.571 75.1279 73.3903C75.616 74.0307 76.3385 74.4 77.1402 74.4C77.6141 74.4 78.0667 74.2691 78.4595 74.0286C78.5751 74.0804 78.6949 74.1291 78.8177 74.1727C79.2459 74.3239 79.7016 74.4 80.1735 74.4C80.9538 74.4 81.6835 74.19 82.3411 73.7759C82.8363 73.4624 83.2645 73.0433 83.6248 72.5359C84.5828 73.7526 85.9456 74.4 87.5835 74.4C88.3193 74.4 88.9992 74.2651 89.605 73.9972C90.1702 73.7475 90.6594 73.4187 91.0592 73.0209C91.3525 73.3162 91.6975 73.577 92.0933 73.7983C92.8087 74.1981 93.6419 74.4 94.5724 74.4C95.503 74.4 96.3352 74.2194 97.0404 73.8642C97.489 73.6389 97.8858 73.3386 98.2206 72.9803C98.385 73.2148 98.5779 73.4269 98.795 73.6115C99.413 74.1352 100.223 74.4 101.203 74.4C102.132 74.4 102.88 74.2123 103.485 73.8287C103.737 73.6704 103.952 73.4766 104.136 73.2614C104.185 73.3264 104.233 73.3873 104.281 73.44C104.82 74.0479 105.546 74.3828 106.327 74.3828C107.11 74.3828 107.838 74.0398 108.374 73.4187C108.853 72.8647 109.105 72.136 109.105 71.313C109.105 70.6696 108.937 70.0719 108.62 69.5635C108.712 69.3352 108.783 69.0815 108.824 68.7933C108.863 68.5751 108.891 68.4198 108.911 68.3285C108.911 68.3285 108.911 68.3255 108.913 68.3224L108.928 68.2981C108.955 68.2575 109.02 68.1661 109.137 68.0271C109.675 67.401 110.042 66.9626 110.259 66.6845C110.561 66.3009 110.819 65.8514 111.027 65.349C111.265 64.7767 111.386 64.1293 111.386 63.423C111.386 62.5452 111.19 61.7151 110.806 60.956Z" fill="#FBFBFB" stroke="#B5B5B5" stroke-width="0.5"/>
<path fill-rule="evenodd" clip-rule="evenodd" d="M35.2748 63.3128C34.8932 63.3128 34.67 63.4681 34.5492 63.599C34.4041 63.7553 34.3006 63.9389 34.2387 64.1439C34.189 64.3134 34.125 64.5762 34.0449 64.9416L33.1833 68.5959L32.4303 65.2937C32.3187 64.8178 32.2335 64.491 32.1695 64.2921C32.0944 64.0617 31.9655 63.8476 31.7859 63.6548C31.5738 63.4275 31.2846 63.3128 30.9264 63.3128C30.5732 63.3128 30.2861 63.4275 30.074 63.6548C29.8923 63.8496 29.7665 64.0597 29.6985 64.2799C29.6427 64.4636 29.5584 64.7944 29.4417 65.2957L28.6908 68.5877L27.8404 64.9426C27.7166 64.4088 27.6009 64.0354 27.4842 63.8009C27.3726 63.5787 27.129 63.3128 26.5983 63.3128C26.2776 63.3128 25.9975 63.4529 25.7854 63.7177C25.5896 63.9633 25.4901 64.2434 25.4901 64.5519C25.4901 64.7751 25.5632 65.1313 25.7164 65.6682L27.1595 71.0162C27.199 71.1592 27.2538 71.3521 27.3239 71.5956C27.3979 71.8554 27.4872 72.0858 27.5867 72.2806C27.7014 72.5018 27.8505 72.6774 28.0281 72.8012C28.2199 72.9341 28.4503 73.0021 28.7131 73.0021C29.2195 73.0021 29.596 72.7829 29.802 72.3648C29.9674 72.032 30.1146 71.5611 30.2505 70.9289L30.9315 67.9241L31.6357 70.9269C31.723 71.3247 31.8062 71.6535 31.8823 71.9061C31.9696 72.1933 32.1066 72.443 32.2923 72.6459C32.5054 72.8783 32.8078 73.0021 33.1661 73.0021C33.5182 73.0021 33.8044 72.8885 34.0165 72.6652C34.1961 72.4765 34.33 72.2583 34.4132 72.0157C34.4853 71.8087 34.5858 71.4728 34.7136 71.0151L36.1678 65.6743C36.3119 65.178 36.382 64.8117 36.382 64.5519C36.382 64.2292 36.2784 63.944 36.0755 63.7035C35.8593 63.4478 35.5823 63.3128 35.2748 63.3128Z" fill="#F0BF33"/>
<path fill-rule="evenodd" clip-rule="evenodd" d="M43.5786 64.9064C43.3553 64.397 43.0407 64.0012 42.6429 63.7282C42.24 63.4522 41.7732 63.3132 41.2557 63.3132C40.9188 63.3132 40.5971 63.368 40.3018 63.4756C40.0034 63.5852 39.7294 63.7496 39.4849 63.9657C39.4402 64.0043 39.3966 64.0449 39.3529 64.0895V61.6581C39.3529 61.1435 39.2576 60.7559 39.0607 60.4728C38.8425 60.1592 38.5228 59.9938 38.1352 59.9938C37.7496 59.9938 37.434 60.1582 37.2209 60.4707C37.0291 60.7508 36.9367 61.1395 36.9367 61.6581V71.3372C36.9367 72.7853 37.6866 73.0025 38.1352 73.0025C38.5239 73.0025 38.8435 72.834 39.0617 72.5174C39.2576 72.2312 39.3529 71.8456 39.3529 71.3372V68.3862C39.3529 67.5682 39.3976 66.9989 39.4818 66.7036C39.5904 66.3657 39.7528 66.0988 39.9649 65.9111C40.1607 65.7375 40.3718 65.6533 40.6093 65.6533C40.9573 65.6533 41.1654 65.7731 41.2841 66.043C41.4363 66.386 41.5135 66.8995 41.5135 67.5693V71.3372C41.5135 72.7853 42.2644 73.0025 42.7119 73.0025C43.0854 73.0025 43.401 72.8371 43.6222 72.5255C43.8252 72.2414 43.9236 71.8527 43.9236 71.3372V67.0629C43.9236 66.6214 43.9003 66.2246 43.8556 65.8816C43.8079 65.5234 43.7135 65.1926 43.5786 64.9064Z" fill="#F0BF33"/>
<path fill-rule="evenodd" clip-rule="evenodd" d="M47.6342 65.9127C47.8616 65.6072 48.1264 65.4651 48.4704 65.4651C48.8368 65.4651 49.1138 65.6042 49.3401 65.9066C49.5482 66.1826 49.6831 66.5926 49.745 67.1304H47.2101C47.2841 66.6017 47.4262 66.1927 47.6342 65.9127ZM51.6041 68.7116C51.9583 68.4822 52.1308 68.0418 52.1308 67.3649C52.1308 66.7226 51.9969 66.0832 51.734 65.4652C51.4651 64.834 51.0551 64.3104 50.5132 63.9105C49.9602 63.5026 49.2934 63.2966 48.5293 63.2966C47.9468 63.2966 47.4059 63.4163 46.9239 63.6518C46.4398 63.8892 46.0278 64.2332 45.699 64.6747C45.3773 65.107 45.1307 65.6286 44.9653 66.2263C44.8009 66.8139 44.7187 67.4573 44.7187 68.1402C44.7187 69.6036 45.0607 70.7858 45.7355 71.6524C46.4317 72.5485 47.415 73.0021 48.6592 73.0021C49.2011 73.0021 49.6912 72.9108 50.1154 72.7312C50.5355 72.5526 50.8917 72.3222 51.1728 72.0492C51.4529 71.7752 51.667 71.484 51.8081 71.1816C51.9552 70.87 52.0263 70.596 52.0263 70.3484C52.0263 70.044 51.9431 69.7974 51.7777 69.6137C51.6041 69.4229 51.3687 69.3215 51.0947 69.3215C50.7679 69.3215 50.5731 69.4564 50.4584 69.5802C50.2392 69.838 50.0616 70.043 49.9236 70.1942C49.7968 70.3322 49.6547 70.4661 49.5015 70.59C49.3645 70.7006 49.2234 70.7828 49.0824 70.8325C48.9423 70.8812 48.783 70.9076 48.6074 70.9076C48.3598 70.9076 48.1376 70.8325 47.9295 70.6762C47.7134 70.5159 47.5338 70.2652 47.3978 69.9324C47.2862 69.6614 47.2161 69.3539 47.1887 69.013H50.3437C50.8714 69.013 51.2956 68.9115 51.6041 68.7116Z" fill="#F0BF33"/>
<path fill-rule="evenodd" clip-rule="evenodd" d="M58.5161 64.9034C58.5161 64.4183 58.2858 64.0083 57.8494 63.7181C57.4445 63.4492 57.0163 63.3132 56.5799 63.3132C56.1151 63.3132 55.7346 63.4644 55.4494 63.7627C55.3642 63.852 55.2799 63.9535 55.1967 64.0692C55.1663 63.9809 55.1308 63.8997 55.0892 63.8257C54.9014 63.4898 54.5838 63.3132 54.1697 63.3132C53.6299 63.3132 52.9845 63.6268 52.9845 65.1246V71.3372C52.9845 71.8537 53.0839 72.2434 53.2899 72.5276C53.5142 72.8381 53.8227 73.0025 54.1829 73.0025C54.5452 73.0025 54.8578 72.8411 55.0861 72.5367C55.2982 72.2536 55.4017 71.8619 55.4017 71.3372V69.473C55.4017 68.8124 55.419 68.2461 55.4525 67.7905C55.4859 67.347 55.5468 66.9594 55.6331 66.6407C55.7102 66.3545 55.8147 66.1414 55.9436 66.0085C56.0481 65.8999 56.178 65.8482 56.3506 65.8482C56.4997 65.8482 56.6814 65.8918 56.8914 65.976C57.2517 66.1222 57.3907 66.1516 57.4871 66.1516C57.7601 66.1516 58.0067 66.0237 58.2188 65.7731C58.4157 65.5407 58.5161 65.2474 58.5161 64.9034Z" fill="#F0BF33"/>
<path fill-rule="evenodd" clip-rule="evenodd" d="M61.1037 65.9127C61.331 65.6072 61.5969 65.4651 61.9399 65.4651C62.3063 65.4651 62.5833 65.6042 62.8096 65.9066C63.0176 66.1826 63.1536 66.5926 63.2155 67.1304H60.6795C60.7536 66.6017 60.8957 66.1927 61.1037 65.9127ZM65.0736 68.7116C65.4277 68.4822 65.6003 68.0418 65.6003 67.3649C65.6003 66.7226 65.4663 66.0832 65.2045 65.4652C64.9356 64.834 64.5246 64.3104 63.9827 63.9105C63.4306 63.5026 62.7629 63.2966 61.9987 63.2966C61.4162 63.2966 60.8764 63.4163 60.3933 63.6518C59.9093 63.8892 59.4972 64.2332 59.1685 64.6747C58.8468 65.107 58.6002 65.6286 58.4348 66.2263C58.2714 66.8139 58.1882 67.4573 58.1882 68.1402C58.1882 69.6036 58.5301 70.7858 59.205 71.6524C59.9011 72.5485 60.8855 73.0021 62.1296 73.0021C62.6705 73.0021 63.1607 72.9108 63.5849 72.7312C64.005 72.5526 64.3612 72.3222 64.6433 72.0492C64.9224 71.7752 65.1365 71.484 65.2786 71.1816C65.4237 70.87 65.4957 70.596 65.4957 70.3484C65.4957 70.044 65.4125 69.7974 65.2471 69.6137C65.0746 69.4229 64.8381 69.3215 64.5652 69.3215C64.2374 69.3215 64.0425 69.4564 63.9279 69.5802C63.7087 69.838 63.5311 70.043 63.3931 70.1942C63.2662 70.3322 63.1241 70.4661 62.9709 70.59C62.8339 70.7006 62.6929 70.7828 62.5518 70.8325C62.4128 70.8812 62.2524 70.9076 62.0769 70.9076C61.8293 70.9076 61.607 70.8325 61.399 70.6762C61.1828 70.5159 61.0032 70.2652 60.8672 69.9324C60.7556 69.6614 60.6856 69.3539 60.6582 69.013H63.8132C64.3409 69.013 64.7651 68.9115 65.0736 68.7116Z" fill="#F0BF33"/>
<path fill-rule="evenodd" clip-rule="evenodd" d="M69.394 62.1568C69.394 61.7286 69.3392 61.3562 69.2336 61.0487C69.119 60.7219 68.9505 60.4642 68.7344 60.2845C68.501 60.0917 68.2432 59.9933 67.9662 59.9933C67.5826 59.9933 67.2436 60.1536 66.9859 60.4581C66.7413 60.7483 66.6175 61.1075 66.6175 61.5277C66.6175 61.9326 66.7403 62.2918 66.9808 62.5942C67.1746 62.8368 67.3948 62.991 67.6384 63.0539C67.6079 63.1899 67.5623 63.3056 67.5024 63.4C67.3918 63.5694 67.2355 63.7288 67.0528 63.8627C66.8661 63.9825 66.6439 64.2179 66.6439 64.6583C66.6439 64.8795 66.7088 65.0744 66.8367 65.2347C66.9828 65.4174 67.1837 65.5138 67.4182 65.5138C67.7256 65.5138 68.0362 65.3474 68.365 65.0023C68.6552 64.6989 68.9028 64.2879 69.0997 63.7815C69.2945 63.2772 69.394 62.7302 69.394 62.1568Z" fill="#F0BF33"/>
<path fill-rule="evenodd" clip-rule="evenodd" d="M74.1787 67.6015C73.8184 67.3508 73.3526 67.1337 72.7935 66.9561C72.352 66.817 72.0029 66.6973 71.7553 66.6029C71.5412 66.5207 71.3707 66.4182 71.252 66.2995C71.1596 66.2082 71.117 66.0945 71.117 65.9413C71.117 65.7779 71.1799 65.649 71.3149 65.5374C71.4641 65.4115 71.6538 65.3496 71.8923 65.3496C72.1257 65.3496 72.3043 65.3963 72.4261 65.4866C72.5682 65.5922 72.696 65.7383 72.8056 65.923C72.9771 66.2051 73.1294 66.4142 73.2694 66.5633C73.449 66.7531 73.6804 66.8546 73.9392 66.8546C74.273 66.8546 74.5481 66.7308 74.7378 66.4953C74.9154 66.2762 75.0037 65.9991 75.0037 65.6723C75.0037 65.3902 74.9306 65.102 74.7865 64.8138C74.6445 64.5327 74.4374 64.275 74.1705 64.0477C73.9047 63.8214 73.5738 63.6407 73.1852 63.5088C72.8016 63.3779 72.3662 63.3129 71.8923 63.3129C71.2743 63.3129 70.7344 63.4469 70.29 63.7107C69.8424 63.9766 69.4974 64.3379 69.266 64.7864C69.0397 65.2258 68.924 65.7008 68.924 66.195C68.924 66.7551 69.0529 67.2382 69.3066 67.6299C69.5542 68.0135 69.8891 68.3271 70.3021 68.5605C70.6888 68.7797 71.1921 68.9897 71.801 69.1866C72.2871 69.3388 72.6341 69.4941 72.831 69.6514C72.9822 69.7701 73.0573 69.9721 73.0573 70.2663C73.0573 70.4348 72.9832 70.5799 72.828 70.72C72.6646 70.8681 72.4555 70.9402 72.1866 70.9402C71.8365 70.9402 71.5645 70.8641 71.3758 70.7129C71.1708 70.5485 70.9881 70.2866 70.8349 69.9416C70.7334 69.7041 70.6279 69.5215 70.5112 69.3814C70.4026 69.2536 70.2037 69.1014 69.8637 69.1014C69.5644 69.1014 69.3046 69.2323 69.1138 69.4819C68.9382 69.7102 68.8489 69.9852 68.8489 70.2988C68.8489 70.723 68.9677 71.1472 69.2041 71.5592C69.4406 71.9763 69.8069 72.3244 70.294 72.5953C70.776 72.8652 71.3596 73.0022 72.0242 73.0022C72.7133 73.0022 73.312 72.8774 73.8022 72.6308C74.3086 72.3761 74.6962 71.9966 74.957 71.5014C75.2087 71.0193 75.3376 70.4399 75.3376 69.7762C75.3376 69.3165 75.2361 68.9004 75.0392 68.5371C74.8423 68.1769 74.5531 67.8633 74.1787 67.6015Z" fill="#F0BF33"/>
<path fill-rule="evenodd" clip-rule="evenodd" d="M80.6996 70.071C80.4459 70.4688 80.1658 70.6616 79.8421 70.6616C79.4412 70.6616 79.1226 70.4729 78.8689 70.0852C78.5919 69.662 78.4508 69.0298 78.4508 68.2058C78.4508 67.6385 78.5208 67.1433 78.6548 66.7394C78.7836 66.3538 78.9582 66.0585 79.1733 65.8636C79.3722 65.683 79.5904 65.5957 79.8421 65.5957C80.0806 65.5957 80.2845 65.681 80.4652 65.8565C80.6651 66.0504 80.8244 66.3376 80.9371 66.71C81.0588 67.1047 81.1187 67.5858 81.1187 68.1409C81.1187 68.9872 80.9776 69.6357 80.6996 70.071ZM81.9843 63.9254C81.5012 63.5296 80.9319 63.3287 80.2946 63.3287C79.7395 63.3287 79.2636 63.4647 78.878 63.7305C78.7065 63.8493 78.537 63.9914 78.3696 64.1578V61.5761C78.3696 61.1022 78.2833 60.7389 78.1067 60.4649C77.9088 60.1564 77.6095 59.993 77.2421 59.993C76.8829 59.993 76.5906 60.1645 76.3948 60.4883C76.2233 60.7714 76.139 61.1601 76.139 61.6746V71.4187C76.139 71.9058 76.2273 72.2731 76.408 72.5441C76.6099 72.8434 76.8981 73.0028 77.2421 73.0028C77.578 73.0028 77.8672 72.8465 78.0793 72.5512C78.1798 72.4132 78.2539 72.2478 78.3016 72.0529C78.4254 72.2021 78.5735 72.3472 78.745 72.4883C78.9358 72.6435 79.1652 72.7684 79.43 72.8617C79.6939 72.9551 79.978 73.0028 80.2754 73.0028C80.7625 73.0028 81.2151 72.8719 81.621 72.6161C82.0178 72.3655 82.3577 72.0083 82.6327 71.5547C82.8996 71.1152 83.1046 70.5916 83.2447 69.998C83.3806 69.4124 83.4497 68.7629 83.4497 68.0668C83.4497 67.121 83.3248 66.2868 83.0772 65.5897C82.8235 64.8712 82.4541 64.311 81.9843 63.9254Z" fill="#59AD23"/>
<path fill-rule="evenodd" clip-rule="evenodd" d="M86.6992 65.9127C86.9174 65.6072 87.1731 65.4651 87.5029 65.4651C87.8561 65.4651 88.121 65.6042 88.3402 65.9066C88.538 66.1816 88.6689 66.5926 88.7288 67.1304H86.2913C86.3623 66.6017 86.4993 66.1927 86.6992 65.9127ZM90.5179 68.7116C90.8578 68.4822 91.0233 68.0418 91.0233 67.3649C91.0233 66.7215 90.8954 66.0822 90.6427 65.4652C90.3839 64.834 89.9882 64.3104 89.4686 63.9105C88.9358 63.5026 88.2945 63.2966 87.5597 63.2966C86.9996 63.2966 86.48 63.4163 86.0152 63.6518C85.5504 63.8892 85.1547 64.2333 84.8381 64.6747C84.5275 65.107 84.2901 65.6296 84.1318 66.2263C83.9734 66.8139 83.8943 67.4573 83.8943 68.1402C83.8943 69.6036 84.2241 70.7858 84.8726 71.6525C85.5413 72.5485 86.4881 73.0021 87.6856 73.0021C88.2062 73.0021 88.677 72.9108 89.086 72.7312C89.4889 72.5526 89.8319 72.3232 90.1028 72.0492C90.3718 71.7752 90.5767 71.484 90.7137 71.1816C90.8548 70.869 90.9228 70.596 90.9228 70.3484C90.9228 70.044 90.8426 69.7974 90.6843 69.6137C90.5169 69.4229 90.2896 69.3215 90.0267 69.3215C89.7131 69.3215 89.5254 69.4564 89.4148 69.5802C89.2047 69.839 89.0332 70.043 88.9013 70.1942C88.7785 70.3332 88.6415 70.4662 88.4944 70.59C88.3635 70.7006 88.2275 70.7828 88.0915 70.8325C87.9565 70.8812 87.8033 70.9076 87.6348 70.9076C87.3964 70.9076 87.1833 70.8325 86.9823 70.6762C86.7743 70.5149 86.6018 70.2652 86.4709 69.9314C86.3643 69.6624 86.2973 69.3539 86.2699 69.013H89.3052C89.8116 69.013 90.2205 68.9115 90.5179 68.7116Z" fill="#59AD23"/>
<path fill-rule="evenodd" clip-rule="evenodd" d="M96.8283 67.6015C96.468 67.3508 96.0033 67.1337 95.4441 66.9561C95.0027 66.817 94.6536 66.6973 94.406 66.6029C94.1908 66.5207 94.0214 66.4182 93.9026 66.2995C93.8103 66.2082 93.7666 66.0945 93.7666 65.9413C93.7666 65.7779 93.8306 65.649 93.9645 65.5374C94.1147 65.4115 94.3045 65.3496 94.542 65.3496C94.7764 65.3496 94.955 65.3963 95.0768 65.4866C95.2188 65.5922 95.3467 65.7383 95.4563 65.923C95.6278 66.2051 95.78 66.4142 95.919 66.5633C96.0987 66.7531 96.331 66.8546 96.5898 66.8546C96.9227 66.8546 97.1987 66.7308 97.3885 66.4954C97.565 66.2762 97.6543 65.9991 97.6543 65.6724C97.6543 65.3902 97.5813 65.102 97.4362 64.8138C97.2941 64.5327 97.0871 64.275 96.8202 64.0477C96.5553 63.8214 96.2245 63.6407 95.8348 63.5088C95.4522 63.3779 95.0169 63.3129 94.542 63.3129C93.925 63.3129 93.3851 63.4469 92.9406 63.7107C92.4921 63.9766 92.148 64.3379 91.9167 64.7864C91.6904 65.2258 91.5747 65.7008 91.5747 66.195C91.5747 66.7551 91.7036 67.2382 91.9562 67.6299C92.2049 68.0135 92.5387 68.3271 92.9518 68.5605C93.3384 68.7797 93.8428 68.9897 94.4516 69.1866C94.9377 69.3388 95.2838 69.4941 95.4817 69.6514C95.6329 69.7701 95.7069 69.9721 95.7069 70.2663C95.7069 70.4348 95.6339 70.5799 95.4786 70.72C95.3152 70.8681 95.1052 70.9402 94.8373 70.9402C94.4872 70.9402 94.2142 70.8641 94.0254 70.7129C93.8214 70.5485 93.6378 70.2866 93.4855 69.9416C93.3841 69.7041 93.2785 69.5215 93.1618 69.3814C93.0532 69.2536 92.8543 69.1014 92.5144 69.1014C92.214 69.1014 91.9552 69.2323 91.7645 69.4819C91.5879 69.7102 91.4996 69.9852 91.4996 70.2988C91.4996 70.723 91.6183 71.1472 91.8538 71.5592C92.0902 71.9763 92.4565 72.3244 92.9436 72.5953C93.4267 72.8653 94.0102 73.0022 94.6739 73.0022C95.3639 73.0022 95.9617 72.8774 96.4528 72.6308C96.9582 72.3761 97.3469 71.9966 97.6067 71.5014C97.8593 71.0193 97.9872 70.4399 97.9872 69.7762C97.9872 69.3165 97.8867 68.9004 97.6899 68.5371C97.493 68.1769 97.2038 67.8633 96.8283 67.6015Z" fill="#59AD23"/>
<path fill-rule="evenodd" clip-rule="evenodd" d="M102.517 70.523C102.394 70.523 102.237 70.5483 102.037 70.6031C101.856 70.6518 101.758 70.662 101.707 70.662C101.629 70.662 101.579 70.6468 101.559 70.6173C101.507 70.5443 101.476 70.4397 101.461 70.3048C101.443 70.1272 101.435 69.8674 101.435 69.5305V65.7341H101.449C101.853 65.7341 102.163 65.659 102.398 65.5048C102.586 65.381 102.81 65.1273 102.81 64.6178C102.81 64.3093 102.721 64.0485 102.544 63.8405C102.415 63.6893 102.174 63.5087 101.758 63.5087H101.435V62.296C101.435 61.9012 101.418 61.6008 101.384 61.3786C101.345 61.1188 101.246 60.8935 101.094 60.7088C100.858 60.4237 100.58 60.2796 100.269 60.2796C100.047 60.2796 99.8437 60.3486 99.6641 60.4846C99.4967 60.6114 99.3678 60.7778 99.2815 60.9737C99.1993 61.1543 99.1506 61.3674 99.1324 61.6079C99.1171 61.819 99.11 62.1113 99.11 62.4756V63.5127C98.8168 63.535 98.5813 63.6426 98.4078 63.8334C98.2201 64.0414 98.1237 64.3053 98.1237 64.6178C98.1237 64.9263 98.215 65.1892 98.3926 65.3982C98.5144 65.5413 98.7356 65.7108 99.11 65.7321V69.7101C99.11 70.4205 99.1547 70.9999 99.245 71.4322C99.3445 71.9142 99.5616 72.2999 99.8904 72.5779C100.222 72.86 100.698 73.0021 101.305 73.0021C101.934 73.0021 102.412 72.8935 102.767 72.6682C103.157 72.4227 103.362 72.0472 103.362 71.5834C103.362 71.3023 103.285 71.0578 103.132 70.8589C102.919 70.5818 102.68 70.523 102.517 70.523Z" fill="#59AD23"/>
<path fill-rule="evenodd" clip-rule="evenodd" d="M109.537 61.7887C109.259 61.2387 108.859 60.7973 108.349 60.4776C107.837 60.1569 107.241 59.9935 106.58 59.9935C105.865 59.9935 105.23 60.1884 104.69 60.573C104.159 60.9515 103.751 61.4345 103.473 62.0099C103.199 62.5813 103.059 63.1556 103.059 63.7178C103.059 64.0365 103.162 64.3338 103.363 64.6027C103.581 64.894 103.87 65.0472 104.2 65.0472C104.583 65.0472 105.085 64.8463 105.306 63.8934C105.446 63.3444 105.616 62.9304 105.81 62.6604C105.968 62.4402 106.22 62.3337 106.58 62.3337C106.881 62.3337 107.12 62.4443 107.31 62.6726C107.513 62.9182 107.613 63.2145 107.613 63.5798C107.613 63.7625 107.58 63.9249 107.515 64.0791C107.443 64.2445 107.356 64.3978 107.253 64.5317C107.138 64.6809 106.946 64.9082 106.684 65.2076C106.374 65.5607 106.122 65.8743 105.936 66.1351C105.74 66.4121 105.579 66.7369 105.46 67.1012C105.343 67.4645 105.283 67.8968 105.283 68.3859C105.283 68.8223 105.38 69.1653 105.574 69.4048C105.78 69.6615 106.051 69.7975 106.36 69.7975C106.693 69.7975 107.274 69.6534 107.408 68.6924C107.453 68.4316 107.486 68.2499 107.509 68.1454C107.529 68.0551 107.557 67.9648 107.593 67.8745C107.625 67.7892 107.68 67.6908 107.753 67.5812C107.832 67.4635 107.941 67.3234 108.074 67.1651C108.586 66.5674 108.949 66.1341 109.152 65.8753C109.367 65.6003 109.555 65.2725 109.709 64.8991C109.869 64.5155 109.949 64.0649 109.949 63.5636C109.949 62.9283 109.811 62.3316 109.537 61.7887Z" fill="#6BB2DC"/>
<path fill-rule="evenodd" clip-rule="evenodd" d="M106.429 69.9264C106.07 69.9264 105.752 70.0877 105.513 70.3942C105.284 70.6834 105.17 71.0396 105.17 71.4516C105.17 71.9143 105.292 72.2878 105.533 72.5608C105.783 72.8419 106.084 72.986 106.429 72.986C106.767 72.986 107.064 72.8398 107.312 72.5527C107.549 72.2776 107.67 71.9083 107.67 71.4516C107.67 71.0406 107.558 70.6854 107.336 70.3972C107.1 70.0887 106.786 69.9264 106.429 69.9264Z" fill="#6BB2DC"/>
</svg>
