<svg width="128" height="128" viewBox="0 0 128 128" fill="none" xmlns="http://www.w3.org/2000/svg">
<rect width="128" height="128" fill="white"/>
<rect x="26" y="26" width="76" height="76" rx="18" fill="#4BBB93"/>
<rect x="30.5" y="31.5" width="66" height="65" rx="11.5" stroke="white"/>
<path fill-rule="evenodd" clip-rule="evenodd" d="M51.703 48.8063H45.2349V53.3717H52.4668V55.7013H42.1031V40.1594H52.0854V42.4881H45.2349V46.5004H51.703V48.8063Z" fill="white"/>
<path fill-rule="evenodd" clip-rule="evenodd" d="M64.4088 55.7011L62.5494 52.6107C61.8114 51.4117 61.3277 50.5818 60.8429 49.6826H60.7675C60.3603 50.5818 59.9014 51.4117 59.214 52.6107L57.5086 55.7011H53.918L59.0104 47.8376L54.1216 40.1592H57.7112L59.5706 43.3643C60.1308 44.3328 60.538 45.0935 60.9969 45.97H61.0476C61.5055 45.0015 61.8621 44.31 62.3974 43.3643L64.23 40.1592H67.8206L62.8047 47.7456L68.0242 55.7011H64.4088Z" fill="white"/>
<path fill-rule="evenodd" clip-rule="evenodd" d="M70.342 55.7006H73.4738V40.1587H70.342V55.7006Z" fill="white"/>
<path fill-rule="evenodd" clip-rule="evenodd" d="M80.3485 42.5341H75.4597V40.1589H88.4208V42.5341H83.4803V55.7009H80.3485V42.5341Z" fill="white"/>
<path fill-rule="evenodd" clip-rule="evenodd" d="M65.0093 70.2892L46.0122 81.2317C46.0122 81.2317 44.3905 82.195 45.0489 83.3599C45.7083 84.5237 47.7848 87.8177 47.7848 87.8177C47.7848 87.8177 48.4938 88.7293 49.8116 87.8177C51.1284 86.905 67.7948 74.3925 67.7948 74.3925L70.4294 83.1056C70.4294 83.1056 71.7969 85.4363 73.1147 83.5625L81.6758 63.7539C81.6758 63.7539 82.3342 61.9307 80.206 61.5762H59.0311C59.0311 61.5762 56.6508 62.4371 58.0182 64.2604L65.0093 70.2892Z" fill="white"/>
</svg>
