<svg width="128" height="128" viewBox="0 0 128 128" fill="none" xmlns="http://www.w3.org/2000/svg">
<rect width="128" height="128" fill="#2A333A"/>
<path d="M63.7722 17.7759C59.7142 17.8152 55.7059 18.6739 51.9879 20.3005C48.27 21.9271 44.9189 24.2881 42.1359 27.2417C36.7468 33.4921 33.5112 41.3102 32.9073 49.541C32.3034 57.7717 34.3632 65.9784 38.7823 72.9484L63.4477 110.271L63.7722 17.7759Z" fill="#5AA4DB"/>
<path d="M63.7739 27.6206C58.0357 27.6206 52.5324 29.9001 48.4748 33.9577C44.4172 38.0153 42.1377 43.5186 42.1377 49.2569C42.1377 54.9952 44.4172 60.4984 48.4748 64.556C52.5324 68.6136 58.0357 70.8931 63.7739 70.8931V27.6206Z" fill="white"/>
<path d="M63.7742 38.979C61.1703 39.1678 58.7345 40.3354 56.9564 42.247C55.1783 44.1586 54.1899 46.6726 54.1899 49.2833C54.1899 51.894 55.1783 54.4079 56.9564 56.3195C58.7345 58.2312 61.1703 59.3988 63.7742 59.5876V38.979Z" fill="#858585"/>
<path d="M63.7744 17.7759C67.8693 17.771 71.9225 18.5979 75.6881 20.2065C79.4538 21.815 82.8536 24.1717 85.6811 27.1336C90.9958 33.4382 94.1434 41.284 94.6596 49.5137C95.1757 57.7433 93.0332 65.9209 88.5479 72.8402L63.8285 110.163V17.7759H63.7744Z" fill="#4C8FB0"/>
<path d="M63.7744 27.6206C69.5127 27.6206 75.016 29.9001 79.0736 33.9577C83.1311 38.0153 85.4107 43.5186 85.4107 49.2569C85.4107 54.9952 83.1311 60.4984 79.0736 64.556C75.016 68.6136 69.5127 70.8931 63.7744 70.8931V27.6206Z" fill="#FEF8FF"/>
<path d="M63.7744 38.979C66.3783 39.1678 68.8142 40.3354 70.5922 42.247C72.3703 44.1586 73.3587 46.6726 73.3587 49.2833C73.3587 51.894 72.3703 54.4079 70.5922 56.3195C68.8142 58.2312 66.3783 59.3988 63.7744 59.5876V38.979Z" fill="#636363"/>
</svg>
