<svg width="128" height="129" viewBox="0 0 128 129" fill="none" xmlns="http://www.w3.org/2000/svg">
<rect width="128" height="128" transform="translate(0 0.416748)" fill="#5F01D1"/>
<path d="M13.5298 57.2347H19.5351L23.0319 66.1809L26.5741 57.2347H32.4212L23.6167 78.4133H17.7325L20.1426 72.8013L13.5298 57.2347Z" fill="white"/>
<path d="M38.5123 56.8786C34.0003 56.8786 31.1479 60.9252 31.1479 64.955C31.1479 69.4896 34.2752 73.0848 38.4267 73.0848C41.5236 73.0848 42.6913 71.198 42.6913 71.198V72.6678H47.9291V57.2348H42.6913V58.6378C42.6913 58.6378 41.3886 56.8786 38.5123 56.8786ZM39.6264 61.8381C41.7083 61.8381 42.7827 63.4855 42.7827 64.9719C42.7827 66.5725 41.6317 68.1433 39.6264 68.1433C37.9645 68.1433 36.4627 66.7851 36.4627 65.04C36.4627 63.2703 37.6707 61.8381 39.6264 61.8381Z" fill="white"/>
<path d="M49.7329 72.6677V50.4202H55.2113V58.6913C55.2113 58.6913 56.5126 56.8805 59.2378 56.8805C62.5714 56.8805 64.5246 59.3643 64.5246 62.9135V72.6677H59.0863V64.2497C59.0863 63.0486 58.5141 61.8882 57.2181 61.8882C55.8989 61.8882 55.2113 63.0662 55.2113 64.2497V72.6677H49.7329Z" fill="white"/>
<path d="M73.865 56.8804C68.6979 56.8804 65.6211 60.8095 65.6211 65.0192C65.6211 69.8098 69.3464 73.0848 73.8846 73.0848C78.2832 73.0848 82.1321 69.9584 82.1321 65.0995C82.1321 59.783 78.1022 56.8804 73.865 56.8804ZM73.9143 61.8836C75.7396 61.8836 77.0024 63.4038 77.0024 65.0249C77.0024 66.4076 75.8257 68.113 73.9143 68.113C72.163 68.113 70.8487 66.7082 70.8487 65.0098C70.8487 63.3737 71.9414 61.8836 73.9143 61.8836Z" fill="white"/>
<path d="M91.2588 56.8804C86.0917 56.8804 83.0149 60.8095 83.0149 65.0192C83.0149 69.8098 86.7402 73.0848 91.2784 73.0848C95.677 73.0848 99.526 69.9584 99.526 65.0995C99.526 59.783 95.496 56.8804 91.2588 56.8804ZM91.3082 61.8836C93.1334 61.8836 94.3963 63.4038 94.3963 65.0249C94.3963 66.4076 93.2195 68.113 91.3082 68.113C89.5568 68.113 88.2425 66.7082 88.2425 65.0098C88.2425 63.3737 89.3353 61.8836 91.3082 61.8836Z" fill="white"/>
<path d="M103.849 72.9954C105.858 72.9954 107.487 71.3666 107.487 69.3575C107.487 67.3484 105.858 65.7197 103.849 65.7197C101.84 65.7197 100.211 67.3484 100.211 69.3575C100.211 71.3666 101.84 72.9954 103.849 72.9954Z" fill="white"/>
<path d="M108.682 64.3833H102.133L107.945 50.4202H114.47L108.682 64.3833Z" fill="white"/>
</svg>
