<svg width="128" height="128" viewBox="0 0 128 128" fill="none" xmlns="http://www.w3.org/2000/svg">
<rect width="128" height="128" fill="#5F01D1"/>
<path d="M13.5299 56.818H19.5352L23.032 65.7642L26.5742 56.818H32.4213L23.6168 77.9966H17.7326L20.1427 72.3846L13.5299 56.818Z" fill="white"/>
<path d="M38.5125 56.4618C34.0004 56.4618 31.148 60.5084 31.148 64.5382C31.148 69.0729 34.2753 72.6681 38.4269 72.6681C41.5238 72.6681 42.6914 70.7813 42.6914 70.7813V72.2511H47.9292V56.8181H42.6914V58.2211C42.6914 58.2211 41.3887 56.4618 38.5125 56.4618ZM39.6266 61.4214C41.7085 61.4214 42.7828 63.0687 42.7828 64.5552C42.7828 66.1558 41.6318 67.7265 39.6266 67.7265C37.9646 67.7265 36.4628 66.3684 36.4628 64.6233C36.4628 62.8535 37.6708 61.4214 39.6266 61.4214Z" fill="white"/>
<path d="M49.7331 72.251V50.0034H55.2114V58.2745C55.2114 58.2745 56.5127 56.4638 59.238 56.4638C62.5716 56.4638 64.5247 58.9475 64.5247 62.4968V72.251H59.0864V63.833C59.0864 62.6318 58.5142 61.4715 57.2182 61.4715C55.899 61.4715 55.2114 62.6494 55.2114 63.833V72.251H49.7331Z" fill="white"/>
<path d="M73.8651 56.4637C68.698 56.4637 65.6212 60.3928 65.6212 64.6024C65.6212 69.3931 69.3465 72.6681 73.8847 72.6681C78.2833 72.6681 82.1323 69.5417 82.1323 64.6828C82.1323 59.3663 78.1023 56.4637 73.8651 56.4637ZM73.9145 61.4668C75.7397 61.4668 77.0026 62.987 77.0026 64.6082C77.0026 65.9909 75.8258 67.6963 73.9145 67.6963C72.1631 67.6963 70.8488 66.2914 70.8488 64.593C70.8488 62.9569 71.9415 61.4668 73.9145 61.4668Z" fill="white"/>
<path d="M91.259 56.4637C86.0918 56.4637 83.015 60.3928 83.015 64.6024C83.015 69.3931 86.7403 72.6681 91.2785 72.6681C95.6772 72.6681 99.5261 69.5417 99.5261 64.6828C99.5261 59.3663 95.4962 56.4637 91.259 56.4637ZM91.3083 61.4668C93.1335 61.4668 94.3964 62.987 94.3964 64.6082C94.3964 65.9909 93.2196 67.6963 91.3083 67.6963C89.557 67.6963 88.2426 66.2914 88.2426 64.593C88.2426 62.9569 89.3354 61.4668 91.3083 61.4668Z" fill="white"/>
<path d="M103.849 72.5786C105.858 72.5786 107.487 70.9499 107.487 68.9408C107.487 66.9316 105.858 65.3029 103.849 65.3029C101.84 65.3029 100.211 66.9316 100.211 68.9408C100.211 70.9499 101.84 72.5786 103.849 72.5786Z" fill="white"/>
<path d="M108.682 63.9666H102.133L107.945 50.0034H114.47L108.682 63.9666Z" fill="white"/>
</svg>
