<svg width="128" height="128" viewBox="0 0 128 128" fill="none" xmlns="http://www.w3.org/2000/svg">
<rect width="128" height="128" fill="white"/>
<path fill-rule="evenodd" clip-rule="evenodd" d="M24 53.8331L26.8339 53.5879C26.8339 53.5879 28.9481 58.4394 29.6677 59.8509C30.9381 62.3439 32.8517 64.7839 32.8517 64.7839C32.8517 64.7839 35.1364 62.029 36.3497 59.641C37.8636 56.6619 39.0089 53.6584 39.0089 53.6584H41.8428C41.8428 53.6584 39.532 59.2556 38.6244 60.9005C37.6688 62.631 34.3908 67.1627 34.3908 67.1627L34.2858 76.6089L31.5569 76.5736L31.7316 67.1274C31.7316 67.1274 28.3721 62.9568 27.4636 61.4253C26.3989 59.6309 24 53.8331 24 53.8331Z" fill="#2B6DB5"/>
<path fill-rule="evenodd" clip-rule="evenodd" d="M51.3586 71.8508C51.016 72.6636 50.4215 73.8954 49.3384 74.4655C48.5247 74.8946 46.5742 74.9383 45.7438 74.6494C45.1275 74.4353 44.5212 73.7846 44.2735 73.18C43.9242 72.3253 43.9075 70.2412 44.6237 69.682C45.1837 69.2445 46.2652 69.0942 47.4231 68.9641C49.5382 68.7265 51.901 68.7718 51.901 68.7718C51.901 68.7718 51.6399 71.1833 51.3586 71.8508ZM54.0875 71.3168L54.6652 64.3115C54.6652 64.3115 54.8432 61.3408 53.1169 59.8773C51.0437 58.119 48.9941 58.2332 47.738 58.4339C46.4609 58.6371 43.1719 59.4835 43.1719 59.4835L43.4079 61.9496C43.4079 61.9496 47.1939 60.7027 48.4987 60.769C49.3577 60.8127 51.0765 61.6473 51.5425 62.3694C52.4435 63.7666 51.8305 66.6727 51.8305 66.6727C51.8305 66.6727 45.481 66.7776 43.5389 68.0111C41.6631 69.2034 41.4926 71.6586 41.4926 71.6586C41.4926 71.6586 41.2567 73.9408 42.5942 75.3581C44.0762 76.9266 45.3114 77.1164 46.3467 77.1164C47.5801 77.1164 48.8917 77.0114 50.0991 76.1978C50.7188 75.7805 52.1983 74.0726 52.1983 74.0726L52.8801 76.9065L55.478 76.5647L54.0875 71.3168Z" fill="#2B6DB5"/>
<path fill-rule="evenodd" clip-rule="evenodd" d="M59.0208 76.8196H61.6094V51H59.0208V76.8196Z" fill="#2B6DB5"/>
<path fill-rule="evenodd" clip-rule="evenodd" d="M99.8806 71.9395C99.538 72.7523 98.9435 73.9841 97.8604 74.5542C97.0467 74.9833 95.0962 75.0269 94.2658 74.7381C93.6486 74.524 93.0432 73.8733 92.7955 73.2687C92.4454 72.4139 92.4294 70.3299 93.1457 69.7707C93.7057 69.3332 94.7864 69.1837 95.9451 69.0528C98.0594 68.816 100.423 68.8605 100.423 68.8605C100.423 68.8605 100.162 71.272 99.8806 71.9395ZM102.609 71.4055L103.187 64.4002C103.187 64.4002 103.364 61.4294 101.639 59.9659C99.5657 58.2077 97.5161 58.3219 96.26 58.5225C94.982 58.7257 91.6939 59.5721 91.6939 59.5721L91.9298 62.0382C91.9298 62.0382 95.715 60.7913 97.0207 60.8576C97.8788 60.9013 99.5976 61.7359 100.064 62.458C100.965 63.8552 100.352 66.7613 100.352 66.7613C100.352 66.7613 94.003 66.8663 92.0608 68.0997C90.1842 69.292 90.0146 71.7472 90.0146 71.7472C90.0146 71.7472 89.7786 74.0294 91.1162 75.4467C92.5974 77.0152 93.8325 77.205 94.8687 77.205C96.1021 77.205 97.4137 77.1 98.6211 76.2864C99.2399 75.8691 100.72 74.1612 100.72 74.1612L101.402 76.9951L104 76.6533L102.609 71.4055Z" fill="#F0B204"/>
<path fill-rule="evenodd" clip-rule="evenodd" d="M64.4087 58.8709L67.5927 58.766C67.5927 58.766 68.5272 64.0331 68.9571 65.7628C69.3929 67.5194 71.0563 72.69 71.0563 72.69C71.0563 72.69 72.9581 67.9569 73.4703 66.3229C74.0404 64.4992 75.289 58.9062 75.289 58.9062H78.0179C78.0179 58.9062 79.3824 64.8653 79.9777 66.8124C80.4395 68.3263 82.1465 72.7606 82.1465 72.7606C82.1465 72.7606 83.8964 67.7243 84.3506 66.008C84.8318 64.1876 85.8553 58.6257 85.8553 58.6257L88.8705 58.9062C88.8705 58.9062 87.9603 64.6066 87.4641 66.4631C86.7697 69.0602 83.8955 76.6087 83.8955 76.6087L81.0273 76.7834C81.0273 76.7834 79.0196 71.7597 78.3311 69.7512C77.9356 68.6001 76.5838 64.1885 76.5838 64.1885L74.8692 69.9964L72.2452 76.644L69.377 76.7137C69.377 76.7137 66.7001 69.6975 66.0183 67.1626C65.4935 65.2162 64.4087 58.8709 64.4087 58.8709Z" fill="#F0B204"/>
</svg>
