<svg width="128" height="128" viewBox="0 0 128 128" fill="none" xmlns="http://www.w3.org/2000/svg">
<rect width="128" height="128" fill="white"/>
<path d="M74.4114 72.0514C73.5663 73.0766 72.632 73.761 71.4011 73.9173C68.9157 74.23 66.8817 73.2073 65.9316 70.8955C64.6614 67.8198 64.6745 64.6878 66.2991 61.7018C66.8219 60.7406 67.6618 59.9799 68.6826 59.5431C69.7034 59.1063 70.8453 59.0189 71.9234 59.2951C72.8835 59.5571 73.7262 60.1255 74.3169 60.9098V55.7632C74.3169 54.0254 74.3169 54.0254 76.1278 54.0254C76.4568 54.0385 76.7863 54.0333 77.1146 54.0101C77.7655 53.9409 77.9256 54.2305 77.923 54.8225C77.9072 60.8304 77.9072 66.8373 77.923 72.8434C77.923 73.479 77.7393 73.7353 77.0674 73.679C76.5017 73.629 75.9325 73.629 75.3667 73.679C74.7368 73.7379 74.4875 73.4713 74.4718 72.91C74.4639 72.6742 74.4403 72.4436 74.4114 72.0514ZM74.309 66.3691C74.2933 65.4131 74.2382 64.2905 73.7264 63.2422C73.5516 62.8452 73.257 62.5098 72.8818 62.2808C72.5066 62.0518 72.0687 61.9401 71.6268 61.9607C70.661 61.9607 69.8553 62.3195 69.3881 63.2422C68.9656 64.0649 68.8632 64.9466 68.7792 65.8334C68.6611 67.1995 68.6952 68.558 69.27 69.8446C69.4338 70.2537 69.7239 70.6029 70.1002 70.8435C70.4765 71.0842 70.9201 71.2045 71.3696 71.1877C72.401 71.203 73.1858 70.8263 73.6634 69.9061C74.2277 68.8399 74.3012 67.6968 74.309 66.3691Z" fill="black"/>
<path d="M87.7911 67.8838C86.6337 67.8838 85.4763 67.8992 84.3189 67.8838C83.773 67.8838 83.6313 68.0991 83.7153 68.5887C83.9935 70.2675 85.0039 71.1184 86.7439 71.1851C88.281 71.2413 89.8045 70.8868 91.1505 70.1598C91.6754 69.883 91.7672 69.9394 91.7804 70.5469C91.7804 70.9954 91.741 71.4491 91.7935 71.8899C91.8775 72.5614 91.5442 72.9151 90.9615 73.1561C88.7297 74.1427 86.1985 74.269 83.8754 73.5098C83.1707 73.2942 82.5244 72.9272 81.9839 72.4358C81.4435 71.9444 81.0226 71.341 80.7522 70.6699C80.1904 69.3813 79.9009 67.9952 79.9009 66.5946C79.9009 65.1941 80.1904 63.808 80.7522 62.5194C81.8388 59.9051 84.2717 58.8952 86.9802 59.2028C89.9327 59.5385 91.5704 61.3788 91.8014 64.498C91.8696 65.4105 91.8696 66.3281 91.9168 67.2431C91.9405 67.707 91.7462 67.8941 91.266 67.8864C90.1086 67.871 88.9485 67.8864 87.7911 67.8864V67.8838ZM85.8779 65.1824H87.2505C88.2478 65.1824 88.3186 65.0978 88.19 64.111C88.0352 62.9269 87.5208 62.2195 86.6757 62.0247C85.0013 61.6377 83.4266 63.1063 83.6838 64.8056C83.731 65.1209 83.9226 65.1773 84.1824 65.1798L85.8779 65.1824Z" fill="black"/>
<path d="M48.6545 68.4043C48.6939 69.9985 48.5889 71.5978 48.7621 73.192C48.7962 73.5073 48.6729 73.6765 48.3291 73.6765C47.4551 73.6765 46.5812 73.6765 45.7046 73.6765C45.2427 73.6765 45.2033 73.3305 45.1246 73.0306C45.038 72.682 44.8936 72.6564 44.6522 72.9024C43.3399 74.2301 40.0645 74.1993 38.4347 72.9614C36.7157 71.6568 35.9992 67.579 39.0305 65.9489C40.4818 65.1799 42.0696 64.9621 43.6995 64.8801C44.1482 64.857 44.8437 65.2491 45.0406 64.5366C45.3266 63.4858 44.8096 62.4862 43.9383 62.2042C43.2939 62.0079 42.6103 61.9674 41.9463 62.0863C40.7403 62.3069 39.6047 62.8021 38.6316 63.5319C38.4793 63.637 38.3297 63.8497 38.1276 63.76C37.9256 63.6703 38.0095 63.4191 38.0095 63.2371C38.0306 62.769 38.0253 62.3001 37.9938 61.8326C37.8967 61.1098 38.2116 60.7048 38.8415 60.3639C40.8967 59.225 43.3251 58.9116 45.6127 59.4899C47.3921 59.9103 48.4629 61.3328 48.5863 63.1013C48.7096 64.8698 48.6125 66.6383 48.6545 68.4043ZM45.0721 68.8425C45.0721 68.4581 45.0721 68.0736 45.0721 67.6917C45.0721 67.4021 44.9382 67.2509 44.639 67.2534C43.6811 67.2534 42.7153 67.2047 41.8019 67.5918C41.4104 67.736 41.0801 68.005 40.8644 68.3552C40.6487 68.7054 40.5601 69.1164 40.613 69.5217C40.7364 70.7469 41.5395 71.3569 42.9462 71.2928C44.353 71.2287 45.0773 70.5521 45.0773 69.3526L45.0721 68.8425Z" fill="black"/>
<path d="M62.9423 67.879C62.9423 69.8193 62.9423 71.3955 62.9423 72.9718C62.9423 73.4844 62.7927 73.7151 62.2311 73.6869C61.491 73.651 60.7456 73.6536 60.0055 73.6869C59.4806 73.7126 59.3389 73.487 59.3415 73.0077C59.3415 70.0269 59.3415 67.0435 59.3415 64.0626C59.3415 62.4701 58.5419 61.8721 56.9427 62.2685C56.6667 62.3234 56.398 62.4095 56.1423 62.5248C55.3077 62.9528 54.7749 63.4834 54.809 64.5599C54.8956 67.2408 54.8379 69.9269 54.8379 72.6104C54.8379 73.6715 54.8379 73.6715 53.7198 73.6715C53.1529 73.6715 52.5834 73.6382 52.0192 73.6715C51.4129 73.7177 51.2318 73.487 51.2318 72.9026C51.2502 69.7065 51.2318 66.5104 51.2318 63.3168C51.2318 62.2301 51.2502 61.1433 51.2318 60.0566C51.2318 59.5619 51.4077 59.3671 51.9194 59.3851C52.6595 59.4107 53.4023 59.4056 54.145 59.3851C54.5807 59.3851 54.8038 59.5517 54.8116 59.9746C54.8195 60.3975 54.8956 60.541 55.3549 60.2309C57.0923 59.0442 59.0108 58.8801 60.9661 59.5696C62.2967 60.0386 62.714 61.192 62.8426 62.4735C63.0368 64.4112 62.8898 66.3284 62.9423 67.879Z" fill="black"/>
<path d="M104.079 73.6792C102.504 74.1303 101.717 73.287 101.066 72.049C100.593 71.1417 99.9505 70.3215 99.4046 69.4475C99.1762 69.0836 99.045 69.1143 98.8377 69.4604C98.0976 70.6932 97.3233 71.903 96.5937 73.1409C96.5073 73.3227 96.3645 73.4733 96.1855 73.5714C96.0064 73.6694 95.8003 73.7098 95.5964 73.6868C94.8563 73.6561 94.1109 73.6868 93.3708 73.6868C92.7016 73.6868 92.657 73.61 93.0008 73.0538C94.2527 71.0187 95.4862 68.9862 96.7984 66.9896C97.1396 66.459 97.1291 66.0925 96.7748 65.5748C95.5439 63.7627 94.3734 61.9147 93.1845 60.0796C93.0743 59.9079 92.8512 59.7284 92.9903 59.5131C93.1031 59.3389 93.3525 59.4157 93.5441 59.4132C94.3944 59.4132 95.2473 59.4311 96.0977 59.4132C96.3129 59.391 96.5301 59.4323 96.721 59.5319C96.9119 59.6316 97.0678 59.7848 97.1685 59.9719C97.8482 61.0638 98.5778 62.1275 99.2681 63.2116C99.4938 63.5653 99.6171 63.5705 99.8218 63.1963C100.412 62.1275 101.047 61.0843 101.633 60.0104C101.712 59.8129 101.854 59.6458 102.039 59.5344C102.223 59.4229 102.44 59.3732 102.656 59.3927C103.352 59.426 104.053 59.3927 104.756 59.3927C105.543 59.3927 105.562 59.4183 105.178 60.0642C104.071 61.925 102.976 63.7934 101.832 65.6312C101.678 65.8318 101.597 66.0772 101.602 66.328C101.607 66.5789 101.699 66.8208 101.861 67.0152C103.173 68.9965 104.467 71.0008 105.758 72.9999C105.869 73.1717 106.1 73.3536 105.953 73.5664C105.84 73.7304 105.588 73.6561 105.394 73.6586C104.953 73.6817 104.517 73.6792 104.079 73.6792Z" fill="black"/>
<path d="M28.43 70.5392C28.3067 69.6139 28.6531 68.4888 28.1413 67.4251C27.0653 65.1875 26.0155 62.9397 24.9578 60.6945C24.0104 58.6825 23.0761 56.6654 22.1181 54.6559C21.916 54.233 21.9344 54.028 22.4829 54.0382C23.3333 54.0536 24.1862 54.0382 25.0392 54.0382C25.1895 54.0199 25.3419 54.0514 25.4718 54.1276C25.6017 54.2038 25.7016 54.3203 25.7557 54.4586C27.5928 58.4365 29.4693 62.4041 31.3222 66.3794C31.7907 67.4398 32.025 68.5847 32.0099 69.7395C32.0099 70.8468 32.0099 71.9566 32.0256 73.0715C32.0256 73.5098 31.8524 73.6841 31.4036 73.6738C30.6197 73.655 29.8324 73.655 29.0415 73.6738C28.5954 73.6738 28.4117 73.5175 28.4222 73.0741C28.4432 72.2821 28.43 71.4927 28.43 70.5392Z" fill="#FC3E1E"/>
<path d="M32.4981 63.6473H31.1858C30.7528 63.6473 30.6609 63.473 30.8367 63.086C31.7973 60.9868 32.7369 58.88 33.687 56.7783C34.0281 56.0094 34.3851 55.2661 34.7158 54.5023C34.7695 54.3517 34.8742 54.2235 35.0125 54.1387C35.1509 54.0539 35.3146 54.0176 35.4769 54.0358C36.3062 54.0538 37.1355 54.0512 37.9623 54.0358C38.4557 54.0307 38.5344 54.2204 38.3376 54.6253C37.3061 56.8783 36.2878 59.1363 35.2643 61.3918C35.0255 61.9172 34.7394 62.4299 34.5609 62.9707C34.3824 63.4705 34.0911 63.7011 33.5452 63.6576C33.1988 63.6294 32.8497 63.6576 32.4954 63.6576L32.4981 63.6473Z" fill="#FC3E1E"/>
</svg>
