<svg width="128" height="128" viewBox="0 0 128 128" fill="none" xmlns="http://www.w3.org/2000/svg">
<rect width="128" height="128" fill="white"/>
<path d="M104 64.6312C104 78.4167 95.5229 92.3039 84.7113 99.5304C78.2185 103.884 70.8357 104 62.592 104C40.604 104.058 24 86.7461 24 64.6312C24 54.3863 24.4231 45.3023 30.8138 38.2209C38.1091 30.1672 51.722 24 63.3945 24C74.3812 24 83.4857 28.6581 90.8831 36.0733C98.2805 43.4884 104 53.6607 104 64.6312Z" fill="#96BF0D"/>
<path d="M92.8819 62.6867C92.8819 72.9316 86.0536 82.5379 78.0142 87.9216C73.1847 91.143 69.0848 93.8131 62.9421 93.8131C46.6007 93.8131 33.9799 75.7322 36.6791 62.1063C38.2987 53.7043 38.0361 50.8456 42.7926 45.5781C48.2203 39.5705 54.217 36.0007 62.9129 36.0007C71.0982 36.0007 78.5394 37.713 84.0547 43.2563C89.5699 48.7995 92.8819 54.4734 92.8819 62.6867Z" fill="#FBFBFC"/>
<path d="M61.7896 95.3512C54.0712 97.3392 48.089 90.8527 42.2382 86.035C38.6385 82.8643 36.0261 78.7355 34.7095 74.1359C33.6498 71.3394 32.9916 68.4084 32.7544 65.4292C32.7089 63.543 32.8065 61.656 33.0462 59.7844C34.0383 53.8639 36.5041 50.6714 39.5682 45.5925C44.2517 37.771 51.3281 32.7066 60.9725 32.576C76.1321 32.4019 85.9369 38.9174 91.9482 52.8916C96.4275 63.2816 95.377 72.975 89.0301 82.4218C85.2949 87.936 80.0278 90.6206 74.4396 93.5373C70.5001 95.4528 67.013 94.8868 61.7896 95.3512ZM65.3934 38.3805C55.4135 38.3805 47.3449 42.0518 43.172 48.9591C39.3809 55.1934 38.1747 62.6492 39.8083 69.7515C41.4418 76.8539 45.7871 83.0467 51.9263 87.0218C56.5078 90.0546 61.5269 92.0426 67.1735 90.7076C73.9753 89.2401 80.15 85.7055 84.8426 80.5934C89.2198 75.6741 91.7294 69.9567 91.0728 63.4122C90.5031 60.0258 89.4774 56.7312 88.0234 53.6172C84.0839 43.5464 76.2634 38.3805 65.3934 38.3805Z" fill="#486594"/>
<path d="M62.3732 80.8546C49.9274 80.8546 42.7343 68.8974 47.0531 57.0418C49.9712 49.0752 58.3608 44.243 64.5618 44.9686C74.4688 46.115 83.1939 55.7358 81.6181 64.8198C80.9262 69.366 78.5887 73.5043 75.0448 76.457C71.5009 79.4098 66.9948 80.9736 62.3732 80.8546Z" fill="#E52928"/>
</svg>
