<svg width="128" height="128" viewBox="0 0 128 128" fill="none" xmlns="http://www.w3.org/2000/svg">
<rect width="128" height="128" fill="#F9D649"/>
<path d="M25 35H35.563L46.9238 63.7677L55.4435 37.7686C55.4435 37.7686 56.062 35.0892 59.9796 35.0892C63.3961 35.0892 82.3158 35.0208 86.9901 35.0042C88.0288 34.9977 89.0654 35.1006 90.0829 35.3113C94.452 36.2307 104.271 39.7735 103.994 53.0564C103.829 61.0551 100.64 65.5796 97.2973 68.1282C94.4592 70.2626 91.0027 71.3987 87.4602 71.3618L69.9013 71.285C69.6162 71.2843 69.3373 71.3695 69.1007 71.5297C68.8641 71.6898 68.6804 71.9176 68.5735 72.1837L60.6806 91.9191H51.9816L63.2518 63.9898C63.3838 63.6629 63.6097 63.383 63.9006 63.1859C64.1915 62.9889 64.5342 62.8836 64.8848 62.8836H85.2973C87.1927 62.8974 89.0416 62.293 90.5674 61.161C92.3922 59.7829 94.1447 57.3235 94.1447 52.9588C94.1447 43.8455 85.3571 43.5778 85.3571 43.5778H64.2312L44.9713 92H34.9403L42.396 74.9357L25 35Z" fill="#2F2F2F"/>
</svg>
