<svg width="128" height="128" viewBox="0 0 128 128" fill="none" xmlns="http://www.w3.org/2000/svg">
<rect width="128" height="128" fill="white"/>
<path fill-rule="evenodd" clip-rule="evenodd" d="M113 65C113 77.1501 103.15 87 90.9995 87C78.8501 87 69 77.1501 69 65C69 52.8499 78.8501 43 90.9995 43C103.15 43 113 52.8499 113 65Z" fill="#A53C43"/>
<path fill-rule="evenodd" clip-rule="evenodd" d="M78 63.9995C78 81.673 63.8979 96 46.5005 96C29.1031 96 15 81.673 15 63.9995C15 46.326 29.1031 32 46.5005 32C63.8979 32 78 46.326 78 63.9995Z" fill="#ED5665"/>
<path fill-rule="evenodd" clip-rule="evenodd" d="M28.7895 63.738L23 52.8674H26.6338L30.5757 60.6054L34.4859 52.8674H38.0286L32.2381 63.738V71.2913H28.7895V63.738Z" fill="white"/>
<path fill-rule="evenodd" clip-rule="evenodd" d="M39.0606 64.5812C41.2064 64.0201 43.6336 62.9393 43.6336 61.4911C43.6336 60.8203 43.1134 60.3244 42.1594 60.3244C40.3831 60.3244 39.1478 61.9445 39.0606 64.5812ZM35.94 65.1433C35.94 60.108 38.8872 57.9031 42.528 57.9031C44.8471 57.9031 46.7542 58.9838 46.7542 61.2965C46.7542 64.8192 41.9643 65.8773 39.2558 66.6132C39.6451 68.2116 40.6645 68.9031 42.0732 68.9031C43.6554 68.9031 45.0423 68.1691 46.0607 66.4176C46.5372 66.634 46.8196 67.1536 46.8196 67.9963C46.8196 70.3089 44.435 71.7344 41.6611 71.7344C37.4567 71.7344 35.94 68.9466 35.94 65.1433Z" fill="white"/>
<path fill-rule="evenodd" clip-rule="evenodd" d="M48.0217 71.1876L48.9043 52L52.4331 52.161L51.5495 71.3486L48.0217 71.1876Z" fill="white"/>
<path fill-rule="evenodd" clip-rule="evenodd" d="M53.5149 71.4394L54.3986 52.2508L57.9264 52.4119L57.0427 71.6005L53.5149 71.4394Z" fill="white"/>
<path fill-rule="evenodd" clip-rule="evenodd" d="M66.4402 60.5978C64.8036 60.3736 63.8278 61.723 63.4276 64.6323C63.0224 67.5732 63.6009 69.1035 65.2385 69.3287C66.8761 69.552 67.8173 68.2292 68.2225 65.2893C68.6227 62.379 68.0778 60.8221 66.4402 60.5978ZM64.9076 71.7332C61.6919 71.2926 59.5599 68.49 60.1524 64.1848C60.7408 59.9083 63.5553 57.7527 66.7721 58.1923C69.9878 58.6329 72.0861 61.4612 71.4976 65.7378C70.9052 70.0439 68.1234 72.1738 64.9076 71.7332Z" fill="white"/>
<path fill-rule="evenodd" clip-rule="evenodd" d="M77.0648 71.9073C74.9042 71.9073 73.2695 70.8918 72.6514 70.46L73.1457 68.1207C74.1631 68.8597 75.3985 69.5986 77.0034 69.5986C78.115 69.5986 78.7936 68.9832 78.7936 67.9982C78.7936 67.044 78.115 66.6439 76.7557 66.1825C73.9789 65.3211 72.9595 63.8738 72.9595 61.8428C72.9595 59.7811 74.3801 57.9031 77.4661 57.9031C79.2255 57.9031 80.768 58.7339 81.294 59.0421L80.768 61.2579C79.6574 60.52 78.639 60.1811 77.5889 60.1811C76.4784 60.1811 75.985 60.8578 75.985 61.6274C75.985 62.4888 76.6022 62.9512 77.6206 63.289C80.4292 64.1821 81.8181 65.5967 81.8181 67.444C81.8181 70.2763 80.0587 71.9073 77.0648 71.9073Z" fill="white"/>
<path fill-rule="evenodd" clip-rule="evenodd" d="M91.1723 66.3524C91.1723 66.3524 88.9839 70.5075 87.0481 69.5423C85.1123 68.5771 86.1634 64.59 86.1634 64.59C86.9708 61.4031 89.6001 60.3935 91.0593 60.0754C91.6052 59.9569 92.1243 60.3491 92.159 60.9062C92.3542 64.0645 91.1723 66.3524 91.1723 66.3524ZM93.6143 58.4079C91.5626 58.071 87.9219 58.07 85.2223 61.3518C83.8551 63.0154 83.0725 65.1018 83.0358 67.2524C83.0012 69.2647 83.5976 71.6336 86.5002 71.9478C86.5002 71.9478 89.8111 72.6749 91.1574 68.7026L90.989 71.6119L93.4033 71.444L94.9834 60.2878C95.1092 59.3958 94.5059 58.5541 93.6143 58.4079Z" fill="white"/>
</svg>
