<svg width="128" height="128" viewBox="0 0 128 128" fill="none" xmlns="http://www.w3.org/2000/svg">
<rect width="128" height="128" fill="#FFD400"/>
<path fill-rule="evenodd" clip-rule="evenodd" d="M58.9104 56.1915H74.0543L89.8236 89.6059H78.6858L58.9104 56.1915Z" fill="#231F20"/>
<path fill-rule="evenodd" clip-rule="evenodd" d="M38.7581 89.606L55.7786 57.3174L63.4137 69.2071L49.8969 89.606H38.7581Z" fill="#231F20"/>
<path fill-rule="evenodd" clip-rule="evenodd" d="M33 65.9611L40.0085 56.2007H54.5268L42.3864 65.8368L33 65.9611Z" fill="#231F20"/>
<path fill-rule="evenodd" clip-rule="evenodd" d="M80.4124 92.2366H90.8004L95.5563 102.498C95.5563 103.123 95.5563 104 93.4279 104C90.3001 104 86.7954 102.748 85.1683 100.12L80.4124 92.2366Z" fill="#231F20"/>
<path fill-rule="evenodd" clip-rule="evenodd" d="M37.2421 92.2386H47.7554L42.6235 100.373C41.8727 101.625 41.3724 102.125 40.4962 102.125C36.6155 102.125 35.1148 99.7484 35.1148 98.1213C35.1148 96.4942 35.7393 95.2421 37.2421 92.2386Z" fill="#231F20"/>
<path fill-rule="evenodd" clip-rule="evenodd" d="M33.8699 24.0267C33.8699 24.0267 58.8974 23.9666 59.0257 24.0267C59.1109 24.0668 68.2588 43.6197 72.8553 53.4262C72.9124 53.5485 72.9034 53.5615 72.768 53.5615C61.6793 53.5775 39.5661 53.6217 39.5019 53.5615C39.3245 53.3961 37.2493 50.0578 37.2493 50.0578C35.8729 47.8051 35.4969 46.9289 35.4969 46.1781L36.9987 30.7846C36.9245 28.9761 36.3641 27.4543 35.2463 26.0297L33.8699 24.0267Z" fill="#231F20"/>
</svg>
