<svg width="128" height="128" viewBox="0 0 128 128" fill="none" xmlns="http://www.w3.org/2000/svg">
<rect width="128" height="128" fill="#F8CD46"/>
<path d="M85.3607 99.8344C69.2609 107.314 40.4671 86.4341 32.7268 70.229C24.9866 54.0239 34.5845 38.1305 50.6843 30.3396C55.9477 27.8465 61.5207 26.6 67.0937 26.6C77.6204 26.6 87.528 31.5862 92.4818 42.4934C100.222 58.3869 101.46 92.0435 85.3607 99.8344Z" fill="black"/>
<path d="M49.1364 43.4284H59.3536C62.7593 43.4284 68.6419 44.0517 71.738 50.2844L86.9089 82.6945C85.3609 84.2527 82.884 84.2527 81.3359 82.6945C81.3359 82.6945 81.0263 82.3829 81.0263 82.0713L68.0227 63.3731C66.165 60.5684 62.4497 59.9451 59.6632 61.8149C59.3536 61.8149 59.3536 62.1266 59.0439 62.4382L55.3286 65.8662C53.7806 67.4244 51.3037 67.4244 49.7556 65.8662L49.446 65.5546L52.8517 60.88C55.019 57.452 55.3286 53.0891 53.1613 49.6611L49.1364 43.4284ZM55.019 77.3967C54.3998 78.3316 54.3998 79.2665 54.3998 80.5131C54.3998 82.6945 57.1863 84.5644 57.1863 84.5644L66.7842 68.0476C67.0938 67.1127 67.0938 66.1778 66.7842 65.5546C64.6169 62.4382 61.8304 63.3731 61.8304 63.3731L55.019 77.3967Z" fill="black"/>
<path d="M85.3607 99.8344C69.2609 107.314 40.4671 86.4341 32.7268 70.229C24.9866 54.0239 34.5845 38.1305 50.6843 30.3396C55.9477 27.8465 61.5207 26.6 67.0937 26.6C77.6204 26.6 87.528 31.5862 92.4818 42.4934C100.222 58.3869 101.46 92.0435 85.3607 99.8344Z" fill="black"/>
<path d="M49.2667 43.6H59.3831C62.7552 43.6 68.5798 44.2182 71.6454 50.4L86.6667 82.5454C85.1339 84.0909 82.6815 84.0909 81.1487 82.5454C81.1487 82.5454 80.8421 82.2363 80.8421 81.9272L67.9667 63.3818C66.1274 60.6 62.4487 59.9818 59.6897 61.8363C59.3831 61.8363 59.3831 62.1454 59.0766 62.4545L55.3979 65.8545C53.8651 67.4 51.4126 67.4 49.8798 65.8545L49.5733 65.5454L52.9454 60.9091C55.0913 57.5091 55.3979 53.1818 53.252 49.7818L49.2667 43.6ZM55.0913 77.2909C54.4782 78.2182 54.4782 79.1454 54.4782 80.3818C54.4782 82.5454 57.2372 84.4 57.2372 84.4L66.7405 68.0182C67.0471 67.0909 67.0471 66.1636 66.7405 65.5454C64.5946 62.4545 61.8356 63.3818 61.8356 63.3818L55.0913 77.2909Z" fill="white"/>
</svg>
