<svg width="128" height="128" viewBox="0 0 128 128" fill="none" xmlns="http://www.w3.org/2000/svg">
<rect width="128" height="128" fill="#FDDB02"/>
<path fill-rule="evenodd" clip-rule="evenodd" d="M31.2628 56.4036C32.4058 57.3678 33.7862 57.7599 35.2469 57.8058C38.1383 57.8975 40.5563 56.7051 42.6911 54.8719C45.3189 52.6156 47.9593 50.3707 50.508 48.0273C54.0036 44.809 58.4349 45.748 61.0099 48.3758C62.3811 49.7745 63.6205 51.3544 64.6592 53.0157C69.7658 61.1811 74.7725 69.4084 79.8424 77.5956C81.1654 79.7338 82.4575 81.9098 83.9984 83.8876C86.4382 87.0187 89.8341 88.211 93.7448 88.0792C94.4041 88.0562 94.5623 87.7685 94.2963 87.1929C94.2275 87.0462 94.1553 86.9006 94.0865 86.755C88.5764 75.2659 83.0709 63.7756 77.5585 52.2888C73.2041 43.2177 68.7614 34.1856 65.4194 24.6707C65.2313 24.1342 64.9195 23.9977 64.391 24C61.1968 24.0195 58.0026 24.0103 54.8096 24.0115C51.7519 24.0126 48.693 24.0184 45.6353 24.0092C44.1632 24.0058 44.2561 23.9909 44.2985 25.4893C44.3765 28.3006 44.4567 31.121 44.3146 33.9264C44.13 37.5597 42.6189 40.7734 40.3362 43.5215C37.3828 47.0757 34.2219 50.4567 31.1355 53.8997C30.2321 54.9074 30.2229 55.5265 31.2628 56.4036Z" fill="black"/>
<path fill-rule="evenodd" clip-rule="evenodd" d="M98.8079 95.7798H42.8013C38.174 95.7798 33.5478 95.7844 28.9206 95.7741C28.3255 95.7729 27.9346 95.8474 28.0091 96.6156C28.4172 100.777 31.804 103.961 36.0163 103.968C54.7123 103.998 73.4083 104.006 92.1031 103.996C96.0976 103.993 99.3662 101.152 100.047 97.2209C100.296 95.7901 100.288 95.7798 98.8079 95.7798Z" fill="black"/>
<path fill-rule="evenodd" clip-rule="evenodd" d="M57.9677 51.5618C56.5162 51.1181 55.8375 51.3485 55.004 52.612C53.8712 54.3272 52.7476 56.0481 51.6287 57.7724C46.9716 64.938 42.3122 72.1025 37.6666 79.2739C36.7299 80.7208 36.0637 82.2789 35.9812 83.978C35.9892 86.3627 37.271 88.0733 39.5514 88.799C40.7266 89.1728 41.2666 89.0306 42.0198 88.032C49.3987 78.2512 56.7673 68.4624 64.1485 58.6827C64.6094 58.0716 64.6483 57.48 64.2035 56.9022C63.5133 56.0045 62.8185 55.0999 62.0389 54.2813C60.8935 53.0775 59.598 52.0594 57.9677 51.5618Z" fill="black"/>
</svg>
