<svg width="128" height="128" viewBox="0 0 128 128" fill="none" xmlns="http://www.w3.org/2000/svg">
<rect width="128" height="128" fill="#5EADE0"/>
<path fill-rule="evenodd" clip-rule="evenodd" d="M15 53.6893C16.3643 53.6479 17.7333 53.6829 19.0976 53.6709C20.3656 55.5076 21.5712 57.3893 22.8154 59.2426C24.0109 57.5428 25.0706 55.7474 26.201 54.0026C26.3084 53.8666 26.4029 53.6268 26.6231 53.6755C27.8388 53.6516 29.0536 53.6792 30.2665 53.6663L30.4115 53.8115C29.2875 55.3147 28.2443 56.8821 27.1947 58.434C26.557 59.7304 25.6395 60.8505 24.8431 62.0431C24.699 62.2627 24.7082 62.5365 24.6954 62.7873C24.6954 65.0136 24.6954 67.2417 24.688 69.468C23.4485 69.5185 22.2071 69.4652 20.9629 69.4524C20.9611 67.1829 20.9611 64.9116 20.9638 62.6394C20.9813 62.361 20.8996 62.0918 20.7271 61.8749C19.4197 60.1016 18.1893 58.2714 16.9057 56.4825C16.2809 55.5425 15.5459 54.6779 15 53.6893Z" fill="white"/>
<path fill-rule="evenodd" clip-rule="evenodd" d="M37.5624 69.4652C37.5661 64.1977 37.5478 58.9311 37.5716 53.6645C38.7222 53.6682 39.8764 53.6682 41.0297 53.6663C41.0389 58.9348 41.0371 64.2041 41.0306 69.4698C39.8746 69.4652 38.7158 69.479 37.5624 69.4652Z" fill="white"/>
<path fill-rule="evenodd" clip-rule="evenodd" d="M41.5622 69.4598C41.5696 64.1941 41.5558 58.9321 41.5696 53.6664C42.7201 53.682 43.8707 53.6545 45.0203 53.6802C45.0258 58.9358 45.0185 64.1923 45.0258 69.4497C43.8707 69.4699 42.7165 69.4662 41.5622 69.4598Z" fill="white"/>
<path fill-rule="evenodd" clip-rule="evenodd" d="M88.1293 65.034C88.1072 65.6423 87.6118 66.1127 87.0961 66.3654C86.5346 66.5546 85.9254 66.5114 85.3428 66.5307C83.9812 66.5069 82.6159 66.5758 81.2571 66.482C81.2718 65.3345 81.2506 64.1887 81.2763 63.0402C82.8288 63.0429 84.3849 63.0402 85.9336 63.0365C86.5539 63.0439 87.2484 63.0907 87.7237 63.5419C88.1182 63.9204 88.1742 64.5149 88.1293 65.034ZM86.23 56.6361C86.6952 56.6443 87.2007 56.6728 87.5742 56.9871C88.1467 57.4538 88.2375 58.289 88.0458 58.9588C87.7898 59.6231 87.0934 60.0834 86.3851 60.0733C84.6822 60.1027 82.9783 60.0834 81.2727 60.0779C81.2635 58.9322 81.2607 57.7827 81.2717 56.6333C82.9251 56.6351 84.5776 56.6241 86.23 56.6361ZM90.0689 68.5346C89.8266 67.9622 90.0496 67.3007 90.59 66.9938L91.8048 66.3056C91.8488 65.9932 91.8599 65.679 91.8553 65.362L90.5643 64.6683C90.0175 64.3743 89.7789 63.7173 90.0092 63.1403L90.4423 62.0626C90.1946 61.876 89.934 61.7088 89.6633 61.5563C90.7763 60.9802 91.5837 59.8795 91.8204 58.6538C92.1672 57.044 91.5204 55.2174 90.1358 54.295C89.333 53.7749 88.3485 53.7189 87.4191 53.7235C84.2151 53.7326 81.0093 53.7088 77.8063 53.7363C77.8063 58.9754 77.8182 64.2162 77.8044 69.458C80.8598 69.4737 83.9197 69.4608 86.9787 69.4617C88.0724 69.4608 89.2284 69.3698 90.1946 68.8287L90.0689 68.5346Z" fill="white"/>
<path fill-rule="evenodd" clip-rule="evenodd" d="M28.7524 58.0693C29.8351 57.3481 31.1471 57.0228 32.4418 57.0228C34.0153 57.01 35.5916 57.0348 37.1679 57.0118C37.1734 58.0353 37.1798 59.0607 37.1642 60.0834C35.6347 60.1192 34.1061 60.0402 32.5785 60.133C31.7857 60.1357 30.9242 60.2589 30.314 60.8138C29.9801 61.1051 29.9223 61.5691 29.7938 61.9651C32.2445 61.9936 34.6943 61.9862 37.144 61.9688C37.1871 62.8168 37.1752 63.6686 37.1587 64.5185C34.7071 64.5396 32.2555 64.5148 29.8012 64.5313C29.9113 65.6357 30.9948 66.3285 32.0133 66.4443C33.7244 66.6317 35.4503 66.4774 37.1697 66.4994C37.1752 67.4835 37.1752 68.4647 37.1752 69.4488C35.6943 69.48 34.2171 69.458 32.7372 69.4598C31.6316 69.4782 30.4911 69.3615 29.4929 68.8534C28.5579 68.3719 27.7138 67.6718 27.1468 66.7741C26.3586 65.0321 26.1641 63.0052 26.7798 61.1731C27.0027 59.929 27.7358 58.809 28.7524 58.0693Z" fill="white"/>
<path fill-rule="evenodd" clip-rule="evenodd" d="M50.8987 59.9828C49.782 60.2603 49.0104 61.3169 48.8407 62.4213C48.6241 63.6984 48.7397 65.1318 49.5554 66.1856C50.6317 67.4113 52.7071 67.5005 53.9255 66.4392C54.9376 65.4791 55.1018 63.9557 54.9091 62.6418C54.7834 61.6706 54.2641 60.7086 53.3796 60.2382C52.6383 59.8018 51.7198 59.7604 50.8987 59.9828ZM50.6133 57.6334C52.1355 57.4395 53.7347 57.5883 55.1468 58.2196C56.8102 58.9849 57.9626 60.6902 58.103 62.5122C58.1599 63.6111 58.2058 64.7541 57.7855 65.7942C57.1956 67.6135 55.4945 68.8989 53.6622 69.2839C51.9685 69.6284 50.1408 69.5402 48.5508 68.8162C47.2947 68.2603 46.3083 67.1348 45.9 65.8245C45.4982 64.6558 45.4853 63.3915 45.6312 62.176C45.8441 60.7904 46.5643 59.4324 47.7461 58.6376C48.6049 58.0863 49.5967 57.7491 50.6133 57.6334Z" fill="white"/>
<path fill-rule="evenodd" clip-rule="evenodd" d="M58.5609 64.5741C58.6032 62.2725 58.4949 59.9654 58.6169 57.6647C59.7381 57.6886 60.8593 57.6895 61.9814 57.6702C62.1301 59.2717 62.0136 60.886 62.0512 62.494C62.0714 63.3319 61.9879 64.1791 62.1163 65.0143C62.1741 65.5481 62.5943 65.923 62.9485 66.2767C63.1063 66.4164 63.2751 66.567 63.4981 66.567C64.3596 66.6433 65.2294 66.5845 66.0937 66.5891C66.08 63.885 66.0836 61.1764 66.08 58.4705C65.9928 57.9799 66.5497 57.8641 66.914 57.8255C67.6471 57.7667 68.404 57.707 69.1289 57.8696C69.4592 58.0442 69.3408 58.4751 69.3867 58.7792C69.3656 61.3813 69.384 63.9852 69.3748 66.5891C70.6373 66.5845 71.9016 66.6286 73.1641 66.579C73.621 66.6359 73.4862 66.0543 73.521 65.7778C73.4632 63.1757 73.5348 60.5718 73.5274 57.9688C74.5587 57.899 75.5992 57.8935 76.6259 58.0616C76.691 61.5219 76.625 64.9848 76.6617 68.4451C76.6488 68.8071 76.6626 69.4447 76.1332 69.3887C71.664 69.442 67.1883 69.3345 62.7173 69.4319C61.4878 69.4227 60.0758 69.0671 59.395 67.9407C58.7197 66.9575 58.516 65.7465 58.5609 64.5741Z" fill="white"/>
<path fill-rule="evenodd" clip-rule="evenodd" d="M94.1056 65.7343C94.1056 62.8254 96.46 60.4677 99.3648 60.4677C102.269 60.4677 104.624 62.8254 104.624 65.7343C104.624 68.6423 102.269 71 99.3648 71C96.46 71 94.1056 68.6423 94.1056 65.7343Z" fill="white"/>
<path fill-rule="evenodd" clip-rule="evenodd" d="M112.953 66.9043C112.249 66.8924 111.506 67.0026 110.845 66.7004C110.372 66.4982 110.026 66.0103 110.063 65.4848C110.063 65.414 110.063 65.3433 110.062 65.2725V61.7222C110.066 61.2693 110.065 60.8163 110.073 60.3633C111.035 60.3652 111.993 60.3532 112.953 60.3661C113.001 59.5153 113.007 58.6608 112.953 57.8081C111.991 57.8146 111.028 57.8072 110.069 57.8109C110.041 56.2195 110.058 54.6245 110.058 53.0312C108.913 52.9844 107.768 53.0276 106.621 53C106.585 53.4318 106.553 53.8729 106.581 54.3102C106.66 55.4762 106.535 56.6394 106.55 57.8072C105.907 57.8072 105.262 57.8109 104.619 57.8164C104.728 58.0654 104.757 58.3493 104.68 58.6295L104.592 58.9474C104.592 59.4151 104.588 59.8828 104.59 60.3495C105.063 60.3597 105.539 60.3578 106.013 60.356L106.341 60.2567C106.454 60.2218 106.573 60.2044 106.693 60.2044C107.181 60.2044 107.621 60.4956 107.811 60.9459L108.66 62.9332C108.905 63.5066 108.68 64.1681 108.139 64.4741L106.842 65.2082C106.862 65.5022 106.865 65.7972 106.851 66.093L108.165 66.8005C108.713 67.0954 108.952 67.7533 108.72 68.3303L108.5 68.8788C108.887 69.0672 109.285 69.2326 109.722 69.2602C110.81 69.3493 111.907 69.3052 113 69.296C112.959 68.5021 112.958 67.7009 112.953 66.9043Z" fill="white"/>
<path fill-rule="evenodd" clip-rule="evenodd" d="M94 65.5007C94 68.5377 96.4632 71 99.5023 71C99.7567 71 100.005 70.977 100.25 70.9443C100.276 70.1182 99.677 68.6922 99.125 68.0435C98.5577 67.3766 98.5904 66.657 98.3629 66.1081C98.1354 65.5592 97.6468 64.1515 96.9047 64.021C96.3701 63.927 95.3353 63.1056 94.7996 62.6565C94.2957 63.4865 94 64.4576 94 65.5007Z" fill="#B8D54B"/>
<path fill-rule="evenodd" clip-rule="evenodd" d="M104.871 64.4582C104.871 64.4582 104.487 63.4372 104.17 62.5966C103.197 61.0392 101.473 60 99.5025 60C98.4322 60 97.4367 60.3109 96.591 60.8396C96.7197 61.353 96.975 62.064 97.4521 62.3615C98.2325 62.849 99.3393 62.849 99.7953 63.2722C100.252 63.6953 100.405 64.6395 100.572 65.6807C100.739 66.7228 102.605 66.1662 102.958 66.9157C103.311 67.666 103.483 68.9336 103.483 68.9336L103.586 69.1774C104.444 68.2264 104.974 66.9771 105 65.602L104.871 64.4582Z" fill="#B8D54B"/>
<path fill-rule="evenodd" clip-rule="evenodd" d="M99.6297 60C99.4161 60 99.2071 60.0173 99 60.0427C99.3448 60.9904 100.033 62.5566 101.003 63.1884C102.357 64.0681 103.919 66.8055 104.448 67.7359C104.495 67.8192 104.551 67.9096 104.607 68C104.859 67.3266 105 66.5932 105 65.8222C105 62.6064 102.596 60 99.6297 60Z" fill="#BCBEC0"/>
<path fill-rule="evenodd" clip-rule="evenodd" d="M103.184 69.1583L103.155 69.0891C103.13 68.9138 102.975 67.8729 102.671 67.2175C102.486 66.8215 102.004 66.747 101.538 66.6752C100.953 66.5841 100.595 66.5043 100.537 66.1381C100.385 65.176 100.241 64.2666 99.7833 63.8372C99.5421 63.6094 99.1533 63.5052 98.7419 63.3956C98.3625 63.294 97.9693 63.1889 97.647 62.9847C97.2641 62.742 97.0386 62.0919 96.928 61.6135C96.8208 61.674 96.7154 61.7388 96.6125 61.8071C96.7379 62.3031 96.9876 62.9873 97.4603 63.287C97.8285 63.5192 98.2666 63.6366 98.652 63.74C99.0202 63.8381 99.3676 63.931 99.5439 64.0983C99.9129 64.4444 100.047 65.2952 100.189 66.195C100.292 66.8425 100.953 66.9459 101.483 67.0274C101.876 67.0887 102.248 67.1457 102.352 67.37C102.655 68.0219 102.808 69.1486 102.809 69.16L102.928 69.45C103.017 69.3563 103.103 69.259 103.184 69.1583Z" fill="white"/>
<path fill-rule="evenodd" clip-rule="evenodd" d="M100.16 70.9483C100.171 70.1308 99.6148 68.8131 99.1066 68.2085C98.7921 67.8326 98.7013 67.4375 98.6123 67.0554C98.5656 66.8548 98.5216 66.6664 98.449 66.4877L98.3824 66.3221C98.1292 65.6781 97.704 64.5995 97.0058 64.4751C96.5892 64.4015 95.7173 63.7163 95.1849 63.2625C95.1201 63.3632 95.0579 63.4657 95 63.5718C95.5064 64.0028 96.4268 64.7344 96.9444 64.8264C97.45 64.9167 97.8596 65.955 98.0558 66.4544L98.1249 66.6244C98.1863 66.7759 98.2269 66.9512 98.2692 67.136C98.3634 67.54 98.4697 67.9991 98.8387 68.4398C99.308 68.9971 99.8507 70.3017 99.8109 71C99.9285 70.9877 100.044 70.9676 100.16 70.9483Z" fill="white"/>
<path fill-rule="evenodd" clip-rule="evenodd" d="M103.927 67.5591C103.445 66.7688 101.984 64.3628 100.692 63.5768C99.8528 63.0669 99.2357 61.7579 98.9359 61C98.814 61.0096 98.6939 61.0254 98.5755 61.0438C98.9168 61.934 99.571 63.3114 100.51 63.8835C101.729 64.6239 103.157 66.9738 103.627 67.7466C103.69 67.8491 103.764 67.9595 103.842 68.0743C103.901 67.9428 103.952 67.8088 104 67.673C103.977 67.6353 103.948 67.595 103.927 67.5591Z" fill="white"/>
<path fill-rule="evenodd" clip-rule="evenodd" d="M98.1135 66.6787C98.142 66.634 98.1654 66.5867 98.1887 66.5385C98.2042 66.5069 98.2224 66.478 98.2362 66.4439C98.2587 66.3895 98.2734 66.3317 98.2881 66.273C98.2967 66.2432 98.3079 66.2161 98.3131 66.1863C98.3313 66.096 98.3416 66.0031 98.3416 65.9085C98.3416 65.1287 97.7177 64.497 96.9486 64.497C96.1803 64.497 95.5564 65.1287 95.5564 65.9085C95.5564 66.0031 95.5667 66.096 95.584 66.1863C95.5901 66.2161 95.6022 66.2441 95.6099 66.273C95.6246 66.3317 95.6402 66.3895 95.6618 66.443C95.6756 66.478 95.6938 66.5078 95.7102 66.5402C95.7335 66.5876 95.7551 66.634 95.7845 66.6787C95.8044 66.7102 95.8286 66.7374 95.8519 66.768C95.8761 66.7996 95.8977 66.8346 95.9245 66.8635C96.1786 67.1439 96.9486 68.8989 96.9486 68.8989C96.9486 68.8989 97.7194 67.1439 97.9735 66.8644C98.0003 66.8346 98.0219 66.8005 98.0461 66.768C98.0686 66.7383 98.0936 66.7102 98.1135 66.6787Z" fill="white"/>
<path fill-rule="evenodd" clip-rule="evenodd" d="M98 66C98 66.5517 97.5517 67 97 67C96.4483 67 96 66.5517 96 66C96 65.4473 96.4483 65 97 65C97.5517 65 98 65.4473 98 66Z" fill="#FF0000"/>
<path fill-rule="evenodd" clip-rule="evenodd" d="M97.2974 70.9876C94.2713 69.7733 92.7968 66.3239 94.0121 63.2978C95.2256 60.2717 98.676 58.7981 101.702 60.0125C104.728 61.2269 106.203 64.6772 104.988 67.7033C103.774 70.7284 100.324 72.202 97.2974 70.9876ZM107.757 67.184L106.05 66.2673C106.117 65.7023 106.11 65.1391 106.033 64.5875L107.718 63.635C107.923 63.5193 108.007 63.2691 107.915 63.0529L107.086 61.1121C106.995 60.8968 106.754 60.7847 106.529 60.852L104.676 61.4107C104.332 60.974 103.929 60.5802 103.474 60.2367L103.992 58.3703C104.055 58.1443 103.937 57.9066 103.72 57.8196L101.761 57.0331C101.543 56.9461 101.295 57.0358 101.184 57.2429L100.268 58.9497C99.7029 58.8833 99.1387 58.8896 98.5872 58.9676L97.6346 57.2824C97.5189 57.0779 97.2687 56.9927 97.0526 57.0851L95.1117 57.9138C94.8955 58.0062 94.7834 58.2457 94.8516 58.4708L95.4103 60.3246C94.9735 60.669 94.5798 61.0717 94.2363 61.5264L92.3698 61.008C92.1438 60.9453 91.9062 61.0628 91.8192 61.2807L91.0335 63.2386C90.9456 63.4565 91.0362 63.705 91.2424 63.8162L92.9492 64.7328C92.8829 65.2978 92.8892 65.8611 92.9672 66.4126L91.2819 67.3651C91.0774 67.4808 90.9931 67.732 91.0846 67.9472L91.9142 69.8881C92.0066 70.1042 92.2461 70.2163 92.4703 70.1481L94.3242 69.5894C94.6686 70.0271 95.0722 70.4208 95.526 70.7634L95.0076 72.6298C94.9448 72.8567 95.0623 73.0935 95.2803 73.1805L97.2391 73.9671C97.4571 74.0541 97.7055 73.9635 97.8158 73.7572L98.7325 72.0504C99.2975 72.1168 99.8608 72.1105 100.413 72.0334L101.365 73.7186C101.481 73.9222 101.731 74.0074 101.948 73.915L103.889 73.0863C104.104 72.9939 104.216 72.7545 104.149 72.5294L103.59 70.6755C104.027 70.332 104.421 69.9284 104.763 69.4746L106.63 69.993C106.857 70.0549 107.093 69.9374 107.181 69.7203L107.967 67.7615C108.054 67.5436 107.964 67.2952 107.757 67.184Z" fill="#FDE731"/>
<path fill-rule="evenodd" clip-rule="evenodd" d="M97.6828 70.0278C95.1823 69.0241 93.9679 66.1837 94.9724 63.6832C95.976 61.1818 98.8165 59.9683 101.318 60.972C103.819 61.9756 105.031 64.8169 104.027 67.3183C103.024 69.8188 100.183 71.0314 97.6828 70.0278ZM101.566 60.3513C98.7268 59.2114 95.4908 60.5944 94.3508 63.4339C93.2117 66.2725 94.5939 69.5103 97.4334 70.6493C100.273 71.7892 103.51 70.4062 104.65 67.5676C105.789 64.7281 104.406 61.4913 101.566 60.3513Z" fill="#FDE731"/>
</svg>
