<svg width="128" height="128" viewBox="0 0 128 128" fill="none" xmlns="http://www.w3.org/2000/svg">
<rect width="128" height="128" fill="white"/>
<path fill-rule="evenodd" clip-rule="evenodd" d="M48.6956 30.2622C59.0206 30.2622 67.3912 38.6329 67.3912 48.9578C67.3912 59.2828 59.0206 67.6534 48.6956 67.6534C38.3707 67.6534 30 59.2828 30 48.9578C30 38.6329 38.3707 30.2622 48.6956 30.2622Z" fill="#F5B701"/>
<path fill-rule="evenodd" clip-rule="evenodd" d="M53.9965 38.2612C58.5729 38.2612 62.2842 41.9714 62.2842 46.549C62.2842 51.1254 58.5729 54.8367 53.9965 54.8367C49.419 54.8367 45.7087 51.1254 45.7087 46.549C45.7087 41.9714 49.419 38.2612 53.9965 38.2612Z" fill="white"/>
<path fill-rule="evenodd" clip-rule="evenodd" d="M96.5918 27.7571C95.339 25.4442 91.4831 24.6733 89.5569 24.2878C85.6046 23.5168 72.9814 24.3841 66.621 25.8297C64.9828 26.2152 63.1517 26.6006 61.416 26.9861C69.1255 31.6118 74.2342 39.4177 74.2342 48.2837C74.2342 62.45 63.7288 74.6888 47.8279 74.6888C44.5525 74.6888 41.3723 74.207 38.1921 73.2433C41.3723 77.5799 47.3472 85.6749 49.6601 88.7587C53.0319 93.287 63.3445 102.443 63.3445 102.443C63.3445 102.443 66.1381 104.178 67.2945 103.985C68.8364 103.792 71.2467 101.383 72.1129 100.13C77.7035 92.1316 85.9912 74.8816 89.2678 65.1483C93.3142 53.0058 96.8809 37.1049 96.8809 37.1049C96.8809 37.1049 97.6508 29.8772 96.5918 27.7571Z" fill="#17345D"/>
</svg>
