<svg width="128" height="128" viewBox="0 0 128 128" fill="none" xmlns="http://www.w3.org/2000/svg">
<rect width="128" height="128" fill="#FCE227"/>
<path fill-rule="evenodd" clip-rule="evenodd" d="M24 36.1104C25.3434 35.7963 26.7265 36.2325 28.0945 36.4255C37.2739 37.7168 46.9831 39.0971 55.8106 40.8349C59.6742 41.5946 63.4375 42.4092 66.6777 43.8273C67.7723 44.306 68.8924 44.7042 69.8271 45.2444C70.0617 45.3797 70.231 45.7364 70.4571 45.8745C70.7362 46.0448 71.0238 46.0372 71.2442 46.1895C71.6842 46.4904 72.072 46.9596 72.5044 47.2917C72.6425 47.3976 72.8449 47.3484 72.9764 47.4487C73.1817 47.6057 73.2716 47.8725 73.6065 48.0788C73.9707 48.303 74.6121 48.9094 75.0237 49.3389C76.5052 50.8819 77.8448 52.6765 78.8031 54.6935C78.3594 54.8316 78.3575 54.263 78.173 54.0634C77.7029 53.5525 76.9072 53.0568 76.4408 52.3312C75.9678 52.2839 75.7493 51.8156 75.3387 51.5432C74.9707 51.3 74.3359 50.7305 73.9215 50.283C73.0256 49.8337 72.2745 49.2462 71.4022 48.7088C69.004 47.233 66.2369 45.9445 63.2124 44.9294C61.6997 44.4214 60.151 43.9607 58.4888 43.5122C56.5996 43.0023 54.2572 42.4498 52.0321 41.9371C43.2727 39.9192 33.4396 37.6969 24 36.1104Z" fill="black"/>
<path fill-rule="evenodd" clip-rule="evenodd" d="M29.0396 38.4727C29.0103 38.3384 29.1011 38.3242 29.1976 38.3148C37.9437 39.5947 46.4685 41.2286 54.2364 43.3543C58.189 44.4366 61.941 45.657 65.4177 47.1337C68.883 48.6058 71.8895 50.4515 74.7087 52.8033C79.8079 57.0586 83.8758 62.4898 87.7792 68.079C91.9569 74.0618 96.3721 80.5005 100.851 86.6621C101.361 87.4634 102.048 88.0878 102.426 89.0234C103.057 89.7045 103.722 90.3516 104 91.3857C101.34 91.3166 99.3928 90.5352 97.5433 89.6535C97.1005 89.2041 96.5897 88.8228 95.9691 88.5513C93.5103 86.1276 91.7176 83.0378 89.3544 80.5195C88.9731 79.6945 88.3941 79.0654 87.7792 78.4732C86.2863 76.3436 84.6033 74.4043 82.8976 72.4885C76.2981 64.538 68.4374 57.8713 59.118 52.6454C49.72 47.3759 39.5057 42.8151 29.0396 38.4727Z" fill="black"/>
<path fill-rule="evenodd" clip-rule="evenodd" d="M42.5826 45.7168C43.1758 45.4954 44.1313 46.2645 44.7878 46.5039C45.714 46.6808 46.1378 47.3581 47.1501 47.449C54.2804 51.0789 61.3889 54.7316 67.3073 59.5743C68.4994 60.5355 69.8049 61.3822 70.7717 62.5676C71.5588 62.8401 71.9656 63.6026 72.5039 64.1418C73.012 64.6489 73.7906 65.0292 73.9211 65.874C70.7273 71.3932 67.4492 76.8301 60.0635 78.1583C53.4763 78.34 48.7517 76.6598 43.6857 75.3221C43.8957 74.6107 44.8597 74.2748 45.5749 74.0629C48.1974 73.2862 51.8774 73.9797 55.339 73.7479C57.355 73.6126 59.0229 73.0667 60.3786 72.3307C60.7844 72.0942 61.0975 71.7688 61.4807 71.3856C62.071 70.7963 62.4759 70.328 62.8979 69.3384C63.3084 68.3744 63.6395 66.9355 63.3699 65.401C62.5024 60.4674 57.776 56.3058 54.7089 53.7486C50.9229 50.8159 46.8407 48.1784 42.5826 45.7168Z" fill="black"/>
</svg>
