<svg width="128" height="128" viewBox="0 0 128 128" fill="none" xmlns="http://www.w3.org/2000/svg">
<rect width="128" height="128" fill="white"/>
<path d="M23.5854 61.2768C23.5872 61.2754 23.5887 61.2735 23.5897 61.2714C23.5907 61.2693 23.5912 61.267 23.5912 61.2647C23.5912 61.2623 23.5907 61.26 23.5897 61.2579C23.5887 61.2558 23.5872 61.2539 23.5854 61.2525C23.6104 61.1015 23.6104 60.9474 23.5854 60.7964C23.5281 60.6866 23.5912 60.5635 23.5477 60.4523C23.4752 60.215 23.4317 59.9704 23.3585 59.7316C23.1891 59.207 22.8915 58.7347 22.4936 58.3588C20.5267 56.4135 17.228 57.2852 16.4428 59.9593C16.1122 61.0852 16.2906 62.139 16.9264 63.116C17.2164 63.5663 16.9873 64.1123 16.4769 64.1653C16.3589 64.1792 16.2396 64.1584 16.1329 64.1054C16.0262 64.0523 15.9368 63.9693 15.8751 63.8662C15.2459 62.9362 14.9385 61.9039 15.0102 60.7794C15.1349 58.8415 16.068 57.4156 17.7652 56.5233C19.5777 55.5654 21.9281 55.9574 23.3817 57.4149C24.0585 58.0924 24.5382 58.9466 24.7678 59.8834C24.8345 59.9328 24.7678 60.016 24.8135 60.0713C24.8135 60.145 24.7997 60.2187 24.8541 60.2857C24.8947 60.369 24.8454 60.4633 24.8853 60.5466C24.9244 60.8634 24.9244 61.184 24.8853 61.5008C24.8483 61.5745 24.8904 61.6526 24.857 61.7219C24.8208 61.8 24.8056 61.8864 24.8128 61.9724C24.77 62.0284 24.8338 62.1117 24.7671 62.1618C24.608 62.793 24.3423 63.3914 23.982 63.9303C23.9567 63.9777 23.9184 64.0166 23.8718 64.0423C23.4281 64.3606 22.9242 64.1322 22.8263 63.6392C22.8097 63.6048 22.801 63.567 22.801 63.5287C22.801 63.4904 22.8097 63.4525 22.8263 63.4182C22.8336 63.245 22.9503 63.1234 23.0315 62.9886C23.2891 62.5608 23.4652 62.0876 23.5506 61.5937C23.5912 61.4861 23.5288 61.3741 23.5854 61.2768Z" fill="#FED502"/>
<path d="M21.6917 68.4495C21.5163 68.7796 21.3394 69.1127 21.1647 69.4406C20.9972 69.756 20.8348 70.0728 20.6644 70.3853C20.5419 70.6063 20.3396 70.7316 20.1033 70.8009C20.0096 70.8355 19.907 70.8355 19.8133 70.8009C19.503 70.7802 19.3239 70.5709 19.192 70.3226C18.6845 69.3647 18.1814 68.3994 17.6782 67.4363C17.4361 66.9802 17.1903 66.5211 16.9576 66.0562C16.871 65.8967 16.8276 65.7167 16.8317 65.5346C16.8358 65.3525 16.8872 65.1747 16.9808 65.0194C17.0756 64.8531 17.2235 64.7247 17.3998 64.6554C17.4989 64.6085 17.6093 64.5918 17.7176 64.6075C17.8258 64.6232 17.9273 64.6706 18.0095 64.7438C18.3039 64.9877 18.5895 65.2419 18.9158 65.446C19.3508 65.7172 19.8126 65.8506 20.3157 65.7246C20.6884 65.6317 21.0117 65.4254 21.3104 65.183C21.4873 65.0408 21.6664 64.9008 21.8389 64.7534C21.9581 64.6511 22.1085 64.5941 22.2645 64.592C22.321 64.6333 22.4008 64.5729 22.4523 64.6355C22.7691 64.777 22.9481 65.0327 23.0388 65.362C23.0594 65.4706 23.0594 65.5821 23.0388 65.6907C22.8285 66.3988 22.3979 66.9971 22.0883 67.6559C21.9861 67.877 21.8708 68.0877 21.7642 68.3029C21.7425 68.3508 21.7425 68.4119 21.6917 68.4495Z" fill="#FED502"/>
<path d="M22.5668 61.646C22.4841 61.8846 22.3873 62.1179 22.2768 62.3445C22.1637 62.5494 22.0332 62.7321 21.8085 62.822C21.678 62.8568 21.5406 62.8535 21.4119 62.8124C20.9566 62.5693 20.8551 62.2001 21.1219 61.7661C21.3002 61.4791 21.3715 61.1366 21.3229 60.8008C21.2743 60.4649 21.109 60.1578 20.8569 59.9352C20.6048 59.7125 20.2825 59.589 19.9485 59.5869C19.6146 59.5848 19.2909 59.7044 19.0361 59.9239C18.7813 60.1431 18.6132 60.4486 18.5628 60.784C18.5125 61.1194 18.5832 61.4619 18.7621 61.7484C18.8831 61.9459 18.9607 62.1441 18.8853 62.3711C18.8048 62.615 18.6432 62.7808 18.3836 62.8191C18.2583 62.8437 18.1286 62.8295 18.0113 62.7782C17.8941 62.727 17.7947 62.6411 17.7261 62.5317C17.4122 62.0659 17.2492 61.5121 17.26 60.9476C17.2708 60.3831 17.4548 59.8361 17.7862 59.3831C18.4387 58.5224 19.3087 58.1385 20.3614 58.3131C21.4786 58.4988 22.2094 59.1856 22.5364 60.2931C22.6396 60.6708 22.6613 61.0666 22.6002 61.4537C22.5617 61.5141 22.6081 61.5878 22.5668 61.646Z" fill="#FED502"/>
<path d="M64.6297 66.1991C64.7298 65.8439 64.8182 65.5359 64.9052 65.2249C65.246 64.0062 65.5896 62.7874 65.9245 61.5671C65.9586 61.4419 66.0159 61.4198 66.1261 61.4198C66.73 61.4242 67.3339 61.4271 67.9386 61.4198C68.0792 61.4198 68.1387 61.461 68.1764 61.5966C68.4664 62.6511 68.7665 63.704 69.063 64.7578C69.1935 65.2212 69.3255 65.6855 69.4922 66.1504C69.6043 65.7574 69.7167 65.3667 69.8293 64.9781C70.1522 63.8428 70.4741 62.7076 70.795 61.5723C70.8204 61.4846 70.8436 61.4198 70.9589 61.4212C71.6229 61.4264 72.287 61.4212 72.9518 61.4249C72.9797 61.4276 73.0074 61.4326 73.0345 61.4396C72.8598 61.9378 72.6887 62.4271 72.5161 62.9134C71.8772 64.7231 71.2392 66.5329 70.6022 68.3426C70.5587 68.4671 70.505 68.515 70.3723 68.5136C69.7568 68.5062 69.1399 68.501 68.5251 68.5136C68.346 68.518 68.2873 68.4458 68.2416 68.2925C67.8511 66.9612 67.4564 65.6309 67.0577 64.3016C67.0476 64.2663 67.0345 64.2324 67.0055 64.1484C66.933 64.3915 66.8663 64.5905 66.8069 64.7902C66.4552 65.9611 66.1022 67.1319 65.7578 68.305C65.7121 68.4598 65.6462 68.5158 65.483 68.5128C64.8733 68.5025 64.2636 68.504 63.6539 68.5128C63.5089 68.5128 63.4444 68.4694 63.3951 68.3294C62.6174 66.1035 61.8361 63.8789 61.0512 61.6556C61.0294 61.5922 61.0106 61.5273 60.9838 61.4441C61.0277 61.4345 61.0723 61.4281 61.1172 61.4249C61.782 61.4249 62.4461 61.4249 63.1101 61.4249C63.2269 61.4249 63.2733 61.461 63.3066 61.5782C63.7271 63.073 64.1512 64.5669 64.579 66.0598C64.5891 66.0893 64.6014 66.1202 64.6297 66.1991Z" fill="#132F55"/>
<path d="M92.6114 70.075C92.8644 69.568 93.1189 69.0559 93.3726 68.5475C93.6626 68.6889 93.9439 68.8474 94.2426 68.9608C94.8697 69.2018 95.5164 69.2865 96.1768 69.1082C96.8032 68.9402 97.1483 68.4767 97.1491 67.8187V67.185C97.1164 67.1968 97.0969 67.1975 97.0874 67.2086C96.4415 67.9587 95.6106 68.1341 94.687 67.9882C93.3393 67.7752 92.5244 66.6861 92.3337 65.4165C92.2112 64.606 92.2612 63.802 92.6056 63.0409C93.129 61.881 94.2803 61.2613 95.565 61.4411C96.182 61.5152 96.7467 61.8295 97.1404 62.318V61.4338H99.3878V61.6548C99.3878 63.6908 99.3762 65.726 99.3878 67.762C99.3987 69.162 98.6317 70.2467 97.3803 70.6873C95.7491 71.2613 94.1839 71.0226 92.6998 70.1546C92.6791 70.1418 92.6597 70.127 92.6418 70.1104C92.6304 70.0998 92.6202 70.0879 92.6114 70.075ZM97.1788 64.8307C97.136 64.5625 97.1179 64.3665 97.0722 64.1778C96.9221 63.5581 96.448 63.1683 95.8122 63.1285C95.251 63.0932 94.7356 63.4351 94.5116 63.9995C94.3459 64.4248 94.324 64.8939 94.4492 65.3333C94.5942 65.8807 95.043 66.2971 95.5425 66.3546C96.1892 66.4282 96.6959 66.1865 96.9526 65.6258C97.0729 65.359 97.1157 65.0584 97.1781 64.8314L97.1788 64.8307Z" fill="#132F55"/>
<path d="M78.9222 66.0223V68.493C78.8876 68.5033 78.8522 68.5105 78.8164 68.5144C78.1284 68.5144 77.4389 68.5144 76.7523 68.5144C76.6494 68.5144 76.6073 68.4731 76.6168 68.3722C76.6204 68.3294 76.6168 68.2867 76.6168 68.244V59.5239C76.6951 59.5195 76.748 59.5128 76.8002 59.5128C78.0986 59.5128 79.3964 59.5069 80.6941 59.5187C81.3386 59.5246 81.9686 59.6359 82.5501 59.938C83.4063 60.3801 83.9094 61.0971 84.0356 62.0646C84.1733 63.1286 84.0428 64.1367 83.3106 64.976C82.8161 65.5404 82.1694 65.827 81.4474 65.9442C81.1613 65.989 80.8726 66.0136 80.5832 66.0179C80.038 66.0275 79.495 66.0223 78.9222 66.0223ZM78.9476 61.4338C78.9383 61.4551 78.9315 61.4773 78.9273 61.5002C78.9273 62.4124 78.9273 63.3246 78.9229 64.2369C78.9229 64.3518 78.9853 64.3636 79.0737 64.3629C79.5377 64.3629 80.0025 64.3732 80.4664 64.3629C81.306 64.3378 81.7714 63.9097 81.8722 63.0866C81.9838 62.1891 81.501 61.5009 80.6745 61.4449C80.104 61.4 79.5305 61.4309 78.9476 61.4309V61.4338Z" fill="#132F55"/>
<path d="M57.2119 68.5188C56.5267 68.5129 55.8656 68.3987 55.2544 68.0767C54.1249 67.4783 53.5659 66.5027 53.4847 65.2375C53.4195 64.214 53.6609 63.2767 54.3801 62.5155C54.9912 61.8671 55.7575 61.5443 56.6275 61.4559C57.5889 61.3579 58.5226 61.4559 59.3701 61.9717C60.3511 62.5767 60.8564 63.4779 60.9397 64.6318C61.0021 65.4858 60.8672 66.2949 60.3728 67.0104C59.7392 67.9345 58.8279 68.3618 57.7549 68.4842C57.5736 68.5063 57.3924 68.5077 57.2119 68.5188ZM58.7039 64.8787C58.6705 64.7269 58.643 64.4542 58.5502 64.2066C58.3385 63.6437 57.926 63.3099 57.3257 63.2671C56.6978 63.2222 56.2121 63.4882 55.9388 64.0644C55.7991 64.3518 55.7264 64.668 55.7264 64.9885C55.7264 65.309 55.7991 65.6251 55.9388 65.9125C56.1708 66.4202 56.5855 66.6943 57.1423 66.7164C57.6824 66.7385 58.1174 66.5344 58.4182 66.0643C58.6234 65.7386 58.6778 65.3724 58.7039 64.8787Z" fill="#132F55"/>
<path d="M85.7349 63.6857C85.5326 63.1861 85.3311 62.6887 85.1165 62.1611C85.413 62.0439 85.6965 61.9201 85.9923 61.8162C86.9659 61.4573 88.0095 61.3384 89.0372 61.4692C89.9152 61.5856 90.6735 61.943 91.0672 62.8088C91.2076 63.12 91.2845 63.4569 91.2934 63.7992C91.3166 65.3318 91.3035 66.8645 91.3035 68.3972C91.3035 68.4274 91.2984 68.4584 91.2941 68.5048H89.1083V67.6861C89.0611 67.7202 89.0159 67.7569 88.9727 67.7959C88.5935 68.2012 88.1143 68.4083 87.5814 68.476C86.9579 68.5549 86.3395 68.5387 85.7595 68.2417C85.0215 67.8637 84.622 67.1121 84.6938 66.236C84.7627 65.3959 85.2397 64.805 86.0524 64.5412C86.4755 64.412 86.9158 64.3508 87.3574 64.3599C87.8772 64.3599 88.3963 64.3555 88.9154 64.3599C89.0546 64.3599 89.1039 64.3238 89.1017 64.175C89.0952 63.6437 88.7733 63.2789 88.1962 63.1817C87.6191 63.0844 87.0667 63.2038 86.5229 63.3806C86.2583 63.4683 86.0046 63.581 85.7349 63.6857ZM89.0698 65.5448C88.6696 65.5448 88.2781 65.5411 87.8859 65.5448C87.711 65.5428 87.5362 65.5548 87.3632 65.5809C87.05 65.6347 86.8492 65.8388 86.8108 66.1092C86.7629 66.4504 86.8927 66.726 87.1812 66.8785C87.5002 67.0465 87.8403 67.0377 88.1701 66.9448C88.8444 66.7591 89.2199 66.3583 89.0713 65.5448H89.0698Z" fill="#132F55"/>
<path d="M107.494 65.5801H102.747C102.892 66.1041 103.171 66.499 103.659 66.6729C104.514 66.9772 105.244 66.6958 105.883 66.1173L107.043 67.3162C106.77 67.6419 106.43 67.9022 106.047 68.0781C104.742 68.6713 103.424 68.7023 102.132 68.0479C101.229 67.5888 100.728 66.7989 100.548 65.8012C100.377 64.8565 100.459 63.9384 100.931 63.0917C101.524 62.024 102.478 61.5281 103.65 61.4331C104.348 61.3771 105.041 61.4294 105.689 61.7337C106.544 62.1346 107.06 62.8302 107.325 63.7321C107.502 64.3275 107.533 64.9361 107.494 65.5801ZM105.304 64.3422C105.376 63.6532 104.88 63.0895 104.157 63.0158C103.448 62.9422 102.784 63.5479 102.711 64.3422H105.304Z" fill="#132F55"/>
<path d="M44.6585 65.5801H39.9294C40.1904 66.8984 41.897 67.2631 43.0657 66.1151L44.2257 67.2941C44.0018 67.56 43.7342 67.7844 43.4347 67.9573C42.6931 68.4038 41.8804 68.5357 41.0321 68.5033C40.3963 68.4797 39.7888 68.3404 39.232 68.017C38.4345 67.5527 37.94 66.8534 37.745 65.9427C37.5406 64.9847 37.6 64.0467 38.0546 63.1706C38.6418 62.0469 39.6184 61.5244 40.8349 61.4308C41.5338 61.377 42.2254 61.4308 42.8721 61.7411C43.7979 62.1832 44.3105 62.9584 44.5476 63.9436C44.6752 64.4748 44.689 65.0127 44.6585 65.5801ZM42.477 64.3481C42.5321 63.6164 41.9811 63.0291 41.2445 63.0144C40.5449 63.0011 39.8671 63.6591 39.8845 64.3481H42.477Z" fill="#132F55"/>
<path d="M29.42 59.512H30.8374C31.0788 59.512 31.321 59.5209 31.5624 59.512C31.6153 59.5062 31.6686 59.5183 31.7141 59.5464C31.7596 59.5745 31.7947 59.6171 31.814 59.6675C32.4461 60.8416 33.0836 62.0152 33.7265 63.1883C33.754 63.2398 33.7859 63.2892 33.833 63.3673C34.023 63.0114 34.2006 62.6798 34.3768 62.3475C34.8545 61.447 35.3309 60.5459 35.8137 59.6484C35.833 59.6146 35.8592 59.5855 35.8906 59.5631C35.9221 59.5408 35.9579 59.5256 35.9957 59.5187C36.696 59.5091 37.3964 59.5128 38.0981 59.5135C38.1286 59.5163 38.1589 59.5212 38.1888 59.5282C38.009 59.8753 37.8371 60.2098 37.6624 60.5429C36.7958 62.1979 35.9299 63.8524 35.0648 65.5064C35.0187 65.5977 34.9939 65.6986 34.9923 65.8012C34.9865 66.6294 34.9923 67.4569 34.9923 68.2844V68.4981H32.6796V68.2771C32.6796 67.4864 32.6839 66.695 32.6752 65.9044C32.6735 65.7718 32.6417 65.6415 32.5824 65.5234C31.5617 63.5771 30.5375 61.633 29.5099 59.6911C29.4802 59.6417 29.4563 59.5879 29.42 59.512Z" fill="#132F55"/>
<path d="M113.245 63.676C112.859 63.5132 112.502 63.3319 112.125 63.2125C111.782 63.105 111.421 63.0615 111.066 62.9989C110.982 62.9891 110.897 62.9948 110.814 63.0158C110.576 63.0659 110.435 63.1978 110.409 63.3842C110.386 63.55 110.486 63.7202 110.718 63.8087C111.107 63.956 111.508 64.0688 111.901 64.2088C112.268 64.3272 112.627 64.468 112.978 64.6303C114.398 65.3414 114.186 67.1806 113.268 67.8725C112.82 68.2113 112.291 68.4208 111.736 68.4789C110.613 68.602 109.534 68.4414 108.531 67.8894C108.383 67.8061 108.241 67.7134 108.104 67.6116C108.069 67.5851 108.032 67.5018 108.047 67.4702C108.261 67.0118 108.482 66.5572 108.706 66.1011C109.009 66.2617 109.294 66.4297 109.593 66.566C110.126 66.8099 110.685 66.9558 111.276 66.9227C111.373 66.9174 111.468 66.8993 111.56 66.8689C111.705 66.8188 111.836 66.7414 111.858 66.5609C111.875 66.4779 111.862 66.3919 111.822 66.3176C111.782 66.2433 111.718 66.1855 111.641 66.1541C111.371 66.0362 111.09 65.9412 110.812 65.8424C110.38 65.6892 109.934 65.5698 109.517 65.3826C108.869 65.0923 108.403 64.6281 108.345 63.8588C108.281 63.0165 108.573 62.3482 109.293 61.895C109.918 61.5015 110.611 61.4116 111.328 61.4315C112.236 61.4575 113.124 61.7133 113.911 62.1758C113.936 62.194 113.96 62.2137 113.983 62.2347L113.245 63.676Z" fill="#132F55"/>
<path d="M48.132 68.5004H45.915V59.5246H48.132V68.5004Z" fill="#132F55"/>
<path d="M52.2302 68.4996H50.0045V59.5253H52.2302V68.4996Z" fill="#132F55"/>
</svg>
