<svg width="129" height="129" viewBox="0 0 129 129" fill="none" xmlns="http://www.w3.org/2000/svg">
<rect width="128" height="128" transform="translate(0.333008 0.416748)" fill="#E9EBEF"/>
<path d="M31.142 30.3641L30.2065 56.8462L31.1434 90.4572L31.6593 98.8847C31.6593 98.8847 38.4236 102.423 38.839 102.423H60.6947L93.1611 101.383L97.5317 99.5092L98.2594 82.0269L97.6348 30.9336L94.5134 27.4944H34.1603L31.142 30.3641Z" fill="#FACB05"/>
<path fill-rule="evenodd" clip-rule="evenodd" d="M48.9929 74.5624L47.8112 76.7112H47.7768C46.7918 78.6798 46.3791 79.5011 46.3791 80.5673C46.3791 81.6334 47.3668 83.1907 49.9091 83.1907C50.4828 83.1907 50.8116 82.8619 51.3041 82.042L54.2206 77.4279L55.9993 74.9847H56.0764L64.9372 61.6116L59.9324 53.8169L48.9929 74.5624Z" fill="#231F20"/>
<path fill-rule="evenodd" clip-rule="evenodd" d="M52.2671 60.2455L48.7288 63.9915C48.2734 64.7509 46.6006 65.1169 46.0696 65.1169C43.7144 65.1169 42.8023 63.6738 42.8023 62.686C42.8023 61.6983 43.8643 60.749 45.262 59.1092L49.59 53.0823L49.2571 51.353C49.1415 51.2444 47.7809 49.0556 47.7809 49.0556C46.8785 47.5795 46.6322 47.0045 46.6322 46.512L47.6172 36.424C47.5871 35.2869 47.1834 34.1914 46.4685 33.3067L45.5661 31.9943L44.0528 30.3709H61.3742C61.4416 30.4218 68.1151 44.8446 71.1251 51.2691C71.1444 51.309 71.1512 51.331 71.1444 51.3434L71.9106 53.0823L82.249 74.9875H82.1815L83.9466 78.9935L86.0101 83.4384C86.0101 83.8511 86.0101 84.4234 84.6152 84.4234C82.564 84.4234 80.2666 83.5979 79.2004 81.8797L77.7697 79.5094L74.966 74.9847H74.9454L61.985 53.085L60.2447 51.0215L52.2671 60.2455Z" fill="#231F20"/>
<path fill-rule="evenodd" clip-rule="evenodd" d="M89.3888 25.0979H39.8322C29.5145 25.0979 27.8375 27.5054 27.8086 36.3222L27.854 96.6794C27.854 101.848 32.7776 103.735 37.4536 103.735H91.6037C96.3622 103.735 100.711 101.52 100.711 95.777L100.857 35.7637C100.857 27.8878 97.5935 25.0979 89.3888 25.0979ZM95.2011 95.9572C95.2011 98.2546 95.12 98.2546 91.1813 98.4183H37.8498C33.3375 98.4183 33.3375 98.4183 33.3375 96.2034V92.3515C36.0449 93.7464 37.1895 94.1564 38.9173 94.1564C44.8246 94.1564 50.2393 88.7417 55.9017 88.7417C59.3409 88.7417 60.7427 90.9565 61.1527 94.1564H67.2236C67.7161 91.0391 69.1922 88.7417 72.5572 88.7417C77.3983 88.7417 83.8792 94.1564 89.3778 94.1564C91.5115 94.1564 92.817 93.6639 95.2025 92.1878L95.2011 95.9572ZM95.2011 85.5019C93.3962 87.3068 91.7619 88.373 89.5388 88.373C84.124 88.373 78.5442 83.2045 72.8007 83.2045C68.536 83.2045 66.1547 84.8457 64.1861 88.1267C62.2216 84.8416 60.253 83.2857 55.7338 83.2857C49.0878 83.2857 44.6567 88.2492 38.9132 88.2492C36.5333 88.2492 34.9746 87.3054 33.3334 85.4978V36.6042C33.3334 31.6228 34.1107 30.3709 39.5584 30.3709H44.0404C44.0404 30.3709 61.282 30.3324 61.3659 30.3709H89.6254C94.7953 30.3709 95.2053 31.1097 95.2053 36.3593L95.2011 85.5019Z" fill="#231F20"/>
</svg>
