<svg width="128" height="128" viewBox="0 0 128 128" fill="none" xmlns="http://www.w3.org/2000/svg">
<rect width="128" height="128" fill="white"/>
<path fill-rule="evenodd" clip-rule="evenodd" d="M90.0086 68L68 75.0499L90.0146 84L112 75.0791L90.0086 68Z" fill="#E8E0BE"/>
<path fill-rule="evenodd" clip-rule="evenodd" d="M87 45L87.0282 75L94 64.3765L87 45Z" fill="#8DC32B"/>
<path fill-rule="evenodd" clip-rule="evenodd" d="M114 62.6663L86.767 75.1535L93.589 64.1873L114 62.6663Z" fill="#3C8F69"/>
<path fill-rule="evenodd" clip-rule="evenodd" d="M15.226 76.8196V80H16.9C17.857 80 18.649 79.9288 19.277 79.7842C19.905 79.6396 20.443 79.3371 20.892 78.8724C21.341 78.4098 21.729 77.751 22.058 76.897C22.387 76.0431 22.731 74.9258 23.09 73.5473L26.977 58.048H22.851L20.757 69.5325H20.698L18.306 58.048H14L18.515 74.6584C18.455 75.3378 18.261 75.8841 17.932 76.295C17.603 76.707 17.06 76.9125 16.302 76.9125C15.943 76.9125 15.585 76.8826 15.226 76.8196Z" fill="#3C8F69"/>
<path fill-rule="evenodd" clip-rule="evenodd" d="M31.4697 63.8212C31.4697 63.4298 31.5047 63.0395 31.5736 62.6481C31.6437 62.2568 31.7586 61.9016 31.9177 61.5825C32.0777 61.2634 32.2917 61.0063 32.5606 60.8101C32.8297 60.616 33.1737 60.5179 33.5927 60.5179C34.0117 60.5179 34.3547 60.6046 34.6237 60.7802C34.8927 60.9547 35.1027 61.2128 35.2517 61.5515C35.4017 61.8912 35.5057 62.3032 35.5657 62.7865C35.6257 63.2708 35.6657 63.8315 35.6857 64.4696H31.4697V63.8212ZM39.6327 67.0016V66.0444C39.6327 64.7681 39.5527 63.6106 39.3927 62.5708C39.2337 61.5309 38.9347 60.646 38.4957 59.9159C38.0577 59.1849 37.4547 58.619 36.6867 58.2173C35.9197 57.8167 34.9377 57.6153 33.7417 57.6153C32.3467 57.6153 31.2307 57.8518 30.3927 58.3257C29.5557 58.7987 28.9127 59.4368 28.4647 60.2391C28.0157 61.0425 27.7167 61.9584 27.5677 62.9879C27.4177 64.0164 27.3437 65.0872 27.3437 66.1993C27.3437 67.2484 27.3877 68.2986 27.4777 69.3487C27.5677 70.3979 27.8117 71.3447 28.2107 72.1894C28.6087 73.032 29.2267 73.7115 30.0637 74.2257C30.9017 74.741 32.0677 74.9981 33.5627 74.9981C35.5357 74.9981 36.9807 74.4942 37.8977 73.4843C38.8147 72.4765 39.3137 71.005 39.3927 69.0699H35.6857C35.5657 70.1201 35.3467 70.9018 35.0277 71.416C34.7087 71.9313 34.1997 72.1894 33.5027 72.1894C33.1237 72.1894 32.8047 72.08 32.5457 71.8641C32.2867 71.6483 32.0777 71.3602 31.9177 70.9999C31.7587 70.6405 31.6437 70.2275 31.5737 69.7649C31.5047 69.3023 31.4697 68.8231 31.4697 68.3285V67.0016H39.6327Z" fill="#3C8F69"/>
<path fill-rule="evenodd" clip-rule="evenodd" d="M41.3739 75.045H45.5V53H41.3739V75.045Z" fill="#3C8F69"/>
<path fill-rule="evenodd" clip-rule="evenodd" d="M47.9898 75.045H52.1159V53H47.9898V75.045Z" fill="#3C8F69"/>
<path fill-rule="evenodd" clip-rule="evenodd" d="M62.201 70.4882C61.9273 71.3865 61.3339 71.8351 60.421 71.8351C59.4877 71.8351 58.8842 71.3865 58.6104 70.4882C58.3366 69.5889 58.1992 68.252 58.1992 66.4757C58.1992 64.6993 58.3366 63.3615 58.6104 62.4631C58.8842 61.5648 59.4877 61.1152 60.421 61.1152C61.3339 61.1152 61.9273 61.5648 62.201 62.4631C62.4758 63.3615 62.6122 64.6993 62.6122 66.4757C62.6122 68.252 62.4758 69.5889 62.201 70.4882ZM65.5942 59.9191C64.783 58.5772 63.5149 57.9058 61.7909 57.9058C60.9991 57.9058 60.3243 58.0668 59.7666 58.3899C59.2088 58.7129 58.7061 59.198 58.2603 59.8442H58.1992V53H54V75H58.0171V72.8955H58.0781C58.5442 73.6622 59.0664 74.1969 59.6444 74.5007C60.2235 74.8035 60.938 74.9544 61.7909 74.9544C63.5149 74.9544 64.783 74.2982 65.5942 72.9867C66.4064 71.6741 66.8114 69.5038 66.8114 66.4757C66.8114 63.4475 66.4064 61.262 65.5942 59.9191Z" fill="#333333"/>
<path fill-rule="evenodd" clip-rule="evenodd" d="M76.3133 70.8659C75.9897 71.7551 75.4014 72.1987 74.5495 72.1987C74.0417 72.1987 73.6356 72.0579 73.3313 71.7743C73.027 71.4918 72.799 71.0978 72.6464 70.5935C72.4947 70.0891 72.398 69.4835 72.3573 68.7766C72.3166 68.0697 72.2973 67.3031 72.2973 66.4756C72.2973 65.6482 72.3166 64.8805 72.3573 64.1736C72.398 63.4667 72.4947 62.8621 72.6464 62.3568C72.799 61.8524 73.027 61.4585 73.3313 61.1759C73.6356 60.8933 74.0417 60.7526 74.5495 60.7526C75.4014 60.7526 75.9897 61.1962 76.3133 62.0843C76.638 62.9725 76.8008 64.436 76.8008 66.4756C76.8008 68.5143 76.638 69.9777 76.3133 70.8659ZM80.6957 62.7204C80.4921 61.6499 80.1481 60.7526 79.6606 60.0255C79.1752 59.2983 78.5147 58.7585 77.6832 58.4051C76.8506 58.0516 75.8064 57.8855 74.5495 57.9058C73.3516 57.9058 72.343 58.0921 71.5207 58.4658C70.6984 58.8395 70.0348 59.3844 69.5279 60.1014C69.0201 60.8174 68.6557 61.7107 68.4318 62.7812C68.2089 63.8506 68.097 65.0821 68.097 66.4757C68.097 67.8895 68.1988 69.1352 68.4023 70.2148C68.6048 71.2954 68.9499 72.1937 69.4363 72.9107C69.9238 73.6277 70.5823 74.1513 71.4148 74.4845C72.2463 74.8177 73.2906 74.9747 74.5495 74.9544C75.7454 74.9544 76.755 74.7823 77.5763 74.4389C78.3986 74.0956 79.0622 73.567 79.5701 72.8499C80.0769 72.1329 80.4423 71.2397 80.6652 70.1702C80.888 69.0997 81 67.8682 81 66.4757C81 65.0426 80.8992 63.7909 80.6957 62.7204Z" fill="#333333"/>
</svg>
