<svg width="128" height="128" viewBox="0 0 128 128" fill="none" xmlns="http://www.w3.org/2000/svg">
<rect width="128" height="128" fill="#FF1A1A"/>
<path d="M52.9804 73.3335L56.6717 72.4813C56.7488 72.4635 56.8793 72.4339 57.0335 72.3836C58.0531 72.1108 58.9267 71.4537 59.4704 70.5507C60.0141 69.6476 60.1853 68.5693 59.948 67.5428L59.9332 67.4777C59.8111 66.9859 59.5979 66.5212 59.3046 66.1077C58.8913 65.5841 58.3797 65.1459 57.7984 64.8175C57.1141 64.4284 56.398 64.0978 55.6577 63.8292L51.6106 62.3527C49.3395 61.5094 47.0684 60.6898 44.7735 59.8879C43.2881 59.3612 42.028 58.8966 40.9339 58.5564C40.7257 58.4988 40.5191 58.4357 40.3143 58.367C38.9919 57.9646 38.0609 57.7959 37.2752 57.79C36.7501 57.7705 36.227 57.8654 35.7423 58.0681C35.236 58.2869 34.7814 58.6095 34.4081 59.015C34.2229 59.2248 34.0488 59.4441 33.8863 59.6719C33.5704 60.1562 33.3099 60.6743 33.1095 61.2165C32.3576 63.4328 31.9828 65.7592 32.0006 68.099C32.0154 70.2118 32.0718 72.9251 33.237 74.7656C33.5186 75.239 33.8952 75.6474 34.3429 75.964C35.1731 76.5351 36.0092 76.612 36.8838 76.6742C38.1884 76.7659 39.4485 76.4493 40.7086 76.1563L52.9715 73.3305L52.9804 73.3335ZM94.1632 53.7776C93.1556 51.6668 91.8006 49.7395 90.1546 48.0757C89.9419 47.8641 89.714 47.6682 89.4727 47.4898C89.2498 47.3229 89.0182 47.1678 88.7789 47.0252C88.5326 46.8905 88.2792 46.769 88.0199 46.6613C87.508 46.4604 86.9594 46.3697 86.4099 46.395C85.8851 46.4246 85.3722 46.5725 84.9067 46.8181C84.204 47.1673 83.4421 47.7295 82.4281 48.6675C82.2887 48.8065 82.1138 48.9634 81.9537 49.1113C81.1205 49.8954 80.1895 50.863 79.0836 51.9874C77.3728 53.7125 75.6917 55.4465 74.0166 57.1952L71.022 60.2962C70.4752 60.8618 69.9772 61.4726 69.5336 62.1219C69.1537 62.6714 68.8848 63.2895 68.742 63.9417C68.6618 64.4427 68.6738 64.9541 68.7775 65.4508L68.7924 65.5159C69.029 66.5413 69.6551 67.4351 70.5388 68.0091C71.4226 68.5831 72.495 68.7925 73.5303 68.5932C73.6549 68.5757 73.7786 68.552 73.9009 68.5222L89.8581 64.8412C91.1182 64.5512 92.3932 64.2849 93.5228 63.628C94.2818 63.1931 95.0023 62.7581 95.4974 61.8822C95.7612 61.3998 95.9207 60.8676 95.9659 60.3199C96.212 58.148 95.0764 55.6832 94.1632 53.7776ZM65.5962 60.4738C66.7525 59.0239 66.7525 56.8638 66.8533 55.0944C67.2032 49.1912 67.5678 43.288 67.8614 37.3819C67.9711 35.1449 68.2112 32.9375 68.0778 30.6828C67.9681 28.8246 67.9563 26.6882 66.7792 25.1614C64.7037 22.4687 60.2741 22.6906 57.2529 23.1108C56.3209 23.2393 55.3957 23.4131 54.4807 23.6316C53.5615 23.8505 52.6483 24.0902 51.7589 24.3772C48.8592 25.3241 44.7824 27.064 44.0945 30.3987C43.7032 32.2836 44.6282 34.2099 45.3398 35.932C46.2085 38.0151 47.3915 39.8941 48.4708 41.8559C51.326 47.0371 54.2316 52.1886 57.1283 57.3432C57.9971 58.8818 58.937 60.8288 60.6121 61.6278C60.7248 61.6751 60.8375 61.7165 60.9531 61.755C61.7032 62.0391 62.5245 62.0923 63.3043 61.9118L63.4436 61.8822C64.1671 61.684 64.8194 61.2904 65.3323 60.749C65.4272 60.6602 65.5132 60.5714 65.5991 60.4738H65.5962ZM64.2115 76.2776C63.7603 75.6441 63.1197 75.1692 62.3816 74.921C61.6435 74.6728 60.8456 74.664 60.1022 74.8958C59.9272 74.9533 59.7568 75.0235 59.5922 75.1059C59.3374 75.2356 59.0944 75.3871 58.8658 75.5586C58.2131 76.0719 57.63 76.6677 57.1313 77.331C57.0038 77.4938 56.8852 77.7098 56.731 77.8518L54.1634 81.373C52.7106 83.3496 51.2726 85.3292 49.8524 87.3383C48.9214 88.6373 48.1209 89.7351 47.4834 90.7027C47.3648 90.8861 47.2403 91.0873 47.1277 91.253C46.3657 92.4248 45.9358 93.2829 45.7134 94.0463C45.5473 94.5535 45.4946 95.0908 45.5592 95.6205C45.6304 96.1708 45.8172 96.7005 46.1048 97.1769C46.2589 97.4136 46.425 97.6444 46.6029 97.8663C46.9871 98.3077 47.4197 98.7047 47.8926 99.0499C49.6656 100.281 51.6047 101.166 53.6446 101.849C55.3435 102.411 57.1076 102.749 58.8925 102.849C59.1979 102.864 59.5032 102.858 59.8057 102.831C60.0861 102.805 60.3651 102.766 60.6418 102.713C60.9186 102.649 61.1917 102.57 61.4601 102.476C61.9818 102.281 62.4566 101.979 62.8536 101.589C63.2302 101.213 63.5207 100.76 63.7016 100.26C63.9981 99.5204 64.1938 98.5854 64.3242 97.1946C64.3331 96.9964 64.3628 96.7597 64.3835 96.5437C64.4843 95.3897 64.5318 94.0285 64.6029 92.4366C64.7304 89.9836 64.8283 87.5425 64.9053 85.0954L65.0714 80.7398C65.1099 79.7397 65.0773 78.6271 64.7986 77.6299C64.6761 77.1509 64.4779 76.6945 64.2115 76.2776ZM93.1878 83.0922C92.6541 82.5033 91.895 81.9204 90.6972 81.1984C90.5252 81.1008 90.3207 80.9735 90.1339 80.8611C89.1377 80.2604 87.9369 79.6331 86.5345 78.8727C84.379 77.6891 82.2235 76.541 80.0443 75.3988L76.1987 73.3631C76.0001 73.3039 75.7985 73.1618 75.6087 73.0701C74.8693 72.6932 74.0839 72.4137 73.2724 72.2386C72.9928 72.1848 72.7091 72.1551 72.4244 72.1499C72.2401 72.1489 72.0558 72.1598 71.8729 72.1824C71.1031 72.3011 70.3904 72.6593 69.8367 73.2061C69.283 73.7529 68.9164 74.4602 68.7894 75.2272C68.7331 75.7154 68.7509 76.2096 68.8457 76.6889C69.0325 77.7127 69.4891 78.7218 69.9635 79.6065L72.0152 83.4502C73.1597 85.6162 74.316 87.7703 75.502 89.9185C76.2669 91.3181 76.9044 92.5165 77.5003 93.5107C77.613 93.6971 77.7405 93.8983 77.8383 94.0729C78.5648 95.2654 79.1459 96.017 79.7359 96.5585C80.1289 96.9357 80.6006 97.2216 81.1173 97.3955C81.634 97.5694 82.1829 97.6272 82.7245 97.5645C83.0067 97.5302 83.2868 97.4808 83.5636 97.4166C84.1308 97.265 84.6789 97.0496 85.1973 96.7745C86.7579 95.9015 88.1964 94.827 89.4757 93.5788C91.0115 92.0697 92.3694 90.4245 93.425 88.5426C93.5732 88.2763 93.6977 88.0011 93.8045 87.7141C93.9038 87.4513 93.9899 87.1836 94.0624 86.9122C94.1247 86.6341 94.1721 86.3559 94.2047 86.0748C94.2579 85.5223 94.1943 84.9649 94.0179 84.4385C93.8439 83.9333 93.5604 83.4727 93.1878 83.0892V83.0922Z" fill="white"/>
</svg>
