<svg width="128" height="128" viewBox="0 0 128 128" fill="none" xmlns="http://www.w3.org/2000/svg">
<rect width="128" height="128" fill="#278AC5"/>
<path fill-rule="evenodd" clip-rule="evenodd" d="M91.5807 52.5831C91.5807 60.7343 88.0467 68.0573 82.4232 73.1079C77.5364 77.494 63.5017 102.338 63.5017 102.338C63.5017 102.338 50.9788 77.7059 46.169 73.6279C40.2036 68.5677 36.4193 61.0183 36.4193 52.5831C36.4193 37.3496 48.7641 25 63.9976 25C79.2311 25 91.5807 37.3496 91.5807 52.5831Z" fill="#E31E0C"/>
<path fill-rule="evenodd" clip-rule="evenodd" d="M72.8294 51.0315C72.8294 55.7691 68.9873 59.6064 64.2545 59.6064C59.5169 59.6064 55.6748 55.7691 55.6748 51.0315C55.6748 46.2987 59.5169 42.4567 64.2545 42.4567C68.9873 42.4567 72.8294 46.2987 72.8294 51.0315Z" fill="white"/>
</svg>
