<svg width="128" height="128" viewBox="0 0 128 128" fill="none" xmlns="http://www.w3.org/2000/svg">
<rect width="128" height="128" fill="black"/>
<rect x="44.6985" y="45.1884" width="41.4777" height="41.4777" fill="white"/>
<path d="M65.8105 92.1895L49.045 91.8829C43.6167 91.7762 38.1749 91.9893 32.8531 90.8827C24.7573 89.2285 24.1838 81.1195 23.5836 74.3172C22.7567 64.7543 23.0768 55.0178 24.6374 45.5346C25.5183 40.2136 28.9853 37.0385 34.3469 36.693C52.4461 35.4391 70.6656 35.5877 88.7246 36.1727C90.632 36.2263 92.5524 36.5194 94.4331 36.8531C103.716 38.4803 103.943 47.6699 104.545 55.4059C105.145 63.2216 104.891 71.0775 103.744 78.84C102.824 85.2672 101.063 90.657 93.6327 91.1771C84.3225 91.8578 75.2263 92.4054 65.8902 92.2311C65.8906 92.1895 65.8372 92.1895 65.8105 92.1895ZM55.954 75.9178C62.97 71.8897 69.8519 67.9286 76.8275 63.9274C69.7985 59.8991 62.9296 55.938 55.954 51.9368V75.9178Z" fill="#FF0000"/>
</svg>
