<svg width="128" height="128" viewBox="0 0 128 128" fill="none" xmlns="http://www.w3.org/2000/svg">
<rect width="128" height="128" fill="black"/>
<path fill-rule="evenodd" clip-rule="evenodd" d="M82.5827 35.8525C79.9977 36.2516 77.4796 37.33 75.5975 38.8439C75.2463 39.1263 74.9349 39.3575 74.9055 39.3575C74.8761 39.3575 74.852 38.7006 74.852 37.8978V36.4382H70.7974H66.7429V58.8734V81.3086H70.7974H74.852V74.6591C74.852 71.0019 74.8679 68.0096 74.8874 68.0096C74.9068 68.0096 75.1622 68.2319 75.455 68.5035C76.6895 69.6492 78.5027 70.4631 81.0149 70.9993C82.3177 71.2774 85.9524 71.2777 87.3361 70.9999C90.2804 70.4085 92.7337 69.1806 94.7379 67.2951C98.2205 64.019 100.144 59.1421 100.15 53.5726C100.154 50.4012 99.6873 47.9769 98.5585 45.3041C96.4092 40.2151 92.2434 36.688 87.3992 35.8559C86.1644 35.6438 83.9446 35.6423 82.5827 35.8525ZM30.1186 36.5733C30.9556 38.7469 40.0017 61.8165 41.5583 65.7472C42.4433 67.9818 43.2459 70.117 43.3421 70.4923C43.7289 72.0025 43.0961 73.3635 41.7244 73.9715C41.2834 74.167 40.9217 74.2249 39.9288 74.259C38.4782 74.3088 37.2003 74.1206 35.6767 73.6325C35.1189 73.4538 34.631 73.3076 34.5927 73.3076C34.5542 73.3076 34.5227 74.9597 34.5227 76.979V80.6505L35.3852 80.9229C37.2845 81.5229 38.3146 81.6727 40.5234 81.6706C42.7881 81.6683 44.1336 81.464 45.5078 80.9138C47.7343 80.0226 49.5294 78.0245 50.7928 75.0314C51.262 73.9197 64.0399 36.8073 64.0399 36.5561C64.0399 36.473 62.7866 36.4382 59.789 36.4382H55.5379L51.6629 49.3633C49.5316 56.4722 47.7532 62.2499 47.711 62.2028C47.6689 62.1556 45.6938 56.3399 43.3221 49.2789L39.0097 36.4407L34.5382 36.4395C31.0049 36.4384 30.0775 36.4665 30.1186 36.5733ZM80.9911 43.4642C79.4084 43.8657 78.0775 44.6995 77.0701 45.9208C74.3865 49.1741 73.8847 55.0111 75.9288 59.1977C77.3805 62.1713 79.8072 63.6848 83.1233 63.6848C87.8806 63.6848 90.9565 60.3943 91.5263 54.6957C91.7499 52.4593 91.3108 49.7718 90.4172 47.9068C89.3453 45.67 87.9139 44.3333 85.8252 43.619C85.0711 43.3611 84.7622 43.319 83.3936 43.288C82.1093 43.2589 81.6749 43.2908 80.9911 43.4642Z" fill="white"/>
<rect x="27.603" y="84.8766" width="72.5495" height="7.4604" fill="#FFDD00"/>
</svg>
