<svg width="128" height="128" viewBox="0 0 128 128" fill="none" xmlns="http://www.w3.org/2000/svg">
<rect width="128" height="128" fill="#FFC630"/>
<path d="M86.0985 100.831C69.4427 108.519 39.6543 87.0581 31.6467 70.4022C23.6391 53.7464 33.5685 37.4108 50.2244 29.4032C55.6696 26.8408 61.4351 25.5596 67.2005 25.5596C78.0909 25.5596 88.3407 30.6844 93.4655 41.8951C101.473 58.2307 102.754 92.8236 86.0985 100.831Z" fill="black"/>
<path d="M48.6226 42.8572H59.1926C62.716 42.8572 68.8018 43.4978 72.0048 49.9039L87.6997 83.2156C86.0982 84.8171 83.5358 84.8171 81.9343 83.2156C81.9343 83.2156 81.6139 82.8953 81.6139 82.575L68.1612 63.3567C66.2393 60.4739 62.3957 59.8333 59.5129 61.7552C59.1926 61.7552 59.1926 62.0755 58.8723 62.3958L55.0287 65.9191C53.4271 67.5206 50.8647 67.5206 49.2632 65.9191L48.9429 65.5988L52.4662 60.7942C54.7084 57.2709 55.0287 52.7866 52.7865 49.2633L48.6226 42.8572ZM54.7084 77.7704C54.0677 78.7313 54.0677 79.6922 54.0677 80.9734C54.0677 83.2156 56.9505 85.1374 56.9505 85.1374L66.8799 68.1613C67.2002 67.2003 67.2002 66.2394 66.8799 65.5988C64.6378 62.3958 61.7551 63.3567 61.7551 63.3567L54.7084 77.7704Z" fill="white"/>
</svg>
