<svg width="129" height="129" viewBox="0 0 129 129" fill="none" xmlns="http://www.w3.org/2000/svg">
<rect width="128" height="128" transform="translate(0.333496 0.416748)" fill="#DBB704"/>
<path d="M37.7976 75.0377C37.3134 75.1345 36.813 75.1668 36.2803 75.1668C34.8761 75.1668 33.617 74.8763 32.5356 74.2629C31.4541 73.6657 30.6148 72.8102 30.0014 71.6803C29.388 70.5504 29.0975 69.1946 29.0975 67.6289C29.0975 65.9825 29.4526 64.6105 30.1628 63.4644C30.873 62.3184 31.7931 61.4468 32.923 60.8496C34.0529 60.2523 35.2312 59.9457 36.4579 59.9457C37.7169 59.9457 38.7984 60.2039 39.6861 60.7204C40.59 61.237 41.2841 61.9472 41.7683 62.8672C42.2526 63.7711 42.4947 64.8203 42.4947 65.9986C42.4947 66.2569 42.4786 66.499 42.4624 66.725C42.4463 66.9509 42.3978 67.1769 42.3333 67.3706H33.3265C33.3426 69.4367 33.73 72.0677 34.4725 73.246C35.2312 74.4404 36.3126 75.0377 37.7492 75.0377H37.7976ZM36.3126 60.8011C35.7315 60.8011 35.2312 60.9626 34.7953 61.2854C34.3595 61.6082 34.0367 62.1893 33.7785 63.0125C33.5202 63.8518 33.3749 64.9979 33.3426 66.499H38.7015C38.9113 64.4813 38.8306 63.0286 38.4594 62.1247C38.0881 61.2531 37.3779 60.8011 36.3126 60.8011ZM66.7388 59.9457C65.4797 59.9457 64.5113 60.5106 63.8495 61.6405C63.1716 62.7865 62.8487 64.8849 62.8487 67.1446C62.8487 69.0816 63.22 70.5666 63.9463 71.6157C64.6888 72.6488 65.8349 73.1814 67.3844 73.1814C68.3045 73.1814 69.0631 73.0039 69.6603 72.6649C70.2575 72.3098 70.8063 71.8094 71.3067 71.1476L71.7909 71.5189C71.2906 72.7133 70.5319 73.6334 69.4989 74.2468C68.482 74.8763 67.2391 75.1991 65.8349 75.1991C64.479 75.1991 63.2523 74.9085 62.1547 74.3113C61.0571 73.7141 60.2016 72.8586 59.5721 71.7449C58.9426 70.615 58.6197 69.243 58.6197 67.6289C58.6197 66.0148 58.9748 64.6266 59.6689 63.4967C60.363 62.3507 61.2992 61.4791 62.4775 60.8819C63.6396 60.2846 64.9309 59.9779 66.3191 59.9779C66.4644 59.9457 66.5935 59.9457 66.7388 59.9457ZM76.827 72.6004C76.827 73.0039 76.9077 73.3106 77.0691 73.5527C77.2305 73.7948 77.5049 73.9562 77.8762 74.0692L78.1506 74.166V74.7633H71.3229V74.166L71.7102 74.0369C72.4205 73.8271 72.7917 73.3267 72.7917 72.5519V57.1371C72.7917 56.7174 72.7271 56.4107 72.5819 56.1848C72.4527 55.9749 72.1783 55.8135 71.7748 55.7167L71.3229 55.5875V55.0226L76.375 53.7313L76.827 53.9896V72.6004ZM48.2248 72.6004C48.2248 73.0039 48.3055 73.3106 48.4669 73.5527C48.6283 73.7948 48.9027 73.9562 49.274 74.0692L49.5484 74.166V74.7633H42.7207V74.166L43.1081 74.0369C43.8183 73.8271 44.1895 73.3267 44.1895 72.5519V63.755C44.1895 63.3353 44.125 63.0286 43.9797 62.8027C43.8506 62.5928 43.5762 62.4314 43.1726 62.3346L42.7207 62.2054V61.6405L47.7729 59.8004L48.2248 60.0587V72.6004ZM50.42 60.8496C51.2594 60.3169 52.1471 59.9457 53.0995 59.9457C54.423 59.9457 55.4399 60.3169 56.1986 61.0433C56.9572 61.7858 57.3284 62.9156 57.3284 64.4652V72.5681C57.3284 72.9716 57.4091 73.2783 57.5706 73.5204C57.732 73.7625 58.0225 73.9401 58.4099 74.0531L58.6843 74.1499V74.7471H51.8566V74.1499L52.2278 74.0208C52.938 73.8271 53.3093 73.3267 53.3093 72.5358V63.8841C53.3093 63.0609 53.3254 61.9633 52.6636 61.2854C52.2117 60.8334 51.5338 60.785 50.42 60.8496ZM79.0222 60.8496C79.8615 60.3169 80.7493 59.9457 81.7016 59.9457C83.0252 59.9457 84.0421 60.3169 84.8007 61.0433C85.5594 61.7858 85.9306 62.9156 85.9306 64.4652V72.5681C85.9306 72.9716 86.0113 73.2783 86.1727 73.5204C86.3342 73.7625 86.6247 73.9401 87.0121 74.0531L87.2865 74.1499V74.7471H80.4588V74.1499L80.83 74.0208C81.5402 73.8271 81.9115 73.3267 81.9115 72.5358V63.8841C81.9115 63.0609 81.9276 61.9633 81.2658 61.2854C80.7977 60.8334 80.1359 60.785 79.0222 60.8496ZM107.463 53.8282C107.221 53.8927 106.963 54.6191 106.866 55.0226C106.704 55.7812 106.672 56.1686 106.575 57.2017C106.478 58.2186 106.43 59.4614 106.414 60.3976H109.852V61.3177H106.414V68.4682C106.414 69.1461 106.414 69.8241 106.43 70.4859C106.446 71.1638 106.446 71.8256 106.446 72.5035C106.446 73.2944 106.85 73.7948 107.641 73.9724L108.415 74.1822V74.7471H100.7V74.1822L101.152 74.0531C101.943 73.8432 102.362 73.3429 102.379 72.5842C102.379 71.8901 102.379 71.1961 102.395 70.502C102.411 69.8241 102.411 69.13 102.411 68.4521V61.3177H100.7V60.6559L101.362 60.5267C101.765 60.4622 102.04 60.3169 102.233 60.0909C102.427 59.865 102.54 59.526 102.621 59.1225C102.83 58.3315 103.137 57.6375 103.508 57.0402C103.88 56.443 104.315 55.9104 104.848 55.41C105.591 54.6998 106.382 54.1994 107.221 53.925C107.285 53.8927 107.366 53.8604 107.463 53.8282ZM27.7255 70.1469L26.6763 72.326C26.4342 72.8263 26.176 73.2137 25.8854 73.5043C25.5949 73.7948 25.1591 73.9401 24.5457 73.9401H20.2199L28.1775 60.9787V60.3815H24.5296L15.9102 74.0853V74.7471H28.242L28.5164 70.1308H27.7255V70.1469ZM18.3636 60.3815C17.1853 60.3815 16.2168 61.3338 16.2168 62.5283C16.2168 63.7227 17.1692 64.675 18.3636 64.675C19.5581 64.675 20.5104 63.7227 20.5104 62.5283C20.5104 61.3338 19.5419 60.3815 18.3636 60.3815ZM39.7507 69.582C38.5724 69.582 37.6039 70.5343 37.6039 71.7287C37.6039 72.907 38.5562 73.8755 39.7507 73.8755C40.929 73.8755 41.8975 72.9232 41.8975 71.7287C41.8975 70.5343 40.9451 69.582 39.7507 69.582ZM95.922 75.0377C95.4378 75.1345 94.9374 75.1668 94.4048 75.1668C93.0005 75.1668 91.7415 74.8763 90.66 74.2629C89.5785 73.6495 88.7392 72.8102 88.1258 71.6803C87.5125 70.5504 87.2219 69.1946 87.2219 67.6289C87.2219 65.9825 87.577 64.6105 88.2872 63.4644C88.9975 62.3184 89.9175 61.4468 91.0474 60.8496C92.1773 60.2523 93.3556 59.9457 94.5823 59.9457C95.8413 59.9457 96.9228 60.2039 97.8105 60.7204C98.7144 61.237 99.4085 61.9472 99.8928 62.8672C100.377 63.7873 100.619 64.8203 100.619 65.9986C100.619 66.2569 100.603 66.499 100.587 66.725C100.571 66.9509 100.522 67.1769 100.458 67.3706H91.4509C91.4671 69.4367 91.8544 72.0677 92.5969 73.246C93.3556 74.4404 94.437 75.0377 95.8736 75.0377H95.922ZM94.437 60.8011C93.856 60.8011 93.3556 60.9626 92.9198 61.2854C92.4839 61.6082 92.1611 62.1893 91.9029 63.0125C91.6446 63.8518 91.4993 64.9979 91.4671 66.499H96.8259C97.0358 64.4813 96.9551 63.0286 96.5838 62.1247C96.2287 61.2531 95.5024 60.8011 94.437 60.8011ZM97.8912 69.582C96.7129 69.582 95.7445 70.5343 95.7445 71.7287C95.7445 72.907 96.6968 73.8755 97.8912 73.8755C99.0695 73.8755 100.038 72.9232 100.038 71.7287C100.022 70.5343 99.0695 69.582 97.8912 69.582ZM110.611 53.6345C109.432 53.6345 108.464 54.5868 108.464 55.7812C108.464 56.9595 109.416 57.928 110.611 57.928C111.805 57.928 112.757 56.9757 112.757 55.7812C112.757 54.6029 111.805 53.6345 110.611 53.6345ZM69.5312 61.2854C68.3529 61.2854 67.3844 62.2377 67.3844 63.4322C67.3844 64.6105 68.3367 65.5789 69.5312 65.5789C70.7095 65.5789 71.678 64.6266 71.678 63.4322C71.6618 62.2377 70.6933 61.2854 69.5312 61.2854Z" fill="white"/>
</svg>
