<svg width="129" height="129" viewBox="0 0 129 129" fill="none" xmlns="http://www.w3.org/2000/svg">
<rect width="128" height="128" transform="translate(0.333496 0.277832)" fill="#0E9790"/>
<path d="M34.0994 54.945H16.8126V58.69H26.4082L15.4209 73.6222H33.5634V69.8771H23.1117L34.0994 54.945Z" fill="white"/>
<path d="M40.4189 69.8771V65.8755H47.7641V62.1032H40.4189V58.69H47.9246V54.945H36.4459V73.6222H48.3264V69.8771H40.4189Z" fill="white"/>
<path d="M64.4855 54.945V66.5863L55.2412 54.945H51.6406V73.6222H55.5726V61.7533L64.806 73.3795L64.9998 73.6222H68.4183V54.945H64.4855Z" fill="white"/>
<path d="M109.313 54.945V66.5863L100.261 55.1881L100.069 54.945H96.4686V73.6222H100.401V61.7533L109.827 73.6222H113.245V54.945H109.313Z" fill="white"/>
<path d="M89.0612 54.945V73.5019H93.0736V54.945H89.0612Z" fill="white"/>
<path d="M87.4809 73.0083L83.2275 66.8848C82.9334 66.4224 82.1274 65.2193 81.3427 64.6262C82.3736 64.0028 83.6965 62.6981 83.7034 60.1086L83.7025 60.1202C83.7077 59.9896 83.7761 56.9151 80.6388 55.3832L80.6272 55.3772L80.6163 55.372C80.6073 55.3685 80.6003 55.3646 80.5917 55.3612L80.5826 55.3555L80.5735 55.3512C80.3555 55.2474 80.1232 55.1514 79.8839 55.0653L79.8714 55.0609L79.858 55.0566C79.4946 54.9575 79.1117 54.9009 78.8565 54.8697L78.8344 54.8667H71.9219V73.6888H75.997V66.0953C76.5429 66.0547 77.7849 66.1204 78.8098 67.3296L83.0575 73.4163L83.1648 73.5694H87.8728L87.4809 73.0083ZM78.5277 62.285L78.4974 62.2954C78.0177 62.4649 77.4107 62.4303 77.406 62.4299L75.9957 62.4295V58.395H77.8706C78.109 58.4097 78.3209 58.4582 78.4689 58.5317C78.4966 58.546 78.5212 58.5559 78.5424 58.5637C79.0425 58.8216 79.6296 59.3701 79.6296 60.5325C79.6283 61.4072 79.2575 61.996 78.5277 62.285ZM75.6379 65.7847L75.7175 66.1312L75.7149 66.1338L75.6379 65.7847Z" fill="white"/>
</svg>
