<svg width="129" height="128" viewBox="0 0 129 128" fill="none" xmlns="http://www.w3.org/2000/svg">
<rect width="128" height="128" transform="translate(0.333008)" fill="#006AFF"/>
<path fill-rule="evenodd" clip-rule="evenodd" d="M76.1177 46.1251C76.4563 46.0363 76.6109 46.1645 76.8114 46.4012C77.9621 47.7689 81.6705 52.536 82.6798 53.8412C82.7167 53.8874 82.7436 53.9406 82.7592 53.9976C82.7747 54.0546 82.7784 54.1142 82.7701 54.1726C82.7618 54.2311 82.7416 54.2873 82.7108 54.3377C82.68 54.3881 82.6393 54.4317 82.5911 54.4658C75.115 60.6236 66.7972 69.3326 62.1617 75.5725C62.063 75.704 62.1452 75.7139 62.211 75.6843C70.2854 72.0153 89.2486 66.16 97.803 64.5195V53.0982L64.3677 25.2025L30.8633 53.0982V65.5814C41.249 59.0685 65.2455 48.9853 76.1177 46.1251ZM48.1925 93.9866C48.3733 94.2102 48.6856 94.2562 48.9157 94.0984C61.3365 87.3456 88.6601 78.7747 97.803 77.1341V102.798H30.8666V76.1347C37.7476 72.0251 56.336 63.5956 62.8784 61.3403C63.0099 61.2943 63.0395 61.3732 62.9277 61.4619C56.6483 66.3836 46.8051 77.9988 41.9821 85.465C41.7618 85.8135 41.775 85.9253 41.9492 86.139L48.1925 93.9866Z" fill="white"/>
</svg>
