<svg width="128" height="128" viewBox="0 0 128 128" fill="none" xmlns="http://www.w3.org/2000/svg">
<rect width="128" height="128" fill="white"/>
<path fill-rule="evenodd" clip-rule="evenodd" d="M58.0842 58.9611C57.9112 59.222 57.7732 59.4159 57.6492 59.6169C54.9962 63.9196 52.3122 68.2053 49.6982 72.5319C46.7532 77.4085 43.8262 82.295 40.9782 87.2295C39.0442 90.5775 40.2262 94.3753 43.6292 96.2147C44.5232 96.6986 45.1432 96.5686 45.7662 95.7539C52.0472 87.5444 58.3252 79.3299 64.6172 71.1284C64.9142 70.7425 64.8962 70.4706 64.6592 70.0787C63.4812 68.1223 62.3312 66.1489 61.1702 64.1815C60.1572 62.466 59.1422 60.7515 58.0842 58.9611ZM57.2202 52.2461C57.4172 52.543 57.5592 52.74 57.6842 52.9479C60.0942 56.9607 62.5002 60.9755 64.9112 64.9882C70.7032 74.6273 76.4922 84.2704 82.3062 93.8984C82.7242 94.5912 83.2462 95.271 83.8632 95.7849C86.0632 97.6173 88.4942 97.5273 90.9872 96.4457C91.7542 96.1128 92.1782 95.424 92.0712 94.5862C92.0122 94.1134 91.8552 93.6335 91.6552 93.1987C87.4362 84.0364 83.1892 74.8882 78.9772 65.723C73.7092 54.2645 68.4632 42.796 63.2222 31.3245C62.9772 30.7877 62.6892 30.5907 62.0792 30.5927C55.1702 30.6187 48.2622 30.6097 41.3542 30.6097H40.5182C40.6842 30.9256 40.7962 31.1316 40.9032 31.3415C41.7712 33.038 42.7042 34.7055 43.4912 36.4389C46.3522 42.737 46.0722 48.9071 42.6342 54.9303C40.9732 57.8404 38.9192 60.4496 36.6522 62.9009C35.9702 63.6387 35.9852 63.8596 36.7742 64.5004C38.7482 66.1049 40.9842 66.6098 43.4582 66.0559C46.1832 65.4471 48.4312 63.9656 50.4612 62.1271C53.4652 59.4049 55.8032 56.2119 57.2202 52.2461ZM27.0812 63.9745C27.0812 53.2258 27.0792 42.4771 27.0822 31.7293C27.0832 29.545 28.1662 27.9285 30.0532 27.3277C30.4902 27.1887 30.9652 27.1087 31.4222 27.1087C53.1472 27.0977 74.8732 27.0987 96.5982 27.1017C98.9372 27.1017 100.855 28.9772 100.898 31.2985C100.922 32.6091 100.912 33.9187 100.912 35.2293C100.913 55.5041 100.907 75.7799 100.924 96.0547C100.926 97.6133 100.531 98.9418 99.2982 99.9495C98.6092 100.511 97.8272 100.852 96.9282 100.889C96.6402 100.902 96.3512 100.911 96.0632 100.911C74.6702 100.912 53.2782 100.907 31.8862 100.923C30.2162 100.924 28.7812 100.478 27.8722 99.0368C27.4642 98.39 27.2122 97.5783 27.1222 96.8145C26.9952 95.7418 27.0812 94.6422 27.0812 93.5535C27.0812 83.6945 27.0812 73.8335 27.0812 63.9745Z" fill="#FFF100"/>
<path d="M57.2198 52.2458C55.8028 56.2126 53.4648 59.4056 50.4608 62.1268C48.4308 63.9663 46.1828 65.4468 43.4578 66.0556C40.9838 66.6094 38.7478 66.1046 36.7738 64.5001C35.9848 63.8593 35.9698 63.6384 36.6528 62.9016C38.9198 60.4493 40.9728 57.8401 42.6338 54.93C46.0718 48.9078 46.3518 42.7377 43.4908 36.4386C42.9495 35.247 42.3391 34.0861 41.7287 32.9251C41.4516 32.3981 41.1745 31.8711 40.9038 31.3412C40.8404 31.2167 40.7748 31.0935 40.6973 30.948C40.6441 30.8482 40.5854 30.7379 40.5178 30.6094H41.3538C42.7668 30.6094 44.1798 30.6098 45.5929 30.6102C51.0882 30.6116 56.5838 30.6131 62.0788 30.5924C62.6888 30.5904 62.9768 30.7874 63.2218 31.3242C68.4628 42.7957 73.7088 54.2652 78.9768 65.7227C81.3424 70.869 83.7184 76.0102 86.0944 81.1513C87.9499 85.1663 89.8054 89.1812 91.6558 93.1983C91.8558 93.6332 92.0118 94.1131 92.0718 94.5869C92.1778 95.4237 91.7538 96.1125 90.9878 96.4454C88.4938 97.527 86.0628 97.618 83.8638 95.7856C83.2458 95.2707 82.7238 94.5909 82.3058 93.8981C77.1411 85.3452 71.996 76.7812 66.8511 68.2174L64.9108 64.9879C63.6006 62.8072 62.2918 60.6259 60.9831 58.4447L60.9614 58.4084C59.8691 56.588 58.7769 54.7676 57.6838 52.9476C57.5979 52.8054 57.5044 52.6674 57.3901 52.4986C57.3381 52.4218 57.2817 52.3386 57.2198 52.2458Z" fill="black"/>
<path d="M58.0842 58.9611C58.5359 59.7255 58.9798 60.4761 59.419 61.2188L59.425 61.2289C60.0125 62.2223 60.5916 63.2017 61.1702 64.1815C61.4912 64.7255 61.8114 65.2699 62.1316 65.8143L62.1322 65.8155C62.9697 67.2396 63.8071 68.6636 64.6592 70.0787C64.8962 70.4706 64.9142 70.7425 64.6172 71.1284C59.7222 77.5088 54.8358 83.8971 49.9498 90.2849L49.9462 90.2895C48.5529 92.1111 47.1596 93.9326 45.7662 95.7538C45.1432 96.5686 44.5232 96.6986 43.6292 96.2147C40.2262 94.3753 39.0442 90.5774 40.9782 87.2294C43.8262 82.295 46.7532 77.4084 49.6982 72.5319C51.5193 69.5177 53.3743 66.5233 55.2292 63.5293C56.0368 62.2257 56.8445 60.9219 57.6492 59.6169C57.729 59.4875 57.8146 59.3611 57.9117 59.2178C57.9653 59.1385 58.0226 59.0539 58.0842 58.9611Z" fill="black"/>
<path fill-rule="evenodd" clip-rule="evenodd" d="M55.7252 103.986C47.844 103.983 39.9627 103.981 32.0808 104C30.1268 104.004 28.3337 103.628 26.7957 102.371C25.0487 100.945 24.1017 99.1085 24.0077 96.8452C24.0006 96.6661 24.0006 96.4863 24.0007 96.3063L24.0008 96.2463C23.9997 74.7499 23.9997 53.2534 24.0008 31.757C24.0018 28.1721 26.0217 25.2959 29.2677 24.3572C30.0657 24.1263 30.9288 24.0163 31.7607 24.0153C53.2638 23.9973 74.7668 23.9973 96.2698 24.0043C100.777 24.0063 103.998 27.2384 103.998 31.735C104.001 53.2534 104.001 74.7719 103.998 96.2913C103.998 100.191 101.519 103.223 97.7828 103.887C97.2418 103.984 96.6768 103.984 96.1227 103.984C86.9453 103.988 77.7679 103.988 68.5905 103.988L64.0018 103.988C61.2429 103.988 58.4841 103.987 55.7252 103.986ZM27.0807 93.5531C27.0807 93.8647 27.0738 94.1771 27.0668 94.4896C27.0625 94.6856 27.0581 94.8815 27.0554 95.0773C27.0473 95.6602 27.0543 96.2412 27.1222 96.8145C27.2122 97.5783 27.4642 98.39 27.8722 99.0368C28.7812 100.478 30.2162 100.924 31.8862 100.923C35.1902 100.921 38.4942 100.919 41.7982 100.917C54.9344 100.911 68.0704 100.912 81.207 100.912H81.2568C86.192 100.912 91.1273 100.912 96.0628 100.912C96.225 100.912 96.3875 100.909 96.5501 100.904C96.6762 100.9 96.8023 100.895 96.9282 100.889C97.8272 100.852 98.6092 100.511 99.2982 99.9495C100.531 98.9418 100.926 97.6133 100.924 96.0547C100.921 92.4435 100.919 88.8322 100.917 85.2209C100.912 73.4497 100.912 61.6782 100.913 49.9069C100.913 45.0142 100.913 40.1215 100.913 35.2289C100.913 34.9414 100.913 34.654 100.914 34.3664C100.915 33.344 100.917 32.321 100.899 31.2981C100.856 28.9768 98.9367 27.1013 96.5977 27.1013C87.3095 27.1001 78.0213 27.0993 68.7331 27.0998C56.2961 27.1001 43.859 27.1024 31.4222 27.1087C30.9652 27.1087 30.4902 27.1887 30.0532 27.3277C29.5722 27.4808 29.1435 27.6999 28.7716 27.9776C27.684 28.789 27.0825 30.1013 27.0817 31.7289C27.0811 35.0767 27.0808 38.4246 27.0806 41.7723L27.0806 43.2002C27.0804 47.4378 27.0805 51.6754 27.0806 55.9128L27.0807 93.5531Z" fill="black"/>
</svg>
