<svg width="128" height="128" viewBox="0 0 128 128" fill="none" xmlns="http://www.w3.org/2000/svg">
<rect width="128" height="128" fill="white"/>
<rect width="128" height="128" fill="#FEED5A"/>
<path d="M63.97 97.68C57.38 97.68 50.86 96.41 44.76 93.93L41.94 92.74V87.84L76.08 37.23H42.14V29.91H85.87V35.82L50.51 88.25C54.86 89.66 59.4 90.37 63.97 90.37C71.59 90.37 79.09 88.43 85.76 84.75L89.31 91.16C81.56 95.45 72.84 97.7 63.98 97.7L63.97 97.68Z" fill="#333333"/>
<path d="M43.64 67.44C46.4456 67.44 48.72 65.1656 48.72 62.36C48.72 59.5544 46.4456 57.28 43.64 57.28C40.8344 57.28 38.56 59.5544 38.56 62.36C38.56 65.1656 40.8344 67.44 43.64 67.44Z" fill="#333333"/>
<path d="M84.24 67.44C87.0456 67.44 89.32 65.1656 89.32 62.36C89.32 59.5544 87.0456 57.28 84.24 57.28C81.4344 57.28 79.16 59.5544 79.16 62.36C79.16 65.1656 81.4344 67.44 84.24 67.44Z" fill="#333333"/>
</svg>
