<svg width="128" height="128" viewBox="0 0 128 128" fill="none" xmlns="http://www.w3.org/2000/svg">
<rect width="128" height="128" fill="#231F20"/>
<path fill-rule="evenodd" clip-rule="evenodd" d="M44.2408 56.427C41.1022 56.427 38.1985 59.155 38.0249 62.2884C37.8471 65.4863 38.7838 67.7132 41.911 67.9804C46.1537 68.3432 48.8297 65.1339 49.0158 61.5867C49.1936 58.212 47.3805 56.427 44.2408 56.427ZM46.1745 61.9412C45.9967 63.8946 44.9311 65.6714 42.7999 65.4936C41.0908 65.3512 40.7487 64.0423 40.8464 62.2967C40.941 60.5845 42.514 58.7516 44.2211 58.9221C45.9967 59.0999 46.3419 60.1031 46.1745 61.9412Z" fill="white"/>
<path d="M52.391 56.7908H58.2451C58.8242 56.7908 59.3107 57.2503 59.318 57.8305V57.8564C59.318 58.7443 58.9624 59.2776 58.9624 59.2776C58.9624 59.2776 58.0746 61.0533 56.1201 62.2967C54.1666 63.5401 52.0354 65.3158 52.5687 65.4935C53.0168 65.6432 56.2365 65.5414 57.2429 65.505C57.5662 65.4935 57.8635 65.6848 57.9789 65.9874C58.0361 66.1329 58.0746 66.3211 58.0746 66.5591C58.0746 66.5987 58.0725 66.6361 58.0704 66.6714C58.032 67.2141 57.5579 67.6248 57.0121 67.6248H49.9988C49.558 67.6248 49.2014 67.2713 49.1941 66.8294V66.7369C49.1941 65.8491 49.7264 64.9602 49.7264 64.9602C49.7264 64.9602 50.9698 63.1845 52.391 62.1189C53.8121 61.0533 55.5878 59.6321 55.5878 59.6321C55.5878 59.6321 55.9434 59.2776 55.7656 59.0998C55.6232 58.9574 53.101 59.0427 52.0916 59.0822C51.737 59.0967 51.4044 58.8961 51.2599 58.5717C51.1944 58.4241 51.1476 58.2442 51.1476 58.0342C51.1476 57.3231 51.5031 57.1453 51.5031 57.1453C51.6528 56.9956 51.8379 56.8813 52.0437 56.8303C52.0926 56.8179 52.1456 56.8075 52.1986 56.8012C52.2641 56.794 52.3296 56.7908 52.391 56.7908Z" fill="white"/>
<path d="M59.7058 66.5258L61.0937 57.6786C61.0937 57.6786 61.0937 56.4353 62.5148 56.4353C63.4761 56.4353 63.7057 57.0049 63.7538 57.3731C63.6125 57.5429 63.5805 57.6714 63.5805 57.6714L63.7582 57.6786C63.7582 57.6786 63.7767 57.5488 63.7538 57.3731C64.0825 56.9778 65.003 56.3585 67.4884 56.613C68.895 56.7565 69.5666 57.6152 69.8775 58.555C70.1239 59.2984 70.1634 60.0937 70.0355 60.8651L69.1123 66.4032C69.0874 66.5539 69.0468 66.7005 68.9865 66.8409C68.8108 67.2546 68.3752 67.9803 67.4884 67.9803C66.742 67.9803 66.508 67.4688 66.4394 67.0592C66.402 66.8367 66.4134 66.608 66.454 66.3865L67.451 60.9025C67.5009 60.6312 67.4998 60.3494 67.426 60.0833C67.2961 59.6123 66.926 59.025 65.8895 58.922C65.0006 58.8326 64.3799 59.2329 63.9797 59.655C63.6345 60.0188 63.411 60.4815 63.305 60.9711L62.0709 66.6808C61.994 67.0353 61.7798 67.3472 61.47 67.5374C61.2361 67.6809 60.9294 67.8025 60.5603 67.8025C60.0728 67.8025 59.8524 67.4802 59.7536 67.1902C59.6819 66.977 59.6715 66.7483 59.7058 66.5258Z" fill="white"/>
<path d="M82.0522 67.2621L83.7832 57.7391C83.8289 57.4896 83.937 57.2505 84.1169 57.0717C84.3165 56.871 84.6284 56.6933 85.0713 56.7827C85.9601 56.9604 85.9601 57.8483 85.9601 57.8483C85.9601 57.8483 87.5581 56.6049 89.3348 56.7827C91.1105 56.9604 91.8205 58.3816 91.8205 58.3816C91.8205 58.3816 93.2417 56.4271 95.9062 56.7827C97.0717 56.9376 97.7609 57.5354 98.1685 58.1581C98.6134 58.838 98.7673 59.6687 98.6498 60.4733L97.7204 66.8223C97.6736 67.1373 97.5541 67.4409 97.3492 67.6831C97.1049 67.9732 96.7057 68.2383 96.084 68.1499C94.8406 67.9732 95.0184 67.0843 95.0184 67.0843L96.084 61.4007C96.084 61.4007 96.4385 59.0917 94.4851 59.0917C92.5316 59.0917 92.1761 61.2229 92.1761 61.2229L91.2882 66.9065C91.2882 66.9065 91.1105 68.1499 89.6903 67.9732C88.2681 67.7954 88.6237 66.1965 88.6237 66.1965L89.5126 61.0451C89.5126 61.0451 90.0438 59.2694 87.9136 59.0917C85.7824 58.9139 85.6046 62.4663 85.6046 62.4663L84.8935 66.551C84.8935 66.551 84.7168 68.1499 83.2956 68.1499C81.8744 68.1499 82.0522 67.2621 82.0522 67.2621Z" fill="white"/>
<path d="M108.138 67.4914C108.637 67.1172 108.886 66.5703 108.886 65.854C108.886 65.5078 108.825 65.2105 108.704 64.961C108.583 64.7104 108.396 64.49 108.141 64.2977C107.887 64.1064 107.487 63.9006 106.942 63.6791C106.329 63.4327 105.932 63.2477 105.751 63.1229C105.57 62.9982 105.48 62.8495 105.48 62.679C105.48 62.3754 105.76 62.2226 106.323 62.2226C106.64 62.2226 106.951 62.2704 107.254 62.3671C107.365 62.4014 107.478 62.4399 107.595 62.4815C107.957 62.6125 108.359 62.4378 108.509 62.0823L108.524 62.0448C108.687 61.656 108.484 61.2048 108.083 61.078C107.518 60.8992 106.941 60.8098 106.354 60.8098C105.471 60.8098 104.789 60.9803 104.308 61.3202C103.826 61.6591 103.586 62.1395 103.586 62.7601C103.586 63.1229 103.643 63.4286 103.757 63.676C103.872 63.9245 104.055 64.1439 104.308 64.3362C104.56 64.5275 104.955 64.7354 105.491 64.961C105.867 65.119 106.167 65.2573 106.393 65.3758C106.616 65.4943 106.775 65.6014 106.868 65.695C106.958 65.7896 107.004 65.9112 107.004 66.0599C107.004 66.4601 106.658 66.6597 105.966 66.6597C105.629 66.6597 105.239 66.6046 104.795 66.4913C104.705 66.4695 104.619 66.4456 104.534 66.4206C104.066 66.2855 103.598 66.6244 103.598 67.112V67.139C103.598 67.4582 103.806 67.742 104.112 67.8314C104.272 67.8792 104.435 67.9187 104.604 67.952C104.963 68.0196 105.397 68.0539 105.905 68.0539C106.896 68.0539 107.641 67.8667 108.138 67.4914Z" fill="white"/>
<path d="M112.167 64.2855L112.994 63.2968L114.68 61.5793C114.831 61.4244 115.045 61.3433 115.262 61.3568C115.901 61.3963 116.199 62.1698 115.75 62.6283L114.161 64.2574L115.871 67.0592C116.186 67.5759 115.788 68.235 115.183 68.1976L115.001 68.1861C114.75 68.1695 114.526 68.0312 114.399 67.815L112.927 65.2825L112.136 65.875L112.05 67.2505C112.023 67.6632 111.669 67.9772 111.255 67.9512L111.001 67.9356C110.588 67.9085 110.275 67.554 110.301 67.1403L110.802 59.1466C110.828 58.7328 111.183 58.4188 111.596 58.4448L111.849 58.4604C112.263 58.4864 112.578 58.843 112.551 59.2557L112.332 62.7406L112.144 64.2844L112.167 64.2855Z" fill="white"/>
<path fill-rule="evenodd" clip-rule="evenodd" d="M78.8692 56.6052C80.5368 56.6052 81.0909 57.7187 81.2729 58.5504C81.3643 58.9756 81.3623 59.4143 81.2832 59.8426L80.4328 64.2537L80.1262 66.228C80.1033 66.3777 80.0648 66.5253 80.0087 66.6657C79.9879 66.7177 79.964 66.7759 79.9349 66.8362L79.9213 66.9069L79.886 66.9308C79.6739 67.3321 79.2799 67.8051 78.6104 67.8051C77.9149 67.8051 77.6965 67.2936 77.6331 66.885C77.6165 66.7769 77.6103 66.6688 77.6123 66.5607C77.5146 66.6314 76.8108 67.1242 75.4946 67.618C74.3261 68.0546 73.1565 67.6523 72.7791 67.4953C72.7074 67.4662 72.6357 67.4392 72.5618 67.4173C72.1616 67.3061 70.5876 66.6844 71.0544 63.8878C71.3652 62.0206 73.1305 61.1224 74.5444 60.6982C75.3792 60.4487 76.2483 60.3354 77.1196 60.3354H78.0594C78.3099 60.3354 78.5147 60.1296 78.5137 59.879V59.6243C78.5137 58.9142 77.9814 58.9142 77.9814 58.9142H73.9196C73.72 58.9142 73.5224 58.8664 73.3499 58.7624C73.1056 58.6169 72.8311 58.3435 72.8311 57.8486C72.8311 57.3059 73.2272 56.9629 73.537 56.7768C73.7293 56.6614 73.9508 56.6052 74.1743 56.6052H78.8692ZM76.028 65.4857C76.2827 65.3838 76.5083 65.2705 76.7079 65.152C77.4013 64.7392 77.8972 64.077 78.1374 63.317L78.311 62.2899C77.9856 62.3076 74.2304 62.5332 73.721 63.552C73.1877 64.6186 73.7179 65.1301 73.7179 65.1301C73.7179 65.1301 74.2512 66.1957 76.028 65.4857Z" fill="white"/>
<path fill-rule="evenodd" clip-rule="evenodd" d="M101.767 66.9067C101.767 67.4952 101.29 67.9724 100.702 67.9724C100.112 67.9724 99.6352 67.4952 99.6352 66.9067C99.6352 66.3183 100.112 65.8411 100.702 65.8411C101.29 65.8411 101.767 66.3183 101.767 66.9067Z" fill="white"/>
<path fill-rule="evenodd" clip-rule="evenodd" d="M96.7937 74.3537C96.7937 74.3537 40.4907 67.96 14.7361 76.8405C14.2911 76.9933 12.8357 77.1565 12.45 76.8852C12.0726 76.618 11.8054 76.1294 12.2504 75.2415C13.1382 73.4658 33.7415 55.7038 33.7415 55.7038C33.7415 55.7038 34.9849 55.1705 33.0304 55.1705H22.1964C22.1964 55.1705 21.1308 54.6382 21.1308 53.0403C21.1308 51.4414 22.1964 51.0858 22.1964 51.0858C22.1964 51.0858 34.9849 50.3758 40.3129 53.0403C40.3129 53.0403 42.4442 53.7504 40.8463 54.9938C39.2473 56.2372 22.1964 70.2679 22.1964 70.2679C22.1964 70.2679 20.9531 72.2214 23.4398 71.6891C23.4398 71.6891 68.1978 66.1833 96.0836 73.4658C96.0836 73.4658 96.9715 73.8203 97.1492 74.1759C97.1492 74.1759 97.1492 74.3537 96.7937 74.3537Z" fill="#CC232F"/>
</svg>
