<svg width="128" height="128" viewBox="0 0 128 128" fill="none" xmlns="http://www.w3.org/2000/svg">
<rect width="128" height="128" fill="white"/>
<path d="M89.01 34C87.1939 34 85.4187 34.5387 83.9088 35.5478C82.399 36.557 81.2224 37.9913 80.5278 39.6693C79.8333 41.3473 79.6521 43.1936 80.0071 44.9746C80.3622 46.7556 81.2375 48.3913 82.5223 49.6748C83.8071 50.9582 85.4438 51.8317 87.2252 52.1848C89.0066 52.5379 90.8527 52.3547 92.53 51.6583C94.2072 50.962 95.6403 49.7838 96.6478 48.2729C97.6553 46.7619 98.192 44.9861 98.19 43.17C98.1873 40.737 97.219 38.4046 95.4977 36.6852C93.7764 34.9658 91.443 34 89.01 34ZM89.01 47.77C88.0998 47.772 87.2094 47.5039 86.4517 46.9996C85.6939 46.4954 85.1027 45.7776 84.753 44.9373C84.4033 44.0969 84.3108 43.1717 84.4872 42.2787C84.6635 41.3858 85.1008 40.5652 85.7438 39.9209C86.3867 39.2765 87.2063 38.8374 88.0989 38.6591C88.9915 38.4808 89.9169 38.5713 90.758 38.9192C91.5991 39.2671 92.3182 39.8567 92.8241 40.6133C93.33 41.37 93.6 42.2598 93.6 43.17C93.6 44.3883 93.1167 45.5568 92.2562 46.4192C91.3957 47.2815 90.2283 47.7674 89.01 47.77Z" fill="#782B82"/>
<path d="M37.1 58.19C35.6953 58.19 34.3222 58.6067 33.1544 59.3873C31.9866 60.1679 31.0766 61.2773 30.5395 62.5753C30.0024 63.8732 29.8624 65.3013 30.1372 66.6788C30.4119 68.0564 31.0891 69.3214 32.0831 70.314C33.077 71.3065 34.3431 71.982 35.721 72.2548C37.0989 72.5276 38.5268 72.3856 39.824 71.8467C41.1212 71.3078 42.2293 70.3962 43.0083 69.2273C43.7872 68.0584 44.202 66.6847 44.2 65.28C44.2 64.3481 44.0163 63.4253 43.6593 62.5645C43.3024 61.7036 42.7793 60.9216 42.1198 60.2631C41.4604 59.6046 40.6776 59.0825 39.8163 58.7268C38.9549 58.3711 38.0319 58.1887 37.1 58.19ZM37.1 68.83C36.3979 68.83 35.7115 68.6218 35.1277 68.2317C34.5439 67.8416 34.0889 67.2872 33.8202 66.6385C33.5515 65.9898 33.4812 65.2761 33.6182 64.5874C33.7552 63.8988 34.0933 63.2663 34.5898 62.7698C35.0862 62.2733 35.7188 61.9352 36.4074 61.7982C37.0961 61.6612 37.8098 61.7315 38.4585 62.0002C39.1072 62.2689 39.6616 62.7239 40.0517 63.3077C40.4418 63.8915 40.65 64.5779 40.65 65.28C40.65 65.7462 40.5582 66.2078 40.3798 66.6385C40.2014 67.0692 39.9399 67.4606 39.6102 67.7902C39.2806 68.1199 38.8892 68.3814 38.4585 68.5598C38.0278 68.7382 37.5662 68.83 37.1 68.83Z" fill="#782B82"/>
<path d="M56.17 84.05C55.098 84.05 54.0501 84.3679 53.1588 84.9634C52.2675 85.559 51.5728 86.4055 51.1626 87.3959C50.7523 88.3862 50.645 89.476 50.8541 90.5274C51.0633 91.5788 51.5795 92.5445 52.3375 93.3025C53.0955 94.0605 54.0612 94.5767 55.1126 94.7859C56.164 94.995 57.2538 94.8877 58.2441 94.4774C59.2345 94.0672 60.081 93.3725 60.6766 92.4812C61.2721 91.5899 61.59 90.542 61.59 89.47C61.59 88.0325 61.019 86.6539 60.0025 85.6375C58.9861 84.621 57.6075 84.05 56.17 84.05ZM56.17 92.18C55.634 92.18 55.1101 92.0211 54.6644 91.7233C54.2187 91.4255 53.8714 91.0023 53.6663 90.5071C53.4612 90.0119 53.4075 89.467 53.5121 88.9413C53.6166 88.4156 53.8747 87.9327 54.2537 87.5537C54.6327 87.1747 55.1156 86.9166 55.6413 86.8121C56.167 86.7075 56.7119 86.7612 57.2071 86.9663C57.7023 87.1714 58.1255 87.5188 58.4233 87.9644C58.7211 88.4101 58.88 88.934 58.88 89.47C58.88 90.1887 58.5945 90.878 58.0863 91.3863C57.578 91.8945 56.8887 92.18 56.17 92.18Z" fill="#782B82"/>
<path d="M57.73 82.69C58.4047 82.7263 59.0603 82.9277 59.6391 83.2764C60.218 83.6251 60.7024 84.1105 61.05 84.69C61.05 84.69 70.93 62.23 85.35 53.69C85.35 53.69 81.54 53.47 78.6 47.15C78.6 47.15 64.01 64.18 57.73 82.69Z" fill="#2CB2E4"/>
<path d="M36.46 74.1C36.46 74.1 39.09 74.55 42.62 72.36C42.62 72.36 41.68 76.43 51.17 84.53C50.2399 85.5709 49.5291 86.7884 49.08 88.11C49.08 88.11 39.44 79.17 36.46 74.1Z" fill="#2CB2E4"/>
</svg>
