<svg width="241" height="124" viewBox="0 0 241 124" fill="none" xmlns="http://www.w3.org/2000/svg">
<path fill-rule="evenodd" clip-rule="evenodd" d="M120.252 0.5C151.982 0.500004 182.873 13.6222 205.106 36.2139C226.945 58.4057 239.545 88.7195 240.224 119.788C240.258 121.35 239.205 122.72 237.697 123.129C237.402 123.209 237.097 123.25 236.791 123.25H2.73949C2.41785 123.25 2.0989 123.188 1.80101 123.066C0.864595 122.685 0.249988 121.774 0.263903 120.763C0.69781 89.3542 13.3318 58.6376 35.3996 36.2139C57.6327 13.6223 88.5227 0.500057 120.252 0.5ZM63.7434 24.4727C62.3752 22.103 59.3342 21.29 57.0325 22.7695C50.4621 26.9929 44.2862 31.8931 38.6155 37.4248L37.5813 38.4453C16.9739 59.0529 4.8557 86.5614 3.47289 115.539C3.41752 116.699 3.40864 117.769 3.41722 118.615C3.42813 119.674 4.29942 120.5 5.35863 120.5H15.0442C16.1889 120.5 17.106 119.541 17.0998 118.396C17.0953 117.587 17.105 116.599 17.1496 115.535C17.8253 99.4208 22.2511 83.6557 30.1135 69.5088L30.9563 68.0215C38.96 54.1636 50.0569 42.3585 63.3616 33.5176C65.6061 32.0258 66.3868 29.0528 65.0393 26.7188L63.7434 24.4727ZM183.473 22.7676C181.171 21.2882 178.13 22.102 176.762 24.4717L162.564 49.0635C161.208 51.4114 162.011 54.4005 164.258 55.917C168.398 58.7108 172.291 61.9122 175.874 65.4951C189.321 78.9424 197.396 96.7582 198.719 115.606C198.789 116.611 198.807 117.545 198.802 118.321C198.794 119.494 199.727 120.5 200.9 120.5H235.148C236.207 120.5 237.078 119.674 237.089 118.615C237.098 117.769 237.089 116.699 237.033 115.539C235.674 87.0432 223.932 59.9686 203.946 39.4795L202.925 38.4453C196.973 32.4934 190.445 27.2492 183.473 22.7676ZM120.253 4.20117C101.446 4.20125 83.1049 8.73286 66.6916 17.1914C64.2594 18.4449 63.4429 21.4847 64.8108 23.8545L72.4094 37.0176C73.777 39.3866 76.8055 40.1789 79.2395 38.9307C91.9784 32.398 106.104 28.9508 120.469 28.9062L121.979 28.915C135.74 29.1007 149.261 32.408 161.532 38.5625C163.961 39.7805 166.96 38.9806 168.319 36.6279L175.694 23.8564C177.062 21.4866 176.245 18.446 173.813 17.1924C157.4 8.73412 139.06 4.20118 120.253 4.20117Z" fill="white"/>
</svg>
