<svg width="241" height="125" viewBox="0 0 241 125" fill="none" xmlns="http://www.w3.org/2000/svg">
<path d="M120.339 0.875C152.069 0.875004 182.959 13.9973 205.192 36.5889C227.102 58.8524 239.713 89.2909 240.317 120.465C240.345 121.92 239.578 123.271 238.332 124.024C237.683 124.417 236.938 124.625 236.179 124.625H3.5969C2.78765 124.625 2.00679 124.324 1.40745 123.78C0.726969 123.163 0.336963 122.286 0.347879 121.367C0.723257 89.8788 13.365 59.0672 35.4866 36.5889C57.7196 13.9973 88.6096 0.875016 120.339 0.875ZM10.1897 104.579C7.36279 104.124 4.69557 106.083 4.37132 108.975C4.14641 110.982 3.97179 112.998 3.84788 115.017C3.66797 117.958 6.01508 120.375 8.91331 120.375H14.1047C16.9286 120.375 19.2205 118.075 19.4182 115.211C19.5046 113.958 19.614 112.707 19.7453 111.46C20.0504 108.563 18.1333 105.859 15.303 105.403L10.1897 104.579ZM236.834 116.69C236.739 114.693 235.018 113.206 233.058 113.363L197.236 116.23C196.141 116.318 195.326 117.29 195.383 118.405C195.439 119.5 196.318 120.375 197.396 120.375H233.328C235.319 120.375 236.93 118.712 236.834 116.69ZM236.079 107.786C235.814 105.617 233.815 104.144 231.692 104.486L196.839 110.099C195.582 110.301 194.728 111.501 194.888 112.785C195.046 114.054 196.144 114.996 197.398 114.896L232.575 112.08C234.735 111.907 236.346 109.972 236.079 107.786ZM234.604 98.6357C234.173 96.4954 232.066 95.1874 229.977 95.6973L195.66 104.073C194.424 104.375 193.666 105.639 193.923 106.904C194.178 108.156 195.346 109.005 196.587 108.805L231.443 103.192C233.581 102.848 235.037 100.792 234.604 98.6357ZM14.2981 87.2471C11.5765 86.348 8.64087 87.8595 7.87522 90.6631C7.28274 92.8326 6.75132 95.0189 6.28147 97.2178C5.66881 100.087 7.61316 102.829 10.4651 103.289L15.5901 104.114C18.3909 104.565 21.015 102.641 21.6379 99.8281C21.954 98.4002 22.3001 96.978 22.676 95.5645C23.424 92.751 21.947 89.7756 19.2209 88.875L14.2981 87.2471ZM232.431 89.6367C231.837 87.5368 229.635 86.399 227.591 87.0742L194.026 98.1631C192.818 98.5622 192.16 99.88 192.513 101.12C192.863 102.347 194.09 103.101 195.312 102.803L229.631 94.4248C231.734 93.9111 233.028 91.7507 232.431 89.6367ZM229.573 80.8398C228.821 78.7941 226.539 77.8332 224.554 78.6689L191.944 92.4043C190.772 92.8979 190.218 94.262 190.664 95.4688C191.107 96.6641 192.389 97.3174 193.583 96.9229L227.154 85.833C229.209 85.1536 230.331 82.8984 229.573 80.8398ZM226.051 72.2939C225.144 70.3142 222.795 69.5428 220.881 70.5342L189.429 86.8291C188.3 87.414 187.853 88.8148 188.39 89.9814C188.923 91.1378 190.25 91.6887 191.41 91.2002L224.024 77.4658C226.019 76.6253 226.963 74.2848 226.051 72.2939ZM21.0188 70.8037C18.4694 69.4831 15.3385 70.5077 14.1506 73.1543C13.5796 74.4268 13.0294 75.7106 12.5022 77.0049C12.1844 77.7849 11.8755 78.5685 11.5744 79.3545C10.5265 82.0913 12.0256 85.1119 14.7727 86.0195L19.7073 87.6494C22.4035 88.5399 25.2913 87.0579 26.3401 84.3799C26.5673 83.7993 26.7995 83.2193 27.0373 82.6426C27.3539 81.875 27.6805 81.1112 28.0149 80.3525C29.187 77.6927 28.186 74.5178 25.6321 73.1943L21.0188 70.8037ZM221.885 64.0615C220.828 62.1597 218.428 61.5765 216.596 62.7178L186.497 81.4727C185.418 82.1451 185.079 83.5767 185.703 84.6963C186.323 85.8071 187.69 86.2506 188.809 85.6709L220.264 69.375C222.187 68.3783 222.947 65.9728 221.885 64.0615ZM217.104 56.1865C215.905 54.3741 213.465 53.982 211.727 55.2656L183.165 76.3662C182.142 77.1221 181.916 78.5739 182.623 79.6396C183.326 80.6984 184.722 81.0316 185.793 80.3643L215.895 61.6094C217.734 60.4631 218.308 58.0069 217.104 56.1865ZM211.734 48.7158C210.399 47.0037 207.935 46.8067 206.301 48.2256L179.454 71.5391C178.494 72.3732 178.38 73.839 179.165 74.8447C179.947 75.8448 181.365 76.0651 182.381 75.3145L210.945 54.2139C212.689 52.9251 213.073 50.4342 211.734 48.7158ZM30.178 55.6494C27.8631 53.9399 24.6137 54.4538 23.0334 56.8789C21.8185 58.7433 20.6549 60.6431 19.5451 62.5752C18.0887 65.1115 19.1045 68.3324 21.678 69.666L26.302 72.0615C28.8279 73.3701 31.9076 72.3658 33.3557 69.8877C34.0847 68.64 34.8394 67.408 35.6194 66.1934C37.1865 63.7526 36.6866 60.4575 34.3674 58.7441L30.178 55.6494ZM205.809 41.6953C204.347 40.094 201.874 40.0928 200.355 41.6377L175.388 67.0234C174.496 67.9306 174.496 69.3984 175.355 70.3379C176.21 71.2733 177.641 71.3813 178.596 70.5518L205.446 47.2354C207.084 45.8123 207.275 43.301 205.809 41.6953ZM199.36 35.1631C197.779 33.6822 195.317 33.8793 193.921 35.541L177.987 54.5117C177.022 55.6607 177.152 57.3809 178.245 58.4043C179.335 59.4248 181.03 59.4217 182.078 58.3564L199.427 40.7168C200.95 39.1681 200.943 36.6473 199.36 35.1631ZM41.4524 42.2461C39.4265 40.1914 36.1368 40.1864 34.2053 42.333C32.7543 43.9459 31.3483 45.5982 29.9895 47.2871C28.1603 49.5607 28.668 52.9043 31.0051 54.6309L35.2033 57.7324C37.4969 59.4264 40.6937 58.9243 42.5051 56.707C43.3874 55.6271 44.2919 54.565 45.218 53.5215C47.1384 51.3577 47.1476 48.0233 45.1184 45.9648L41.4524 42.2461ZM192.436 29.165C190.746 27.8136 188.305 28.2062 187.041 29.9746L172.62 50.1582C171.748 51.3796 172.009 53.0833 173.176 54.0166C174.341 54.9481 176.032 54.8091 176.994 53.6631L192.928 34.6943C194.326 33.0298 194.128 30.5186 192.436 29.165ZM54.8293 30.6396C53.1469 28.2855 49.8993 27.7532 47.6594 29.5645C45.9137 30.9765 44.2061 32.4411 42.5403 33.9551C40.3868 35.9124 40.3783 39.2958 42.4231 41.3701L53.4446 52.5508C55.4495 54.5847 58.6803 54.5942 60.8196 52.707C61.5072 52.1005 62.2038 51.5047 62.9084 50.9199C65.1285 49.0773 65.6544 45.7881 63.9699 43.4307L54.8293 30.6396ZM185.074 23.7344C183.286 22.5204 180.88 23.1056 179.756 24.9697L166.936 46.2412C166.161 47.5278 166.554 49.2053 167.788 50.043C169.022 50.8799 170.696 50.6066 171.568 49.3867L185.989 29.2051C187.254 27.4349 186.864 24.9493 185.074 23.7344ZM177.319 18.9043C175.442 17.8352 173.085 18.6094 172.109 20.5586L160.971 42.7861C160.298 44.1299 160.819 45.7695 162.113 46.5068C163.407 47.2441 165.056 46.8399 165.831 45.5537L178.651 24.2832C179.774 22.4183 179.195 19.9734 177.319 18.9043ZM69.7024 21.3867C68.4024 18.7925 65.2738 17.7504 62.7824 19.1855C60.8852 20.2785 59.0187 21.4245 57.1858 22.623C54.757 24.2113 54.2249 27.5503 55.9221 29.9258L65.0744 42.7344C66.7397 45.0644 69.9283 45.5895 72.3332 44.0674C73.0704 43.6008 73.8154 43.1461 74.5657 42.7012C77.0396 41.2336 78.063 38.0706 76.7629 35.4756L69.7024 21.3867ZM169.216 14.7031C167.262 13.7855 164.971 14.7437 164.147 16.7656L154.759 39.8125C154.192 41.2053 154.837 42.7982 156.183 43.4307C157.531 44.064 159.143 43.5285 159.818 42.1836L170.955 19.958C171.932 18.0097 171.168 15.6202 169.216 14.7031ZM160.81 11.1523C158.79 10.3923 156.585 11.5329 155.919 13.6152L148.339 37.3379C147.881 38.771 148.646 40.3089 150.035 40.833C151.428 41.358 152.996 40.6943 153.565 39.2988L162.953 16.2529C163.776 14.2336 162.826 11.9114 160.81 11.1523ZM152.163 8.28125C150.091 7.68291 147.977 8.99588 147.474 11.126L141.746 35.3789C141.401 36.8436 142.283 38.3159 143.707 38.7285C145.137 39.1423 146.65 38.3547 147.11 36.917L154.691 13.1953C155.355 11.1171 154.231 8.87819 152.163 8.28125ZM85.7971 14.6094C84.9119 11.8392 81.981 10.3127 79.2991 11.3359C78.0747 11.8032 76.8567 12.2912 75.6467 12.8008C74.8466 13.1378 74.0498 13.4832 73.258 13.8379C70.6162 15.0212 69.5784 18.2333 70.8889 20.8486L77.9573 34.9551C79.244 37.5228 82.3148 38.5497 84.925 37.4268C85.2545 37.285 85.5849 37.1447 85.9162 37.0068C86.3844 36.812 86.8545 36.6212 87.3254 36.4346C89.9925 35.3771 91.4892 32.4178 90.6047 29.6494L85.7971 14.6094ZM143.322 6.10449C141.208 5.67191 139.199 7.14856 138.862 9.31348L134.984 34.207C134.774 35.5502 135.668 36.8116 136.98 37.0771C138.58 37.4006 140.171 36.4089 140.552 34.7959L146.217 10.8018C146.719 8.67725 145.428 6.53604 143.322 6.10449ZM134.337 4.63281C132.196 4.36896 130.303 6.00301 130.134 8.18945L128.209 33.0498C128.093 34.5509 129.186 35.8632 130.655 36.0459C132.134 36.2293 133.514 35.2114 133.747 33.7158L137.584 9.08594C137.92 6.92808 136.47 4.89594 134.337 4.63281ZM125.266 3.87891C123.11 3.78563 121.348 5.56416 121.348 7.75781V32.6953C121.348 34.2008 122.538 35.4227 124.017 35.4883C125.505 35.5539 126.802 34.4281 126.919 32.918L128.844 8.05859C129.012 5.88106 127.412 3.97196 125.266 3.87891ZM102.717 10.4668C102.268 7.58878 99.6062 5.61466 96.7991 6.20117C94.675 6.6452 92.5624 7.14891 90.4651 7.71289C87.6756 8.463 86.1577 11.4695 87.0491 14.2598L91.8606 29.3174C92.737 32.0595 95.6147 33.5616 98.3664 32.8652C99.1995 32.6544 100.036 32.4552 100.874 32.2686C103.669 31.6461 105.598 28.9627 105.151 26.0898L102.717 10.4668ZM114.857 3.89941C112.693 4.00208 110.534 4.16615 108.383 4.39062C105.514 4.69012 103.555 7.41632 104.006 10.3125L106.442 25.9502C106.886 28.7999 109.501 30.7414 112.327 30.4883C113.178 30.4122 114.029 30.3486 114.882 30.2969C117.735 30.1237 120.051 27.7804 120.051 24.874V9.05469C120.051 6.13854 117.721 3.76372 114.857 3.89941Z" fill="white"/>
</svg>
